<svg width="137" height="20" viewBox="0 0 137 20" fill="none" xmlns="http://www.w3.org/2000/svg">
<path d="M14.3063 2.31527L10.0277 0C5.81412 1.5839 0 8.81316 0 8.81316L4.00254 11.1501C9.60789 3.83858 14.3063 2.31527 14.3063 2.31527Z" fill="#292929"/>
<path d="M28.6957 2.78249L24.2711 0.131836C24.2711 0.131836 22.1228 2.47739 16.5601 5.24922C10.9974 8.02105 7.30017 13.0173 7.30017 13.0173L11.2241 15.3325C11.2241 15.3325 12.9616 12.6213 19.4402 9.17868C25.9188 5.73608 28.6957 2.78249 28.6957 2.78249Z" fill="#292929"/>
<path d="M25.883 10.0636C18.5828 13.569 15.1078 17.4444 15.1078 17.4444L19.1822 19.7185C21.3641 17.4335 26.4891 14.7526 30.9788 12.7424C35.4684 10.7323 39.8908 5.93078 39.8908 5.93078C43.2198 7.85873 47.2987 5.96973 47.2987 5.96973L38.05 0.618652C35.3629 3.94008 33.1832 6.55828 25.883 10.0636Z" fill="#292929"/>
<path d="M54.1993 6.10172H59.0033V19.4437H65.4819V6.10172H70.2858L70.3172 0.618652H54.1993V6.10172Z" fill="#292929"/>
<path d="M81.4874 0.078125C75.4758 0.078125 70.6 4.53772 70.6 10.0316C70.6 15.5255 75.4758 19.9851 81.4874 19.9851C87.4991 19.9851 92.3772 15.5255 92.3772 10.0316C92.3772 4.53772 87.5014 0.078125 81.4874 0.078125ZM81.4874 14.0757C79.2808 14.0757 77.4916 12.269 77.4916 10.0403C77.4916 7.81155 79.2875 6.00261 81.4874 6.00261C83.6874 6.00261 85.4832 7.80938 85.4832 10.0403C85.4832 12.2711 83.6941 14.0757 81.4874 14.0757Z" fill="#292929"/>
<path d="M126.11 0.078125C120.099 0.078125 115.223 4.53772 115.223 10.0316C115.223 15.5255 120.099 19.9851 126.11 19.9851C132.122 19.9851 137 15.5255 137 10.0316C137 4.53772 132.124 0.078125 126.11 0.078125ZM126.11 14.0757C123.915 14.0757 122.119 12.269 122.119 10.0403C122.119 7.81155 123.915 6.00261 126.115 6.00261C128.315 6.00261 130.111 7.80938 130.111 10.0403C130.111 12.2711 128.317 14.0757 126.11 14.0757Z" fill="#292929"/>
<path d="M103.889 12.855H107.092V14.4692C106.494 14.7738 105.828 14.9321 105.152 14.9301C102.654 14.9301 100.629 12.7663 100.629 10.0788C100.629 7.39139 102.649 5.21893 105.152 5.21893C105.849 5.22839 106.533 5.39856 107.146 5.71517C107.76 6.03179 108.287 6.48564 108.681 7.03869L112.498 2.7825C110.442 1.02863 107.788 0.0658052 105.042 0.0777465C103.812 0.0784173 102.59 0.271334 101.424 0.64899C97.2013 2.00569 94.155 5.69713 94.155 10.0377C94.155 15.5403 99.0286 19.9912 105.042 19.9912C108.125 19.9912 110.906 19.8549 112.886 17.9745V7.89988H103.889V12.855Z" fill="#292929"/>
</svg>
