<svg width="671" height="125" viewBox="0 0 671 125" fill="none" xmlns="http://www.w3.org/2000/svg">
<path d="M495 65L613 65" stroke="#00A3FF" stroke-miterlimit="10" stroke-linecap="round"/>
<g filter="url(#filter0_d_802_721)">
<path d="M637.721 85.7315C649.083 74.3745 649.083 55.961 637.721 44.6039C626.358 33.2468 607.936 33.2468 596.574 44.6039C585.211 55.961 585.211 74.3745 596.574 85.7315C607.936 97.0886 626.358 97.0886 637.721 85.7315Z" fill="white"/>
</g>
<path d="M626.241 65.1647C626.246 66.8873 625.741 68.573 624.789 70.009C623.837 71.445 622.481 72.5671 620.892 73.2338C619.302 73.9004 617.551 74.0817 615.859 73.7549C614.167 73.428 612.61 72.6076 611.383 71.3971C610.157 70.1866 609.317 68.6402 608.969 66.9531C608.621 65.2659 608.78 63.5135 609.427 61.9169C610.075 60.3202 611.18 58.9509 612.605 57.9816C614.03 57.0122 615.71 56.4863 617.433 56.4702C618.585 56.4557 619.727 56.67 620.795 57.1004C621.863 57.5309 622.835 58.1691 623.655 58.9779C624.474 59.7867 625.124 60.75 625.568 61.8121C626.012 62.8741 626.241 64.0137 626.241 65.1647Z" fill="#00A3FF"/>
<path d="M617.542 68.5714C619.425 68.5714 620.951 67.0461 620.951 65.1645C620.951 63.2829 619.425 61.7576 617.542 61.7576C615.66 61.7576 614.134 63.2829 614.134 65.1645C614.134 67.0461 615.66 68.5714 617.542 68.5714Z" fill="white"/>
<path d="M497.452 65.1645C497.457 66.8906 496.95 68.5796 495.994 70.0174C495.039 71.4553 493.678 72.5774 492.084 73.2417C490.49 73.906 488.735 74.0827 487.04 73.7492C485.346 73.4158 483.789 72.5873 482.565 71.3686C481.342 70.1499 480.509 68.5959 480.17 66.9033C479.831 65.2107 480.002 63.4557 480.662 61.8604C481.321 60.2651 482.44 58.9013 483.875 57.9418C485.311 56.9822 486.999 56.47 488.726 56.47C491.035 56.47 493.251 57.3851 494.886 59.0149C496.522 60.6446 497.445 62.856 497.452 65.1645Z" fill="#00A3FF"/>
<path d="M488.753 68.5714C490.636 68.5714 492.162 67.0461 492.162 65.1645C492.162 63.2829 490.636 61.7576 488.753 61.7576C486.871 61.7576 485.345 63.2829 485.345 65.1645C485.345 67.0461 486.871 68.5714 488.753 68.5714Z" fill="white"/>
<path d="M93.3041 93.2599C110.481 76.0913 110.481 48.2554 93.304 31.0867C76.1272 13.9181 48.2782 13.918 31.1014 31.0867C13.9246 48.2553 13.9245 76.0913 31.1014 93.26C48.2782 110.429 76.1273 110.429 93.3041 93.2599Z" fill="#00A3FF"/>
<path d="M51.1914 48.1655H70.3906V52.9702L59.3945 76.1733H53.2031L64.0039 53.5757H51.1914V48.1655Z" fill="white"/>
<path d="M143.146 46.9907L146.342 38.9141H148.185L143.91 48.9829C143.788 49.2651 143.653 49.5391 143.503 49.8047C143.354 50.0648 143.171 50.2972 142.956 50.502C142.74 50.7067 142.471 50.87 142.15 50.9917C141.835 51.1134 141.442 51.1743 140.972 51.1743C140.839 51.1743 140.681 51.166 140.499 51.1494C140.316 51.1383 140.197 51.1245 140.142 51.1079L140.191 49.8296C140.252 49.8407 140.371 49.8517 140.548 49.8628C140.725 49.8683 140.855 49.8711 140.938 49.8711C141.254 49.8711 141.503 49.8075 141.686 49.6802C141.868 49.5529 142.015 49.3924 142.125 49.1987C142.242 48.9995 142.347 48.7975 142.441 48.5928L143.146 46.9907ZM140.432 38.9141L143.794 46.4429L144.192 47.9287L142.848 48.0283L138.639 38.9141H140.432ZM153.522 42.0186V51H151.979V42.0186H153.522ZM156.536 42.0186V43.2637H149.023V42.0186H156.536ZM162.263 47.0488H159.316L159.3 45.8203H161.707C162.183 45.8203 162.579 45.7733 162.894 45.6792C163.215 45.5851 163.456 45.444 163.616 45.2559C163.777 45.0677 163.857 44.8353 163.857 44.5586C163.857 44.3428 163.81 44.1546 163.716 43.9941C163.627 43.8281 163.492 43.6925 163.309 43.5874C163.126 43.4767 162.9 43.3965 162.628 43.3467C162.363 43.2913 162.05 43.2637 161.69 43.2637H159.723V51H158.188V42.0186H161.69C162.26 42.0186 162.772 42.0684 163.226 42.168C163.685 42.2676 164.076 42.4198 164.396 42.6245C164.723 42.8237 164.972 43.0783 165.144 43.3882C165.315 43.6981 165.401 44.0633 165.401 44.4839C165.401 44.755 165.346 45.0124 165.235 45.2559C165.124 45.4993 164.961 45.7152 164.745 45.9033C164.529 46.0915 164.264 46.2464 163.948 46.3682C163.633 46.4844 163.27 46.5591 162.861 46.5923L162.263 47.0488ZM162.263 51H158.76L159.524 49.7549H162.263C162.689 49.7549 163.043 49.7023 163.326 49.5972C163.608 49.4865 163.818 49.3315 163.957 49.1323C164.1 48.9276 164.172 48.6841 164.172 48.4019C164.172 48.1196 164.1 47.8789 163.957 47.6797C163.818 47.4749 163.608 47.32 163.326 47.2148C163.043 47.1042 162.689 47.0488 162.263 47.0488H159.931L159.947 45.8203H162.861L163.417 46.2852C163.91 46.3239 164.327 46.4456 164.67 46.6504C165.014 46.8551 165.274 47.1152 165.451 47.4307C165.628 47.7406 165.716 48.0781 165.716 48.4434C165.716 48.8639 165.636 49.2347 165.476 49.5557C165.321 49.8766 165.094 50.145 164.795 50.3608C164.496 50.5711 164.134 50.7316 163.708 50.8423C163.281 50.9474 162.8 51 162.263 51ZM171.502 51.166C170.877 51.166 170.309 51.0609 169.8 50.8506C169.297 50.6348 168.862 50.3332 168.497 49.9458C168.137 49.5584 167.861 49.0991 167.667 48.5679C167.473 48.0366 167.376 47.4556 167.376 46.8247V46.4761C167.376 45.7456 167.484 45.0954 167.7 44.5254C167.916 43.9499 168.209 43.4629 168.58 43.0645C168.951 42.666 169.371 42.3644 169.842 42.1597C170.312 41.9549 170.799 41.8525 171.303 41.8525C171.945 41.8525 172.498 41.9632 172.963 42.1846C173.433 42.4059 173.818 42.7158 174.117 43.1143C174.416 43.5072 174.637 43.972 174.781 44.5088C174.925 45.04 174.997 45.6211 174.997 46.252V46.9409H168.29V45.6875H173.461V45.5713C173.439 45.1729 173.356 44.7855 173.212 44.4092C173.074 44.0329 172.852 43.723 172.548 43.4795C172.243 43.236 171.828 43.1143 171.303 43.1143C170.954 43.1143 170.633 43.189 170.34 43.3384C170.047 43.4823 169.795 43.6981 169.584 43.9858C169.374 44.2736 169.211 44.625 169.095 45.04C168.979 45.4551 168.92 45.9338 168.92 46.4761V46.8247C168.92 47.2508 168.979 47.652 169.095 48.0283C169.216 48.3991 169.391 48.7256 169.618 49.0078C169.85 49.29 170.13 49.5114 170.456 49.6719C170.788 49.8324 171.164 49.9126 171.585 49.9126C172.127 49.9126 172.587 49.8019 172.963 49.5806C173.339 49.3592 173.668 49.0632 173.951 48.6924L174.88 49.4312C174.687 49.7244 174.44 50.0039 174.142 50.2695C173.843 50.5352 173.475 50.751 173.038 50.917C172.606 51.083 172.094 51.166 171.502 51.166ZM178.325 43.7451V54.4531H176.781V42.0186H178.192L178.325 43.7451ZM184.376 46.4346V46.6089C184.376 47.2619 184.299 47.8678 184.144 48.4268C183.989 48.9801 183.762 49.4616 183.463 49.8711C183.17 50.2806 182.808 50.5988 182.376 50.8257C181.944 51.0526 181.449 51.166 180.89 51.166C180.32 51.166 179.817 51.0719 179.379 50.8838C178.942 50.6956 178.571 50.4217 178.267 50.062C177.963 49.7023 177.719 49.2707 177.537 48.7671C177.36 48.2635 177.238 47.6963 177.171 47.0654V46.1357C177.238 45.4717 177.362 44.8768 177.545 44.3511C177.728 43.8254 177.968 43.3771 178.267 43.0063C178.571 42.63 178.939 42.3451 179.371 42.1514C179.803 41.9521 180.301 41.8525 180.865 41.8525C181.43 41.8525 181.931 41.9632 182.368 42.1846C182.805 42.4004 183.173 42.7103 183.472 43.1143C183.771 43.5182 183.995 44.0024 184.144 44.5669C184.299 45.1258 184.376 45.7484 184.376 46.4346ZM182.833 46.6089V46.4346C182.833 45.9863 182.785 45.5658 182.691 45.1729C182.597 44.7744 182.451 44.4258 182.251 44.127C182.058 43.8226 181.809 43.5846 181.504 43.4131C181.2 43.236 180.838 43.1475 180.417 43.1475C180.03 43.1475 179.692 43.2139 179.404 43.3467C179.122 43.4795 178.881 43.6593 178.682 43.8862C178.483 44.1076 178.32 44.3621 178.192 44.6499C178.071 44.9321 177.979 45.2254 177.918 45.5298V47.6797C178.029 48.0671 178.184 48.4323 178.383 48.7754C178.583 49.113 178.848 49.3869 179.18 49.5972C179.512 49.8019 179.93 49.9043 180.434 49.9043C180.849 49.9043 181.206 49.8185 181.504 49.647C181.809 49.4699 182.058 49.2292 182.251 48.9248C182.451 48.6204 182.597 48.2718 182.691 47.8789C182.785 47.4805 182.833 47.0571 182.833 46.6089ZM188.925 47.0903L185.522 42.0186H187.373L189.697 45.7373H191.49L191.266 47.0903H188.925ZM189.764 46.9326L187.157 51H185.215L188.792 45.8203L189.764 46.9326ZM192.279 42.0186V51H190.743V42.0186H192.279ZM197.517 42.0186L194.113 47.0903H191.772L191.532 45.7373H193.333L195.657 42.0186H197.517ZM195.873 51L193.258 46.9326L194.246 45.8203L197.815 51H195.873ZM200.854 42.0186H202.389L202.256 45.3804C202.223 46.2326 202.126 46.9686 201.966 47.5884C201.805 48.2082 201.601 48.7367 201.352 49.1738C201.103 49.6055 200.823 49.9679 200.513 50.2612C200.209 50.5545 199.893 50.8008 199.567 51H198.803L198.845 49.7466L199.16 49.7383C199.343 49.5225 199.52 49.3011 199.691 49.0742C199.863 48.8418 200.021 48.5679 200.165 48.2524C200.308 47.9315 200.427 47.5413 200.521 47.082C200.621 46.6172 200.685 46.05 200.712 45.3804L200.854 42.0186ZM201.235 42.0186H206.639V51H205.104V43.438H201.235V42.0186ZM198.455 49.7383H207.793V53.6479H206.257V51H199.99V53.6479H198.446L198.455 49.7383ZM213.222 51.166C212.596 51.166 212.029 51.0609 211.52 50.8506C211.016 50.6348 210.582 50.3332 210.217 49.9458C209.857 49.5584 209.58 49.0991 209.387 48.5679C209.193 48.0366 209.096 47.4556 209.096 46.8247V46.4761C209.096 45.7456 209.204 45.0954 209.42 44.5254C209.636 43.9499 209.929 43.4629 210.3 43.0645C210.671 42.666 211.091 42.3644 211.562 42.1597C212.032 41.9549 212.519 41.8525 213.022 41.8525C213.664 41.8525 214.218 41.9632 214.683 42.1846C215.153 42.4059 215.538 42.7158 215.836 43.1143C216.135 43.5072 216.357 43.972 216.5 44.5088C216.644 45.04 216.716 45.6211 216.716 46.252V46.9409H210.009V45.6875H215.181V45.5713C215.159 45.1729 215.076 44.7855 214.932 44.4092C214.793 44.0329 214.572 43.723 214.268 43.4795C213.963 43.236 213.548 43.1143 213.022 43.1143C212.674 43.1143 212.353 43.189 212.06 43.3384C211.766 43.4823 211.514 43.6981 211.304 43.9858C211.094 44.2736 210.931 44.625 210.814 45.04C210.698 45.4551 210.64 45.9338 210.64 46.4761V46.8247C210.64 47.2508 210.698 47.652 210.814 48.0283C210.936 48.3991 211.111 48.7256 211.337 49.0078C211.57 49.29 211.849 49.5114 212.176 49.6719C212.508 49.8324 212.884 49.9126 213.305 49.9126C213.847 49.9126 214.306 49.8019 214.683 49.5806C215.059 49.3592 215.388 49.0632 215.67 48.6924L216.6 49.4312C216.406 49.7244 216.16 50.0039 215.861 50.2695C215.562 50.5352 215.194 50.751 214.757 50.917C214.326 51.083 213.814 51.166 213.222 51.166ZM224.602 45.9116V47.1567H219.854V45.9116H224.602ZM220.178 42.0186V51H218.642V42.0186H220.178ZM225.847 42.0186V51H224.303V42.0186H225.847ZM229.981 48.5679L234.123 42.0186H235.667V51H234.123V44.4507L229.981 51H228.454V42.0186H229.981V48.5679ZM241.859 51.166C241.234 51.166 240.667 51.0609 240.158 50.8506C239.654 50.6348 239.22 50.3332 238.854 49.9458C238.495 49.5584 238.218 49.0991 238.024 48.5679C237.831 48.0366 237.734 47.4556 237.734 46.8247V46.4761C237.734 45.7456 237.842 45.0954 238.058 44.5254C238.273 43.9499 238.567 43.4629 238.938 43.0645C239.308 42.666 239.729 42.3644 240.199 42.1597C240.67 41.9549 241.157 41.8525 241.66 41.8525C242.302 41.8525 242.855 41.9632 243.32 42.1846C243.791 42.4059 244.175 42.7158 244.474 43.1143C244.773 43.5072 244.994 43.972 245.138 44.5088C245.282 45.04 245.354 45.6211 245.354 46.252V46.9409H238.647V45.6875H243.818V45.5713C243.796 45.1729 243.713 44.7855 243.569 44.4092C243.431 44.0329 243.21 43.723 242.905 43.4795C242.601 43.236 242.186 43.1143 241.66 43.1143C241.312 43.1143 240.991 43.189 240.697 43.3384C240.404 43.4823 240.152 43.6981 239.942 43.9858C239.732 44.2736 239.568 44.625 239.452 45.04C239.336 45.4551 239.278 45.9338 239.278 46.4761V46.8247C239.278 47.2508 239.336 47.652 239.452 48.0283C239.574 48.3991 239.748 48.7256 239.975 49.0078C240.208 49.29 240.487 49.5114 240.813 49.6719C241.146 49.8324 241.522 49.9126 241.942 49.9126C242.485 49.9126 242.944 49.8019 243.32 49.5806C243.697 49.3592 244.026 49.0632 244.308 48.6924L245.238 49.4312C245.044 49.7244 244.798 50.0039 244.499 50.2695C244.2 50.5352 243.832 50.751 243.395 50.917C242.963 51.083 242.451 51.166 241.859 51.166ZM255.581 47.0488H252.634L252.617 45.8203H255.024C255.5 45.8203 255.896 45.7733 256.211 45.6792C256.532 45.5851 256.773 45.444 256.934 45.2559C257.094 45.0677 257.174 44.8353 257.174 44.5586C257.174 44.3428 257.127 44.1546 257.033 43.9941C256.945 43.8281 256.809 43.6925 256.626 43.5874C256.444 43.4767 256.217 43.3965 255.946 43.3467C255.68 43.2913 255.368 43.2637 255.008 43.2637H253.041V51H251.505V42.0186H255.008C255.578 42.0186 256.09 42.0684 256.543 42.168C257.003 42.2676 257.393 42.4198 257.714 42.6245C258.04 42.8237 258.289 43.0783 258.461 43.3882C258.632 43.6981 258.718 44.0633 258.718 44.4839C258.718 44.755 258.663 45.0124 258.552 45.2559C258.442 45.4993 258.278 45.7152 258.062 45.9033C257.847 46.0915 257.581 46.2464 257.266 46.3682C256.95 46.4844 256.588 46.5591 256.178 46.5923L255.581 47.0488ZM255.581 51H252.078L252.841 49.7549H255.581C256.007 49.7549 256.361 49.7023 256.643 49.5972C256.925 49.4865 257.136 49.3315 257.274 49.1323C257.418 48.9276 257.49 48.6841 257.49 48.4019C257.49 48.1196 257.418 47.8789 257.274 47.6797C257.136 47.4749 256.925 47.32 256.643 47.2148C256.361 47.1042 256.007 47.0488 255.581 47.0488H253.248L253.265 45.8203H256.178L256.734 46.2852C257.227 46.3239 257.645 46.4456 257.988 46.6504C258.331 46.8551 258.591 47.1152 258.768 47.4307C258.945 47.7406 259.034 48.0781 259.034 48.4434C259.034 48.8639 258.953 49.2347 258.793 49.5557C258.638 49.8766 258.411 50.145 258.112 50.3608C257.813 50.5711 257.451 50.7316 257.025 50.8423C256.599 50.9474 256.117 51 255.581 51ZM262.354 45.1064H265.052C265.777 45.1064 266.388 45.2337 266.886 45.4883C267.384 45.7373 267.761 46.0832 268.015 46.5259C268.275 46.9631 268.405 47.4611 268.405 48.02C268.405 48.4351 268.333 48.8252 268.189 49.1904C268.046 49.5501 267.83 49.8656 267.542 50.1367C267.26 50.4079 266.908 50.6209 266.488 50.7759C266.073 50.9253 265.594 51 265.052 51H261.233V42.0186H262.769V49.7383H265.052C265.494 49.7383 265.849 49.658 266.114 49.4976C266.38 49.3371 266.571 49.1296 266.687 48.875C266.803 48.6204 266.861 48.3548 266.861 48.0781C266.861 47.807 266.803 47.5413 266.687 47.2812C266.571 47.0212 266.38 46.8053 266.114 46.6338C265.849 46.4567 265.494 46.3682 265.052 46.3682H262.354V45.1064ZM271.601 42.0186V51H270.065V42.0186H271.601ZM280.051 38.1089H281.313C281.313 38.6512 281.23 39.0828 281.064 39.4038C280.898 39.7192 280.671 39.9627 280.383 40.1343C280.101 40.3058 279.78 40.4359 279.42 40.5244C279.066 40.613 278.698 40.6987 278.316 40.7817C277.84 40.8813 277.398 41.0391 276.988 41.2549C276.584 41.4652 276.236 41.764 275.942 42.1514C275.655 42.5387 275.442 43.0423 275.303 43.6621C275.17 44.2819 275.134 45.0483 275.195 45.9614V46.7251H273.934V45.9614C273.934 44.9377 274.03 44.0439 274.224 43.2803C274.423 42.5166 274.703 41.8719 275.062 41.3462C275.422 40.8205 275.848 40.4027 276.341 40.0928C276.839 39.7829 277.387 39.5698 277.984 39.4536C278.416 39.3706 278.787 39.2821 279.097 39.188C279.407 39.0884 279.642 38.9556 279.802 38.7896C279.968 38.6235 280.051 38.3966 280.051 38.1089ZM278.233 42.5332C278.82 42.5332 279.343 42.6356 279.802 42.8403C280.262 43.0451 280.652 43.3301 280.973 43.6953C281.294 44.0605 281.537 44.4922 281.703 44.9902C281.875 45.4827 281.96 46.0195 281.96 46.6006V46.7832C281.96 47.4085 281.869 47.9896 281.687 48.5264C281.509 49.0576 281.247 49.5225 280.898 49.9209C280.555 50.3138 280.134 50.6209 279.636 50.8423C279.144 51.0636 278.582 51.1743 277.951 51.1743C277.32 51.1743 276.756 51.0636 276.258 50.8423C275.765 50.6209 275.345 50.3138 274.996 49.9209C274.647 49.5225 274.382 49.0576 274.199 48.5264C274.022 47.9896 273.934 47.4085 273.934 46.7832V46.6006C273.934 46.4622 273.958 46.3267 274.008 46.1938C274.058 46.061 274.119 45.9255 274.191 45.7871C274.268 45.6488 274.338 45.5021 274.398 45.3472C274.603 44.8491 274.883 44.387 275.237 43.9609C275.597 43.5348 276.025 43.1917 276.523 42.9316C277.027 42.666 277.597 42.5332 278.233 42.5332ZM277.935 43.7866C277.37 43.7866 276.905 43.9167 276.54 44.1768C276.18 44.4368 275.912 44.7827 275.735 45.2144C275.558 45.6405 275.469 46.1025 275.469 46.6006V46.7832C275.469 47.2038 275.519 47.6022 275.619 47.9785C275.718 48.3548 275.868 48.6896 276.067 48.9829C276.272 49.2707 276.529 49.4976 276.839 49.6636C277.154 49.8296 277.525 49.9126 277.951 49.9126C278.377 49.9126 278.745 49.8296 279.055 49.6636C279.365 49.4976 279.62 49.2707 279.819 48.9829C280.018 48.6896 280.167 48.3548 280.267 47.9785C280.367 47.6022 280.417 47.2038 280.417 46.7832V46.6006C280.417 46.2243 280.367 45.8674 280.267 45.5298C280.167 45.1922 280.015 44.8934 279.811 44.6333C279.611 44.3732 279.354 44.1685 279.039 44.019C278.729 43.8641 278.361 43.7866 277.935 43.7866ZM285.09 43.7451V54.4531H283.546V42.0186H284.957L285.09 43.7451ZM291.141 46.4346V46.6089C291.141 47.2619 291.064 47.8678 290.909 48.4268C290.754 48.9801 290.527 49.4616 290.228 49.8711C289.935 50.2806 289.572 50.5988 289.141 50.8257C288.709 51.0526 288.214 51.166 287.655 51.166C287.085 51.166 286.581 51.0719 286.144 50.8838C285.707 50.6956 285.336 50.4217 285.032 50.062C284.727 49.7023 284.484 49.2707 284.301 48.7671C284.124 48.2635 284.002 47.6963 283.936 47.0654V46.1357C284.002 45.4717 284.127 44.8768 284.31 44.3511C284.492 43.8254 284.733 43.3771 285.032 43.0063C285.336 42.63 285.704 42.3451 286.136 42.1514C286.567 41.9521 287.065 41.8525 287.63 41.8525C288.194 41.8525 288.695 41.9632 289.132 42.1846C289.569 42.4004 289.938 42.7103 290.236 43.1143C290.535 43.5182 290.759 44.0024 290.909 44.5669C291.064 45.1258 291.141 45.7484 291.141 46.4346ZM289.597 46.6089V46.4346C289.597 45.9863 289.55 45.5658 289.456 45.1729C289.362 44.7744 289.215 44.4258 289.016 44.127C288.822 43.8226 288.573 43.5846 288.269 43.4131C287.965 43.236 287.602 43.1475 287.182 43.1475C286.794 43.1475 286.457 43.2139 286.169 43.3467C285.887 43.4795 285.646 43.6593 285.447 43.8862C285.248 44.1076 285.084 44.3621 284.957 44.6499C284.835 44.9321 284.744 45.2254 284.683 45.5298V47.6797C284.794 48.0671 284.949 48.4323 285.148 48.7754C285.347 49.113 285.613 49.3869 285.945 49.5972C286.277 49.8019 286.695 49.9043 287.198 49.9043C287.613 49.9043 287.97 49.8185 288.269 49.647C288.573 49.4699 288.822 49.2292 289.016 48.9248C289.215 48.6204 289.362 48.2718 289.456 47.8789C289.55 47.4805 289.597 47.0571 289.597 46.6089ZM298.396 49.4644V44.8408C298.396 44.4867 298.324 44.1795 298.18 43.9194C298.042 43.6538 297.832 43.4491 297.549 43.3052C297.267 43.1613 296.918 43.0894 296.503 43.0894C296.116 43.0894 295.776 43.1558 295.482 43.2886C295.195 43.4214 294.968 43.5957 294.802 43.8115C294.641 44.0273 294.561 44.2598 294.561 44.5088H293.025C293.025 44.1878 293.108 43.8696 293.274 43.5542C293.44 43.2388 293.678 42.9538 293.988 42.6992C294.304 42.4391 294.68 42.2344 295.117 42.085C295.56 41.93 296.052 41.8525 296.595 41.8525C297.248 41.8525 297.823 41.9632 298.321 42.1846C298.825 42.4059 299.218 42.7407 299.5 43.189C299.788 43.6317 299.932 44.1878 299.932 44.8574V49.041C299.932 49.3398 299.957 49.658 300.006 49.9956C300.062 50.3332 300.142 50.6237 300.247 50.8672V51H298.645C298.568 50.8229 298.507 50.5877 298.462 50.2944C298.418 49.9956 298.396 49.7189 298.396 49.4644ZM298.662 45.5547L298.678 46.6338H297.126C296.689 46.6338 296.299 46.6698 295.956 46.7417C295.612 46.8081 295.325 46.9105 295.092 47.0488C294.86 47.1872 294.683 47.3615 294.561 47.5718C294.439 47.7765 294.378 48.0173 294.378 48.2939C294.378 48.5762 294.442 48.8335 294.569 49.0659C294.697 49.2983 294.888 49.4837 295.142 49.6221C295.402 49.7549 295.72 49.8213 296.097 49.8213C296.567 49.8213 296.982 49.7217 297.342 49.5225C297.701 49.3232 297.986 49.0798 298.197 48.792C298.413 48.5042 298.529 48.2248 298.545 47.9536L299.201 48.6924C299.162 48.9248 299.057 49.1821 298.886 49.4644C298.714 49.7466 298.485 50.0177 298.197 50.2778C297.915 50.5324 297.577 50.7454 297.184 50.917C296.797 51.083 296.36 51.166 295.873 51.166C295.264 51.166 294.73 51.047 294.271 50.8091C293.817 50.5711 293.463 50.2529 293.208 49.8545C292.959 49.4505 292.834 48.9995 292.834 48.5015C292.834 48.02 292.929 47.5967 293.117 47.2314C293.305 46.8607 293.576 46.5535 293.93 46.3101C294.284 46.061 294.71 45.8729 295.208 45.7456C295.707 45.6183 296.263 45.5547 296.877 45.5547H298.662ZM308.44 45.9116V47.1567H303.692V45.9116H308.44ZM304.016 42.0186V51H302.48V42.0186H304.016ZM309.685 42.0186V51H308.141V42.0186H309.685ZM318.251 45.9116V47.1567H313.503V45.9116H318.251ZM313.827 42.0186V51H312.292V42.0186H313.827ZM319.497 42.0186V51H317.953V42.0186H319.497ZM323.232 45.1064H325.93C326.655 45.1064 327.266 45.2337 327.764 45.4883C328.262 45.7373 328.639 46.0832 328.893 46.5259C329.153 46.9631 329.283 47.4611 329.283 48.02C329.283 48.4351 329.211 48.8252 329.067 49.1904C328.924 49.5501 328.708 49.8656 328.42 50.1367C328.138 50.4079 327.786 50.6209 327.366 50.7759C326.951 50.9253 326.472 51 325.93 51H322.111V42.0186H323.647V49.7383H325.93C326.372 49.7383 326.727 49.658 326.992 49.4976C327.258 49.3371 327.449 49.1296 327.565 48.875C327.681 48.6204 327.739 48.3548 327.739 48.0781C327.739 47.807 327.681 47.5413 327.565 47.2812C327.449 47.0212 327.258 46.8053 326.992 46.6338C326.727 46.4567 326.372 46.3682 325.93 46.3682H323.232V45.1064ZM332.479 42.0186V51H330.943V42.0186H332.479ZM336.206 42.0186L338.173 45.2891L340.166 42.0186H341.967L339.028 46.4512L342.058 51H340.282L338.207 47.6299L336.131 51H334.347L337.368 46.4512L334.438 42.0186H336.206ZM354.493 47.9453C354.493 47.6631 354.448 47.4141 354.36 47.1982C354.277 46.9769 354.127 46.7777 353.912 46.6006C353.701 46.4235 353.408 46.2547 353.032 46.0942C352.661 45.9338 352.191 45.7705 351.621 45.6045C351.023 45.4274 350.483 45.231 350.002 45.0151C349.521 44.7938 349.108 44.542 348.765 44.2598C348.422 43.9775 348.159 43.6538 347.977 43.2886C347.794 42.9233 347.703 42.5055 347.703 42.0352C347.703 41.5648 347.799 41.1304 347.993 40.7319C348.187 40.3335 348.464 39.9876 348.823 39.6943C349.188 39.3955 349.623 39.1631 350.126 38.9971C350.63 38.8311 351.192 38.748 351.812 38.748C352.719 38.748 353.488 38.9224 354.119 39.271C354.756 39.6141 355.24 40.0651 355.572 40.624C355.904 41.1774 356.07 41.7695 356.07 42.4004H354.476C354.476 41.9466 354.379 41.5454 354.186 41.1968C353.992 40.8426 353.699 40.5659 353.306 40.3667C352.913 40.1619 352.415 40.0596 351.812 40.0596C351.242 40.0596 350.771 40.1453 350.4 40.3169C350.03 40.4884 349.753 40.7209 349.57 41.0142C349.393 41.3075 349.305 41.6423 349.305 42.0186C349.305 42.2731 349.357 42.5055 349.462 42.7158C349.573 42.9206 349.742 43.1115 349.969 43.2886C350.201 43.4657 350.494 43.6289 350.849 43.7783C351.208 43.9277 351.637 44.0716 352.135 44.21C352.821 44.4036 353.414 44.6195 353.912 44.8574C354.41 45.0954 354.819 45.3638 355.14 45.6626C355.467 45.9559 355.707 46.2907 355.862 46.667C356.023 47.0378 356.103 47.4583 356.103 47.9287C356.103 48.4212 356.003 48.8667 355.804 49.2651C355.605 49.6636 355.32 50.0039 354.949 50.2861C354.578 50.5684 354.133 50.7869 353.613 50.9419C353.098 51.0913 352.523 51.166 351.886 51.166C351.327 51.166 350.777 51.0885 350.234 50.9336C349.698 50.7786 349.208 50.5462 348.765 50.2363C348.328 49.9264 347.977 49.5446 347.711 49.0908C347.451 48.6315 347.321 48.1003 347.321 47.4971H348.915C348.915 47.9121 348.995 48.269 349.155 48.5679C349.316 48.8612 349.534 49.1047 349.811 49.2983C350.093 49.492 350.411 49.6359 350.766 49.73C351.125 49.8185 351.499 49.8628 351.886 49.8628C352.445 49.8628 352.918 49.7853 353.306 49.6304C353.693 49.4754 353.986 49.2541 354.186 48.9663C354.39 48.6785 354.493 48.3382 354.493 47.9453ZM359.747 38.9141V51H358.145V38.9141H359.747ZM367.043 38.9141L362.021 44.5503L359.199 47.4805L358.934 45.7705L361.059 43.4297L365.118 38.9141H367.043ZM365.5 51L361.025 45.1064L361.98 43.8364L367.409 51H365.5ZM375.734 38.9141H377.328V47.0903C377.328 47.9979 377.126 48.7533 376.722 49.3564C376.318 49.9596 375.781 50.4134 375.112 50.7178C374.448 51.0166 373.726 51.166 372.945 51.166C372.126 51.166 371.385 51.0166 370.721 50.7178C370.062 50.4134 369.539 49.9596 369.152 49.3564C368.77 48.7533 368.579 47.9979 368.579 47.0903V38.9141H370.165V47.0903C370.165 47.7212 370.281 48.2414 370.513 48.6509C370.746 49.0604 371.069 49.3647 371.484 49.564C371.905 49.7632 372.392 49.8628 372.945 49.8628C373.504 49.8628 373.991 49.7632 374.406 49.564C374.827 49.3647 375.153 49.0604 375.386 48.6509C375.618 48.2414 375.734 47.7212 375.734 47.0903V38.9141ZM140.831 68.5679L144.973 62.0186H146.517V71H144.973V64.4507L140.831 71H139.303V62.0186H140.831V68.5679ZM154.734 63.7451V74.4531H153.19V62.0186H154.602L154.734 63.7451ZM160.786 66.4346V66.6089C160.786 67.2619 160.708 67.8678 160.553 68.4268C160.398 68.9801 160.171 69.4616 159.873 69.8711C159.579 70.2806 159.217 70.5988 158.785 70.8257C158.354 71.0526 157.858 71.166 157.299 71.166C156.729 71.166 156.226 71.0719 155.789 70.8838C155.351 70.6956 154.981 70.4217 154.676 70.062C154.372 69.7023 154.128 69.2707 153.946 68.7671C153.769 68.2635 153.647 67.6963 153.581 67.0654V66.1357C153.647 65.4717 153.771 64.8768 153.954 64.3511C154.137 63.8254 154.377 63.3771 154.676 63.0063C154.981 62.63 155.349 62.3451 155.78 62.1514C156.212 61.9521 156.71 61.8525 157.274 61.8525C157.839 61.8525 158.34 61.9632 158.777 62.1846C159.214 62.4004 159.582 62.7103 159.881 63.1143C160.18 63.5182 160.404 64.0024 160.553 64.5669C160.708 65.1258 160.786 65.7484 160.786 66.4346ZM159.242 66.6089V66.4346C159.242 65.9863 159.195 65.5658 159.101 65.1729C159.007 64.7744 158.86 64.4258 158.661 64.127C158.467 63.8226 158.218 63.5846 157.914 63.4131C157.609 63.236 157.247 63.1475 156.826 63.1475C156.439 63.1475 156.101 63.2139 155.813 63.3467C155.531 63.4795 155.291 63.6593 155.091 63.8862C154.892 64.1076 154.729 64.3621 154.602 64.6499C154.48 64.9321 154.389 65.2254 154.328 65.5298V67.6797C154.438 68.0671 154.593 68.4323 154.792 68.7754C154.992 69.113 155.257 69.3869 155.589 69.5972C155.921 69.8019 156.339 69.9043 156.843 69.9043C157.258 69.9043 157.615 69.8185 157.914 69.647C158.218 69.4699 158.467 69.2292 158.661 68.9248C158.86 68.6204 159.007 68.2718 159.101 67.8789C159.195 67.4805 159.242 67.0571 159.242 66.6089ZM166.472 71.166C165.846 71.166 165.279 71.0609 164.77 70.8506C164.266 70.6348 163.832 70.3332 163.467 69.9458C163.107 69.5584 162.83 69.0991 162.637 68.5679C162.443 68.0366 162.346 67.4556 162.346 66.8247V66.4761C162.346 65.7456 162.454 65.0954 162.67 64.5254C162.886 63.9499 163.179 63.4629 163.55 63.0645C163.921 62.666 164.341 62.3644 164.812 62.1597C165.282 61.9549 165.769 61.8525 166.272 61.8525C166.914 61.8525 167.468 61.9632 167.933 62.1846C168.403 62.4059 168.788 62.7158 169.086 63.1143C169.385 63.5072 169.607 63.972 169.75 64.5088C169.894 65.04 169.966 65.6211 169.966 66.252V66.9409H163.259V65.6875H168.431V65.5713C168.409 65.1729 168.326 64.7855 168.182 64.4092C168.043 64.0329 167.822 63.723 167.518 63.4795C167.213 63.236 166.798 63.1143 166.272 63.1143C165.924 63.1143 165.603 63.189 165.31 63.3384C165.016 63.4823 164.764 63.6981 164.554 63.9858C164.344 64.2736 164.181 64.625 164.064 65.04C163.948 65.4551 163.89 65.9338 163.89 66.4761V66.8247C163.89 67.2508 163.948 67.652 164.064 68.0283C164.186 68.3991 164.361 68.7256 164.587 69.0078C164.82 69.29 165.099 69.5114 165.426 69.6719C165.758 69.8324 166.134 69.9126 166.555 69.9126C167.097 69.9126 167.556 69.8019 167.933 69.5806C168.309 69.3592 168.638 69.0632 168.92 68.6924L169.85 69.4312C169.656 69.7244 169.41 70.0039 169.111 70.2695C168.812 70.5352 168.444 70.751 168.007 70.917C167.576 71.083 167.064 71.166 166.472 71.166ZM177.055 69.4644V64.8408C177.055 64.4867 176.983 64.1795 176.839 63.9194C176.701 63.6538 176.491 63.4491 176.208 63.3052C175.926 63.1613 175.578 63.0894 175.163 63.0894C174.775 63.0894 174.435 63.1558 174.142 63.2886C173.854 63.4214 173.627 63.5957 173.461 63.8115C173.3 64.0273 173.22 64.2598 173.22 64.5088H171.685C171.685 64.1878 171.768 63.8696 171.934 63.5542C172.1 63.2388 172.338 62.9538 172.647 62.6992C172.963 62.4391 173.339 62.2344 173.776 62.085C174.219 61.93 174.712 61.8525 175.254 61.8525C175.907 61.8525 176.482 61.9632 176.98 62.1846C177.484 62.4059 177.877 62.7407 178.159 63.189C178.447 63.6317 178.591 64.1878 178.591 64.8574V69.041C178.591 69.3398 178.616 69.658 178.666 69.9956C178.721 70.3332 178.801 70.6237 178.906 70.8672V71H177.304C177.227 70.8229 177.166 70.5877 177.122 70.2944C177.077 69.9956 177.055 69.7189 177.055 69.4644ZM177.321 65.5547L177.337 66.6338H175.785C175.348 66.6338 174.958 66.6698 174.615 66.7417C174.272 66.8081 173.984 66.9105 173.751 67.0488C173.519 67.1872 173.342 67.3615 173.22 67.5718C173.098 67.7765 173.038 68.0173 173.038 68.2939C173.038 68.5762 173.101 68.8335 173.229 69.0659C173.356 69.2983 173.547 69.4837 173.801 69.6221C174.061 69.7549 174.38 69.8213 174.756 69.8213C175.226 69.8213 175.641 69.7217 176.001 69.5225C176.361 69.3232 176.646 69.0798 176.856 68.792C177.072 68.5042 177.188 68.2248 177.205 67.9536L177.86 68.6924C177.822 68.9248 177.716 69.1821 177.545 69.4644C177.373 69.7466 177.144 70.0177 176.856 70.2778C176.574 70.5324 176.236 70.7454 175.843 70.917C175.456 71.083 175.019 71.166 174.532 71.166C173.923 71.166 173.389 71.047 172.93 70.8091C172.476 70.5711 172.122 70.2529 171.867 69.8545C171.618 69.4505 171.494 68.9995 171.494 68.5015C171.494 68.02 171.588 67.5967 171.776 67.2314C171.964 66.8607 172.235 66.5535 172.589 66.3101C172.944 66.061 173.37 65.8729 173.868 65.7456C174.366 65.6183 174.922 65.5547 175.536 65.5547H177.321ZM187.008 62.0186V63.2886H182.667V62.0186H187.008ZM188.361 62.0186V71H186.825V62.0186H188.361ZM182.293 62.0186H183.837L183.604 66.3516C183.566 67.0212 183.502 67.6133 183.414 68.1279C183.331 68.637 183.214 69.0742 183.065 69.4395C182.921 69.8047 182.738 70.1035 182.517 70.3359C182.301 70.5628 182.041 70.7316 181.737 70.8423C181.432 70.9474 181.081 71 180.683 71H180.201V69.647L180.533 69.6221C180.771 69.6055 180.973 69.5501 181.139 69.4561C181.311 69.362 181.455 69.2236 181.571 69.041C181.687 68.8529 181.781 68.6121 181.853 68.3188C181.931 68.0256 181.989 67.6769 182.027 67.2729C182.072 66.869 182.105 66.3986 182.127 65.8618L182.293 62.0186ZM192.495 68.5679L196.637 62.0186H198.181V71H196.637V64.4507L192.495 71H190.967V62.0186H192.495V68.5679ZM204 66.7085H202.348V65.7622H203.875C204.301 65.7622 204.639 65.7096 204.888 65.6045C205.137 65.4938 205.314 65.3416 205.419 65.1479C205.524 64.9543 205.577 64.7274 205.577 64.4673C205.577 64.2349 205.516 64.0163 205.394 63.8115C205.278 63.6012 205.09 63.4325 204.83 63.3052C204.569 63.1724 204.221 63.106 203.784 63.106C203.43 63.106 203.109 63.1696 202.821 63.2969C202.533 63.4186 202.303 63.5874 202.132 63.8032C201.966 64.0135 201.883 64.2515 201.883 64.5171H200.347C200.347 63.9692 200.502 63.4989 200.812 63.106C201.127 62.7075 201.545 62.4004 202.065 62.1846C202.591 61.9688 203.164 61.8608 203.784 61.8608C204.304 61.8608 204.769 61.9189 205.178 62.0352C205.593 62.1458 205.945 62.3118 206.232 62.5332C206.52 62.749 206.739 63.0202 206.888 63.3467C207.043 63.6676 207.121 64.0412 207.121 64.4673C207.121 64.7716 207.049 65.0594 206.905 65.3306C206.761 65.6017 206.553 65.8424 206.282 66.0527C206.011 66.2575 205.682 66.418 205.294 66.5342C204.913 66.6504 204.481 66.7085 204 66.7085ZM202.348 66.1274H204C204.536 66.1274 205.009 66.18 205.419 66.2852C205.828 66.3848 206.172 66.5342 206.448 66.7334C206.725 66.9326 206.932 67.1789 207.071 67.4722C207.215 67.7599 207.287 68.092 207.287 68.4683C207.287 68.8888 207.201 69.2679 207.029 69.6055C206.863 69.9375 206.625 70.2197 206.315 70.4521C206.006 70.6846 205.635 70.8617 205.203 70.9834C204.777 71.1051 204.304 71.166 203.784 71.166C203.203 71.166 202.638 71.0664 202.09 70.8672C201.542 70.668 201.091 70.3608 200.737 69.9458C200.383 69.5252 200.206 68.9912 200.206 68.3438H201.742C201.742 68.6149 201.827 68.8722 201.999 69.1157C202.171 69.3592 202.409 69.5557 202.713 69.7051C203.023 69.8545 203.38 69.9292 203.784 69.9292C204.215 69.9292 204.575 69.8628 204.863 69.73C205.151 69.5972 205.366 69.4201 205.51 69.1987C205.66 68.9774 205.734 68.7367 205.734 68.4766C205.734 68.139 205.668 67.8678 205.535 67.6631C205.402 67.4583 205.198 67.3089 204.921 67.2148C204.65 67.1152 204.301 67.0654 203.875 67.0654H202.348V66.1274ZM214.575 69.4644V64.8408C214.575 64.4867 214.503 64.1795 214.359 63.9194C214.221 63.6538 214.01 63.4491 213.728 63.3052C213.446 63.1613 213.097 63.0894 212.682 63.0894C212.295 63.0894 211.954 63.1558 211.661 63.2886C211.373 63.4214 211.146 63.5957 210.98 63.8115C210.82 64.0273 210.74 64.2598 210.74 64.5088H209.204C209.204 64.1878 209.287 63.8696 209.453 63.5542C209.619 63.2388 209.857 62.9538 210.167 62.6992C210.482 62.4391 210.859 62.2344 211.296 62.085C211.739 61.93 212.231 61.8525 212.773 61.8525C213.426 61.8525 214.002 61.9632 214.5 62.1846C215.004 62.4059 215.396 62.7407 215.679 63.189C215.966 63.6317 216.11 64.1878 216.11 64.8574V69.041C216.11 69.3398 216.135 69.658 216.185 69.9956C216.24 70.3332 216.321 70.6237 216.426 70.8672V71H214.824C214.746 70.8229 214.685 70.5877 214.641 70.2944C214.597 69.9956 214.575 69.7189 214.575 69.4644ZM214.84 65.5547L214.857 66.6338H213.305C212.868 66.6338 212.477 66.6698 212.134 66.7417C211.791 66.8081 211.503 66.9105 211.271 67.0488C211.039 67.1872 210.861 67.3615 210.74 67.5718C210.618 67.7765 210.557 68.0173 210.557 68.2939C210.557 68.5762 210.621 68.8335 210.748 69.0659C210.875 69.2983 211.066 69.4837 211.321 69.6221C211.581 69.7549 211.899 69.8213 212.275 69.8213C212.746 69.8213 213.161 69.7217 213.521 69.5225C213.88 69.3232 214.165 69.0798 214.375 68.792C214.591 68.5042 214.708 68.2248 214.724 67.9536L215.38 68.6924C215.341 68.9248 215.236 69.1821 215.064 69.4644C214.893 69.7466 214.663 70.0177 214.375 70.2778C214.093 70.5324 213.756 70.7454 213.363 70.917C212.975 71.083 212.538 71.166 212.051 71.166C211.443 71.166 210.909 71.047 210.449 70.8091C209.995 70.5711 209.641 70.2529 209.387 69.8545C209.138 69.4505 209.013 68.9995 209.013 68.5015C209.013 68.02 209.107 67.5967 209.295 67.2314C209.484 66.8607 209.755 66.5535 210.109 66.3101C210.463 66.061 210.889 65.8729 211.387 65.7456C211.885 65.6183 212.441 65.5547 213.056 65.5547H214.84ZM218.659 71V62.0186H220.194V69.7383H224.328V62.0186H225.872V71H218.659ZM226.935 69.7383L226.785 73.6646H225.416V71H224.245V69.7383H226.935ZM230.263 68.5679L234.405 62.0186H235.949V71H234.405V64.4507L230.263 71H228.736V62.0186H230.263V68.5679ZM240.232 66.7168H241.893L239.294 71H237.634L240.232 66.7168ZM241.519 62.0186H245.271V71H243.735V63.2637H241.519C241.082 63.2637 240.725 63.3384 240.448 63.4878C240.172 63.6317 239.97 63.8198 239.842 64.0522C239.715 64.2847 239.651 64.5254 239.651 64.7744C239.651 65.0179 239.709 65.2531 239.826 65.48C239.942 65.7013 240.125 65.884 240.374 66.0278C240.623 66.1717 240.944 66.2437 241.336 66.2437H244.15V67.5054H241.336C240.822 67.5054 240.365 67.4362 239.967 67.2979C239.568 67.1595 239.231 66.9686 238.954 66.7251C238.677 66.4761 238.467 66.1855 238.323 65.8535C238.179 65.516 238.107 65.1507 238.107 64.7578C238.107 64.3649 238.182 64.0024 238.332 63.6704C238.486 63.3384 238.708 63.0479 238.996 62.7988C239.289 62.5498 239.646 62.3589 240.066 62.2261C240.493 62.0877 240.977 62.0186 241.519 62.0186ZM257.946 62.0186V63.2886H253.406V62.0186H257.946ZM253.63 62.0186V71H252.094V62.0186H253.63ZM259.308 62.0186V71H257.764V62.0186H259.308ZM267.774 62.0186V63.2886H263.433V62.0186H267.774ZM269.127 62.0186V71H267.592V62.0186H269.127ZM263.06 62.0186H264.604L264.371 66.3516C264.332 67.0212 264.269 67.6133 264.18 68.1279C264.097 68.637 263.981 69.0742 263.832 69.4395C263.688 69.8047 263.505 70.1035 263.284 70.3359C263.068 70.5628 262.808 70.7316 262.503 70.8423C262.199 70.9474 261.848 71 261.449 71H260.968V69.647L261.3 69.6221C261.538 69.6055 261.74 69.5501 261.906 69.4561C262.077 69.362 262.221 69.2236 262.337 69.041C262.454 68.8529 262.548 68.6121 262.62 68.3188C262.697 68.0256 262.755 67.6769 262.794 67.2729C262.838 66.869 262.871 66.3986 262.894 65.8618L263.06 62.0186ZM276.897 69.4644V64.8408C276.897 64.4867 276.825 64.1795 276.681 63.9194C276.543 63.6538 276.333 63.4491 276.05 63.3052C275.768 63.1613 275.419 63.0894 275.004 63.0894C274.617 63.0894 274.277 63.1558 273.983 63.2886C273.696 63.4214 273.469 63.5957 273.303 63.8115C273.142 64.0273 273.062 64.2598 273.062 64.5088H271.526C271.526 64.1878 271.609 63.8696 271.775 63.5542C271.941 63.2388 272.179 62.9538 272.489 62.6992C272.805 62.4391 273.181 62.2344 273.618 62.085C274.061 61.93 274.553 61.8525 275.096 61.8525C275.749 61.8525 276.324 61.9632 276.822 62.1846C277.326 62.4059 277.719 62.7407 278.001 63.189C278.289 63.6317 278.433 64.1878 278.433 64.8574V69.041C278.433 69.3398 278.458 69.658 278.507 69.9956C278.563 70.3332 278.643 70.6237 278.748 70.8672V71H277.146C277.069 70.8229 277.008 70.5877 276.963 70.2944C276.919 69.9956 276.897 69.7189 276.897 69.4644ZM277.163 65.5547L277.179 66.6338H275.627C275.19 66.6338 274.8 66.6698 274.457 66.7417C274.113 66.8081 273.826 66.9105 273.593 67.0488C273.361 67.1872 273.184 67.3615 273.062 67.5718C272.94 67.7765 272.879 68.0173 272.879 68.2939C272.879 68.5762 272.943 68.8335 273.07 69.0659C273.198 69.2983 273.389 69.4837 273.643 69.6221C273.903 69.7549 274.221 69.8213 274.598 69.8213C275.068 69.8213 275.483 69.7217 275.843 69.5225C276.202 69.3232 276.487 69.0798 276.698 68.792C276.914 68.5042 277.03 68.2248 277.046 67.9536L277.702 68.6924C277.663 68.9248 277.558 69.1821 277.387 69.4644C277.215 69.7466 276.986 70.0177 276.698 70.2778C276.416 70.5324 276.078 70.7454 275.685 70.917C275.298 71.083 274.861 71.166 274.374 71.166C273.765 71.166 273.231 71.047 272.771 70.8091C272.318 70.5711 271.964 70.2529 271.709 69.8545C271.46 69.4505 271.335 68.9995 271.335 68.5015C271.335 68.02 271.43 67.5967 271.618 67.2314C271.806 66.8607 272.077 66.5535 272.431 66.3101C272.785 66.061 273.211 65.8729 273.709 65.7456C274.208 65.6183 274.764 65.5547 275.378 65.5547H277.163ZM286.941 65.9116V67.1567H282.193V65.9116H286.941ZM282.517 62.0186V71H280.981V62.0186H282.517ZM288.186 62.0186V71H286.642V62.0186H288.186ZM295.956 69.4644V64.8408C295.956 64.4867 295.884 64.1795 295.74 63.9194C295.601 63.6538 295.391 63.4491 295.109 63.3052C294.827 63.1613 294.478 63.0894 294.063 63.0894C293.676 63.0894 293.335 63.1558 293.042 63.2886C292.754 63.4214 292.527 63.5957 292.361 63.8115C292.201 64.0273 292.121 64.2598 292.121 64.5088H290.585C290.585 64.1878 290.668 63.8696 290.834 63.5542C291 63.2388 291.238 62.9538 291.548 62.6992C291.863 62.4391 292.24 62.2344 292.677 62.085C293.119 61.93 293.612 61.8525 294.154 61.8525C294.807 61.8525 295.383 61.9632 295.881 62.1846C296.384 62.4059 296.777 62.7407 297.06 63.189C297.347 63.6317 297.491 64.1878 297.491 64.8574V69.041C297.491 69.3398 297.516 69.658 297.566 69.9956C297.621 70.3332 297.701 70.6237 297.807 70.8672V71H296.205C296.127 70.8229 296.066 70.5877 296.022 70.2944C295.978 69.9956 295.956 69.7189 295.956 69.4644ZM296.221 65.5547L296.238 66.6338H294.686C294.248 66.6338 293.858 66.6698 293.515 66.7417C293.172 66.8081 292.884 66.9105 292.652 67.0488C292.419 67.1872 292.242 67.3615 292.121 67.5718C291.999 67.7765 291.938 68.0173 291.938 68.2939C291.938 68.5762 292.002 68.8335 292.129 69.0659C292.256 69.2983 292.447 69.4837 292.702 69.6221C292.962 69.7549 293.28 69.8213 293.656 69.8213C294.127 69.8213 294.542 69.7217 294.901 69.5225C295.261 69.3232 295.546 69.0798 295.756 68.792C295.972 68.5042 296.088 68.2248 296.105 67.9536L296.761 68.6924C296.722 68.9248 296.617 69.1821 296.445 69.4644C296.274 69.7466 296.044 70.0177 295.756 70.2778C295.474 70.5324 295.137 70.7454 294.744 70.917C294.356 71.083 293.919 71.166 293.432 71.166C292.823 71.166 292.289 71.047 291.83 70.8091C291.376 70.5711 291.022 70.2529 290.768 69.8545C290.519 69.4505 290.394 68.9995 290.394 68.5015C290.394 68.02 290.488 67.5967 290.676 67.2314C290.864 66.8607 291.136 66.5535 291.49 66.3101C291.844 66.061 292.27 65.8729 292.768 65.7456C293.266 65.6183 293.822 65.5547 294.437 65.5547H296.221ZM310.108 62.0186V63.2886H305.568V62.0186H310.108ZM305.792 62.0186V71H304.256V62.0186H305.792ZM311.47 62.0186V71H309.926V62.0186H311.47ZM315.471 63.7451V74.4531H313.927V62.0186H315.338L315.471 63.7451ZM321.522 66.4346V66.6089C321.522 67.2619 321.444 67.8678 321.29 68.4268C321.135 68.9801 320.908 69.4616 320.609 69.8711C320.316 70.2806 319.953 70.5988 319.521 70.8257C319.09 71.0526 318.595 71.166 318.036 71.166C317.466 71.166 316.962 71.0719 316.525 70.8838C316.088 70.6956 315.717 70.4217 315.413 70.062C315.108 69.7023 314.865 69.2707 314.682 68.7671C314.505 68.2635 314.383 67.6963 314.317 67.0654V66.1357C314.383 65.4717 314.508 64.8768 314.69 64.3511C314.873 63.8254 315.114 63.3771 315.413 63.0063C315.717 62.63 316.085 62.3451 316.517 62.1514C316.948 61.9521 317.446 61.8525 318.011 61.8525C318.575 61.8525 319.076 61.9632 319.513 62.1846C319.95 62.4004 320.318 62.7103 320.617 63.1143C320.916 63.5182 321.14 64.0024 321.29 64.5669C321.444 65.1258 321.522 65.7484 321.522 66.4346ZM319.978 66.6089V66.4346C319.978 65.9863 319.931 65.5658 319.837 65.1729C319.743 64.7744 319.596 64.4258 319.397 64.127C319.203 63.8226 318.954 63.5846 318.65 63.4131C318.346 63.236 317.983 63.1475 317.562 63.1475C317.175 63.1475 316.838 63.2139 316.55 63.3467C316.268 63.4795 316.027 63.6593 315.828 63.8862C315.628 64.1076 315.465 64.3621 315.338 64.6499C315.216 64.9321 315.125 65.2254 315.064 65.5298V67.6797C315.175 68.0671 315.33 68.4323 315.529 68.7754C315.728 69.113 315.994 69.3869 316.326 69.5972C316.658 69.8019 317.076 69.9043 317.579 69.9043C317.994 69.9043 318.351 69.8185 318.65 69.647C318.954 69.4699 319.203 69.2292 319.397 68.9248C319.596 68.6204 319.743 68.2718 319.837 67.8789C319.931 67.4805 319.978 67.0571 319.978 66.6089ZM323.074 66.6089V66.418C323.074 65.7705 323.168 65.1701 323.356 64.6167C323.545 64.0578 323.816 63.5736 324.17 63.1641C324.524 62.749 324.953 62.4281 325.457 62.2012C325.96 61.9688 326.525 61.8525 327.15 61.8525C327.781 61.8525 328.348 61.9688 328.852 62.2012C329.361 62.4281 329.792 62.749 330.146 63.1641C330.506 63.5736 330.78 64.0578 330.968 64.6167C331.156 65.1701 331.25 65.7705 331.25 66.418V66.6089C331.25 67.2563 331.156 67.8568 330.968 68.4102C330.78 68.9635 330.506 69.4478 330.146 69.8628C329.792 70.2723 329.363 70.5933 328.86 70.8257C328.362 71.0526 327.797 71.166 327.167 71.166C326.536 71.166 325.968 71.0526 325.465 70.8257C324.961 70.5933 324.53 70.2723 324.17 69.8628C323.816 69.4478 323.545 68.9635 323.356 68.4102C323.168 67.8568 323.074 67.2563 323.074 66.6089ZM324.61 66.418V66.6089C324.61 67.0571 324.662 67.4805 324.768 67.8789C324.873 68.2718 325.03 68.6204 325.241 68.9248C325.457 69.2292 325.725 69.4699 326.046 69.647C326.367 69.8185 326.74 69.9043 327.167 69.9043C327.587 69.9043 327.955 69.8185 328.271 69.647C328.591 69.4699 328.857 69.2292 329.067 68.9248C329.278 68.6204 329.435 68.2718 329.541 67.8789C329.651 67.4805 329.707 67.0571 329.707 66.6089V66.418C329.707 65.9753 329.651 65.5575 329.541 65.1646C329.435 64.7661 329.275 64.4147 329.059 64.1104C328.849 63.8005 328.583 63.557 328.262 63.3799C327.947 63.2028 327.576 63.1143 327.15 63.1143C326.729 63.1143 326.359 63.2028 326.038 63.3799C325.722 63.557 325.457 63.8005 325.241 64.1104C325.03 64.4147 324.873 64.7661 324.768 65.1646C324.662 65.5575 324.61 65.9753 324.61 66.418ZM334.197 62.0186H335.733L335.6 65.3804C335.567 66.2326 335.47 66.9686 335.31 67.5884C335.149 68.2082 334.944 68.7367 334.695 69.1738C334.446 69.6055 334.167 69.9679 333.857 70.2612C333.553 70.5545 333.237 70.8008 332.911 71H332.147L332.188 69.7466L332.504 69.7383C332.687 69.5225 332.864 69.3011 333.035 69.0742C333.207 68.8418 333.364 68.5679 333.508 68.2524C333.652 67.9315 333.771 67.5413 333.865 67.082C333.965 66.6172 334.028 66.05 334.056 65.3804L334.197 62.0186ZM334.579 62.0186H339.983V71H338.447V63.438H334.579V62.0186ZM331.798 69.7383H341.137V73.6479H339.601V71H333.334V73.6479H331.79L331.798 69.7383ZM348.134 69.4644V64.8408C348.134 64.4867 348.062 64.1795 347.918 63.9194C347.78 63.6538 347.57 63.4491 347.288 63.3052C347.005 63.1613 346.657 63.0894 346.242 63.0894C345.854 63.0894 345.514 63.1558 345.221 63.2886C344.933 63.4214 344.706 63.5957 344.54 63.8115C344.38 64.0273 344.299 64.2598 344.299 64.5088H342.764C342.764 64.1878 342.847 63.8696 343.013 63.5542C343.179 63.2388 343.417 62.9538 343.727 62.6992C344.042 62.4391 344.418 62.2344 344.855 62.085C345.298 61.93 345.791 61.8525 346.333 61.8525C346.986 61.8525 347.562 61.9632 348.06 62.1846C348.563 62.4059 348.956 62.7407 349.238 63.189C349.526 63.6317 349.67 64.1878 349.67 64.8574V69.041C349.67 69.3398 349.695 69.658 349.745 69.9956C349.8 70.3332 349.88 70.6237 349.985 70.8672V71H348.383C348.306 70.8229 348.245 70.5877 348.201 70.2944C348.156 69.9956 348.134 69.7189 348.134 69.4644ZM348.4 65.5547L348.417 66.6338H346.864C346.427 66.6338 346.037 66.6698 345.694 66.7417C345.351 66.8081 345.063 66.9105 344.831 67.0488C344.598 67.1872 344.421 67.3615 344.299 67.5718C344.178 67.7765 344.117 68.0173 344.117 68.2939C344.117 68.5762 344.18 68.8335 344.308 69.0659C344.435 69.2983 344.626 69.4837 344.88 69.6221C345.14 69.7549 345.459 69.8213 345.835 69.8213C346.305 69.8213 346.72 69.7217 347.08 69.5225C347.44 69.3232 347.725 69.0798 347.935 68.792C348.151 68.5042 348.267 68.2248 348.284 67.9536L348.939 68.6924C348.901 68.9248 348.796 69.1821 348.624 69.4644C348.452 69.7466 348.223 70.0177 347.935 70.2778C347.653 70.5324 347.315 70.7454 346.922 70.917C346.535 71.083 346.098 71.166 345.611 71.166C345.002 71.166 344.468 71.047 344.009 70.8091C343.555 70.5711 343.201 70.2529 342.946 69.8545C342.697 69.4505 342.573 68.9995 342.573 68.5015C342.573 68.02 342.667 67.5967 342.855 67.2314C343.043 66.8607 343.314 66.5535 343.668 66.3101C344.023 66.061 344.449 65.8729 344.947 65.7456C345.445 65.6183 346.001 65.5547 346.615 65.5547H348.4ZM354.808 67.0903L351.405 62.0186H353.256L355.58 65.7373H357.373L357.149 67.0903H354.808ZM355.646 66.9326L353.04 71H351.098L354.675 65.8203L355.646 66.9326ZM358.162 62.0186V71H356.626V62.0186H358.162ZM363.399 62.0186L359.996 67.0903H357.655L357.415 65.7373H359.216L361.54 62.0186H363.399ZM361.756 71L359.141 66.9326L360.129 65.8203L363.698 71H361.756ZM145.263 85.9116V87.1567H140.515V85.9116H145.263ZM140.839 82.0186V91H139.303V82.0186H140.839ZM146.508 82.0186V91H144.964V82.0186H146.508ZM154.278 89.4644V84.8408C154.278 84.4867 154.206 84.1795 154.062 83.9194C153.924 83.6538 153.713 83.4491 153.431 83.3052C153.149 83.1613 152.8 83.0894 152.385 83.0894C151.998 83.0894 151.658 83.1558 151.364 83.2886C151.076 83.4214 150.85 83.5957 150.684 83.8115C150.523 84.0273 150.443 84.2598 150.443 84.5088H148.907C148.907 84.1878 148.99 83.8696 149.156 83.5542C149.322 83.2388 149.56 82.9538 149.87 82.6992C150.186 82.4391 150.562 82.2344 150.999 82.085C151.442 81.93 151.934 81.8525 152.477 81.8525C153.13 81.8525 153.705 81.9632 154.203 82.1846C154.707 82.4059 155.1 82.7407 155.382 83.189C155.67 83.6317 155.813 84.1878 155.813 84.8574V89.041C155.813 89.3398 155.838 89.658 155.888 89.9956C155.944 90.3332 156.024 90.6237 156.129 90.8672V91H154.527C154.449 90.8229 154.389 90.5877 154.344 90.2944C154.3 89.9956 154.278 89.7189 154.278 89.4644ZM154.543 85.5547L154.56 86.6338H153.008C152.571 86.6338 152.181 86.6698 151.837 86.7417C151.494 86.8081 151.207 86.9105 150.974 87.0488C150.742 87.1872 150.565 87.3615 150.443 87.5718C150.321 87.7765 150.26 88.0173 150.26 88.2939C150.26 88.5762 150.324 88.8335 150.451 89.0659C150.578 89.2983 150.769 89.4837 151.024 89.6221C151.284 89.7549 151.602 89.8213 151.979 89.8213C152.449 89.8213 152.864 89.7217 153.224 89.5225C153.583 89.3232 153.868 89.0798 154.079 88.792C154.294 88.5042 154.411 88.2248 154.427 87.9536L155.083 88.6924C155.044 88.9248 154.939 89.1821 154.768 89.4644C154.596 89.7466 154.366 90.0177 154.079 90.2778C153.796 90.5324 153.459 90.7454 153.066 90.917C152.679 91.083 152.241 91.166 151.754 91.166C151.146 91.166 150.612 91.047 150.152 90.8091C149.699 90.5711 149.344 90.2529 149.09 89.8545C148.841 89.4505 148.716 88.9995 148.716 88.5015C148.716 88.02 148.81 87.5967 148.999 87.2314C149.187 86.8607 149.458 86.5535 149.812 86.3101C150.166 86.061 150.592 85.8729 151.09 85.7456C151.588 85.6183 152.145 85.5547 152.759 85.5547H154.543ZM167.609 88.958L170.664 82.0186H172.141L168.14 91H167.078L163.093 82.0186H164.571L167.609 88.958ZM164.123 82.0186V91H162.587V82.0186H164.123ZM171.045 91V82.0186H172.589V91H171.045ZM180.359 89.4644V84.8408C180.359 84.4867 180.287 84.1795 180.143 83.9194C180.005 83.6538 179.794 83.4491 179.512 83.3052C179.23 83.1613 178.881 83.0894 178.466 83.0894C178.079 83.0894 177.739 83.1558 177.445 83.2886C177.158 83.4214 176.931 83.5957 176.765 83.8115C176.604 84.0273 176.524 84.2598 176.524 84.5088H174.988C174.988 84.1878 175.071 83.8696 175.237 83.5542C175.403 83.2388 175.641 82.9538 175.951 82.6992C176.267 82.4391 176.643 82.2344 177.08 82.085C177.523 81.93 178.015 81.8525 178.558 81.8525C179.211 81.8525 179.786 81.9632 180.284 82.1846C180.788 82.4059 181.181 82.7407 181.463 83.189C181.751 83.6317 181.895 84.1878 181.895 84.8574V89.041C181.895 89.3398 181.919 89.658 181.969 89.9956C182.025 90.3332 182.105 90.6237 182.21 90.8672V91H180.608C180.53 90.8229 180.47 90.5877 180.425 90.2944C180.381 89.9956 180.359 89.7189 180.359 89.4644ZM180.625 85.5547L180.641 86.6338H179.089C178.652 86.6338 178.262 86.6698 177.918 86.7417C177.575 86.8081 177.288 86.9105 177.055 87.0488C176.823 87.1872 176.646 87.3615 176.524 87.5718C176.402 87.7765 176.341 88.0173 176.341 88.2939C176.341 88.5762 176.405 88.8335 176.532 89.0659C176.66 89.2983 176.85 89.4837 177.105 89.6221C177.365 89.7549 177.683 89.8213 178.06 89.8213C178.53 89.8213 178.945 89.7217 179.305 89.5225C179.664 89.3232 179.949 89.0798 180.16 88.792C180.375 88.5042 180.492 88.2248 180.508 87.9536L181.164 88.6924C181.125 88.9248 181.02 89.1821 180.849 89.4644C180.677 89.7466 180.447 90.0177 180.16 90.2778C179.877 90.5324 179.54 90.7454 179.147 90.917C178.76 91.083 178.322 91.166 177.835 91.166C177.227 91.166 176.693 91.047 176.233 90.8091C175.78 90.5711 175.425 90.2529 175.171 89.8545C174.922 89.4505 174.797 88.9995 174.797 88.5015C174.797 88.02 174.891 87.5967 175.08 87.2314C175.268 86.8607 175.539 86.5535 175.893 86.3101C176.247 86.061 176.673 85.8729 177.171 85.7456C177.669 85.6183 178.226 85.5547 178.84 85.5547H180.625ZM185.846 83.7451V94.4531H184.302V82.0186H185.713L185.846 83.7451ZM191.897 86.4346V86.6089C191.897 87.2619 191.819 87.8678 191.665 88.4268C191.51 88.9801 191.283 89.4616 190.984 89.8711C190.691 90.2806 190.328 90.5988 189.896 90.8257C189.465 91.0526 188.97 91.166 188.411 91.166C187.841 91.166 187.337 91.0719 186.9 90.8838C186.463 90.6956 186.092 90.4217 185.788 90.062C185.483 89.7023 185.24 89.2707 185.057 88.7671C184.88 88.2635 184.758 87.6963 184.692 87.0654V86.1357C184.758 85.4717 184.883 84.8768 185.065 84.3511C185.248 83.8254 185.489 83.3771 185.788 83.0063C186.092 82.63 186.46 82.3451 186.892 82.1514C187.323 81.9521 187.821 81.8525 188.386 81.8525C188.95 81.8525 189.451 81.9632 189.888 82.1846C190.325 82.4004 190.693 82.7103 190.992 83.1143C191.291 83.5182 191.515 84.0024 191.665 84.5669C191.819 85.1258 191.897 85.7484 191.897 86.4346ZM190.353 86.6089V86.4346C190.353 85.9863 190.306 85.5658 190.212 85.1729C190.118 84.7744 189.971 84.4258 189.772 84.127C189.578 83.8226 189.329 83.5846 189.025 83.4131C188.721 83.236 188.358 83.1475 187.938 83.1475C187.55 83.1475 187.213 83.2139 186.925 83.3467C186.643 83.4795 186.402 83.6593 186.203 83.8862C186.003 84.1076 185.84 84.3621 185.713 84.6499C185.591 84.9321 185.5 85.2254 185.439 85.5298V87.6797C185.55 88.0671 185.705 88.4323 185.904 88.7754C186.103 89.113 186.369 89.3869 186.701 89.5972C187.033 89.8019 187.451 89.9043 187.954 89.9043C188.369 89.9043 188.726 89.8185 189.025 89.647C189.329 89.4699 189.578 89.2292 189.772 88.9248C189.971 88.6204 190.118 88.2718 190.212 87.8789C190.306 87.4805 190.353 87.0571 190.353 86.6089ZM195.524 82.0186V91H193.989V82.0186H195.524ZM201.418 82.0186L197.16 87.165H195.01L194.777 85.8203H196.537L199.55 82.0186H201.418ZM199.766 91L196.462 86.9326L197.45 85.8203L201.717 91H199.766ZM206.647 91.166C206.022 91.166 205.455 91.0609 204.946 90.8506C204.442 90.6348 204.008 90.3332 203.643 89.9458C203.283 89.5584 203.006 89.0991 202.812 88.5679C202.619 88.0366 202.522 87.4556 202.522 86.8247V86.4761C202.522 85.7456 202.63 85.0954 202.846 84.5254C203.062 83.9499 203.355 83.4629 203.726 83.0645C204.096 82.666 204.517 82.3644 204.987 82.1597C205.458 81.9549 205.945 81.8525 206.448 81.8525C207.09 81.8525 207.644 81.9632 208.108 82.1846C208.579 82.4059 208.963 82.7158 209.262 83.1143C209.561 83.5072 209.782 83.972 209.926 84.5088C210.07 85.04 210.142 85.6211 210.142 86.252V86.9409H203.435V85.6875H208.606V85.5713C208.584 85.1729 208.501 84.7855 208.357 84.4092C208.219 84.0329 207.998 83.723 207.693 83.4795C207.389 83.236 206.974 83.1143 206.448 83.1143C206.1 83.1143 205.779 83.189 205.485 83.3384C205.192 83.4823 204.94 83.6981 204.73 83.9858C204.52 84.2736 204.356 84.625 204.24 85.04C204.124 85.4551 204.066 85.9338 204.066 86.4761V86.8247C204.066 87.2508 204.124 87.652 204.24 88.0283C204.362 88.3991 204.536 88.7256 204.763 89.0078C204.996 89.29 205.275 89.5114 205.602 89.6719C205.934 89.8324 206.31 89.9126 206.73 89.9126C207.273 89.9126 207.732 89.8019 208.108 89.5806C208.485 89.3592 208.814 89.0632 209.096 88.6924L210.026 89.4312C209.832 89.7244 209.586 90.0039 209.287 90.2695C208.988 90.5352 208.62 90.751 208.183 90.917C207.751 91.083 207.24 91.166 206.647 91.166ZM215.496 82.0186V91H213.952V82.0186H215.496ZM218.509 82.0186V83.2637H210.997V82.0186H218.509ZM226.005 82.0186V83.2886H221.464V82.0186H226.005ZM221.688 82.0186V91H220.153V82.0186H221.688ZM227.366 82.0186V91H225.822V82.0186H227.366ZM235.833 82.0186V83.2886H231.492V82.0186H235.833ZM237.186 82.0186V91H235.65V82.0186H237.186ZM231.118 82.0186H232.662L232.43 86.3516C232.391 87.0212 232.327 87.6133 232.239 88.1279C232.156 88.637 232.04 89.0742 231.89 89.4395C231.746 89.8047 231.564 90.1035 231.342 90.3359C231.126 90.5628 230.866 90.7316 230.562 90.8423C230.258 90.9474 229.906 91 229.508 91H229.026V89.647L229.358 89.6221C229.596 89.6055 229.798 89.5501 229.964 89.4561C230.136 89.362 230.28 89.2236 230.396 89.041C230.512 88.8529 230.606 88.6121 230.678 88.3188C230.756 88.0256 230.814 87.6769 230.853 87.2729C230.897 86.869 230.93 86.3986 230.952 85.8618L231.118 82.0186ZM243.387 91.166C242.761 91.166 242.194 91.0609 241.685 90.8506C241.181 90.6348 240.747 90.3332 240.382 89.9458C240.022 89.5584 239.745 89.0991 239.552 88.5679C239.358 88.0366 239.261 87.4556 239.261 86.8247V86.4761C239.261 85.7456 239.369 85.0954 239.585 84.5254C239.801 83.9499 240.094 83.4629 240.465 83.0645C240.836 82.666 241.256 82.3644 241.727 82.1597C242.197 81.9549 242.684 81.8525 243.188 81.8525C243.829 81.8525 244.383 81.9632 244.848 82.1846C245.318 82.4059 245.703 82.7158 246.001 83.1143C246.3 83.5072 246.522 83.972 246.666 84.5088C246.809 85.04 246.881 85.6211 246.881 86.252V86.9409H240.174V85.6875H245.346V85.5713C245.324 85.1729 245.241 84.7855 245.097 84.4092C244.958 84.0329 244.737 83.723 244.433 83.4795C244.128 83.236 243.713 83.1143 243.188 83.1143C242.839 83.1143 242.518 83.189 242.225 83.3384C241.931 83.4823 241.68 83.6981 241.469 83.9858C241.259 84.2736 241.096 84.625 240.979 85.04C240.863 85.4551 240.805 85.9338 240.805 86.4761V86.8247C240.805 87.2508 240.863 87.652 240.979 88.0283C241.101 88.3991 241.276 88.7256 241.502 89.0078C241.735 89.29 242.014 89.5114 242.341 89.6719C242.673 89.8324 243.049 89.9126 243.47 89.9126C244.012 89.9126 244.471 89.8019 244.848 89.5806C245.224 89.3592 245.553 89.0632 245.835 88.6924L246.765 89.4312C246.571 89.7244 246.325 90.0039 246.026 90.2695C245.728 90.5352 245.36 90.751 244.922 90.917C244.491 91.083 243.979 91.166 243.387 91.166ZM250.334 88.5679L254.477 82.0186H256.021V91H254.477V84.4507L250.334 91H248.807V82.0186H250.334V88.5679ZM253.638 78.7646H254.883C254.883 79.1963 254.784 79.5809 254.584 79.9185C254.385 80.2505 254.1 80.5106 253.729 80.6987C253.359 80.8869 252.919 80.981 252.41 80.981C251.64 80.981 251.032 80.7762 250.583 80.3667C250.141 79.9517 249.919 79.4176 249.919 78.7646H251.165C251.165 79.0911 251.259 79.3789 251.447 79.6279C251.635 79.877 251.956 80.0015 252.41 80.0015C252.852 80.0015 253.168 79.877 253.356 79.6279C253.544 79.3789 253.638 79.0911 253.638 78.7646ZM262.08 89.9043C262.445 89.9043 262.783 89.8296 263.093 89.6802C263.403 89.5308 263.657 89.326 263.856 89.0659C264.056 88.8003 264.169 88.4987 264.197 88.1611H265.658C265.63 88.6924 265.45 89.1877 265.118 89.647C264.792 90.1007 264.363 90.4688 263.832 90.751C263.3 91.0277 262.716 91.166 262.08 91.166C261.405 91.166 260.816 91.047 260.312 90.8091C259.814 90.5711 259.399 90.2446 259.067 89.8296C258.74 89.4146 258.494 88.9386 258.328 88.4019C258.168 87.8595 258.087 87.2868 258.087 86.6836V86.335C258.087 85.7318 258.168 85.1618 258.328 84.625C258.494 84.0827 258.74 83.604 259.067 83.189C259.399 82.7739 259.814 82.4474 260.312 82.2095C260.816 81.9715 261.405 81.8525 262.08 81.8525C262.783 81.8525 263.397 81.9964 263.923 82.2842C264.449 82.5664 264.861 82.9538 265.16 83.4463C265.464 83.9333 265.63 84.4867 265.658 85.1064H264.197C264.169 84.7357 264.064 84.4009 263.881 84.1021C263.704 83.8032 263.461 83.5653 263.151 83.3882C262.847 83.2056 262.49 83.1143 262.08 83.1143C261.61 83.1143 261.214 83.2083 260.893 83.3965C260.578 83.5791 260.326 83.8281 260.138 84.1436C259.955 84.4535 259.822 84.7993 259.739 85.1812C259.662 85.5575 259.623 85.9421 259.623 86.335V86.6836C259.623 87.0765 259.662 87.4639 259.739 87.8457C259.817 88.2275 259.947 88.5734 260.129 88.8833C260.318 89.1932 260.569 89.4422 260.885 89.6304C261.206 89.813 261.604 89.9043 262.08 89.9043ZM272.68 89.4644V84.8408C272.68 84.4867 272.608 84.1795 272.464 83.9194C272.326 83.6538 272.116 83.4491 271.833 83.3052C271.551 83.1613 271.203 83.0894 270.788 83.0894C270.4 83.0894 270.06 83.1558 269.767 83.2886C269.479 83.4214 269.252 83.5957 269.086 83.8115C268.925 84.0273 268.845 84.2598 268.845 84.5088H267.31C267.31 84.1878 267.393 83.8696 267.559 83.5542C267.725 83.2388 267.963 82.9538 268.272 82.6992C268.588 82.4391 268.964 82.2344 269.401 82.085C269.844 81.93 270.337 81.8525 270.879 81.8525C271.532 81.8525 272.107 81.9632 272.605 82.1846C273.109 82.4059 273.502 82.7407 273.784 83.189C274.072 83.6317 274.216 84.1878 274.216 84.8574V89.041C274.216 89.3398 274.241 89.658 274.291 89.9956C274.346 90.3332 274.426 90.6237 274.531 90.8672V91H272.929C272.852 90.8229 272.791 90.5877 272.747 90.2944C272.702 89.9956 272.68 89.7189 272.68 89.4644ZM272.946 85.5547L272.962 86.6338H271.41C270.973 86.6338 270.583 86.6698 270.24 86.7417C269.897 86.8081 269.609 86.9105 269.376 87.0488C269.144 87.1872 268.967 87.3615 268.845 87.5718C268.723 87.7765 268.663 88.0173 268.663 88.2939C268.663 88.5762 268.726 88.8335 268.854 89.0659C268.981 89.2983 269.172 89.4837 269.426 89.6221C269.686 89.7549 270.005 89.8213 270.381 89.8213C270.851 89.8213 271.266 89.7217 271.626 89.5225C271.986 89.3232 272.271 89.0798 272.481 88.792C272.697 88.5042 272.813 88.2248 272.83 87.9536L273.485 88.6924C273.447 88.9248 273.341 89.1821 273.17 89.4644C272.998 89.7466 272.769 90.0177 272.481 90.2778C272.199 90.5324 271.861 90.7454 271.468 90.917C271.081 91.083 270.644 91.166 270.157 91.166C269.548 91.166 269.014 91.047 268.555 90.8091C268.101 90.5711 267.747 90.2529 267.492 89.8545C267.243 89.4505 267.119 88.9995 267.119 88.5015C267.119 88.02 267.213 87.5967 267.401 87.2314C267.589 86.8607 267.86 86.5535 268.214 86.3101C268.569 86.061 268.995 85.8729 269.493 85.7456C269.991 85.6183 270.547 85.5547 271.161 85.5547H272.946ZM277.669 82.0186L279.636 85.2891L281.628 82.0186H283.43L280.491 86.4512L283.521 91H281.745L279.669 87.6299L277.594 91H275.81L278.831 86.4512L275.901 82.0186H277.669Z" fill="black"/>
<defs>
<filter id="filter0_d_802_721" x="564.052" y="12.0862" width="106.191" height="106.163" filterUnits="userSpaceOnUse" color-interpolation-filters="sRGB">
<feFlood flood-opacity="0" result="BackgroundImageFix"/>
<feColorMatrix in="SourceAlpha" type="matrix" values="0 0 0 0 0 0 0 0 0 0 0 0 0 0 0 0 0 0 127 0" result="hardAlpha"/>
<feOffset/>
<feGaussianBlur stdDeviation="12"/>
<feComposite in2="hardAlpha" operator="out"/>
<feColorMatrix type="matrix" values="0 0 0 0 0.579167 0 0 0 0 0.579167 0 0 0 0 0.579167 0 0 0 0.3 0"/>
<feBlend mode="normal" in2="BackgroundImageFix" result="effect1_dropShadow_802_721"/>
<feBlend mode="normal" in="SourceGraphic" in2="effect1_dropShadow_802_721" result="shape"/>
</filter>
</defs>
</svg>
