<svg width="346" height="88" viewBox="0 0 346 88" fill="none" xmlns="http://www.w3.org/2000/svg">
<g filter="url(#filter0_d_830_2159)">
<path d="M316.5 54.8467C323.404 47.9431 323.404 36.7502 316.5 29.8467C309.596 22.9431 298.404 22.9431 291.5 29.8467C284.596 36.7502 284.596 47.9431 291.5 54.8467C298.404 61.7502 309.596 61.7502 316.5 54.8467Z" fill="white"/>
</g>
<path d="M309.525 42.3448C309.529 43.392 309.222 44.4166 308.643 45.2895C308.065 46.1624 307.241 46.8445 306.275 47.2497C305.31 47.655 304.246 47.7652 303.218 47.5665C302.19 47.3678 301.243 46.8691 300.498 46.1333C299.753 45.3975 299.243 44.4575 299.031 43.4319C298.82 42.4064 298.917 41.3411 299.31 40.3706C299.703 39.4001 300.375 38.5677 301.241 37.9785C302.106 37.3892 303.127 37.0696 304.174 37.0597C304.874 37.051 305.568 37.1812 306.217 37.4429C306.866 37.7045 307.456 38.0924 307.954 38.5841C308.452 39.0757 308.847 39.6613 309.117 40.3069C309.387 40.9525 309.525 41.6452 309.525 42.3448Z" fill="#00A3FF"/>
<path d="M304.24 44.4156C305.383 44.4156 306.311 43.4884 306.311 42.3446C306.311 41.2009 305.383 40.2737 304.24 40.2737C303.096 40.2737 302.169 41.2009 302.169 42.3446C302.169 43.4884 303.096 44.4156 304.24 44.4156Z" fill="white"/>
<path d="M53.0456 59.6732C62.811 49.9124 62.811 34.0871 53.0455 24.3263C43.2801 14.5655 27.4473 14.5655 17.6819 24.3263C7.91646 34.087 7.91643 49.9124 17.6819 59.6732C27.4473 69.434 43.2802 69.434 53.0456 59.6732Z" fill="#00A3FF"/>
<path d="M39.7441 44.6277H41.7461V47.8748H39.7441V50.9998H35.9966V47.8748H27.7446V44.1272L35.374 33.4949H39.7441V44.6277ZM35.9966 44.6277V37.8772L31.248 44.6277H35.9966Z" fill="white"/>
<path d="M118.818 17.0552V17.6841C118.818 18.4315 118.725 19.1014 118.538 19.6938C118.351 20.2863 118.082 20.7899 117.731 21.2046C117.381 21.6193 116.959 21.936 116.467 22.1548C115.979 22.3735 115.432 22.4829 114.826 22.4829C114.238 22.4829 113.698 22.3735 113.206 22.1548C112.718 21.936 112.295 21.6193 111.935 21.2046C111.579 20.7899 111.303 20.2863 111.107 19.6938C110.911 19.1014 110.813 18.4315 110.813 17.6841V17.0552C110.813 16.3078 110.909 15.6401 111.101 15.0522C111.297 14.4598 111.572 13.9562 111.928 13.5415C112.283 13.1222 112.705 12.8032 113.192 12.5845C113.685 12.3657 114.225 12.2563 114.812 12.2563C115.419 12.2563 115.965 12.3657 116.453 12.5845C116.945 12.8032 117.367 13.1222 117.718 13.5415C118.073 13.9562 118.344 14.4598 118.531 15.0522C118.723 15.6401 118.818 16.3078 118.818 17.0552ZM117.513 17.6841V17.0415C117.513 16.4491 117.451 15.925 117.328 15.4692C117.21 15.0135 117.034 14.6307 116.802 14.3208C116.569 14.0109 116.285 13.7762 115.947 13.6167C115.615 13.4572 115.236 13.3774 114.812 13.3774C114.402 13.3774 114.031 13.4572 113.698 13.6167C113.37 13.7762 113.088 14.0109 112.851 14.3208C112.618 14.6307 112.438 15.0135 112.311 15.4692C112.183 15.925 112.119 16.4491 112.119 17.0415V17.6841C112.119 18.2811 112.183 18.8097 112.311 19.27C112.438 19.7257 112.62 20.1108 112.857 20.4253C113.099 20.7352 113.384 20.9699 113.712 21.1294C114.045 21.2889 114.416 21.3687 114.826 21.3687C115.255 21.3687 115.635 21.2889 115.968 21.1294C116.3 20.9699 116.581 20.7352 116.809 20.4253C117.041 20.1108 117.216 19.7257 117.335 19.27C117.453 18.8097 117.513 18.2811 117.513 17.6841ZM123.617 14.9497V22.3462H122.346V14.9497H123.617ZM126.099 14.9497V15.9751H119.912V14.9497H126.099ZM128.717 14.9497V22.3462H127.452V14.9497H128.717ZM133.57 14.9497L130.063 19.188H128.293L128.102 18.0806H129.551L132.032 14.9497H133.57ZM132.21 22.3462L129.489 18.9966L130.303 18.0806L133.816 22.3462H132.21ZM136.182 16.3716V25.1899H134.91V14.9497H136.072L136.182 16.3716ZM141.165 18.5864V18.73C141.165 19.2677 141.101 19.7668 140.974 20.2271C140.846 20.6828 140.659 21.0793 140.413 21.4165C140.172 21.7537 139.873 22.0158 139.518 22.2026C139.162 22.3895 138.754 22.4829 138.294 22.4829C137.825 22.4829 137.41 22.4054 137.05 22.2505C136.69 22.0955 136.384 21.87 136.134 21.5737C135.883 21.2775 135.683 20.922 135.532 20.5073C135.386 20.0926 135.286 19.6255 135.231 19.106V18.3403C135.286 17.7935 135.389 17.3035 135.539 16.8706C135.689 16.4377 135.888 16.0685 136.134 15.7632C136.384 15.4533 136.688 15.2186 137.043 15.0591C137.398 14.895 137.809 14.813 138.273 14.813C138.738 14.813 139.151 14.9041 139.511 15.0864C139.871 15.2642 140.174 15.5194 140.42 15.8521C140.666 16.1847 140.851 16.5835 140.974 17.0483C141.101 17.5086 141.165 18.0213 141.165 18.5864ZM139.894 18.73V18.5864C139.894 18.2173 139.855 17.8709 139.777 17.5474C139.7 17.2192 139.579 16.9321 139.415 16.686C139.256 16.4354 139.05 16.2394 138.8 16.0981C138.549 15.9523 138.251 15.8794 137.904 15.8794C137.585 15.8794 137.307 15.9341 137.07 16.0435C136.838 16.1528 136.64 16.3009 136.476 16.4878C136.312 16.6701 136.177 16.8797 136.072 17.1167C135.972 17.3491 135.897 17.5907 135.847 17.8413V19.6118C135.938 19.9308 136.065 20.2316 136.229 20.5142C136.394 20.7922 136.612 21.0177 136.886 21.1909C137.159 21.3595 137.503 21.4438 137.918 21.4438C138.26 21.4438 138.554 21.3732 138.8 21.2319C139.05 21.0861 139.256 20.8879 139.415 20.6372C139.579 20.3866 139.7 20.0994 139.777 19.7759C139.855 19.4478 139.894 19.0991 139.894 18.73ZM143.817 17.4927H146.039C146.636 17.4927 147.14 17.5975 147.55 17.8071C147.96 18.0122 148.27 18.297 148.479 18.6616C148.694 19.0216 148.801 19.4318 148.801 19.8921C148.801 20.2339 148.742 20.5552 148.623 20.856C148.505 21.1522 148.327 21.4119 148.09 21.6353C147.857 21.8586 147.568 22.034 147.222 22.1616C146.88 22.2847 146.486 22.3462 146.039 22.3462H142.895V14.9497H144.159V21.3071H146.039C146.404 21.3071 146.695 21.241 146.914 21.1089C147.133 20.9767 147.29 20.8058 147.386 20.5962C147.481 20.3866 147.529 20.1678 147.529 19.9399C147.529 19.7166 147.481 19.4979 147.386 19.2837C147.29 19.0695 147.133 18.8918 146.914 18.7505C146.695 18.6047 146.404 18.5317 146.039 18.5317H143.817V17.4927ZM151.433 14.9497V22.3462H150.168V14.9497H151.433ZM156.662 14.9497V22.3462H155.391V14.9497H156.662ZM159.144 14.9497V15.9751H152.957V14.9497H159.144ZM161.755 20.3433L165.166 14.9497H166.438V22.3462H165.166V16.9526L161.755 22.3462H160.497V14.9497H161.755V20.3433ZM171.537 22.4829C171.022 22.4829 170.555 22.3963 170.136 22.2231C169.721 22.0454 169.363 21.797 169.062 21.478C168.766 21.159 168.538 20.7808 168.379 20.3433C168.219 19.9058 168.14 19.4272 168.14 18.9077V18.6206C168.14 18.019 168.229 17.4836 168.406 17.0142C168.584 16.5402 168.826 16.1392 169.131 15.811C169.436 15.4829 169.783 15.2345 170.17 15.0659C170.557 14.8973 170.958 14.813 171.373 14.813C171.902 14.813 172.357 14.9041 172.74 15.0864C173.128 15.2687 173.444 15.5239 173.69 15.8521C173.937 16.1756 174.119 16.5584 174.237 17.0005C174.356 17.438 174.415 17.9165 174.415 18.436V19.0034H168.892V17.9712H173.15V17.8755C173.132 17.5474 173.064 17.2284 172.945 16.9185C172.831 16.6086 172.649 16.3534 172.398 16.1528C172.148 15.9523 171.806 15.8521 171.373 15.8521C171.086 15.8521 170.822 15.9136 170.58 16.0366C170.339 16.1551 170.131 16.3328 169.958 16.5698C169.785 16.8068 169.65 17.0962 169.555 17.438C169.459 17.7798 169.411 18.174 169.411 18.6206V18.9077C169.411 19.2586 169.459 19.589 169.555 19.8989C169.655 20.2043 169.799 20.4731 169.985 20.7056C170.177 20.938 170.407 21.1203 170.676 21.2524C170.949 21.3846 171.259 21.4507 171.605 21.4507C172.052 21.4507 172.43 21.3595 172.74 21.1772C173.05 20.995 173.321 20.7511 173.554 20.4458L174.319 21.0542C174.16 21.2957 173.957 21.5259 173.711 21.7446C173.465 21.9634 173.162 22.1411 172.802 22.2778C172.446 22.4146 172.025 22.4829 171.537 22.4829ZM182.324 21.4438C182.625 21.4438 182.903 21.3823 183.158 21.2593C183.413 21.1362 183.623 20.9676 183.787 20.7534C183.951 20.5347 184.045 20.2863 184.067 20.0083H185.271C185.248 20.4458 185.1 20.8537 184.826 21.2319C184.557 21.6056 184.204 21.9087 183.767 22.1411C183.329 22.369 182.848 22.4829 182.324 22.4829C181.768 22.4829 181.283 22.3849 180.868 22.189C180.458 21.993 180.116 21.7241 179.843 21.3823C179.574 21.0405 179.371 20.6486 179.234 20.2065C179.102 19.7599 179.036 19.2882 179.036 18.7915V18.5044C179.036 18.0076 179.102 17.5382 179.234 17.0962C179.371 16.6496 179.574 16.2554 179.843 15.9136C180.116 15.5718 180.458 15.3029 180.868 15.1069C181.283 14.911 181.768 14.813 182.324 14.813C182.903 14.813 183.409 14.9315 183.842 15.1685C184.275 15.4009 184.614 15.7199 184.86 16.1255C185.111 16.5265 185.248 16.9823 185.271 17.4927H184.067C184.045 17.1873 183.958 16.9116 183.808 16.6655C183.662 16.4194 183.461 16.2235 183.206 16.0776C182.955 15.9272 182.661 15.8521 182.324 15.8521C181.937 15.8521 181.611 15.9295 181.347 16.0845C181.087 16.2349 180.88 16.4399 180.725 16.6997C180.574 16.9549 180.465 17.2397 180.396 17.5542C180.333 17.8641 180.301 18.1808 180.301 18.5044V18.7915C180.301 19.1151 180.333 19.4341 180.396 19.7485C180.46 20.063 180.567 20.3478 180.718 20.603C180.873 20.8582 181.08 21.0633 181.34 21.2183C181.604 21.3687 181.932 21.4438 182.324 21.4438ZM186.357 18.73V18.5728C186.357 18.0396 186.435 17.5451 186.59 17.0894C186.745 16.6291 186.968 16.2303 187.26 15.8931C187.551 15.5513 187.905 15.2869 188.319 15.1001C188.734 14.9087 189.199 14.813 189.714 14.813C190.233 14.813 190.701 14.9087 191.115 15.1001C191.535 15.2869 191.89 15.5513 192.182 15.8931C192.478 16.2303 192.703 16.6291 192.858 17.0894C193.013 17.5451 193.091 18.0396 193.091 18.5728V18.73C193.091 19.2632 193.013 19.7576 192.858 20.2134C192.703 20.6691 192.478 21.0679 192.182 21.4097C191.89 21.7469 191.537 22.0112 191.122 22.2026C190.712 22.3895 190.247 22.4829 189.728 22.4829C189.208 22.4829 188.741 22.3895 188.326 22.2026C187.911 22.0112 187.556 21.7469 187.26 21.4097C186.968 21.0679 186.745 20.6691 186.59 20.2134C186.435 19.7576 186.357 19.2632 186.357 18.73ZM187.622 18.5728V18.73C187.622 19.0991 187.665 19.4478 187.752 19.7759C187.839 20.0994 187.968 20.3866 188.142 20.6372C188.319 20.8879 188.54 21.0861 188.805 21.2319C189.069 21.3732 189.377 21.4438 189.728 21.4438C190.074 21.4438 190.377 21.3732 190.637 21.2319C190.901 21.0861 191.12 20.8879 191.293 20.6372C191.466 20.3866 191.596 20.0994 191.683 19.7759C191.774 19.4478 191.819 19.0991 191.819 18.73V18.5728C191.819 18.2082 191.774 17.8641 191.683 17.5405C191.596 17.2124 191.464 16.923 191.286 16.6724C191.113 16.4172 190.894 16.2166 190.63 16.0708C190.37 15.925 190.065 15.8521 189.714 15.8521C189.368 15.8521 189.062 15.925 188.798 16.0708C188.538 16.2166 188.319 16.4172 188.142 16.6724C187.968 16.923 187.839 17.2124 187.752 17.5405C187.665 17.8641 187.622 18.2082 187.622 18.5728ZM198.149 19.0923H195.723L195.709 18.0806H197.691C198.083 18.0806 198.409 18.0418 198.669 17.9644C198.933 17.8869 199.132 17.7707 199.264 17.6157C199.396 17.4608 199.462 17.2694 199.462 17.0415C199.462 16.8638 199.423 16.7088 199.346 16.5767C199.273 16.4399 199.161 16.3283 199.011 16.2417C198.86 16.1506 198.674 16.0845 198.45 16.0435C198.231 15.9979 197.974 15.9751 197.678 15.9751H196.058V22.3462H194.793V14.9497H197.678C198.147 14.9497 198.569 14.9907 198.942 15.0728C199.321 15.1548 199.642 15.2801 199.906 15.4487C200.175 15.6128 200.38 15.8224 200.521 16.0776C200.663 16.3328 200.733 16.6336 200.733 16.98C200.733 17.2033 200.688 17.4152 200.597 17.6157C200.506 17.8162 200.371 17.994 200.193 18.1489C200.016 18.3039 199.797 18.4315 199.537 18.5317C199.277 18.6274 198.979 18.689 198.642 18.7163L198.149 19.0923ZM198.149 22.3462H195.265L195.894 21.3208H198.149C198.5 21.3208 198.792 21.2775 199.024 21.1909C199.257 21.0998 199.43 20.9722 199.544 20.8081C199.662 20.6395 199.722 20.439 199.722 20.2065C199.722 19.9741 199.662 19.7759 199.544 19.6118C199.43 19.4432 199.257 19.3156 199.024 19.229C198.792 19.1379 198.5 19.0923 198.149 19.0923H196.229L196.242 18.0806H198.642L199.1 18.4634C199.505 18.4953 199.849 18.5955 200.132 18.7642C200.414 18.9328 200.629 19.147 200.774 19.4067C200.92 19.6619 200.993 19.9399 200.993 20.2407C200.993 20.5871 200.927 20.8924 200.795 21.1567C200.667 21.4211 200.48 21.6421 200.234 21.8198C199.988 21.993 199.69 22.1252 199.339 22.2163C198.988 22.3029 198.591 22.3462 198.149 22.3462ZM206.94 20.6646L209.456 14.9497H210.673L207.378 22.3462H206.503L203.222 14.9497H204.438L206.94 20.6646ZM204.069 14.9497V22.3462H202.805V14.9497H204.069ZM209.771 22.3462V14.9497H211.042V22.3462H209.771ZM216.148 22.4829C215.633 22.4829 215.166 22.3963 214.747 22.2231C214.332 22.0454 213.975 21.797 213.674 21.478C213.378 21.159 213.15 20.7808 212.99 20.3433C212.831 19.9058 212.751 19.4272 212.751 18.9077V18.6206C212.751 18.019 212.84 17.4836 213.018 17.0142C213.195 16.5402 213.437 16.1392 213.742 15.811C214.048 15.4829 214.394 15.2345 214.781 15.0659C215.169 14.8973 215.57 14.813 215.984 14.813C216.513 14.813 216.969 14.9041 217.352 15.0864C217.739 15.2687 218.056 15.5239 218.302 15.8521C218.548 16.1756 218.73 16.5584 218.849 17.0005C218.967 17.438 219.026 17.9165 219.026 18.436V19.0034H213.503V17.9712H217.762V17.8755C217.743 17.5474 217.675 17.2284 217.557 16.9185C217.443 16.6086 217.26 16.3534 217.01 16.1528C216.759 15.9523 216.417 15.8521 215.984 15.8521C215.697 15.8521 215.433 15.9136 215.191 16.0366C214.95 16.1551 214.743 16.3328 214.569 16.5698C214.396 16.8068 214.262 17.0962 214.166 17.438C214.07 17.7798 214.022 18.174 214.022 18.6206V18.9077C214.022 19.2586 214.07 19.589 214.166 19.8989C214.266 20.2043 214.41 20.4731 214.597 20.7056C214.788 20.938 215.018 21.1203 215.287 21.2524C215.561 21.3846 215.87 21.4507 216.217 21.4507C216.663 21.4507 217.042 21.3595 217.352 21.1772C217.661 20.995 217.933 20.7511 218.165 20.4458L218.931 21.0542C218.771 21.2957 218.568 21.5259 218.322 21.7446C218.076 21.9634 217.773 22.1411 217.413 22.2778C217.058 22.4146 216.636 22.4829 216.148 22.4829ZM223.463 21.4438C223.764 21.4438 224.042 21.3823 224.297 21.2593C224.552 21.1362 224.762 20.9676 224.926 20.7534C225.09 20.5347 225.183 20.2863 225.206 20.0083H226.409C226.386 20.4458 226.238 20.8537 225.965 21.2319C225.696 21.6056 225.343 21.9087 224.905 22.1411C224.468 22.369 223.987 22.4829 223.463 22.4829C222.907 22.4829 222.422 22.3849 222.007 22.189C221.597 21.993 221.255 21.7241 220.981 21.3823C220.713 21.0405 220.51 20.6486 220.373 20.2065C220.241 19.7599 220.175 19.2882 220.175 18.7915V18.5044C220.175 18.0076 220.241 17.5382 220.373 17.0962C220.51 16.6496 220.713 16.2554 220.981 15.9136C221.255 15.5718 221.597 15.3029 222.007 15.1069C222.422 14.911 222.907 14.813 223.463 14.813C224.042 14.813 224.548 14.9315 224.98 15.1685C225.413 15.4009 225.753 15.7199 225.999 16.1255C226.25 16.5265 226.386 16.9823 226.409 17.4927H225.206C225.183 17.1873 225.097 16.9116 224.946 16.6655C224.8 16.4194 224.6 16.2235 224.345 16.0776C224.094 15.9272 223.8 15.8521 223.463 15.8521C223.076 15.8521 222.75 15.9295 222.485 16.0845C222.226 16.2349 222.018 16.4399 221.863 16.6997C221.713 16.9549 221.604 17.2397 221.535 17.5542C221.471 17.8641 221.439 18.1808 221.439 18.5044V18.7915C221.439 19.1151 221.471 19.4341 221.535 19.7485C221.599 20.063 221.706 20.3478 221.856 20.603C222.011 20.8582 222.219 21.0633 222.479 21.2183C222.743 21.3687 223.071 21.4438 223.463 21.4438ZM230.846 14.9497V22.3462H229.574V14.9497H230.846ZM233.327 14.9497V15.9751H227.141V14.9497H233.327ZM239.589 18.1558V19.1812H235.679V18.1558H239.589ZM235.945 14.9497V22.3462H234.681V14.9497H235.945ZM240.614 14.9497V22.3462H239.343V14.9497H240.614ZM242.316 18.73V18.5728C242.316 18.0396 242.394 17.5451 242.549 17.0894C242.704 16.6291 242.927 16.2303 243.219 15.8931C243.51 15.5513 243.864 15.2869 244.278 15.1001C244.693 14.9087 245.158 14.813 245.673 14.813C246.192 14.813 246.66 14.9087 247.074 15.1001C247.493 15.2869 247.849 15.5513 248.141 15.8931C248.437 16.2303 248.662 16.6291 248.817 17.0894C248.972 17.5451 249.05 18.0396 249.05 18.5728V18.73C249.05 19.2632 248.972 19.7576 248.817 20.2134C248.662 20.6691 248.437 21.0679 248.141 21.4097C247.849 21.7469 247.496 22.0112 247.081 22.2026C246.671 22.3895 246.206 22.4829 245.687 22.4829C245.167 22.4829 244.7 22.3895 244.285 22.2026C243.87 22.0112 243.515 21.7469 243.219 21.4097C242.927 21.0679 242.704 20.6691 242.549 20.2134C242.394 19.7576 242.316 19.2632 242.316 18.73ZM243.581 18.5728V18.73C243.581 19.0991 243.624 19.4478 243.711 19.7759C243.798 20.0994 243.927 20.3866 244.101 20.6372C244.278 20.8879 244.499 21.0861 244.764 21.2319C245.028 21.3732 245.336 21.4438 245.687 21.4438C246.033 21.4438 246.336 21.3732 246.596 21.2319C246.86 21.0861 247.079 20.8879 247.252 20.6372C247.425 20.3866 247.555 20.0994 247.642 19.7759C247.733 19.4478 247.778 19.0991 247.778 18.73V18.5728C247.778 18.2082 247.733 17.8641 247.642 17.5405C247.555 17.2124 247.423 16.923 247.245 16.6724C247.072 16.4172 246.853 16.2166 246.589 16.0708C246.329 15.925 246.024 15.8521 245.673 15.8521C245.326 15.8521 245.021 15.925 244.757 16.0708C244.497 16.2166 244.278 16.4172 244.101 16.6724C243.927 16.923 243.798 17.2124 243.711 17.5405C243.624 17.8641 243.581 18.2082 243.581 18.5728ZM252.003 20.3433L255.414 14.9497H256.686V22.3462H255.414V16.9526L252.003 22.3462H250.745V14.9497H252.003V20.3433ZM254.724 12.27H255.749C255.749 12.6255 255.667 12.9422 255.503 13.2202C255.339 13.4937 255.104 13.7078 254.799 13.8628C254.493 14.0177 254.131 14.0952 253.712 14.0952C253.078 14.0952 252.577 13.9266 252.208 13.5894C251.843 13.2476 251.661 12.8078 251.661 12.27H252.687C252.687 12.5389 252.764 12.7759 252.919 12.981C253.074 13.186 253.338 13.2886 253.712 13.2886C254.076 13.2886 254.336 13.186 254.491 12.981C254.646 12.7759 254.724 12.5389 254.724 12.27ZM112.338 34.9497V42.3462H111.073V34.9497H112.338ZM117.191 34.9497L113.685 39.188H111.914L111.723 38.0806H113.172L115.653 34.9497H117.191ZM115.831 42.3462L113.11 38.9966L113.924 38.0806L117.438 42.3462H115.831ZM118.053 38.73V38.5728C118.053 38.0396 118.13 37.5451 118.285 37.0894C118.44 36.6291 118.663 36.2303 118.955 35.8931C119.247 35.5513 119.6 35.2869 120.015 35.1001C120.429 34.9087 120.894 34.813 121.409 34.813C121.929 34.813 122.396 34.9087 122.811 35.1001C123.23 35.2869 123.585 35.5513 123.877 35.8931C124.173 36.2303 124.399 36.6291 124.554 37.0894C124.709 37.5451 124.786 38.0396 124.786 38.5728V38.73C124.786 39.2632 124.709 39.7576 124.554 40.2134C124.399 40.6691 124.173 41.0679 123.877 41.4097C123.585 41.7469 123.232 42.0112 122.817 42.2026C122.407 42.3895 121.942 42.4829 121.423 42.4829C120.903 42.4829 120.436 42.3895 120.021 42.2026C119.607 42.0112 119.251 41.7469 118.955 41.4097C118.663 41.0679 118.44 40.6691 118.285 40.2134C118.13 39.7576 118.053 39.2632 118.053 38.73ZM119.317 38.5728V38.73C119.317 39.0991 119.361 39.4478 119.447 39.7759C119.534 40.0994 119.664 40.3866 119.837 40.6372C120.015 40.8879 120.236 41.0861 120.5 41.2319C120.764 41.3732 121.072 41.4438 121.423 41.4438C121.769 41.4438 122.072 41.3732 122.332 41.2319C122.596 41.0861 122.815 40.8879 122.988 40.6372C123.161 40.3866 123.291 40.0994 123.378 39.7759C123.469 39.4478 123.515 39.0991 123.515 38.73V38.5728C123.515 38.2082 123.469 37.8641 123.378 37.5405C123.291 37.2124 123.159 36.923 122.981 36.6724C122.808 36.4172 122.59 36.2166 122.325 36.0708C122.065 35.925 121.76 35.8521 121.409 35.8521C121.063 35.8521 120.757 35.925 120.493 36.0708C120.233 36.2166 120.015 36.4172 119.837 36.6724C119.664 36.923 119.534 37.2124 119.447 37.5405C119.361 37.8641 119.317 38.2082 119.317 38.5728ZM130.624 40.6646L133.14 34.9497H134.356L131.062 42.3462H130.187L126.905 34.9497H128.122L130.624 40.6646ZM127.753 34.9497V42.3462H126.488V34.9497H127.753ZM133.454 42.3462V34.9497H134.726V42.3462H133.454ZM141.691 34.9497V35.9956H137.952V34.9497H141.691ZM138.137 34.9497V42.3462H136.872V34.9497H138.137ZM142.812 34.9497V42.3462H141.541V34.9497H142.812ZM149.204 41.0815V37.2739C149.204 36.9823 149.145 36.7293 149.026 36.5151C148.912 36.2964 148.739 36.1278 148.507 36.0093C148.274 35.8908 147.987 35.8315 147.646 35.8315C147.326 35.8315 147.046 35.8862 146.805 35.9956C146.568 36.105 146.381 36.2485 146.244 36.4263C146.112 36.604 146.046 36.7954 146.046 37.0005H144.781C144.781 36.7362 144.85 36.4741 144.986 36.2144C145.123 35.9546 145.319 35.7199 145.574 35.5103C145.834 35.2961 146.144 35.1274 146.504 35.0044C146.868 34.8768 147.274 34.813 147.721 34.813C148.258 34.813 148.732 34.9041 149.143 35.0864C149.557 35.2687 149.881 35.5444 150.113 35.9136C150.35 36.2782 150.469 36.7362 150.469 37.2876V40.7329C150.469 40.979 150.489 41.241 150.53 41.519C150.576 41.797 150.642 42.0363 150.729 42.2368V42.3462H149.409C149.345 42.2004 149.295 42.0067 149.259 41.7651C149.222 41.519 149.204 41.2912 149.204 41.0815ZM149.423 37.8618L149.437 38.7505H148.158C147.798 38.7505 147.477 38.7801 147.194 38.8394C146.912 38.894 146.675 38.9784 146.483 39.0923C146.292 39.2062 146.146 39.3498 146.046 39.5229C145.946 39.6916 145.896 39.8898 145.896 40.1177C145.896 40.3501 145.948 40.562 146.053 40.7534C146.158 40.9448 146.315 41.0975 146.524 41.2114C146.739 41.3208 147.001 41.3755 147.311 41.3755C147.698 41.3755 148.04 41.2935 148.336 41.1294C148.632 40.9653 148.867 40.7648 149.04 40.5278C149.218 40.2909 149.313 40.0607 149.327 39.8374L149.867 40.4458C149.835 40.6372 149.749 40.8491 149.607 41.0815C149.466 41.314 149.277 41.5373 149.04 41.7515C148.808 41.9611 148.53 42.1366 148.206 42.2778C147.887 42.4146 147.527 42.4829 147.126 42.4829C146.625 42.4829 146.185 42.3849 145.807 42.189C145.433 41.993 145.141 41.731 144.932 41.4028C144.727 41.0701 144.624 40.6987 144.624 40.2886C144.624 39.8921 144.701 39.5435 144.856 39.2427C145.011 38.9373 145.235 38.6844 145.526 38.4839C145.818 38.2788 146.169 38.1239 146.579 38.019C146.989 37.9142 147.447 37.8618 147.953 37.8618H149.423ZM157.476 38.1558V39.1812H153.565V38.1558H157.476ZM153.832 34.9497V42.3462H152.567V34.9497H153.832ZM158.501 34.9497V42.3462H157.229V34.9497H158.501ZM161.905 40.3433L165.316 34.9497H166.588V42.3462H165.316V36.9526L161.905 42.3462H160.647V34.9497H161.905V40.3433ZM169.985 40.3433L173.396 34.9497H174.668V42.3462H173.396V36.9526L169.985 42.3462H168.728V34.9497H169.985V40.3433ZM177.847 40.8423V41.8608C177.847 42.2756 177.742 42.7131 177.532 43.1733C177.323 43.6382 177.029 44.0256 176.65 44.3354L175.933 43.8364C176.078 43.6359 176.201 43.4308 176.302 43.2212C176.402 43.0161 176.477 42.8019 176.527 42.5786C176.582 42.3599 176.609 42.1274 176.609 41.8813V40.8423H177.847ZM187.875 34.9497V35.9956H184.3V34.9497H187.875ZM188.989 34.9497V42.3462H187.725V34.9497H188.989ZM183.992 34.9497H185.264L185.072 38.5181C185.04 39.0695 184.988 39.5571 184.915 39.981C184.847 40.4002 184.751 40.7603 184.628 41.061C184.509 41.3618 184.359 41.6079 184.177 41.7993C183.999 41.9862 183.785 42.1252 183.534 42.2163C183.284 42.3029 182.994 42.3462 182.666 42.3462H182.27V41.2319L182.543 41.2114C182.739 41.1978 182.905 41.1522 183.042 41.0747C183.183 40.9972 183.302 40.8833 183.397 40.7329C183.493 40.578 183.571 40.3797 183.63 40.1382C183.694 39.8966 183.742 39.6095 183.773 39.2769C183.81 38.9442 183.837 38.5568 183.855 38.1147L183.992 34.9497ZM192.394 40.3433L195.805 34.9497H197.076V42.3462H195.805V36.9526L192.394 42.3462H191.136V34.9497H192.394V40.3433ZM203.851 31.73H204.89C204.89 32.1766 204.821 32.5321 204.685 32.7964C204.548 33.0562 204.361 33.2567 204.124 33.3979C203.892 33.5392 203.627 33.6463 203.331 33.7192C203.039 33.7922 202.736 33.8628 202.422 33.9312C202.03 34.0132 201.665 34.1431 201.328 34.3208C200.995 34.494 200.708 34.7401 200.467 35.0591C200.23 35.3781 200.054 35.7928 199.94 36.3032C199.831 36.8136 199.801 37.4448 199.852 38.1968V38.8257H198.812V38.1968C198.812 37.3537 198.892 36.6177 199.052 35.9888C199.216 35.3599 199.446 34.8289 199.742 34.396C200.038 33.9631 200.389 33.619 200.795 33.3638C201.205 33.1086 201.656 32.9331 202.148 32.8374C202.504 32.769 202.809 32.6961 203.064 32.6187C203.32 32.5366 203.513 32.4272 203.646 32.2905C203.782 32.1538 203.851 31.967 203.851 31.73ZM202.354 35.3735C202.837 35.3735 203.267 35.4578 203.646 35.6265C204.024 35.7951 204.345 36.0298 204.609 36.3306C204.874 36.6313 205.074 36.9868 205.211 37.397C205.352 37.8026 205.423 38.2446 205.423 38.7231V38.8735C205.423 39.3885 205.348 39.867 205.197 40.3091C205.051 40.7466 204.835 41.1294 204.548 41.4575C204.265 41.7811 203.919 42.034 203.509 42.2163C203.103 42.3986 202.641 42.4897 202.121 42.4897C201.602 42.4897 201.137 42.3986 200.727 42.2163C200.321 42.034 199.975 41.7811 199.688 41.4575C199.4 41.1294 199.182 40.7466 199.031 40.3091C198.885 39.867 198.812 39.3885 198.812 38.8735V38.7231C198.812 38.6092 198.833 38.4976 198.874 38.3882C198.915 38.2788 198.965 38.1672 199.024 38.0532C199.088 37.9393 199.145 37.8185 199.195 37.6909C199.364 37.2808 199.594 36.9002 199.886 36.5493C200.182 36.1984 200.535 35.9159 200.945 35.7017C201.36 35.4829 201.829 35.3735 202.354 35.3735ZM202.107 36.4058C201.643 36.4058 201.26 36.5129 200.959 36.7271C200.663 36.9412 200.442 37.2261 200.296 37.5815C200.15 37.9325 200.077 38.313 200.077 38.7231V38.8735C200.077 39.2199 200.118 39.548 200.2 39.8579C200.282 40.1678 200.405 40.4435 200.569 40.6851C200.738 40.922 200.95 41.1089 201.205 41.2456C201.465 41.3823 201.77 41.4507 202.121 41.4507C202.472 41.4507 202.775 41.3823 203.03 41.2456C203.285 41.1089 203.495 40.922 203.659 40.6851C203.823 40.4435 203.946 40.1678 204.028 39.8579C204.11 39.548 204.151 39.2199 204.151 38.8735V38.7231C204.151 38.4132 204.11 38.1193 204.028 37.8413C203.946 37.5633 203.821 37.3172 203.652 37.103C203.488 36.8888 203.276 36.7202 203.017 36.5972C202.761 36.4696 202.458 36.4058 202.107 36.4058ZM206.523 38.73V38.5728C206.523 38.0396 206.601 37.5451 206.756 37.0894C206.911 36.6291 207.134 36.2303 207.426 35.8931C207.717 35.5513 208.071 35.2869 208.485 35.1001C208.9 34.9087 209.365 34.813 209.88 34.813C210.399 34.813 210.867 34.9087 211.281 35.1001C211.701 35.2869 212.056 35.5513 212.348 35.8931C212.644 36.2303 212.869 36.6291 213.024 37.0894C213.179 37.5451 213.257 38.0396 213.257 38.5728V38.73C213.257 39.2632 213.179 39.7576 213.024 40.2134C212.869 40.6691 212.644 41.0679 212.348 41.4097C212.056 41.7469 211.703 42.0112 211.288 42.2026C210.878 42.3895 210.413 42.4829 209.894 42.4829C209.374 42.4829 208.907 42.3895 208.492 42.2026C208.077 42.0112 207.722 41.7469 207.426 41.4097C207.134 41.0679 206.911 40.6691 206.756 40.2134C206.601 39.7576 206.523 39.2632 206.523 38.73ZM207.788 38.5728V38.73C207.788 39.0991 207.831 39.4478 207.918 39.7759C208.005 40.0994 208.134 40.3866 208.308 40.6372C208.485 40.8879 208.706 41.0861 208.971 41.2319C209.235 41.3732 209.543 41.4438 209.894 41.4438C210.24 41.4438 210.543 41.3732 210.803 41.2319C211.067 41.0861 211.286 40.8879 211.459 40.6372C211.632 40.3866 211.762 40.0994 211.849 39.7759C211.94 39.4478 211.985 39.0991 211.985 38.73V38.5728C211.985 38.2082 211.94 37.8641 211.849 37.5405C211.762 37.2124 211.63 36.923 211.452 36.6724C211.279 36.4172 211.06 36.2166 210.796 36.0708C210.536 35.925 210.231 35.8521 209.88 35.8521C209.534 35.8521 209.228 35.925 208.964 36.0708C208.704 36.2166 208.485 36.4172 208.308 36.6724C208.134 36.923 208.005 37.2124 207.918 37.5405C207.831 37.8641 207.788 38.2082 207.788 38.5728ZM114.437 59.0923H112.01L111.996 58.0806H113.979C114.37 58.0806 114.696 58.0418 114.956 57.9644C115.22 57.8869 115.419 57.7707 115.551 57.6157C115.683 57.4608 115.749 57.2694 115.749 57.0415C115.749 56.8638 115.71 56.7088 115.633 56.5767C115.56 56.4399 115.448 56.3283 115.298 56.2417C115.147 56.1506 114.961 56.0845 114.737 56.0435C114.519 55.9979 114.261 55.9751 113.965 55.9751H112.345V62.3462H111.08V54.9497H113.965C114.434 54.9497 114.856 54.9907 115.229 55.0728C115.608 55.1548 115.929 55.2801 116.193 55.4487C116.462 55.6128 116.667 55.8224 116.809 56.0776C116.95 56.3328 117.021 56.6336 117.021 56.98C117.021 57.2033 116.975 57.4152 116.884 57.6157C116.793 57.8162 116.658 57.994 116.48 58.1489C116.303 58.3039 116.084 58.4315 115.824 58.5317C115.564 58.6274 115.266 58.689 114.929 58.7163L114.437 59.0923ZM114.437 62.3462H111.552L112.181 61.3208H114.437C114.787 61.3208 115.079 61.2775 115.312 61.1909C115.544 61.0998 115.717 60.9722 115.831 60.8081C115.95 60.6395 116.009 60.439 116.009 60.2065C116.009 59.9741 115.95 59.7759 115.831 59.6118C115.717 59.4432 115.544 59.3156 115.312 59.229C115.079 59.1379 114.787 59.0923 114.437 59.0923H112.516L112.529 58.0806H114.929L115.387 58.4634C115.792 58.4953 116.136 58.5955 116.419 58.7642C116.701 58.9328 116.916 59.147 117.062 59.4067C117.207 59.6619 117.28 59.9399 117.28 60.2407C117.28 60.5871 117.214 60.8924 117.082 61.1567C116.954 61.4211 116.768 61.6421 116.521 61.8198C116.275 61.993 115.977 62.1252 115.626 62.2163C115.275 62.3029 114.879 62.3462 114.437 62.3462ZM119.83 54.9497L121.45 57.6431L123.091 54.9497H124.574L122.154 58.6001L124.649 62.3462H123.187L121.478 59.5708L119.769 62.3462H118.299L120.787 58.6001L118.374 54.9497H119.83ZM125.449 58.73V58.5728C125.449 58.0396 125.527 57.5451 125.682 57.0894C125.837 56.6291 126.06 56.2303 126.352 55.8931C126.643 55.5513 126.996 55.2869 127.411 55.1001C127.826 54.9087 128.291 54.813 128.806 54.813C129.325 54.813 129.792 54.9087 130.207 55.1001C130.626 55.2869 130.982 55.5513 131.273 55.8931C131.57 56.2303 131.795 56.6291 131.95 57.0894C132.105 57.5451 132.183 58.0396 132.183 58.5728V58.73C132.183 59.2632 132.105 59.7576 131.95 60.2134C131.795 60.6691 131.57 61.0679 131.273 61.4097C130.982 61.7469 130.629 62.0112 130.214 62.2026C129.804 62.3895 129.339 62.4829 128.819 62.4829C128.3 62.4829 127.833 62.3895 127.418 62.2026C127.003 62.0112 126.648 61.7469 126.352 61.4097C126.06 61.0679 125.837 60.6691 125.682 60.2134C125.527 59.7576 125.449 59.2632 125.449 58.73ZM126.714 58.5728V58.73C126.714 59.0991 126.757 59.4478 126.844 59.7759C126.93 60.0994 127.06 60.3866 127.233 60.6372C127.411 60.8879 127.632 61.0861 127.896 61.2319C128.161 61.3732 128.468 61.4438 128.819 61.4438C129.166 61.4438 129.469 61.3732 129.729 61.2319C129.993 61.0861 130.212 60.8879 130.385 60.6372C130.558 60.3866 130.688 60.0994 130.774 59.7759C130.866 59.4478 130.911 59.0991 130.911 58.73V58.5728C130.911 58.2082 130.866 57.8641 130.774 57.5405C130.688 57.2124 130.556 56.923 130.378 56.6724C130.205 56.4172 129.986 56.2166 129.722 56.0708C129.462 55.925 129.157 55.8521 128.806 55.8521C128.459 55.8521 128.154 55.925 127.89 56.0708C127.63 56.2166 127.411 56.4172 127.233 56.6724C127.06 56.923 126.93 57.2124 126.844 57.5405C126.757 57.8641 126.714 58.2082 126.714 58.5728ZM135.86 59.1265L133.058 54.9497H134.582L136.496 58.0122H137.973L137.788 59.1265H135.86ZM136.551 58.9966L134.404 62.3462H132.805L135.751 58.0806L136.551 58.9966ZM138.622 54.9497V62.3462H137.357V54.9497H138.622ZM142.936 54.9497L140.133 59.1265H138.205L138.007 58.0122H139.49L141.404 54.9497H142.936ZM141.582 62.3462L139.429 58.9966L140.242 58.0806L143.182 62.3462H141.582ZM145.684 54.9497H146.948L146.839 57.7183C146.812 58.4201 146.732 59.0262 146.6 59.5366C146.467 60.047 146.299 60.4823 146.094 60.8423C145.889 61.1978 145.659 61.4963 145.403 61.7378C145.153 61.9793 144.893 62.1821 144.624 62.3462H143.995L144.029 61.314L144.289 61.3071C144.439 61.1294 144.585 60.9471 144.727 60.7603C144.868 60.5688 144.998 60.3433 145.116 60.0835C145.235 59.8192 145.333 59.4979 145.41 59.1196C145.492 58.7368 145.545 58.2697 145.567 57.7183L145.684 54.9497ZM145.998 54.9497H150.448V62.3462H149.184V56.1187H145.998V54.9497ZM143.708 61.3071H151.398V64.5269H150.134V62.3462H144.973V64.5269H143.701L143.708 61.3071ZM155.869 62.4829C155.354 62.4829 154.887 62.3963 154.468 62.2231C154.053 62.0454 153.695 61.797 153.395 61.478C153.098 61.159 152.87 60.7808 152.711 60.3433C152.551 59.9058 152.472 59.4272 152.472 58.9077V58.6206C152.472 58.019 152.561 57.4836 152.738 57.0142C152.916 56.5402 153.158 56.1392 153.463 55.811C153.768 55.4829 154.115 55.2345 154.502 55.0659C154.889 54.8973 155.29 54.813 155.705 54.813C156.234 54.813 156.689 54.9041 157.072 55.0864C157.46 55.2687 157.776 55.5239 158.022 55.8521C158.269 56.1756 158.451 56.5584 158.569 57.0005C158.688 57.438 158.747 57.9165 158.747 58.436V59.0034H153.224V57.9712H157.482V57.8755C157.464 57.5474 157.396 57.2284 157.277 56.9185C157.163 56.6086 156.981 56.3534 156.73 56.1528C156.48 55.9523 156.138 55.8521 155.705 55.8521C155.418 55.8521 155.154 55.9136 154.912 56.0366C154.671 56.1551 154.463 56.3328 154.29 56.5698C154.117 56.8068 153.982 57.0962 153.887 57.438C153.791 57.7798 153.743 58.174 153.743 58.6206V58.9077C153.743 59.2586 153.791 59.589 153.887 59.8989C153.987 60.2043 154.131 60.4731 154.317 60.7056C154.509 60.938 154.739 61.1203 155.008 61.2524C155.281 61.3846 155.591 61.4507 155.938 61.4507C156.384 61.4507 156.762 61.3595 157.072 61.1772C157.382 60.995 157.653 60.7511 157.886 60.4458L158.651 61.0542C158.492 61.2957 158.289 61.5259 158.043 61.7446C157.797 61.9634 157.494 62.1411 157.134 62.2778C156.778 62.4146 156.357 62.4829 155.869 62.4829ZM165.241 58.1558V59.1812H161.331V58.1558H165.241ZM161.598 54.9497V62.3462H160.333V54.9497H161.598ZM166.267 54.9497V62.3462H164.995V54.9497H166.267ZM169.671 60.3433L173.082 54.9497H174.354V62.3462H173.082V56.9526L169.671 62.3462H168.413V54.9497H169.671V60.3433ZM179.453 62.4829C178.938 62.4829 178.471 62.3963 178.052 62.2231C177.637 62.0454 177.279 61.797 176.979 61.478C176.682 61.159 176.454 60.7808 176.295 60.3433C176.135 59.9058 176.056 59.4272 176.056 58.9077V58.6206C176.056 58.019 176.145 57.4836 176.322 57.0142C176.5 56.5402 176.742 56.1392 177.047 55.811C177.352 55.4829 177.699 55.2345 178.086 55.0659C178.473 54.8973 178.874 54.813 179.289 54.813C179.818 54.813 180.273 54.9041 180.656 55.0864C181.044 55.2687 181.36 55.5239 181.606 55.8521C181.853 56.1756 182.035 56.5584 182.153 57.0005C182.272 57.438 182.331 57.9165 182.331 58.436V59.0034H176.808V57.9712H181.066V57.8755C181.048 57.5474 180.98 57.2284 180.861 56.9185C180.747 56.6086 180.565 56.3534 180.314 56.1528C180.064 55.9523 179.722 55.8521 179.289 55.8521C179.002 55.8521 178.738 55.9136 178.496 56.0366C178.255 56.1551 178.047 56.3328 177.874 56.5698C177.701 56.8068 177.566 57.0962 177.471 57.438C177.375 57.7798 177.327 58.174 177.327 58.6206V58.9077C177.327 59.2586 177.375 59.589 177.471 59.8989C177.571 60.2043 177.715 60.4731 177.901 60.7056C178.093 60.938 178.323 61.1203 178.592 61.2524C178.865 61.3846 179.175 61.4507 179.521 61.4507C179.968 61.4507 180.346 61.3595 180.656 61.1772C180.966 60.995 181.237 60.7511 181.47 60.4458L182.235 61.0542C182.076 61.2957 181.873 61.5259 181.627 61.7446C181.381 61.9634 181.078 62.1411 180.718 62.2778C180.362 62.4146 179.941 62.4829 179.453 62.4829ZM190.753 59.0923H188.326L188.312 58.0806H190.295C190.687 58.0806 191.013 58.0418 191.272 57.9644C191.537 57.8869 191.735 57.7707 191.867 57.6157C191.999 57.4608 192.065 57.2694 192.065 57.0415C192.065 56.8638 192.027 56.7088 191.949 56.5767C191.876 56.4399 191.765 56.3283 191.614 56.2417C191.464 56.1506 191.277 56.0845 191.054 56.0435C190.835 55.9979 190.577 55.9751 190.281 55.9751H188.661V62.3462H187.396V54.9497H190.281C190.751 54.9497 191.172 54.9907 191.546 55.0728C191.924 55.1548 192.245 55.2801 192.51 55.4487C192.779 55.6128 192.984 55.8224 193.125 56.0776C193.266 56.3328 193.337 56.6336 193.337 56.98C193.337 57.2033 193.291 57.4152 193.2 57.6157C193.109 57.8162 192.975 57.994 192.797 58.1489C192.619 58.3039 192.4 58.4315 192.141 58.5317C191.881 58.6274 191.582 58.689 191.245 58.7163L190.753 59.0923ZM190.753 62.3462H187.868L188.497 61.3208H190.753C191.104 61.3208 191.396 61.2775 191.628 61.1909C191.86 61.0998 192.034 60.9722 192.147 60.8081C192.266 60.6395 192.325 60.439 192.325 60.2065C192.325 59.9741 192.266 59.7759 192.147 59.6118C192.034 59.4432 191.86 59.3156 191.628 59.229C191.396 59.1379 191.104 59.0923 190.753 59.0923H188.832L188.846 58.0806H191.245L191.703 58.4634C192.109 58.4953 192.453 58.5955 192.735 58.7642C193.018 58.9328 193.232 59.147 193.378 59.4067C193.524 59.6619 193.597 59.9399 193.597 60.2407C193.597 60.5871 193.531 60.8924 193.398 61.1567C193.271 61.4211 193.084 61.6421 192.838 61.8198C192.592 61.993 192.293 62.1252 191.942 62.2163C191.591 62.3029 191.195 62.3462 190.753 62.3462ZM112.331 80.3433L115.742 74.9497H117.014V82.3462H115.742V76.9526L112.331 82.3462H111.073V74.9497H112.331V80.3433ZM123.296 80.6646L125.812 74.9497H127.028L123.733 82.3462H122.858L119.577 74.9497H120.794L123.296 80.6646ZM120.425 74.9497V82.3462H119.16V74.9497H120.425ZM126.126 82.3462V74.9497H127.397V82.3462H126.126ZM132.504 82.4829C131.989 82.4829 131.522 82.3963 131.103 82.2231C130.688 82.0454 130.33 81.797 130.029 81.478C129.733 81.159 129.505 80.7808 129.346 80.3433C129.186 79.9058 129.106 79.4272 129.106 78.9077V78.6206C129.106 78.019 129.195 77.4836 129.373 77.0142C129.551 76.5402 129.792 76.1392 130.098 75.811C130.403 75.4829 130.749 75.2345 131.137 75.0659C131.524 74.8973 131.925 74.813 132.34 74.813C132.868 74.813 133.324 74.9041 133.707 75.0864C134.094 75.2687 134.411 75.5239 134.657 75.8521C134.903 76.1756 135.086 76.5584 135.204 77.0005C135.323 77.438 135.382 77.9165 135.382 78.436V79.0034H129.858V77.9712H134.117V77.8755C134.099 77.5474 134.031 77.2284 133.912 76.9185C133.798 76.6086 133.616 76.3534 133.365 76.1528C133.115 75.9523 132.773 75.8521 132.34 75.8521C132.053 75.8521 131.788 75.9136 131.547 76.0366C131.305 76.1551 131.098 76.3328 130.925 76.5698C130.752 76.8068 130.617 77.0962 130.521 77.438C130.426 77.7798 130.378 78.174 130.378 78.6206V78.9077C130.378 79.2586 130.426 79.589 130.521 79.8989C130.622 80.2043 130.765 80.4731 130.952 80.7056C131.144 80.938 131.374 81.1203 131.643 81.2524C131.916 81.3846 132.226 81.4507 132.572 81.4507C133.019 81.4507 133.397 81.3595 133.707 81.1772C134.017 80.995 134.288 80.7511 134.521 80.4458L135.286 81.0542C135.127 81.2957 134.924 81.5259 134.678 81.7446C134.432 81.9634 134.129 82.1411 133.769 82.2778C133.413 82.4146 132.992 82.4829 132.504 82.4829ZM141.069 78.0874V79.1196H137.139V78.0874H141.069ZM138.239 74.9497V82.3462H136.975V74.9497H138.239ZM139.989 78.73V78.5728C139.989 78.0396 140.067 77.5451 140.222 77.0894C140.377 76.6291 140.6 76.2303 140.892 75.8931C141.188 75.5513 141.541 75.2869 141.951 75.1001C142.366 74.9087 142.831 74.813 143.346 74.813C143.87 74.813 144.339 74.9087 144.754 75.1001C145.169 75.2869 145.522 75.5513 145.813 75.8931C146.11 76.2303 146.335 76.6291 146.49 77.0894C146.645 77.5451 146.723 78.0396 146.723 78.5728V78.73C146.723 79.2632 146.645 79.7576 146.49 80.2134C146.335 80.6691 146.112 81.0679 145.82 81.4097C145.529 81.7469 145.175 82.0112 144.761 82.2026C144.346 82.3895 143.879 82.4829 143.359 82.4829C142.84 82.4829 142.373 82.3895 141.958 82.2026C141.543 82.0112 141.188 81.7469 140.892 81.4097C140.6 81.0679 140.377 80.6691 140.222 80.2134C140.067 79.7576 139.989 79.2632 139.989 78.73ZM141.261 78.5728V78.73C141.261 79.0991 141.304 79.4478 141.391 79.7759C141.477 80.0994 141.607 80.3866 141.78 80.6372C141.958 80.8879 142.177 81.0861 142.437 81.2319C142.701 81.3732 143.008 81.4438 143.359 81.4438C143.71 81.4438 144.016 81.3732 144.275 81.2319C144.54 81.0861 144.758 80.8879 144.932 80.6372C145.105 80.3866 145.235 80.0994 145.321 79.7759C145.412 79.4478 145.458 79.0991 145.458 78.73V78.5728C145.458 78.2082 145.412 77.8641 145.321 77.5405C145.235 77.2124 145.103 76.923 144.925 76.6724C144.752 76.4172 144.533 76.2166 144.269 76.0708C144.004 75.925 143.697 75.8521 143.346 75.8521C142.999 75.8521 142.696 75.925 142.437 76.0708C142.177 76.2166 141.958 76.4172 141.78 76.6724C141.607 76.923 141.477 77.2124 141.391 77.5405C141.304 77.8641 141.261 78.2082 141.261 78.5728ZM158.569 81.3071L158.446 84.5405H157.318V82.3462H156.354V81.3071H158.569ZM148.322 74.9497H149.587V81.3071H152.294V74.9497H153.565V81.3071H156.266V74.9497H157.53V82.3462H148.322V74.9497ZM161.96 81.5806L164.018 74.9497H165.371L162.404 83.4878C162.336 83.6701 162.245 83.866 162.131 84.0757C162.021 84.2899 161.88 84.4927 161.707 84.6841C161.534 84.8755 161.324 85.0304 161.078 85.1489C160.837 85.272 160.547 85.3335 160.21 85.3335C160.11 85.3335 159.982 85.3198 159.827 85.2925C159.672 85.2651 159.563 85.2424 159.499 85.2241L159.492 84.1987C159.529 84.2033 159.586 84.2078 159.663 84.2124C159.745 84.2215 159.802 84.2261 159.834 84.2261C160.121 84.2261 160.365 84.1873 160.565 84.1099C160.766 84.0369 160.935 83.9116 161.071 83.7339C161.213 83.5607 161.333 83.3215 161.434 83.0161L161.96 81.5806ZM160.449 74.9497L162.37 80.6919L162.698 82.0249L161.789 82.4897L159.068 74.9497H160.449ZM170.724 78.0874V79.1196H166.793V78.0874H170.724ZM167.894 74.9497V82.3462H166.629V74.9497H167.894ZM169.644 78.73V78.5728C169.644 78.0396 169.721 77.5451 169.876 77.0894C170.031 76.6291 170.254 76.2303 170.546 75.8931C170.842 75.5513 171.195 75.2869 171.605 75.1001C172.02 74.9087 172.485 74.813 173 74.813C173.524 74.813 173.993 74.9087 174.408 75.1001C174.823 75.2869 175.176 75.5513 175.468 75.8931C175.764 76.2303 175.99 76.6291 176.145 77.0894C176.299 77.5451 176.377 78.0396 176.377 78.5728V78.73C176.377 79.2632 176.299 79.7576 176.145 80.2134C175.99 80.6691 175.766 81.0679 175.475 81.4097C175.183 81.7469 174.83 82.0112 174.415 82.2026C174 82.3895 173.533 82.4829 173.014 82.4829C172.494 82.4829 172.027 82.3895 171.612 82.2026C171.198 82.0112 170.842 81.7469 170.546 81.4097C170.254 81.0679 170.031 80.6691 169.876 80.2134C169.721 79.7576 169.644 79.2632 169.644 78.73ZM170.915 78.5728V78.73C170.915 79.0991 170.958 79.4478 171.045 79.7759C171.132 80.0994 171.261 80.3866 171.435 80.6372C171.612 80.8879 171.831 81.0861 172.091 81.2319C172.355 81.3732 172.663 81.4438 173.014 81.4438C173.365 81.4438 173.67 81.3732 173.93 81.2319C174.194 81.0861 174.413 80.8879 174.586 80.6372C174.759 80.3866 174.889 80.0994 174.976 79.7759C175.067 79.4478 175.112 79.0991 175.112 78.73V78.5728C175.112 78.2082 175.067 77.8641 174.976 77.5405C174.889 77.2124 174.757 76.923 174.579 76.6724C174.406 76.4172 174.187 76.2166 173.923 76.0708C173.659 75.925 173.351 75.8521 173 75.8521C172.654 75.8521 172.351 75.925 172.091 76.0708C171.831 76.2166 171.612 76.4172 171.435 76.6724C171.261 76.923 171.132 77.2124 171.045 77.5405C170.958 77.8641 170.915 78.2082 170.915 78.5728ZM180.902 81.4438C181.203 81.4438 181.481 81.3823 181.736 81.2593C181.992 81.1362 182.201 80.9676 182.365 80.7534C182.529 80.5347 182.623 80.2863 182.646 80.0083H183.849C183.826 80.4458 183.678 80.8537 183.404 81.2319C183.135 81.6056 182.782 81.9087 182.345 82.1411C181.907 82.369 181.426 82.4829 180.902 82.4829C180.346 82.4829 179.861 82.3849 179.446 82.189C179.036 81.993 178.694 81.7241 178.421 81.3823C178.152 81.0405 177.949 80.6486 177.812 80.2065C177.68 79.7599 177.614 79.2882 177.614 78.7915V78.5044C177.614 78.0076 177.68 77.5382 177.812 77.0962C177.949 76.6496 178.152 76.2554 178.421 75.9136C178.694 75.5718 179.036 75.3029 179.446 75.1069C179.861 74.911 180.346 74.813 180.902 74.813C181.481 74.813 181.987 74.9315 182.42 75.1685C182.853 75.4009 183.192 75.7199 183.438 76.1255C183.689 76.5265 183.826 76.9823 183.849 77.4927H182.646C182.623 77.1873 182.536 76.9116 182.386 76.6655C182.24 76.4194 182.039 76.2235 181.784 76.0776C181.534 75.9272 181.24 75.8521 180.902 75.8521C180.515 75.8521 180.189 75.9295 179.925 76.0845C179.665 76.2349 179.458 76.4399 179.303 76.6997C179.152 76.9549 179.043 77.2397 178.975 77.5542C178.911 77.8641 178.879 78.1808 178.879 78.5044V78.7915C178.879 79.1151 178.911 79.4341 178.975 79.7485C179.038 80.063 179.146 80.3478 179.296 80.603C179.451 80.8582 179.658 81.0633 179.918 81.2183C180.182 81.3687 180.51 81.4438 180.902 81.4438ZM186.768 78.8188H188.135L185.995 82.3462H184.628L186.768 78.8188ZM187.827 74.9497H190.917V82.3462H189.652V75.9751H187.827C187.467 75.9751 187.173 76.0366 186.945 76.1597C186.717 76.2782 186.551 76.4331 186.446 76.6245C186.341 76.8159 186.289 77.0142 186.289 77.2192C186.289 77.4198 186.337 77.6134 186.433 77.8003C186.528 77.9826 186.679 78.133 186.884 78.2515C187.089 78.37 187.353 78.4292 187.677 78.4292H189.994V79.4683H187.677C187.253 79.4683 186.877 79.4113 186.549 79.2974C186.221 79.1834 185.943 79.0262 185.715 78.8257C185.487 78.6206 185.314 78.3813 185.195 78.1079C185.077 77.8299 185.018 77.5291 185.018 77.2056C185.018 76.882 185.079 76.5835 185.202 76.3101C185.33 76.0366 185.512 75.7974 185.749 75.5923C185.991 75.3872 186.285 75.23 186.631 75.1206C186.982 75.0067 187.381 74.9497 187.827 74.9497Z" fill="black"/>
<path d="M85 42.3462L59 42.3462" stroke="#00A3FF" stroke-miterlimit="10" stroke-linecap="round"/>
<path d="M80 40.4761C79.9954 41.9604 80.4313 43.4128 81.2526 44.6492C82.0739 45.8857 83.2436 46.8506 84.6136 47.4219C85.9837 47.9931 87.4924 48.145 88.9488 47.8582C90.4052 47.5715 91.7437 46.8591 92.795 45.8111C93.8462 44.7632 94.5629 43.4268 94.8542 41.9713C95.1455 40.5158 94.9983 39.0066 94.4313 37.6348C93.8644 36.263 92.9031 35.0903 91.6692 34.2651C90.4354 33.44 88.9844 32.9995 87.5 32.9995C85.515 32.9995 83.6108 33.7865 82.205 35.1879C80.7991 36.5894 80.0062 38.491 80 40.4761Z" fill="#00A3FF"/>
<path d="M87.4766 43.4058C85.8586 43.4058 84.5469 42.0941 84.5469 40.4761C84.5469 38.8581 85.8586 37.5464 87.4766 37.5464C89.0946 37.5464 90.4062 38.8581 90.4062 40.4761C90.4062 42.0941 89.0946 43.4058 87.4766 43.4058Z" fill="white"/>
<defs>
<filter id="filter0_d_830_2159" x="262.322" y="0.668945" width="83.3555" height="83.3553" filterUnits="userSpaceOnUse" color-interpolation-filters="sRGB">
<feFlood flood-opacity="0" result="BackgroundImageFix"/>
<feColorMatrix in="SourceAlpha" type="matrix" values="0 0 0 0 0 0 0 0 0 0 0 0 0 0 0 0 0 0 127 0" result="hardAlpha"/>
<feOffset/>
<feGaussianBlur stdDeviation="12"/>
<feComposite in2="hardAlpha" operator="out"/>
<feColorMatrix type="matrix" values="0 0 0 0 0.579167 0 0 0 0 0.579167 0 0 0 0 0.579167 0 0 0 0.3 0"/>
<feBlend mode="normal" in2="BackgroundImageFix" result="effect1_dropShadow_830_2159"/>
<feBlend mode="normal" in="SourceGraphic" in2="effect1_dropShadow_830_2159" result="shape"/>
</filter>
</defs>
</svg>
