<svg width="671" height="125" viewBox="0 0 671 125" fill="none" xmlns="http://www.w3.org/2000/svg">
<path d="M495 65L613 65" stroke="#00A3FF" stroke-miterlimit="10" stroke-linecap="round"/>
<g filter="url(#filter0_d_802_695)">
<path d="M637.721 85.7315C649.083 74.3745 649.083 55.961 637.721 44.6039C626.358 33.2468 607.936 33.2468 596.574 44.6039C585.211 55.961 585.211 74.3745 596.574 85.7315C607.936 97.0886 626.358 97.0886 637.721 85.7315Z" fill="white"/>
</g>
<path d="M626.241 65.1647C626.246 66.8873 625.741 68.573 624.789 70.009C623.837 71.445 622.481 72.5671 620.892 73.2338C619.302 73.9004 617.551 74.0817 615.859 73.7549C614.167 73.428 612.61 72.6076 611.383 71.3971C610.157 70.1866 609.317 68.6402 608.969 66.9531C608.621 65.2659 608.78 63.5135 609.427 61.9169C610.075 60.3202 611.18 58.9509 612.605 57.9816C614.03 57.0122 615.71 56.4863 617.433 56.4702C618.585 56.4557 619.727 56.67 620.795 57.1004C621.863 57.5309 622.835 58.1691 623.655 58.9779C624.474 59.7867 625.124 60.75 625.568 61.8121C626.012 62.8741 626.241 64.0137 626.241 65.1647Z" fill="#00A3FF"/>
<path d="M617.542 68.5714C619.425 68.5714 620.951 67.0461 620.951 65.1645C620.951 63.2829 619.425 61.7576 617.542 61.7576C615.66 61.7576 614.134 63.2829 614.134 65.1645C614.134 67.0461 615.66 68.5714 617.542 68.5714Z" fill="white"/>
<path d="M497.452 65.1645C497.457 66.8906 496.95 68.5796 495.994 70.0174C495.039 71.4553 493.678 72.5774 492.084 73.2417C490.49 73.906 488.735 74.0827 487.04 73.7492C485.346 73.4158 483.789 72.5873 482.565 71.3686C481.342 70.1499 480.509 68.5959 480.17 66.9033C479.831 65.2107 480.002 63.4557 480.662 61.8604C481.321 60.2651 482.44 58.9013 483.875 57.9418C485.311 56.9822 486.999 56.47 488.726 56.47C491.035 56.47 493.251 57.3851 494.886 59.0149C496.522 60.6446 497.445 62.856 497.452 65.1645Z" fill="#00A3FF"/>
<path d="M488.753 68.5714C490.636 68.5714 492.162 67.0461 492.162 65.1645C492.162 63.2829 490.636 61.7576 488.753 61.7576C486.871 61.7576 485.345 63.2829 485.345 65.1645C485.345 67.0461 486.871 68.5714 488.753 68.5714Z" fill="white"/>
<path d="M93.3041 93.2599C110.481 76.0913 110.481 48.2554 93.304 31.0867C76.1272 13.9181 48.2782 13.918 31.1014 31.0867C13.9246 48.2553 13.9245 76.0913 31.1014 93.26C48.2782 110.429 76.1273 110.429 93.3041 93.2599Z" fill="#00A3FF"/>
<path d="M66.4062 61.3687C66.5365 61.4207 66.7122 61.4989 66.9336 61.603C67.168 61.6942 67.5716 61.9285 68.1445 62.3062C68.7174 62.6707 69.2188 63.0939 69.6484 63.5757C70.0911 64.0575 70.4948 64.728 70.8594 65.5874C71.224 66.4338 71.4062 67.3647 71.4062 68.3804C71.4062 70.672 70.4492 72.6447 68.5352 74.2983C66.6341 75.952 64.1211 76.7788 60.9961 76.7788C59.668 76.7788 58.3854 76.6226 57.1484 76.3101C55.9245 76.0106 54.9219 75.646 54.1406 75.2163C53.3594 74.7866 52.6693 74.3634 52.0703 73.9468C51.4844 73.5171 51.0612 73.1395 50.8008 72.814L50.3906 72.3647L54.0039 68.5757C54.056 68.6538 54.1406 68.7645 54.2578 68.9077C54.375 69.0379 54.6419 69.2788 55.0586 69.6304C55.4753 69.9689 55.9115 70.2749 56.3672 70.5483C56.8359 70.8088 57.4284 71.0431 58.1445 71.2515C58.8737 71.4598 59.6224 71.564 60.3906 71.564C61.9401 71.564 63.125 71.2254 63.9453 70.5483C64.7786 69.8713 65.1953 69.0119 65.1953 67.9702C65.1953 66.9285 64.7852 66.0692 63.9648 65.3921C63.1576 64.715 62.0378 64.3765 60.6055 64.3765H57.5977V59.3765H60.3906C61.5625 59.3765 62.487 59.064 63.1641 58.439C63.8542 57.814 64.1992 56.9937 64.1992 55.978C64.1992 55.0405 63.8607 54.2723 63.1836 53.6733C62.5065 53.0744 61.5755 52.7749 60.3906 52.7749C59.375 52.7749 58.418 52.9963 57.5195 53.439C56.6341 53.8817 55.9961 54.3114 55.6055 54.728L55 55.3726L51.4062 51.7788C51.4844 51.6746 51.6016 51.5314 51.7578 51.3491C51.9141 51.1538 52.2852 50.8088 52.8711 50.314C53.4701 49.8192 54.1081 49.396 54.7852 49.0444C55.4622 48.6799 56.3607 48.3478 57.4805 48.0483C58.6003 47.7358 59.7721 47.5796 60.9961 47.5796C63.8216 47.5796 66.0938 48.3283 67.8125 49.8257C69.5312 51.3101 70.3906 53.159 70.3906 55.3726C70.3906 56.1929 70.2474 56.9611 69.9609 57.6772C69.6875 58.3804 69.3555 58.9533 68.9648 59.396C68.5872 59.8387 68.2031 60.2163 67.8125 60.5288C67.4349 60.8283 67.0964 61.0431 66.7969 61.1733L66.4062 61.3687Z" fill="white"/>
<path d="M143.711 56.3472H140.648L140.631 55.0605H143.412C143.871 55.0605 144.273 54.9831 144.616 54.8281C144.959 54.6732 145.224 54.4518 145.413 54.1641C145.606 53.8708 145.703 53.5221 145.703 53.1182C145.703 52.6755 145.617 52.3158 145.446 52.0391C145.28 51.7568 145.022 51.5521 144.674 51.4248C144.331 51.292 143.894 51.2256 143.362 51.2256H141.005V62H139.403V49.9141H143.362C143.982 49.9141 144.535 49.9777 145.022 50.105C145.509 50.2267 145.922 50.4204 146.259 50.686C146.602 50.9461 146.862 51.2782 147.04 51.6821C147.217 52.0861 147.305 52.5703 147.305 53.1348C147.305 53.6328 147.178 54.0838 146.923 54.4878C146.669 54.8862 146.315 55.2127 145.861 55.4673C145.413 55.7218 144.887 55.8851 144.284 55.957L143.711 56.3472ZM143.636 62H140.017L140.922 60.6968H143.636C144.145 60.6968 144.577 60.6082 144.931 60.4312C145.291 60.2541 145.565 60.005 145.753 59.6841C145.941 59.3576 146.035 58.973 146.035 58.5303C146.035 58.082 145.955 57.6947 145.794 57.3682C145.634 57.0417 145.382 56.7899 145.039 56.6128C144.696 56.4357 144.253 56.3472 143.711 56.3472H141.428L141.445 55.0605H144.566L144.906 55.5254C145.487 55.5752 145.98 55.7412 146.384 56.0234C146.788 56.3001 147.095 56.6543 147.305 57.0859C147.521 57.5176 147.629 57.9935 147.629 58.5137C147.629 59.2663 147.463 59.9027 147.131 60.4229C146.804 60.9375 146.342 61.3304 145.745 61.6016C145.147 61.8672 144.444 62 143.636 62ZM151.024 56.1064H153.722C154.447 56.1064 155.058 56.2337 155.556 56.4883C156.054 56.7373 156.431 57.0832 156.685 57.5259C156.945 57.9631 157.075 58.4611 157.075 59.02C157.075 59.4351 157.003 59.8252 156.859 60.1904C156.715 60.5501 156.5 60.8656 156.212 61.1367C155.93 61.4079 155.578 61.6209 155.158 61.7759C154.743 61.9253 154.264 62 153.722 62H149.903V53.0186H151.439V60.7383H153.722C154.164 60.7383 154.519 60.658 154.784 60.4976C155.05 60.3371 155.241 60.1296 155.357 59.875C155.473 59.6204 155.531 59.3548 155.531 59.0781C155.531 58.807 155.473 58.5413 155.357 58.2812C155.241 58.0212 155.05 57.8053 154.784 57.6338C154.519 57.4567 154.164 57.3682 153.722 57.3682H151.024V56.1064ZM160.271 53.0186V62H158.735V53.0186H160.271ZM168.721 49.1089H169.983C169.983 49.6512 169.9 50.0828 169.734 50.4038C169.568 50.7192 169.341 50.9627 169.053 51.1343C168.771 51.3058 168.45 51.4359 168.09 51.5244C167.736 51.613 167.368 51.6987 166.986 51.7817C166.51 51.8813 166.068 52.0391 165.658 52.2549C165.254 52.4652 164.906 52.764 164.612 53.1514C164.325 53.5387 164.111 54.0423 163.973 54.6621C163.84 55.2819 163.804 56.0483 163.865 56.9614V57.7251H162.604V56.9614C162.604 55.9377 162.7 55.0439 162.894 54.2803C163.093 53.5166 163.373 52.8719 163.732 52.3462C164.092 51.8205 164.518 51.4027 165.011 51.0928C165.509 50.7829 166.057 50.5698 166.654 50.4536C167.086 50.3706 167.457 50.2821 167.767 50.188C168.076 50.0884 168.312 49.9556 168.472 49.7896C168.638 49.6235 168.721 49.3966 168.721 49.1089ZM166.903 53.5332C167.49 53.5332 168.013 53.6356 168.472 53.8403C168.931 54.0451 169.322 54.3301 169.643 54.6953C169.964 55.0605 170.207 55.4922 170.373 55.9902C170.545 56.4827 170.63 57.0195 170.63 57.6006V57.7832C170.63 58.4085 170.539 58.9896 170.356 59.5264C170.179 60.0576 169.917 60.5225 169.568 60.9209C169.225 61.3138 168.804 61.6209 168.306 61.8423C167.814 62.0636 167.252 62.1743 166.621 62.1743C165.99 62.1743 165.426 62.0636 164.928 61.8423C164.435 61.6209 164.015 61.3138 163.666 60.9209C163.317 60.5225 163.052 60.0576 162.869 59.5264C162.692 58.9896 162.604 58.4085 162.604 57.7832V57.6006C162.604 57.4622 162.628 57.3267 162.678 57.1938C162.728 57.061 162.789 56.9255 162.861 56.7871C162.938 56.6488 163.007 56.5021 163.068 56.3472C163.273 55.8491 163.553 55.387 163.907 54.9609C164.266 54.5348 164.695 54.1917 165.193 53.9316C165.697 53.666 166.267 53.5332 166.903 53.5332ZM166.604 54.7866C166.04 54.7866 165.575 54.9167 165.21 55.1768C164.85 55.4368 164.582 55.7827 164.405 56.2144C164.228 56.6405 164.139 57.1025 164.139 57.6006V57.7832C164.139 58.2038 164.189 58.6022 164.289 58.9785C164.388 59.3548 164.538 59.6896 164.737 59.9829C164.942 60.2707 165.199 60.4976 165.509 60.6636C165.824 60.8296 166.195 60.9126 166.621 60.9126C167.047 60.9126 167.415 60.8296 167.725 60.6636C168.035 60.4976 168.29 60.2707 168.489 59.9829C168.688 59.6896 168.837 59.3548 168.937 58.9785C169.037 58.6022 169.086 58.2038 169.086 57.7832V57.6006C169.086 57.2243 169.037 56.8674 168.937 56.5298C168.837 56.1922 168.685 55.8934 168.48 55.6333C168.281 55.3732 168.024 55.1685 167.708 55.019C167.399 54.8641 167.031 54.7866 166.604 54.7866ZM171.967 57.6089V57.418C171.967 56.7705 172.061 56.1701 172.249 55.6167C172.437 55.0578 172.708 54.5736 173.062 54.1641C173.417 53.749 173.846 53.4281 174.349 53.2012C174.853 52.9688 175.417 52.8525 176.042 52.8525C176.673 52.8525 177.241 52.9688 177.744 53.2012C178.253 53.4281 178.685 53.749 179.039 54.1641C179.399 54.5736 179.673 55.0578 179.861 55.6167C180.049 56.1701 180.143 56.7705 180.143 57.418V57.6089C180.143 58.2563 180.049 58.8568 179.861 59.4102C179.673 59.9635 179.399 60.4478 179.039 60.8628C178.685 61.2723 178.256 61.5933 177.752 61.8257C177.254 62.0526 176.69 62.166 176.059 62.166C175.428 62.166 174.861 62.0526 174.357 61.8257C173.854 61.5933 173.422 61.2723 173.062 60.8628C172.708 60.4478 172.437 59.9635 172.249 59.4102C172.061 58.8568 171.967 58.2563 171.967 57.6089ZM173.502 57.418V57.6089C173.502 58.0571 173.555 58.4805 173.66 58.8789C173.765 59.2718 173.923 59.6204 174.133 59.9248C174.349 60.2292 174.618 60.4699 174.938 60.647C175.259 60.8185 175.633 60.9043 176.059 60.9043C176.48 60.9043 176.848 60.8185 177.163 60.647C177.484 60.4699 177.75 60.2292 177.96 59.9248C178.17 59.6204 178.328 59.2718 178.433 58.8789C178.544 58.4805 178.599 58.0571 178.599 57.6089V57.418C178.599 56.9753 178.544 56.5575 178.433 56.1646C178.328 55.7661 178.167 55.4147 177.952 55.1104C177.741 54.8005 177.476 54.557 177.155 54.3799C176.839 54.2028 176.469 54.1143 176.042 54.1143C175.622 54.1143 175.251 54.2028 174.93 54.3799C174.615 54.557 174.349 54.8005 174.133 55.1104C173.923 55.4147 173.765 55.7661 173.66 56.1646C173.555 56.5575 173.502 56.9753 173.502 57.418ZM183.604 54.7451V65.4531H182.061V53.0186H183.472L183.604 54.7451ZM189.656 57.4346V57.6089C189.656 58.2619 189.578 58.8678 189.423 59.4268C189.268 59.9801 189.042 60.4616 188.743 60.8711C188.449 61.2806 188.087 61.5988 187.655 61.8257C187.224 62.0526 186.728 62.166 186.169 62.166C185.599 62.166 185.096 62.0719 184.659 61.8838C184.222 61.6956 183.851 61.4217 183.546 61.062C183.242 60.7023 182.999 60.2707 182.816 59.7671C182.639 59.2635 182.517 58.6963 182.451 58.0654V57.1357C182.517 56.4717 182.642 55.8768 182.824 55.3511C183.007 54.8254 183.248 54.3771 183.546 54.0063C183.851 53.63 184.219 53.3451 184.65 53.1514C185.082 52.9521 185.58 52.8525 186.145 52.8525C186.709 52.8525 187.21 52.9632 187.647 53.1846C188.084 53.4004 188.452 53.7103 188.751 54.1143C189.05 54.5182 189.274 55.0024 189.423 55.5669C189.578 56.1258 189.656 56.7484 189.656 57.4346ZM188.112 57.6089V57.4346C188.112 56.9863 188.065 56.5658 187.971 56.1729C187.877 55.7744 187.73 55.4258 187.531 55.127C187.337 54.8226 187.088 54.5846 186.784 54.4131C186.479 54.236 186.117 54.1475 185.696 54.1475C185.309 54.1475 184.971 54.2139 184.684 54.3467C184.401 54.4795 184.161 54.6593 183.961 54.8862C183.762 55.1076 183.599 55.3621 183.472 55.6499C183.35 55.9321 183.259 56.2254 183.198 56.5298V58.6797C183.308 59.0671 183.463 59.4323 183.663 59.7754C183.862 60.113 184.127 60.3869 184.459 60.5972C184.792 60.8019 185.209 60.9043 185.713 60.9043C186.128 60.9043 186.485 60.8185 186.784 60.647C187.088 60.4699 187.337 60.2292 187.531 59.9248C187.73 59.6204 187.877 59.2718 187.971 58.8789C188.065 58.4805 188.112 58.0571 188.112 57.6089ZM201.924 56.9116V58.1567H197.176V56.9116H201.924ZM197.5 53.0186V62H195.964V53.0186H197.5ZM203.169 53.0186V62H201.625V53.0186H203.169ZM207.303 59.5679L211.445 53.0186H212.989V62H211.445V55.4507L207.303 62H205.776V53.0186H207.303V59.5679ZM215.587 53.0186H217.123V60.7383H220.41V53.0186H221.954V60.7383H225.233V53.0186H226.769V62H215.587V53.0186ZM230.877 59.5679L235.02 53.0186H236.563V62H235.02V55.4507L230.877 62H229.35V53.0186H230.877V59.5679ZM240.423 60.1738V61.4106C240.423 61.9142 240.296 62.4455 240.042 63.0044C239.787 63.5688 239.43 64.0392 238.971 64.4155L238.099 63.8096C238.276 63.5661 238.426 63.3171 238.547 63.0625C238.669 62.8135 238.76 62.5534 238.821 62.2822C238.888 62.0166 238.921 61.7344 238.921 61.4355V60.1738H240.423ZM252.584 53.0186V54.2886H248.043V53.0186H252.584ZM248.268 53.0186V62H246.732V53.0186H248.268ZM253.945 53.0186V62H252.401V53.0186H253.945ZM256.004 57.6089V57.418C256.004 56.7705 256.098 56.1701 256.286 55.6167C256.474 55.0578 256.745 54.5736 257.1 54.1641C257.454 53.749 257.883 53.4281 258.386 53.2012C258.89 52.9688 259.454 52.8525 260.08 52.8525C260.71 52.8525 261.278 52.9688 261.781 53.2012C262.29 53.4281 262.722 53.749 263.076 54.1641C263.436 54.5736 263.71 55.0578 263.898 55.6167C264.086 56.1701 264.18 56.7705 264.18 57.418V57.6089C264.18 58.2563 264.086 58.8568 263.898 59.4102C263.71 59.9635 263.436 60.4478 263.076 60.8628C262.722 61.2723 262.293 61.5933 261.79 61.8257C261.292 62.0526 260.727 62.166 260.096 62.166C259.465 62.166 258.898 62.0526 258.395 61.8257C257.891 61.5933 257.459 61.2723 257.1 60.8628C256.745 60.4478 256.474 59.9635 256.286 59.4102C256.098 58.8568 256.004 58.2563 256.004 57.6089ZM257.54 57.418V57.6089C257.54 58.0571 257.592 58.4805 257.697 58.8789C257.802 59.2718 257.96 59.6204 258.17 59.9248C258.386 60.2292 258.655 60.4699 258.976 60.647C259.297 60.8185 259.67 60.9043 260.096 60.9043C260.517 60.9043 260.885 60.8185 261.2 60.647C261.521 60.4699 261.787 60.2292 261.997 59.9248C262.207 59.6204 262.365 59.2718 262.47 58.8789C262.581 58.4805 262.636 58.0571 262.636 57.6089V57.418C262.636 56.9753 262.581 56.5575 262.47 56.1646C262.365 55.7661 262.205 55.4147 261.989 55.1104C261.778 54.8005 261.513 54.557 261.192 54.3799C260.876 54.2028 260.506 54.1143 260.08 54.1143C259.659 54.1143 259.288 54.2028 258.967 54.3799C258.652 54.557 258.386 54.8005 258.17 55.1104C257.96 55.4147 257.802 55.7661 257.697 56.1646C257.592 56.5575 257.54 56.9753 257.54 57.418ZM269.7 60.9043C270.065 60.9043 270.403 60.8296 270.713 60.6802C271.023 60.5308 271.277 60.326 271.477 60.0659C271.676 59.8003 271.789 59.4987 271.817 59.1611H273.278C273.25 59.6924 273.07 60.1877 272.738 60.647C272.412 61.1007 271.983 61.4688 271.452 61.751C270.92 62.0277 270.337 62.166 269.7 62.166C269.025 62.166 268.436 62.047 267.932 61.8091C267.434 61.5711 267.019 61.2446 266.687 60.8296C266.361 60.4146 266.114 59.9386 265.948 59.4019C265.788 58.8595 265.708 58.2868 265.708 57.6836V57.335C265.708 56.7318 265.788 56.1618 265.948 55.625C266.114 55.0827 266.361 54.604 266.687 54.189C267.019 53.7739 267.434 53.4474 267.932 53.2095C268.436 52.9715 269.025 52.8525 269.7 52.8525C270.403 52.8525 271.017 52.9964 271.543 53.2842C272.069 53.5664 272.481 53.9538 272.78 54.4463C273.084 54.9333 273.25 55.4867 273.278 56.1064H271.817C271.789 55.7357 271.684 55.4009 271.501 55.1021C271.324 54.8032 271.081 54.5653 270.771 54.3882C270.467 54.2056 270.11 54.1143 269.7 54.1143C269.23 54.1143 268.834 54.2083 268.513 54.3965C268.198 54.5791 267.946 54.8281 267.758 55.1436C267.575 55.4535 267.442 55.7993 267.359 56.1812C267.282 56.5575 267.243 56.9421 267.243 57.335V57.6836C267.243 58.0765 267.282 58.4639 267.359 58.8457C267.437 59.2275 267.567 59.5734 267.75 59.8833C267.938 60.1932 268.189 60.4422 268.505 60.6304C268.826 60.813 269.224 60.9043 269.7 60.9043ZM276.54 54.7451V65.4531H274.996V53.0186H276.407L276.54 54.7451ZM282.591 57.4346V57.6089C282.591 58.2619 282.514 58.8678 282.359 59.4268C282.204 59.9801 281.977 60.4616 281.678 60.8711C281.385 61.2806 281.022 61.5988 280.591 61.8257C280.159 62.0526 279.664 62.166 279.105 62.166C278.535 62.166 278.031 62.0719 277.594 61.8838C277.157 61.6956 276.786 61.4217 276.482 61.062C276.178 60.7023 275.934 60.2707 275.751 59.7671C275.574 59.2635 275.453 58.6963 275.386 58.0654V57.1357C275.453 56.4717 275.577 55.8768 275.76 55.3511C275.942 54.8254 276.183 54.3771 276.482 54.0063C276.786 53.63 277.154 53.3451 277.586 53.1514C278.018 52.9521 278.516 52.8525 279.08 52.8525C279.645 52.8525 280.145 52.9632 280.583 53.1846C281.02 53.4004 281.388 53.7103 281.687 54.1143C281.985 54.5182 282.209 55.0024 282.359 55.5669C282.514 56.1258 282.591 56.7484 282.591 57.4346ZM281.047 57.6089V57.4346C281.047 56.9863 281 56.5658 280.906 56.1729C280.812 55.7744 280.666 55.4258 280.466 55.127C280.273 54.8226 280.024 54.5846 279.719 54.4131C279.415 54.236 279.052 54.1475 278.632 54.1475C278.244 54.1475 277.907 54.2139 277.619 54.3467C277.337 54.4795 277.096 54.6593 276.897 54.8862C276.698 55.1076 276.535 55.3621 276.407 55.6499C276.285 55.9321 276.194 56.2254 276.133 56.5298V58.6797C276.244 59.0671 276.399 59.4323 276.598 59.7754C276.797 60.113 277.063 60.3869 277.395 60.5972C277.727 60.8019 278.145 60.9043 278.648 60.9043C279.063 60.9043 279.42 60.8185 279.719 60.647C280.024 60.4699 280.273 60.2292 280.466 59.9248C280.666 59.6204 280.812 59.2718 280.906 58.8789C281 58.4805 281.047 58.0571 281.047 57.6089ZM288.277 62.166C287.652 62.166 287.085 62.0609 286.576 61.8506C286.072 61.6348 285.638 61.3332 285.272 60.9458C284.913 60.5584 284.636 60.0991 284.442 59.5679C284.249 59.0366 284.152 58.4556 284.152 57.8247V57.4761C284.152 56.7456 284.26 56.0954 284.476 55.5254C284.691 54.9499 284.985 54.4629 285.355 54.0645C285.726 53.666 286.147 53.3644 286.617 53.1597C287.088 52.9549 287.575 52.8525 288.078 52.8525C288.72 52.8525 289.273 52.9632 289.738 53.1846C290.209 53.4059 290.593 53.7158 290.892 54.1143C291.191 54.5072 291.412 54.972 291.556 55.5088C291.7 56.04 291.772 56.6211 291.772 57.252V57.9409H285.065V56.6875H290.236V56.5713C290.214 56.1729 290.131 55.7855 289.987 55.4092C289.849 55.0329 289.628 54.723 289.323 54.4795C289.019 54.236 288.604 54.1143 288.078 54.1143C287.729 54.1143 287.409 54.189 287.115 54.3384C286.822 54.4823 286.57 54.6981 286.36 54.9858C286.15 55.2736 285.986 55.625 285.87 56.04C285.754 56.4551 285.696 56.9338 285.696 57.4761V57.8247C285.696 58.2508 285.754 58.652 285.87 59.0283C285.992 59.3991 286.166 59.7256 286.393 60.0078C286.625 60.29 286.905 60.5114 287.231 60.6719C287.563 60.8324 287.94 60.9126 288.36 60.9126C288.903 60.9126 289.362 60.8019 289.738 60.5806C290.115 60.3592 290.444 60.0632 290.726 59.6924L291.656 60.4312C291.462 60.7244 291.216 61.0039 290.917 61.2695C290.618 61.5352 290.25 61.751 289.813 61.917C289.381 62.083 288.869 62.166 288.277 62.166ZM295.184 53.0186H296.719L296.586 56.3804C296.553 57.2326 296.456 57.9686 296.296 58.5884C296.135 59.2082 295.931 59.7367 295.682 60.1738C295.433 60.6055 295.153 60.9679 294.843 61.2612C294.539 61.5545 294.223 61.8008 293.897 62H293.133L293.175 60.7466L293.49 60.7383C293.673 60.5225 293.85 60.3011 294.021 60.0742C294.193 59.8418 294.351 59.5679 294.495 59.2524C294.639 58.9315 294.757 58.5413 294.852 58.082C294.951 57.6172 295.015 57.05 295.042 56.3804L295.184 53.0186ZM295.565 53.0186H300.969V62H299.434V54.438H295.565V53.0186ZM292.785 60.7383H302.123V64.6479H300.587V62H294.32V64.6479H292.776L292.785 60.7383ZM307.419 60.9043C307.784 60.9043 308.122 60.8296 308.432 60.6802C308.742 60.5308 308.996 60.326 309.195 60.0659C309.395 59.8003 309.508 59.4987 309.536 59.1611H310.997C310.969 59.6924 310.789 60.1877 310.457 60.647C310.131 61.1007 309.702 61.4688 309.17 61.751C308.639 62.0277 308.055 62.166 307.419 62.166C306.744 62.166 306.154 62.047 305.651 61.8091C305.153 61.5711 304.738 61.2446 304.406 60.8296C304.079 60.4146 303.833 59.9386 303.667 59.4019C303.507 58.8595 303.426 58.2868 303.426 57.6836V57.335C303.426 56.7318 303.507 56.1618 303.667 55.625C303.833 55.0827 304.079 54.604 304.406 54.189C304.738 53.7739 305.153 53.4474 305.651 53.2095C306.154 52.9715 306.744 52.8525 307.419 52.8525C308.122 52.8525 308.736 52.9964 309.262 53.2842C309.787 53.5664 310.2 53.9538 310.499 54.4463C310.803 54.9333 310.969 55.4867 310.997 56.1064H309.536C309.508 55.7357 309.403 55.4009 309.22 55.1021C309.043 54.8032 308.8 54.5653 308.49 54.3882C308.185 54.2056 307.828 54.1143 307.419 54.1143C306.949 54.1143 306.553 54.2083 306.232 54.3965C305.917 54.5791 305.665 54.8281 305.477 55.1436C305.294 55.4535 305.161 55.7993 305.078 56.1812C305.001 56.5575 304.962 56.9421 304.962 57.335V57.6836C304.962 58.0765 305.001 58.4639 305.078 58.8457C305.156 59.2275 305.286 59.5734 305.468 59.8833C305.656 60.1932 305.908 60.4422 306.224 60.6304C306.545 60.813 306.943 60.9043 307.419 60.9043ZM316.384 53.0186V62H314.84V53.0186H316.384ZM319.397 53.0186V54.2637H311.885V53.0186H319.397ZM325.125 58.0488H322.178L322.161 56.8203H324.568C325.044 56.8203 325.44 56.7733 325.755 56.6792C326.076 56.5851 326.317 56.444 326.478 56.2559C326.638 56.0677 326.718 55.8353 326.718 55.5586C326.718 55.3428 326.671 55.1546 326.577 54.9941C326.489 54.8281 326.353 54.6925 326.17 54.5874C325.988 54.4767 325.761 54.3965 325.49 54.3467C325.224 54.2913 324.911 54.2637 324.552 54.2637H322.584V62H321.049V53.0186H324.552C325.122 53.0186 325.634 53.0684 326.087 53.168C326.547 53.2676 326.937 53.4198 327.258 53.6245C327.584 53.8237 327.833 54.0783 328.005 54.3882C328.176 54.6981 328.262 55.0633 328.262 55.4839C328.262 55.755 328.207 56.0124 328.096 56.2559C327.986 56.4993 327.822 56.7152 327.606 56.9033C327.391 57.0915 327.125 57.2464 326.81 57.3682C326.494 57.4844 326.132 57.5591 325.722 57.5923L325.125 58.0488ZM325.125 62H321.622L322.385 60.7549H325.125C325.551 60.7549 325.905 60.7023 326.187 60.5972C326.469 60.4865 326.68 60.3315 326.818 60.1323C326.962 59.9276 327.034 59.6841 327.034 59.4019C327.034 59.1196 326.962 58.8789 326.818 58.6797C326.68 58.4749 326.469 58.32 326.187 58.2148C325.905 58.1042 325.551 58.0488 325.125 58.0488H322.792L322.809 56.8203H325.722L326.278 57.2852C326.771 57.3239 327.189 57.4456 327.532 57.6504C327.875 57.8551 328.135 58.1152 328.312 58.4307C328.489 58.7406 328.578 59.0781 328.578 59.4434C328.578 59.8639 328.497 60.2347 328.337 60.5557C328.182 60.8766 327.955 61.145 327.656 61.3608C327.357 61.5711 326.995 61.7316 326.569 61.8423C326.143 61.9474 325.661 62 325.125 62ZM330.229 57.6089V57.418C330.229 56.7705 330.324 56.1701 330.512 55.6167C330.7 55.0578 330.971 54.5736 331.325 54.1641C331.679 53.749 332.108 53.4281 332.612 53.2012C333.115 52.9688 333.68 52.8525 334.305 52.8525C334.936 52.8525 335.503 52.9688 336.007 53.2012C336.516 53.4281 336.948 53.749 337.302 54.1641C337.661 54.5736 337.935 55.0578 338.124 55.6167C338.312 56.1701 338.406 56.7705 338.406 57.418V57.6089C338.406 58.2563 338.312 58.8568 338.124 59.4102C337.935 59.9635 337.661 60.4478 337.302 60.8628C336.948 61.2723 336.519 61.5933 336.015 61.8257C335.517 62.0526 334.953 62.166 334.322 62.166C333.691 62.166 333.124 62.0526 332.62 61.8257C332.117 61.5933 331.685 61.2723 331.325 60.8628C330.971 60.4478 330.7 59.9635 330.512 59.4102C330.324 58.8568 330.229 58.2563 330.229 57.6089ZM331.765 57.418V57.6089C331.765 58.0571 331.818 58.4805 331.923 58.8789C332.028 59.2718 332.186 59.6204 332.396 59.9248C332.612 60.2292 332.88 60.4699 333.201 60.647C333.522 60.8185 333.896 60.9043 334.322 60.9043C334.742 60.9043 335.11 60.8185 335.426 60.647C335.747 60.4699 336.012 60.2292 336.223 59.9248C336.433 59.6204 336.591 59.2718 336.696 58.8789C336.806 58.4805 336.862 58.0571 336.862 57.6089V57.418C336.862 56.9753 336.806 56.5575 336.696 56.1646C336.591 55.7661 336.43 55.4147 336.214 55.1104C336.004 54.8005 335.738 54.557 335.417 54.3799C335.102 54.2028 334.731 54.1143 334.305 54.1143C333.885 54.1143 333.514 54.2028 333.193 54.3799C332.877 54.557 332.612 54.8005 332.396 55.1104C332.186 55.4147 332.028 55.7661 331.923 56.1646C331.818 56.5575 331.765 56.9753 331.765 57.418ZM345.495 59.958L348.549 53.0186H350.027L346.026 62H344.963L340.979 53.0186H342.457L345.495 59.958ZM342.008 53.0186V62H340.473V53.0186H342.008ZM348.931 62V53.0186H350.475V62H348.931ZM362.968 53.0186V54.2886H358.817V62H357.282V53.0186H362.968ZM369.974 53.0186V54.2886H365.632V53.0186H369.974ZM371.327 53.0186V62H369.791V53.0186H371.327ZM365.259 53.0186H366.803L366.57 57.3516C366.532 58.0212 366.468 58.6133 366.379 59.1279C366.296 59.637 366.18 60.0742 366.031 60.4395C365.887 60.8047 365.704 61.1035 365.483 61.3359C365.267 61.5628 365.007 61.7316 364.703 61.8423C364.398 61.9474 364.047 62 363.648 62H363.167V60.647L363.499 60.6221C363.737 60.6055 363.939 60.5501 364.105 60.4561C364.277 60.362 364.42 60.2236 364.537 60.041C364.653 59.8529 364.747 59.6121 364.819 59.3188C364.896 59.0256 364.954 58.6769 364.993 58.2729C365.037 57.869 365.071 57.3986 365.093 56.8618L365.259 53.0186ZM376.324 61.0703L378.822 53.0186H380.466L376.863 63.3862C376.78 63.6076 376.67 63.8455 376.531 64.1001C376.398 64.3602 376.227 64.6064 376.017 64.8389C375.806 65.0713 375.552 65.2594 375.253 65.4033C374.96 65.5527 374.608 65.6274 374.199 65.6274C374.077 65.6274 373.922 65.6108 373.734 65.5776C373.546 65.5444 373.413 65.5168 373.335 65.4946L373.327 64.2495C373.371 64.255 373.441 64.2606 373.535 64.2661C373.634 64.2772 373.703 64.2827 373.742 64.2827C374.091 64.2827 374.387 64.2357 374.63 64.1416C374.874 64.0531 375.079 63.9009 375.245 63.6851C375.416 63.4748 375.563 63.1842 375.685 62.8135L376.324 61.0703ZM374.489 53.0186L376.822 59.9912L377.22 61.6099L376.116 62.1743L372.812 53.0186H374.489ZM387.613 49.1089H388.875C388.875 49.6512 388.792 50.0828 388.625 50.4038C388.459 50.7192 388.233 50.9627 387.945 51.1343C387.663 51.3058 387.342 51.4359 386.982 51.5244C386.628 51.613 386.26 51.6987 385.878 51.7817C385.402 51.8813 384.959 52.0391 384.55 52.2549C384.146 52.4652 383.797 52.764 383.504 53.1514C383.216 53.5387 383.003 54.0423 382.865 54.6621C382.732 55.2819 382.696 56.0483 382.757 56.9614V57.7251H381.495V56.9614C381.495 55.9377 381.592 55.0439 381.786 54.2803C381.985 53.5166 382.264 52.8719 382.624 52.3462C382.984 51.8205 383.41 51.4027 383.902 51.0928C384.4 50.7829 384.948 50.5698 385.546 50.4536C385.978 50.3706 386.348 50.2821 386.658 50.188C386.968 50.0884 387.203 49.9556 387.364 49.7896C387.53 49.6235 387.613 49.3966 387.613 49.1089ZM385.795 53.5332C386.382 53.5332 386.904 53.6356 387.364 53.8403C387.823 54.0451 388.213 54.3301 388.534 54.6953C388.855 55.0605 389.099 55.4922 389.265 55.9902C389.436 56.4827 389.522 57.0195 389.522 57.6006V57.7832C389.522 58.4085 389.431 58.9896 389.248 59.5264C389.071 60.0576 388.808 60.5225 388.459 60.9209C388.116 61.3138 387.696 61.6209 387.198 61.8423C386.705 62.0636 386.144 62.1743 385.513 62.1743C384.882 62.1743 384.317 62.0636 383.819 61.8423C383.327 61.6209 382.906 61.3138 382.558 60.9209C382.209 60.5225 381.943 60.0576 381.761 59.5264C381.584 58.9896 381.495 58.4085 381.495 57.7832V57.6006C381.495 57.4622 381.52 57.3267 381.57 57.1938C381.62 57.061 381.681 56.9255 381.752 56.7871C381.83 56.6488 381.899 56.5021 381.96 56.3472C382.165 55.8491 382.444 55.387 382.798 54.9609C383.158 54.5348 383.587 54.1917 384.085 53.9316C384.589 53.666 385.159 53.5332 385.795 53.5332ZM385.496 54.7866C384.932 54.7866 384.467 54.9167 384.102 55.1768C383.742 55.4368 383.473 55.7827 383.296 56.2144C383.119 56.6405 383.031 57.1025 383.031 57.6006V57.7832C383.031 58.2038 383.081 58.6022 383.18 58.9785C383.28 59.3548 383.429 59.6896 383.628 59.9829C383.833 60.2707 384.09 60.4976 384.4 60.6636C384.716 60.8296 385.087 60.9126 385.513 60.9126C385.939 60.9126 386.307 60.8296 386.617 60.6636C386.927 60.4976 387.181 60.2707 387.38 59.9829C387.58 59.6896 387.729 59.3548 387.829 58.9785C387.928 58.6022 387.978 58.2038 387.978 57.7832V57.6006C387.978 57.2243 387.928 56.8674 387.829 56.5298C387.729 56.1922 387.577 55.8934 387.372 55.6333C387.173 55.3732 386.916 55.1685 386.6 55.019C386.29 54.8641 385.922 54.7866 385.496 54.7866ZM390.858 57.6089V57.418C390.858 56.7705 390.952 56.1701 391.141 55.6167C391.329 55.0578 391.6 54.5736 391.954 54.1641C392.308 53.749 392.737 53.4281 393.241 53.2012C393.744 52.9688 394.309 52.8525 394.934 52.8525C395.565 52.8525 396.132 52.9688 396.636 53.2012C397.145 53.4281 397.576 53.749 397.931 54.1641C398.29 54.5736 398.564 55.0578 398.752 55.6167C398.941 56.1701 399.035 56.7705 399.035 57.418V57.6089C399.035 58.2563 398.941 58.8568 398.752 59.4102C398.564 59.9635 398.29 60.4478 397.931 60.8628C397.576 61.2723 397.148 61.5933 396.644 61.8257C396.146 62.0526 395.582 62.166 394.951 62.166C394.32 62.166 393.753 62.0526 393.249 61.8257C392.745 61.5933 392.314 61.2723 391.954 60.8628C391.6 60.4478 391.329 59.9635 391.141 59.4102C390.952 58.8568 390.858 58.2563 390.858 57.6089ZM392.394 57.418V57.6089C392.394 58.0571 392.447 58.4805 392.552 58.8789C392.657 59.2718 392.815 59.6204 393.025 59.9248C393.241 60.2292 393.509 60.4699 393.83 60.647C394.151 60.8185 394.525 60.9043 394.951 60.9043C395.371 60.9043 395.739 60.8185 396.055 60.647C396.376 60.4699 396.641 60.2292 396.852 59.9248C397.062 59.6204 397.22 59.2718 397.325 58.8789C397.435 58.4805 397.491 58.0571 397.491 57.6089V57.418C397.491 56.9753 397.435 56.5575 397.325 56.1646C397.22 55.7661 397.059 55.4147 396.843 55.1104C396.633 54.8005 396.367 54.557 396.046 54.3799C395.731 54.2028 395.36 54.1143 394.934 54.1143C394.514 54.1143 394.143 54.2028 393.822 54.3799C393.506 54.557 393.241 54.8005 393.025 55.1104C392.815 55.4147 392.657 55.7661 392.552 56.1646C392.447 56.5575 392.394 56.9753 392.394 57.418ZM402.629 53.0186V62H401.093V53.0186H402.629ZM408.522 53.0186L404.264 58.165H402.114L401.882 56.8203H403.642L406.655 53.0186H408.522ZM406.871 62L403.567 57.9326L404.555 56.8203L408.821 62H406.871ZM409.568 57.6089V57.418C409.568 56.7705 409.662 56.1701 409.851 55.6167C410.039 55.0578 410.31 54.5736 410.664 54.1641C411.018 53.749 411.447 53.4281 411.951 53.2012C412.454 52.9688 413.019 52.8525 413.644 52.8525C414.275 52.8525 414.842 52.9688 415.346 53.2012C415.855 53.4281 416.286 53.749 416.641 54.1641C417 54.5736 417.274 55.0578 417.462 55.6167C417.651 56.1701 417.745 56.7705 417.745 57.418V57.6089C417.745 58.2563 417.651 58.8568 417.462 59.4102C417.274 59.9635 417 60.4478 416.641 60.8628C416.286 61.2723 415.858 61.5933 415.354 61.8257C414.856 62.0526 414.292 62.166 413.661 62.166C413.03 62.166 412.463 62.0526 411.959 61.8257C411.455 61.5933 411.024 61.2723 410.664 60.8628C410.31 60.4478 410.039 59.9635 409.851 59.4102C409.662 58.8568 409.568 58.2563 409.568 57.6089ZM411.104 57.418V57.6089C411.104 58.0571 411.157 58.4805 411.262 58.8789C411.367 59.2718 411.525 59.6204 411.735 59.9248C411.951 60.2292 412.219 60.4699 412.54 60.647C412.861 60.8185 413.235 60.9043 413.661 60.9043C414.081 60.9043 414.449 60.8185 414.765 60.647C415.086 60.4699 415.351 60.2292 415.562 59.9248C415.772 59.6204 415.93 59.2718 416.035 58.8789C416.145 58.4805 416.201 58.0571 416.201 57.6089V57.418C416.201 56.9753 416.145 56.5575 416.035 56.1646C415.93 55.7661 415.769 55.4147 415.553 55.1104C415.343 54.8005 415.077 54.557 414.756 54.3799C414.441 54.2028 414.07 54.1143 413.644 54.1143C413.223 54.1143 412.853 54.2028 412.532 54.3799C412.216 54.557 411.951 54.8005 411.735 55.1104C411.525 55.4147 411.367 55.7661 411.262 56.1646C411.157 56.5575 411.104 56.9753 411.104 57.418ZM425.473 53.0186V54.2886H421.322V62H419.787V53.0186H425.473ZM426.236 57.6089V57.418C426.236 56.7705 426.33 56.1701 426.519 55.6167C426.707 55.0578 426.978 54.5736 427.332 54.1641C427.686 53.749 428.115 53.4281 428.619 53.2012C429.122 52.9688 429.687 52.8525 430.312 52.8525C430.943 52.8525 431.51 52.9688 432.014 53.2012C432.523 53.4281 432.954 53.749 433.309 54.1641C433.668 54.5736 433.942 55.0578 434.13 55.6167C434.319 56.1701 434.413 56.7705 434.413 57.418V57.6089C434.413 58.2563 434.319 58.8568 434.13 59.4102C433.942 59.9635 433.668 60.4478 433.309 60.8628C432.954 61.2723 432.526 61.5933 432.022 61.8257C431.524 62.0526 430.959 62.166 430.329 62.166C429.698 62.166 429.131 62.0526 428.627 61.8257C428.123 61.5933 427.692 61.2723 427.332 60.8628C426.978 60.4478 426.707 59.9635 426.519 59.4102C426.33 58.8568 426.236 58.2563 426.236 57.6089ZM427.772 57.418V57.6089C427.772 58.0571 427.825 58.4805 427.93 58.8789C428.035 59.2718 428.193 59.6204 428.403 59.9248C428.619 60.2292 428.887 60.4699 429.208 60.647C429.529 60.8185 429.903 60.9043 430.329 60.9043C430.749 60.9043 431.117 60.8185 431.433 60.647C431.754 60.4699 432.019 60.2292 432.229 59.9248C432.44 59.6204 432.597 59.2718 432.703 58.8789C432.813 58.4805 432.869 58.0571 432.869 57.6089V57.418C432.869 56.9753 432.813 56.5575 432.703 56.1646C432.597 55.7661 432.437 55.4147 432.221 55.1104C432.011 54.8005 431.745 54.557 431.424 54.3799C431.109 54.2028 430.738 54.1143 430.312 54.1143C429.891 54.1143 429.521 54.2028 429.2 54.3799C428.884 54.557 428.619 54.8005 428.403 55.1104C428.193 55.4147 428.035 55.7661 427.93 56.1646C427.825 56.5575 427.772 56.9753 427.772 57.418ZM144.466 80.4644V75.8408C144.466 75.4867 144.394 75.1795 144.25 74.9194C144.112 74.6538 143.902 74.4491 143.62 74.3052C143.337 74.1613 142.989 74.0894 142.574 74.0894C142.186 74.0894 141.846 74.1558 141.553 74.2886C141.265 74.4214 141.038 74.5957 140.872 74.8115C140.712 75.0273 140.631 75.2598 140.631 75.5088H139.096C139.096 75.1878 139.179 74.8696 139.345 74.5542C139.511 74.2388 139.749 73.9538 140.059 73.6992C140.374 73.4391 140.75 73.2344 141.188 73.085C141.63 72.93 142.123 72.8525 142.665 72.8525C143.318 72.8525 143.894 72.9632 144.392 73.1846C144.895 73.4059 145.288 73.7407 145.57 74.189C145.858 74.6317 146.002 75.1878 146.002 75.8574V80.041C146.002 80.3398 146.027 80.658 146.077 80.9956C146.132 81.3332 146.212 81.6237 146.317 81.8672V82H144.715C144.638 81.8229 144.577 81.5877 144.533 81.2944C144.488 80.9956 144.466 80.7189 144.466 80.4644ZM144.732 76.5547L144.749 77.6338H143.196C142.759 77.6338 142.369 77.6698 142.026 77.7417C141.683 77.8081 141.395 77.9105 141.163 78.0488C140.93 78.1872 140.753 78.3615 140.631 78.5718C140.51 78.7765 140.449 79.0173 140.449 79.2939C140.449 79.5762 140.512 79.8335 140.64 80.0659C140.767 80.2983 140.958 80.4837 141.212 80.6221C141.472 80.7549 141.791 80.8213 142.167 80.8213C142.637 80.8213 143.052 80.7217 143.412 80.5225C143.772 80.3232 144.057 80.0798 144.267 79.792C144.483 79.5042 144.599 79.2248 144.616 78.9536L145.271 79.6924C145.233 79.9248 145.128 80.1821 144.956 80.4644C144.785 80.7466 144.555 81.0177 144.267 81.2778C143.985 81.5324 143.647 81.7454 143.254 81.917C142.867 82.083 142.43 82.166 141.943 82.166C141.334 82.166 140.8 82.047 140.341 81.8091C139.887 81.5711 139.533 81.2529 139.278 80.8545C139.029 80.4505 138.905 79.9995 138.905 79.5015C138.905 79.02 138.999 78.5967 139.187 78.2314C139.375 77.8607 139.646 77.5535 140 77.3101C140.355 77.061 140.781 76.8729 141.279 76.7456C141.777 76.6183 142.333 76.5547 142.947 76.5547H144.732ZM154.51 76.9116V78.1567H149.762V76.9116H154.51ZM150.086 73.0186V82H148.55V73.0186H150.086ZM155.755 73.0186V82H154.211V73.0186H155.755ZM163.525 80.4644V75.8408C163.525 75.4867 163.453 75.1795 163.309 74.9194C163.171 74.6538 162.96 74.4491 162.678 74.3052C162.396 74.1613 162.047 74.0894 161.632 74.0894C161.245 74.0894 160.905 74.1558 160.611 74.2886C160.324 74.4214 160.097 74.5957 159.931 74.8115C159.77 75.0273 159.69 75.2598 159.69 75.5088H158.154C158.154 75.1878 158.237 74.8696 158.403 74.5542C158.569 74.2388 158.807 73.9538 159.117 73.6992C159.433 73.4391 159.809 73.2344 160.246 73.085C160.689 72.93 161.181 72.8525 161.724 72.8525C162.377 72.8525 162.952 72.9632 163.45 73.1846C163.954 73.4059 164.347 73.7407 164.629 74.189C164.917 74.6317 165.061 75.1878 165.061 75.8574V80.041C165.061 80.3398 165.085 80.658 165.135 80.9956C165.191 81.3332 165.271 81.6237 165.376 81.8672V82H163.774C163.696 81.8229 163.636 81.5877 163.591 81.2944C163.547 80.9956 163.525 80.7189 163.525 80.4644ZM163.791 76.5547L163.807 77.6338H162.255C161.818 77.6338 161.428 77.6698 161.084 77.7417C160.741 77.8081 160.454 77.9105 160.221 78.0488C159.989 78.1872 159.812 78.3615 159.69 78.5718C159.568 78.7765 159.507 79.0173 159.507 79.2939C159.507 79.5762 159.571 79.8335 159.698 80.0659C159.826 80.2983 160.016 80.4837 160.271 80.6221C160.531 80.7549 160.849 80.8213 161.226 80.8213C161.696 80.8213 162.111 80.7217 162.471 80.5225C162.83 80.3232 163.115 80.0798 163.326 79.792C163.542 79.5042 163.658 79.2248 163.674 78.9536L164.33 79.6924C164.291 79.9248 164.186 80.1821 164.015 80.4644C163.843 80.7466 163.613 81.0177 163.326 81.2778C163.043 81.5324 162.706 81.7454 162.313 81.917C161.926 82.083 161.488 82.166 161.001 82.166C160.393 82.166 159.859 82.047 159.399 81.8091C158.946 81.5711 158.591 81.2529 158.337 80.8545C158.088 80.4505 157.963 79.9995 157.963 79.5015C157.963 79.02 158.057 78.5967 158.246 78.2314C158.434 77.8607 158.705 77.5535 159.059 77.3101C159.413 77.061 159.839 76.8729 160.337 76.7456C160.835 76.6183 161.392 76.5547 162.006 76.5547H163.791ZM173.478 73.0186V74.2886H169.136V73.0186H173.478ZM174.831 73.0186V82H173.295V73.0186H174.831ZM168.763 73.0186H170.307L170.074 77.3516C170.035 78.0212 169.972 78.6133 169.883 79.1279C169.8 79.637 169.684 80.0742 169.535 80.4395C169.391 80.8047 169.208 81.1035 168.987 81.3359C168.771 81.5628 168.511 81.7316 168.207 81.8423C167.902 81.9474 167.551 82 167.152 82H166.671V80.647L167.003 80.6221C167.241 80.6055 167.443 80.5501 167.609 80.4561C167.78 80.362 167.924 80.2236 168.041 80.041C168.157 79.8529 168.251 79.6121 168.323 79.3188C168.4 79.0256 168.458 78.6769 168.497 78.2729C168.541 77.869 168.575 77.3986 168.597 76.8618L168.763 73.0186ZM178.964 79.5679L183.106 73.0186H184.65V82H183.106V75.4507L178.964 82H177.437V73.0186H178.964V79.5679ZM190.469 77.7085H188.817V76.7622H190.345C190.771 76.7622 191.108 76.7096 191.357 76.6045C191.606 76.4938 191.784 76.3416 191.889 76.1479C191.994 75.9543 192.046 75.7274 192.046 75.4673C192.046 75.2349 191.986 75.0163 191.864 74.8115C191.748 74.6012 191.559 74.4325 191.299 74.3052C191.039 74.1724 190.691 74.106 190.253 74.106C189.899 74.106 189.578 74.1696 189.291 74.2969C189.003 74.4186 188.773 74.5874 188.602 74.8032C188.436 75.0135 188.353 75.2515 188.353 75.5171H186.817C186.817 74.9692 186.972 74.4989 187.282 74.106C187.597 73.7075 188.015 73.4004 188.535 73.1846C189.061 72.9688 189.634 72.8608 190.253 72.8608C190.774 72.8608 191.238 72.9189 191.648 73.0352C192.063 73.1458 192.414 73.3118 192.702 73.5332C192.99 73.749 193.208 74.0202 193.358 74.3467C193.513 74.6676 193.59 75.0412 193.59 75.4673C193.59 75.7716 193.518 76.0594 193.375 76.3306C193.231 76.6017 193.023 76.8424 192.752 77.0527C192.481 77.2575 192.152 77.418 191.764 77.5342C191.382 77.6504 190.951 77.7085 190.469 77.7085ZM188.817 77.1274H190.469C191.006 77.1274 191.479 77.18 191.889 77.2852C192.298 77.3848 192.641 77.5342 192.918 77.7334C193.195 77.9326 193.402 78.1789 193.541 78.4722C193.684 78.7599 193.756 79.092 193.756 79.4683C193.756 79.8888 193.671 80.2679 193.499 80.6055C193.333 80.9375 193.095 81.2197 192.785 81.4521C192.475 81.6846 192.104 81.8617 191.673 81.9834C191.247 82.1051 190.774 82.166 190.253 82.166C189.672 82.166 189.108 82.0664 188.56 81.8672C188.012 81.668 187.561 81.3608 187.207 80.9458C186.853 80.5252 186.676 79.9912 186.676 79.3438H188.211C188.211 79.6149 188.297 79.8722 188.469 80.1157C188.64 80.3592 188.878 80.5557 189.183 80.7051C189.493 80.8545 189.849 80.9292 190.253 80.9292C190.685 80.9292 191.045 80.8628 191.333 80.73C191.62 80.5972 191.836 80.4201 191.98 80.1987C192.129 79.9774 192.204 79.7367 192.204 79.4766C192.204 79.139 192.138 78.8678 192.005 78.6631C191.872 78.4583 191.667 78.3089 191.391 78.2148C191.119 78.1152 190.771 78.0654 190.345 78.0654H188.817V77.1274ZM201.044 80.4644V75.8408C201.044 75.4867 200.972 75.1795 200.829 74.9194C200.69 74.6538 200.48 74.4491 200.198 74.3052C199.916 74.1613 199.567 74.0894 199.152 74.0894C198.764 74.0894 198.424 74.1558 198.131 74.2886C197.843 74.4214 197.616 74.5957 197.45 74.8115C197.29 75.0273 197.209 75.2598 197.209 75.5088H195.674C195.674 75.1878 195.757 74.8696 195.923 74.5542C196.089 74.2388 196.327 73.9538 196.637 73.6992C196.952 73.4391 197.328 73.2344 197.766 73.085C198.208 72.93 198.701 72.8525 199.243 72.8525C199.896 72.8525 200.472 72.9632 200.97 73.1846C201.473 73.4059 201.866 73.7407 202.148 74.189C202.436 74.6317 202.58 75.1878 202.58 75.8574V80.041C202.58 80.3398 202.605 80.658 202.655 80.9956C202.71 81.3332 202.79 81.6237 202.896 81.8672V82H201.293C201.216 81.8229 201.155 81.5877 201.111 81.2944C201.067 80.9956 201.044 80.7189 201.044 80.4644ZM201.31 76.5547L201.327 77.6338H199.774C199.337 77.6338 198.947 77.6698 198.604 77.7417C198.261 77.8081 197.973 77.9105 197.741 78.0488C197.508 78.1872 197.331 78.3615 197.209 78.5718C197.088 78.7765 197.027 79.0173 197.027 79.2939C197.027 79.5762 197.09 79.8335 197.218 80.0659C197.345 80.2983 197.536 80.4837 197.791 80.6221C198.051 80.7549 198.369 80.8213 198.745 80.8213C199.215 80.8213 199.631 80.7217 199.99 80.5225C200.35 80.3232 200.635 80.0798 200.845 79.792C201.061 79.5042 201.177 79.2248 201.194 78.9536L201.85 79.6924C201.811 79.9248 201.706 80.1821 201.534 80.4644C201.363 80.7466 201.133 81.0177 200.845 81.2778C200.563 81.5324 200.225 81.7454 199.833 81.917C199.445 82.083 199.008 82.166 198.521 82.166C197.912 82.166 197.378 82.047 196.919 81.8091C196.465 81.5711 196.111 81.2529 195.856 80.8545C195.607 80.4505 195.483 79.9995 195.483 79.5015C195.483 79.02 195.577 78.5967 195.765 78.2314C195.953 77.8607 196.224 77.5535 196.579 77.3101C196.933 77.061 197.359 76.8729 197.857 76.7456C198.355 76.6183 198.911 76.5547 199.525 76.5547H201.31Z" fill="black"/>
<defs>
<filter id="filter0_d_802_695" x="564.052" y="12.0862" width="106.191" height="106.163" filterUnits="userSpaceOnUse" color-interpolation-filters="sRGB">
<feFlood flood-opacity="0" result="BackgroundImageFix"/>
<feColorMatrix in="SourceAlpha" type="matrix" values="0 0 0 0 0 0 0 0 0 0 0 0 0 0 0 0 0 0 127 0" result="hardAlpha"/>
<feOffset/>
<feGaussianBlur stdDeviation="12"/>
<feComposite in2="hardAlpha" operator="out"/>
<feColorMatrix type="matrix" values="0 0 0 0 0.579167 0 0 0 0 0.579167 0 0 0 0 0.579167 0 0 0 0.3 0"/>
<feBlend mode="normal" in2="BackgroundImageFix" result="effect1_dropShadow_802_695"/>
<feBlend mode="normal" in="SourceGraphic" in2="effect1_dropShadow_802_695" result="shape"/>
</filter>
</defs>
</svg>
