<svg width="652" height="116" viewBox="0 0 652 116" fill="none" xmlns="http://www.w3.org/2000/svg">
<path d="M115.819 57.9099C115.819 25.9272 89.8924 0.0125023 57.9097 0.0276467C25.9271 0.0427912 -3.92932e-06 25.982 -2.53132e-06 57.9647C-1.13331e-06 89.9474 25.9271 115.862 57.9097 115.847C89.8924 115.832 115.819 89.8925 115.819 57.9099Z" fill="#00A3FF"/>
<path d="M38.1035 38.8628H45.6035V80.8745H36.6094V50.2886H29.4023V44.5757C30.6914 44.4194 31.873 44.1167 32.9473 43.6675C34.0215 43.1987 34.8516 42.7007 35.4375 42.1733C36.043 41.646 36.5508 41.1382 36.9609 40.6499C37.3906 40.1421 37.6934 39.7124 37.8691 39.3608L38.1035 38.8628ZM71.4141 52.9839C75.457 52.9839 78.8164 54.3218 81.4922 56.9976C84.1875 59.6733 85.5352 63.0327 85.5352 67.0757C85.5352 71.314 84.0605 74.8296 81.1113 77.6226C78.1816 80.396 74.3535 81.7827 69.627 81.7827C67.6348 81.7827 65.7207 81.5483 63.8848 81.0796C62.0684 80.6304 60.584 80.0835 59.4316 79.439C58.2988 78.7944 57.3027 78.1597 56.4434 77.5347C55.584 76.8901 54.9785 76.3237 54.627 75.8354L54.0117 75.1616L59.4316 69.478C59.7051 69.7905 60.0859 70.1812 60.5742 70.6499C61.082 71.0991 62.1758 71.7144 63.8555 72.4956C65.5352 73.2769 67.2539 73.6675 69.0117 73.6675C71.2578 73.6675 73.0156 73.062 74.2852 71.8511C75.5742 70.6206 76.2188 69.0288 76.2188 67.0757C76.2188 65.1226 75.5352 63.4819 74.168 62.1538C72.8203 60.8257 71.1016 60.1616 69.0117 60.1616C67.5664 60.1616 66.2773 60.4351 65.1445 60.9819C64.0117 61.5288 63.2207 62.0757 62.7715 62.6226L62.127 63.4722L55.8281 62.8862L57.3223 38.8628H82.8105V46.6851H65.4375L64.8223 54.478C66.4238 53.4819 68.6211 52.9839 71.4141 52.9839Z" fill="white"/>
<path d="M476 57.96L594 57.96" stroke="#00A3FF" stroke-miterlimit="10" stroke-linecap="round"/>
<g filter="url(#filter0_d_822_2148)">
<path d="M618.721 78.6913C630.083 67.3342 630.083 48.9207 618.721 37.5636C607.358 26.2065 588.936 26.2065 577.574 37.5636C566.211 48.9207 566.211 67.3342 577.574 78.6913C588.936 90.0483 607.358 90.0483 618.721 78.6913Z" fill="white"/>
</g>
<path d="M607.241 58.1244C607.246 59.847 606.741 61.5327 605.789 62.9687C604.837 64.4048 603.481 65.5269 601.892 66.1935C600.302 66.8601 598.551 67.0415 596.859 66.7146C595.167 66.3877 593.61 65.5673 592.383 64.3568C591.157 63.1463 590.317 61.5999 589.969 59.9128C589.621 58.2256 589.78 56.4732 590.427 54.8766C591.075 53.28 592.18 51.9106 593.605 50.9413C595.03 49.972 596.71 49.446 598.433 49.4299C599.585 49.4155 600.727 49.6297 601.795 50.0602C602.863 50.4906 603.835 51.1288 604.655 51.9376C605.474 52.7464 606.124 53.7097 606.568 54.7718C607.012 55.8338 607.241 56.9734 607.241 58.1244Z" fill="#00A3FF"/>
<path d="M598.542 61.5312C600.425 61.5312 601.951 60.0058 601.951 58.1242C601.951 56.2426 600.425 54.7173 598.542 54.7173C596.66 54.7173 595.134 56.2426 595.134 58.1242C595.134 60.0058 596.66 61.5312 598.542 61.5312Z" fill="white"/>
<path d="M478.452 58.1242C478.457 59.8503 477.95 61.5393 476.994 62.9771C476.039 64.415 474.678 65.5371 473.084 66.2015C471.49 66.8658 469.735 67.0424 468.04 66.7089C466.346 66.3755 464.789 65.547 463.565 64.3283C462.342 63.1096 461.509 61.5556 461.17 59.863C460.831 58.1704 461.002 56.4154 461.662 54.8201C462.321 53.2248 463.44 51.8611 464.875 50.9015C466.311 49.9419 467.999 49.4297 469.726 49.4297C472.035 49.4297 474.251 50.3448 475.886 51.9746C477.522 53.6043 478.445 55.8158 478.452 58.1242Z" fill="#00A3FF"/>
<path d="M469.753 61.5312C471.636 61.5312 473.162 60.0058 473.162 58.1242C473.162 56.2426 471.636 54.7173 469.753 54.7173C467.871 54.7173 466.345 56.2426 466.345 58.1242C466.345 60.0058 467.871 61.5312 469.753 61.5312Z" fill="white"/>
<path d="M141.039 50.3594V66H138.966V50.3594H141.039ZM150.578 59.8662H146.399V58.1797H150.578C151.387 58.1797 152.043 58.0508 152.544 57.793C153.045 57.5352 153.41 57.1771 153.64 56.7188C153.876 56.2604 153.994 55.7376 153.994 55.1504C153.994 54.6133 153.876 54.1084 153.64 53.6357C153.41 53.1631 153.045 52.7835 152.544 52.4971C152.043 52.2035 151.387 52.0566 150.578 52.0566H146.883V66H144.81V50.3594H150.578C151.76 50.3594 152.759 50.5635 153.575 50.9717C154.392 51.3799 155.011 51.9456 155.434 52.6689C155.856 53.3851 156.067 54.2051 156.067 55.1289C156.067 56.1315 155.856 56.9873 155.434 57.6963C155.011 58.4053 154.392 58.946 153.575 59.3184C152.759 59.6836 151.76 59.8662 150.578 59.8662ZM170.73 57.6855V58.6738C170.73 59.8483 170.584 60.901 170.29 61.832C169.996 62.763 169.574 63.5544 169.022 64.2061C168.471 64.8577 167.809 65.3555 167.035 65.6992C166.269 66.043 165.41 66.2148 164.457 66.2148C163.533 66.2148 162.685 66.043 161.911 65.6992C161.145 65.3555 160.479 64.8577 159.913 64.2061C159.354 63.5544 158.921 62.763 158.613 61.832C158.305 60.901 158.151 59.8483 158.151 58.6738V57.6855C158.151 56.5111 158.302 55.4619 158.603 54.5381C158.91 53.6071 159.344 52.8158 159.902 52.1641C160.461 51.5052 161.123 51.0039 161.89 50.6602C162.663 50.3164 163.512 50.1445 164.436 50.1445C165.388 50.1445 166.247 50.3164 167.014 50.6602C167.787 51.0039 168.45 51.5052 169.001 52.1641C169.56 52.8158 169.986 53.6071 170.279 54.5381C170.58 55.4619 170.73 56.5111 170.73 57.6855ZM168.679 58.6738V57.6641C168.679 56.7331 168.582 55.9095 168.389 55.1934C168.202 54.4772 167.927 53.8757 167.562 53.3887C167.196 52.9017 166.749 52.5329 166.219 52.2822C165.696 52.0316 165.102 51.9062 164.436 51.9062C163.791 51.9062 163.207 52.0316 162.685 52.2822C162.169 52.5329 161.725 52.9017 161.353 53.3887C160.987 53.8757 160.704 54.4772 160.504 55.1934C160.303 55.9095 160.203 56.7331 160.203 57.6641V58.6738C160.203 59.612 160.303 60.4427 160.504 61.166C160.704 61.8822 160.991 62.4873 161.363 62.9814C161.743 63.4684 162.19 63.8372 162.706 64.0879C163.229 64.3385 163.812 64.4639 164.457 64.4639C165.13 64.4639 165.728 64.3385 166.251 64.0879C166.774 63.8372 167.214 63.4684 167.572 62.9814C167.938 62.4873 168.213 61.8822 168.399 61.166C168.586 60.4427 168.679 59.612 168.679 58.6738ZM184.448 60.8867H180.635L180.613 59.2969H183.729C184.344 59.2969 184.856 59.236 185.265 59.1143C185.68 58.9925 185.992 58.8099 186.199 58.5664C186.407 58.3229 186.511 58.0221 186.511 57.6641C186.511 57.3848 186.45 57.1413 186.328 56.9336C186.214 56.7188 186.038 56.5433 185.802 56.4072C185.565 56.264 185.272 56.1602 184.921 56.0957C184.577 56.0241 184.173 55.9883 183.707 55.9883H181.161V66H179.174V54.377H183.707C184.445 54.377 185.107 54.4414 185.694 54.5703C186.289 54.6992 186.794 54.8962 187.209 55.1611C187.632 55.4189 187.954 55.7484 188.176 56.1494C188.398 56.5505 188.509 57.0231 188.509 57.5674C188.509 57.9183 188.437 58.2513 188.294 58.5664C188.151 58.8815 187.939 59.1608 187.66 59.4043C187.381 59.6478 187.037 59.8483 186.629 60.0059C186.221 60.1562 185.752 60.2529 185.222 60.2959L184.448 60.8867ZM184.448 66H179.915L180.903 64.3887H184.448C185 64.3887 185.458 64.3206 185.823 64.1846C186.188 64.0413 186.461 63.8408 186.64 63.583C186.826 63.318 186.919 63.0029 186.919 62.6377C186.919 62.2725 186.826 61.9609 186.64 61.7031C186.461 61.4382 186.188 61.2376 185.823 61.1016C185.458 60.9583 185 60.8867 184.448 60.8867H181.43L181.451 59.2969H185.222L185.941 59.8984C186.579 59.9486 187.119 60.1061 187.563 60.3711C188.007 60.6361 188.344 60.9727 188.573 61.3809C188.802 61.7819 188.917 62.2188 188.917 62.6914C188.917 63.2357 188.813 63.7155 188.605 64.1309C188.405 64.5462 188.111 64.8936 187.725 65.1729C187.338 65.445 186.869 65.6527 186.317 65.7959C185.766 65.932 185.143 66 184.448 66ZM199.025 56.6113V70.4688H197.027V54.377H198.854L199.025 56.6113ZM206.856 60.0918V60.3174C206.856 61.1624 206.756 61.9466 206.556 62.6699C206.355 63.3861 206.062 64.0091 205.675 64.5391C205.295 65.069 204.826 65.4808 204.268 65.7744C203.709 66.068 203.068 66.2148 202.345 66.2148C201.607 66.2148 200.955 66.0931 200.39 65.8496C199.824 65.6061 199.344 65.2516 198.95 64.7861C198.556 64.3206 198.241 63.762 198.005 63.1104C197.776 62.4587 197.618 61.7246 197.532 60.9082V59.7051C197.618 58.8457 197.779 58.0758 198.016 57.3955C198.252 56.7152 198.563 56.1351 198.95 55.6553C199.344 55.1683 199.82 54.7995 200.379 54.5488C200.938 54.291 201.582 54.1621 202.312 54.1621C203.043 54.1621 203.691 54.3053 204.257 54.5918C204.823 54.8711 205.299 55.2721 205.686 55.7949C206.072 56.3177 206.362 56.9443 206.556 57.6748C206.756 58.3981 206.856 59.2038 206.856 60.0918ZM204.858 60.3174V60.0918C204.858 59.5117 204.798 58.9674 204.676 58.459C204.554 57.9434 204.364 57.4922 204.106 57.1055C203.856 56.7116 203.534 56.4036 203.14 56.1816C202.746 55.9525 202.277 55.8379 201.732 55.8379C201.231 55.8379 200.794 55.9238 200.422 56.0957C200.057 56.2676 199.745 56.5003 199.487 56.7939C199.229 57.0804 199.018 57.4098 198.854 57.7822C198.696 58.1475 198.578 58.527 198.499 58.9209V61.7031C198.642 62.2044 198.843 62.6771 199.101 63.1211C199.358 63.5579 199.702 63.9124 200.132 64.1846C200.562 64.4495 201.102 64.582 201.754 64.582C202.291 64.582 202.753 64.471 203.14 64.249C203.534 64.0199 203.856 63.7083 204.106 63.3145C204.364 62.9206 204.554 62.4694 204.676 61.9609C204.798 61.4453 204.858 60.8975 204.858 60.3174ZM216.245 64.0127V58.0293C216.245 57.571 216.152 57.1735 215.966 56.8369C215.787 56.4932 215.515 56.2282 215.149 56.042C214.784 55.8558 214.333 55.7627 213.796 55.7627C213.295 55.7627 212.854 55.8486 212.475 56.0205C212.102 56.1924 211.809 56.418 211.594 56.6973C211.386 56.9766 211.282 57.2773 211.282 57.5996H209.295C209.295 57.1842 209.402 56.7725 209.617 56.3643C209.832 55.9561 210.14 55.5872 210.541 55.2578C210.949 54.9212 211.436 54.6562 212.002 54.4629C212.575 54.2624 213.212 54.1621 213.914 54.1621C214.759 54.1621 215.504 54.3053 216.148 54.5918C216.8 54.8783 217.309 55.3115 217.674 55.8916C218.046 56.4645 218.232 57.1842 218.232 58.0508V63.4648C218.232 63.8516 218.265 64.2633 218.329 64.7002C218.401 65.137 218.505 65.513 218.641 65.8281V66H216.567C216.467 65.7708 216.388 65.4665 216.331 65.0869C216.274 64.7002 216.245 64.3421 216.245 64.0127ZM216.589 58.9531L216.61 60.3496H214.602C214.036 60.3496 213.531 60.3962 213.087 60.4893C212.643 60.5752 212.271 60.7077 211.97 60.8867C211.669 61.0658 211.44 61.2913 211.282 61.5635C211.125 61.8285 211.046 62.14 211.046 62.498C211.046 62.8633 211.128 63.1963 211.293 63.4971C211.458 63.7979 211.705 64.0378 212.034 64.2168C212.371 64.3887 212.783 64.4746 213.27 64.4746C213.878 64.4746 214.415 64.3457 214.881 64.0879C215.346 63.8301 215.715 63.515 215.987 63.1426C216.267 62.7702 216.417 62.4085 216.438 62.0576L217.287 63.0137C217.237 63.3145 217.101 63.6475 216.879 64.0127C216.657 64.3779 216.36 64.7288 215.987 65.0654C215.622 65.3949 215.185 65.6706 214.677 65.8926C214.175 66.1074 213.61 66.2148 212.979 66.2148C212.192 66.2148 211.501 66.0609 210.906 65.7529C210.319 65.445 209.861 65.0332 209.531 64.5176C209.209 63.9948 209.048 63.4111 209.048 62.7666C209.048 62.1436 209.17 61.5957 209.413 61.123C209.657 60.6432 210.007 60.2458 210.466 59.9307C210.924 59.6084 211.476 59.3649 212.12 59.2002C212.765 59.0355 213.484 58.9531 214.279 58.9531H216.589ZM228.04 63.3574L231.993 54.377H233.905L228.728 66H227.353L222.196 54.377H224.108L228.04 63.3574ZM223.528 54.377V66H221.541V54.377H223.528ZM232.487 66V54.377H234.485V66H232.487ZM239.846 54.377V66H237.858V54.377H239.846ZM247.473 54.377L241.962 61.0371H239.18L238.879 59.2969H241.156L245.056 54.377H247.473ZM245.335 66L241.06 60.7363L242.338 59.2969L247.859 66H245.335ZM256.442 64.0127V58.0293C256.442 57.571 256.349 57.1735 256.163 56.8369C255.984 56.4932 255.712 56.2282 255.347 56.042C254.981 55.8558 254.53 55.7627 253.993 55.7627C253.492 55.7627 253.051 55.8486 252.672 56.0205C252.299 56.1924 252.006 56.418 251.791 56.6973C251.583 56.9766 251.479 57.2773 251.479 57.5996H249.492C249.492 57.1842 249.6 56.7725 249.814 56.3643C250.029 55.9561 250.337 55.5872 250.738 55.2578C251.146 54.9212 251.633 54.6562 252.199 54.4629C252.772 54.2624 253.41 54.1621 254.111 54.1621C254.956 54.1621 255.701 54.3053 256.346 54.5918C256.997 54.8783 257.506 55.3115 257.871 55.8916C258.243 56.4645 258.43 57.1842 258.43 58.0508V63.4648C258.43 63.8516 258.462 64.2633 258.526 64.7002C258.598 65.137 258.702 65.513 258.838 65.8281V66H256.765C256.664 65.7708 256.586 65.4665 256.528 65.0869C256.471 64.7002 256.442 64.3421 256.442 64.0127ZM256.786 58.9531L256.808 60.3496H254.799C254.233 60.3496 253.728 60.3962 253.284 60.4893C252.84 60.5752 252.468 60.7077 252.167 60.8867C251.866 61.0658 251.637 61.2913 251.479 61.5635C251.322 61.8285 251.243 62.14 251.243 62.498C251.243 62.8633 251.326 63.1963 251.49 63.4971C251.655 63.7979 251.902 64.0378 252.231 64.2168C252.568 64.3887 252.98 64.4746 253.467 64.4746C254.076 64.4746 254.613 64.3457 255.078 64.0879C255.544 63.8301 255.912 63.515 256.185 63.1426C256.464 62.7702 256.614 62.4085 256.636 62.0576L257.484 63.0137C257.434 63.3145 257.298 63.6475 257.076 64.0127C256.854 64.3779 256.557 64.7288 256.185 65.0654C255.819 65.3949 255.382 65.6706 254.874 65.8926C254.373 66.1074 253.807 66.2148 253.177 66.2148C252.389 66.2148 251.698 66.0609 251.104 65.7529C250.516 65.445 250.058 65.0332 249.729 64.5176C249.406 63.9948 249.245 63.4111 249.245 62.7666C249.245 62.1436 249.367 61.5957 249.61 61.123C249.854 60.6432 250.205 60.2458 250.663 59.9307C251.121 59.6084 251.673 59.3649 252.317 59.2002C252.962 59.0355 253.682 58.9531 254.477 58.9531H256.786ZM262.898 54.377L265.444 58.6094L268.022 54.377H270.354L266.551 60.1133L270.472 66H268.173L265.487 61.6387L262.802 66H260.492L264.402 60.1133L260.61 54.377H262.898ZM284.608 63.3574L288.562 54.377H290.474L285.296 66H283.921L278.765 54.377H280.677L284.608 63.3574ZM280.097 54.377V66H278.109V54.377H280.097ZM289.056 66V54.377H291.054V66H289.056ZM293.729 60.3174V60.0703C293.729 59.2324 293.85 58.4554 294.094 57.7393C294.337 57.016 294.688 56.3893 295.146 55.8594C295.605 55.3223 296.16 54.9069 296.812 54.6133C297.463 54.3125 298.194 54.1621 299.003 54.1621C299.819 54.1621 300.553 54.3125 301.205 54.6133C301.864 54.9069 302.423 55.3223 302.881 55.8594C303.346 56.3893 303.701 57.016 303.944 57.7393C304.188 58.4554 304.31 59.2324 304.31 60.0703V60.3174C304.31 61.1553 304.188 61.9323 303.944 62.6484C303.701 63.3646 303.346 63.9912 302.881 64.5283C302.423 65.0583 301.868 65.4736 301.216 65.7744C300.571 66.068 299.841 66.2148 299.024 66.2148C298.208 66.2148 297.474 66.068 296.822 65.7744C296.171 65.4736 295.612 65.0583 295.146 64.5283C294.688 63.9912 294.337 63.3646 294.094 62.6484C293.85 61.9323 293.729 61.1553 293.729 60.3174ZM295.716 60.0703V60.3174C295.716 60.8975 295.784 61.4453 295.92 61.9609C296.056 62.4694 296.26 62.9206 296.532 63.3145C296.812 63.7083 297.159 64.0199 297.574 64.249C297.99 64.471 298.473 64.582 299.024 64.582C299.569 64.582 300.045 64.471 300.453 64.249C300.868 64.0199 301.212 63.7083 301.484 63.3145C301.757 62.9206 301.961 62.4694 302.097 61.9609C302.24 61.4453 302.312 60.8975 302.312 60.3174V60.0703C302.312 59.4974 302.24 58.9567 302.097 58.4482C301.961 57.9326 301.753 57.4779 301.474 57.084C301.201 56.6829 300.858 56.3678 300.442 56.1387C300.034 55.9095 299.554 55.7949 299.003 55.7949C298.459 55.7949 297.979 55.9095 297.563 56.1387C297.155 56.3678 296.812 56.6829 296.532 57.084C296.26 57.4779 296.056 57.9326 295.92 58.4482C295.784 58.9567 295.716 59.4974 295.716 60.0703ZM314.687 59.415V61.0264H308.542V59.415H314.687ZM308.961 54.377V66H306.974V54.377H308.961ZM316.298 54.377V66H314.3V54.377H316.298ZM318.973 60.3174V60.0703C318.973 59.2324 319.094 58.4554 319.338 57.7393C319.581 57.016 319.932 56.3893 320.391 55.8594C320.849 55.3223 321.404 54.9069 322.056 54.6133C322.707 54.3125 323.438 54.1621 324.247 54.1621C325.063 54.1621 325.798 54.3125 326.449 54.6133C327.108 54.9069 327.667 55.3223 328.125 55.8594C328.59 56.3893 328.945 57.016 329.188 57.7393C329.432 58.4554 329.554 59.2324 329.554 60.0703V60.3174C329.554 61.1553 329.432 61.9323 329.188 62.6484C328.945 63.3646 328.59 63.9912 328.125 64.5283C327.667 65.0583 327.112 65.4736 326.46 65.7744C325.815 66.068 325.085 66.2148 324.269 66.2148C323.452 66.2148 322.718 66.068 322.066 65.7744C321.415 65.4736 320.856 65.0583 320.391 64.5283C319.932 63.9912 319.581 63.3646 319.338 62.6484C319.094 61.9323 318.973 61.1553 318.973 60.3174ZM320.96 60.0703V60.3174C320.96 60.8975 321.028 61.4453 321.164 61.9609C321.3 62.4694 321.504 62.9206 321.776 63.3145C322.056 63.7083 322.403 64.0199 322.818 64.249C323.234 64.471 323.717 64.582 324.269 64.582C324.813 64.582 325.289 64.471 325.697 64.249C326.113 64.0199 326.456 63.7083 326.729 63.3145C327.001 62.9206 327.205 62.4694 327.341 61.9609C327.484 61.4453 327.556 60.8975 327.556 60.3174V60.0703C327.556 59.4974 327.484 58.9567 327.341 58.4482C327.205 57.9326 326.997 57.4779 326.718 57.084C326.446 56.6829 326.102 56.3678 325.687 56.1387C325.278 55.9095 324.799 55.7949 324.247 55.7949C323.703 55.7949 323.223 55.9095 322.808 56.1387C322.399 56.3678 322.056 56.6829 321.776 57.084C321.504 57.4779 321.3 57.9326 321.164 58.4482C321.028 58.9567 320.96 59.4974 320.96 60.0703ZM339.501 49.3174H341.134C341.134 50.0192 341.026 50.5778 340.812 50.9932C340.597 51.4014 340.303 51.7165 339.931 51.9385C339.565 52.1605 339.15 52.3288 338.685 52.4434C338.226 52.5579 337.75 52.6689 337.256 52.7764C336.64 52.9053 336.067 53.1094 335.537 53.3887C335.014 53.6608 334.563 54.0475 334.184 54.5488C333.811 55.0501 333.535 55.7018 333.356 56.5039C333.185 57.306 333.138 58.2979 333.217 59.4795V60.4678H331.584V59.4795C331.584 58.1546 331.709 56.998 331.96 56.0098C332.218 55.0215 332.579 54.1872 333.045 53.5068C333.51 52.8265 334.062 52.2858 334.699 51.8848C335.344 51.4837 336.053 51.208 336.826 51.0576C337.385 50.9502 337.865 50.8356 338.266 50.7139C338.667 50.585 338.971 50.4131 339.179 50.1982C339.394 49.9834 339.501 49.6898 339.501 49.3174ZM337.148 55.043C337.908 55.043 338.584 55.1755 339.179 55.4404C339.773 55.7054 340.278 56.0742 340.693 56.5469C341.109 57.0195 341.424 57.5781 341.639 58.2227C341.861 58.86 341.972 59.5547 341.972 60.3066V60.543C341.972 61.3522 341.854 62.1042 341.617 62.7988C341.388 63.4863 341.048 64.0879 340.597 64.6035C340.153 65.112 339.608 65.5094 338.964 65.7959C338.326 66.0824 337.6 66.2256 336.783 66.2256C335.967 66.2256 335.236 66.0824 334.592 65.7959C333.954 65.5094 333.41 65.112 332.959 64.6035C332.508 64.0879 332.164 63.4863 331.928 62.7988C331.699 62.1042 331.584 61.3522 331.584 60.543V60.3066C331.584 60.1276 331.616 59.9521 331.681 59.7803C331.745 59.6084 331.824 59.4329 331.917 59.2539C332.017 59.0749 332.107 58.8851 332.186 58.6846C332.451 58.04 332.812 57.4421 333.271 56.8906C333.736 56.3392 334.291 55.8952 334.936 55.5586C335.587 55.2148 336.325 55.043 337.148 55.043ZM336.762 56.665C336.031 56.665 335.43 56.8333 334.957 57.1699C334.492 57.5065 334.144 57.9541 333.915 58.5127C333.686 59.0641 333.571 59.6621 333.571 60.3066V60.543C333.571 61.0872 333.636 61.6029 333.765 62.0898C333.894 62.5768 334.087 63.0101 334.345 63.3896C334.61 63.762 334.943 64.0557 335.344 64.2705C335.752 64.4854 336.232 64.5928 336.783 64.5928C337.335 64.5928 337.811 64.4854 338.212 64.2705C338.613 64.0557 338.942 63.762 339.2 63.3896C339.458 63.0101 339.651 62.5768 339.78 62.0898C339.909 61.6029 339.974 61.0872 339.974 60.543V60.3066C339.974 59.8197 339.909 59.3577 339.78 58.9209C339.651 58.484 339.454 58.0973 339.189 57.7607C338.932 57.4242 338.599 57.1592 338.19 56.9658C337.789 56.7653 337.313 56.665 336.762 56.665ZM346.021 56.6113V70.4688H344.023V54.377H345.85L346.021 56.6113ZM353.853 60.0918V60.3174C353.853 61.1624 353.752 61.9466 353.552 62.6699C353.351 63.3861 353.058 64.0091 352.671 64.5391C352.291 65.069 351.822 65.4808 351.264 65.7744C350.705 66.068 350.064 66.2148 349.341 66.2148C348.603 66.2148 347.951 66.0931 347.386 65.8496C346.82 65.6061 346.34 65.2516 345.946 64.7861C345.552 64.3206 345.237 63.762 345.001 63.1104C344.772 62.4587 344.614 61.7246 344.528 60.9082V59.7051C344.614 58.8457 344.775 58.0758 345.012 57.3955C345.248 56.7152 345.56 56.1351 345.946 55.6553C346.34 55.1683 346.816 54.7995 347.375 54.5488C347.934 54.291 348.578 54.1621 349.309 54.1621C350.039 54.1621 350.687 54.3053 351.253 54.5918C351.819 54.8711 352.295 55.2721 352.682 55.7949C353.068 56.3177 353.358 56.9443 353.552 57.6748C353.752 58.3981 353.853 59.2038 353.853 60.0918ZM351.854 60.3174V60.0918C351.854 59.5117 351.794 58.9674 351.672 58.459C351.55 57.9434 351.36 57.4922 351.103 57.1055C350.852 56.7116 350.53 56.4036 350.136 56.1816C349.742 55.9525 349.273 55.8379 348.729 55.8379C348.227 55.8379 347.79 55.9238 347.418 56.0957C347.053 56.2676 346.741 56.5003 346.483 56.7939C346.226 57.0804 346.014 57.4098 345.85 57.7822C345.692 58.1475 345.574 58.527 345.495 58.9209V61.7031C345.638 62.2044 345.839 62.6771 346.097 63.1211C346.354 63.5579 346.698 63.9124 347.128 64.1846C347.558 64.4495 348.098 64.582 348.75 64.582C349.287 64.582 349.749 64.471 350.136 64.249C350.53 64.0199 350.852 63.7083 351.103 63.3145C351.36 62.9206 351.55 62.4694 351.672 61.9609C351.794 61.4453 351.854 60.8975 351.854 60.3174ZM361.211 66.2148C360.402 66.2148 359.668 66.0788 359.009 65.8066C358.357 65.5273 357.795 65.137 357.322 64.6357C356.857 64.1344 356.499 63.54 356.248 62.8525C355.997 62.165 355.872 61.4131 355.872 60.5967V60.1455C355.872 59.2002 356.012 58.3587 356.291 57.6211C356.57 56.8763 356.95 56.2461 357.43 55.7305C357.91 55.2148 358.454 54.8245 359.062 54.5596C359.671 54.2946 360.301 54.1621 360.953 54.1621C361.784 54.1621 362.5 54.3053 363.102 54.5918C363.71 54.8783 364.208 55.2793 364.595 55.7949C364.981 56.3034 365.268 56.9049 365.454 57.5996C365.64 58.2871 365.733 59.0391 365.733 59.8555V60.7471H357.054V59.125H363.746V58.9746C363.717 58.459 363.61 57.9577 363.424 57.4707C363.245 56.9837 362.958 56.5827 362.564 56.2676C362.171 55.9525 361.633 55.7949 360.953 55.7949C360.502 55.7949 360.087 55.8916 359.707 56.085C359.327 56.2712 359.002 56.5505 358.729 56.9229C358.457 57.2952 358.246 57.75 358.096 58.2871C357.945 58.8242 357.87 59.4437 357.87 60.1455V60.5967C357.87 61.1481 357.945 61.6673 358.096 62.1543C358.253 62.6341 358.479 63.0566 358.772 63.4219C359.073 63.7871 359.435 64.0736 359.857 64.2812C360.287 64.4889 360.774 64.5928 361.318 64.5928C362.02 64.5928 362.615 64.4495 363.102 64.1631C363.589 63.8766 364.015 63.4935 364.38 63.0137L365.583 63.9697C365.332 64.3493 365.014 64.7109 364.627 65.0547C364.24 65.3984 363.764 65.6777 363.198 65.8926C362.64 66.1074 361.977 66.2148 361.211 66.2148ZM375.938 59.415V61.0264H369.794V59.415H375.938ZM370.213 54.377V66H368.226V54.377H370.213ZM377.55 54.377V66H375.552V54.377H377.55ZM382.846 54.377H384.833L384.661 58.7275C384.618 59.8304 384.493 60.7829 384.285 61.585C384.077 62.387 383.812 63.071 383.49 63.6367C383.168 64.1953 382.806 64.6644 382.405 65.0439C382.011 65.4235 381.603 65.7422 381.181 66H380.192L380.246 64.3779L380.654 64.3672C380.891 64.0879 381.12 63.8014 381.342 63.5078C381.564 63.207 381.768 62.8525 381.954 62.4443C382.14 62.029 382.294 61.5241 382.416 60.9297C382.545 60.3281 382.627 59.5941 382.663 58.7275L382.846 54.377ZM383.34 54.377H390.333V66H388.346V56.2139H383.34V54.377ZM379.741 64.3672H391.826V69.4268H389.839V66H381.729V69.4268H379.73L379.741 64.3672ZM400.882 64.0127V58.0293C400.882 57.571 400.789 57.1735 400.603 56.8369C400.424 56.4932 400.151 56.2282 399.786 56.042C399.421 55.8558 398.97 55.7627 398.433 55.7627C397.931 55.7627 397.491 55.8486 397.111 56.0205C396.739 56.1924 396.445 56.418 396.23 56.6973C396.023 56.9766 395.919 57.2773 395.919 57.5996H393.932C393.932 57.1842 394.039 56.7725 394.254 56.3643C394.469 55.9561 394.777 55.5872 395.178 55.2578C395.586 54.9212 396.073 54.6562 396.639 54.4629C397.212 54.2624 397.849 54.1621 398.551 54.1621C399.396 54.1621 400.141 54.3053 400.785 54.5918C401.437 54.8783 401.945 55.3115 402.311 55.8916C402.683 56.4645 402.869 57.1842 402.869 58.0508V63.4648C402.869 63.8516 402.901 64.2633 402.966 64.7002C403.037 65.137 403.141 65.513 403.277 65.8281V66H401.204C401.104 65.7708 401.025 65.4665 400.968 65.0869C400.91 64.7002 400.882 64.3421 400.882 64.0127ZM401.226 58.9531L401.247 60.3496H399.238C398.673 60.3496 398.168 60.3962 397.724 60.4893C397.28 60.5752 396.907 60.7077 396.606 60.8867C396.306 61.0658 396.076 61.2913 395.919 61.5635C395.761 61.8285 395.683 62.14 395.683 62.498C395.683 62.8633 395.765 63.1963 395.93 63.4971C396.094 63.7979 396.341 64.0378 396.671 64.2168C397.007 64.3887 397.419 64.4746 397.906 64.4746C398.515 64.4746 399.052 64.3457 399.518 64.0879C399.983 63.8301 400.352 63.515 400.624 63.1426C400.903 62.7702 401.054 62.4085 401.075 62.0576L401.924 63.0137C401.874 63.3145 401.738 63.6475 401.516 64.0127C401.294 64.3779 400.996 64.7288 400.624 65.0654C400.259 65.3949 399.822 65.6706 399.313 65.8926C398.812 66.1074 398.246 66.2148 397.616 66.2148C396.828 66.2148 396.137 66.0609 395.543 65.7529C394.956 65.445 394.497 65.0332 394.168 64.5176C393.846 63.9948 393.685 63.4111 393.685 62.7666C393.685 62.1436 393.806 61.5957 394.05 61.123C394.293 60.6432 394.644 60.2458 395.103 59.9307C395.561 59.6084 396.112 59.3649 396.757 59.2002C397.401 59.0355 398.121 58.9531 398.916 58.9531H401.226ZM144.595 76.3594V92H142.554V76.3594H144.595ZM149.622 76.3594V78.0566H137.537V76.3594H149.622ZM163.684 83.6855V84.6738C163.684 85.8483 163.537 86.901 163.243 87.832C162.95 88.763 162.527 89.5544 161.976 90.2061C161.424 90.8577 160.762 91.3555 159.988 91.6992C159.222 92.043 158.363 92.2148 157.41 92.2148C156.486 92.2148 155.638 92.043 154.864 91.6992C154.098 91.3555 153.432 90.8577 152.866 90.2061C152.308 89.5544 151.874 88.763 151.566 87.832C151.258 86.901 151.104 85.8483 151.104 84.6738V83.6855C151.104 82.5111 151.255 81.4619 151.556 80.5381C151.864 79.6071 152.297 78.8158 152.855 78.1641C153.414 77.5052 154.076 77.0039 154.843 76.6602C155.616 76.3164 156.465 76.1445 157.389 76.1445C158.341 76.1445 159.201 76.3164 159.967 76.6602C160.74 77.0039 161.403 77.5052 161.954 78.1641C162.513 78.8158 162.939 79.6071 163.232 80.5381C163.533 81.4619 163.684 82.5111 163.684 83.6855ZM161.632 84.6738V83.6641C161.632 82.7331 161.535 81.9095 161.342 81.1934C161.156 80.4772 160.88 79.8757 160.515 79.3887C160.149 78.9017 159.702 78.5329 159.172 78.2822C158.649 78.0316 158.055 77.9062 157.389 77.9062C156.744 77.9062 156.16 78.0316 155.638 78.2822C155.122 78.5329 154.678 78.9017 154.306 79.3887C153.94 79.8757 153.658 80.4772 153.457 81.1934C153.257 81.9095 153.156 82.7331 153.156 83.6641V84.6738C153.156 85.612 153.257 86.4427 153.457 87.166C153.658 87.8822 153.944 88.4873 154.316 88.9814C154.696 89.4684 155.144 89.8372 155.659 90.0879C156.182 90.3385 156.766 90.4639 157.41 90.4639C158.083 90.4639 158.681 90.3385 159.204 90.0879C159.727 89.8372 160.167 89.4684 160.525 88.9814C160.891 88.4873 161.166 87.8822 161.353 87.166C161.539 86.4427 161.632 85.612 161.632 84.6738ZM178.347 84.2119V89.9375C178.153 90.224 177.845 90.5462 177.423 90.9043C177 91.2552 176.417 91.5632 175.672 91.8281C174.934 92.0859 173.982 92.2148 172.814 92.2148C171.862 92.2148 170.985 92.0501 170.183 91.7207C169.388 91.3841 168.697 90.8971 168.109 90.2598C167.529 89.6152 167.078 88.8346 166.756 87.918C166.441 86.9941 166.283 85.9486 166.283 84.7812V83.5674C166.283 82.4001 166.419 81.3581 166.691 80.4414C166.971 79.5247 167.379 78.7477 167.916 78.1104C168.453 77.4658 169.112 76.9788 169.893 76.6494C170.673 76.3128 171.568 76.1445 172.578 76.1445C173.774 76.1445 174.773 76.3522 175.575 76.7676C176.384 77.1758 177.015 77.7415 177.466 78.4648C177.924 79.1882 178.218 80.0117 178.347 80.9355H176.273C176.18 80.3698 175.994 79.8542 175.715 79.3887C175.443 78.9232 175.052 78.5508 174.544 78.2715C174.035 77.985 173.38 77.8418 172.578 77.8418C171.855 77.8418 171.228 77.9743 170.698 78.2393C170.168 78.5042 169.731 78.8838 169.388 79.3779C169.044 79.8721 168.786 80.4701 168.614 81.1719C168.45 81.8737 168.367 82.665 168.367 83.5459V84.7812C168.367 85.6836 168.471 86.4893 168.679 87.1982C168.894 87.9072 169.198 88.5124 169.592 89.0137C169.986 89.5078 170.455 89.8838 170.999 90.1416C171.55 90.3994 172.159 90.5283 172.825 90.5283C173.563 90.5283 174.161 90.4674 174.619 90.3457C175.077 90.2168 175.436 90.0664 175.693 89.8945C175.951 89.7155 176.148 89.5472 176.284 89.3896V85.8877H172.664V84.2119H178.347ZM193.826 83.6855V84.6738C193.826 85.8483 193.679 86.901 193.386 87.832C193.092 88.763 192.67 89.5544 192.118 90.2061C191.567 90.8577 190.904 91.3555 190.131 91.6992C189.365 92.043 188.505 92.2148 187.553 92.2148C186.629 92.2148 185.78 92.043 185.007 91.6992C184.241 91.3555 183.575 90.8577 183.009 90.2061C182.45 89.5544 182.017 88.763 181.709 87.832C181.401 86.901 181.247 85.8483 181.247 84.6738V83.6855C181.247 82.5111 181.397 81.4619 181.698 80.5381C182.006 79.6071 182.439 78.8158 182.998 78.1641C183.557 77.5052 184.219 77.0039 184.985 76.6602C185.759 76.3164 186.607 76.1445 187.531 76.1445C188.484 76.1445 189.343 76.3164 190.109 76.6602C190.883 77.0039 191.545 77.5052 192.097 78.1641C192.655 78.8158 193.081 79.6071 193.375 80.5381C193.676 81.4619 193.826 82.5111 193.826 83.6855ZM191.774 84.6738V83.6641C191.774 82.7331 191.678 81.9095 191.484 81.1934C191.298 80.4772 191.022 79.8757 190.657 79.3887C190.292 78.9017 189.844 78.5329 189.314 78.2822C188.792 78.0316 188.197 77.9062 187.531 77.9062C186.887 77.9062 186.303 78.0316 185.78 78.2822C185.265 78.5329 184.821 78.9017 184.448 79.3887C184.083 79.8757 183.8 80.4772 183.6 81.1934C183.399 81.9095 183.299 82.7331 183.299 83.6641V84.6738C183.299 85.612 183.399 86.4427 183.6 87.166C183.8 87.8822 184.087 88.4873 184.459 88.9814C184.839 89.4684 185.286 89.8372 185.802 90.0879C186.325 90.3385 186.908 90.4639 187.553 90.4639C188.226 90.4639 188.824 90.3385 189.347 90.0879C189.869 89.8372 190.31 89.4684 190.668 88.9814C191.033 88.4873 191.309 87.8822 191.495 87.166C191.681 86.4427 191.774 85.612 191.774 84.6738Z" fill="black"/>
<defs>
<filter id="filter0_d_822_2148" x="545.052" y="5.0459" width="106.19" height="106.163" filterUnits="userSpaceOnUse" color-interpolation-filters="sRGB">
<feFlood flood-opacity="0" result="BackgroundImageFix"/>
<feColorMatrix in="SourceAlpha" type="matrix" values="0 0 0 0 0 0 0 0 0 0 0 0 0 0 0 0 0 0 127 0" result="hardAlpha"/>
<feOffset/>
<feGaussianBlur stdDeviation="12"/>
<feComposite in2="hardAlpha" operator="out"/>
<feColorMatrix type="matrix" values="0 0 0 0 0.579167 0 0 0 0 0.579167 0 0 0 0 0.579167 0 0 0 0.3 0"/>
<feBlend mode="normal" in2="BackgroundImageFix" result="effect1_dropShadow_822_2148"/>
<feBlend mode="normal" in="SourceGraphic" in2="effect1_dropShadow_822_2148" result="shape"/>
</filter>
</defs>
</svg>
