<svg width="652" height="116" viewBox="0 0 652 116" fill="none" xmlns="http://www.w3.org/2000/svg">
<path d="M115.819 58.0358C115.819 26.0532 89.8924 0.138479 57.9097 0.153623C25.9271 0.168768 -3.92932e-06 26.108 -2.53132e-06 58.0907C-1.13331e-06 90.0733 25.9271 115.988 57.9097 115.973C89.8924 115.958 115.819 90.0185 115.819 58.0358Z" fill="#00A3FF"/>
<path d="M39.1035 38.8628H46.6035V80.8745H37.6094V50.2886H30.4023V44.5757C31.6914 44.4194 32.873 44.1167 33.9473 43.6675C35.0215 43.1987 35.8516 42.7007 36.4375 42.1733C37.043 41.646 37.5508 41.1382 37.9609 40.6499C38.3906 40.1421 38.6934 39.7124 38.8691 39.3608L39.1035 38.8628ZM76.6328 58.6675C76.8281 58.7456 77.0918 58.8628 77.4238 59.019C77.7754 59.1558 78.3809 59.5073 79.2402 60.0737C80.0996 60.6206 80.8516 61.2554 81.4961 61.978C82.1602 62.7007 82.7656 63.7065 83.3125 64.9956C83.8594 66.2651 84.1328 67.6616 84.1328 69.1851C84.1328 72.6226 82.6973 75.5815 79.8262 78.062C76.9746 80.5425 73.2051 81.7827 68.5176 81.7827C66.5254 81.7827 64.6016 81.5483 62.7461 81.0796C60.9102 80.6304 59.4062 80.0835 58.2344 79.439C57.0625 78.7944 56.0273 78.1597 55.1289 77.5347C54.25 76.8901 53.6152 76.3237 53.2246 75.8354L52.6094 75.1616L58.0293 69.478C58.1074 69.5952 58.2344 69.7612 58.4102 69.9761C58.5859 70.1714 58.9863 70.5327 59.6113 71.0601C60.2363 71.5679 60.8906 72.0269 61.5742 72.437C62.2773 72.8276 63.166 73.1792 64.2402 73.4917C65.334 73.8042 66.457 73.9604 67.6094 73.9604C69.9336 73.9604 71.7109 73.4526 72.9414 72.437C74.1914 71.4214 74.8164 70.1323 74.8164 68.5698C74.8164 67.0073 74.2012 65.7183 72.9707 64.7026C71.7598 63.687 70.0801 63.1792 67.9316 63.1792H63.4199V55.6792H67.6094C69.3672 55.6792 70.7539 55.2104 71.7695 54.2729C72.8047 53.3354 73.3223 52.105 73.3223 50.5815C73.3223 49.1753 72.8145 48.0229 71.7988 47.1245C70.7832 46.2261 69.3867 45.7769 67.6094 45.7769C66.0859 45.7769 64.6504 46.1089 63.3027 46.7729C61.9746 47.437 61.0176 48.0815 60.4316 48.7065L59.5234 49.6733L54.1328 44.2827C54.25 44.1265 54.4258 43.9116 54.6602 43.6382C54.8945 43.3452 55.4512 42.8276 56.3301 42.0854C57.2285 41.3433 58.1855 40.7085 59.2012 40.1812C60.2168 39.6343 61.5645 39.1362 63.2441 38.687C64.9238 38.2183 66.6816 37.9839 68.5176 37.9839C72.7559 37.9839 76.1641 39.1069 78.7422 41.353C81.3203 43.5796 82.6094 46.353 82.6094 49.6733C82.6094 50.9038 82.3945 52.0562 81.9648 53.1304C81.5547 54.1851 81.0566 55.0444 80.4707 55.7085C79.9043 56.3726 79.3281 56.939 78.7422 57.4077C78.1758 57.8569 77.668 58.1792 77.2188 58.3745L76.6328 58.6675Z" fill="white"/>
<path d="M476 57.9604L594 57.9604" stroke="#00A3FF" stroke-miterlimit="10" stroke-linecap="round"/>
<g filter="url(#filter0_d_822_2147)">
<path d="M618.721 78.6917C630.083 67.3347 630.083 48.9212 618.721 37.5641C607.358 26.207 588.936 26.207 577.574 37.5641C566.211 48.9212 566.211 67.3347 577.574 78.6917C588.936 90.0488 607.358 90.0488 618.721 78.6917Z" fill="white"/>
</g>
<path d="M607.241 58.1249C607.246 59.8475 606.741 61.5332 605.789 62.9692C604.837 64.4053 603.481 65.5274 601.892 66.194C600.302 66.8606 598.551 67.0419 596.859 66.7151C595.167 66.3882 593.61 65.5678 592.383 64.3573C591.157 63.1468 590.317 61.6004 589.969 59.9133C589.621 58.2261 589.78 56.4737 590.427 54.8771C591.075 53.2804 592.18 51.9111 593.605 50.9418C595.03 49.9724 596.71 49.4465 598.433 49.4304C599.585 49.4159 600.727 49.6302 601.795 50.0606C602.863 50.4911 603.835 51.1293 604.655 51.9381C605.474 52.7469 606.124 53.7102 606.568 54.7723C607.012 55.8343 607.241 56.9739 607.241 58.1249Z" fill="#00A3FF"/>
<path d="M598.542 61.5317C600.425 61.5317 601.951 60.0063 601.951 58.1247C601.951 56.2431 600.425 54.7178 598.542 54.7178C596.66 54.7178 595.134 56.2431 595.134 58.1247C595.134 60.0063 596.66 61.5317 598.542 61.5317Z" fill="white"/>
<path d="M478.452 58.1247C478.457 59.8508 477.95 61.5398 476.994 62.9776C476.039 64.4155 474.678 65.5376 473.084 66.2019C471.49 66.8663 469.735 67.0429 468.04 66.7094C466.346 66.376 464.789 65.5475 463.565 64.3288C462.342 63.1101 461.509 61.5561 461.17 59.8635C460.831 58.1709 461.002 56.4159 461.662 54.8206C462.321 53.2253 463.44 51.8615 464.875 50.902C466.311 49.9424 467.999 49.4302 469.726 49.4302C472.035 49.4302 474.251 50.3453 475.886 51.9751C477.522 53.6048 478.445 55.8162 478.452 58.1247Z" fill="#00A3FF"/>
<path d="M469.753 61.5317C471.636 61.5317 473.162 60.0063 473.162 58.1247C473.162 56.2431 471.636 54.7178 469.753 54.7178C467.871 54.7178 466.345 56.2431 466.345 58.1247C466.345 60.0063 467.871 61.5317 469.753 61.5317Z" fill="white"/>
<path d="M140.985 37.3599V53.0005H138.912V37.3599H140.985ZM150.621 37.3599L143.832 45.9644H140.158L139.836 44.2456H142.597L148.054 37.3599H150.621ZM148.537 53.0005L142.661 45.6958L143.821 43.8804L151.072 53.0005H148.537ZM154.381 43.6118V57.4692H152.383V41.3774H154.209L154.381 43.6118ZM162.212 47.0923V47.3179C162.212 48.1629 162.112 48.9471 161.911 49.6704C161.711 50.3866 161.417 51.0096 161.03 51.5396C160.651 52.0695 160.182 52.4813 159.623 52.7749C159.064 53.0685 158.424 53.2153 157.7 53.2153C156.963 53.2153 156.311 53.0936 155.745 52.8501C155.179 52.6066 154.7 52.2521 154.306 51.7866C153.912 51.3211 153.597 50.7625 153.36 50.1108C153.131 49.4591 152.974 48.7251 152.888 47.9087V46.7056C152.974 45.8462 153.135 45.0763 153.371 44.396C153.607 43.7157 153.919 43.1356 154.306 42.6558C154.7 42.1688 155.176 41.8 155.734 41.5493C156.293 41.2915 156.938 41.1626 157.668 41.1626C158.398 41.1626 159.047 41.3058 159.612 41.5923C160.178 41.8716 160.654 42.2726 161.041 42.7954C161.428 43.3182 161.718 43.9448 161.911 44.6753C162.112 45.3986 162.212 46.2043 162.212 47.0923ZM160.214 47.3179V47.0923C160.214 46.5122 160.153 45.9679 160.031 45.4595C159.91 44.9438 159.72 44.4927 159.462 44.106C159.211 43.7121 158.889 43.4041 158.495 43.1821C158.101 42.953 157.632 42.8384 157.088 42.8384C156.587 42.8384 156.15 42.9243 155.777 43.0962C155.412 43.2681 155.101 43.5008 154.843 43.7944C154.585 44.0809 154.374 44.4103 154.209 44.7827C154.051 45.1479 153.933 45.5275 153.854 45.9214V48.7036C153.998 49.2049 154.198 49.6776 154.456 50.1216C154.714 50.5584 155.058 50.9129 155.487 51.1851C155.917 51.45 156.458 51.5825 157.109 51.5825C157.646 51.5825 158.108 51.4715 158.495 51.2495C158.889 51.0203 159.211 50.7088 159.462 50.3149C159.72 49.9211 159.91 49.4699 160.031 48.9614C160.153 48.4458 160.214 47.8979 160.214 47.3179ZM171.601 51.0132V45.0298C171.601 44.5715 171.507 44.174 171.321 43.8374C171.142 43.4937 170.87 43.2287 170.505 43.0425C170.14 42.8563 169.688 42.7632 169.151 42.7632C168.65 42.7632 168.21 42.8491 167.83 43.021C167.458 43.1929 167.164 43.4185 166.949 43.6978C166.742 43.9771 166.638 44.2778 166.638 44.6001H164.65C164.65 44.1847 164.758 43.7729 164.973 43.3647C165.188 42.9565 165.495 42.5877 165.896 42.2583C166.305 41.9217 166.792 41.6567 167.357 41.4634C167.93 41.2629 168.568 41.1626 169.27 41.1626C170.115 41.1626 170.859 41.3058 171.504 41.5923C172.156 41.8787 172.664 42.312 173.029 42.8921C173.402 43.465 173.588 44.1847 173.588 45.0513V50.4653C173.588 50.8521 173.62 51.2638 173.685 51.7007C173.756 52.1375 173.86 52.5135 173.996 52.8286V53.0005H171.923C171.823 52.7713 171.744 52.467 171.687 52.0874C171.629 51.7007 171.601 51.3426 171.601 51.0132ZM171.944 45.9536L171.966 47.3501H169.957C169.391 47.3501 168.886 47.3966 168.442 47.4897C167.998 47.5757 167.626 47.7082 167.325 47.8872C167.024 48.0662 166.795 48.2918 166.638 48.564C166.48 48.8289 166.401 49.1405 166.401 49.4985C166.401 49.8638 166.484 50.1968 166.648 50.4976C166.813 50.7983 167.06 51.0382 167.39 51.2173C167.726 51.3892 168.138 51.4751 168.625 51.4751C169.234 51.4751 169.771 51.3462 170.236 51.0884C170.702 50.8306 171.071 50.5155 171.343 50.1431C171.622 49.7707 171.772 49.409 171.794 49.0581L172.643 50.0142C172.592 50.3149 172.456 50.6479 172.234 51.0132C172.012 51.3784 171.715 51.7293 171.343 52.0659C170.978 52.3953 170.541 52.6711 170.032 52.8931C169.531 53.1079 168.965 53.2153 168.335 53.2153C167.547 53.2153 166.856 53.0614 166.262 52.7534C165.674 52.4455 165.216 52.0337 164.887 51.5181C164.564 50.9953 164.403 50.4116 164.403 49.7671C164.403 49.144 164.525 48.5962 164.769 48.1235C165.012 47.6437 165.363 47.2463 165.821 46.9312C166.28 46.6089 166.831 46.3654 167.476 46.2007C168.12 46.036 168.84 45.9536 169.635 45.9536H171.944ZM181.279 41.3774V53.0005H179.281V41.3774H181.279ZM185.179 41.3774V42.9888H175.457V41.3774H185.179ZM195.019 46.4155V48.0269H188.874V46.4155H195.019ZM189.293 41.3774V53.0005H187.306V41.3774H189.293ZM196.63 41.3774V53.0005H194.632V41.3774H196.63ZM199.305 47.3179V47.0708C199.305 46.2329 199.426 45.4559 199.67 44.7397C199.913 44.0164 200.264 43.3898 200.723 42.8599C201.181 42.3228 201.736 41.9074 202.388 41.6138C203.039 41.313 203.77 41.1626 204.579 41.1626C205.396 41.1626 206.13 41.313 206.781 41.6138C207.44 41.9074 207.999 42.3228 208.457 42.8599C208.923 43.3898 209.277 44.0164 209.521 44.7397C209.764 45.4559 209.886 46.2329 209.886 47.0708V47.3179C209.886 48.1558 209.764 48.9328 209.521 49.6489C209.277 50.3651 208.923 50.9917 208.457 51.5288C207.999 52.0588 207.444 52.4741 206.792 52.7749C206.147 53.0685 205.417 53.2153 204.601 53.2153C203.784 53.2153 203.05 53.0685 202.398 52.7749C201.747 52.4741 201.188 52.0588 200.723 51.5288C200.264 50.9917 199.913 50.3651 199.67 49.6489C199.426 48.9328 199.305 48.1558 199.305 47.3179ZM201.292 47.0708V47.3179C201.292 47.8979 201.36 48.4458 201.496 48.9614C201.632 49.4699 201.836 49.9211 202.108 50.3149C202.388 50.7088 202.735 51.0203 203.15 51.2495C203.566 51.4715 204.049 51.5825 204.601 51.5825C205.145 51.5825 205.621 51.4715 206.029 51.2495C206.445 51.0203 206.788 50.7088 207.061 50.3149C207.333 49.9211 207.537 49.4699 207.673 48.9614C207.816 48.4458 207.888 47.8979 207.888 47.3179V47.0708C207.888 46.4979 207.816 45.9572 207.673 45.4487C207.537 44.9331 207.329 44.4784 207.05 44.0845C206.778 43.6834 206.434 43.3683 206.019 43.1392C205.61 42.91 205.131 42.7954 204.579 42.7954C204.035 42.7954 203.555 42.91 203.14 43.1392C202.731 43.3683 202.388 43.6834 202.108 44.0845C201.836 44.4784 201.632 44.9331 201.496 45.4487C201.36 45.9572 201.292 46.4979 201.292 47.0708ZM217.201 53.2153C216.392 53.2153 215.658 53.0793 214.999 52.8071C214.347 52.5278 213.785 52.1375 213.312 51.6362C212.847 51.1349 212.489 50.5405 212.238 49.853C211.988 49.1655 211.862 48.4136 211.862 47.5972V47.146C211.862 46.2007 212.002 45.3592 212.281 44.6216C212.561 43.8768 212.94 43.2466 213.42 42.731C213.9 42.2153 214.444 41.825 215.053 41.5601C215.661 41.2951 216.292 41.1626 216.943 41.1626C217.774 41.1626 218.49 41.3058 219.092 41.5923C219.701 41.8787 220.198 42.2798 220.585 42.7954C220.972 43.3039 221.258 43.9054 221.444 44.6001C221.631 45.2876 221.724 46.0396 221.724 46.856V47.7476H213.044V46.1255H219.736V45.9751C219.708 45.4595 219.6 44.9582 219.414 44.4712C219.235 43.9842 218.949 43.5832 218.555 43.2681C218.161 42.953 217.624 42.7954 216.943 42.7954C216.492 42.7954 216.077 42.8921 215.697 43.0854C215.318 43.2716 214.992 43.5509 214.72 43.9233C214.448 44.2957 214.236 44.7505 214.086 45.2876C213.936 45.8247 213.86 46.4442 213.86 47.146V47.5972C213.86 48.1486 213.936 48.6678 214.086 49.1548C214.243 49.6346 214.469 50.0571 214.763 50.4224C215.063 50.7876 215.425 51.0741 215.848 51.2817C216.277 51.4894 216.764 51.5933 217.309 51.5933C218.01 51.5933 218.605 51.45 219.092 51.1636C219.579 50.8771 220.005 50.494 220.37 50.0142L221.573 50.9702C221.323 51.3498 221.004 51.7114 220.617 52.0552C220.23 52.3989 219.754 52.6782 219.188 52.8931C218.63 53.1079 217.967 53.2153 217.201 53.2153ZM236.183 50.3579L240.136 41.3774H242.048L236.87 53.0005H235.495L230.339 41.3774H232.251L236.183 50.3579ZM231.671 41.3774V53.0005H229.684V41.3774H231.671ZM240.63 53.0005V41.3774H242.628V53.0005H240.63ZM252.683 51.0132V45.0298C252.683 44.5715 252.59 44.174 252.403 43.8374C252.224 43.4937 251.952 43.2287 251.587 43.0425C251.222 42.8563 250.771 42.7632 250.233 42.7632C249.732 42.7632 249.292 42.8491 248.912 43.021C248.54 43.1929 248.246 43.4185 248.031 43.6978C247.824 43.9771 247.72 44.2778 247.72 44.6001H245.732C245.732 44.1847 245.84 43.7729 246.055 43.3647C246.27 42.9565 246.577 42.5877 246.979 42.2583C247.387 41.9217 247.874 41.6567 248.439 41.4634C249.012 41.2629 249.65 41.1626 250.352 41.1626C251.197 41.1626 251.941 41.3058 252.586 41.5923C253.238 41.8787 253.746 42.312 254.111 42.8921C254.484 43.465 254.67 44.1847 254.67 45.0513V50.4653C254.67 50.8521 254.702 51.2638 254.767 51.7007C254.838 52.1375 254.942 52.5135 255.078 52.8286V53.0005H253.005C252.905 52.7713 252.826 52.467 252.769 52.0874C252.711 51.7007 252.683 51.3426 252.683 51.0132ZM253.026 45.9536L253.048 47.3501H251.039C250.473 47.3501 249.968 47.3966 249.524 47.4897C249.08 47.5757 248.708 47.7082 248.407 47.8872C248.106 48.0662 247.877 48.2918 247.72 48.564C247.562 48.8289 247.483 49.1405 247.483 49.4985C247.483 49.8638 247.566 50.1968 247.73 50.4976C247.895 50.7983 248.142 51.0382 248.472 51.2173C248.808 51.3892 249.22 51.4751 249.707 51.4751C250.316 51.4751 250.853 51.3462 251.318 51.0884C251.784 50.8306 252.153 50.5155 252.425 50.1431C252.704 49.7707 252.854 49.409 252.876 49.0581L253.725 50.0142C253.674 50.3149 253.538 50.6479 253.316 51.0132C253.094 51.3784 252.797 51.7293 252.425 52.0659C252.06 52.3953 251.623 52.6711 251.114 52.8931C250.613 53.1079 250.047 53.2153 249.417 53.2153C248.629 53.2153 247.938 53.0614 247.344 52.7534C246.757 52.4455 246.298 52.0337 245.969 51.5181C245.646 50.9953 245.485 50.4116 245.485 49.7671C245.485 49.144 245.607 48.5962 245.851 48.1235C246.094 47.6437 246.445 47.2463 246.903 46.9312C247.362 46.6089 247.913 46.3654 248.558 46.2007C249.202 46.036 249.922 45.9536 250.717 45.9536H253.026ZM262.447 51.5825C262.92 51.5825 263.357 51.4858 263.758 51.2925C264.159 51.0991 264.488 50.8341 264.746 50.4976C265.004 50.1538 265.151 49.7635 265.187 49.3267H267.077C267.041 50.0142 266.809 50.6551 266.379 51.2495C265.956 51.8368 265.401 52.313 264.714 52.6782C264.026 53.0363 263.271 53.2153 262.447 53.2153C261.574 53.2153 260.811 53.0614 260.159 52.7534C259.515 52.4455 258.978 52.0229 258.548 51.4858C258.125 50.9487 257.807 50.3328 257.592 49.6382C257.384 48.9364 257.28 48.1951 257.28 47.4146V46.9634C257.28 46.1828 257.384 45.4451 257.592 44.7505C257.807 44.0487 258.125 43.4292 258.548 42.8921C258.978 42.355 259.515 41.9325 260.159 41.6245C260.811 41.3166 261.574 41.1626 262.447 41.1626C263.357 41.1626 264.152 41.3488 264.832 41.7212C265.512 42.0864 266.046 42.5877 266.433 43.2251C266.826 43.8553 267.041 44.5715 267.077 45.3735H265.187C265.151 44.8937 265.015 44.4604 264.778 44.0737C264.549 43.687 264.234 43.3791 263.833 43.1499C263.439 42.9136 262.977 42.7954 262.447 42.7954C261.839 42.7954 261.326 42.9172 260.911 43.1606C260.503 43.397 260.177 43.7192 259.934 44.1274C259.697 44.5285 259.525 44.9761 259.418 45.4702C259.318 45.9572 259.268 46.4549 259.268 46.9634V47.4146C259.268 47.923 259.318 48.4243 259.418 48.9185C259.518 49.4126 259.687 49.8602 259.923 50.2612C260.166 50.6623 260.492 50.9845 260.9 51.228C261.316 51.4644 261.831 51.5825 262.447 51.5825ZM269.483 41.3774H271.471V51.3677H275.725V41.3774H277.723V51.3677H281.966V41.3774H283.953V53.0005H269.483V41.3774ZM291.859 41.3774V53.0005H289.861V41.3774H291.859ZM295.759 41.3774V42.9888H286.037V41.3774H295.759ZM304.396 51.0132V45.0298C304.396 44.5715 304.302 44.174 304.116 43.8374C303.937 43.4937 303.665 43.2287 303.3 43.0425C302.935 42.8563 302.483 42.7632 301.946 42.7632C301.445 42.7632 301.005 42.8491 300.625 43.021C300.253 43.1929 299.959 43.4185 299.744 43.6978C299.536 43.9771 299.433 44.2778 299.433 44.6001H297.445C297.445 44.1847 297.553 43.7729 297.768 43.3647C297.982 42.9565 298.29 42.5877 298.691 42.2583C299.1 41.9217 299.587 41.6567 300.152 41.4634C300.725 41.2629 301.363 41.1626 302.064 41.1626C302.91 41.1626 303.654 41.3058 304.299 41.5923C304.951 41.8787 305.459 42.312 305.824 42.8921C306.197 43.465 306.383 44.1847 306.383 45.0513V50.4653C306.383 50.8521 306.415 51.2638 306.479 51.7007C306.551 52.1375 306.655 52.5135 306.791 52.8286V53.0005H304.718C304.618 52.7713 304.539 52.467 304.481 52.0874C304.424 51.7007 304.396 51.3426 304.396 51.0132ZM304.739 45.9536L304.761 47.3501H302.752C302.186 47.3501 301.681 47.3966 301.237 47.4897C300.793 47.5757 300.421 47.7082 300.12 47.8872C299.819 48.0662 299.59 48.2918 299.433 48.564C299.275 48.8289 299.196 49.1405 299.196 49.4985C299.196 49.8638 299.279 50.1968 299.443 50.4976C299.608 50.7983 299.855 51.0382 300.185 51.2173C300.521 51.3892 300.933 51.4751 301.42 51.4751C302.029 51.4751 302.566 51.3462 303.031 51.0884C303.497 50.8306 303.866 50.5155 304.138 50.1431C304.417 49.7707 304.567 49.409 304.589 49.0581L305.438 50.0142C305.387 50.3149 305.251 50.6479 305.029 51.0132C304.807 51.3784 304.51 51.7293 304.138 52.0659C303.772 52.3953 303.336 52.6711 302.827 52.8931C302.326 53.1079 301.76 53.2153 301.13 53.2153C300.342 53.2153 299.651 53.0614 299.057 52.7534C298.469 52.4455 298.011 52.0337 297.682 51.5181C297.359 50.9953 297.198 50.4116 297.198 49.7671C297.198 49.144 297.32 48.5962 297.563 48.1235C297.807 47.6437 298.158 47.2463 298.616 46.9312C299.075 46.6089 299.626 46.3654 300.271 46.2007C300.915 46.036 301.635 45.9536 302.43 45.9536H304.739ZM316.964 36.3179H318.597C318.597 37.0197 318.489 37.5783 318.274 37.9937C318.06 38.4019 317.766 38.717 317.394 38.939C317.028 39.161 316.613 39.3293 316.147 39.4438C315.689 39.5584 315.213 39.6694 314.719 39.7769C314.103 39.9058 313.53 40.1099 313 40.3892C312.477 40.6613 312.026 41.048 311.646 41.5493C311.274 42.0506 310.998 42.7023 310.819 43.5044C310.647 44.3065 310.601 45.2983 310.68 46.48V47.4683H309.047V46.48C309.047 45.1551 309.172 43.9985 309.423 43.0103C309.681 42.022 310.042 41.1877 310.508 40.5073C310.973 39.827 311.525 39.2863 312.162 38.8853C312.807 38.4842 313.516 38.2085 314.289 38.0581C314.848 37.9507 315.327 37.8361 315.729 37.7144C316.13 37.5854 316.434 37.4136 316.642 37.1987C316.856 36.9839 316.964 36.6903 316.964 36.3179ZM314.611 42.0435C315.37 42.0435 316.047 42.1759 316.642 42.4409C317.236 42.7059 317.741 43.0747 318.156 43.5474C318.572 44.02 318.887 44.5786 319.102 45.2231C319.324 45.8605 319.435 46.5552 319.435 47.3071V47.5435C319.435 48.3527 319.316 49.1047 319.08 49.7993C318.851 50.4868 318.511 51.0884 318.06 51.604C317.616 52.1125 317.071 52.5099 316.427 52.7964C315.789 53.0828 315.062 53.2261 314.246 53.2261C313.43 53.2261 312.699 53.0828 312.055 52.7964C311.417 52.5099 310.873 52.1125 310.422 51.604C309.971 51.0884 309.627 50.4868 309.391 49.7993C309.161 49.1047 309.047 48.3527 309.047 47.5435V47.3071C309.047 47.1281 309.079 46.9526 309.144 46.7808C309.208 46.6089 309.287 46.4334 309.38 46.2544C309.48 46.0754 309.57 45.8856 309.648 45.6851C309.913 45.0405 310.275 44.4425 310.733 43.8911C311.199 43.3397 311.754 42.8957 312.398 42.5591C313.05 42.2153 313.788 42.0435 314.611 42.0435ZM314.225 43.6655C313.494 43.6655 312.893 43.8338 312.42 44.1704C311.954 44.507 311.607 44.9546 311.378 45.5132C311.149 46.0646 311.034 46.6626 311.034 47.3071V47.5435C311.034 48.0877 311.099 48.6034 311.228 49.0903C311.356 49.5773 311.55 50.0106 311.808 50.3901C312.073 50.7625 312.406 51.0562 312.807 51.271C313.215 51.4858 313.695 51.5933 314.246 51.5933C314.798 51.5933 315.274 51.4858 315.675 51.271C316.076 51.0562 316.405 50.7625 316.663 50.3901C316.921 50.0106 317.114 49.5773 317.243 49.0903C317.372 48.6034 317.437 48.0877 317.437 47.5435V47.3071C317.437 46.8201 317.372 46.3582 317.243 45.9214C317.114 45.4845 316.917 45.0978 316.652 44.7612C316.395 44.4246 316.062 44.1597 315.653 43.9663C315.252 43.7658 314.776 43.6655 314.225 43.6655ZM323.646 49.853L329.006 41.3774H331.004V53.0005H329.006V44.5249L323.646 53.0005H321.669V41.3774H323.646V49.853ZM336.182 43.6118V57.4692H334.184V41.3774H336.01L336.182 43.6118ZM344.013 47.0923V47.3179C344.013 48.1629 343.912 48.9471 343.712 49.6704C343.511 50.3866 343.218 51.0096 342.831 51.5396C342.451 52.0695 341.982 52.4813 341.424 52.7749C340.865 53.0685 340.224 53.2153 339.501 53.2153C338.763 53.2153 338.112 53.0936 337.546 52.8501C336.98 52.6066 336.5 52.2521 336.106 51.7866C335.713 51.3211 335.397 50.7625 335.161 50.1108C334.932 49.4591 334.774 48.7251 334.688 47.9087V46.7056C334.774 45.8462 334.936 45.0763 335.172 44.396C335.408 43.7157 335.72 43.1356 336.106 42.6558C336.5 42.1688 336.977 41.8 337.535 41.5493C338.094 41.2915 338.738 41.1626 339.469 41.1626C340.199 41.1626 340.847 41.3058 341.413 41.5923C341.979 41.8716 342.455 42.2726 342.842 42.7954C343.229 43.3182 343.519 43.9448 343.712 44.6753C343.912 45.3986 344.013 46.2043 344.013 47.0923ZM342.015 47.3179V47.0923C342.015 46.5122 341.954 45.9679 341.832 45.4595C341.71 44.9438 341.521 44.4927 341.263 44.106C341.012 43.7121 340.69 43.4041 340.296 43.1821C339.902 42.953 339.433 42.8384 338.889 42.8384C338.387 42.8384 337.951 42.9243 337.578 43.0962C337.213 43.2681 336.901 43.5008 336.644 43.7944C336.386 44.0809 336.174 44.4103 336.01 44.7827C335.852 45.1479 335.734 45.5275 335.655 45.9214V48.7036C335.799 49.2049 335.999 49.6776 336.257 50.1216C336.515 50.5584 336.858 50.9129 337.288 51.1851C337.718 51.45 338.258 51.5825 338.91 51.5825C339.447 51.5825 339.909 51.4715 340.296 51.2495C340.69 51.0203 341.012 50.7088 341.263 50.3149C341.521 49.9211 341.71 49.4699 341.832 48.9614C341.954 48.4458 342.015 47.8979 342.015 47.3179ZM346.021 47.3179V47.0708C346.021 46.2329 346.143 45.4559 346.387 44.7397C346.63 44.0164 346.981 43.3898 347.439 42.8599C347.898 42.3228 348.453 41.9074 349.104 41.6138C349.756 41.313 350.487 41.1626 351.296 41.1626C352.112 41.1626 352.846 41.313 353.498 41.6138C354.157 41.9074 354.715 42.3228 355.174 42.8599C355.639 43.3898 355.994 44.0164 356.237 44.7397C356.481 45.4559 356.603 46.2329 356.603 47.0708V47.3179C356.603 48.1558 356.481 48.9328 356.237 49.6489C355.994 50.3651 355.639 50.9917 355.174 51.5288C354.715 52.0588 354.16 52.4741 353.509 52.7749C352.864 53.0685 352.134 53.2153 351.317 53.2153C350.501 53.2153 349.767 53.0685 349.115 52.7749C348.464 52.4741 347.905 52.0588 347.439 51.5288C346.981 50.9917 346.63 50.3651 346.387 49.6489C346.143 48.9328 346.021 48.1558 346.021 47.3179ZM348.009 47.0708V47.3179C348.009 47.8979 348.077 48.4458 348.213 48.9614C348.349 49.4699 348.553 49.9211 348.825 50.3149C349.104 50.7088 349.452 51.0203 349.867 51.2495C350.283 51.4715 350.766 51.5825 351.317 51.5825C351.862 51.5825 352.338 51.4715 352.746 51.2495C353.161 51.0203 353.505 50.7088 353.777 50.3149C354.049 49.9211 354.254 49.4699 354.39 48.9614C354.533 48.4458 354.604 47.8979 354.604 47.3179V47.0708C354.604 46.4979 354.533 45.9572 354.39 45.4487C354.254 44.9331 354.046 44.4784 353.767 44.0845C353.494 43.6834 353.151 43.3683 352.735 43.1392C352.327 42.91 351.847 42.7954 351.296 42.7954C350.752 42.7954 350.272 42.91 349.856 43.1392C349.448 43.3683 349.104 43.6834 348.825 44.0845C348.553 44.4784 348.349 44.9331 348.213 45.4487C348.077 45.9572 348.009 46.4979 348.009 47.0708ZM364.552 47.8872H360.738L360.717 46.2974H363.832C364.448 46.2974 364.96 46.2365 365.368 46.1147C365.784 45.993 366.095 45.8104 366.303 45.5669C366.51 45.3234 366.614 45.0226 366.614 44.6646C366.614 44.3853 366.553 44.1418 366.432 43.9341C366.317 43.7192 366.142 43.5438 365.905 43.4077C365.669 43.2645 365.375 43.1606 365.024 43.0962C364.681 43.0246 364.276 42.9888 363.811 42.9888H361.265V53.0005H359.277V41.3774H363.811C364.548 41.3774 365.211 41.4419 365.798 41.5708C366.392 41.6997 366.897 41.8966 367.312 42.1616C367.735 42.4194 368.057 42.7489 368.279 43.1499C368.501 43.5509 368.612 44.0236 368.612 44.5679C368.612 44.9188 368.541 45.2518 368.397 45.5669C368.254 45.882 368.043 46.1613 367.764 46.4048C367.484 46.6483 367.141 46.8488 366.732 47.0063C366.324 47.1567 365.855 47.2534 365.325 47.2964L364.552 47.8872ZM364.552 53.0005H360.019L361.007 51.3892H364.552C365.103 51.3892 365.562 51.3211 365.927 51.1851C366.292 51.0418 366.564 50.8413 366.743 50.5835C366.929 50.3185 367.022 50.0034 367.022 49.6382C367.022 49.2729 366.929 48.9614 366.743 48.7036C366.564 48.4386 366.292 48.2381 365.927 48.1021C365.562 47.9588 365.103 47.8872 364.552 47.8872H361.533L361.555 46.2974H365.325L366.045 46.8989C366.682 46.9491 367.223 47.1066 367.667 47.3716C368.111 47.6366 368.448 47.9731 368.677 48.3813C368.906 48.7824 369.021 49.2192 369.021 49.6919C369.021 50.2362 368.917 50.716 368.709 51.1313C368.508 51.5467 368.215 51.894 367.828 52.1733C367.441 52.4455 366.972 52.6532 366.421 52.7964C365.869 52.9325 365.246 53.0005 364.552 53.0005ZM378.538 51.0132V45.0298C378.538 44.5715 378.445 44.174 378.259 43.8374C378.08 43.4937 377.808 43.2287 377.442 43.0425C377.077 42.8563 376.626 42.7632 376.089 42.7632C375.588 42.7632 375.147 42.8491 374.768 43.021C374.395 43.1929 374.102 43.4185 373.887 43.6978C373.679 43.9771 373.575 44.2778 373.575 44.6001H371.588C371.588 44.1847 371.695 43.7729 371.91 43.3647C372.125 42.9565 372.433 42.5877 372.834 42.2583C373.242 41.9217 373.729 41.6567 374.295 41.4634C374.868 41.2629 375.505 41.1626 376.207 41.1626C377.052 41.1626 377.797 41.3058 378.441 41.5923C379.093 41.8787 379.602 42.312 379.967 42.8921C380.339 43.465 380.525 44.1847 380.525 45.0513V50.4653C380.525 50.8521 380.558 51.2638 380.622 51.7007C380.694 52.1375 380.798 52.5135 380.934 52.8286V53.0005H378.86C378.76 52.7713 378.681 52.467 378.624 52.0874C378.567 51.7007 378.538 51.3426 378.538 51.0132ZM378.882 45.9536L378.903 47.3501H376.895C376.329 47.3501 375.824 47.3966 375.38 47.4897C374.936 47.5757 374.563 47.7082 374.263 47.8872C373.962 48.0662 373.733 48.2918 373.575 48.564C373.418 48.8289 373.339 49.1405 373.339 49.4985C373.339 49.8638 373.421 50.1968 373.586 50.4976C373.751 50.7983 373.998 51.0382 374.327 51.2173C374.664 51.3892 375.076 51.4751 375.562 51.4751C376.171 51.4751 376.708 51.3462 377.174 51.0884C377.639 50.8306 378.008 50.5155 378.28 50.1431C378.56 49.7707 378.71 49.409 378.731 49.0581L379.58 50.0142C379.53 50.3149 379.394 50.6479 379.172 51.0132C378.95 51.3784 378.653 51.7293 378.28 52.0659C377.915 52.3953 377.478 52.6711 376.97 52.8931C376.468 53.1079 375.903 53.2153 375.272 53.2153C374.485 53.2153 373.794 53.0614 373.199 52.7534C372.612 52.4455 372.154 52.0337 371.824 51.5181C371.502 50.9953 371.341 50.4116 371.341 49.7671C371.341 49.144 371.463 48.5962 371.706 48.1235C371.95 47.6437 372.3 47.2463 372.759 46.9312C373.217 46.6089 373.769 46.3654 374.413 46.2007C375.058 46.036 375.777 45.9536 376.572 45.9536H378.882ZM391.536 46.4155V48.0269H385.392V46.4155H391.536ZM385.811 41.3774V53.0005H383.823V41.3774H385.811ZM393.147 41.3774V53.0005H391.149V41.3774H393.147ZM398.497 49.853L403.857 41.3774H405.855V53.0005H403.857V44.5249L398.497 53.0005H396.521V41.3774H398.497V49.853ZM413.869 53.2153C413.06 53.2153 412.326 53.0793 411.667 52.8071C411.015 52.5278 410.453 52.1375 409.98 51.6362C409.515 51.1349 409.157 50.5405 408.906 49.853C408.656 49.1655 408.53 48.4136 408.53 47.5972V47.146C408.53 46.2007 408.67 45.3592 408.949 44.6216C409.229 43.8768 409.608 43.2466 410.088 42.731C410.568 42.2153 411.112 41.825 411.721 41.5601C412.329 41.2951 412.96 41.1626 413.611 41.1626C414.442 41.1626 415.158 41.3058 415.76 41.5923C416.368 41.8787 416.866 42.2798 417.253 42.7954C417.64 43.3039 417.926 43.9054 418.112 44.6001C418.299 45.2876 418.392 46.0396 418.392 46.856V47.7476H409.712V46.1255H416.404V45.9751C416.376 45.4595 416.268 44.9582 416.082 44.4712C415.903 43.9842 415.617 43.5832 415.223 43.2681C414.829 42.953 414.292 42.7954 413.611 42.7954C413.16 42.7954 412.745 42.8921 412.365 43.0854C411.986 43.2716 411.66 43.5509 411.388 43.9233C411.116 44.2957 410.904 44.7505 410.754 45.2876C410.604 45.8247 410.528 46.4442 410.528 47.146V47.5972C410.528 48.1486 410.604 48.6678 410.754 49.1548C410.911 49.6346 411.137 50.0571 411.431 50.4224C411.731 50.7876 412.093 51.0741 412.516 51.2817C412.945 51.4894 413.432 51.5933 413.977 51.5933C414.678 51.5933 415.273 51.45 415.76 51.1636C416.247 50.8771 416.673 50.494 417.038 50.0142L418.241 50.9702C417.991 51.3498 417.672 51.7114 417.285 52.0552C416.898 52.3989 416.422 52.6782 415.856 52.8931C415.298 53.1079 414.635 53.2153 413.869 53.2153ZM146.399 72.4155V74.0269H140.255V72.4155H146.399ZM140.674 67.3774V79.0005H138.687V67.3774H140.674ZM148.011 67.3774V79.0005H146.013V67.3774H148.011ZM158.065 77.0132V71.0298C158.065 70.5715 157.972 70.174 157.786 69.8374C157.607 69.4937 157.335 69.2287 156.97 69.0425C156.604 68.8563 156.153 68.7632 155.616 68.7632C155.115 68.7632 154.674 68.8491 154.295 69.021C153.923 69.1929 153.629 69.4185 153.414 69.6978C153.206 69.9771 153.103 70.2778 153.103 70.6001H151.115C151.115 70.1847 151.223 69.7729 151.438 69.3647C151.652 68.9565 151.96 68.5877 152.361 68.2583C152.77 67.9217 153.257 67.6567 153.822 67.4634C154.395 67.2629 155.033 67.1626 155.734 67.1626C156.579 67.1626 157.324 67.3058 157.969 67.5923C158.62 67.8787 159.129 68.312 159.494 68.8921C159.867 69.465 160.053 70.1847 160.053 71.0513V76.4653C160.053 76.8521 160.085 77.2638 160.149 77.7007C160.221 78.1375 160.325 78.5135 160.461 78.8286V79.0005H158.388C158.287 78.7713 158.209 78.467 158.151 78.0874C158.094 77.7007 158.065 77.3426 158.065 77.0132ZM158.409 71.9536L158.431 73.3501H156.422C155.856 73.3501 155.351 73.3966 154.907 73.4897C154.463 73.5757 154.091 73.7082 153.79 73.8872C153.489 74.0662 153.26 74.2918 153.103 74.564C152.945 74.8289 152.866 75.1405 152.866 75.4985C152.866 75.8638 152.949 76.1968 153.113 76.4976C153.278 76.7983 153.525 77.0382 153.854 77.2173C154.191 77.3892 154.603 77.4751 155.09 77.4751C155.699 77.4751 156.236 77.3462 156.701 77.0884C157.167 76.8306 157.535 76.5155 157.808 76.1431C158.087 75.7707 158.237 75.409 158.259 75.0581L159.107 76.0142C159.057 76.3149 158.921 76.6479 158.699 77.0132C158.477 77.3784 158.18 77.7293 157.808 78.0659C157.442 78.3953 157.006 78.6711 156.497 78.8931C155.996 79.1079 155.43 79.2153 154.8 79.2153C154.012 79.2153 153.321 79.0614 152.727 78.7534C152.139 78.4455 151.681 78.0337 151.352 77.5181C151.029 76.9953 150.868 76.4116 150.868 75.7671C150.868 75.144 150.99 74.5962 151.233 74.1235C151.477 73.6437 151.828 73.2463 152.286 72.9312C152.744 72.6089 153.296 72.3654 153.94 72.2007C154.585 72.036 155.305 71.9536 156.1 71.9536H158.409ZM170.623 69.6118V83.4692H168.625V67.3774H170.451L170.623 69.6118ZM178.454 73.0923V73.3179C178.454 74.1629 178.354 74.9471 178.153 75.6704C177.953 76.3866 177.659 77.0096 177.272 77.5396C176.893 78.0695 176.424 78.4813 175.865 78.7749C175.307 79.0685 174.666 79.2153 173.942 79.2153C173.205 79.2153 172.553 79.0936 171.987 78.8501C171.422 78.6066 170.942 78.2521 170.548 77.7866C170.154 77.3211 169.839 76.7625 169.603 76.1108C169.373 75.4591 169.216 74.7251 169.13 73.9087V72.7056C169.216 71.8462 169.377 71.0763 169.613 70.396C169.85 69.7157 170.161 69.1356 170.548 68.6558C170.942 68.1688 171.418 67.8 171.977 67.5493C172.535 67.2915 173.18 67.1626 173.91 67.1626C174.641 67.1626 175.289 67.3058 175.854 67.5923C176.42 67.8716 176.896 68.2726 177.283 68.7954C177.67 69.3182 177.96 69.9448 178.153 70.6753C178.354 71.3986 178.454 72.2043 178.454 73.0923ZM176.456 73.3179V73.0923C176.456 72.5122 176.395 71.9679 176.273 71.4595C176.152 70.9438 175.962 70.4927 175.704 70.106C175.453 69.7121 175.131 69.4041 174.737 69.1821C174.343 68.953 173.874 68.8384 173.33 68.8384C172.829 68.8384 172.392 68.9243 172.02 69.0962C171.654 69.2681 171.343 69.5008 171.085 69.7944C170.827 70.0809 170.616 70.4103 170.451 70.7827C170.294 71.1479 170.175 71.5275 170.097 71.9214V74.7036C170.24 75.2049 170.44 75.6776 170.698 76.1216C170.956 76.5584 171.3 76.9129 171.729 77.1851C172.159 77.45 172.7 77.5825 173.352 77.5825C173.889 77.5825 174.351 77.4715 174.737 77.2495C175.131 77.0203 175.453 76.7088 175.704 76.3149C175.962 75.9211 176.152 75.4699 176.273 74.9614C176.395 74.4458 176.456 73.8979 176.456 73.3179ZM182.622 71.3735H186.113C187.051 71.3735 187.843 71.5382 188.487 71.8677C189.132 72.1899 189.619 72.6375 189.948 73.2104C190.285 73.7762 190.453 74.4207 190.453 75.144C190.453 75.6812 190.36 76.186 190.174 76.6587C189.988 77.1242 189.708 77.5324 189.336 77.8833C188.971 78.2342 188.516 78.5099 187.972 78.7104C187.435 78.9038 186.815 79.0005 186.113 79.0005H181.172V67.3774H183.159V77.3677H186.113C186.686 77.3677 187.145 77.2638 187.488 77.0562C187.832 76.8485 188.079 76.5799 188.229 76.2505C188.38 75.9211 188.455 75.5773 188.455 75.2192C188.455 74.8683 188.38 74.5246 188.229 74.188C188.079 73.8514 187.832 73.5721 187.488 73.3501C187.145 73.1209 186.686 73.0063 186.113 73.0063H182.622V71.3735ZM194.589 67.3774V79.0005H192.602V67.3774H194.589ZM205.954 72.4155V74.0269H199.81V72.4155H205.954ZM200.229 67.3774V79.0005H198.241V67.3774H200.229ZM207.565 67.3774V79.0005H205.567V67.3774H207.565ZM212.926 67.3774V79.0005H210.938V67.3774H212.926ZM220.553 67.3774L215.042 74.0376H212.26L211.959 72.2974H214.236L218.136 67.3774H220.553ZM218.415 79.0005L214.14 73.7368L215.418 72.2974L220.939 79.0005H218.415ZM227.32 79.2153C226.511 79.2153 225.777 79.0793 225.118 78.8071C224.466 78.5278 223.904 78.1375 223.432 77.6362C222.966 77.1349 222.608 76.5405 222.357 75.853C222.107 75.1655 221.981 74.4136 221.981 73.5972V73.146C221.981 72.2007 222.121 71.3592 222.4 70.6216C222.68 69.8768 223.059 69.2466 223.539 68.731C224.019 68.2153 224.563 67.825 225.172 67.5601C225.781 67.2951 226.411 67.1626 227.062 67.1626C227.893 67.1626 228.609 67.3058 229.211 67.5923C229.82 67.8787 230.317 68.2798 230.704 68.7954C231.091 69.3039 231.377 69.9054 231.563 70.6001C231.75 71.2876 231.843 72.0396 231.843 72.856V73.7476H223.163V72.1255H229.855V71.9751C229.827 71.4595 229.719 70.9582 229.533 70.4712C229.354 69.9842 229.068 69.5832 228.674 69.2681C228.28 68.953 227.743 68.7954 227.062 68.7954C226.611 68.7954 226.196 68.8921 225.816 69.0854C225.437 69.2716 225.111 69.5509 224.839 69.9233C224.567 70.2957 224.355 70.7505 224.205 71.2876C224.055 71.8247 223.979 72.4442 223.979 73.146V73.5972C223.979 74.1486 224.055 74.6678 224.205 75.1548C224.363 75.6346 224.588 76.0571 224.882 76.4224C225.183 76.7876 225.544 77.0741 225.967 77.2817C226.396 77.4894 226.883 77.5933 227.428 77.5933C228.13 77.5933 228.724 77.45 229.211 77.1636C229.698 76.8771 230.124 76.494 230.489 76.0142L231.692 76.9702C231.442 77.3498 231.123 77.7114 230.736 78.0552C230.35 78.3989 229.873 78.6782 229.308 78.8931C228.749 79.1079 228.087 79.2153 227.32 79.2153ZM245.689 72.8667H241.511V71.1802H245.689C246.499 71.1802 247.154 71.0513 247.655 70.7935C248.157 70.5356 248.522 70.1776 248.751 69.7192C248.987 69.2609 249.105 68.7381 249.105 68.1509C249.105 67.6138 248.987 67.1089 248.751 66.6362C248.522 66.1636 248.157 65.784 247.655 65.4976C247.154 65.2039 246.499 65.0571 245.689 65.0571H241.994V79.0005H239.921V63.3599H245.689C246.871 63.3599 247.87 63.564 248.687 63.9722C249.503 64.3804 250.122 64.9461 250.545 65.6694C250.967 66.3856 251.179 67.2056 251.179 68.1294C251.179 69.132 250.967 69.9878 250.545 70.6968C250.122 71.4058 249.503 71.9465 248.687 72.3188C247.87 72.6841 246.871 72.8667 245.689 72.8667ZM259.225 64.9175H261.813C262.716 64.9175 263.55 65.0715 264.316 65.3794C265.09 65.6802 265.763 66.1099 266.336 66.6685C266.916 67.2271 267.367 67.8931 267.689 68.6665C268.012 69.4328 268.173 70.2814 268.173 71.2124C268.173 72.1434 268.012 72.9956 267.689 73.769C267.367 74.5425 266.916 75.2121 266.336 75.7778C265.763 76.3364 265.09 76.7697 264.316 77.0776C263.55 77.3784 262.716 77.5288 261.813 77.5288H259.225C258.322 77.5288 257.488 77.3784 256.722 77.0776C255.955 76.7697 255.282 76.3364 254.702 75.7778C254.129 75.2192 253.682 74.5568 253.359 73.7905C253.044 73.0171 252.887 72.1649 252.887 71.2339C252.887 70.3029 253.044 69.4543 253.359 68.688C253.682 67.9146 254.129 67.2485 254.702 66.6899C255.282 66.1242 255.955 65.6873 256.722 65.3794C257.488 65.0715 258.322 64.9175 259.225 64.9175ZM259.225 66.5503C258.286 66.5503 257.492 66.7472 256.84 67.1411C256.188 67.5278 255.694 68.0721 255.357 68.7739C255.021 69.4757 254.853 70.2957 254.853 71.2339C254.853 71.9429 254.946 72.5838 255.132 73.1567C255.325 73.7297 255.608 74.2202 255.98 74.6284C256.353 75.0366 256.811 75.3517 257.355 75.5737C257.9 75.7957 258.523 75.9067 259.225 75.9067H261.835C262.766 75.9067 263.554 75.7134 264.198 75.3267C264.85 74.9328 265.344 74.3849 265.681 73.6831C266.024 72.9741 266.196 72.1506 266.196 71.2124C266.196 70.5106 266.1 69.8732 265.906 69.3003C265.713 68.7274 265.43 68.2368 265.058 67.8286C264.692 67.4204 264.238 67.1053 263.693 66.8833C263.156 66.6613 262.537 66.5503 261.835 66.5503H259.225ZM261.523 62.7153V79.645H259.536V62.7153H261.523Z" fill="black"/>
<defs>
<filter id="filter0_d_822_2147" x="545.052" y="5.04639" width="106.19" height="106.163" filterUnits="userSpaceOnUse" color-interpolation-filters="sRGB">
<feFlood flood-opacity="0" result="BackgroundImageFix"/>
<feColorMatrix in="SourceAlpha" type="matrix" values="0 0 0 0 0 0 0 0 0 0 0 0 0 0 0 0 0 0 127 0" result="hardAlpha"/>
<feOffset/>
<feGaussianBlur stdDeviation="12"/>
<feComposite in2="hardAlpha" operator="out"/>
<feColorMatrix type="matrix" values="0 0 0 0 0.579167 0 0 0 0 0.579167 0 0 0 0 0.579167 0 0 0 0.3 0"/>
<feBlend mode="normal" in2="BackgroundImageFix" result="effect1_dropShadow_822_2147"/>
<feBlend mode="normal" in="SourceGraphic" in2="effect1_dropShadow_822_2147" result="shape"/>
</filter>
</defs>
</svg>
