<svg width="671" height="125" viewBox="0 0 671 125" fill="none" xmlns="http://www.w3.org/2000/svg">
<path d="M495 65L613 65" stroke="#00A3FF" stroke-miterlimit="10" stroke-linecap="round"/>
<g filter="url(#filter0_d_802_734)">
<path d="M637.721 85.7315C649.083 74.3745 649.083 55.961 637.721 44.6039C626.358 33.2468 607.936 33.2468 596.574 44.6039C585.211 55.961 585.211 74.3745 596.574 85.7315C607.936 97.0886 626.358 97.0886 637.721 85.7315Z" fill="white"/>
</g>
<path d="M626.241 65.1647C626.246 66.8873 625.741 68.573 624.789 70.009C623.837 71.445 622.481 72.5671 620.892 73.2338C619.302 73.9004 617.551 74.0817 615.859 73.7549C614.167 73.428 612.61 72.6076 611.383 71.3971C610.157 70.1866 609.317 68.6402 608.969 66.9531C608.621 65.2659 608.78 63.5135 609.427 61.9169C610.075 60.3202 611.18 58.9509 612.605 57.9816C614.03 57.0122 615.71 56.4863 617.433 56.4702C618.585 56.4557 619.727 56.67 620.795 57.1004C621.863 57.5309 622.835 58.1691 623.655 58.9779C624.474 59.7867 625.124 60.75 625.568 61.8121C626.012 62.8741 626.241 64.0137 626.241 65.1647Z" fill="#00A3FF"/>
<path d="M617.542 68.5714C619.425 68.5714 620.951 67.0461 620.951 65.1645C620.951 63.2829 619.425 61.7576 617.542 61.7576C615.66 61.7576 614.134 63.2829 614.134 65.1645C614.134 67.0461 615.66 68.5714 617.542 68.5714Z" fill="white"/>
<path d="M497.452 65.1645C497.457 66.8906 496.95 68.5796 495.994 70.0174C495.039 71.4553 493.678 72.5774 492.084 73.2417C490.49 73.906 488.735 74.0827 487.04 73.7492C485.346 73.4158 483.789 72.5873 482.565 71.3686C481.342 70.1499 480.509 68.5959 480.17 66.9033C479.831 65.2107 480.002 63.4557 480.662 61.8604C481.321 60.2651 482.44 58.9013 483.875 57.9418C485.311 56.9822 486.999 56.47 488.726 56.47C491.035 56.47 493.251 57.3851 494.886 59.0149C496.522 60.6446 497.445 62.856 497.452 65.1645Z" fill="#00A3FF"/>
<path d="M488.753 68.5714C490.636 68.5714 492.162 67.0461 492.162 65.1645C492.162 63.2829 490.636 61.7576 488.753 61.7576C486.871 61.7576 485.345 63.2829 485.345 65.1645C485.345 67.0461 486.871 68.5714 488.753 68.5714Z" fill="white"/>
<path d="M93.3041 93.2599C110.481 76.0913 110.481 48.2554 93.304 31.0867C76.1272 13.9181 48.2782 13.918 31.1014 31.0867C13.9246 48.2553 13.9245 76.0913 31.1014 93.26C48.2782 110.429 76.1273 110.429 93.3041 93.2599Z" fill="#00A3FF"/>
<path d="M61.4062 67.1694C58.8932 67.1694 56.6602 66.1864 54.707 64.2202C52.7669 62.241 51.7969 59.9559 51.7969 57.3647C51.7969 54.6174 52.793 52.2996 54.7852 50.4116C56.7904 48.5236 59.3229 47.5796 62.3828 47.5796C65.4557 47.5796 67.9948 48.5236 70 50.4116C72.0052 52.2996 73.0078 54.6174 73.0078 57.3647C73.0078 58.4845 72.806 59.6174 72.4023 60.7632C71.9987 61.896 71.5951 62.7424 71.1914 63.3022L70.6055 64.1812L62.793 76.1733H56.6016L62.5977 66.9741C62.2591 67.1043 61.862 67.1694 61.4062 67.1694ZM58.9453 54.103C58.0469 54.9754 57.5977 56.0692 57.5977 57.3843C57.5977 58.6864 58.0469 59.7801 58.9453 60.6655C59.8568 61.5379 61.0026 61.9741 62.3828 61.9741C63.776 61.9741 64.9284 61.5379 65.8398 60.6655C66.7513 59.7801 67.207 58.6864 67.207 57.3843C67.207 56.0692 66.7513 54.9754 65.8398 54.103C64.9284 53.2176 63.776 52.7749 62.3828 52.7749C61.0026 52.7749 59.8568 53.2176 58.9453 54.103Z" fill="white"/>
<path d="M148.633 25.9141V38H147.04V27.2256H141.08V38H139.478V25.9141H148.633ZM152.842 30.7451V41.4531H151.298V29.0186H152.709L152.842 30.7451ZM158.893 33.4346V33.6089C158.893 34.2619 158.816 34.8678 158.661 35.4268C158.506 35.9801 158.279 36.4616 157.98 36.8711C157.687 37.2806 157.324 37.5988 156.893 37.8257C156.461 38.0526 155.966 38.166 155.407 38.166C154.837 38.166 154.333 38.0719 153.896 37.8838C153.459 37.6956 153.088 37.4217 152.784 37.062C152.479 36.7023 152.236 36.2707 152.053 35.7671C151.876 35.2635 151.754 34.6963 151.688 34.0654V33.1357C151.754 32.4717 151.879 31.8768 152.062 31.3511C152.244 30.8254 152.485 30.3771 152.784 30.0063C153.088 29.63 153.456 29.3451 153.888 29.1514C154.319 28.9521 154.817 28.8525 155.382 28.8525C155.946 28.8525 156.447 28.9632 156.884 29.1846C157.321 29.4004 157.689 29.7103 157.988 30.1143C158.287 30.5182 158.511 31.0024 158.661 31.5669C158.816 32.1258 158.893 32.7484 158.893 33.4346ZM157.349 33.6089V33.4346C157.349 32.9863 157.302 32.5658 157.208 32.1729C157.114 31.7744 156.967 31.4258 156.768 31.127C156.574 30.8226 156.325 30.5846 156.021 30.4131C155.717 30.236 155.354 30.1475 154.934 30.1475C154.546 30.1475 154.209 30.2139 153.921 30.3467C153.639 30.4795 153.398 30.6593 153.199 30.8862C153 31.1076 152.836 31.3621 152.709 31.6499C152.587 31.9321 152.496 32.2254 152.435 32.5298V34.6797C152.546 35.0671 152.701 35.4323 152.9 35.7754C153.099 36.113 153.365 36.3869 153.697 36.5972C154.029 36.8019 154.447 36.9043 154.95 36.9043C155.365 36.9043 155.722 36.8185 156.021 36.647C156.325 36.4699 156.574 36.2292 156.768 35.9248C156.967 35.6204 157.114 35.2718 157.208 34.8789C157.302 34.4805 157.349 34.0571 157.349 33.6089ZM160.445 33.6089V33.418C160.445 32.7705 160.539 32.1701 160.728 31.6167C160.916 31.0578 161.187 30.5736 161.541 30.1641C161.895 29.749 162.324 29.4281 162.828 29.2012C163.331 28.9688 163.896 28.8525 164.521 28.8525C165.152 28.8525 165.719 28.9688 166.223 29.2012C166.732 29.4281 167.163 29.749 167.518 30.1641C167.877 30.5736 168.151 31.0578 168.339 31.6167C168.528 32.1701 168.622 32.7705 168.622 33.418V33.6089C168.622 34.2563 168.528 34.8568 168.339 35.4102C168.151 35.9635 167.877 36.4478 167.518 36.8628C167.163 37.2723 166.735 37.5933 166.231 37.8257C165.733 38.0526 165.168 38.166 164.538 38.166C163.907 38.166 163.34 38.0526 162.836 37.8257C162.332 37.5933 161.901 37.2723 161.541 36.8628C161.187 36.4478 160.916 35.9635 160.728 35.4102C160.539 34.8568 160.445 34.2563 160.445 33.6089ZM161.981 33.418V33.6089C161.981 34.0571 162.034 34.4805 162.139 34.8789C162.244 35.2718 162.402 35.6204 162.612 35.9248C162.828 36.2292 163.096 36.4699 163.417 36.647C163.738 36.8185 164.111 36.9043 164.538 36.9043C164.958 36.9043 165.326 36.8185 165.642 36.647C165.963 36.4699 166.228 36.2292 166.438 35.9248C166.649 35.6204 166.806 35.2718 166.912 34.8789C167.022 34.4805 167.078 34.0571 167.078 33.6089V33.418C167.078 32.9753 167.022 32.5575 166.912 32.1646C166.806 31.7661 166.646 31.4147 166.43 31.1104C166.22 30.8005 165.954 30.557 165.633 30.3799C165.318 30.2028 164.947 30.1143 164.521 30.1143C164.1 30.1143 163.73 30.2028 163.409 30.3799C163.093 30.557 162.828 30.8005 162.612 31.1104C162.402 31.4147 162.244 31.7661 162.139 32.1646C162.034 32.5575 161.981 32.9753 161.981 33.418ZM171.568 29.0186H173.104L172.971 32.3804C172.938 33.2326 172.841 33.9686 172.681 34.5884C172.52 35.2082 172.315 35.7367 172.066 36.1738C171.817 36.6055 171.538 36.9679 171.228 37.2612C170.924 37.5545 170.608 37.8008 170.282 38H169.518L169.56 36.7466L169.875 36.7383C170.058 36.5225 170.235 36.3011 170.406 36.0742C170.578 35.8418 170.736 35.5679 170.879 35.2524C171.023 34.9315 171.142 34.5413 171.236 34.082C171.336 33.6172 171.4 33.05 171.427 32.3804L171.568 29.0186ZM171.95 29.0186H177.354V38H175.818V30.438H171.95V29.0186ZM169.169 36.7383H178.508V40.6479H176.972V38H170.705V40.6479H169.161L169.169 36.7383ZM185.505 36.4644V31.8408C185.505 31.4867 185.433 31.1795 185.29 30.9194C185.151 30.6538 184.941 30.4491 184.659 30.3052C184.376 30.1613 184.028 30.0894 183.613 30.0894C183.225 30.0894 182.885 30.1558 182.592 30.2886C182.304 30.4214 182.077 30.5957 181.911 30.8115C181.751 31.0273 181.67 31.2598 181.67 31.5088H180.135C180.135 31.1878 180.218 30.8696 180.384 30.5542C180.55 30.2388 180.788 29.9538 181.098 29.6992C181.413 29.4391 181.789 29.2344 182.227 29.085C182.669 28.93 183.162 28.8525 183.704 28.8525C184.357 28.8525 184.933 28.9632 185.431 29.1846C185.934 29.4059 186.327 29.7407 186.609 30.189C186.897 30.6317 187.041 31.1878 187.041 31.8574V36.041C187.041 36.3398 187.066 36.658 187.116 36.9956C187.171 37.3332 187.251 37.6237 187.356 37.8672V38H185.754C185.677 37.8229 185.616 37.5877 185.572 37.2944C185.528 36.9956 185.505 36.7189 185.505 36.4644ZM185.771 32.5547L185.788 33.6338H184.235C183.798 33.6338 183.408 33.6698 183.065 33.7417C182.722 33.8081 182.434 33.9105 182.202 34.0488C181.969 34.1872 181.792 34.3615 181.67 34.5718C181.549 34.7765 181.488 35.0173 181.488 35.2939C181.488 35.5762 181.551 35.8335 181.679 36.0659C181.806 36.2983 181.997 36.4837 182.251 36.6221C182.512 36.7549 182.83 36.8213 183.206 36.8213C183.676 36.8213 184.091 36.7217 184.451 36.5225C184.811 36.3232 185.096 36.0798 185.306 35.792C185.522 35.5042 185.638 35.2248 185.655 34.9536L186.311 35.6924C186.272 35.9248 186.167 36.1821 185.995 36.4644C185.824 36.7466 185.594 37.0177 185.306 37.2778C185.024 37.5324 184.686 37.7454 184.293 37.917C183.906 38.083 183.469 38.166 182.982 38.166C182.373 38.166 181.839 38.047 181.38 37.8091C180.926 37.5711 180.572 37.2529 180.317 36.8545C180.068 36.4505 179.944 35.9995 179.944 35.5015C179.944 35.02 180.038 34.5967 180.226 34.2314C180.414 33.8607 180.685 33.5535 181.04 33.3101C181.394 33.061 181.82 32.8729 182.318 32.7456C182.816 32.6183 183.372 32.5547 183.986 32.5547H185.771ZM192.179 34.0903L188.776 29.0186H190.627L192.951 32.7373H194.744L194.52 34.0903H192.179ZM193.018 33.9326L190.411 38H188.469L192.046 32.8203L193.018 33.9326ZM195.533 29.0186V38H193.997V29.0186H195.533ZM200.771 29.0186L197.367 34.0903H195.026L194.786 32.7373H196.587L198.911 29.0186H200.771ZM199.127 38L196.512 33.9326L197.5 32.8203L201.069 38H199.127ZM204.149 35.5679L208.291 29.0186H209.835V38H208.291V31.4507L204.149 38H202.622V29.0186H204.149V35.5679ZM220.178 29.0186V38H218.634V29.0186H220.178ZM223.191 29.0186V30.2637H215.679V29.0186H223.191ZM223.946 33.6089V33.418C223.946 32.7705 224.04 32.1701 224.229 31.6167C224.417 31.0578 224.688 30.5736 225.042 30.1641C225.396 29.749 225.825 29.4281 226.329 29.2012C226.832 28.9688 227.397 28.8525 228.022 28.8525C228.653 28.8525 229.22 28.9688 229.724 29.2012C230.233 29.4281 230.664 29.749 231.019 30.1641C231.378 30.5736 231.652 31.0578 231.84 31.6167C232.028 32.1701 232.123 32.7705 232.123 33.418V33.6089C232.123 34.2563 232.028 34.8568 231.84 35.4102C231.652 35.9635 231.378 36.4478 231.019 36.8628C230.664 37.2723 230.236 37.5933 229.732 37.8257C229.234 38.0526 228.669 38.166 228.039 38.166C227.408 38.166 226.84 38.0526 226.337 37.8257C225.833 37.5933 225.402 37.2723 225.042 36.8628C224.688 36.4478 224.417 35.9635 224.229 35.4102C224.04 34.8568 223.946 34.2563 223.946 33.6089ZM225.482 33.418V33.6089C225.482 34.0571 225.535 34.4805 225.64 34.8789C225.745 35.2718 225.903 35.6204 226.113 35.9248C226.329 36.2292 226.597 36.4699 226.918 36.647C227.239 36.8185 227.612 36.9043 228.039 36.9043C228.459 36.9043 228.827 36.8185 229.143 36.647C229.464 36.4699 229.729 36.2292 229.939 35.9248C230.15 35.6204 230.307 35.2718 230.413 34.8789C230.523 34.4805 230.579 34.0571 230.579 33.6089V33.418C230.579 32.9753 230.523 32.5575 230.413 32.1646C230.307 31.7661 230.147 31.4147 229.931 31.1104C229.721 30.8005 229.455 30.557 229.134 30.3799C228.819 30.2028 228.448 30.1143 228.022 30.1143C227.601 30.1143 227.231 30.2028 226.91 30.3799C226.594 30.557 226.329 30.8005 226.113 31.1104C225.903 31.4147 225.745 31.7661 225.64 32.1646C225.535 32.5575 225.482 32.9753 225.482 33.418ZM238.265 34.0488H235.318L235.302 32.8203H237.709C238.185 32.8203 238.581 32.7733 238.896 32.6792C239.217 32.5851 239.458 32.444 239.618 32.2559C239.779 32.0677 239.859 31.8353 239.859 31.5586C239.859 31.3428 239.812 31.1546 239.718 30.9941C239.629 30.8281 239.494 30.6925 239.311 30.5874C239.128 30.4767 238.902 30.3965 238.63 30.3467C238.365 30.2913 238.052 30.2637 237.692 30.2637H235.725V38H234.189V29.0186H237.692C238.262 29.0186 238.774 29.0684 239.228 29.168C239.687 29.2676 240.077 29.4198 240.398 29.6245C240.725 29.8237 240.974 30.0783 241.146 30.3882C241.317 30.6981 241.403 31.0633 241.403 31.4839C241.403 31.755 241.347 32.0124 241.237 32.2559C241.126 32.4993 240.963 32.7152 240.747 32.9033C240.531 33.0915 240.266 33.2464 239.95 33.3682C239.635 33.4844 239.272 33.5591 238.863 33.5923L238.265 34.0488ZM238.265 38H234.762L235.526 36.7549H238.265C238.691 36.7549 239.045 36.7023 239.328 36.5972C239.61 36.4865 239.82 36.3315 239.958 36.1323C240.102 35.9276 240.174 35.6841 240.174 35.4019C240.174 35.1196 240.102 34.8789 239.958 34.6797C239.82 34.4749 239.61 34.32 239.328 34.2148C239.045 34.1042 238.691 34.0488 238.265 34.0488H235.933L235.949 32.8203H238.863L239.419 33.2852C239.911 33.3239 240.329 33.4456 240.672 33.6504C241.015 33.8551 241.276 34.1152 241.453 34.4307C241.63 34.7406 241.718 35.0781 241.718 35.4434C241.718 35.8639 241.638 36.2347 241.478 36.5557C241.323 36.8766 241.096 37.145 240.797 37.3608C240.498 37.5711 240.136 37.7316 239.709 37.8423C239.283 37.9474 238.802 38 238.265 38ZM249.073 36.4644V31.8408C249.073 31.4867 249.001 31.1795 248.857 30.9194C248.719 30.6538 248.508 30.4491 248.226 30.3052C247.944 30.1613 247.595 30.0894 247.18 30.0894C246.793 30.0894 246.452 30.1558 246.159 30.2886C245.871 30.4214 245.645 30.5957 245.479 30.8115C245.318 31.0273 245.238 31.2598 245.238 31.5088H243.702C243.702 31.1878 243.785 30.8696 243.951 30.5542C244.117 30.2388 244.355 29.9538 244.665 29.6992C244.98 29.4391 245.357 29.2344 245.794 29.085C246.237 28.93 246.729 28.8525 247.271 28.8525C247.924 28.8525 248.5 28.9632 248.998 29.1846C249.502 29.4059 249.895 29.7407 250.177 30.189C250.465 30.6317 250.608 31.1878 250.608 31.8574V36.041C250.608 36.3398 250.633 36.658 250.683 36.9956C250.738 37.3332 250.819 37.6237 250.924 37.8672V38H249.322C249.244 37.8229 249.183 37.5877 249.139 37.2944C249.095 36.9956 249.073 36.7189 249.073 36.4644ZM249.338 32.5547L249.355 33.6338H247.803C247.366 33.6338 246.975 33.6698 246.632 33.7417C246.289 33.8081 246.001 33.9105 245.769 34.0488C245.537 34.1872 245.36 34.3615 245.238 34.5718C245.116 34.7765 245.055 35.0173 245.055 35.2939C245.055 35.5762 245.119 35.8335 245.246 36.0659C245.373 36.2983 245.564 36.4837 245.819 36.6221C246.079 36.7549 246.397 36.8213 246.773 36.8213C247.244 36.8213 247.659 36.7217 248.019 36.5225C248.378 36.3232 248.663 36.0798 248.874 35.792C249.089 35.5042 249.206 35.2248 249.222 34.9536L249.878 35.6924C249.839 35.9248 249.734 36.1821 249.562 36.4644C249.391 36.7466 249.161 37.0177 248.874 37.2778C248.591 37.5324 248.254 37.7454 247.861 37.917C247.473 38.083 247.036 38.166 246.549 38.166C245.941 38.166 245.407 38.047 244.947 37.8091C244.493 37.5711 244.139 37.2529 243.885 36.8545C243.636 36.4505 243.511 35.9995 243.511 35.5015C243.511 35.02 243.605 34.5967 243.793 34.2314C243.982 33.8607 244.253 33.5535 244.607 33.3101C244.961 33.061 245.387 32.8729 245.885 32.7456C246.383 32.6183 246.939 32.5547 247.554 32.5547H249.338ZM254.56 30.7451V41.4531H253.016V29.0186H254.427L254.56 30.7451ZM260.611 33.4346V33.6089C260.611 34.2619 260.533 34.8678 260.378 35.4268C260.223 35.9801 259.997 36.4616 259.698 36.8711C259.404 37.2806 259.042 37.5988 258.61 37.8257C258.179 38.0526 257.683 38.166 257.125 38.166C256.555 38.166 256.051 38.0719 255.614 37.8838C255.177 37.6956 254.806 37.4217 254.501 37.062C254.197 36.7023 253.954 36.2707 253.771 35.7671C253.594 35.2635 253.472 34.6963 253.406 34.0654V33.1357C253.472 32.4717 253.597 31.8768 253.779 31.3511C253.962 30.8254 254.203 30.3771 254.501 30.0063C254.806 29.63 255.174 29.3451 255.605 29.1514C256.037 28.9521 256.535 28.8525 257.1 28.8525C257.664 28.8525 258.165 28.9632 258.602 29.1846C259.039 29.4004 259.407 29.7103 259.706 30.1143C260.005 30.5182 260.229 31.0024 260.378 31.5669C260.533 32.1258 260.611 32.7484 260.611 33.4346ZM259.067 33.6089V33.4346C259.067 32.9863 259.02 32.5658 258.926 32.1729C258.832 31.7744 258.685 31.4258 258.486 31.127C258.292 30.8226 258.043 30.5846 257.739 30.4131C257.434 30.236 257.072 30.1475 256.651 30.1475C256.264 30.1475 255.926 30.2139 255.639 30.3467C255.356 30.4795 255.116 30.6593 254.917 30.8862C254.717 31.1076 254.554 31.3621 254.427 31.6499C254.305 31.9321 254.214 32.2254 254.153 32.5298V34.6797C254.264 35.0671 254.418 35.4323 254.618 35.7754C254.817 36.113 255.083 36.3869 255.415 36.5972C255.747 36.8019 256.164 36.9043 256.668 36.9043C257.083 36.9043 257.44 36.8185 257.739 36.647C258.043 36.4699 258.292 36.2292 258.486 35.9248C258.685 35.6204 258.832 35.2718 258.926 34.8789C259.02 34.4805 259.067 34.0571 259.067 33.6089ZM262.163 33.6089V33.418C262.163 32.7705 262.257 32.1701 262.445 31.6167C262.633 31.0578 262.905 30.5736 263.259 30.1641C263.613 29.749 264.042 29.4281 264.545 29.2012C265.049 28.9688 265.613 28.8525 266.239 28.8525C266.87 28.8525 267.437 28.9688 267.94 29.2012C268.45 29.4281 268.881 29.749 269.235 30.1641C269.595 30.5736 269.869 31.0578 270.057 31.6167C270.245 32.1701 270.339 32.7705 270.339 33.418V33.6089C270.339 34.2563 270.245 34.8568 270.057 35.4102C269.869 35.9635 269.595 36.4478 269.235 36.8628C268.881 37.2723 268.452 37.5933 267.949 37.8257C267.451 38.0526 266.886 38.166 266.255 38.166C265.625 38.166 265.057 38.0526 264.554 37.8257C264.05 37.5933 263.618 37.2723 263.259 36.8628C262.905 36.4478 262.633 35.9635 262.445 35.4102C262.257 34.8568 262.163 34.2563 262.163 33.6089ZM263.699 33.418V33.6089C263.699 34.0571 263.751 34.4805 263.856 34.8789C263.962 35.2718 264.119 35.6204 264.33 35.9248C264.545 36.2292 264.814 36.4699 265.135 36.647C265.456 36.8185 265.829 36.9043 266.255 36.9043C266.676 36.9043 267.044 36.8185 267.359 36.647C267.68 36.4699 267.946 36.2292 268.156 35.9248C268.367 35.6204 268.524 35.2718 268.629 34.8789C268.74 34.4805 268.795 34.0571 268.795 33.6089V33.418C268.795 32.9753 268.74 32.5575 268.629 32.1646C268.524 31.7661 268.364 31.4147 268.148 31.1104C267.938 30.8005 267.672 30.557 267.351 30.3799C267.036 30.2028 266.665 30.1143 266.239 30.1143C265.818 30.1143 265.447 30.2028 265.126 30.3799C264.811 30.557 264.545 30.8005 264.33 31.1104C264.119 31.4147 263.962 31.7661 263.856 32.1646C263.751 32.5575 263.699 32.9753 263.699 33.418ZM276.482 34.0488H273.535L273.519 32.8203H275.926C276.402 32.8203 276.797 32.7733 277.113 32.6792C277.434 32.5851 277.674 32.444 277.835 32.2559C277.995 32.0677 278.076 31.8353 278.076 31.5586C278.076 31.3428 278.029 31.1546 277.935 30.9941C277.846 30.8281 277.71 30.6925 277.528 30.5874C277.345 30.4767 277.118 30.3965 276.847 30.3467C276.582 30.2913 276.269 30.2637 275.909 30.2637H273.942V38H272.406V29.0186H275.909C276.479 29.0186 276.991 29.0684 277.445 29.168C277.904 29.2676 278.294 29.4198 278.615 29.6245C278.942 29.8237 279.191 30.0783 279.362 30.3882C279.534 30.6981 279.62 31.0633 279.62 31.4839C279.62 31.755 279.564 32.0124 279.454 32.2559C279.343 32.4993 279.18 32.7152 278.964 32.9033C278.748 33.0915 278.482 33.2464 278.167 33.3682C277.852 33.4844 277.489 33.5591 277.08 33.5923L276.482 34.0488ZM276.482 38H272.979L273.743 36.7549H276.482C276.908 36.7549 277.262 36.7023 277.544 36.5972C277.827 36.4865 278.037 36.3315 278.175 36.1323C278.319 35.9276 278.391 35.6841 278.391 35.4019C278.391 35.1196 278.319 34.8789 278.175 34.6797C278.037 34.4749 277.827 34.32 277.544 34.2148C277.262 34.1042 276.908 34.0488 276.482 34.0488H274.149L274.166 32.8203H277.08L277.636 33.2852C278.128 33.3239 278.546 33.4456 278.889 33.6504C279.232 33.8551 279.492 34.1152 279.669 34.4307C279.847 34.7406 279.935 35.0781 279.935 35.4434C279.935 35.8639 279.855 36.2347 279.694 36.5557C279.539 36.8766 279.312 37.145 279.014 37.3608C278.715 37.5711 278.352 37.7316 277.926 37.8423C277.5 37.9474 277.019 38 276.482 38ZM291.971 25.1089H293.233C293.233 25.6512 293.15 26.0828 292.984 26.4038C292.818 26.7192 292.591 26.9627 292.303 27.1343C292.021 27.3058 291.7 27.4359 291.34 27.5244C290.986 27.613 290.618 27.6987 290.236 27.7817C289.76 27.8813 289.318 28.0391 288.908 28.2549C288.504 28.4652 288.156 28.764 287.862 29.1514C287.575 29.5387 287.361 30.0423 287.223 30.6621C287.09 31.2819 287.054 32.0483 287.115 32.9614V33.7251H285.854V32.9614C285.854 31.9377 285.95 31.0439 286.144 30.2803C286.343 29.5166 286.623 28.8719 286.982 28.3462C287.342 27.8205 287.768 27.4027 288.261 27.0928C288.759 26.7829 289.307 26.5698 289.904 26.4536C290.336 26.3706 290.707 26.2821 291.017 26.188C291.326 26.0884 291.562 25.9556 291.722 25.7896C291.888 25.6235 291.971 25.3966 291.971 25.1089ZM290.153 29.5332C290.74 29.5332 291.263 29.6356 291.722 29.8403C292.181 30.0451 292.572 30.3301 292.893 30.6953C293.214 31.0605 293.457 31.4922 293.623 31.9902C293.795 32.4827 293.88 33.0195 293.88 33.6006V33.7832C293.88 34.4085 293.789 34.9896 293.606 35.5264C293.429 36.0576 293.167 36.5225 292.818 36.9209C292.475 37.3138 292.054 37.6209 291.556 37.8423C291.064 38.0636 290.502 38.1743 289.871 38.1743C289.24 38.1743 288.676 38.0636 288.178 37.8423C287.685 37.6209 287.265 37.3138 286.916 36.9209C286.567 36.5225 286.302 36.0576 286.119 35.5264C285.942 34.9896 285.854 34.4085 285.854 33.7832V33.6006C285.854 33.4622 285.878 33.3267 285.928 33.1938C285.978 33.061 286.039 32.9255 286.111 32.7871C286.188 32.6488 286.257 32.5021 286.318 32.3472C286.523 31.8491 286.803 31.387 287.157 30.9609C287.516 30.5348 287.945 30.1917 288.443 29.9316C288.947 29.666 289.517 29.5332 290.153 29.5332ZM289.854 30.7866C289.29 30.7866 288.825 30.9167 288.46 31.1768C288.1 31.4368 287.832 31.7827 287.655 32.2144C287.478 32.6405 287.389 33.1025 287.389 33.6006V33.7832C287.389 34.2038 287.439 34.6022 287.539 34.9785C287.638 35.3548 287.788 35.6896 287.987 35.9829C288.192 36.2707 288.449 36.4976 288.759 36.6636C289.074 36.8296 289.445 36.9126 289.871 36.9126C290.297 36.9126 290.665 36.8296 290.975 36.6636C291.285 36.4976 291.54 36.2707 291.739 35.9829C291.938 35.6896 292.087 35.3548 292.187 34.9785C292.287 34.6022 292.336 34.2038 292.336 33.7832V33.6006C292.336 33.2243 292.287 32.8674 292.187 32.5298C292.087 32.1922 291.935 31.8934 291.73 31.6333C291.531 31.3732 291.274 31.1685 290.958 31.019C290.649 30.8641 290.281 30.7866 289.854 30.7866ZM297.01 30.7451V41.4531H295.466V29.0186H296.877L297.01 30.7451ZM303.061 33.4346V33.6089C303.061 34.2619 302.984 34.8678 302.829 35.4268C302.674 35.9801 302.447 36.4616 302.148 36.8711C301.855 37.2806 301.492 37.5988 301.061 37.8257C300.629 38.0526 300.134 38.166 299.575 38.166C299.005 38.166 298.501 38.0719 298.064 37.8838C297.627 37.6956 297.256 37.4217 296.952 37.062C296.647 36.7023 296.404 36.2707 296.221 35.7671C296.044 35.2635 295.922 34.6963 295.856 34.0654V33.1357C295.922 32.4717 296.047 31.8768 296.229 31.3511C296.412 30.8254 296.653 30.3771 296.952 30.0063C297.256 29.63 297.624 29.3451 298.056 29.1514C298.487 28.9521 298.985 28.8525 299.55 28.8525C300.114 28.8525 300.615 28.9632 301.052 29.1846C301.489 29.4004 301.857 29.7103 302.156 30.1143C302.455 30.5182 302.679 31.0024 302.829 31.5669C302.984 32.1258 303.061 32.7484 303.061 33.4346ZM301.517 33.6089V33.4346C301.517 32.9863 301.47 32.5658 301.376 32.1729C301.282 31.7744 301.135 31.4258 300.936 31.127C300.742 30.8226 300.493 30.5846 300.189 30.4131C299.885 30.236 299.522 30.1475 299.102 30.1475C298.714 30.1475 298.377 30.2139 298.089 30.3467C297.807 30.4795 297.566 30.6593 297.367 30.8862C297.167 31.1076 297.004 31.3621 296.877 31.6499C296.755 31.9321 296.664 32.2254 296.603 32.5298V34.6797C296.714 35.0671 296.869 35.4323 297.068 35.7754C297.267 36.113 297.533 36.3869 297.865 36.5972C298.197 36.8019 298.615 36.9043 299.118 36.9043C299.533 36.9043 299.89 36.8185 300.189 36.647C300.493 36.4699 300.742 36.2292 300.936 35.9248C301.135 35.6204 301.282 35.2718 301.376 34.8789C301.47 34.4805 301.517 34.0571 301.517 33.6089ZM308.747 38.166C308.122 38.166 307.555 38.0609 307.045 37.8506C306.542 37.6348 306.107 37.3332 305.742 36.9458C305.382 36.5584 305.106 36.0991 304.912 35.5679C304.718 35.0366 304.622 34.4556 304.622 33.8247V33.4761C304.622 32.7456 304.729 32.0954 304.945 31.5254C305.161 30.9499 305.454 30.4629 305.825 30.0645C306.196 29.666 306.617 29.3644 307.087 29.1597C307.557 28.9549 308.044 28.8525 308.548 28.8525C309.19 28.8525 309.743 28.9632 310.208 29.1846C310.678 29.4059 311.063 29.7158 311.362 30.1143C311.661 30.5072 311.882 30.972 312.026 31.5088C312.17 32.04 312.242 32.6211 312.242 33.252V33.9409H305.535V32.6875H310.706V32.5713C310.684 32.1729 310.601 31.7855 310.457 31.4092C310.319 31.0329 310.097 30.723 309.793 30.4795C309.489 30.236 309.074 30.1143 308.548 30.1143C308.199 30.1143 307.878 30.189 307.585 30.3384C307.292 30.4823 307.04 30.6981 306.83 30.9858C306.619 31.2736 306.456 31.625 306.34 32.04C306.224 32.4551 306.166 32.9338 306.166 33.4761V33.8247C306.166 34.2508 306.224 34.652 306.34 35.0283C306.462 35.3991 306.636 35.7256 306.863 36.0078C307.095 36.29 307.375 36.5114 307.701 36.6719C308.033 36.8324 308.41 36.9126 308.83 36.9126C309.372 36.9126 309.832 36.8019 310.208 36.5806C310.584 36.3592 310.914 36.0632 311.196 35.6924L312.125 36.4312C311.932 36.7244 311.686 37.0039 311.387 37.2695C311.088 37.5352 310.72 37.751 310.283 37.917C309.851 38.083 309.339 38.166 308.747 38.166ZM320.127 32.9116V34.1567H315.379V32.9116H320.127ZM315.703 29.0186V38H314.167V29.0186H315.703ZM321.373 29.0186V38H319.829V29.0186H321.373ZM325.465 29.0186H327L326.868 32.3804C326.834 33.2326 326.738 33.9686 326.577 34.5884C326.417 35.2082 326.212 35.7367 325.963 36.1738C325.714 36.6055 325.434 36.9679 325.125 37.2612C324.82 37.5545 324.505 37.8008 324.178 38H323.415L323.456 36.7466L323.771 36.7383C323.954 36.5225 324.131 36.3011 324.303 36.0742C324.474 35.8418 324.632 35.5679 324.776 35.2524C324.92 34.9315 325.039 34.5413 325.133 34.082C325.232 33.6172 325.296 33.05 325.324 32.3804L325.465 29.0186ZM325.847 29.0186H331.25V38H329.715V30.438H325.847V29.0186ZM323.066 36.7383H332.404V40.6479H330.869V38H324.602V40.6479H323.058L323.066 36.7383ZM339.402 36.4644V31.8408C339.402 31.4867 339.33 31.1795 339.186 30.9194C339.048 30.6538 338.837 30.4491 338.555 30.3052C338.273 30.1613 337.924 30.0894 337.509 30.0894C337.122 30.0894 336.782 30.1558 336.488 30.2886C336.201 30.4214 335.974 30.5957 335.808 30.8115C335.647 31.0273 335.567 31.2598 335.567 31.5088H334.031C334.031 31.1878 334.114 30.8696 334.28 30.5542C334.446 30.2388 334.684 29.9538 334.994 29.6992C335.31 29.4391 335.686 29.2344 336.123 29.085C336.566 28.93 337.058 28.8525 337.601 28.8525C338.254 28.8525 338.829 28.9632 339.327 29.1846C339.831 29.4059 340.224 29.7407 340.506 30.189C340.794 30.6317 340.938 31.1878 340.938 31.8574V36.041C340.938 36.3398 340.962 36.658 341.012 36.9956C341.068 37.3332 341.148 37.6237 341.253 37.8672V38H339.651C339.573 37.8229 339.513 37.5877 339.468 37.2944C339.424 36.9956 339.402 36.7189 339.402 36.4644ZM339.667 32.5547L339.684 33.6338H338.132C337.695 33.6338 337.305 33.6698 336.961 33.7417C336.618 33.8081 336.331 33.9105 336.098 34.0488C335.866 34.1872 335.689 34.3615 335.567 34.5718C335.445 34.7765 335.384 35.0173 335.384 35.2939C335.384 35.5762 335.448 35.8335 335.575 36.0659C335.702 36.2983 335.893 36.4837 336.148 36.6221C336.408 36.7549 336.726 36.8213 337.103 36.8213C337.573 36.8213 337.988 36.7217 338.348 36.5225C338.707 36.3232 338.992 36.0798 339.203 35.792C339.418 35.5042 339.535 35.2248 339.551 34.9536L340.207 35.6924C340.168 35.9248 340.063 36.1821 339.892 36.4644C339.72 36.7466 339.49 37.0177 339.203 37.2778C338.92 37.5324 338.583 37.7454 338.19 37.917C337.803 38.083 337.365 38.166 336.878 38.166C336.27 38.166 335.736 38.047 335.276 37.8091C334.823 37.5711 334.468 37.2529 334.214 36.8545C333.965 36.4505 333.84 35.9995 333.84 35.5015C333.84 35.02 333.934 34.5967 334.123 34.2314C334.311 33.8607 334.582 33.5535 334.936 33.3101C335.29 33.061 335.716 32.8729 336.214 32.7456C336.712 32.6183 337.269 32.5547 337.883 32.5547H339.667ZM354.343 29.0186V38H352.808V29.0186H354.343ZM353.82 33.144V34.4058C353.51 34.522 353.195 34.6271 352.874 34.7212C352.559 34.8097 352.224 34.8817 351.87 34.937C351.521 34.9868 351.142 35.0117 350.732 35.0117C350.024 35.0117 349.41 34.89 348.89 34.6465C348.369 34.3975 347.968 34.0239 347.686 33.5259C347.404 33.0223 347.263 32.3887 347.263 31.625V29.002H348.798V31.625C348.798 32.123 348.873 32.527 349.022 32.8369C349.172 33.1468 349.39 33.3765 349.678 33.5259C349.966 33.6698 350.317 33.7417 350.732 33.7417C351.131 33.7417 351.504 33.7168 351.853 33.667C352.207 33.6117 352.545 33.5397 352.866 33.4512C353.192 33.3626 353.51 33.2603 353.82 33.144ZM360.544 38.166C359.919 38.166 359.351 38.0609 358.842 37.8506C358.339 37.6348 357.904 37.3332 357.539 36.9458C357.179 36.5584 356.903 36.0991 356.709 35.5679C356.515 35.0366 356.418 34.4556 356.418 33.8247V33.4761C356.418 32.7456 356.526 32.0954 356.742 31.5254C356.958 30.9499 357.251 30.4629 357.622 30.0645C357.993 29.666 358.413 29.3644 358.884 29.1597C359.354 28.9549 359.841 28.8525 360.345 28.8525C360.987 28.8525 361.54 28.9632 362.005 29.1846C362.475 29.4059 362.86 29.7158 363.159 30.1143C363.458 30.5072 363.679 30.972 363.823 31.5088C363.967 32.04 364.039 32.6211 364.039 33.252V33.9409H357.332V32.6875H362.503V32.5713C362.481 32.1729 362.398 31.7855 362.254 31.4092C362.116 31.0329 361.894 30.723 361.59 30.4795C361.285 30.236 360.87 30.1143 360.345 30.1143C359.996 30.1143 359.675 30.189 359.382 30.3384C359.089 30.4823 358.837 30.6981 358.626 30.9858C358.416 31.2736 358.253 31.625 358.137 32.04C358.021 32.4551 357.962 32.9338 357.962 33.4761V33.8247C357.962 34.2508 358.021 34.652 358.137 35.0283C358.258 35.3991 358.433 35.7256 358.66 36.0078C358.892 36.29 359.172 36.5114 359.498 36.6719C359.83 36.8324 360.206 36.9126 360.627 36.9126C361.169 36.9126 361.629 36.8019 362.005 36.5806C362.381 36.3592 362.71 36.0632 362.993 35.6924L363.922 36.4312C363.729 36.7244 363.482 37.0039 363.184 37.2695C362.885 37.5352 362.517 37.751 362.08 37.917C361.648 38.083 361.136 38.166 360.544 38.166ZM367.367 30.7451V41.4531H365.823V29.0186H367.234L367.367 30.7451ZM373.418 33.4346V33.6089C373.418 34.2619 373.341 34.8678 373.186 35.4268C373.031 35.9801 372.804 36.4616 372.505 36.8711C372.212 37.2806 371.85 37.5988 371.418 37.8257C370.986 38.0526 370.491 38.166 369.932 38.166C369.362 38.166 368.859 38.0719 368.421 37.8838C367.984 37.6956 367.613 37.4217 367.309 37.062C367.005 36.7023 366.761 36.2707 366.579 35.7671C366.402 35.2635 366.28 34.6963 366.213 34.0654V33.1357C366.28 32.4717 366.404 31.8768 366.587 31.3511C366.77 30.8254 367.01 30.3771 367.309 30.0063C367.613 29.63 367.981 29.3451 368.413 29.1514C368.845 28.9521 369.343 28.8525 369.907 28.8525C370.472 28.8525 370.972 28.9632 371.41 29.1846C371.847 29.4004 372.215 29.7103 372.514 30.1143C372.812 30.5182 373.037 31.0024 373.186 31.5669C373.341 32.1258 373.418 32.7484 373.418 33.4346ZM371.875 33.6089V33.4346C371.875 32.9863 371.827 32.5658 371.733 32.1729C371.639 31.7744 371.493 31.4258 371.293 31.127C371.1 30.8226 370.851 30.5846 370.546 30.4131C370.242 30.236 369.88 30.1475 369.459 30.1475C369.072 30.1475 368.734 30.2139 368.446 30.3467C368.164 30.4795 367.923 30.6593 367.724 30.8862C367.525 31.1076 367.362 31.3621 367.234 31.6499C367.113 31.9321 367.021 32.2254 366.96 32.5298V34.6797C367.071 35.0671 367.226 35.4323 367.425 35.7754C367.625 36.113 367.89 36.3869 368.222 36.5972C368.554 36.8019 368.972 36.9043 369.476 36.9043C369.891 36.9043 370.248 36.8185 370.546 36.647C370.851 36.4699 371.1 36.2292 371.293 35.9248C371.493 35.6204 371.639 35.2718 371.733 34.8789C371.827 34.4805 371.875 34.0571 371.875 33.6089ZM379.104 38.166C378.479 38.166 377.912 38.0609 377.403 37.8506C376.899 37.6348 376.465 37.3332 376.1 36.9458C375.74 36.5584 375.463 36.0991 375.27 35.5679C375.076 35.0366 374.979 34.4556 374.979 33.8247V33.4761C374.979 32.7456 375.087 32.0954 375.303 31.5254C375.519 30.9499 375.812 30.4629 376.183 30.0645C376.553 29.666 376.974 29.3644 377.444 29.1597C377.915 28.9549 378.402 28.8525 378.905 28.8525C379.547 28.8525 380.101 28.9632 380.565 29.1846C381.036 29.4059 381.42 29.7158 381.719 30.1143C382.018 30.5072 382.239 30.972 382.383 31.5088C382.527 32.04 382.599 32.6211 382.599 33.252V33.9409H375.892V32.6875H381.063V32.5713C381.041 32.1729 380.958 31.7855 380.814 31.4092C380.676 31.0329 380.455 30.723 380.15 30.4795C379.846 30.236 379.431 30.1143 378.905 30.1143C378.557 30.1143 378.236 30.189 377.942 30.3384C377.649 30.4823 377.397 30.6981 377.187 30.9858C376.977 31.2736 376.813 31.625 376.697 32.04C376.581 32.4551 376.523 32.9338 376.523 33.4761V33.8247C376.523 34.2508 376.581 34.652 376.697 35.0283C376.819 35.3991 376.993 35.7256 377.22 36.0078C377.453 36.29 377.732 36.5114 378.059 36.6719C378.391 36.8324 378.767 36.9126 379.188 36.9126C379.73 36.9126 380.189 36.8019 380.565 36.5806C380.942 36.3592 381.271 36.0632 381.553 35.6924L382.483 36.4312C382.289 36.7244 382.043 37.0039 381.744 37.2695C381.445 37.5352 381.077 37.751 380.64 37.917C380.208 38.083 379.697 38.166 379.104 38.166ZM387.746 33.7085H386.094V32.7622H387.621C388.047 32.7622 388.385 32.7096 388.634 32.6045C388.883 32.4938 389.06 32.3416 389.165 32.1479C389.27 31.9543 389.323 31.7274 389.323 31.4673C389.323 31.2349 389.262 31.0163 389.14 30.8115C389.024 30.6012 388.836 30.4325 388.576 30.3052C388.316 30.1724 387.967 30.106 387.53 30.106C387.176 30.106 386.855 30.1696 386.567 30.2969C386.279 30.4186 386.049 30.5874 385.878 30.8032C385.712 31.0135 385.629 31.2515 385.629 31.5171H384.093C384.093 30.9692 384.248 30.4989 384.558 30.106C384.874 29.7075 385.291 29.4004 385.812 29.1846C386.337 28.9688 386.91 28.8608 387.53 28.8608C388.05 28.8608 388.515 28.9189 388.924 29.0352C389.339 29.1458 389.691 29.3118 389.979 29.5332C390.266 29.749 390.485 30.0202 390.634 30.3467C390.789 30.6676 390.867 31.0412 390.867 31.4673C390.867 31.7716 390.795 32.0594 390.651 32.3306C390.507 32.6017 390.299 32.8424 390.028 33.0527C389.757 33.2575 389.428 33.418 389.041 33.5342C388.659 33.6504 388.227 33.7085 387.746 33.7085ZM386.094 33.1274H387.746C388.282 33.1274 388.756 33.18 389.165 33.2852C389.575 33.3848 389.918 33.5342 390.194 33.7334C390.471 33.9326 390.679 34.1789 390.817 34.4722C390.961 34.7599 391.033 35.092 391.033 35.4683C391.033 35.8888 390.947 36.2679 390.775 36.6055C390.609 36.9375 390.371 37.2197 390.062 37.4521C389.752 37.6846 389.381 37.8617 388.949 37.9834C388.523 38.1051 388.05 38.166 387.53 38.166C386.949 38.166 386.384 38.0664 385.836 37.8672C385.289 37.668 384.838 37.3608 384.483 36.9458C384.129 36.5252 383.952 35.9912 383.952 35.3438H385.488C385.488 35.6149 385.574 35.8722 385.745 36.1157C385.917 36.3592 386.155 36.5557 386.459 36.7051C386.769 36.8545 387.126 36.9292 387.53 36.9292C387.961 36.9292 388.321 36.8628 388.609 36.73C388.897 36.5972 389.112 36.4201 389.256 36.1987C389.406 35.9774 389.48 35.7367 389.48 35.4766C389.48 35.139 389.414 34.8678 389.281 34.6631C389.148 34.4583 388.944 34.3089 388.667 34.2148C388.396 34.1152 388.047 34.0654 387.621 34.0654H386.094V33.1274ZM140.789 49.0186H142.325L142.192 52.3804C142.159 53.2326 142.062 53.9686 141.901 54.5884C141.741 55.2082 141.536 55.7367 141.287 56.1738C141.038 56.6055 140.759 56.9679 140.449 57.2612C140.144 57.5545 139.829 57.8008 139.502 58H138.739L138.78 56.7466L139.096 56.7383C139.278 56.5225 139.455 56.3011 139.627 56.0742C139.799 55.8418 139.956 55.5679 140.1 55.2524C140.244 54.9315 140.363 54.5413 140.457 54.082C140.557 53.6172 140.62 53.05 140.648 52.3804L140.789 49.0186ZM141.171 49.0186H146.575V58H145.039V50.438H141.171V49.0186ZM138.39 56.7383H147.729V60.6479H146.193V58H139.926V60.6479H138.382L138.39 56.7383ZM150.966 50.7451V61.4531H149.422V49.0186H150.833L150.966 50.7451ZM157.017 53.4346V53.6089C157.017 54.2619 156.94 54.8678 156.785 55.4268C156.63 55.9801 156.403 56.4616 156.104 56.8711C155.811 57.2806 155.448 57.5988 155.017 57.8257C154.585 58.0526 154.09 58.166 153.531 58.166C152.961 58.166 152.457 58.0719 152.02 57.8838C151.583 57.6956 151.212 57.4217 150.908 57.062C150.603 56.7023 150.36 56.2707 150.177 55.7671C150 55.2635 149.878 54.6963 149.812 54.0654V53.1357C149.878 52.4717 150.003 51.8768 150.186 51.3511C150.368 50.8254 150.609 50.3771 150.908 50.0063C151.212 49.63 151.58 49.3451 152.012 49.1514C152.443 48.9521 152.941 48.8525 153.506 48.8525C154.07 48.8525 154.571 48.9632 155.008 49.1846C155.445 49.4004 155.813 49.7103 156.112 50.1143C156.411 50.5182 156.635 51.0024 156.785 51.5669C156.94 52.1258 157.017 52.7484 157.017 53.4346ZM155.473 53.6089V53.4346C155.473 52.9863 155.426 52.5658 155.332 52.1729C155.238 51.7744 155.091 51.4258 154.892 51.127C154.698 50.8226 154.449 50.5846 154.145 50.4131C153.841 50.236 153.478 50.1475 153.058 50.1475C152.67 50.1475 152.333 50.2139 152.045 50.3467C151.763 50.4795 151.522 50.6593 151.323 50.8862C151.124 51.1076 150.96 51.3621 150.833 51.6499C150.711 51.9321 150.62 52.2254 150.559 52.5298V54.6797C150.67 55.0671 150.825 55.4323 151.024 55.7754C151.223 56.113 151.489 56.3869 151.821 56.5972C152.153 56.8019 152.571 56.9043 153.074 56.9043C153.489 56.9043 153.846 56.8185 154.145 56.647C154.449 56.4699 154.698 56.2292 154.892 55.9248C155.091 55.6204 155.238 55.2718 155.332 54.8789C155.426 54.4805 155.473 54.0571 155.473 53.6089ZM161.4 57.0703L163.898 49.0186H165.542L161.939 59.3862C161.856 59.6076 161.746 59.8455 161.607 60.1001C161.475 60.3602 161.303 60.6064 161.093 60.8389C160.882 61.0713 160.628 61.2594 160.329 61.4033C160.036 61.5527 159.684 61.6274 159.275 61.6274C159.153 61.6274 158.998 61.6108 158.81 61.5776C158.622 61.5444 158.489 61.5168 158.412 61.4946L158.403 60.2495C158.448 60.255 158.517 60.2606 158.611 60.2661C158.71 60.2772 158.78 60.2827 158.818 60.2827C159.167 60.2827 159.463 60.2357 159.707 60.1416C159.95 60.0531 160.155 59.9009 160.321 59.6851C160.492 59.4748 160.639 59.1842 160.761 58.8135L161.4 57.0703ZM159.565 49.0186L161.898 55.9912L162.296 57.6099L161.192 58.1743L157.889 49.0186H159.565ZM172.73 49.0186V50.2886H168.58V58H167.044V49.0186H172.73ZM175.727 55.5679L179.869 49.0186H181.413V58H179.869V51.4507L175.727 58H174.2V49.0186H175.727V55.5679ZM187.605 58.166C186.98 58.166 186.413 58.0609 185.904 57.8506C185.4 57.6348 184.966 57.3332 184.601 56.9458C184.241 56.5584 183.964 56.0991 183.771 55.5679C183.577 55.0366 183.48 54.4556 183.48 53.8247V53.4761C183.48 52.7456 183.588 52.0954 183.804 51.5254C184.02 50.9499 184.313 50.4629 184.684 50.0645C185.054 49.666 185.475 49.3644 185.945 49.1597C186.416 48.9549 186.903 48.8525 187.406 48.8525C188.048 48.8525 188.602 48.9632 189.066 49.1846C189.537 49.4059 189.921 49.7158 190.22 50.1143C190.519 50.5072 190.74 50.972 190.884 51.5088C191.028 52.04 191.1 52.6211 191.1 53.252V53.9409H184.393V52.6875H189.564V52.5713C189.542 52.1729 189.459 51.7855 189.315 51.4092C189.177 51.0329 188.956 50.723 188.651 50.4795C188.347 50.236 187.932 50.1143 187.406 50.1143C187.058 50.1143 186.737 50.189 186.443 50.3384C186.15 50.4823 185.898 50.6981 185.688 50.9858C185.478 51.2736 185.314 51.625 185.198 52.04C185.082 52.4551 185.024 52.9338 185.024 53.4761V53.8247C185.024 54.2508 185.082 54.652 185.198 55.0283C185.32 55.3991 185.494 55.7256 185.721 56.0078C185.954 56.29 186.233 56.5114 186.56 56.6719C186.892 56.8324 187.268 56.9126 187.688 56.9126C188.231 56.9126 188.69 56.8019 189.066 56.5806C189.443 56.3592 189.772 56.0632 190.054 55.6924L190.984 56.4312C190.79 56.7244 190.544 57.0039 190.245 57.2695C189.946 57.5352 189.578 57.751 189.141 57.917C188.709 58.083 188.198 58.166 187.605 58.166ZM198.778 49.0186V58H197.243V49.0186H198.778ZM204.672 49.0186L200.414 54.165H198.264L198.031 52.8203H199.791L202.804 49.0186H204.672ZM203.02 58L199.716 53.9326L200.704 52.8203L204.971 58H203.02ZM211.603 56.4644V51.8408C211.603 51.4867 211.531 51.1795 211.387 50.9194C211.249 50.6538 211.039 50.4491 210.756 50.3052C210.474 50.1613 210.125 50.0894 209.71 50.0894C209.323 50.0894 208.983 50.1558 208.689 50.2886C208.402 50.4214 208.175 50.5957 208.009 50.8115C207.848 51.0273 207.768 51.2598 207.768 51.5088H206.232C206.232 51.1878 206.315 50.8696 206.481 50.5542C206.647 50.2388 206.885 49.9538 207.195 49.6992C207.511 49.4391 207.887 49.2344 208.324 49.085C208.767 48.93 209.259 48.8525 209.802 48.8525C210.455 48.8525 211.03 48.9632 211.528 49.1846C212.032 49.4059 212.425 49.7407 212.707 50.189C212.995 50.6317 213.139 51.1878 213.139 51.8574V56.041C213.139 56.3398 213.164 56.658 213.213 56.9956C213.269 57.3332 213.349 57.6237 213.454 57.8672V58H211.852C211.775 57.8229 211.714 57.5877 211.669 57.2944C211.625 56.9956 211.603 56.7189 211.603 56.4644ZM211.869 52.5547L211.885 53.6338H210.333C209.896 53.6338 209.506 53.6698 209.163 53.7417C208.819 53.8081 208.532 53.9105 208.299 54.0488C208.067 54.1872 207.89 54.3615 207.768 54.5718C207.646 54.7765 207.585 55.0173 207.585 55.2939C207.585 55.5762 207.649 55.8335 207.776 56.0659C207.904 56.2983 208.095 56.4837 208.349 56.6221C208.609 56.7549 208.927 56.8213 209.304 56.8213C209.774 56.8213 210.189 56.7217 210.549 56.5225C210.909 56.3232 211.194 56.0798 211.404 55.792C211.62 55.5042 211.736 55.2248 211.752 54.9536L212.408 55.6924C212.369 55.9248 212.264 56.1821 212.093 56.4644C211.921 56.7466 211.692 57.0177 211.404 57.2778C211.122 57.5324 210.784 57.7454 210.391 57.917C210.004 58.083 209.567 58.166 209.08 58.166C208.471 58.166 207.937 58.047 207.478 57.8091C207.024 57.5711 206.67 57.2529 206.415 56.8545C206.166 56.4505 206.042 55.9995 206.042 55.5015C206.042 55.02 206.136 54.5967 206.324 54.2314C206.512 53.8607 206.783 53.5535 207.137 53.3101C207.491 53.061 207.917 52.8729 208.416 52.7456C208.914 52.6183 209.47 52.5547 210.084 52.5547H211.869ZM221.647 52.9116V54.1567H216.899V52.9116H221.647ZM217.223 49.0186V58H215.687V49.0186H217.223ZM222.892 49.0186V58H221.348V49.0186H222.892ZM230.662 56.4644V51.8408C230.662 51.4867 230.59 51.1795 230.446 50.9194C230.307 50.6538 230.097 50.4491 229.815 50.3052C229.533 50.1613 229.184 50.0894 228.769 50.0894C228.382 50.0894 228.041 50.1558 227.748 50.2886C227.46 50.4214 227.233 50.5957 227.067 50.8115C226.907 51.0273 226.827 51.2598 226.827 51.5088H225.291C225.291 51.1878 225.374 50.8696 225.54 50.5542C225.706 50.2388 225.944 49.9538 226.254 49.6992C226.569 49.4391 226.946 49.2344 227.383 49.085C227.826 48.93 228.318 48.8525 228.86 48.8525C229.513 48.8525 230.089 48.9632 230.587 49.1846C231.09 49.4059 231.483 49.7407 231.766 50.189C232.053 50.6317 232.197 51.1878 232.197 51.8574V56.041C232.197 56.3398 232.222 56.658 232.272 56.9956C232.327 57.3332 232.408 57.6237 232.513 57.8672V58H230.911C230.833 57.8229 230.772 57.5877 230.728 57.2944C230.684 56.9956 230.662 56.7189 230.662 56.4644ZM230.927 52.5547L230.944 53.6338H229.392C228.954 53.6338 228.564 53.6698 228.221 53.7417C227.878 53.8081 227.59 53.9105 227.358 54.0488C227.125 54.1872 226.948 54.3615 226.827 54.5718C226.705 54.7765 226.644 55.0173 226.644 55.2939C226.644 55.5762 226.708 55.8335 226.835 56.0659C226.962 56.2983 227.153 56.4837 227.408 56.6221C227.668 56.7549 227.986 56.8213 228.362 56.8213C228.833 56.8213 229.248 56.7217 229.607 56.5225C229.967 56.3232 230.252 56.0798 230.462 55.792C230.678 55.5042 230.794 55.2248 230.811 54.9536L231.467 55.6924C231.428 55.9248 231.323 56.1821 231.151 56.4644C230.98 56.7466 230.75 57.0177 230.462 57.2778C230.18 57.5324 229.843 57.7454 229.45 57.917C229.062 58.083 228.625 58.166 228.138 58.166C227.529 58.166 226.995 58.047 226.536 57.8091C226.082 57.5711 225.728 57.2529 225.474 56.8545C225.225 56.4505 225.1 55.9995 225.1 55.5015C225.1 55.02 225.194 54.5967 225.382 54.2314C225.57 53.8607 225.842 53.5535 226.196 53.3101C226.55 53.061 226.976 52.8729 227.474 52.7456C227.972 52.6183 228.528 52.5547 229.143 52.5547H230.927ZM240.614 49.0186V50.2886H236.273V49.0186H240.614ZM241.967 49.0186V58H240.432V49.0186H241.967ZM235.899 49.0186H237.443L237.211 53.3516C237.172 54.0212 237.109 54.6133 237.02 55.1279C236.937 55.637 236.821 56.0742 236.671 56.4395C236.528 56.8047 236.345 57.1035 236.124 57.3359C235.908 57.5628 235.648 57.7316 235.343 57.8423C235.039 57.9474 234.688 58 234.289 58H233.808V56.647L234.14 56.6221C234.378 56.6055 234.58 56.5501 234.746 56.4561C234.917 56.362 235.061 56.2236 235.177 56.041C235.293 55.8529 235.388 55.6121 235.459 55.3188C235.537 55.0256 235.595 54.6769 235.634 54.2729C235.678 53.869 235.711 53.3986 235.733 52.8618L235.899 49.0186ZM245.703 52.1064H248.4C249.125 52.1064 249.737 52.2337 250.235 52.4883C250.733 52.7373 251.109 53.0832 251.364 53.5259C251.624 53.9631 251.754 54.4611 251.754 55.02C251.754 55.4351 251.682 55.8252 251.538 56.1904C251.394 56.5501 251.178 56.8656 250.891 57.1367C250.608 57.4079 250.257 57.6209 249.836 57.7759C249.421 57.9253 248.943 58 248.4 58H244.582V49.0186H246.118V56.7383H248.4C248.843 56.7383 249.197 56.658 249.463 56.4976C249.729 56.3371 249.919 56.1296 250.036 55.875C250.152 55.6204 250.21 55.3548 250.21 55.0781C250.21 54.807 250.152 54.5413 250.036 54.2812C249.919 54.0212 249.729 53.8053 249.463 53.6338C249.197 53.4567 248.843 53.3682 248.4 53.3682H245.703V52.1064ZM254.95 49.0186V58H253.414V49.0186H254.95ZM265.517 49.0186V58H263.973V49.0186H265.517ZM268.53 49.0186V50.2637H261.018V49.0186H268.53ZM271.576 50.7451V61.4531H270.032V49.0186H271.443L271.576 50.7451ZM277.627 53.4346V53.6089C277.627 54.2619 277.55 54.8678 277.395 55.4268C277.24 55.9801 277.013 56.4616 276.714 56.8711C276.421 57.2806 276.059 57.5988 275.627 57.8257C275.195 58.0526 274.7 58.166 274.141 58.166C273.571 58.166 273.068 58.0719 272.63 57.8838C272.193 57.6956 271.822 57.4217 271.518 57.062C271.214 56.7023 270.97 56.2707 270.788 55.7671C270.611 55.2635 270.489 54.6963 270.422 54.0654V53.1357C270.489 52.4717 270.613 51.8768 270.796 51.3511C270.979 50.8254 271.219 50.3771 271.518 50.0063C271.822 49.63 272.19 49.3451 272.622 49.1514C273.054 48.9521 273.552 48.8525 274.116 48.8525C274.681 48.8525 275.181 48.9632 275.619 49.1846C276.056 49.4004 276.424 49.7103 276.723 50.1143C277.021 50.5182 277.246 51.0024 277.395 51.5669C277.55 52.1258 277.627 52.7484 277.627 53.4346ZM276.083 53.6089V53.4346C276.083 52.9863 276.036 52.5658 275.942 52.1729C275.848 51.7744 275.702 51.4258 275.502 51.127C275.309 50.8226 275.06 50.5846 274.755 50.4131C274.451 50.236 274.089 50.1475 273.668 50.1475C273.281 50.1475 272.943 50.2139 272.655 50.3467C272.373 50.4795 272.132 50.6593 271.933 50.8862C271.734 51.1076 271.571 51.3621 271.443 51.6499C271.322 51.9321 271.23 52.2254 271.169 52.5298V54.6797C271.28 55.0671 271.435 55.4323 271.634 55.7754C271.833 56.113 272.099 56.3869 272.431 56.5972C272.763 56.8019 273.181 56.9043 273.685 56.9043C274.1 56.9043 274.457 56.8185 274.755 56.647C275.06 56.4699 275.309 56.2292 275.502 55.9248C275.702 55.6204 275.848 55.2718 275.942 54.8789C276.036 54.4805 276.083 54.0571 276.083 53.6089ZM284.882 56.4644V51.8408C284.882 51.4867 284.81 51.1795 284.667 50.9194C284.528 50.6538 284.318 50.4491 284.036 50.3052C283.753 50.1613 283.405 50.0894 282.99 50.0894C282.602 50.0894 282.262 50.1558 281.969 50.2886C281.681 50.4214 281.454 50.5957 281.288 50.8115C281.128 51.0273 281.047 51.2598 281.047 51.5088H279.512C279.512 51.1878 279.595 50.8696 279.761 50.5542C279.927 50.2388 280.165 49.9538 280.475 49.6992C280.79 49.4391 281.166 49.2344 281.604 49.085C282.046 48.93 282.539 48.8525 283.081 48.8525C283.734 48.8525 284.31 48.9632 284.808 49.1846C285.311 49.4059 285.704 49.7407 285.986 50.189C286.274 50.6317 286.418 51.1878 286.418 51.8574V56.041C286.418 56.3398 286.443 56.658 286.493 56.9956C286.548 57.3332 286.628 57.6237 286.733 57.8672V58H285.131C285.054 57.8229 284.993 57.5877 284.949 57.2944C284.904 56.9956 284.882 56.7189 284.882 56.4644ZM285.148 52.5547L285.165 53.6338H283.612C283.175 53.6338 282.785 53.6698 282.442 53.7417C282.099 53.8081 281.811 53.9105 281.579 54.0488C281.346 54.1872 281.169 54.3615 281.047 54.5718C280.926 54.7765 280.865 55.0173 280.865 55.2939C280.865 55.5762 280.928 55.8335 281.056 56.0659C281.183 56.2983 281.374 56.4837 281.628 56.6221C281.889 56.7549 282.207 56.8213 282.583 56.8213C283.053 56.8213 283.468 56.7217 283.828 56.5225C284.188 56.3232 284.473 56.0798 284.683 55.792C284.899 55.5042 285.015 55.2248 285.032 54.9536L285.688 55.6924C285.649 55.9248 285.544 56.1821 285.372 56.4644C285.201 56.7466 284.971 57.0177 284.683 57.2778C284.401 57.5324 284.063 57.7454 283.67 57.917C283.283 58.083 282.846 58.166 282.359 58.166C281.75 58.166 281.216 58.047 280.757 57.8091C280.303 57.5711 279.949 57.2529 279.694 56.8545C279.445 56.4505 279.321 55.9995 279.321 55.5015C279.321 55.02 279.415 54.5967 279.603 54.2314C279.791 53.8607 280.062 53.5535 280.417 53.3101C280.771 53.061 281.197 52.8729 281.695 52.7456C282.193 52.6183 282.749 52.5547 283.363 52.5547H285.148ZM299.16 53.667V53.8413C299.16 54.4722 299.09 55.0532 298.952 55.5845C298.814 56.1102 298.606 56.5667 298.33 56.9541C298.058 57.3415 297.721 57.6431 297.317 57.8589C296.913 58.0692 296.445 58.1743 295.914 58.1743C295.477 58.1743 295.092 58.1162 294.76 58C294.428 57.8783 294.146 57.7039 293.914 57.4771C293.687 57.2502 293.504 56.979 293.366 56.6636C293.233 56.3426 293.142 55.9829 293.092 55.5845V51.6001C293.142 51.174 293.233 50.7922 293.366 50.4546C293.504 50.117 293.687 49.8293 293.914 49.5913C294.146 49.3534 294.425 49.1707 294.752 49.0435C295.078 48.9162 295.46 48.8525 295.897 48.8525C296.329 48.8525 296.716 48.93 297.06 49.085C297.408 49.2344 297.713 49.4502 297.973 49.7324C298.238 50.0146 298.457 50.355 298.628 50.7534C298.806 51.1463 298.938 51.589 299.027 52.0815C299.115 52.5741 299.16 53.1025 299.16 53.667ZM297.624 53.8413V53.667C297.624 53.2796 297.596 52.9116 297.541 52.563C297.491 52.2088 297.411 51.8851 297.3 51.5918C297.195 51.293 297.057 51.0329 296.885 50.8115C296.714 50.5902 296.506 50.4186 296.263 50.2969C296.025 50.1751 295.751 50.1143 295.441 50.1143C295.109 50.1143 294.832 50.1558 294.611 50.2388C294.395 50.3218 294.226 50.4325 294.104 50.5708C293.983 50.7036 293.894 50.8447 293.839 50.9941V56.1987C293.905 56.3205 294.002 56.4367 294.129 56.5474C294.257 56.6525 294.428 56.741 294.644 56.813C294.86 56.8794 295.131 56.9126 295.458 56.9126C295.845 56.9126 296.174 56.8351 296.445 56.6802C296.722 56.5197 296.946 56.2983 297.118 56.0161C297.295 55.7339 297.422 55.4074 297.5 55.0366C297.583 54.6659 297.624 54.2674 297.624 53.8413ZM288.493 53.8413V53.667C288.493 53.1025 288.537 52.5741 288.626 52.0815C288.715 51.589 288.847 51.1463 289.024 50.7534C289.201 50.355 289.42 50.0146 289.68 49.7324C289.946 49.4502 290.25 49.2344 290.593 49.085C290.942 48.93 291.332 48.8525 291.764 48.8525C292.19 48.8525 292.561 48.9162 292.876 49.0435C293.197 49.1707 293.468 49.3534 293.689 49.5913C293.911 49.8293 294.088 50.117 294.221 50.4546C294.354 50.7922 294.448 51.174 294.503 51.6001V55.4268C294.453 55.8473 294.362 56.2264 294.229 56.564C294.096 56.9015 293.919 57.1921 293.698 57.4355C293.476 57.6735 293.202 57.8561 292.876 57.9834C292.555 58.1107 292.179 58.1743 291.747 58.1743C291.216 58.1743 290.748 58.0692 290.344 57.8589C289.94 57.6431 289.6 57.3415 289.323 56.9541C289.052 56.5667 288.845 56.1102 288.701 55.5845C288.562 55.0532 288.493 54.4722 288.493 53.8413ZM290.037 53.667V53.8413C290.037 54.2674 290.073 54.6659 290.145 55.0366C290.222 55.4074 290.341 55.7339 290.502 56.0161C290.668 56.2983 290.884 56.5197 291.149 56.6802C291.415 56.8351 291.742 56.9126 292.129 56.9126C292.461 56.9126 292.735 56.8711 292.951 56.7881C293.167 56.7051 293.338 56.5972 293.465 56.4644C293.593 56.3315 293.689 56.1932 293.756 56.0493V50.9941C293.701 50.8447 293.609 50.7036 293.482 50.5708C293.36 50.4325 293.191 50.3218 292.976 50.2388C292.76 50.1558 292.483 50.1143 292.146 50.1143C291.758 50.1143 291.429 50.2083 291.158 50.3965C290.887 50.5846 290.668 50.842 290.502 51.1685C290.341 51.495 290.222 51.874 290.145 52.3057C290.073 52.7318 290.037 53.1855 290.037 53.667ZM292.992 61.4531V45.25H294.536V61.4531H292.992ZM302.829 55.5679L306.971 49.0186H308.515V58H306.971V51.4507L302.829 58H301.301V49.0186H302.829V55.5679ZM312.648 49.0186V58H311.113V49.0186H312.648ZM318.542 49.0186L314.284 54.165H312.134L311.901 52.8203H313.661L316.674 49.0186H318.542ZM316.89 58L313.586 53.9326L314.574 52.8203L318.841 58H316.89ZM325.473 56.4644V51.8408C325.473 51.4867 325.401 51.1795 325.257 50.9194C325.119 50.6538 324.909 50.4491 324.626 50.3052C324.344 50.1613 323.996 50.0894 323.581 50.0894C323.193 50.0894 322.853 50.1558 322.56 50.2886C322.272 50.4214 322.045 50.5957 321.879 50.8115C321.718 51.0273 321.638 51.2598 321.638 51.5088H320.103C320.103 51.1878 320.186 50.8696 320.352 50.5542C320.518 50.2388 320.756 49.9538 321.065 49.6992C321.381 49.4391 321.757 49.2344 322.194 49.085C322.637 48.93 323.13 48.8525 323.672 48.8525C324.325 48.8525 324.9 48.9632 325.398 49.1846C325.902 49.4059 326.295 49.7407 326.577 50.189C326.865 50.6317 327.009 51.1878 327.009 51.8574V56.041C327.009 56.3398 327.034 56.658 327.083 56.9956C327.139 57.3332 327.219 57.6237 327.324 57.8672V58H325.722C325.645 57.8229 325.584 57.5877 325.54 57.2944C325.495 56.9956 325.473 56.7189 325.473 56.4644ZM325.739 52.5547L325.755 53.6338H324.203C323.766 53.6338 323.376 53.6698 323.033 53.7417C322.69 53.8081 322.402 53.9105 322.169 54.0488C321.937 54.1872 321.76 54.3615 321.638 54.5718C321.516 54.7765 321.456 55.0173 321.456 55.2939C321.456 55.5762 321.519 55.8335 321.646 56.0659C321.774 56.2983 321.965 56.4837 322.219 56.6221C322.479 56.7549 322.798 56.8213 323.174 56.8213C323.644 56.8213 324.059 56.7217 324.419 56.5225C324.779 56.3232 325.064 56.0798 325.274 55.792C325.49 55.5042 325.606 55.2248 325.623 54.9536L326.278 55.6924C326.24 55.9248 326.134 56.1821 325.963 56.4644C325.791 56.7466 325.562 57.0177 325.274 57.2778C324.992 57.5324 324.654 57.7454 324.261 57.917C323.874 58.083 323.437 58.166 322.95 58.166C322.341 58.166 321.807 58.047 321.348 57.8091C320.894 57.5711 320.54 57.2529 320.285 56.8545C320.036 56.4505 319.912 55.9995 319.912 55.5015C319.912 55.02 320.006 54.5967 320.194 54.2314C320.382 53.8607 320.653 53.5535 321.007 53.3101C321.361 53.061 321.788 52.8729 322.286 52.7456C322.784 52.6183 323.34 52.5547 323.954 52.5547H325.739ZM143.387 74.0488H140.44L140.424 72.8203H142.831C143.307 72.8203 143.703 72.7733 144.018 72.6792C144.339 72.5851 144.58 72.444 144.74 72.2559C144.901 72.0677 144.981 71.8353 144.981 71.5586C144.981 71.3428 144.934 71.1546 144.84 70.9941C144.751 70.8281 144.616 70.6925 144.433 70.5874C144.25 70.4767 144.024 70.3965 143.752 70.3467C143.487 70.2913 143.174 70.2637 142.814 70.2637H140.847V78H139.312V69.0186H142.814C143.384 69.0186 143.896 69.0684 144.35 69.168C144.809 69.2676 145.2 69.4198 145.521 69.6245C145.847 69.8237 146.096 70.0783 146.268 70.3882C146.439 70.6981 146.525 71.0633 146.525 71.4839C146.525 71.755 146.47 72.0124 146.359 72.2559C146.248 72.4993 146.085 72.7152 145.869 72.9033C145.653 73.0915 145.388 73.2464 145.072 73.3682C144.757 73.4844 144.394 73.5591 143.985 73.5923L143.387 74.0488ZM143.387 78H139.884L140.648 76.7549H143.387C143.813 76.7549 144.167 76.7023 144.45 76.5972C144.732 76.4865 144.942 76.3315 145.081 76.1323C145.224 75.9276 145.296 75.6841 145.296 75.4019C145.296 75.1196 145.224 74.8789 145.081 74.6797C144.942 74.4749 144.732 74.32 144.45 74.2148C144.167 74.1042 143.813 74.0488 143.387 74.0488H141.055L141.071 72.8203H143.985L144.541 73.2852C145.034 73.3239 145.451 73.4456 145.794 73.6504C146.138 73.8551 146.398 74.1152 146.575 74.4307C146.752 74.7406 146.84 75.0781 146.84 75.4434C146.84 75.8639 146.76 76.2347 146.6 76.5557C146.445 76.8766 146.218 77.145 145.919 77.3608C145.62 77.5711 145.258 77.7316 144.832 77.8423C144.405 77.9474 143.924 78 143.387 78ZM156.843 78.166C156.217 78.166 155.65 78.0609 155.141 77.8506C154.638 77.6348 154.203 77.3332 153.838 76.9458C153.478 76.5584 153.201 76.0991 153.008 75.5679C152.814 75.0366 152.717 74.4556 152.717 73.8247V73.4761C152.717 72.7456 152.825 72.0954 153.041 71.5254C153.257 70.9499 153.55 70.4629 153.921 70.0645C154.292 69.666 154.712 69.3644 155.183 69.1597C155.653 68.9549 156.14 68.8525 156.644 68.8525C157.285 68.8525 157.839 68.9632 158.304 69.1846C158.774 69.4059 159.159 69.7158 159.458 70.1143C159.756 70.5072 159.978 70.972 160.122 71.5088C160.265 72.04 160.337 72.6211 160.337 73.252V73.9409H153.63V72.6875H158.802V72.5713C158.78 72.1729 158.697 71.7855 158.553 71.4092C158.414 71.0329 158.193 70.723 157.889 70.4795C157.584 70.236 157.169 70.1143 156.644 70.1143C156.295 70.1143 155.974 70.189 155.681 70.3384C155.387 70.4823 155.136 70.6981 154.925 70.9858C154.715 71.2736 154.552 71.625 154.436 72.04C154.319 72.4551 154.261 72.9338 154.261 73.4761V73.8247C154.261 74.2508 154.319 74.652 154.436 75.0283C154.557 75.3991 154.732 75.7256 154.958 76.0078C155.191 76.29 155.47 76.5114 155.797 76.6719C156.129 76.8324 156.505 76.9126 156.926 76.9126C157.468 76.9126 157.927 76.8019 158.304 76.5806C158.68 76.3592 159.009 76.0632 159.292 75.6924L160.221 76.4312C160.028 76.7244 159.781 77.0039 159.482 77.2695C159.184 77.5352 158.816 77.751 158.378 77.917C157.947 78.083 157.435 78.166 156.843 78.166ZM165.326 72.231V73.4927H161.275V72.231H165.326ZM170.423 76.9043C170.788 76.9043 171.126 76.8296 171.436 76.6802C171.745 76.5308 172 76.326 172.199 76.0659C172.398 75.8003 172.512 75.4987 172.54 75.1611H174C173.973 75.6924 173.793 76.1877 173.461 76.647C173.134 77.1007 172.706 77.4688 172.174 77.751C171.643 78.0277 171.059 78.166 170.423 78.166C169.748 78.166 169.158 78.047 168.655 77.8091C168.157 77.5711 167.742 77.2446 167.41 76.8296C167.083 76.4146 166.837 75.9386 166.671 75.4019C166.51 74.8595 166.43 74.2868 166.43 73.6836V73.335C166.43 72.7318 166.51 72.1618 166.671 71.625C166.837 71.0827 167.083 70.604 167.41 70.189C167.742 69.7739 168.157 69.4474 168.655 69.2095C169.158 68.9715 169.748 68.8525 170.423 68.8525C171.126 68.8525 171.74 68.9964 172.266 69.2842C172.791 69.5664 173.204 69.9538 173.502 70.4463C173.807 70.9333 173.973 71.4867 174 72.1064H172.54C172.512 71.7357 172.407 71.4009 172.224 71.1021C172.047 70.8032 171.804 70.5653 171.494 70.3882C171.189 70.2056 170.832 70.1143 170.423 70.1143C169.952 70.1143 169.557 70.2083 169.236 70.3965C168.92 70.5791 168.669 70.8281 168.48 71.1436C168.298 71.4535 168.165 71.7993 168.082 72.1812C168.005 72.5575 167.966 72.9421 167.966 73.335V73.6836C167.966 74.0765 168.005 74.4639 168.082 74.8457C168.16 75.2275 168.29 75.5734 168.472 75.8833C168.66 76.1932 168.912 76.4422 169.228 76.6304C169.549 76.813 169.947 76.9043 170.423 76.9043ZM175.32 73.6089V73.418C175.32 72.7705 175.414 72.1701 175.603 71.6167C175.791 71.0578 176.062 70.5736 176.416 70.1641C176.77 69.749 177.199 69.4281 177.703 69.2012C178.206 68.9688 178.771 68.8525 179.396 68.8525C180.027 68.8525 180.594 68.9688 181.098 69.2012C181.607 69.4281 182.038 69.749 182.393 70.1641C182.752 70.5736 183.026 71.0578 183.214 71.6167C183.403 72.1701 183.497 72.7705 183.497 73.418V73.6089C183.497 74.2563 183.403 74.8568 183.214 75.4102C183.026 75.9635 182.752 76.4478 182.393 76.8628C182.038 77.2723 181.61 77.5933 181.106 77.8257C180.608 78.0526 180.043 78.166 179.413 78.166C178.782 78.166 178.215 78.0526 177.711 77.8257C177.207 77.5933 176.776 77.2723 176.416 76.8628C176.062 76.4478 175.791 75.9635 175.603 75.4102C175.414 74.8568 175.32 74.2563 175.32 73.6089ZM176.856 73.418V73.6089C176.856 74.0571 176.909 74.4805 177.014 74.8789C177.119 75.2718 177.277 75.6204 177.487 75.9248C177.703 76.2292 177.971 76.4699 178.292 76.647C178.613 76.8185 178.986 76.9043 179.413 76.9043C179.833 76.9043 180.201 76.8185 180.517 76.647C180.838 76.4699 181.103 76.2292 181.313 75.9248C181.524 75.6204 181.681 75.2718 181.787 74.8789C181.897 74.4805 181.953 74.0571 181.953 73.6089V73.418C181.953 72.9753 181.897 72.5575 181.787 72.1646C181.681 71.7661 181.521 71.4147 181.305 71.1104C181.095 70.8005 180.829 70.557 180.508 70.3799C180.193 70.2028 179.822 70.1143 179.396 70.1143C178.975 70.1143 178.605 70.2028 178.284 70.3799C177.968 70.557 177.703 70.8005 177.487 71.1104C177.277 71.4147 177.119 71.7661 177.014 72.1646C176.909 72.5575 176.856 72.9753 176.856 73.418ZM186.95 70.8032V78H185.406V69.0186H186.867L186.95 70.8032ZM186.634 73.1689L185.92 73.144C185.926 72.5298 186.006 71.9626 186.161 71.4424C186.316 70.9167 186.546 70.4601 186.85 70.0728C187.154 69.6854 187.534 69.3866 187.987 69.1763C188.441 68.9604 188.967 68.8525 189.564 68.8525C189.985 68.8525 190.372 68.9134 190.727 69.0352C191.081 69.1514 191.388 69.3368 191.648 69.5913C191.908 69.8459 192.11 70.1724 192.254 70.5708C192.398 70.9692 192.47 71.4507 192.47 72.0151V78H190.934V72.0898C190.934 71.6195 190.854 71.2432 190.693 70.9609C190.538 70.6787 190.317 70.474 190.029 70.3467C189.742 70.2139 189.404 70.1475 189.017 70.1475C188.563 70.1475 188.184 70.2277 187.879 70.3882C187.575 70.5487 187.332 70.77 187.149 71.0522C186.966 71.3345 186.833 71.6582 186.75 72.0234C186.673 72.3831 186.634 72.765 186.634 73.1689ZM192.453 72.3223L191.424 72.6377C191.429 72.1452 191.51 71.672 191.665 71.2183C191.825 70.7645 192.055 70.3605 192.354 70.0063C192.658 69.6522 193.031 69.3727 193.474 69.168C193.917 68.9577 194.423 68.8525 194.993 68.8525C195.475 68.8525 195.901 68.9162 196.271 69.0435C196.648 69.1707 196.963 69.3672 197.218 69.6328C197.478 69.8929 197.674 70.2277 197.807 70.6372C197.94 71.0467 198.006 71.5337 198.006 72.0981V78H196.462V72.0815C196.462 71.578 196.382 71.1878 196.222 70.9111C196.067 70.6289 195.845 70.4325 195.558 70.3218C195.275 70.2056 194.938 70.1475 194.545 70.1475C194.207 70.1475 193.909 70.2056 193.648 70.3218C193.388 70.438 193.17 70.5985 192.993 70.8032C192.816 71.0024 192.68 71.2321 192.586 71.4922C192.497 71.7523 192.453 72.029 192.453 72.3223ZM201.858 70.8032V78H200.314V69.0186H201.775L201.858 70.8032ZM201.542 73.1689L200.829 73.144C200.834 72.5298 200.914 71.9626 201.069 71.4424C201.224 70.9167 201.454 70.4601 201.758 70.0728C202.063 69.6854 202.442 69.3866 202.896 69.1763C203.349 68.9604 203.875 68.8525 204.473 68.8525C204.893 68.8525 205.281 68.9134 205.635 69.0352C205.989 69.1514 206.296 69.3368 206.556 69.5913C206.816 69.8459 207.018 70.1724 207.162 70.5708C207.306 70.9692 207.378 71.4507 207.378 72.0151V78H205.842V72.0898C205.842 71.6195 205.762 71.2432 205.602 70.9609C205.447 70.6787 205.225 70.474 204.938 70.3467C204.65 70.2139 204.312 70.1475 203.925 70.1475C203.471 70.1475 203.092 70.2277 202.788 70.3882C202.483 70.5487 202.24 70.77 202.057 71.0522C201.875 71.3345 201.742 71.6582 201.659 72.0234C201.581 72.3831 201.542 72.765 201.542 73.1689ZM207.361 72.3223L206.332 72.6377C206.338 72.1452 206.418 71.672 206.573 71.2183C206.733 70.7645 206.963 70.3605 207.262 70.0063C207.566 69.6522 207.94 69.3727 208.382 69.168C208.825 68.9577 209.331 68.8525 209.901 68.8525C210.383 68.8525 210.809 68.9162 211.18 69.0435C211.556 69.1707 211.871 69.3672 212.126 69.6328C212.386 69.8929 212.583 70.2277 212.715 70.6372C212.848 71.0467 212.915 71.5337 212.915 72.0981V78H211.371V72.0815C211.371 71.578 211.29 71.1878 211.13 70.9111C210.975 70.6289 210.754 70.4325 210.466 70.3218C210.184 70.2056 209.846 70.1475 209.453 70.1475C209.116 70.1475 208.817 70.2056 208.557 70.3218C208.297 70.438 208.078 70.5985 207.901 70.8032C207.724 71.0024 207.588 71.2321 207.494 71.4922C207.406 71.7523 207.361 72.029 207.361 72.3223ZM218.966 78.166C218.34 78.166 217.773 78.0609 217.264 77.8506C216.761 77.6348 216.326 77.3332 215.961 76.9458C215.601 76.5584 215.325 76.0991 215.131 75.5679C214.937 75.0366 214.84 74.4556 214.84 73.8247V73.4761C214.84 72.7456 214.948 72.0954 215.164 71.5254C215.38 70.9499 215.673 70.4629 216.044 70.0645C216.415 69.666 216.835 69.3644 217.306 69.1597C217.776 68.9549 218.263 68.8525 218.767 68.8525C219.409 68.8525 219.962 68.9632 220.427 69.1846C220.897 69.4059 221.282 69.7158 221.581 70.1143C221.879 70.5072 222.101 70.972 222.245 71.5088C222.389 72.04 222.46 72.6211 222.46 73.252V73.9409H215.753V72.6875H220.925V72.5713C220.903 72.1729 220.82 71.7855 220.676 71.4092C220.537 71.0329 220.316 70.723 220.012 70.4795C219.707 70.236 219.292 70.1143 218.767 70.1143C218.418 70.1143 218.097 70.189 217.804 70.3384C217.51 70.4823 217.259 70.6981 217.048 70.9858C216.838 71.2736 216.675 71.625 216.559 72.04C216.442 72.4551 216.384 72.9338 216.384 73.4761V73.8247C216.384 74.2508 216.442 74.652 216.559 75.0283C216.68 75.3991 216.855 75.7256 217.082 76.0078C217.314 76.29 217.593 76.5114 217.92 76.6719C218.252 76.8324 218.628 76.9126 219.049 76.9126C219.591 76.9126 220.05 76.8019 220.427 76.5806C220.803 76.3592 221.132 76.0632 221.415 75.6924L222.344 76.4312C222.151 76.7244 221.904 77.0039 221.605 77.2695C221.307 77.5352 220.939 77.751 220.501 77.917C220.07 78.083 219.558 78.166 218.966 78.166ZM225.789 70.4297V78H224.253V69.0186H225.748L225.789 70.4297ZM228.595 68.9688L228.586 70.3965C228.459 70.3688 228.337 70.3522 228.221 70.3467C228.111 70.3356 227.983 70.3301 227.839 70.3301C227.485 70.3301 227.173 70.3854 226.901 70.4961C226.63 70.6068 226.401 70.7617 226.212 70.9609C226.024 71.1602 225.875 71.3981 225.764 71.6748C225.659 71.946 225.59 72.2448 225.557 72.5713L225.125 72.8203C225.125 72.278 225.178 71.7689 225.283 71.293C225.393 70.8171 225.562 70.3965 225.789 70.0312C226.016 69.6605 226.304 69.3727 226.652 69.168C227.007 68.9577 227.427 68.8525 227.914 68.8525C228.025 68.8525 228.152 68.8664 228.296 68.894C228.44 68.9162 228.539 68.9411 228.595 68.9688ZM233.442 76.9043C233.808 76.9043 234.145 76.8296 234.455 76.6802C234.765 76.5308 235.02 76.326 235.219 76.0659C235.418 75.8003 235.531 75.4987 235.559 75.1611H237.02C236.992 75.6924 236.812 76.1877 236.48 76.647C236.154 77.1007 235.725 77.4688 235.194 77.751C234.663 78.0277 234.079 78.166 233.442 78.166C232.767 78.166 232.178 78.047 231.674 77.8091C231.176 77.5711 230.761 77.2446 230.429 76.8296C230.103 76.4146 229.856 75.9386 229.69 75.4019C229.53 74.8595 229.45 74.2868 229.45 73.6836V73.335C229.45 72.7318 229.53 72.1618 229.69 71.625C229.856 71.0827 230.103 70.604 230.429 70.189C230.761 69.7739 231.176 69.4474 231.674 69.2095C232.178 68.9715 232.767 68.8525 233.442 68.8525C234.145 68.8525 234.759 68.9964 235.285 69.2842C235.811 69.5664 236.223 69.9538 236.522 70.4463C236.826 70.9333 236.992 71.4867 237.02 72.1064H235.559C235.531 71.7357 235.426 71.4009 235.244 71.1021C235.067 70.8032 234.823 70.5653 234.513 70.3882C234.209 70.2056 233.852 70.1143 233.442 70.1143C232.972 70.1143 232.576 70.2083 232.255 70.3965C231.94 70.5791 231.688 70.8281 231.5 71.1436C231.317 71.4535 231.185 71.7993 231.102 72.1812C231.024 72.5575 230.985 72.9421 230.985 73.335V73.6836C230.985 74.0765 231.024 74.4639 231.102 74.8457C231.179 75.2275 231.309 75.5734 231.492 75.8833C231.68 76.1932 231.932 76.4422 232.247 76.6304C232.568 76.813 232.966 76.9043 233.442 76.9043ZM242.474 78.166C241.848 78.166 241.281 78.0609 240.772 77.8506C240.268 77.6348 239.834 77.3332 239.469 76.9458C239.109 76.5584 238.832 76.0991 238.639 75.5679C238.445 75.0366 238.348 74.4556 238.348 73.8247V73.4761C238.348 72.7456 238.456 72.0954 238.672 71.5254C238.888 70.9499 239.181 70.4629 239.552 70.0645C239.923 69.666 240.343 69.3644 240.813 69.1597C241.284 68.9549 241.771 68.8525 242.274 68.8525C242.916 68.8525 243.47 68.9632 243.935 69.1846C244.405 69.4059 244.79 69.7158 245.088 70.1143C245.387 70.5072 245.609 70.972 245.752 71.5088C245.896 72.04 245.968 72.6211 245.968 73.252V73.9409H239.261V72.6875H244.433V72.5713C244.41 72.1729 244.327 71.7855 244.184 71.4092C244.045 71.0329 243.824 70.723 243.52 70.4795C243.215 70.236 242.8 70.1143 242.274 70.1143C241.926 70.1143 241.605 70.189 241.312 70.3384C241.018 70.4823 240.766 70.6981 240.556 70.9858C240.346 71.2736 240.183 71.625 240.066 72.04C239.95 72.4551 239.892 72.9338 239.892 73.4761V73.8247C239.892 74.2508 239.95 74.652 240.066 75.0283C240.188 75.3991 240.362 75.7256 240.589 76.0078C240.822 76.29 241.101 76.5114 241.428 76.6719C241.76 76.8324 242.136 76.9126 242.557 76.9126C243.099 76.9126 243.558 76.8019 243.935 76.5806C244.311 76.3592 244.64 76.0632 244.922 75.6924L245.852 76.4312C245.658 76.7244 245.412 77.0039 245.113 77.2695C244.814 77.5352 244.446 77.751 244.009 77.917C243.578 78.083 243.066 78.166 242.474 78.166ZM139.112 93.1689V93.0859C139.112 91.8796 139.248 90.7894 139.519 89.8154C139.79 88.8359 140.136 87.9782 140.557 87.2422C140.977 86.5062 141.42 85.8975 141.885 85.416C142.35 84.929 142.778 84.5776 143.171 84.3618L143.495 85.3745C143.169 85.6235 142.837 85.9666 142.499 86.4038C142.167 86.841 141.86 87.3778 141.578 88.0142C141.301 88.6506 141.077 89.3893 140.905 90.2305C140.734 91.0716 140.648 92.0179 140.648 93.0693V93.1855C140.648 94.237 140.734 95.186 140.905 96.0327C141.077 96.8739 141.301 97.6154 141.578 98.2573C141.86 98.8993 142.167 99.4443 142.499 99.8926C142.837 100.346 143.169 100.706 143.495 100.972L143.171 101.901C142.778 101.686 142.35 101.334 141.885 100.847C141.42 100.366 140.977 99.757 140.557 99.021C140.136 98.2905 139.79 97.4355 139.519 96.4561C139.248 95.4766 139.112 94.3809 139.112 93.1689ZM148.592 96.9043C148.957 96.9043 149.295 96.8296 149.604 96.6802C149.914 96.5308 150.169 96.326 150.368 96.0659C150.567 95.8003 150.681 95.4987 150.708 95.1611H152.169C152.142 95.6924 151.962 96.1877 151.63 96.647C151.303 97.1007 150.875 97.4688 150.343 97.751C149.812 98.0277 149.228 98.166 148.592 98.166C147.917 98.166 147.327 98.047 146.824 97.8091C146.326 97.5711 145.911 97.2446 145.579 96.8296C145.252 96.4146 145.006 95.9386 144.84 95.4019C144.679 94.8595 144.599 94.2868 144.599 93.6836V93.335C144.599 92.7318 144.679 92.1618 144.84 91.625C145.006 91.0827 145.252 90.604 145.579 90.189C145.911 89.7739 146.326 89.4474 146.824 89.2095C147.327 88.9715 147.917 88.8525 148.592 88.8525C149.295 88.8525 149.909 88.9964 150.435 89.2842C150.96 89.5664 151.373 89.9538 151.671 90.4463C151.976 90.9333 152.142 91.4867 152.169 92.1064H150.708C150.681 91.7357 150.576 91.4009 150.393 91.1021C150.216 90.8032 149.972 90.5653 149.663 90.3882C149.358 90.2056 149.001 90.1143 148.592 90.1143C148.121 90.1143 147.726 90.2083 147.405 90.3965C147.089 90.5791 146.838 90.8281 146.649 91.1436C146.467 91.4535 146.334 91.7993 146.251 92.1812C146.174 92.5575 146.135 92.9421 146.135 93.335V93.6836C146.135 94.0765 146.174 94.4639 146.251 94.8457C146.328 95.2275 146.458 95.5734 146.641 95.8833C146.829 96.1932 147.081 96.4422 147.396 96.6304C147.717 96.813 148.116 96.9043 148.592 96.9043ZM153.489 93.6089V93.418C153.489 92.7705 153.583 92.1701 153.771 91.6167C153.96 91.0578 154.231 90.5736 154.585 90.1641C154.939 89.749 155.368 89.4281 155.872 89.2012C156.375 88.9688 156.94 88.8525 157.565 88.8525C158.196 88.8525 158.763 88.9688 159.267 89.2012C159.776 89.4281 160.207 89.749 160.562 90.1641C160.921 90.5736 161.195 91.0578 161.383 91.6167C161.571 92.1701 161.666 92.7705 161.666 93.418V93.6089C161.666 94.2563 161.571 94.8568 161.383 95.4102C161.195 95.9635 160.921 96.4478 160.562 96.8628C160.207 97.2723 159.778 97.5933 159.275 97.8257C158.777 98.0526 158.212 98.166 157.582 98.166C156.951 98.166 156.383 98.0526 155.88 97.8257C155.376 97.5933 154.945 97.2723 154.585 96.8628C154.231 96.4478 153.96 95.9635 153.771 95.4102C153.583 94.8568 153.489 94.2563 153.489 93.6089ZM155.025 93.418V93.6089C155.025 94.0571 155.077 94.4805 155.183 94.8789C155.288 95.2718 155.445 95.6204 155.656 95.9248C155.872 96.2292 156.14 96.4699 156.461 96.647C156.782 96.8185 157.155 96.9043 157.582 96.9043C158.002 96.9043 158.37 96.8185 158.686 96.647C159.007 96.4699 159.272 96.2292 159.482 95.9248C159.693 95.6204 159.85 95.2718 159.956 94.8789C160.066 94.4805 160.122 94.0571 160.122 93.6089V93.418C160.122 92.9753 160.066 92.5575 159.956 92.1646C159.85 91.7661 159.69 91.4147 159.474 91.1104C159.264 90.8005 158.998 90.557 158.677 90.3799C158.362 90.2028 157.991 90.1143 157.565 90.1143C157.144 90.1143 156.774 90.2028 156.453 90.3799C156.137 90.557 155.872 90.8005 155.656 91.1104C155.445 91.4147 155.288 91.7661 155.183 92.1646C155.077 92.5575 155.025 92.9753 155.025 93.418ZM169.352 85.1089H170.614C170.614 85.6512 170.531 86.0828 170.365 86.4038C170.199 86.7192 169.972 86.9627 169.684 87.1343C169.402 87.3058 169.081 87.4359 168.721 87.5244C168.367 87.613 167.999 87.6987 167.617 87.7817C167.141 87.8813 166.699 88.0391 166.289 88.2549C165.885 88.4652 165.536 88.764 165.243 89.1514C164.955 89.5387 164.742 90.0423 164.604 90.6621C164.471 91.2819 164.435 92.0483 164.496 92.9614V93.7251H163.234V92.9614C163.234 91.9377 163.331 91.0439 163.525 90.2803C163.724 89.5166 164.004 88.8719 164.363 88.3462C164.723 87.8205 165.149 87.4027 165.642 87.0928C166.14 86.7829 166.688 86.5698 167.285 86.4536C167.717 86.3706 168.088 86.2821 168.397 86.188C168.707 86.0884 168.943 85.9556 169.103 85.7896C169.269 85.6235 169.352 85.3966 169.352 85.1089ZM167.534 89.5332C168.121 89.5332 168.644 89.6356 169.103 89.8403C169.562 90.0451 169.952 90.3301 170.273 90.6953C170.594 91.0605 170.838 91.4922 171.004 91.9902C171.175 92.4827 171.261 93.0195 171.261 93.6006V93.7832C171.261 94.4085 171.17 94.9896 170.987 95.5264C170.81 96.0576 170.547 96.5225 170.199 96.9209C169.856 97.3138 169.435 97.6209 168.937 97.8423C168.444 98.0636 167.883 98.1743 167.252 98.1743C166.621 98.1743 166.057 98.0636 165.559 97.8423C165.066 97.6209 164.646 97.3138 164.297 96.9209C163.948 96.5225 163.683 96.0576 163.5 95.5264C163.323 94.9896 163.234 94.4085 163.234 93.7832V93.6006C163.234 93.4622 163.259 93.3267 163.309 93.1938C163.359 93.061 163.42 92.9255 163.492 92.7871C163.569 92.6488 163.638 92.5021 163.699 92.3472C163.904 91.8491 164.183 91.387 164.538 90.9609C164.897 90.5348 165.326 90.1917 165.824 89.9316C166.328 89.666 166.898 89.5332 167.534 89.5332ZM167.235 90.7866C166.671 90.7866 166.206 90.9167 165.841 91.1768C165.481 91.4368 165.213 91.7827 165.036 92.2144C164.859 92.6405 164.77 93.1025 164.77 93.6006V93.7832C164.77 94.2038 164.82 94.6022 164.919 94.9785C165.019 95.3548 165.168 95.6896 165.368 95.9829C165.572 96.2707 165.83 96.4976 166.14 96.6636C166.455 96.8296 166.826 96.9126 167.252 96.9126C167.678 96.9126 168.046 96.8296 168.356 96.6636C168.666 96.4976 168.92 96.2707 169.12 95.9829C169.319 95.6896 169.468 95.3548 169.568 94.9785C169.667 94.6022 169.717 94.2038 169.717 93.7832V93.6006C169.717 93.2243 169.667 92.8674 169.568 92.5298C169.468 92.1922 169.316 91.8934 169.111 91.6333C168.912 91.3732 168.655 91.1685 168.339 91.019C168.029 90.8641 167.661 90.7866 167.235 90.7866ZM176.599 96.9043C176.964 96.9043 177.301 96.8296 177.611 96.6802C177.921 96.5308 178.176 96.326 178.375 96.0659C178.574 95.8003 178.688 95.4987 178.715 95.1611H180.176C180.149 95.6924 179.969 96.1877 179.637 96.647C179.31 97.1007 178.881 97.4688 178.35 97.751C177.819 98.0277 177.235 98.166 176.599 98.166C175.924 98.166 175.334 98.047 174.831 97.8091C174.333 97.5711 173.917 97.2446 173.585 96.8296C173.259 96.4146 173.013 95.9386 172.847 95.4019C172.686 94.8595 172.606 94.2868 172.606 93.6836V93.335C172.606 92.7318 172.686 92.1618 172.847 91.625C173.013 91.0827 173.259 90.604 173.585 90.189C173.917 89.7739 174.333 89.4474 174.831 89.2095C175.334 88.9715 175.924 88.8525 176.599 88.8525C177.301 88.8525 177.916 88.9964 178.441 89.2842C178.967 89.5664 179.379 89.9538 179.678 90.4463C179.983 90.9333 180.149 91.4867 180.176 92.1064H178.715C178.688 91.7357 178.583 91.4009 178.4 91.1021C178.223 90.8032 177.979 90.5653 177.669 90.3882C177.365 90.2056 177.008 90.1143 176.599 90.1143C176.128 90.1143 175.733 90.2083 175.412 90.3965C175.096 90.5791 174.844 90.8281 174.656 91.1436C174.474 91.4535 174.341 91.7993 174.258 92.1812C174.18 92.5575 174.142 92.9421 174.142 93.335V93.6836C174.142 94.0765 174.18 94.4639 174.258 94.8457C174.335 95.2275 174.465 95.5734 174.648 95.8833C174.836 96.1932 175.088 96.4422 175.403 96.6304C175.724 96.813 176.123 96.9043 176.599 96.9043ZM185.563 89.0186V98H184.02V89.0186H185.563ZM188.577 89.0186V90.2637H181.064V89.0186H188.577ZM194.304 94.0488H191.357L191.341 92.8203H193.748C194.224 92.8203 194.62 92.7733 194.935 92.6792C195.256 92.5851 195.497 92.444 195.657 92.2559C195.818 92.0677 195.898 91.8353 195.898 91.5586C195.898 91.3428 195.851 91.1546 195.757 90.9941C195.668 90.8281 195.533 90.6925 195.35 90.5874C195.167 90.4767 194.941 90.3965 194.669 90.3467C194.404 90.2913 194.091 90.2637 193.731 90.2637H191.764V98H190.229V89.0186H193.731C194.301 89.0186 194.813 89.0684 195.267 89.168C195.726 89.2676 196.117 89.4198 196.438 89.6245C196.764 89.8237 197.013 90.0783 197.185 90.3882C197.356 90.6981 197.442 91.0633 197.442 91.4839C197.442 91.755 197.387 92.0124 197.276 92.2559C197.165 92.4993 197.002 92.7152 196.786 92.9033C196.57 93.0915 196.305 93.2464 195.989 93.3682C195.674 93.4844 195.311 93.5591 194.902 93.5923L194.304 94.0488ZM194.304 98H190.801L191.565 96.7549H194.304C194.73 96.7549 195.084 96.7023 195.367 96.5972C195.649 96.4865 195.859 96.3315 195.998 96.1323C196.141 95.9276 196.213 95.6841 196.213 95.4019C196.213 95.1196 196.141 94.8789 195.998 94.6797C195.859 94.4749 195.649 94.32 195.367 94.2148C195.084 94.1042 194.73 94.0488 194.304 94.0488H191.972L191.988 92.8203H194.902L195.458 93.2852C195.951 93.3239 196.368 93.4456 196.711 93.6504C197.055 93.8551 197.315 94.1152 197.492 94.4307C197.669 94.7406 197.757 95.0781 197.757 95.4434C197.757 95.8639 197.677 96.2347 197.517 96.5557C197.362 96.8766 197.135 97.145 196.836 97.3608C196.537 97.5711 196.175 97.7316 195.749 97.8423C195.322 97.9474 194.841 98 194.304 98ZM203.543 98.166C202.918 98.166 202.35 98.0609 201.841 97.8506C201.338 97.6348 200.903 97.3332 200.538 96.9458C200.178 96.5584 199.902 96.0991 199.708 95.5679C199.514 95.0366 199.417 94.4556 199.417 93.8247V93.4761C199.417 92.7456 199.525 92.0954 199.741 91.5254C199.957 90.9499 200.25 90.4629 200.621 90.0645C200.992 89.666 201.412 89.3644 201.883 89.1597C202.353 88.9549 202.84 88.8525 203.344 88.8525C203.986 88.8525 204.539 88.9632 205.004 89.1846C205.474 89.4059 205.859 89.7158 206.158 90.1143C206.457 90.5072 206.678 90.972 206.822 91.5088C206.966 92.04 207.038 92.6211 207.038 93.252V93.9409H200.331V92.6875H205.502V92.5713C205.48 92.1729 205.397 91.7855 205.253 91.4092C205.115 91.0329 204.893 90.723 204.589 90.4795C204.285 90.236 203.869 90.1143 203.344 90.1143C202.995 90.1143 202.674 90.189 202.381 90.3384C202.088 90.4823 201.836 90.6981 201.625 90.9858C201.415 91.2736 201.252 91.625 201.136 92.04C201.02 92.4551 200.961 92.9338 200.961 93.4761V93.8247C200.961 94.2508 201.02 94.652 201.136 95.0283C201.257 95.3991 201.432 95.7256 201.659 96.0078C201.891 96.29 202.171 96.5114 202.497 96.6719C202.829 96.8324 203.205 96.9126 203.626 96.9126C204.168 96.9126 204.628 96.8019 205.004 96.5806C205.38 96.3592 205.709 96.0632 205.992 95.6924L206.921 96.4312C206.728 96.7244 206.481 97.0039 206.183 97.2695C205.884 97.5352 205.516 97.751 205.079 97.917C204.647 98.083 204.135 98.166 203.543 98.166ZM214.923 92.9116V94.1567H210.175V92.9116H214.923ZM210.499 89.0186V98H208.963V89.0186H210.499ZM216.168 89.0186V98H214.625V89.0186H216.168ZM224.735 92.9116V94.1567H219.987V92.9116H224.735ZM220.311 89.0186V98H218.775V89.0186H220.311ZM225.98 89.0186V98H224.436V89.0186H225.98ZM229.715 92.1064H232.413C233.138 92.1064 233.75 92.2337 234.248 92.4883C234.746 92.7373 235.122 93.0832 235.376 93.5259C235.637 93.9631 235.767 94.4611 235.767 95.02C235.767 95.4351 235.695 95.8252 235.551 96.1904C235.407 96.5501 235.191 96.8656 234.903 97.1367C234.621 97.4079 234.27 97.6209 233.849 97.7759C233.434 97.9253 232.955 98 232.413 98H228.595V89.0186H230.13V96.7383H232.413C232.856 96.7383 233.21 96.658 233.476 96.4976C233.741 96.3371 233.932 96.1296 234.048 95.875C234.165 95.6204 234.223 95.3548 234.223 95.0781C234.223 94.807 234.165 94.5413 234.048 94.2812C233.932 94.0212 233.741 93.8053 233.476 93.6338C233.21 93.4567 232.856 93.3682 232.413 93.3682H229.715V92.1064ZM238.962 89.0186V98H237.427V89.0186H238.962ZM243.312 95.5679L247.454 89.0186H248.998V98H247.454V91.4507L243.312 98H241.785V89.0186H243.312V95.5679ZM246.616 85.7646H247.861C247.861 86.1963 247.761 86.5809 247.562 86.9185C247.363 87.2505 247.078 87.5106 246.707 87.6987C246.336 87.8869 245.896 87.981 245.387 87.981C244.618 87.981 244.009 87.7762 243.561 87.3667C243.118 86.9517 242.897 86.4176 242.897 85.7646H244.142C244.142 86.0911 244.236 86.3789 244.424 86.6279C244.612 86.877 244.933 87.0015 245.387 87.0015C245.83 87.0015 246.145 86.877 246.333 86.6279C246.522 86.3789 246.616 86.0911 246.616 85.7646ZM259.274 96.9043C259.64 96.9043 259.977 96.8296 260.287 96.6802C260.597 96.5308 260.852 96.326 261.051 96.0659C261.25 95.8003 261.363 95.4987 261.391 95.1611H262.852C262.824 95.6924 262.645 96.1877 262.312 96.647C261.986 97.1007 261.557 97.4688 261.026 97.751C260.495 98.0277 259.911 98.166 259.274 98.166C258.599 98.166 258.01 98.047 257.506 97.8091C257.008 97.5711 256.593 97.2446 256.261 96.8296C255.935 96.4146 255.688 95.9386 255.522 95.4019C255.362 94.8595 255.282 94.2868 255.282 93.6836V93.335C255.282 92.7318 255.362 92.1618 255.522 91.625C255.688 91.0827 255.935 90.604 256.261 90.189C256.593 89.7739 257.008 89.4474 257.506 89.2095C258.01 88.9715 258.599 88.8525 259.274 88.8525C259.977 88.8525 260.591 88.9964 261.117 89.2842C261.643 89.5664 262.055 89.9538 262.354 90.4463C262.658 90.9333 262.824 91.4867 262.852 92.1064H261.391C261.363 91.7357 261.258 91.4009 261.076 91.1021C260.899 90.8032 260.655 90.5653 260.345 90.3882C260.041 90.2056 259.684 90.1143 259.274 90.1143C258.804 90.1143 258.408 90.2083 258.087 90.3965C257.772 90.5791 257.52 90.8281 257.332 91.1436C257.149 91.4535 257.017 91.7993 256.934 92.1812C256.856 92.5575 256.817 92.9421 256.817 93.335V93.6836C256.817 94.0765 256.856 94.4639 256.934 94.8457C257.011 95.2275 257.141 95.5734 257.324 95.8833C257.512 96.1932 257.764 96.4422 258.079 96.6304C258.4 96.813 258.799 96.9043 259.274 96.9043ZM269.875 96.4644V91.8408C269.875 91.4867 269.803 91.1795 269.659 90.9194C269.52 90.6538 269.31 90.4491 269.028 90.3052C268.746 90.1613 268.397 90.0894 267.982 90.0894C267.595 90.0894 267.254 90.1558 266.961 90.2886C266.673 90.4214 266.446 90.5957 266.28 90.8115C266.12 91.0273 266.04 91.2598 266.04 91.5088H264.504C264.504 91.1878 264.587 90.8696 264.753 90.5542C264.919 90.2388 265.157 89.9538 265.467 89.6992C265.782 89.4391 266.159 89.2344 266.596 89.085C267.038 88.93 267.531 88.8525 268.073 88.8525C268.726 88.8525 269.302 88.9632 269.8 89.1846C270.303 89.4059 270.696 89.7407 270.979 90.189C271.266 90.6317 271.41 91.1878 271.41 91.8574V96.041C271.41 96.3398 271.435 96.658 271.485 96.9956C271.54 97.3332 271.62 97.6237 271.726 97.8672V98H270.124C270.046 97.8229 269.985 97.5877 269.941 97.2944C269.897 96.9956 269.875 96.7189 269.875 96.4644ZM270.14 92.5547L270.157 93.6338H268.604C268.167 93.6338 267.777 93.6698 267.434 93.7417C267.091 93.8081 266.803 93.9105 266.571 94.0488C266.338 94.1872 266.161 94.3615 266.04 94.5718C265.918 94.7765 265.857 95.0173 265.857 95.2939C265.857 95.5762 265.921 95.8335 266.048 96.0659C266.175 96.2983 266.366 96.4837 266.621 96.6221C266.881 96.7549 267.199 96.8213 267.575 96.8213C268.046 96.8213 268.461 96.7217 268.82 96.5225C269.18 96.3232 269.465 96.0798 269.675 95.792C269.891 95.5042 270.007 95.2248 270.024 94.9536L270.68 95.6924C270.641 95.9248 270.536 96.1821 270.364 96.4644C270.193 96.7466 269.963 97.0177 269.675 97.2778C269.393 97.5324 269.056 97.7454 268.663 97.917C268.275 98.083 267.838 98.166 267.351 98.166C266.742 98.166 266.208 98.047 265.749 97.8091C265.295 97.5711 264.941 97.2529 264.687 96.8545C264.438 96.4505 264.313 95.9995 264.313 95.5015C264.313 95.02 264.407 94.5967 264.595 94.2314C264.783 93.8607 265.055 93.5535 265.409 93.3101C265.763 93.061 266.189 92.8729 266.687 92.7456C267.185 92.6183 267.741 92.5547 268.355 92.5547H270.14ZM275.486 95.5679L279.628 89.0186H281.172V98H279.628V91.4507L275.486 98H273.958V89.0186H275.486V95.5679ZM278.79 85.7646H280.035C280.035 86.1963 279.935 86.5809 279.736 86.9185C279.537 87.2505 279.252 87.5106 278.881 87.6987C278.51 87.8869 278.07 87.981 277.561 87.981C276.792 87.981 276.183 87.7762 275.735 87.3667C275.292 86.9517 275.071 86.4176 275.071 85.7646H276.316C276.316 86.0911 276.41 86.3789 276.598 86.6279C276.786 86.877 277.107 87.0015 277.561 87.0015C278.004 87.0015 278.319 86.877 278.507 86.6279C278.695 86.3789 278.79 86.0911 278.79 85.7646ZM287.298 89.0186V98H285.754V89.0186H287.298ZM290.311 89.0186V90.2637H282.799V89.0186H290.311ZM293.216 96.1738V97.4106C293.216 97.9142 293.089 98.4455 292.834 99.0044C292.58 99.5688 292.223 100.039 291.764 100.416L290.892 99.8096C291.069 99.5661 291.219 99.3171 291.34 99.0625C291.462 98.8135 291.553 98.5534 291.614 98.2822C291.681 98.0166 291.714 97.7344 291.714 97.4355V96.1738H293.216ZM302.986 96.9043C303.352 96.9043 303.689 96.8296 303.999 96.6802C304.309 96.5308 304.563 96.326 304.763 96.0659C304.962 95.8003 305.075 95.4987 305.103 95.1611H306.564C306.536 95.6924 306.356 96.1877 306.024 96.647C305.698 97.1007 305.269 97.4688 304.738 97.751C304.207 98.0277 303.623 98.166 302.986 98.166C302.311 98.166 301.722 98.047 301.218 97.8091C300.72 97.5711 300.305 97.2446 299.973 96.8296C299.647 96.4146 299.4 95.9386 299.234 95.4019C299.074 94.8595 298.994 94.2868 298.994 93.6836V93.335C298.994 92.7318 299.074 92.1618 299.234 91.625C299.4 91.0827 299.647 90.604 299.973 90.189C300.305 89.7739 300.72 89.4474 301.218 89.2095C301.722 88.9715 302.311 88.8525 302.986 88.8525C303.689 88.8525 304.303 88.9964 304.829 89.2842C305.355 89.5664 305.767 89.9538 306.066 90.4463C306.37 90.9333 306.536 91.4867 306.564 92.1064H305.103C305.075 91.7357 304.97 91.4009 304.788 91.1021C304.611 90.8032 304.367 90.5653 304.057 90.3882C303.753 90.2056 303.396 90.1143 302.986 90.1143C302.516 90.1143 302.12 90.2083 301.799 90.3965C301.484 90.5791 301.232 90.8281 301.044 91.1436C300.861 91.4535 300.729 91.7993 300.646 92.1812C300.568 92.5575 300.529 92.9421 300.529 93.335V93.6836C300.529 94.0765 300.568 94.4639 300.646 94.8457C300.723 95.2275 300.853 95.5734 301.036 95.8833C301.224 96.1932 301.476 96.4422 301.791 96.6304C302.112 96.813 302.51 96.9043 302.986 96.9043ZM307.884 93.6089V93.418C307.884 92.7705 307.978 92.1701 308.166 91.6167C308.354 91.0578 308.625 90.5736 308.979 90.1641C309.334 89.749 309.763 89.4281 310.266 89.2012C310.77 88.9688 311.334 88.8525 311.959 88.8525C312.59 88.8525 313.158 88.9688 313.661 89.2012C314.17 89.4281 314.602 89.749 314.956 90.1641C315.316 90.5736 315.59 91.0578 315.778 91.6167C315.966 92.1701 316.06 92.7705 316.06 93.418V93.6089C316.06 94.2563 315.966 94.8568 315.778 95.4102C315.59 95.9635 315.316 96.4478 314.956 96.8628C314.602 97.2723 314.173 97.5933 313.669 97.8257C313.171 98.0526 312.607 98.166 311.976 98.166C311.345 98.166 310.778 98.0526 310.274 97.8257C309.771 97.5933 309.339 97.2723 308.979 96.8628C308.625 96.4478 308.354 95.9635 308.166 95.4102C307.978 94.8568 307.884 94.2563 307.884 93.6089ZM309.419 93.418V93.6089C309.419 94.0571 309.472 94.4805 309.577 94.8789C309.682 95.2718 309.84 95.6204 310.05 95.9248C310.266 96.2292 310.535 96.4699 310.855 96.647C311.176 96.8185 311.55 96.9043 311.976 96.9043C312.397 96.9043 312.765 96.8185 313.08 96.647C313.401 96.4699 313.667 96.2292 313.877 95.9248C314.087 95.6204 314.245 95.2718 314.35 94.8789C314.461 94.4805 314.516 94.0571 314.516 93.6089V93.418C314.516 92.9753 314.461 92.5575 314.35 92.1646C314.245 91.7661 314.084 91.4147 313.869 91.1104C313.658 90.8005 313.393 90.557 313.072 90.3799C312.756 90.2028 312.386 90.1143 311.959 90.1143C311.539 90.1143 311.168 90.2028 310.847 90.3799C310.532 90.557 310.266 90.8005 310.05 91.1104C309.84 91.4147 309.682 91.7661 309.577 92.1646C309.472 92.5575 309.419 92.9753 309.419 93.418ZM318.119 98V89.0186H319.654V96.7383H323.788V89.0186H325.332V98H318.119ZM326.395 96.7383L326.245 100.665H324.875V98H323.705V96.7383H326.395ZM335.874 96.9043C336.239 96.9043 336.577 96.8296 336.887 96.6802C337.197 96.5308 337.451 96.326 337.65 96.0659C337.85 95.8003 337.963 95.4987 337.991 95.1611H339.452C339.424 95.6924 339.244 96.1877 338.912 96.647C338.586 97.1007 338.157 97.4688 337.625 97.751C337.094 98.0277 336.51 98.166 335.874 98.166C335.199 98.166 334.61 98.047 334.106 97.8091C333.608 97.5711 333.193 97.2446 332.861 96.8296C332.534 96.4146 332.288 95.9386 332.122 95.4019C331.962 94.8595 331.881 94.2868 331.881 93.6836V93.335C331.881 92.7318 331.962 92.1618 332.122 91.625C332.288 91.0827 332.534 90.604 332.861 90.189C333.193 89.7739 333.608 89.4474 334.106 89.2095C334.61 88.9715 335.199 88.8525 335.874 88.8525C336.577 88.8525 337.191 88.9964 337.717 89.2842C338.243 89.5664 338.655 89.9538 338.954 90.4463C339.258 90.9333 339.424 91.4867 339.452 92.1064H337.991C337.963 91.7357 337.858 91.4009 337.675 91.1021C337.498 90.8032 337.255 90.5653 336.945 90.3882C336.64 90.2056 336.284 90.1143 335.874 90.1143C335.404 90.1143 335.008 90.2083 334.687 90.3965C334.372 90.5791 334.12 90.8281 333.932 91.1436C333.749 91.4535 333.616 91.7993 333.533 92.1812C333.456 92.5575 333.417 92.9421 333.417 93.335V93.6836C333.417 94.0765 333.456 94.4639 333.533 94.8457C333.611 95.2275 333.741 95.5734 333.923 95.8833C334.111 96.1932 334.363 96.4422 334.679 96.6304C335 96.813 335.398 96.9043 335.874 96.9043ZM344.905 98.166C344.28 98.166 343.713 98.0609 343.204 97.8506C342.7 97.6348 342.266 97.3332 341.9 96.9458C341.541 96.5584 341.264 96.0991 341.07 95.5679C340.877 95.0366 340.78 94.4556 340.78 93.8247V93.4761C340.78 92.7456 340.888 92.0954 341.104 91.5254C341.319 90.9499 341.613 90.4629 341.983 90.0645C342.354 89.666 342.775 89.3644 343.245 89.1597C343.715 88.9549 344.202 88.8525 344.706 88.8525C345.348 88.8525 345.901 88.9632 346.366 89.1846C346.837 89.4059 347.221 89.7158 347.52 90.1143C347.819 90.5072 348.04 90.972 348.184 91.5088C348.328 92.04 348.4 92.6211 348.4 93.252V93.9409H341.693V92.6875H346.864V92.5713C346.842 92.1729 346.759 91.7855 346.615 91.4092C346.477 91.0329 346.256 90.723 345.951 90.4795C345.647 90.236 345.232 90.1143 344.706 90.1143C344.357 90.1143 344.036 90.189 343.743 90.3384C343.45 90.4823 343.198 90.6981 342.988 90.9858C342.778 91.2736 342.614 91.625 342.498 92.04C342.382 92.4551 342.324 92.9338 342.324 93.4761V93.8247C342.324 94.2508 342.382 94.652 342.498 95.0283C342.62 95.3991 342.794 95.7256 343.021 96.0078C343.253 96.29 343.533 96.5114 343.859 96.6719C344.191 96.8324 344.568 96.9126 344.988 96.9126C345.531 96.9126 345.99 96.8019 346.366 96.5806C346.743 96.3592 347.072 96.0632 347.354 95.6924L348.284 96.4312C348.09 96.7244 347.844 97.0039 347.545 97.2695C347.246 97.5352 346.878 97.751 346.441 97.917C346.009 98.083 345.497 98.166 344.905 98.166ZM353.754 89.0186V98H352.21V89.0186H353.754ZM356.767 89.0186V90.2637H349.255V89.0186H356.767ZM359.938 95.5679L364.08 89.0186H365.624V98H364.08V91.4507L359.938 98H358.411V89.0186H359.938V95.5679ZM373.966 95.5679L378.108 89.0186H379.652V98H378.108V91.4507L373.966 98H372.439V89.0186H373.966V95.5679ZM389.995 89.0186V98H388.451V89.0186H389.995ZM393.008 89.0186V90.2637H385.496V89.0186H393.008ZM400.504 89.0186V90.2886H395.963V89.0186H400.504ZM396.188 89.0186V98H394.652V89.0186H396.188ZM401.865 89.0186V98H400.321V89.0186H401.865ZM407.867 93.0859V93.1689C407.867 94.3809 407.731 95.4766 407.46 96.4561C407.189 97.4355 406.843 98.2905 406.422 99.021C406.002 99.757 405.559 100.366 405.094 100.847C404.629 101.334 404.201 101.686 403.808 101.901L403.484 100.972C403.81 100.723 404.14 100.374 404.472 99.9258C404.804 99.4831 405.111 98.9352 405.393 98.2822C405.675 97.6348 405.902 96.8877 406.074 96.041C406.245 95.1888 406.331 94.237 406.331 93.1855V93.0693C406.331 92.0179 406.24 91.0688 406.057 90.2222C405.875 89.37 405.637 88.6201 405.343 87.9727C405.056 87.3252 404.746 86.7801 404.414 86.3374C404.087 85.8892 403.777 85.5433 403.484 85.2998L403.808 84.3618C404.201 84.5776 404.629 84.929 405.094 85.416C405.559 85.8975 406.002 86.5062 406.422 87.2422C406.843 87.9782 407.189 88.8359 407.46 89.8154C407.731 90.7894 407.867 91.8796 407.867 93.0859Z" fill="black"/>
<defs>
<filter id="filter0_d_802_734" x="564.052" y="12.0862" width="106.191" height="106.163" filterUnits="userSpaceOnUse" color-interpolation-filters="sRGB">
<feFlood flood-opacity="0" result="BackgroundImageFix"/>
<feColorMatrix in="SourceAlpha" type="matrix" values="0 0 0 0 0 0 0 0 0 0 0 0 0 0 0 0 0 0 127 0" result="hardAlpha"/>
<feOffset/>
<feGaussianBlur stdDeviation="12"/>
<feComposite in2="hardAlpha" operator="out"/>
<feColorMatrix type="matrix" values="0 0 0 0 0.579167 0 0 0 0 0.579167 0 0 0 0 0.579167 0 0 0 0.3 0"/>
<feBlend mode="normal" in2="BackgroundImageFix" result="effect1_dropShadow_802_734"/>
<feBlend mode="normal" in="SourceGraphic" in2="effect1_dropShadow_802_734" result="shape"/>
</filter>
</defs>
</svg>
