<svg width="346" height="85" viewBox="0 0 346 85" fill="none" xmlns="http://www.w3.org/2000/svg">
<g filter="url(#filter0_d_316_455)">
<path d="M316.5 54.8467C323.404 47.9431 323.404 36.7502 316.5 29.8467C309.596 22.9431 298.404 22.9431 291.5 29.8467C284.596 36.7502 284.596 47.9431 291.5 54.8467C298.404 61.7502 309.596 61.7502 316.5 54.8467Z" fill="white"/>
</g>
<path d="M309.526 42.3448C309.529 43.392 309.222 44.4166 308.643 45.2895C308.065 46.1624 307.241 46.8445 306.276 47.2497C305.31 47.655 304.246 47.7652 303.218 47.5665C302.19 47.3678 301.244 46.8691 300.499 46.1333C299.754 45.3975 299.243 44.4575 299.032 43.4319C298.82 42.4064 298.917 41.3411 299.31 40.3706C299.703 39.4001 300.375 38.5677 301.241 37.9785C302.106 37.3892 303.127 37.0696 304.174 37.0597C304.874 37.051 305.568 37.1812 306.217 37.4429C306.866 37.7045 307.456 38.0924 307.954 38.5841C308.452 39.0757 308.847 39.6613 309.117 40.3069C309.387 40.9525 309.526 41.6452 309.526 42.3448V42.3448Z" fill="#00A3FF"/>
<path d="M304.24 44.4156C305.384 44.4156 306.311 43.4884 306.311 42.3446C306.311 41.2009 305.384 40.2737 304.24 40.2737C303.096 40.2737 302.169 41.2009 302.169 42.3446C302.169 43.4884 303.096 44.4156 304.24 44.4156Z" fill="white"/>
<path d="M53.0456 60.0204C62.811 50.2596 62.811 34.4342 53.0455 24.6734C43.2801 14.9127 27.4473 14.9126 17.6819 24.6734C7.91646 34.4342 7.91643 50.2596 17.6819 60.0204C27.4473 69.7812 43.2802 69.7812 53.0456 60.0204Z" fill="#00A3FF"/>
<path d="M26.6265 34.1887H29.7515V51.6936H26.0039V38.9495H23.001V36.5691C23.5381 36.504 24.0304 36.3778 24.478 36.1907C24.9256 35.9954 25.2715 35.7878 25.5156 35.5681C25.7679 35.3484 25.9795 35.1368 26.1504 34.9333C26.3294 34.7218 26.4556 34.5427 26.5288 34.3962L26.6265 34.1887ZM44.7539 45.3215H46.7559V48.5686H44.7539V51.6936H41.0063V48.5686H32.7544V44.821L40.3838 34.1887H44.7539V45.3215ZM41.0063 45.3215V38.571L36.2578 45.3215H41.0063Z" fill="white"/>
<path d="M114.703 17.6917H112.181L112.167 16.6321H114.457C114.835 16.6321 115.166 16.5683 115.448 16.4407C115.731 16.3131 115.95 16.1308 116.104 15.8938C116.264 15.6523 116.344 15.3652 116.344 15.0325C116.344 14.6679 116.273 14.3717 116.132 14.1438C115.995 13.9114 115.783 13.7428 115.496 13.6379C115.214 13.5286 114.854 13.4739 114.416 13.4739H112.475V22.3469H111.155V12.3938H114.416C114.926 12.3938 115.382 12.4462 115.783 12.551C116.184 12.6513 116.524 12.8108 116.802 13.0295C117.084 13.2437 117.299 13.5172 117.444 13.8499C117.59 14.1825 117.663 14.5813 117.663 15.0461C117.663 15.4563 117.558 15.8277 117.349 16.1604C117.139 16.4885 116.847 16.7574 116.474 16.967C116.104 17.1767 115.672 17.3111 115.175 17.3704L114.703 17.6917ZM114.642 22.3469H111.661L112.406 21.2737H114.642C115.061 21.2737 115.416 21.2008 115.708 21.0549C116.004 20.9091 116.23 20.704 116.385 20.4397C116.54 20.1708 116.617 19.8541 116.617 19.4895C116.617 19.1204 116.551 18.8014 116.419 18.5325C116.287 18.2636 116.079 18.0562 115.797 17.9104C115.514 17.7646 115.15 17.6917 114.703 17.6917H112.823L112.837 16.6321H115.407L115.688 17.0149C116.166 17.0559 116.572 17.1926 116.904 17.425C117.237 17.6529 117.49 17.9446 117.663 18.3C117.841 18.6555 117.93 19.0474 117.93 19.4758C117.93 20.0956 117.793 20.6197 117.52 21.0481C117.251 21.4719 116.87 21.7955 116.378 22.0188C115.886 22.2375 115.307 22.3469 114.642 22.3469ZM120.726 17.4934H122.947C123.544 17.4934 124.048 17.5982 124.458 17.8079C124.868 18.0129 125.178 18.2978 125.388 18.6624C125.602 19.0224 125.709 19.4325 125.709 19.8928C125.709 20.2346 125.65 20.5559 125.531 20.8567C125.413 21.1529 125.235 21.4127 124.998 21.636C124.766 21.8593 124.476 22.0347 124.13 22.1624C123.788 22.2854 123.394 22.3469 122.947 22.3469H119.803V14.9504H121.067V21.3079H122.947C123.312 21.3079 123.604 21.2418 123.822 21.1096C124.041 20.9775 124.198 20.8066 124.294 20.5969C124.39 20.3873 124.438 20.1685 124.438 19.9407C124.438 19.7174 124.39 19.4986 124.294 19.2844C124.198 19.0702 124.041 18.8925 123.822 18.7512C123.604 18.6054 123.312 18.5325 122.947 18.5325H120.726V17.4934ZM128.341 14.9504V22.3469H127.076V14.9504H128.341ZM131.41 14.9504L133.03 17.6438L134.671 14.9504H136.154L133.734 18.6008L136.229 22.3469H134.767L133.058 19.5715L131.349 22.3469H129.879L132.367 18.6008L129.954 14.9504H131.41ZM137.029 18.7307V18.5735C137.029 18.0403 137.107 17.5458 137.262 17.0901C137.417 16.6298 137.64 16.231 137.932 15.8938C138.223 15.552 138.576 15.2877 138.991 15.1008C139.406 14.9094 139.871 14.8137 140.386 14.8137C140.905 14.8137 141.372 14.9094 141.787 15.1008C142.206 15.2877 142.562 15.552 142.854 15.8938C143.15 16.231 143.375 16.6298 143.53 17.0901C143.685 17.5458 143.763 18.0403 143.763 18.5735V18.7307C143.763 19.2639 143.685 19.7584 143.53 20.2141C143.375 20.6698 143.15 21.0686 142.854 21.4104C142.562 21.7476 142.209 22.012 141.794 22.2034C141.384 22.3902 140.919 22.4836 140.399 22.4836C139.88 22.4836 139.413 22.3902 138.998 22.2034C138.583 22.012 138.228 21.7476 137.932 21.4104C137.64 21.0686 137.417 20.6698 137.262 20.2141C137.107 19.7584 137.029 19.2639 137.029 18.7307ZM138.294 18.5735V18.7307C138.294 19.0999 138.337 19.4485 138.424 19.7766C138.51 20.1002 138.64 20.3873 138.813 20.6379C138.991 20.8886 139.212 21.0868 139.477 21.2327C139.741 21.3739 140.049 21.4446 140.399 21.4446C140.746 21.4446 141.049 21.3739 141.309 21.2327C141.573 21.0868 141.792 20.8886 141.965 20.6379C142.138 20.3873 142.268 20.1002 142.354 19.7766C142.446 19.4485 142.491 19.0999 142.491 18.7307V18.5735C142.491 18.2089 142.446 17.8648 142.354 17.5413C142.268 17.2131 142.136 16.9237 141.958 16.6731C141.785 16.4179 141.566 16.2174 141.302 16.0715C141.042 15.9257 140.737 15.8528 140.386 15.8528C140.039 15.8528 139.734 15.9257 139.47 16.0715C139.21 16.2174 138.991 16.4179 138.813 16.6731C138.64 16.9237 138.51 17.2131 138.424 17.5413C138.337 17.8648 138.294 18.2089 138.294 18.5735ZM146.189 14.9504H147.454L147.345 17.719C147.317 18.4208 147.238 19.0269 147.105 19.5374C146.973 20.0478 146.805 20.483 146.6 20.843C146.395 21.1985 146.164 21.497 145.909 21.7385C145.659 21.9801 145.399 22.1829 145.13 22.3469H144.501L144.535 21.3147L144.795 21.3079C144.945 21.1301 145.091 20.9478 145.232 20.761C145.374 20.5696 145.504 20.344 145.622 20.0842C145.741 19.8199 145.839 19.4986 145.916 19.1204C145.998 18.7375 146.05 18.2704 146.073 17.719L146.189 14.9504ZM146.504 14.9504H150.954V22.3469H149.689V16.1194H146.504V14.9504ZM144.214 21.3079H151.904V24.5276H150.64V22.3469H145.479V24.5276H144.207L144.214 21.3079ZM161.522 11.7307H162.562C162.562 12.1773 162.493 12.5328 162.356 12.7971C162.22 13.0569 162.033 13.2574 161.796 13.3987C161.563 13.54 161.299 13.6471 161.003 13.72C160.711 13.7929 160.408 13.8635 160.094 13.9319C159.702 14.0139 159.337 14.1438 159 14.3215C158.667 14.4947 158.38 14.7408 158.139 15.0598C157.902 15.3788 157.726 15.7935 157.612 16.304C157.503 16.8144 157.473 17.4456 157.523 18.1975V18.8264H156.484V18.1975C156.484 17.3544 156.564 16.6184 156.724 15.9895C156.888 15.3606 157.118 14.8297 157.414 14.3967C157.71 13.9638 158.061 13.6197 158.467 13.3645C158.877 13.1093 159.328 12.9338 159.82 12.8381C160.176 12.7698 160.481 12.6969 160.736 12.6194C160.992 12.5374 161.185 12.428 161.317 12.2913C161.454 12.1545 161.522 11.9677 161.522 11.7307ZM160.025 15.3743C160.508 15.3743 160.939 15.4586 161.317 15.6272C161.696 15.7958 162.017 16.0305 162.281 16.3313C162.546 16.6321 162.746 16.9875 162.883 17.3977C163.024 17.8033 163.095 18.2454 163.095 18.7239V18.8743C163.095 19.3892 163.02 19.8678 162.869 20.3098C162.723 20.7473 162.507 21.1301 162.22 21.4583C161.937 21.7818 161.591 22.0347 161.181 22.217C160.775 22.3993 160.312 22.4905 159.793 22.4905C159.273 22.4905 158.809 22.3993 158.398 22.217C157.993 22.0347 157.646 21.7818 157.359 21.4583C157.072 21.1301 156.854 20.7473 156.703 20.3098C156.557 19.8678 156.484 19.3892 156.484 18.8743V18.7239C156.484 18.6099 156.505 18.4983 156.546 18.3889C156.587 18.2795 156.637 18.1679 156.696 18.054C156.76 17.94 156.817 17.8193 156.867 17.6917C157.036 17.2815 157.266 16.901 157.558 16.55C157.854 16.1991 158.207 15.9166 158.617 15.7024C159.032 15.4836 159.501 15.3743 160.025 15.3743ZM159.779 16.4065C159.314 16.4065 158.932 16.5136 158.631 16.7278C158.335 16.942 158.114 17.2268 157.968 17.5823C157.822 17.9332 157.749 18.3137 157.749 18.7239V18.8743C157.749 19.2206 157.79 19.5487 157.872 19.8586C157.954 20.1685 158.077 20.4443 158.241 20.6858C158.41 20.9228 158.622 21.1096 158.877 21.2463C159.137 21.3831 159.442 21.4514 159.793 21.4514C160.144 21.4514 160.447 21.3831 160.702 21.2463C160.957 21.1096 161.167 20.9228 161.331 20.6858C161.495 20.4443 161.618 20.1685 161.7 19.8586C161.782 19.5487 161.823 19.2206 161.823 18.8743V18.7239C161.823 18.414 161.782 18.12 161.7 17.842C161.618 17.564 161.493 17.318 161.324 17.1038C161.16 16.8896 160.948 16.7209 160.688 16.5979C160.433 16.4703 160.13 16.4065 159.779 16.4065ZM165.672 16.3723V25.1907H164.4V14.9504H165.562L165.672 16.3723ZM170.655 18.5872V18.7307C170.655 19.2685 170.591 19.7675 170.464 20.2278C170.336 20.6835 170.149 21.08 169.903 21.4172C169.662 21.7545 169.363 22.0165 169.008 22.2034C168.652 22.3902 168.244 22.4836 167.784 22.4836C167.315 22.4836 166.9 22.4062 166.54 22.2512C166.18 22.0963 165.875 21.8707 165.624 21.5745C165.373 21.2782 165.173 20.9228 165.022 20.5081C164.877 20.0933 164.776 19.6262 164.722 19.1067V18.3411C164.776 17.7942 164.879 17.3043 165.029 16.8713C165.18 16.4384 165.378 16.0693 165.624 15.7639C165.875 15.454 166.178 15.2193 166.533 15.0598C166.889 14.8958 167.299 14.8137 167.764 14.8137C168.229 14.8137 168.641 14.9049 169.001 15.0872C169.361 15.2649 169.664 15.5201 169.91 15.8528C170.156 16.1855 170.341 16.5842 170.464 17.0491C170.591 17.5094 170.655 18.0221 170.655 18.5872ZM169.384 18.7307V18.5872C169.384 18.218 169.345 17.8717 169.268 17.5481C169.19 17.22 169.069 16.9329 168.905 16.6868C168.746 16.4361 168.541 16.2402 168.29 16.0989C168.039 15.953 167.741 15.8801 167.395 15.8801C167.076 15.8801 166.798 15.9348 166.561 16.0442C166.328 16.1536 166.13 16.3017 165.966 16.4885C165.802 16.6708 165.667 16.8805 165.562 17.1174C165.462 17.3499 165.387 17.5914 165.337 17.842V19.6125C165.428 19.9316 165.556 20.2323 165.72 20.5149C165.884 20.7929 166.103 21.0185 166.376 21.1917C166.649 21.3603 166.993 21.4446 167.408 21.4446C167.75 21.4446 168.044 21.3739 168.29 21.2327C168.541 21.0868 168.746 20.8886 168.905 20.6379C169.069 20.3873 169.19 20.1002 169.268 19.7766C169.345 19.4485 169.384 19.0999 169.384 18.7307ZM175.338 22.4836C174.823 22.4836 174.356 22.3971 173.937 22.2239C173.522 22.0461 173.164 21.7978 172.863 21.4788C172.567 21.1597 172.339 20.7815 172.18 20.344C172.02 19.9065 171.94 19.428 171.94 18.9084V18.6213C171.94 18.0198 172.029 17.4843 172.207 17.0149C172.385 16.5409 172.626 16.1399 172.932 15.8118C173.237 15.4836 173.583 15.2353 173.971 15.0667C174.358 14.898 174.759 14.8137 175.174 14.8137C175.702 14.8137 176.158 14.9049 176.541 15.0872C176.928 15.2694 177.245 15.5247 177.491 15.8528C177.737 16.1764 177.92 16.5592 178.038 17.0012C178.157 17.4387 178.216 17.9172 178.216 18.4368V19.0042H172.692V17.9719H176.951V17.8762C176.933 17.5481 176.865 17.2291 176.746 16.9192C176.632 16.6093 176.45 16.3541 176.199 16.1536C175.949 15.953 175.607 15.8528 175.174 15.8528C174.887 15.8528 174.622 15.9143 174.381 16.0374C174.139 16.1558 173.932 16.3336 173.759 16.5706C173.586 16.8075 173.451 17.0969 173.355 17.4387C173.26 17.7805 173.212 18.1747 173.212 18.6213V18.9084C173.212 19.2594 173.26 19.5898 173.355 19.8997C173.456 20.205 173.599 20.4739 173.786 20.7063C173.978 20.9387 174.208 21.121 174.477 21.2532C174.75 21.3853 175.06 21.4514 175.406 21.4514C175.853 21.4514 176.231 21.3603 176.541 21.178C176.851 20.9957 177.122 20.7519 177.354 20.4465L178.12 21.0549C177.961 21.2965 177.758 21.5266 177.512 21.7454C177.266 21.9641 176.963 22.1418 176.603 22.2786C176.247 22.4153 175.826 22.4836 175.338 22.4836ZM184.71 18.1565V19.1819H180.8V18.1565H184.71ZM181.066 14.9504V22.3469H179.802V14.9504H181.066ZM185.735 14.9504V22.3469H184.464V14.9504H185.735ZM189.105 14.9504H190.37L190.261 17.719C190.233 18.4208 190.154 19.0269 190.021 19.5374C189.889 20.0478 189.721 20.483 189.516 20.843C189.311 21.1985 189.08 21.497 188.825 21.7385C188.575 21.9801 188.315 22.1829 188.046 22.3469H187.417L187.451 21.3147L187.711 21.3079C187.861 21.1301 188.007 20.9478 188.148 20.761C188.29 20.5696 188.42 20.344 188.538 20.0842C188.657 19.8199 188.755 19.4986 188.832 19.1204C188.914 18.7375 188.966 18.2704 188.989 17.719L189.105 14.9504ZM189.42 14.9504H193.87V22.3469H192.605V16.1194H189.42V14.9504ZM187.13 21.3079H194.82V24.5276H193.556V22.3469H188.395V24.5276H187.123L187.13 21.3079ZM200.583 21.0823V17.2747C200.583 16.983 200.524 16.7301 200.405 16.5159C200.291 16.2971 200.118 16.1285 199.886 16.01C199.653 15.8915 199.366 15.8323 199.024 15.8323C198.705 15.8323 198.425 15.887 198.184 15.9963C197.947 16.1057 197.76 16.2493 197.623 16.427C197.491 16.6047 197.425 16.7961 197.425 17.0012H196.16C196.16 16.7369 196.229 16.4749 196.365 16.2151C196.502 15.9553 196.698 15.7206 196.953 15.511C197.213 15.2968 197.523 15.1282 197.883 15.0051C198.247 14.8775 198.653 14.8137 199.1 14.8137C199.637 14.8137 200.111 14.9049 200.521 15.0872C200.936 15.2694 201.26 15.5452 201.492 15.9143C201.729 16.2789 201.848 16.7369 201.848 17.2883V20.7336C201.848 20.9797 201.868 21.2418 201.909 21.5198C201.955 21.7978 202.021 22.037 202.107 22.2375V22.3469H200.788C200.724 22.2011 200.674 22.0074 200.638 21.7659C200.601 21.5198 200.583 21.2919 200.583 21.0823ZM200.802 17.8625L200.815 18.7512H199.537C199.177 18.7512 198.856 18.7808 198.573 18.8401C198.291 18.8948 198.054 18.9791 197.862 19.093C197.671 19.2069 197.525 19.3505 197.425 19.5237C197.325 19.6923 197.274 19.8905 197.274 20.1184C197.274 20.3508 197.327 20.5627 197.432 20.7542C197.536 20.9456 197.694 21.0982 197.903 21.2122C198.118 21.3215 198.38 21.3762 198.689 21.3762C199.077 21.3762 199.419 21.2942 199.715 21.1301C200.011 20.9661 200.246 20.7655 200.419 20.5286C200.597 20.2916 200.692 20.0614 200.706 19.8381L201.246 20.4465C201.214 20.6379 201.128 20.8499 200.986 21.0823C200.845 21.3147 200.656 21.538 200.419 21.7522C200.187 21.9618 199.909 22.1373 199.585 22.2786C199.266 22.4153 198.906 22.4836 198.505 22.4836C198.004 22.4836 197.564 22.3857 197.186 22.1897C196.812 21.9937 196.52 21.7317 196.311 21.4036C196.105 21.0709 196.003 20.6995 196.003 20.2893C196.003 19.8928 196.08 19.5442 196.235 19.2434C196.39 18.9381 196.614 18.6851 196.905 18.4846C197.197 18.2795 197.548 18.1246 197.958 18.0198C198.368 17.915 198.826 17.8625 199.332 17.8625H200.802ZM212.327 18.1565V19.1819H208.417V18.1565H212.327ZM208.684 14.9504V22.3469H207.419V14.9504H208.684ZM213.353 14.9504V22.3469H212.081V14.9504H213.353ZM219.751 21.0823V17.2747C219.751 16.983 219.692 16.7301 219.573 16.5159C219.459 16.2971 219.286 16.1285 219.054 16.01C218.821 15.8915 218.534 15.8323 218.192 15.8323C217.873 15.8323 217.593 15.887 217.352 15.9963C217.115 16.1057 216.928 16.2493 216.791 16.427C216.659 16.6047 216.593 16.7961 216.593 17.0012H215.328C215.328 16.7369 215.396 16.4749 215.533 16.2151C215.67 15.9553 215.866 15.7206 216.121 15.511C216.381 15.2968 216.691 15.1282 217.051 15.0051C217.415 14.8775 217.821 14.8137 218.268 14.8137C218.805 14.8137 219.279 14.9049 219.689 15.0872C220.104 15.2694 220.428 15.5452 220.66 15.9143C220.897 16.2789 221.016 16.7369 221.016 17.2883V20.7336C221.016 20.9797 221.036 21.2418 221.077 21.5198C221.123 21.7978 221.189 22.037 221.275 22.2375V22.3469H219.956C219.892 22.2011 219.842 22.0074 219.806 21.7659C219.769 21.5198 219.751 21.2919 219.751 21.0823ZM219.97 17.8625L219.983 18.7512H218.705C218.345 18.7512 218.024 18.7808 217.741 18.8401C217.459 18.8948 217.222 18.9791 217.03 19.093C216.839 19.2069 216.693 19.3505 216.593 19.5237C216.493 19.6923 216.442 19.8905 216.442 20.1184C216.442 20.3508 216.495 20.5627 216.6 20.7542C216.704 20.9456 216.862 21.0982 217.071 21.2122C217.285 21.3215 217.548 21.3762 217.857 21.3762C218.245 21.3762 218.587 21.2942 218.883 21.1301C219.179 20.9661 219.414 20.7655 219.587 20.5286C219.765 20.2916 219.86 20.0614 219.874 19.8381L220.414 20.4465C220.382 20.6379 220.296 20.8499 220.154 21.0823C220.013 21.3147 219.824 21.538 219.587 21.7522C219.354 21.9618 219.076 22.1373 218.753 22.2786C218.434 22.4153 218.074 22.4836 217.673 22.4836C217.172 22.4836 216.732 22.3857 216.354 22.1897C215.98 21.9937 215.688 21.7317 215.479 21.4036C215.273 21.0709 215.171 20.6995 215.171 20.2893C215.171 19.8928 215.248 19.5442 215.403 19.2434C215.558 18.9381 215.782 18.6851 216.073 18.4846C216.365 18.2795 216.716 18.1246 217.126 18.0198C217.536 17.915 217.994 17.8625 218.5 17.8625H219.97ZM115.216 40.6653L117.731 34.9504H118.948L115.653 42.3469H114.778L111.497 34.9504H112.714L115.216 40.6653ZM112.345 34.9504V42.3469H111.08V34.9504H112.345ZM118.046 42.3469V34.9504H119.317V42.3469H118.046ZM124.424 42.4836C123.909 42.4836 123.442 42.3971 123.022 42.2239C122.608 42.0461 122.25 41.7978 121.949 41.4788C121.653 41.1597 121.425 40.7815 121.266 40.344C121.106 39.9065 121.026 39.428 121.026 38.9084V38.6213C121.026 38.0198 121.115 37.4843 121.293 37.0149C121.471 36.5409 121.712 36.1399 122.018 35.8118C122.323 35.4836 122.669 35.2353 123.057 35.0667C123.444 34.898 123.845 34.8137 124.26 34.8137C124.788 34.8137 125.244 34.9049 125.627 35.0872C126.014 35.2694 126.331 35.5247 126.577 35.8528C126.823 36.1764 127.006 36.5592 127.124 37.0012C127.243 37.4387 127.302 37.9172 127.302 38.4368V39.0042H121.778V37.9719H126.037V37.8762C126.019 37.5481 125.951 37.2291 125.832 36.9192C125.718 36.6093 125.536 36.3541 125.285 36.1536C125.035 35.953 124.693 35.8528 124.26 35.8528C123.973 35.8528 123.708 35.9143 123.467 36.0374C123.225 36.1558 123.018 36.3336 122.845 36.5706C122.672 36.8075 122.537 37.0969 122.441 37.4387C122.346 37.7805 122.298 38.1747 122.298 38.6213V38.9084C122.298 39.2594 122.346 39.5898 122.441 39.8997C122.542 40.205 122.685 40.4739 122.872 40.7063C123.063 40.9387 123.294 41.121 123.562 41.2532C123.836 41.3853 124.146 41.4514 124.492 41.4514C124.939 41.4514 125.317 41.3603 125.627 41.178C125.937 40.9957 126.208 40.7519 126.44 40.4465L127.206 41.0549C127.047 41.2965 126.844 41.5266 126.598 41.7454C126.352 41.9641 126.049 42.1418 125.688 42.2786C125.333 42.4153 124.911 42.4836 124.424 42.4836ZM131.021 39.1272L128.218 34.9504H129.742L131.656 38.0129H133.133L132.948 39.1272H131.021ZM131.711 38.9973L129.564 42.3469H127.965L130.911 38.0813L131.711 38.9973ZM133.782 34.9504V42.3469H132.518V34.9504H133.782ZM138.096 34.9504L135.293 39.1272H133.365L133.167 38.0129H134.65L136.564 34.9504H138.096ZM136.742 42.3469L134.589 38.9973L135.402 38.0813L138.342 42.3469H136.742ZM140.844 34.9504H142.108L141.999 37.719C141.972 38.4208 141.892 39.0269 141.76 39.5374C141.628 40.0478 141.459 40.483 141.254 40.843C141.049 41.1985 140.819 41.497 140.563 41.7385C140.313 41.9801 140.053 42.1829 139.784 42.3469H139.155L139.189 41.3147L139.449 41.3079C139.6 41.1301 139.745 40.9478 139.887 40.761C140.028 40.5696 140.158 40.344 140.276 40.0842C140.395 39.8199 140.493 39.4986 140.57 39.1204C140.652 38.7375 140.705 38.2704 140.728 37.719L140.844 34.9504ZM141.158 34.9504H145.608V42.3469H144.344V36.1194H141.158V34.9504ZM138.868 41.3079H146.559V44.5276H145.294V42.3469H140.133V44.5276H138.861L138.868 41.3079ZM150.038 41.5813L152.096 34.9504H153.449L150.482 43.4885C150.414 43.6708 150.323 43.8668 150.209 44.0764C150.1 44.2906 149.958 44.4934 149.785 44.6848C149.612 44.8762 149.402 45.0312 149.156 45.1497C148.915 45.2727 148.625 45.3342 148.288 45.3342C148.188 45.3342 148.06 45.3206 147.905 45.2932C147.75 45.2659 147.641 45.2431 147.577 45.2249L147.57 44.1995C147.607 44.204 147.664 44.2086 147.741 44.2131C147.823 44.2222 147.88 44.2268 147.912 44.2268C148.199 44.2268 148.443 44.1881 148.644 44.1106C148.844 44.0377 149.013 43.9124 149.149 43.7346C149.291 43.5614 149.411 43.3222 149.512 43.0168L150.038 41.5813ZM148.527 34.9504L150.448 40.6926L150.776 42.0256L149.867 42.4905L147.146 34.9504H148.527ZM159.608 38.1565V39.1819H155.698V38.1565H159.608ZM155.965 34.9504V42.3469H154.7V34.9504H155.965ZM160.634 34.9504V42.3469H159.362V34.9504H160.634ZM167.032 41.0823V37.2747C167.032 36.983 166.973 36.7301 166.854 36.5159C166.741 36.2971 166.567 36.1285 166.335 36.01C166.103 35.8915 165.815 35.8323 165.474 35.8323C165.155 35.8323 164.874 35.887 164.633 35.9963C164.396 36.1057 164.209 36.2493 164.072 36.427C163.94 36.6047 163.874 36.7961 163.874 37.0012H162.609C162.609 36.7369 162.678 36.4749 162.814 36.2151C162.951 35.9553 163.147 35.7206 163.402 35.511C163.662 35.2968 163.972 35.1282 164.332 35.0051C164.697 34.8775 165.102 34.8137 165.549 34.8137C166.087 34.8137 166.561 34.9049 166.971 35.0872C167.385 35.2694 167.709 35.5452 167.941 35.9143C168.178 36.2789 168.297 36.7369 168.297 37.2883V40.7336C168.297 40.9797 168.317 41.2418 168.358 41.5198C168.404 41.7978 168.47 42.037 168.557 42.2375V42.3469H167.237C167.174 42.2011 167.123 42.0074 167.087 41.7659C167.05 41.5198 167.032 41.2919 167.032 41.0823ZM167.251 37.8625L167.265 38.7512H165.986C165.626 38.7512 165.305 38.7808 165.022 38.8401C164.74 38.8948 164.503 38.9791 164.312 39.093C164.12 39.2069 163.974 39.3505 163.874 39.5237C163.774 39.6923 163.724 39.8905 163.724 40.1184C163.724 40.3508 163.776 40.5627 163.881 40.7542C163.986 40.9456 164.143 41.0982 164.353 41.2122C164.567 41.3215 164.829 41.3762 165.139 41.3762C165.526 41.3762 165.868 41.2942 166.164 41.1301C166.46 40.9661 166.695 40.7655 166.868 40.5286C167.046 40.2916 167.142 40.0614 167.155 39.8381L167.695 40.4465C167.663 40.6379 167.577 40.8499 167.436 41.0823C167.294 41.3147 167.105 41.538 166.868 41.7522C166.636 41.9618 166.358 42.1373 166.034 42.2786C165.715 42.4153 165.355 42.4836 164.954 42.4836C164.453 42.4836 164.013 42.3857 163.635 42.1897C163.261 41.9937 162.969 41.7317 162.76 41.4036C162.555 41.0709 162.452 40.6995 162.452 40.2893C162.452 39.8928 162.53 39.5442 162.685 39.2434C162.84 38.9381 163.063 38.6851 163.354 38.4846C163.646 38.2795 163.997 38.1246 164.407 38.0198C164.817 37.915 165.275 37.8625 165.781 37.8625H167.251ZM171.551 36.3723V45.1907H170.279V34.9504H171.441L171.551 36.3723ZM176.534 38.5872V38.7307C176.534 39.2685 176.47 39.7675 176.343 40.2278C176.215 40.6835 176.028 41.08 175.782 41.4172C175.541 41.7545 175.242 42.0165 174.887 42.2034C174.531 42.3902 174.123 42.4836 173.663 42.4836C173.194 42.4836 172.779 42.4062 172.419 42.2512C172.059 42.0963 171.754 41.8707 171.503 41.5745C171.252 41.2782 171.052 40.9228 170.901 40.5081C170.756 40.0933 170.655 39.6262 170.601 39.1067V38.3411C170.655 37.7942 170.758 37.3043 170.908 36.8713C171.059 36.4384 171.257 36.0693 171.503 35.7639C171.754 35.454 172.057 35.2193 172.412 35.0598C172.768 34.8958 173.178 34.8137 173.643 34.8137C174.107 34.8137 174.52 34.9049 174.88 35.0872C175.24 35.2649 175.543 35.5201 175.789 35.8528C176.035 36.1855 176.22 36.5842 176.343 37.0491C176.47 37.5094 176.534 38.0221 176.534 38.5872ZM175.263 38.7307V38.5872C175.263 38.218 175.224 37.8717 175.146 37.5481C175.069 37.22 174.948 36.9329 174.784 36.6868C174.625 36.4361 174.42 36.2402 174.169 36.0989C173.918 35.953 173.62 35.8801 173.273 35.8801C172.954 35.8801 172.676 35.9348 172.439 36.0442C172.207 36.1536 172.009 36.3017 171.845 36.4885C171.681 36.6708 171.546 36.8805 171.441 37.1174C171.341 37.3499 171.266 37.5914 171.216 37.842V39.6125C171.307 39.9316 171.435 40.2323 171.599 40.5149C171.763 40.7929 171.981 41.0185 172.255 41.1917C172.528 41.3603 172.872 41.4446 173.287 41.4446C173.629 41.4446 173.923 41.3739 174.169 41.2327C174.42 41.0868 174.625 40.8886 174.784 40.6379C174.948 40.3873 175.069 40.1002 175.146 39.7766C175.224 39.4485 175.263 39.0999 175.263 38.7307ZM177.812 38.7307V38.5735C177.812 38.0403 177.89 37.5458 178.045 37.0901C178.2 36.6298 178.423 36.231 178.715 35.8938C179.007 35.552 179.36 35.2877 179.774 35.1008C180.189 34.9094 180.654 34.8137 181.169 34.8137C181.688 34.8137 182.156 34.9094 182.57 35.1008C182.99 35.2877 183.345 35.552 183.637 35.8938C183.933 36.231 184.159 36.6298 184.313 37.0901C184.468 37.5458 184.546 38.0403 184.546 38.5735V38.7307C184.546 39.2639 184.468 39.7584 184.313 40.2141C184.159 40.6698 183.933 41.0686 183.637 41.4104C183.345 41.7476 182.992 42.012 182.577 42.2034C182.167 42.3902 181.702 42.4836 181.183 42.4836C180.663 42.4836 180.196 42.3902 179.781 42.2034C179.367 42.012 179.011 41.7476 178.715 41.4104C178.423 41.0686 178.2 40.6698 178.045 40.2141C177.89 39.7584 177.812 39.2639 177.812 38.7307ZM179.077 38.5735V38.7307C179.077 39.0999 179.12 39.4485 179.207 39.7766C179.294 40.1002 179.424 40.3873 179.597 40.6379C179.774 40.8886 179.995 41.0868 180.26 41.2327C180.524 41.3739 180.832 41.4446 181.183 41.4446C181.529 41.4446 181.832 41.3739 182.092 41.2327C182.356 41.0868 182.575 40.8886 182.748 40.6379C182.921 40.3873 183.051 40.1002 183.138 39.7766C183.229 39.4485 183.274 39.0999 183.274 38.7307V38.5735C183.274 38.2089 183.229 37.8648 183.138 37.5413C183.051 37.2131 182.919 36.9237 182.741 36.6731C182.568 36.4179 182.349 36.2174 182.085 36.0715C181.825 35.9257 181.52 35.8528 181.169 35.8528C180.823 35.8528 180.517 35.9257 180.253 36.0715C179.993 36.2174 179.774 36.4179 179.597 36.6731C179.424 36.9237 179.294 37.2131 179.207 37.5413C179.12 37.8648 179.077 38.2089 179.077 38.5735ZM186.973 34.9504H188.237L188.128 37.719C188.101 38.4208 188.021 39.0269 187.889 39.5374C187.757 40.0478 187.588 40.483 187.383 40.843C187.178 41.1985 186.948 41.497 186.692 41.7385C186.442 41.9801 186.182 42.1829 185.913 42.3469H185.284L185.318 41.3147L185.578 41.3079C185.729 41.1301 185.874 40.9478 186.016 40.761C186.157 40.5696 186.287 40.344 186.405 40.0842C186.524 39.8199 186.622 39.4986 186.699 39.1204C186.781 38.7375 186.834 38.2704 186.856 37.719L186.973 34.9504ZM187.287 34.9504H191.737V42.3469H190.473V36.1194H187.287V34.9504ZM184.997 41.3079H192.688V44.5276H191.423V42.3469H186.262V44.5276H184.99L184.997 41.3079ZM199.106 38.1565V39.1819H195.196V38.1565H199.106ZM195.463 34.9504V42.3469H194.198V34.9504H195.463ZM200.132 34.9504V42.3469H198.86V34.9504H200.132ZM204.247 41.5813L206.305 34.9504H207.658L204.691 43.4885C204.623 43.6708 204.532 43.8668 204.418 44.0764C204.309 44.2906 204.167 44.4934 203.994 44.6848C203.821 44.8762 203.611 45.0312 203.365 45.1497C203.124 45.2727 202.834 45.3342 202.497 45.3342C202.397 45.3342 202.269 45.3206 202.114 45.2932C201.959 45.2659 201.85 45.2431 201.786 45.2249L201.779 44.1995C201.816 44.204 201.873 44.2086 201.95 44.2131C202.032 44.2222 202.089 44.2268 202.121 44.2268C202.408 44.2268 202.652 44.1881 202.853 44.1106C203.053 44.0377 203.222 43.9124 203.358 43.7346C203.5 43.5614 203.62 43.3222 203.721 43.0168L204.247 41.5813ZM202.736 34.9504L204.657 40.6926L204.985 42.0256L204.076 42.4905L201.355 34.9504H202.736ZM213.011 38.0881V39.1204H209.08V38.0881H213.011ZM210.181 34.9504V42.3469H208.916V34.9504H210.181ZM211.931 38.7307V38.5735C211.931 38.0403 212.008 37.5458 212.163 37.0901C212.318 36.6298 212.541 36.231 212.833 35.8938C213.129 35.552 213.482 35.2877 213.893 35.1008C214.307 34.9094 214.772 34.8137 215.287 34.8137C215.811 34.8137 216.281 34.9094 216.695 35.1008C217.11 35.2877 217.463 35.552 217.755 35.8938C218.051 36.231 218.277 36.6298 218.432 37.0901C218.587 37.5458 218.664 38.0403 218.664 38.5735V38.7307C218.664 39.2639 218.587 39.7584 218.432 40.2141C218.277 40.6698 218.053 41.0686 217.762 41.4104C217.47 41.7476 217.117 42.012 216.702 42.2034C216.287 42.3902 215.82 42.4836 215.301 42.4836C214.781 42.4836 214.314 42.3902 213.899 42.2034C213.485 42.012 213.129 41.7476 212.833 41.4104C212.541 41.0686 212.318 40.6698 212.163 40.2141C212.008 39.7584 211.931 39.2639 211.931 38.7307ZM213.202 38.5735V38.7307C213.202 39.0999 213.245 39.4485 213.332 39.7766C213.419 40.1002 213.549 40.3873 213.722 40.6379C213.899 40.8886 214.118 41.0868 214.378 41.2327C214.642 41.3739 214.95 41.4446 215.301 41.4446C215.652 41.4446 215.957 41.3739 216.217 41.2327C216.481 41.0868 216.7 40.8886 216.873 40.6379C217.046 40.3873 217.176 40.1002 217.263 39.7766C217.354 39.4485 217.399 39.0999 217.399 38.7307V38.5735C217.399 38.2089 217.354 37.8648 217.263 37.5413C217.176 37.2131 217.044 36.9237 216.866 36.6731C216.693 36.4179 216.474 36.2174 216.21 36.0715C215.946 35.9257 215.638 35.8528 215.287 35.8528C214.941 35.8528 214.638 35.9257 214.378 36.0715C214.118 36.2174 213.899 36.4179 213.722 36.6731C213.549 36.9237 213.419 37.2131 213.332 37.5413C213.245 37.8648 213.202 38.2089 213.202 38.5735ZM113.555 55.8528C113.277 55.8528 113.01 55.9143 112.755 56.0374C112.504 56.1604 112.297 56.3313 112.133 56.55C111.973 56.7642 111.894 57.0126 111.894 57.2952H110.684C110.684 56.8531 110.82 56.4452 111.094 56.0715C111.367 55.6933 111.723 55.3902 112.16 55.1624C112.598 54.9299 113.062 54.8137 113.555 54.8137C114.074 54.8137 114.535 54.9117 114.936 55.1077C115.337 55.3036 115.674 55.5725 115.947 55.9143C116.225 56.2561 116.435 56.6503 116.576 57.0969C116.717 57.539 116.788 58.0084 116.788 58.5051V58.7922C116.788 59.289 116.715 59.7607 116.569 60.2073C116.428 60.6493 116.218 61.0435 115.94 61.3899C115.667 61.7317 115.33 62.0006 114.929 62.1965C114.532 62.3925 114.076 62.4905 113.562 62.4905C113.01 62.4905 112.516 62.372 112.078 62.135C111.645 61.898 111.303 61.579 111.053 61.178C110.807 60.7724 110.684 60.3167 110.684 59.8108H111.894C111.894 60.1161 111.966 60.3941 112.112 60.6448C112.263 60.8909 112.463 61.0868 112.714 61.2327C112.965 61.3785 113.247 61.4514 113.562 61.4514C113.903 61.4514 114.197 61.3739 114.443 61.219C114.694 61.064 114.899 60.859 115.059 60.6038C115.218 60.3486 115.334 60.0637 115.407 59.7493C115.485 59.4303 115.523 59.1112 115.523 58.7922V58.5051C115.523 58.1816 115.485 57.8625 115.407 57.5481C115.334 57.2336 115.218 56.9488 115.059 56.6936C114.904 56.4384 114.701 56.2356 114.45 56.0852C114.204 55.9303 113.906 55.8528 113.555 55.8528ZM116.139 58.0608V59.093H112.728V58.0608H116.139ZM119.871 54.9504V62.3469H118.606V54.9504H119.871ZM124.725 54.9504L121.218 59.1887H119.447L119.256 58.0813H120.705L123.187 54.9504H124.725ZM123.364 62.3469L120.644 58.9973L121.457 58.0813L124.971 62.3469H123.364ZM128.922 61.4446C129.223 61.4446 129.501 61.3831 129.756 61.26C130.011 61.137 130.221 60.9683 130.385 60.7542C130.549 60.5354 130.642 60.287 130.665 60.009H131.868C131.845 60.4465 131.697 60.8544 131.424 61.2327C131.155 61.6064 130.802 61.9094 130.364 62.1418C129.927 62.3697 129.446 62.4836 128.922 62.4836C128.366 62.4836 127.881 62.3857 127.466 62.1897C127.056 61.9937 126.714 61.7249 126.44 61.3831C126.172 61.0413 125.969 60.6493 125.832 60.2073C125.7 59.7607 125.634 59.289 125.634 58.7922V58.5051C125.634 58.0084 125.7 57.539 125.832 57.0969C125.969 56.6503 126.172 56.2561 126.44 55.9143C126.714 55.5725 127.056 55.3036 127.466 55.1077C127.881 54.9117 128.366 54.8137 128.922 54.8137C129.501 54.8137 130.007 54.9322 130.439 55.1692C130.872 55.4016 131.212 55.7206 131.458 56.1262C131.709 56.5273 131.845 56.983 131.868 57.4934H130.665C130.642 57.1881 130.556 56.9124 130.405 56.6663C130.259 56.4202 130.059 56.2242 129.804 56.0784C129.553 55.928 129.259 55.8528 128.922 55.8528C128.535 55.8528 128.209 55.9303 127.944 56.0852C127.685 56.2356 127.477 56.4407 127.322 56.7004C127.172 56.9556 127.062 57.2405 126.994 57.5549C126.93 57.8648 126.898 58.1816 126.898 58.5051V58.7922C126.898 59.1158 126.93 59.4348 126.994 59.7493C127.058 60.0637 127.165 60.3486 127.315 60.6038C127.47 60.859 127.678 61.064 127.938 61.219C128.202 61.3694 128.53 61.4446 128.922 61.4446ZM138.219 54.9504V55.9963H134.479V54.9504H138.219ZM134.664 54.9504V62.3469H133.399V54.9504H134.664ZM139.34 54.9504V62.3469H138.068V54.9504H139.34ZM145.731 61.0823V57.2747C145.731 56.983 145.672 56.7301 145.554 56.5159C145.44 56.2971 145.267 56.1285 145.034 56.01C144.802 55.8915 144.515 55.8323 144.173 55.8323C143.854 55.8323 143.574 55.887 143.332 55.9963C143.095 56.1057 142.908 56.2493 142.771 56.427C142.639 56.6047 142.573 56.7961 142.573 57.0012H141.309C141.309 56.7369 141.377 56.4749 141.514 56.2151C141.65 55.9553 141.846 55.7206 142.102 55.511C142.361 55.2968 142.671 55.1282 143.031 55.0051C143.396 54.8775 143.801 54.8137 144.248 54.8137C144.786 54.8137 145.26 54.9049 145.67 55.0872C146.085 55.2694 146.408 55.5452 146.641 55.9143C146.878 56.2789 146.996 56.7369 146.996 57.2883V60.7336C146.996 60.9797 147.017 61.2418 147.058 61.5198C147.103 61.7978 147.169 62.037 147.256 62.2375V62.3469H145.937C145.873 62.2011 145.823 62.0074 145.786 61.7659C145.75 61.5198 145.731 61.2919 145.731 61.0823ZM145.95 57.8625L145.964 58.7512H144.686C144.326 58.7512 144.004 58.7808 143.722 58.8401C143.439 58.8948 143.202 58.9791 143.011 59.093C142.819 59.2069 142.674 59.3505 142.573 59.5237C142.473 59.6923 142.423 59.8905 142.423 60.1184C142.423 60.3508 142.475 60.5627 142.58 60.7542C142.685 60.9456 142.842 61.0982 143.052 61.2122C143.266 61.3215 143.528 61.3762 143.838 61.3762C144.225 61.3762 144.567 61.2942 144.863 61.1301C145.16 60.9661 145.394 60.7655 145.567 60.5286C145.745 60.2916 145.841 60.0614 145.854 59.8381L146.395 60.4465C146.363 60.6379 146.276 60.8499 146.135 61.0823C145.993 61.3147 145.804 61.538 145.567 61.7522C145.335 61.9618 145.057 62.1373 144.733 62.2786C144.414 62.4153 144.054 62.4836 143.653 62.4836C143.152 62.4836 142.712 62.3857 142.334 62.1897C141.96 61.9937 141.669 61.7317 141.459 61.4036C141.254 61.0709 141.151 60.6995 141.151 60.2893C141.151 59.8928 141.229 59.5442 141.384 59.2434C141.539 58.9381 141.762 58.6851 142.054 58.4846C142.345 58.2795 142.696 58.1246 143.106 58.0198C143.517 57.915 143.975 57.8625 144.48 57.8625H145.95ZM154.003 58.1565V59.1819H150.093V58.1565H154.003ZM150.359 54.9504V62.3469H149.095V54.9504H150.359ZM155.028 54.9504V62.3469H153.757V54.9504H155.028ZM160.025 61.4446C160.326 61.4446 160.604 61.3831 160.859 61.26C161.115 61.137 161.324 60.9683 161.488 60.7542C161.652 60.5354 161.746 60.287 161.769 60.009H162.972C162.949 60.4465 162.801 60.8544 162.527 61.2327C162.258 61.6064 161.905 61.9094 161.468 62.1418C161.03 62.3697 160.549 62.4836 160.025 62.4836C159.469 62.4836 158.984 62.3857 158.569 62.1897C158.159 61.9937 157.817 61.7249 157.544 61.3831C157.275 61.0413 157.072 60.6493 156.936 60.2073C156.803 59.7607 156.737 59.289 156.737 58.7922V58.5051C156.737 58.0084 156.803 57.539 156.936 57.0969C157.072 56.6503 157.275 56.2561 157.544 55.9143C157.817 55.5725 158.159 55.3036 158.569 55.1077C158.984 54.9117 159.469 54.8137 160.025 54.8137C160.604 54.8137 161.11 54.9322 161.543 55.1692C161.976 55.4016 162.315 55.7206 162.562 56.1262C162.812 56.5273 162.949 56.983 162.972 57.4934H161.769C161.746 57.1881 161.659 56.9124 161.509 56.6663C161.363 56.4202 161.162 56.2242 160.907 56.0784C160.657 55.928 160.363 55.8528 160.025 55.8528C159.638 55.8528 159.312 55.9303 159.048 56.0852C158.788 56.2356 158.581 56.4407 158.426 56.7004C158.275 56.9556 158.166 57.2405 158.098 57.5549C158.034 57.8648 158.002 58.1816 158.002 58.5051V58.7922C158.002 59.1158 158.034 59.4348 158.098 59.7493C158.161 60.0637 158.269 60.3486 158.419 60.6038C158.574 60.859 158.781 61.064 159.041 61.219C159.305 61.3694 159.633 61.4446 160.025 61.4446ZM165.761 60.344L169.172 54.9504H170.443V62.3469H169.172V56.9534L165.761 62.3469H164.503V54.9504H165.761V60.344ZM176.685 58.0881V59.1204H172.754V58.0881H176.685ZM173.854 54.9504V62.3469H172.59V54.9504H173.854ZM175.604 58.7307V58.5735C175.604 58.0403 175.682 57.5458 175.837 57.0901C175.992 56.6298 176.215 56.231 176.507 55.8938C176.803 55.552 177.156 55.2877 177.566 55.1008C177.981 54.9094 178.446 54.8137 178.961 54.8137C179.485 54.8137 179.954 54.9094 180.369 55.1008C180.784 55.2877 181.137 55.552 181.429 55.8938C181.725 56.231 181.951 56.6298 182.105 57.0901C182.26 57.5458 182.338 58.0403 182.338 58.5735V58.7307C182.338 59.2639 182.26 59.7584 182.105 60.2141C181.951 60.6698 181.727 61.0686 181.436 61.4104C181.144 61.7476 180.791 62.012 180.376 62.2034C179.961 62.3902 179.494 62.4836 178.975 62.4836C178.455 62.4836 177.988 62.3902 177.573 62.2034C177.159 62.012 176.803 61.7476 176.507 61.4104C176.215 61.0686 175.992 60.6698 175.837 60.2141C175.682 59.7584 175.604 59.2639 175.604 58.7307ZM176.876 58.5735V58.7307C176.876 59.0999 176.919 59.4485 177.006 59.7766C177.092 60.1002 177.222 60.3873 177.396 60.6379C177.573 60.8886 177.792 61.0868 178.052 61.2327C178.316 61.3739 178.624 61.4446 178.975 61.4446C179.326 61.4446 179.631 61.3739 179.891 61.2327C180.155 61.0868 180.374 60.8886 180.547 60.6379C180.72 60.3873 180.85 60.1002 180.937 59.7766C181.028 59.4485 181.073 59.0999 181.073 58.7307V58.5735C181.073 58.2089 181.028 57.8648 180.937 57.5413C180.85 57.2131 180.718 56.9237 180.54 56.6731C180.367 56.4179 180.148 56.2174 179.884 56.0715C179.619 55.9257 179.312 55.8528 178.961 55.8528C178.615 55.8528 178.312 55.9257 178.052 56.0715C177.792 56.2174 177.573 56.4179 177.396 56.6731C177.222 56.9237 177.092 57.2131 177.006 57.5413C176.919 57.8648 176.876 58.2089 176.876 58.5735Z" fill="black"/>
<path d="M85 42.3469L59 42.3469" stroke="#00A3FF" stroke-miterlimit="10" stroke-linecap="round"/>
<path d="M80 40.4768C79.9954 41.9612 80.4313 43.4135 81.2526 44.65C82.0739 45.8864 83.2436 46.8513 84.6136 47.4226C85.9837 47.9938 87.4924 48.1457 88.9488 47.859C90.4052 47.5722 91.7437 46.8598 92.795 45.8118C93.8462 44.7639 94.5629 43.4276 94.8542 41.9721C95.1455 40.5166 94.9983 39.0074 94.4313 37.6356C93.8644 36.2637 92.9031 35.091 91.6692 34.2659C90.4354 33.4407 88.9844 33.0003 87.5 33.0002C85.515 33.0002 83.6108 33.7872 82.205 35.1886C80.7991 36.5901 80.0062 38.4917 80 40.4768V40.4768Z" fill="#00A3FF"/>
<path d="M87.4766 43.4065C85.8586 43.4065 84.5469 42.0948 84.5469 40.4768C84.5469 38.8588 85.8586 37.5471 87.4766 37.5471C89.0946 37.5471 90.4062 38.8588 90.4062 40.4768C90.4062 42.0948 89.0946 43.4065 87.4766 43.4065Z" fill="white"/>
<defs>
<filter id="filter0_d_316_455" x="262.322" y="0.668945" width="83.3555" height="83.3555" filterUnits="userSpaceOnUse" color-interpolation-filters="sRGB">
<feFlood flood-opacity="0" result="BackgroundImageFix"/>
<feColorMatrix in="SourceAlpha" type="matrix" values="0 0 0 0 0 0 0 0 0 0 0 0 0 0 0 0 0 0 127 0" result="hardAlpha"/>
<feOffset/>
<feGaussianBlur stdDeviation="12"/>
<feComposite in2="hardAlpha" operator="out"/>
<feColorMatrix type="matrix" values="0 0 0 0 0.579167 0 0 0 0 0.579167 0 0 0 0 0.579167 0 0 0 0.3 0"/>
<feBlend mode="normal" in2="BackgroundImageFix" result="effect1_dropShadow_316_455"/>
<feBlend mode="normal" in="SourceGraphic" in2="effect1_dropShadow_316_455" result="shape"/>
</filter>
</defs>
</svg>
