<svg width="655" height="116" viewBox="0 0 655 116" fill="none" xmlns="http://www.w3.org/2000/svg">
<path d="M654.819 57.9096C654.819 25.927 628.892 0.0122581 596.91 0.0274026C564.927 0.0425471 539 25.9818 539 57.9645C539 89.9471 564.927 115.862 596.91 115.847C628.892 115.832 654.819 89.8923 654.819 57.9096Z" fill="#00A3FF"/>
<path d="M610.494 80.8743H581.109C581.109 77.7883 581.607 74.9954 582.604 72.4954C583.6 69.9954 584.84 68.0227 586.324 66.5774C587.809 65.1125 589.42 63.7258 591.158 62.4172C592.896 61.0891 594.498 59.9661 595.963 59.0481C597.447 58.1106 598.688 57.0266 599.684 55.7961C600.699 54.5461 601.207 53.2083 601.207 51.7825C601.207 50.1028 600.68 48.7844 599.625 47.8274C598.59 46.8508 597.115 46.3625 595.201 46.3625C593.678 46.3625 592.359 46.7922 591.246 47.6516C590.152 48.511 589.43 49.3606 589.078 50.2004L588.609 51.4602L581.109 47.886C581.188 47.6125 581.314 47.2512 581.49 46.802C581.666 46.3528 582.135 45.5618 582.896 44.429C583.658 43.2766 584.537 42.2708 585.533 41.4114C586.529 40.552 587.936 39.7708 589.752 39.0676C591.588 38.345 593.6 37.9836 595.787 37.9836C600.064 37.9836 603.58 39.2825 606.334 41.8801C609.107 44.4778 610.494 47.6711 610.494 51.4602C610.494 53.5891 610.035 55.5227 609.117 57.261C608.199 58.9993 606.998 60.4836 605.514 61.7141C604.029 62.925 602.506 64.0481 600.943 65.0833C599.4 66.0989 597.818 67.261 596.197 68.5696C594.576 69.8586 593.346 71.1575 592.506 72.4661H610.494V80.8743Z" fill="white"/>
<path d="M175.294 58.0002L57.2939 58.0002" stroke="#00A3FF" stroke-miterlimit="10" stroke-linecap="round"/>
<g filter="url(#filter0_d_822_2140)">
<path d="M32.5734 78.7318C21.2109 67.3747 21.2109 48.9612 32.5733 37.6041C43.9358 26.247 62.358 26.2471 73.7204 37.6042C85.0829 48.9612 85.0829 67.3747 73.7204 78.7318C62.358 90.0889 43.9358 90.0889 32.5734 78.7318Z" fill="white"/>
</g>
<path d="M44.0532 58.1649C44.0479 59.8876 44.5531 61.5732 45.505 63.0093C46.457 64.4453 47.8131 65.5674 49.4023 66.234C50.9915 66.9007 52.7426 67.082 54.4347 66.7551C56.1269 66.4282 57.6843 65.6078 58.9106 64.3973C60.1368 63.1868 60.977 61.6405 61.3251 59.9533C61.6731 58.2662 61.5136 56.5137 60.8665 54.9171C60.2194 53.3205 59.1137 51.9511 57.689 50.9818C56.2643 50.0125 54.5843 49.4866 52.8609 49.4704C51.7094 49.456 50.5665 49.6702 49.4985 50.1007C48.4306 50.5312 47.4587 51.1693 46.6394 51.9781C45.8201 52.7869 45.1695 53.7503 44.7256 54.8123C44.2816 55.8743 44.0531 57.0139 44.0532 58.1649V58.1649Z" fill="#00A3FF"/>
<path d="M52.7516 61.5717C50.8692 61.5717 49.3431 60.0464 49.3431 58.1648C49.3431 56.2832 50.8692 54.7578 52.7516 54.7578C54.6341 54.7578 56.1602 56.2832 56.1602 58.1648C56.1602 60.0464 54.6341 61.5717 52.7516 61.5717Z" fill="white"/>
<path d="M172.842 58.1647C172.837 59.8909 173.344 61.5798 174.299 63.0177C175.255 64.4555 176.616 65.5777 178.21 66.242C179.804 66.9063 181.559 67.0829 183.254 66.7495C184.948 66.416 186.505 65.5875 187.729 64.3688C188.952 63.1502 189.785 61.5962 190.124 59.9036C190.463 58.211 190.292 56.4559 189.632 54.8606C188.973 53.2653 187.854 51.9016 186.419 50.942C184.983 49.9824 183.295 49.4702 181.568 49.4702C179.259 49.4702 177.043 50.3854 175.408 52.0151C173.772 53.6449 172.849 55.8563 172.842 58.1647V58.1647Z" fill="#00A3FF"/>
<path d="M181.541 61.5717C179.658 61.5717 178.132 60.0464 178.132 58.1648C178.132 56.2832 179.658 54.7578 181.541 54.7578C183.423 54.7578 184.949 56.2832 184.949 58.1648C184.949 60.0464 183.423 61.5717 181.541 61.5717Z" fill="white"/>
<path d="M238.584 45.8665H234.405V44.1799H238.584C239.393 44.1799 240.049 44.051 240.55 43.7932C241.051 43.5354 241.416 43.1773 241.646 42.719C241.882 42.2607 242 41.7379 242 41.1506C242 40.6135 241.882 40.1086 241.646 39.636C241.416 39.1633 241.051 38.7838 240.55 38.4973C240.049 38.2037 239.393 38.0569 238.584 38.0569H234.889V52.0002H232.815V36.3596H238.584C239.766 36.3596 240.765 36.5637 241.581 36.9719C242.397 37.3801 243.017 37.9459 243.439 38.6692C243.862 39.3853 244.073 40.2053 244.073 41.1292C244.073 42.1318 243.862 42.9875 243.439 43.6965C243.017 44.4055 242.397 44.9462 241.581 45.3186C240.765 45.6838 239.766 45.8665 238.584 45.8665ZM253.118 50.0129V44.0295C253.118 43.5712 253.025 43.1737 252.839 42.8372C252.66 42.4934 252.388 42.2284 252.022 42.0422C251.657 41.856 251.206 41.7629 250.669 41.7629C250.168 41.7629 249.727 41.8489 249.348 42.0208C248.975 42.1926 248.682 42.4182 248.467 42.6975C248.259 42.9768 248.155 43.2776 248.155 43.5999H246.168C246.168 43.1845 246.275 42.7727 246.49 42.3645C246.705 41.9563 247.013 41.5875 247.414 41.2581C247.822 40.9215 248.309 40.6565 248.875 40.4631C249.448 40.2626 250.085 40.1624 250.787 40.1624C251.632 40.1624 252.377 40.3056 253.021 40.592C253.673 40.8785 254.182 41.3118 254.547 41.8918C254.919 42.4648 255.105 43.1845 255.105 44.051V49.4651C255.105 49.8518 255.138 50.2636 255.202 50.7004C255.274 51.1373 255.378 51.5133 255.514 51.8284V52.0002H253.44C253.34 51.7711 253.261 51.4667 253.204 51.0872C253.147 50.7004 253.118 50.3424 253.118 50.0129ZM253.462 44.9534L253.483 46.3499H251.475C250.909 46.3499 250.404 46.3964 249.96 46.4895C249.516 46.5754 249.144 46.7079 248.843 46.887C248.542 47.066 248.313 47.2916 248.155 47.5637C247.998 47.8287 247.919 48.1402 247.919 48.4983C247.919 48.8635 248.001 49.1965 248.166 49.4973C248.331 49.7981 248.578 50.038 248.907 50.217C249.244 50.3889 249.656 50.4749 250.143 50.4749C250.751 50.4749 251.288 50.3459 251.754 50.0881C252.219 49.8303 252.588 49.5152 252.86 49.1428C253.14 48.7704 253.29 48.4088 253.312 48.0579L254.16 49.0139C254.11 49.3147 253.974 49.6477 253.752 50.0129C253.53 50.3782 253.233 50.7291 252.86 51.0657C252.495 51.3951 252.058 51.6708 251.55 51.8928C251.049 52.1077 250.483 52.2151 249.853 52.2151C249.065 52.2151 248.374 52.0611 247.779 51.7532C247.192 51.4452 246.734 51.0334 246.404 50.5178C246.082 49.995 245.921 49.4114 245.921 48.7668C245.921 48.1438 246.043 47.5959 246.286 47.1233C246.53 46.6435 246.881 46.246 247.339 45.9309C247.797 45.6086 248.349 45.3652 248.993 45.2004C249.638 45.0357 250.357 44.9534 251.152 44.9534H253.462ZM262.571 46.4465H260.434V45.2219H262.41C262.962 45.2219 263.398 45.1539 263.721 45.0178C264.043 44.8746 264.272 44.6777 264.408 44.427C264.544 44.1764 264.612 43.8827 264.612 43.5461C264.612 43.2454 264.534 42.9625 264.376 42.6975C264.226 42.4254 263.982 42.2069 263.646 42.0422C263.309 41.8704 262.858 41.7844 262.292 41.7844C261.834 41.7844 261.418 41.8668 261.046 42.0315C260.674 42.189 260.376 42.4075 260.154 42.6868C259.939 42.9589 259.832 43.2668 259.832 43.6106H257.845C257.845 42.9016 258.045 42.2929 258.446 41.7844C258.854 41.2688 259.395 40.8713 260.068 40.592C260.749 40.3127 261.49 40.1731 262.292 40.1731C262.965 40.1731 263.567 40.2483 264.097 40.3987C264.634 40.5419 265.089 40.7568 265.461 41.0432C265.833 41.3225 266.116 41.6734 266.31 42.0959C266.51 42.5113 266.61 42.9947 266.61 43.5461C266.61 43.94 266.517 44.3124 266.331 44.6633C266.145 45.0142 265.876 45.3258 265.525 45.5979C265.174 45.8629 264.748 46.0706 264.247 46.2209C263.753 46.3713 263.194 46.4465 262.571 46.4465ZM260.434 45.6946H262.571C263.266 45.6946 263.878 45.7626 264.408 45.8987C264.938 46.0276 265.382 46.2209 265.74 46.4788C266.098 46.7366 266.367 47.0553 266.546 47.4348C266.732 47.8072 266.825 48.2369 266.825 48.7239C266.825 49.2681 266.714 49.7587 266.492 50.1956C266.277 50.6252 265.969 50.9905 265.568 51.2913C265.167 51.592 264.688 51.8212 264.129 51.9788C263.577 52.1363 262.965 52.2151 262.292 52.2151C261.54 52.2151 260.81 52.0862 260.101 51.8284C259.392 51.5706 258.808 51.1731 258.35 50.636C257.891 50.0917 257.662 49.4006 257.662 48.5627H259.649C259.649 48.9137 259.76 49.2467 259.982 49.5618C260.204 49.8769 260.512 50.1311 260.906 50.3245C261.307 50.5178 261.769 50.6145 262.292 50.6145C262.851 50.6145 263.316 50.5286 263.688 50.3567C264.061 50.1848 264.34 49.9556 264.526 49.6692C264.72 49.3827 264.816 49.0712 264.816 48.7346C264.816 48.2978 264.73 47.9469 264.559 47.6819C264.387 47.4169 264.122 47.2236 263.764 47.1018C263.413 46.9729 262.962 46.9084 262.41 46.9084H260.434V45.6946ZM271.391 42.6116V56.469H269.393V40.3772H271.219L271.391 42.6116ZM279.222 46.092V46.3176C279.222 47.1627 279.121 47.9469 278.921 48.6702C278.72 49.3863 278.427 50.0094 278.04 50.5393C277.66 51.0693 277.191 51.481 276.633 51.7747C276.074 52.0683 275.433 52.2151 274.71 52.2151C273.972 52.2151 273.321 52.0933 272.755 51.8499C272.189 51.6064 271.709 51.2519 271.315 50.7864C270.922 50.3209 270.606 49.7623 270.37 49.1106C270.141 48.4589 269.983 47.7249 269.897 46.9084V45.7053C269.983 44.8459 270.145 44.0761 270.381 43.3958C270.617 42.7154 270.929 42.1353 271.315 41.6555C271.709 41.1685 272.186 40.7997 272.744 40.5491C273.303 40.2913 273.947 40.1624 274.678 40.1624C275.408 40.1624 276.056 40.3056 276.622 40.592C277.188 40.8713 277.664 41.2724 278.051 41.7952C278.438 42.318 278.728 42.9446 278.921 43.675C279.121 44.3984 279.222 45.204 279.222 46.092ZM277.224 46.3176V46.092C277.224 45.512 277.163 44.9677 277.041 44.4592C276.919 43.9436 276.729 43.4924 276.472 43.1057C276.221 42.7118 275.899 42.4039 275.505 42.1819C275.111 41.9527 274.642 41.8381 274.098 41.8381C273.596 41.8381 273.16 41.9241 272.787 42.0959C272.422 42.2678 272.11 42.5006 271.853 42.7942C271.595 43.0806 271.383 43.4101 271.219 43.7825C271.061 44.1477 270.943 44.5273 270.864 44.9211V47.7034C271.007 48.2047 271.208 48.6773 271.466 49.1213C271.724 49.5582 272.067 49.9127 272.497 50.1848C272.927 50.4498 273.467 50.5823 274.119 50.5823C274.656 50.5823 275.118 50.4713 275.505 50.2493C275.899 50.0201 276.221 49.7086 276.472 49.3147C276.729 48.9208 276.919 48.4696 277.041 47.9612C277.163 47.4456 277.224 46.8977 277.224 46.3176ZM288.61 50.0129V44.0295C288.61 43.5712 288.517 43.1737 288.331 42.8372C288.152 42.4934 287.88 42.2284 287.515 42.0422C287.149 41.856 286.698 41.7629 286.161 41.7629C285.66 41.7629 285.219 41.8489 284.84 42.0208C284.467 42.1926 284.174 42.4182 283.959 42.6975C283.751 42.9768 283.647 43.2776 283.647 43.5999H281.66C281.66 43.1845 281.768 42.7727 281.982 42.3645C282.197 41.9563 282.505 41.5875 282.906 41.2581C283.314 40.9215 283.801 40.6565 284.367 40.4631C284.94 40.2626 285.577 40.1624 286.279 40.1624C287.124 40.1624 287.869 40.3056 288.514 40.592C289.165 40.8785 289.674 41.3118 290.039 41.8918C290.411 42.4648 290.598 43.1845 290.598 44.051V49.4651C290.598 49.8518 290.63 50.2636 290.694 50.7004C290.766 51.1373 290.87 51.5133 291.006 51.8284V52.0002H288.933C288.832 51.7711 288.754 51.4667 288.696 51.0872C288.639 50.7004 288.61 50.3424 288.61 50.0129ZM288.954 44.9534L288.976 46.3499H286.967C286.401 46.3499 285.896 46.3964 285.452 46.4895C285.008 46.5754 284.636 46.7079 284.335 46.887C284.034 47.066 283.805 47.2916 283.647 47.5637C283.49 47.8287 283.411 48.1402 283.411 48.4983C283.411 48.8635 283.493 49.1965 283.658 49.4973C283.823 49.7981 284.07 50.038 284.399 50.217C284.736 50.3889 285.148 50.4749 285.635 50.4749C286.243 50.4749 286.781 50.3459 287.246 50.0881C287.712 49.8303 288.08 49.5152 288.353 49.1428C288.632 48.7704 288.782 48.4088 288.804 48.0579L289.652 49.0139C289.602 49.3147 289.466 49.6477 289.244 50.0129C289.022 50.3782 288.725 50.7291 288.353 51.0657C287.987 51.3951 287.55 51.6708 287.042 51.8928C286.541 52.1077 285.975 52.2151 285.345 52.2151C284.557 52.2151 283.866 52.0611 283.271 51.7532C282.684 51.4452 282.226 51.0334 281.896 50.5178C281.574 49.995 281.413 49.4114 281.413 48.7668C281.413 48.1438 281.535 47.5959 281.778 47.1233C282.022 46.6435 282.373 46.246 282.831 45.9309C283.289 45.6086 283.841 45.3652 284.485 45.2004C285.13 45.0357 285.85 44.9534 286.645 44.9534H288.954ZM301.179 35.3176H302.812C302.812 36.0194 302.704 36.578 302.489 36.9934C302.274 37.4016 301.981 37.7167 301.608 37.9387C301.243 38.1607 300.828 38.329 300.362 38.4436C299.904 38.5582 299.428 38.6692 298.934 38.7766C298.318 38.9055 297.745 39.1096 297.215 39.3889C296.692 39.6611 296.241 40.0478 295.861 40.5491C295.489 41.0504 295.213 41.7021 295.034 42.5042C294.862 43.3062 294.816 44.2981 294.895 45.4797V46.468H293.262V45.4797C293.262 44.1549 293.387 42.9983 293.638 42.01C293.896 41.0217 294.257 40.1874 294.723 39.5071C295.188 38.8267 295.74 38.2861 296.377 37.885C297.021 37.484 297.73 37.2083 298.504 37.0579C299.062 36.9504 299.542 36.8359 299.943 36.7141C300.344 36.5852 300.649 36.4133 300.856 36.1985C301.071 35.9836 301.179 35.69 301.179 35.3176ZM298.826 41.0432C299.585 41.0432 300.262 41.1757 300.856 41.4407C301.451 41.7056 301.956 42.0745 302.371 42.5471C302.786 43.0198 303.102 43.5784 303.316 44.2229C303.538 44.8603 303.649 45.5549 303.649 46.3069V46.5432C303.649 47.3525 303.531 48.1044 303.295 48.7991C303.066 49.4866 302.726 50.0881 302.274 50.6038C301.83 51.1122 301.286 51.5097 300.642 51.7961C300.004 52.0826 299.277 52.2258 298.461 52.2258C297.645 52.2258 296.914 52.0826 296.27 51.7961C295.632 51.5097 295.088 51.1122 294.637 50.6038C294.186 50.0881 293.842 49.4866 293.605 48.7991C293.376 48.1044 293.262 47.3525 293.262 46.5432V46.3069C293.262 46.1278 293.294 45.9524 293.358 45.7805C293.423 45.6086 293.502 45.4332 293.595 45.2542C293.695 45.0751 293.785 44.8853 293.863 44.6848C294.128 44.0403 294.49 43.4423 294.948 42.8909C295.414 42.3394 295.969 41.8954 296.613 41.5588C297.265 41.2151 298.003 41.0432 298.826 41.0432ZM298.439 42.6653C297.709 42.6653 297.107 42.8336 296.635 43.1702C296.169 43.5068 295.822 43.9543 295.593 44.5129C295.364 45.0644 295.249 45.6624 295.249 46.3069V46.5432C295.249 47.0875 295.313 47.6031 295.442 48.0901C295.571 48.5771 295.765 49.0103 296.022 49.3899C296.287 49.7623 296.62 50.0559 297.021 50.2708C297.43 50.4856 297.91 50.593 298.461 50.593C299.012 50.593 299.489 50.4856 299.89 50.2708C300.291 50.0559 300.62 49.7623 300.878 49.3899C301.136 49.0103 301.329 48.5771 301.458 48.0901C301.587 47.6031 301.651 47.0875 301.651 46.5432V46.3069C301.651 45.8199 301.587 45.358 301.458 44.9211C301.329 44.4843 301.132 44.0976 300.867 43.761C300.609 43.4244 300.276 43.1594 299.868 42.9661C299.467 42.7655 298.991 42.6653 298.439 42.6653ZM305.379 46.3176V46.0706C305.379 45.2327 305.501 44.4556 305.744 43.7395C305.988 43.0162 306.339 42.3896 306.797 41.8596C307.255 41.3225 307.81 40.9071 308.462 40.6135C309.114 40.3127 309.844 40.1624 310.653 40.1624C311.47 40.1624 312.204 40.3127 312.855 40.6135C313.514 40.9071 314.073 41.3225 314.531 41.8596C314.997 42.3896 315.351 43.0162 315.595 43.7395C315.838 44.4556 315.96 45.2327 315.96 46.0706V46.3176C315.96 47.1555 315.838 47.9325 315.595 48.6487C315.351 49.3648 314.997 49.9915 314.531 50.5286C314.073 51.0585 313.518 51.4739 312.866 51.7747C312.222 52.0683 311.491 52.2151 310.675 52.2151C309.858 52.2151 309.124 52.0683 308.473 51.7747C307.821 51.4739 307.262 51.0585 306.797 50.5286C306.339 49.9915 305.988 49.3648 305.744 48.6487C305.501 47.9325 305.379 47.1555 305.379 46.3176ZM307.366 46.0706V46.3176C307.366 46.8977 307.434 47.4456 307.57 47.9612C307.706 48.4696 307.91 48.9208 308.183 49.3147C308.462 49.7086 308.809 50.0201 309.225 50.2493C309.64 50.4713 310.123 50.5823 310.675 50.5823C311.219 50.5823 311.695 50.4713 312.104 50.2493C312.519 50.0201 312.863 49.7086 313.135 49.3147C313.407 48.9208 313.611 48.4696 313.747 47.9612C313.89 47.4456 313.962 46.8977 313.962 46.3176V46.0706C313.962 45.4976 313.89 44.9569 313.747 44.4485C313.611 43.9329 313.403 43.4781 313.124 43.0842C312.852 42.6832 312.508 42.3681 312.093 42.1389C311.685 41.9097 311.205 41.7952 310.653 41.7952C310.109 41.7952 309.629 41.9097 309.214 42.1389C308.806 42.3681 308.462 42.6832 308.183 43.0842C307.91 43.4781 307.706 43.9329 307.57 44.4485C307.434 44.9569 307.366 45.4976 307.366 46.0706ZM322.953 40.3772V52.0002H320.955V40.3772H322.953ZM326.853 40.3772V41.9885H317.131V40.3772H326.853ZM330.967 40.3772V52.0002H328.979V40.3772H330.967ZM338.594 40.3772L333.083 47.0374H330.301L330 45.2971H332.277L336.177 40.3772H338.594ZM336.456 52.0002L332.181 46.7366L333.459 45.2971L338.98 52.0002H336.456ZM347.563 50.0129V44.0295C347.563 43.5712 347.47 43.1737 347.284 42.8372C347.105 42.4934 346.833 42.2284 346.468 42.0422C346.103 41.856 345.651 41.7629 345.114 41.7629C344.613 41.7629 344.173 41.8489 343.793 42.0208C343.421 42.1926 343.127 42.4182 342.912 42.6975C342.704 42.9768 342.601 43.2776 342.601 43.5999H340.613C340.613 43.1845 340.721 42.7727 340.936 42.3645C341.15 41.9563 341.458 41.5875 341.859 41.2581C342.268 40.9215 342.755 40.6565 343.32 40.4631C343.893 40.2626 344.531 40.1624 345.232 40.1624C346.077 40.1624 346.822 40.3056 347.467 40.592C348.118 40.8785 348.627 41.3118 348.992 41.8918C349.365 42.4648 349.551 43.1845 349.551 44.051V49.4651C349.551 49.8518 349.583 50.2636 349.647 50.7004C349.719 51.1373 349.823 51.5133 349.959 51.8284V52.0002H347.886C347.785 51.7711 347.707 51.4667 347.649 51.0872C347.592 50.7004 347.563 50.3424 347.563 50.0129ZM347.907 44.9534L347.929 46.3499H345.92C345.354 46.3499 344.849 46.3964 344.405 46.4895C343.961 46.5754 343.589 46.7079 343.288 46.887C342.987 47.066 342.758 47.2916 342.601 47.5637C342.443 47.8287 342.364 48.1402 342.364 48.4983C342.364 48.8635 342.447 49.1965 342.611 49.4973C342.776 49.7981 343.023 50.038 343.353 50.217C343.689 50.3889 344.101 50.4749 344.588 50.4749C345.197 50.4749 345.734 50.3459 346.199 50.0881C346.665 49.8303 347.034 49.5152 347.306 49.1428C347.585 48.7704 347.735 48.4088 347.757 48.0579L348.605 49.0139C348.555 49.3147 348.419 49.6477 348.197 50.0129C347.975 50.3782 347.678 50.7291 347.306 51.0657C346.94 51.3951 346.504 51.6708 345.995 51.8928C345.494 52.1077 344.928 52.2151 344.298 52.2151C343.51 52.2151 342.819 52.0611 342.225 51.7532C341.637 51.4452 341.179 51.0334 340.85 50.5178C340.527 49.995 340.366 49.4114 340.366 48.7668C340.366 48.1438 340.488 47.5959 340.731 47.1233C340.975 46.6435 341.326 46.246 341.784 45.9309C342.243 45.6086 342.794 45.3652 343.438 45.2004C344.083 45.0357 344.803 44.9534 345.598 44.9534H347.907ZM360.282 48.8528L365.643 40.3772H367.641V52.0002H365.643V43.5247L360.282 52.0002H358.306V40.3772H360.282V48.8528ZM379.554 50.7971L382.787 40.3772H384.914L380.252 53.7942C380.145 54.0806 380.001 54.3886 379.822 54.718C379.65 55.0546 379.428 55.3733 379.156 55.6741C378.884 55.9749 378.555 56.2183 378.168 56.4045C377.788 56.5979 377.334 56.6946 376.804 56.6946C376.646 56.6946 376.446 56.6731 376.202 56.6301C375.959 56.5872 375.787 56.5514 375.687 56.5227L375.676 54.9114C375.733 54.9185 375.823 54.9257 375.944 54.9329C376.073 54.9472 376.163 54.9543 376.213 54.9543C376.664 54.9543 377.047 54.8935 377.362 54.7717C377.677 54.6571 377.942 54.4602 378.157 54.1809C378.379 53.9088 378.569 53.5328 378.727 53.053L379.554 50.7971ZM377.18 40.3772L380.198 49.4006L380.714 51.4954L379.285 52.2258L375.01 40.3772H377.18ZM391.445 40.3772V52.0002H389.447V40.3772H391.445ZM395.345 40.3772V41.9885H385.623V40.3772H395.345ZM402.757 46.887H398.943L398.922 45.2971H402.037C402.653 45.2971 403.165 45.2362 403.573 45.1145C403.989 44.9928 404.3 44.8101 404.508 44.5667C404.715 44.3232 404.819 44.0224 404.819 43.6643C404.819 43.385 404.758 43.1415 404.637 42.9338C404.522 42.719 404.347 42.5435 404.11 42.4075C403.874 42.2642 403.58 42.1604 403.229 42.0959C402.886 42.0243 402.481 41.9885 402.016 41.9885H399.47V52.0002H397.482V40.3772H402.016C402.753 40.3772 403.416 40.4417 404.003 40.5706C404.597 40.6995 405.102 40.8964 405.518 41.1614C405.94 41.4192 406.262 41.7486 406.484 42.1497C406.706 42.5507 406.817 43.0234 406.817 43.5676C406.817 43.9185 406.746 44.2515 406.603 44.5667C406.459 44.8818 406.248 45.1611 405.969 45.4045C405.689 45.648 405.346 45.8486 404.938 46.0061C404.529 46.1565 404.06 46.2532 403.53 46.2961L402.757 46.887ZM402.757 52.0002H398.224L399.212 50.3889H402.757C403.308 50.3889 403.767 50.3209 404.132 50.1848C404.497 50.0416 404.769 49.8411 404.948 49.5833C405.134 49.3183 405.228 49.0032 405.228 48.6379C405.228 48.2727 405.134 47.9612 404.948 47.7034C404.769 47.4384 404.497 47.2379 404.132 47.1018C403.767 46.9586 403.308 46.887 402.757 46.887H399.738L399.76 45.2971H403.53L404.25 45.8987C404.887 45.9488 405.428 46.1064 405.872 46.3713C406.316 46.6363 406.653 46.9729 406.882 47.3811C407.111 47.7821 407.226 48.219 407.226 48.6917C407.226 49.2359 407.122 49.7157 406.914 50.1311C406.714 50.5465 406.42 50.8938 406.033 51.1731C405.646 51.4452 405.177 51.6529 404.626 51.7961C404.075 51.9322 403.451 52.0002 402.757 52.0002ZM414.713 52.2151C413.904 52.2151 413.17 52.079 412.511 51.8069C411.859 51.5276 411.297 51.1373 410.824 50.636C410.359 50.1347 410.001 49.5403 409.75 48.8528C409.499 48.1653 409.374 47.4133 409.374 46.5969V46.1458C409.374 45.2004 409.514 44.359 409.793 43.6213C410.072 42.8765 410.452 42.2463 410.932 41.7307C411.411 41.2151 411.956 40.8248 412.564 40.5598C413.173 40.2948 413.803 40.1624 414.455 40.1624C415.286 40.1624 416.002 40.3056 416.604 40.592C417.212 40.8785 417.71 41.2795 418.097 41.7952C418.483 42.3036 418.77 42.9052 418.956 43.5999C419.142 44.2874 419.235 45.0393 419.235 45.8557V46.7473H410.556V45.1252H417.248V44.9749C417.219 44.4592 417.112 43.9579 416.926 43.4709C416.747 42.984 416.46 42.5829 416.066 42.2678C415.673 41.9527 415.135 41.7952 414.455 41.7952C414.004 41.7952 413.589 41.8918 413.209 42.0852C412.829 42.2714 412.504 42.5507 412.231 42.9231C411.959 43.2955 411.748 43.7502 411.598 44.2874C411.447 44.8245 411.372 45.4439 411.372 46.1458V46.5969C411.372 47.1484 411.447 47.6676 411.598 48.1545C411.755 48.6344 411.981 49.0569 412.274 49.4221C412.575 49.7874 412.937 50.0738 413.359 50.2815C413.789 50.4892 414.276 50.593 414.82 50.593C415.522 50.593 416.117 50.4498 416.604 50.1633C417.09 49.8769 417.517 49.4937 417.882 49.0139L419.085 49.97C418.834 50.3495 418.516 50.7112 418.129 51.0549C417.742 51.3987 417.266 51.678 416.7 51.8928C416.142 52.1077 415.479 52.2151 414.713 52.2151ZM423.543 42.6116V56.469H421.545V40.3772H423.371L423.543 42.6116ZM431.374 46.092V46.3176C431.374 47.1627 431.274 47.9469 431.073 48.6702C430.873 49.3863 430.579 50.0094 430.192 50.5393C429.813 51.0693 429.344 51.481 428.785 51.7747C428.227 52.0683 427.586 52.2151 426.862 52.2151C426.125 52.2151 425.473 52.0933 424.907 51.8499C424.341 51.6064 423.862 51.2519 423.468 50.7864C423.074 50.3209 422.759 49.7623 422.522 49.1106C422.293 48.4589 422.136 47.7249 422.05 46.9084V45.7053C422.136 44.8459 422.297 44.0761 422.533 43.3958C422.77 42.7154 423.081 42.1353 423.468 41.6555C423.862 41.1685 424.338 40.7997 424.896 40.5491C425.455 40.2913 426.1 40.1624 426.83 40.1624C427.561 40.1624 428.209 40.3056 428.774 40.592C429.34 40.8713 429.816 41.2724 430.203 41.7952C430.59 42.318 430.88 42.9446 431.073 43.675C431.274 44.3984 431.374 45.204 431.374 46.092ZM429.376 46.3176V46.092C429.376 45.512 429.315 44.9677 429.193 44.4592C429.072 43.9436 428.882 43.4924 428.624 43.1057C428.373 42.7118 428.051 42.4039 427.657 42.1819C427.263 41.9527 426.794 41.8381 426.25 41.8381C425.749 41.8381 425.312 41.9241 424.939 42.0959C424.574 42.2678 424.263 42.5006 424.005 42.7942C423.747 43.0806 423.536 43.4101 423.371 43.7825C423.214 44.1477 423.095 44.5273 423.017 44.9211V47.7034C423.16 48.2047 423.36 48.6773 423.618 49.1213C423.876 49.5582 424.22 49.9127 424.649 50.1848C425.079 50.4498 425.62 50.5823 426.271 50.5823C426.809 50.5823 427.271 50.4713 427.657 50.2493C428.051 50.0201 428.373 49.7086 428.624 49.3147C428.882 48.9208 429.072 48.4696 429.193 47.9612C429.315 47.4456 429.376 46.8977 429.376 46.3176ZM437.261 46.9407L432.856 40.3772H435.252L438.26 45.1897H440.58L440.29 46.9407H437.261ZM438.346 46.7366L434.973 52.0002H432.459L437.089 45.2971L438.346 46.7366ZM441.601 40.3772V52.0002H439.613V40.3772H441.601ZM448.379 40.3772L443.975 46.9407H440.945L440.634 45.1897H442.965L445.973 40.3772H448.379ZM446.252 52.0002L442.868 46.7366L444.146 45.2971L448.766 52.0002H446.252ZM452.697 40.3772H454.685L454.513 44.7278C454.47 45.8306 454.344 46.7831 454.137 47.5852C453.929 48.3873 453.664 49.0712 453.342 49.637C453.02 50.1956 452.658 50.6646 452.257 51.0442C451.863 51.4237 451.455 51.7424 451.032 52.0002H450.044L450.098 50.3782L450.506 50.3674C450.742 50.0881 450.971 49.8017 451.193 49.5081C451.415 49.2073 451.619 48.8528 451.806 48.4446C451.992 48.0292 452.146 47.5243 452.268 46.9299C452.396 46.3284 452.479 45.5943 452.515 44.7278L452.697 40.3772ZM453.191 40.3772H460.185V52.0002H458.197V42.2141H453.191V40.3772ZM449.593 50.3674H461.678V55.427H459.69V52.0002H451.58V55.427H449.582L449.593 50.3674ZM468.703 52.2151C467.894 52.2151 467.16 52.079 466.501 51.8069C465.849 51.5276 465.287 51.1373 464.814 50.636C464.349 50.1347 463.991 49.5403 463.74 48.8528C463.49 48.1653 463.364 47.4133 463.364 46.5969V46.1458C463.364 45.2004 463.504 44.359 463.783 43.6213C464.062 42.8765 464.442 42.2463 464.922 41.7307C465.402 41.2151 465.946 40.8248 466.555 40.5598C467.163 40.2948 467.794 40.1624 468.445 40.1624C469.276 40.1624 469.992 40.3056 470.594 40.592C471.202 40.8785 471.7 41.2795 472.087 41.7952C472.474 42.3036 472.76 42.9052 472.946 43.5999C473.132 44.2874 473.226 45.0393 473.226 45.8557V46.7473H464.546V45.1252H471.238V44.9749C471.21 44.4592 471.102 43.9579 470.916 43.4709C470.737 42.984 470.451 42.5829 470.057 42.2678C469.663 41.9527 469.126 41.7952 468.445 41.7952C467.994 41.7952 467.579 41.8918 467.199 42.0852C466.82 42.2714 466.494 42.5507 466.222 42.9231C465.95 43.2955 465.738 43.7502 465.588 44.2874C465.438 44.8245 465.362 45.4439 465.362 46.1458V46.5969C465.362 47.1484 465.438 47.6676 465.588 48.1545C465.745 48.6344 465.971 49.0569 466.265 49.4221C466.565 49.7874 466.927 50.0738 467.35 50.2815C467.779 50.4892 468.266 50.593 468.811 50.593C469.512 50.593 470.107 50.4498 470.594 50.1633C471.081 49.8769 471.507 49.4937 471.872 49.0139L473.075 49.97C472.825 50.3495 472.506 50.7112 472.119 51.0549C471.732 51.3987 471.256 51.678 470.69 51.8928C470.132 52.1077 469.469 52.2151 468.703 52.2151ZM483.431 45.4153V47.0266H477.286V45.4153H483.431ZM477.705 40.3772V52.0002H475.718V40.3772H477.705ZM485.042 40.3772V52.0002H483.044V40.3772H485.042ZM490.392 48.8528L495.752 40.3772H497.75V52.0002H495.752V43.5247L490.392 52.0002H488.415V40.3772H490.392V48.8528ZM505.764 52.2151C504.954 52.2151 504.22 52.079 503.562 51.8069C502.91 51.5276 502.348 51.1373 501.875 50.636C501.41 50.1347 501.051 49.5403 500.801 48.8528C500.55 48.1653 500.425 47.4133 500.425 46.5969V46.1458C500.425 45.2004 500.564 44.359 500.844 43.6213C501.123 42.8765 501.503 42.2463 501.982 41.7307C502.462 41.2151 503.007 40.8248 503.615 40.5598C504.224 40.2948 504.854 40.1624 505.506 40.1624C506.337 40.1624 507.053 40.3056 507.654 40.592C508.263 40.8785 508.761 41.2795 509.147 41.7952C509.534 42.3036 509.821 42.9052 510.007 43.5999C510.193 44.2874 510.286 45.0393 510.286 45.8557V46.7473H501.606V45.1252H508.299V44.9749C508.27 44.4592 508.163 43.9579 507.977 43.4709C507.798 42.984 507.511 42.5829 507.117 42.2678C506.723 41.9527 506.186 41.7952 505.506 41.7952C505.055 41.7952 504.639 41.8918 504.26 42.0852C503.88 42.2714 503.554 42.5507 503.282 42.9231C503.01 43.2955 502.799 43.7502 502.648 44.2874C502.498 44.8245 502.423 45.4439 502.423 46.1458V46.5969C502.423 47.1484 502.498 47.6676 502.648 48.1545C502.806 48.6344 503.032 49.0569 503.325 49.4221C503.626 49.7874 503.988 50.0738 504.41 50.2815C504.84 50.4892 505.327 50.593 505.871 50.593C506.573 50.593 507.167 50.4498 507.654 50.1633C508.141 49.8769 508.567 49.4937 508.933 49.0139L510.136 49.97C509.885 50.3495 509.566 50.7112 509.18 51.0549C508.793 51.3987 508.317 51.678 507.751 51.8928C507.192 52.1077 506.53 52.2151 505.764 52.2151ZM235.78 76.7971L239.014 66.3772H241.141L236.479 79.7942C236.371 80.0806 236.228 80.3886 236.049 80.718C235.877 81.0546 235.655 81.3733 235.383 81.6741C235.111 81.9749 234.781 82.2183 234.395 82.4045C234.015 82.5979 233.56 82.6946 233.03 82.6946C232.873 82.6946 232.672 82.6731 232.429 82.6301C232.185 82.5872 232.013 82.5514 231.913 82.5227L231.902 80.9114C231.96 80.9185 232.049 80.9257 232.171 80.9329C232.3 80.9472 232.389 80.9543 232.439 80.9543C232.891 80.9543 233.274 80.8935 233.589 80.7717C233.904 80.6571 234.169 80.4602 234.384 80.1809C234.606 79.9088 234.796 79.5328 234.953 79.053L235.78 76.7971ZM233.406 66.3772L236.425 75.4006L236.94 77.4954L235.512 78.2258L231.236 66.3772H233.406ZM247.436 76.5823C247.908 76.5823 248.345 76.4856 248.746 76.2922C249.147 76.0989 249.477 75.8339 249.734 75.4973C249.992 75.1536 250.139 74.7633 250.175 74.3264H252.065C252.03 75.0139 251.797 75.6549 251.367 76.2493C250.945 76.8365 250.39 77.3127 249.702 77.678C249.015 78.0361 248.259 78.2151 247.436 78.2151C246.562 78.2151 245.799 78.0611 245.147 77.7532C244.503 77.4452 243.966 77.0227 243.536 76.4856C243.114 75.9485 242.795 75.3326 242.58 74.6379C242.372 73.9361 242.269 73.1949 242.269 72.4143V71.9631C242.269 71.1825 242.372 70.4449 242.58 69.7502C242.795 69.0484 243.114 68.429 243.536 67.8918C243.966 67.3547 244.503 66.9322 245.147 66.6243C245.799 66.3163 246.562 66.1624 247.436 66.1624C248.345 66.1624 249.14 66.3486 249.82 66.7209C250.501 67.0862 251.034 67.5875 251.421 68.2249C251.815 68.8551 252.03 69.5712 252.065 70.3733H250.175C250.139 69.8935 250.003 69.4602 249.767 69.0735C249.537 68.6868 249.222 68.3788 248.821 68.1497C248.427 67.9133 247.965 67.7952 247.436 67.7952C246.827 67.7952 246.315 67.9169 245.899 68.1604C245.491 68.3967 245.165 68.719 244.922 69.1272C244.686 69.5282 244.514 69.9758 244.406 70.47C244.306 70.9569 244.256 71.4547 244.256 71.9631V72.4143C244.256 72.9228 244.306 73.4241 244.406 73.9182C244.507 74.4124 244.675 74.8599 244.911 75.261C245.155 75.662 245.48 75.9843 245.889 76.2278C246.304 76.4641 246.82 76.5823 247.436 76.5823ZM262.066 66.3772V68.0208H256.448V66.3772H262.066ZM263.817 66.3772V78.0002H261.83V66.3772H263.817ZM255.965 66.3772H257.963L257.662 71.9846C257.612 72.8512 257.53 73.6174 257.415 74.2834C257.308 74.9423 257.157 75.5081 256.964 75.9807C256.778 76.4534 256.541 76.8401 256.255 77.1409C255.976 77.4345 255.639 77.6529 255.245 77.7961C254.851 77.9322 254.396 78.0002 253.881 78.0002H253.258V76.2493L253.688 76.217C253.995 76.1956 254.257 76.1239 254.472 76.0022C254.694 75.8805 254.88 75.7014 255.03 75.4651C255.181 75.2216 255.302 74.9101 255.396 74.5305C255.496 74.151 255.571 73.6998 255.621 73.177C255.678 72.6542 255.721 72.0455 255.75 71.3508L255.965 66.3772ZM266.492 72.3176V72.0706C266.492 71.2327 266.614 70.4556 266.857 69.7395C267.101 69.0162 267.452 68.3896 267.91 67.8596C268.368 67.3225 268.924 66.9071 269.575 66.6135C270.227 66.3127 270.957 66.1624 271.767 66.1624C272.583 66.1624 273.317 66.3127 273.969 66.6135C274.628 66.9071 275.186 67.3225 275.645 67.8596C276.11 68.3896 276.465 69.0162 276.708 69.7395C276.951 70.4556 277.073 71.2327 277.073 72.0706V72.3176C277.073 73.1555 276.951 73.9325 276.708 74.6487C276.465 75.3648 276.11 75.9915 275.645 76.5286C275.186 77.0585 274.631 77.4739 273.979 77.7747C273.335 78.0683 272.604 78.2151 271.788 78.2151C270.972 78.2151 270.238 78.0683 269.586 77.7747C268.934 77.4739 268.376 77.0585 267.91 76.5286C267.452 75.9915 267.101 75.3648 266.857 74.6487C266.614 73.9325 266.492 73.1555 266.492 72.3176ZM268.479 72.0706V72.3176C268.479 72.8977 268.548 73.4456 268.684 73.9612C268.82 74.4696 269.024 74.9208 269.296 75.3147C269.575 75.7086 269.923 76.0201 270.338 76.2493C270.753 76.4713 271.237 76.5823 271.788 76.5823C272.332 76.5823 272.809 76.4713 273.217 76.2493C273.632 76.0201 273.976 75.7086 274.248 75.3147C274.52 74.9208 274.724 74.4696 274.86 73.9612C275.004 73.4456 275.075 72.8977 275.075 72.3176V72.0706C275.075 71.4976 275.004 70.9569 274.86 70.4485C274.724 69.9329 274.517 69.4781 274.237 69.0842C273.965 68.6832 273.621 68.3681 273.206 68.1389C272.798 67.9097 272.318 67.7952 271.767 67.7952C271.222 67.7952 270.743 67.9097 270.327 68.1389C269.919 68.3681 269.575 68.6832 269.296 69.0842C269.024 69.4781 268.82 69.9329 268.684 70.4485C268.548 70.9569 268.479 71.4976 268.479 72.0706ZM285.022 72.887H281.209L281.188 71.2971H284.303C284.919 71.2971 285.431 71.2362 285.839 71.1145C286.254 70.9928 286.566 70.8101 286.773 70.5667C286.981 70.3232 287.085 70.0224 287.085 69.6643C287.085 69.385 287.024 69.1415 286.902 68.9338C286.788 68.719 286.612 68.5435 286.376 68.4075C286.14 68.2642 285.846 68.1604 285.495 68.0959C285.151 68.0243 284.747 67.9885 284.281 67.9885H281.735V78.0002H279.748V66.3772H284.281C285.019 66.3772 285.681 66.4417 286.269 66.5706C286.863 66.6995 287.368 66.8964 287.783 67.1614C288.206 67.4192 288.528 67.7486 288.75 68.1497C288.972 68.5507 289.083 69.0234 289.083 69.5676C289.083 69.9185 289.011 70.2515 288.868 70.5667C288.725 70.8818 288.514 71.1611 288.234 71.4045C287.955 71.648 287.611 71.8486 287.203 72.0061C286.795 72.1565 286.326 72.2532 285.796 72.2961L285.022 72.887ZM285.022 78.0002H280.489L281.478 76.3889H285.022C285.574 76.3889 286.032 76.3209 286.397 76.1848C286.763 76.0416 287.035 75.8411 287.214 75.5833C287.4 75.3183 287.493 75.0032 287.493 74.6379C287.493 74.2727 287.4 73.9612 287.214 73.7034C287.035 73.4384 286.763 73.2379 286.397 73.1018C286.032 72.9586 285.574 72.887 285.022 72.887H282.004L282.025 71.2971H285.796L286.516 71.8987C287.153 71.9488 287.694 72.1064 288.138 72.3713C288.582 72.6363 288.918 72.9729 289.147 73.3811C289.377 73.7821 289.491 74.219 289.491 74.6917C289.491 75.2359 289.387 75.7157 289.18 76.1311C288.979 76.5465 288.686 76.8938 288.299 77.1731C287.912 77.4452 287.443 77.6529 286.892 77.7961C286.34 77.9322 285.717 78.0002 285.022 78.0002ZM294.304 74.8528L299.664 66.3772H301.662V78.0002H299.664V69.5247L294.304 78.0002H292.327V66.3772H294.304V74.8528ZM307.001 74.8528L312.361 66.3772H314.359V78.0002H312.361V69.5247L307.001 78.0002H305.024V66.3772H307.001V74.8528ZM311.276 62.1663H312.888C312.888 62.7249 312.759 63.2226 312.501 63.6594C312.243 64.0891 311.874 64.4257 311.395 64.6692C310.915 64.9127 310.345 65.0344 309.687 65.0344C308.691 65.0344 307.903 64.7694 307.323 64.2395C306.75 63.7024 306.464 63.0113 306.464 62.1663H308.075C308.075 62.5888 308.197 62.9612 308.44 63.2834C308.684 63.6057 309.099 63.7668 309.687 63.7668C310.259 63.7668 310.668 63.6057 310.911 63.2834C311.155 62.9612 311.276 62.5888 311.276 62.1663ZM324.994 68.6116V82.469H322.996V66.3772H324.822L324.994 68.6116ZM332.825 72.092V72.3176C332.825 73.1627 332.725 73.9469 332.524 74.6702C332.324 75.3863 332.03 76.0094 331.644 76.5393C331.264 77.0693 330.795 77.481 330.236 77.7747C329.678 78.0683 329.037 78.2151 328.313 78.2151C327.576 78.2151 326.924 78.0933 326.358 77.8499C325.793 77.6064 325.313 77.2519 324.919 76.7864C324.525 76.3209 324.21 75.7623 323.974 75.1106C323.744 74.4589 323.587 73.7249 323.501 72.9084V71.7053C323.587 70.8459 323.748 70.0761 323.984 69.3958C324.221 68.7154 324.532 68.1353 324.919 67.6555C325.313 67.1685 325.789 66.7997 326.348 66.5491C326.906 66.2913 327.551 66.1624 328.281 66.1624C329.012 66.1624 329.66 66.3056 330.226 66.592C330.791 66.8713 331.268 67.2724 331.654 67.7952C332.041 68.318 332.331 68.9446 332.524 69.675C332.725 70.3984 332.825 71.204 332.825 72.092ZM330.827 72.3176V72.092C330.827 71.512 330.766 70.9677 330.645 70.4592C330.523 69.9436 330.333 69.4924 330.075 69.1057C329.825 68.7118 329.502 68.4039 329.108 68.1819C328.715 67.9527 328.245 67.8381 327.701 67.8381C327.2 67.8381 326.763 67.9241 326.391 68.0959C326.025 68.2678 325.714 68.5006 325.456 68.7942C325.198 69.0806 324.987 69.4101 324.822 69.7825C324.665 70.1477 324.547 70.5273 324.468 70.9211V73.7034C324.611 74.2047 324.812 74.6773 325.069 75.1213C325.327 75.5582 325.671 75.9127 326.101 76.1848C326.53 76.4498 327.071 76.5823 327.723 76.5823C328.26 76.5823 328.722 76.4713 329.108 76.2493C329.502 76.0201 329.825 75.7086 330.075 75.3147C330.333 74.9208 330.523 74.4696 330.645 73.9612C330.766 73.4456 330.827 72.8977 330.827 72.3176ZM342.214 76.0129V70.0295C342.214 69.5712 342.121 69.1737 341.935 68.8372C341.756 68.4934 341.483 68.2284 341.118 68.0422C340.753 67.856 340.302 67.7629 339.765 67.7629C339.263 67.7629 338.823 67.8489 338.443 68.0208C338.071 68.1926 337.777 68.4182 337.562 68.6975C337.355 68.9768 337.251 69.2776 337.251 69.5999H335.264C335.264 69.1845 335.371 68.7727 335.586 68.3645C335.801 67.9563 336.109 67.5875 336.51 67.2581C336.918 66.9215 337.405 66.6565 337.971 66.4631C338.544 66.2626 339.181 66.1624 339.883 66.1624C340.728 66.1624 341.473 66.3056 342.117 66.592C342.769 66.8785 343.277 67.3118 343.643 67.8918C344.015 68.4648 344.201 69.1845 344.201 70.051V75.4651C344.201 75.8518 344.233 76.2636 344.298 76.7004C344.369 77.1373 344.473 77.5133 344.609 77.8284V78.0002H342.536C342.436 77.7711 342.357 77.4667 342.3 77.0872C342.243 76.7004 342.214 76.3424 342.214 76.0129ZM342.558 70.9534L342.579 72.3499H340.57C340.005 72.3499 339.5 72.3964 339.056 72.4895C338.612 72.5754 338.239 72.7079 337.938 72.887C337.638 73.066 337.409 73.2916 337.251 73.5637C337.093 73.8287 337.015 74.1402 337.015 74.4983C337.015 74.8635 337.097 75.1965 337.262 75.4973C337.426 75.7981 337.674 76.038 338.003 76.217C338.34 76.3889 338.751 76.4749 339.238 76.4749C339.847 76.4749 340.384 76.3459 340.85 76.0881C341.315 75.8303 341.684 75.5152 341.956 75.1428C342.235 74.7704 342.386 74.4088 342.407 74.0579L343.256 75.0139C343.206 75.3147 343.07 75.6477 342.848 76.0129C342.626 76.3782 342.328 76.7291 341.956 77.0657C341.591 77.3951 341.154 77.6708 340.646 77.8928C340.144 78.1077 339.578 78.2151 338.948 78.2151C338.16 78.2151 337.469 78.0611 336.875 77.7532C336.288 77.4452 335.829 77.0334 335.5 76.5178C335.178 75.995 335.017 75.4114 335.017 74.7668C335.017 74.1438 335.138 73.5959 335.382 73.1233C335.625 72.6435 335.976 72.246 336.435 71.9309C336.893 71.6086 337.444 71.3652 338.089 71.2004C338.733 71.0357 339.453 70.9534 340.248 70.9534H342.558ZM354.782 61.3176H356.415C356.415 62.0194 356.308 62.578 356.093 62.9934C355.878 63.4016 355.584 63.7167 355.212 63.9387C354.847 64.1607 354.431 64.329 353.966 64.4436C353.507 64.5582 353.031 64.6692 352.537 64.7766C351.921 64.9055 351.348 65.1096 350.818 65.3889C350.296 65.6611 349.844 66.0478 349.465 66.5491C349.092 67.0504 348.817 67.7021 348.638 68.5042C348.466 69.3062 348.419 70.2981 348.498 71.4797V72.468H346.865V71.4797C346.865 70.1549 346.991 68.9983 347.241 68.01C347.499 67.0217 347.861 66.1874 348.326 65.5071C348.792 64.8267 349.343 64.2861 349.98 63.885C350.625 63.484 351.334 63.2083 352.107 63.0579C352.666 62.9504 353.146 62.8359 353.547 62.7141C353.948 62.5852 354.252 62.4133 354.46 62.1985C354.675 61.9836 354.782 61.69 354.782 61.3176ZM352.43 67.0432C353.189 67.0432 353.866 67.1757 354.46 67.4407C355.054 67.7056 355.559 68.0745 355.975 68.5471C356.39 69.0198 356.705 69.5784 356.92 70.2229C357.142 70.8603 357.253 71.5549 357.253 72.3069V72.5432C357.253 73.3525 357.135 74.1044 356.898 74.7991C356.669 75.4866 356.329 76.0881 355.878 76.6038C355.434 77.1122 354.89 77.5097 354.245 77.7961C353.608 78.0826 352.881 78.2258 352.064 78.2258C351.248 78.2258 350.518 78.0826 349.873 77.7961C349.236 77.5097 348.691 77.1122 348.24 76.6038C347.789 76.0881 347.445 75.4866 347.209 74.7991C346.98 74.1044 346.865 73.3525 346.865 72.5432V72.3069C346.865 72.1278 346.897 71.9524 346.962 71.7805C347.026 71.6086 347.105 71.4332 347.198 71.2542C347.299 71.0751 347.388 70.8853 347.467 70.6848C347.732 70.0403 348.093 69.4423 348.552 68.8909C349.017 68.3394 349.572 67.8954 350.217 67.5588C350.868 67.2151 351.606 67.0432 352.43 67.0432ZM352.043 68.6653C351.312 68.6653 350.711 68.8336 350.238 69.1702C349.773 69.5068 349.425 69.9543 349.196 70.5129C348.967 71.0644 348.853 71.6624 348.853 72.3069V72.5432C348.853 73.0875 348.917 73.6031 349.046 74.0901C349.175 74.5771 349.368 75.0103 349.626 75.3899C349.891 75.7623 350.224 76.0559 350.625 76.2708C351.033 76.4856 351.513 76.593 352.064 76.593C352.616 76.593 353.092 76.4856 353.493 76.2708C353.894 76.0559 354.224 75.7623 354.481 75.3899C354.739 75.0103 354.933 74.5771 355.062 74.0901C355.19 73.6031 355.255 73.0875 355.255 72.5432V72.3069C355.255 71.8199 355.19 71.358 355.062 70.9211C354.933 70.4843 354.736 70.0976 354.471 69.761C354.213 69.4244 353.88 69.1594 353.472 68.9661C353.071 68.7655 352.594 68.6653 352.043 68.6653ZM358.982 72.3176V72.0706C358.982 71.2327 359.104 70.4556 359.348 69.7395C359.591 69.0162 359.942 68.3896 360.4 67.8596C360.859 67.3225 361.414 66.9071 362.065 66.6135C362.717 66.3127 363.448 66.1624 364.257 66.1624C365.073 66.1624 365.807 66.3127 366.459 66.6135C367.118 66.9071 367.676 67.3225 368.135 67.8596C368.6 68.3896 368.955 69.0162 369.198 69.7395C369.442 70.4556 369.563 71.2327 369.563 72.0706V72.3176C369.563 73.1555 369.442 73.9325 369.198 74.6487C368.955 75.3648 368.6 75.9915 368.135 76.5286C367.676 77.0585 367.121 77.4739 366.47 77.7747C365.825 78.0683 365.095 78.2151 364.278 78.2151C363.462 78.2151 362.728 78.0683 362.076 77.7747C361.424 77.4739 360.866 77.0585 360.4 76.5286C359.942 75.9915 359.591 75.3648 359.348 74.6487C359.104 73.9325 358.982 73.1555 358.982 72.3176ZM360.97 72.0706V72.3176C360.97 72.8977 361.038 73.4456 361.174 73.9612C361.31 74.4696 361.514 74.9208 361.786 75.3147C362.065 75.7086 362.413 76.0201 362.828 76.2493C363.243 76.4713 363.727 76.5823 364.278 76.5823C364.823 76.5823 365.299 76.4713 365.707 76.2493C366.122 76.0201 366.466 75.7086 366.738 75.3147C367.01 74.9208 367.215 74.4696 367.351 73.9612C367.494 73.4456 367.565 72.8977 367.565 72.3176V72.0706C367.565 71.4976 367.494 70.9569 367.351 70.4485C367.215 69.9329 367.007 69.4781 366.728 69.0842C366.455 68.6832 366.112 68.3681 365.696 68.1389C365.288 67.9097 364.808 67.7952 364.257 67.7952C363.713 67.7952 363.233 67.9097 362.817 68.1389C362.409 68.3681 362.065 68.6832 361.786 69.0842C361.514 69.4781 361.31 69.9329 361.174 70.4485C361.038 70.9569 360.97 71.4976 360.97 72.0706ZM376.557 66.3772V78.0002H374.559V66.3772H376.557ZM380.456 66.3772V67.9885H370.734V66.3772H380.456ZM384.044 70.3733H387.535C388.473 70.3733 389.265 70.538 389.909 70.8674C390.554 71.1897 391.041 71.6373 391.37 72.2102C391.707 72.776 391.875 73.4205 391.875 74.1438C391.875 74.6809 391.782 75.1858 391.596 75.6584C391.41 76.1239 391.13 76.5321 390.758 76.8831C390.393 77.234 389.938 77.5097 389.394 77.7102C388.856 77.9036 388.237 78.0002 387.535 78.0002H382.594V66.3772H384.581V76.3674H387.535C388.108 76.3674 388.566 76.2636 388.91 76.0559C389.254 75.8482 389.501 75.5797 389.651 75.2502C389.802 74.9208 389.877 74.5771 389.877 74.219C389.877 73.8681 389.802 73.5243 389.651 73.1877C389.501 72.8512 389.254 72.5719 388.91 72.3499C388.566 72.1207 388.108 72.0061 387.535 72.0061H384.044V70.3733ZM396.011 66.3772V78.0002H394.023V66.3772H396.011Z" fill="black"/>
<defs>
<filter id="filter0_d_822_2140" x="0.0517578" y="5.08643" width="106.19" height="106.163" filterUnits="userSpaceOnUse" color-interpolation-filters="sRGB">
<feFlood flood-opacity="0" result="BackgroundImageFix"/>
<feColorMatrix in="SourceAlpha" type="matrix" values="0 0 0 0 0 0 0 0 0 0 0 0 0 0 0 0 0 0 127 0" result="hardAlpha"/>
<feOffset/>
<feGaussianBlur stdDeviation="12"/>
<feComposite in2="hardAlpha" operator="out"/>
<feColorMatrix type="matrix" values="0 0 0 0 0.579167 0 0 0 0 0.579167 0 0 0 0 0.579167 0 0 0 0.3 0"/>
<feBlend mode="normal" in2="BackgroundImageFix" result="effect1_dropShadow_822_2140"/>
<feBlend mode="normal" in="SourceGraphic" in2="effect1_dropShadow_822_2140" result="shape"/>
</filter>
</defs>
</svg>
