<svg width="671" height="125" viewBox="0 0 671 125" fill="none" xmlns="http://www.w3.org/2000/svg">
<path d="M495 65L613 65" stroke="#00A3FF" stroke-miterlimit="10" stroke-linecap="round"/>
<g filter="url(#filter0_d_802_708)">
<path d="M637.721 85.7315C649.083 74.3745 649.083 55.961 637.721 44.6039C626.358 33.2468 607.936 33.2468 596.574 44.6039C585.211 55.961 585.211 74.3745 596.574 85.7315C607.936 97.0886 626.358 97.0886 637.721 85.7315Z" fill="white"/>
</g>
<path d="M626.241 65.1647C626.246 66.8873 625.741 68.573 624.789 70.009C623.837 71.445 622.481 72.5671 620.892 73.2338C619.302 73.9004 617.551 74.0817 615.859 73.7549C614.167 73.428 612.61 72.6076 611.383 71.3971C610.157 70.1866 609.317 68.6402 608.969 66.9531C608.621 65.2659 608.78 63.5135 609.427 61.9169C610.075 60.3202 611.18 58.9509 612.605 57.9816C614.03 57.0122 615.71 56.4863 617.433 56.4702C618.585 56.4557 619.727 56.67 620.795 57.1004C621.863 57.5309 622.835 58.1691 623.655 58.9779C624.474 59.7867 625.124 60.75 625.568 61.8121C626.012 62.8741 626.241 64.0137 626.241 65.1647Z" fill="#00A3FF"/>
<path d="M617.542 68.5714C619.425 68.5714 620.951 67.0461 620.951 65.1645C620.951 63.2829 619.425 61.7576 617.542 61.7576C615.66 61.7576 614.134 63.2829 614.134 65.1645C614.134 67.0461 615.66 68.5714 617.542 68.5714Z" fill="white"/>
<path d="M497.452 65.1645C497.457 66.8906 496.95 68.5796 495.994 70.0174C495.039 71.4553 493.678 72.5774 492.084 73.2417C490.49 73.906 488.735 74.0827 487.04 73.7492C485.346 73.4158 483.789 72.5873 482.565 71.3686C481.342 70.1499 480.509 68.5959 480.17 66.9033C479.831 65.2107 480.002 63.4557 480.662 61.8604C481.321 60.2651 482.44 58.9013 483.875 57.9418C485.311 56.9822 486.999 56.47 488.726 56.47C491.035 56.47 493.251 57.3851 494.886 59.0149C496.522 60.6446 497.445 62.856 497.452 65.1645Z" fill="#00A3FF"/>
<path d="M488.753 68.5714C490.636 68.5714 492.162 67.0461 492.162 65.1645C492.162 63.2829 490.636 61.7576 488.753 61.7576C486.871 61.7576 485.345 63.2829 485.345 65.1645C485.345 67.0461 486.871 68.5714 488.753 68.5714Z" fill="white"/>
<path d="M93.3041 93.2599C110.481 76.0913 110.481 48.2554 93.304 31.0867C76.1272 13.9181 48.2782 13.918 31.1014 31.0867C13.9246 48.2553 13.9245 76.0913 31.1014 93.26C48.2782 110.429 76.1273 110.429 93.3041 93.2599Z" fill="#00A3FF"/>
<path d="M63.5938 57.5796C66.2891 57.5796 68.5286 58.4715 70.3125 60.2554C72.1094 62.0392 73.0078 64.2788 73.0078 66.9741C73.0078 69.7996 72.0247 72.1434 70.0586 74.0054C68.1055 75.8543 65.5534 76.7788 62.4023 76.7788C61.0742 76.7788 59.7982 76.6226 58.5742 76.3101C57.3633 76.0106 56.3737 75.646 55.6055 75.2163C54.8503 74.7866 54.1862 74.3634 53.6133 73.9468C53.0404 73.5171 52.6367 73.1395 52.4023 72.814L51.9922 72.3647L55.6055 68.5757C55.7878 68.784 56.0417 69.0444 56.3672 69.3569C56.7057 69.6564 57.4349 70.0666 58.5547 70.5874C59.6745 71.1082 60.8203 71.3687 61.9922 71.3687C63.4896 71.3687 64.6615 70.965 65.5078 70.1577C66.3672 69.3374 66.7969 68.2762 66.7969 66.9741C66.7969 65.672 66.3411 64.5783 65.4297 63.6929C64.5312 62.8075 63.3854 62.3647 61.9922 62.3647C61.0286 62.3647 60.1693 62.547 59.4141 62.9116C58.6589 63.2762 58.1315 63.6408 57.832 64.0054L57.4023 64.5718L53.2031 64.1812L54.1992 48.1655H71.1914V53.3804H59.6094L59.1992 58.5757C60.2669 57.9116 61.7318 57.5796 63.5938 57.5796Z" fill="white"/>
<path d="M147.297 55.1104V56.4136H140.756V55.1104H147.297ZM141.005 49.9141V62H139.403V49.9141H141.005ZM148.691 49.9141V62H147.098V49.9141H148.691ZM156.602 60.4644V55.8408C156.602 55.4867 156.53 55.1795 156.386 54.9194C156.248 54.6538 156.038 54.4491 155.755 54.3052C155.473 54.1613 155.125 54.0894 154.709 54.0894C154.322 54.0894 153.982 54.1558 153.688 54.2886C153.401 54.4214 153.174 54.5957 153.008 54.8115C152.847 55.0273 152.767 55.2598 152.767 55.5088H151.231C151.231 55.1878 151.314 54.8696 151.48 54.5542C151.646 54.2388 151.884 53.9538 152.194 53.6992C152.51 53.4391 152.886 53.2344 153.323 53.085C153.766 52.93 154.258 52.8525 154.801 52.8525C155.454 52.8525 156.029 52.9632 156.527 53.1846C157.031 53.4059 157.424 53.7407 157.706 54.189C157.994 54.6317 158.138 55.1878 158.138 55.8574V60.041C158.138 60.3398 158.163 60.658 158.212 60.9956C158.268 61.3332 158.348 61.6237 158.453 61.8672V62H156.851C156.774 61.8229 156.713 61.5877 156.668 61.2944C156.624 60.9956 156.602 60.7189 156.602 60.4644ZM156.868 56.5547L156.884 57.6338H155.332C154.895 57.6338 154.505 57.6698 154.162 57.7417C153.819 57.8081 153.531 57.9105 153.298 58.0488C153.066 58.1872 152.889 58.3615 152.767 58.5718C152.645 58.7765 152.584 59.0173 152.584 59.2939C152.584 59.5762 152.648 59.8335 152.775 60.0659C152.903 60.2983 153.094 60.4837 153.348 60.6221C153.608 60.7549 153.926 60.8213 154.303 60.8213C154.773 60.8213 155.188 60.7217 155.548 60.5225C155.908 60.3232 156.193 60.0798 156.403 59.792C156.619 59.5042 156.735 59.2248 156.751 58.9536L157.407 59.6924C157.368 59.9248 157.263 60.1821 157.092 60.4644C156.92 60.7466 156.691 61.0177 156.403 61.2778C156.121 61.5324 155.783 61.7454 155.39 61.917C155.003 62.083 154.566 62.166 154.079 62.166C153.47 62.166 152.936 62.047 152.477 61.8091C152.023 61.5711 151.669 61.2529 151.414 60.8545C151.165 60.4505 151.041 59.9995 151.041 59.5015C151.041 59.02 151.135 58.5967 151.323 58.2314C151.511 57.8607 151.782 57.5535 152.136 57.3101C152.49 57.061 152.917 56.8729 153.415 56.7456C153.913 56.6183 154.469 56.5547 155.083 56.5547H156.868ZM166.538 53.0186V54.2886H161.998V53.0186H166.538ZM162.222 53.0186V62H160.686V53.0186H162.222ZM167.899 53.0186V62H166.355V53.0186H167.899ZM172.025 59.5679L176.167 53.0186H177.711V62H176.167V55.4507L172.025 62H170.498V53.0186H172.025V59.5679ZM183.771 60.9043C184.136 60.9043 184.473 60.8296 184.783 60.6802C185.093 60.5308 185.348 60.326 185.547 60.0659C185.746 59.8003 185.86 59.4987 185.887 59.1611H187.348C187.32 59.6924 187.141 60.1877 186.809 60.647C186.482 61.1007 186.053 61.4688 185.522 61.751C184.991 62.0277 184.407 62.166 183.771 62.166C183.095 62.166 182.506 62.047 182.002 61.8091C181.504 61.5711 181.089 61.2446 180.757 60.8296C180.431 60.4146 180.185 59.9386 180.019 59.4019C179.858 58.8595 179.778 58.2868 179.778 57.6836V57.335C179.778 56.7318 179.858 56.1618 180.019 55.625C180.185 55.0827 180.431 54.604 180.757 54.189C181.089 53.7739 181.504 53.4474 182.002 53.2095C182.506 52.9715 183.095 52.8525 183.771 52.8525C184.473 52.8525 185.088 52.9964 185.613 53.2842C186.139 53.5664 186.551 53.9538 186.85 54.4463C187.154 54.9333 187.32 55.4867 187.348 56.1064H185.887C185.86 55.7357 185.754 55.4009 185.572 55.1021C185.395 54.8032 185.151 54.5653 184.841 54.3882C184.537 54.2056 184.18 54.1143 183.771 54.1143C183.3 54.1143 182.904 54.2083 182.583 54.3965C182.268 54.5791 182.016 54.8281 181.828 55.1436C181.646 55.4535 181.513 55.7993 181.43 56.1812C181.352 56.5575 181.313 56.9421 181.313 57.335V57.6836C181.313 58.0765 181.352 58.4639 181.43 58.8457C181.507 59.2275 181.637 59.5734 181.82 59.8833C182.008 60.1932 182.26 60.4422 182.575 60.6304C182.896 60.813 183.295 60.9043 183.771 60.9043ZM194.371 60.4644V55.8408C194.371 55.4867 194.299 55.1795 194.155 54.9194C194.016 54.6538 193.806 54.4491 193.524 54.3052C193.242 54.1613 192.893 54.0894 192.478 54.0894C192.091 54.0894 191.75 54.1558 191.457 54.2886C191.169 54.4214 190.942 54.5957 190.776 54.8115C190.616 55.0273 190.536 55.2598 190.536 55.5088H189C189 55.1878 189.083 54.8696 189.249 54.5542C189.415 54.2388 189.653 53.9538 189.963 53.6992C190.278 53.4391 190.655 53.2344 191.092 53.085C191.535 52.93 192.027 52.8525 192.569 52.8525C193.222 52.8525 193.798 52.9632 194.296 53.1846C194.799 53.4059 195.192 53.7407 195.475 54.189C195.762 54.6317 195.906 55.1878 195.906 55.8574V60.041C195.906 60.3398 195.931 60.658 195.981 60.9956C196.036 61.3332 196.117 61.6237 196.222 61.8672V62H194.62C194.542 61.8229 194.481 61.5877 194.437 61.2944C194.393 60.9956 194.371 60.7189 194.371 60.4644ZM194.636 56.5547L194.653 57.6338H193.101C192.663 57.6338 192.273 57.6698 191.93 57.7417C191.587 57.8081 191.299 57.9105 191.067 58.0488C190.834 58.1872 190.657 58.3615 190.536 58.5718C190.414 58.7765 190.353 59.0173 190.353 59.2939C190.353 59.5762 190.417 59.8335 190.544 60.0659C190.671 60.2983 190.862 60.4837 191.117 60.6221C191.377 60.7549 191.695 60.8213 192.071 60.8213C192.542 60.8213 192.957 60.7217 193.316 60.5225C193.676 60.3232 193.961 60.0798 194.171 59.792C194.387 59.5042 194.503 59.2248 194.52 58.9536L195.176 59.6924C195.137 59.9248 195.032 60.1821 194.86 60.4644C194.689 60.7466 194.459 61.0177 194.171 61.2778C193.889 61.5324 193.552 61.7454 193.159 61.917C192.771 62.083 192.334 62.166 191.847 62.166C191.238 62.166 190.704 62.047 190.245 61.8091C189.791 61.5711 189.437 61.2529 189.183 60.8545C188.934 60.4505 188.809 59.9995 188.809 59.5015C188.809 59.02 188.903 58.5967 189.091 58.2314C189.279 57.8607 189.551 57.5535 189.905 57.3101C190.259 57.061 190.685 56.8729 191.183 56.7456C191.681 56.6183 192.237 56.5547 192.852 56.5547H194.636ZM204.415 56.9116V58.1567H199.667V56.9116H204.415ZM199.99 53.0186V62H198.455V53.0186H199.99ZM205.66 53.0186V62H204.116V53.0186H205.66ZM209.793 59.5679L213.936 53.0186H215.479V62H213.936V55.4507L209.793 62H208.266V53.0186H209.793V59.5679ZM221.672 62.166C221.047 62.166 220.479 62.0609 219.97 61.8506C219.467 61.6348 219.032 61.3332 218.667 60.9458C218.307 60.5584 218.031 60.0991 217.837 59.5679C217.643 59.0366 217.546 58.4556 217.546 57.8247V57.4761C217.546 56.7456 217.654 56.0954 217.87 55.5254C218.086 54.9499 218.379 54.4629 218.75 54.0645C219.121 53.666 219.541 53.3644 220.012 53.1597C220.482 52.9549 220.969 52.8525 221.473 52.8525C222.115 52.8525 222.668 52.9632 223.133 53.1846C223.603 53.4059 223.988 53.7158 224.287 54.1143C224.585 54.5072 224.807 54.972 224.951 55.5088C225.095 56.04 225.167 56.6211 225.167 57.252V57.9409H218.459V56.6875H223.631V56.5713C223.609 56.1729 223.526 55.7855 223.382 55.4092C223.243 55.0329 223.022 54.723 222.718 54.4795C222.413 54.236 221.998 54.1143 221.473 54.1143C221.124 54.1143 220.803 54.189 220.51 54.3384C220.216 54.4823 219.965 54.6981 219.754 54.9858C219.544 55.2736 219.381 55.625 219.265 56.04C219.148 56.4551 219.09 56.9338 219.09 57.4761V57.8247C219.09 58.2508 219.148 58.652 219.265 59.0283C219.386 59.3991 219.561 59.7256 219.788 60.0078C220.02 60.29 220.299 60.5114 220.626 60.6719C220.958 60.8324 221.334 60.9126 221.755 60.9126C222.297 60.9126 222.757 60.8019 223.133 60.5806C223.509 60.3592 223.838 60.0632 224.121 59.6924L225.05 60.4312C224.857 60.7244 224.61 61.0039 224.312 61.2695C224.013 61.5352 223.645 61.751 223.208 61.917C222.776 62.083 222.264 62.166 221.672 62.166ZM234.771 60.9043C235.136 60.9043 235.473 60.8296 235.783 60.6802C236.093 60.5308 236.348 60.326 236.547 60.0659C236.746 59.8003 236.86 59.4987 236.887 59.1611H238.348C238.32 59.6924 238.141 60.1877 237.809 60.647C237.482 61.1007 237.053 61.4688 236.522 61.751C235.991 62.0277 235.407 62.166 234.771 62.166C234.095 62.166 233.506 62.047 233.002 61.8091C232.504 61.5711 232.089 61.2446 231.757 60.8296C231.431 60.4146 231.185 59.9386 231.019 59.4019C230.858 58.8595 230.778 58.2868 230.778 57.6836V57.335C230.778 56.7318 230.858 56.1618 231.019 55.625C231.185 55.0827 231.431 54.604 231.757 54.189C232.089 53.7739 232.504 53.4474 233.002 53.2095C233.506 52.9715 234.095 52.8525 234.771 52.8525C235.473 52.8525 236.088 52.9964 236.613 53.2842C237.139 53.5664 237.551 53.9538 237.85 54.4463C238.154 54.9333 238.32 55.4867 238.348 56.1064H236.887C236.86 55.7357 236.754 55.4009 236.572 55.1021C236.395 54.8032 236.151 54.5653 235.841 54.3882C235.537 54.2056 235.18 54.1143 234.771 54.1143C234.3 54.1143 233.904 54.2083 233.583 54.3965C233.268 54.5791 233.016 54.8281 232.828 55.1436C232.646 55.4535 232.513 55.7993 232.43 56.1812C232.352 56.5575 232.313 56.9421 232.313 57.335V57.6836C232.313 58.0765 232.352 58.4639 232.43 58.8457C232.507 59.2275 232.637 59.5734 232.82 59.8833C233.008 60.1932 233.26 60.4422 233.575 60.6304C233.896 60.813 234.295 60.9043 234.771 60.9043ZM243.735 53.0186V62H242.191V53.0186H243.735ZM246.749 53.0186V54.2637H239.236V53.0186H246.749ZM249.795 54.7451V65.4531H248.251V53.0186H249.662L249.795 54.7451ZM255.846 57.4346V57.6089C255.846 58.2619 255.769 58.8678 255.614 59.4268C255.459 59.9801 255.232 60.4616 254.933 60.8711C254.64 61.2806 254.277 61.5988 253.846 61.8257C253.414 62.0526 252.919 62.166 252.36 62.166C251.79 62.166 251.286 62.0719 250.849 61.8838C250.412 61.6956 250.041 61.4217 249.737 61.062C249.432 60.7023 249.189 60.2707 249.006 59.7671C248.829 59.2635 248.708 58.6963 248.641 58.0654V57.1357C248.708 56.4717 248.832 55.8768 249.015 55.3511C249.197 54.8254 249.438 54.3771 249.737 54.0063C250.041 53.63 250.409 53.3451 250.841 53.1514C251.272 52.9521 251.771 52.8525 252.335 52.8525C252.899 52.8525 253.4 52.9632 253.837 53.1846C254.275 53.4004 254.643 53.7103 254.941 54.1143C255.24 54.5182 255.464 55.0024 255.614 55.5669C255.769 56.1258 255.846 56.7484 255.846 57.4346ZM254.302 57.6089V57.4346C254.302 56.9863 254.255 56.5658 254.161 56.1729C254.067 55.7744 253.92 55.4258 253.721 55.127C253.528 54.8226 253.278 54.5846 252.974 54.4131C252.67 54.236 252.307 54.1475 251.887 54.1475C251.499 54.1475 251.162 54.2139 250.874 54.3467C250.592 54.4795 250.351 54.6593 250.152 54.8862C249.953 55.1076 249.789 55.3621 249.662 55.6499C249.54 55.9321 249.449 56.2254 249.388 56.5298V58.6797C249.499 59.0671 249.654 59.4323 249.853 59.7754C250.052 60.113 250.318 60.3869 250.65 60.5972C250.982 60.8019 251.4 60.9043 251.903 60.9043C252.318 60.9043 252.675 60.8185 252.974 60.647C253.278 60.4699 253.528 60.2292 253.721 59.9248C253.92 59.6204 254.067 59.2718 254.161 58.8789C254.255 58.4805 254.302 58.0571 254.302 57.6089ZM263.101 60.4644V55.8408C263.101 55.4867 263.029 55.1795 262.885 54.9194C262.747 54.6538 262.537 54.4491 262.254 54.3052C261.972 54.1613 261.624 54.0894 261.208 54.0894C260.821 54.0894 260.481 54.1558 260.188 54.2886C259.9 54.4214 259.673 54.5957 259.507 54.8115C259.346 55.0273 259.266 55.2598 259.266 55.5088H257.73C257.73 55.1878 257.813 54.8696 257.979 54.5542C258.146 54.2388 258.383 53.9538 258.693 53.6992C259.009 53.4391 259.385 53.2344 259.822 53.085C260.265 52.93 260.757 52.8525 261.3 52.8525C261.953 52.8525 262.528 52.9632 263.026 53.1846C263.53 53.4059 263.923 53.7407 264.205 54.189C264.493 54.6317 264.637 55.1878 264.637 55.8574V60.041C264.637 60.3398 264.662 60.658 264.711 60.9956C264.767 61.3332 264.847 61.6237 264.952 61.8672V62H263.35C263.273 61.8229 263.212 61.5877 263.167 61.2944C263.123 60.9956 263.101 60.7189 263.101 60.4644ZM263.367 56.5547L263.383 57.6338H261.831C261.394 57.6338 261.004 57.6698 260.661 57.7417C260.318 57.8081 260.03 57.9105 259.797 58.0488C259.565 58.1872 259.388 58.3615 259.266 58.5718C259.144 58.7765 259.083 59.0173 259.083 59.2939C259.083 59.5762 259.147 59.8335 259.274 60.0659C259.402 60.2983 259.593 60.4837 259.847 60.6221C260.107 60.7549 260.425 60.8213 260.802 60.8213C261.272 60.8213 261.687 60.7217 262.047 60.5225C262.407 60.3232 262.692 60.0798 262.902 59.792C263.118 59.5042 263.234 59.2248 263.25 58.9536L263.906 59.6924C263.868 59.9248 263.762 60.1821 263.591 60.4644C263.419 60.7466 263.19 61.0177 262.902 61.2778C262.62 61.5324 262.282 61.7454 261.889 61.917C261.502 62.083 261.065 62.166 260.578 62.166C259.969 62.166 259.435 62.047 258.976 61.8091C258.522 61.5711 258.168 61.2529 257.913 60.8545C257.664 60.4505 257.54 59.9995 257.54 59.5015C257.54 59.02 257.634 58.5967 257.822 58.2314C258.01 57.8607 258.281 57.5535 258.635 57.3101C258.989 57.061 259.416 56.8729 259.914 56.7456C260.412 56.6183 260.968 56.5547 261.582 56.5547H263.367ZM270.58 53.0186V62H269.036V53.0186H270.58ZM273.593 53.0186V54.2637H266.081V53.0186H273.593ZM278.167 62.166C277.542 62.166 276.974 62.0609 276.465 61.8506C275.962 61.6348 275.527 61.3332 275.162 60.9458C274.802 60.5584 274.526 60.0991 274.332 59.5679C274.138 59.0366 274.042 58.4556 274.042 57.8247V57.4761C274.042 56.7456 274.149 56.0954 274.365 55.5254C274.581 54.9499 274.874 54.4629 275.245 54.0645C275.616 53.666 276.036 53.3644 276.507 53.1597C276.977 52.9549 277.464 52.8525 277.968 52.8525C278.61 52.8525 279.163 52.9632 279.628 53.1846C280.098 53.4059 280.483 53.7158 280.782 54.1143C281.081 54.5072 281.302 54.972 281.446 55.5088C281.59 56.04 281.662 56.6211 281.662 57.252V57.9409H274.955V56.6875H280.126V56.5713C280.104 56.1729 280.021 55.7855 279.877 55.4092C279.739 55.0329 279.517 54.723 279.213 54.4795C278.909 54.236 278.493 54.1143 277.968 54.1143C277.619 54.1143 277.298 54.189 277.005 54.3384C276.712 54.4823 276.46 54.6981 276.25 54.9858C276.039 55.2736 275.876 55.625 275.76 56.04C275.644 56.4551 275.585 56.9338 275.585 57.4761V57.8247C275.585 58.2508 275.644 58.652 275.76 59.0283C275.882 59.3991 276.056 59.7256 276.283 60.0078C276.515 60.29 276.795 60.5114 277.121 60.6719C277.453 60.8324 277.829 60.9126 278.25 60.9126C278.792 60.9126 279.252 60.8019 279.628 60.5806C280.004 60.3592 280.333 60.0632 280.616 59.6924L281.545 60.4312C281.352 60.7244 281.105 61.0039 280.807 61.2695C280.508 61.5352 280.14 61.751 279.703 61.917C279.271 62.083 278.759 62.166 278.167 62.166ZM289.257 53.0186V54.2886H285.106V62H283.571V53.0186H289.257ZM292.253 59.5679L296.396 53.0186H297.939V62H296.396V55.4507L292.253 62H290.726V53.0186H292.253V59.5679ZM302.065 59.5679L306.207 53.0186H307.751V62H306.207V55.4507L302.065 62H300.538V53.0186H302.065V59.5679ZM316.093 59.5679L320.235 53.0186H321.779V62H320.235V55.4507L316.093 62H314.566V53.0186H316.093V59.5679ZM330.08 53.0186H331.616L331.483 56.3804C331.45 57.2326 331.353 57.9686 331.192 58.5884C331.032 59.2082 330.827 59.7367 330.578 60.1738C330.329 60.6055 330.05 60.9679 329.74 61.2612C329.435 61.5545 329.12 61.8008 328.793 62H328.03L328.071 60.7466L328.387 60.7383C328.569 60.5225 328.746 60.3011 328.918 60.0742C329.09 59.8418 329.247 59.5679 329.391 59.2524C329.535 58.9315 329.654 58.5413 329.748 58.082C329.848 57.6172 329.911 57.05 329.939 56.3804L330.08 53.0186ZM330.462 53.0186H335.866V62H334.33V54.438H330.462V53.0186ZM327.681 60.7383H337.02V64.6479H335.484V62H329.217V64.6479H327.673L327.681 60.7383ZM342.448 62.166C341.823 62.166 341.256 62.0609 340.747 61.8506C340.243 61.6348 339.809 61.3332 339.443 60.9458C339.084 60.5584 338.807 60.0991 338.613 59.5679C338.42 59.0366 338.323 58.4556 338.323 57.8247V57.4761C338.323 56.7456 338.431 56.0954 338.646 55.5254C338.862 54.9499 339.156 54.4629 339.526 54.0645C339.897 53.666 340.318 53.3644 340.788 53.1597C341.258 52.9549 341.745 52.8525 342.249 52.8525C342.891 52.8525 343.444 52.9632 343.909 53.1846C344.38 53.4059 344.764 53.7158 345.063 54.1143C345.362 54.5072 345.583 54.972 345.727 55.5088C345.871 56.04 345.943 56.6211 345.943 57.252V57.9409H339.236V56.6875H344.407V56.5713C344.385 56.1729 344.302 55.7855 344.158 55.4092C344.02 55.0329 343.799 54.723 343.494 54.4795C343.19 54.236 342.775 54.1143 342.249 54.1143C341.9 54.1143 341.579 54.189 341.286 54.3384C340.993 54.4823 340.741 54.6981 340.531 54.9858C340.32 55.2736 340.157 55.625 340.041 56.04C339.925 56.4551 339.867 56.9338 339.867 57.4761V57.8247C339.867 58.2508 339.925 58.652 340.041 59.0283C340.163 59.3991 340.337 59.7256 340.564 60.0078C340.796 60.29 341.076 60.5114 341.402 60.6719C341.734 60.8324 342.111 60.9126 342.531 60.9126C343.074 60.9126 343.533 60.8019 343.909 60.5806C344.285 60.3592 344.615 60.0632 344.897 59.6924L345.827 60.4312C345.633 60.7244 345.387 61.0039 345.088 61.2695C344.789 61.5352 344.421 61.751 343.984 61.917C343.552 62.083 343.04 62.166 342.448 62.166ZM349.404 53.0186V62H347.869V53.0186H349.404ZM355.298 53.0186L351.04 58.165H348.89L348.657 56.8203H350.417L353.43 53.0186H355.298ZM353.646 62L350.342 57.9326L351.33 56.8203L355.597 62H353.646ZM356.344 57.6089V57.418C356.344 56.7705 356.438 56.1701 356.626 55.6167C356.814 55.0578 357.085 54.5736 357.439 54.1641C357.794 53.749 358.222 53.4281 358.726 53.2012C359.23 52.9688 359.794 52.8525 360.419 52.8525C361.05 52.8525 361.618 52.9688 362.121 53.2012C362.63 53.4281 363.062 53.749 363.416 54.1641C363.776 54.5736 364.05 55.0578 364.238 55.6167C364.426 56.1701 364.52 56.7705 364.52 57.418V57.6089C364.52 58.2563 364.426 58.8568 364.238 59.4102C364.05 59.9635 363.776 60.4478 363.416 60.8628C363.062 61.2723 362.633 61.5933 362.129 61.8257C361.631 62.0526 361.067 62.166 360.436 62.166C359.805 62.166 359.238 62.0526 358.734 61.8257C358.231 61.5933 357.799 61.2723 357.439 60.8628C357.085 60.4478 356.814 59.9635 356.626 59.4102C356.438 58.8568 356.344 58.2563 356.344 57.6089ZM357.879 57.418V57.6089C357.879 58.0571 357.932 58.4805 358.037 58.8789C358.142 59.2718 358.3 59.6204 358.51 59.9248C358.726 60.2292 358.994 60.4699 359.315 60.647C359.636 60.8185 360.01 60.9043 360.436 60.9043C360.857 60.9043 361.225 60.8185 361.54 60.647C361.861 60.4699 362.127 60.2292 362.337 59.9248C362.547 59.6204 362.705 59.2718 362.81 58.8789C362.921 58.4805 362.976 58.0571 362.976 57.6089V57.418C362.976 56.9753 362.921 56.5575 362.81 56.1646C362.705 55.7661 362.544 55.4147 362.329 55.1104C362.118 54.8005 361.853 54.557 361.532 54.3799C361.216 54.2028 360.846 54.1143 360.419 54.1143C359.999 54.1143 359.628 54.2028 359.307 54.3799C358.992 54.557 358.726 54.8005 358.51 55.1104C358.3 55.4147 358.142 55.7661 358.037 56.1646C357.932 56.5575 357.879 56.9753 357.879 57.418ZM371.609 59.958L374.664 53.0186H376.141L372.14 62H371.078L367.093 53.0186H368.571L371.609 59.958ZM368.123 53.0186V62H366.587V53.0186H368.123ZM375.045 62V53.0186H376.589V62H375.045ZM385.048 53.0186V54.2886H380.507V53.0186H385.048ZM380.731 53.0186V62H379.196V53.0186H380.731ZM386.409 53.0186V62H384.865V53.0186H386.409ZM388.468 57.6089V57.418C388.468 56.7705 388.562 56.1701 388.75 55.6167C388.938 55.0578 389.209 54.5736 389.563 54.1641C389.918 53.749 390.347 53.4281 390.85 53.2012C391.354 52.9688 391.918 52.8525 392.543 52.8525C393.174 52.8525 393.742 52.9688 394.245 53.2012C394.754 53.4281 395.186 53.749 395.54 54.1641C395.9 54.5736 396.174 55.0578 396.362 55.6167C396.55 56.1701 396.644 56.7705 396.644 57.418V57.6089C396.644 58.2563 396.55 58.8568 396.362 59.4102C396.174 59.9635 395.9 60.4478 395.54 60.8628C395.186 61.2723 394.757 61.5933 394.253 61.8257C393.755 62.0526 393.191 62.166 392.56 62.166C391.929 62.166 391.362 62.0526 390.858 61.8257C390.355 61.5933 389.923 61.2723 389.563 60.8628C389.209 60.4478 388.938 59.9635 388.75 59.4102C388.562 58.8568 388.468 58.2563 388.468 57.6089ZM390.003 57.418V57.6089C390.003 58.0571 390.056 58.4805 390.161 58.8789C390.266 59.2718 390.424 59.6204 390.634 59.9248C390.85 60.2292 391.118 60.4699 391.439 60.647C391.76 60.8185 392.134 60.9043 392.56 60.9043C392.981 60.9043 393.349 60.8185 393.664 60.647C393.985 60.4699 394.251 60.2292 394.461 59.9248C394.671 59.6204 394.829 59.2718 394.934 58.8789C395.045 58.4805 395.1 58.0571 395.1 57.6089V57.418C395.1 56.9753 395.045 56.5575 394.934 56.1646C394.829 55.7661 394.668 55.4147 394.453 55.1104C394.242 54.8005 393.977 54.557 393.656 54.3799C393.34 54.2028 392.97 54.1143 392.543 54.1143C392.123 54.1143 391.752 54.2028 391.431 54.3799C391.116 54.557 390.85 54.8005 390.634 55.1104C390.424 55.4147 390.266 55.7661 390.161 56.1646C390.056 56.5575 390.003 56.9753 390.003 57.418ZM401.923 57.7085H400.271V56.7622H401.799C402.225 56.7622 402.562 56.7096 402.812 56.6045C403.061 56.4938 403.238 56.3416 403.343 56.1479C403.448 55.9543 403.5 55.7274 403.5 55.4673C403.5 55.2349 403.44 55.0163 403.318 54.8115C403.202 54.6012 403.014 54.4325 402.753 54.3052C402.493 54.1724 402.145 54.106 401.708 54.106C401.353 54.106 401.032 54.1696 400.745 54.2969C400.457 54.4186 400.227 54.5874 400.056 54.8032C399.89 55.0135 399.807 55.2515 399.807 55.5171H398.271C398.271 54.9692 398.426 54.4989 398.736 54.106C399.051 53.7075 399.469 53.4004 399.989 53.1846C400.515 52.9688 401.088 52.8608 401.708 52.8608C402.228 52.8608 402.693 52.9189 403.102 53.0352C403.517 53.1458 403.868 53.3118 404.156 53.5332C404.444 53.749 404.663 54.0202 404.812 54.3467C404.967 54.6676 405.044 55.0412 405.044 55.4673C405.044 55.7716 404.972 56.0594 404.829 56.3306C404.685 56.6017 404.477 56.8424 404.206 57.0527C403.935 57.2575 403.606 57.418 403.218 57.5342C402.836 57.6504 402.405 57.7085 401.923 57.7085ZM400.271 57.1274H401.923C402.46 57.1274 402.933 57.18 403.343 57.2852C403.752 57.3848 404.095 57.5342 404.372 57.7334C404.649 57.9326 404.856 58.1789 404.995 58.4722C405.139 58.7599 405.21 59.092 405.21 59.4683C405.21 59.8888 405.125 60.2679 404.953 60.6055C404.787 60.9375 404.549 61.2197 404.239 61.4521C403.929 61.6846 403.559 61.8617 403.127 61.9834C402.701 62.1051 402.228 62.166 401.708 62.166C401.126 62.166 400.562 62.0664 400.014 61.8672C399.466 61.668 399.015 61.3608 398.661 60.9458C398.307 60.5252 398.13 59.9912 398.13 59.3438H399.666C399.666 59.6149 399.751 59.8722 399.923 60.1157C400.094 60.3592 400.332 60.5557 400.637 60.7051C400.947 60.8545 401.304 60.9292 401.708 60.9292C402.139 60.9292 402.499 60.8628 402.787 60.73C403.074 60.5972 403.29 60.4201 403.434 60.1987C403.583 59.9774 403.658 59.7367 403.658 59.4766C403.658 59.139 403.592 58.8678 403.459 58.6631C403.326 58.4583 403.121 58.3089 402.845 58.2148C402.574 58.1152 402.225 58.0654 401.799 58.0654H400.271V57.1274ZM408.863 59.5679L413.005 53.0186H414.549V62H413.005V55.4507L408.863 62H407.335V53.0186H408.863V59.5679ZM417.147 62V53.0186H418.683V60.7383H422.816V53.0186H424.36V62H417.147ZM425.423 60.7383L425.273 64.6646H423.904V62H422.733V60.7383H425.423ZM428.751 59.5679L432.894 53.0186H434.438V62H432.894V55.4507L428.751 62H427.224V53.0186H428.751V59.5679ZM438.563 59.5679L442.705 53.0186H444.249V62H442.705V55.4507L438.563 62H437.036V53.0186H438.563V59.5679ZM145.155 73.0186V74.2886H140.615V73.0186H145.155ZM140.839 73.0186V82H139.303V73.0186H140.839ZM146.517 73.0186V82H144.973V73.0186H146.517ZM154.983 73.0186V74.2886H150.642V73.0186H154.983ZM156.336 73.0186V82H154.801V73.0186H156.336ZM150.269 73.0186H151.812L151.58 77.3516C151.541 78.0212 151.478 78.6133 151.389 79.1279C151.306 79.637 151.19 80.0742 151.041 80.4395C150.897 80.8047 150.714 81.1035 150.493 81.3359C150.277 81.5628 150.017 81.7316 149.712 81.8423C149.408 81.9474 149.057 82 148.658 82H148.177V80.647L148.509 80.6221C148.747 80.6055 148.949 80.5501 149.115 80.4561C149.286 80.362 149.43 80.2236 149.546 80.041C149.663 79.8529 149.757 79.6121 149.829 79.3188C149.906 79.0256 149.964 78.6769 150.003 78.2729C150.047 77.869 150.08 77.3986 150.103 76.8618L150.269 73.0186ZM164.106 80.4644V75.8408C164.106 75.4867 164.034 75.1795 163.89 74.9194C163.752 74.6538 163.542 74.4491 163.259 74.3052C162.977 74.1613 162.628 74.0894 162.213 74.0894C161.826 74.0894 161.486 74.1558 161.192 74.2886C160.905 74.4214 160.678 74.5957 160.512 74.8115C160.351 75.0273 160.271 75.2598 160.271 75.5088H158.735C158.735 75.1878 158.818 74.8696 158.984 74.5542C159.15 74.2388 159.388 73.9538 159.698 73.6992C160.014 73.4391 160.39 73.2344 160.827 73.085C161.27 72.93 161.762 72.8525 162.305 72.8525C162.958 72.8525 163.533 72.9632 164.031 73.1846C164.535 73.4059 164.928 73.7407 165.21 74.189C165.498 74.6317 165.642 75.1878 165.642 75.8574V80.041C165.642 80.3398 165.667 80.658 165.716 80.9956C165.772 81.3332 165.852 81.6237 165.957 81.8672V82H164.355C164.278 81.8229 164.217 81.5877 164.172 81.2944C164.128 80.9956 164.106 80.7189 164.106 80.4644ZM164.372 76.5547L164.388 77.6338H162.836C162.399 77.6338 162.009 77.6698 161.666 77.7417C161.322 77.8081 161.035 77.9105 160.802 78.0488C160.57 78.1872 160.393 78.3615 160.271 78.5718C160.149 78.7765 160.088 79.0173 160.088 79.2939C160.088 79.5762 160.152 79.8335 160.279 80.0659C160.407 80.2983 160.597 80.4837 160.852 80.6221C161.112 80.7549 161.43 80.8213 161.807 80.8213C162.277 80.8213 162.692 80.7217 163.052 80.5225C163.411 80.3232 163.696 80.0798 163.907 79.792C164.123 79.5042 164.239 79.2248 164.255 78.9536L164.911 79.6924C164.872 79.9248 164.767 80.1821 164.596 80.4644C164.424 80.7466 164.194 81.0177 163.907 81.2778C163.625 81.5324 163.287 81.7454 162.894 81.917C162.507 82.083 162.069 82.166 161.583 82.166C160.974 82.166 160.44 82.047 159.98 81.8091C159.527 81.5711 159.173 81.2529 158.918 80.8545C158.669 80.4505 158.544 79.9995 158.544 79.5015C158.544 79.02 158.639 78.5967 158.827 78.2314C159.015 77.8607 159.286 77.5535 159.64 77.3101C159.994 77.061 160.42 76.8729 160.918 76.7456C161.417 76.6183 161.973 76.5547 162.587 76.5547H164.372ZM174.15 76.9116V78.1567H169.402V76.9116H174.15ZM169.726 73.0186V82H168.19V73.0186H169.726ZM175.395 73.0186V82H173.851V73.0186H175.395ZM183.165 80.4644V75.8408C183.165 75.4867 183.093 75.1795 182.949 74.9194C182.81 74.6538 182.6 74.4491 182.318 74.3052C182.036 74.1613 181.687 74.0894 181.272 74.0894C180.885 74.0894 180.544 74.1558 180.251 74.2886C179.963 74.4214 179.736 74.5957 179.57 74.8115C179.41 75.0273 179.33 75.2598 179.33 75.5088H177.794C177.794 75.1878 177.877 74.8696 178.043 74.5542C178.209 74.2388 178.447 73.9538 178.757 73.6992C179.072 73.4391 179.449 73.2344 179.886 73.085C180.328 72.93 180.821 72.8525 181.363 72.8525C182.016 72.8525 182.592 72.9632 183.09 73.1846C183.593 73.4059 183.986 73.7407 184.269 74.189C184.556 74.6317 184.7 75.1878 184.7 75.8574V80.041C184.7 80.3398 184.725 80.658 184.775 80.9956C184.83 81.3332 184.91 81.6237 185.016 81.8672V82H183.414C183.336 81.8229 183.275 81.5877 183.231 81.2944C183.187 80.9956 183.165 80.7189 183.165 80.4644ZM183.43 76.5547L183.447 77.6338H181.895C181.457 77.6338 181.067 77.6698 180.724 77.7417C180.381 77.8081 180.093 77.9105 179.861 78.0488C179.628 78.1872 179.451 78.3615 179.33 78.5718C179.208 78.7765 179.147 79.0173 179.147 79.2939C179.147 79.5762 179.211 79.8335 179.338 80.0659C179.465 80.2983 179.656 80.4837 179.911 80.6221C180.171 80.7549 180.489 80.8213 180.865 80.8213C181.336 80.8213 181.751 80.7217 182.11 80.5225C182.47 80.3232 182.755 80.0798 182.965 79.792C183.181 79.5042 183.297 79.2248 183.314 78.9536L183.97 79.6924C183.931 79.9248 183.826 80.1821 183.654 80.4644C183.483 80.7466 183.253 81.0177 182.965 81.2778C182.683 81.5324 182.346 81.7454 181.953 81.917C181.565 82.083 181.128 82.166 180.641 82.166C180.032 82.166 179.498 82.047 179.039 81.8091C178.585 81.5711 178.231 81.2529 177.977 80.8545C177.728 80.4505 177.603 79.9995 177.603 79.5015C177.603 79.02 177.697 78.5967 177.885 78.2314C178.073 77.8607 178.345 77.5535 178.699 77.3101C179.053 77.061 179.479 76.8729 179.977 76.7456C180.475 76.6183 181.031 76.5547 181.646 76.5547H183.43ZM192.951 73.0186H194.487L194.354 76.3804C194.321 77.2326 194.224 77.9686 194.063 78.5884C193.903 79.2082 193.698 79.7367 193.449 80.1738C193.2 80.6055 192.921 80.9679 192.611 81.2612C192.306 81.5545 191.991 81.8008 191.665 82H190.901L190.942 80.7466L191.258 80.7383C191.44 80.5225 191.618 80.3011 191.789 80.0742C191.961 79.8418 192.118 79.5679 192.262 79.2524C192.406 78.9315 192.525 78.5413 192.619 78.082C192.719 77.6172 192.782 77.05 192.81 76.3804L192.951 73.0186ZM193.333 73.0186H198.737V82H197.201V74.438H193.333V73.0186ZM190.552 80.7383H199.891V84.6479H198.355V82H192.088V84.6479H190.544L190.552 80.7383ZM205.319 82.166C204.694 82.166 204.127 82.0609 203.618 81.8506C203.114 81.6348 202.68 81.3332 202.314 80.9458C201.955 80.5584 201.678 80.0991 201.484 79.5679C201.291 79.0366 201.194 78.4556 201.194 77.8247V77.4761C201.194 76.7456 201.302 76.0954 201.518 75.5254C201.733 74.9499 202.027 74.4629 202.397 74.0645C202.768 73.666 203.189 73.3644 203.659 73.1597C204.13 72.9549 204.617 72.8525 205.12 72.8525C205.762 72.8525 206.315 72.9632 206.78 73.1846C207.251 73.4059 207.635 73.7158 207.934 74.1143C208.233 74.5072 208.454 74.972 208.598 75.5088C208.742 76.04 208.814 76.6211 208.814 77.252V77.9409H202.107V76.6875H207.278V76.5713C207.256 76.1729 207.173 75.7855 207.029 75.4092C206.891 75.0329 206.67 74.723 206.365 74.4795C206.061 74.236 205.646 74.1143 205.12 74.1143C204.771 74.1143 204.451 74.189 204.157 74.3384C203.864 74.4823 203.612 74.6981 203.402 74.9858C203.192 75.2736 203.028 75.625 202.912 76.04C202.796 76.4551 202.738 76.9338 202.738 77.4761V77.8247C202.738 78.2508 202.796 78.652 202.912 79.0283C203.034 79.3991 203.208 79.7256 203.435 80.0078C203.667 80.29 203.947 80.5114 204.273 80.6719C204.605 80.8324 204.982 80.9126 205.402 80.9126C205.945 80.9126 206.404 80.8019 206.78 80.5806C207.157 80.3592 207.486 80.0632 207.768 79.6924L208.698 80.4312C208.504 80.7244 208.258 81.0039 207.959 81.2695C207.66 81.5352 207.292 81.751 206.855 81.917C206.423 82.083 205.911 82.166 205.319 82.166ZM212.267 79.5679L216.409 73.0186H217.953V82H216.409V75.4507L212.267 82H210.74V73.0186H212.267V79.5679ZM215.571 69.7646H216.816C216.816 70.1963 216.716 70.5809 216.517 70.9185C216.318 71.2505 216.033 71.5106 215.662 71.6987C215.291 71.8869 214.851 71.981 214.342 71.981C213.573 71.981 212.964 71.7762 212.516 71.3667C212.073 70.9517 211.852 70.4176 211.852 69.7646H213.097C213.097 70.0911 213.191 70.3789 213.379 70.6279C213.568 70.877 213.889 71.0015 214.342 71.0015C214.785 71.0015 215.1 70.877 215.289 70.6279C215.477 70.3789 215.571 70.0911 215.571 69.7646ZM224.013 80.9043C224.378 80.9043 224.715 80.8296 225.025 80.6802C225.335 80.5308 225.59 80.326 225.789 80.0659C225.988 79.8003 226.102 79.4987 226.129 79.1611H227.59C227.563 79.6924 227.383 80.1877 227.051 80.647C226.724 81.1007 226.295 81.4688 225.764 81.751C225.233 82.0277 224.649 82.166 224.013 82.166C223.338 82.166 222.748 82.047 222.245 81.8091C221.747 81.5711 221.332 81.2446 221 80.8296C220.673 80.4146 220.427 79.9386 220.261 79.4019C220.1 78.8595 220.02 78.2868 220.02 77.6836V77.335C220.02 76.7318 220.1 76.1618 220.261 75.625C220.427 75.0827 220.673 74.604 221 74.189C221.332 73.7739 221.747 73.4474 222.245 73.2095C222.748 72.9715 223.338 72.8525 224.013 72.8525C224.715 72.8525 225.33 72.9964 225.855 73.2842C226.381 73.5664 226.793 73.9538 227.092 74.4463C227.397 74.9333 227.563 75.4867 227.59 76.1064H226.129C226.102 75.7357 225.997 75.4009 225.814 75.1021C225.637 74.8032 225.393 74.5653 225.083 74.3882C224.779 74.2056 224.422 74.1143 224.013 74.1143C223.542 74.1143 223.147 74.2083 222.826 74.3965C222.51 74.5791 222.258 74.8281 222.07 75.1436C221.888 75.4535 221.755 75.7993 221.672 76.1812C221.594 76.5575 221.556 76.9421 221.556 77.335V77.6836C221.556 78.0765 221.594 78.4639 221.672 78.8457C221.749 79.2275 221.879 79.5734 222.062 79.8833C222.25 80.1932 222.502 80.4422 222.817 80.6304C223.138 80.813 223.537 80.9043 224.013 80.9043ZM232.978 73.0186V82H231.434V73.0186H232.978ZM235.991 73.0186V74.2637H228.479V73.0186H235.991ZM241.718 78.0488H238.771L238.755 76.8203H241.162C241.638 76.8203 242.034 76.7733 242.349 76.6792C242.67 76.5851 242.911 76.444 243.071 76.2559C243.232 76.0677 243.312 75.8353 243.312 75.5586C243.312 75.3428 243.265 75.1546 243.171 74.9941C243.082 74.8281 242.947 74.6925 242.764 74.5874C242.582 74.4767 242.355 74.3965 242.083 74.3467C241.818 74.2913 241.505 74.2637 241.146 74.2637H239.178V82H237.643V73.0186H241.146C241.715 73.0186 242.227 73.0684 242.681 73.168C243.14 73.2676 243.531 73.4198 243.852 73.6245C244.178 73.8237 244.427 74.0783 244.599 74.3882C244.77 74.6981 244.856 75.0633 244.856 75.4839C244.856 75.755 244.801 76.0124 244.69 76.2559C244.579 76.4993 244.416 76.7152 244.2 76.9033C243.984 77.0915 243.719 77.2464 243.403 77.3682C243.088 77.4844 242.725 77.5591 242.316 77.5923L241.718 78.0488ZM241.718 82H238.215L238.979 80.7549H241.718C242.144 80.7549 242.499 80.7023 242.781 80.5972C243.063 80.4865 243.273 80.3315 243.412 80.1323C243.556 79.9276 243.627 79.6841 243.627 79.4019C243.627 79.1196 243.556 78.8789 243.412 78.6797C243.273 78.4749 243.063 78.32 242.781 78.2148C242.499 78.1042 242.144 78.0488 241.718 78.0488H239.386L239.402 76.8203H242.316L242.872 77.2852C243.365 77.3239 243.782 77.4456 244.125 77.6504C244.469 77.8551 244.729 78.1152 244.906 78.4307C245.083 78.7406 245.171 79.0781 245.171 79.4434C245.171 79.8639 245.091 80.2347 244.931 80.5557C244.776 80.8766 244.549 81.145 244.25 81.3608C243.951 81.5711 243.589 81.7316 243.163 81.8423C242.736 81.9474 242.255 82 241.718 82ZM248.89 79.5679L253.032 73.0186H254.576V82H253.032V75.4507L248.89 82H247.363V73.0186H248.89V79.5679ZM258.702 79.5679L262.844 73.0186H264.388V82H262.844V75.4507L258.702 82H257.174V73.0186H258.702V79.5679ZM262.005 69.7646H263.25C263.25 70.1963 263.151 70.5809 262.952 70.9185C262.752 71.2505 262.467 71.5106 262.097 71.6987C261.726 71.8869 261.286 71.981 260.777 71.981C260.008 71.981 259.399 71.7762 258.951 71.3667C258.508 70.9517 258.287 70.4176 258.287 69.7646H259.532C259.532 70.0911 259.626 70.3789 259.814 70.6279C260.002 70.877 260.323 71.0015 260.777 71.0015C261.22 71.0015 261.535 70.877 261.723 70.6279C261.911 70.3789 262.005 70.0911 262.005 69.7646Z" fill="black"/>
<defs>
<filter id="filter0_d_802_708" x="564.052" y="12.0862" width="106.191" height="106.163" filterUnits="userSpaceOnUse" color-interpolation-filters="sRGB">
<feFlood flood-opacity="0" result="BackgroundImageFix"/>
<feColorMatrix in="SourceAlpha" type="matrix" values="0 0 0 0 0 0 0 0 0 0 0 0 0 0 0 0 0 0 127 0" result="hardAlpha"/>
<feOffset/>
<feGaussianBlur stdDeviation="12"/>
<feComposite in2="hardAlpha" operator="out"/>
<feColorMatrix type="matrix" values="0 0 0 0 0.579167 0 0 0 0 0.579167 0 0 0 0 0.579167 0 0 0 0.3 0"/>
<feBlend mode="normal" in2="BackgroundImageFix" result="effect1_dropShadow_802_708"/>
<feBlend mode="normal" in="SourceGraphic" in2="effect1_dropShadow_802_708" result="shape"/>
</filter>
</defs>
</svg>
