<svg width="655" height="116" viewBox="0 0 655 116" fill="none" xmlns="http://www.w3.org/2000/svg">
<path d="M654.819 58.0351C654.819 26.0524 628.892 0.137746 596.91 0.152891C564.927 0.168035 539 26.1073 539 58.09C539 90.0726 564.927 115.987 596.91 115.972C628.892 115.957 654.819 90.0178 654.819 58.0351Z" fill="#00A3FF"/>
<path d="M597.805 51.4939C601.574 51.4939 604.914 52.9783 607.824 55.947C610.734 58.8962 612.189 62.3142 612.189 66.2009C612.189 70.322 610.686 73.8083 607.678 76.6599C604.689 79.4919 600.891 80.908 596.281 80.908C591.691 80.908 587.893 79.4919 584.885 76.6599C581.896 73.8083 580.402 70.322 580.402 66.2009C580.402 64.5212 580.695 62.8318 581.281 61.1326C581.887 59.4333 582.492 58.1638 583.098 57.324L584.006 56.0056L595.695 37.988H605.012L595.988 51.7869C596.516 51.5916 597.121 51.4939 597.805 51.4939ZM601.438 71.1228C602.805 69.7947 603.488 68.1541 603.488 66.2009C603.488 64.2478 602.805 62.6072 601.438 61.2791C600.09 59.9509 598.371 59.2869 596.281 59.2869C594.211 59.2869 592.492 59.9509 591.125 61.2791C589.777 62.6072 589.104 64.2478 589.104 66.2009C589.104 68.1541 589.777 69.7947 591.125 71.1228C592.492 72.4314 594.211 73.0857 596.281 73.0857C598.371 73.0857 600.09 72.4314 601.438 71.1228Z" fill="white"/>
<path d="M175.294 57.9995L57.2939 57.9995" stroke="#00A3FF" stroke-miterlimit="10" stroke-linecap="round"/>
<g filter="url(#filter0_d_822_2142)">
<path d="M32.5734 78.7311C21.2109 67.374 21.2109 48.9605 32.5733 37.6034C43.9358 26.2463 62.358 26.2463 73.7204 37.6034C85.0829 48.9605 85.0829 67.374 73.7204 78.731C62.358 90.0881 43.9358 90.0881 32.5734 78.7311Z" fill="white"/>
</g>
<path d="M44.0532 58.1642C44.0479 59.8868 44.5531 61.5725 45.505 63.0085C46.457 64.4446 47.8131 65.5667 49.4023 66.2333C50.9915 66.8999 52.7426 67.0813 54.4347 66.7544C56.1269 66.4275 57.6843 65.6071 58.9106 64.3966C60.1368 63.1861 60.977 61.6397 61.3251 59.9526C61.6731 58.2654 61.5136 56.513 60.8665 54.9164C60.2194 53.3198 59.1137 51.9504 57.689 50.9811C56.2643 50.0117 54.5843 49.4858 52.8609 49.4697C51.7094 49.4552 50.5665 49.6695 49.4985 50.1C48.4306 50.5304 47.4587 51.1686 46.6394 51.9774C45.8201 52.7862 45.1695 53.7495 44.7256 54.8116C44.2816 55.8736 44.0531 57.0132 44.0532 58.1642Z" fill="#00A3FF"/>
<path d="M52.7516 61.571C50.8692 61.571 49.3431 60.0456 49.3431 58.164C49.3431 56.2824 50.8692 54.7571 52.7516 54.7571C54.6341 54.7571 56.1602 56.2824 56.1602 58.164C56.1602 60.0456 54.6341 61.571 52.7516 61.571Z" fill="white"/>
<path d="M172.842 58.164C172.837 59.8901 173.344 61.5791 174.299 63.0169C175.255 64.4548 176.616 65.5769 178.21 66.2412C179.804 66.9056 181.559 67.0822 183.254 66.7487C184.948 66.4153 186.505 65.5868 187.729 64.3681C188.952 63.1494 189.785 61.5954 190.124 59.9028C190.463 58.2102 190.292 56.4552 189.632 54.8599C188.973 53.2646 187.854 51.9009 186.419 50.9413C184.983 49.9817 183.295 49.4695 181.568 49.4695C179.259 49.4695 177.043 50.3846 175.408 52.0144C173.772 53.6441 172.849 55.8556 172.842 58.164Z" fill="#00A3FF"/>
<path d="M181.541 61.571C179.658 61.571 178.132 60.0456 178.132 58.164C178.132 56.2824 179.658 54.7571 181.541 54.7571C183.423 54.7571 184.949 56.2824 184.949 58.164C184.949 60.0456 183.423 61.571 181.541 61.571Z" fill="white"/>
<path d="M238.595 34.3589V49.9995H236.554V34.3589H238.595ZM243.622 34.3589V36.0562H231.537V34.3589H243.622ZM249.391 50.2144C248.581 50.2144 247.847 50.0783 247.188 49.8062C246.537 49.5269 245.975 49.1366 245.502 48.6353C245.036 48.134 244.678 47.5396 244.428 46.8521C244.177 46.1646 244.052 45.4126 244.052 44.5962V44.145C244.052 43.1997 244.191 42.3582 244.471 41.6206C244.75 40.8758 245.13 40.2456 245.609 39.73C246.089 39.2144 246.633 38.8241 247.242 38.5591C247.851 38.2941 248.481 38.1616 249.133 38.1616C249.964 38.1616 250.68 38.3049 251.281 38.5913C251.89 38.8778 252.388 39.2788 252.774 39.7944C253.161 40.3029 253.448 40.9045 253.634 41.5991C253.82 42.2866 253.913 43.0386 253.913 43.855V44.7466H245.233V43.1245H251.926V42.9741C251.897 42.4585 251.79 41.9572 251.604 41.4702C251.424 40.9832 251.138 40.5822 250.744 40.2671C250.35 39.952 249.813 39.7944 249.133 39.7944C248.682 39.7944 248.266 39.8911 247.887 40.0845C247.507 40.2707 247.181 40.55 246.909 40.9224C246.637 41.2948 246.426 41.7495 246.275 42.2866C246.125 42.8237 246.05 43.4432 246.05 44.145V44.5962C246.05 45.1476 246.125 45.6668 246.275 46.1538C246.433 46.6336 246.659 47.0562 246.952 47.4214C247.253 47.7866 247.615 48.0731 248.037 48.2808C248.467 48.4884 248.954 48.5923 249.498 48.5923C250.2 48.5923 250.794 48.4491 251.281 48.1626C251.768 47.8761 252.194 47.493 252.56 47.0132L253.763 47.9692C253.512 48.3488 253.193 48.7104 252.807 49.0542C252.42 49.3979 251.944 49.6772 251.378 49.8921C250.819 50.1069 250.157 50.2144 249.391 50.2144ZM260.885 48.5815C261.357 48.5815 261.794 48.4849 262.195 48.2915C262.596 48.0981 262.926 47.8332 263.184 47.4966C263.441 47.1528 263.588 46.7625 263.624 46.3257H265.515C265.479 47.0132 265.246 47.6541 264.816 48.2485C264.394 48.8358 263.839 49.312 263.151 49.6772C262.464 50.0353 261.708 50.2144 260.885 50.2144C260.011 50.2144 259.248 50.0604 258.597 49.7524C257.952 49.4445 257.415 49.022 256.985 48.4849C256.563 47.9478 256.244 47.3319 256.029 46.6372C255.822 45.9354 255.718 45.1942 255.718 44.4136V43.9624C255.718 43.1818 255.822 42.4442 256.029 41.7495C256.244 41.0477 256.563 40.4282 256.985 39.8911C257.415 39.354 257.952 38.9315 258.597 38.6235C259.248 38.3156 260.011 38.1616 260.885 38.1616C261.794 38.1616 262.589 38.3478 263.27 38.7202C263.95 39.0854 264.483 39.5868 264.87 40.2241C265.264 40.8543 265.479 41.5705 265.515 42.3726H263.624C263.588 41.8927 263.452 41.4595 263.216 41.0728C262.987 40.686 262.672 40.3781 262.271 40.1489C261.877 39.9126 261.415 39.7944 260.885 39.7944C260.276 39.7944 259.764 39.9162 259.349 40.1597C258.94 40.396 258.615 40.7183 258.371 41.1265C258.135 41.5275 257.963 41.9751 257.855 42.4692C257.755 42.9562 257.705 43.4539 257.705 43.9624V44.4136C257.705 44.922 257.755 45.4233 257.855 45.9175C257.956 46.4116 258.124 46.8592 258.36 47.2603C258.604 47.6613 258.93 47.9836 259.338 48.2271C259.753 48.4634 260.269 48.5815 260.885 48.5815ZM272.486 38.3765V49.9995H270.488V38.3765H272.486ZM276.386 38.3765V39.9878H266.664V38.3765H276.386ZM280.489 46.8521L285.85 38.3765H287.848V49.9995H285.85V41.5239L280.489 49.9995H278.513V38.3765H280.489V46.8521ZM293.025 40.6108V54.4683H291.027V38.3765H292.854L293.025 40.6108ZM300.856 44.0913V44.3169C300.856 45.1619 300.756 45.9461 300.556 46.6694C300.355 47.3856 300.062 48.0086 299.675 48.5386C299.295 49.0685 298.826 49.4803 298.268 49.7739C297.709 50.0675 297.068 50.2144 296.345 50.2144C295.607 50.2144 294.955 50.0926 294.39 49.8491C293.824 49.6056 293.344 49.2511 292.95 48.7856C292.556 48.3201 292.241 47.7616 292.005 47.1099C291.776 46.4582 291.618 45.7241 291.532 44.9077V43.7046C291.618 42.8452 291.779 42.0754 292.016 41.395C292.252 40.7147 292.563 40.1346 292.95 39.6548C293.344 39.1678 293.82 38.799 294.379 38.5483C294.938 38.2905 295.582 38.1616 296.312 38.1616C297.043 38.1616 297.691 38.3049 298.257 38.5913C298.823 38.8706 299.299 39.2716 299.686 39.7944C300.072 40.3172 300.362 40.9438 300.556 41.6743C300.756 42.3976 300.856 43.2033 300.856 44.0913ZM298.858 44.3169V44.0913C298.858 43.5112 298.798 42.967 298.676 42.4585C298.554 41.9429 298.364 41.4917 298.106 41.105C297.856 40.7111 297.534 40.4032 297.14 40.1812C296.746 39.952 296.277 39.8374 295.732 39.8374C295.231 39.8374 294.794 39.9233 294.422 40.0952C294.057 40.2671 293.745 40.4998 293.487 40.7935C293.229 41.0799 293.018 41.4093 292.854 41.7817C292.696 42.147 292.578 42.5265 292.499 42.9204V45.7026C292.642 46.2039 292.843 46.6766 293.101 47.1206C293.358 47.5575 293.702 47.9119 294.132 48.1841C294.562 48.4491 295.102 48.5815 295.754 48.5815C296.291 48.5815 296.753 48.4705 297.14 48.2485C297.534 48.0194 297.856 47.7078 298.106 47.314C298.364 46.9201 298.554 46.4689 298.676 45.9604C298.798 45.4448 298.858 44.897 298.858 44.3169ZM302.865 44.3169V44.0698C302.865 43.2319 302.987 42.4549 303.23 41.7388C303.474 41.0155 303.825 40.3888 304.283 39.8589C304.742 39.3218 305.297 38.9064 305.948 38.6128C306.6 38.312 307.33 38.1616 308.14 38.1616C308.956 38.1616 309.69 38.312 310.342 38.6128C311.001 38.9064 311.559 39.3218 312.018 39.8589C312.483 40.3888 312.838 41.0155 313.081 41.7388C313.325 42.4549 313.446 43.2319 313.446 44.0698V44.3169C313.446 45.1548 313.325 45.9318 313.081 46.6479C312.838 47.3641 312.483 47.9907 312.018 48.5278C311.559 49.0578 311.004 49.4731 310.353 49.7739C309.708 50.0675 308.978 50.2144 308.161 50.2144C307.345 50.2144 306.611 50.0675 305.959 49.7739C305.307 49.4731 304.749 49.0578 304.283 48.5278C303.825 47.9907 303.474 47.3641 303.23 46.6479C302.987 45.9318 302.865 45.1548 302.865 44.3169ZM304.853 44.0698V44.3169C304.853 44.897 304.921 45.4448 305.057 45.9604C305.193 46.4689 305.397 46.9201 305.669 47.314C305.948 47.7078 306.296 48.0194 306.711 48.2485C307.126 48.4705 307.61 48.5815 308.161 48.5815C308.705 48.5815 309.182 48.4705 309.59 48.2485C310.005 48.0194 310.349 47.7078 310.621 47.314C310.893 46.9201 311.097 46.4689 311.233 45.9604C311.377 45.4448 311.448 44.897 311.448 44.3169V44.0698C311.448 43.4969 311.377 42.9562 311.233 42.4478C311.097 41.9321 310.89 41.4774 310.61 41.0835C310.338 40.6825 309.994 40.3674 309.579 40.1382C309.171 39.909 308.691 39.7944 308.14 39.7944C307.595 39.7944 307.116 39.909 306.7 40.1382C306.292 40.3674 305.948 40.6825 305.669 41.0835C305.397 41.4774 305.193 41.9321 305.057 42.4478C304.921 42.9562 304.853 43.4969 304.853 44.0698ZM321.396 44.8862H317.582L317.561 43.2964H320.676C321.292 43.2964 321.804 43.2355 322.212 43.1138C322.627 42.992 322.939 42.8094 323.146 42.5659C323.354 42.3224 323.458 42.0216 323.458 41.6636C323.458 41.3843 323.397 41.1408 323.275 40.9331C323.161 40.7183 322.985 40.5428 322.749 40.4067C322.513 40.2635 322.219 40.1597 321.868 40.0952C321.524 40.0236 321.12 39.9878 320.654 39.9878H318.108V49.9995H316.121V38.3765H320.654C321.392 38.3765 322.054 38.4409 322.642 38.5698C323.236 38.6987 323.741 38.8957 324.156 39.1606C324.579 39.4185 324.901 39.7479 325.123 40.1489C325.345 40.55 325.456 41.0226 325.456 41.5669C325.456 41.9178 325.384 42.2508 325.241 42.5659C325.098 42.881 324.887 43.1603 324.607 43.4038C324.328 43.6473 323.984 43.8478 323.576 44.0054C323.168 44.1558 322.699 44.2524 322.169 44.2954L321.396 44.8862ZM321.396 49.9995H316.862L317.851 48.3882H321.396C321.947 48.3882 322.405 48.3201 322.771 48.1841C323.136 48.0409 323.408 47.8403 323.587 47.5825C323.773 47.3175 323.866 47.0024 323.866 46.6372C323.866 46.272 323.773 45.9604 323.587 45.7026C323.408 45.4377 323.136 45.2371 322.771 45.1011C322.405 44.9578 321.947 44.8862 321.396 44.8862H318.377L318.398 43.2964H322.169L322.889 43.8979C323.526 43.9481 324.067 44.1056 324.511 44.3706C324.955 44.6356 325.291 44.9722 325.521 45.3804C325.75 45.7814 325.864 46.2183 325.864 46.6909C325.864 47.2352 325.76 47.715 325.553 48.1304C325.352 48.5457 325.059 48.8931 324.672 49.1724C324.285 49.4445 323.816 49.6522 323.265 49.7954C322.713 49.9315 322.09 49.9995 321.396 49.9995ZM335.382 48.0122V42.0288C335.382 41.5705 335.289 41.173 335.103 40.8364C334.924 40.4927 334.651 40.2277 334.286 40.0415C333.921 39.8553 333.47 39.7622 332.933 39.7622C332.431 39.7622 331.991 39.8481 331.611 40.02C331.239 40.1919 330.945 40.4175 330.73 40.6968C330.523 40.9761 330.419 41.2769 330.419 41.5991H328.432C328.432 41.1838 328.539 40.772 328.754 40.3638C328.969 39.9556 329.277 39.5868 329.678 39.2573C330.086 38.9207 330.573 38.6558 331.139 38.4624C331.712 38.2619 332.349 38.1616 333.051 38.1616C333.896 38.1616 334.641 38.3049 335.285 38.5913C335.937 38.8778 336.445 39.311 336.811 39.8911C337.183 40.464 337.369 41.1838 337.369 42.0503V47.4644C337.369 47.8511 337.401 48.2629 337.466 48.6997C337.537 49.1366 337.641 49.5125 337.777 49.8276V49.9995H335.704C335.604 49.7703 335.525 49.466 335.468 49.0864C335.41 48.6997 335.382 48.3416 335.382 48.0122ZM335.726 42.9526L335.747 44.3491H333.738C333.173 44.3491 332.668 44.3957 332.224 44.4888C331.78 44.5747 331.407 44.7072 331.106 44.8862C330.806 45.0653 330.576 45.2909 330.419 45.563C330.261 45.828 330.183 46.1395 330.183 46.4976C330.183 46.8628 330.265 47.1958 330.43 47.4966C330.594 47.7974 330.841 48.0373 331.171 48.2163C331.507 48.3882 331.919 48.4741 332.406 48.4741C333.015 48.4741 333.552 48.3452 334.018 48.0874C334.483 47.8296 334.852 47.5145 335.124 47.1421C335.403 46.7697 335.554 46.408 335.575 46.0571L336.424 47.0132C336.374 47.314 336.238 47.647 336.016 48.0122C335.794 48.3774 335.496 48.7284 335.124 49.0649C334.759 49.3944 334.322 49.6701 333.813 49.8921C333.312 50.1069 332.746 50.2144 332.116 50.2144C331.328 50.2144 330.637 50.0604 330.043 49.7524C329.456 49.4445 328.997 49.0327 328.668 48.5171C328.346 47.9943 328.185 47.4106 328.185 46.7661C328.185 46.1431 328.306 45.5952 328.55 45.1226C328.793 44.6427 329.144 44.2453 329.603 43.9302C330.061 43.6079 330.612 43.3644 331.257 43.1997C331.901 43.035 332.621 42.9526 333.416 42.9526H335.726ZM348.38 43.4146V45.0259H342.235V43.4146H348.38ZM342.654 38.3765V49.9995H340.667V38.3765H342.654ZM349.991 38.3765V49.9995H347.993V38.3765H349.991ZM355.341 46.8521L360.701 38.3765H362.699V49.9995H360.701V41.5239L355.341 49.9995H353.364V38.3765H355.341V46.8521ZM370.713 50.2144C369.904 50.2144 369.17 50.0783 368.511 49.8062C367.859 49.5269 367.297 49.1366 366.824 48.6353C366.359 48.134 366.001 47.5396 365.75 46.8521C365.499 46.1646 365.374 45.4126 365.374 44.5962V44.145C365.374 43.1997 365.514 42.3582 365.793 41.6206C366.072 40.8758 366.452 40.2456 366.932 39.73C367.411 39.2144 367.956 38.8241 368.564 38.5591C369.173 38.2941 369.803 38.1616 370.455 38.1616C371.286 38.1616 372.002 38.3049 372.604 38.5913C373.212 38.8778 373.71 39.2788 374.097 39.7944C374.483 40.3029 374.77 40.9045 374.956 41.5991C375.142 42.2866 375.235 43.0386 375.235 43.855V44.7466H366.556V43.1245H373.248V42.9741C373.219 42.4585 373.112 41.9572 372.926 41.4702C372.747 40.9832 372.46 40.5822 372.066 40.2671C371.673 39.952 371.135 39.7944 370.455 39.7944C370.004 39.7944 369.589 39.8911 369.209 40.0845C368.829 40.2707 368.504 40.55 368.231 40.9224C367.959 41.2948 367.748 41.7495 367.598 42.2866C367.447 42.8237 367.372 43.4432 367.372 44.145V44.5962C367.372 45.1476 367.447 45.6668 367.598 46.1538C367.755 46.6336 367.981 47.0562 368.274 47.4214C368.575 47.7866 368.937 48.0731 369.359 48.2808C369.789 48.4884 370.276 48.5923 370.82 48.5923C371.522 48.5923 372.117 48.4491 372.604 48.1626C373.09 47.8761 373.517 47.493 373.882 47.0132L375.085 47.9692C374.834 48.3488 374.516 48.7104 374.129 49.0542C373.742 49.3979 373.266 49.6772 372.7 49.8921C372.142 50.1069 371.479 50.2144 370.713 50.2144ZM390.521 38.3765V40.02H385.15V49.9995H383.163V38.3765H390.521ZM394.399 46.8521L399.76 38.3765H401.758V49.9995H399.76V41.5239L394.399 49.9995H392.423V38.3765H394.399V46.8521ZM412.693 38.3765V40.02H406.817V38.3765H412.693ZM407.107 38.3765V49.9995H405.12V38.3765H407.107ZM414.455 38.3765V49.9995H412.457V38.3765H414.455ZM417.119 44.3169V44.0698C417.119 43.2319 417.241 42.4549 417.484 41.7388C417.728 41.0155 418.079 40.3888 418.537 39.8589C418.995 39.3218 419.55 38.9064 420.202 38.6128C420.854 38.312 421.584 38.1616 422.394 38.1616C423.21 38.1616 423.944 38.312 424.596 38.6128C425.255 38.9064 425.813 39.3218 426.271 39.8589C426.737 40.3888 427.091 41.0155 427.335 41.7388C427.578 42.4549 427.7 43.2319 427.7 44.0698V44.3169C427.7 45.1548 427.578 45.9318 427.335 46.6479C427.091 47.3641 426.737 47.9907 426.271 48.5278C425.813 49.0578 425.258 49.4731 424.606 49.7739C423.962 50.0675 423.231 50.2144 422.415 50.2144C421.599 50.2144 420.865 50.0675 420.213 49.7739C419.561 49.4731 419.003 49.0578 418.537 48.5278C418.079 47.9907 417.728 47.3641 417.484 46.6479C417.241 45.9318 417.119 45.1548 417.119 44.3169ZM419.106 44.0698V44.3169C419.106 44.897 419.174 45.4448 419.311 45.9604C419.447 46.4689 419.651 46.9201 419.923 47.314C420.202 47.7078 420.549 48.0194 420.965 48.2485C421.38 48.4705 421.864 48.5815 422.415 48.5815C422.959 48.5815 423.436 48.4705 423.844 48.2485C424.259 48.0194 424.603 47.7078 424.875 47.314C425.147 46.9201 425.351 46.4689 425.487 45.9604C425.631 45.4448 425.702 44.897 425.702 44.3169V44.0698C425.702 43.4969 425.631 42.9562 425.487 42.4478C425.351 41.9321 425.144 41.4774 424.864 41.0835C424.592 40.6825 424.248 40.3674 423.833 40.1382C423.425 39.909 422.945 39.7944 422.394 39.7944C421.849 39.7944 421.369 39.909 420.954 40.1382C420.546 40.3674 420.202 40.6825 419.923 41.0835C419.651 41.4774 419.447 41.9321 419.311 42.4478C419.174 42.9562 419.106 43.4969 419.106 44.0698ZM434.693 38.3765V49.9995H432.695V38.3765H434.693ZM438.593 38.3765V39.9878H428.871V38.3765H438.593ZM444.512 50.2144C443.702 50.2144 442.968 50.0783 442.31 49.8062C441.658 49.5269 441.096 49.1366 440.623 48.6353C440.158 48.134 439.799 47.5396 439.549 46.8521C439.298 46.1646 439.173 45.4126 439.173 44.5962V44.145C439.173 43.1997 439.312 42.3582 439.592 41.6206C439.871 40.8758 440.251 40.2456 440.73 39.73C441.21 39.2144 441.755 38.8241 442.363 38.5591C442.972 38.2941 443.602 38.1616 444.254 38.1616C445.085 38.1616 445.801 38.3049 446.402 38.5913C447.011 38.8778 447.509 39.2788 447.896 39.7944C448.282 40.3029 448.569 40.9045 448.755 41.5991C448.941 42.2866 449.034 43.0386 449.034 43.855V44.7466H440.354V43.1245H447.047V42.9741C447.018 42.4585 446.911 41.9572 446.725 41.4702C446.546 40.9832 446.259 40.5822 445.865 40.2671C445.471 39.952 444.934 39.7944 444.254 39.7944C443.803 39.7944 443.387 39.8911 443.008 40.0845C442.628 40.2707 442.302 40.55 442.03 40.9224C441.758 41.2948 441.547 41.7495 441.396 42.2866C441.246 42.8237 441.171 43.4432 441.171 44.145V44.5962C441.171 45.1476 441.246 45.6668 441.396 46.1538C441.554 46.6336 441.78 47.0562 442.073 47.4214C442.374 47.7866 442.736 48.0731 443.158 48.2808C443.588 48.4884 444.075 48.5923 444.619 48.5923C445.321 48.5923 445.915 48.4491 446.402 48.1626C446.889 47.8761 447.315 47.493 447.681 47.0132L448.884 47.9692C448.633 48.3488 448.314 48.7104 447.928 49.0542C447.541 49.3979 447.065 49.6772 446.499 49.8921C445.94 50.1069 445.278 50.2144 444.512 50.2144ZM455.694 44.4458H453.557V43.2212H455.533C456.085 43.2212 456.521 43.1532 456.844 43.0171C457.166 42.8739 457.395 42.6769 457.531 42.4263C457.667 42.1756 457.735 41.882 457.735 41.5454C457.735 41.2446 457.657 40.9618 457.499 40.6968C457.349 40.4246 457.105 40.2062 456.769 40.0415C456.432 39.8696 455.981 39.7837 455.415 39.7837C454.957 39.7837 454.541 39.866 454.169 40.0308C453.797 40.1883 453.499 40.4067 453.277 40.686C453.062 40.9582 452.955 41.2661 452.955 41.6099H450.968C450.968 40.9009 451.168 40.2922 451.569 39.7837C451.978 39.2681 452.518 38.8706 453.191 38.5913C453.872 38.312 454.613 38.1724 455.415 38.1724C456.088 38.1724 456.69 38.2476 457.22 38.3979C457.757 38.5412 458.212 38.756 458.584 39.0425C458.956 39.3218 459.239 39.6727 459.433 40.0952C459.633 40.5106 459.733 40.994 459.733 41.5454C459.733 41.9393 459.64 42.3117 459.454 42.6626C459.268 43.0135 458.999 43.325 458.648 43.5972C458.298 43.8621 457.871 44.0698 457.37 44.2202C456.876 44.3706 456.317 44.4458 455.694 44.4458ZM453.557 43.6938H455.694C456.389 43.6938 457.001 43.7619 457.531 43.8979C458.061 44.0269 458.505 44.2202 458.863 44.478C459.221 44.7358 459.49 45.0545 459.669 45.4341C459.855 45.8065 459.948 46.2362 459.948 46.7231C459.948 47.2674 459.837 47.758 459.615 48.1948C459.4 48.6245 459.092 48.9897 458.691 49.2905C458.29 49.5913 457.811 49.8205 457.252 49.978C456.701 50.1356 456.088 50.2144 455.415 50.2144C454.663 50.2144 453.933 50.0854 453.224 49.8276C452.515 49.5698 451.931 49.1724 451.473 48.6353C451.014 48.091 450.785 47.3999 450.785 46.562H452.772C452.772 46.9129 452.883 47.2459 453.105 47.561C453.327 47.8761 453.635 48.1304 454.029 48.3237C454.43 48.5171 454.892 48.6138 455.415 48.6138C455.974 48.6138 456.439 48.5278 456.812 48.356C457.184 48.1841 457.463 47.9549 457.649 47.6685C457.843 47.382 457.939 47.0705 457.939 46.7339C457.939 46.297 457.854 45.9461 457.682 45.6812C457.51 45.4162 457.245 45.2228 456.887 45.1011C456.536 44.9722 456.085 44.9077 455.533 44.9077H453.557V43.6938ZM240.26 64.3765V66.02H234.384V64.3765H240.26ZM234.674 64.3765V75.9995H232.687V64.3765H234.674ZM242.021 64.3765V75.9995H240.023V64.3765H242.021ZM247.199 66.6108V80.4683H245.201V64.3765H247.027L247.199 66.6108ZM255.03 70.0913V70.3169C255.03 71.1619 254.93 71.9461 254.729 72.6694C254.529 73.3856 254.235 74.0086 253.849 74.5386C253.469 75.0685 253 75.4803 252.441 75.7739C251.883 76.0675 251.242 76.2144 250.519 76.2144C249.781 76.2144 249.129 76.0926 248.563 75.8491C247.998 75.6056 247.518 75.2511 247.124 74.7856C246.73 74.3201 246.415 73.7616 246.179 73.1099C245.95 72.4582 245.792 71.7241 245.706 70.9077V69.7046C245.792 68.8452 245.953 68.0754 246.189 67.395C246.426 66.7147 246.737 66.1346 247.124 65.6548C247.518 65.1678 247.994 64.799 248.553 64.5483C249.111 64.2905 249.756 64.1616 250.486 64.1616C251.217 64.1616 251.865 64.3049 252.431 64.5913C252.996 64.8706 253.473 65.2716 253.859 65.7944C254.246 66.3172 254.536 66.9438 254.729 67.6743C254.93 68.3976 255.03 69.2033 255.03 70.0913ZM253.032 70.3169V70.0913C253.032 69.5112 252.971 68.967 252.85 68.4585C252.728 67.9429 252.538 67.4917 252.28 67.105C252.03 66.7111 251.707 66.4032 251.313 66.1812C250.92 65.952 250.451 65.8374 249.906 65.8374C249.405 65.8374 248.968 65.9233 248.596 66.0952C248.23 66.2671 247.919 66.4998 247.661 66.7935C247.403 67.0799 247.192 67.4093 247.027 67.7817C246.87 68.147 246.752 68.5265 246.673 68.9204V71.7026C246.816 72.2039 247.017 72.6766 247.274 73.1206C247.532 73.5575 247.876 73.9119 248.306 74.1841C248.735 74.4491 249.276 74.5815 249.928 74.5815C250.465 74.5815 250.927 74.4705 251.313 74.2485C251.707 74.0194 252.03 73.7078 252.28 73.314C252.538 72.9201 252.728 72.4689 252.85 71.9604C252.971 71.4448 253.032 70.897 253.032 70.3169ZM257.039 70.3169V70.0698C257.039 69.2319 257.161 68.4549 257.404 67.7388C257.648 67.0155 257.999 66.3888 258.457 65.8589C258.915 65.3218 259.47 64.9064 260.122 64.6128C260.774 64.312 261.504 64.1616 262.313 64.1616C263.13 64.1616 263.864 64.312 264.516 64.6128C265.174 64.9064 265.733 65.3218 266.191 65.8589C266.657 66.3888 267.011 67.0155 267.255 67.7388C267.498 68.4549 267.62 69.2319 267.62 70.0698V70.3169C267.62 71.1548 267.498 71.9318 267.255 72.6479C267.011 73.3641 266.657 73.9907 266.191 74.5278C265.733 75.0578 265.178 75.4731 264.526 75.7739C263.882 76.0675 263.151 76.2144 262.335 76.2144C261.519 76.2144 260.785 76.0675 260.133 75.7739C259.481 75.4731 258.923 75.0578 258.457 74.5278C257.999 73.9907 257.648 73.3641 257.404 72.6479C257.161 71.9318 257.039 71.1548 257.039 70.3169ZM259.026 70.0698V70.3169C259.026 70.897 259.094 71.4448 259.23 71.9604C259.367 72.4689 259.571 72.9201 259.843 73.314C260.122 73.7078 260.469 74.0194 260.885 74.2485C261.3 74.4705 261.784 74.5815 262.335 74.5815C262.879 74.5815 263.355 74.4705 263.764 74.2485C264.179 74.0194 264.523 73.7078 264.795 73.314C265.067 72.9201 265.271 72.4689 265.407 71.9604C265.55 71.4448 265.622 70.897 265.622 70.3169V70.0698C265.622 69.4969 265.55 68.9562 265.407 68.4478C265.271 67.9321 265.063 67.4774 264.784 67.0835C264.512 66.6825 264.168 66.3674 263.753 66.1382C263.345 65.909 262.865 65.7944 262.313 65.7944C261.769 65.7944 261.289 65.909 260.874 66.1382C260.466 66.3674 260.122 66.6825 259.843 67.0835C259.571 67.4774 259.367 67.9321 259.23 68.4478C259.094 68.9562 259.026 69.4969 259.026 70.0698ZM271.434 64.3765H273.421L273.249 68.7271C273.206 69.8299 273.081 70.7824 272.873 71.5845C272.665 72.3866 272.4 73.0705 272.078 73.6362C271.756 74.1948 271.394 74.6639 270.993 75.0435C270.599 75.423 270.191 75.7417 269.769 75.9995H268.78L268.834 74.3774L269.242 74.3667C269.479 74.0874 269.708 73.8009 269.93 73.5073C270.152 73.2065 270.356 72.8521 270.542 72.4438C270.728 72.0285 270.882 71.5236 271.004 70.9292C271.133 70.3276 271.215 69.5936 271.251 68.7271L271.434 64.3765ZM271.928 64.3765H278.921V75.9995H276.934V66.2134H271.928V64.3765ZM268.329 74.3667H280.414V79.4263H278.427V75.9995H270.316V79.4263H268.318L268.329 74.3667ZM289.47 74.0122V68.0288C289.47 67.5705 289.377 67.173 289.19 66.8364C289.011 66.4927 288.739 66.2277 288.374 66.0415C288.009 65.8553 287.558 65.7622 287.021 65.7622C286.519 65.7622 286.079 65.8481 285.699 66.02C285.327 66.1919 285.033 66.4175 284.818 66.6968C284.611 66.9761 284.507 67.2769 284.507 67.5991H282.52C282.52 67.1838 282.627 66.772 282.842 66.3638C283.057 65.9556 283.365 65.5868 283.766 65.2573C284.174 64.9207 284.661 64.6558 285.227 64.4624C285.799 64.2619 286.437 64.1616 287.139 64.1616C287.984 64.1616 288.729 64.3049 289.373 64.5913C290.025 64.8778 290.533 65.311 290.898 65.8911C291.271 66.464 291.457 67.1838 291.457 68.0503V73.4644C291.457 73.8511 291.489 74.2629 291.554 74.6997C291.625 75.1366 291.729 75.5125 291.865 75.8276V75.9995H289.792C289.692 75.7703 289.613 75.466 289.556 75.0864C289.498 74.6997 289.47 74.3416 289.47 74.0122ZM289.813 68.9526L289.835 70.3491H287.826C287.26 70.3491 286.756 70.3957 286.312 70.4888C285.868 70.5747 285.495 70.7072 285.194 70.8862C284.894 71.0653 284.664 71.2909 284.507 71.563C284.349 71.828 284.271 72.1395 284.271 72.4976C284.271 72.8628 284.353 73.1958 284.518 73.4966C284.682 73.7974 284.929 74.0373 285.259 74.2163C285.595 74.3882 286.007 74.4741 286.494 74.4741C287.103 74.4741 287.64 74.3452 288.105 74.0874C288.571 73.8296 288.94 73.5145 289.212 73.1421C289.491 72.7697 289.642 72.408 289.663 72.0571L290.512 73.0132C290.462 73.314 290.326 73.647 290.104 74.0122C289.882 74.3774 289.584 74.7284 289.212 75.0649C288.847 75.3944 288.41 75.6701 287.901 75.8921C287.4 76.1069 286.834 76.2144 286.204 76.2144C285.416 76.2144 284.725 76.0604 284.131 75.7524C283.544 75.4445 283.085 75.0327 282.756 74.5171C282.434 73.9943 282.272 73.4106 282.272 72.7661C282.272 72.1431 282.394 71.5952 282.638 71.1226C282.881 70.6427 283.232 70.2453 283.69 69.9302C284.149 69.6079 284.7 69.3644 285.345 69.1997C285.989 69.035 286.709 68.9526 287.504 68.9526H289.813ZM298.106 70.9399L293.702 64.3765H296.098L299.105 69.189H301.426L301.136 70.9399H298.106ZM299.191 70.7358L295.818 75.9995H293.305L297.935 69.2964L299.191 70.7358ZM302.446 64.3765V75.9995H300.459V64.3765H302.446ZM309.225 64.3765L304.82 70.9399H301.791L301.479 69.189H303.811L306.818 64.3765H309.225ZM307.098 75.9995L303.714 70.7358L304.992 69.2964L309.611 75.9995H307.098ZM322.362 70.8862H318.549L318.527 69.2964H321.643C322.258 69.2964 322.771 69.2355 323.179 69.1138C323.594 68.992 323.906 68.8094 324.113 68.5659C324.321 68.3224 324.425 68.0216 324.425 67.6636C324.425 67.3843 324.364 67.1408 324.242 66.9331C324.128 66.7183 323.952 66.5428 323.716 66.4067C323.479 66.2635 323.186 66.1597 322.835 66.0952C322.491 66.0236 322.087 65.9878 321.621 65.9878H319.075V75.9995H317.088V64.3765H321.621C322.359 64.3765 323.021 64.4409 323.608 64.5698C324.203 64.6987 324.708 64.8957 325.123 65.1606C325.546 65.4185 325.868 65.7479 326.09 66.1489C326.312 66.55 326.423 67.0226 326.423 67.5669C326.423 67.9178 326.351 68.2508 326.208 68.5659C326.065 68.881 325.854 69.1603 325.574 69.4038C325.295 69.6473 324.951 69.8478 324.543 70.0054C324.135 70.1558 323.666 70.2524 323.136 70.2954L322.362 70.8862ZM322.362 75.9995H317.829L318.817 74.3882H322.362C322.914 74.3882 323.372 74.3201 323.737 74.1841C324.103 74.0409 324.375 73.8403 324.554 73.5825C324.74 73.3175 324.833 73.0024 324.833 72.6372C324.833 72.272 324.74 71.9604 324.554 71.7026C324.375 71.4377 324.103 71.2371 323.737 71.1011C323.372 70.9578 322.914 70.8862 322.362 70.8862H319.344L319.365 69.2964H323.136L323.855 69.8979C324.493 69.9481 325.034 70.1056 325.478 70.3706C325.922 70.6356 326.258 70.9722 326.487 71.3804C326.716 71.7814 326.831 72.2183 326.831 72.6909C326.831 73.2352 326.727 73.715 326.52 74.1304C326.319 74.5457 326.025 74.8931 325.639 75.1724C325.252 75.4445 324.783 75.6522 324.231 75.7954C323.68 75.9315 323.057 75.9995 322.362 75.9995ZM331.128 68.3726H334.619C335.557 68.3726 336.349 68.5373 336.993 68.8667C337.638 69.189 338.125 69.6366 338.454 70.2095C338.791 70.7752 338.959 71.4198 338.959 72.1431C338.959 72.6802 338.866 73.1851 338.68 73.6577C338.493 74.1232 338.214 74.5314 337.842 74.8823C337.477 75.2332 337.022 75.509 336.478 75.7095C335.94 75.9028 335.321 75.9995 334.619 75.9995H329.678V64.3765H331.665V74.3667H334.619C335.192 74.3667 335.65 74.2629 335.994 74.0552C336.338 73.8475 336.585 73.5789 336.735 73.2495C336.886 72.9201 336.961 72.5763 336.961 72.2183C336.961 71.8674 336.886 71.5236 336.735 71.187C336.585 70.8504 336.338 70.5711 335.994 70.3491C335.65 70.12 335.192 70.0054 334.619 70.0054H331.128V68.3726ZM343.095 64.3765V75.9995H341.107V64.3765H343.095ZM354.03 59.3169H355.663C355.663 60.0187 355.556 60.5773 355.341 60.9927C355.126 61.4009 354.832 61.716 354.46 61.938C354.095 62.16 353.679 62.3283 353.214 62.4429C352.756 62.5575 352.279 62.6685 351.785 62.7759C351.169 62.9048 350.596 63.1089 350.066 63.3882C349.544 63.6603 349.092 64.047 348.713 64.5483C348.34 65.0496 348.065 65.7013 347.886 66.5034C347.714 67.3055 347.667 68.2974 347.746 69.479V70.4673H346.113V69.479C346.113 68.1541 346.239 66.9976 346.489 66.0093C346.747 65.021 347.109 64.1867 347.574 63.5063C348.04 62.826 348.591 62.2853 349.229 61.8843C349.873 61.4832 350.582 61.2075 351.355 61.0571C351.914 60.9497 352.394 60.8351 352.795 60.7134C353.196 60.5845 353.5 60.4126 353.708 60.1978C353.923 59.9829 354.03 59.6893 354.03 59.3169ZM351.678 65.0425C352.437 65.0425 353.114 65.175 353.708 65.4399C354.302 65.7049 354.807 66.0737 355.223 66.5464C355.638 67.019 355.953 67.5776 356.168 68.2222C356.39 68.8595 356.501 69.5542 356.501 70.3062V70.5425C356.501 71.3517 356.383 72.1037 356.146 72.7983C355.917 73.4858 355.577 74.0874 355.126 74.603C354.682 75.1115 354.138 75.509 353.493 75.7954C352.856 76.0819 352.129 76.2251 351.312 76.2251C350.496 76.2251 349.766 76.0819 349.121 75.7954C348.484 75.509 347.939 75.1115 347.488 74.603C347.037 74.0874 346.693 73.4858 346.457 72.7983C346.228 72.1037 346.113 71.3517 346.113 70.5425V70.3062C346.113 70.1271 346.146 69.9517 346.21 69.7798C346.274 69.6079 346.353 69.4325 346.446 69.2534C346.547 69.0744 346.636 68.8846 346.715 68.6841C346.98 68.0396 347.341 67.4416 347.8 66.8901C348.265 66.3387 348.82 65.8947 349.465 65.5581C350.117 65.2144 350.854 65.0425 351.678 65.0425ZM351.291 66.6646C350.561 66.6646 349.959 66.8328 349.486 67.1694C349.021 67.506 348.674 67.9536 348.444 68.5122C348.215 69.0636 348.101 69.6616 348.101 70.3062V70.5425C348.101 71.0868 348.165 71.6024 348.294 72.0894C348.423 72.5763 348.616 73.0096 348.874 73.3892C349.139 73.7616 349.472 74.0552 349.873 74.27C350.281 74.4849 350.761 74.5923 351.312 74.5923C351.864 74.5923 352.34 74.4849 352.741 74.27C353.142 74.0552 353.472 73.7616 353.729 73.3892C353.987 73.0096 354.181 72.5763 354.31 72.0894C354.438 71.6024 354.503 71.0868 354.503 70.5425V70.3062C354.503 69.8192 354.438 69.3573 354.31 68.9204C354.181 68.4836 353.984 68.0968 353.719 67.7603C353.461 67.4237 353.128 67.1587 352.72 66.9653C352.319 66.7648 351.842 66.6646 351.291 66.6646ZM360.551 66.6108V80.4683H358.553V64.3765H360.379L360.551 66.6108ZM368.382 70.0913V70.3169C368.382 71.1619 368.282 71.9461 368.081 72.6694C367.881 73.3856 367.587 74.0086 367.2 74.5386C366.821 75.0685 366.352 75.4803 365.793 75.7739C365.234 76.0675 364.593 76.2144 363.87 76.2144C363.132 76.2144 362.481 76.0926 361.915 75.8491C361.349 75.6056 360.869 75.2511 360.476 74.7856C360.082 74.3201 359.767 73.7616 359.53 73.1099C359.301 72.4582 359.144 71.7241 359.058 70.9077V69.7046C359.144 68.8452 359.305 68.0754 359.541 67.395C359.777 66.7147 360.089 66.1346 360.476 65.6548C360.869 65.1678 361.346 64.799 361.904 64.5483C362.463 64.2905 363.107 64.1616 363.838 64.1616C364.568 64.1616 365.216 64.3049 365.782 64.5913C366.348 64.8706 366.824 65.2716 367.211 65.7944C367.598 66.3172 367.888 66.9438 368.081 67.6743C368.282 68.3976 368.382 69.2033 368.382 70.0913ZM366.384 70.3169V70.0913C366.384 69.5112 366.323 68.967 366.201 68.4585C366.079 67.9429 365.89 67.4917 365.632 67.105C365.381 66.7111 365.059 66.4032 364.665 66.1812C364.271 65.952 363.802 65.8374 363.258 65.8374C362.757 65.8374 362.32 65.9233 361.947 66.0952C361.582 66.2671 361.271 66.4998 361.013 66.7935C360.755 67.0799 360.544 67.4093 360.379 67.7817C360.221 68.147 360.103 68.5265 360.024 68.9204V71.7026C360.168 72.2039 360.368 72.6766 360.626 73.1206C360.884 73.5575 361.228 73.9119 361.657 74.1841C362.087 74.4491 362.628 74.5815 363.279 74.5815C363.816 74.5815 364.278 74.4705 364.665 74.2485C365.059 74.0194 365.381 73.7078 365.632 73.314C365.89 72.9201 366.079 72.4689 366.201 71.9604C366.323 71.4448 366.384 70.897 366.384 70.3169ZM377.771 74.0122V68.0288C377.771 67.5705 377.677 67.173 377.491 66.8364C377.312 66.4927 377.04 66.2277 376.675 66.0415C376.31 65.8553 375.858 65.7622 375.321 65.7622C374.82 65.7622 374.38 65.8481 374 66.02C373.628 66.1919 373.334 66.4175 373.119 66.6968C372.911 66.9761 372.808 67.2769 372.808 67.5991H370.82C370.82 67.1838 370.928 66.772 371.143 66.3638C371.357 65.9556 371.665 65.5868 372.066 65.2573C372.475 64.9207 372.962 64.6558 373.527 64.4624C374.1 64.2619 374.738 64.1616 375.439 64.1616C376.285 64.1616 377.029 64.3049 377.674 64.5913C378.326 64.8778 378.834 65.311 379.199 65.8911C379.572 66.464 379.758 67.1838 379.758 68.0503V73.4644C379.758 73.8511 379.79 74.2629 379.854 74.6997C379.926 75.1366 380.03 75.5125 380.166 75.8276V75.9995H378.093C377.993 75.7703 377.914 75.466 377.856 75.0864C377.799 74.6997 377.771 74.3416 377.771 74.0122ZM378.114 68.9526L378.136 70.3491H376.127C375.561 70.3491 375.056 70.3957 374.612 70.4888C374.168 70.5747 373.796 70.7072 373.495 70.8862C373.194 71.0653 372.965 71.2909 372.808 71.563C372.65 71.828 372.571 72.1395 372.571 72.4976C372.571 72.8628 372.654 73.1958 372.818 73.4966C372.983 73.7974 373.23 74.0373 373.56 74.2163C373.896 74.3882 374.308 74.4741 374.795 74.4741C375.404 74.4741 375.941 74.3452 376.406 74.0874C376.872 73.8296 377.241 73.5145 377.513 73.1421C377.792 72.7697 377.942 72.408 377.964 72.0571L378.812 73.0132C378.762 73.314 378.626 73.647 378.404 74.0122C378.182 74.3774 377.885 74.7284 377.513 75.0649C377.147 75.3944 376.711 75.6701 376.202 75.8921C375.701 76.1069 375.135 76.2144 374.505 76.2144C373.717 76.2144 373.026 76.0604 372.432 75.7524C371.844 75.4445 371.386 75.0327 371.057 74.5171C370.734 73.9943 370.573 73.4106 370.573 72.7661C370.573 72.1431 370.695 71.5952 370.938 71.1226C371.182 70.6427 371.533 70.2453 371.991 69.9302C372.45 69.6079 373.001 69.3644 373.646 69.1997C374.29 69.035 375.01 68.9526 375.805 68.9526H378.114ZM390.769 69.4146V71.0259H384.624V69.4146H390.769ZM385.043 64.3765V75.9995H383.056V64.3765H385.043ZM392.38 64.3765V75.9995H390.382V64.3765H392.38ZM403.466 69.4146V71.0259H397.321V69.4146H403.466ZM397.74 64.3765V75.9995H395.753V64.3765H397.74ZM405.077 64.3765V75.9995H403.079V64.3765H405.077ZM409.911 68.3726H413.402C414.34 68.3726 415.132 68.5373 415.776 68.8667C416.421 69.189 416.908 69.6366 417.237 70.2095C417.574 70.7752 417.742 71.4198 417.742 72.1431C417.742 72.6802 417.649 73.1851 417.463 73.6577C417.277 74.1232 416.997 74.5314 416.625 74.8823C416.26 75.2332 415.805 75.509 415.261 75.7095C414.724 75.9028 414.104 75.9995 413.402 75.9995H408.461V64.3765H410.448V74.3667H413.402C413.975 74.3667 414.434 74.2629 414.777 74.0552C415.121 73.8475 415.368 73.5789 415.519 73.2495C415.669 72.9201 415.744 72.5763 415.744 72.2183C415.744 71.8674 415.669 71.5236 415.519 71.187C415.368 70.8504 415.121 70.5711 414.777 70.3491C414.434 70.12 413.975 70.0054 413.402 70.0054H409.911V68.3726ZM421.878 64.3765V75.9995H419.891V64.3765H421.878ZM426.701 64.3765L429.247 68.6089L431.825 64.3765H434.156L430.354 70.1128L434.274 75.9995H431.976L429.29 71.6382L426.604 75.9995H424.295L428.205 70.1128L424.413 64.3765H426.701ZM446.467 64.3765V75.9995H444.469V64.3765H446.467ZM450.366 64.3765V65.9878H440.645V64.3765H450.366ZM451.344 70.3169V70.0698C451.344 69.2319 451.465 68.4549 451.709 67.7388C451.952 67.0155 452.303 66.3888 452.762 65.8589C453.22 65.3218 453.775 64.9064 454.427 64.6128C455.078 64.312 455.809 64.1616 456.618 64.1616C457.435 64.1616 458.169 64.312 458.82 64.6128C459.479 64.9064 460.038 65.3218 460.496 65.8589C460.962 66.3888 461.316 67.0155 461.56 67.7388C461.803 68.4549 461.925 69.2319 461.925 70.0698V70.3169C461.925 71.1548 461.803 71.9318 461.56 72.6479C461.316 73.3641 460.962 73.9907 460.496 74.5278C460.038 75.0578 459.483 75.4731 458.831 75.7739C458.187 76.0675 457.456 76.2144 456.64 76.2144C455.823 76.2144 455.089 76.0675 454.438 75.7739C453.786 75.4731 453.227 75.0578 452.762 74.5278C452.303 73.9907 451.952 73.3641 451.709 72.6479C451.465 71.9318 451.344 71.1548 451.344 70.3169ZM453.331 70.0698V70.3169C453.331 70.897 453.399 71.4448 453.535 71.9604C453.671 72.4689 453.875 72.9201 454.147 73.314C454.427 73.7078 454.774 74.0194 455.189 74.2485C455.605 74.4705 456.088 74.5815 456.64 74.5815C457.184 74.5815 457.66 74.4705 458.068 74.2485C458.484 74.0194 458.827 73.7078 459.1 73.314C459.372 72.9201 459.576 72.4689 459.712 71.9604C459.855 71.4448 459.927 70.897 459.927 70.3169V70.0698C459.927 69.4969 459.855 68.9562 459.712 68.4478C459.576 67.9321 459.368 67.4774 459.089 67.0835C458.817 66.6825 458.473 66.3674 458.058 66.1382C457.649 65.909 457.17 65.7944 456.618 65.7944C456.074 65.7944 455.594 65.909 455.179 66.1382C454.771 66.3674 454.427 66.6825 454.147 67.0835C453.875 67.4774 453.671 67.9321 453.535 68.4478C453.399 68.9562 453.331 69.4969 453.331 70.0698ZM469.874 70.8862H466.061L466.039 69.2964H469.154C469.77 69.2964 470.282 69.2355 470.69 69.1138C471.106 68.992 471.417 68.8094 471.625 68.5659C471.833 68.3224 471.937 68.0216 471.937 67.6636C471.937 67.3843 471.876 67.1408 471.754 66.9331C471.639 66.7183 471.464 66.5428 471.228 66.4067C470.991 66.2635 470.698 66.1597 470.347 66.0952C470.003 66.0236 469.598 65.9878 469.133 65.9878H466.587V75.9995H464.6V64.3765H469.133C469.87 64.3765 470.533 64.4409 471.12 64.5698C471.715 64.6987 472.219 64.8957 472.635 65.1606C473.057 65.4185 473.38 65.7479 473.602 66.1489C473.824 66.55 473.935 67.0226 473.935 67.5669C473.935 67.9178 473.863 68.2508 473.72 68.5659C473.576 68.881 473.365 69.1603 473.086 69.4038C472.807 69.6473 472.463 69.8478 472.055 70.0054C471.646 70.1558 471.177 70.2524 470.647 70.2954L469.874 70.8862ZM469.874 75.9995H465.341L466.329 74.3882H469.874C470.425 74.3882 470.884 74.3201 471.249 74.1841C471.614 74.0409 471.886 73.8403 472.065 73.5825C472.252 73.3175 472.345 73.0024 472.345 72.6372C472.345 72.272 472.252 71.9604 472.065 71.7026C471.886 71.4377 471.614 71.2371 471.249 71.1011C470.884 70.9578 470.425 70.8862 469.874 70.8862H466.855L466.877 69.2964H470.647L471.367 69.8979C472.005 69.9481 472.545 70.1056 472.989 70.3706C473.433 70.6356 473.77 70.9722 473.999 71.3804C474.228 71.7814 474.343 72.2183 474.343 72.6909C474.343 73.2352 474.239 73.715 474.031 74.1304C473.831 74.5457 473.537 74.8931 473.15 75.1724C472.764 75.4445 472.295 75.6522 471.743 75.7954C471.192 75.9315 470.569 75.9995 469.874 75.9995ZM483.86 74.0122V68.0288C483.86 67.5705 483.767 67.173 483.581 66.8364C483.402 66.4927 483.13 66.2277 482.765 66.0415C482.399 65.8553 481.948 65.7622 481.411 65.7622C480.91 65.7622 480.469 65.8481 480.09 66.02C479.717 66.1919 479.424 66.4175 479.209 66.6968C479.001 66.9761 478.897 67.2769 478.897 67.5991H476.91C476.91 67.1838 477.018 66.772 477.232 66.3638C477.447 65.9556 477.755 65.5868 478.156 65.2573C478.564 64.9207 479.051 64.6558 479.617 64.4624C480.19 64.2619 480.827 64.1616 481.529 64.1616C482.374 64.1616 483.119 64.3049 483.764 64.5913C484.415 64.8778 484.924 65.311 485.289 65.8911C485.661 66.464 485.848 67.1838 485.848 68.0503V73.4644C485.848 73.8511 485.88 74.2629 485.944 74.6997C486.016 75.1366 486.12 75.5125 486.256 75.8276V75.9995H484.183C484.082 75.7703 484.004 75.466 483.946 75.0864C483.889 74.6997 483.86 74.3416 483.86 74.0122ZM484.204 68.9526L484.226 70.3491H482.217C481.651 70.3491 481.146 70.3957 480.702 70.4888C480.258 70.5747 479.886 70.7072 479.585 70.8862C479.284 71.0653 479.055 71.2909 478.897 71.563C478.74 71.828 478.661 72.1395 478.661 72.4976C478.661 72.8628 478.743 73.1958 478.908 73.4966C479.073 73.7974 479.32 74.0373 479.649 74.2163C479.986 74.3882 480.398 74.4741 480.885 74.4741C481.493 74.4741 482.031 74.3452 482.496 74.0874C482.962 73.8296 483.33 73.5145 483.603 73.1421C483.882 72.7697 484.032 72.408 484.054 72.0571L484.902 73.0132C484.852 73.314 484.716 73.647 484.494 74.0122C484.272 74.3774 483.975 74.7284 483.603 75.0649C483.237 75.3944 482.8 75.6701 482.292 75.8921C481.791 76.1069 481.225 76.2144 480.595 76.2144C479.807 76.2144 479.116 76.0604 478.521 75.7524C477.934 75.4445 477.476 75.0327 477.146 74.5171C476.824 73.9943 476.663 73.4106 476.663 72.7661C476.663 72.1431 476.785 71.5952 477.028 71.1226C477.272 70.6427 477.623 70.2453 478.081 69.9302C478.539 69.6079 479.091 69.3644 479.735 69.1997C480.38 69.035 481.1 68.9526 481.895 68.9526H484.204ZM490.961 66.6108V80.4683H488.963V64.3765H490.789L490.961 66.6108ZM498.792 70.0913V70.3169C498.792 71.1619 498.692 71.9461 498.491 72.6694C498.291 73.3856 497.997 74.0086 497.61 74.5386C497.231 75.0685 496.762 75.4803 496.203 75.7739C495.645 76.0675 495.004 76.2144 494.28 76.2144C493.543 76.2144 492.891 76.0926 492.325 75.8491C491.759 75.6056 491.28 75.2511 490.886 74.7856C490.492 74.3201 490.177 73.7616 489.94 73.1099C489.711 72.4582 489.554 71.7241 489.468 70.9077V69.7046C489.554 68.8452 489.715 68.0754 489.951 67.395C490.188 66.7147 490.499 66.1346 490.886 65.6548C491.28 65.1678 491.756 64.799 492.314 64.5483C492.873 64.2905 493.518 64.1616 494.248 64.1616C494.979 64.1616 495.627 64.3049 496.192 64.5913C496.758 64.8706 497.234 65.2716 497.621 65.7944C498.008 66.3172 498.298 66.9438 498.491 67.6743C498.692 68.3976 498.792 69.2033 498.792 70.0913ZM496.794 70.3169V70.0913C496.794 69.5112 496.733 68.967 496.611 68.4585C496.49 67.9429 496.3 67.4917 496.042 67.105C495.791 66.7111 495.469 66.4032 495.075 66.1812C494.681 65.952 494.212 65.8374 493.668 65.8374C493.167 65.8374 492.73 65.9233 492.357 66.0952C491.992 66.2671 491.681 66.4998 491.423 66.7935C491.165 67.0799 490.954 67.4093 490.789 67.7817C490.632 68.147 490.513 68.5265 490.435 68.9204V71.7026C490.578 72.2039 490.778 72.6766 491.036 73.1206C491.294 73.5575 491.638 73.9119 492.067 74.1841C492.497 74.4491 493.038 74.5815 493.689 74.5815C494.227 74.5815 494.688 74.4705 495.075 74.2485C495.469 74.0194 495.791 73.7078 496.042 73.314C496.3 72.9201 496.49 72.4689 496.611 71.9604C496.733 71.4448 496.794 70.897 496.794 70.3169ZM500.801 70.3169V70.0698C500.801 69.2319 500.923 68.4549 501.166 67.7388C501.41 67.0155 501.76 66.3888 502.219 65.8589C502.677 65.3218 503.232 64.9064 503.884 64.6128C504.535 64.312 505.266 64.1616 506.075 64.1616C506.892 64.1616 507.626 64.312 508.277 64.6128C508.936 64.9064 509.495 65.3218 509.953 65.8589C510.419 66.3888 510.773 67.0155 511.017 67.7388C511.26 68.4549 511.382 69.2319 511.382 70.0698V70.3169C511.382 71.1548 511.26 71.9318 511.017 72.6479C510.773 73.3641 510.419 73.9907 509.953 74.5278C509.495 75.0578 508.94 75.4731 508.288 75.7739C507.644 76.0675 506.913 76.2144 506.097 76.2144C505.28 76.2144 504.546 76.0675 503.895 75.7739C503.243 75.4731 502.684 75.0578 502.219 74.5278C501.76 73.9907 501.41 73.3641 501.166 72.6479C500.923 71.9318 500.801 71.1548 500.801 70.3169ZM502.788 70.0698V70.3169C502.788 70.897 502.856 71.4448 502.992 71.9604C503.128 72.4689 503.332 72.9201 503.604 73.314C503.884 73.7078 504.231 74.0194 504.646 74.2485C505.062 74.4705 505.545 74.5815 506.097 74.5815C506.641 74.5815 507.117 74.4705 507.525 74.2485C507.941 74.0194 508.285 73.7078 508.557 73.314C508.829 72.9201 509.033 72.4689 509.169 71.9604C509.312 71.4448 509.384 70.897 509.384 70.3169V70.0698C509.384 69.4969 509.312 68.9562 509.169 68.4478C509.033 67.9321 508.825 67.4774 508.546 67.0835C508.274 66.6825 507.93 66.3674 507.515 66.1382C507.106 65.909 506.627 65.7944 506.075 65.7944C505.531 65.7944 505.051 65.909 504.636 66.1382C504.228 66.3674 503.884 66.6825 503.604 67.0835C503.332 67.4774 503.128 67.9321 502.992 68.4478C502.856 68.9562 502.788 69.4969 502.788 70.0698ZM519.331 70.8862H515.518L515.496 69.2964H518.611C519.227 69.2964 519.739 69.2355 520.147 69.1138C520.563 68.992 520.874 68.8094 521.082 68.5659C521.29 68.3224 521.394 68.0216 521.394 67.6636C521.394 67.3843 521.333 67.1408 521.211 66.9331C521.096 66.7183 520.921 66.5428 520.685 66.4067C520.448 66.2635 520.155 66.1597 519.804 66.0952C519.46 66.0236 519.055 65.9878 518.59 65.9878H516.044V75.9995H514.057V64.3765H518.59C519.327 64.3765 519.99 64.4409 520.577 64.5698C521.172 64.6987 521.676 64.8957 522.092 65.1606C522.514 65.4185 522.837 65.7479 523.059 66.1489C523.281 66.55 523.392 67.0226 523.392 67.5669C523.392 67.9178 523.32 68.2508 523.177 68.5659C523.034 68.881 522.822 69.1603 522.543 69.4038C522.264 69.6473 521.92 69.8478 521.512 70.0054C521.104 70.1558 520.634 70.2524 520.104 70.2954L519.331 70.8862ZM519.331 75.9995H514.798L515.786 74.3882H519.331C519.882 74.3882 520.341 74.3201 520.706 74.1841C521.071 74.0409 521.343 73.8403 521.522 73.5825C521.709 73.3175 521.802 73.0024 521.802 72.6372C521.802 72.272 521.709 71.9604 521.522 71.7026C521.343 71.4377 521.071 71.2371 520.706 71.1011C520.341 70.9578 519.882 70.8862 519.331 70.8862H516.312L516.334 69.2964H520.104L520.824 69.8979C521.462 69.9481 522.002 70.1056 522.446 70.3706C522.89 70.6356 523.227 70.9722 523.456 71.3804C523.685 71.7814 523.8 72.2183 523.8 72.6909C523.8 73.2352 523.696 73.715 523.488 74.1304C523.288 74.5457 522.994 74.8931 522.607 75.1724C522.221 75.4445 521.752 75.6522 521.2 75.7954C520.649 75.9315 520.026 75.9995 519.331 75.9995Z" fill="black"/>
<defs>
<filter id="filter0_d_822_2142" x="0.0517578" y="5.08569" width="106.19" height="106.163" filterUnits="userSpaceOnUse" color-interpolation-filters="sRGB">
<feFlood flood-opacity="0" result="BackgroundImageFix"/>
<feColorMatrix in="SourceAlpha" type="matrix" values="0 0 0 0 0 0 0 0 0 0 0 0 0 0 0 0 0 0 127 0" result="hardAlpha"/>
<feOffset/>
<feGaussianBlur stdDeviation="12"/>
<feComposite in2="hardAlpha" operator="out"/>
<feColorMatrix type="matrix" values="0 0 0 0 0.579167 0 0 0 0 0.579167 0 0 0 0 0.579167 0 0 0 0.3 0"/>
<feBlend mode="normal" in2="BackgroundImageFix" result="effect1_dropShadow_822_2142"/>
<feBlend mode="normal" in="SourceGraphic" in2="effect1_dropShadow_822_2142" result="shape"/>
</filter>
</defs>
</svg>
