<svg width="346" height="85" viewBox="0 0 346 85" fill="none" xmlns="http://www.w3.org/2000/svg">
<g filter="url(#filter0_d_830_2162)">
<path d="M316.5 54.8467C323.404 47.9431 323.404 36.7502 316.5 29.8467C309.596 22.9431 298.404 22.9431 291.5 29.8467C284.596 36.7502 284.596 47.9431 291.5 54.8467C298.404 61.7502 309.596 61.7502 316.5 54.8467Z" fill="white"/>
</g>
<path d="M309.525 42.3448C309.529 43.392 309.222 44.4166 308.643 45.2895C308.065 46.1624 307.241 46.8445 306.275 47.2497C305.31 47.655 304.246 47.7652 303.218 47.5665C302.19 47.3678 301.243 46.8691 300.498 46.1333C299.753 45.3975 299.243 44.4575 299.031 43.4319C298.82 42.4064 298.917 41.3411 299.31 40.3706C299.703 39.4001 300.375 38.5677 301.241 37.9785C302.106 37.3892 303.127 37.0696 304.174 37.0597C304.874 37.051 305.568 37.1812 306.217 37.4429C306.866 37.7045 307.456 38.0924 307.954 38.5841C308.452 39.0757 308.847 39.6613 309.117 40.3069C309.387 40.9525 309.525 41.6452 309.525 42.3448Z" fill="#00A3FF"/>
<path d="M304.24 44.4156C305.383 44.4156 306.311 43.4884 306.311 42.3446C306.311 41.2009 305.383 40.2737 304.24 40.2737C303.096 40.2737 302.169 41.2009 302.169 42.3446C302.169 43.4884 303.096 44.4156 304.24 44.4156Z" fill="white"/>
<path d="M53.0456 60.0199C62.811 50.2591 62.811 34.4338 53.0455 24.673C43.2801 14.9122 27.4473 14.9121 17.6819 24.6729C7.91646 34.4337 7.91643 50.2591 17.6819 60.0199C27.4473 69.7807 43.2802 69.7807 53.0456 60.0199Z" fill="#00A3FF"/>
<path d="M25.6265 34.1882H28.7515V51.6931H25.0039V38.949H22.001V36.5686C22.5381 36.5035 23.0304 36.3774 23.478 36.1902C23.9256 35.9949 24.2715 35.7874 24.5156 35.5676C24.7679 35.3479 24.9795 35.1363 25.1504 34.9329C25.3294 34.7213 25.4556 34.5422 25.5288 34.3958L25.6265 34.1882ZM37.2476 38.6926C36.507 39.6936 36.1367 41.1096 36.1367 42.9407C36.1367 44.7717 36.507 46.1877 37.2476 47.1887C37.9881 48.1897 38.867 48.6902 39.8843 48.6902C40.9015 48.6902 41.7804 48.1897 42.521 47.1887C43.2616 46.1877 43.6318 44.7717 43.6318 42.9407C43.6318 41.1096 43.2616 39.6936 42.521 38.6926C41.7804 37.6917 40.9015 37.1912 39.8843 37.1912C38.867 37.1912 37.9881 37.6917 37.2476 38.6926ZM45.1943 36.3367C46.651 38.005 47.3794 40.2063 47.3794 42.9407C47.3794 45.675 46.651 47.8805 45.1943 49.5569C43.7376 51.2333 41.9676 52.0715 39.8843 52.0715C37.8009 52.0715 36.0309 51.2333 34.5742 49.5569C33.1175 47.8805 32.3892 45.675 32.3892 42.9407C32.3892 40.2063 33.1175 38.005 34.5742 36.3367C36.0309 34.6602 37.8009 33.822 39.8843 33.822C41.9676 33.822 43.7376 34.6602 45.1943 36.3367Z" fill="white"/>
<path d="M114.703 28.3447H112.181L112.167 27.2852H114.457C114.835 27.2852 115.166 27.2214 115.448 27.0938C115.731 26.9661 115.95 26.7839 116.104 26.5469C116.264 26.3053 116.344 26.0182 116.344 25.6855C116.344 25.321 116.273 25.0247 116.132 24.7969C115.995 24.5645 115.783 24.3958 115.496 24.291C115.214 24.1816 114.854 24.127 114.416 24.127H112.475V33H111.155V23.0469H114.416C114.926 23.0469 115.382 23.0993 115.783 23.2041C116.184 23.3044 116.524 23.4639 116.802 23.6826C117.084 23.8968 117.299 24.1702 117.444 24.5029C117.59 24.8356 117.663 25.2344 117.663 25.6992C117.663 26.1094 117.558 26.4808 117.349 26.8135C117.139 27.1416 116.847 27.4105 116.474 27.6201C116.104 27.8298 115.672 27.9642 115.175 28.0234L114.703 28.3447ZM114.642 33H111.661L112.406 31.9268H114.642C115.061 31.9268 115.416 31.8538 115.708 31.708C116.004 31.5622 116.23 31.3571 116.385 31.0928C116.54 30.8239 116.617 30.5072 116.617 30.1426C116.617 29.7734 116.551 29.4544 116.419 29.1855C116.287 28.9167 116.079 28.7093 115.797 28.5635C115.514 28.4176 115.15 28.3447 114.703 28.3447H112.823L112.837 27.2852H115.407L115.688 27.668C116.166 27.709 116.572 27.8457 116.904 28.0781C117.237 28.306 117.49 28.5977 117.663 28.9531C117.841 29.3086 117.93 29.7005 117.93 30.1289C117.93 30.7487 117.793 31.2728 117.52 31.7012C117.251 32.125 116.87 32.4486 116.378 32.6719C115.886 32.8906 115.307 33 114.642 33ZM120.726 28.1465H122.947C123.544 28.1465 124.048 28.2513 124.458 28.4609C124.868 28.666 125.178 28.9508 125.388 29.3154C125.602 29.6755 125.709 30.0856 125.709 30.5459C125.709 30.8877 125.65 31.209 125.531 31.5098C125.413 31.806 125.235 32.0658 124.998 32.2891C124.766 32.5124 124.476 32.6878 124.13 32.8154C123.788 32.9385 123.394 33 122.947 33H119.803V25.6035H121.067V31.9609H122.947C123.312 31.9609 123.604 31.8949 123.822 31.7627C124.041 31.6305 124.198 31.4596 124.294 31.25C124.39 31.0404 124.438 30.8216 124.438 30.5938C124.438 30.3704 124.39 30.1517 124.294 29.9375C124.198 29.7233 124.041 29.5456 123.822 29.4043C123.604 29.2585 123.312 29.1855 122.947 29.1855H120.726V28.1465ZM128.341 25.6035V33H127.076V25.6035H128.341ZM134.028 29.7461H131.602L131.588 28.7344H133.57C133.962 28.7344 134.288 28.6956 134.548 28.6182C134.812 28.5407 135.01 28.4245 135.143 28.2695C135.275 28.1146 135.341 27.9232 135.341 27.6953C135.341 27.5176 135.302 27.3626 135.225 27.2305C135.152 27.0938 135.04 26.9821 134.89 26.8955C134.739 26.8044 134.552 26.7383 134.329 26.6973C134.11 26.6517 133.853 26.6289 133.557 26.6289H131.937V33H130.672V25.6035H133.557C134.026 25.6035 134.448 25.6445 134.821 25.7266C135.2 25.8086 135.521 25.9339 135.785 26.1025C136.054 26.2666 136.259 26.4762 136.4 26.7314C136.542 26.9867 136.612 27.2874 136.612 27.6338C136.612 27.8571 136.567 28.069 136.476 28.2695C136.384 28.4701 136.25 28.6478 136.072 28.8027C135.895 28.9577 135.676 29.0853 135.416 29.1855C135.156 29.2812 134.858 29.3428 134.521 29.3701L134.028 29.7461ZM134.028 33H131.144L131.772 31.9746H134.028C134.379 31.9746 134.671 31.9313 134.903 31.8447C135.136 31.7536 135.309 31.626 135.423 31.4619C135.541 31.2933 135.601 31.0928 135.601 30.8604C135.601 30.6279 135.541 30.4297 135.423 30.2656C135.309 30.097 135.136 29.9694 134.903 29.8828C134.671 29.7917 134.379 29.7461 134.028 29.7461H132.107L132.121 28.7344H134.521L134.979 29.1172C135.384 29.1491 135.728 29.2493 136.011 29.418C136.293 29.5866 136.507 29.8008 136.653 30.0605C136.799 30.3158 136.872 30.5938 136.872 30.8945C136.872 31.2409 136.806 31.5462 136.674 31.8105C136.546 32.0749 136.359 32.2959 136.113 32.4736C135.867 32.6468 135.569 32.779 135.218 32.8701C134.867 32.9567 134.47 33 134.028 33ZM138.232 29.3838V29.2266C138.232 28.6934 138.31 28.1989 138.465 27.7432C138.62 27.2829 138.843 26.8841 139.135 26.5469C139.426 26.2051 139.78 25.9408 140.194 25.7539C140.609 25.5625 141.074 25.4668 141.589 25.4668C142.108 25.4668 142.576 25.5625 142.99 25.7539C143.41 25.9408 143.765 26.2051 144.057 26.5469C144.353 26.8841 144.578 27.2829 144.733 27.7432C144.888 28.1989 144.966 28.6934 144.966 29.2266V29.3838C144.966 29.917 144.888 30.4115 144.733 30.8672C144.578 31.3229 144.353 31.7217 144.057 32.0635C143.765 32.4007 143.412 32.665 142.997 32.8564C142.587 33.0433 142.122 33.1367 141.603 33.1367C141.083 33.1367 140.616 33.0433 140.201 32.8564C139.786 32.665 139.431 32.4007 139.135 32.0635C138.843 31.7217 138.62 31.3229 138.465 30.8672C138.31 30.4115 138.232 29.917 138.232 29.3838ZM139.497 29.2266V29.3838C139.497 29.7529 139.54 30.1016 139.627 30.4297C139.714 30.7533 139.843 31.0404 140.017 31.291C140.194 31.5417 140.415 31.7399 140.68 31.8857C140.944 32.027 141.252 32.0977 141.603 32.0977C141.949 32.0977 142.252 32.027 142.512 31.8857C142.776 31.7399 142.995 31.5417 143.168 31.291C143.341 31.0404 143.471 30.7533 143.558 30.4297C143.649 30.1016 143.694 29.7529 143.694 29.3838V29.2266C143.694 28.862 143.649 28.5179 143.558 28.1943C143.471 27.8662 143.339 27.5768 143.161 27.3262C142.988 27.071 142.769 26.8704 142.505 26.7246C142.245 26.5788 141.94 26.5059 141.589 26.5059C141.243 26.5059 140.937 26.5788 140.673 26.7246C140.413 26.8704 140.194 27.071 140.017 27.3262C139.843 27.5768 139.714 27.8662 139.627 28.1943C139.54 28.5179 139.497 28.862 139.497 29.2266ZM147.393 25.6035H148.657L148.548 28.3721C148.521 29.0739 148.441 29.68 148.309 30.1904C148.176 30.7008 148.008 31.1361 147.803 31.4961C147.598 31.8516 147.368 32.1501 147.112 32.3916C146.862 32.6331 146.602 32.8359 146.333 33H145.704L145.738 31.9678L145.998 31.9609C146.148 31.7832 146.294 31.6009 146.436 31.4141C146.577 31.2227 146.707 30.9971 146.825 30.7373C146.944 30.473 147.042 30.1517 147.119 29.7734C147.201 29.3906 147.254 28.9235 147.276 28.3721L147.393 25.6035ZM147.707 25.6035H152.157V33H150.893V26.7725H147.707V25.6035ZM145.417 31.9609H153.107V35.1807H151.843V33H146.682V35.1807H145.41L145.417 31.9609ZM160.996 25.6035V33H159.725V25.6035H160.996ZM163.478 25.6035V26.6289H157.291V25.6035H163.478ZM164.1 29.3838V29.2266C164.1 28.6934 164.177 28.1989 164.332 27.7432C164.487 27.2829 164.71 26.8841 165.002 26.5469C165.294 26.2051 165.647 25.9408 166.062 25.7539C166.476 25.5625 166.941 25.4668 167.456 25.4668C167.976 25.4668 168.443 25.5625 168.857 25.7539C169.277 25.9408 169.632 26.2051 169.924 26.5469C170.22 26.8841 170.446 27.2829 170.601 27.7432C170.756 28.1989 170.833 28.6934 170.833 29.2266V29.3838C170.833 29.917 170.756 30.4115 170.601 30.8672C170.446 31.3229 170.22 31.7217 169.924 32.0635C169.632 32.4007 169.279 32.665 168.864 32.8564C168.454 33.0433 167.989 33.1367 167.47 33.1367C166.95 33.1367 166.483 33.0433 166.068 32.8564C165.654 32.665 165.298 32.4007 165.002 32.0635C164.71 31.7217 164.487 31.3229 164.332 30.8672C164.177 30.4115 164.1 29.917 164.1 29.3838ZM165.364 29.2266V29.3838C165.364 29.7529 165.408 30.1016 165.494 30.4297C165.581 30.7533 165.711 31.0404 165.884 31.291C166.062 31.5417 166.283 31.7399 166.547 31.8857C166.811 32.027 167.119 32.0977 167.47 32.0977C167.816 32.0977 168.119 32.027 168.379 31.8857C168.643 31.7399 168.862 31.5417 169.035 31.291C169.208 31.0404 169.338 30.7533 169.425 30.4297C169.516 30.1016 169.562 29.7529 169.562 29.3838V29.2266C169.562 28.862 169.516 28.5179 169.425 28.1943C169.338 27.8662 169.206 27.5768 169.028 27.3262C168.855 27.071 168.636 26.8704 168.372 26.7246C168.112 26.5788 167.807 26.5059 167.456 26.5059C167.11 26.5059 166.804 26.5788 166.54 26.7246C166.28 26.8704 166.062 27.071 165.884 27.3262C165.711 27.5768 165.581 27.8662 165.494 28.1943C165.408 28.5179 165.364 28.862 165.364 29.2266ZM175.892 29.7461H173.465L173.451 28.7344H175.434C175.826 28.7344 176.151 28.6956 176.411 28.6182C176.675 28.5407 176.874 28.4245 177.006 28.2695C177.138 28.1146 177.204 27.9232 177.204 27.6953C177.204 27.5176 177.165 27.3626 177.088 27.2305C177.015 27.0938 176.903 26.9821 176.753 26.8955C176.603 26.8044 176.416 26.7383 176.192 26.6973C175.974 26.6517 175.716 26.6289 175.42 26.6289H173.8V33H172.535V25.6035H175.42C175.889 25.6035 176.311 25.6445 176.685 25.7266C177.063 25.8086 177.384 25.9339 177.648 26.1025C177.917 26.2666 178.122 26.4762 178.264 26.7314C178.405 26.9867 178.476 27.2874 178.476 27.6338C178.476 27.8571 178.43 28.069 178.339 28.2695C178.248 28.4701 178.113 28.6478 177.936 28.8027C177.758 28.9577 177.539 29.0853 177.279 29.1855C177.02 29.2812 176.721 29.3428 176.384 29.3701L175.892 29.7461ZM175.892 33H173.007L173.636 31.9746H175.892C176.243 31.9746 176.534 31.9313 176.767 31.8447C176.999 31.7536 177.172 31.626 177.286 31.4619C177.405 31.2933 177.464 31.0928 177.464 30.8604C177.464 30.6279 177.405 30.4297 177.286 30.2656C177.172 30.097 176.999 29.9694 176.767 29.8828C176.534 29.7917 176.243 29.7461 175.892 29.7461H173.971L173.984 28.7344H176.384L176.842 29.1172C177.247 29.1491 177.591 29.2493 177.874 29.418C178.157 29.5866 178.371 29.8008 178.517 30.0605C178.662 30.3158 178.735 30.5938 178.735 30.8945C178.735 31.2409 178.669 31.5462 178.537 31.8105C178.41 32.0749 178.223 32.2959 177.977 32.4736C177.73 32.6468 177.432 32.779 177.081 32.8701C176.73 32.9567 176.334 33 175.892 33ZM184.792 31.7354V27.9277C184.792 27.6361 184.733 27.3831 184.614 27.1689C184.5 26.9502 184.327 26.7816 184.095 26.6631C183.862 26.5446 183.575 26.4854 183.233 26.4854C182.914 26.4854 182.634 26.54 182.393 26.6494C182.156 26.7588 181.969 26.9023 181.832 27.0801C181.7 27.2578 181.634 27.4492 181.634 27.6543H180.369C180.369 27.39 180.438 27.1279 180.574 26.8682C180.711 26.6084 180.907 26.3737 181.162 26.1641C181.422 25.9499 181.732 25.7812 182.092 25.6582C182.456 25.5306 182.862 25.4668 183.309 25.4668C183.846 25.4668 184.32 25.5579 184.73 25.7402C185.145 25.9225 185.469 26.1982 185.701 26.5674C185.938 26.932 186.057 27.39 186.057 27.9414V31.3867C186.057 31.6328 186.077 31.8949 186.118 32.1729C186.164 32.4508 186.23 32.6901 186.316 32.8906V33H184.997C184.933 32.8542 184.883 32.6605 184.847 32.4189C184.81 32.1729 184.792 31.945 184.792 31.7354ZM185.011 28.5156L185.024 29.4043H183.746C183.386 29.4043 183.065 29.4339 182.782 29.4932C182.5 29.5479 182.263 29.6322 182.071 29.7461C181.88 29.86 181.734 30.0036 181.634 30.1768C181.534 30.3454 181.483 30.5436 181.483 30.7715C181.483 31.0039 181.536 31.2158 181.641 31.4072C181.745 31.5986 181.903 31.7513 182.112 31.8652C182.326 31.9746 182.589 32.0293 182.898 32.0293C183.286 32.0293 183.628 31.9473 183.924 31.7832C184.22 31.6191 184.455 31.4186 184.628 31.1816C184.806 30.9447 184.901 30.7145 184.915 30.4912L185.455 31.0996C185.423 31.291 185.337 31.5029 185.195 31.7354C185.054 31.9678 184.865 32.1911 184.628 32.4053C184.396 32.6149 184.118 32.7904 183.794 32.9316C183.475 33.0684 183.115 33.1367 182.714 33.1367C182.213 33.1367 181.773 33.0387 181.395 32.8428C181.021 32.6468 180.729 32.3848 180.52 32.0566C180.314 31.724 180.212 31.3525 180.212 30.9424C180.212 30.5459 180.289 30.1973 180.444 29.8965C180.599 29.5911 180.823 29.3382 181.114 29.1377C181.406 28.9326 181.757 28.7777 182.167 28.6729C182.577 28.568 183.035 28.5156 183.541 28.5156H185.011ZM189.311 27.0254V35.8438H188.039V25.6035H189.201L189.311 27.0254ZM194.294 29.2402V29.3838C194.294 29.9215 194.23 30.4206 194.103 30.8809C193.975 31.3366 193.788 31.7331 193.542 32.0703C193.3 32.4076 193.002 32.6696 192.646 32.8564C192.291 33.0433 191.883 33.1367 191.423 33.1367C190.953 33.1367 190.539 33.0592 190.179 32.9043C189.819 32.7493 189.513 32.5238 189.263 32.2275C189.012 31.9313 188.812 31.5758 188.661 31.1611C188.515 30.7464 188.415 30.2793 188.36 29.7598V28.9941C188.415 28.4473 188.518 27.9574 188.668 27.5244C188.818 27.0915 189.017 26.7223 189.263 26.417C189.513 26.1071 189.816 25.8724 190.172 25.7129C190.527 25.5488 190.938 25.4668 191.402 25.4668C191.867 25.4668 192.28 25.5579 192.64 25.7402C193 25.918 193.303 26.1732 193.549 26.5059C193.795 26.8385 193.979 27.2373 194.103 27.7021C194.23 28.1624 194.294 28.6751 194.294 29.2402ZM193.022 29.3838V29.2402C193.022 28.8711 192.984 28.5247 192.906 28.2012C192.829 27.873 192.708 27.5859 192.544 27.3398C192.384 27.0892 192.179 26.8932 191.929 26.752C191.678 26.6061 191.38 26.5332 191.033 26.5332C190.714 26.5332 190.436 26.5879 190.199 26.6973C189.967 26.8066 189.769 26.9548 189.604 27.1416C189.44 27.3239 189.306 27.5335 189.201 27.7705C189.101 28.0029 189.026 28.2445 188.976 28.4951V30.2656C189.067 30.5846 189.194 30.8854 189.358 31.168C189.522 31.446 189.741 31.6715 190.015 31.8447C190.288 32.0133 190.632 32.0977 191.047 32.0977C191.389 32.0977 191.683 32.027 191.929 31.8857C192.179 31.7399 192.384 31.5417 192.544 31.291C192.708 31.0404 192.829 30.7533 192.906 30.4297C192.984 30.1016 193.022 29.7529 193.022 29.3838ZM195.572 29.3838V29.2266C195.572 28.6934 195.65 28.1989 195.805 27.7432C195.96 27.2829 196.183 26.8841 196.475 26.5469C196.766 26.2051 197.119 25.9408 197.534 25.7539C197.949 25.5625 198.414 25.4668 198.929 25.4668C199.448 25.4668 199.915 25.5625 200.33 25.7539C200.749 25.9408 201.105 26.2051 201.396 26.5469C201.693 26.8841 201.918 27.2829 202.073 27.7432C202.228 28.1989 202.306 28.6934 202.306 29.2266V29.3838C202.306 29.917 202.228 30.4115 202.073 30.8672C201.918 31.3229 201.693 31.7217 201.396 32.0635C201.105 32.4007 200.752 32.665 200.337 32.8564C199.927 33.0433 199.462 33.1367 198.942 33.1367C198.423 33.1367 197.956 33.0433 197.541 32.8564C197.126 32.665 196.771 32.4007 196.475 32.0635C196.183 31.7217 195.96 31.3229 195.805 30.8672C195.65 30.4115 195.572 29.917 195.572 29.3838ZM196.837 29.2266V29.3838C196.837 29.7529 196.88 30.1016 196.967 30.4297C197.053 30.7533 197.183 31.0404 197.356 31.291C197.534 31.5417 197.755 31.7399 198.02 31.8857C198.284 32.027 198.591 32.0977 198.942 32.0977C199.289 32.0977 199.592 32.027 199.852 31.8857C200.116 31.7399 200.335 31.5417 200.508 31.291C200.681 31.0404 200.811 30.7533 200.897 30.4297C200.989 30.1016 201.034 29.7529 201.034 29.3838V29.2266C201.034 28.862 200.989 28.5179 200.897 28.1943C200.811 27.8662 200.679 27.5768 200.501 27.3262C200.328 27.071 200.109 26.8704 199.845 26.7246C199.585 26.5788 199.28 26.5059 198.929 26.5059C198.582 26.5059 198.277 26.5788 198.013 26.7246C197.753 26.8704 197.534 27.071 197.356 27.3262C197.183 27.5768 197.053 27.8662 196.967 28.1943C196.88 28.5179 196.837 28.862 196.837 29.2266ZM207.364 29.7461H204.938L204.924 28.7344H206.906C207.298 28.7344 207.624 28.6956 207.884 28.6182C208.148 28.5407 208.346 28.4245 208.479 28.2695C208.611 28.1146 208.677 27.9232 208.677 27.6953C208.677 27.5176 208.638 27.3626 208.561 27.2305C208.488 27.0938 208.376 26.9821 208.226 26.8955C208.075 26.8044 207.888 26.7383 207.665 26.6973C207.446 26.6517 207.189 26.6289 206.893 26.6289H205.272V33H204.008V25.6035H206.893C207.362 25.6035 207.784 25.6445 208.157 25.7266C208.535 25.8086 208.857 25.9339 209.121 26.1025C209.39 26.2666 209.595 26.4762 209.736 26.7314C209.878 26.9867 209.948 27.2874 209.948 27.6338C209.948 27.8571 209.903 28.069 209.812 28.2695C209.72 28.4701 209.586 28.6478 209.408 28.8027C209.23 28.9577 209.012 29.0853 208.752 29.1855C208.492 29.2812 208.194 29.3428 207.856 29.3701L207.364 29.7461ZM207.364 33H204.479L205.108 31.9746H207.364C207.715 31.9746 208.007 31.9313 208.239 31.8447C208.472 31.7536 208.645 31.626 208.759 31.4619C208.877 31.2933 208.937 31.0928 208.937 30.8604C208.937 30.6279 208.877 30.4297 208.759 30.2656C208.645 30.097 208.472 29.9694 208.239 29.8828C208.007 29.7917 207.715 29.7461 207.364 29.7461H205.443L205.457 28.7344H207.856L208.314 29.1172C208.72 29.1491 209.064 29.2493 209.347 29.418C209.629 29.5866 209.843 29.8008 209.989 30.0605C210.135 30.3158 210.208 30.5938 210.208 30.8945C210.208 31.2409 210.142 31.5462 210.01 31.8105C209.882 32.0749 209.695 32.2959 209.449 32.4736C209.203 32.6468 208.905 32.779 208.554 32.8701C208.203 32.9567 207.806 33 207.364 33ZM220.12 22.3838H221.159C221.159 22.8304 221.091 23.1859 220.954 23.4502C220.817 23.71 220.631 23.9105 220.394 24.0518C220.161 24.193 219.897 24.3001 219.601 24.373C219.309 24.446 219.006 24.5166 218.691 24.585C218.299 24.667 217.935 24.7969 217.598 24.9746C217.265 25.1478 216.978 25.3939 216.736 25.7129C216.499 26.0319 216.324 26.4466 216.21 26.957C216.101 27.4674 216.071 28.0986 216.121 28.8506V29.4795H215.082V28.8506C215.082 28.0075 215.162 27.2715 215.321 26.6426C215.485 26.0137 215.715 25.4827 216.012 25.0498C216.308 24.6169 216.659 24.2728 217.064 24.0176C217.475 23.7624 217.926 23.5869 218.418 23.4912C218.773 23.4229 219.079 23.3499 219.334 23.2725C219.589 23.1904 219.783 23.0811 219.915 22.9443C220.052 22.8076 220.12 22.6208 220.12 22.3838ZM218.623 26.0273C219.106 26.0273 219.537 26.1117 219.915 26.2803C220.293 26.4489 220.615 26.6836 220.879 26.9844C221.143 27.2852 221.344 27.6406 221.48 28.0508C221.622 28.4564 221.692 28.8984 221.692 29.377V29.5273C221.692 30.0423 221.617 30.5208 221.467 30.9629C221.321 31.4004 221.104 31.7832 220.817 32.1113C220.535 32.4349 220.188 32.6878 219.778 32.8701C219.373 33.0524 218.91 33.1436 218.391 33.1436C217.871 33.1436 217.406 33.0524 216.996 32.8701C216.59 32.6878 216.244 32.4349 215.957 32.1113C215.67 31.7832 215.451 31.4004 215.301 30.9629C215.155 30.5208 215.082 30.0423 215.082 29.5273V29.377C215.082 29.263 215.103 29.1514 215.144 29.042C215.185 28.9326 215.235 28.821 215.294 28.707C215.358 28.5931 215.415 28.4723 215.465 28.3447C215.633 27.9346 215.864 27.554 216.155 27.2031C216.451 26.8522 216.805 26.5697 217.215 26.3555C217.63 26.1367 218.099 26.0273 218.623 26.0273ZM218.377 27.0596C217.912 27.0596 217.529 27.1667 217.229 27.3809C216.932 27.5951 216.711 27.8799 216.565 28.2354C216.42 28.5863 216.347 28.9668 216.347 29.377V29.5273C216.347 29.8737 216.388 30.2018 216.47 30.5117C216.552 30.8216 216.675 31.0973 216.839 31.3389C217.007 31.5758 217.219 31.7627 217.475 31.8994C217.734 32.0361 218.04 32.1045 218.391 32.1045C218.742 32.1045 219.045 32.0361 219.3 31.8994C219.555 31.7627 219.765 31.5758 219.929 31.3389C220.093 31.0973 220.216 30.8216 220.298 30.5117C220.38 30.2018 220.421 29.8737 220.421 29.5273V29.377C220.421 29.0671 220.38 28.7731 220.298 28.4951C220.216 28.2171 220.09 27.971 219.922 27.7568C219.758 27.5426 219.546 27.374 219.286 27.251C219.031 27.1234 218.728 27.0596 218.377 27.0596ZM224.27 27.0254V35.8438H222.998V25.6035H224.16L224.27 27.0254ZM229.253 29.2402V29.3838C229.253 29.9215 229.189 30.4206 229.062 30.8809C228.934 31.3366 228.747 31.7331 228.501 32.0703C228.259 32.4076 227.961 32.6696 227.605 32.8564C227.25 33.0433 226.842 33.1367 226.382 33.1367C225.912 33.1367 225.498 33.0592 225.138 32.9043C224.778 32.7493 224.472 32.5238 224.222 32.2275C223.971 31.9313 223.771 31.5758 223.62 31.1611C223.474 30.7464 223.374 30.2793 223.319 29.7598V28.9941C223.374 28.4473 223.477 27.9574 223.627 27.5244C223.777 27.0915 223.976 26.7223 224.222 26.417C224.472 26.1071 224.775 25.8724 225.131 25.7129C225.486 25.5488 225.896 25.4668 226.361 25.4668C226.826 25.4668 227.239 25.5579 227.599 25.7402C227.959 25.918 228.262 26.1732 228.508 26.5059C228.754 26.8385 228.938 27.2373 229.062 27.7021C229.189 28.1624 229.253 28.6751 229.253 29.2402ZM227.981 29.3838V29.2402C227.981 28.8711 227.943 28.5247 227.865 28.2012C227.788 27.873 227.667 27.5859 227.503 27.3398C227.343 27.0892 227.138 26.8932 226.888 26.752C226.637 26.6061 226.339 26.5332 225.992 26.5332C225.673 26.5332 225.395 26.5879 225.158 26.6973C224.926 26.8066 224.728 26.9548 224.563 27.1416C224.399 27.3239 224.265 27.5335 224.16 27.7705C224.06 28.0029 223.985 28.2445 223.935 28.4951V30.2656C224.026 30.5846 224.153 30.8854 224.317 31.168C224.481 31.446 224.7 31.6715 224.974 31.8447C225.247 32.0133 225.591 32.0977 226.006 32.0977C226.348 32.0977 226.642 32.027 226.888 31.8857C227.138 31.7399 227.343 31.5417 227.503 31.291C227.667 31.0404 227.788 30.7533 227.865 30.4297C227.943 30.1016 227.981 29.7529 227.981 29.3838ZM233.936 33.1367C233.421 33.1367 232.953 33.0501 232.534 32.877C232.119 32.6992 231.762 32.4508 231.461 32.1318C231.165 31.8128 230.937 31.4346 230.777 30.9971C230.618 30.5596 230.538 30.0811 230.538 29.5615V29.2744C230.538 28.6729 230.627 28.1374 230.805 27.668C230.982 27.194 231.224 26.793 231.529 26.4648C231.835 26.1367 232.181 25.8883 232.568 25.7197C232.956 25.5511 233.357 25.4668 233.771 25.4668C234.3 25.4668 234.756 25.5579 235.139 25.7402C235.526 25.9225 235.843 26.1777 236.089 26.5059C236.335 26.8294 236.517 27.2122 236.636 27.6543C236.754 28.0918 236.813 28.5703 236.813 29.0898V29.6572H231.29V28.625H235.549V28.5293C235.531 28.2012 235.462 27.8822 235.344 27.5723C235.23 27.2624 235.048 27.0072 234.797 26.8066C234.546 26.6061 234.204 26.5059 233.771 26.5059C233.484 26.5059 233.22 26.5674 232.979 26.6904C232.737 26.8089 232.53 26.9867 232.356 27.2236C232.183 27.4606 232.049 27.75 231.953 28.0918C231.857 28.4336 231.81 28.8278 231.81 29.2744V29.5615C231.81 29.9124 231.857 30.2428 231.953 30.5527C232.053 30.8581 232.197 31.127 232.384 31.3594C232.575 31.5918 232.805 31.7741 233.074 31.9062C233.348 32.0384 233.658 32.1045 234.004 32.1045C234.451 32.1045 234.829 32.0133 235.139 31.8311C235.449 31.6488 235.72 31.4049 235.952 31.0996L236.718 31.708C236.558 31.9495 236.355 32.1797 236.109 32.3984C235.863 32.6172 235.56 32.7949 235.2 32.9316C234.845 33.0684 234.423 33.1367 233.936 33.1367ZM243.308 28.8096V29.835H239.397V28.8096H243.308ZM239.664 25.6035V33H238.399V25.6035H239.664ZM244.333 25.6035V33H243.062V25.6035H244.333ZM247.703 25.6035H248.968L248.858 28.3721C248.831 29.0739 248.751 29.68 248.619 30.1904C248.487 30.7008 248.318 31.1361 248.113 31.4961C247.908 31.8516 247.678 32.1501 247.423 32.3916C247.172 32.6331 246.912 32.8359 246.644 33H246.015L246.049 31.9678L246.309 31.9609C246.459 31.7832 246.605 31.6009 246.746 31.4141C246.887 31.2227 247.017 30.9971 247.136 30.7373C247.254 30.473 247.352 30.1517 247.43 29.7734C247.512 29.3906 247.564 28.9235 247.587 28.3721L247.703 25.6035ZM248.018 25.6035H252.468V33H251.203V26.7725H248.018V25.6035ZM245.728 31.9609H253.418V35.1807H252.153V33H246.992V35.1807H245.721L245.728 31.9609ZM259.181 31.7354V27.9277C259.181 27.6361 259.121 27.3831 259.003 27.1689C258.889 26.9502 258.716 26.7816 258.483 26.6631C258.251 26.5446 257.964 26.4854 257.622 26.4854C257.303 26.4854 257.023 26.54 256.781 26.6494C256.544 26.7588 256.357 26.9023 256.221 27.0801C256.089 27.2578 256.022 27.4492 256.022 27.6543H254.758C254.758 27.39 254.826 27.1279 254.963 26.8682C255.1 26.6084 255.296 26.3737 255.551 26.1641C255.811 25.9499 256.12 25.7812 256.48 25.6582C256.845 25.5306 257.251 25.4668 257.697 25.4668C258.235 25.4668 258.709 25.5579 259.119 25.7402C259.534 25.9225 259.857 26.1982 260.09 26.5674C260.327 26.932 260.445 27.39 260.445 27.9414V31.3867C260.445 31.6328 260.466 31.8949 260.507 32.1729C260.552 32.4508 260.618 32.6901 260.705 32.8906V33H259.386C259.322 32.8542 259.272 32.6605 259.235 32.4189C259.199 32.1729 259.181 31.945 259.181 31.7354ZM259.399 28.5156L259.413 29.4043H258.135C257.775 29.4043 257.453 29.4339 257.171 29.4932C256.888 29.5479 256.651 29.6322 256.46 29.7461C256.269 29.86 256.123 30.0036 256.022 30.1768C255.922 30.3454 255.872 30.5436 255.872 30.7715C255.872 31.0039 255.924 31.2158 256.029 31.4072C256.134 31.5986 256.291 31.7513 256.501 31.8652C256.715 31.9746 256.977 32.0293 257.287 32.0293C257.674 32.0293 258.016 31.9473 258.312 31.7832C258.609 31.6191 258.843 31.4186 259.017 31.1816C259.194 30.9447 259.29 30.7145 259.304 30.4912L259.844 31.0996C259.812 31.291 259.725 31.5029 259.584 31.7354C259.443 31.9678 259.254 32.1911 259.017 32.4053C258.784 32.6149 258.506 32.7904 258.183 32.9316C257.864 33.0684 257.504 33.1367 257.103 33.1367C256.601 33.1367 256.161 33.0387 255.783 32.8428C255.41 32.6468 255.118 32.3848 254.908 32.0566C254.703 31.724 254.601 31.3525 254.601 30.9424C254.601 30.5459 254.678 30.1973 254.833 29.8965C254.988 29.5911 255.211 29.3382 255.503 29.1377C255.795 28.9326 256.146 28.7777 256.556 28.6729C256.966 28.568 257.424 28.5156 257.93 28.5156H259.399ZM115.981 48.8096V49.835H112.071V48.8096H115.981ZM112.338 45.6035V53H111.073V45.6035H112.338ZM117.007 45.6035V53H115.735V45.6035H117.007ZM123.405 51.7354V47.9277C123.405 47.6361 123.346 47.3831 123.228 47.1689C123.114 46.9502 122.94 46.7816 122.708 46.6631C122.476 46.5446 122.188 46.4854 121.847 46.4854C121.528 46.4854 121.247 46.54 121.006 46.6494C120.769 46.7588 120.582 46.9023 120.445 47.0801C120.313 47.2578 120.247 47.4492 120.247 47.6543H118.982C118.982 47.39 119.051 47.1279 119.188 46.8682C119.324 46.6084 119.52 46.3737 119.775 46.1641C120.035 45.9499 120.345 45.7812 120.705 45.6582C121.07 45.5306 121.475 45.4668 121.922 45.4668C122.46 45.4668 122.934 45.5579 123.344 45.7402C123.758 45.9225 124.082 46.1982 124.314 46.5674C124.551 46.932 124.67 47.39 124.67 47.9414V51.3867C124.67 51.6328 124.69 51.8949 124.731 52.1729C124.777 52.4508 124.843 52.6901 124.93 52.8906V53H123.61C123.547 52.8542 123.496 52.6605 123.46 52.4189C123.424 52.1729 123.405 51.945 123.405 51.7354ZM123.624 48.5156L123.638 49.4043H122.359C121.999 49.4043 121.678 49.4339 121.396 49.4932C121.113 49.5479 120.876 49.6322 120.685 49.7461C120.493 49.86 120.347 50.0036 120.247 50.1768C120.147 50.3454 120.097 50.5436 120.097 50.7715C120.097 51.0039 120.149 51.2158 120.254 51.4072C120.359 51.5986 120.516 51.7513 120.726 51.8652C120.94 51.9746 121.202 52.0293 121.512 52.0293C121.899 52.0293 122.241 51.9473 122.537 51.7832C122.833 51.6191 123.068 51.4186 123.241 51.1816C123.419 50.9447 123.515 50.7145 123.528 50.4912L124.068 51.0996C124.036 51.291 123.95 51.5029 123.809 51.7354C123.667 51.9678 123.478 52.1911 123.241 52.4053C123.009 52.6149 122.731 52.7904 122.407 52.9316C122.088 53.0684 121.728 53.1367 121.327 53.1367C120.826 53.1367 120.386 53.0387 120.008 52.8428C119.634 52.6468 119.342 52.3848 119.133 52.0566C118.928 51.724 118.825 51.3525 118.825 50.9424C118.825 50.5459 118.903 50.1973 119.058 49.8965C119.213 49.5911 119.436 49.3382 119.728 49.1377C120.019 48.9326 120.37 48.7777 120.78 48.6729C121.19 48.568 121.648 48.5156 122.154 48.5156H123.624ZM135.061 45.6035V46.6494H131.321V45.6035H135.061ZM131.506 45.6035V53H130.241V45.6035H131.506ZM136.182 45.6035V53H134.91V45.6035H136.182ZM139.477 47.0254V55.8438H138.205V45.6035H139.367L139.477 47.0254ZM144.46 49.2402V49.3838C144.46 49.9215 144.396 50.4206 144.269 50.8809C144.141 51.3366 143.954 51.7331 143.708 52.0703C143.466 52.4076 143.168 52.6696 142.812 52.8564C142.457 53.0433 142.049 53.1367 141.589 53.1367C141.119 53.1367 140.705 53.0592 140.345 52.9043C139.985 52.7493 139.679 52.5238 139.429 52.2275C139.178 51.9313 138.978 51.5758 138.827 51.1611C138.681 50.7464 138.581 50.2793 138.526 49.7598V48.9941C138.581 48.4473 138.684 47.9574 138.834 47.5244C138.984 47.0915 139.183 46.7223 139.429 46.417C139.679 46.1071 139.982 45.8724 140.338 45.7129C140.693 45.5488 141.104 45.4668 141.568 45.4668C142.033 45.4668 142.446 45.5579 142.806 45.7402C143.166 45.918 143.469 46.1732 143.715 46.5059C143.961 46.8385 144.146 47.2373 144.269 47.7021C144.396 48.1624 144.46 48.6751 144.46 49.2402ZM143.188 49.3838V49.2402C143.188 48.8711 143.15 48.5247 143.072 48.2012C142.995 47.873 142.874 47.5859 142.71 47.3398C142.55 47.0892 142.345 46.8932 142.095 46.752C141.844 46.6061 141.546 46.5332 141.199 46.5332C140.88 46.5332 140.602 46.5879 140.365 46.6973C140.133 46.8066 139.935 46.9548 139.771 47.1416C139.606 47.3239 139.472 47.5335 139.367 47.7705C139.267 48.0029 139.192 48.2445 139.142 48.4951V50.2656C139.233 50.5846 139.36 50.8854 139.524 51.168C139.688 51.446 139.907 51.6715 140.181 51.8447C140.454 52.0133 140.798 52.0977 141.213 52.0977C141.555 52.0977 141.849 52.027 142.095 51.8857C142.345 51.7399 142.55 51.5417 142.71 51.291C142.874 51.0404 142.995 50.7533 143.072 50.4297C143.15 50.1016 143.188 49.7529 143.188 49.3838ZM145.738 49.3838V49.2266C145.738 48.6934 145.816 48.1989 145.971 47.7432C146.126 47.2829 146.349 46.8841 146.641 46.5469C146.932 46.2051 147.285 45.9408 147.7 45.7539C148.115 45.5625 148.58 45.4668 149.095 45.4668C149.614 45.4668 150.081 45.5625 150.496 45.7539C150.915 45.9408 151.271 46.2051 151.562 46.5469C151.859 46.8841 152.084 47.2829 152.239 47.7432C152.394 48.1989 152.472 48.6934 152.472 49.2266V49.3838C152.472 49.917 152.394 50.4115 152.239 50.8672C152.084 51.3229 151.859 51.7217 151.562 52.0635C151.271 52.4007 150.918 52.665 150.503 52.8564C150.093 53.0433 149.628 53.1367 149.108 53.1367C148.589 53.1367 148.122 53.0433 147.707 52.8564C147.292 52.665 146.937 52.4007 146.641 52.0635C146.349 51.7217 146.126 51.3229 145.971 50.8672C145.816 50.4115 145.738 49.917 145.738 49.3838ZM147.003 49.2266V49.3838C147.003 49.7529 147.046 50.1016 147.133 50.4297C147.219 50.7533 147.349 51.0404 147.522 51.291C147.7 51.5417 147.921 51.7399 148.186 51.8857C148.45 52.027 148.757 52.0977 149.108 52.0977C149.455 52.0977 149.758 52.027 150.018 51.8857C150.282 51.7399 150.501 51.5417 150.674 51.291C150.847 51.0404 150.977 50.7533 151.063 50.4297C151.155 50.1016 151.2 49.7529 151.2 49.3838V49.2266C151.2 48.862 151.155 48.5179 151.063 48.1943C150.977 47.8662 150.845 47.5768 150.667 47.3262C150.494 47.071 150.275 46.8704 150.011 46.7246C149.751 46.5788 149.446 46.5059 149.095 46.5059C148.748 46.5059 148.443 46.5788 148.179 46.7246C147.919 46.8704 147.7 47.071 147.522 47.3262C147.349 47.5768 147.219 47.8662 147.133 48.1943C147.046 48.5179 147.003 48.862 147.003 49.2266ZM154.898 45.6035H156.163L156.054 48.3721C156.026 49.0739 155.947 49.68 155.814 50.1904C155.682 50.7008 155.514 51.1361 155.309 51.4961C155.104 51.8516 154.873 52.1501 154.618 52.3916C154.368 52.6331 154.108 52.8359 153.839 53H153.21L153.244 51.9678L153.504 51.9609C153.654 51.7832 153.8 51.6009 153.941 51.4141C154.083 51.2227 154.213 50.9971 154.331 50.7373C154.45 50.473 154.548 50.1517 154.625 49.7734C154.707 49.3906 154.759 48.9235 154.782 48.3721L154.898 45.6035ZM155.213 45.6035H159.663V53H158.398V46.7725H155.213V45.6035ZM152.923 51.9609H160.613V55.1807H159.349V53H154.188V55.1807H152.916L152.923 51.9609ZM166.376 51.7354V47.9277C166.376 47.6361 166.317 47.3831 166.198 47.1689C166.084 46.9502 165.911 46.7816 165.679 46.6631C165.446 46.5446 165.159 46.4854 164.817 46.4854C164.498 46.4854 164.218 46.54 163.977 46.6494C163.74 46.7588 163.553 46.9023 163.416 47.0801C163.284 47.2578 163.218 47.4492 163.218 47.6543H161.953C161.953 47.39 162.021 47.1279 162.158 46.8682C162.295 46.6084 162.491 46.3737 162.746 46.1641C163.006 45.9499 163.316 45.7812 163.676 45.6582C164.04 45.5306 164.446 45.4668 164.893 45.4668C165.43 45.4668 165.904 45.5579 166.314 45.7402C166.729 45.9225 167.053 46.1982 167.285 46.5674C167.522 46.932 167.641 47.39 167.641 47.9414V51.3867C167.641 51.6328 167.661 51.8949 167.702 52.1729C167.748 52.4508 167.814 52.6901 167.9 52.8906V53H166.581C166.517 52.8542 166.467 52.6605 166.431 52.4189C166.394 52.1729 166.376 51.945 166.376 51.7354ZM166.595 48.5156L166.608 49.4043H165.33C164.97 49.4043 164.649 49.4339 164.366 49.4932C164.084 49.5479 163.847 49.6322 163.655 49.7461C163.464 49.86 163.318 50.0036 163.218 50.1768C163.118 50.3454 163.067 50.5436 163.067 50.7715C163.067 51.0039 163.12 51.2158 163.225 51.4072C163.329 51.5986 163.487 51.7513 163.696 51.8652C163.91 51.9746 164.173 52.0293 164.482 52.0293C164.87 52.0293 165.212 51.9473 165.508 51.7832C165.804 51.6191 166.039 51.4186 166.212 51.1816C166.39 50.9447 166.485 50.7145 166.499 50.4912L167.039 51.0996C167.007 51.291 166.921 51.5029 166.779 51.7354C166.638 51.9678 166.449 52.1911 166.212 52.4053C165.979 52.6149 165.701 52.7904 165.378 52.9316C165.059 53.0684 164.699 53.1367 164.298 53.1367C163.797 53.1367 163.357 53.0387 162.979 52.8428C162.605 52.6468 162.313 52.3848 162.104 52.0566C161.898 51.724 161.796 51.3525 161.796 50.9424C161.796 50.5459 161.873 50.1973 162.028 49.8965C162.183 49.5911 162.407 49.3382 162.698 49.1377C162.99 48.9326 163.341 48.7777 163.751 48.6729C164.161 48.568 164.619 48.5156 165.125 48.5156H166.595ZM171.872 49.7803L169.069 45.6035H170.594L172.508 48.666H173.984L173.8 49.7803H171.872ZM172.562 49.6504L170.416 53H168.816L171.763 48.7344L172.562 49.6504ZM174.634 45.6035V53H173.369V45.6035H174.634ZM178.947 45.6035L176.145 49.7803H174.217L174.019 48.666H175.502L177.416 45.6035H178.947ZM177.594 53L175.44 49.6504L176.254 48.7344L179.193 53H177.594ZM181.729 50.9971L185.141 45.6035H186.412V53H185.141V47.6064L181.729 53H180.472V45.6035H181.729V50.9971ZM195.388 49.7461H192.961L192.947 48.7344H194.93C195.322 48.7344 195.647 48.6956 195.907 48.6182C196.172 48.5407 196.37 48.4245 196.502 48.2695C196.634 48.1146 196.7 47.9232 196.7 47.6953C196.7 47.5176 196.661 47.3626 196.584 47.2305C196.511 47.0938 196.399 46.9821 196.249 46.8955C196.099 46.8044 195.912 46.7383 195.688 46.6973C195.47 46.6517 195.212 46.6289 194.916 46.6289H193.296V53H192.031V45.6035H194.916C195.385 45.6035 195.807 45.6445 196.181 45.7266C196.559 45.8086 196.88 45.9339 197.145 46.1025C197.413 46.2666 197.618 46.4762 197.76 46.7314C197.901 46.9867 197.972 47.2874 197.972 47.6338C197.972 47.8571 197.926 48.069 197.835 48.2695C197.744 48.4701 197.609 48.6478 197.432 48.8027C197.254 48.9577 197.035 49.0853 196.775 49.1855C196.516 49.2812 196.217 49.3428 195.88 49.3701L195.388 49.7461ZM195.388 53H192.503L193.132 51.9746H195.388C195.739 51.9746 196.03 51.9313 196.263 51.8447C196.495 51.7536 196.668 51.626 196.782 51.4619C196.901 51.2933 196.96 51.0928 196.96 50.8604C196.96 50.6279 196.901 50.4297 196.782 50.2656C196.668 50.097 196.495 49.9694 196.263 49.8828C196.03 49.7917 195.739 49.7461 195.388 49.7461H193.467L193.48 48.7344H195.88L196.338 49.1172C196.743 49.1491 197.088 49.2493 197.37 49.418C197.653 49.5866 197.867 49.8008 198.013 50.0605C198.159 50.3158 198.231 50.5938 198.231 50.8945C198.231 51.2409 198.165 51.5462 198.033 51.8105C197.906 52.0749 197.719 52.2959 197.473 52.4736C197.227 52.6468 196.928 52.779 196.577 52.8701C196.226 52.9567 195.83 53 195.388 53ZM204.664 47.0254V55.8438H203.393V45.6035H204.555L204.664 47.0254ZM209.647 49.2402V49.3838C209.647 49.9215 209.584 50.4206 209.456 50.8809C209.328 51.3366 209.142 51.7331 208.896 52.0703C208.654 52.4076 208.355 52.6696 208 52.8564C207.645 53.0433 207.237 53.1367 206.776 53.1367C206.307 53.1367 205.892 53.0592 205.532 52.9043C205.172 52.7493 204.867 52.5238 204.616 52.2275C204.366 51.9313 204.165 51.5758 204.015 51.1611C203.869 50.7464 203.769 50.2793 203.714 49.7598V48.9941C203.769 48.4473 203.871 47.9574 204.021 47.5244C204.172 47.0915 204.37 46.7223 204.616 46.417C204.867 46.1071 205.17 45.8724 205.525 45.7129C205.881 45.5488 206.291 45.4668 206.756 45.4668C207.221 45.4668 207.633 45.5579 207.993 45.7402C208.353 45.918 208.656 46.1732 208.902 46.5059C209.148 46.8385 209.333 47.2373 209.456 47.7021C209.584 48.1624 209.647 48.6751 209.647 49.2402ZM208.376 49.3838V49.2402C208.376 48.8711 208.337 48.5247 208.26 48.2012C208.182 47.873 208.062 47.5859 207.897 47.3398C207.738 47.0892 207.533 46.8932 207.282 46.752C207.032 46.6061 206.733 46.5332 206.387 46.5332C206.068 46.5332 205.79 46.5879 205.553 46.6973C205.32 46.8066 205.122 46.9548 204.958 47.1416C204.794 47.3239 204.66 47.5335 204.555 47.7705C204.454 48.0029 204.379 48.2445 204.329 48.4951V50.2656C204.42 50.5846 204.548 50.8854 204.712 51.168C204.876 51.446 205.095 51.6715 205.368 51.8447C205.642 52.0133 205.986 52.0977 206.4 52.0977C206.742 52.0977 207.036 52.027 207.282 51.8857C207.533 51.7399 207.738 51.5417 207.897 51.291C208.062 51.0404 208.182 50.7533 208.26 50.4297C208.337 50.1016 208.376 49.7529 208.376 49.3838ZM212.628 50.9971L216.039 45.6035H217.311V53H216.039V47.6064L212.628 53H211.37V45.6035H212.628V50.9971ZM222.355 45.6035V53H221.084V45.6035H222.355ZM224.837 45.6035V46.6289H218.65V45.6035H224.837ZM228.604 53.1367C228.089 53.1367 227.621 53.0501 227.202 52.877C226.787 52.6992 226.43 52.4508 226.129 52.1318C225.833 51.8128 225.605 51.4346 225.445 50.9971C225.286 50.5596 225.206 50.0811 225.206 49.5615V49.2744C225.206 48.6729 225.295 48.1374 225.473 47.668C225.65 47.194 225.892 46.793 226.197 46.4648C226.503 46.1367 226.849 45.8883 227.236 45.7197C227.624 45.5511 228.025 45.4668 228.439 45.4668C228.968 45.4668 229.424 45.5579 229.807 45.7402C230.194 45.9225 230.511 46.1777 230.757 46.5059C231.003 46.8294 231.185 47.2122 231.304 47.6543C231.422 48.0918 231.481 48.5703 231.481 49.0898V49.6572H225.958V48.625H230.217V48.5293C230.199 48.2012 230.13 47.8822 230.012 47.5723C229.898 47.2624 229.715 47.0072 229.465 46.8066C229.214 46.6061 228.872 46.5059 228.439 46.5059C228.152 46.5059 227.888 46.5674 227.646 46.6904C227.405 46.8089 227.198 46.9867 227.024 47.2236C226.851 47.4606 226.717 47.75 226.621 48.0918C226.525 48.4336 226.478 48.8278 226.478 49.2744V49.5615C226.478 49.9124 226.525 50.2428 226.621 50.5527C226.721 50.8581 226.865 51.127 227.052 51.3594C227.243 51.5918 227.473 51.7741 227.742 51.9062C228.016 52.0384 228.326 52.1045 228.672 52.1045C229.118 52.1045 229.497 52.0133 229.807 51.8311C230.117 51.6488 230.388 51.4049 230.62 51.0996L231.386 51.708C231.226 51.9495 231.023 52.1797 230.777 52.3984C230.531 52.6172 230.228 52.7949 229.868 52.9316C229.513 53.0684 229.091 53.1367 228.604 53.1367ZM234.325 50.9971L237.736 45.6035H239.008V53H237.736V47.6064L234.325 53H233.067V45.6035H234.325V50.9971ZM237.046 42.9238H238.071C238.071 43.2793 237.989 43.596 237.825 43.874C237.661 44.1475 237.426 44.3617 237.121 44.5166C236.816 44.6715 236.453 44.749 236.034 44.749C235.401 44.749 234.899 44.5804 234.53 44.2432C234.166 43.9014 233.983 43.4616 233.983 42.9238H235.009C235.009 43.1927 235.086 43.4297 235.241 43.6348C235.396 43.8398 235.66 43.9424 236.034 43.9424C236.399 43.9424 236.659 43.8398 236.813 43.6348C236.968 43.4297 237.046 43.1927 237.046 42.9238ZM245.98 45.6035V46.6494H242.405V45.6035H245.98ZM247.095 45.6035V53H245.83V45.6035H247.095ZM242.098 45.6035H243.369L243.178 49.1719C243.146 49.7233 243.093 50.2109 243.021 50.6348C242.952 51.054 242.856 51.4141 242.733 51.7148C242.615 52.0156 242.465 52.2617 242.282 52.4531C242.104 52.64 241.89 52.779 241.64 52.8701C241.389 52.9567 241.1 53 240.771 53H240.375V51.8857L240.648 51.8652C240.844 51.8516 241.011 51.806 241.147 51.7285C241.289 51.651 241.407 51.5371 241.503 51.3867C241.599 51.2318 241.676 51.0335 241.735 50.792C241.799 50.5505 241.847 50.2633 241.879 49.9307C241.915 49.598 241.943 49.2106 241.961 48.7686L242.098 45.6035Z" fill="black"/>
<path d="M85 42.3464L59 42.3464" stroke="#00A3FF" stroke-miterlimit="10" stroke-linecap="round"/>
<path d="M80 40.4763C79.9954 41.9607 80.4313 43.413 81.2526 44.6495C82.0739 45.8859 83.2436 46.8508 84.6136 47.4221C85.9837 47.9934 87.4924 48.1452 88.9488 47.8585C90.4052 47.5718 91.7437 46.8593 92.795 45.8114C93.8462 44.7634 94.5629 43.4271 94.8542 41.9716C95.1455 40.5161 94.9983 39.0069 94.4313 37.6351C93.8644 36.2633 92.9031 35.0905 91.6692 34.2654C90.4354 33.4402 88.9844 32.9998 87.5 32.9998C85.515 32.9997 83.6108 33.7867 82.205 35.1882C80.7991 36.5896 80.0062 38.4913 80 40.4763Z" fill="#00A3FF"/>
<path d="M87.4766 43.406C85.8586 43.406 84.5469 42.0943 84.5469 40.4763C84.5469 38.8583 85.8586 37.5466 87.4766 37.5466C89.0946 37.5466 90.4062 38.8583 90.4062 40.4763C90.4062 42.0943 89.0946 43.406 87.4766 43.406Z" fill="white"/>
<defs>
<filter id="filter0_d_830_2162" x="262.322" y="0.668945" width="83.3555" height="83.3555" filterUnits="userSpaceOnUse" color-interpolation-filters="sRGB">
<feFlood flood-opacity="0" result="BackgroundImageFix"/>
<feColorMatrix in="SourceAlpha" type="matrix" values="0 0 0 0 0 0 0 0 0 0 0 0 0 0 0 0 0 0 127 0" result="hardAlpha"/>
<feOffset/>
<feGaussianBlur stdDeviation="12"/>
<feComposite in2="hardAlpha" operator="out"/>
<feColorMatrix type="matrix" values="0 0 0 0 0.579167 0 0 0 0 0.579167 0 0 0 0 0.579167 0 0 0 0.3 0"/>
<feBlend mode="normal" in2="BackgroundImageFix" result="effect1_dropShadow_830_2162"/>
<feBlend mode="normal" in="SourceGraphic" in2="effect1_dropShadow_830_2162" result="shape"/>
</filter>
</defs>
</svg>
