<svg width="346" height="85" viewBox="0 0 346 85" fill="none" xmlns="http://www.w3.org/2000/svg">
<g filter="url(#filter0_d_316_451)">
<path d="M316.5 54.8467C323.404 47.9431 323.404 36.7502 316.5 29.8467C309.596 22.9431 298.404 22.9431 291.5 29.8467C284.596 36.7502 284.596 47.9431 291.5 54.8467C298.404 61.7502 309.596 61.7502 316.5 54.8467Z" fill="white"/>
</g>
<path d="M309.526 42.3448C309.529 43.392 309.222 44.4166 308.643 45.2895C308.065 46.1624 307.241 46.8445 306.276 47.2497C305.31 47.655 304.246 47.7652 303.218 47.5665C302.19 47.3678 301.244 46.8691 300.499 46.1333C299.754 45.3975 299.243 44.4575 299.032 43.4319C298.82 42.4064 298.917 41.3411 299.31 40.3706C299.703 39.4001 300.375 38.5677 301.241 37.9785C302.106 37.3892 303.127 37.0696 304.174 37.0597C304.874 37.051 305.568 37.1812 306.217 37.4429C306.866 37.7045 307.456 38.0924 307.954 38.5841C308.452 39.0757 308.847 39.6613 309.117 40.3069C309.387 40.9525 309.526 41.6452 309.526 42.3448V42.3448Z" fill="#00A3FF"/>
<path d="M304.24 44.4156C305.384 44.4156 306.311 43.4884 306.311 42.3446C306.311 41.2009 305.384 40.2737 304.24 40.2737C303.096 40.2737 302.169 41.2009 302.169 42.3446C302.169 43.4884 303.096 44.4156 304.24 44.4156Z" fill="white"/>
<path d="M53.0456 59.6732C62.811 49.9124 62.811 34.0871 53.0455 24.3263C43.2801 14.5655 27.4473 14.5655 17.6819 24.3263C7.91646 34.087 7.91643 49.9124 17.6819 59.6732C27.4473 69.434 43.2802 69.434 53.0456 59.6732Z" fill="#00A3FF"/>
<path d="M35.252 39.1223C36.8226 39.1223 38.2142 39.7408 39.4268 40.9778C40.6393 42.2066 41.2456 43.6308 41.2456 45.2502C41.2456 46.9674 40.619 48.42 39.3657 49.6082C38.1206 50.7882 36.5378 51.3782 34.6172 51.3782C32.7048 51.3782 31.1219 50.7882 29.8687 49.6082C28.6235 48.42 28.001 46.9674 28.001 45.2502C28.001 44.5504 28.123 43.8464 28.3672 43.1384C28.6195 42.4304 28.8717 41.9014 29.124 41.5515L29.5024 41.0022L34.373 33.4949H38.2549L34.4951 39.2444C34.7148 39.163 34.9671 39.1223 35.252 39.1223ZM36.7656 47.301C37.3353 46.7476 37.6201 46.064 37.6201 45.2502C37.6201 44.4364 37.3353 43.7528 36.7656 43.1995C36.2041 42.6461 35.488 42.3694 34.6172 42.3694C33.7546 42.3694 33.0384 42.6461 32.4688 43.1995C31.9072 43.7528 31.6265 44.4364 31.6265 45.2502C31.6265 46.064 31.9072 46.7476 32.4688 47.301C33.0384 47.8463 33.7546 48.1189 34.6172 48.1189C35.488 48.1189 36.2041 47.8463 36.7656 47.301Z" fill="white"/>
<path d="M114.833 12.3931V22.3462H113.534V12.3931H114.833ZM118.032 12.3931V13.4731H110.342V12.3931H118.032ZM121.703 22.4829C121.188 22.4829 120.721 22.3963 120.302 22.2231C119.887 22.0454 119.529 21.797 119.229 21.478C118.932 21.159 118.704 20.7808 118.545 20.3433C118.385 19.9058 118.306 19.4272 118.306 18.9077V18.6206C118.306 18.019 118.395 17.4836 118.572 17.0142C118.75 16.5402 118.992 16.1392 119.297 15.811C119.602 15.4829 119.949 15.2345 120.336 15.0659C120.723 14.8973 121.124 14.813 121.539 14.813C122.068 14.813 122.523 14.9041 122.906 15.0864C123.294 15.2687 123.61 15.5239 123.856 15.8521C124.103 16.1756 124.285 16.5584 124.403 17.0005C124.522 17.438 124.581 17.9165 124.581 18.436V19.0034H119.058V17.9712H123.316V17.8755C123.298 17.5474 123.23 17.2284 123.111 16.9185C122.997 16.6086 122.815 16.3534 122.564 16.1528C122.314 15.9523 121.972 15.8521 121.539 15.8521C121.252 15.8521 120.988 15.9136 120.746 16.0366C120.505 16.1551 120.297 16.3328 120.124 16.5698C119.951 16.8068 119.816 17.0962 119.721 17.438C119.625 17.7798 119.577 18.174 119.577 18.6206V18.9077C119.577 19.2586 119.625 19.589 119.721 19.8989C119.821 20.2043 119.965 20.4731 120.151 20.7056C120.343 20.938 120.573 21.1203 120.842 21.2524C121.115 21.3846 121.425 21.4507 121.771 21.4507C122.218 21.4507 122.596 21.3595 122.906 21.1772C123.216 20.995 123.487 20.7511 123.72 20.4458L124.485 21.0542C124.326 21.2957 124.123 21.5259 123.877 21.7446C123.631 21.9634 123.328 22.1411 122.968 22.2778C122.612 22.4146 122.191 22.4829 121.703 22.4829ZM129.018 21.4438C129.318 21.4438 129.596 21.3823 129.852 21.2593C130.107 21.1362 130.316 20.9676 130.48 20.7534C130.645 20.5347 130.738 20.2863 130.761 20.0083H131.964C131.941 20.4458 131.793 20.8537 131.52 21.2319C131.251 21.6056 130.897 21.9087 130.46 22.1411C130.022 22.369 129.542 22.4829 129.018 22.4829C128.462 22.4829 127.976 22.3849 127.562 22.189C127.151 21.993 126.81 21.7241 126.536 21.3823C126.267 21.0405 126.064 20.6486 125.928 20.2065C125.796 19.7599 125.729 19.2882 125.729 18.7915V18.5044C125.729 18.0076 125.796 17.5382 125.928 17.0962C126.064 16.6496 126.267 16.2554 126.536 15.9136C126.81 15.5718 127.151 15.3029 127.562 15.1069C127.976 14.911 128.462 14.813 129.018 14.813C129.596 14.813 130.102 14.9315 130.535 15.1685C130.968 15.4009 131.308 15.7199 131.554 16.1255C131.804 16.5265 131.941 16.9823 131.964 17.4927H130.761C130.738 17.1873 130.651 16.9116 130.501 16.6655C130.355 16.4194 130.155 16.2235 129.899 16.0776C129.649 15.9272 129.355 15.8521 129.018 15.8521C128.63 15.8521 128.304 15.9295 128.04 16.0845C127.78 16.2349 127.573 16.4399 127.418 16.6997C127.268 16.9549 127.158 17.2397 127.09 17.5542C127.026 17.8641 126.994 18.1808 126.994 18.5044V18.7915C126.994 19.1151 127.026 19.4341 127.09 19.7485C127.154 20.063 127.261 20.3478 127.411 20.603C127.566 20.8582 127.773 21.0633 128.033 21.2183C128.298 21.3687 128.626 21.4438 129.018 21.4438ZM136.4 14.9497V22.3462H135.129V14.9497H136.4ZM138.882 14.9497V15.9751H132.695V14.9497H138.882ZM141.493 20.3433L144.904 14.9497H146.176V22.3462H144.904V16.9526L141.493 22.3462H140.235V14.9497H141.493V20.3433ZM149.471 16.3716V25.1899H148.199V14.9497H149.361L149.471 16.3716ZM154.454 18.5864V18.73C154.454 19.2677 154.39 19.7668 154.263 20.2271C154.135 20.6828 153.948 21.0793 153.702 21.4165C153.461 21.7537 153.162 22.0158 152.807 22.2026C152.451 22.3895 152.043 22.4829 151.583 22.4829C151.114 22.4829 150.699 22.4054 150.339 22.2505C149.979 22.0955 149.674 21.87 149.423 21.5737C149.172 21.2775 148.972 20.922 148.821 20.5073C148.675 20.0926 148.575 19.6255 148.521 19.106V18.3403C148.575 17.7935 148.678 17.3035 148.828 16.8706C148.979 16.4377 149.177 16.0685 149.423 15.7632C149.674 15.4533 149.977 15.2186 150.332 15.0591C150.688 14.895 151.098 14.813 151.562 14.813C152.027 14.813 152.44 14.9041 152.8 15.0864C153.16 15.2642 153.463 15.5194 153.709 15.8521C153.955 16.1847 154.14 16.5835 154.263 17.0483C154.39 17.5086 154.454 18.0213 154.454 18.5864ZM153.183 18.73V18.5864C153.183 18.2173 153.144 17.8709 153.066 17.5474C152.989 17.2192 152.868 16.9321 152.704 16.686C152.545 16.4354 152.34 16.2394 152.089 16.0981C151.838 15.9523 151.54 15.8794 151.193 15.8794C150.874 15.8794 150.596 15.9341 150.359 16.0435C150.127 16.1528 149.929 16.3009 149.765 16.4878C149.601 16.6701 149.466 16.8797 149.361 17.1167C149.261 17.3491 149.186 17.5907 149.136 17.8413V19.6118C149.227 19.9308 149.354 20.2316 149.519 20.5142C149.683 20.7922 149.901 21.0177 150.175 21.1909C150.448 21.3595 150.792 21.4438 151.207 21.4438C151.549 21.4438 151.843 21.3732 152.089 21.2319C152.34 21.0861 152.545 20.8879 152.704 20.6372C152.868 20.3866 152.989 20.0994 153.066 19.7759C153.144 19.4478 153.183 19.0991 153.183 18.73ZM155.732 18.73V18.5728C155.732 18.0396 155.81 17.5451 155.965 17.0894C156.12 16.6291 156.343 16.2303 156.635 15.8931C156.926 15.5513 157.28 15.2869 157.694 15.1001C158.109 14.9087 158.574 14.813 159.089 14.813C159.608 14.813 160.076 14.9087 160.49 15.1001C160.91 15.2869 161.265 15.5513 161.557 15.8931C161.853 16.2303 162.078 16.6291 162.233 17.0894C162.388 17.5451 162.466 18.0396 162.466 18.5728V18.73C162.466 19.2632 162.388 19.7576 162.233 20.2134C162.078 20.6691 161.853 21.0679 161.557 21.4097C161.265 21.7469 160.912 22.0112 160.497 22.2026C160.087 22.3895 159.622 22.4829 159.103 22.4829C158.583 22.4829 158.116 22.3895 157.701 22.2026C157.286 22.0112 156.931 21.7469 156.635 21.4097C156.343 21.0679 156.12 20.6691 155.965 20.2134C155.81 19.7576 155.732 19.2632 155.732 18.73ZM156.997 18.5728V18.73C156.997 19.0991 157.04 19.4478 157.127 19.7759C157.214 20.0994 157.343 20.3866 157.517 20.6372C157.694 20.8879 157.915 21.0861 158.18 21.2319C158.444 21.3732 158.752 21.4438 159.103 21.4438C159.449 21.4438 159.752 21.3732 160.012 21.2319C160.276 21.0861 160.495 20.8879 160.668 20.6372C160.841 20.3866 160.971 20.0994 161.058 19.7759C161.149 19.4478 161.194 19.0991 161.194 18.73V18.5728C161.194 18.2082 161.149 17.8641 161.058 17.5405C160.971 17.2124 160.839 16.923 160.661 16.6724C160.488 16.4172 160.269 16.2166 160.005 16.0708C159.745 15.925 159.44 15.8521 159.089 15.8521C158.743 15.8521 158.437 15.925 158.173 16.0708C157.913 16.2166 157.694 16.4172 157.517 16.6724C157.343 16.923 157.214 17.2124 157.127 17.5405C157.04 17.8641 156.997 18.2082 156.997 18.5728ZM167.524 19.0923H165.098L165.084 18.0806H167.066C167.458 18.0806 167.784 18.0418 168.044 17.9644C168.308 17.8869 168.507 17.7707 168.639 17.6157C168.771 17.4608 168.837 17.2694 168.837 17.0415C168.837 16.8638 168.798 16.7088 168.721 16.5767C168.648 16.4399 168.536 16.3283 168.386 16.2417C168.235 16.1506 168.049 16.0845 167.825 16.0435C167.606 15.9979 167.349 15.9751 167.053 15.9751H165.433V22.3462H164.168V14.9497H167.053C167.522 14.9497 167.944 14.9907 168.317 15.0728C168.696 15.1548 169.017 15.2801 169.281 15.4487C169.55 15.6128 169.755 15.8224 169.896 16.0776C170.038 16.3328 170.108 16.6336 170.108 16.98C170.108 17.2033 170.063 17.4152 169.972 17.6157C169.881 17.8162 169.746 17.994 169.568 18.1489C169.391 18.3039 169.172 18.4315 168.912 18.5317C168.652 18.6274 168.354 18.689 168.017 18.7163L167.524 19.0923ZM167.524 22.3462H164.64L165.269 21.3208H167.524C167.875 21.3208 168.167 21.2775 168.399 21.1909C168.632 21.0998 168.805 20.9722 168.919 20.8081C169.037 20.6395 169.097 20.439 169.097 20.2065C169.097 19.9741 169.037 19.7759 168.919 19.6118C168.805 19.4432 168.632 19.3156 168.399 19.229C168.167 19.1379 167.875 19.0923 167.524 19.0923H165.604L165.617 18.0806H168.017L168.475 18.4634C168.88 18.4953 169.224 18.5955 169.507 18.7642C169.789 18.9328 170.004 19.147 170.149 19.4067C170.295 19.6619 170.368 19.9399 170.368 20.2407C170.368 20.5871 170.302 20.8924 170.17 21.1567C170.042 21.4211 169.855 21.6421 169.609 21.8198C169.363 21.993 169.065 22.1252 168.714 22.2163C168.363 22.3029 167.966 22.3462 167.524 22.3462ZM176.425 21.0815V17.2739C176.425 16.9823 176.366 16.7293 176.247 16.5151C176.133 16.2964 175.96 16.1278 175.728 16.0093C175.495 15.8908 175.208 15.8315 174.866 15.8315C174.547 15.8315 174.267 15.8862 174.025 15.9956C173.788 16.105 173.602 16.2485 173.465 16.4263C173.333 16.604 173.267 16.7954 173.267 17.0005H172.002C172.002 16.7362 172.07 16.4741 172.207 16.2144C172.344 15.9546 172.54 15.7199 172.795 15.5103C173.055 15.2961 173.365 15.1274 173.725 15.0044C174.089 14.8768 174.495 14.813 174.941 14.813C175.479 14.813 175.953 14.9041 176.363 15.0864C176.778 15.2687 177.102 15.5444 177.334 15.9136C177.571 16.2782 177.689 16.7362 177.689 17.2876V20.7329C177.689 20.979 177.71 21.241 177.751 21.519C177.797 21.797 177.863 22.0363 177.949 22.2368V22.3462H176.63C176.566 22.2004 176.516 22.0067 176.479 21.7651C176.443 21.519 176.425 21.2912 176.425 21.0815ZM176.644 17.8618L176.657 18.7505H175.379C175.019 18.7505 174.698 18.7801 174.415 18.8394C174.132 18.894 173.896 18.9784 173.704 19.0923C173.513 19.2062 173.367 19.3498 173.267 19.5229C173.166 19.6916 173.116 19.8898 173.116 20.1177C173.116 20.3501 173.169 20.562 173.273 20.7534C173.378 20.9448 173.535 21.0975 173.745 21.2114C173.959 21.3208 174.221 21.3755 174.531 21.3755C174.919 21.3755 175.26 21.2935 175.557 21.1294C175.853 20.9653 176.088 20.7648 176.261 20.5278C176.438 20.2909 176.534 20.0607 176.548 19.8374L177.088 20.4458C177.056 20.6372 176.969 20.8491 176.828 21.0815C176.687 21.314 176.498 21.5373 176.261 21.7515C176.028 21.9611 175.75 22.1366 175.427 22.2778C175.108 22.4146 174.748 22.4829 174.347 22.4829C173.845 22.4829 173.406 22.3849 173.027 22.189C172.654 21.993 172.362 21.731 172.152 21.4028C171.947 21.0701 171.845 20.6987 171.845 20.2886C171.845 19.8921 171.922 19.5435 172.077 19.2427C172.232 18.9373 172.455 18.6844 172.747 18.4839C173.039 18.2788 173.39 18.1239 173.8 18.019C174.21 17.9142 174.668 17.8618 175.174 17.8618H176.644ZM184.696 18.1558V19.1812H180.786V18.1558H184.696ZM181.053 14.9497V22.3462H179.788V14.9497H181.053ZM185.722 14.9497V22.3462H184.45V14.9497H185.722ZM189.126 20.3433L192.537 14.9497H193.809V22.3462H192.537V16.9526L189.126 22.3462H187.868V14.9497H189.126V20.3433ZM198.908 22.4829C198.393 22.4829 197.926 22.3963 197.507 22.2231C197.092 22.0454 196.734 21.797 196.434 21.478C196.137 21.159 195.91 20.7808 195.75 20.3433C195.59 19.9058 195.511 19.4272 195.511 18.9077V18.6206C195.511 18.019 195.6 17.4836 195.777 17.0142C195.955 16.5402 196.197 16.1392 196.502 15.811C196.807 15.4829 197.154 15.2345 197.541 15.0659C197.928 14.8973 198.329 14.813 198.744 14.813C199.273 14.813 199.729 14.9041 200.111 15.0864C200.499 15.2687 200.815 15.5239 201.062 15.8521C201.308 16.1756 201.49 16.5584 201.608 17.0005C201.727 17.438 201.786 17.9165 201.786 18.436V19.0034H196.263V17.9712H200.521V17.8755C200.503 17.5474 200.435 17.2284 200.316 16.9185C200.202 16.6086 200.02 16.3534 199.77 16.1528C199.519 15.9523 199.177 15.8521 198.744 15.8521C198.457 15.8521 198.193 15.9136 197.951 16.0366C197.71 16.1551 197.502 16.3328 197.329 16.5698C197.156 16.8068 197.021 17.0962 196.926 17.438C196.83 17.7798 196.782 18.174 196.782 18.6206V18.9077C196.782 19.2586 196.83 19.589 196.926 19.8989C197.026 20.2043 197.17 20.4731 197.356 20.7056C197.548 20.938 197.778 21.1203 198.047 21.2524C198.32 21.3846 198.63 21.4507 198.977 21.4507C199.423 21.4507 199.801 21.3595 200.111 21.1772C200.421 20.995 200.692 20.7511 200.925 20.4458L201.69 21.0542C201.531 21.2957 201.328 21.5259 201.082 21.7446C200.836 21.9634 200.533 22.1411 200.173 22.2778C199.817 22.4146 199.396 22.4829 198.908 22.4829ZM211.514 14.9497V15.9956H208.096V22.3462H206.831V14.9497H211.514ZM213.981 20.3433L217.393 14.9497H218.664V22.3462H217.393V16.9526L213.981 22.3462H212.724V14.9497H213.981V20.3433ZM225.623 14.9497V15.9956H221.884V14.9497H225.623ZM222.068 14.9497V22.3462H220.804V14.9497H222.068ZM226.744 14.9497V22.3462H225.473V14.9497H226.744ZM228.439 18.73V18.5728C228.439 18.0396 228.517 17.5451 228.672 17.0894C228.827 16.6291 229.05 16.2303 229.342 15.8931C229.633 15.5513 229.987 15.2869 230.401 15.1001C230.816 14.9087 231.281 14.813 231.796 14.813C232.315 14.813 232.783 14.9087 233.197 15.1001C233.617 15.2869 233.972 15.5513 234.264 15.8931C234.56 16.2303 234.785 16.6291 234.94 17.0894C235.095 17.5451 235.173 18.0396 235.173 18.5728V18.73C235.173 19.2632 235.095 19.7576 234.94 20.2134C234.785 20.6691 234.56 21.0679 234.264 21.4097C233.972 21.7469 233.619 22.0112 233.204 22.2026C232.794 22.3895 232.329 22.4829 231.81 22.4829C231.29 22.4829 230.823 22.3895 230.408 22.2026C229.993 22.0112 229.638 21.7469 229.342 21.4097C229.05 21.0679 228.827 20.6691 228.672 20.2134C228.517 19.7576 228.439 19.2632 228.439 18.73ZM229.704 18.5728V18.73C229.704 19.0991 229.747 19.4478 229.834 19.7759C229.921 20.0994 230.05 20.3866 230.224 20.6372C230.401 20.8879 230.622 21.0861 230.887 21.2319C231.151 21.3732 231.459 21.4438 231.81 21.4438C232.156 21.4438 232.459 21.3732 232.719 21.2319C232.983 21.0861 233.202 20.8879 233.375 20.6372C233.548 20.3866 233.678 20.0994 233.765 19.7759C233.856 19.4478 233.901 19.0991 233.901 18.73V18.5728C233.901 18.2082 233.856 17.8641 233.765 17.5405C233.678 17.2124 233.546 16.923 233.368 16.6724C233.195 16.4172 232.976 16.2166 232.712 16.0708C232.452 15.925 232.147 15.8521 231.796 15.8521C231.45 15.8521 231.144 15.925 230.88 16.0708C230.62 16.2166 230.401 16.4172 230.224 16.6724C230.05 16.923 229.921 17.2124 229.834 17.5405C229.747 17.8641 229.704 18.2082 229.704 18.5728ZM239.623 14.9497V22.3462H238.352V14.9497H239.623ZM242.104 14.9497V15.9751H235.918V14.9497H242.104ZM245.871 22.4829C245.356 22.4829 244.889 22.3963 244.47 22.2231C244.055 22.0454 243.697 21.797 243.396 21.478C243.1 21.159 242.872 20.7808 242.713 20.3433C242.553 19.9058 242.474 19.4272 242.474 18.9077V18.6206C242.474 18.019 242.562 17.4836 242.74 17.0142C242.918 16.5402 243.16 16.1392 243.465 15.811C243.77 15.4829 244.117 15.2345 244.504 15.0659C244.891 14.8973 245.292 14.813 245.707 14.813C246.236 14.813 246.691 14.9041 247.074 15.0864C247.462 15.2687 247.778 15.5239 248.024 15.8521C248.271 16.1756 248.453 16.5584 248.571 17.0005C248.69 17.438 248.749 17.9165 248.749 18.436V19.0034H243.226V17.9712H247.484V17.8755C247.466 17.5474 247.398 17.2284 247.279 16.9185C247.165 16.6086 246.983 16.3534 246.732 16.1528C246.482 15.9523 246.14 15.8521 245.707 15.8521C245.42 15.8521 245.156 15.9136 244.914 16.0366C244.673 16.1551 244.465 16.3328 244.292 16.5698C244.119 16.8068 243.984 17.0962 243.889 17.438C243.793 17.7798 243.745 18.174 243.745 18.6206V18.9077C243.745 19.2586 243.793 19.589 243.889 19.8989C243.989 20.2043 244.132 20.4731 244.319 20.7056C244.511 20.938 244.741 21.1203 245.01 21.2524C245.283 21.3846 245.593 21.4507 245.939 21.4507C246.386 21.4507 246.764 21.3595 247.074 21.1772C247.384 20.995 247.655 20.7511 247.888 20.4458L248.653 21.0542C248.494 21.2957 248.291 21.5259 248.045 21.7446C247.799 21.9634 247.496 22.1411 247.136 22.2778C246.78 22.4146 246.359 22.4829 245.871 22.4829ZM252.987 18.812H251.627V18.0327H252.885C253.236 18.0327 253.514 17.9894 253.719 17.9028C253.924 17.8117 254.07 17.6864 254.156 17.5269C254.243 17.3674 254.286 17.1805 254.286 16.9663C254.286 16.7749 254.236 16.5949 254.136 16.4263C254.04 16.2531 253.885 16.1141 253.671 16.0093C253.457 15.8999 253.17 15.8452 252.81 15.8452C252.518 15.8452 252.254 15.8976 252.017 16.0024C251.78 16.1027 251.59 16.2417 251.449 16.4194C251.312 16.5926 251.244 16.7886 251.244 17.0073H249.979C249.979 16.5562 250.107 16.1688 250.362 15.8452C250.622 15.5171 250.966 15.2642 251.395 15.0864C251.827 14.9087 252.299 14.8198 252.81 14.8198C253.238 14.8198 253.621 14.8677 253.958 14.9634C254.3 15.0545 254.589 15.1912 254.826 15.3735C255.063 15.5513 255.243 15.7746 255.366 16.0435C255.494 16.3078 255.558 16.6154 255.558 16.9663C255.558 17.217 255.498 17.4539 255.38 17.6772C255.261 17.9006 255.09 18.0988 254.867 18.272C254.644 18.4406 254.373 18.5728 254.054 18.6685C253.739 18.7642 253.384 18.812 252.987 18.812ZM251.627 18.3335H252.987C253.429 18.3335 253.819 18.3768 254.156 18.4634C254.493 18.5454 254.776 18.6685 255.004 18.8325C255.232 18.9966 255.403 19.1994 255.517 19.4409C255.635 19.6779 255.694 19.9513 255.694 20.2612C255.694 20.6076 255.624 20.9198 255.482 21.1978C255.346 21.4712 255.15 21.7036 254.895 21.895C254.639 22.0864 254.334 22.2323 253.979 22.3325C253.628 22.4328 253.238 22.4829 252.81 22.4829C252.331 22.4829 251.866 22.4009 251.415 22.2368C250.964 22.0728 250.592 21.8198 250.301 21.478C250.009 21.1317 249.863 20.6919 249.863 20.1587H251.128C251.128 20.382 251.199 20.5939 251.34 20.7944C251.481 20.995 251.677 21.1567 251.928 21.2798C252.183 21.4028 252.477 21.4644 252.81 21.4644C253.165 21.4644 253.461 21.4097 253.698 21.3003C253.935 21.1909 254.113 21.0451 254.231 20.8628C254.354 20.6805 254.416 20.4823 254.416 20.2681C254.416 19.9901 254.361 19.7668 254.252 19.5981C254.143 19.4295 253.974 19.3065 253.746 19.229C253.523 19.147 253.236 19.106 252.885 19.106H251.627V18.3335ZM115.893 34.9497V35.9956H112.153V34.9497H115.893ZM112.338 34.9497V42.3462H111.073V34.9497H112.338ZM117.014 34.9497V42.3462H115.742V34.9497H117.014ZM120.309 36.3716V45.1899H119.037V34.9497H120.199L120.309 36.3716ZM125.292 38.5864V38.73C125.292 39.2677 125.228 39.7668 125.101 40.2271C124.973 40.6828 124.786 41.0793 124.54 41.4165C124.299 41.7537 124 42.0158 123.645 42.2026C123.289 42.3895 122.881 42.4829 122.421 42.4829C121.951 42.4829 121.537 42.4054 121.177 42.2505C120.817 42.0955 120.511 41.87 120.261 41.5737C120.01 41.2775 119.81 40.922 119.659 40.5073C119.513 40.0926 119.413 39.6255 119.358 39.106V38.3403C119.413 37.7935 119.516 37.3035 119.666 36.8706C119.816 36.4377 120.015 36.0685 120.261 35.7632C120.511 35.4533 120.814 35.2186 121.17 35.0591C121.525 34.895 121.936 34.813 122.4 34.813C122.865 34.813 123.278 34.9041 123.638 35.0864C123.998 35.2642 124.301 35.5194 124.547 35.8521C124.793 36.1847 124.978 36.5835 125.101 37.0483C125.228 37.5086 125.292 38.0213 125.292 38.5864ZM124.021 38.73V38.5864C124.021 38.2173 123.982 37.8709 123.904 37.5474C123.827 37.2192 123.706 36.9321 123.542 36.686C123.382 36.4354 123.177 36.2394 122.927 36.0981C122.676 35.9523 122.378 35.8794 122.031 35.8794C121.712 35.8794 121.434 35.9341 121.197 36.0435C120.965 36.1528 120.767 36.3009 120.603 36.4878C120.438 36.6701 120.304 36.8797 120.199 37.1167C120.099 37.3491 120.024 37.5907 119.974 37.8413V39.6118C120.065 39.9308 120.192 40.2316 120.356 40.5142C120.521 40.7922 120.739 41.0177 121.013 41.1909C121.286 41.3595 121.63 41.4438 122.045 41.4438C122.387 41.4438 122.681 41.3732 122.927 41.2319C123.177 41.0861 123.382 40.8879 123.542 40.6372C123.706 40.3866 123.827 40.0994 123.904 39.7759C123.982 39.4478 124.021 39.0991 124.021 38.73ZM126.57 38.73V38.5728C126.57 38.0396 126.648 37.5451 126.803 37.0894C126.958 36.6291 127.181 36.2303 127.473 35.8931C127.764 35.5513 128.118 35.2869 128.532 35.1001C128.947 34.9087 129.412 34.813 129.927 34.813C130.446 34.813 130.913 34.9087 131.328 35.1001C131.747 35.2869 132.103 35.5513 132.395 35.8931C132.691 36.2303 132.916 36.6291 133.071 37.0894C133.226 37.5451 133.304 38.0396 133.304 38.5728V38.73C133.304 39.2632 133.226 39.7576 133.071 40.2134C132.916 40.6691 132.691 41.0679 132.395 41.4097C132.103 41.7469 131.75 42.0112 131.335 42.2026C130.925 42.3895 130.46 42.4829 129.94 42.4829C129.421 42.4829 128.954 42.3895 128.539 42.2026C128.124 42.0112 127.769 41.7469 127.473 41.4097C127.181 41.0679 126.958 40.6691 126.803 40.2134C126.648 39.7576 126.57 39.2632 126.57 38.73ZM127.835 38.5728V38.73C127.835 39.0991 127.878 39.4478 127.965 39.7759C128.051 40.0994 128.181 40.3866 128.354 40.6372C128.532 40.8879 128.753 41.0861 129.018 41.2319C129.282 41.3732 129.59 41.4438 129.94 41.4438C130.287 41.4438 130.59 41.3732 130.85 41.2319C131.114 41.0861 131.333 40.8879 131.506 40.6372C131.679 40.3866 131.809 40.0994 131.896 39.7759C131.987 39.4478 132.032 39.0991 132.032 38.73V38.5728C132.032 38.2082 131.987 37.8641 131.896 37.5405C131.809 37.2124 131.677 36.923 131.499 36.6724C131.326 36.4172 131.107 36.2166 130.843 36.0708C130.583 35.925 130.278 35.8521 129.927 35.8521C129.58 35.8521 129.275 35.925 129.011 36.0708C128.751 36.2166 128.532 36.4172 128.354 36.6724C128.181 36.923 128.051 37.2124 127.965 37.5405C127.878 37.8641 127.835 38.2082 127.835 38.5728ZM135.73 34.9497H136.995L136.886 37.7183C136.858 38.4201 136.779 39.0262 136.646 39.5366C136.514 40.047 136.346 40.4823 136.141 40.8423C135.936 41.1978 135.705 41.4963 135.45 41.7378C135.2 41.9793 134.94 42.1821 134.671 42.3462H134.042L134.076 41.314L134.336 41.3071C134.486 41.1294 134.632 40.9471 134.773 40.7603C134.915 40.5688 135.045 40.3433 135.163 40.0835C135.282 39.8192 135.38 39.4979 135.457 39.1196C135.539 38.7368 135.591 38.2697 135.614 37.7183L135.73 34.9497ZM136.045 34.9497H140.495V42.3462H139.23V36.1187H136.045V34.9497ZM133.755 41.3071H141.445V44.5269H140.181V42.3462H135.02V44.5269H133.748L133.755 41.3071ZM147.208 41.0815V37.2739C147.208 36.9823 147.149 36.7293 147.03 36.5151C146.916 36.2964 146.743 36.1278 146.511 36.0093C146.278 35.8908 145.991 35.8315 145.649 35.8315C145.33 35.8315 145.05 35.8862 144.809 35.9956C144.572 36.105 144.385 36.2485 144.248 36.4263C144.116 36.604 144.05 36.7954 144.05 37.0005H142.785C142.785 36.7362 142.854 36.4741 142.99 36.2144C143.127 35.9546 143.323 35.7199 143.578 35.5103C143.838 35.2961 144.148 35.1274 144.508 35.0044C144.872 34.8768 145.278 34.813 145.725 34.813C146.262 34.813 146.736 34.9041 147.146 35.0864C147.561 35.2687 147.885 35.5444 148.117 35.9136C148.354 36.2782 148.473 36.7362 148.473 37.2876V40.7329C148.473 40.979 148.493 41.241 148.534 41.519C148.58 41.797 148.646 42.0363 148.732 42.2368V42.3462H147.413C147.349 42.2004 147.299 42.0067 147.263 41.7651C147.226 41.519 147.208 41.2912 147.208 41.0815ZM147.427 37.8618L147.44 38.7505H146.162C145.802 38.7505 145.481 38.7801 145.198 38.8394C144.916 38.894 144.679 38.9784 144.487 39.0923C144.296 39.2062 144.15 39.3498 144.05 39.5229C143.95 39.6916 143.899 39.8898 143.899 40.1177C143.899 40.3501 143.952 40.562 144.057 40.7534C144.161 40.9448 144.319 41.0975 144.528 41.2114C144.743 41.3208 145.005 41.3755 145.314 41.3755C145.702 41.3755 146.044 41.2935 146.34 41.1294C146.636 40.9653 146.871 40.7648 147.044 40.5278C147.222 40.2909 147.317 40.0607 147.331 39.8374L147.871 40.4458C147.839 40.6372 147.753 40.8491 147.611 41.0815C147.47 41.314 147.281 41.5373 147.044 41.7515C146.812 41.9611 146.534 42.1366 146.21 42.2778C145.891 42.4146 145.531 42.4829 145.13 42.4829C144.629 42.4829 144.189 42.3849 143.811 42.189C143.437 41.993 143.145 41.731 142.936 41.4028C142.73 41.0701 142.628 40.6987 142.628 40.2886C142.628 39.8921 142.705 39.5435 142.86 39.2427C143.015 38.9373 143.239 38.6844 143.53 38.4839C143.822 38.2788 144.173 38.1239 144.583 38.019C144.993 37.9142 145.451 37.8618 145.957 37.8618H147.427ZM152.704 39.1265L149.901 34.9497H151.426L153.34 38.0122H154.816L154.632 39.1265H152.704ZM153.395 38.9966L151.248 42.3462H149.648L152.595 38.0806L153.395 38.9966ZM155.466 34.9497V42.3462H154.201V34.9497H155.466ZM159.779 34.9497L156.977 39.1265H155.049L154.851 38.0122H156.334L158.248 34.9497H159.779ZM158.426 42.3462L156.272 38.9966L157.086 38.0806L160.025 42.3462H158.426ZM114.437 59.0923H112.01L111.996 58.0806H113.979C114.37 58.0806 114.696 58.0418 114.956 57.9644C115.22 57.8869 115.419 57.7707 115.551 57.6157C115.683 57.4608 115.749 57.2694 115.749 57.0415C115.749 56.8638 115.71 56.7088 115.633 56.5767C115.56 56.4399 115.448 56.3283 115.298 56.2417C115.147 56.1506 114.961 56.0845 114.737 56.0435C114.519 55.9979 114.261 55.9751 113.965 55.9751H112.345V62.3462H111.08V54.9497H113.965C114.434 54.9497 114.856 54.9907 115.229 55.0728C115.608 55.1548 115.929 55.2801 116.193 55.4487C116.462 55.6128 116.667 55.8224 116.809 56.0776C116.95 56.3328 117.021 56.6336 117.021 56.98C117.021 57.2033 116.975 57.4152 116.884 57.6157C116.793 57.8162 116.658 57.994 116.48 58.1489C116.303 58.3039 116.084 58.4315 115.824 58.5317C115.564 58.6274 115.266 58.689 114.929 58.7163L114.437 59.0923ZM114.437 62.3462H111.552L112.181 61.3208H114.437C114.787 61.3208 115.079 61.2775 115.312 61.1909C115.544 61.0998 115.717 60.9722 115.831 60.8081C115.95 60.6395 116.009 60.439 116.009 60.2065C116.009 59.9741 115.95 59.7759 115.831 59.6118C115.717 59.4432 115.544 59.3156 115.312 59.229C115.079 59.1379 114.787 59.0923 114.437 59.0923H112.516L112.529 58.0806H114.929L115.387 58.4634C115.792 58.4953 116.136 58.5955 116.419 58.7642C116.701 58.9328 116.916 59.147 117.062 59.4067C117.207 59.6619 117.28 59.9399 117.28 60.2407C117.28 60.5871 117.214 60.8924 117.082 61.1567C116.954 61.4211 116.768 61.6421 116.521 61.8198C116.275 61.993 115.977 62.1252 115.626 62.2163C115.275 62.3029 114.879 62.3462 114.437 62.3462ZM120.015 57.4927H122.236C122.833 57.4927 123.337 57.5975 123.747 57.8071C124.157 58.0122 124.467 58.297 124.677 58.6616C124.891 59.0216 124.998 59.4318 124.998 59.8921C124.998 60.2339 124.939 60.5552 124.82 60.856C124.702 61.1522 124.524 61.4119 124.287 61.6353C124.055 61.8586 123.765 62.034 123.419 62.1616C123.077 62.2847 122.683 62.3462 122.236 62.3462H119.092V54.9497H120.356V61.3071H122.236C122.601 61.3071 122.893 61.241 123.111 61.1089C123.33 60.9767 123.487 60.8058 123.583 60.5962C123.679 60.3866 123.727 60.1678 123.727 59.9399C123.727 59.7166 123.679 59.4979 123.583 59.2837C123.487 59.0695 123.33 58.8918 123.111 58.7505C122.893 58.6047 122.601 58.5317 122.236 58.5317H120.015V57.4927ZM127.63 54.9497V62.3462H126.365V54.9497H127.63ZM134.589 51.73H135.628C135.628 52.1766 135.56 52.5321 135.423 52.7964C135.286 53.0562 135.099 53.2567 134.862 53.3979C134.63 53.5392 134.366 53.6463 134.069 53.7192C133.778 53.7922 133.475 53.8628 133.16 53.9312C132.768 54.0132 132.404 54.1431 132.066 54.3208C131.734 54.494 131.447 54.7401 131.205 55.0591C130.968 55.3781 130.793 55.7928 130.679 56.3032C130.569 56.8136 130.54 57.4448 130.59 58.1968V58.8257H129.551V58.1968C129.551 57.3537 129.631 56.6177 129.79 55.9888C129.954 55.3599 130.184 54.8289 130.48 54.396C130.777 53.9631 131.128 53.619 131.533 53.3638C131.943 53.1086 132.395 52.9331 132.887 52.8374C133.242 52.769 133.548 52.6961 133.803 52.6187C134.058 52.5366 134.252 52.4272 134.384 52.2905C134.521 52.1538 134.589 51.967 134.589 51.73ZM133.092 55.3735C133.575 55.3735 134.006 55.4578 134.384 55.6265C134.762 55.7951 135.083 56.0298 135.348 56.3306C135.612 56.6313 135.812 56.9868 135.949 57.397C136.09 57.8026 136.161 58.2446 136.161 58.7231V58.8735C136.161 59.3885 136.086 59.867 135.936 60.3091C135.79 60.7466 135.573 61.1294 135.286 61.4575C135.004 61.7811 134.657 62.034 134.247 62.2163C133.841 62.3986 133.379 62.4897 132.859 62.4897C132.34 62.4897 131.875 62.3986 131.465 62.2163C131.059 62.034 130.713 61.7811 130.426 61.4575C130.139 61.1294 129.92 60.7466 129.77 60.3091C129.624 59.867 129.551 59.3885 129.551 58.8735V58.7231C129.551 58.6092 129.571 58.4976 129.612 58.3882C129.653 58.2788 129.703 58.1672 129.763 58.0532C129.826 57.9393 129.883 57.8185 129.934 57.6909C130.102 57.2808 130.332 56.9002 130.624 56.5493C130.92 56.1984 131.273 55.9159 131.684 55.7017C132.098 55.4829 132.568 55.3735 133.092 55.3735ZM132.846 56.4058C132.381 56.4058 131.998 56.5129 131.697 56.7271C131.401 56.9412 131.18 57.2261 131.034 57.5815C130.888 57.9325 130.815 58.313 130.815 58.7231V58.8735C130.815 59.2199 130.856 59.548 130.938 59.8579C131.021 60.1678 131.144 60.4435 131.308 60.6851C131.476 60.922 131.688 61.1089 131.943 61.2456C132.203 61.3823 132.508 61.4507 132.859 61.4507C133.21 61.4507 133.513 61.3823 133.769 61.2456C134.024 61.1089 134.233 60.922 134.397 60.6851C134.562 60.4435 134.685 60.1678 134.767 59.8579C134.849 59.548 134.89 59.2199 134.89 58.8735V58.7231C134.89 58.4132 134.849 58.1193 134.767 57.8413C134.685 57.5633 134.559 57.3172 134.391 57.103C134.227 56.8888 134.015 56.7202 133.755 56.5972C133.5 56.4696 133.197 56.4058 132.846 56.4058ZM138.738 56.3716V65.1899H137.467V54.9497H138.629L138.738 56.3716ZM143.722 58.5864V58.73C143.722 59.2677 143.658 59.7668 143.53 60.2271C143.403 60.6828 143.216 61.0793 142.97 61.4165C142.728 61.7537 142.43 62.0158 142.074 62.2026C141.719 62.3895 141.311 62.4829 140.851 62.4829C140.381 62.4829 139.966 62.4054 139.606 62.2505C139.246 62.0955 138.941 61.87 138.69 61.5737C138.44 61.2775 138.239 60.922 138.089 60.5073C137.943 60.0926 137.843 59.6255 137.788 59.106V58.3403C137.843 57.7935 137.945 57.3035 138.096 56.8706C138.246 56.4377 138.444 56.0685 138.69 55.7632C138.941 55.4533 139.244 55.2186 139.6 55.0591C139.955 54.895 140.365 54.813 140.83 54.813C141.295 54.813 141.707 54.9041 142.067 55.0864C142.427 55.2642 142.73 55.5194 142.977 55.8521C143.223 56.1847 143.407 56.5835 143.53 57.0483C143.658 57.5086 143.722 58.0213 143.722 58.5864ZM142.45 58.73V58.5864C142.45 58.2173 142.411 57.8709 142.334 57.5474C142.257 57.2192 142.136 56.9321 141.972 56.686C141.812 56.4354 141.607 56.2394 141.356 56.0981C141.106 55.9523 140.807 55.8794 140.461 55.8794C140.142 55.8794 139.864 55.9341 139.627 56.0435C139.395 56.1528 139.196 56.3009 139.032 56.4878C138.868 56.6701 138.734 56.8797 138.629 57.1167C138.529 57.3491 138.453 57.5907 138.403 57.8413V59.6118C138.494 59.9308 138.622 60.2316 138.786 60.5142C138.95 60.7922 139.169 61.0177 139.442 61.1909C139.716 61.3595 140.06 61.4438 140.475 61.4438C140.816 61.4438 141.11 61.3732 141.356 61.2319C141.607 61.0861 141.812 60.8879 141.972 60.6372C142.136 60.3866 142.257 60.0994 142.334 59.7759C142.411 59.4478 142.45 59.0991 142.45 58.73ZM149.696 61.0815V57.2739C149.696 56.9823 149.637 56.7293 149.519 56.5151C149.405 56.2964 149.231 56.1278 148.999 56.0093C148.767 55.8908 148.479 55.8315 148.138 55.8315C147.819 55.8315 147.538 55.8862 147.297 55.9956C147.06 56.105 146.873 56.2485 146.736 56.4263C146.604 56.604 146.538 56.7954 146.538 57.0005H145.273C145.273 56.7362 145.342 56.4741 145.479 56.2144C145.615 55.9546 145.811 55.7199 146.066 55.5103C146.326 55.2961 146.636 55.1274 146.996 55.0044C147.361 54.8768 147.766 54.813 148.213 54.813C148.751 54.813 149.225 54.9041 149.635 55.0864C150.049 55.2687 150.373 55.5444 150.605 55.9136C150.842 56.2782 150.961 56.7362 150.961 57.2876V60.7329C150.961 60.979 150.981 61.241 151.022 61.519C151.068 61.797 151.134 62.0363 151.221 62.2368V62.3462H149.901C149.838 62.2004 149.787 62.0067 149.751 61.7651C149.715 61.519 149.696 61.2912 149.696 61.0815ZM149.915 57.8618L149.929 58.7505H148.65C148.29 58.7505 147.969 58.7801 147.687 58.8394C147.404 58.894 147.167 58.9784 146.976 59.0923C146.784 59.2062 146.638 59.3498 146.538 59.5229C146.438 59.6916 146.388 59.8898 146.388 60.1177C146.388 60.3501 146.44 60.562 146.545 60.7534C146.65 60.9448 146.807 61.0975 147.017 61.2114C147.231 61.3208 147.493 61.3755 147.803 61.3755C148.19 61.3755 148.532 61.2935 148.828 61.1294C149.124 60.9653 149.359 60.7648 149.532 60.5278C149.71 60.2909 149.806 60.0607 149.819 59.8374L150.359 60.4458C150.327 60.6372 150.241 60.8491 150.1 61.0815C149.958 61.314 149.769 61.5373 149.532 61.7515C149.3 61.9611 149.022 62.1366 148.698 62.2778C148.379 62.4146 148.019 62.4829 147.618 62.4829C147.117 62.4829 146.677 62.3849 146.299 62.189C145.925 61.993 145.633 61.731 145.424 61.4028C145.219 61.0701 145.116 60.6987 145.116 60.2886C145.116 59.8921 145.194 59.5435 145.349 59.2427C145.504 58.9373 145.727 58.6844 146.019 58.4839C146.31 58.2788 146.661 58.1239 147.071 58.019C147.481 57.9142 147.939 57.8618 148.445 57.8618H149.915ZM157.968 58.1558V59.1812H154.058V58.1558H157.968ZM154.324 54.9497V62.3462H153.06V54.9497H154.324ZM158.993 54.9497V62.3462H157.722V54.9497H158.993ZM166.048 58.1558V59.1812H162.138V58.1558H166.048ZM162.404 54.9497V62.3462H161.14V54.9497H162.404ZM167.073 54.9497V62.3462H165.802V54.9497H167.073ZM170.149 57.4927H172.371C172.968 57.4927 173.472 57.5975 173.882 57.8071C174.292 58.0122 174.602 58.297 174.812 58.6616C175.026 59.0216 175.133 59.4318 175.133 59.8921C175.133 60.2339 175.074 60.5552 174.955 60.856C174.837 61.1522 174.659 61.4119 174.422 61.6353C174.189 61.8586 173.9 62.034 173.554 62.1616C173.212 62.2847 172.818 62.3462 172.371 62.3462H169.227V54.9497H170.491V61.3071H172.371C172.736 61.3071 173.027 61.241 173.246 61.1089C173.465 60.9767 173.622 60.8058 173.718 60.5962C173.813 60.3866 173.861 60.1678 173.861 59.9399C173.861 59.7166 173.813 59.4979 173.718 59.2837C173.622 59.0695 173.465 58.8918 173.246 58.7505C173.027 58.6047 172.736 58.5317 172.371 58.5317H170.149V57.4927ZM177.765 54.9497V62.3462H176.5V54.9497H177.765ZM180.834 54.9497L182.454 57.6431L184.095 54.9497H185.578L183.158 58.6001L185.653 62.3462H184.19L182.481 59.5708L180.772 62.3462H179.303L181.791 58.6001L179.378 54.9497H180.834ZM193.412 54.9497V62.3462H192.141V54.9497H193.412ZM195.894 54.9497V55.9751H189.707V54.9497H195.894ZM196.516 58.73V58.5728C196.516 58.0396 196.593 57.5451 196.748 57.0894C196.903 56.6291 197.126 56.2303 197.418 55.8931C197.71 55.5513 198.063 55.2869 198.478 55.1001C198.892 54.9087 199.357 54.813 199.872 54.813C200.392 54.813 200.859 54.9087 201.273 55.1001C201.693 55.2869 202.048 55.5513 202.34 55.8931C202.636 56.2303 202.862 56.6291 203.017 57.0894C203.172 57.5451 203.249 58.0396 203.249 58.5728V58.73C203.249 59.2632 203.172 59.7576 203.017 60.2134C202.862 60.6691 202.636 61.0679 202.34 61.4097C202.048 61.7469 201.695 62.0112 201.28 62.2026C200.87 62.3895 200.405 62.4829 199.886 62.4829C199.366 62.4829 198.899 62.3895 198.484 62.2026C198.07 62.0112 197.714 61.7469 197.418 61.4097C197.126 61.0679 196.903 60.6691 196.748 60.2134C196.593 59.7576 196.516 59.2632 196.516 58.73ZM197.78 58.5728V58.73C197.78 59.0991 197.824 59.4478 197.91 59.7759C197.997 60.0994 198.127 60.3866 198.3 60.6372C198.478 60.8879 198.699 61.0861 198.963 61.2319C199.227 61.3732 199.535 61.4438 199.886 61.4438C200.232 61.4438 200.535 61.3732 200.795 61.2319C201.059 61.0861 201.278 60.8879 201.451 60.6372C201.624 60.3866 201.754 60.0994 201.841 59.7759C201.932 59.4478 201.978 59.0991 201.978 58.73V58.5728C201.978 58.2082 201.932 57.8641 201.841 57.5405C201.754 57.2124 201.622 56.923 201.444 56.6724C201.271 56.4172 201.052 56.2166 200.788 56.0708C200.528 55.925 200.223 55.8521 199.872 55.8521C199.526 55.8521 199.22 55.925 198.956 56.0708C198.696 56.2166 198.478 56.4172 198.3 56.6724C198.127 56.923 197.997 57.2124 197.91 57.5405C197.824 57.8641 197.78 58.2082 197.78 58.5728ZM208.308 59.0923H205.881L205.867 58.0806H207.85C208.242 58.0806 208.567 58.0418 208.827 57.9644C209.091 57.8869 209.29 57.7707 209.422 57.6157C209.554 57.4608 209.62 57.2694 209.62 57.0415C209.62 56.8638 209.581 56.7088 209.504 56.5767C209.431 56.4399 209.319 56.3283 209.169 56.2417C209.019 56.1506 208.832 56.0845 208.608 56.0435C208.39 55.9979 208.132 55.9751 207.836 55.9751H206.216V62.3462H204.951V54.9497H207.836C208.305 54.9497 208.727 54.9907 209.101 55.0728C209.479 55.1548 209.8 55.2801 210.064 55.4487C210.333 55.6128 210.538 55.8224 210.68 56.0776C210.821 56.3328 210.892 56.6336 210.892 56.98C210.892 57.2033 210.846 57.4152 210.755 57.6157C210.664 57.8162 210.529 57.994 210.352 58.1489C210.174 58.3039 209.955 58.4315 209.695 58.5317C209.436 58.6274 209.137 58.689 208.8 58.7163L208.308 59.0923ZM208.308 62.3462H205.423L206.052 61.3208H208.308C208.659 61.3208 208.95 61.2775 209.183 61.1909C209.415 61.0998 209.588 60.9722 209.702 60.8081C209.821 60.6395 209.88 60.439 209.88 60.2065C209.88 59.9741 209.821 59.7759 209.702 59.6118C209.588 59.4432 209.415 59.3156 209.183 59.229C208.95 59.1379 208.659 59.0923 208.308 59.0923H206.387L206.4 58.0806H208.8L209.258 58.4634C209.663 58.4953 210.007 58.5955 210.29 58.7642C210.573 58.9328 210.787 59.147 210.933 59.4067C211.078 59.6619 211.151 59.9399 211.151 60.2407C211.151 60.5871 211.085 60.8924 210.953 61.1567C210.826 61.4211 210.639 61.6421 210.393 61.8198C210.146 61.993 209.848 62.1252 209.497 62.2163C209.146 62.3029 208.75 62.3462 208.308 62.3462ZM217.208 61.0815V57.2739C217.208 56.9823 217.149 56.7293 217.03 56.5151C216.916 56.2964 216.743 56.1278 216.511 56.0093C216.278 55.8908 215.991 55.8315 215.649 55.8315C215.33 55.8315 215.05 55.8862 214.809 55.9956C214.572 56.105 214.385 56.2485 214.248 56.4263C214.116 56.604 214.05 56.7954 214.05 57.0005H212.785C212.785 56.7362 212.854 56.4741 212.99 56.2144C213.127 55.9546 213.323 55.7199 213.578 55.5103C213.838 55.2961 214.148 55.1274 214.508 55.0044C214.872 54.8768 215.278 54.813 215.725 54.813C216.262 54.813 216.736 54.9041 217.146 55.0864C217.561 55.2687 217.885 55.5444 218.117 55.9136C218.354 56.2782 218.473 56.7362 218.473 57.2876V60.7329C218.473 60.979 218.493 61.241 218.534 61.519C218.58 61.797 218.646 62.0363 218.732 62.2368V62.3462H217.413C217.349 62.2004 217.299 62.0067 217.263 61.7651C217.226 61.519 217.208 61.2912 217.208 61.0815ZM217.427 57.8618L217.44 58.7505H216.162C215.802 58.7505 215.481 58.7801 215.198 58.8394C214.916 58.894 214.679 58.9784 214.487 59.0923C214.296 59.2062 214.15 59.3498 214.05 59.5229C213.95 59.6916 213.899 59.8898 213.899 60.1177C213.899 60.3501 213.952 60.562 214.057 60.7534C214.161 60.9448 214.319 61.0975 214.528 61.2114C214.743 61.3208 215.005 61.3755 215.314 61.3755C215.702 61.3755 216.044 61.2935 216.34 61.1294C216.636 60.9653 216.871 60.7648 217.044 60.5278C217.222 60.2909 217.317 60.0607 217.331 59.8374L217.871 60.4458C217.839 60.6372 217.753 60.8491 217.611 61.0815C217.47 61.314 217.281 61.5373 217.044 61.7515C216.812 61.9611 216.534 62.1366 216.21 62.2778C215.891 62.4146 215.531 62.4829 215.13 62.4829C214.629 62.4829 214.189 62.3849 213.811 62.189C213.437 61.993 213.145 61.731 212.936 61.4028C212.73 61.0701 212.628 60.6987 212.628 60.2886C212.628 59.8921 212.705 59.5435 212.86 59.2427C213.015 58.9373 213.239 58.6844 213.53 58.4839C213.822 58.2788 214.173 58.1239 214.583 58.019C214.993 57.9142 215.451 57.8618 215.957 57.8618H217.427ZM221.727 56.3716V65.1899H220.455V54.9497H221.617L221.727 56.3716ZM226.71 58.5864V58.73C226.71 59.2677 226.646 59.7668 226.519 60.2271C226.391 60.6828 226.204 61.0793 225.958 61.4165C225.716 61.7537 225.418 62.0158 225.062 62.2026C224.707 62.3895 224.299 62.4829 223.839 62.4829C223.369 62.4829 222.955 62.4054 222.595 62.2505C222.235 62.0955 221.929 61.87 221.679 61.5737C221.428 61.2775 221.228 60.922 221.077 60.5073C220.931 60.0926 220.831 59.6255 220.776 59.106V58.3403C220.831 57.7935 220.934 57.3035 221.084 56.8706C221.234 56.4377 221.433 56.0685 221.679 55.7632C221.929 55.4533 222.232 55.2186 222.588 55.0591C222.943 54.895 223.354 54.813 223.818 54.813C224.283 54.813 224.696 54.9041 225.056 55.0864C225.416 55.2642 225.719 55.5194 225.965 55.8521C226.211 56.1847 226.396 56.5835 226.519 57.0483C226.646 57.5086 226.71 58.0213 226.71 58.5864ZM225.438 58.73V58.5864C225.438 58.2173 225.4 57.8709 225.322 57.5474C225.245 57.2192 225.124 56.9321 224.96 56.686C224.8 56.4354 224.595 56.2394 224.345 56.0981C224.094 55.9523 223.796 55.8794 223.449 55.8794C223.13 55.8794 222.852 55.9341 222.615 56.0435C222.383 56.1528 222.185 56.3009 222.021 56.4878C221.856 56.6701 221.722 56.8797 221.617 57.1167C221.517 57.3491 221.442 57.5907 221.392 57.8413V59.6118C221.483 59.9308 221.61 60.2316 221.774 60.5142C221.938 60.7922 222.157 61.0177 222.431 61.1909C222.704 61.3595 223.048 61.4438 223.463 61.4438C223.805 61.4438 224.099 61.3732 224.345 61.2319C224.595 61.0861 224.8 60.8879 224.96 60.6372C225.124 60.3866 225.245 60.0994 225.322 59.7759C225.4 59.4478 225.438 59.0991 225.438 58.73ZM227.988 58.73V58.5728C227.988 58.0396 228.066 57.5451 228.221 57.0894C228.376 56.6291 228.599 56.2303 228.891 55.8931C229.182 55.5513 229.535 55.2869 229.95 55.1001C230.365 54.9087 230.83 54.813 231.345 54.813C231.864 54.813 232.331 54.9087 232.746 55.1001C233.165 55.2869 233.521 55.5513 233.812 55.8931C234.109 56.2303 234.334 56.6291 234.489 57.0894C234.644 57.5451 234.722 58.0396 234.722 58.5728V58.73C234.722 59.2632 234.644 59.7576 234.489 60.2134C234.334 60.6691 234.109 61.0679 233.812 61.4097C233.521 61.7469 233.168 62.0112 232.753 62.2026C232.343 62.3895 231.878 62.4829 231.358 62.4829C230.839 62.4829 230.372 62.3895 229.957 62.2026C229.542 62.0112 229.187 61.7469 228.891 61.4097C228.599 61.0679 228.376 60.6691 228.221 60.2134C228.066 59.7576 227.988 59.2632 227.988 58.73ZM229.253 58.5728V58.73C229.253 59.0991 229.296 59.4478 229.383 59.7759C229.469 60.0994 229.599 60.3866 229.772 60.6372C229.95 60.8879 230.171 61.0861 230.436 61.2319C230.7 61.3732 231.007 61.4438 231.358 61.4438C231.705 61.4438 232.008 61.3732 232.268 61.2319C232.532 61.0861 232.751 60.8879 232.924 60.6372C233.097 60.3866 233.227 60.0994 233.313 59.7759C233.405 59.4478 233.45 59.0991 233.45 58.73V58.5728C233.45 58.2082 233.405 57.8641 233.313 57.5405C233.227 57.2124 233.095 56.923 232.917 56.6724C232.744 56.4172 232.525 56.2166 232.261 56.0708C232.001 55.925 231.696 55.8521 231.345 55.8521C230.998 55.8521 230.693 55.925 230.429 56.0708C230.169 56.2166 229.95 56.4172 229.772 56.6724C229.599 56.923 229.469 57.2124 229.383 57.5405C229.296 57.8641 229.253 58.2082 229.253 58.5728ZM239.78 59.0923H237.354L237.34 58.0806H239.322C239.714 58.0806 240.04 58.0418 240.3 57.9644C240.564 57.8869 240.762 57.7707 240.895 57.6157C241.027 57.4608 241.093 57.2694 241.093 57.0415C241.093 56.8638 241.054 56.7088 240.977 56.5767C240.904 56.4399 240.792 56.3283 240.642 56.2417C240.491 56.1506 240.304 56.0845 240.081 56.0435C239.862 55.9979 239.605 55.9751 239.309 55.9751H237.688V62.3462H236.424V54.9497H239.309C239.778 54.9497 240.2 54.9907 240.573 55.0728C240.951 55.1548 241.273 55.2801 241.537 55.4487C241.806 55.6128 242.011 55.8224 242.152 56.0776C242.294 56.3328 242.364 56.6336 242.364 56.98C242.364 57.2033 242.319 57.4152 242.228 57.6157C242.136 57.8162 242.002 57.994 241.824 58.1489C241.646 58.3039 241.428 58.4315 241.168 58.5317C240.908 58.6274 240.61 58.689 240.272 58.7163L239.78 59.0923ZM239.78 62.3462H236.896L237.524 61.3208H239.78C240.131 61.3208 240.423 61.2775 240.655 61.1909C240.888 61.0998 241.061 60.9722 241.175 60.8081C241.293 60.6395 241.353 60.439 241.353 60.2065C241.353 59.9741 241.293 59.7759 241.175 59.6118C241.061 59.4432 240.888 59.3156 240.655 59.229C240.423 59.1379 240.131 59.0923 239.78 59.0923H237.859L237.873 58.0806H240.272L240.73 58.4634C241.136 58.4953 241.48 58.5955 241.763 58.7642C242.045 58.9328 242.259 59.147 242.405 59.4067C242.551 59.6619 242.624 59.9399 242.624 60.2407C242.624 60.5871 242.558 60.8924 242.426 61.1567C242.298 61.4211 242.111 61.6421 241.865 61.8198C241.619 61.993 241.321 62.1252 240.97 62.2163C240.619 62.3029 240.222 62.3462 239.78 62.3462Z" fill="black"/>
<path d="M85 42.3462L59 42.3462" stroke="#00A3FF" stroke-miterlimit="10" stroke-linecap="round"/>
<path d="M80 40.4761C79.9954 41.9604 80.4313 43.4128 81.2526 44.6492C82.0739 45.8857 83.2436 46.8506 84.6136 47.4219C85.9837 47.9931 87.4924 48.145 88.9488 47.8582C90.4052 47.5715 91.7437 46.8591 92.795 45.8111C93.8462 44.7632 94.5629 43.4268 94.8542 41.9713C95.1455 40.5158 94.9983 39.0066 94.4313 37.6348C93.8644 36.263 92.9031 35.0903 91.6692 34.2651C90.4354 33.44 88.9844 32.9995 87.5 32.9995C85.515 32.9995 83.6108 33.7865 82.205 35.1879C80.7991 36.5894 80.0062 38.491 80 40.4761V40.4761Z" fill="#00A3FF"/>
<path d="M87.4766 43.4058C85.8586 43.4058 84.5469 42.0941 84.5469 40.4761C84.5469 38.8581 85.8586 37.5464 87.4766 37.5464C89.0946 37.5464 90.4062 38.8581 90.4062 40.4761C90.4062 42.0941 89.0946 43.4058 87.4766 43.4058Z" fill="white"/>
<defs>
<filter id="filter0_d_316_451" x="262.322" y="0.668945" width="83.3555" height="83.3555" filterUnits="userSpaceOnUse" color-interpolation-filters="sRGB">
<feFlood flood-opacity="0" result="BackgroundImageFix"/>
<feColorMatrix in="SourceAlpha" type="matrix" values="0 0 0 0 0 0 0 0 0 0 0 0 0 0 0 0 0 0 127 0" result="hardAlpha"/>
<feOffset/>
<feGaussianBlur stdDeviation="12"/>
<feComposite in2="hardAlpha" operator="out"/>
<feColorMatrix type="matrix" values="0 0 0 0 0.579167 0 0 0 0 0.579167 0 0 0 0 0.579167 0 0 0 0.3 0"/>
<feBlend mode="normal" in2="BackgroundImageFix" result="effect1_dropShadow_316_451"/>
<feBlend mode="normal" in="SourceGraphic" in2="effect1_dropShadow_316_451" result="shape"/>
</filter>
</defs>
</svg>
