<svg width="346" height="100" viewBox="0 0 346 100" fill="none" xmlns="http://www.w3.org/2000/svg">
<g filter="url(#filter0_d_811_1191)">
<path d="M316.5 64.8472C323.404 57.9436 323.404 46.7507 316.5 39.8472C309.596 32.9436 298.404 32.9436 291.5 39.8472C284.596 46.7507 284.596 57.9436 291.5 64.8472C298.404 71.7507 309.596 71.7507 316.5 64.8472Z" fill="white"/>
</g>
<path d="M309.525 52.3453C309.529 53.3924 309.222 54.4171 308.643 55.29C308.065 56.1629 307.241 56.845 306.275 57.2502C305.31 57.6554 304.246 57.7657 303.218 57.567C302.19 57.3683 301.243 56.8696 300.498 56.1338C299.753 55.3979 299.243 54.458 299.031 53.4324C298.82 52.4068 298.917 51.3416 299.31 50.3711C299.703 49.4006 300.375 48.5682 301.241 47.979C302.106 47.3897 303.127 47.0701 304.174 47.0602C304.874 47.0515 305.568 47.1817 306.217 47.4434C306.866 47.705 307.456 48.0929 307.954 48.5846C308.452 49.0762 308.847 49.6618 309.117 50.3074C309.387 50.9529 309.525 51.6456 309.525 52.3453Z" fill="#00A3FF"/>
<path d="M304.24 54.4161C305.383 54.4161 306.311 53.4889 306.311 52.3451C306.311 51.2014 305.383 50.2742 304.24 50.2742C303.096 50.2742 302.169 51.2014 302.169 52.3451C302.169 53.4889 303.096 54.4161 304.24 54.4161Z" fill="white"/>
<path d="M53.0456 70.0204C62.811 60.2596 62.811 44.4342 53.0455 34.6734C43.2801 24.9127 27.4473 24.9126 17.6819 34.6734C7.91646 44.4342 7.91643 60.2596 17.6819 70.0204C27.4473 79.7812 43.2802 79.7812 53.0456 70.0204Z" fill="#00A3FF"/>
<path d="M34.1289 55.3723C32.5583 55.3723 31.1626 54.7579 29.9419 53.5291C28.7293 52.2921 28.123 50.8639 28.123 49.2444C28.123 47.5273 28.7456 46.0787 29.9907 44.8987C31.244 43.7187 32.8268 43.1287 34.7393 43.1287C36.6598 43.1287 38.2467 43.7187 39.5 44.8987C40.7533 46.0787 41.3799 47.5273 41.3799 49.2444C41.3799 49.9443 41.2537 50.6523 41.0015 51.3684C40.7492 52.0764 40.4969 52.6054 40.2446 52.9553L39.8784 53.5046L34.9956 60.9998H31.126L34.8735 55.2502C34.6619 55.3316 34.4137 55.3723 34.1289 55.3723ZM32.5908 47.2058C32.0293 47.7511 31.7485 48.4347 31.7485 49.2566C31.7485 50.0704 32.0293 50.754 32.5908 51.3074C33.1605 51.8526 33.8766 52.1252 34.7393 52.1252C35.61 52.1252 36.3302 51.8526 36.8999 51.3074C37.4696 50.754 37.7544 50.0704 37.7544 49.2566C37.7544 48.4347 37.4696 47.7511 36.8999 47.2058C36.3302 46.6524 35.61 46.3757 34.7393 46.3757C33.8766 46.3757 33.1605 46.6524 32.5908 47.2058Z" fill="white"/>
<path d="M118.757 5.04688V15H117.444V6.12695H112.536V15H111.217V5.04688H118.757ZM122.223 9.02539V17.8438H120.951V7.60352H122.113L122.223 9.02539ZM127.206 11.2402V11.3838C127.206 11.9215 127.142 12.4206 127.015 12.8809C126.887 13.3366 126.7 13.7331 126.454 14.0703C126.213 14.4076 125.914 14.6696 125.559 14.8564C125.203 15.0433 124.795 15.1367 124.335 15.1367C123.866 15.1367 123.451 15.0592 123.091 14.9043C122.731 14.7493 122.425 14.5238 122.175 14.2275C121.924 13.9313 121.724 13.5758 121.573 13.1611C121.427 12.7464 121.327 12.2793 121.272 11.7598V10.9941C121.327 10.4473 121.43 9.95736 121.58 9.52441C121.73 9.09147 121.929 8.72233 122.175 8.41699C122.425 8.1071 122.729 7.8724 123.084 7.71289C123.439 7.54883 123.85 7.4668 124.314 7.4668C124.779 7.4668 125.192 7.55794 125.552 7.74023C125.912 7.91797 126.215 8.17318 126.461 8.50586C126.707 8.83854 126.892 9.2373 127.015 9.70215C127.142 10.1624 127.206 10.6751 127.206 11.2402ZM125.935 11.3838V11.2402C125.935 10.8711 125.896 10.5247 125.818 10.2012C125.741 9.87305 125.62 9.58594 125.456 9.33984C125.297 9.08919 125.091 8.89323 124.841 8.75195C124.59 8.60612 124.292 8.5332 123.945 8.5332C123.626 8.5332 123.348 8.58789 123.111 8.69727C122.879 8.80664 122.681 8.95475 122.517 9.1416C122.353 9.32389 122.218 9.53353 122.113 9.77051C122.013 10.0029 121.938 10.2445 121.888 10.4951V12.2656C121.979 12.5846 122.106 12.8854 122.271 13.168C122.435 13.446 122.653 13.6715 122.927 13.8447C123.2 14.0133 123.544 14.0977 123.959 14.0977C124.301 14.0977 124.595 14.027 124.841 13.8857C125.091 13.7399 125.297 13.5417 125.456 13.291C125.62 13.0404 125.741 12.7533 125.818 12.4297C125.896 12.1016 125.935 11.7529 125.935 11.3838ZM128.484 11.3838V11.2266C128.484 10.6934 128.562 10.1989 128.717 9.74316C128.872 9.28288 129.095 8.88411 129.387 8.54688C129.678 8.20508 130.032 7.94076 130.446 7.75391C130.861 7.5625 131.326 7.4668 131.841 7.4668C132.36 7.4668 132.827 7.5625 133.242 7.75391C133.661 7.94076 134.017 8.20508 134.309 8.54688C134.605 8.88411 134.83 9.28288 134.985 9.74316C135.14 10.1989 135.218 10.6934 135.218 11.2266V11.3838C135.218 11.917 135.14 12.4115 134.985 12.8672C134.83 13.3229 134.605 13.7217 134.309 14.0635C134.017 14.4007 133.664 14.665 133.249 14.8564C132.839 15.0433 132.374 15.1367 131.854 15.1367C131.335 15.1367 130.868 15.0433 130.453 14.8564C130.038 14.665 129.683 14.4007 129.387 14.0635C129.095 13.7217 128.872 13.3229 128.717 12.8672C128.562 12.4115 128.484 11.917 128.484 11.3838ZM129.749 11.2266V11.3838C129.749 11.7529 129.792 12.1016 129.879 12.4297C129.965 12.7533 130.095 13.0404 130.269 13.291C130.446 13.5417 130.667 13.7399 130.932 13.8857C131.196 14.027 131.504 14.0977 131.854 14.0977C132.201 14.0977 132.504 14.027 132.764 13.8857C133.028 13.7399 133.247 13.5417 133.42 13.291C133.593 13.0404 133.723 12.7533 133.81 12.4297C133.901 12.1016 133.946 11.7529 133.946 11.3838V11.2266C133.946 10.862 133.901 10.5179 133.81 10.1943C133.723 9.86621 133.591 9.57682 133.413 9.32617C133.24 9.07096 133.021 8.87044 132.757 8.72461C132.497 8.57878 132.192 8.50586 131.841 8.50586C131.494 8.50586 131.189 8.57878 130.925 8.72461C130.665 8.87044 130.446 9.07096 130.269 9.32617C130.095 9.57682 129.965 9.86621 129.879 10.1943C129.792 10.5179 129.749 10.862 129.749 11.2266ZM137.645 7.60352H138.909L138.8 10.3721C138.772 11.0739 138.693 11.68 138.561 12.1904C138.428 12.7008 138.26 13.1361 138.055 13.4961C137.85 13.8516 137.619 14.1501 137.364 14.3916C137.114 14.6331 136.854 14.8359 136.585 15H135.956L135.99 13.9678L136.25 13.9609C136.4 13.7832 136.546 13.6009 136.688 13.4141C136.829 13.2227 136.959 12.9971 137.077 12.7373C137.196 12.473 137.294 12.1517 137.371 11.7734C137.453 11.3906 137.506 10.9235 137.528 10.3721L137.645 7.60352ZM137.959 7.60352H142.409V15H141.145V8.77246H137.959V7.60352ZM135.669 13.9609H143.359V17.1807H142.095V15H136.934V17.1807H135.662L135.669 13.9609ZM149.122 13.7354V9.92773C149.122 9.63607 149.063 9.38314 148.944 9.16895C148.83 8.9502 148.657 8.78158 148.425 8.66309C148.192 8.5446 147.905 8.48535 147.563 8.48535C147.244 8.48535 146.964 8.54004 146.723 8.64941C146.486 8.75879 146.299 8.90234 146.162 9.08008C146.03 9.25781 145.964 9.44922 145.964 9.6543H144.699C144.699 9.38997 144.768 9.12793 144.904 8.86816C145.041 8.6084 145.237 8.3737 145.492 8.16406C145.752 7.94987 146.062 7.78125 146.422 7.6582C146.786 7.5306 147.192 7.4668 147.639 7.4668C148.176 7.4668 148.65 7.55794 149.061 7.74023C149.475 7.92253 149.799 8.19824 150.031 8.56738C150.268 8.93197 150.387 9.38997 150.387 9.94141V13.3867C150.387 13.6328 150.407 13.8949 150.448 14.1729C150.494 14.4508 150.56 14.6901 150.646 14.8906V15H149.327C149.263 14.8542 149.213 14.6605 149.177 14.4189C149.14 14.1729 149.122 13.945 149.122 13.7354ZM149.341 10.5156L149.354 11.4043H148.076C147.716 11.4043 147.395 11.4339 147.112 11.4932C146.83 11.5479 146.593 11.6322 146.401 11.7461C146.21 11.86 146.064 12.0036 145.964 12.1768C145.864 12.3454 145.813 12.5436 145.813 12.7715C145.813 13.0039 145.866 13.2158 145.971 13.4072C146.076 13.5986 146.233 13.7513 146.442 13.8652C146.657 13.9746 146.919 14.0293 147.229 14.0293C147.616 14.0293 147.958 13.9473 148.254 13.7832C148.55 13.6191 148.785 13.4186 148.958 13.1816C149.136 12.9447 149.231 12.7145 149.245 12.4912L149.785 13.0996C149.753 13.291 149.667 13.5029 149.525 13.7354C149.384 13.9678 149.195 14.1911 148.958 14.4053C148.726 14.6149 148.448 14.7904 148.124 14.9316C147.805 15.0684 147.445 15.1367 147.044 15.1367C146.543 15.1367 146.103 15.0387 145.725 14.8428C145.351 14.6468 145.059 14.3848 144.85 14.0566C144.645 13.724 144.542 13.3525 144.542 12.9424C144.542 12.5459 144.619 12.1973 144.774 11.8965C144.929 11.5911 145.153 11.3382 145.444 11.1377C145.736 10.9326 146.087 10.7777 146.497 10.6729C146.907 10.568 147.365 10.5156 147.871 10.5156H149.341ZM154.618 11.7803L151.815 7.60352H153.34L155.254 10.666H156.73L156.546 11.7803H154.618ZM155.309 11.6504L153.162 15H151.562L154.509 10.7344L155.309 11.6504ZM157.38 7.60352V15H156.115V7.60352H157.38ZM161.693 7.60352L158.891 11.7803H156.963L156.765 10.666H158.248L160.162 7.60352H161.693ZM160.34 15L158.187 11.6504L159 10.7344L161.939 15H160.34ZM164.476 12.9971L167.887 7.60352H169.158V15H167.887V9.60645L164.476 15H163.218V7.60352H164.476V12.9971ZM177.676 7.60352V15H176.404V7.60352H177.676ZM180.157 7.60352V8.62891H173.971V7.60352H180.157ZM180.779 11.3838V11.2266C180.779 10.6934 180.857 10.1989 181.012 9.74316C181.167 9.28288 181.39 8.88411 181.682 8.54688C181.973 8.20508 182.326 7.94076 182.741 7.75391C183.156 7.5625 183.621 7.4668 184.136 7.4668C184.655 7.4668 185.122 7.5625 185.537 7.75391C185.956 7.94076 186.312 8.20508 186.604 8.54688C186.9 8.88411 187.125 9.28288 187.28 9.74316C187.435 10.1989 187.513 10.6934 187.513 11.2266V11.3838C187.513 11.917 187.435 12.4115 187.28 12.8672C187.125 13.3229 186.9 13.7217 186.604 14.0635C186.312 14.4007 185.959 14.665 185.544 14.8564C185.134 15.0433 184.669 15.1367 184.149 15.1367C183.63 15.1367 183.163 15.0433 182.748 14.8564C182.333 14.665 181.978 14.4007 181.682 14.0635C181.39 13.7217 181.167 13.3229 181.012 12.8672C180.857 12.4115 180.779 11.917 180.779 11.3838ZM182.044 11.2266V11.3838C182.044 11.7529 182.087 12.1016 182.174 12.4297C182.26 12.7533 182.39 13.0404 182.563 13.291C182.741 13.5417 182.962 13.7399 183.227 13.8857C183.491 14.027 183.799 14.0977 184.149 14.0977C184.496 14.0977 184.799 14.027 185.059 13.8857C185.323 13.7399 185.542 13.5417 185.715 13.291C185.888 13.0404 186.018 12.7533 186.104 12.4297C186.196 12.1016 186.241 11.7529 186.241 11.3838V11.2266C186.241 10.862 186.196 10.5179 186.104 10.1943C186.018 9.86621 185.886 9.57682 185.708 9.32617C185.535 9.07096 185.316 8.87044 185.052 8.72461C184.792 8.57878 184.487 8.50586 184.136 8.50586C183.789 8.50586 183.484 8.57878 183.22 8.72461C182.96 8.87044 182.741 9.07096 182.563 9.32617C182.39 9.57682 182.26 9.86621 182.174 10.1943C182.087 10.5179 182.044 10.862 182.044 11.2266ZM192.571 11.7461H190.145L190.131 10.7344H192.113C192.505 10.7344 192.831 10.6956 193.091 10.6182C193.355 10.5407 193.553 10.4245 193.686 10.2695C193.818 10.1146 193.884 9.92318 193.884 9.69531C193.884 9.51758 193.845 9.36263 193.768 9.23047C193.695 9.09375 193.583 8.9821 193.433 8.89551C193.282 8.80436 193.095 8.73828 192.872 8.69727C192.653 8.65169 192.396 8.62891 192.1 8.62891H190.479V15H189.215V7.60352H192.1C192.569 7.60352 192.991 7.64453 193.364 7.72656C193.743 7.80859 194.064 7.93392 194.328 8.10254C194.597 8.2666 194.802 8.47624 194.943 8.73145C195.085 8.98665 195.155 9.28743 195.155 9.63379C195.155 9.8571 195.11 10.069 195.019 10.2695C194.927 10.4701 194.793 10.6478 194.615 10.8027C194.438 10.9577 194.219 11.0853 193.959 11.1855C193.699 11.2812 193.401 11.3428 193.063 11.3701L192.571 11.7461ZM192.571 15H189.687L190.315 13.9746H192.571C192.922 13.9746 193.214 13.9313 193.446 13.8447C193.679 13.7536 193.852 13.626 193.966 13.4619C194.084 13.2933 194.144 13.0928 194.144 12.8604C194.144 12.6279 194.084 12.4297 193.966 12.2656C193.852 12.097 193.679 11.9694 193.446 11.8828C193.214 11.7917 192.922 11.7461 192.571 11.7461H190.65L190.664 10.7344H193.063L193.521 11.1172C193.927 11.1491 194.271 11.2493 194.554 11.418C194.836 11.5866 195.05 11.8008 195.196 12.0605C195.342 12.3158 195.415 12.5938 195.415 12.8945C195.415 13.2409 195.349 13.5462 195.217 13.8105C195.089 14.0749 194.902 14.2959 194.656 14.4736C194.41 14.6468 194.112 14.779 193.761 14.8701C193.41 14.9567 193.013 15 192.571 15ZM201.472 13.7354V9.92773C201.472 9.63607 201.412 9.38314 201.294 9.16895C201.18 8.9502 201.007 8.78158 200.774 8.66309C200.542 8.5446 200.255 8.48535 199.913 8.48535C199.594 8.48535 199.314 8.54004 199.072 8.64941C198.835 8.75879 198.648 8.90234 198.512 9.08008C198.38 9.25781 198.313 9.44922 198.313 9.6543H197.049C197.049 9.38997 197.117 9.12793 197.254 8.86816C197.391 8.6084 197.587 8.3737 197.842 8.16406C198.102 7.94987 198.411 7.78125 198.771 7.6582C199.136 7.5306 199.542 7.4668 199.988 7.4668C200.526 7.4668 201 7.55794 201.41 7.74023C201.825 7.92253 202.148 8.19824 202.381 8.56738C202.618 8.93197 202.736 9.38997 202.736 9.94141V13.3867C202.736 13.6328 202.757 13.8949 202.798 14.1729C202.843 14.4508 202.91 14.6901 202.996 14.8906V15H201.677C201.613 14.8542 201.563 14.6605 201.526 14.4189C201.49 14.1729 201.472 13.945 201.472 13.7354ZM201.69 10.5156L201.704 11.4043H200.426C200.066 11.4043 199.744 11.4339 199.462 11.4932C199.179 11.5479 198.942 11.6322 198.751 11.7461C198.56 11.86 198.414 12.0036 198.313 12.1768C198.213 12.3454 198.163 12.5436 198.163 12.7715C198.163 13.0039 198.215 13.2158 198.32 13.4072C198.425 13.5986 198.582 13.7513 198.792 13.8652C199.006 13.9746 199.268 14.0293 199.578 14.0293C199.965 14.0293 200.307 13.9473 200.604 13.7832C200.9 13.6191 201.134 13.4186 201.308 13.1816C201.485 12.9447 201.581 12.7145 201.595 12.4912L202.135 13.0996C202.103 13.291 202.016 13.5029 201.875 13.7354C201.734 13.9678 201.545 14.1911 201.308 14.4053C201.075 14.6149 200.797 14.7904 200.474 14.9316C200.155 15.0684 199.795 15.1367 199.394 15.1367C198.892 15.1367 198.452 15.0387 198.074 14.8428C197.701 14.6468 197.409 14.3848 197.199 14.0566C196.994 13.724 196.892 13.3525 196.892 12.9424C196.892 12.5459 196.969 12.1973 197.124 11.8965C197.279 11.5911 197.502 11.3382 197.794 11.1377C198.086 10.9326 198.437 10.7777 198.847 10.6729C199.257 10.568 199.715 10.5156 200.221 10.5156H201.69ZM205.99 9.02539V17.8438H204.719V7.60352H205.881L205.99 9.02539ZM210.974 11.2402V11.3838C210.974 11.9215 210.91 12.4206 210.782 12.8809C210.655 13.3366 210.468 13.7331 210.222 14.0703C209.98 14.4076 209.682 14.6696 209.326 14.8564C208.971 15.0433 208.563 15.1367 208.103 15.1367C207.633 15.1367 207.218 15.0592 206.858 14.9043C206.498 14.7493 206.193 14.5238 205.942 14.2275C205.692 13.9313 205.491 13.5758 205.341 13.1611C205.195 12.7464 205.095 12.2793 205.04 11.7598V10.9941C205.095 10.4473 205.197 9.95736 205.348 9.52441C205.498 9.09147 205.696 8.72233 205.942 8.41699C206.193 8.1071 206.496 7.8724 206.852 7.71289C207.207 7.54883 207.617 7.4668 208.082 7.4668C208.547 7.4668 208.959 7.55794 209.319 7.74023C209.679 7.91797 209.982 8.17318 210.229 8.50586C210.475 8.83854 210.659 9.2373 210.782 9.70215C210.91 10.1624 210.974 10.6751 210.974 11.2402ZM209.702 11.3838V11.2402C209.702 10.8711 209.663 10.5247 209.586 10.2012C209.508 9.87305 209.388 9.58594 209.224 9.33984C209.064 9.08919 208.859 8.89323 208.608 8.75195C208.358 8.60612 208.059 8.5332 207.713 8.5332C207.394 8.5332 207.116 8.58789 206.879 8.69727C206.646 8.80664 206.448 8.95475 206.284 9.1416C206.12 9.32389 205.986 9.53353 205.881 9.77051C205.781 10.0029 205.705 10.2445 205.655 10.4951V12.2656C205.746 12.5846 205.874 12.8854 206.038 13.168C206.202 13.446 206.421 13.6715 206.694 13.8447C206.968 14.0133 207.312 14.0977 207.727 14.0977C208.068 14.0977 208.362 14.027 208.608 13.8857C208.859 13.7399 209.064 13.5417 209.224 13.291C209.388 13.0404 209.508 12.7533 209.586 12.4297C209.663 12.1016 209.702 11.7529 209.702 11.3838ZM212.252 11.3838V11.2266C212.252 10.6934 212.329 10.1989 212.484 9.74316C212.639 9.28288 212.863 8.88411 213.154 8.54688C213.446 8.20508 213.799 7.94076 214.214 7.75391C214.629 7.5625 215.093 7.4668 215.608 7.4668C216.128 7.4668 216.595 7.5625 217.01 7.75391C217.429 7.94076 217.785 8.20508 218.076 8.54688C218.372 8.88411 218.598 9.28288 218.753 9.74316C218.908 10.1989 218.985 10.6934 218.985 11.2266V11.3838C218.985 11.917 218.908 12.4115 218.753 12.8672C218.598 13.3229 218.372 13.7217 218.076 14.0635C217.785 14.4007 217.431 14.665 217.017 14.8564C216.606 15.0433 216.142 15.1367 215.622 15.1367C215.103 15.1367 214.635 15.0433 214.221 14.8564C213.806 14.665 213.451 14.4007 213.154 14.0635C212.863 13.7217 212.639 13.3229 212.484 12.8672C212.329 12.4115 212.252 11.917 212.252 11.3838ZM213.517 11.2266V11.3838C213.517 11.7529 213.56 12.1016 213.646 12.4297C213.733 12.7533 213.863 13.0404 214.036 13.291C214.214 13.5417 214.435 13.7399 214.699 13.8857C214.964 14.027 215.271 14.0977 215.622 14.0977C215.968 14.0977 216.271 14.027 216.531 13.8857C216.796 13.7399 217.014 13.5417 217.188 13.291C217.361 13.0404 217.491 12.7533 217.577 12.4297C217.668 12.1016 217.714 11.7529 217.714 11.3838V11.2266C217.714 10.862 217.668 10.5179 217.577 10.1943C217.491 9.86621 217.358 9.57682 217.181 9.32617C217.007 9.07096 216.789 8.87044 216.524 8.72461C216.265 8.57878 215.959 8.50586 215.608 8.50586C215.262 8.50586 214.957 8.57878 214.692 8.72461C214.433 8.87044 214.214 9.07096 214.036 9.32617C213.863 9.57682 213.733 9.86621 213.646 10.1943C213.56 10.5179 213.517 10.862 213.517 11.2266ZM224.044 11.7461H221.617L221.604 10.7344H223.586C223.978 10.7344 224.304 10.6956 224.563 10.6182C224.828 10.5407 225.026 10.4245 225.158 10.2695C225.29 10.1146 225.356 9.92318 225.356 9.69531C225.356 9.51758 225.318 9.36263 225.24 9.23047C225.167 9.09375 225.056 8.9821 224.905 8.89551C224.755 8.80436 224.568 8.73828 224.345 8.69727C224.126 8.65169 223.868 8.62891 223.572 8.62891H221.952V15H220.688V7.60352H223.572C224.042 7.60352 224.463 7.64453 224.837 7.72656C225.215 7.80859 225.536 7.93392 225.801 8.10254C226.07 8.2666 226.275 8.47624 226.416 8.73145C226.557 8.98665 226.628 9.28743 226.628 9.63379C226.628 9.8571 226.582 10.069 226.491 10.2695C226.4 10.4701 226.266 10.6478 226.088 10.8027C225.91 10.9577 225.691 11.0853 225.432 11.1855C225.172 11.2812 224.873 11.3428 224.536 11.3701L224.044 11.7461ZM224.044 15H221.159L221.788 13.9746H224.044C224.395 13.9746 224.687 13.9313 224.919 13.8447C225.151 13.7536 225.325 13.626 225.438 13.4619C225.557 13.2933 225.616 13.0928 225.616 12.8604C225.616 12.6279 225.557 12.4297 225.438 12.2656C225.325 12.097 225.151 11.9694 224.919 11.8828C224.687 11.7917 224.395 11.7461 224.044 11.7461H222.123L222.137 10.7344H224.536L224.994 11.1172C225.4 11.1491 225.744 11.2493 226.026 11.418C226.309 11.5866 226.523 11.8008 226.669 12.0605C226.815 12.3158 226.888 12.5938 226.888 12.8945C226.888 13.2409 226.822 13.5462 226.689 13.8105C226.562 14.0749 226.375 14.2959 226.129 14.4736C225.883 14.6468 225.584 14.779 225.233 14.8701C224.882 14.9567 224.486 15 224.044 15ZM236.8 4.38379H237.839C237.839 4.8304 237.771 5.18587 237.634 5.4502C237.497 5.70996 237.31 5.91048 237.073 6.05176C236.841 6.19303 236.576 6.30013 236.28 6.37305C235.989 6.44596 235.686 6.5166 235.371 6.58496C234.979 6.66699 234.615 6.79688 234.277 6.97461C233.945 7.14779 233.658 7.39388 233.416 7.71289C233.179 8.0319 233.004 8.44661 232.89 8.95703C232.78 9.46745 232.751 10.0986 232.801 10.8506V11.4795H231.762V10.8506C231.762 10.0075 231.841 9.27148 232.001 8.64258C232.165 8.01367 232.395 7.48275 232.691 7.0498C232.988 6.61686 233.339 6.27279 233.744 6.01758C234.154 5.76237 234.605 5.58691 235.098 5.49121C235.453 5.42285 235.758 5.34993 236.014 5.27246C236.269 5.19043 236.463 5.08105 236.595 4.94434C236.731 4.80762 236.8 4.62077 236.8 4.38379ZM235.303 8.02734C235.786 8.02734 236.216 8.11165 236.595 8.28027C236.973 8.44889 237.294 8.68359 237.559 8.98438C237.823 9.28516 238.023 9.64062 238.16 10.0508C238.301 10.4564 238.372 10.8984 238.372 11.377V11.5273C238.372 12.0423 238.297 12.5208 238.146 12.9629C238.001 13.4004 237.784 13.7832 237.497 14.1113C237.215 14.4349 236.868 14.6878 236.458 14.8701C236.052 15.0524 235.59 15.1436 235.07 15.1436C234.551 15.1436 234.086 15.0524 233.676 14.8701C233.27 14.6878 232.924 14.4349 232.637 14.1113C232.35 13.7832 232.131 13.4004 231.98 12.9629C231.835 12.5208 231.762 12.0423 231.762 11.5273V11.377C231.762 11.263 231.782 11.1514 231.823 11.042C231.864 10.9326 231.914 10.821 231.974 10.707C232.037 10.5931 232.094 10.4723 232.145 10.3447C232.313 9.93457 232.543 9.55404 232.835 9.20312C233.131 8.85221 233.484 8.56966 233.895 8.35547C234.309 8.13672 234.779 8.02734 235.303 8.02734ZM235.057 9.05957C234.592 9.05957 234.209 9.16667 233.908 9.38086C233.612 9.59505 233.391 9.87988 233.245 10.2354C233.099 10.5863 233.026 10.9668 233.026 11.377V11.5273C233.026 11.8737 233.067 12.2018 233.149 12.5117C233.231 12.8216 233.354 13.0973 233.519 13.3389C233.687 13.5758 233.899 13.7627 234.154 13.8994C234.414 14.0361 234.719 14.1045 235.07 14.1045C235.421 14.1045 235.724 14.0361 235.979 13.8994C236.235 13.7627 236.444 13.5758 236.608 13.3389C236.772 13.0973 236.896 12.8216 236.978 12.5117C237.06 12.2018 237.101 11.8737 237.101 11.5273V11.377C237.101 11.0671 237.06 10.7731 236.978 10.4951C236.896 10.2171 236.77 9.97103 236.602 9.75684C236.438 9.54264 236.226 9.37402 235.966 9.25098C235.711 9.12337 235.408 9.05957 235.057 9.05957ZM240.949 9.02539V17.8438H239.678V7.60352H240.84L240.949 9.02539ZM245.933 11.2402V11.3838C245.933 11.9215 245.869 12.4206 245.741 12.8809C245.614 13.3366 245.427 13.7331 245.181 14.0703C244.939 14.4076 244.641 14.6696 244.285 14.8564C243.93 15.0433 243.522 15.1367 243.062 15.1367C242.592 15.1367 242.177 15.0592 241.817 14.9043C241.457 14.7493 241.152 14.5238 240.901 14.2275C240.651 13.9313 240.45 13.5758 240.3 13.1611C240.154 12.7464 240.054 12.2793 239.999 11.7598V10.9941C240.054 10.4473 240.156 9.95736 240.307 9.52441C240.457 9.09147 240.655 8.72233 240.901 8.41699C241.152 8.1071 241.455 7.8724 241.811 7.71289C242.166 7.54883 242.576 7.4668 243.041 7.4668C243.506 7.4668 243.918 7.55794 244.278 7.74023C244.638 7.91797 244.941 8.17318 245.188 8.50586C245.434 8.83854 245.618 9.2373 245.741 9.70215C245.869 10.1624 245.933 10.6751 245.933 11.2402ZM244.661 11.3838V11.2402C244.661 10.8711 244.622 10.5247 244.545 10.2012C244.467 9.87305 244.347 9.58594 244.183 9.33984C244.023 9.08919 243.818 8.89323 243.567 8.75195C243.317 8.60612 243.018 8.5332 242.672 8.5332C242.353 8.5332 242.075 8.58789 241.838 8.69727C241.605 8.80664 241.407 8.95475 241.243 9.1416C241.079 9.32389 240.945 9.53353 240.84 9.77051C240.74 10.0029 240.664 10.2445 240.614 10.4951V12.2656C240.705 12.5846 240.833 12.8854 240.997 13.168C241.161 13.446 241.38 13.6715 241.653 13.8447C241.927 14.0133 242.271 14.0977 242.686 14.0977C243.027 14.0977 243.321 14.027 243.567 13.8857C243.818 13.7399 244.023 13.5417 244.183 13.291C244.347 13.0404 244.467 12.7533 244.545 12.4297C244.622 12.1016 244.661 11.7529 244.661 11.3838ZM250.615 15.1367C250.1 15.1367 249.633 15.0501 249.214 14.877C248.799 14.6992 248.441 14.4508 248.141 14.1318C247.844 13.8128 247.617 13.4346 247.457 12.9971C247.298 12.5596 247.218 12.0811 247.218 11.5615V11.2744C247.218 10.6729 247.307 10.1374 247.484 9.66797C247.662 9.19401 247.904 8.79297 248.209 8.46484C248.514 8.13672 248.861 7.88835 249.248 7.71973C249.635 7.55111 250.036 7.4668 250.451 7.4668C250.98 7.4668 251.436 7.55794 251.818 7.74023C252.206 7.92253 252.522 8.17773 252.769 8.50586C253.015 8.82943 253.197 9.21224 253.315 9.6543C253.434 10.0918 253.493 10.5703 253.493 11.0898V11.6572H247.97V10.625H252.229V10.5293C252.21 10.2012 252.142 9.88216 252.023 9.57227C251.91 9.26237 251.727 9.00716 251.477 8.80664C251.226 8.60612 250.884 8.50586 250.451 8.50586C250.164 8.50586 249.9 8.56738 249.658 8.69043C249.417 8.80892 249.209 8.98665 249.036 9.22363C248.863 9.46061 248.729 9.75 248.633 10.0918C248.537 10.4336 248.489 10.8278 248.489 11.2744V11.5615C248.489 11.9124 248.537 12.2428 248.633 12.5527C248.733 12.8581 248.877 13.127 249.063 13.3594C249.255 13.5918 249.485 13.7741 249.754 13.9062C250.027 14.0384 250.337 14.1045 250.684 14.1045C251.13 14.1045 251.508 14.0133 251.818 13.8311C252.128 13.6488 252.399 13.4049 252.632 13.0996L253.397 13.708C253.238 13.9495 253.035 14.1797 252.789 14.3984C252.543 14.6172 252.24 14.7949 251.88 14.9316C251.524 15.0684 251.103 15.1367 250.615 15.1367ZM259.987 10.8096V11.835H256.077V10.8096H259.987ZM256.344 7.60352V15H255.079V7.60352H256.344ZM261.013 7.60352V15H259.741V7.60352H261.013ZM264.383 7.60352H265.647L265.538 10.3721C265.511 11.0739 265.431 11.68 265.299 12.1904C265.167 12.7008 264.998 13.1361 264.793 13.4961C264.588 13.8516 264.358 14.1501 264.103 14.3916C263.852 14.6331 263.592 14.8359 263.323 15H262.694L262.729 13.9678L262.988 13.9609C263.139 13.7832 263.285 13.6009 263.426 13.4141C263.567 13.2227 263.697 12.9971 263.815 12.7373C263.934 12.473 264.032 12.1517 264.109 11.7734C264.191 11.3906 264.244 10.9235 264.267 10.3721L264.383 7.60352ZM264.697 7.60352H269.147V15H267.883V8.77246H264.697V7.60352ZM262.407 13.9609H270.098V17.1807H268.833V15H263.672V17.1807H262.4L262.407 13.9609ZM275.86 13.7354V9.92773C275.86 9.63607 275.801 9.38314 275.683 9.16895C275.569 8.9502 275.396 8.78158 275.163 8.66309C274.931 8.5446 274.644 8.48535 274.302 8.48535C273.983 8.48535 273.702 8.54004 273.461 8.64941C273.224 8.75879 273.037 8.90234 272.9 9.08008C272.768 9.25781 272.702 9.44922 272.702 9.6543H271.438C271.438 9.38997 271.506 9.12793 271.643 8.86816C271.779 8.6084 271.975 8.3737 272.23 8.16406C272.49 7.94987 272.8 7.78125 273.16 7.6582C273.525 7.5306 273.93 7.4668 274.377 7.4668C274.915 7.4668 275.389 7.55794 275.799 7.74023C276.214 7.92253 276.537 8.19824 276.77 8.56738C277.007 8.93197 277.125 9.38997 277.125 9.94141V13.3867C277.125 13.6328 277.146 13.8949 277.187 14.1729C277.232 14.4508 277.298 14.6901 277.385 14.8906V15H276.065C276.002 14.8542 275.951 14.6605 275.915 14.4189C275.879 14.1729 275.86 13.945 275.86 13.7354ZM276.079 10.5156L276.093 11.4043H274.814C274.454 11.4043 274.133 11.4339 273.851 11.4932C273.568 11.5479 273.331 11.6322 273.14 11.7461C272.948 11.86 272.802 12.0036 272.702 12.1768C272.602 12.3454 272.552 12.5436 272.552 12.7715C272.552 13.0039 272.604 13.2158 272.709 13.4072C272.814 13.5986 272.971 13.7513 273.181 13.8652C273.395 13.9746 273.657 14.0293 273.967 14.0293C274.354 14.0293 274.696 13.9473 274.992 13.7832C275.288 13.6191 275.523 13.4186 275.696 13.1816C275.874 12.9447 275.97 12.7145 275.983 12.4912L276.523 13.0996C276.492 13.291 276.405 13.5029 276.264 13.7354C276.122 13.9678 275.933 14.1911 275.696 14.4053C275.464 14.6149 275.186 14.7904 274.862 14.9316C274.543 15.0684 274.183 15.1367 273.782 15.1367C273.281 15.1367 272.841 15.0387 272.463 14.8428C272.089 14.6468 271.798 14.3848 271.588 14.0566C271.383 13.724 271.28 13.3525 271.28 12.9424C271.28 12.5459 271.358 12.1973 271.513 11.8965C271.668 11.5911 271.891 11.3382 272.183 11.1377C272.474 10.9326 272.825 10.7777 273.235 10.6729C273.646 10.568 274.104 10.5156 274.609 10.5156H276.079ZM116.542 27.6035V35H115.277V27.6035H116.542ZM116.111 31.001V32.04C115.856 32.1357 115.596 32.2223 115.332 32.2998C115.072 32.3727 114.797 32.432 114.505 32.4775C114.218 32.5186 113.906 32.5391 113.568 32.5391C112.985 32.5391 112.479 32.4388 112.051 32.2383C111.622 32.0332 111.292 31.7256 111.06 31.3154C110.827 30.9007 110.711 30.3789 110.711 29.75V27.5898H111.976V29.75C111.976 30.1602 112.037 30.4928 112.16 30.748C112.283 31.0033 112.463 31.1924 112.7 31.3154C112.937 31.4339 113.227 31.4932 113.568 31.4932C113.896 31.4932 114.204 31.4727 114.491 31.4316C114.783 31.3861 115.061 31.3268 115.325 31.2539C115.594 31.181 115.856 31.0967 116.111 31.001ZM121.648 35.1367C121.133 35.1367 120.666 35.0501 120.247 34.877C119.832 34.6992 119.475 34.4508 119.174 34.1318C118.878 33.8128 118.65 33.4346 118.49 32.9971C118.331 32.5596 118.251 32.0811 118.251 31.5615V31.2744C118.251 30.6729 118.34 30.1374 118.518 29.668C118.695 29.194 118.937 28.793 119.242 28.4648C119.548 28.1367 119.894 27.8883 120.281 27.7197C120.669 27.5511 121.07 27.4668 121.484 27.4668C122.013 27.4668 122.469 27.5579 122.852 27.7402C123.239 27.9225 123.556 28.1777 123.802 28.5059C124.048 28.8294 124.23 29.2122 124.349 29.6543C124.467 30.0918 124.526 30.5703 124.526 31.0898V31.6572H119.003V30.625H123.262V30.5293C123.243 30.2012 123.175 29.8822 123.057 29.5723C122.943 29.2624 122.76 29.0072 122.51 28.8066C122.259 28.6061 121.917 28.5059 121.484 28.5059C121.197 28.5059 120.933 28.5674 120.691 28.6904C120.45 28.8089 120.243 28.9867 120.069 29.2236C119.896 29.4606 119.762 29.75 119.666 30.0918C119.57 30.4336 119.522 30.8278 119.522 31.2744V31.5615C119.522 31.9124 119.57 32.2428 119.666 32.5527C119.766 32.8581 119.91 33.127 120.097 33.3594C120.288 33.5918 120.518 33.7741 120.787 33.9062C121.061 34.0384 121.37 34.1045 121.717 34.1045C122.163 34.1045 122.542 34.0133 122.852 33.8311C123.161 33.6488 123.433 33.4049 123.665 33.0996L124.431 33.708C124.271 33.9495 124.068 34.1797 123.822 34.3984C123.576 34.6172 123.273 34.7949 122.913 34.9316C122.558 35.0684 122.136 35.1367 121.648 35.1367ZM127.268 29.0254V37.8438H125.996V27.6035H127.158L127.268 29.0254ZM132.251 31.2402V31.3838C132.251 31.9215 132.187 32.4206 132.06 32.8809C131.932 33.3366 131.745 33.7331 131.499 34.0703C131.257 34.4076 130.959 34.6696 130.604 34.8564C130.248 35.0433 129.84 35.1367 129.38 35.1367C128.91 35.1367 128.496 35.0592 128.136 34.9043C127.776 34.7493 127.47 34.5238 127.22 34.2275C126.969 33.9313 126.769 33.5758 126.618 33.1611C126.472 32.7464 126.372 32.2793 126.317 31.7598V30.9941C126.372 30.4473 126.475 29.9574 126.625 29.5244C126.775 29.0915 126.974 28.7223 127.22 28.417C127.47 28.1071 127.773 27.8724 128.129 27.7129C128.484 27.5488 128.895 27.4668 129.359 27.4668C129.824 27.4668 130.237 27.5579 130.597 27.7402C130.957 27.918 131.26 28.1732 131.506 28.5059C131.752 28.8385 131.937 29.2373 132.06 29.7021C132.187 30.1624 132.251 30.6751 132.251 31.2402ZM130.979 31.3838V31.2402C130.979 30.8711 130.941 30.5247 130.863 30.2012C130.786 29.873 130.665 29.5859 130.501 29.3398C130.341 29.0892 130.136 28.8932 129.886 28.752C129.635 28.6061 129.337 28.5332 128.99 28.5332C128.671 28.5332 128.393 28.5879 128.156 28.6973C127.924 28.8066 127.726 28.9548 127.562 29.1416C127.397 29.3239 127.263 29.5335 127.158 29.7705C127.058 30.0029 126.983 30.2445 126.933 30.4951V32.2656C127.024 32.5846 127.151 32.8854 127.315 33.168C127.479 33.446 127.698 33.6715 127.972 33.8447C128.245 34.0133 128.589 34.0977 129.004 34.0977C129.346 34.0977 129.64 34.027 129.886 33.8857C130.136 33.7399 130.341 33.5417 130.501 33.291C130.665 33.0404 130.786 32.7533 130.863 32.4297C130.941 32.1016 130.979 31.7529 130.979 31.3838ZM136.934 35.1367C136.419 35.1367 135.951 35.0501 135.532 34.877C135.118 34.6992 134.76 34.4508 134.459 34.1318C134.163 33.8128 133.935 33.4346 133.775 32.9971C133.616 32.5596 133.536 32.0811 133.536 31.5615V31.2744C133.536 30.6729 133.625 30.1374 133.803 29.668C133.98 29.194 134.222 28.793 134.527 28.4648C134.833 28.1367 135.179 27.8883 135.566 27.7197C135.954 27.5511 136.355 27.4668 136.77 27.4668C137.298 27.4668 137.754 27.5579 138.137 27.7402C138.524 27.9225 138.841 28.1777 139.087 28.5059C139.333 28.8294 139.515 29.2122 139.634 29.6543C139.752 30.0918 139.812 30.5703 139.812 31.0898V31.6572H134.288V30.625H138.547V30.5293C138.529 30.2012 138.46 29.8822 138.342 29.5723C138.228 29.2624 138.046 29.0072 137.795 28.8066C137.544 28.6061 137.202 28.5059 136.77 28.5059C136.482 28.5059 136.218 28.5674 135.977 28.6904C135.735 28.8089 135.528 28.9867 135.354 29.2236C135.181 29.4606 135.047 29.75 134.951 30.0918C134.855 30.4336 134.808 30.8278 134.808 31.2744V31.5615C134.808 31.9124 134.855 32.2428 134.951 32.5527C135.051 32.8581 135.195 33.127 135.382 33.3594C135.573 33.5918 135.803 33.7741 136.072 33.9062C136.346 34.0384 136.656 34.1045 137.002 34.1045C137.449 34.1045 137.827 34.0133 138.137 33.8311C138.447 33.6488 138.718 33.4049 138.95 33.0996L139.716 33.708C139.556 33.9495 139.354 34.1797 139.107 34.3984C138.861 34.6172 138.558 34.7949 138.198 34.9316C137.843 35.0684 137.421 35.1367 136.934 35.1367ZM144.05 31.4658H142.689V30.6865H143.947C144.298 30.6865 144.576 30.6432 144.781 30.5566C144.986 30.4655 145.132 30.3402 145.219 30.1807C145.305 30.0212 145.349 29.8343 145.349 29.6201C145.349 29.4287 145.299 29.2487 145.198 29.0801C145.103 28.9069 144.948 28.7679 144.733 28.6631C144.519 28.5537 144.232 28.499 143.872 28.499C143.58 28.499 143.316 28.5514 143.079 28.6562C142.842 28.7565 142.653 28.8955 142.512 29.0732C142.375 29.2464 142.307 29.4424 142.307 29.6611H141.042C141.042 29.21 141.17 28.8226 141.425 28.499C141.685 28.1709 142.029 27.918 142.457 27.7402C142.89 27.5625 143.362 27.4736 143.872 27.4736C144.3 27.4736 144.683 27.5215 145.021 27.6172C145.362 27.7083 145.652 27.8451 145.889 28.0273C146.126 28.2051 146.306 28.4284 146.429 28.6973C146.556 28.9616 146.62 29.2692 146.62 29.6201C146.62 29.8708 146.561 30.1077 146.442 30.3311C146.324 30.5544 146.153 30.7526 145.93 30.9258C145.706 31.0944 145.435 31.2266 145.116 31.3223C144.802 31.418 144.446 31.4658 144.05 31.4658ZM142.689 30.9873H144.05C144.492 30.9873 144.882 31.0306 145.219 31.1172C145.556 31.1992 145.839 31.3223 146.066 31.4863C146.294 31.6504 146.465 31.8532 146.579 32.0947C146.698 32.3317 146.757 32.6051 146.757 32.915C146.757 33.2614 146.686 33.5736 146.545 33.8516C146.408 34.125 146.212 34.3574 145.957 34.5488C145.702 34.7402 145.396 34.8861 145.041 34.9863C144.69 35.0866 144.3 35.1367 143.872 35.1367C143.394 35.1367 142.929 35.0547 142.478 34.8906C142.026 34.7266 141.655 34.4736 141.363 34.1318C141.072 33.7855 140.926 33.3457 140.926 32.8125H142.19C142.19 33.0358 142.261 33.2477 142.402 33.4482C142.544 33.6488 142.74 33.8105 142.99 33.9336C143.245 34.0566 143.539 34.1182 143.872 34.1182C144.228 34.1182 144.524 34.0635 144.761 33.9541C144.998 33.8447 145.175 33.6989 145.294 33.5166C145.417 33.3343 145.479 33.1361 145.479 32.9219C145.479 32.6439 145.424 32.4206 145.314 32.252C145.205 32.0833 145.036 31.9603 144.809 31.8828C144.585 31.8008 144.298 31.7598 143.947 31.7598H142.689V30.9873ZM153.203 27.6035H154.468L154.358 30.3721C154.331 31.0739 154.251 31.68 154.119 32.1904C153.987 32.7008 153.818 33.1361 153.613 33.4961C153.408 33.8516 153.178 34.1501 152.923 34.3916C152.672 34.6331 152.412 34.8359 152.144 35H151.515L151.549 33.9678L151.809 33.9609C151.959 33.7832 152.105 33.6009 152.246 33.4141C152.387 33.2227 152.517 32.9971 152.636 32.7373C152.754 32.473 152.852 32.1517 152.93 31.7734C153.012 31.3906 153.064 30.9235 153.087 30.3721L153.203 27.6035ZM153.518 27.6035H157.968V35H156.703V28.7725H153.518V27.6035ZM151.228 33.9609H158.918V37.1807H157.653V35H152.492V37.1807H151.221L151.228 33.9609ZM161.584 29.0254V37.8438H160.312V27.6035H161.475L161.584 29.0254ZM166.567 31.2402V31.3838C166.567 31.9215 166.504 32.4206 166.376 32.8809C166.248 33.3366 166.062 33.7331 165.815 34.0703C165.574 34.4076 165.275 34.6696 164.92 34.8564C164.564 35.0433 164.157 35.1367 163.696 35.1367C163.227 35.1367 162.812 35.0592 162.452 34.9043C162.092 34.7493 161.787 34.5238 161.536 34.2275C161.285 33.9313 161.085 33.5758 160.935 33.1611C160.789 32.7464 160.688 32.2793 160.634 31.7598V30.9941C160.688 30.4473 160.791 29.9574 160.941 29.5244C161.092 29.0915 161.29 28.7223 161.536 28.417C161.787 28.1071 162.09 27.8724 162.445 27.7129C162.801 27.5488 163.211 27.4668 163.676 27.4668C164.141 27.4668 164.553 27.5579 164.913 27.7402C165.273 27.918 165.576 28.1732 165.822 28.5059C166.068 28.8385 166.253 29.2373 166.376 29.7021C166.504 30.1624 166.567 30.6751 166.567 31.2402ZM165.296 31.3838V31.2402C165.296 30.8711 165.257 30.5247 165.18 30.2012C165.102 29.873 164.981 29.5859 164.817 29.3398C164.658 29.0892 164.453 28.8932 164.202 28.752C163.951 28.6061 163.653 28.5332 163.307 28.5332C162.988 28.5332 162.71 28.5879 162.473 28.6973C162.24 28.8066 162.042 28.9548 161.878 29.1416C161.714 29.3239 161.579 29.5335 161.475 29.7705C161.374 30.0029 161.299 30.2445 161.249 30.4951V32.2656C161.34 32.5846 161.468 32.8854 161.632 33.168C161.796 33.446 162.015 33.6715 162.288 33.8447C162.562 34.0133 162.906 34.0977 163.32 34.0977C163.662 34.0977 163.956 34.027 164.202 33.8857C164.453 33.7399 164.658 33.5417 164.817 33.291C164.981 33.0404 165.102 32.7533 165.18 32.4297C165.257 32.1016 165.296 31.7529 165.296 31.3838ZM170.177 34.2344L172.234 27.6035H173.588L170.621 36.1416C170.553 36.3239 170.462 36.5199 170.348 36.7295C170.238 36.9437 170.097 37.1465 169.924 37.3379C169.751 37.5293 169.541 37.6842 169.295 37.8027C169.053 37.9258 168.764 37.9873 168.427 37.9873C168.326 37.9873 168.199 37.9736 168.044 37.9463C167.889 37.9189 167.78 37.8962 167.716 37.8779L167.709 36.8525C167.745 36.8571 167.802 36.8617 167.88 36.8662C167.962 36.8753 168.019 36.8799 168.051 36.8799C168.338 36.8799 168.582 36.8411 168.782 36.7637C168.983 36.6908 169.151 36.5654 169.288 36.3877C169.429 36.2145 169.55 35.9753 169.65 35.6699L170.177 34.2344ZM168.666 27.6035L170.587 33.3457L170.915 34.6787L170.006 35.1436L167.285 27.6035H168.666ZM179.508 27.6035V28.6494H176.09V35H174.825V27.6035H179.508ZM181.976 32.9971L185.387 27.6035H186.658V35H185.387V29.6064L181.976 35H180.718V27.6035H181.976V32.9971ZM191.758 35.1367C191.243 35.1367 190.776 35.0501 190.356 34.877C189.942 34.6992 189.584 34.4508 189.283 34.1318C188.987 33.8128 188.759 33.4346 188.6 32.9971C188.44 32.5596 188.36 32.0811 188.36 31.5615V31.2744C188.36 30.6729 188.449 30.1374 188.627 29.668C188.805 29.194 189.046 28.793 189.352 28.4648C189.657 28.1367 190.003 27.8883 190.391 27.7197C190.778 27.5511 191.179 27.4668 191.594 27.4668C192.122 27.4668 192.578 27.5579 192.961 27.7402C193.348 27.9225 193.665 28.1777 193.911 28.5059C194.157 28.8294 194.34 29.2122 194.458 29.6543C194.576 30.0918 194.636 30.5703 194.636 31.0898V31.6572H189.112V30.625H193.371V30.5293C193.353 30.2012 193.285 29.8822 193.166 29.5723C193.052 29.2624 192.87 29.0072 192.619 28.8066C192.368 28.6061 192.027 28.5059 191.594 28.5059C191.307 28.5059 191.042 28.5674 190.801 28.6904C190.559 28.8089 190.352 28.9867 190.179 29.2236C190.006 29.4606 189.871 29.75 189.775 30.0918C189.68 30.4336 189.632 30.8278 189.632 31.2744V31.5615C189.632 31.9124 189.68 32.2428 189.775 32.5527C189.876 32.8581 190.019 33.127 190.206 33.3594C190.397 33.5918 190.628 33.7741 190.896 33.9062C191.17 34.0384 191.48 34.1045 191.826 34.1045C192.273 34.1045 192.651 34.0133 192.961 33.8311C193.271 33.6488 193.542 33.4049 193.774 33.0996L194.54 33.708C194.381 33.9495 194.178 34.1797 193.932 34.3984C193.686 34.6172 193.382 34.7949 193.022 34.9316C192.667 35.0684 192.245 35.1367 191.758 35.1367ZM200.959 27.6035V35H199.694V27.6035H200.959ZM205.812 27.6035L202.306 31.8418H200.535L200.344 30.7344H201.793L204.274 27.6035H205.812ZM204.452 35L201.731 31.6504L202.545 30.7344L206.059 35H204.452ZM211.521 33.7354V29.9277C211.521 29.6361 211.461 29.3831 211.343 29.1689C211.229 28.9502 211.056 28.7816 210.823 28.6631C210.591 28.5446 210.304 28.4854 209.962 28.4854C209.643 28.4854 209.363 28.54 209.121 28.6494C208.884 28.7588 208.697 28.9023 208.561 29.0801C208.428 29.2578 208.362 29.4492 208.362 29.6543H207.098C207.098 29.39 207.166 29.1279 207.303 28.8682C207.439 28.6084 207.635 28.3737 207.891 28.1641C208.15 27.9499 208.46 27.7812 208.82 27.6582C209.185 27.5306 209.59 27.4668 210.037 27.4668C210.575 27.4668 211.049 27.5579 211.459 27.7402C211.874 27.9225 212.197 28.1982 212.43 28.5674C212.667 28.932 212.785 29.39 212.785 29.9414V33.3867C212.785 33.6328 212.806 33.8949 212.847 34.1729C212.892 34.4508 212.958 34.6901 213.045 34.8906V35H211.726C211.662 34.8542 211.612 34.6605 211.575 34.4189C211.539 34.1729 211.521 33.945 211.521 33.7354ZM211.739 30.5156L211.753 31.4043H210.475C210.115 31.4043 209.793 31.4339 209.511 31.4932C209.228 31.5479 208.991 31.6322 208.8 31.7461C208.608 31.86 208.463 32.0036 208.362 32.1768C208.262 32.3454 208.212 32.5436 208.212 32.7715C208.212 33.0039 208.264 33.2158 208.369 33.4072C208.474 33.5986 208.631 33.7513 208.841 33.8652C209.055 33.9746 209.317 34.0293 209.627 34.0293C210.014 34.0293 210.356 33.9473 210.652 33.7832C210.949 33.6191 211.183 33.4186 211.356 33.1816C211.534 32.9447 211.63 32.7145 211.644 32.4912L212.184 33.0996C212.152 33.291 212.065 33.5029 211.924 33.7354C211.783 33.9678 211.593 34.1911 211.356 34.4053C211.124 34.6149 210.846 34.7904 210.522 34.9316C210.203 35.0684 209.843 35.1367 209.442 35.1367C208.941 35.1367 208.501 35.0387 208.123 34.8428C207.749 34.6468 207.458 34.3848 207.248 34.0566C207.043 33.724 206.94 33.3525 206.94 32.9424C206.94 32.5459 207.018 32.1973 207.173 31.8965C207.328 31.5911 207.551 31.3382 207.843 31.1377C208.134 30.9326 208.485 30.7777 208.896 30.6729C209.306 30.568 209.764 30.5156 210.27 30.5156H211.739ZM219.792 30.8096V31.835H215.882V30.8096H219.792ZM216.148 27.6035V35H214.884V27.6035H216.148ZM220.817 27.6035V35H219.546V27.6035H220.817ZM227.216 33.7354V29.9277C227.216 29.6361 227.157 29.3831 227.038 29.1689C226.924 28.9502 226.751 28.7816 226.519 28.6631C226.286 28.5446 225.999 28.4854 225.657 28.4854C225.338 28.4854 225.058 28.54 224.816 28.6494C224.579 28.7588 224.393 28.9023 224.256 29.0801C224.124 29.2578 224.058 29.4492 224.058 29.6543H222.793C222.793 29.39 222.861 29.1279 222.998 28.8682C223.135 28.6084 223.331 28.3737 223.586 28.1641C223.846 27.9499 224.156 27.7812 224.516 27.6582C224.88 27.5306 225.286 27.4668 225.732 27.4668C226.27 27.4668 226.744 27.5579 227.154 27.7402C227.569 27.9225 227.893 28.1982 228.125 28.5674C228.362 28.932 228.48 29.39 228.48 29.9414V33.3867C228.48 33.6328 228.501 33.8949 228.542 34.1729C228.588 34.4508 228.654 34.6901 228.74 34.8906V35H227.421C227.357 34.8542 227.307 34.6605 227.271 34.4189C227.234 34.1729 227.216 33.945 227.216 33.7354ZM227.435 30.5156L227.448 31.4043H226.17C225.81 31.4043 225.489 31.4339 225.206 31.4932C224.924 31.5479 224.687 31.6322 224.495 31.7461C224.304 31.86 224.158 32.0036 224.058 32.1768C223.957 32.3454 223.907 32.5436 223.907 32.7715C223.907 33.0039 223.96 33.2158 224.064 33.4072C224.169 33.5986 224.326 33.7513 224.536 33.8652C224.75 33.9746 225.012 34.0293 225.322 34.0293C225.71 34.0293 226.051 33.9473 226.348 33.7832C226.644 33.6191 226.879 33.4186 227.052 33.1816C227.229 32.9447 227.325 32.7145 227.339 32.4912L227.879 33.0996C227.847 33.291 227.76 33.5029 227.619 33.7354C227.478 33.9678 227.289 34.1911 227.052 34.4053C226.819 34.6149 226.541 34.7904 226.218 34.9316C225.899 35.0684 225.539 35.1367 225.138 35.1367C224.636 35.1367 224.197 35.0387 223.818 34.8428C223.445 34.6468 223.153 34.3848 222.943 34.0566C222.738 33.724 222.636 33.3525 222.636 32.9424C222.636 32.5459 222.713 32.1973 222.868 31.8965C223.023 31.5911 223.246 31.3382 223.538 31.1377C223.83 30.9326 224.181 30.7777 224.591 30.6729C225.001 30.568 225.459 30.5156 225.965 30.5156H227.435ZM235.412 27.6035V28.6494H231.837V27.6035H235.412ZM236.526 27.6035V35H235.262V27.6035H236.526ZM231.529 27.6035H232.801L232.609 31.1719C232.577 31.7233 232.525 32.2109 232.452 32.6348C232.384 33.054 232.288 33.4141 232.165 33.7148C232.047 34.0156 231.896 34.2617 231.714 34.4531C231.536 34.64 231.322 34.779 231.071 34.8701C230.821 34.9567 230.531 35 230.203 35H229.807V33.8857L230.08 33.8652C230.276 33.8516 230.442 33.806 230.579 33.7285C230.72 33.651 230.839 33.5371 230.935 33.3867C231.03 33.2318 231.108 33.0335 231.167 32.792C231.231 32.5505 231.279 32.2633 231.311 31.9307C231.347 31.598 231.374 31.2106 231.393 30.7686L231.529 27.6035ZM239.603 30.1465H241.824C242.421 30.1465 242.925 30.2513 243.335 30.4609C243.745 30.666 244.055 30.9508 244.265 31.3154C244.479 31.6755 244.586 32.0856 244.586 32.5459C244.586 32.8877 244.527 33.209 244.408 33.5098C244.29 33.806 244.112 34.0658 243.875 34.2891C243.643 34.5124 243.353 34.6878 243.007 34.8154C242.665 34.9385 242.271 35 241.824 35H238.68V27.6035H239.944V33.9609H241.824C242.189 33.9609 242.48 33.8949 242.699 33.7627C242.918 33.6305 243.075 33.4596 243.171 33.25C243.267 33.0404 243.314 32.8216 243.314 32.5938C243.314 32.3704 243.267 32.1517 243.171 31.9375C243.075 31.7233 242.918 31.5456 242.699 31.4043C242.48 31.2585 242.189 31.1855 241.824 31.1855H239.603V30.1465ZM247.218 27.6035V35H245.953V27.6035H247.218ZM113.979 47.6035V55H112.707V47.6035H113.979ZM116.46 47.6035V48.6289H110.273V47.6035H116.46ZM118.969 49.0254V57.8438H117.697V47.6035H118.859L118.969 49.0254ZM123.952 51.2402V51.3838C123.952 51.9215 123.888 52.4206 123.761 52.8809C123.633 53.3366 123.446 53.7331 123.2 54.0703C122.959 54.4076 122.66 54.6696 122.305 54.8564C121.949 55.0433 121.541 55.1367 121.081 55.1367C120.612 55.1367 120.197 55.0592 119.837 54.9043C119.477 54.7493 119.172 54.5238 118.921 54.2275C118.67 53.9313 118.47 53.5758 118.319 53.1611C118.174 52.7464 118.073 52.2793 118.019 51.7598V50.9941C118.073 50.4473 118.176 49.9574 118.326 49.5244C118.477 49.0915 118.675 48.7223 118.921 48.417C119.172 48.1071 119.475 47.8724 119.83 47.7129C120.186 47.5488 120.596 47.4668 121.061 47.4668C121.525 47.4668 121.938 47.5579 122.298 47.7402C122.658 47.918 122.961 48.1732 123.207 48.5059C123.453 48.8385 123.638 49.2373 123.761 49.7021C123.888 50.1624 123.952 50.6751 123.952 51.2402ZM122.681 51.3838V51.2402C122.681 50.8711 122.642 50.5247 122.564 50.2012C122.487 49.873 122.366 49.5859 122.202 49.3398C122.043 49.0892 121.838 48.8932 121.587 48.752C121.336 48.6061 121.038 48.5332 120.691 48.5332C120.372 48.5332 120.094 48.5879 119.857 48.6973C119.625 48.8066 119.427 48.9548 119.263 49.1416C119.099 49.3239 118.964 49.5335 118.859 49.7705C118.759 50.0029 118.684 50.2445 118.634 50.4951V52.2656C118.725 52.5846 118.853 52.8854 119.017 53.168C119.181 53.446 119.399 53.6715 119.673 53.8447C119.946 54.0133 120.29 54.0977 120.705 54.0977C121.047 54.0977 121.341 54.027 121.587 53.8857C121.838 53.7399 122.043 53.5417 122.202 53.291C122.366 53.0404 122.487 52.7533 122.564 52.4297C122.642 52.1016 122.681 51.7529 122.681 51.3838ZM129.927 53.7354V49.9277C129.927 49.6361 129.868 49.3831 129.749 49.1689C129.635 48.9502 129.462 48.7816 129.229 48.6631C128.997 48.5446 128.71 48.4854 128.368 48.4854C128.049 48.4854 127.769 48.54 127.527 48.6494C127.29 48.7588 127.104 48.9023 126.967 49.0801C126.835 49.2578 126.769 49.4492 126.769 49.6543H125.504C125.504 49.39 125.572 49.1279 125.709 48.8682C125.846 48.6084 126.042 48.3737 126.297 48.1641C126.557 47.9499 126.867 47.7812 127.227 47.6582C127.591 47.5306 127.997 47.4668 128.443 47.4668C128.981 47.4668 129.455 47.5579 129.865 47.7402C130.28 47.9225 130.604 48.1982 130.836 48.5674C131.073 48.932 131.191 49.39 131.191 49.9414V53.3867C131.191 53.6328 131.212 53.8949 131.253 54.1729C131.299 54.4508 131.365 54.6901 131.451 54.8906V55H130.132C130.068 54.8542 130.018 54.6605 129.981 54.4189C129.945 54.1729 129.927 53.945 129.927 53.7354ZM130.146 50.5156L130.159 51.4043H128.881C128.521 51.4043 128.2 51.4339 127.917 51.4932C127.634 51.5479 127.397 51.6322 127.206 51.7461C127.015 51.86 126.869 52.0036 126.769 52.1768C126.668 52.3454 126.618 52.5436 126.618 52.7715C126.618 53.0039 126.671 53.2158 126.775 53.4072C126.88 53.5986 127.037 53.7513 127.247 53.8652C127.461 53.9746 127.723 54.0293 128.033 54.0293C128.421 54.0293 128.762 53.9473 129.059 53.7832C129.355 53.6191 129.59 53.4186 129.763 53.1816C129.94 52.9447 130.036 52.7145 130.05 52.4912L130.59 53.0996C130.558 53.291 130.471 53.5029 130.33 53.7354C130.189 53.9678 130 54.1911 129.763 54.4053C129.53 54.6149 129.252 54.7904 128.929 54.9316C128.61 55.0684 128.25 55.1367 127.849 55.1367C127.347 55.1367 126.908 55.0387 126.529 54.8428C126.156 54.6468 125.864 54.3848 125.654 54.0566C125.449 53.724 125.347 53.3525 125.347 52.9424C125.347 52.5459 125.424 52.1973 125.579 51.8965C125.734 51.5911 125.957 51.3382 126.249 51.1377C126.541 50.9326 126.892 50.7777 127.302 50.6729C127.712 50.568 128.17 50.5156 128.676 50.5156H130.146ZM141.685 51.4316V51.5752C141.685 52.0947 141.628 52.5732 141.514 53.0107C141.4 53.4437 141.229 53.8197 141.001 54.1387C140.778 54.4577 140.5 54.7061 140.167 54.8838C139.834 55.057 139.449 55.1436 139.012 55.1436C138.652 55.1436 138.335 55.0957 138.062 55C137.788 54.8997 137.556 54.7562 137.364 54.5693C137.177 54.3825 137.027 54.1592 136.913 53.8994C136.804 53.6351 136.729 53.3389 136.688 53.0107V49.7295C136.729 49.3786 136.804 49.0641 136.913 48.7861C137.027 48.5081 137.177 48.2712 137.364 48.0752C137.556 47.8792 137.786 47.7288 138.055 47.624C138.324 47.5192 138.638 47.4668 138.998 47.4668C139.354 47.4668 139.673 47.5306 139.955 47.6582C140.242 47.7812 140.493 47.959 140.707 48.1914C140.926 48.4238 141.106 48.7041 141.247 49.0322C141.393 49.3558 141.502 49.7204 141.575 50.126C141.648 50.5316 141.685 50.9668 141.685 51.4316ZM140.42 51.5752V51.4316C140.42 51.1126 140.397 50.8096 140.352 50.5225C140.311 50.2308 140.244 49.9642 140.153 49.7227C140.067 49.4766 139.953 49.2624 139.812 49.0801C139.67 48.8978 139.499 48.7565 139.299 48.6562C139.103 48.556 138.877 48.5059 138.622 48.5059C138.349 48.5059 138.121 48.54 137.938 48.6084C137.761 48.6768 137.622 48.7679 137.521 48.8818C137.421 48.9912 137.348 49.1074 137.303 49.2305V53.5166C137.357 53.6169 137.437 53.7126 137.542 53.8037C137.647 53.8903 137.788 53.9632 137.966 54.0225C138.144 54.0771 138.367 54.1045 138.636 54.1045C138.955 54.1045 139.226 54.0407 139.449 53.9131C139.677 53.7809 139.862 53.5986 140.003 53.3662C140.149 53.1338 140.254 52.8649 140.317 52.5596C140.386 52.2542 140.42 51.9261 140.42 51.5752ZM132.9 51.5752V51.4316C132.9 50.9668 132.937 50.5316 133.01 50.126C133.083 49.7204 133.192 49.3558 133.338 49.0322C133.484 48.7041 133.664 48.4238 133.878 48.1914C134.097 47.959 134.347 47.7812 134.63 47.6582C134.917 47.5306 135.238 47.4668 135.594 47.4668C135.945 47.4668 136.25 47.5192 136.51 47.624C136.774 47.7288 136.997 47.8792 137.18 48.0752C137.362 48.2712 137.508 48.5081 137.617 48.7861C137.727 49.0641 137.804 49.3786 137.85 49.7295V52.8809C137.809 53.2272 137.733 53.5394 137.624 53.8174C137.515 54.0954 137.369 54.3346 137.187 54.5352C137.004 54.7311 136.779 54.8815 136.51 54.9863C136.245 55.0911 135.936 55.1436 135.58 55.1436C135.143 55.1436 134.757 55.057 134.425 54.8838C134.092 54.7061 133.812 54.4577 133.584 54.1387C133.361 53.8197 133.19 53.4437 133.071 53.0107C132.957 52.5732 132.9 52.0947 132.9 51.5752ZM134.172 51.4316V51.5752C134.172 51.9261 134.201 52.2542 134.261 52.5596C134.325 52.8649 134.423 53.1338 134.555 53.3662C134.691 53.5986 134.869 53.7809 135.088 53.9131C135.307 54.0407 135.576 54.1045 135.895 54.1045C136.168 54.1045 136.394 54.0703 136.571 54.002C136.749 53.9336 136.89 53.8447 136.995 53.7354C137.1 53.626 137.18 53.512 137.234 53.3936V49.2305C137.189 49.1074 137.114 48.9912 137.009 48.8818C136.909 48.7679 136.77 48.6768 136.592 48.6084C136.414 48.54 136.186 48.5059 135.908 48.5059C135.589 48.5059 135.318 48.5833 135.095 48.7383C134.871 48.8932 134.691 49.1051 134.555 49.374C134.423 49.6429 134.325 49.9551 134.261 50.3105C134.201 50.6615 134.172 51.0352 134.172 51.4316ZM136.605 57.8438V44.5H137.877V57.8438H136.605ZM144.706 52.9971L148.117 47.6035H149.389V55H148.117V49.6064L144.706 55H143.448V47.6035H144.706V52.9971ZM152.793 47.6035V55H151.528V47.6035H152.793ZM157.646 47.6035L154.14 51.8418H152.369L152.178 50.7344H153.627L156.108 47.6035H157.646ZM156.286 55L153.565 51.6504L154.379 50.7344L157.893 55H156.286ZM163.354 53.7354V49.9277C163.354 49.6361 163.295 49.3831 163.177 49.1689C163.063 48.9502 162.89 48.7816 162.657 48.6631C162.425 48.5446 162.138 48.4854 161.796 48.4854C161.477 48.4854 161.197 48.54 160.955 48.6494C160.718 48.7588 160.531 48.9023 160.395 49.0801C160.262 49.2578 160.196 49.4492 160.196 49.6543H158.932C158.932 49.39 159 49.1279 159.137 48.8682C159.273 48.6084 159.469 48.3737 159.725 48.1641C159.984 47.9499 160.294 47.7812 160.654 47.6582C161.019 47.5306 161.424 47.4668 161.871 47.4668C162.409 47.4668 162.883 47.5579 163.293 47.7402C163.708 47.9225 164.031 48.1982 164.264 48.5674C164.501 48.932 164.619 49.39 164.619 49.9414V53.3867C164.619 53.6328 164.64 53.8949 164.681 54.1729C164.726 54.4508 164.792 54.6901 164.879 54.8906V55H163.56C163.496 54.8542 163.446 54.6605 163.409 54.4189C163.373 54.1729 163.354 53.945 163.354 53.7354ZM163.573 50.5156L163.587 51.4043H162.309C161.949 51.4043 161.627 51.4339 161.345 51.4932C161.062 51.5479 160.825 51.6322 160.634 51.7461C160.442 51.86 160.297 52.0036 160.196 52.1768C160.096 52.3454 160.046 52.5436 160.046 52.7715C160.046 53.0039 160.098 53.2158 160.203 53.4072C160.308 53.5986 160.465 53.7513 160.675 53.8652C160.889 53.9746 161.151 54.0293 161.461 54.0293C161.848 54.0293 162.19 53.9473 162.486 53.7832C162.783 53.6191 163.017 53.4186 163.19 53.1816C163.368 52.9447 163.464 52.7145 163.478 52.4912L164.018 53.0996C163.986 53.291 163.899 53.5029 163.758 53.7354C163.617 53.9678 163.427 54.1911 163.19 54.4053C162.958 54.6149 162.68 54.7904 162.356 54.9316C162.037 55.0684 161.677 55.1367 161.276 55.1367C160.775 55.1367 160.335 55.0387 159.957 54.8428C159.583 54.6468 159.292 54.3848 159.082 54.0566C158.877 53.724 158.774 53.3525 158.774 52.9424C158.774 52.5459 158.852 52.1973 159.007 51.8965C159.162 51.5911 159.385 51.3382 159.677 51.1377C159.968 50.9326 160.319 50.7777 160.729 50.6729C161.14 50.568 161.598 50.5156 162.104 50.5156H163.573ZM173.554 51.7461H171.127L171.113 50.7344H173.096C173.488 50.7344 173.813 50.6956 174.073 50.6182C174.338 50.5407 174.536 50.4245 174.668 50.2695C174.8 50.1146 174.866 49.9232 174.866 49.6953C174.866 49.5176 174.827 49.3626 174.75 49.2305C174.677 49.0938 174.565 48.9821 174.415 48.8955C174.265 48.8044 174.078 48.7383 173.854 48.6973C173.636 48.6517 173.378 48.6289 173.082 48.6289H171.462V55H170.197V47.6035H173.082C173.551 47.6035 173.973 47.6445 174.347 47.7266C174.725 47.8086 175.046 47.9339 175.311 48.1025C175.579 48.2666 175.785 48.4762 175.926 48.7314C176.067 48.9867 176.138 49.2874 176.138 49.6338C176.138 49.8571 176.092 50.069 176.001 50.2695C175.91 50.4701 175.775 50.6478 175.598 50.8027C175.42 50.9577 175.201 51.0853 174.941 51.1855C174.682 51.2812 174.383 51.3428 174.046 51.3701L173.554 51.7461ZM173.554 55H170.669L171.298 53.9746H173.554C173.905 53.9746 174.196 53.9313 174.429 53.8447C174.661 53.7536 174.834 53.626 174.948 53.4619C175.067 53.2933 175.126 53.0928 175.126 52.8604C175.126 52.6279 175.067 52.4297 174.948 52.2656C174.834 52.097 174.661 51.9694 174.429 51.8828C174.196 51.7917 173.905 51.7461 173.554 51.7461H171.633L171.646 50.7344H174.046L174.504 51.1172C174.91 51.1491 175.254 51.2493 175.536 51.418C175.819 51.5866 176.033 51.8008 176.179 52.0605C176.325 52.3158 176.397 52.5938 176.397 52.8945C176.397 53.2409 176.331 53.5462 176.199 53.8105C176.072 54.0749 175.885 54.2959 175.639 54.4736C175.393 54.6468 175.094 54.779 174.743 54.8701C174.392 54.9567 173.996 55 173.554 55ZM184.635 55.1367C184.12 55.1367 183.653 55.0501 183.233 54.877C182.819 54.6992 182.461 54.4508 182.16 54.1318C181.864 53.8128 181.636 53.4346 181.477 52.9971C181.317 52.5596 181.237 52.0811 181.237 51.5615V51.2744C181.237 50.6729 181.326 50.1374 181.504 49.668C181.682 49.194 181.923 48.793 182.229 48.4648C182.534 48.1367 182.88 47.8883 183.268 47.7197C183.655 47.5511 184.056 47.4668 184.471 47.4668C184.999 47.4668 185.455 47.5579 185.838 47.7402C186.225 47.9225 186.542 48.1777 186.788 48.5059C187.034 48.8294 187.216 49.2122 187.335 49.6543C187.453 50.0918 187.513 50.5703 187.513 51.0898V51.6572H181.989V50.625H186.248V50.5293C186.23 50.2012 186.161 49.8822 186.043 49.5723C185.929 49.2624 185.747 49.0072 185.496 48.8066C185.245 48.6061 184.904 48.5059 184.471 48.5059C184.184 48.5059 183.919 48.5674 183.678 48.6904C183.436 48.8089 183.229 48.9867 183.056 49.2236C182.882 49.4606 182.748 49.75 182.652 50.0918C182.557 50.4336 182.509 50.8278 182.509 51.2744V51.5615C182.509 51.9124 182.557 52.2428 182.652 52.5527C182.753 52.8581 182.896 53.127 183.083 53.3594C183.274 53.5918 183.505 53.7741 183.773 53.9062C184.047 54.0384 184.357 54.1045 184.703 54.1045C185.15 54.1045 185.528 54.0133 185.838 53.8311C186.148 53.6488 186.419 53.4049 186.651 53.0996L187.417 53.708C187.257 53.9495 187.055 54.1797 186.809 54.3984C186.562 54.6172 186.259 54.7949 185.899 54.9316C185.544 55.0684 185.122 55.1367 184.635 55.1367ZM191.621 50.249V51.2881H188.285V50.249H191.621ZM195.818 54.0977C196.119 54.0977 196.397 54.0361 196.652 53.9131C196.908 53.79 197.117 53.6214 197.281 53.4072C197.445 53.1885 197.539 52.9401 197.562 52.6621H198.765C198.742 53.0996 198.594 53.5075 198.32 53.8857C198.051 54.2594 197.698 54.5625 197.261 54.7949C196.823 55.0228 196.342 55.1367 195.818 55.1367C195.262 55.1367 194.777 55.0387 194.362 54.8428C193.952 54.6468 193.61 54.3779 193.337 54.0361C193.068 53.6943 192.865 53.3024 192.729 52.8604C192.596 52.4137 192.53 51.9421 192.53 51.4453V51.1582C192.53 50.6615 192.596 50.1921 192.729 49.75C192.865 49.3034 193.068 48.9092 193.337 48.5674C193.61 48.2256 193.952 47.9567 194.362 47.7607C194.777 47.5648 195.262 47.4668 195.818 47.4668C196.397 47.4668 196.903 47.5853 197.336 47.8223C197.769 48.0547 198.108 48.3737 198.354 48.7793C198.605 49.1803 198.742 49.6361 198.765 50.1465H197.562C197.539 49.8411 197.452 49.5654 197.302 49.3193C197.156 49.0732 196.955 48.8773 196.7 48.7314C196.45 48.5811 196.156 48.5059 195.818 48.5059C195.431 48.5059 195.105 48.5833 194.841 48.7383C194.581 48.8887 194.374 49.0938 194.219 49.3535C194.068 49.6087 193.959 49.8936 193.891 50.208C193.827 50.5179 193.795 50.8346 193.795 51.1582V51.4453C193.795 51.7689 193.827 52.0879 193.891 52.4023C193.954 52.7168 194.062 53.0016 194.212 53.2568C194.367 53.512 194.574 53.7171 194.834 53.8721C195.098 54.0225 195.426 54.0977 195.818 54.0977ZM199.852 51.3838V51.2266C199.852 50.6934 199.929 50.1989 200.084 49.7432C200.239 49.2829 200.462 48.8841 200.754 48.5469C201.046 48.2051 201.399 47.9408 201.813 47.7539C202.228 47.5625 202.693 47.4668 203.208 47.4668C203.728 47.4668 204.195 47.5625 204.609 47.7539C205.029 47.9408 205.384 48.2051 205.676 48.5469C205.972 48.8841 206.198 49.2829 206.353 49.7432C206.507 50.1989 206.585 50.6934 206.585 51.2266V51.3838C206.585 51.917 206.507 52.4115 206.353 52.8672C206.198 53.3229 205.972 53.7217 205.676 54.0635C205.384 54.4007 205.031 54.665 204.616 54.8564C204.206 55.0433 203.741 55.1367 203.222 55.1367C202.702 55.1367 202.235 55.0433 201.82 54.8564C201.406 54.665 201.05 54.4007 200.754 54.0635C200.462 53.7217 200.239 53.3229 200.084 52.8672C199.929 52.4115 199.852 51.917 199.852 51.3838ZM201.116 51.2266V51.3838C201.116 51.7529 201.16 52.1016 201.246 52.4297C201.333 52.7533 201.463 53.0404 201.636 53.291C201.813 53.5417 202.035 53.7399 202.299 53.8857C202.563 54.027 202.871 54.0977 203.222 54.0977C203.568 54.0977 203.871 54.027 204.131 53.8857C204.395 53.7399 204.614 53.5417 204.787 53.291C204.96 53.0404 205.09 52.7533 205.177 52.4297C205.268 52.1016 205.313 51.7529 205.313 51.3838V51.2266C205.313 50.862 205.268 50.5179 205.177 50.1943C205.09 49.8662 204.958 49.5768 204.78 49.3262C204.607 49.071 204.388 48.8704 204.124 48.7246C203.864 48.5788 203.559 48.5059 203.208 48.5059C202.862 48.5059 202.556 48.5788 202.292 48.7246C202.032 48.8704 201.813 49.071 201.636 49.3262C201.463 49.5768 201.333 49.8662 201.246 50.1943C201.16 50.5179 201.116 50.862 201.116 51.2266ZM209.429 49.0732V55H208.157V47.6035H209.36L209.429 49.0732ZM209.169 51.0215L208.581 51.001C208.586 50.4951 208.652 50.028 208.779 49.5996C208.907 49.1667 209.096 48.7907 209.347 48.4717C209.597 48.1527 209.91 47.9066 210.283 47.7334C210.657 47.5557 211.09 47.4668 211.582 47.4668C211.928 47.4668 212.247 47.5169 212.539 47.6172C212.831 47.7129 213.084 47.8656 213.298 48.0752C213.512 48.2848 213.678 48.5537 213.797 48.8818C213.915 49.21 213.975 49.6064 213.975 50.0713V55H212.71V50.1328C212.71 49.7454 212.644 49.4355 212.512 49.2031C212.384 48.9707 212.202 48.8021 211.965 48.6973C211.728 48.5879 211.45 48.5332 211.131 48.5332C210.757 48.5332 210.445 48.5993 210.194 48.7314C209.944 48.8636 209.743 49.0459 209.593 49.2783C209.442 49.5107 209.333 49.7773 209.265 50.0781C209.201 50.3743 209.169 50.6888 209.169 51.0215ZM213.961 50.3242L213.113 50.584C213.118 50.1784 213.184 49.7887 213.312 49.415C213.444 49.0413 213.633 48.7087 213.879 48.417C214.13 48.1253 214.437 47.8952 214.802 47.7266C215.166 47.5534 215.583 47.4668 216.053 47.4668C216.449 47.4668 216.8 47.5192 217.105 47.624C217.415 47.7288 217.675 47.8906 217.885 48.1094C218.099 48.3236 218.261 48.5993 218.37 48.9365C218.479 49.2738 218.534 49.6748 218.534 50.1396V55H217.263V50.126C217.263 49.7113 217.197 49.39 217.064 49.1621C216.937 48.9297 216.755 48.7679 216.518 48.6768C216.285 48.5811 216.007 48.5332 215.684 48.5332C215.406 48.5332 215.16 48.5811 214.945 48.6768C214.731 48.7725 214.551 48.9046 214.405 49.0732C214.259 49.2373 214.148 49.4264 214.07 49.6406C213.997 49.8548 213.961 50.0827 213.961 50.3242ZM221.706 49.0732V55H220.435V47.6035H221.638L221.706 49.0732ZM221.446 51.0215L220.858 51.001C220.863 50.4951 220.929 50.028 221.057 49.5996C221.184 49.1667 221.373 48.7907 221.624 48.4717C221.875 48.1527 222.187 47.9066 222.561 47.7334C222.934 47.5557 223.367 47.4668 223.859 47.4668C224.206 47.4668 224.525 47.5169 224.816 47.6172C225.108 47.7129 225.361 47.8656 225.575 48.0752C225.789 48.2848 225.956 48.5537 226.074 48.8818C226.193 49.21 226.252 49.6064 226.252 50.0713V55H224.987V50.1328C224.987 49.7454 224.921 49.4355 224.789 49.2031C224.661 48.9707 224.479 48.8021 224.242 48.6973C224.005 48.5879 223.727 48.5332 223.408 48.5332C223.035 48.5332 222.722 48.5993 222.472 48.7314C222.221 48.8636 222.021 49.0459 221.87 49.2783C221.72 49.5107 221.61 49.7773 221.542 50.0781C221.478 50.3743 221.446 50.6888 221.446 51.0215ZM226.238 50.3242L225.391 50.584C225.395 50.1784 225.461 49.7887 225.589 49.415C225.721 49.0413 225.91 48.7087 226.156 48.417C226.407 48.1253 226.715 47.8952 227.079 47.7266C227.444 47.5534 227.861 47.4668 228.33 47.4668C228.727 47.4668 229.077 47.5192 229.383 47.624C229.693 47.7288 229.952 47.8906 230.162 48.1094C230.376 48.3236 230.538 48.5993 230.647 48.9365C230.757 49.2738 230.812 49.6748 230.812 50.1396V55H229.54V50.126C229.54 49.7113 229.474 49.39 229.342 49.1621C229.214 48.9297 229.032 48.7679 228.795 48.6768C228.562 48.5811 228.285 48.5332 227.961 48.5332C227.683 48.5332 227.437 48.5811 227.223 48.6768C227.008 48.7725 226.828 48.9046 226.683 49.0732C226.537 49.2373 226.425 49.4264 226.348 49.6406C226.275 49.8548 226.238 50.0827 226.238 50.3242ZM235.795 55.1367C235.28 55.1367 234.813 55.0501 234.394 54.877C233.979 54.6992 233.621 54.4508 233.32 54.1318C233.024 53.8128 232.796 53.4346 232.637 52.9971C232.477 52.5596 232.397 52.0811 232.397 51.5615V51.2744C232.397 50.6729 232.486 50.1374 232.664 49.668C232.842 49.194 233.083 48.793 233.389 48.4648C233.694 48.1367 234.04 47.8883 234.428 47.7197C234.815 47.5511 235.216 47.4668 235.631 47.4668C236.16 47.4668 236.615 47.5579 236.998 47.7402C237.385 47.9225 237.702 48.1777 237.948 48.5059C238.194 48.8294 238.377 49.2122 238.495 49.6543C238.614 50.0918 238.673 50.5703 238.673 51.0898V51.6572H233.149V50.625H237.408V50.5293C237.39 50.2012 237.322 49.8822 237.203 49.5723C237.089 49.2624 236.907 49.0072 236.656 48.8066C236.406 48.6061 236.064 48.5059 235.631 48.5059C235.344 48.5059 235.079 48.5674 234.838 48.6904C234.596 48.8089 234.389 48.9867 234.216 49.2236C234.043 49.4606 233.908 49.75 233.812 50.0918C233.717 50.4336 233.669 50.8278 233.669 51.2744V51.5615C233.669 51.9124 233.717 52.2428 233.812 52.5527C233.913 52.8581 234.056 53.127 234.243 53.3594C234.435 53.5918 234.665 53.7741 234.934 53.9062C235.207 54.0384 235.517 54.1045 235.863 54.1045C236.31 54.1045 236.688 54.0133 236.998 53.8311C237.308 53.6488 237.579 53.4049 237.812 53.0996L238.577 53.708C238.418 53.9495 238.215 54.1797 237.969 54.3984C237.723 54.6172 237.42 54.7949 237.06 54.9316C236.704 55.0684 236.283 55.1367 235.795 55.1367ZM241.414 48.7656V55H240.149V47.6035H241.38L241.414 48.7656ZM243.725 47.5625L243.718 48.7383C243.613 48.7155 243.513 48.7018 243.417 48.6973C243.326 48.6882 243.221 48.6836 243.103 48.6836C242.811 48.6836 242.553 48.7292 242.33 48.8203C242.107 48.9115 241.918 49.0391 241.763 49.2031C241.608 49.3672 241.485 49.5632 241.394 49.791C241.307 50.0143 241.25 50.2604 241.223 50.5293L240.867 50.7344C240.867 50.2878 240.91 49.8685 240.997 49.4766C241.088 49.0846 241.227 48.7383 241.414 48.4375C241.601 48.1322 241.838 47.8952 242.125 47.7266C242.417 47.5534 242.763 47.4668 243.164 47.4668C243.255 47.4668 243.36 47.4782 243.479 47.501C243.597 47.5192 243.679 47.5397 243.725 47.5625ZM247.717 54.0977C248.018 54.0977 248.296 54.0361 248.551 53.9131C248.806 53.79 249.016 53.6214 249.18 53.4072C249.344 53.1885 249.437 52.9401 249.46 52.6621H250.663C250.64 53.0996 250.492 53.5075 250.219 53.8857C249.95 54.2594 249.597 54.5625 249.159 54.7949C248.722 55.0228 248.241 55.1367 247.717 55.1367C247.161 55.1367 246.675 55.0387 246.261 54.8428C245.851 54.6468 245.509 54.3779 245.235 54.0361C244.966 53.6943 244.764 53.3024 244.627 52.8604C244.495 52.4137 244.429 51.9421 244.429 51.4453V51.1582C244.429 50.6615 244.495 50.1921 244.627 49.75C244.764 49.3034 244.966 48.9092 245.235 48.5674C245.509 48.2256 245.851 47.9567 246.261 47.7607C246.675 47.5648 247.161 47.4668 247.717 47.4668C248.296 47.4668 248.801 47.5853 249.234 47.8223C249.667 48.0547 250.007 48.3737 250.253 48.7793C250.504 49.1803 250.64 49.6361 250.663 50.1465H249.46C249.437 49.8411 249.351 49.5654 249.2 49.3193C249.054 49.0732 248.854 48.8773 248.599 48.7314C248.348 48.5811 248.054 48.5059 247.717 48.5059C247.329 48.5059 247.004 48.5833 246.739 48.7383C246.479 48.8887 246.272 49.0938 246.117 49.3535C245.967 49.6087 245.857 49.8936 245.789 50.208C245.725 50.5179 245.693 50.8346 245.693 51.1582V51.4453C245.693 51.7689 245.725 52.0879 245.789 52.4023C245.853 52.7168 245.96 53.0016 246.11 53.2568C246.265 53.512 246.473 53.7171 246.732 53.8721C246.997 54.0225 247.325 54.0977 247.717 54.0977ZM255.154 55.1367C254.639 55.1367 254.172 55.0501 253.753 54.877C253.338 54.6992 252.98 54.4508 252.68 54.1318C252.383 53.8128 252.156 53.4346 251.996 52.9971C251.837 52.5596 251.757 52.0811 251.757 51.5615V51.2744C251.757 50.6729 251.846 50.1374 252.023 49.668C252.201 49.194 252.443 48.793 252.748 48.4648C253.053 48.1367 253.4 47.8883 253.787 47.7197C254.174 47.5511 254.576 47.4668 254.99 47.4668C255.519 47.4668 255.975 47.5579 256.357 47.7402C256.745 47.9225 257.062 48.1777 257.308 48.5059C257.554 48.8294 257.736 49.2122 257.854 49.6543C257.973 50.0918 258.032 50.5703 258.032 51.0898V51.6572H252.509V50.625H256.768V50.5293C256.749 50.2012 256.681 49.8822 256.562 49.5723C256.449 49.2624 256.266 49.0072 256.016 48.8066C255.765 48.6061 255.423 48.5059 254.99 48.5059C254.703 48.5059 254.439 48.5674 254.197 48.6904C253.956 48.8089 253.748 48.9867 253.575 49.2236C253.402 49.4606 253.268 49.75 253.172 50.0918C253.076 50.4336 253.028 50.8278 253.028 51.2744V51.5615C253.028 51.9124 253.076 52.2428 253.172 52.5527C253.272 52.8581 253.416 53.127 253.603 53.3594C253.794 53.5918 254.024 53.7741 254.293 53.9062C254.566 54.0384 254.876 54.1045 255.223 54.1045C255.669 54.1045 256.048 54.0133 256.357 53.8311C256.667 53.6488 256.938 53.4049 257.171 53.0996L257.937 53.708C257.777 53.9495 257.574 54.1797 257.328 54.3984C257.082 54.6172 256.779 54.7949 256.419 54.9316C256.063 55.0684 255.642 55.1367 255.154 55.1367ZM110.916 71.0215V70.9531C110.916 69.9596 111.028 69.0618 111.251 68.2598C111.474 67.4531 111.759 66.7467 112.105 66.1406C112.452 65.5345 112.816 65.0332 113.199 64.6367C113.582 64.2357 113.935 63.9463 114.259 63.7686L114.525 64.6025C114.257 64.8076 113.983 65.0902 113.705 65.4502C113.432 65.8102 113.179 66.2523 112.946 66.7764C112.718 67.3005 112.534 67.9089 112.393 68.6016C112.251 69.2943 112.181 70.0736 112.181 70.9395V71.0352C112.181 71.901 112.251 72.6826 112.393 73.3799C112.534 74.0726 112.718 74.6833 112.946 75.2119C113.179 75.7406 113.432 76.1895 113.705 76.5586C113.983 76.9323 114.257 77.2285 114.525 77.4473L114.259 78.2129C113.935 78.0352 113.582 77.7458 113.199 77.3447C112.816 76.9482 112.452 76.4469 112.105 75.8408C111.759 75.2393 111.474 74.5352 111.251 73.7285C111.028 72.9219 110.916 72.0195 110.916 71.0215ZM118.723 74.0977C119.023 74.0977 119.301 74.0361 119.557 73.9131C119.812 73.79 120.021 73.6214 120.186 73.4072C120.35 73.1885 120.443 72.9401 120.466 72.6621H121.669C121.646 73.0996 121.498 73.5075 121.225 73.8857C120.956 74.2594 120.603 74.5625 120.165 74.7949C119.728 75.0228 119.247 75.1367 118.723 75.1367C118.167 75.1367 117.681 75.0387 117.267 74.8428C116.856 74.6468 116.515 74.3779 116.241 74.0361C115.972 73.6943 115.77 73.3024 115.633 72.8604C115.501 72.4137 115.435 71.9421 115.435 71.4453V71.1582C115.435 70.6615 115.501 70.1921 115.633 69.75C115.77 69.3034 115.972 68.9092 116.241 68.5674C116.515 68.2256 116.856 67.9567 117.267 67.7607C117.681 67.5648 118.167 67.4668 118.723 67.4668C119.301 67.4668 119.807 67.5853 120.24 67.8223C120.673 68.0547 121.013 68.3737 121.259 68.7793C121.509 69.1803 121.646 69.6361 121.669 70.1465H120.466C120.443 69.8411 120.356 69.5654 120.206 69.3193C120.06 69.0732 119.86 68.8773 119.604 68.7314C119.354 68.5811 119.06 68.5059 118.723 68.5059C118.335 68.5059 118.009 68.5833 117.745 68.7383C117.485 68.8887 117.278 69.0938 117.123 69.3535C116.973 69.6087 116.863 69.8936 116.795 70.208C116.731 70.5179 116.699 70.8346 116.699 71.1582V71.4453C116.699 71.7689 116.731 72.0879 116.795 72.4023C116.859 72.7168 116.966 73.0016 117.116 73.2568C117.271 73.512 117.479 73.7171 117.738 73.8721C118.003 74.0225 118.331 74.0977 118.723 74.0977ZM122.756 71.3838V71.2266C122.756 70.6934 122.833 70.1989 122.988 69.7432C123.143 69.2829 123.367 68.8841 123.658 68.5469C123.95 68.2051 124.303 67.9408 124.718 67.7539C125.132 67.5625 125.597 67.4668 126.112 67.4668C126.632 67.4668 127.099 67.5625 127.514 67.7539C127.933 67.9408 128.288 68.2051 128.58 68.5469C128.876 68.8841 129.102 69.2829 129.257 69.7432C129.412 70.1989 129.489 70.6934 129.489 71.2266V71.3838C129.489 71.917 129.412 72.4115 129.257 72.8672C129.102 73.3229 128.876 73.7217 128.58 74.0635C128.288 74.4007 127.935 74.665 127.521 74.8564C127.11 75.0433 126.646 75.1367 126.126 75.1367C125.606 75.1367 125.139 75.0433 124.725 74.8564C124.31 74.665 123.954 74.4007 123.658 74.0635C123.367 73.7217 123.143 73.3229 122.988 72.8672C122.833 72.4115 122.756 71.917 122.756 71.3838ZM124.021 71.2266V71.3838C124.021 71.7529 124.064 72.1016 124.15 72.4297C124.237 72.7533 124.367 73.0404 124.54 73.291C124.718 73.5417 124.939 73.7399 125.203 73.8857C125.467 74.027 125.775 74.0977 126.126 74.0977C126.472 74.0977 126.775 74.027 127.035 73.8857C127.299 73.7399 127.518 73.5417 127.691 73.291C127.865 73.0404 127.994 72.7533 128.081 72.4297C128.172 72.1016 128.218 71.7529 128.218 71.3838V71.2266C128.218 70.862 128.172 70.5179 128.081 70.1943C127.994 69.8662 127.862 69.5768 127.685 69.3262C127.511 69.071 127.293 68.8704 127.028 68.7246C126.769 68.5788 126.463 68.5059 126.112 68.5059C125.766 68.5059 125.461 68.5788 125.196 68.7246C124.937 68.8704 124.718 69.071 124.54 69.3262C124.367 69.5768 124.237 69.8662 124.15 70.1943C124.064 70.5179 124.021 70.862 124.021 71.2266ZM135.819 64.3838H136.858C136.858 64.8304 136.79 65.1859 136.653 65.4502C136.517 65.71 136.33 65.9105 136.093 66.0518C135.86 66.193 135.596 66.3001 135.3 66.373C135.008 66.446 134.705 66.5166 134.391 66.585C133.999 66.667 133.634 66.7969 133.297 66.9746C132.964 67.1478 132.677 67.3939 132.436 67.7129C132.199 68.0319 132.023 68.4466 131.909 68.957C131.8 69.4674 131.77 70.0986 131.82 70.8506V71.4795H130.781V70.8506C130.781 70.0075 130.861 69.2715 131.021 68.6426C131.185 68.0137 131.415 67.4827 131.711 67.0498C132.007 66.6169 132.358 66.2728 132.764 66.0176C133.174 65.7624 133.625 65.5869 134.117 65.4912C134.473 65.4229 134.778 65.3499 135.033 65.2725C135.288 65.1904 135.482 65.0811 135.614 64.9443C135.751 64.8076 135.819 64.6208 135.819 64.3838ZM134.322 68.0273C134.805 68.0273 135.236 68.1117 135.614 68.2803C135.993 68.4489 136.314 68.6836 136.578 68.9844C136.842 69.2852 137.043 69.6406 137.18 70.0508C137.321 70.4564 137.392 70.8984 137.392 71.377V71.5273C137.392 72.0423 137.316 72.5208 137.166 72.9629C137.02 73.4004 136.804 73.7832 136.517 74.1113C136.234 74.4349 135.888 74.6878 135.478 74.8701C135.072 75.0524 134.609 75.1436 134.09 75.1436C133.57 75.1436 133.105 75.0524 132.695 74.8701C132.29 74.6878 131.943 74.4349 131.656 74.1113C131.369 73.7832 131.15 73.4004 131 72.9629C130.854 72.5208 130.781 72.0423 130.781 71.5273V71.377C130.781 71.263 130.802 71.1514 130.843 71.042C130.884 70.9326 130.934 70.821 130.993 70.707C131.057 70.5931 131.114 70.4723 131.164 70.3447C131.333 69.9346 131.563 69.554 131.854 69.2031C132.151 68.8522 132.504 68.5697 132.914 68.3555C133.329 68.1367 133.798 68.0273 134.322 68.0273ZM134.076 69.0596C133.611 69.0596 133.229 69.1667 132.928 69.3809C132.632 69.5951 132.41 69.8799 132.265 70.2354C132.119 70.5863 132.046 70.9668 132.046 71.377V71.5273C132.046 71.8737 132.087 72.2018 132.169 72.5117C132.251 72.8216 132.374 73.0973 132.538 73.3389C132.707 73.5758 132.919 73.7627 133.174 73.8994C133.434 74.0361 133.739 74.1045 134.09 74.1045C134.441 74.1045 134.744 74.0361 134.999 73.8994C135.254 73.7627 135.464 73.5758 135.628 73.3389C135.792 73.0973 135.915 72.8216 135.997 72.5117C136.079 72.2018 136.12 71.8737 136.12 71.5273V71.377C136.12 71.0671 136.079 70.7731 135.997 70.4951C135.915 70.2171 135.79 69.971 135.621 69.7568C135.457 69.5426 135.245 69.374 134.985 69.251C134.73 69.1234 134.427 69.0596 134.076 69.0596ZM141.787 74.0977C142.088 74.0977 142.366 74.0361 142.621 73.9131C142.876 73.79 143.086 73.6214 143.25 73.4072C143.414 73.1885 143.507 72.9401 143.53 72.6621H144.733C144.711 73.0996 144.562 73.5075 144.289 73.8857C144.02 74.2594 143.667 74.5625 143.229 74.7949C142.792 75.0228 142.311 75.1367 141.787 75.1367C141.231 75.1367 140.746 75.0387 140.331 74.8428C139.921 74.6468 139.579 74.3779 139.306 74.0361C139.037 73.6943 138.834 73.3024 138.697 72.8604C138.565 72.4137 138.499 71.9421 138.499 71.4453V71.1582C138.499 70.6615 138.565 70.1921 138.697 69.75C138.834 69.3034 139.037 68.9092 139.306 68.5674C139.579 68.2256 139.921 67.9567 140.331 67.7607C140.746 67.5648 141.231 67.4668 141.787 67.4668C142.366 67.4668 142.872 67.5853 143.305 67.8223C143.738 68.0547 144.077 68.3737 144.323 68.7793C144.574 69.1803 144.711 69.6361 144.733 70.1465H143.53C143.507 69.8411 143.421 69.5654 143.271 69.3193C143.125 69.0732 142.924 68.8773 142.669 68.7314C142.418 68.5811 142.124 68.5059 141.787 68.5059C141.4 68.5059 141.074 68.5833 140.81 68.7383C140.55 68.8887 140.342 69.0938 140.188 69.3535C140.037 69.6087 139.928 69.8936 139.859 70.208C139.796 70.5179 139.764 70.8346 139.764 71.1582V71.4453C139.764 71.7689 139.796 72.0879 139.859 72.4023C139.923 72.7168 140.03 73.0016 140.181 73.2568C140.336 73.512 140.543 73.7171 140.803 73.8721C141.067 74.0225 141.395 74.0977 141.787 74.0977ZM149.17 67.6035V75H147.898V67.6035H149.17ZM151.651 67.6035V68.6289H145.465V67.6035H151.651ZM156.368 71.7461H153.941L153.928 70.7344H155.91C156.302 70.7344 156.628 70.6956 156.888 70.6182C157.152 70.5407 157.35 70.4245 157.482 70.2695C157.615 70.1146 157.681 69.9232 157.681 69.6953C157.681 69.5176 157.642 69.3626 157.564 69.2305C157.492 69.0938 157.38 68.9821 157.229 68.8955C157.079 68.8044 156.892 68.7383 156.669 68.6973C156.45 68.6517 156.193 68.6289 155.896 68.6289H154.276V75H153.012V67.6035H155.896C156.366 67.6035 156.787 67.6445 157.161 67.7266C157.539 67.8086 157.861 67.9339 158.125 68.1025C158.394 68.2666 158.599 68.4762 158.74 68.7314C158.882 68.9867 158.952 69.2874 158.952 69.6338C158.952 69.8571 158.907 70.069 158.815 70.2695C158.724 70.4701 158.59 70.6478 158.412 70.8027C158.234 70.9577 158.016 71.0853 157.756 71.1855C157.496 71.2812 157.198 71.3428 156.86 71.3701L156.368 71.7461ZM156.368 75H153.483L154.112 73.9746H156.368C156.719 73.9746 157.011 73.9313 157.243 73.8447C157.476 73.7536 157.649 73.626 157.763 73.4619C157.881 73.2933 157.94 73.0928 157.94 72.8604C157.94 72.6279 157.881 72.4297 157.763 72.2656C157.649 72.097 157.476 71.9694 157.243 71.8828C157.011 71.7917 156.719 71.7461 156.368 71.7461H154.447L154.461 70.7344H156.86L157.318 71.1172C157.724 71.1491 158.068 71.2493 158.351 71.418C158.633 71.5866 158.847 71.8008 158.993 72.0605C159.139 72.3158 159.212 72.5938 159.212 72.8945C159.212 73.2409 159.146 73.5462 159.014 73.8105C158.886 74.0749 158.699 74.2959 158.453 74.4736C158.207 74.6468 157.909 74.779 157.558 74.8701C157.207 74.9567 156.81 75 156.368 75ZM163.977 75.1367C163.462 75.1367 162.994 75.0501 162.575 74.877C162.16 74.6992 161.803 74.4508 161.502 74.1318C161.206 73.8128 160.978 73.4346 160.818 72.9971C160.659 72.5596 160.579 72.0811 160.579 71.5615V71.2744C160.579 70.6729 160.668 70.1374 160.846 69.668C161.023 69.194 161.265 68.793 161.57 68.4648C161.876 68.1367 162.222 67.8883 162.609 67.7197C162.997 67.5511 163.398 67.4668 163.812 67.4668C164.341 67.4668 164.797 67.5579 165.18 67.7402C165.567 67.9225 165.884 68.1777 166.13 68.5059C166.376 68.8294 166.558 69.2122 166.677 69.6543C166.795 70.0918 166.854 70.5703 166.854 71.0898V71.6572H161.331V70.625H165.59V70.5293C165.572 70.2012 165.503 69.8822 165.385 69.5723C165.271 69.2624 165.089 69.0072 164.838 68.8066C164.587 68.6061 164.245 68.5059 163.812 68.5059C163.525 68.5059 163.261 68.5674 163.02 68.6904C162.778 68.8089 162.571 68.9867 162.397 69.2236C162.224 69.4606 162.09 69.75 161.994 70.0918C161.898 70.4336 161.851 70.8278 161.851 71.2744V71.5615C161.851 71.9124 161.898 72.2428 161.994 72.5527C162.094 72.8581 162.238 73.127 162.425 73.3594C162.616 73.5918 162.846 73.7741 163.115 73.9062C163.389 74.0384 163.699 74.1045 164.045 74.1045C164.492 74.1045 164.87 74.0133 165.18 73.8311C165.49 73.6488 165.761 73.4049 165.993 73.0996L166.759 73.708C166.599 73.9495 166.396 74.1797 166.15 74.3984C165.904 74.6172 165.601 74.7949 165.241 74.9316C164.886 75.0684 164.464 75.1367 163.977 75.1367ZM173.349 70.8096V71.835H169.438V70.8096H173.349ZM169.705 67.6035V75H168.44V67.6035H169.705ZM174.374 67.6035V75H173.103V67.6035H174.374ZM181.429 70.8096V71.835H177.519V70.8096H181.429ZM177.785 67.6035V75H176.521V67.6035H177.785ZM182.454 67.6035V75H181.183V67.6035H182.454ZM185.53 70.1465H187.752C188.349 70.1465 188.853 70.2513 189.263 70.4609C189.673 70.666 189.983 70.9508 190.192 71.3154C190.407 71.6755 190.514 72.0856 190.514 72.5459C190.514 72.8877 190.454 73.209 190.336 73.5098C190.217 73.806 190.04 74.0658 189.803 74.2891C189.57 74.5124 189.281 74.6878 188.935 74.8154C188.593 74.9385 188.199 75 187.752 75H184.607V67.6035H185.872V73.9609H187.752C188.117 73.9609 188.408 73.8949 188.627 73.7627C188.846 73.6305 189.003 73.4596 189.099 73.25C189.194 73.0404 189.242 72.8216 189.242 72.5938C189.242 72.3704 189.194 72.1517 189.099 71.9375C189.003 71.7233 188.846 71.5456 188.627 71.4043C188.408 71.2585 188.117 71.1855 187.752 71.1855H185.53V70.1465ZM193.146 67.6035V75H191.881V67.6035H193.146ZM196.728 72.9971L200.139 67.6035H201.41V75H200.139V69.6064L196.728 75H195.47V67.6035H196.728V72.9971ZM199.448 64.9238H200.474C200.474 65.2793 200.392 65.596 200.228 65.874C200.063 66.1475 199.829 66.3617 199.523 66.5166C199.218 66.6715 198.856 66.749 198.437 66.749C197.803 66.749 197.302 66.5804 196.933 66.2432C196.568 65.9014 196.386 65.4616 196.386 64.9238H197.411C197.411 65.1927 197.489 65.4297 197.644 65.6348C197.799 65.8398 198.063 65.9424 198.437 65.9424C198.801 65.9424 199.061 65.8398 199.216 65.6348C199.371 65.4297 199.448 65.1927 199.448 64.9238ZM209.873 74.0977C210.174 74.0977 210.452 74.0361 210.707 73.9131C210.962 73.79 211.172 73.6214 211.336 73.4072C211.5 73.1885 211.593 72.9401 211.616 72.6621H212.819C212.797 73.0996 212.648 73.5075 212.375 73.8857C212.106 74.2594 211.753 74.5625 211.315 74.7949C210.878 75.0228 210.397 75.1367 209.873 75.1367C209.317 75.1367 208.832 75.0387 208.417 74.8428C208.007 74.6468 207.665 74.3779 207.392 74.0361C207.123 73.6943 206.92 73.3024 206.783 72.8604C206.651 72.4137 206.585 71.9421 206.585 71.4453V71.1582C206.585 70.6615 206.651 70.1921 206.783 69.75C206.92 69.3034 207.123 68.9092 207.392 68.5674C207.665 68.2256 208.007 67.9567 208.417 67.7607C208.832 67.5648 209.317 67.4668 209.873 67.4668C210.452 67.4668 210.958 67.5853 211.391 67.8223C211.824 68.0547 212.163 68.3737 212.409 68.7793C212.66 69.1803 212.797 69.6361 212.819 70.1465H211.616C211.593 69.8411 211.507 69.5654 211.356 69.3193C211.211 69.0732 211.01 68.8773 210.755 68.7314C210.504 68.5811 210.21 68.5059 209.873 68.5059C209.486 68.5059 209.16 68.5833 208.896 68.7383C208.636 68.8887 208.428 69.0938 208.273 69.3535C208.123 69.6087 208.014 69.8936 207.945 70.208C207.882 70.5179 207.85 70.8346 207.85 71.1582V71.4453C207.85 71.7689 207.882 72.0879 207.945 72.4023C208.009 72.7168 208.116 73.0016 208.267 73.2568C208.422 73.512 208.629 73.7171 208.889 73.8721C209.153 74.0225 209.481 74.0977 209.873 74.0977ZM218.603 73.7354V69.9277C218.603 69.6361 218.543 69.3831 218.425 69.1689C218.311 68.9502 218.138 68.7816 217.905 68.6631C217.673 68.5446 217.386 68.4854 217.044 68.4854C216.725 68.4854 216.445 68.54 216.203 68.6494C215.966 68.7588 215.779 68.9023 215.643 69.0801C215.51 69.2578 215.444 69.4492 215.444 69.6543H214.18C214.18 69.39 214.248 69.1279 214.385 68.8682C214.521 68.6084 214.717 68.3737 214.973 68.1641C215.232 67.9499 215.542 67.7812 215.902 67.6582C216.267 67.5306 216.673 67.4668 217.119 67.4668C217.657 67.4668 218.131 67.5579 218.541 67.7402C218.956 67.9225 219.279 68.1982 219.512 68.5674C219.749 68.932 219.867 69.39 219.867 69.9414V73.3867C219.867 73.6328 219.888 73.8949 219.929 74.1729C219.974 74.4508 220.04 74.6901 220.127 74.8906V75H218.808C218.744 74.8542 218.694 74.6605 218.657 74.4189C218.621 74.1729 218.603 73.945 218.603 73.7354ZM218.821 70.5156L218.835 71.4043H217.557C217.197 71.4043 216.875 71.4339 216.593 71.4932C216.31 71.5479 216.073 71.6322 215.882 71.7461C215.69 71.86 215.545 72.0036 215.444 72.1768C215.344 72.3454 215.294 72.5436 215.294 72.7715C215.294 73.0039 215.346 73.2158 215.451 73.4072C215.556 73.5986 215.713 73.7513 215.923 73.8652C216.137 73.9746 216.399 74.0293 216.709 74.0293C217.096 74.0293 217.438 73.9473 217.734 73.7832C218.031 73.6191 218.265 73.4186 218.438 73.1816C218.616 72.9447 218.712 72.7145 218.726 72.4912L219.266 73.0996C219.234 73.291 219.147 73.5029 219.006 73.7354C218.865 73.9678 218.675 74.1911 218.438 74.4053C218.206 74.6149 217.928 74.7904 217.604 74.9316C217.285 75.0684 216.925 75.1367 216.524 75.1367C216.023 75.1367 215.583 75.0387 215.205 74.8428C214.831 74.6468 214.54 74.3848 214.33 74.0566C214.125 73.724 214.022 73.3525 214.022 72.9424C214.022 72.5459 214.1 72.1973 214.255 71.8965C214.41 71.5911 214.633 71.3382 214.925 71.1377C215.216 70.9326 215.567 70.7777 215.978 70.6729C216.388 70.568 216.846 70.5156 217.352 70.5156H218.821ZM223.224 72.9971L226.635 67.6035H227.906V75H226.635V69.6064L223.224 75H221.966V67.6035H223.224V72.9971ZM225.944 64.9238H226.97C226.97 65.2793 226.888 65.596 226.724 65.874C226.56 66.1475 226.325 66.3617 226.02 66.5166C225.714 66.6715 225.352 66.749 224.933 66.749C224.299 66.749 223.798 66.5804 223.429 66.2432C223.064 65.9014 222.882 65.4616 222.882 64.9238H223.907C223.907 65.1927 223.985 65.4297 224.14 65.6348C224.295 65.8398 224.559 65.9424 224.933 65.9424C225.297 65.9424 225.557 65.8398 225.712 65.6348C225.867 65.4297 225.944 65.1927 225.944 64.9238ZM232.951 67.6035V75H231.68V67.6035H232.951ZM235.433 67.6035V68.6289H229.246V67.6035H235.433ZM237.825 73.4961V74.5146C237.825 74.9294 237.72 75.3669 237.511 75.8271C237.301 76.292 237.007 76.6794 236.629 76.9893L235.911 76.4902C236.057 76.2897 236.18 76.0846 236.28 75.875C236.381 75.6699 236.456 75.4557 236.506 75.2324C236.561 75.0137 236.588 74.7812 236.588 74.5352V73.4961H237.825ZM245.871 74.0977C246.172 74.0977 246.45 74.0361 246.705 73.9131C246.96 73.79 247.17 73.6214 247.334 73.4072C247.498 73.1885 247.591 72.9401 247.614 72.6621H248.817C248.795 73.0996 248.646 73.5075 248.373 73.8857C248.104 74.2594 247.751 74.5625 247.313 74.7949C246.876 75.0228 246.395 75.1367 245.871 75.1367C245.315 75.1367 244.83 75.0387 244.415 74.8428C244.005 74.6468 243.663 74.3779 243.39 74.0361C243.121 73.6943 242.918 73.3024 242.781 72.8604C242.649 72.4137 242.583 71.9421 242.583 71.4453V71.1582C242.583 70.6615 242.649 70.1921 242.781 69.75C242.918 69.3034 243.121 68.9092 243.39 68.5674C243.663 68.2256 244.005 67.9567 244.415 67.7607C244.83 67.5648 245.315 67.4668 245.871 67.4668C246.45 67.4668 246.956 67.5853 247.389 67.8223C247.822 68.0547 248.161 68.3737 248.407 68.7793C248.658 69.1803 248.795 69.6361 248.817 70.1465H247.614C247.591 69.8411 247.505 69.5654 247.354 69.3193C247.209 69.0732 247.008 68.8773 246.753 68.7314C246.502 68.5811 246.208 68.5059 245.871 68.5059C245.484 68.5059 245.158 68.5833 244.894 68.7383C244.634 68.8887 244.426 69.0938 244.271 69.3535C244.121 69.6087 244.012 69.8936 243.943 70.208C243.88 70.5179 243.848 70.8346 243.848 71.1582V71.4453C243.848 71.7689 243.88 72.0879 243.943 72.4023C244.007 72.7168 244.114 73.0016 244.265 73.2568C244.42 73.512 244.627 73.7171 244.887 73.8721C245.151 74.0225 245.479 74.0977 245.871 74.0977ZM249.904 71.3838V71.2266C249.904 70.6934 249.982 70.1989 250.137 69.7432C250.292 69.2829 250.515 68.8841 250.807 68.5469C251.098 68.2051 251.451 67.9408 251.866 67.7539C252.281 67.5625 252.746 67.4668 253.261 67.4668C253.78 67.4668 254.247 67.5625 254.662 67.7539C255.081 67.9408 255.437 68.2051 255.729 68.5469C256.025 68.8841 256.25 69.2829 256.405 69.7432C256.56 70.1989 256.638 70.6934 256.638 71.2266V71.3838C256.638 71.917 256.56 72.4115 256.405 72.8672C256.25 73.3229 256.025 73.7217 255.729 74.0635C255.437 74.4007 255.084 74.665 254.669 74.8564C254.259 75.0433 253.794 75.1367 253.274 75.1367C252.755 75.1367 252.288 75.0433 251.873 74.8564C251.458 74.665 251.103 74.4007 250.807 74.0635C250.515 73.7217 250.292 73.3229 250.137 72.8672C249.982 72.4115 249.904 71.917 249.904 71.3838ZM251.169 71.2266V71.3838C251.169 71.7529 251.212 72.1016 251.299 72.4297C251.385 72.7533 251.515 73.0404 251.688 73.291C251.866 73.5417 252.087 73.7399 252.352 73.8857C252.616 74.027 252.924 74.0977 253.274 74.0977C253.621 74.0977 253.924 74.027 254.184 73.8857C254.448 73.7399 254.667 73.5417 254.84 73.291C255.013 73.0404 255.143 72.7533 255.229 72.4297C255.321 72.1016 255.366 71.7529 255.366 71.3838V71.2266C255.366 70.862 255.321 70.5179 255.229 70.1943C255.143 69.8662 255.011 69.5768 254.833 69.3262C254.66 69.071 254.441 68.8704 254.177 68.7246C253.917 68.5788 253.612 68.5059 253.261 68.5059C252.914 68.5059 252.609 68.5788 252.345 68.7246C252.085 68.8704 251.866 69.071 251.688 69.3262C251.515 69.5768 251.385 69.8662 251.299 70.1943C251.212 70.5179 251.169 70.862 251.169 71.2266ZM258.333 75V67.6035H259.598V73.9609H263.002V67.6035H264.273V75H258.333ZM265.148 73.9609L265.025 77.1943H263.897V75H262.934V73.9609H265.148ZM113.924 94.0977C114.225 94.0977 114.503 94.0361 114.758 93.9131C115.013 93.79 115.223 93.6214 115.387 93.4072C115.551 93.1885 115.644 92.9401 115.667 92.6621H116.87C116.847 93.0996 116.699 93.5075 116.426 93.8857C116.157 94.2594 115.804 94.5625 115.366 94.7949C114.929 95.0228 114.448 95.1367 113.924 95.1367C113.368 95.1367 112.882 95.0387 112.468 94.8428C112.058 94.6468 111.716 94.3779 111.442 94.0361C111.174 93.6943 110.971 93.3024 110.834 92.8604C110.702 92.4137 110.636 91.9421 110.636 91.4453V91.1582C110.636 90.6615 110.702 90.1921 110.834 89.75C110.971 89.3034 111.174 88.9092 111.442 88.5674C111.716 88.2256 112.058 87.9567 112.468 87.7607C112.882 87.5648 113.368 87.4668 113.924 87.4668C114.503 87.4668 115.008 87.5853 115.441 87.8223C115.874 88.0547 116.214 88.3737 116.46 88.7793C116.711 89.1803 116.847 89.6361 116.87 90.1465H115.667C115.644 89.8411 115.558 89.5654 115.407 89.3193C115.261 89.0732 115.061 88.8773 114.806 88.7314C114.555 88.5811 114.261 88.5059 113.924 88.5059C113.536 88.5059 113.211 88.5833 112.946 88.7383C112.687 88.8887 112.479 89.0938 112.324 89.3535C112.174 89.6087 112.064 89.8936 111.996 90.208C111.932 90.5179 111.9 90.8346 111.9 91.1582V91.4453C111.9 91.7689 111.932 92.0879 111.996 92.4023C112.06 92.7168 112.167 93.0016 112.317 93.2568C112.472 93.512 112.68 93.7171 112.939 93.8721C113.204 94.0225 113.532 94.0977 113.924 94.0977ZM121.361 95.1367C120.846 95.1367 120.379 95.0501 119.96 94.877C119.545 94.6992 119.188 94.4508 118.887 94.1318C118.59 93.8128 118.363 93.4346 118.203 92.9971C118.044 92.5596 117.964 92.0811 117.964 91.5615V91.2744C117.964 90.6729 118.053 90.1374 118.23 89.668C118.408 89.194 118.65 88.793 118.955 88.4648C119.26 88.1367 119.607 87.8883 119.994 87.7197C120.382 87.5511 120.783 87.4668 121.197 87.4668C121.726 87.4668 122.182 87.5579 122.564 87.7402C122.952 87.9225 123.269 88.1777 123.515 88.5059C123.761 88.8294 123.943 89.2122 124.062 89.6543C124.18 90.0918 124.239 90.5703 124.239 91.0898V91.6572H118.716V90.625H122.975V90.5293C122.956 90.2012 122.888 89.8822 122.77 89.5723C122.656 89.2624 122.473 89.0072 122.223 88.8066C121.972 88.6061 121.63 88.5059 121.197 88.5059C120.91 88.5059 120.646 88.5674 120.404 88.6904C120.163 88.8089 119.955 88.9867 119.782 89.2236C119.609 89.4606 119.475 89.75 119.379 90.0918C119.283 90.4336 119.235 90.8278 119.235 91.2744V91.5615C119.235 91.9124 119.283 92.2428 119.379 92.5527C119.479 92.8581 119.623 93.127 119.81 93.3594C120.001 93.5918 120.231 93.7741 120.5 93.9062C120.773 94.0384 121.083 94.1045 121.43 94.1045C121.876 94.1045 122.255 94.0133 122.564 93.8311C122.874 93.6488 123.146 93.4049 123.378 93.0996L124.144 93.708C123.984 93.9495 123.781 94.1797 123.535 94.3984C123.289 94.6172 122.986 94.7949 122.626 94.9316C122.271 95.0684 121.849 95.1367 121.361 95.1367ZM128.648 87.6035V95H127.377V87.6035H128.648ZM131.13 87.6035V88.6289H124.943V87.6035H131.13ZM133.741 92.9971L137.152 87.6035H138.424V95H137.152V89.6064L133.741 95H132.483V87.6035H133.741V92.9971ZM145.294 92.9971L148.705 87.6035H149.977V95H148.705V89.6064L145.294 95H144.036V87.6035H145.294V92.9971ZM158.494 87.6035V95H157.223V87.6035H158.494ZM160.976 87.6035V88.6289H154.789V87.6035H160.976ZM167.148 87.6035V88.6494H163.409V87.6035H167.148ZM163.594 87.6035V95H162.329V87.6035H163.594ZM168.27 87.6035V95H166.998V87.6035H168.27ZM173.212 90.9531V91.0215C173.212 92.0195 173.1 92.9219 172.877 93.7285C172.654 94.5352 172.369 95.2393 172.022 95.8408C171.676 96.4469 171.312 96.9482 170.929 97.3447C170.546 97.7458 170.193 98.0352 169.869 98.2129L169.603 97.4473C169.871 97.2422 170.143 96.9551 170.416 96.5859C170.689 96.2214 170.942 95.7702 171.175 95.2324C171.407 94.6992 171.594 94.084 171.735 93.3867C171.877 92.6849 171.947 91.901 171.947 91.0352V90.9395C171.947 90.0736 171.872 89.292 171.722 88.5947C171.571 87.8929 171.375 87.2754 171.134 86.7422C170.897 86.209 170.642 85.7601 170.368 85.3955C170.099 85.0264 169.844 84.7415 169.603 84.541L169.869 83.7686C170.193 83.9463 170.546 84.2357 170.929 84.6367C171.312 85.0332 171.676 85.5345 172.022 86.1406C172.369 86.7467 172.654 87.4531 172.877 88.2598C173.1 89.0618 173.212 89.9596 173.212 90.9531Z" fill="black"/>
<path d="M85 52.3469L59 52.3469" stroke="#00A3FF" stroke-miterlimit="10" stroke-linecap="round"/>
<path d="M80 51.8235C79.9954 53.3078 80.4313 54.7602 81.2526 55.9966C82.0739 57.2331 83.2436 58.198 84.6136 58.7693C85.9837 59.3405 87.4924 59.4924 88.9488 59.2057C90.4052 58.9189 91.7437 58.2065 92.795 57.1585C93.8462 56.1106 94.5629 54.7742 94.8542 53.3187C95.1455 51.8632 94.9983 50.354 94.4313 48.9822C93.8644 47.6104 92.9031 46.4377 91.6692 45.6126C90.4354 44.7874 88.9844 44.3469 87.5 44.3469C85.515 44.3469 83.6108 45.1339 82.205 46.5353C80.7991 47.9368 80.0062 49.8384 80 51.8235Z" fill="#00A3FF"/>
<path d="M87.4766 54.7532C85.8586 54.7532 84.5469 53.4415 84.5469 51.8235C84.5469 50.2055 85.8586 48.8938 87.4766 48.8938C89.0946 48.8938 90.4062 50.2055 90.4062 51.8235C90.4062 53.4415 89.0946 54.7532 87.4766 54.7532Z" fill="white"/>
<defs>
<filter id="filter0_d_811_1191" x="262.322" y="10.6694" width="83.3555" height="83.3553" filterUnits="userSpaceOnUse" color-interpolation-filters="sRGB">
<feFlood flood-opacity="0" result="BackgroundImageFix"/>
<feColorMatrix in="SourceAlpha" type="matrix" values="0 0 0 0 0 0 0 0 0 0 0 0 0 0 0 0 0 0 127 0" result="hardAlpha"/>
<feOffset/>
<feGaussianBlur stdDeviation="12"/>
<feComposite in2="hardAlpha" operator="out"/>
<feColorMatrix type="matrix" values="0 0 0 0 0.579167 0 0 0 0 0.579167 0 0 0 0 0.579167 0 0 0 0.3 0"/>
<feBlend mode="normal" in2="BackgroundImageFix" result="effect1_dropShadow_811_1191"/>
<feBlend mode="normal" in="SourceGraphic" in2="effect1_dropShadow_811_1191" result="shape"/>
</filter>
</defs>
</svg>
