<svg width="655" height="116" viewBox="0 0 655 116" fill="none" xmlns="http://www.w3.org/2000/svg">
<path d="M654.819 57.9099C654.819 25.9272 628.892 0.0125023 596.91 0.0276467C564.927 0.0427912 539 25.982 539 57.9647C539 89.9474 564.927 115.862 596.91 115.847C628.892 115.832 654.819 89.8925 654.819 57.9099Z" fill="#00A3FF"/>
<path d="M578.104 38.8625H585.604V80.8743H576.609V50.2883H569.402V44.5754C570.691 44.4192 571.873 44.1165 572.947 43.6672C574.021 43.1985 574.852 42.7004 575.438 42.1731C576.043 41.6458 576.551 41.1379 576.961 40.6497C577.391 40.1418 577.693 39.7122 577.869 39.3606L578.104 38.8625ZM622.518 80.8743H593.133C593.133 77.7883 593.631 74.9954 594.627 72.4954C595.623 69.9954 596.863 68.0227 598.348 66.5774C599.832 65.1125 601.443 63.7258 603.182 62.4172C604.92 61.0891 606.521 59.9661 607.986 59.0481C609.471 58.1106 610.711 57.0266 611.707 55.7961C612.723 54.5461 613.23 53.2083 613.23 51.7825C613.23 50.1028 612.703 48.7844 611.648 47.8274C610.613 46.8508 609.139 46.3625 607.225 46.3625C605.701 46.3625 604.383 46.7922 603.27 47.6516C602.176 48.511 601.453 49.3606 601.102 50.2004L600.633 51.4602L593.133 47.886C593.211 47.6125 593.338 47.2512 593.514 46.802C593.689 46.3528 594.158 45.5618 594.92 44.429C595.682 43.2766 596.561 42.2708 597.557 41.4114C598.553 40.552 599.959 39.7708 601.775 39.0676C603.611 38.345 605.623 37.9836 607.811 37.9836C612.088 37.9836 615.604 39.2825 618.357 41.8801C621.131 44.4778 622.518 47.6711 622.518 51.4602C622.518 53.5891 622.059 55.5227 621.141 57.261C620.223 58.9993 619.021 60.4836 617.537 61.7141C616.053 62.925 614.529 64.0481 612.967 65.0833C611.424 66.0989 609.842 67.261 608.221 68.5696C606.6 69.8586 605.369 71.1575 604.529 72.4661H622.518V80.8743Z" fill="white"/>
<path d="M175.294 58.0002L57.2939 58.0002" stroke="#00A3FF" stroke-miterlimit="10" stroke-linecap="round"/>
<g filter="url(#filter0_d_822_2145)">
<path d="M32.5734 78.7318C21.2109 67.3747 21.2109 48.9612 32.5733 37.6041C43.9358 26.247 62.358 26.2471 73.7204 37.6042C85.0829 48.9612 85.0829 67.3747 73.7204 78.7318C62.358 90.0889 43.9358 90.0889 32.5734 78.7318Z" fill="white"/>
</g>
<path d="M44.0532 58.1649C44.0479 59.8876 44.5531 61.5732 45.505 63.0093C46.457 64.4453 47.8131 65.5674 49.4023 66.234C50.9915 66.9007 52.7426 67.082 54.4347 66.7551C56.1269 66.4282 57.6843 65.6078 58.9106 64.3973C60.1368 63.1868 60.977 61.6405 61.3251 59.9533C61.6731 58.2662 61.5136 56.5137 60.8665 54.9171C60.2194 53.3205 59.1137 51.9511 57.689 50.9818C56.2643 50.0125 54.5843 49.4866 52.8609 49.4704C51.7094 49.456 50.5665 49.6702 49.4985 50.1007C48.4306 50.5312 47.4587 51.1693 46.6394 51.9781C45.8201 52.7869 45.1695 53.7503 44.7256 54.8123C44.2816 55.8743 44.0531 57.0139 44.0532 58.1649Z" fill="#00A3FF"/>
<path d="M52.7516 61.5717C50.8692 61.5717 49.3431 60.0464 49.3431 58.1648C49.3431 56.2832 50.8692 54.7578 52.7516 54.7578C54.6341 54.7578 56.1602 56.2832 56.1602 58.1648C56.1602 60.0464 54.6341 61.5717 52.7516 61.5717Z" fill="white"/>
<path d="M172.842 58.1647C172.837 59.8909 173.344 61.5798 174.299 63.0177C175.255 64.4555 176.616 65.5777 178.21 66.242C179.804 66.9063 181.559 67.0829 183.254 66.7495C184.948 66.416 186.505 65.5875 187.729 64.3688C188.952 63.1502 189.785 61.5962 190.124 59.9036C190.463 58.211 190.292 56.4559 189.632 54.8606C188.973 53.2653 187.854 51.9016 186.419 50.942C184.983 49.9824 183.295 49.4702 181.568 49.4702C179.259 49.4702 177.043 50.3854 175.408 52.0151C173.772 53.6449 172.849 55.8563 172.842 58.1647Z" fill="#00A3FF"/>
<path d="M181.541 61.5717C179.658 61.5717 178.132 60.0464 178.132 58.1648C178.132 56.2832 179.658 54.7578 181.541 54.7578C183.423 54.7578 184.949 56.2832 184.949 58.1648C184.949 60.0464 183.423 61.5717 181.541 61.5717Z" fill="white"/>
<path d="M238.391 41.6848H234.427L234.405 40.0198H238.004C238.598 40.0198 239.118 39.9195 239.562 39.719C240.006 39.5185 240.349 39.232 240.593 38.8596C240.843 38.4801 240.969 38.0289 240.969 37.5061C240.969 36.9332 240.858 36.4677 240.636 36.1096C240.421 35.7444 240.088 35.4794 239.637 35.3147C239.193 35.1428 238.627 35.0569 237.939 35.0569H234.889V49.0002H232.815V33.3596H237.939C238.742 33.3596 239.458 33.442 240.088 33.6067C240.718 33.7642 241.252 34.0149 241.688 34.3586C242.132 34.6952 242.469 35.1249 242.698 35.6477C242.927 36.1705 243.042 36.7971 243.042 37.5276C243.042 38.1721 242.877 38.7558 242.548 39.2786C242.218 39.7942 241.76 40.2167 241.173 40.5461C240.593 40.8756 239.912 41.0868 239.132 41.1799L238.391 41.6848ZM238.294 49.0002H233.61L234.781 47.3137H238.294C238.953 47.3137 239.511 47.1991 239.97 46.97C240.435 46.7408 240.79 46.4185 241.033 46.0032C241.277 45.5806 241.398 45.0829 241.398 44.51C241.398 43.9299 241.295 43.4286 241.087 43.0061C240.879 42.5836 240.553 42.2577 240.109 42.0286C239.665 41.7994 239.092 41.6848 238.391 41.6848H235.437L235.458 40.0198H239.497L239.938 40.6213C240.689 40.6858 241.327 40.9006 241.85 41.2659C242.372 41.6239 242.77 42.0823 243.042 42.6409C243.321 43.1995 243.461 43.8153 243.461 44.4885C243.461 45.4625 243.246 46.2861 242.816 46.9592C242.394 47.6252 241.796 48.1337 241.022 48.4846C240.249 48.8284 239.34 49.0002 238.294 49.0002ZM247.564 37.3772L250.11 41.6096L252.688 37.3772H255.02L251.217 43.1135L255.138 49.0002H252.839L250.153 44.6389L247.468 49.0002H245.158L249.068 43.1135L245.276 37.3772H247.564ZM256.395 43.3176V43.0706C256.395 42.2327 256.516 41.4556 256.76 40.7395C257.003 40.0162 257.354 39.3896 257.812 38.8596C258.271 38.3225 258.826 37.9071 259.478 37.6135C260.129 37.3127 260.86 37.1624 261.669 37.1624C262.485 37.1624 263.219 37.3127 263.871 37.6135C264.53 37.9071 265.089 38.3225 265.547 38.8596C266.012 39.3896 266.367 40.0162 266.61 40.7395C266.854 41.4556 266.976 42.2327 266.976 43.0706V43.3176C266.976 44.1555 266.854 44.9325 266.61 45.6487C266.367 46.3648 266.012 46.9915 265.547 47.5286C265.089 48.0585 264.534 48.4739 263.882 48.7747C263.237 49.0683 262.507 49.2151 261.69 49.2151C260.874 49.2151 260.14 49.0683 259.488 48.7747C258.837 48.4739 258.278 48.0585 257.812 47.5286C257.354 46.9915 257.003 46.3648 256.76 45.6487C256.516 44.9325 256.395 44.1555 256.395 43.3176ZM258.382 43.0706V43.3176C258.382 43.8977 258.45 44.4456 258.586 44.9612C258.722 45.4696 258.926 45.9208 259.198 46.3147C259.478 46.7086 259.825 47.0201 260.24 47.2493C260.656 47.4713 261.139 47.5823 261.69 47.5823C262.235 47.5823 262.711 47.4713 263.119 47.2493C263.535 47.0201 263.878 46.7086 264.15 46.3147C264.423 45.9208 264.627 45.4696 264.763 44.9612C264.906 44.4456 264.978 43.8977 264.978 43.3176V43.0706C264.978 42.4976 264.906 41.9569 264.763 41.4485C264.627 40.9329 264.419 40.4781 264.14 40.0842C263.868 39.6832 263.524 39.3681 263.108 39.1389C262.7 38.9097 262.22 38.7952 261.669 38.7952C261.125 38.7952 260.645 38.9097 260.229 39.1389C259.821 39.3681 259.478 39.6832 259.198 40.0842C258.926 40.4781 258.722 40.9329 258.586 41.4485C258.45 41.9569 258.382 42.4976 258.382 43.0706ZM272.755 43.9407L268.351 37.3772H270.746L273.754 42.1897H276.074L275.784 43.9407H272.755ZM273.84 43.7366L270.467 49.0002H267.953L272.583 42.2971L273.84 43.7366ZM277.095 37.3772V49.0002H275.107V37.3772H277.095ZM283.873 37.3772L279.469 43.9407H276.439L276.128 42.1897H278.459L281.467 37.3772H283.873ZM281.746 49.0002L278.362 43.7366L279.641 42.2971L284.26 49.0002H281.746ZM288.191 37.3772H290.179L290.007 41.7278C289.964 42.8306 289.839 43.7831 289.631 44.5852C289.423 45.3873 289.158 46.0712 288.836 46.637C288.514 47.1956 288.152 47.6646 287.751 48.0442C287.357 48.4237 286.949 48.7424 286.526 49.0002H285.538L285.592 47.3782L286 47.3674C286.236 47.0881 286.465 46.8017 286.688 46.5081C286.91 46.2073 287.114 45.8528 287.3 45.4446C287.486 45.0292 287.64 44.5243 287.762 43.9299C287.891 43.3284 287.973 42.5943 288.009 41.7278L288.191 37.3772ZM288.686 37.3772H295.679V49.0002H293.691V39.2141H288.686V37.3772ZM285.087 47.3674H297.172V52.427H295.185V49.0002H287.074V52.427H285.076L285.087 47.3674ZM304.197 49.2151C303.388 49.2151 302.654 49.079 301.995 48.8069C301.343 48.5276 300.781 48.1373 300.309 47.636C299.843 47.1347 299.485 46.5403 299.234 45.8528C298.984 45.1653 298.858 44.4133 298.858 43.5969V43.1458C298.858 42.2004 298.998 41.359 299.277 40.6213C299.557 39.8765 299.936 39.2463 300.416 38.7307C300.896 38.2151 301.44 37.8248 302.049 37.5598C302.658 37.2948 303.288 37.1624 303.939 37.1624C304.77 37.1624 305.486 37.3056 306.088 37.592C306.697 37.8785 307.194 38.2795 307.581 38.7952C307.968 39.3036 308.254 39.9052 308.44 40.5999C308.627 41.2874 308.72 42.0393 308.72 42.8557V43.7473H300.04V42.1252H306.732V41.9749C306.704 41.4592 306.596 40.9579 306.41 40.4709C306.231 39.984 305.945 39.5829 305.551 39.2678C305.157 38.9527 304.62 38.7952 303.939 38.7952C303.488 38.7952 303.073 38.8918 302.693 39.0852C302.314 39.2714 301.988 39.5507 301.716 39.9231C301.444 40.2955 301.232 40.7502 301.082 41.2874C300.932 41.8245 300.856 42.4439 300.856 43.1458V43.5969C300.856 44.1484 300.932 44.6676 301.082 45.1545C301.24 45.6344 301.465 46.0569 301.759 46.4221C302.06 46.7874 302.421 47.0738 302.844 47.2815C303.273 47.4892 303.76 47.593 304.305 47.593C305.007 47.593 305.601 47.4498 306.088 47.1633C306.575 46.8769 307.001 46.4937 307.366 46.0139L308.569 46.97C308.319 47.3495 308 47.7112 307.613 48.0549C307.227 48.3987 306.75 48.678 306.185 48.8928C305.626 49.1077 304.964 49.2151 304.197 49.2151ZM318.925 42.4153V44.0266H312.78V42.4153H318.925ZM313.199 37.3772V49.0002H311.212V37.3772H313.199ZM320.536 37.3772V49.0002H318.538V37.3772H320.536ZM325.886 45.8528L331.246 37.3772H333.244V49.0002H331.246V40.5247L325.886 49.0002H323.909V37.3772H325.886V45.8528ZM341.258 49.2151C340.449 49.2151 339.715 49.079 339.056 48.8069C338.404 48.5276 337.842 48.1373 337.369 47.636C336.904 47.1347 336.546 46.5403 336.295 45.8528C336.044 45.1653 335.919 44.4133 335.919 43.5969V43.1458C335.919 42.2004 336.059 41.359 336.338 40.6213C336.617 39.8765 336.997 39.2463 337.477 38.7307C337.956 38.2151 338.501 37.8248 339.109 37.5598C339.718 37.2948 340.348 37.1624 341 37.1624C341.831 37.1624 342.547 37.3056 343.148 37.592C343.757 37.8785 344.255 38.2795 344.642 38.7952C345.028 39.3036 345.315 39.9052 345.501 40.5999C345.687 41.2874 345.78 42.0393 345.78 42.8557V43.7473H337.101V42.1252H343.793V41.9749C343.764 41.4592 343.657 40.9579 343.471 40.4709C343.292 39.984 343.005 39.5829 342.611 39.2678C342.217 38.9527 341.68 38.7952 341 38.7952C340.549 38.7952 340.133 38.8918 339.754 39.0852C339.374 39.2714 339.049 39.5507 338.776 39.9231C338.504 40.2955 338.293 40.7502 338.143 41.2874C337.992 41.8245 337.917 42.4439 337.917 43.1458V43.5969C337.917 44.1484 337.992 44.6676 338.143 45.1545C338.3 45.6344 338.526 46.0569 338.819 46.4221C339.12 46.7874 339.482 47.0738 339.904 47.2815C340.334 47.4892 340.821 47.593 341.365 47.593C342.067 47.593 342.661 47.4498 343.148 47.1633C343.635 46.8769 344.062 46.4937 344.427 46.0139L345.63 46.97C345.379 47.3495 345.061 47.7112 344.674 48.0549C344.287 48.3987 343.811 48.678 343.245 48.8928C342.687 49.1077 342.024 49.2151 341.258 49.2151ZM359.015 43.887H355.201L355.18 42.2971H358.295C358.911 42.2971 359.423 42.2362 359.831 42.1145C360.246 41.9928 360.558 41.8101 360.766 41.5667C360.973 41.3232 361.077 41.0224 361.077 40.6643C361.077 40.385 361.016 40.1415 360.895 39.9338C360.78 39.719 360.604 39.5435 360.368 39.4075C360.132 39.2642 359.838 39.1604 359.487 39.0959C359.144 39.0243 358.739 38.9885 358.273 38.9885H355.728V49.0002H353.74V37.3772H358.273C359.011 37.3772 359.674 37.4417 360.261 37.5706C360.855 37.6995 361.36 37.8964 361.775 38.1614C362.198 38.4192 362.52 38.7486 362.742 39.1497C362.964 39.5507 363.075 40.0234 363.075 40.5676C363.075 40.9185 363.004 41.2515 362.86 41.5667C362.717 41.8818 362.506 42.1611 362.227 42.4045C361.947 42.648 361.604 42.8486 361.195 43.0061C360.787 43.1565 360.318 43.2532 359.788 43.2961L359.015 43.887ZM359.015 49.0002H354.481L355.47 47.3889H359.015C359.566 47.3889 360.024 47.3209 360.39 47.1848C360.755 47.0416 361.027 46.8411 361.206 46.5833C361.392 46.3183 361.485 46.0032 361.485 45.6379C361.485 45.2727 361.392 44.9612 361.206 44.7034C361.027 44.4384 360.755 44.2379 360.39 44.1018C360.024 43.9586 359.566 43.887 359.015 43.887H355.996L356.018 42.2971H359.788L360.508 42.8987C361.145 42.9488 361.686 43.1064 362.13 43.3713C362.574 43.6363 362.91 43.9729 363.14 44.3811C363.369 44.7821 363.483 45.219 363.483 45.6917C363.483 46.2359 363.38 46.7157 363.172 47.1311C362.971 47.5465 362.678 47.8938 362.291 48.1731C361.904 48.4452 361.435 48.6529 360.884 48.7961C360.332 48.9322 359.709 49.0002 359.015 49.0002ZM373.699 37.3772H375.687L375.515 41.7278C375.472 42.8306 375.346 43.7831 375.139 44.5852C374.931 45.3873 374.666 46.0712 374.344 46.637C374.021 47.1956 373.66 47.6646 373.259 48.0442C372.865 48.4237 372.457 48.7424 372.034 49.0002H371.046L371.1 47.3782L371.508 47.3674C371.744 47.0881 371.973 46.8017 372.195 46.5081C372.417 46.2073 372.621 45.8528 372.808 45.4446C372.994 45.0292 373.148 44.5243 373.27 43.9299C373.398 43.3284 373.481 42.5943 373.517 41.7278L373.699 37.3772ZM374.193 37.3772H381.187V49.0002H379.199V39.2141H374.193V37.3772ZM370.595 47.3674H382.68V52.427H380.692V49.0002H372.582V52.427H370.584L370.595 47.3674ZM384.355 43.3176V43.0706C384.355 42.2327 384.477 41.4556 384.721 40.7395C384.964 40.0162 385.315 39.3896 385.773 38.8596C386.232 38.3225 386.787 37.9071 387.438 37.6135C388.09 37.3127 388.821 37.1624 389.63 37.1624C390.446 37.1624 391.18 37.3127 391.832 37.6135C392.491 37.9071 393.049 38.3225 393.508 38.8596C393.973 39.3896 394.328 40.0162 394.571 40.7395C394.815 41.4556 394.937 42.2327 394.937 43.0706V43.3176C394.937 44.1555 394.815 44.9325 394.571 45.6487C394.328 46.3648 393.973 46.9915 393.508 47.5286C393.049 48.0585 392.494 48.4739 391.843 48.7747C391.198 49.0683 390.468 49.2151 389.651 49.2151C388.835 49.2151 388.101 49.0683 387.449 48.7747C386.798 48.4739 386.239 48.0585 385.773 47.5286C385.315 46.9915 384.964 46.3648 384.721 45.6487C384.477 44.9325 384.355 44.1555 384.355 43.3176ZM386.343 43.0706V43.3176C386.343 43.8977 386.411 44.4456 386.547 44.9612C386.683 45.4696 386.887 45.9208 387.159 46.3147C387.438 46.7086 387.786 47.0201 388.201 47.2493C388.617 47.4713 389.1 47.5823 389.651 47.5823C390.196 47.5823 390.672 47.4713 391.08 47.2493C391.495 47.0201 391.839 46.7086 392.111 46.3147C392.383 45.9208 392.588 45.4696 392.724 44.9612C392.867 44.4456 392.938 43.8977 392.938 43.3176V43.0706C392.938 42.4976 392.867 41.9569 392.724 41.4485C392.588 40.9329 392.38 40.4781 392.101 40.0842C391.828 39.6832 391.485 39.3681 391.069 39.1389C390.661 38.9097 390.181 38.7952 389.63 38.7952C389.086 38.7952 388.606 38.9097 388.19 39.1389C387.782 39.3681 387.438 39.6832 387.159 40.0842C386.887 40.4781 386.683 40.9329 386.547 41.4485C386.411 41.9569 386.343 42.4976 386.343 43.0706ZM405.023 37.3772V39.0208H399.405V37.3772H405.023ZM406.774 37.3772V49.0002H404.787V37.3772H406.774ZM398.922 37.3772H400.92L400.619 42.9846C400.569 43.8512 400.487 44.6174 400.372 45.2834C400.265 45.9423 400.114 46.5081 399.921 46.9807C399.735 47.4534 399.498 47.8401 399.212 48.1409C398.933 48.4345 398.596 48.6529 398.202 48.7961C397.808 48.9322 397.354 49.0002 396.838 49.0002H396.215V47.2493L396.645 47.217C396.952 47.1956 397.214 47.1239 397.429 47.0022C397.651 46.8805 397.837 46.7014 397.987 46.4651C398.138 46.2216 398.259 45.9101 398.353 45.5305C398.453 45.151 398.528 44.6998 398.578 44.177C398.635 43.6542 398.678 43.0455 398.707 42.3508L398.922 37.3772ZM416.593 42.3079V43.9299H410.416V42.3079H416.593ZM412.146 37.3772V49.0002H410.158V37.3772H412.146ZM414.896 43.3176V43.0706C414.896 42.2327 415.017 41.4556 415.261 40.7395C415.504 40.0162 415.855 39.3896 416.313 38.8596C416.779 38.3225 417.334 37.9071 417.979 37.6135C418.63 37.3127 419.361 37.1624 420.17 37.1624C420.993 37.1624 421.731 37.3127 422.383 37.6135C423.035 37.9071 423.59 38.3225 424.048 38.8596C424.513 39.3896 424.868 40.0162 425.111 40.7395C425.355 41.4556 425.477 42.2327 425.477 43.0706V43.3176C425.477 44.1555 425.355 44.9325 425.111 45.6487C424.868 46.3648 424.517 46.9915 424.059 47.5286C423.6 48.0585 423.045 48.4739 422.394 48.7747C421.742 49.0683 421.008 49.2151 420.191 49.2151C419.375 49.2151 418.641 49.0683 417.989 48.7747C417.338 48.4739 416.779 48.0585 416.313 47.5286C415.855 46.9915 415.504 46.3648 415.261 45.6487C415.017 44.9325 414.896 44.1555 414.896 43.3176ZM416.894 43.0706V43.3176C416.894 43.8977 416.962 44.4456 417.098 44.9612C417.234 45.4696 417.438 45.9208 417.71 46.3147C417.989 46.7086 418.333 47.0201 418.741 47.2493C419.157 47.4713 419.64 47.5823 420.191 47.5823C420.743 47.5823 421.223 47.4713 421.631 47.2493C422.046 47.0201 422.39 46.7086 422.662 46.3147C422.934 45.9208 423.138 45.4696 423.274 44.9612C423.418 44.4456 423.489 43.8977 423.489 43.3176V43.0706C423.489 42.4976 423.418 41.9569 423.274 41.4485C423.138 40.9329 422.931 40.4781 422.651 40.0842C422.379 39.6832 422.035 39.3681 421.62 39.1389C421.205 38.9097 420.721 38.7952 420.17 38.7952C419.626 38.7952 419.149 38.9097 418.741 39.1389C418.333 39.3681 417.989 39.6832 417.71 40.0842C417.438 40.4781 417.234 40.9329 417.098 41.4485C416.962 41.9569 416.894 42.4976 416.894 43.0706ZM440.849 32.3176H442.481C442.481 33.0194 442.374 33.578 442.159 33.9934C441.944 34.4016 441.651 34.7167 441.278 34.9387C440.913 35.1607 440.498 35.329 440.032 35.4436C439.574 35.5582 439.098 35.6692 438.604 35.7766C437.988 35.9055 437.415 36.1096 436.885 36.3889C436.362 36.6611 435.911 37.0478 435.531 37.5491C435.159 38.0504 434.883 38.7021 434.704 39.5042C434.532 40.3062 434.486 41.2981 434.564 42.4797V43.468H432.932V42.4797C432.932 41.1549 433.057 39.9983 433.308 39.01C433.565 38.0217 433.927 37.1874 434.393 36.5071C434.858 35.8267 435.41 35.2861 436.047 34.885C436.691 34.484 437.4 34.2083 438.174 34.0579C438.732 33.9504 439.212 33.8359 439.613 33.7141C440.014 33.5852 440.319 33.4133 440.526 33.1985C440.741 32.9836 440.849 32.69 440.849 32.3176ZM438.496 38.0432C439.255 38.0432 439.932 38.1757 440.526 38.4407C441.121 38.7056 441.626 39.0745 442.041 39.5471C442.456 40.0198 442.771 40.5784 442.986 41.2229C443.208 41.8603 443.319 42.5549 443.319 43.3069V43.5432C443.319 44.3525 443.201 45.1044 442.965 45.7991C442.736 46.4866 442.396 47.0881 441.944 47.6038C441.5 48.1122 440.956 48.5097 440.312 48.7961C439.674 49.0826 438.947 49.2258 438.131 49.2258C437.314 49.2258 436.584 49.0826 435.939 48.7961C435.302 48.5097 434.758 48.1122 434.307 47.6038C433.855 47.0881 433.512 46.4866 433.275 45.7991C433.046 45.1044 432.932 44.3525 432.932 43.5432V43.3069C432.932 43.1278 432.964 42.9524 433.028 42.7805C433.093 42.6086 433.172 42.4332 433.265 42.2542C433.365 42.0751 433.454 41.8853 433.533 41.6848C433.798 41.0403 434.16 40.4423 434.618 39.8909C435.084 39.3394 435.639 38.8954 436.283 38.5588C436.935 38.2151 437.673 38.0432 438.496 38.0432ZM438.109 39.6653C437.379 39.6653 436.777 39.8336 436.305 40.1702C435.839 40.5068 435.492 40.9543 435.263 41.5129C435.034 42.0644 434.919 42.6624 434.919 43.3069V43.5432C434.919 44.0875 434.983 44.6031 435.112 45.0901C435.241 45.5771 435.435 46.0103 435.692 46.3899C435.957 46.7623 436.29 47.0559 436.691 47.2708C437.1 47.4856 437.579 47.593 438.131 47.593C438.682 47.593 439.159 47.4856 439.56 47.2708C439.961 47.0559 440.29 46.7623 440.548 46.3899C440.806 46.0103 440.999 45.5771 441.128 45.0901C441.257 44.6031 441.321 44.0875 441.321 43.5432V43.3069C441.321 42.8199 441.257 42.358 441.128 41.9211C440.999 41.4843 440.802 41.0976 440.537 40.761C440.279 40.4244 439.946 40.1594 439.538 39.9661C439.137 39.7655 438.661 39.6653 438.109 39.6653ZM447.369 39.6116V53.469H445.371V37.3772H447.197L447.369 39.6116ZM455.2 43.092V43.3176C455.2 44.1627 455.1 44.9469 454.899 45.6702C454.699 46.3863 454.405 47.0094 454.019 47.5393C453.639 48.0693 453.17 48.481 452.611 48.7747C452.053 49.0683 451.412 49.2151 450.688 49.2151C449.951 49.2151 449.299 49.0933 448.733 48.8499C448.168 48.6064 447.688 48.2519 447.294 47.7864C446.9 47.3209 446.585 46.7623 446.349 46.1106C446.119 45.4589 445.962 44.7249 445.876 43.9084V42.7053C445.962 41.8459 446.123 41.0761 446.359 40.3958C446.596 39.7154 446.907 39.1353 447.294 38.6555C447.688 38.1685 448.164 37.7997 448.723 37.5491C449.281 37.2913 449.926 37.1624 450.656 37.1624C451.387 37.1624 452.035 37.3056 452.601 37.592C453.166 37.8713 453.643 38.2724 454.029 38.7952C454.416 39.318 454.706 39.9446 454.899 40.675C455.1 41.3984 455.2 42.204 455.2 43.092ZM453.202 43.3176V43.092C453.202 42.512 453.141 41.9677 453.02 41.4592C452.898 40.9436 452.708 40.4924 452.45 40.1057C452.2 39.7118 451.877 39.4039 451.483 39.1819C451.09 38.9527 450.62 38.8381 450.076 38.8381C449.575 38.8381 449.138 38.9241 448.766 39.0959C448.4 39.2678 448.089 39.5006 447.831 39.7942C447.573 40.0806 447.362 40.4101 447.197 40.7825C447.04 41.1477 446.922 41.5273 446.843 41.9211V44.7034C446.986 45.2047 447.187 45.6773 447.444 46.1213C447.702 46.5582 448.046 46.9127 448.476 47.1848C448.905 47.4498 449.446 47.5823 450.098 47.5823C450.635 47.5823 451.097 47.4713 451.483 47.2493C451.877 47.0201 452.2 46.7086 452.45 46.3147C452.708 45.9208 452.898 45.4696 453.02 44.9612C453.141 44.4456 453.202 43.8977 453.202 43.3176ZM462.559 49.2151C461.749 49.2151 461.015 49.079 460.356 48.8069C459.705 48.5276 459.143 48.1373 458.67 47.636C458.204 47.1347 457.846 46.5403 457.596 45.8528C457.345 45.1653 457.22 44.4133 457.22 43.5969V43.1458C457.22 42.2004 457.359 41.359 457.639 40.6213C457.918 39.8765 458.298 39.2463 458.777 38.7307C459.257 38.2151 459.801 37.8248 460.41 37.5598C461.019 37.2948 461.649 37.1624 462.301 37.1624C463.132 37.1624 463.848 37.3056 464.449 37.592C465.058 37.8785 465.556 38.2795 465.942 38.7952C466.329 39.3036 466.616 39.9052 466.802 40.5999C466.988 41.2874 467.081 42.0393 467.081 42.8557V43.7473H458.401V42.1252H465.094V41.9749C465.065 41.4592 464.958 40.9579 464.771 40.4709C464.592 39.984 464.306 39.5829 463.912 39.2678C463.518 38.9527 462.981 38.7952 462.301 38.7952C461.85 38.7952 461.434 38.8918 461.055 39.0852C460.675 39.2714 460.349 39.5507 460.077 39.9231C459.805 40.2955 459.594 40.7502 459.443 41.2874C459.293 41.8245 459.218 42.4439 459.218 43.1458V43.5969C459.218 44.1484 459.293 44.6676 459.443 45.1545C459.601 45.6344 459.826 46.0569 460.12 46.4221C460.421 46.7874 460.783 47.0738 461.205 47.2815C461.635 47.4892 462.122 47.593 462.666 47.593C463.368 47.593 463.962 47.4498 464.449 47.1633C464.936 46.8769 465.362 46.4937 465.728 46.0139L466.931 46.97C466.68 47.3495 466.361 47.7112 465.975 48.0549C465.588 48.3987 465.112 48.678 464.546 48.8928C463.987 49.1077 463.325 49.2151 462.559 49.2151ZM477.286 42.4153V44.0266H471.142V42.4153H477.286ZM471.561 37.3772V49.0002H469.573V37.3772H471.561ZM478.897 37.3772V49.0002H476.899V37.3772H478.897ZM484.193 37.3772H486.181L486.009 41.7278C485.966 42.8306 485.84 43.7831 485.633 44.5852C485.425 45.3873 485.16 46.0712 484.838 46.637C484.516 47.1956 484.154 47.6646 483.753 48.0442C483.359 48.4237 482.951 48.7424 482.528 49.0002H481.54L481.594 47.3782L482.002 47.3674C482.238 47.0881 482.467 46.8017 482.689 46.5081C482.911 46.2073 483.116 45.8528 483.302 45.4446C483.488 45.0292 483.642 44.5243 483.764 43.9299C483.893 43.3284 483.975 42.5943 484.011 41.7278L484.193 37.3772ZM484.688 37.3772H491.681V49.0002H489.693V39.2141H484.688V37.3772ZM481.089 47.3674H493.174V52.427H491.187V49.0002H483.076V52.427H481.078L481.089 47.3674ZM502.229 47.0129V41.0295C502.229 40.5712 502.136 40.1737 501.95 39.8372C501.771 39.4934 501.499 39.2284 501.134 39.0422C500.769 38.856 500.317 38.7629 499.78 38.7629C499.279 38.7629 498.839 38.8489 498.459 39.0208C498.087 39.1926 497.793 39.4182 497.578 39.6975C497.37 39.9768 497.267 40.2776 497.267 40.5999H495.279C495.279 40.1845 495.387 39.7727 495.602 39.3645C495.816 38.9563 496.124 38.5875 496.525 38.2581C496.934 37.9215 497.421 37.6565 497.986 37.4631C498.559 37.2626 499.197 37.1624 499.898 37.1624C500.743 37.1624 501.488 37.3056 502.133 37.592C502.785 37.8785 503.293 38.3118 503.658 38.8918C504.031 39.4648 504.217 40.1845 504.217 41.051V46.4651C504.217 46.8518 504.249 47.2636 504.313 47.7004C504.385 48.1373 504.489 48.5133 504.625 48.8284V49.0002H502.552C502.451 48.7711 502.373 48.4667 502.315 48.0872C502.258 47.7004 502.229 47.3424 502.229 47.0129ZM502.573 41.9534L502.595 43.3499H500.586C500.02 43.3499 499.515 43.3964 499.071 43.4895C498.627 43.5754 498.255 43.7079 497.954 43.887C497.653 44.066 497.424 44.2916 497.267 44.5637C497.109 44.8287 497.03 45.1402 497.03 45.4983C497.03 45.8635 497.113 46.1965 497.277 46.4973C497.442 46.7981 497.689 47.038 498.019 47.217C498.355 47.3889 498.767 47.4749 499.254 47.4749C499.863 47.4749 500.4 47.3459 500.865 47.0881C501.331 46.8303 501.7 46.5152 501.972 46.1428C502.251 45.7704 502.401 45.4088 502.423 45.0579L503.271 46.0139C503.221 46.3147 503.085 46.6477 502.863 47.0129C502.641 47.3782 502.344 47.7291 501.972 48.0657C501.606 48.3951 501.17 48.6708 500.661 48.8928C500.16 49.1077 499.594 49.2151 498.964 49.2151C498.176 49.2151 497.485 49.0611 496.891 48.7532C496.303 48.4452 495.845 48.0334 495.516 47.5178C495.193 46.995 495.032 46.4114 495.032 45.7668C495.032 45.1438 495.154 44.5959 495.397 44.1233C495.641 43.6435 495.992 43.246 496.45 42.9309C496.909 42.6086 497.46 42.3652 498.104 42.2004C498.749 42.0357 499.469 41.9534 500.264 41.9534H502.573ZM237.166 73.5823C237.639 73.5823 238.076 73.4856 238.477 73.2922C238.878 73.0989 239.207 72.8339 239.465 72.4973C239.723 72.1536 239.869 71.7633 239.905 71.3264H241.796C241.76 72.0139 241.527 72.6549 241.098 73.2493C240.675 73.8365 240.12 74.3127 239.433 74.678C238.745 75.0361 237.99 75.2151 237.166 75.2151C236.292 75.2151 235.53 75.0611 234.878 74.7532C234.233 74.4452 233.696 74.0227 233.267 73.4856C232.844 72.9485 232.525 72.3326 232.311 71.6379C232.103 70.9361 231.999 70.1949 231.999 69.4143V68.9631C231.999 68.1825 232.103 67.4449 232.311 66.7502C232.525 66.0484 232.844 65.429 233.267 64.8918C233.696 64.3547 234.233 63.9322 234.878 63.6243C235.53 63.3163 236.292 63.1624 237.166 63.1624C238.076 63.1624 238.87 63.3486 239.551 63.7209C240.231 64.0862 240.765 64.5875 241.151 65.2249C241.545 65.8551 241.76 66.5712 241.796 67.3733H239.905C239.869 66.8935 239.733 66.4602 239.497 66.0735C239.268 65.6868 238.953 65.3788 238.552 65.1497C238.158 64.9133 237.696 64.7952 237.166 64.7952C236.557 64.7952 236.045 64.9169 235.63 65.1604C235.222 65.3967 234.896 65.719 234.652 66.1272C234.416 66.5282 234.244 66.9758 234.137 67.47C234.036 67.9569 233.986 68.4547 233.986 68.9631V69.4143C233.986 69.9228 234.036 70.4241 234.137 70.9182C234.237 71.4124 234.405 71.8599 234.642 72.261C234.885 72.662 235.211 72.9843 235.619 73.2278C236.035 73.4641 236.55 73.5823 237.166 73.5823ZM248.768 63.3772V75.0002H246.77V63.3772H248.768ZM252.667 63.3772V64.9885H242.945V63.3772H252.667ZM256.609 65.6116V79.469H254.611V63.3772H256.438L256.609 65.6116ZM264.44 69.092V69.3176C264.44 70.1627 264.34 70.9469 264.14 71.6702C263.939 72.3863 263.646 73.0094 263.259 73.5393C262.879 74.0693 262.41 74.481 261.852 74.7747C261.293 75.0683 260.652 75.2151 259.929 75.2151C259.191 75.2151 258.539 75.0933 257.974 74.8499C257.408 74.6064 256.928 74.2519 256.534 73.7864C256.14 73.3209 255.825 72.7623 255.589 72.1106C255.36 71.4589 255.202 70.7249 255.116 69.9084V68.7053C255.202 67.8459 255.363 67.0761 255.6 66.3958C255.836 65.7154 256.147 65.1353 256.534 64.6555C256.928 64.1685 257.404 63.7997 257.963 63.5491C258.521 63.2913 259.166 63.1624 259.896 63.1624C260.627 63.1624 261.275 63.3056 261.841 63.592C262.407 63.8713 262.883 64.2724 263.27 64.7952C263.656 65.318 263.946 65.9446 264.14 66.675C264.34 67.3984 264.44 68.204 264.44 69.092ZM262.442 69.3176V69.092C262.442 68.512 262.382 67.9677 262.26 67.4592C262.138 66.9436 261.948 66.4924 261.69 66.1057C261.44 65.7118 261.118 65.4039 260.724 65.1819C260.33 64.9527 259.861 64.8381 259.316 64.8381C258.815 64.8381 258.378 64.9241 258.006 65.0959C257.641 65.2678 257.329 65.5006 257.071 65.7942C256.813 66.0806 256.602 66.4101 256.438 66.7825C256.28 67.1477 256.162 67.5273 256.083 67.9211V70.7034C256.226 71.2047 256.427 71.6773 256.685 72.1213C256.942 72.5582 257.286 72.9127 257.716 73.1848C258.146 73.4498 258.686 73.5823 259.338 73.5823C259.875 73.5823 260.337 73.4713 260.724 73.2493C261.118 73.0201 261.44 72.7086 261.69 72.3147C261.948 71.9208 262.138 71.4696 262.26 70.9612C262.382 70.4456 262.442 69.8977 262.442 69.3176ZM273.829 73.0129V67.0295C273.829 66.5712 273.736 66.1737 273.55 65.8372C273.371 65.4934 273.099 65.2284 272.733 65.0422C272.368 64.856 271.917 64.7629 271.38 64.7629C270.879 64.7629 270.438 64.8489 270.059 65.0208C269.686 65.1926 269.393 65.4182 269.178 65.6975C268.97 65.9768 268.866 66.2776 268.866 66.5999H266.879C266.879 66.1845 266.986 65.7727 267.201 65.3645C267.416 64.9563 267.724 64.5875 268.125 64.2581C268.533 63.9215 269.02 63.6565 269.586 63.4631C270.159 63.2626 270.796 63.1624 271.498 63.1624C272.343 63.1624 273.088 63.3056 273.732 63.592C274.384 63.8785 274.893 64.3118 275.258 64.8918C275.63 65.4648 275.816 66.1845 275.816 67.051V72.4651C275.816 72.8518 275.849 73.2636 275.913 73.7004C275.985 74.1373 276.089 74.5133 276.225 74.8284V75.0002H274.151C274.051 74.7711 273.972 74.4667 273.915 74.0872C273.858 73.7004 273.829 73.3424 273.829 73.0129ZM274.173 67.9534L274.194 69.3499H272.186C271.62 69.3499 271.115 69.3964 270.671 69.4895C270.227 69.5754 269.854 69.7079 269.554 69.887C269.253 70.066 269.024 70.2916 268.866 70.5637C268.709 70.8287 268.63 71.1402 268.63 71.4983C268.63 71.8635 268.712 72.1965 268.877 72.4973C269.042 72.7981 269.289 73.038 269.618 73.217C269.955 73.3889 270.367 73.4749 270.854 73.4749C271.462 73.4749 271.999 73.3459 272.465 73.0881C272.93 72.8303 273.299 72.5152 273.571 72.1428C273.851 71.7704 274.001 71.4088 274.022 71.0579L274.871 72.0139C274.821 72.3147 274.685 72.6477 274.463 73.0129C274.241 73.3782 273.944 73.7291 273.571 74.0657C273.206 74.3951 272.769 74.6708 272.261 74.8928C271.759 75.1077 271.194 75.2151 270.563 75.2151C269.776 75.2151 269.085 75.0611 268.49 74.7532C267.903 74.4452 267.445 74.0334 267.115 73.5178C266.793 72.995 266.632 72.4114 266.632 71.7668C266.632 71.1438 266.754 70.5959 266.997 70.1233C267.241 69.6435 267.591 69.246 268.05 68.9309C268.508 68.6086 269.06 68.3652 269.704 68.2004C270.349 68.0357 271.068 67.9534 271.863 67.9534H274.173ZM283.508 63.3772V75.0002H281.51V63.3772H283.508ZM287.407 63.3772V64.9885H277.686V63.3772H287.407ZM293.326 75.2151C292.517 75.2151 291.783 75.079 291.124 74.8069C290.472 74.5276 289.91 74.1373 289.438 73.636C288.972 73.1347 288.614 72.5403 288.363 71.8528C288.113 71.1653 287.987 70.4133 287.987 69.5969V69.1458C287.987 68.2004 288.127 67.359 288.406 66.6213C288.686 65.8765 289.065 65.2463 289.545 64.7307C290.025 64.2151 290.569 63.8248 291.178 63.5598C291.786 63.2948 292.417 63.1624 293.068 63.1624C293.899 63.1624 294.615 63.3056 295.217 63.592C295.826 63.8785 296.323 64.2795 296.71 64.7952C297.097 65.3036 297.383 65.9052 297.569 66.5999C297.756 67.2874 297.849 68.0393 297.849 68.8557V69.7473H289.169V68.1252H295.861V67.9749C295.833 67.4592 295.725 66.9579 295.539 66.4709C295.36 65.984 295.074 65.5829 294.68 65.2678C294.286 64.9527 293.749 64.7952 293.068 64.7952C292.617 64.7952 292.202 64.8918 291.822 65.0852C291.443 65.2714 291.117 65.5507 290.845 65.9231C290.573 66.2955 290.361 66.7502 290.211 67.2874C290.061 67.8245 289.985 68.4439 289.985 69.1458V69.5969C289.985 70.1484 290.061 70.6676 290.211 71.1545C290.368 71.6344 290.594 72.0569 290.888 72.4221C291.188 72.7874 291.55 73.0738 291.973 73.2815C292.402 73.4892 292.889 73.593 293.434 73.593C294.135 73.593 294.73 73.4498 295.217 73.1633C295.704 72.8769 296.13 72.4937 296.495 72.0139L297.698 72.97C297.448 73.3495 297.129 73.7112 296.742 74.0549C296.355 74.3987 295.879 74.678 295.313 74.8928C294.755 75.1077 294.092 75.2151 293.326 75.2151ZM307.678 63.3772V65.0208H302.307V75.0002H300.319V63.3772H307.678ZM311.556 71.8528L316.916 63.3772H318.914V75.0002H316.916V66.5247L311.556 75.0002H309.579V63.3772H311.556V71.8528ZM330.87 63.3772V75.0002H328.883V63.3772H330.87ZM330.193 68.7161V70.3489C329.792 70.4993 329.384 70.6353 328.969 70.7571C328.561 70.8717 328.127 70.9648 327.669 71.0364C327.218 71.1008 326.727 71.1331 326.197 71.1331C325.281 71.1331 324.486 70.9755 323.812 70.6604C323.139 70.3381 322.62 69.8547 322.255 69.2102C321.89 68.5585 321.707 67.7385 321.707 66.7502V63.3557H323.694V66.7502C323.694 67.3948 323.791 67.9176 323.984 68.3186C324.178 68.7196 324.461 69.0168 324.833 69.2102C325.205 69.3964 325.66 69.4895 326.197 69.4895C326.713 69.4895 327.196 69.4573 327.647 69.3928C328.106 69.3212 328.543 69.2281 328.958 69.1135C329.381 68.9989 329.792 68.8665 330.193 68.7161ZM338.895 75.2151C338.085 75.2151 337.351 75.079 336.692 74.8069C336.041 74.5276 335.479 74.1373 335.006 73.636C334.54 73.1347 334.182 72.5403 333.932 71.8528C333.681 71.1653 333.556 70.4133 333.556 69.5969V69.1458C333.556 68.2004 333.695 67.359 333.975 66.6213C334.254 65.8765 334.633 65.2463 335.113 64.7307C335.593 64.2151 336.137 63.8248 336.746 63.5598C337.355 63.2948 337.985 63.1624 338.637 63.1624C339.467 63.1624 340.184 63.3056 340.785 63.592C341.394 63.8785 341.892 64.2795 342.278 64.7952C342.665 65.3036 342.951 65.9052 343.138 66.5999C343.324 67.2874 343.417 68.0393 343.417 68.8557V69.7473H334.737V68.1252H341.43V67.9749C341.401 67.4592 341.294 66.9579 341.107 66.4709C340.928 65.984 340.642 65.5829 340.248 65.2678C339.854 64.9527 339.317 64.7952 338.637 64.7952C338.186 64.7952 337.77 64.8918 337.391 65.0852C337.011 65.2714 336.685 65.5507 336.413 65.9231C336.141 66.2955 335.93 66.7502 335.779 67.2874C335.629 67.8245 335.554 68.4439 335.554 69.1458V69.5969C335.554 70.1484 335.629 70.6676 335.779 71.1545C335.937 71.6344 336.162 72.0569 336.456 72.4221C336.757 72.7874 337.118 73.0738 337.541 73.2815C337.971 73.4892 338.458 73.593 339.002 73.593C339.704 73.593 340.298 73.4498 340.785 73.1633C341.272 72.8769 341.698 72.4937 342.063 72.0139L343.267 72.97C343.016 73.3495 342.697 73.7112 342.311 74.0549C341.924 74.3987 341.448 74.678 340.882 74.8928C340.323 75.1077 339.661 75.2151 338.895 75.2151ZM350.389 73.5823C350.861 73.5823 351.298 73.4856 351.699 73.2922C352.1 73.0989 352.43 72.8339 352.688 72.4973C352.945 72.1536 353.092 71.7633 353.128 71.3264H355.019C354.983 72.0139 354.75 72.6549 354.32 73.2493C353.898 73.8365 353.343 74.3127 352.655 74.678C351.968 75.0361 351.212 75.2151 350.389 75.2151C349.515 75.2151 348.752 75.0611 348.101 74.7532C347.456 74.4452 346.919 74.0227 346.489 73.4856C346.067 72.9485 345.748 72.3326 345.533 71.6379C345.326 70.9361 345.222 70.1949 345.222 69.4143V68.9631C345.222 68.1825 345.326 67.4449 345.533 66.7502C345.748 66.0484 346.067 65.429 346.489 64.8918C346.919 64.3547 347.456 63.9322 348.101 63.6243C348.752 63.3163 349.515 63.1624 350.389 63.1624C351.298 63.1624 352.093 63.3486 352.773 63.7209C353.454 64.0862 353.987 64.5875 354.374 65.2249C354.768 65.8551 354.983 66.5712 355.019 67.3733H353.128C353.092 66.8935 352.956 66.4602 352.72 66.0735C352.491 65.6868 352.175 65.3788 351.774 65.1497C351.381 64.9133 350.919 64.7952 350.389 64.7952C349.78 64.7952 349.268 64.9169 348.853 65.1604C348.444 65.3967 348.118 65.719 347.875 66.1272C347.639 66.5282 347.467 66.9758 347.359 67.47C347.259 67.9569 347.209 68.4547 347.209 68.9631V69.4143C347.209 69.9228 347.259 70.4241 347.359 70.9182C347.46 71.4124 347.628 71.8599 347.864 72.261C348.108 72.662 348.434 72.9843 348.842 73.2278C349.257 73.4641 349.773 73.5823 350.389 73.5823ZM359.412 63.3772V75.0002H357.425V63.3772H359.412ZM367.039 63.3772L361.528 70.0374H358.746L358.445 68.2971H360.723L364.622 63.3772H367.039ZM364.901 75.0002L360.626 69.7366L361.904 68.2971L367.426 75.0002H364.901ZM368.393 69.3176V69.0706C368.393 68.2327 368.514 67.4556 368.758 66.7395C369.001 66.0162 369.352 65.3896 369.811 64.8596C370.269 64.3225 370.824 63.9071 371.476 63.6135C372.127 63.3127 372.858 63.1624 373.667 63.1624C374.483 63.1624 375.217 63.3127 375.869 63.6135C376.528 63.9071 377.087 64.3225 377.545 64.8596C378.01 65.3896 378.365 66.0162 378.608 66.7395C378.852 67.4556 378.974 68.2327 378.974 69.0706V69.3176C378.974 70.1555 378.852 70.9325 378.608 71.6487C378.365 72.3648 378.01 72.9915 377.545 73.5286C377.087 74.0585 376.532 74.4739 375.88 74.7747C375.235 75.0683 374.505 75.2151 373.688 75.2151C372.872 75.2151 372.138 75.0683 371.486 74.7747C370.835 74.4739 370.276 74.0585 369.811 73.5286C369.352 72.9915 369.001 72.3648 368.758 71.6487C368.514 70.9325 368.393 70.1555 368.393 69.3176ZM370.38 69.0706V69.3176C370.38 69.8977 370.448 70.4456 370.584 70.9612C370.72 71.4696 370.924 71.9208 371.196 72.3147C371.476 72.7086 371.823 73.0201 372.238 73.2493C372.654 73.4713 373.137 73.5823 373.688 73.5823C374.233 73.5823 374.709 73.4713 375.117 73.2493C375.533 73.0201 375.876 72.7086 376.148 72.3147C376.421 71.9208 376.625 71.4696 376.761 70.9612C376.904 70.4456 376.976 69.8977 376.976 69.3176V69.0706C376.976 68.4976 376.904 67.9569 376.761 67.4485C376.625 66.9329 376.417 66.4781 376.138 66.0842C375.866 65.6832 375.522 65.3681 375.106 65.1389C374.698 64.9097 374.218 64.7952 373.667 64.7952C373.123 64.7952 372.643 64.9097 372.228 65.1389C371.819 65.3681 371.476 65.6832 371.196 66.0842C370.924 66.4781 370.72 66.9329 370.584 67.4485C370.448 67.9569 370.38 68.4976 370.38 69.0706ZM388.975 63.3772V65.0208H383.604V75.0002H381.616V63.3772H388.975ZM389.963 69.3176V69.0706C389.963 68.2327 390.085 67.4556 390.328 66.7395C390.572 66.0162 390.923 65.3896 391.381 64.8596C391.839 64.3225 392.394 63.9071 393.046 63.6135C393.698 63.3127 394.428 63.1624 395.237 63.1624C396.054 63.1624 396.788 63.3127 397.439 63.6135C398.098 63.9071 398.657 64.3225 399.115 64.8596C399.581 65.3896 399.935 66.0162 400.179 66.7395C400.422 67.4556 400.544 68.2327 400.544 69.0706V69.3176C400.544 70.1555 400.422 70.9325 400.179 71.6487C399.935 72.3648 399.581 72.9915 399.115 73.5286C398.657 74.0585 398.102 74.4739 397.45 74.7747C396.806 75.0683 396.075 75.2151 395.259 75.2151C394.442 75.2151 393.708 75.0683 393.057 74.7747C392.405 74.4739 391.846 74.0585 391.381 73.5286C390.923 72.9915 390.572 72.3648 390.328 71.6487C390.085 70.9325 389.963 70.1555 389.963 69.3176ZM391.95 69.0706V69.3176C391.95 69.8977 392.018 70.4456 392.154 70.9612C392.29 71.4696 392.494 71.9208 392.767 72.3147C393.046 72.7086 393.393 73.0201 393.809 73.2493C394.224 73.4713 394.707 73.5823 395.259 73.5823C395.803 73.5823 396.279 73.4713 396.688 73.2493C397.103 73.0201 397.447 72.7086 397.719 72.3147C397.991 71.9208 398.195 71.4696 398.331 70.9612C398.474 70.4456 398.546 69.8977 398.546 69.3176V69.0706C398.546 68.4976 398.474 67.9569 398.331 67.4485C398.195 66.9329 397.987 66.4781 397.708 66.0842C397.436 65.6832 397.092 65.3681 396.677 65.1389C396.269 64.9097 395.789 64.7952 395.237 64.7952C394.693 64.7952 394.213 64.9097 393.798 65.1389C393.39 65.3681 393.046 65.6832 392.767 66.0842C392.494 66.4781 392.29 66.9329 392.154 67.4485C392.018 67.9569 391.95 68.4976 391.95 69.0706ZM410.642 71.8528L416.002 63.3772H418V75.0002H416.002V66.5247L410.642 75.0002H408.665V63.3772H410.642V71.8528ZM429.075 68.4153V70.0266H422.931V68.4153H429.075ZM423.35 63.3772V75.0002H421.362V63.3772H423.35ZM430.687 63.3772V75.0002H428.688V63.3772H430.687ZM439.345 69.887H435.531L435.51 68.2971H438.625C439.241 68.2971 439.753 68.2362 440.161 68.1145C440.576 67.9928 440.888 67.8101 441.096 67.5667C441.303 67.3232 441.407 67.0224 441.407 66.6643C441.407 66.385 441.346 66.1415 441.225 65.9338C441.11 65.719 440.935 65.5435 440.698 65.4075C440.462 65.2642 440.168 65.1604 439.817 65.0959C439.474 65.0243 439.069 64.9885 438.604 64.9885H436.058V75.0002H434.07V63.3772H438.604C439.341 63.3772 440.004 63.4417 440.591 63.5706C441.185 63.6995 441.69 63.8964 442.105 64.1614C442.528 64.4192 442.85 64.7486 443.072 65.1497C443.294 65.5507 443.405 66.0234 443.405 66.5676C443.405 66.9185 443.334 67.2515 443.19 67.5667C443.047 67.8818 442.836 68.1611 442.557 68.4045C442.277 68.648 441.934 68.8486 441.525 69.0061C441.117 69.1565 440.648 69.2532 440.118 69.2961L439.345 69.887ZM439.345 75.0002H434.812L435.8 73.3889H439.345C439.896 73.3889 440.354 73.3209 440.72 73.1848C441.085 73.0416 441.357 72.8411 441.536 72.5833C441.722 72.3183 441.815 72.0032 441.815 71.6379C441.815 71.2727 441.722 70.9612 441.536 70.7034C441.357 70.4384 441.085 70.2379 440.72 70.1018C440.354 69.9586 439.896 69.887 439.345 69.887H436.326L436.348 68.2971H440.118L440.838 68.8987C441.475 68.9488 442.016 69.1064 442.46 69.3713C442.904 69.6363 443.241 69.9729 443.47 70.3811C443.699 70.7821 443.813 71.219 443.813 71.6917C443.813 72.2359 443.71 72.7157 443.502 73.1311C443.301 73.5465 443.008 73.8938 442.621 74.1731C442.234 74.4452 441.765 74.6529 441.214 74.7961C440.662 74.9322 440.039 75.0002 439.345 75.0002ZM451.301 75.2151C450.492 75.2151 449.757 75.079 449.099 74.8069C448.447 74.5276 447.885 74.1373 447.412 73.636C446.947 73.1347 446.589 72.5403 446.338 71.8528C446.087 71.1653 445.962 70.4133 445.962 69.5969V69.1458C445.962 68.2004 446.102 67.359 446.381 66.6213C446.66 65.8765 447.04 65.2463 447.52 64.7307C447.999 64.2151 448.544 63.8248 449.152 63.5598C449.761 63.2948 450.391 63.1624 451.043 63.1624C451.874 63.1624 452.59 63.3056 453.191 63.592C453.8 63.8785 454.298 64.2795 454.685 64.7952C455.071 65.3036 455.358 65.9052 455.544 66.5999C455.73 67.2874 455.823 68.0393 455.823 68.8557V69.7473H447.144V68.1252H453.836V67.9749C453.807 67.4592 453.7 66.9579 453.514 66.4709C453.335 65.984 453.048 65.5829 452.654 65.2678C452.26 64.9527 451.723 64.7952 451.043 64.7952C450.592 64.7952 450.176 64.8918 449.797 65.0852C449.417 65.2714 449.091 65.5507 448.819 65.9231C448.547 66.2955 448.336 66.7502 448.186 67.2874C448.035 67.8245 447.96 68.4439 447.96 69.1458V69.5969C447.96 70.1484 448.035 70.6676 448.186 71.1545C448.343 71.6344 448.569 72.0569 448.862 72.4221C449.163 72.7874 449.525 73.0738 449.947 73.2815C450.377 73.4892 450.864 73.593 451.408 73.593C452.11 73.593 452.704 73.4498 453.191 73.1633C453.678 72.8769 454.104 72.4937 454.47 72.0139L455.673 72.97C455.422 73.3495 455.104 73.7112 454.717 74.0549C454.33 74.3987 453.854 74.678 453.288 74.8928C452.729 75.1077 452.067 75.2151 451.301 75.2151ZM462.795 73.5823C463.268 73.5823 463.704 73.4856 464.105 73.2922C464.507 73.0989 464.836 72.8339 465.094 72.4973C465.352 72.1536 465.498 71.7633 465.534 71.3264H467.425C467.389 72.0139 467.156 72.6549 466.727 73.2493C466.304 73.8365 465.749 74.3127 465.062 74.678C464.374 75.0361 463.618 75.2151 462.795 75.2151C461.921 75.2151 461.159 75.0611 460.507 74.7532C459.862 74.4452 459.325 74.0227 458.896 73.4856C458.473 72.9485 458.154 72.3326 457.939 71.6379C457.732 70.9361 457.628 70.1949 457.628 69.4143V68.9631C457.628 68.1825 457.732 67.4449 457.939 66.7502C458.154 66.0484 458.473 65.429 458.896 64.8918C459.325 64.3547 459.862 63.9322 460.507 63.6243C461.159 63.3163 461.921 63.1624 462.795 63.1624C463.704 63.1624 464.499 63.3486 465.18 63.7209C465.86 64.0862 466.394 64.5875 466.78 65.2249C467.174 65.8551 467.389 66.5712 467.425 67.3733H465.534C465.498 66.8935 465.362 66.4602 465.126 66.0735C464.897 65.6868 464.582 65.3788 464.181 65.1497C463.787 64.9133 463.325 64.7952 462.795 64.7952C462.186 64.7952 461.674 64.9169 461.259 65.1604C460.851 65.3967 460.525 65.719 460.281 66.1272C460.045 66.5282 459.873 66.9758 459.766 67.47C459.665 67.9569 459.615 68.4547 459.615 68.9631V69.4143C459.615 69.9228 459.665 70.4241 459.766 70.9182C459.866 71.4124 460.034 71.8599 460.271 72.261C460.514 72.662 460.84 72.9843 461.248 73.2278C461.663 73.4641 462.179 73.5823 462.795 73.5823ZM474.396 63.3772V75.0002H472.398V63.3772H474.396ZM478.296 63.3772V64.9885H468.574V63.3772H478.296ZM479.273 69.3176V69.0706C479.273 68.2327 479.395 67.4556 479.639 66.7395C479.882 66.0162 480.233 65.3896 480.691 64.8596C481.15 64.3225 481.705 63.9071 482.356 63.6135C483.008 63.3127 483.739 63.1624 484.548 63.1624C485.364 63.1624 486.098 63.3127 486.75 63.6135C487.409 63.9071 487.967 64.3225 488.426 64.8596C488.891 65.3896 489.246 66.0162 489.489 66.7395C489.733 67.4556 489.854 68.2327 489.854 69.0706V69.3176C489.854 70.1555 489.733 70.9325 489.489 71.6487C489.246 72.3648 488.891 72.9915 488.426 73.5286C487.967 74.0585 487.412 74.4739 486.761 74.7747C486.116 75.0683 485.386 75.2151 484.569 75.2151C483.753 75.2151 483.019 75.0683 482.367 74.7747C481.715 74.4739 481.157 74.0585 480.691 73.5286C480.233 72.9915 479.882 72.3648 479.639 71.6487C479.395 70.9325 479.273 70.1555 479.273 69.3176ZM481.261 69.0706V69.3176C481.261 69.8977 481.329 70.4456 481.465 70.9612C481.601 71.4696 481.805 71.9208 482.077 72.3147C482.356 72.7086 482.704 73.0201 483.119 73.2493C483.535 73.4713 484.018 73.5823 484.569 73.5823C485.114 73.5823 485.59 73.4713 485.998 73.2493C486.413 73.0201 486.757 72.7086 487.029 72.3147C487.301 71.9208 487.506 71.4696 487.642 70.9612C487.785 70.4456 487.856 69.8977 487.856 69.3176V69.0706C487.856 68.4976 487.785 67.9569 487.642 67.4485C487.506 66.9329 487.298 66.4781 487.019 66.0842C486.746 65.6832 486.403 65.3681 485.987 65.1389C485.579 64.9097 485.099 64.7952 484.548 64.7952C484.004 64.7952 483.524 64.9097 483.108 65.1389C482.7 65.3681 482.356 65.6832 482.077 66.0842C481.805 66.4781 481.601 66.9329 481.465 67.4485C481.329 67.9569 481.261 68.4976 481.261 69.0706ZM494.334 65.6116V79.469H492.336V63.3772H494.162L494.334 65.6116ZM502.165 69.092V69.3176C502.165 70.1627 502.065 70.9469 501.864 71.6702C501.664 72.3863 501.37 73.0094 500.983 73.5393C500.604 74.0693 500.135 74.481 499.576 74.7747C499.018 75.0683 498.377 75.2151 497.653 75.2151C496.916 75.2151 496.264 75.0933 495.698 74.8499C495.132 74.6064 494.653 74.2519 494.259 73.7864C493.865 73.3209 493.55 72.7623 493.313 72.1106C493.084 71.4589 492.927 70.7249 492.841 69.9084V68.7053C492.927 67.8459 493.088 67.0761 493.324 66.3958C493.561 65.7154 493.872 65.1353 494.259 64.6555C494.653 64.1685 495.129 63.7997 495.688 63.5491C496.246 63.2913 496.891 63.1624 497.621 63.1624C498.352 63.1624 499 63.3056 499.565 63.592C500.131 63.8713 500.607 64.2724 500.994 64.7952C501.381 65.318 501.671 65.9446 501.864 66.675C502.065 67.3984 502.165 68.204 502.165 69.092ZM500.167 69.3176V69.092C500.167 68.512 500.106 67.9677 499.984 67.4592C499.863 66.9436 499.673 66.4924 499.415 66.1057C499.164 65.7118 498.842 65.4039 498.448 65.1819C498.054 64.9527 497.585 64.8381 497.041 64.8381C496.54 64.8381 496.103 64.9241 495.73 65.0959C495.365 65.2678 495.054 65.5006 494.796 65.7942C494.538 66.0806 494.327 66.4101 494.162 66.7825C494.005 67.1477 493.886 67.5273 493.808 67.9211V70.7034C493.951 71.2047 494.151 71.6773 494.409 72.1213C494.667 72.5582 495.011 72.9127 495.44 73.1848C495.87 73.4498 496.411 73.5823 497.062 73.5823C497.6 73.5823 498.062 73.4713 498.448 73.2493C498.842 73.0201 499.164 72.7086 499.415 72.3147C499.673 71.9208 499.863 71.4696 499.984 70.9612C500.106 70.4456 500.167 69.8977 500.167 69.3176ZM511.554 73.0129V67.0295C511.554 66.5712 511.461 66.1737 511.274 65.8372C511.095 65.4934 510.823 65.2284 510.458 65.0422C510.093 64.856 509.642 64.7629 509.104 64.7629C508.603 64.7629 508.163 64.8489 507.783 65.0208C507.411 65.1926 507.117 65.4182 506.902 65.6975C506.695 65.9768 506.591 66.2776 506.591 66.5999H504.604C504.604 66.1845 504.711 65.7727 504.926 65.3645C505.141 64.9563 505.449 64.5875 505.85 64.2581C506.258 63.9215 506.745 63.6565 507.311 63.4631C507.883 63.2626 508.521 63.1624 509.223 63.1624C510.068 63.1624 510.812 63.3056 511.457 63.592C512.109 63.8785 512.617 64.3118 512.982 64.8918C513.355 65.4648 513.541 66.1845 513.541 67.051V72.4651C513.541 72.8518 513.573 73.2636 513.638 73.7004C513.709 74.1373 513.813 74.5133 513.949 74.8284V75.0002H511.876C511.776 74.7711 511.697 74.4667 511.64 74.0872C511.582 73.7004 511.554 73.3424 511.554 73.0129ZM511.897 67.9534L511.919 69.3499H509.91C509.344 69.3499 508.84 69.3964 508.396 69.4895C507.951 69.5754 507.579 69.7079 507.278 69.887C506.978 70.066 506.748 70.2916 506.591 70.5637C506.433 70.8287 506.354 71.1402 506.354 71.4983C506.354 71.8635 506.437 72.1965 506.602 72.4973C506.766 72.7981 507.013 73.038 507.343 73.217C507.679 73.3889 508.091 73.4749 508.578 73.4749C509.187 73.4749 509.724 73.3459 510.189 73.0881C510.655 72.8303 511.024 72.5152 511.296 72.1428C511.575 71.7704 511.726 71.4088 511.747 71.0579L512.596 72.0139C512.546 72.3147 512.41 72.6477 512.188 73.0129C511.965 73.3782 511.668 73.7291 511.296 74.0657C510.931 74.3951 510.494 74.6708 509.985 74.8928C509.484 75.1077 508.918 75.2151 508.288 75.2151C507.5 75.2151 506.809 75.0611 506.215 74.7532C505.628 74.4452 505.169 74.0334 504.84 73.5178C504.518 72.995 504.356 72.4114 504.356 71.7668C504.356 71.1438 504.478 70.5959 504.722 70.1233C504.965 69.6435 505.316 69.246 505.774 68.9309C506.233 68.6086 506.784 68.3652 507.429 68.2004C508.073 68.0357 508.793 67.9534 509.588 67.9534H511.897Z" fill="black"/>
<defs>
<filter id="filter0_d_822_2145" x="0.0517578" y="5.08643" width="106.19" height="106.163" filterUnits="userSpaceOnUse" color-interpolation-filters="sRGB">
<feFlood flood-opacity="0" result="BackgroundImageFix"/>
<feColorMatrix in="SourceAlpha" type="matrix" values="0 0 0 0 0 0 0 0 0 0 0 0 0 0 0 0 0 0 127 0" result="hardAlpha"/>
<feOffset/>
<feGaussianBlur stdDeviation="12"/>
<feComposite in2="hardAlpha" operator="out"/>
<feColorMatrix type="matrix" values="0 0 0 0 0.579167 0 0 0 0 0.579167 0 0 0 0 0.579167 0 0 0 0.3 0"/>
<feBlend mode="normal" in2="BackgroundImageFix" result="effect1_dropShadow_822_2145"/>
<feBlend mode="normal" in="SourceGraphic" in2="effect1_dropShadow_822_2145" result="shape"/>
</filter>
</defs>
</svg>
