<svg width="346" height="88" viewBox="0 0 346 88" fill="none" xmlns="http://www.w3.org/2000/svg">
<g filter="url(#filter0_d_315_308)">
<path d="M316.5 57.8472C323.404 50.9436 323.404 39.7507 316.5 32.8472C309.596 25.9436 298.404 25.9436 291.5 32.8472C284.596 39.7507 284.596 50.9436 291.5 57.8472C298.404 64.7507 309.596 64.7507 316.5 57.8472Z" fill="white"/>
</g>
<path d="M309.526 45.3453C309.529 46.3924 309.222 47.4171 308.643 48.29C308.065 49.1629 307.241 49.845 306.276 50.2502C305.31 50.6554 304.246 50.7657 303.218 50.567C302.19 50.3683 301.244 49.8696 300.499 49.1338C299.754 48.3979 299.243 47.458 299.032 46.4324C298.82 45.4068 298.917 44.3416 299.31 43.3711C299.703 42.4006 300.375 41.5682 301.241 40.979C302.106 40.3897 303.127 40.0701 304.174 40.0602C304.874 40.0515 305.568 40.1817 306.217 40.4434C306.866 40.705 307.456 41.0929 307.954 41.5846C308.452 42.0762 308.847 42.6618 309.117 43.3074C309.387 43.9529 309.526 44.6456 309.526 45.3453V45.3453Z" fill="#00A3FF"/>
<path d="M304.24 47.4161C305.384 47.4161 306.311 46.4889 306.311 45.3451C306.311 44.2014 305.384 43.2742 304.24 43.2742C303.096 43.2742 302.169 44.2014 302.169 45.3451C302.169 46.4889 303.096 47.4161 304.24 47.4161Z" fill="white"/>
<path d="M53.0456 63.0204C62.811 53.2596 62.811 37.4342 53.0455 27.6734C43.2801 17.9127 27.4473 17.9126 17.6819 27.6734C7.91646 37.4342 7.91643 53.2596 17.6819 63.0204C27.4473 72.7812 43.2802 72.7812 53.0456 63.0204Z" fill="#00A3FF"/>
<path d="M28.7446 36.4951H40.7441V39.498L33.8716 54H30.002L36.7524 39.8765H28.7446V36.4951Z" fill="white"/>
<path d="M114.238 11.6982L116.87 5.04688H118.388L114.867 13.3389C114.767 13.5713 114.655 13.7969 114.532 14.0156C114.409 14.2298 114.259 14.4212 114.081 14.5898C113.903 14.7585 113.682 14.8929 113.418 14.9932C113.158 15.0934 112.835 15.1436 112.447 15.1436C112.338 15.1436 112.208 15.1367 112.058 15.123C111.907 15.1139 111.809 15.1025 111.764 15.0889L111.805 14.0361C111.855 14.0452 111.953 14.0544 112.099 14.0635C112.244 14.068 112.352 14.0703 112.42 14.0703C112.68 14.0703 112.885 14.0179 113.035 13.9131C113.186 13.8083 113.306 13.6761 113.397 13.5166C113.493 13.3525 113.58 13.1862 113.657 13.0176L114.238 11.6982ZM112.003 5.04688L114.771 11.2471L115.1 12.4707L113.992 12.5527L110.526 5.04688H112.003ZM122.783 7.60352V15H121.512V7.60352H122.783ZM125.265 7.60352V8.62891H119.078V7.60352H125.265ZM129.981 11.7461H127.555L127.541 10.7344H129.523C129.915 10.7344 130.241 10.6956 130.501 10.6182C130.765 10.5407 130.964 10.4245 131.096 10.2695C131.228 10.1146 131.294 9.92318 131.294 9.69531C131.294 9.51758 131.255 9.36263 131.178 9.23047C131.105 9.09375 130.993 8.9821 130.843 8.89551C130.692 8.80436 130.506 8.73828 130.282 8.69727C130.063 8.65169 129.806 8.62891 129.51 8.62891H127.89V15H126.625V7.60352H129.51C129.979 7.60352 130.401 7.64453 130.774 7.72656C131.153 7.80859 131.474 7.93392 131.738 8.10254C132.007 8.2666 132.212 8.47624 132.354 8.73145C132.495 8.98665 132.565 9.28743 132.565 9.63379C132.565 9.8571 132.52 10.069 132.429 10.2695C132.338 10.4701 132.203 10.6478 132.025 10.8027C131.848 10.9577 131.629 11.0853 131.369 11.1855C131.109 11.2812 130.811 11.3428 130.474 11.3701L129.981 11.7461ZM129.981 15H127.097L127.726 13.9746H129.981C130.332 13.9746 130.624 13.9313 130.856 13.8447C131.089 13.7536 131.262 13.626 131.376 13.4619C131.494 13.2933 131.554 13.0928 131.554 12.8604C131.554 12.6279 131.494 12.4297 131.376 12.2656C131.262 12.097 131.089 11.9694 130.856 11.8828C130.624 11.7917 130.332 11.7461 129.981 11.7461H128.061L128.074 10.7344H130.474L130.932 11.1172C131.337 11.1491 131.681 11.2493 131.964 11.418C132.246 11.5866 132.461 11.8008 132.606 12.0605C132.752 12.3158 132.825 12.5938 132.825 12.8945C132.825 13.2409 132.759 13.5462 132.627 13.8105C132.499 14.0749 132.312 14.2959 132.066 14.4736C131.82 14.6468 131.522 14.779 131.171 14.8701C130.82 14.9567 130.424 15 129.981 15ZM137.59 15.1367C137.075 15.1367 136.608 15.0501 136.188 14.877C135.774 14.6992 135.416 14.4508 135.115 14.1318C134.819 13.8128 134.591 13.4346 134.432 12.9971C134.272 12.5596 134.192 12.0811 134.192 11.5615V11.2744C134.192 10.6729 134.281 10.1374 134.459 9.66797C134.637 9.19401 134.878 8.79297 135.184 8.46484C135.489 8.13672 135.835 7.88835 136.223 7.71973C136.61 7.55111 137.011 7.4668 137.426 7.4668C137.954 7.4668 138.41 7.55794 138.793 7.74023C139.18 7.92253 139.497 8.17773 139.743 8.50586C139.989 8.82943 140.172 9.21224 140.29 9.6543C140.409 10.0918 140.468 10.5703 140.468 11.0898V11.6572H134.944V10.625H139.203V10.5293C139.185 10.2012 139.117 9.88216 138.998 9.57227C138.884 9.26237 138.702 9.00716 138.451 8.80664C138.201 8.60612 137.859 8.50586 137.426 8.50586C137.139 8.50586 136.874 8.56738 136.633 8.69043C136.391 8.80892 136.184 8.98665 136.011 9.22363C135.838 9.46061 135.703 9.75 135.607 10.0918C135.512 10.4336 135.464 10.8278 135.464 11.2744V11.5615C135.464 11.9124 135.512 12.2428 135.607 12.5527C135.708 12.8581 135.851 13.127 136.038 13.3594C136.229 13.5918 136.46 13.7741 136.729 13.9062C137.002 14.0384 137.312 14.1045 137.658 14.1045C138.105 14.1045 138.483 14.0133 138.793 13.8311C139.103 13.6488 139.374 13.4049 139.606 13.0996L140.372 13.708C140.213 13.9495 140.01 14.1797 139.764 14.3984C139.518 14.6172 139.215 14.7949 138.854 14.9316C138.499 15.0684 138.077 15.1367 137.59 15.1367ZM143.209 9.02539V17.8438H141.938V7.60352H143.1L143.209 9.02539ZM148.192 11.2402V11.3838C148.192 11.9215 148.129 12.4206 148.001 12.8809C147.873 13.3366 147.687 13.7331 147.44 14.0703C147.199 14.4076 146.9 14.6696 146.545 14.8564C146.189 15.0433 145.782 15.1367 145.321 15.1367C144.852 15.1367 144.437 15.0592 144.077 14.9043C143.717 14.7493 143.412 14.5238 143.161 14.2275C142.91 13.9313 142.71 13.5758 142.56 13.1611C142.414 12.7464 142.313 12.2793 142.259 11.7598V10.9941C142.313 10.4473 142.416 9.95736 142.566 9.52441C142.717 9.09147 142.915 8.72233 143.161 8.41699C143.412 8.1071 143.715 7.8724 144.07 7.71289C144.426 7.54883 144.836 7.4668 145.301 7.4668C145.766 7.4668 146.178 7.55794 146.538 7.74023C146.898 7.91797 147.201 8.17318 147.447 8.50586C147.693 8.83854 147.878 9.2373 148.001 9.70215C148.129 10.1624 148.192 10.6751 148.192 11.2402ZM146.921 11.3838V11.2402C146.921 10.8711 146.882 10.5247 146.805 10.2012C146.727 9.87305 146.606 9.58594 146.442 9.33984C146.283 9.08919 146.078 8.89323 145.827 8.75195C145.576 8.60612 145.278 8.5332 144.932 8.5332C144.613 8.5332 144.335 8.58789 144.098 8.69727C143.865 8.80664 143.667 8.95475 143.503 9.1416C143.339 9.32389 143.204 9.53353 143.1 9.77051C142.999 10.0029 142.924 10.2445 142.874 10.4951V12.2656C142.965 12.5846 143.093 12.8854 143.257 13.168C143.421 13.446 143.64 13.6715 143.913 13.8447C144.187 14.0133 144.531 14.0977 144.945 14.0977C145.287 14.0977 145.581 14.027 145.827 13.8857C146.078 13.7399 146.283 13.5417 146.442 13.291C146.606 13.0404 146.727 12.7533 146.805 12.4297C146.882 12.1016 146.921 11.7529 146.921 11.3838ZM151.938 11.7803L149.136 7.60352H150.66L152.574 10.666H154.051L153.866 11.7803H151.938ZM152.629 11.6504L150.482 15H148.883L151.829 10.7344L152.629 11.6504ZM154.7 7.60352V15H153.436V7.60352H154.7ZM159.014 7.60352L156.211 11.7803H154.283L154.085 10.666H155.568L157.482 7.60352H159.014ZM157.66 15L155.507 11.6504L156.32 10.7344L159.26 15H157.66ZM161.762 7.60352H163.026L162.917 10.3721C162.89 11.0739 162.81 11.68 162.678 12.1904C162.546 12.7008 162.377 13.1361 162.172 13.4961C161.967 13.8516 161.737 14.1501 161.481 14.3916C161.231 14.6331 160.971 14.8359 160.702 15H160.073L160.107 13.9678L160.367 13.9609C160.518 13.7832 160.663 13.6009 160.805 13.4141C160.946 13.2227 161.076 12.9971 161.194 12.7373C161.313 12.473 161.411 12.1517 161.488 11.7734C161.57 11.3906 161.623 10.9235 161.646 10.3721L161.762 7.60352ZM162.076 7.60352H166.526V15H165.262V8.77246H162.076V7.60352ZM159.786 13.9609H167.477V17.1807H166.212V15H161.051V17.1807H159.779L159.786 13.9609ZM171.947 15.1367C171.432 15.1367 170.965 15.0501 170.546 14.877C170.131 14.6992 169.773 14.4508 169.473 14.1318C169.176 13.8128 168.949 13.4346 168.789 12.9971C168.63 12.5596 168.55 12.0811 168.55 11.5615V11.2744C168.55 10.6729 168.639 10.1374 168.816 9.66797C168.994 9.19401 169.236 8.79297 169.541 8.46484C169.846 8.13672 170.193 7.88835 170.58 7.71973C170.967 7.55111 171.368 7.4668 171.783 7.4668C172.312 7.4668 172.768 7.55794 173.15 7.74023C173.538 7.92253 173.854 8.17773 174.101 8.50586C174.347 8.82943 174.529 9.21224 174.647 9.6543C174.766 10.0918 174.825 10.5703 174.825 11.0898V11.6572H169.302V10.625H173.561V10.5293C173.542 10.2012 173.474 9.88216 173.355 9.57227C173.242 9.26237 173.059 9.00716 172.809 8.80664C172.558 8.60612 172.216 8.50586 171.783 8.50586C171.496 8.50586 171.232 8.56738 170.99 8.69043C170.749 8.80892 170.541 8.98665 170.368 9.22363C170.195 9.46061 170.061 9.75 169.965 10.0918C169.869 10.4336 169.821 10.8278 169.821 11.2744V11.5615C169.821 11.9124 169.869 12.2428 169.965 12.5527C170.065 12.8581 170.209 13.127 170.396 13.3594C170.587 13.5918 170.817 13.7741 171.086 13.9062C171.359 14.0384 171.669 14.1045 172.016 14.1045C172.462 14.1045 172.84 14.0133 173.15 13.8311C173.46 13.6488 173.731 13.4049 173.964 13.0996L174.729 13.708C174.57 13.9495 174.367 14.1797 174.121 14.3984C173.875 14.6172 173.572 14.7949 173.212 14.9316C172.856 15.0684 172.435 15.1367 171.947 15.1367ZM181.319 10.8096V11.835H177.409V10.8096H181.319ZM177.676 7.60352V15H176.411V7.60352H177.676ZM182.345 7.60352V15H181.073V7.60352H182.345ZM185.749 12.9971L189.16 7.60352H190.432V15H189.16V9.60645L185.749 15H184.491V7.60352H185.749V12.9971ZM195.531 15.1367C195.016 15.1367 194.549 15.0501 194.13 14.877C193.715 14.6992 193.357 14.4508 193.057 14.1318C192.76 13.8128 192.533 13.4346 192.373 12.9971C192.214 12.5596 192.134 12.0811 192.134 11.5615V11.2744C192.134 10.6729 192.223 10.1374 192.4 9.66797C192.578 9.19401 192.82 8.79297 193.125 8.46484C193.43 8.13672 193.777 7.88835 194.164 7.71973C194.551 7.55111 194.952 7.4668 195.367 7.4668C195.896 7.4668 196.352 7.55794 196.734 7.74023C197.122 7.92253 197.438 8.17773 197.685 8.50586C197.931 8.82943 198.113 9.21224 198.231 9.6543C198.35 10.0918 198.409 10.5703 198.409 11.0898V11.6572H192.886V10.625H197.145V10.5293C197.126 10.2012 197.058 9.88216 196.939 9.57227C196.826 9.26237 196.643 9.00716 196.393 8.80664C196.142 8.60612 195.8 8.50586 195.367 8.50586C195.08 8.50586 194.816 8.56738 194.574 8.69043C194.333 8.80892 194.125 8.98665 193.952 9.22363C193.779 9.46061 193.645 9.75 193.549 10.0918C193.453 10.4336 193.405 10.8278 193.405 11.2744V11.5615C193.405 11.9124 193.453 12.2428 193.549 12.5527C193.649 12.8581 193.793 13.127 193.979 13.3594C194.171 13.5918 194.401 13.7741 194.67 13.9062C194.943 14.0384 195.253 14.1045 195.6 14.1045C196.046 14.1045 196.424 14.0133 196.734 13.8311C197.044 13.6488 197.315 13.4049 197.548 13.0996L198.313 13.708C198.154 13.9495 197.951 14.1797 197.705 14.3984C197.459 14.6172 197.156 14.7949 196.796 14.9316C196.44 15.0684 196.019 15.1367 195.531 15.1367ZM206.831 11.7461H204.404L204.391 10.7344H206.373C206.765 10.7344 207.091 10.6956 207.351 10.6182C207.615 10.5407 207.813 10.4245 207.945 10.2695C208.077 10.1146 208.144 9.92318 208.144 9.69531C208.144 9.51758 208.105 9.36263 208.027 9.23047C207.954 9.09375 207.843 8.9821 207.692 8.89551C207.542 8.80436 207.355 8.73828 207.132 8.69727C206.913 8.65169 206.656 8.62891 206.359 8.62891H204.739V15H203.475V7.60352H206.359C206.829 7.60352 207.25 7.64453 207.624 7.72656C208.002 7.80859 208.324 7.93392 208.588 8.10254C208.857 8.2666 209.062 8.47624 209.203 8.73145C209.344 8.98665 209.415 9.28743 209.415 9.63379C209.415 9.8571 209.369 10.069 209.278 10.2695C209.187 10.4701 209.053 10.6478 208.875 10.8027C208.697 10.9577 208.479 11.0853 208.219 11.1855C207.959 11.2812 207.66 11.3428 207.323 11.3701L206.831 11.7461ZM206.831 15H203.946L204.575 13.9746H206.831C207.182 13.9746 207.474 13.9313 207.706 13.8447C207.938 13.7536 208.112 13.626 208.226 13.4619C208.344 13.2933 208.403 13.0928 208.403 12.8604C208.403 12.6279 208.344 12.4297 208.226 12.2656C208.112 12.097 207.938 11.9694 207.706 11.8828C207.474 11.7917 207.182 11.7461 206.831 11.7461H204.91L204.924 10.7344H207.323L207.781 11.1172C208.187 11.1491 208.531 11.2493 208.813 11.418C209.096 11.5866 209.31 11.8008 209.456 12.0605C209.602 12.3158 209.675 12.5938 209.675 12.8945C209.675 13.2409 209.609 13.5462 209.477 13.8105C209.349 14.0749 209.162 14.2959 208.916 14.4736C208.67 14.6468 208.371 14.779 208.021 14.8701C207.67 14.9567 207.273 15 206.831 15ZM212.409 10.1465H214.631C215.228 10.1465 215.731 10.2513 216.142 10.4609C216.552 10.666 216.862 10.9508 217.071 11.3154C217.285 11.6755 217.393 12.0856 217.393 12.5459C217.393 12.8877 217.333 13.209 217.215 13.5098C217.096 13.806 216.919 14.0658 216.682 14.2891C216.449 14.5124 216.16 14.6878 215.813 14.8154C215.472 14.9385 215.077 15 214.631 15H211.486V7.60352H212.751V13.9609H214.631C214.995 13.9609 215.287 13.8949 215.506 13.7627C215.725 13.6305 215.882 13.4596 215.978 13.25C216.073 13.0404 216.121 12.8216 216.121 12.5938C216.121 12.3704 216.073 12.1517 215.978 11.9375C215.882 11.7233 215.725 11.5456 215.506 11.4043C215.287 11.2585 214.995 11.1855 214.631 11.1855H212.409V10.1465ZM220.024 7.60352V15H218.76V7.60352H220.024ZM226.983 4.38379H228.022C228.022 4.8304 227.954 5.18587 227.817 5.4502C227.681 5.70996 227.494 5.91048 227.257 6.05176C227.024 6.19303 226.76 6.30013 226.464 6.37305C226.172 6.44596 225.869 6.5166 225.555 6.58496C225.163 6.66699 224.798 6.79688 224.461 6.97461C224.128 7.14779 223.841 7.39388 223.6 7.71289C223.363 8.0319 223.187 8.44661 223.073 8.95703C222.964 9.46745 222.934 10.0986 222.984 10.8506V11.4795H221.945V10.8506C221.945 10.0075 222.025 9.27148 222.185 8.64258C222.349 8.01367 222.579 7.48275 222.875 7.0498C223.171 6.61686 223.522 6.27279 223.928 6.01758C224.338 5.76237 224.789 5.58691 225.281 5.49121C225.637 5.42285 225.942 5.34993 226.197 5.27246C226.452 5.19043 226.646 5.08105 226.778 4.94434C226.915 4.80762 226.983 4.62077 226.983 4.38379ZM225.486 8.02734C225.969 8.02734 226.4 8.11165 226.778 8.28027C227.157 8.44889 227.478 8.68359 227.742 8.98438C228.007 9.28516 228.207 9.64062 228.344 10.0508C228.485 10.4564 228.556 10.8984 228.556 11.377V11.5273C228.556 12.0423 228.48 12.5208 228.33 12.9629C228.184 13.4004 227.968 13.7832 227.681 14.1113C227.398 14.4349 227.052 14.6878 226.642 14.8701C226.236 15.0524 225.773 15.1436 225.254 15.1436C224.734 15.1436 224.27 15.0524 223.859 14.8701C223.454 14.6878 223.107 14.4349 222.82 14.1113C222.533 13.7832 222.314 13.4004 222.164 12.9629C222.018 12.5208 221.945 12.0423 221.945 11.5273V11.377C221.945 11.263 221.966 11.1514 222.007 11.042C222.048 10.9326 222.098 10.821 222.157 10.707C222.221 10.5931 222.278 10.4723 222.328 10.3447C222.497 9.93457 222.727 9.55404 223.019 9.20312C223.315 8.85221 223.668 8.56966 224.078 8.35547C224.493 8.13672 224.962 8.02734 225.486 8.02734ZM225.24 9.05957C224.775 9.05957 224.393 9.16667 224.092 9.38086C223.796 9.59505 223.575 9.87988 223.429 10.2354C223.283 10.5863 223.21 10.9668 223.21 11.377V11.5273C223.21 11.8737 223.251 12.2018 223.333 12.5117C223.415 12.8216 223.538 13.0973 223.702 13.3389C223.871 13.5758 224.083 13.7627 224.338 13.8994C224.598 14.0361 224.903 14.1045 225.254 14.1045C225.605 14.1045 225.908 14.0361 226.163 13.8994C226.418 13.7627 226.628 13.5758 226.792 13.3389C226.956 13.0973 227.079 12.8216 227.161 12.5117C227.243 12.2018 227.284 11.8737 227.284 11.5273V11.377C227.284 11.0671 227.243 10.7731 227.161 10.4951C227.079 10.2171 226.954 9.97103 226.785 9.75684C226.621 9.54264 226.409 9.37402 226.149 9.25098C225.894 9.12337 225.591 9.05957 225.24 9.05957ZM231.133 9.02539V17.8438H229.861V7.60352H231.023L231.133 9.02539ZM236.116 11.2402V11.3838C236.116 11.9215 236.052 12.4206 235.925 12.8809C235.797 13.3366 235.61 13.7331 235.364 14.0703C235.123 14.4076 234.824 14.6696 234.469 14.8564C234.113 15.0433 233.705 15.1367 233.245 15.1367C232.776 15.1367 232.361 15.0592 232.001 14.9043C231.641 14.7493 231.336 14.5238 231.085 14.2275C230.834 13.9313 230.634 13.5758 230.483 13.1611C230.338 12.7464 230.237 12.2793 230.183 11.7598V10.9941C230.237 10.4473 230.34 9.95736 230.49 9.52441C230.641 9.09147 230.839 8.72233 231.085 8.41699C231.336 8.1071 231.639 7.8724 231.994 7.71289C232.35 7.54883 232.76 7.4668 233.225 7.4668C233.689 7.4668 234.102 7.55794 234.462 7.74023C234.822 7.91797 235.125 8.17318 235.371 8.50586C235.617 8.83854 235.802 9.2373 235.925 9.70215C236.052 10.1624 236.116 10.6751 236.116 11.2402ZM234.845 11.3838V11.2402C234.845 10.8711 234.806 10.5247 234.729 10.2012C234.651 9.87305 234.53 9.58594 234.366 9.33984C234.207 9.08919 234.002 8.89323 233.751 8.75195C233.5 8.60612 233.202 8.5332 232.855 8.5332C232.536 8.5332 232.258 8.58789 232.021 8.69727C231.789 8.80664 231.591 8.95475 231.427 9.1416C231.263 9.32389 231.128 9.53353 231.023 9.77051C230.923 10.0029 230.848 10.2445 230.798 10.4951V12.2656C230.889 12.5846 231.017 12.8854 231.181 13.168C231.345 13.446 231.563 13.6715 231.837 13.8447C232.11 14.0133 232.454 14.0977 232.869 14.0977C233.211 14.0977 233.505 14.027 233.751 13.8857C234.002 13.7399 234.207 13.5417 234.366 13.291C234.53 13.0404 234.651 12.7533 234.729 12.4297C234.806 12.1016 234.845 11.7529 234.845 11.3838ZM242.091 13.7354V9.92773C242.091 9.63607 242.032 9.38314 241.913 9.16895C241.799 8.9502 241.626 8.78158 241.394 8.66309C241.161 8.5446 240.874 8.48535 240.532 8.48535C240.213 8.48535 239.933 8.54004 239.691 8.64941C239.454 8.75879 239.268 8.90234 239.131 9.08008C238.999 9.25781 238.933 9.44922 238.933 9.6543H237.668C237.668 9.38997 237.736 9.12793 237.873 8.86816C238.01 8.6084 238.206 8.3737 238.461 8.16406C238.721 7.94987 239.031 7.78125 239.391 7.6582C239.755 7.5306 240.161 7.4668 240.607 7.4668C241.145 7.4668 241.619 7.55794 242.029 7.74023C242.444 7.92253 242.768 8.19824 243 8.56738C243.237 8.93197 243.355 9.38997 243.355 9.94141V13.3867C243.355 13.6328 243.376 13.8949 243.417 14.1729C243.463 14.4508 243.529 14.6901 243.615 14.8906V15H242.296C242.232 14.8542 242.182 14.6605 242.146 14.4189C242.109 14.1729 242.091 13.945 242.091 13.7354ZM242.31 10.5156L242.323 11.4043H241.045C240.685 11.4043 240.364 11.4339 240.081 11.4932C239.799 11.5479 239.562 11.6322 239.37 11.7461C239.179 11.86 239.033 12.0036 238.933 12.1768C238.832 12.3454 238.782 12.5436 238.782 12.7715C238.782 13.0039 238.835 13.2158 238.939 13.4072C239.044 13.5986 239.201 13.7513 239.411 13.8652C239.625 13.9746 239.887 14.0293 240.197 14.0293C240.585 14.0293 240.926 13.9473 241.223 13.7832C241.519 13.6191 241.754 13.4186 241.927 13.1816C242.104 12.9447 242.2 12.7145 242.214 12.4912L242.754 13.0996C242.722 13.291 242.635 13.5029 242.494 13.7354C242.353 13.9678 242.164 14.1911 241.927 14.4053C241.694 14.6149 241.416 14.7904 241.093 14.9316C240.774 15.0684 240.414 15.1367 240.013 15.1367C239.511 15.1367 239.072 15.0387 238.693 14.8428C238.32 14.6468 238.028 14.3848 237.818 14.0566C237.613 13.724 237.511 13.3525 237.511 12.9424C237.511 12.5459 237.588 12.1973 237.743 11.8965C237.898 11.5911 238.121 11.3382 238.413 11.1377C238.705 10.9326 239.056 10.7777 239.466 10.6729C239.876 10.568 240.334 10.5156 240.84 10.5156H242.31ZM250.362 10.8096V11.835H246.452V10.8096H250.362ZM246.719 7.60352V15H245.454V7.60352H246.719ZM251.388 7.60352V15H250.116V7.60352H251.388ZM258.442 10.8096V11.835H254.532V10.8096H258.442ZM254.799 7.60352V15H253.534V7.60352H254.799ZM259.468 7.60352V15H258.196V7.60352H259.468ZM262.544 10.1465H264.766C265.363 10.1465 265.866 10.2513 266.276 10.4609C266.687 10.666 266.996 10.9508 267.206 11.3154C267.42 11.6755 267.527 12.0856 267.527 12.5459C267.527 12.8877 267.468 13.209 267.35 13.5098C267.231 13.806 267.053 14.0658 266.816 14.2891C266.584 14.5124 266.295 14.6878 265.948 14.8154C265.606 14.9385 265.212 15 264.766 15H261.621V7.60352H262.886V13.9609H264.766C265.13 13.9609 265.422 13.8949 265.641 13.7627C265.859 13.6305 266.017 13.4596 266.112 13.25C266.208 13.0404 266.256 12.8216 266.256 12.5938C266.256 12.3704 266.208 12.1517 266.112 11.9375C266.017 11.7233 265.859 11.5456 265.641 11.4043C265.422 11.2585 265.13 11.1855 264.766 11.1855H262.544V10.1465ZM270.159 7.60352V15H268.895V7.60352H270.159ZM273.229 7.60352L274.849 10.2969L276.489 7.60352H277.973L275.553 11.2539L278.048 15H276.585L274.876 12.2246L273.167 15H271.697L274.186 11.2539L271.772 7.60352H273.229ZM116.46 32.4844C116.46 32.252 116.424 32.0469 116.351 31.8691C116.282 31.6868 116.159 31.5228 115.981 31.377C115.808 31.2311 115.567 31.0921 115.257 30.96C114.951 30.8278 114.564 30.6934 114.095 30.5566C113.603 30.4108 113.158 30.249 112.762 30.0713C112.365 29.889 112.026 29.6816 111.743 29.4492C111.461 29.2168 111.244 28.9502 111.094 28.6494C110.943 28.3486 110.868 28.0046 110.868 27.6172C110.868 27.2298 110.948 26.8721 111.107 26.5439C111.267 26.2158 111.495 25.931 111.791 25.6895C112.092 25.4434 112.45 25.252 112.864 25.1152C113.279 24.9785 113.742 24.9102 114.252 24.9102C114.999 24.9102 115.633 25.0537 116.152 25.3408C116.676 25.6234 117.075 25.9948 117.349 26.4551C117.622 26.9108 117.759 27.3984 117.759 27.918H116.446C116.446 27.5443 116.367 27.2139 116.207 26.9268C116.048 26.6351 115.806 26.4072 115.482 26.2432C115.159 26.0745 114.749 25.9902 114.252 25.9902C113.783 25.9902 113.395 26.0609 113.09 26.2021C112.785 26.3434 112.557 26.5348 112.406 26.7764C112.26 27.0179 112.188 27.2936 112.188 27.6035C112.188 27.8132 112.231 28.0046 112.317 28.1777C112.409 28.3464 112.548 28.5036 112.734 28.6494C112.926 28.7952 113.167 28.9297 113.459 29.0527C113.755 29.1758 114.108 29.2943 114.519 29.4082C115.084 29.5677 115.571 29.7454 115.981 29.9414C116.392 30.1374 116.729 30.3584 116.993 30.6045C117.262 30.846 117.46 31.1217 117.588 31.4316C117.72 31.737 117.786 32.0833 117.786 32.4707C117.786 32.8763 117.704 33.2432 117.54 33.5713C117.376 33.8994 117.141 34.1797 116.836 34.4121C116.531 34.6445 116.164 34.8245 115.735 34.9521C115.312 35.0752 114.838 35.1367 114.313 35.1367C113.853 35.1367 113.4 35.0729 112.953 34.9453C112.511 34.8177 112.108 34.6263 111.743 34.3711C111.383 34.1159 111.094 33.8014 110.875 33.4277C110.661 33.0495 110.554 32.612 110.554 32.1152H111.866C111.866 32.457 111.932 32.751 112.064 32.9971C112.197 33.2386 112.377 33.4391 112.604 33.5986C112.837 33.7581 113.099 33.8766 113.391 33.9541C113.687 34.027 113.994 34.0635 114.313 34.0635C114.774 34.0635 115.163 33.9997 115.482 33.8721C115.801 33.7445 116.043 33.5622 116.207 33.3252C116.376 33.0882 116.46 32.8079 116.46 32.4844ZM120.787 25.0469V35H119.468V25.0469H120.787ZM126.796 25.0469L122.66 29.6885L120.336 32.1016L120.117 30.6934L121.867 28.7656L125.21 25.0469H126.796ZM125.524 35L121.84 30.1465L122.626 29.1006L127.097 35H125.524ZM133.953 25.0469H135.266V31.7803C135.266 32.5277 135.099 33.1497 134.767 33.6465C134.434 34.1432 133.992 34.5169 133.44 34.7676C132.894 35.0137 132.299 35.1367 131.656 35.1367C130.982 35.1367 130.371 35.0137 129.824 34.7676C129.282 34.5169 128.851 34.1432 128.532 33.6465C128.218 33.1497 128.061 32.5277 128.061 31.7803V25.0469H129.366V31.7803C129.366 32.2998 129.462 32.7282 129.653 33.0654C129.845 33.4027 130.111 33.6533 130.453 33.8174C130.799 33.9814 131.201 34.0635 131.656 34.0635C132.117 34.0635 132.518 33.9814 132.859 33.8174C133.206 33.6533 133.475 33.4027 133.666 33.0654C133.857 32.7282 133.953 32.2998 133.953 31.7803V25.0469ZM141.985 32.9971L145.396 27.6035H146.668V35H145.396V29.6064L141.985 35H140.728V27.6035H141.985V32.9971ZM153.436 29.0254V37.8438H152.164V27.6035H153.326L153.436 29.0254ZM158.419 31.2402V31.3838C158.419 31.9215 158.355 32.4206 158.228 32.8809C158.1 33.3366 157.913 33.7331 157.667 34.0703C157.425 34.4076 157.127 34.6696 156.771 34.8564C156.416 35.0433 156.008 35.1367 155.548 35.1367C155.078 35.1367 154.664 35.0592 154.304 34.9043C153.944 34.7493 153.638 34.5238 153.388 34.2275C153.137 33.9313 152.937 33.5758 152.786 33.1611C152.64 32.7464 152.54 32.2793 152.485 31.7598V30.9941C152.54 30.4473 152.643 29.9574 152.793 29.5244C152.943 29.0915 153.142 28.7223 153.388 28.417C153.638 28.1071 153.941 27.8724 154.297 27.7129C154.652 27.5488 155.062 27.4668 155.527 27.4668C155.992 27.4668 156.405 27.5579 156.765 27.7402C157.125 27.918 157.428 28.1732 157.674 28.5059C157.92 28.8385 158.104 29.2373 158.228 29.7021C158.355 30.1624 158.419 30.6751 158.419 31.2402ZM157.147 31.3838V31.2402C157.147 30.8711 157.109 30.5247 157.031 30.2012C156.954 29.873 156.833 29.5859 156.669 29.3398C156.509 29.0892 156.304 28.8932 156.054 28.752C155.803 28.6061 155.505 28.5332 155.158 28.5332C154.839 28.5332 154.561 28.5879 154.324 28.6973C154.092 28.8066 153.894 28.9548 153.729 29.1416C153.565 29.3239 153.431 29.5335 153.326 29.7705C153.226 30.0029 153.151 30.2445 153.101 30.4951V32.2656C153.192 32.5846 153.319 32.8854 153.483 33.168C153.647 33.446 153.866 33.6715 154.14 33.8447C154.413 34.0133 154.757 34.0977 155.172 34.0977C155.514 34.0977 155.808 34.027 156.054 33.8857C156.304 33.7399 156.509 33.5417 156.669 33.291C156.833 33.0404 156.954 32.7533 157.031 32.4297C157.109 32.1016 157.147 31.7529 157.147 31.3838ZM163.102 35.1367C162.587 35.1367 162.119 35.0501 161.7 34.877C161.285 34.6992 160.928 34.4508 160.627 34.1318C160.331 33.8128 160.103 33.4346 159.943 32.9971C159.784 32.5596 159.704 32.0811 159.704 31.5615V31.2744C159.704 30.6729 159.793 30.1374 159.971 29.668C160.148 29.194 160.39 28.793 160.695 28.4648C161.001 28.1367 161.347 27.8883 161.734 27.7197C162.122 27.5511 162.523 27.4668 162.938 27.4668C163.466 27.4668 163.922 27.5579 164.305 27.7402C164.692 27.9225 165.009 28.1777 165.255 28.5059C165.501 28.8294 165.683 29.2122 165.802 29.6543C165.92 30.0918 165.979 30.5703 165.979 31.0898V31.6572H160.456V30.625H164.715V30.5293C164.697 30.2012 164.628 29.8822 164.51 29.5723C164.396 29.2624 164.214 29.0072 163.963 28.8066C163.712 28.6061 163.37 28.5059 162.938 28.5059C162.65 28.5059 162.386 28.5674 162.145 28.6904C161.903 28.8089 161.696 28.9867 161.522 29.2236C161.349 29.4606 161.215 29.75 161.119 30.0918C161.023 30.4336 160.976 30.8278 160.976 31.2744V31.5615C160.976 31.9124 161.023 32.2428 161.119 32.5527C161.219 32.8581 161.363 33.127 161.55 33.3594C161.741 33.5918 161.971 33.7741 162.24 33.9062C162.514 34.0384 162.824 34.1045 163.17 34.1045C163.617 34.1045 163.995 34.0133 164.305 33.8311C164.615 33.6488 164.886 33.4049 165.118 33.0996L165.884 33.708C165.724 33.9495 165.521 34.1797 165.275 34.3984C165.029 34.6172 164.726 34.7949 164.366 34.9316C164.011 35.0684 163.589 35.1367 163.102 35.1367ZM171.817 33.7354V29.9277C171.817 29.6361 171.758 29.3831 171.64 29.1689C171.526 28.9502 171.353 28.7816 171.12 28.6631C170.888 28.5446 170.601 28.4854 170.259 28.4854C169.94 28.4854 169.66 28.54 169.418 28.6494C169.181 28.7588 168.994 28.9023 168.857 29.0801C168.725 29.2578 168.659 29.4492 168.659 29.6543H167.395C167.395 29.39 167.463 29.1279 167.6 28.8682C167.736 28.6084 167.932 28.3737 168.188 28.1641C168.447 27.9499 168.757 27.7812 169.117 27.6582C169.482 27.5306 169.887 27.4668 170.334 27.4668C170.872 27.4668 171.346 27.5579 171.756 27.7402C172.171 27.9225 172.494 28.1982 172.727 28.5674C172.964 28.932 173.082 29.39 173.082 29.9414V33.3867C173.082 33.6328 173.103 33.8949 173.144 34.1729C173.189 34.4508 173.255 34.6901 173.342 34.8906V35H172.022C171.959 34.8542 171.909 34.6605 171.872 34.4189C171.836 34.1729 171.817 33.945 171.817 33.7354ZM172.036 30.5156L172.05 31.4043H170.771C170.411 31.4043 170.09 31.4339 169.808 31.4932C169.525 31.5479 169.288 31.6322 169.097 31.7461C168.905 31.86 168.759 32.0036 168.659 32.1768C168.559 32.3454 168.509 32.5436 168.509 32.7715C168.509 33.0039 168.561 33.2158 168.666 33.4072C168.771 33.5986 168.928 33.7513 169.138 33.8652C169.352 33.9746 169.614 34.0293 169.924 34.0293C170.311 34.0293 170.653 33.9473 170.949 33.7832C171.245 33.6191 171.48 33.4186 171.653 33.1816C171.831 32.9447 171.927 32.7145 171.94 32.4912L172.48 33.0996C172.449 33.291 172.362 33.5029 172.221 33.7354C172.079 33.9678 171.89 34.1911 171.653 34.4053C171.421 34.6149 171.143 34.7904 170.819 34.9316C170.5 35.0684 170.14 35.1367 169.739 35.1367C169.238 35.1367 168.798 35.0387 168.42 34.8428C168.046 34.6468 167.755 34.3848 167.545 34.0566C167.34 33.724 167.237 33.3525 167.237 32.9424C167.237 32.5459 167.315 32.1973 167.47 31.8965C167.625 31.5911 167.848 31.3382 168.14 31.1377C168.431 30.9326 168.782 30.7777 169.192 30.6729C169.603 30.568 170.061 30.5156 170.566 30.5156H172.036ZM180.014 27.6035V28.6494H176.438V27.6035H180.014ZM181.128 27.6035V35H179.863V27.6035H181.128ZM176.131 27.6035H177.402L177.211 31.1719C177.179 31.7233 177.127 32.2109 177.054 32.6348C176.985 33.054 176.89 33.4141 176.767 33.7148C176.648 34.0156 176.498 34.2617 176.315 34.4531C176.138 34.64 175.924 34.779 175.673 34.8701C175.422 34.9567 175.133 35 174.805 35H174.408V33.8857L174.682 33.8652C174.878 33.8516 175.044 33.806 175.181 33.7285C175.322 33.651 175.44 33.5371 175.536 33.3867C175.632 33.2318 175.709 33.0335 175.769 32.792C175.832 32.5505 175.88 32.2633 175.912 31.9307C175.949 31.598 175.976 31.2106 175.994 30.7686L176.131 27.6035ZM184.532 32.9971L187.943 27.6035H189.215V35H187.943V29.6064L184.532 35H183.274V27.6035H184.532V32.9971ZM194.007 31.4658H192.646V30.6865H193.904C194.255 30.6865 194.533 30.6432 194.738 30.5566C194.943 30.4655 195.089 30.3402 195.176 30.1807C195.262 30.0212 195.306 29.8343 195.306 29.6201C195.306 29.4287 195.256 29.2487 195.155 29.0801C195.06 28.9069 194.905 28.7679 194.69 28.6631C194.476 28.5537 194.189 28.499 193.829 28.499C193.537 28.499 193.273 28.5514 193.036 28.6562C192.799 28.7565 192.61 28.8955 192.469 29.0732C192.332 29.2464 192.264 29.4424 192.264 29.6611H190.999C190.999 29.21 191.127 28.8226 191.382 28.499C191.642 28.1709 191.986 27.918 192.414 27.7402C192.847 27.5625 193.319 27.4736 193.829 27.4736C194.257 27.4736 194.64 27.5215 194.978 27.6172C195.319 27.7083 195.609 27.8451 195.846 28.0273C196.083 28.2051 196.263 28.4284 196.386 28.6973C196.513 28.9616 196.577 29.2692 196.577 29.6201C196.577 29.8708 196.518 30.1077 196.399 30.3311C196.281 30.5544 196.11 30.7526 195.887 30.9258C195.663 31.0944 195.392 31.2266 195.073 31.3223C194.759 31.418 194.403 31.4658 194.007 31.4658ZM192.646 30.9873H194.007C194.449 30.9873 194.839 31.0306 195.176 31.1172C195.513 31.1992 195.796 31.3223 196.023 31.4863C196.251 31.6504 196.422 31.8532 196.536 32.0947C196.655 32.3317 196.714 32.6051 196.714 32.915C196.714 33.2614 196.643 33.5736 196.502 33.8516C196.365 34.125 196.169 34.3574 195.914 34.5488C195.659 34.7402 195.354 34.8861 194.998 34.9863C194.647 35.0866 194.257 35.1367 193.829 35.1367C193.351 35.1367 192.886 35.0547 192.435 34.8906C191.983 34.7266 191.612 34.4736 191.32 34.1318C191.029 33.7855 190.883 33.3457 190.883 32.8125H192.147C192.147 33.0358 192.218 33.2477 192.359 33.4482C192.501 33.6488 192.697 33.8105 192.947 33.9336C193.202 34.0566 193.496 34.1182 193.829 34.1182C194.185 34.1182 194.481 34.0635 194.718 33.9541C194.955 33.8447 195.132 33.6989 195.251 33.5166C195.374 33.3343 195.436 33.1361 195.436 32.9219C195.436 32.6439 195.381 32.4206 195.271 32.252C195.162 32.0833 194.993 31.9603 194.766 31.8828C194.542 31.8008 194.255 31.7598 193.904 31.7598H192.646V30.9873ZM202.716 33.7354V29.9277C202.716 29.6361 202.657 29.3831 202.538 29.1689C202.424 28.9502 202.251 28.7816 202.019 28.6631C201.786 28.5446 201.499 28.4854 201.157 28.4854C200.838 28.4854 200.558 28.54 200.316 28.6494C200.079 28.7588 199.893 28.9023 199.756 29.0801C199.624 29.2578 199.558 29.4492 199.558 29.6543H198.293C198.293 29.39 198.361 29.1279 198.498 28.8682C198.635 28.6084 198.831 28.3737 199.086 28.1641C199.346 27.9499 199.656 27.7812 200.016 27.6582C200.38 27.5306 200.786 27.4668 201.232 27.4668C201.77 27.4668 202.244 27.5579 202.654 27.7402C203.069 27.9225 203.393 28.1982 203.625 28.5674C203.862 28.932 203.98 29.39 203.98 29.9414V33.3867C203.98 33.6328 204.001 33.8949 204.042 34.1729C204.088 34.4508 204.154 34.6901 204.24 34.8906V35H202.921C202.857 34.8542 202.807 34.6605 202.771 34.4189C202.734 34.1729 202.716 33.945 202.716 33.7354ZM202.935 30.5156L202.948 31.4043H201.67C201.31 31.4043 200.989 31.4339 200.706 31.4932C200.424 31.5479 200.187 31.6322 199.995 31.7461C199.804 31.86 199.658 32.0036 199.558 32.1768C199.457 32.3454 199.407 32.5436 199.407 32.7715C199.407 33.0039 199.46 33.2158 199.564 33.4072C199.669 33.5986 199.826 33.7513 200.036 33.8652C200.25 33.9746 200.512 34.0293 200.822 34.0293C201.21 34.0293 201.551 33.9473 201.848 33.7832C202.144 33.6191 202.379 33.4186 202.552 33.1816C202.729 32.9447 202.825 32.7145 202.839 32.4912L203.379 33.0996C203.347 33.291 203.26 33.5029 203.119 33.7354C202.978 33.9678 202.789 34.1911 202.552 34.4053C202.319 34.6149 202.041 34.7904 201.718 34.9316C201.399 35.0684 201.039 35.1367 200.638 35.1367C200.136 35.1367 199.697 35.0387 199.318 34.8428C198.945 34.6468 198.653 34.3848 198.443 34.0566C198.238 33.724 198.136 33.3525 198.136 32.9424C198.136 32.5459 198.213 32.1973 198.368 31.8965C198.523 31.5911 198.746 31.3382 199.038 31.1377C199.33 30.9326 199.681 30.7777 200.091 30.6729C200.501 30.568 200.959 30.5156 201.465 30.5156H202.935ZM206.079 35V27.6035H207.344V33.9609H210.748V27.6035H212.02V35H206.079ZM212.895 33.9609L212.771 37.1943H211.644V35H210.68V33.9609H212.895ZM215.636 32.9971L219.047 27.6035H220.318V35H219.047V29.6064L215.636 35H214.378V27.6035H215.636V32.9971ZM223.846 31.4727H225.213L223.073 35H221.706L223.846 31.4727ZM224.905 27.6035H227.995V35H226.73V28.6289H224.905C224.545 28.6289 224.251 28.6904 224.023 28.8135C223.796 28.932 223.629 29.0869 223.524 29.2783C223.42 29.4697 223.367 29.668 223.367 29.873C223.367 30.0736 223.415 30.2673 223.511 30.4541C223.606 30.6364 223.757 30.7868 223.962 30.9053C224.167 31.0238 224.431 31.083 224.755 31.083H227.072V32.1221H224.755C224.331 32.1221 223.955 32.0651 223.627 31.9512C223.299 31.8372 223.021 31.68 222.793 31.4795C222.565 31.2744 222.392 31.0352 222.273 30.7617C222.155 30.4837 222.096 30.1829 222.096 29.8594C222.096 29.5358 222.157 29.2373 222.28 28.9639C222.408 28.6904 222.59 28.4512 222.827 28.2461C223.069 28.041 223.363 27.8838 223.709 27.7744C224.06 27.6605 224.459 27.6035 224.905 27.6035ZM238.434 27.6035V28.6494H234.694V27.6035H238.434ZM234.879 27.6035V35H233.614V27.6035H234.879ZM239.555 27.6035V35H238.283V27.6035H239.555ZM246.527 27.6035V28.6494H242.952V27.6035H246.527ZM247.642 27.6035V35H246.377V27.6035H247.642ZM242.645 27.6035H243.916L243.725 31.1719C243.693 31.7233 243.64 32.2109 243.567 32.6348C243.499 33.054 243.403 33.4141 243.28 33.7148C243.162 34.0156 243.011 34.2617 242.829 34.4531C242.651 34.64 242.437 34.779 242.187 34.8701C241.936 34.9567 241.646 35 241.318 35H240.922V33.8857L241.195 33.8652C241.391 33.8516 241.558 33.806 241.694 33.7285C241.836 33.651 241.954 33.5371 242.05 33.3867C242.146 33.2318 242.223 33.0335 242.282 32.792C242.346 32.5505 242.394 32.2633 242.426 31.9307C242.462 31.598 242.49 31.2106 242.508 30.7686L242.645 27.6035ZM254.04 33.7354V29.9277C254.04 29.6361 253.981 29.3831 253.862 29.1689C253.748 28.9502 253.575 28.7816 253.343 28.6631C253.11 28.5446 252.823 28.4854 252.481 28.4854C252.162 28.4854 251.882 28.54 251.641 28.6494C251.404 28.7588 251.217 28.9023 251.08 29.0801C250.948 29.2578 250.882 29.4492 250.882 29.6543H249.617C249.617 29.39 249.686 29.1279 249.822 28.8682C249.959 28.6084 250.155 28.3737 250.41 28.1641C250.67 27.9499 250.98 27.7812 251.34 27.6582C251.704 27.5306 252.11 27.4668 252.557 27.4668C253.094 27.4668 253.568 27.5579 253.979 27.7402C254.393 27.9225 254.717 28.1982 254.949 28.5674C255.186 28.932 255.305 29.39 255.305 29.9414V33.3867C255.305 33.6328 255.325 33.8949 255.366 34.1729C255.412 34.4508 255.478 34.6901 255.564 34.8906V35H254.245C254.181 34.8542 254.131 34.6605 254.095 34.4189C254.058 34.1729 254.04 33.945 254.04 33.7354ZM254.259 30.5156L254.272 31.4043H252.994C252.634 31.4043 252.313 31.4339 252.03 31.4932C251.748 31.5479 251.511 31.6322 251.319 31.7461C251.128 31.86 250.982 32.0036 250.882 32.1768C250.782 32.3454 250.731 32.5436 250.731 32.7715C250.731 33.0039 250.784 33.2158 250.889 33.4072C250.993 33.5986 251.151 33.7513 251.36 33.8652C251.575 33.9746 251.837 34.0293 252.146 34.0293C252.534 34.0293 252.876 33.9473 253.172 33.7832C253.468 33.6191 253.703 33.4186 253.876 33.1816C254.054 32.9447 254.149 32.7145 254.163 32.4912L254.703 33.0996C254.671 33.291 254.585 33.5029 254.443 33.7354C254.302 33.9678 254.113 34.1911 253.876 34.4053C253.644 34.6149 253.366 34.7904 253.042 34.9316C252.723 35.0684 252.363 35.1367 251.962 35.1367C251.461 35.1367 251.021 35.0387 250.643 34.8428C250.269 34.6468 249.977 34.3848 249.768 34.0566C249.562 33.724 249.46 33.3525 249.46 32.9424C249.46 32.5459 249.537 32.1973 249.692 31.8965C249.847 31.5911 250.071 31.3382 250.362 31.1377C250.654 30.9326 251.005 30.7777 251.415 30.6729C251.825 30.568 252.283 30.5156 252.789 30.5156H254.259ZM262.312 30.8096V31.835H258.401V30.8096H262.312ZM258.668 27.6035V35H257.403V27.6035H258.668ZM263.337 27.6035V35H262.065V27.6035H263.337ZM269.735 33.7354V29.9277C269.735 29.6361 269.676 29.3831 269.558 29.1689C269.444 28.9502 269.271 28.7816 269.038 28.6631C268.806 28.5446 268.519 28.4854 268.177 28.4854C267.858 28.4854 267.577 28.54 267.336 28.6494C267.099 28.7588 266.912 28.9023 266.775 29.0801C266.643 29.2578 266.577 29.4492 266.577 29.6543H265.312C265.312 29.39 265.381 29.1279 265.518 28.8682C265.654 28.6084 265.85 28.3737 266.105 28.1641C266.365 27.9499 266.675 27.7812 267.035 27.6582C267.4 27.5306 267.805 27.4668 268.252 27.4668C268.79 27.4668 269.264 27.5579 269.674 27.7402C270.089 27.9225 270.412 28.1982 270.645 28.5674C270.882 28.932 271 29.39 271 29.9414V33.3867C271 33.6328 271.021 33.8949 271.062 34.1729C271.107 34.4508 271.173 34.6901 271.26 34.8906V35H269.94C269.877 34.8542 269.826 34.6605 269.79 34.4189C269.754 34.1729 269.735 33.945 269.735 33.7354ZM269.954 30.5156L269.968 31.4043H268.689C268.329 31.4043 268.008 31.4339 267.726 31.4932C267.443 31.5479 267.206 31.6322 267.015 31.7461C266.823 31.86 266.677 32.0036 266.577 32.1768C266.477 32.3454 266.427 32.5436 266.427 32.7715C266.427 33.0039 266.479 33.2158 266.584 33.4072C266.689 33.5986 266.846 33.7513 267.056 33.8652C267.27 33.9746 267.532 34.0293 267.842 34.0293C268.229 34.0293 268.571 33.9473 268.867 33.7832C269.163 33.6191 269.398 33.4186 269.571 33.1816C269.749 32.9447 269.845 32.7145 269.858 32.4912L270.398 33.0996C270.367 33.291 270.28 33.5029 270.139 33.7354C269.997 33.9678 269.808 34.1911 269.571 34.4053C269.339 34.6149 269.061 34.7904 268.737 34.9316C268.418 35.0684 268.058 35.1367 267.657 35.1367C267.156 35.1367 266.716 35.0387 266.338 34.8428C265.964 34.6468 265.673 34.3848 265.463 34.0566C265.258 33.724 265.155 33.3525 265.155 32.9424C265.155 32.5459 265.233 32.1973 265.388 31.8965C265.543 31.5911 265.766 31.3382 266.058 31.1377C266.349 30.9326 266.7 30.7777 267.11 30.6729C267.521 30.568 267.979 30.5156 268.484 30.5156H269.954ZM115.893 47.6035V48.6494H112.153V47.6035H115.893ZM112.338 47.6035V55H111.073V47.6035H112.338ZM117.014 47.6035V55H115.742V47.6035H117.014ZM120.309 49.0254V57.8438H119.037V47.6035H120.199L120.309 49.0254ZM125.292 51.2402V51.3838C125.292 51.9215 125.228 52.4206 125.101 52.8809C124.973 53.3366 124.786 53.7331 124.54 54.0703C124.299 54.4076 124 54.6696 123.645 54.8564C123.289 55.0433 122.881 55.1367 122.421 55.1367C121.951 55.1367 121.537 55.0592 121.177 54.9043C120.817 54.7493 120.511 54.5238 120.261 54.2275C120.01 53.9313 119.81 53.5758 119.659 53.1611C119.513 52.7464 119.413 52.2793 119.358 51.7598V50.9941C119.413 50.4473 119.516 49.9574 119.666 49.5244C119.816 49.0915 120.015 48.7223 120.261 48.417C120.511 48.1071 120.814 47.8724 121.17 47.7129C121.525 47.5488 121.936 47.4668 122.4 47.4668C122.865 47.4668 123.278 47.5579 123.638 47.7402C123.998 47.918 124.301 48.1732 124.547 48.5059C124.793 48.8385 124.978 49.2373 125.101 49.7021C125.228 50.1624 125.292 50.6751 125.292 51.2402ZM124.021 51.3838V51.2402C124.021 50.8711 123.982 50.5247 123.904 50.2012C123.827 49.873 123.706 49.5859 123.542 49.3398C123.382 49.0892 123.177 48.8932 122.927 48.752C122.676 48.6061 122.378 48.5332 122.031 48.5332C121.712 48.5332 121.434 48.5879 121.197 48.6973C120.965 48.8066 120.767 48.9548 120.603 49.1416C120.438 49.3239 120.304 49.5335 120.199 49.7705C120.099 50.0029 120.024 50.2445 119.974 50.4951V52.2656C120.065 52.5846 120.192 52.8854 120.356 53.168C120.521 53.446 120.739 53.6715 121.013 53.8447C121.286 54.0133 121.63 54.0977 122.045 54.0977C122.387 54.0977 122.681 54.027 122.927 53.8857C123.177 53.7399 123.382 53.5417 123.542 53.291C123.706 53.0404 123.827 52.7533 123.904 52.4297C123.982 52.1016 124.021 51.7529 124.021 51.3838ZM126.57 51.3838V51.2266C126.57 50.6934 126.648 50.1989 126.803 49.7432C126.958 49.2829 127.181 48.8841 127.473 48.5469C127.764 48.2051 128.118 47.9408 128.532 47.7539C128.947 47.5625 129.412 47.4668 129.927 47.4668C130.446 47.4668 130.913 47.5625 131.328 47.7539C131.747 47.9408 132.103 48.2051 132.395 48.5469C132.691 48.8841 132.916 49.2829 133.071 49.7432C133.226 50.1989 133.304 50.6934 133.304 51.2266V51.3838C133.304 51.917 133.226 52.4115 133.071 52.8672C132.916 53.3229 132.691 53.7217 132.395 54.0635C132.103 54.4007 131.75 54.665 131.335 54.8564C130.925 55.0433 130.46 55.1367 129.94 55.1367C129.421 55.1367 128.954 55.0433 128.539 54.8564C128.124 54.665 127.769 54.4007 127.473 54.0635C127.181 53.7217 126.958 53.3229 126.803 52.8672C126.648 52.4115 126.57 51.917 126.57 51.3838ZM127.835 51.2266V51.3838C127.835 51.7529 127.878 52.1016 127.965 52.4297C128.051 52.7533 128.181 53.0404 128.354 53.291C128.532 53.5417 128.753 53.7399 129.018 53.8857C129.282 54.027 129.59 54.0977 129.94 54.0977C130.287 54.0977 130.59 54.027 130.85 53.8857C131.114 53.7399 131.333 53.5417 131.506 53.291C131.679 53.0404 131.809 52.7533 131.896 52.4297C131.987 52.1016 132.032 51.7529 132.032 51.3838V51.2266C132.032 50.862 131.987 50.5179 131.896 50.1943C131.809 49.8662 131.677 49.5768 131.499 49.3262C131.326 49.071 131.107 48.8704 130.843 48.7246C130.583 48.5788 130.278 48.5059 129.927 48.5059C129.58 48.5059 129.275 48.5788 129.011 48.7246C128.751 48.8704 128.532 49.071 128.354 49.3262C128.181 49.5768 128.051 49.8662 127.965 50.1943C127.878 50.5179 127.835 50.862 127.835 51.2266ZM135.73 47.6035H136.995L136.886 50.3721C136.858 51.0739 136.779 51.68 136.646 52.1904C136.514 52.7008 136.346 53.1361 136.141 53.4961C135.936 53.8516 135.705 54.1501 135.45 54.3916C135.2 54.6331 134.94 54.8359 134.671 55H134.042L134.076 53.9678L134.336 53.9609C134.486 53.7832 134.632 53.6009 134.773 53.4141C134.915 53.2227 135.045 52.9971 135.163 52.7373C135.282 52.473 135.38 52.1517 135.457 51.7734C135.539 51.3906 135.591 50.9235 135.614 50.3721L135.73 47.6035ZM136.045 47.6035H140.495V55H139.23V48.7725H136.045V47.6035ZM133.755 53.9609H141.445V57.1807H140.181V55H135.02V57.1807H133.748L133.755 53.9609ZM147.208 53.7354V49.9277C147.208 49.6361 147.149 49.3831 147.03 49.1689C146.916 48.9502 146.743 48.7816 146.511 48.6631C146.278 48.5446 145.991 48.4854 145.649 48.4854C145.33 48.4854 145.05 48.54 144.809 48.6494C144.572 48.7588 144.385 48.9023 144.248 49.0801C144.116 49.2578 144.05 49.4492 144.05 49.6543H142.785C142.785 49.39 142.854 49.1279 142.99 48.8682C143.127 48.6084 143.323 48.3737 143.578 48.1641C143.838 47.9499 144.148 47.7812 144.508 47.6582C144.872 47.5306 145.278 47.4668 145.725 47.4668C146.262 47.4668 146.736 47.5579 147.146 47.7402C147.561 47.9225 147.885 48.1982 148.117 48.5674C148.354 48.932 148.473 49.39 148.473 49.9414V53.3867C148.473 53.6328 148.493 53.8949 148.534 54.1729C148.58 54.4508 148.646 54.6901 148.732 54.8906V55H147.413C147.349 54.8542 147.299 54.6605 147.263 54.4189C147.226 54.1729 147.208 53.945 147.208 53.7354ZM147.427 50.5156L147.44 51.4043H146.162C145.802 51.4043 145.481 51.4339 145.198 51.4932C144.916 51.5479 144.679 51.6322 144.487 51.7461C144.296 51.86 144.15 52.0036 144.05 52.1768C143.95 52.3454 143.899 52.5436 143.899 52.7715C143.899 53.0039 143.952 53.2158 144.057 53.4072C144.161 53.5986 144.319 53.7513 144.528 53.8652C144.743 53.9746 145.005 54.0293 145.314 54.0293C145.702 54.0293 146.044 53.9473 146.34 53.7832C146.636 53.6191 146.871 53.4186 147.044 53.1816C147.222 52.9447 147.317 52.7145 147.331 52.4912L147.871 53.0996C147.839 53.291 147.753 53.5029 147.611 53.7354C147.47 53.9678 147.281 54.1911 147.044 54.4053C146.812 54.6149 146.534 54.7904 146.21 54.9316C145.891 55.0684 145.531 55.1367 145.13 55.1367C144.629 55.1367 144.189 55.0387 143.811 54.8428C143.437 54.6468 143.145 54.3848 142.936 54.0566C142.73 53.724 142.628 53.3525 142.628 52.9424C142.628 52.5459 142.705 52.1973 142.86 51.8965C143.015 51.5911 143.239 51.3382 143.53 51.1377C143.822 50.9326 144.173 50.7777 144.583 50.6729C144.993 50.568 145.451 50.5156 145.957 50.5156H147.427ZM152.704 51.7803L149.901 47.6035H151.426L153.34 50.666H154.816L154.632 51.7803H152.704ZM153.395 51.6504L151.248 55H149.648L152.595 50.7344L153.395 51.6504ZM155.466 47.6035V55H154.201V47.6035H155.466ZM159.779 47.6035L156.977 51.7803H155.049L154.851 50.666H156.334L158.248 47.6035H159.779ZM158.426 55L156.272 51.6504L157.086 50.7344L160.025 55H158.426ZM169.685 50.8096V51.835H165.774V50.8096H169.685ZM166.041 47.6035V55H164.776V47.6035H166.041ZM170.71 47.6035V55H169.438V47.6035H170.71ZM177.108 53.7354V49.9277C177.108 49.6361 177.049 49.3831 176.931 49.1689C176.817 48.9502 176.644 48.7816 176.411 48.6631C176.179 48.5446 175.892 48.4854 175.55 48.4854C175.231 48.4854 174.951 48.54 174.709 48.6494C174.472 48.7588 174.285 48.9023 174.148 49.0801C174.016 49.2578 173.95 49.4492 173.95 49.6543H172.686C172.686 49.39 172.754 49.1279 172.891 48.8682C173.027 48.6084 173.223 48.3737 173.479 48.1641C173.738 47.9499 174.048 47.7812 174.408 47.6582C174.773 47.5306 175.178 47.4668 175.625 47.4668C176.163 47.4668 176.637 47.5579 177.047 47.7402C177.462 47.9225 177.785 48.1982 178.018 48.5674C178.255 48.932 178.373 49.39 178.373 49.9414V53.3867C178.373 53.6328 178.394 53.8949 178.435 54.1729C178.48 54.4508 178.546 54.6901 178.633 54.8906V55H177.313C177.25 54.8542 177.2 54.6605 177.163 54.4189C177.127 54.1729 177.108 53.945 177.108 53.7354ZM177.327 50.5156L177.341 51.4043H176.062C175.702 51.4043 175.381 51.4339 175.099 51.4932C174.816 51.5479 174.579 51.6322 174.388 51.7461C174.196 51.86 174.05 52.0036 173.95 52.1768C173.85 52.3454 173.8 52.5436 173.8 52.7715C173.8 53.0039 173.852 53.2158 173.957 53.4072C174.062 53.5986 174.219 53.7513 174.429 53.8652C174.643 53.9746 174.905 54.0293 175.215 54.0293C175.602 54.0293 175.944 53.9473 176.24 53.7832C176.536 53.6191 176.771 53.4186 176.944 53.1816C177.122 52.9447 177.218 52.7145 177.231 52.4912L177.771 53.0996C177.74 53.291 177.653 53.5029 177.512 53.7354C177.37 53.9678 177.181 54.1911 176.944 54.4053C176.712 54.6149 176.434 54.7904 176.11 54.9316C175.791 55.0684 175.431 55.1367 175.03 55.1367C174.529 55.1367 174.089 55.0387 173.711 54.8428C173.337 54.6468 173.046 54.3848 172.836 54.0566C172.631 53.724 172.528 53.3525 172.528 52.9424C172.528 52.5459 172.606 52.1973 172.761 51.8965C172.916 51.5911 173.139 51.3382 173.431 51.1377C173.722 50.9326 174.073 50.7777 174.483 50.6729C174.894 50.568 175.352 50.5156 175.857 50.5156H177.327ZM115.216 73.3184L117.731 67.6035H118.948L115.653 75H114.778L111.497 67.6035H112.714L115.216 73.3184ZM112.345 67.6035V75H111.08V67.6035H112.345ZM118.046 75V67.6035H119.317V75H118.046ZM125.716 73.7354V69.9277C125.716 69.6361 125.657 69.3831 125.538 69.1689C125.424 68.9502 125.251 68.7816 125.019 68.6631C124.786 68.5446 124.499 68.4854 124.157 68.4854C123.838 68.4854 123.558 68.54 123.316 68.6494C123.079 68.7588 122.893 68.9023 122.756 69.0801C122.624 69.2578 122.558 69.4492 122.558 69.6543H121.293C121.293 69.39 121.361 69.1279 121.498 68.8682C121.635 68.6084 121.831 68.3737 122.086 68.1641C122.346 67.9499 122.656 67.7812 123.016 67.6582C123.38 67.5306 123.786 67.4668 124.232 67.4668C124.77 67.4668 125.244 67.5579 125.654 67.7402C126.069 67.9225 126.393 68.1982 126.625 68.5674C126.862 68.932 126.98 69.39 126.98 69.9414V73.3867C126.98 73.6328 127.001 73.8949 127.042 74.1729C127.088 74.4508 127.154 74.6901 127.24 74.8906V75H125.921C125.857 74.8542 125.807 74.6605 125.771 74.4189C125.734 74.1729 125.716 73.945 125.716 73.7354ZM125.935 70.5156L125.948 71.4043H124.67C124.31 71.4043 123.989 71.4339 123.706 71.4932C123.424 71.5479 123.187 71.6322 122.995 71.7461C122.804 71.86 122.658 72.0036 122.558 72.1768C122.457 72.3454 122.407 72.5436 122.407 72.7715C122.407 73.0039 122.46 73.2158 122.564 73.4072C122.669 73.5986 122.826 73.7513 123.036 73.8652C123.25 73.9746 123.512 74.0293 123.822 74.0293C124.21 74.0293 124.551 73.9473 124.848 73.7832C125.144 73.6191 125.379 73.4186 125.552 73.1816C125.729 72.9447 125.825 72.7145 125.839 72.4912L126.379 73.0996C126.347 73.291 126.26 73.5029 126.119 73.7354C125.978 73.9678 125.789 74.1911 125.552 74.4053C125.319 74.6149 125.041 74.7904 124.718 74.9316C124.399 75.0684 124.039 75.1367 123.638 75.1367C123.136 75.1367 122.697 75.0387 122.318 74.8428C121.945 74.6468 121.653 74.3848 121.443 74.0566C121.238 73.724 121.136 73.3525 121.136 72.9424C121.136 72.5459 121.213 72.1973 121.368 71.8965C121.523 71.5911 121.746 71.3382 122.038 71.1377C122.33 70.9326 122.681 70.7777 123.091 70.6729C123.501 70.568 123.959 70.5156 124.465 70.5156H125.935ZM130.234 69.0254V77.8438H128.963V67.6035H130.125L130.234 69.0254ZM135.218 71.2402V71.3838C135.218 71.9215 135.154 72.4206 135.026 72.8809C134.899 73.3366 134.712 73.7331 134.466 74.0703C134.224 74.4076 133.926 74.6696 133.57 74.8564C133.215 75.0433 132.807 75.1367 132.347 75.1367C131.877 75.1367 131.463 75.0592 131.103 74.9043C130.743 74.7493 130.437 74.5238 130.187 74.2275C129.936 73.9313 129.735 73.5758 129.585 73.1611C129.439 72.7464 129.339 72.2793 129.284 71.7598V70.9941C129.339 70.4473 129.441 69.9574 129.592 69.5244C129.742 69.0915 129.94 68.7223 130.187 68.417C130.437 68.1071 130.74 67.8724 131.096 67.7129C131.451 67.5488 131.861 67.4668 132.326 67.4668C132.791 67.4668 133.203 67.5579 133.563 67.7402C133.924 67.918 134.227 68.1732 134.473 68.5059C134.719 68.8385 134.903 69.2373 135.026 69.7021C135.154 70.1624 135.218 70.6751 135.218 71.2402ZM133.946 71.3838V71.2402C133.946 70.8711 133.908 70.5247 133.83 70.2012C133.753 69.873 133.632 69.5859 133.468 69.3398C133.308 69.0892 133.103 68.8932 132.853 68.752C132.602 68.6061 132.303 68.5332 131.957 68.5332C131.638 68.5332 131.36 68.5879 131.123 68.6973C130.891 68.8066 130.692 68.9548 130.528 69.1416C130.364 69.3239 130.23 69.5335 130.125 69.7705C130.025 70.0029 129.95 70.2445 129.899 70.4951V72.2656C129.991 72.5846 130.118 72.8854 130.282 73.168C130.446 73.446 130.665 73.6715 130.938 73.8447C131.212 74.0133 131.556 74.0977 131.971 74.0977C132.312 74.0977 132.606 74.027 132.853 73.8857C133.103 73.7399 133.308 73.5417 133.468 73.291C133.632 73.0404 133.753 72.7533 133.83 72.4297C133.908 72.1016 133.946 71.7529 133.946 71.3838ZM138.205 67.6035V75H136.94V67.6035H138.205ZM143.059 67.6035L139.552 71.8418H137.781L137.59 70.7344H139.039L141.521 67.6035H143.059ZM141.698 75L138.978 71.6504L139.791 70.7344L143.305 75H141.698ZM147.365 75.1367C146.85 75.1367 146.383 75.0501 145.964 74.877C145.549 74.6992 145.191 74.4508 144.891 74.1318C144.594 73.8128 144.367 73.4346 144.207 72.9971C144.048 72.5596 143.968 72.0811 143.968 71.5615V71.2744C143.968 70.6729 144.057 70.1374 144.234 69.668C144.412 69.194 144.654 68.793 144.959 68.4648C145.264 68.1367 145.611 67.8883 145.998 67.7197C146.385 67.5511 146.786 67.4668 147.201 67.4668C147.73 67.4668 148.186 67.5579 148.568 67.7402C148.956 67.9225 149.272 68.1777 149.519 68.5059C149.765 68.8294 149.947 69.2122 150.065 69.6543C150.184 70.0918 150.243 70.5703 150.243 71.0898V71.6572H144.72V70.625H148.979V70.5293C148.96 70.2012 148.892 69.8822 148.773 69.5723C148.66 69.2624 148.477 69.0072 148.227 68.8066C147.976 68.6061 147.634 68.5059 147.201 68.5059C146.914 68.5059 146.65 68.5674 146.408 68.6904C146.167 68.8089 145.959 68.9867 145.786 69.2236C145.613 69.4606 145.479 69.75 145.383 70.0918C145.287 70.4336 145.239 70.8278 145.239 71.2744V71.5615C145.239 71.9124 145.287 72.2428 145.383 72.5527C145.483 72.8581 145.627 73.127 145.813 73.3594C146.005 73.5918 146.235 73.7741 146.504 73.9062C146.777 74.0384 147.087 74.1045 147.434 74.1045C147.88 74.1045 148.258 74.0133 148.568 73.8311C148.878 73.6488 149.149 73.4049 149.382 73.0996L150.147 73.708C149.988 73.9495 149.785 74.1797 149.539 74.3984C149.293 74.6172 148.99 74.7949 148.63 74.9316C148.274 75.0684 147.853 75.1367 147.365 75.1367ZM154.652 67.6035V75H153.381V67.6035H154.652ZM157.134 67.6035V68.6289H150.947V67.6035H157.134ZM163.307 67.6035V68.6494H159.567V67.6035H163.307ZM159.752 67.6035V75H158.487V67.6035H159.752ZM164.428 67.6035V75H163.156V67.6035H164.428ZM171.4 67.6035V68.6494H167.825V67.6035H171.4ZM172.515 67.6035V75H171.25V67.6035H172.515ZM167.518 67.6035H168.789L168.598 71.1719C168.566 71.7233 168.513 72.2109 168.44 72.6348C168.372 73.054 168.276 73.4141 168.153 73.7148C168.035 74.0156 167.884 74.2617 167.702 74.4531C167.524 74.64 167.31 74.779 167.06 74.8701C166.809 74.9567 166.52 75 166.191 75H165.795V73.8857L166.068 73.8652C166.264 73.8516 166.431 73.806 166.567 73.7285C166.709 73.651 166.827 73.5371 166.923 73.3867C167.019 73.2318 167.096 73.0335 167.155 72.792C167.219 72.5505 167.267 72.2633 167.299 71.9307C167.335 71.598 167.363 71.2106 167.381 70.7686L167.518 67.6035ZM177.621 75.1367C177.106 75.1367 176.639 75.0501 176.22 74.877C175.805 74.6992 175.447 74.4508 175.146 74.1318C174.85 73.8128 174.622 73.4346 174.463 72.9971C174.303 72.5596 174.224 72.0811 174.224 71.5615V71.2744C174.224 70.6729 174.312 70.1374 174.49 69.668C174.668 69.194 174.91 68.793 175.215 68.4648C175.52 68.1367 175.867 67.8883 176.254 67.7197C176.641 67.5511 177.042 67.4668 177.457 67.4668C177.986 67.4668 178.441 67.5579 178.824 67.7402C179.212 67.9225 179.528 68.1777 179.774 68.5059C180.021 68.8294 180.203 69.2122 180.321 69.6543C180.44 70.0918 180.499 70.5703 180.499 71.0898V71.6572H174.976V70.625H179.234V70.5293C179.216 70.2012 179.148 69.8822 179.029 69.5723C178.915 69.2624 178.733 69.0072 178.482 68.8066C178.232 68.6061 177.89 68.5059 177.457 68.5059C177.17 68.5059 176.906 68.5674 176.664 68.6904C176.423 68.8089 176.215 68.9867 176.042 69.2236C175.869 69.4606 175.734 69.75 175.639 70.0918C175.543 70.4336 175.495 70.8278 175.495 71.2744V71.5615C175.495 71.9124 175.543 72.2428 175.639 72.5527C175.739 72.8581 175.882 73.127 176.069 73.3594C176.261 73.5918 176.491 73.7741 176.76 73.9062C177.033 74.0384 177.343 74.1045 177.689 74.1045C178.136 74.1045 178.514 74.0133 178.824 73.8311C179.134 73.6488 179.405 73.4049 179.638 73.0996L180.403 73.708C180.244 73.9495 180.041 74.1797 179.795 74.3984C179.549 74.6172 179.246 74.7949 178.886 74.9316C178.53 75.0684 178.109 75.1367 177.621 75.1367ZM183.343 72.9971L186.754 67.6035H188.025V75H186.754V69.6064L183.343 75H182.085V67.6035H183.343V72.9971ZM186.063 64.9238H187.089C187.089 65.2793 187.007 65.596 186.843 65.874C186.679 66.1475 186.444 66.3617 186.139 66.5166C185.833 66.6715 185.471 66.749 185.052 66.749C184.418 66.749 183.917 66.5804 183.548 66.2432C183.183 65.9014 183.001 65.4616 183.001 64.9238H184.026C184.026 65.1927 184.104 65.4297 184.259 65.6348C184.414 65.8398 184.678 65.9424 185.052 65.9424C185.416 65.9424 185.676 65.8398 185.831 65.6348C185.986 65.4297 186.063 65.1927 186.063 64.9238ZM193.016 74.0977C193.316 74.0977 193.594 74.0361 193.85 73.9131C194.105 73.79 194.314 73.6214 194.479 73.4072C194.643 73.1885 194.736 72.9401 194.759 72.6621H195.962C195.939 73.0996 195.791 73.5075 195.518 73.8857C195.249 74.2594 194.896 74.5625 194.458 74.7949C194.021 75.0228 193.54 75.1367 193.016 75.1367C192.46 75.1367 191.974 75.0387 191.56 74.8428C191.149 74.6468 190.808 74.3779 190.534 74.0361C190.265 73.6943 190.062 73.3024 189.926 72.8604C189.794 72.4137 189.728 71.9421 189.728 71.4453V71.1582C189.728 70.6615 189.794 70.1921 189.926 69.75C190.062 69.3034 190.265 68.9092 190.534 68.5674C190.808 68.2256 191.149 67.9567 191.56 67.7607C191.974 67.5648 192.46 67.4668 193.016 67.4668C193.594 67.4668 194.1 67.5853 194.533 67.8223C194.966 68.0547 195.306 68.3737 195.552 68.7793C195.802 69.1803 195.939 69.6361 195.962 70.1465H194.759C194.736 69.8411 194.649 69.5654 194.499 69.3193C194.353 69.0732 194.153 68.8773 193.897 68.7314C193.647 68.5811 193.353 68.5059 193.016 68.5059C192.628 68.5059 192.302 68.5833 192.038 68.7383C191.778 68.8887 191.571 69.0938 191.416 69.3535C191.266 69.6087 191.156 69.8936 191.088 70.208C191.024 70.5179 190.992 70.8346 190.992 71.1582V71.4453C190.992 71.7689 191.024 72.0879 191.088 72.4023C191.152 72.7168 191.259 73.0016 191.409 73.2568C191.564 73.512 191.771 73.7171 192.031 73.8721C192.296 74.0225 192.624 74.0977 193.016 74.0977ZM201.745 73.7354V69.9277C201.745 69.6361 201.686 69.3831 201.567 69.1689C201.453 68.9502 201.28 68.7816 201.048 68.6631C200.815 68.5446 200.528 68.4854 200.187 68.4854C199.868 68.4854 199.587 68.54 199.346 68.6494C199.109 68.7588 198.922 68.9023 198.785 69.0801C198.653 69.2578 198.587 69.4492 198.587 69.6543H197.322C197.322 69.39 197.391 69.1279 197.527 68.8682C197.664 68.6084 197.86 68.3737 198.115 68.1641C198.375 67.9499 198.685 67.7812 199.045 67.6582C199.41 67.5306 199.815 67.4668 200.262 67.4668C200.799 67.4668 201.273 67.5579 201.684 67.7402C202.098 67.9225 202.422 68.1982 202.654 68.5674C202.891 68.932 203.01 69.39 203.01 69.9414V73.3867C203.01 73.6328 203.03 73.8949 203.071 74.1729C203.117 74.4508 203.183 74.6901 203.27 74.8906V75H201.95C201.886 74.8542 201.836 74.6605 201.8 74.4189C201.763 74.1729 201.745 73.945 201.745 73.7354ZM201.964 70.5156L201.978 71.4043H200.699C200.339 71.4043 200.018 71.4339 199.735 71.4932C199.453 71.5479 199.216 71.6322 199.024 71.7461C198.833 71.86 198.687 72.0036 198.587 72.1768C198.487 72.3454 198.437 72.5436 198.437 72.7715C198.437 73.0039 198.489 73.2158 198.594 73.4072C198.699 73.5986 198.856 73.7513 199.065 73.8652C199.28 73.9746 199.542 74.0293 199.852 74.0293C200.239 74.0293 200.581 73.9473 200.877 73.7832C201.173 73.6191 201.408 73.4186 201.581 73.1816C201.759 72.9447 201.854 72.7145 201.868 72.4912L202.408 73.0996C202.376 73.291 202.29 73.5029 202.148 73.7354C202.007 73.9678 201.818 74.1911 201.581 74.4053C201.349 74.6149 201.071 74.7904 200.747 74.9316C200.428 75.0684 200.068 75.1367 199.667 75.1367C199.166 75.1367 198.726 75.0387 198.348 74.8428C197.974 74.6468 197.682 74.3848 197.473 74.0566C197.268 73.724 197.165 73.3525 197.165 72.9424C197.165 72.5459 197.243 72.1973 197.397 71.8965C197.552 71.5911 197.776 71.3382 198.067 71.1377C198.359 70.9326 198.71 70.7777 199.12 70.6729C199.53 70.568 199.988 70.5156 200.494 70.5156H201.964ZM205.854 67.6035L207.474 70.2969L209.114 67.6035H210.598L208.178 71.2539L210.673 75H209.21L207.501 72.2246L205.792 75H204.322L206.811 71.2539L204.397 67.6035H205.854Z" fill="black"/>
<path d="M85 45.3469L59 45.3469" stroke="#00A3FF" stroke-miterlimit="10" stroke-linecap="round"/>
<path d="M80 44.8235C79.9954 46.3078 80.4313 47.7602 81.2526 48.9966C82.0739 50.2331 83.2436 51.198 84.6136 51.7693C85.9837 52.3405 87.4924 52.4924 88.9488 52.2057C90.4052 51.9189 91.7437 51.2065 92.795 50.1585C93.8462 49.1106 94.5629 47.7742 94.8542 46.3187C95.1455 44.8632 94.9983 43.354 94.4313 41.9822C93.8644 40.6104 92.9031 39.4377 91.6692 38.6126C90.4354 37.7874 88.9844 37.3469 87.5 37.3469C85.515 37.3469 83.6108 38.1339 82.205 39.5353C80.7991 40.9368 80.0062 42.8384 80 44.8235V44.8235Z" fill="#00A3FF"/>
<path d="M87.4766 47.7532C85.8586 47.7532 84.5469 46.4415 84.5469 44.8235C84.5469 43.2055 85.8586 41.8938 87.4766 41.8938C89.0946 41.8938 90.4062 43.2055 90.4062 44.8235C90.4062 46.4415 89.0946 47.7532 87.4766 47.7532Z" fill="white"/>
<defs>
<filter id="filter0_d_315_308" x="262.322" y="3.66943" width="83.3555" height="83.3555" filterUnits="userSpaceOnUse" color-interpolation-filters="sRGB">
<feFlood flood-opacity="0" result="BackgroundImageFix"/>
<feColorMatrix in="SourceAlpha" type="matrix" values="0 0 0 0 0 0 0 0 0 0 0 0 0 0 0 0 0 0 127 0" result="hardAlpha"/>
<feOffset/>
<feGaussianBlur stdDeviation="12"/>
<feComposite in2="hardAlpha" operator="out"/>
<feColorMatrix type="matrix" values="0 0 0 0 0.579167 0 0 0 0 0.579167 0 0 0 0 0.579167 0 0 0 0.3 0"/>
<feBlend mode="normal" in2="BackgroundImageFix" result="effect1_dropShadow_315_308"/>
<feBlend mode="normal" in="SourceGraphic" in2="effect1_dropShadow_315_308" result="shape"/>
</filter>
</defs>
</svg>
