<svg width="672" height="125" viewBox="0 0 672 125" fill="none" xmlns="http://www.w3.org/2000/svg">
<path d="M175.294 65L57.2942 65" stroke="#00A3FF" stroke-miterlimit="10" stroke-linecap="round"/>
<g filter="url(#filter0_d_802_839)">
<path d="M32.5736 85.7313C21.2112 74.3742 21.2111 55.9607 32.5736 44.6036C43.936 33.2466 62.3582 33.2466 73.7207 44.6037C85.0831 55.9607 85.0831 74.3742 73.7207 85.7313C62.3582 97.0884 43.9361 97.0884 32.5736 85.7313Z" fill="white"/>
</g>
<path d="M44.0534 65.1644C44.0481 66.8871 44.5533 68.5727 45.5053 70.0088C46.4572 71.4448 47.8133 72.5669 49.4025 73.2335C50.9917 73.9002 52.7428 74.0815 54.435 73.7546C56.1271 73.4278 57.6846 72.6073 58.9108 71.3968C60.1371 70.1863 60.9772 68.64 61.3253 66.9528C61.6734 65.2657 61.5138 63.5133 60.8667 61.9166C60.2196 60.32 59.114 58.9507 57.6892 57.9813C56.2645 57.012 54.5845 56.4861 52.8611 56.4699C51.7096 56.4555 50.5668 56.6697 49.4988 57.1002C48.4308 57.5307 47.459 58.1688 46.6396 58.9776C45.8203 59.7864 45.1698 60.7498 44.7258 61.8118C44.2819 62.8739 44.0534 64.0134 44.0534 65.1644Z" fill="#00A3FF"/>
<path d="M52.7519 68.5712C50.8694 68.5712 49.3434 67.0459 49.3434 65.1643C49.3434 63.2827 50.8694 61.7573 52.7519 61.7573C54.6344 61.7573 56.1604 63.2827 56.1604 65.1643C56.1604 67.0459 54.6344 68.5712 52.7519 68.5712Z" fill="white"/>
<path d="M172.842 65.1642C172.837 66.8904 173.344 68.5793 174.3 70.0172C175.255 71.4551 176.616 72.5772 178.21 73.2415C179.804 73.9058 181.559 74.0824 183.254 73.749C184.948 73.4155 186.506 72.587 187.729 71.3684C188.952 70.1497 189.786 68.5957 190.125 66.9031C190.463 65.2105 190.292 63.4554 189.633 61.8601C188.973 60.2649 187.855 58.9011 186.419 57.9415C184.983 56.982 183.295 56.4697 181.568 56.4697C179.259 56.4697 177.043 57.3849 175.408 59.0146C173.772 60.6444 172.85 62.8558 172.842 65.1642Z" fill="#00A3FF"/>
<path d="M181.541 68.5712C179.658 68.5712 178.132 67.0459 178.132 65.1643C178.132 63.2827 179.658 61.7573 181.541 61.7573C183.423 61.7573 184.949 63.2827 184.949 65.1643C184.949 67.0459 183.423 68.5712 181.541 68.5712Z" fill="white"/>
<path d="M640.304 93.2599C657.481 76.0913 657.481 48.2554 640.304 31.0867C623.127 13.9181 595.278 13.918 578.102 31.0867C560.925 48.2553 560.925 76.0913 578.102 93.26C595.278 110.429 623.128 110.429 640.304 93.2599Z" fill="#00A3FF"/>
<path d="M596.403 48.1655H601.403V76.1733H595.406V55.7827H590.602V51.9741C591.461 51.87 592.249 51.6681 592.965 51.3687C593.681 51.0562 594.235 50.7241 594.625 50.3726C595.029 50.021 595.367 49.6825 595.641 49.3569C595.927 49.0184 596.129 48.7319 596.246 48.4976L596.403 48.1655ZM626.012 76.1733H606.422C606.422 74.116 606.754 72.2541 607.418 70.5874C608.082 68.9207 608.909 67.6056 609.899 66.6421C610.888 65.6655 611.962 64.741 613.121 63.8687C614.28 62.9832 615.348 62.2345 616.324 61.6226C617.314 60.9976 618.141 60.2749 618.805 59.4546C619.482 58.6213 619.821 57.7293 619.821 56.7788C619.821 55.659 619.469 54.7801 618.766 54.1421C618.076 53.491 617.093 53.1655 615.817 53.1655C614.801 53.1655 613.922 53.452 613.18 54.0249C612.451 54.5978 611.969 55.1642 611.735 55.7241L611.422 56.564L606.422 54.1812C606.474 53.9989 606.559 53.758 606.676 53.4585C606.793 53.159 607.106 52.6317 607.614 51.8765C608.121 51.1082 608.707 50.4377 609.371 49.8647C610.035 49.2918 610.973 48.771 612.184 48.3022C613.408 47.8205 614.749 47.5796 616.207 47.5796C619.059 47.5796 621.403 48.4455 623.239 50.1772C625.087 51.909 626.012 54.0379 626.012 56.564C626.012 57.9832 625.706 59.2723 625.094 60.4312C624.482 61.59 623.681 62.5796 622.692 63.3999C621.702 64.2072 620.686 64.9559 619.645 65.646C618.616 66.3231 617.561 67.0978 616.481 67.9702C615.4 68.8296 614.58 69.6955 614.02 70.5679H626.012V76.1733Z" fill="white"/>
<path d="M242.711 56.3472H239.648L239.632 55.0605H242.412C242.872 55.0605 243.273 54.9831 243.616 54.8281C243.959 54.6732 244.225 54.4518 244.413 54.1641C244.607 53.8708 244.703 53.5221 244.703 53.1182C244.703 52.6755 244.618 52.3158 244.446 52.0391C244.28 51.7568 244.023 51.5521 243.674 51.4248C243.331 51.292 242.894 51.2256 242.363 51.2256H240.005V62H238.403V49.9141H242.363C242.982 49.9141 243.536 49.9777 244.023 50.105C244.51 50.2267 244.922 50.4204 245.26 50.686C245.603 50.9461 245.863 51.2782 246.04 51.6821C246.217 52.0861 246.305 52.5703 246.305 53.1348C246.305 53.6328 246.178 54.0838 245.924 54.4878C245.669 54.8862 245.315 55.2127 244.861 55.4673C244.413 55.7218 243.887 55.8851 243.284 55.957L242.711 56.3472ZM242.636 62H239.017L239.922 60.6968H242.636C243.146 60.6968 243.577 60.6082 243.931 60.4312C244.291 60.2541 244.565 60.005 244.753 59.6841C244.941 59.3576 245.035 58.973 245.035 58.5303C245.035 58.082 244.955 57.6947 244.795 57.3682C244.634 57.0417 244.382 56.7899 244.039 56.6128C243.696 56.4357 243.253 56.3472 242.711 56.3472H240.428L240.445 55.0605H243.566L243.906 55.5254C244.488 55.5752 244.98 55.7412 245.384 56.0234C245.788 56.3001 246.095 56.6543 246.305 57.0859C246.521 57.5176 246.629 57.9935 246.629 58.5137C246.629 59.2663 246.463 59.9027 246.131 60.4229C245.805 60.9375 245.343 61.3304 244.745 61.6016C244.147 61.8672 243.444 62 242.636 62ZM249.8 53.0186L251.767 56.2891L253.76 53.0186H255.561L252.622 57.4512L255.652 62H253.876L251.801 58.6299L249.725 62H247.941L250.962 57.4512L248.032 53.0186H249.8ZM256.623 57.6089V57.418C256.623 56.7705 256.717 56.1701 256.906 55.6167C257.094 55.0578 257.365 54.5736 257.719 54.1641C258.073 53.749 258.502 53.4281 259.006 53.2012C259.509 52.9688 260.074 52.8525 260.699 52.8525C261.33 52.8525 261.897 52.9688 262.401 53.2012C262.91 53.4281 263.341 53.749 263.696 54.1641C264.055 54.5736 264.329 55.0578 264.517 55.6167C264.705 56.1701 264.8 56.7705 264.8 57.418V57.6089C264.8 58.2563 264.705 58.8568 264.517 59.4102C264.329 59.9635 264.055 60.4478 263.696 60.8628C263.341 61.2723 262.913 61.5933 262.409 61.8257C261.911 62.0526 261.346 62.166 260.716 62.166C260.085 62.166 259.517 62.0526 259.014 61.8257C258.51 61.5933 258.079 61.2723 257.719 60.8628C257.365 60.4478 257.094 59.9635 256.906 59.4102C256.717 58.8568 256.623 58.2563 256.623 57.6089ZM258.159 57.418V57.6089C258.159 58.0571 258.212 58.4805 258.317 58.8789C258.422 59.2718 258.58 59.6204 258.79 59.9248C259.006 60.2292 259.274 60.4699 259.595 60.647C259.916 60.8185 260.289 60.9043 260.716 60.9043C261.136 60.9043 261.504 60.8185 261.82 60.647C262.141 60.4699 262.406 60.2292 262.616 59.9248C262.827 59.6204 262.984 59.2718 263.09 58.8789C263.2 58.4805 263.256 58.0571 263.256 57.6089V57.418C263.256 56.9753 263.2 56.5575 263.09 56.1646C262.984 55.7661 262.824 55.4147 262.608 55.1104C262.398 54.8005 262.132 54.557 261.811 54.3799C261.496 54.2028 261.125 54.1143 260.699 54.1143C260.278 54.1143 259.908 54.2028 259.587 54.3799C259.271 54.557 259.006 54.8005 258.79 55.1104C258.58 55.4147 258.422 55.7661 258.317 56.1646C258.212 56.5575 258.159 56.9753 258.159 57.418ZM269.265 58.0903L265.862 53.0186H267.713L270.037 56.7373H271.83L271.606 58.0903H269.265ZM270.104 57.9326L267.497 62H265.555L269.133 56.8203L270.104 57.9326ZM272.619 53.0186V62H271.083V53.0186H272.619ZM277.857 53.0186L274.453 58.0903H272.113L271.872 56.7373H273.673L275.997 53.0186H277.857ZM276.213 62L273.598 57.9326L274.586 56.8203L278.156 62H276.213ZM281.194 53.0186H282.729L282.596 56.3804C282.563 57.2326 282.466 57.9686 282.306 58.5884C282.145 59.2082 281.941 59.7367 281.692 60.1738C281.443 60.6055 281.163 60.9679 280.853 61.2612C280.549 61.5545 280.233 61.8008 279.907 62H279.143L279.185 60.7466L279.5 60.7383C279.683 60.5225 279.86 60.3011 280.031 60.0742C280.203 59.8418 280.361 59.5679 280.505 59.2524C280.649 58.9315 280.767 58.5413 280.862 58.082C280.961 57.6172 281.025 57.05 281.052 56.3804L281.194 53.0186ZM281.575 53.0186H286.979V62H285.444V54.438H281.575V53.0186ZM278.795 60.7383H288.133V64.6479H286.597V62H280.33V64.6479H278.786L278.795 60.7383ZM293.562 62.166C292.936 62.166 292.369 62.0609 291.86 61.8506C291.357 61.6348 290.922 61.3332 290.557 60.9458C290.197 60.5584 289.92 60.0991 289.727 59.5679C289.533 59.0366 289.436 58.4556 289.436 57.8247V57.4761C289.436 56.7456 289.544 56.0954 289.76 55.5254C289.976 54.9499 290.269 54.4629 290.64 54.0645C291.011 53.666 291.431 53.3644 291.902 53.1597C292.372 52.9549 292.859 52.8525 293.363 52.8525C294.004 52.8525 294.558 52.9632 295.023 53.1846C295.493 53.4059 295.878 53.7158 296.177 54.1143C296.475 54.5072 296.697 54.972 296.841 55.5088C296.984 56.04 297.056 56.6211 297.056 57.252V57.9409H290.349V56.6875H295.521V56.5713C295.499 56.1729 295.416 55.7855 295.272 55.4092C295.133 55.0329 294.912 54.723 294.608 54.4795C294.303 54.236 293.888 54.1143 293.363 54.1143C293.014 54.1143 292.693 54.189 292.4 54.3384C292.106 54.4823 291.855 54.6981 291.644 54.9858C291.434 55.2736 291.271 55.625 291.155 56.04C291.038 56.4551 290.98 56.9338 290.98 57.4761V57.8247C290.98 58.2508 291.038 58.652 291.155 59.0283C291.276 59.3991 291.451 59.7256 291.677 60.0078C291.91 60.29 292.189 60.5114 292.516 60.6719C292.848 60.8324 293.224 60.9126 293.645 60.9126C294.187 60.9126 294.646 60.8019 295.023 60.5806C295.399 60.3592 295.728 60.0632 296.01 59.6924L296.94 60.4312C296.747 60.7244 296.5 61.0039 296.201 61.2695C295.903 61.5352 295.535 61.751 295.097 61.917C294.666 62.083 294.154 62.166 293.562 62.166ZM304.942 56.9116V58.1567H300.194V56.9116H304.942ZM300.518 53.0186V62H298.982V53.0186H300.518ZM306.187 53.0186V62H304.643V53.0186H306.187ZM310.321 59.5679L314.463 53.0186H316.007V62H314.463V55.4507L310.321 62H308.794V53.0186H310.321V59.5679ZM322.199 62.166C321.574 62.166 321.007 62.0609 320.498 61.8506C319.994 61.6348 319.56 61.3332 319.195 60.9458C318.835 60.5584 318.558 60.0991 318.365 59.5679C318.171 59.0366 318.074 58.4556 318.074 57.8247V57.4761C318.074 56.7456 318.182 56.0954 318.398 55.5254C318.614 54.9499 318.907 54.4629 319.278 54.0645C319.648 53.666 320.069 53.3644 320.539 53.1597C321.01 52.9549 321.497 52.8525 322 52.8525C322.642 52.8525 323.196 52.9632 323.66 53.1846C324.131 53.4059 324.515 53.7158 324.814 54.1143C325.113 54.5072 325.334 54.972 325.478 55.5088C325.622 56.04 325.694 56.6211 325.694 57.252V57.9409H318.987V56.6875H324.158V56.5713C324.136 56.1729 324.053 55.7855 323.909 55.4092C323.771 55.0329 323.55 54.723 323.245 54.4795C322.941 54.236 322.526 54.1143 322 54.1143C321.652 54.1143 321.331 54.189 321.037 54.3384C320.744 54.4823 320.492 54.6981 320.282 54.9858C320.072 55.2736 319.908 55.625 319.792 56.04C319.676 56.4551 319.618 56.9338 319.618 57.4761V57.8247C319.618 58.2508 319.676 58.652 319.792 59.0283C319.914 59.3991 320.088 59.7256 320.315 60.0078C320.548 60.29 320.827 60.5114 321.154 60.6719C321.486 60.8324 321.862 60.9126 322.282 60.9126C322.825 60.9126 323.284 60.8019 323.66 60.5806C324.037 60.3592 324.366 60.0632 324.648 59.6924L325.578 60.4312C325.384 60.7244 325.138 61.0039 324.839 61.2695C324.54 61.5352 324.172 61.751 323.735 61.917C323.303 62.083 322.792 62.166 322.199 62.166ZM335.921 58.0488H332.974L332.957 56.8203H335.365C335.84 56.8203 336.236 56.7733 336.552 56.6792C336.872 56.5851 337.113 56.444 337.274 56.2559C337.434 56.0677 337.514 55.8353 337.514 55.5586C337.514 55.3428 337.467 55.1546 337.373 54.9941C337.285 54.8281 337.149 54.6925 336.967 54.5874C336.784 54.4767 336.557 54.3965 336.286 54.3467C336.02 54.2913 335.708 54.2637 335.348 54.2637H333.381V62H331.845V53.0186H335.348C335.918 53.0186 336.43 53.0684 336.884 53.168C337.343 53.2676 337.733 53.4198 338.054 53.6245C338.38 53.8237 338.629 54.0783 338.801 54.3882C338.973 54.6981 339.058 55.0633 339.058 55.4839C339.058 55.755 339.003 56.0124 338.892 56.2559C338.782 56.4993 338.618 56.7152 338.403 56.9033C338.187 57.0915 337.921 57.2464 337.606 57.3682C337.29 57.4844 336.928 57.5591 336.518 57.5923L335.921 58.0488ZM335.921 62H332.418L333.181 60.7549H335.921C336.347 60.7549 336.701 60.7023 336.983 60.5972C337.265 60.4865 337.476 60.3315 337.614 60.1323C337.758 59.9276 337.83 59.6841 337.83 59.4019C337.83 59.1196 337.758 58.8789 337.614 58.6797C337.476 58.4749 337.265 58.32 336.983 58.2148C336.701 58.1042 336.347 58.0488 335.921 58.0488H333.588L333.605 56.8203H336.518L337.074 57.2852C337.567 57.3239 337.985 57.4456 338.328 57.6504C338.671 57.8551 338.931 58.1152 339.108 58.4307C339.285 58.7406 339.374 59.0781 339.374 59.4434C339.374 59.8639 339.294 60.2347 339.133 60.5557C338.978 60.8766 338.751 61.145 338.452 61.3608C338.154 61.5711 337.791 61.7316 337.365 61.8423C336.939 61.9474 336.457 62 335.921 62ZM347.268 53.0186H348.803L348.671 56.3804C348.637 57.2326 348.541 57.9686 348.38 58.5884C348.22 59.2082 348.015 59.7367 347.766 60.1738C347.517 60.6055 347.237 60.9679 346.927 61.2612C346.623 61.5545 346.308 61.8008 345.981 62H345.218L345.259 60.7466L345.574 60.7383C345.757 60.5225 345.934 60.3011 346.106 60.0742C346.277 59.8418 346.435 59.5679 346.579 59.2524C346.723 58.9315 346.842 58.5413 346.936 58.082C347.035 57.6172 347.099 57.05 347.127 56.3804L347.268 53.0186ZM347.65 53.0186H353.053V62H351.518V54.438H347.65V53.0186ZM344.869 60.7383H354.207V64.6479H352.672V62H346.405V64.6479H344.861L344.869 60.7383ZM355.502 57.6089V57.418C355.502 56.7705 355.596 56.1701 355.784 55.6167C355.973 55.0578 356.244 54.5736 356.598 54.1641C356.952 53.749 357.381 53.4281 357.885 53.2012C358.388 52.9688 358.953 52.8525 359.578 52.8525C360.209 52.8525 360.776 52.9688 361.28 53.2012C361.789 53.4281 362.22 53.749 362.574 54.1641C362.934 54.5736 363.208 55.0578 363.396 55.6167C363.584 56.1701 363.678 56.7705 363.678 57.418V57.6089C363.678 58.2563 363.584 58.8568 363.396 59.4102C363.208 59.9635 362.934 60.4478 362.574 60.8628C362.22 61.2723 361.791 61.5933 361.288 61.8257C360.79 62.0526 360.225 62.166 359.594 62.166C358.964 62.166 358.396 62.0526 357.893 61.8257C357.389 61.5933 356.958 61.2723 356.598 60.8628C356.244 60.4478 355.973 59.9635 355.784 59.4102C355.596 58.8568 355.502 58.2563 355.502 57.6089ZM357.038 57.418V57.6089C357.038 58.0571 357.09 58.4805 357.196 58.8789C357.301 59.2718 357.458 59.6204 357.669 59.9248C357.885 60.2292 358.153 60.4699 358.474 60.647C358.795 60.8185 359.168 60.9043 359.594 60.9043C360.015 60.9043 360.383 60.8185 360.698 60.647C361.019 60.4699 361.285 60.2292 361.495 59.9248C361.706 59.6204 361.863 59.2718 361.969 58.8789C362.079 58.4805 362.135 58.0571 362.135 57.6089V57.418C362.135 56.9753 362.079 56.5575 361.969 56.1646C361.863 55.7661 361.703 55.4147 361.487 55.1104C361.277 54.8005 361.011 54.557 360.69 54.3799C360.375 54.2028 360.004 54.1143 359.578 54.1143C359.157 54.1143 358.787 54.2028 358.466 54.3799C358.15 54.557 357.885 54.8005 357.669 55.1104C357.458 55.4147 357.301 55.7661 357.196 56.1646C357.09 56.5575 357.038 56.9753 357.038 57.418ZM371.473 53.0186V54.2886H367.132V53.0186H371.473ZM372.826 53.0186V62H371.29V53.0186H372.826ZM366.758 53.0186H368.302L368.07 57.3516C368.031 58.0212 367.967 58.6133 367.879 59.1279C367.796 59.637 367.679 60.0742 367.53 60.4395C367.386 60.8047 367.204 61.1035 366.982 61.3359C366.766 61.5628 366.506 61.7316 366.202 61.8423C365.898 61.9474 365.546 62 365.148 62H364.666V60.647L364.998 60.6221C365.236 60.6055 365.438 60.5501 365.604 60.4561C365.776 60.362 365.92 60.2236 366.036 60.041C366.152 59.8529 366.246 59.6121 366.318 59.3188C366.396 59.0256 366.454 58.6769 366.492 58.2729C366.537 57.869 366.57 57.3986 366.592 56.8618L366.758 53.0186ZM380.413 56.8286V58.082H375.64V56.8286H380.413ZM376.976 53.0186V62H375.441V53.0186H376.976ZM379.101 57.6089V57.418C379.101 56.7705 379.195 56.1701 379.384 55.6167C379.572 55.0578 379.843 54.5736 380.197 54.1641C380.557 53.749 380.986 53.4281 381.484 53.2012C381.987 52.9688 382.552 52.8525 383.177 52.8525C383.813 52.8525 384.383 52.9688 384.887 53.2012C385.391 53.4281 385.819 53.749 386.174 54.1641C386.533 54.5736 386.807 55.0578 386.995 55.6167C387.184 56.1701 387.278 56.7705 387.278 57.418V57.6089C387.278 58.2563 387.184 58.8568 386.995 59.4102C386.807 59.9635 386.536 60.4478 386.182 60.8628C385.828 61.2723 385.399 61.5933 384.895 61.8257C384.392 62.0526 383.824 62.166 383.194 62.166C382.563 62.166 381.996 62.0526 381.492 61.8257C380.988 61.5933 380.557 61.2723 380.197 60.8628C379.843 60.4478 379.572 59.9635 379.384 59.4102C379.195 58.8568 379.101 58.2563 379.101 57.6089ZM380.645 57.418V57.6089C380.645 58.0571 380.698 58.4805 380.803 58.8789C380.908 59.2718 381.066 59.6204 381.276 59.9248C381.492 60.2292 381.758 60.4699 382.073 60.647C382.394 60.8185 382.767 60.9043 383.194 60.9043C383.62 60.9043 383.99 60.8185 384.306 60.647C384.627 60.4699 384.892 60.2292 385.103 59.9248C385.313 59.6204 385.471 59.2718 385.576 58.8789C385.687 58.4805 385.742 58.0571 385.742 57.6089V57.418C385.742 56.9753 385.687 56.5575 385.576 56.1646C385.471 55.7661 385.31 55.4147 385.094 55.1104C384.884 54.8005 384.619 54.557 384.298 54.3799C383.977 54.2028 383.603 54.1143 383.177 54.1143C382.756 54.1143 382.388 54.2028 382.073 54.3799C381.758 54.557 381.492 54.8005 381.276 55.1104C381.066 55.4147 380.908 55.7661 380.803 56.1646C380.698 56.5575 380.645 56.9753 380.645 57.418ZM399.156 49.1089H400.418C400.418 49.6512 400.335 50.0828 400.169 50.4038C400.003 50.7192 399.776 50.9627 399.488 51.1343C399.206 51.3058 398.885 51.4359 398.525 51.5244C398.171 51.613 397.803 51.6987 397.421 51.7817C396.945 51.8813 396.503 52.0391 396.093 52.2549C395.689 52.4652 395.34 52.764 395.047 53.1514C394.759 53.5387 394.546 54.0423 394.408 54.6621C394.275 55.2819 394.239 56.0483 394.3 56.9614V57.7251H393.038V56.9614C393.038 55.9377 393.135 55.0439 393.329 54.2803C393.528 53.5166 393.808 52.8719 394.167 52.3462C394.527 51.8205 394.953 51.4027 395.446 51.0928C395.944 50.7829 396.491 50.5698 397.089 50.4536C397.521 50.3706 397.892 50.2821 398.201 50.188C398.511 50.0884 398.747 49.9556 398.907 49.7896C399.073 49.6235 399.156 49.3966 399.156 49.1089ZM397.338 53.5332C397.925 53.5332 398.448 53.6356 398.907 53.8403C399.366 54.0451 399.756 54.3301 400.077 54.6953C400.398 55.0605 400.642 55.4922 400.808 55.9902C400.979 56.4827 401.065 57.0195 401.065 57.6006V57.7832C401.065 58.4085 400.974 58.9896 400.791 59.5264C400.614 60.0576 400.351 60.5225 400.003 60.9209C399.66 61.3138 399.239 61.6209 398.741 61.8423C398.248 62.0636 397.687 62.1743 397.056 62.1743C396.425 62.1743 395.861 62.0636 395.363 61.8423C394.87 61.6209 394.449 61.3138 394.101 60.9209C393.752 60.5225 393.487 60.0576 393.304 59.5264C393.127 58.9896 393.038 58.4085 393.038 57.7832V57.6006C393.038 57.4622 393.063 57.3267 393.113 57.1938C393.163 57.061 393.224 56.9255 393.296 56.7871C393.373 56.6488 393.442 56.5021 393.503 56.3472C393.708 55.8491 393.987 55.387 394.342 54.9609C394.701 54.5348 395.13 54.1917 395.628 53.9316C396.132 53.666 396.702 53.5332 397.338 53.5332ZM397.039 54.7866C396.475 54.7866 396.01 54.9167 395.645 55.1768C395.285 55.4368 395.017 55.7827 394.84 56.2144C394.663 56.6405 394.574 57.1025 394.574 57.6006V57.7832C394.574 58.2038 394.624 58.6022 394.723 58.9785C394.823 59.3548 394.972 59.6896 395.172 59.9829C395.376 60.2707 395.634 60.4976 395.944 60.6636C396.259 60.8296 396.63 60.9126 397.056 60.9126C397.482 60.9126 397.85 60.8296 398.16 60.6636C398.47 60.4976 398.724 60.2707 398.924 59.9829C399.123 59.6896 399.272 59.3548 399.372 58.9785C399.471 58.6022 399.521 58.2038 399.521 57.7832V57.6006C399.521 57.2243 399.471 56.8674 399.372 56.5298C399.272 56.1922 399.12 55.8934 398.915 55.6333C398.716 55.3732 398.459 55.1685 398.143 55.019C397.833 54.8641 397.465 54.7866 397.039 54.7866ZM404.195 54.7451V65.4531H402.651V53.0186H404.062L404.195 54.7451ZM410.246 57.4346V57.6089C410.246 58.2619 410.168 58.8678 410.013 59.4268C409.858 59.9801 409.632 60.4616 409.333 60.8711C409.039 61.2806 408.677 61.5988 408.245 61.8257C407.814 62.0526 407.318 62.166 406.76 62.166C406.19 62.166 405.686 62.0719 405.249 61.8838C404.812 61.6956 404.441 61.4217 404.136 61.062C403.832 60.7023 403.589 60.2707 403.406 59.7671C403.229 59.2635 403.107 58.6963 403.041 58.0654V57.1357C403.107 56.4717 403.232 55.8768 403.414 55.3511C403.597 54.8254 403.838 54.3771 404.136 54.0063C404.441 53.63 404.809 53.3451 405.24 53.1514C405.672 52.9521 406.17 52.8525 406.735 52.8525C407.299 52.8525 407.8 52.9632 408.237 53.1846C408.674 53.4004 409.042 53.7103 409.341 54.1143C409.64 54.5182 409.864 55.0024 410.013 55.5669C410.168 56.1258 410.246 56.7484 410.246 57.4346ZM408.702 57.6089V57.4346C408.702 56.9863 408.655 56.5658 408.561 56.1729C408.467 55.7744 408.32 55.4258 408.121 55.127C407.927 54.8226 407.678 54.5846 407.374 54.4131C407.069 54.236 406.707 54.1475 406.286 54.1475C405.899 54.1475 405.561 54.2139 405.274 54.3467C404.991 54.4795 404.751 54.6593 404.552 54.8862C404.352 55.1076 404.189 55.3621 404.062 55.6499C403.94 55.9321 403.849 56.2254 403.788 56.5298V58.6797C403.899 59.0671 404.053 59.4323 404.253 59.7754C404.452 60.113 404.718 60.3869 405.05 60.5972C405.382 60.8019 405.799 60.9043 406.303 60.9043C406.718 60.9043 407.075 60.8185 407.374 60.647C407.678 60.4699 407.927 60.2292 408.121 59.9248C408.32 59.6204 408.467 59.2718 408.561 58.8789C408.655 58.4805 408.702 58.0571 408.702 57.6089ZM415.932 62.166C415.307 62.166 414.739 62.0609 414.23 61.8506C413.727 61.6348 413.292 61.3332 412.927 60.9458C412.567 60.5584 412.291 60.0991 412.097 59.5679C411.903 59.0366 411.806 58.4556 411.806 57.8247V57.4761C411.806 56.7456 411.914 56.0954 412.13 55.5254C412.346 54.9499 412.639 54.4629 413.01 54.0645C413.381 53.666 413.801 53.3644 414.272 53.1597C414.742 52.9549 415.229 52.8525 415.733 52.8525C416.375 52.8525 416.928 52.9632 417.393 53.1846C417.863 53.4059 418.248 53.7158 418.547 54.1143C418.845 54.5072 419.067 54.972 419.211 55.5088C419.355 56.04 419.427 56.6211 419.427 57.252V57.9409H412.719V56.6875H417.891V56.5713C417.869 56.1729 417.786 55.7855 417.642 55.4092C417.503 55.0329 417.282 54.723 416.978 54.4795C416.673 54.236 416.258 54.1143 415.733 54.1143C415.384 54.1143 415.063 54.189 414.77 54.3384C414.476 54.4823 414.225 54.6981 414.014 54.9858C413.804 55.2736 413.641 55.625 413.525 56.04C413.408 56.4551 413.35 56.9338 413.35 57.4761V57.8247C413.35 58.2508 413.408 58.652 413.525 59.0283C413.646 59.3991 413.821 59.7256 414.048 60.0078C414.28 60.29 414.559 60.5114 414.886 60.6719C415.218 60.8324 415.594 60.9126 416.015 60.9126C416.557 60.9126 417.017 60.8019 417.393 60.5806C417.769 60.3592 418.098 60.0632 418.381 59.6924L419.31 60.4312C419.117 60.7244 418.87 61.0039 418.572 61.2695C418.273 61.5352 417.905 61.751 417.468 61.917C417.036 62.083 416.524 62.166 415.932 62.166ZM427.312 56.9116V58.1567H422.564V56.9116H427.312ZM422.888 53.0186V62H421.352V53.0186H422.888ZM428.557 53.0186V62H427.013V53.0186H428.557ZM432.65 53.0186H434.185L434.052 56.3804C434.019 57.2326 433.922 57.9686 433.762 58.5884C433.601 59.2082 433.397 59.7367 433.148 60.1738C432.899 60.6055 432.619 60.9679 432.309 61.2612C432.005 61.5545 431.69 61.8008 431.363 62H430.599L430.641 60.7466L430.956 60.7383C431.139 60.5225 431.316 60.3011 431.488 60.0742C431.659 59.8418 431.817 59.5679 431.961 59.2524C432.105 58.9315 432.224 58.5413 432.318 58.082C432.417 57.6172 432.481 57.05 432.509 56.3804L432.65 53.0186ZM433.031 53.0186H438.435V62H436.9V54.438H433.031V53.0186ZM430.251 60.7383H439.589V64.6479H438.053V62H431.786V64.6479H430.242L430.251 60.7383ZM446.587 60.4644V55.8408C446.587 55.4867 446.515 55.1795 446.371 54.9194C446.233 54.6538 446.022 54.4491 445.74 54.3052C445.458 54.1613 445.109 54.0894 444.694 54.0894C444.307 54.0894 443.966 54.1558 443.673 54.2886C443.385 54.4214 443.158 54.5957 442.992 54.8115C442.832 55.0273 442.752 55.2598 442.752 55.5088H441.216C441.216 55.1878 441.299 54.8696 441.465 54.5542C441.631 54.2388 441.869 53.9538 442.179 53.6992C442.494 53.4391 442.871 53.2344 443.308 53.085C443.751 52.93 444.243 52.8525 444.785 52.8525C445.438 52.8525 446.014 52.9632 446.512 53.1846C447.016 53.4059 447.408 53.7407 447.691 54.189C447.978 54.6317 448.122 55.1878 448.122 55.8574V60.041C448.122 60.3398 448.147 60.658 448.197 60.9956C448.252 61.3332 448.333 61.6237 448.438 61.8672V62H446.836C446.758 61.8229 446.697 61.5877 446.653 61.2944C446.609 60.9956 446.587 60.7189 446.587 60.4644ZM446.852 56.5547L446.869 57.6338H445.317C444.879 57.6338 444.489 57.6698 444.146 57.7417C443.803 57.8081 443.515 57.9105 443.283 58.0488C443.051 58.1872 442.873 58.3615 442.752 58.5718C442.63 58.7765 442.569 59.0173 442.569 59.2939C442.569 59.5762 442.633 59.8335 442.76 60.0659C442.887 60.2983 443.078 60.4837 443.333 60.6221C443.593 60.7549 443.911 60.8213 444.287 60.8213C444.758 60.8213 445.173 60.7217 445.532 60.5225C445.892 60.3232 446.177 60.0798 446.387 59.792C446.603 59.5042 446.719 59.2248 446.736 58.9536L447.392 59.6924C447.353 59.9248 447.248 60.1821 447.076 60.4644C446.905 60.7466 446.675 61.0177 446.387 61.2778C446.105 61.5324 445.768 61.7454 445.375 61.917C444.987 62.083 444.55 62.166 444.063 62.166C443.455 62.166 442.92 62.047 442.461 61.8091C442.007 61.5711 441.653 61.2529 441.399 60.8545C441.15 60.4505 441.025 59.9995 441.025 59.5015C441.025 59.02 441.119 58.5967 441.307 58.2314C441.496 57.8607 441.767 57.5535 442.121 57.3101C442.475 57.061 442.901 56.8729 443.399 56.7456C443.897 56.6183 444.453 56.5547 445.068 56.5547H446.852ZM241.765 80.9043C242.13 80.9043 242.468 80.8296 242.778 80.6802C243.087 80.5308 243.342 80.326 243.541 80.0659C243.74 79.8003 243.854 79.4987 243.882 79.1611H245.343C245.315 79.6924 245.135 80.1877 244.803 80.647C244.476 81.1007 244.048 81.4688 243.516 81.751C242.985 82.0277 242.401 82.166 241.765 82.166C241.09 82.166 240.5 82.047 239.997 81.8091C239.499 81.5711 239.084 81.2446 238.752 80.8296C238.425 80.4146 238.179 79.9386 238.013 79.4019C237.852 78.8595 237.772 78.2868 237.772 77.6836V77.335C237.772 76.7318 237.852 76.1618 238.013 75.625C238.179 75.0827 238.425 74.604 238.752 74.189C239.084 73.7739 239.499 73.4474 239.997 73.2095C240.5 72.9715 241.09 72.8525 241.765 72.8525C242.468 72.8525 243.082 72.9964 243.608 73.2842C244.133 73.5664 244.546 73.9538 244.844 74.4463C245.149 74.9333 245.315 75.4867 245.343 76.1064H243.882C243.854 75.7357 243.749 75.4009 243.566 75.1021C243.389 74.8032 243.146 74.5653 242.836 74.3882C242.531 74.2056 242.174 74.1143 241.765 74.1143C241.295 74.1143 240.899 74.2083 240.578 74.3965C240.262 74.5791 240.011 74.8281 239.823 75.1436C239.64 75.4535 239.507 75.7993 239.424 76.1812C239.347 76.5575 239.308 76.9421 239.308 77.335V77.6836C239.308 78.0765 239.347 78.4639 239.424 78.8457C239.502 79.2275 239.632 79.5734 239.814 79.8833C240.002 80.1932 240.254 80.4422 240.57 80.6304C240.891 80.813 241.289 80.9043 241.765 80.9043ZM250.73 73.0186V82H249.186V73.0186H250.73ZM253.743 73.0186V74.2637H246.231V73.0186H253.743ZM256.789 74.7451V85.4531H255.245V73.0186H256.656L256.789 74.7451ZM262.841 77.4346V77.6089C262.841 78.2619 262.763 78.8678 262.608 79.4268C262.453 79.9801 262.226 80.4616 261.927 80.8711C261.634 81.2806 261.272 81.5988 260.84 81.8257C260.408 82.0526 259.913 82.166 259.354 82.166C258.784 82.166 258.281 82.0719 257.844 81.8838C257.406 81.6956 257.036 81.4217 256.731 81.062C256.427 80.7023 256.183 80.2707 256.001 79.7671C255.824 79.2635 255.702 78.6963 255.635 78.0654V77.1357C255.702 76.4717 255.826 75.8768 256.009 75.3511C256.192 74.8254 256.432 74.3771 256.731 74.0063C257.036 73.63 257.404 73.3451 257.835 73.1514C258.267 72.9521 258.765 72.8525 259.329 72.8525C259.894 72.8525 260.395 72.9632 260.832 73.1846C261.269 73.4004 261.637 73.7103 261.936 74.1143C262.235 74.5182 262.459 75.0024 262.608 75.5669C262.763 76.1258 262.841 76.7484 262.841 77.4346ZM261.297 77.6089V77.4346C261.297 76.9863 261.25 76.5658 261.156 76.1729C261.061 75.7744 260.915 75.4258 260.716 75.127C260.522 74.8226 260.273 74.5846 259.969 74.4131C259.664 74.236 259.302 74.1475 258.881 74.1475C258.494 74.1475 258.156 74.2139 257.868 74.3467C257.586 74.4795 257.345 74.6593 257.146 74.8862C256.947 75.1076 256.784 75.3621 256.656 75.6499C256.535 75.9321 256.443 76.2254 256.383 76.5298V78.6797C256.493 79.0671 256.648 79.4323 256.847 79.7754C257.047 80.113 257.312 80.3869 257.644 80.5972C257.976 80.8019 258.394 80.9043 258.898 80.9043C259.313 80.9043 259.67 80.8185 259.969 80.647C260.273 80.4699 260.522 80.2292 260.716 79.9248C260.915 79.6204 261.061 79.2718 261.156 78.8789C261.25 78.4805 261.297 78.0571 261.297 77.6089ZM270.095 80.4644V75.8408C270.095 75.4867 270.024 75.1795 269.88 74.9194C269.741 74.6538 269.531 74.4491 269.249 74.3052C268.967 74.1613 268.618 74.0894 268.203 74.0894C267.816 74.0894 267.475 74.1558 267.182 74.2886C266.894 74.4214 266.667 74.5957 266.501 74.8115C266.341 75.0273 266.26 75.2598 266.26 75.5088H264.725C264.725 75.1878 264.808 74.8696 264.974 74.5542C265.14 74.2388 265.378 73.9538 265.688 73.6992C266.003 73.4391 266.379 73.2344 266.817 73.085C267.259 72.93 267.752 72.8525 268.294 72.8525C268.947 72.8525 269.523 72.9632 270.021 73.1846C270.524 73.4059 270.917 73.7407 271.199 74.189C271.487 74.6317 271.631 75.1878 271.631 75.8574V80.041C271.631 80.3398 271.656 80.658 271.706 80.9956C271.761 81.3332 271.841 81.6237 271.947 81.8672V82H270.344C270.267 81.8229 270.206 81.5877 270.162 81.2944C270.118 80.9956 270.095 80.7189 270.095 80.4644ZM270.361 76.5547L270.378 77.6338H268.825C268.388 77.6338 267.998 77.6698 267.655 77.7417C267.312 77.8081 267.024 77.9105 266.792 78.0488C266.559 78.1872 266.382 78.3615 266.26 78.5718C266.139 78.7765 266.078 79.0173 266.078 79.2939C266.078 79.5762 266.142 79.8335 266.269 80.0659C266.396 80.2983 266.587 80.4837 266.842 80.6221C267.102 80.7549 267.42 80.8213 267.796 80.8213C268.267 80.8213 268.682 80.7217 269.041 80.5225C269.401 80.3232 269.686 80.0798 269.896 79.792C270.112 79.5042 270.228 79.2248 270.245 78.9536L270.901 79.6924C270.862 79.9248 270.757 80.1821 270.585 80.4644C270.414 80.7466 270.184 81.0177 269.896 81.2778C269.614 81.5324 269.276 81.7454 268.884 81.917C268.496 82.083 268.059 82.166 267.572 82.166C266.963 82.166 266.429 82.047 265.97 81.8091C265.516 81.5711 265.162 81.2529 264.907 80.8545C264.658 80.4505 264.534 79.9995 264.534 79.5015C264.534 79.02 264.628 78.5967 264.816 78.2314C265.004 77.8607 265.275 77.5535 265.63 77.3101C265.984 77.061 266.41 76.8729 266.908 76.7456C267.406 76.6183 267.962 76.5547 268.576 76.5547H270.361ZM277.574 73.0186V82H276.031V73.0186H277.574ZM280.588 73.0186V74.2637H273.075V73.0186H280.588ZM285.161 82.166C284.536 82.166 283.969 82.0609 283.46 81.8506C282.956 81.6348 282.522 81.3332 282.156 80.9458C281.797 80.5584 281.52 80.0991 281.326 79.5679C281.133 79.0366 281.036 78.4556 281.036 77.8247V77.4761C281.036 76.7456 281.144 76.0954 281.36 75.5254C281.575 74.9499 281.869 74.4629 282.24 74.0645C282.61 73.666 283.031 73.3644 283.501 73.1597C283.972 72.9549 284.459 72.8525 284.962 72.8525C285.604 72.8525 286.157 72.9632 286.622 73.1846C287.093 73.4059 287.477 73.7158 287.776 74.1143C288.075 74.5072 288.296 74.972 288.44 75.5088C288.584 76.04 288.656 76.6211 288.656 77.252V77.9409H281.949V76.6875H287.12V76.5713C287.098 76.1729 287.015 75.7855 286.871 75.4092C286.733 75.0329 286.512 74.723 286.207 74.4795C285.903 74.236 285.488 74.1143 284.962 74.1143C284.614 74.1143 284.293 74.189 283.999 74.3384C283.706 74.4823 283.454 74.6981 283.244 74.9858C283.034 75.2736 282.87 75.625 282.754 76.04C282.638 76.4551 282.58 76.9338 282.58 77.4761V77.8247C282.58 78.2508 282.638 78.652 282.754 79.0283C282.876 79.3991 283.05 79.7256 283.277 80.0078C283.51 80.29 283.789 80.5114 284.115 80.6719C284.448 80.8324 284.824 80.9126 285.244 80.9126C285.787 80.9126 286.246 80.8019 286.622 80.5806C286.999 80.3592 287.328 80.0632 287.61 79.6924L288.54 80.4312C288.346 80.7244 288.1 81.0039 287.801 81.2695C287.502 81.5352 287.134 81.751 286.697 81.917C286.265 82.083 285.753 82.166 285.161 82.166ZM296.251 73.0186V74.2886H292.101V82H290.565V73.0186H296.251ZM299.248 79.5679L303.39 73.0186H304.934V82H303.39V75.4507L299.248 82H297.72V73.0186H299.248V79.5679ZM314.173 73.0186V82H312.637V73.0186H314.173ZM313.65 77.144V78.4058C313.34 78.522 313.024 78.6271 312.703 78.7212C312.388 78.8097 312.053 78.8817 311.699 78.937C311.35 78.9868 310.971 79.0117 310.562 79.0117C309.853 79.0117 309.239 78.89 308.719 78.6465C308.199 78.3975 307.798 78.0239 307.515 77.5259C307.233 77.0223 307.092 76.3887 307.092 75.625V73.002H308.628V75.625C308.628 76.123 308.702 76.527 308.852 76.8369C309.001 77.1468 309.22 77.3765 309.508 77.5259C309.795 77.6698 310.147 77.7417 310.562 77.7417C310.96 77.7417 311.334 77.7168 311.682 77.667C312.037 77.6117 312.374 77.5397 312.695 77.4512C313.022 77.3626 313.34 77.2603 313.65 77.144ZM320.373 82.166C319.748 82.166 319.181 82.0609 318.672 81.8506C318.168 81.6348 317.734 81.3332 317.368 80.9458C317.009 80.5584 316.732 80.0991 316.538 79.5679C316.345 79.0366 316.248 78.4556 316.248 77.8247V77.4761C316.248 76.7456 316.356 76.0954 316.572 75.5254C316.787 74.9499 317.081 74.4629 317.451 74.0645C317.822 73.666 318.243 73.3644 318.713 73.1597C319.184 72.9549 319.67 72.8525 320.174 72.8525C320.816 72.8525 321.369 72.9632 321.834 73.1846C322.305 73.4059 322.689 73.7158 322.988 74.1143C323.287 74.5072 323.508 74.972 323.652 75.5088C323.796 76.04 323.868 76.6211 323.868 77.252V77.9409H317.161V76.6875H322.332V76.5713C322.31 76.1729 322.227 75.7855 322.083 75.4092C321.945 75.0329 321.724 74.723 321.419 74.4795C321.115 74.236 320.7 74.1143 320.174 74.1143C319.825 74.1143 319.504 74.189 319.211 74.3384C318.918 74.4823 318.666 74.6981 318.456 74.9858C318.246 75.2736 318.082 75.625 317.966 76.04C317.85 76.4551 317.792 76.9338 317.792 77.4761V77.8247C317.792 78.2508 317.85 78.652 317.966 79.0283C318.088 79.3991 318.262 79.7256 318.489 80.0078C318.721 80.29 319.001 80.5114 319.327 80.6719C319.659 80.8324 320.036 80.9126 320.456 80.9126C320.999 80.9126 321.458 80.8019 321.834 80.5806C322.211 80.3592 322.54 80.0632 322.822 79.6924L323.752 80.4312C323.558 80.7244 323.312 81.0039 323.013 81.2695C322.714 81.5352 322.346 81.751 321.909 81.917C321.477 82.083 320.965 82.166 320.373 82.166ZM329.255 80.9043C329.62 80.9043 329.958 80.8296 330.268 80.6802C330.578 80.5308 330.832 80.326 331.031 80.0659C331.231 79.8003 331.344 79.4987 331.372 79.1611H332.833C332.805 79.6924 332.625 80.1877 332.293 80.647C331.967 81.1007 331.538 81.4688 331.007 81.751C330.475 82.0277 329.892 82.166 329.255 82.166C328.58 82.166 327.991 82.047 327.487 81.8091C326.989 81.5711 326.574 81.2446 326.242 80.8296C325.915 80.4146 325.669 79.9386 325.503 79.4019C325.343 78.8595 325.262 78.2868 325.262 77.6836V77.335C325.262 76.7318 325.343 76.1618 325.503 75.625C325.669 75.0827 325.915 74.604 326.242 74.189C326.574 73.7739 326.989 73.4474 327.487 73.2095C327.991 72.9715 328.58 72.8525 329.255 72.8525C329.958 72.8525 330.572 72.9964 331.098 73.2842C331.624 73.5664 332.036 73.9538 332.335 74.4463C332.639 74.9333 332.805 75.4867 332.833 76.1064H331.372C331.344 75.7357 331.239 75.4009 331.056 75.1021C330.879 74.8032 330.636 74.5653 330.326 74.3882C330.022 74.2056 329.665 74.1143 329.255 74.1143C328.785 74.1143 328.389 74.2083 328.068 74.3965C327.753 74.5791 327.501 74.8281 327.313 75.1436C327.13 75.4535 326.997 75.7993 326.914 76.1812C326.837 76.5575 326.798 76.9421 326.798 77.335V77.6836C326.798 78.0765 326.837 78.4639 326.914 78.8457C326.992 79.2275 327.122 79.5734 327.304 79.8833C327.493 80.1932 327.744 80.4422 328.06 80.6304C328.381 80.813 328.779 80.9043 329.255 80.9043ZM336.228 73.0186V82H334.692V73.0186H336.228ZM342.121 73.0186L337.863 78.165H335.713L335.481 76.8203H337.24L340.254 73.0186H342.121ZM340.469 82L337.166 77.9326L338.154 76.8203L342.42 82H340.469ZM343.167 77.6089V77.418C343.167 76.7705 343.261 76.1701 343.449 75.6167C343.638 75.0578 343.909 74.5736 344.263 74.1641C344.617 73.749 345.046 73.4281 345.55 73.2012C346.053 72.9688 346.618 72.8525 347.243 72.8525C347.874 72.8525 348.441 72.9688 348.945 73.2012C349.454 73.4281 349.885 73.749 350.24 74.1641C350.599 74.5736 350.873 75.0578 351.061 75.6167C351.249 76.1701 351.344 76.7705 351.344 77.418V77.6089C351.344 78.2563 351.249 78.8568 351.061 79.4102C350.873 79.9635 350.599 80.4478 350.24 80.8628C349.885 81.2723 349.456 81.5933 348.953 81.8257C348.455 82.0526 347.89 82.166 347.26 82.166C346.629 82.166 346.061 82.0526 345.558 81.8257C345.054 81.5933 344.623 81.2723 344.263 80.8628C343.909 80.4478 343.638 79.9635 343.449 79.4102C343.261 78.8568 343.167 78.2563 343.167 77.6089ZM344.703 77.418V77.6089C344.703 78.0571 344.755 78.4805 344.861 78.8789C344.966 79.2718 345.123 79.6204 345.334 79.9248C345.55 80.2292 345.818 80.4699 346.139 80.647C346.46 80.8185 346.833 80.9043 347.26 80.9043C347.68 80.9043 348.048 80.8185 348.364 80.647C348.684 80.4699 348.95 80.2292 349.16 79.9248C349.371 79.6204 349.528 79.2718 349.634 78.8789C349.744 78.4805 349.8 78.0571 349.8 77.6089V77.418C349.8 76.9753 349.744 76.5575 349.634 76.1646C349.528 75.7661 349.368 75.4147 349.152 75.1104C348.942 74.8005 348.676 74.557 348.355 74.3799C348.04 74.2028 347.669 74.1143 347.243 74.1143C346.822 74.1143 346.452 74.2028 346.131 74.3799C345.815 74.557 345.55 74.8005 345.334 75.1104C345.123 75.4147 344.966 75.7661 344.861 76.1646C344.755 76.5575 344.703 76.9753 344.703 77.418ZM359.072 73.0186V74.2886H354.921V82H353.385V73.0186H359.072ZM359.835 77.6089V77.418C359.835 76.7705 359.929 76.1701 360.117 75.6167C360.306 75.0578 360.577 74.5736 360.931 74.1641C361.285 73.749 361.714 73.4281 362.218 73.2012C362.721 72.9688 363.286 72.8525 363.911 72.8525C364.542 72.8525 365.109 72.9688 365.613 73.2012C366.122 73.4281 366.553 73.749 366.907 74.1641C367.267 74.5736 367.541 75.0578 367.729 75.6167C367.917 76.1701 368.011 76.7705 368.011 77.418V77.6089C368.011 78.2563 367.917 78.8568 367.729 79.4102C367.541 79.9635 367.267 80.4478 366.907 80.8628C366.553 81.2723 366.124 81.5933 365.621 81.8257C365.123 82.0526 364.558 82.166 363.927 82.166C363.297 82.166 362.729 82.0526 362.226 81.8257C361.722 81.5933 361.291 81.2723 360.931 80.8628C360.577 80.4478 360.306 79.9635 360.117 79.4102C359.929 78.8568 359.835 78.2563 359.835 77.6089ZM361.371 77.418V77.6089C361.371 78.0571 361.423 78.4805 361.529 78.8789C361.634 79.2718 361.791 79.6204 362.002 79.9248C362.218 80.2292 362.486 80.4699 362.807 80.647C363.128 80.8185 363.501 80.9043 363.927 80.9043C364.348 80.9043 364.716 80.8185 365.031 80.647C365.352 80.4699 365.618 80.2292 365.828 79.9248C366.039 79.6204 366.196 79.2718 366.302 78.8789C366.412 78.4805 366.468 78.0571 366.468 77.6089V77.418C366.468 76.9753 366.412 76.5575 366.302 76.1646C366.196 75.7661 366.036 75.4147 365.82 75.1104C365.61 74.8005 365.344 74.557 365.023 74.3799C364.708 74.2028 364.337 74.1143 363.911 74.1143C363.49 74.1143 363.12 74.2028 362.799 74.3799C362.483 74.557 362.218 74.8005 362.002 75.1104C361.791 75.4147 361.634 75.7661 361.529 76.1646C361.423 76.5575 361.371 76.9753 361.371 77.418ZM375.814 79.5679L379.956 73.0186H381.5V82H379.956V75.4507L375.814 82H374.287V73.0186H375.814V79.5679ZM390.058 76.9116V78.1567H385.31V76.9116H390.058ZM385.634 73.0186V82H384.098V73.0186H385.634ZM391.303 73.0186V82H389.76V73.0186H391.303ZM397.994 78.0488H395.047L395.031 76.8203H397.438C397.914 76.8203 398.309 76.7733 398.625 76.6792C398.946 76.5851 399.186 76.444 399.347 76.2559C399.507 76.0677 399.588 75.8353 399.588 75.5586C399.588 75.3428 399.541 75.1546 399.447 74.9941C399.358 74.8281 399.222 74.6925 399.04 74.5874C398.857 74.4767 398.63 74.3965 398.359 74.3467C398.094 74.2913 397.781 74.2637 397.421 74.2637H395.454V82H393.918V73.0186H397.421C397.991 73.0186 398.503 73.0684 398.957 73.168C399.416 73.2676 399.806 73.4198 400.127 73.6245C400.454 73.8237 400.703 74.0783 400.874 74.3882C401.046 74.6981 401.132 75.0633 401.132 75.4839C401.132 75.755 401.076 76.0124 400.966 76.2559C400.855 76.4993 400.692 76.7152 400.476 76.9033C400.26 77.0915 399.994 77.2464 399.679 77.3682C399.364 77.4844 399.001 77.5591 398.592 77.5923L397.994 78.0488ZM397.994 82H394.491L395.255 80.7549H397.994C398.42 80.7549 398.774 80.7023 399.056 80.5972C399.339 80.4865 399.549 80.3315 399.687 80.1323C399.831 79.9276 399.903 79.6841 399.903 79.4019C399.903 79.1196 399.831 78.8789 399.687 78.6797C399.549 78.4749 399.339 78.32 399.056 78.2148C398.774 78.1042 398.42 78.0488 397.994 78.0488H395.661L395.678 76.8203H398.592L399.148 77.2852C399.64 77.3239 400.058 77.4456 400.401 77.6504C400.744 77.8551 401.004 78.1152 401.181 78.4307C401.358 78.7406 401.447 79.0781 401.447 79.4434C401.447 79.8639 401.367 80.2347 401.206 80.5557C401.051 80.8766 400.824 81.145 400.526 81.3608C400.227 81.5711 399.864 81.7316 399.438 81.8423C399.012 81.9474 398.531 82 397.994 82ZM407.233 82.166C406.607 82.166 406.04 82.0609 405.531 81.8506C405.027 81.6348 404.593 81.3332 404.228 80.9458C403.868 80.5584 403.591 80.0991 403.398 79.5679C403.204 79.0366 403.107 78.4556 403.107 77.8247V77.4761C403.107 76.7456 403.215 76.0954 403.431 75.5254C403.647 74.9499 403.94 74.4629 404.311 74.0645C404.682 73.666 405.102 73.3644 405.573 73.1597C406.043 72.9549 406.53 72.8525 407.033 72.8525C407.675 72.8525 408.229 72.9632 408.694 73.1846C409.164 73.4059 409.549 73.7158 409.847 74.1143C410.146 74.5072 410.368 74.972 410.511 75.5088C410.655 76.04 410.727 76.6211 410.727 77.252V77.9409H404.02V76.6875H409.192V76.5713C409.17 76.1729 409.087 75.7855 408.943 75.4092C408.804 75.0329 408.583 74.723 408.279 74.4795C407.974 74.236 407.559 74.1143 407.033 74.1143C406.685 74.1143 406.364 74.189 406.071 74.3384C405.777 74.4823 405.525 74.6981 405.315 74.9858C405.105 75.2736 404.942 75.625 404.825 76.04C404.709 76.4551 404.651 76.9338 404.651 77.4761V77.8247C404.651 78.2508 404.709 78.652 404.825 79.0283C404.947 79.3991 405.122 79.7256 405.348 80.0078C405.581 80.29 405.86 80.5114 406.187 80.6719C406.519 80.8324 406.895 80.9126 407.316 80.9126C407.858 80.9126 408.317 80.8019 408.694 80.5806C409.07 80.3592 409.399 80.0632 409.681 79.6924L410.611 80.4312C410.417 80.7244 410.171 81.0039 409.872 81.2695C409.573 81.5352 409.205 81.751 408.768 81.917C408.337 82.083 407.825 82.166 407.233 82.166ZM416.115 80.9043C416.48 80.9043 416.817 80.8296 417.127 80.6802C417.437 80.5308 417.692 80.326 417.891 80.0659C418.09 79.8003 418.204 79.4987 418.231 79.1611H419.692C419.664 79.6924 419.485 80.1877 419.153 80.647C418.826 81.1007 418.397 81.4688 417.866 81.751C417.335 82.0277 416.751 82.166 416.115 82.166C415.439 82.166 414.85 82.047 414.346 81.8091C413.848 81.5711 413.433 81.2446 413.101 80.8296C412.775 80.4146 412.529 79.9386 412.363 79.4019C412.202 78.8595 412.122 78.2868 412.122 77.6836V77.335C412.122 76.7318 412.202 76.1618 412.363 75.625C412.529 75.0827 412.775 74.604 413.101 74.189C413.433 73.7739 413.848 73.4474 414.346 73.2095C414.85 72.9715 415.439 72.8525 416.115 72.8525C416.817 72.8525 417.432 72.9964 417.957 73.2842C418.483 73.5664 418.895 73.9538 419.194 74.4463C419.498 74.9333 419.664 75.4867 419.692 76.1064H418.231C418.204 75.7357 418.098 75.4009 417.916 75.1021C417.739 74.8032 417.495 74.5653 417.185 74.3882C416.881 74.2056 416.524 74.1143 416.115 74.1143C415.644 74.1143 415.248 74.2083 414.927 74.3965C414.612 74.5791 414.36 74.8281 414.172 75.1436C413.99 75.4535 413.857 75.7993 413.774 76.1812C413.696 76.5575 413.657 76.9421 413.657 77.335V77.6836C413.657 78.0765 413.696 78.4639 413.774 78.8457C413.851 79.2275 413.981 79.5734 414.164 79.8833C414.352 80.1932 414.604 80.4422 414.919 80.6304C415.24 80.813 415.639 80.9043 416.115 80.9043ZM425.079 73.0186V82H423.535V73.0186H425.079ZM428.093 73.0186V74.2637H420.58V73.0186H428.093ZM428.848 77.6089V77.418C428.848 76.7705 428.942 76.1701 429.13 75.6167C429.318 75.0578 429.589 74.5736 429.944 74.1641C430.298 73.749 430.727 73.4281 431.23 73.2012C431.734 72.9688 432.298 72.8525 432.924 72.8525C433.554 72.8525 434.122 72.9688 434.625 73.2012C435.134 73.4281 435.566 73.749 435.92 74.1641C436.28 74.5736 436.554 75.0578 436.742 75.6167C436.93 76.1701 437.024 76.7705 437.024 77.418V77.6089C437.024 78.2563 436.93 78.8568 436.742 79.4102C436.554 79.9635 436.28 80.4478 435.92 80.8628C435.566 81.2723 435.137 81.5933 434.634 81.8257C434.135 82.0526 433.571 82.166 432.94 82.166C432.309 82.166 431.742 82.0526 431.239 81.8257C430.735 81.5933 430.303 81.2723 429.944 80.8628C429.589 80.4478 429.318 79.9635 429.13 79.4102C428.942 78.8568 428.848 78.2563 428.848 77.6089ZM430.384 77.418V77.6089C430.384 78.0571 430.436 78.4805 430.541 78.8789C430.646 79.2718 430.804 79.6204 431.014 79.9248C431.23 80.2292 431.499 80.4699 431.82 80.647C432.141 80.8185 432.514 80.9043 432.94 80.9043C433.361 80.9043 433.729 80.8185 434.044 80.647C434.365 80.4699 434.631 80.2292 434.841 79.9248C435.051 79.6204 435.209 79.2718 435.314 78.8789C435.425 78.4805 435.48 78.0571 435.48 77.6089V77.418C435.48 76.9753 435.425 76.5575 435.314 76.1646C435.209 75.7661 435.049 75.4147 434.833 75.1104C434.622 74.8005 434.357 74.557 434.036 74.3799C433.72 74.2028 433.35 74.1143 432.924 74.1143C432.503 74.1143 432.132 74.2028 431.811 74.3799C431.496 74.557 431.23 74.8005 431.014 75.1104C430.804 75.4147 430.646 75.7661 430.541 76.1646C430.436 76.5575 430.384 76.9753 430.384 77.418ZM440.486 74.7451V85.4531H438.942V73.0186H440.353L440.486 74.7451ZM446.537 77.4346V77.6089C446.537 78.2619 446.459 78.8678 446.304 79.4268C446.149 79.9801 445.923 80.4616 445.624 80.8711C445.33 81.2806 444.968 81.5988 444.536 81.8257C444.105 82.0526 443.609 82.166 443.051 82.166C442.481 82.166 441.977 82.0719 441.54 81.8838C441.103 81.6956 440.732 81.4217 440.427 81.062C440.123 80.7023 439.88 80.2707 439.697 79.7671C439.52 79.2635 439.398 78.6963 439.332 78.0654V77.1357C439.398 76.4717 439.523 75.8768 439.705 75.3511C439.888 74.8254 440.129 74.3771 440.427 74.0063C440.732 73.63 441.1 73.3451 441.531 73.1514C441.963 72.9521 442.461 72.8525 443.026 72.8525C443.59 72.8525 444.091 72.9632 444.528 73.1846C444.965 73.4004 445.333 73.7103 445.632 74.1143C445.931 74.5182 446.155 75.0024 446.304 75.5669C446.459 76.1258 446.537 76.7484 446.537 77.4346ZM444.993 77.6089V77.4346C444.993 76.9863 444.946 76.5658 444.852 76.1729C444.758 75.7744 444.611 75.4258 444.412 75.127C444.218 74.8226 443.969 74.5846 443.665 74.4131C443.36 74.236 442.998 74.1475 442.577 74.1475C442.19 74.1475 441.852 74.2139 441.565 74.3467C441.282 74.4795 441.042 74.6593 440.843 74.8862C440.643 75.1076 440.48 75.3621 440.353 75.6499C440.231 75.9321 440.14 76.2254 440.079 76.5298V78.6797C440.19 79.0671 440.344 79.4323 440.544 79.7754C440.743 80.113 441.009 80.3869 441.341 80.5972C441.673 80.8019 442.09 80.9043 442.594 80.9043C443.009 80.9043 443.366 80.8185 443.665 80.647C443.969 80.4699 444.218 80.2292 444.412 79.9248C444.611 79.6204 444.758 79.2718 444.852 78.8789C444.946 78.4805 444.993 78.0571 444.993 77.6089ZM453.792 80.4644V75.8408C453.792 75.4867 453.72 75.1795 453.576 74.9194C453.438 74.6538 453.227 74.4491 452.945 74.3052C452.663 74.1613 452.314 74.0894 451.899 74.0894C451.512 74.0894 451.171 74.1558 450.878 74.2886C450.59 74.4214 450.364 74.5957 450.198 74.8115C450.037 75.0273 449.957 75.2598 449.957 75.5088H448.421C448.421 75.1878 448.504 74.8696 448.67 74.5542C448.836 74.2388 449.074 73.9538 449.384 73.6992C449.699 73.4391 450.076 73.2344 450.513 73.085C450.956 72.93 451.448 72.8525 451.99 72.8525C452.643 72.8525 453.219 72.9632 453.717 73.1846C454.221 73.4059 454.614 73.7407 454.896 74.189C455.184 74.6317 455.327 75.1878 455.327 75.8574V80.041C455.327 80.3398 455.352 80.658 455.402 80.9956C455.457 81.3332 455.538 81.6237 455.643 81.8672V82H454.041C453.963 81.8229 453.902 81.5877 453.858 81.2944C453.814 80.9956 453.792 80.7189 453.792 80.4644ZM454.057 76.5547L454.074 77.6338H452.522C452.085 77.6338 451.694 77.6698 451.351 77.7417C451.008 77.8081 450.72 77.9105 450.488 78.0488C450.256 78.1872 450.079 78.3615 449.957 78.5718C449.835 78.7765 449.774 79.0173 449.774 79.2939C449.774 79.5762 449.838 79.8335 449.965 80.0659C450.092 80.2983 450.283 80.4837 450.538 80.6221C450.798 80.7549 451.116 80.8213 451.492 80.8213C451.963 80.8213 452.378 80.7217 452.738 80.5225C453.097 80.3232 453.382 80.0798 453.593 79.792C453.808 79.5042 453.925 79.2248 453.941 78.9536L454.597 79.6924C454.558 79.9248 454.453 80.1821 454.281 80.4644C454.11 80.7466 453.88 81.0177 453.593 81.2778C453.31 81.5324 452.973 81.7454 452.58 81.917C452.192 82.083 451.755 82.166 451.268 82.166C450.66 82.166 450.126 82.047 449.666 81.8091C449.212 81.5711 448.858 81.2529 448.604 80.8545C448.355 80.4505 448.23 79.9995 448.23 79.5015C448.23 79.02 448.324 78.5967 448.512 78.2314C448.701 77.8607 448.972 77.5535 449.326 77.3101C449.68 77.061 450.106 76.8729 450.604 76.7456C451.102 76.6183 451.658 76.5547 452.273 76.5547H454.057Z" fill="black"/>
<defs>
<filter id="filter0_d_802_839" x="0.0517578" y="12.0859" width="106.191" height="106.163" filterUnits="userSpaceOnUse" color-interpolation-filters="sRGB">
<feFlood flood-opacity="0" result="BackgroundImageFix"/>
<feColorMatrix in="SourceAlpha" type="matrix" values="0 0 0 0 0 0 0 0 0 0 0 0 0 0 0 0 0 0 127 0" result="hardAlpha"/>
<feOffset/>
<feGaussianBlur stdDeviation="12"/>
<feComposite in2="hardAlpha" operator="out"/>
<feColorMatrix type="matrix" values="0 0 0 0 0.579167 0 0 0 0 0.579167 0 0 0 0 0.579167 0 0 0 0.3 0"/>
<feBlend mode="normal" in2="BackgroundImageFix" result="effect1_dropShadow_802_839"/>
<feBlend mode="normal" in="SourceGraphic" in2="effect1_dropShadow_802_839" result="shape"/>
</filter>
</defs>
</svg>
