<svg width="346" height="85" viewBox="0 0 346 85" fill="none" xmlns="http://www.w3.org/2000/svg">
<g filter="url(#filter0_d_316_452)">
<path d="M316.5 54.8467C323.404 47.9431 323.404 36.7502 316.5 29.8467C309.596 22.9431 298.404 22.9431 291.5 29.8467C284.596 36.7502 284.596 47.9431 291.5 54.8467C298.404 61.7502 309.596 61.7502 316.5 54.8467Z" fill="white"/>
</g>
<path d="M309.526 42.3448C309.529 43.392 309.222 44.4166 308.643 45.2895C308.065 46.1624 307.241 46.8445 306.276 47.2497C305.31 47.655 304.246 47.7652 303.218 47.5665C302.19 47.3678 301.244 46.8691 300.499 46.1333C299.754 45.3975 299.243 44.4575 299.032 43.4319C298.82 42.4064 298.917 41.3411 299.31 40.3706C299.703 39.4001 300.375 38.5677 301.241 37.9785C302.106 37.3892 303.127 37.0696 304.174 37.0597C304.874 37.051 305.568 37.1812 306.217 37.4429C306.866 37.7045 307.456 38.0924 307.954 38.5841C308.452 39.0757 308.847 39.6613 309.117 40.3069C309.387 40.9525 309.526 41.6452 309.526 42.3448V42.3448Z" fill="#00A3FF"/>
<path d="M304.24 44.4156C305.384 44.4156 306.311 43.4884 306.311 42.3446C306.311 41.2009 305.384 40.2737 304.24 40.2737C303.096 40.2737 302.169 41.2009 302.169 42.3446C302.169 43.4884 303.096 44.4156 304.24 44.4156Z" fill="white"/>
<path d="M53.0456 59.6732C62.811 49.9124 62.811 34.0871 53.0455 24.3263C43.2801 14.5655 27.4473 14.5655 17.6819 24.3263C7.91646 34.087 7.91643 49.9124 17.6819 59.6732C27.4473 69.434 43.2802 69.434 53.0456 59.6732Z" fill="#00A3FF"/>
<path d="M32.5908 47.4963C33.1605 48.0009 33.8359 48.2532 34.6172 48.2532C35.4066 48.2532 36.082 48.0009 36.6436 47.4963C37.2132 46.9836 37.498 46.4018 37.498 45.7507C37.498 45.0997 37.2132 44.5219 36.6436 44.0173C36.082 43.5046 35.4066 43.2483 34.6172 43.2483C33.8359 43.2483 33.1605 43.5046 32.5908 44.0173C32.0293 44.5219 31.7485 45.0997 31.7485 45.7507C31.7485 46.4018 32.0293 46.9836 32.5908 47.4963ZM32.9937 39.6716C33.4168 40.0541 33.9621 40.2454 34.6294 40.2454C35.2967 40.2454 35.8379 40.0541 36.2529 39.6716C36.668 39.2891 36.8755 38.8171 36.8755 38.2556C36.8755 37.686 36.668 37.2099 36.2529 36.8274C35.8379 36.4449 35.2967 36.2537 34.6294 36.2537C33.9621 36.2537 33.4168 36.4449 32.9937 36.8274C32.5786 37.2099 32.3711 37.686 32.3711 38.2556C32.3711 38.8171 32.5786 39.2891 32.9937 39.6716ZM39.1826 49.718C37.9782 50.8248 36.4564 51.3782 34.6172 51.3782C32.7861 51.3782 31.2643 50.8248 30.0518 49.718C28.8473 48.6031 28.2451 47.2807 28.2451 45.7507C28.2451 45.2136 28.3346 44.7009 28.5137 44.2126C28.7008 43.7244 28.9206 43.3215 29.1729 43.0042C29.4251 42.6868 29.6774 42.4101 29.9297 42.1741C30.1901 41.9381 30.4139 41.7631 30.6011 41.6492L30.8696 41.5027C30.8208 41.4701 30.7516 41.4254 30.6621 41.3684C30.5726 41.3033 30.4098 41.165 30.1738 40.9534C29.9378 40.7336 29.7303 40.5017 29.5513 40.2576C29.3804 40.0053 29.2257 39.6798 29.0874 39.281C28.9491 38.8741 28.8799 38.4469 28.8799 37.9993C28.8799 36.6972 29.4292 35.5619 30.5278 34.5935C31.6265 33.6169 32.9896 33.1287 34.6172 33.1287C36.2529 33.1287 37.6201 33.6169 38.7188 34.5935C39.8255 35.5619 40.3789 36.6972 40.3789 37.9993C40.3789 38.6991 40.2121 39.342 39.8784 39.928C39.5448 40.5058 39.2111 40.9127 38.8774 41.1487L38.377 41.5027C38.4421 41.5352 38.5316 41.5881 38.6455 41.6614C38.7676 41.7346 38.9792 41.9014 39.2803 42.1619C39.5895 42.4223 39.8581 42.7071 40.0859 43.0164C40.3138 43.3256 40.5213 43.7244 40.7085 44.2126C40.9038 44.7009 41.0015 45.2136 41.0015 45.7507C41.0015 47.2807 40.3952 48.6031 39.1826 49.718Z" fill="white"/>
<path d="M111.572 12.3933H112.851L116.111 20.5076L119.365 12.3933H120.65L116.604 22.3464H115.605L111.572 12.3933ZM111.155 12.3933H112.283L112.468 18.4636V22.3464H111.155V12.3933ZM119.933 12.3933H121.061V22.3464H119.748V18.4636L119.933 12.3933ZM127.548 21.0818V17.2742C127.548 16.9825 127.489 16.7296 127.37 16.5154C127.256 16.2966 127.083 16.128 126.851 16.0095C126.618 15.891 126.331 15.8318 125.989 15.8318C125.67 15.8318 125.39 15.8865 125.148 15.9958C124.911 16.1052 124.725 16.2488 124.588 16.4265C124.456 16.6042 124.39 16.7957 124.39 17.0007H123.125C123.125 16.7364 123.193 16.4744 123.33 16.2146C123.467 15.9548 123.663 15.7201 123.918 15.5105C124.178 15.2963 124.488 15.1277 124.848 15.0046C125.212 14.877 125.618 14.8132 126.064 14.8132C126.602 14.8132 127.076 14.9044 127.486 15.0867C127.901 15.269 128.225 15.5447 128.457 15.9138C128.694 16.2784 128.812 16.7364 128.812 17.2878V20.7332C128.812 20.9792 128.833 21.2413 128.874 21.5193C128.92 21.7973 128.986 22.0365 129.072 22.2371V22.3464H127.753C127.689 22.2006 127.639 22.0069 127.603 21.7654C127.566 21.5193 127.548 21.2914 127.548 21.0818ZM127.767 17.8621L127.78 18.7507H126.502C126.142 18.7507 125.821 18.7804 125.538 18.8396C125.256 18.8943 125.019 18.9786 124.827 19.0925C124.636 19.2065 124.49 19.35 124.39 19.5232C124.289 19.6918 124.239 19.8901 124.239 20.1179C124.239 20.3503 124.292 20.5623 124.396 20.7537C124.501 20.9451 124.659 21.0977 124.868 21.2117C125.082 21.321 125.344 21.3757 125.654 21.3757C126.042 21.3757 126.383 21.2937 126.68 21.1296C126.976 20.9656 127.211 20.7651 127.384 20.5281C127.562 20.2911 127.657 20.061 127.671 19.8376L128.211 20.446C128.179 20.6375 128.092 20.8494 127.951 21.0818C127.81 21.3142 127.621 21.5375 127.384 21.7517C127.151 21.9613 126.873 22.1368 126.55 22.2781C126.231 22.4148 125.871 22.4832 125.47 22.4832C124.968 22.4832 124.529 22.3852 124.15 22.1892C123.777 21.9932 123.485 21.7312 123.275 21.4031C123.07 21.0704 122.968 20.699 122.968 20.2888C122.968 19.8923 123.045 19.5437 123.2 19.2429C123.355 18.9376 123.578 18.6847 123.87 18.4841C124.162 18.2791 124.513 18.1241 124.923 18.0193C125.333 17.9145 125.791 17.8621 126.297 17.8621H127.767ZM132.066 16.3718V25.1902H130.795V14.95H131.957L132.066 16.3718ZM137.05 18.5867V18.7302C137.05 19.268 136.986 19.767 136.858 20.2273C136.731 20.683 136.544 21.0795 136.298 21.4167C136.056 21.754 135.758 22.016 135.402 22.2029C135.047 22.3897 134.639 22.4832 134.179 22.4832C133.709 22.4832 133.295 22.4057 132.935 22.2507C132.575 22.0958 132.269 21.8702 132.019 21.574C131.768 21.2778 131.567 20.9223 131.417 20.5076C131.271 20.0929 131.171 19.6257 131.116 19.1062V18.3406C131.171 17.7937 131.273 17.3038 131.424 16.8708C131.574 16.4379 131.772 16.0688 132.019 15.7634C132.269 15.4535 132.572 15.2188 132.928 15.0593C133.283 14.8953 133.693 14.8132 134.158 14.8132C134.623 14.8132 135.035 14.9044 135.396 15.0867C135.756 15.2644 136.059 15.5196 136.305 15.8523C136.551 16.185 136.735 16.5837 136.858 17.0486C136.986 17.5089 137.05 18.0216 137.05 18.5867ZM135.778 18.7302V18.5867C135.778 18.2175 135.74 17.8712 135.662 17.5476C135.585 17.2195 135.464 16.9324 135.3 16.6863C135.14 16.4356 134.935 16.2397 134.685 16.0984C134.434 15.9526 134.135 15.8796 133.789 15.8796C133.47 15.8796 133.192 15.9343 132.955 16.0437C132.723 16.1531 132.524 16.3012 132.36 16.488C132.196 16.6703 132.062 16.88 131.957 17.1169C131.857 17.3494 131.782 17.5909 131.731 17.8416V19.6121C131.823 19.9311 131.95 20.2319 132.114 20.5144C132.278 20.7924 132.497 21.018 132.771 21.1912C133.044 21.3598 133.388 21.4441 133.803 21.4441C134.145 21.4441 134.438 21.3735 134.685 21.2322C134.935 21.0863 135.14 20.8881 135.3 20.6375C135.464 20.3868 135.585 20.0997 135.662 19.7761C135.74 19.448 135.778 19.0994 135.778 18.7302ZM140.037 14.95V22.3464H138.772V14.95H140.037ZM144.891 14.95L141.384 19.1882H139.613L139.422 18.0808H140.871L143.353 14.95H144.891ZM143.53 22.3464L140.81 18.9968L141.623 18.0808L145.137 22.3464H143.53ZM149.197 22.4832C148.682 22.4832 148.215 22.3966 147.796 22.2234C147.381 22.0457 147.023 21.7973 146.723 21.4783C146.426 21.1593 146.199 20.781 146.039 20.3435C145.88 19.906 145.8 19.4275 145.8 18.908V18.6208C145.8 18.0193 145.889 17.4838 146.066 17.0144C146.244 16.5404 146.486 16.1394 146.791 15.8113C147.096 15.4832 147.443 15.2348 147.83 15.0662C148.217 14.8975 148.618 14.8132 149.033 14.8132C149.562 14.8132 150.018 14.9044 150.4 15.0867C150.788 15.269 151.104 15.5242 151.351 15.8523C151.597 16.1759 151.779 16.5587 151.897 17.0007C152.016 17.4382 152.075 17.9167 152.075 18.4363V19.0037H146.552V17.9714H150.811V17.8757C150.792 17.5476 150.724 17.2286 150.605 16.9187C150.492 16.6088 150.309 16.3536 150.059 16.1531C149.808 15.9526 149.466 15.8523 149.033 15.8523C148.746 15.8523 148.482 15.9138 148.24 16.0369C147.999 16.1554 147.791 16.3331 147.618 16.5701C147.445 16.807 147.311 17.0964 147.215 17.4382C147.119 17.78 147.071 18.1742 147.071 18.6208V18.908C147.071 19.2589 147.119 19.5893 147.215 19.8992C147.315 20.2045 147.459 20.4734 147.646 20.7058C147.837 20.9382 148.067 21.1205 148.336 21.2527C148.609 21.3848 148.919 21.4509 149.266 21.4509C149.712 21.4509 150.09 21.3598 150.4 21.1775C150.71 20.9952 150.981 20.7514 151.214 20.446L151.979 21.0544C151.82 21.296 151.617 21.5261 151.371 21.7449C151.125 21.9636 150.822 22.1414 150.462 22.2781C150.106 22.4148 149.685 22.4832 149.197 22.4832ZM156.484 14.95V22.3464H155.213V14.95H156.484ZM158.966 14.95V15.9753H152.779V14.95H158.966ZM161.577 20.3435L164.988 14.95H166.26V22.3464H164.988V16.9529L161.577 22.3464H160.319V14.95H161.577V20.3435ZM173.308 18.156V19.1814H169.397V18.156H173.308ZM169.664 14.95V22.3464H168.399V14.95H169.664ZM174.333 14.95V22.3464H173.062V14.95H174.333ZM181.148 14.95V15.9958H177.73V22.3464H176.466V14.95H181.148ZM181.777 18.7302V18.573C181.777 18.0398 181.855 17.5453 182.01 17.0896C182.165 16.6293 182.388 16.2306 182.68 15.8933C182.971 15.5515 183.325 15.2872 183.739 15.1003C184.154 14.9089 184.619 14.8132 185.134 14.8132C185.653 14.8132 186.12 14.9089 186.535 15.1003C186.954 15.2872 187.31 15.5515 187.602 15.8933C187.898 16.2306 188.123 16.6293 188.278 17.0896C188.433 17.5453 188.511 18.0398 188.511 18.573V18.7302C188.511 19.2634 188.433 19.7579 188.278 20.2136C188.123 20.6694 187.898 21.0681 187.602 21.4099C187.31 21.7472 186.957 22.0115 186.542 22.2029C186.132 22.3897 185.667 22.4832 185.147 22.4832C184.628 22.4832 184.161 22.3897 183.746 22.2029C183.331 22.0115 182.976 21.7472 182.68 21.4099C182.388 21.0681 182.165 20.6694 182.01 20.2136C181.855 19.7579 181.777 19.2634 181.777 18.7302ZM183.042 18.573V18.7302C183.042 19.0994 183.085 19.448 183.172 19.7761C183.258 20.0997 183.388 20.3868 183.562 20.6375C183.739 20.8881 183.96 21.0863 184.225 21.2322C184.489 21.3735 184.797 21.4441 185.147 21.4441C185.494 21.4441 185.797 21.3735 186.057 21.2322C186.321 21.0863 186.54 20.8881 186.713 20.6375C186.886 20.3868 187.016 20.0997 187.103 19.7761C187.194 19.448 187.239 19.0994 187.239 18.7302V18.573C187.239 18.2084 187.194 17.8643 187.103 17.5408C187.016 17.2126 186.884 16.9233 186.706 16.6726C186.533 16.4174 186.314 16.2169 186.05 16.071C185.79 15.9252 185.485 15.8523 185.134 15.8523C184.787 15.8523 184.482 15.9252 184.218 16.071C183.958 16.2169 183.739 16.4174 183.562 16.6726C183.388 16.9233 183.258 17.2126 183.172 17.5408C183.085 17.8643 183.042 18.2084 183.042 18.573ZM193.569 19.0925H191.143L191.129 18.0808H193.111C193.503 18.0808 193.829 18.0421 194.089 17.9646C194.353 17.8871 194.551 17.7709 194.684 17.616C194.816 17.461 194.882 17.2696 194.882 17.0417C194.882 16.864 194.843 16.7091 194.766 16.5769C194.693 16.4402 194.581 16.3285 194.431 16.2419C194.28 16.1508 194.093 16.0847 193.87 16.0437C193.651 15.9981 193.394 15.9753 193.098 15.9753H191.478V22.3464H190.213V14.95H193.098C193.567 14.95 193.989 14.991 194.362 15.073C194.741 15.155 195.062 15.2804 195.326 15.449C195.595 15.613 195.8 15.8227 195.941 16.0779C196.083 16.3331 196.153 16.6339 196.153 16.9802C196.153 17.2035 196.108 17.4154 196.017 17.616C195.925 17.8165 195.791 17.9942 195.613 18.1492C195.436 18.3041 195.217 18.4317 194.957 18.532C194.697 18.6277 194.399 18.6892 194.062 18.7166L193.569 19.0925ZM193.569 22.3464H190.685L191.313 21.321H193.569C193.92 21.321 194.212 21.2778 194.444 21.1912C194.677 21.1 194.85 20.9724 194.964 20.8083C195.082 20.6397 195.142 20.4392 195.142 20.2068C195.142 19.9744 195.082 19.7761 194.964 19.6121C194.85 19.4434 194.677 19.3158 194.444 19.2292C194.212 19.1381 193.92 19.0925 193.569 19.0925H191.648L191.662 18.0808H194.062L194.52 18.4636C194.925 18.4955 195.269 18.5958 195.552 18.7644C195.834 18.933 196.049 19.1472 196.194 19.407C196.34 19.6622 196.413 19.9402 196.413 20.241C196.413 20.5873 196.347 20.8927 196.215 21.157C196.087 21.4213 195.9 21.6423 195.654 21.8201C195.408 21.9932 195.11 22.1254 194.759 22.2166C194.408 22.3031 194.011 22.3464 193.569 22.3464ZM202.47 21.0818V17.2742C202.47 16.9825 202.41 16.7296 202.292 16.5154C202.178 16.2966 202.005 16.128 201.772 16.0095C201.54 15.891 201.253 15.8318 200.911 15.8318C200.592 15.8318 200.312 15.8865 200.07 15.9958C199.833 16.1052 199.646 16.2488 199.51 16.4265C199.378 16.6042 199.312 16.7957 199.312 17.0007H198.047C198.047 16.7364 198.115 16.4744 198.252 16.2146C198.389 15.9548 198.585 15.7201 198.84 15.5105C199.1 15.2963 199.41 15.1277 199.77 15.0046C200.134 14.877 200.54 14.8132 200.986 14.8132C201.524 14.8132 201.998 14.9044 202.408 15.0867C202.823 15.269 203.146 15.5447 203.379 15.9138C203.616 16.2784 203.734 16.7364 203.734 17.2878V20.7332C203.734 20.9792 203.755 21.2413 203.796 21.5193C203.841 21.7973 203.908 22.0365 203.994 22.2371V22.3464H202.675C202.611 22.2006 202.561 22.0069 202.524 21.7654C202.488 21.5193 202.47 21.2914 202.47 21.0818ZM202.688 17.8621L202.702 18.7507H201.424C201.064 18.7507 200.743 18.7804 200.46 18.8396C200.177 18.8943 199.94 18.9786 199.749 19.0925C199.558 19.2065 199.412 19.35 199.312 19.5232C199.211 19.6918 199.161 19.8901 199.161 20.1179C199.161 20.3503 199.214 20.5623 199.318 20.7537C199.423 20.9451 199.58 21.0977 199.79 21.2117C200.004 21.321 200.266 21.3757 200.576 21.3757C200.964 21.3757 201.305 21.2937 201.602 21.1296C201.898 20.9656 202.132 20.7651 202.306 20.5281C202.483 20.2911 202.579 20.061 202.593 19.8376L203.133 20.446C203.101 20.6375 203.014 20.8494 202.873 21.0818C202.732 21.3142 202.543 21.5375 202.306 21.7517C202.073 21.9613 201.795 22.1368 201.472 22.2781C201.153 22.4148 200.793 22.4832 200.392 22.4832C199.89 22.4832 199.451 22.3852 199.072 22.1892C198.699 21.9932 198.407 21.7312 198.197 21.4031C197.992 21.0704 197.89 20.699 197.89 20.2888C197.89 19.8923 197.967 19.5437 198.122 19.2429C198.277 18.9376 198.5 18.6847 198.792 18.4841C199.084 18.2791 199.435 18.1241 199.845 18.0193C200.255 17.9145 200.713 17.8621 201.219 17.8621H202.688ZM207.221 18.8191H208.588L206.448 22.3464H205.081L207.221 18.8191ZM208.28 14.95H211.37V22.3464H210.105V15.9753H208.28C207.92 15.9753 207.626 16.0369 207.398 16.1599C207.171 16.2784 207.004 16.4333 206.899 16.6248C206.795 16.8162 206.742 17.0144 206.742 17.2195C206.742 17.42 206.79 17.6137 206.886 17.8005C206.981 17.9828 207.132 18.1332 207.337 18.2517C207.542 18.3702 207.806 18.4294 208.13 18.4294H210.447V19.4685H208.13C207.706 19.4685 207.33 19.4115 207.002 19.2976C206.674 19.1837 206.396 19.0264 206.168 18.8259C205.94 18.6208 205.767 18.3816 205.648 18.1082C205.53 17.8302 205.471 17.5294 205.471 17.2058C205.471 16.8822 205.532 16.5837 205.655 16.3103C205.783 16.0369 205.965 15.7976 206.202 15.5925C206.444 15.3875 206.738 15.2302 207.084 15.1208C207.435 15.0069 207.834 14.95 208.28 14.95ZM218.958 21.5808L221.016 14.95H222.369L219.402 23.488C219.334 23.6703 219.243 23.8663 219.129 24.0759C219.02 24.2901 218.878 24.4929 218.705 24.6843C218.532 24.8757 218.322 25.0307 218.076 25.1492C217.835 25.2722 217.545 25.3337 217.208 25.3337C217.108 25.3337 216.98 25.3201 216.825 25.2927C216.67 25.2654 216.561 25.2426 216.497 25.2244L216.49 24.199C216.527 24.2035 216.584 24.2081 216.661 24.2126C216.743 24.2218 216.8 24.2263 216.832 24.2263C217.119 24.2263 217.363 24.1876 217.563 24.1101C217.764 24.0372 217.933 23.9119 218.069 23.7341C218.211 23.561 218.331 23.3217 218.432 23.0164L218.958 21.5808ZM217.447 14.95L219.368 20.6921L219.696 22.0251L218.787 22.49L216.066 14.95H217.447ZM228.439 14.95V15.9958H224.7V14.95H228.439ZM224.885 14.95V22.3464H223.62V14.95H224.885ZM229.561 14.95V22.3464H228.289V14.95H229.561ZM235.952 21.0818V17.2742C235.952 16.9825 235.893 16.7296 235.774 16.5154C235.66 16.2966 235.487 16.128 235.255 16.0095C235.022 15.891 234.735 15.8318 234.394 15.8318C234.075 15.8318 233.794 15.8865 233.553 15.9958C233.316 16.1052 233.129 16.2488 232.992 16.4265C232.86 16.6042 232.794 16.7957 232.794 17.0007H231.529C231.529 16.7364 231.598 16.4744 231.734 16.2146C231.871 15.9548 232.067 15.7201 232.322 15.5105C232.582 15.2963 232.892 15.1277 233.252 15.0046C233.617 14.877 234.022 14.8132 234.469 14.8132C235.007 14.8132 235.48 14.9044 235.891 15.0867C236.305 15.269 236.629 15.5447 236.861 15.9138C237.098 16.2784 237.217 16.7364 237.217 17.2878V20.7332C237.217 20.9792 237.237 21.2413 237.278 21.5193C237.324 21.7973 237.39 22.0365 237.477 22.2371V22.3464H236.157C236.093 22.2006 236.043 22.0069 236.007 21.7654C235.97 21.5193 235.952 21.2914 235.952 21.0818ZM236.171 17.8621L236.185 18.7507H234.906C234.546 18.7507 234.225 18.7804 233.942 18.8396C233.66 18.8943 233.423 18.9786 233.231 19.0925C233.04 19.2065 232.894 19.35 232.794 19.5232C232.694 19.6918 232.644 19.8901 232.644 20.1179C232.644 20.3503 232.696 20.5623 232.801 20.7537C232.906 20.9451 233.063 21.0977 233.272 21.2117C233.487 21.321 233.749 21.3757 234.059 21.3757C234.446 21.3757 234.788 21.2937 235.084 21.1296C235.38 20.9656 235.615 20.7651 235.788 20.5281C235.966 20.2911 236.062 20.061 236.075 19.8376L236.615 20.446C236.583 20.6375 236.497 20.8494 236.355 21.0818C236.214 21.3142 236.025 21.5375 235.788 21.7517C235.556 21.9613 235.278 22.1368 234.954 22.2781C234.635 22.4148 234.275 22.4832 233.874 22.4832C233.373 22.4832 232.933 22.3852 232.555 22.1892C232.181 21.9932 231.889 21.7312 231.68 21.4031C231.475 21.0704 231.372 20.699 231.372 20.2888C231.372 19.8923 231.45 19.5437 231.604 19.2429C231.759 18.9376 231.983 18.6847 232.274 18.4841C232.566 18.2791 232.917 18.1241 233.327 18.0193C233.737 17.9145 234.195 17.8621 234.701 17.8621H236.171ZM240.58 14.95V22.3464H239.315V14.95H240.58ZM245.434 14.95L241.927 19.1882H240.156L239.965 18.0808H241.414L243.896 14.95H245.434ZM244.073 22.3464L241.353 18.9968L242.166 18.0808L245.68 22.3464H244.073ZM246.295 18.7302V18.573C246.295 18.0398 246.372 17.5453 246.527 17.0896C246.682 16.6293 246.906 16.2306 247.197 15.8933C247.489 15.5515 247.842 15.2872 248.257 15.1003C248.672 14.9089 249.136 14.8132 249.651 14.8132C250.171 14.8132 250.638 14.9089 251.053 15.1003C251.472 15.2872 251.827 15.5515 252.119 15.8933C252.415 16.2306 252.641 16.6293 252.796 17.0896C252.951 17.5453 253.028 18.0398 253.028 18.573V18.7302C253.028 19.2634 252.951 19.7579 252.796 20.2136C252.641 20.6694 252.415 21.0681 252.119 21.4099C251.827 21.7472 251.474 22.0115 251.06 22.2029C250.649 22.3897 250.185 22.4832 249.665 22.4832C249.146 22.4832 248.678 22.3897 248.264 22.2029C247.849 22.0115 247.493 21.7472 247.197 21.4099C246.906 21.0681 246.682 20.6694 246.527 20.2136C246.372 19.7579 246.295 19.2634 246.295 18.7302ZM247.56 18.573V18.7302C247.56 19.0994 247.603 19.448 247.689 19.7761C247.776 20.0997 247.906 20.3868 248.079 20.6375C248.257 20.8881 248.478 21.0863 248.742 21.2322C249.007 21.3735 249.314 21.4441 249.665 21.4441C250.011 21.4441 250.314 21.3735 250.574 21.2322C250.839 21.0863 251.057 20.8881 251.23 20.6375C251.404 20.3868 251.534 20.0997 251.62 19.7761C251.711 19.448 251.757 19.0994 251.757 18.7302V18.573C251.757 18.2084 251.711 17.8643 251.62 17.5408C251.534 17.2126 251.401 16.9233 251.224 16.6726C251.05 16.4174 250.832 16.2169 250.567 16.071C250.308 15.9252 250.002 15.8523 249.651 15.8523C249.305 15.8523 249 15.9252 248.735 16.071C248.476 16.2169 248.257 16.4174 248.079 16.6726C247.906 16.9233 247.776 17.2126 247.689 17.5408C247.603 17.8643 247.56 18.2084 247.56 18.573ZM258.087 19.0925H255.66L255.646 18.0808H257.629C258.021 18.0808 258.347 18.0421 258.606 17.9646C258.871 17.8871 259.069 17.7709 259.201 17.616C259.333 17.461 259.399 17.2696 259.399 17.0417C259.399 16.864 259.361 16.7091 259.283 16.5769C259.21 16.4402 259.099 16.3285 258.948 16.2419C258.798 16.1508 258.611 16.0847 258.388 16.0437C258.169 15.9981 257.911 15.9753 257.615 15.9753H255.995V22.3464H254.73V14.95H257.615C258.085 14.95 258.506 14.991 258.88 15.073C259.258 15.155 259.579 15.2804 259.844 15.449C260.113 15.613 260.318 15.8227 260.459 16.0779C260.6 16.3331 260.671 16.6339 260.671 16.9802C260.671 17.2035 260.625 17.4154 260.534 17.616C260.443 17.8165 260.309 17.9942 260.131 18.1492C259.953 18.3041 259.734 18.4317 259.475 18.532C259.215 18.6277 258.916 18.6892 258.579 18.7166L258.087 19.0925ZM258.087 22.3464H255.202L255.831 21.321H258.087C258.438 21.321 258.729 21.2778 258.962 21.1912C259.194 21.1 259.368 20.9724 259.481 20.8083C259.6 20.6397 259.659 20.4392 259.659 20.2068C259.659 19.9744 259.6 19.7761 259.481 19.6121C259.368 19.4434 259.194 19.3158 258.962 19.2292C258.729 19.1381 258.438 19.0925 258.087 19.0925H256.166L256.18 18.0808H258.579L259.037 18.4636C259.443 18.4955 259.787 18.5958 260.069 18.7644C260.352 18.933 260.566 19.1472 260.712 19.407C260.858 19.6622 260.931 19.9402 260.931 20.241C260.931 20.5873 260.865 20.8927 260.732 21.157C260.605 21.4213 260.418 21.6423 260.172 21.8201C259.926 21.9932 259.627 22.1254 259.276 22.2166C258.925 22.3031 258.529 22.3464 258.087 22.3464ZM264 14.95V22.3464H262.735V14.95H264ZM268.854 14.95L265.347 19.1882H263.576L263.385 18.0808H264.834L267.315 14.95H268.854ZM267.493 22.3464L264.772 18.9968L265.586 18.0808L269.1 22.3464H267.493ZM274.562 21.0818V17.2742C274.562 16.9825 274.502 16.7296 274.384 16.5154C274.27 16.2966 274.097 16.128 273.864 16.0095C273.632 15.891 273.345 15.8318 273.003 15.8318C272.684 15.8318 272.404 15.8865 272.162 15.9958C271.925 16.1052 271.738 16.2488 271.602 16.4265C271.469 16.6042 271.403 16.7957 271.403 17.0007H270.139C270.139 16.7364 270.207 16.4744 270.344 16.2146C270.48 15.9548 270.676 15.7201 270.932 15.5105C271.191 15.2963 271.501 15.1277 271.861 15.0046C272.226 14.877 272.632 14.8132 273.078 14.8132C273.616 14.8132 274.09 14.9044 274.5 15.0867C274.915 15.269 275.238 15.5447 275.471 15.9138C275.708 16.2784 275.826 16.7364 275.826 17.2878V20.7332C275.826 20.9792 275.847 21.2413 275.888 21.5193C275.933 21.7973 275.999 22.0365 276.086 22.2371V22.3464H274.767C274.703 22.2006 274.653 22.0069 274.616 21.7654C274.58 21.5193 274.562 21.2914 274.562 21.0818ZM274.78 17.8621L274.794 18.7507H273.516C273.156 18.7507 272.834 18.7804 272.552 18.8396C272.269 18.8943 272.032 18.9786 271.841 19.0925C271.649 19.2065 271.504 19.35 271.403 19.5232C271.303 19.6918 271.253 19.8901 271.253 20.1179C271.253 20.3503 271.305 20.5623 271.41 20.7537C271.515 20.9451 271.672 21.0977 271.882 21.2117C272.096 21.321 272.358 21.3757 272.668 21.3757C273.055 21.3757 273.397 21.2937 273.693 21.1296C273.99 20.9656 274.224 20.7651 274.397 20.5281C274.575 20.2911 274.671 20.061 274.685 19.8376L275.225 20.446C275.193 20.6375 275.106 20.8494 274.965 21.0818C274.824 21.3142 274.634 21.5375 274.397 21.7517C274.165 21.9613 273.887 22.1368 273.563 22.2781C273.244 22.4148 272.884 22.4832 272.483 22.4832C271.982 22.4832 271.542 22.3852 271.164 22.1892C270.79 21.9932 270.499 21.7312 270.289 21.4031C270.084 21.0704 269.981 20.699 269.981 20.2888C269.981 19.8923 270.059 19.5437 270.214 19.2429C270.369 18.9376 270.592 18.6847 270.884 18.4841C271.175 18.2791 271.526 18.1241 271.937 18.0193C272.347 17.9145 272.805 17.8621 273.311 17.8621H274.78ZM115.708 31.7302H116.747C116.747 32.1768 116.679 32.5323 116.542 32.7966C116.405 33.0564 116.218 33.2569 115.981 33.3982C115.749 33.5395 115.485 33.6466 115.188 33.7195C114.897 33.7924 114.594 33.863 114.279 33.9314C113.887 34.0134 113.523 34.1433 113.186 34.321C112.853 34.4942 112.566 34.7403 112.324 35.0593C112.087 35.3783 111.912 35.7931 111.798 36.3035C111.688 36.8139 111.659 37.4451 111.709 38.197V38.8259H110.67V38.197C110.67 37.3539 110.75 36.6179 110.909 35.989C111.073 35.3601 111.303 34.8292 111.6 34.3962C111.896 33.9633 112.247 33.6192 112.652 33.364C113.062 33.1088 113.514 32.9333 114.006 32.8376C114.361 32.7693 114.667 32.6964 114.922 32.6189C115.177 32.5369 115.371 32.4275 115.503 32.2908C115.64 32.1541 115.708 31.9672 115.708 31.7302ZM114.211 35.3738C114.694 35.3738 115.125 35.4581 115.503 35.6267C115.881 35.7953 116.202 36.03 116.467 36.3308C116.731 36.6316 116.932 36.9871 117.068 37.3972C117.21 37.8028 117.28 38.2449 117.28 38.7234V38.8738C117.28 39.3888 117.205 39.8673 117.055 40.3093C116.909 40.7468 116.692 41.1296 116.405 41.4578C116.123 41.7813 115.776 42.0343 115.366 42.2166C114.961 42.3988 114.498 42.49 113.979 42.49C113.459 42.49 112.994 42.3988 112.584 42.2166C112.178 42.0343 111.832 41.7813 111.545 41.4578C111.258 41.1296 111.039 40.7468 110.889 40.3093C110.743 39.8673 110.67 39.3888 110.67 38.8738V38.7234C110.67 38.6095 110.69 38.4978 110.731 38.3884C110.772 38.2791 110.823 38.1674 110.882 38.0535C110.946 37.9395 111.003 37.8188 111.053 37.6912C111.221 37.281 111.451 36.9005 111.743 36.5496C112.039 36.1986 112.393 35.9161 112.803 35.7019C113.217 35.4832 113.687 35.3738 114.211 35.3738ZM113.965 36.406C113.5 36.406 113.117 36.5131 112.816 36.7273C112.52 36.9415 112.299 37.2263 112.153 37.5818C112.007 37.9327 111.935 38.3132 111.935 38.7234V38.8738C111.935 39.2201 111.976 39.5483 112.058 39.8582C112.14 40.1681 112.263 40.4438 112.427 40.6853C112.595 40.9223 112.807 41.1091 113.062 41.2458C113.322 41.3826 113.628 41.4509 113.979 41.4509C114.329 41.4509 114.632 41.3826 114.888 41.2458C115.143 41.1091 115.353 40.9223 115.517 40.6853C115.681 40.4438 115.804 40.1681 115.886 39.8582C115.968 39.5483 116.009 39.2201 116.009 38.8738V38.7234C116.009 38.4135 115.968 38.1195 115.886 37.8416C115.804 37.5636 115.678 37.3175 115.51 37.1033C115.346 36.8891 115.134 36.7205 114.874 36.5974C114.619 36.4698 114.316 36.406 113.965 36.406ZM119.857 36.3718V45.1902H118.586V34.95H119.748L119.857 36.3718ZM124.841 38.5867V38.7302C124.841 39.268 124.777 39.767 124.649 40.2273C124.522 40.683 124.335 41.0795 124.089 41.4167C123.847 41.754 123.549 42.016 123.193 42.2029C122.838 42.3897 122.43 42.4832 121.97 42.4832C121.5 42.4832 121.086 42.4057 120.726 42.2507C120.366 42.0958 120.06 41.8702 119.81 41.574C119.559 41.2778 119.358 40.9223 119.208 40.5076C119.062 40.0929 118.962 39.6257 118.907 39.1062V38.3406C118.962 37.7937 119.064 37.3038 119.215 36.8708C119.365 36.4379 119.563 36.0688 119.81 35.7634C120.06 35.4535 120.363 35.2188 120.719 35.0593C121.074 34.8953 121.484 34.8132 121.949 34.8132C122.414 34.8132 122.826 34.9044 123.187 35.0867C123.547 35.2644 123.85 35.5196 124.096 35.8523C124.342 36.185 124.526 36.5837 124.649 37.0486C124.777 37.5089 124.841 38.0216 124.841 38.5867ZM123.569 38.7302V38.5867C123.569 38.2175 123.531 37.8712 123.453 37.5476C123.376 37.2195 123.255 36.9324 123.091 36.6863C122.931 36.4356 122.726 36.2397 122.476 36.0984C122.225 35.9526 121.926 35.8796 121.58 35.8796C121.261 35.8796 120.983 35.9343 120.746 36.0437C120.514 36.1531 120.315 36.3012 120.151 36.488C119.987 36.6703 119.853 36.88 119.748 37.1169C119.648 37.3494 119.573 37.5909 119.522 37.8416V39.6121C119.614 39.9311 119.741 40.2319 119.905 40.5144C120.069 40.7924 120.288 41.018 120.562 41.1912C120.835 41.3598 121.179 41.4441 121.594 41.4441C121.936 41.4441 122.229 41.3735 122.476 41.2322C122.726 41.0863 122.931 40.8881 123.091 40.6375C123.255 40.3868 123.376 40.0997 123.453 39.7761C123.531 39.448 123.569 39.0994 123.569 38.7302ZM129.523 42.4832C129.008 42.4832 128.541 42.3966 128.122 42.2234C127.707 42.0457 127.35 41.7973 127.049 41.4783C126.753 41.1593 126.525 40.781 126.365 40.3435C126.206 39.906 126.126 39.4275 126.126 38.908V38.6208C126.126 38.0193 126.215 37.4838 126.393 37.0144C126.57 36.5404 126.812 36.1394 127.117 35.8113C127.423 35.4832 127.769 35.2348 128.156 35.0662C128.544 34.8975 128.945 34.8132 129.359 34.8132C129.888 34.8132 130.344 34.9044 130.727 35.0867C131.114 35.269 131.431 35.5242 131.677 35.8523C131.923 36.1759 132.105 36.5587 132.224 37.0007C132.342 37.4382 132.401 37.9167 132.401 38.4363V39.0037H126.878V37.9714H131.137V37.8757C131.118 37.5476 131.05 37.2286 130.932 36.9187C130.818 36.6088 130.635 36.3536 130.385 36.1531C130.134 35.9526 129.792 35.8523 129.359 35.8523C129.072 35.8523 128.808 35.9138 128.566 36.0369C128.325 36.1554 128.118 36.3331 127.944 36.5701C127.771 36.807 127.637 37.0964 127.541 37.4382C127.445 37.78 127.397 38.1742 127.397 38.6208V38.908C127.397 39.2589 127.445 39.5893 127.541 39.8992C127.641 40.2045 127.785 40.4734 127.972 40.7058C128.163 40.9382 128.393 41.1205 128.662 41.2527C128.936 41.3848 129.245 41.4509 129.592 41.4509C130.038 41.4509 130.417 41.3598 130.727 41.1775C131.036 40.9952 131.308 40.7514 131.54 40.446L132.306 41.0544C132.146 41.296 131.943 41.5261 131.697 41.7449C131.451 41.9636 131.148 42.1414 130.788 42.2781C130.433 42.4148 130.011 42.4832 129.523 42.4832ZM138.896 38.156V39.1814H134.985V38.156H138.896ZM135.252 34.95V42.3464H133.987V34.95H135.252ZM139.921 34.95V42.3464H138.649V34.95H139.921ZM143.291 34.95H144.556L144.446 37.7185C144.419 38.4203 144.339 39.0264 144.207 39.5369C144.075 40.0473 143.906 40.4825 143.701 40.8425C143.496 41.198 143.266 41.4965 143.011 41.738C142.76 41.9796 142.5 42.1824 142.231 42.3464H141.603L141.637 41.3142L141.896 41.3074C142.047 41.1296 142.193 40.9473 142.334 40.7605C142.475 40.5691 142.605 40.3435 142.724 40.0837C142.842 39.8194 142.94 39.4981 143.018 39.1199C143.1 38.7371 143.152 38.2699 143.175 37.7185L143.291 34.95ZM143.605 34.95H148.056V42.3464H146.791V36.1189H143.605V34.95ZM141.315 41.3074H149.006V44.5271H147.741V42.3464H142.58V44.5271H141.309L141.315 41.3074ZM154.769 41.0818V37.2742C154.769 36.9825 154.709 36.7296 154.591 36.5154C154.477 36.2966 154.304 36.128 154.071 36.0095C153.839 35.891 153.552 35.8318 153.21 35.8318C152.891 35.8318 152.611 35.8865 152.369 35.9958C152.132 36.1052 151.945 36.2488 151.809 36.4265C151.676 36.6042 151.61 36.7957 151.61 37.0007H150.346C150.346 36.7364 150.414 36.4744 150.551 36.2146C150.688 35.9548 150.883 35.7201 151.139 35.5105C151.398 35.2963 151.708 35.1277 152.068 35.0046C152.433 34.877 152.839 34.8132 153.285 34.8132C153.823 34.8132 154.297 34.9044 154.707 35.0867C155.122 35.269 155.445 35.5447 155.678 35.9138C155.915 36.2784 156.033 36.7364 156.033 37.2878V40.7332C156.033 40.9792 156.054 41.2413 156.095 41.5193C156.14 41.7973 156.206 42.0365 156.293 42.2371V42.3464H154.974C154.91 42.2006 154.86 42.0069 154.823 41.7654C154.787 41.5193 154.769 41.2914 154.769 41.0818ZM154.987 37.8621L155.001 38.7507H153.723C153.363 38.7507 153.041 38.7804 152.759 38.8396C152.476 38.8943 152.239 38.9786 152.048 39.0925C151.856 39.2065 151.711 39.35 151.61 39.5232C151.51 39.6918 151.46 39.8901 151.46 40.1179C151.46 40.3503 151.512 40.5623 151.617 40.7537C151.722 40.9451 151.879 41.0977 152.089 41.2117C152.303 41.321 152.565 41.3757 152.875 41.3757C153.262 41.3757 153.604 41.2937 153.9 41.1296C154.197 40.9656 154.431 40.7651 154.604 40.5281C154.782 40.2911 154.878 40.061 154.892 39.8376L155.432 40.446C155.4 40.6375 155.313 40.8494 155.172 41.0818C155.031 41.3142 154.841 41.5375 154.604 41.7517C154.372 41.9613 154.094 42.1368 153.771 42.2781C153.451 42.4148 153.091 42.4832 152.69 42.4832C152.189 42.4832 151.749 42.3852 151.371 42.1892C150.997 41.9932 150.706 41.7312 150.496 41.4031C150.291 41.0704 150.188 40.699 150.188 40.2888C150.188 39.8923 150.266 39.5437 150.421 39.2429C150.576 38.9376 150.799 38.6847 151.091 38.4841C151.382 38.2791 151.733 38.1241 152.144 38.0193C152.554 37.9145 153.012 37.8621 153.518 37.8621H154.987ZM162.862 40.3435L166.273 34.95H167.545V42.3464H166.273V36.9529L162.862 42.3464H161.604V34.95H162.862V40.3435ZM176.91 38.4431H174.251V37.3699H176.91C177.425 37.3699 177.842 37.2878 178.161 37.1238C178.48 36.9597 178.713 36.7319 178.858 36.4402C179.009 36.1485 179.084 35.8158 179.084 35.4421C179.084 35.1003 179.009 34.7791 178.858 34.4783C178.713 34.1775 178.48 33.936 178.161 33.7537C177.842 33.5668 177.425 33.4734 176.91 33.4734H174.559V42.3464H173.239V32.3933H176.91C177.662 32.3933 178.298 32.5232 178.817 32.783C179.337 33.0427 179.731 33.4028 180 33.863C180.269 34.3188 180.403 34.8406 180.403 35.4285C180.403 36.0665 180.269 36.6111 180 37.0623C179.731 37.5134 179.337 37.8575 178.817 38.0945C178.298 38.3269 177.662 38.4431 176.91 38.4431ZM182.071 32.3933H185.366C186.114 32.3933 186.745 32.5072 187.26 32.7351C187.779 32.963 188.174 33.3002 188.442 33.7468C188.716 34.1889 188.853 34.7335 188.853 35.3806C188.853 35.8363 188.759 36.2533 188.572 36.6316C188.39 37.0053 188.126 37.3243 187.779 37.5886C187.438 37.8484 187.027 38.0421 186.549 38.1697L186.18 38.3132H183.083L183.069 37.24H185.407C185.881 37.24 186.275 37.158 186.59 36.9939C186.904 36.8253 187.141 36.5997 187.301 36.3171C187.46 36.0346 187.54 35.7224 187.54 35.3806C187.54 34.9978 187.465 34.6628 187.314 34.3757C187.164 34.0886 186.927 33.8676 186.604 33.7126C186.285 33.5531 185.872 33.4734 185.366 33.4734H183.391V42.3464H182.071V32.3933ZM187.889 42.3464L185.469 37.8347L186.843 37.8279L189.297 42.2644V42.3464H187.889ZM193.139 37.5955V38.6345H189.803V37.5955H193.139ZM195.75 34.95V42.3464H194.485V34.95H195.75ZM200.604 34.95L197.097 39.1882H195.326L195.135 38.0808H196.584L199.065 34.95H200.604ZM199.243 42.3464L196.522 38.9968L197.336 38.0808L200.85 42.3464H199.243ZM201.465 38.7302V38.573C201.465 38.0398 201.542 37.5453 201.697 37.0896C201.852 36.6293 202.076 36.2306 202.367 35.8933C202.659 35.5515 203.012 35.2872 203.427 35.1003C203.841 34.9089 204.306 34.8132 204.821 34.8132C205.341 34.8132 205.808 34.9089 206.223 35.1003C206.642 35.2872 206.997 35.5515 207.289 35.8933C207.585 36.2306 207.811 36.6293 207.966 37.0896C208.121 37.5453 208.198 38.0398 208.198 38.573V38.7302C208.198 39.2634 208.121 39.7579 207.966 40.2136C207.811 40.6694 207.585 41.0681 207.289 41.4099C206.997 41.7472 206.644 42.0115 206.229 42.2029C205.819 42.3897 205.354 42.4832 204.835 42.4832C204.315 42.4832 203.848 42.3897 203.434 42.2029C203.019 42.0115 202.663 41.7472 202.367 41.4099C202.076 41.0681 201.852 40.6694 201.697 40.2136C201.542 39.7579 201.465 39.2634 201.465 38.7302ZM202.729 38.573V38.7302C202.729 39.0994 202.773 39.448 202.859 39.7761C202.946 40.0997 203.076 40.3868 203.249 40.6375C203.427 40.8881 203.648 41.0863 203.912 41.2322C204.176 41.3735 204.484 41.4441 204.835 41.4441C205.181 41.4441 205.484 41.3735 205.744 41.2322C206.008 41.0863 206.227 40.8881 206.4 40.6375C206.574 40.3868 206.703 40.0997 206.79 39.7761C206.881 39.448 206.927 39.0994 206.927 38.7302V38.573C206.927 38.2084 206.881 37.8643 206.79 37.5408C206.703 37.2126 206.571 36.9233 206.394 36.6726C206.22 36.4174 206.002 36.2169 205.737 36.071C205.478 35.9252 205.172 35.8523 204.821 35.8523C204.475 35.8523 204.17 35.9252 203.905 36.071C203.646 36.2169 203.427 36.4174 203.249 36.6726C203.076 36.9233 202.946 37.2126 202.859 37.5408C202.773 37.8643 202.729 38.2084 202.729 38.573ZM214.036 40.6648L216.552 34.95H217.769L214.474 42.3464H213.599L210.317 34.95H211.534L214.036 40.6648ZM211.165 34.95V42.3464H209.9V34.95H211.165ZM216.866 42.3464V34.95H218.138V42.3464H216.866ZM225.104 34.95V35.9958H221.364V34.95H225.104ZM221.549 34.95V42.3464H220.284V34.95H221.549ZM226.225 34.95V42.3464H224.953V34.95H226.225ZM232.616 41.0818V37.2742C232.616 36.9825 232.557 36.7296 232.438 36.5154C232.325 36.2966 232.151 36.128 231.919 36.0095C231.687 35.891 231.399 35.8318 231.058 35.8318C230.739 35.8318 230.458 35.8865 230.217 35.9958C229.98 36.1052 229.793 36.2488 229.656 36.4265C229.524 36.6042 229.458 36.7957 229.458 37.0007H228.193C228.193 36.7364 228.262 36.4744 228.398 36.2146C228.535 35.9548 228.731 35.7201 228.986 35.5105C229.246 35.2963 229.556 35.1277 229.916 35.0046C230.281 34.877 230.686 34.8132 231.133 34.8132C231.671 34.8132 232.145 34.9044 232.555 35.0867C232.969 35.269 233.293 35.5447 233.525 35.9138C233.762 36.2784 233.881 36.7364 233.881 37.2878V40.7332C233.881 40.9792 233.901 41.2413 233.942 41.5193C233.988 41.7973 234.054 42.0365 234.141 42.2371V42.3464H232.821C232.757 42.2006 232.707 42.0069 232.671 41.7654C232.634 41.5193 232.616 41.2914 232.616 41.0818ZM232.835 37.8621L232.849 38.7507H231.57C231.21 38.7507 230.889 38.7804 230.606 38.8396C230.324 38.8943 230.087 38.9786 229.896 39.0925C229.704 39.2065 229.558 39.35 229.458 39.5232C229.358 39.6918 229.308 39.8901 229.308 40.1179C229.308 40.3503 229.36 40.5623 229.465 40.7537C229.57 40.9451 229.727 41.0977 229.937 41.2117C230.151 41.321 230.413 41.3757 230.723 41.3757C231.11 41.3757 231.452 41.2937 231.748 41.1296C232.044 40.9656 232.279 40.7651 232.452 40.5281C232.63 40.2911 232.726 40.061 232.739 39.8376L233.279 40.446C233.247 40.6375 233.161 40.8494 233.02 41.0818C232.878 41.3142 232.689 41.5375 232.452 41.7517C232.22 41.9613 231.942 42.1368 231.618 42.2781C231.299 42.4148 230.939 42.4832 230.538 42.4832C230.037 42.4832 229.597 42.3852 229.219 42.1892C228.845 41.9932 228.553 41.7312 228.344 41.4031C228.139 41.0704 228.036 40.699 228.036 40.2888C228.036 39.8923 228.114 39.5437 228.269 39.2429C228.424 38.9376 228.647 38.6847 228.938 38.4841C229.23 38.2791 229.581 38.1241 229.991 38.0193C230.401 37.9145 230.859 37.8621 231.365 37.8621H232.835ZM240.888 38.156V39.1814H236.978V38.156H240.888ZM237.244 34.95V42.3464H235.979V34.95H237.244ZM241.913 34.95V42.3464H240.642V34.95H241.913ZM245.317 40.3435L248.729 34.95H250V42.3464H248.729V36.9529L245.317 42.3464H244.06V34.95H245.317V40.3435ZM253.527 38.8191H254.895L252.755 42.3464H251.388L253.527 38.8191ZM254.587 34.95H257.677V42.3464H256.412V35.9753H254.587C254.227 35.9753 253.933 36.0369 253.705 36.1599C253.477 36.2784 253.311 36.4333 253.206 36.6248C253.101 36.8162 253.049 37.0144 253.049 37.2195C253.049 37.42 253.097 37.6137 253.192 37.8005C253.288 37.9828 253.438 38.1332 253.644 38.2517C253.849 38.3702 254.113 38.4294 254.437 38.4294H256.754V39.4685H254.437C254.013 39.4685 253.637 39.4115 253.309 39.2976C252.98 39.1837 252.702 39.0264 252.475 38.8259C252.247 38.6208 252.074 38.3816 251.955 38.1082C251.837 37.8302 251.777 37.5294 251.777 37.2058C251.777 36.8822 251.839 36.5837 251.962 36.3103C252.09 36.0369 252.272 35.7976 252.509 35.5925C252.75 35.3875 253.044 35.2302 253.391 35.1208C253.742 35.0069 254.14 34.95 254.587 34.95ZM115.981 58.156V59.1814H112.071V58.156H115.981ZM112.338 54.95V62.3464H111.073V54.95H112.338ZM117.007 54.95V62.3464H115.735V54.95H117.007ZM123.405 61.0818V57.2742C123.405 56.9825 123.346 56.7296 123.228 56.5154C123.114 56.2966 122.94 56.128 122.708 56.0095C122.476 55.891 122.188 55.8318 121.847 55.8318C121.528 55.8318 121.247 55.8865 121.006 55.9958C120.769 56.1052 120.582 56.2488 120.445 56.4265C120.313 56.6042 120.247 56.7957 120.247 57.0007H118.982C118.982 56.7364 119.051 56.4744 119.188 56.2146C119.324 55.9548 119.52 55.7201 119.775 55.5105C120.035 55.2963 120.345 55.1277 120.705 55.0046C121.07 54.877 121.475 54.8132 121.922 54.8132C122.46 54.8132 122.934 54.9044 123.344 55.0867C123.758 55.269 124.082 55.5447 124.314 55.9138C124.551 56.2784 124.67 56.7364 124.67 57.2878V60.7332C124.67 60.9792 124.69 61.2413 124.731 61.5193C124.777 61.7973 124.843 62.0365 124.93 62.2371V62.3464H123.61C123.547 62.2006 123.496 62.0069 123.46 61.7654C123.424 61.5193 123.405 61.2914 123.405 61.0818ZM123.624 57.8621L123.638 58.7507H122.359C121.999 58.7507 121.678 58.7804 121.396 58.8396C121.113 58.8943 120.876 58.9786 120.685 59.0925C120.493 59.2065 120.347 59.35 120.247 59.5232C120.147 59.6918 120.097 59.8901 120.097 60.1179C120.097 60.3503 120.149 60.5623 120.254 60.7537C120.359 60.9451 120.516 61.0977 120.726 61.2117C120.94 61.321 121.202 61.3757 121.512 61.3757C121.899 61.3757 122.241 61.2937 122.537 61.1296C122.833 60.9656 123.068 60.7651 123.241 60.5281C123.419 60.2911 123.515 60.061 123.528 59.8376L124.068 60.446C124.036 60.6375 123.95 60.8494 123.809 61.0818C123.667 61.3142 123.478 61.5375 123.241 61.7517C123.009 61.9613 122.731 62.1368 122.407 62.2781C122.088 62.4148 121.728 62.4832 121.327 62.4832C120.826 62.4832 120.386 62.3852 120.008 62.1892C119.634 61.9932 119.342 61.7312 119.133 61.4031C118.928 61.0704 118.825 60.699 118.825 60.2888C118.825 59.8923 118.903 59.5437 119.058 59.2429C119.213 58.9376 119.436 58.6847 119.728 58.4841C120.019 58.2791 120.37 58.1241 120.78 58.0193C121.19 57.9145 121.648 57.8621 122.154 57.8621H123.624ZM131.396 56.3718V65.1902H130.125V54.95H131.287L131.396 56.3718ZM136.38 58.5867V58.7302C136.38 59.268 136.316 59.767 136.188 60.2273C136.061 60.683 135.874 61.0795 135.628 61.4167C135.386 61.754 135.088 62.016 134.732 62.2029C134.377 62.3897 133.969 62.4832 133.509 62.4832C133.039 62.4832 132.625 62.4057 132.265 62.2507C131.905 62.0958 131.599 61.8702 131.349 61.574C131.098 61.2778 130.897 60.9223 130.747 60.5076C130.601 60.0929 130.501 59.6257 130.446 59.1062V58.3406C130.501 57.7937 130.604 57.3038 130.754 56.8708C130.904 56.4379 131.103 56.0688 131.349 55.7634C131.599 55.4535 131.902 55.2188 132.258 55.0593C132.613 54.8953 133.023 54.8132 133.488 54.8132C133.953 54.8132 134.366 54.9044 134.726 55.0867C135.086 55.2644 135.389 55.5196 135.635 55.8523C135.881 56.185 136.065 56.5837 136.188 57.0486C136.316 57.5089 136.38 58.0216 136.38 58.5867ZM135.108 58.7302V58.5867C135.108 58.2175 135.07 57.8712 134.992 57.5476C134.915 57.2195 134.794 56.9324 134.63 56.6863C134.47 56.4356 134.265 56.2397 134.015 56.0984C133.764 55.9526 133.465 55.8796 133.119 55.8796C132.8 55.8796 132.522 55.9343 132.285 56.0437C132.053 56.1531 131.854 56.3012 131.69 56.488C131.526 56.6703 131.392 56.88 131.287 57.1169C131.187 57.3494 131.112 57.5909 131.062 57.8416V59.6121C131.153 59.9311 131.28 60.2319 131.444 60.5144C131.608 60.7924 131.827 61.018 132.101 61.1912C132.374 61.3598 132.718 61.4441 133.133 61.4441C133.475 61.4441 133.769 61.3735 134.015 61.2322C134.265 61.0863 134.47 60.8881 134.63 60.6375C134.794 60.3868 134.915 60.0997 134.992 59.7761C135.07 59.448 135.108 59.0994 135.108 58.7302ZM139.032 57.4929H141.254C141.851 57.4929 142.354 57.5977 142.765 57.8074C143.175 58.0125 143.485 58.2973 143.694 58.6619C143.909 59.0219 144.016 59.432 144.016 59.8923C144.016 60.2341 143.956 60.5554 143.838 60.8562C143.719 61.1524 143.542 61.4122 143.305 61.6355C143.072 61.8588 142.783 62.0343 142.437 62.1619C142.095 62.2849 141.701 62.3464 141.254 62.3464H138.109V54.95H139.374V61.3074H141.254C141.618 61.3074 141.91 61.2413 142.129 61.1091C142.348 60.977 142.505 60.8061 142.601 60.5964C142.696 60.3868 142.744 60.1681 142.744 59.9402C142.744 59.7169 142.696 59.4981 142.601 59.2839C142.505 59.0697 142.348 58.892 142.129 58.7507C141.91 58.6049 141.618 58.532 141.254 58.532H139.032V57.4929ZM146.647 54.95V62.3464H145.383V54.95H146.647ZM153.88 58.156V59.1814H149.97V58.156H153.88ZM150.236 54.95V62.3464H148.972V54.95H150.236ZM154.905 54.95V62.3464H153.634V54.95H154.905ZM158.316 54.95V62.3464H157.052V54.95H158.316ZM163.17 54.95L159.663 59.1882H157.893L157.701 58.0808H159.15L161.632 54.95H163.17ZM161.81 62.3464L159.089 58.9968L159.902 58.0808L163.416 62.3464H161.81ZM167.477 62.4832C166.962 62.4832 166.494 62.3966 166.075 62.2234C165.66 62.0457 165.303 61.7973 165.002 61.4783C164.706 61.1593 164.478 60.781 164.318 60.3435C164.159 59.906 164.079 59.4275 164.079 58.908V58.6208C164.079 58.0193 164.168 57.4838 164.346 57.0144C164.523 56.5404 164.765 56.1394 165.07 55.8113C165.376 55.4832 165.722 55.2348 166.109 55.0662C166.497 54.8975 166.898 54.8132 167.312 54.8132C167.841 54.8132 168.297 54.9044 168.68 55.0867C169.067 55.269 169.384 55.5242 169.63 55.8523C169.876 56.1759 170.058 56.5587 170.177 57.0007C170.295 57.4382 170.354 57.9167 170.354 58.4363V59.0037H164.831V57.9714H169.09V57.8757C169.072 57.5476 169.003 57.2286 168.885 56.9187C168.771 56.6088 168.589 56.3536 168.338 56.1531C168.087 55.9526 167.745 55.8523 167.312 55.8523C167.025 55.8523 166.761 55.9138 166.52 56.0369C166.278 56.1554 166.071 56.3331 165.897 56.5701C165.724 56.807 165.59 57.0964 165.494 57.4382C165.398 57.78 165.351 58.1742 165.351 58.6208V58.908C165.351 59.2589 165.398 59.5893 165.494 59.8992C165.594 60.2045 165.738 60.4734 165.925 60.7058C166.116 60.9382 166.346 61.1205 166.615 61.2527C166.889 61.3848 167.199 61.4509 167.545 61.4509C167.992 61.4509 168.37 61.3598 168.68 61.1775C168.99 60.9952 169.261 60.7514 169.493 60.446L170.259 61.0544C170.099 61.296 169.896 61.5261 169.65 61.7449C169.404 61.9636 169.101 62.1414 168.741 62.2781C168.386 62.4148 167.964 62.4832 167.477 62.4832Z" fill="black"/>
<path d="M85 42.3464L59 42.3464" stroke="#00A3FF" stroke-miterlimit="10" stroke-linecap="round"/>
<path d="M80 40.4763C79.9954 41.9607 80.4313 43.413 81.2526 44.6495C82.0739 45.8859 83.2436 46.8508 84.6136 47.4221C85.9837 47.9934 87.4924 48.1452 88.9488 47.8585C90.4052 47.5718 91.7437 46.8593 92.795 45.8114C93.8462 44.7634 94.5629 43.4271 94.8542 41.9716C95.1455 40.5161 94.9983 39.0069 94.4313 37.6351C93.8644 36.2633 92.9031 35.0905 91.6692 34.2654C90.4354 33.4402 88.9844 32.9998 87.5 32.9998C85.515 32.9997 83.6108 33.7867 82.205 35.1882C80.7991 36.5896 80.0062 38.4913 80 40.4763V40.4763Z" fill="#00A3FF"/>
<path d="M87.4766 43.406C85.8586 43.406 84.5469 42.0943 84.5469 40.4763C84.5469 38.8583 85.8586 37.5466 87.4766 37.5466C89.0946 37.5466 90.4062 38.8583 90.4062 40.4763C90.4062 42.0943 89.0946 43.406 87.4766 43.406Z" fill="white"/>
<defs>
<filter id="filter0_d_316_452" x="262.322" y="0.668945" width="83.3555" height="83.3555" filterUnits="userSpaceOnUse" color-interpolation-filters="sRGB">
<feFlood flood-opacity="0" result="BackgroundImageFix"/>
<feColorMatrix in="SourceAlpha" type="matrix" values="0 0 0 0 0 0 0 0 0 0 0 0 0 0 0 0 0 0 127 0" result="hardAlpha"/>
<feOffset/>
<feGaussianBlur stdDeviation="12"/>
<feComposite in2="hardAlpha" operator="out"/>
<feColorMatrix type="matrix" values="0 0 0 0 0.579167 0 0 0 0 0.579167 0 0 0 0 0.579167 0 0 0 0.3 0"/>
<feBlend mode="normal" in2="BackgroundImageFix" result="effect1_dropShadow_316_452"/>
<feBlend mode="normal" in="SourceGraphic" in2="effect1_dropShadow_316_452" result="shape"/>
</filter>
</defs>
</svg>
