<svg width="652" height="116" viewBox="0 0 652 116" fill="none" xmlns="http://www.w3.org/2000/svg">
<path d="M115.819 58.0351C115.819 26.0524 89.8924 0.137746 57.9097 0.152891C25.9271 0.168035 -3.92932e-06 26.1073 -2.53132e-06 58.09C-1.13331e-06 90.0726 25.9271 115.987 57.9097 115.972C89.8924 115.957 115.819 90.0178 115.819 58.0351Z" fill="#00A3FF"/>
<path d="M59.3906 52.1091C63.4336 52.1091 66.793 53.447 69.4688 56.1228C72.1641 58.7986 73.5117 62.158 73.5117 66.2009C73.5117 70.4392 72.0371 73.9548 69.0879 76.7478C66.1582 79.5212 62.3301 80.908 57.6035 80.908C55.6113 80.908 53.6973 80.6736 51.8613 80.2048C50.0449 79.7556 48.5605 79.2087 47.4082 78.5642C46.2754 77.9197 45.2793 77.2849 44.4199 76.6599C43.5605 76.0154 42.9551 75.449 42.6035 74.9607L41.9883 74.2869L47.4082 68.6033C47.6816 68.9158 48.0625 69.3064 48.5508 69.7751C49.0586 70.2244 50.1523 70.8396 51.832 71.6208C53.5117 72.4021 55.2305 72.7927 56.9883 72.7927C59.2344 72.7927 60.9922 72.1873 62.2617 70.9763C63.5508 69.7458 64.1953 68.1541 64.1953 66.2009C64.1953 64.2478 63.5117 62.6072 62.1445 61.2791C60.7969 59.9509 59.0781 59.2869 56.9883 59.2869C55.543 59.2869 54.2539 59.5603 53.1211 60.1072C51.9883 60.6541 51.1973 61.2009 50.748 61.7478L50.1035 62.5974L43.8047 62.0115L45.2988 37.988H70.7871V45.8103H53.4141L52.7988 53.6033C54.4004 52.6072 56.5977 52.1091 59.3906 52.1091Z" fill="white"/>
<path d="M476 57.9998L594 57.9997" stroke="#00A3FF" stroke-miterlimit="10" stroke-linecap="round"/>
<g filter="url(#filter0_d_822_2152)">
<path d="M618.721 78.7313C630.083 67.3742 630.083 48.9607 618.721 37.6036C607.358 26.2466 588.936 26.2466 577.574 37.6037C566.211 48.9607 566.211 67.3742 577.574 78.7313C588.936 90.0884 607.358 90.0884 618.721 78.7313Z" fill="white"/>
</g>
<path d="M607.241 58.1644C607.246 59.8871 606.741 61.5727 605.789 63.0088C604.837 64.4448 603.481 65.5669 601.892 66.2335C600.302 66.9002 598.551 67.0815 596.859 66.7546C595.167 66.4278 593.61 65.6073 592.383 64.3968C591.157 63.1863 590.317 61.64 589.969 59.9528C589.621 58.2657 589.78 56.5133 590.427 54.9166C591.075 53.32 592.18 51.9507 593.605 50.9813C595.03 50.012 596.71 49.4861 598.433 49.4699C599.585 49.4555 600.727 49.6697 601.795 50.1002C602.863 50.5307 603.835 51.1688 604.655 51.9776C605.474 52.7864 606.124 53.7498 606.568 54.8118C607.012 55.8739 607.241 57.0134 607.241 58.1644Z" fill="#00A3FF"/>
<path d="M598.542 61.5712C600.425 61.5712 601.951 60.0459 601.951 58.1643C601.951 56.2827 600.425 54.7573 598.542 54.7573C596.66 54.7573 595.134 56.2827 595.134 58.1643C595.134 60.0459 596.66 61.5712 598.542 61.5712Z" fill="white"/>
<path d="M478.452 58.1642C478.457 59.8904 477.95 61.5793 476.994 63.0172C476.039 64.4551 474.678 65.5772 473.084 66.2415C471.49 66.9058 469.735 67.0824 468.04 66.749C466.346 66.4155 464.789 65.587 463.565 64.3684C462.342 63.1497 461.509 61.5957 461.17 59.9031C460.831 58.2105 461.002 56.4554 461.662 54.8601C462.321 53.2649 463.44 51.9011 464.875 50.9415C466.311 49.982 467.999 49.4697 469.726 49.4697C472.035 49.4697 474.251 50.3849 475.886 52.0146C477.522 53.6444 478.445 55.8558 478.452 58.1642Z" fill="#00A3FF"/>
<path d="M469.753 61.5712C471.636 61.5712 473.162 60.0459 473.162 58.1643C473.162 56.2827 471.636 54.7573 469.753 54.7573C467.871 54.7573 466.345 56.2827 466.345 58.1643C466.345 60.0459 467.871 61.5712 469.753 61.5712Z" fill="white"/>
<path d="M149.031 28.0837V29.7703H140.566V28.0837H149.031ZM140.889 21.3591V36.9998H138.815V21.3591H140.889ZM150.836 21.3591V36.9998H148.773V21.3591H150.836ZM161.073 35.0125V29.0291C161.073 28.5707 160.98 28.1733 160.794 27.8367C160.615 27.4929 160.343 27.2279 159.978 27.0417C159.612 26.8556 159.161 26.7625 158.624 26.7625C158.123 26.7625 157.682 26.8484 157.303 27.0203C156.93 27.1921 156.637 27.4177 156.422 27.697C156.214 27.9763 156.11 28.2771 156.11 28.5994H154.123C154.123 28.184 154.23 27.7722 154.445 27.364C154.66 26.9558 154.968 26.587 155.369 26.2576C155.777 25.921 156.264 25.656 156.83 25.4626C157.403 25.2621 158.04 25.1619 158.742 25.1619C159.587 25.1619 160.332 25.3051 160.977 25.5916C161.628 25.878 162.137 26.3113 162.502 26.8914C162.874 27.4643 163.061 28.184 163.061 29.0505V34.4646C163.061 34.8513 163.093 35.2631 163.157 35.7C163.229 36.1368 163.333 36.5128 163.469 36.8279V36.9998H161.396C161.295 36.7706 161.216 36.4662 161.159 36.0867C161.102 35.7 161.073 35.3419 161.073 35.0125ZM161.417 29.9529L161.438 31.3494H159.43C158.864 31.3494 158.359 31.3959 157.915 31.489C157.471 31.575 157.099 31.7074 156.798 31.8865C156.497 32.0655 156.268 32.2911 156.11 32.5632C155.953 32.8282 155.874 33.1397 155.874 33.4978C155.874 33.863 155.956 34.196 156.121 34.4968C156.286 34.7976 156.533 35.0375 156.862 35.2166C157.199 35.3884 157.611 35.4744 158.098 35.4744C158.706 35.4744 159.243 35.3455 159.709 35.0876C160.174 34.8298 160.543 34.5147 160.815 34.1423C161.095 33.7699 161.245 33.4083 161.267 33.0574L162.115 34.0134C162.065 34.3142 161.929 34.6472 161.707 35.0125C161.485 35.3777 161.188 35.7286 160.815 36.0652C160.45 36.3946 160.013 36.6703 159.505 36.8923C159.004 37.1072 158.438 37.2146 157.808 37.2146C157.02 37.2146 156.329 37.0606 155.734 36.7527C155.147 36.4447 154.689 36.033 154.359 35.5173C154.037 34.9945 153.876 34.4109 153.876 33.7664C153.876 33.1433 153.998 32.5955 154.241 32.1228C154.485 31.643 154.836 31.2455 155.294 30.9304C155.752 30.6082 156.304 30.3647 156.948 30.2C157.593 30.0352 158.312 29.9529 159.107 29.9529H161.417ZM173.932 25.3767V27.0203H168.056V25.3767H173.932ZM168.346 25.3767V36.9998H166.358V25.3767H168.346ZM175.693 25.3767V36.9998H173.695V25.3767H175.693ZM181.032 33.8523L186.393 25.3767H188.391V36.9998H186.393V28.5242L181.032 36.9998H179.056V25.3767H181.032V33.8523ZM196.232 35.5818C196.705 35.5818 197.142 35.4851 197.543 35.2917C197.944 35.0984 198.273 34.8334 198.531 34.4968C198.789 34.1531 198.936 33.7628 198.972 33.3259H200.862C200.826 34.0134 200.594 34.6544 200.164 35.2488C199.742 35.836 199.187 36.3123 198.499 36.6775C197.812 37.0356 197.056 37.2146 196.232 37.2146C195.359 37.2146 194.596 37.0606 193.944 36.7527C193.3 36.4447 192.763 36.0222 192.333 35.4851C191.91 34.948 191.592 34.3321 191.377 33.6375C191.169 32.9356 191.065 32.1944 191.065 31.4138V30.9626C191.065 30.182 191.169 29.4444 191.377 28.7498C191.592 28.0479 191.91 27.4285 192.333 26.8914C192.763 26.3542 193.3 25.9317 193.944 25.6238C194.596 25.3158 195.359 25.1619 196.232 25.1619C197.142 25.1619 197.937 25.3481 198.617 25.7205C199.298 26.0857 199.831 26.587 200.218 27.2244C200.612 27.8546 200.826 28.5707 200.862 29.3728H198.972C198.936 28.893 198.8 28.4597 198.563 28.073C198.334 27.6863 198.019 27.3783 197.618 27.1492C197.224 26.9128 196.762 26.7947 196.232 26.7947C195.624 26.7947 195.112 26.9164 194.696 27.1599C194.288 27.3962 193.962 27.7185 193.719 28.1267C193.482 28.5278 193.311 28.9753 193.203 29.4695C193.103 29.9565 193.053 30.4542 193.053 30.9626V31.4138C193.053 31.9223 193.103 32.4236 193.203 32.9177C193.303 33.4119 193.472 33.8595 193.708 34.2605C193.951 34.6615 194.277 34.9838 194.686 35.2273C195.101 35.4636 195.617 35.5818 196.232 35.5818ZM209.95 35.0125V29.0291C209.95 28.5707 209.857 28.1733 209.671 27.8367C209.492 27.4929 209.22 27.2279 208.854 27.0417C208.489 26.8556 208.038 26.7625 207.501 26.7625C207 26.7625 206.559 26.8484 206.18 27.0203C205.807 27.1921 205.514 27.4177 205.299 27.697C205.091 27.9763 204.987 28.2771 204.987 28.5994H203C203 28.184 203.107 27.7722 203.322 27.364C203.537 26.9558 203.845 26.587 204.246 26.2576C204.654 25.921 205.141 25.656 205.707 25.4626C206.28 25.2621 206.917 25.1619 207.619 25.1619C208.464 25.1619 209.209 25.3051 209.854 25.5916C210.505 25.878 211.014 26.3113 211.379 26.8914C211.751 27.4643 211.938 28.184 211.938 29.0505V34.4646C211.938 34.8513 211.97 35.2631 212.034 35.7C212.106 36.1368 212.21 36.5128 212.346 36.8279V36.9998H210.272C210.172 36.7706 210.093 36.4662 210.036 36.0867C209.979 35.7 209.95 35.3419 209.95 35.0125ZM210.294 29.9529L210.315 31.3494H208.307C207.741 31.3494 207.236 31.3959 206.792 31.489C206.348 31.575 205.976 31.7074 205.675 31.8865C205.374 32.0655 205.145 32.2911 204.987 32.5632C204.83 32.8282 204.751 33.1397 204.751 33.4978C204.751 33.863 204.833 34.196 204.998 34.4968C205.163 34.7976 205.41 35.0375 205.739 35.2166C206.076 35.3884 206.488 35.4744 206.975 35.4744C207.583 35.4744 208.12 35.3455 208.586 35.0876C209.051 34.8298 209.42 34.5147 209.692 34.1423C209.972 33.7699 210.122 33.4083 210.144 33.0574L210.992 34.0134C210.942 34.3142 210.806 34.6472 210.584 35.0125C210.362 35.3777 210.065 35.7286 209.692 36.0652C209.327 36.3946 208.89 36.6703 208.382 36.8923C207.881 37.1072 207.315 37.2146 206.685 37.2146C205.897 37.2146 205.206 37.0606 204.611 36.7527C204.024 36.4447 203.566 36.033 203.236 35.5173C202.914 34.9945 202.753 34.4109 202.753 33.7664C202.753 33.1433 202.875 32.5955 203.118 32.1228C203.362 31.643 203.713 31.2455 204.171 30.9304C204.629 30.6082 205.181 30.3647 205.825 30.2C206.47 30.0352 207.189 29.9529 207.984 29.9529H210.294ZM222.948 30.4148V32.0261H216.804V30.4148H222.948ZM217.223 25.3767V36.9998H215.235V25.3767H217.223ZM224.56 25.3767V36.9998H222.562V25.3767H224.56ZM229.909 33.8523L235.27 25.3767H237.268V36.9998H235.27V28.5242L229.909 36.9998H227.933V25.3767H229.909V33.8523ZM245.281 37.2146C244.472 37.2146 243.738 37.0785 243.079 36.8064C242.427 36.5271 241.865 36.1368 241.393 35.6355C240.927 35.1342 240.569 34.5398 240.318 33.8523C240.068 33.1648 239.942 32.4128 239.942 31.5964V31.1453C239.942 30.2 240.082 29.3585 240.361 28.6208C240.641 27.8761 241.02 27.2458 241.5 26.7302C241.98 26.2146 242.524 25.8243 243.133 25.5593C243.742 25.2944 244.372 25.1619 245.023 25.1619C245.854 25.1619 246.57 25.3051 247.172 25.5916C247.781 25.878 248.278 26.2791 248.665 26.7947C249.052 27.3031 249.338 27.9047 249.524 28.5994C249.711 29.2869 249.804 30.0388 249.804 30.8552V31.7468H241.124V30.1248H247.816V29.9744C247.788 29.4587 247.68 28.9574 247.494 28.4705C247.315 27.9835 247.029 27.5824 246.635 27.2673C246.241 26.9522 245.704 26.7947 245.023 26.7947C244.572 26.7947 244.157 26.8914 243.777 27.0847C243.398 27.2709 243.072 27.5502 242.8 27.9226C242.528 28.295 242.316 28.7498 242.166 29.2869C242.016 29.824 241.94 30.4434 241.94 31.1453V31.5964C241.94 32.1479 242.016 32.6671 242.166 33.1541C242.324 33.6339 242.549 34.0564 242.843 34.4216C243.144 34.7869 243.505 35.0733 243.928 35.281C244.357 35.4887 244.844 35.5925 245.389 35.5925C246.09 35.5925 246.685 35.4493 247.172 35.1628C247.659 34.8764 248.085 34.4932 248.45 34.0134L249.653 34.9695C249.403 35.349 249.084 35.7107 248.697 36.0544C248.311 36.3982 247.834 36.6775 247.269 36.8923C246.71 37.1072 246.048 37.2146 245.281 37.2146ZM262.232 35.5818C262.705 35.5818 263.142 35.4851 263.543 35.2917C263.944 35.0984 264.273 34.8334 264.531 34.4968C264.789 34.1531 264.936 33.7628 264.972 33.3259H266.862C266.826 34.0134 266.594 34.6544 266.164 35.2488C265.742 35.836 265.187 36.3123 264.499 36.6775C263.812 37.0356 263.056 37.2146 262.232 37.2146C261.359 37.2146 260.596 37.0606 259.944 36.7527C259.3 36.4447 258.763 36.0222 258.333 35.4851C257.91 34.948 257.592 34.3321 257.377 33.6375C257.169 32.9356 257.065 32.1944 257.065 31.4138V30.9626C257.065 30.182 257.169 29.4444 257.377 28.7498C257.592 28.0479 257.91 27.4285 258.333 26.8914C258.763 26.3542 259.3 25.9317 259.944 25.6238C260.596 25.3158 261.359 25.1619 262.232 25.1619C263.142 25.1619 263.937 25.3481 264.617 25.7205C265.298 26.0857 265.831 26.587 266.218 27.2244C266.612 27.8546 266.826 28.5707 266.862 29.3728H264.972C264.936 28.893 264.8 28.4597 264.563 28.073C264.334 27.6863 264.019 27.3783 263.618 27.1492C263.224 26.9128 262.762 26.7947 262.232 26.7947C261.624 26.7947 261.112 26.9164 260.696 27.1599C260.288 27.3962 259.962 27.7185 259.719 28.1267C259.482 28.5278 259.311 28.9753 259.203 29.4695C259.103 29.9565 259.053 30.4542 259.053 30.9626V31.4138C259.053 31.9223 259.103 32.4236 259.203 32.9177C259.303 33.4119 259.472 33.8595 259.708 34.2605C259.951 34.6615 260.277 34.9838 260.686 35.2273C261.101 35.4636 261.617 35.5818 262.232 35.5818ZM273.834 25.3767V36.9998H271.836V25.3767H273.834ZM277.733 25.3767V26.988H268.012V25.3767H277.733ZM281.676 27.6111V41.4685H279.678V25.3767H281.504L281.676 27.6111ZM289.507 31.0916V31.3171C289.507 32.1622 289.407 32.9464 289.206 33.6697C289.006 34.3858 288.712 35.0089 288.325 35.5388C287.946 36.0688 287.477 36.4806 286.918 36.7742C286.359 37.0678 285.718 37.2146 284.995 37.2146C284.257 37.2146 283.606 37.0929 283.04 36.8494C282.474 36.6059 281.994 36.2514 281.601 35.7859C281.207 35.3204 280.892 34.7618 280.655 34.1101C280.426 33.4584 280.269 32.7244 280.183 31.908V30.7048C280.269 29.8455 280.43 29.0756 280.666 28.3953C280.902 27.7149 281.214 27.1348 281.601 26.655C281.994 26.1681 282.471 25.7992 283.029 25.5486C283.588 25.2908 284.232 25.1619 284.963 25.1619C285.693 25.1619 286.341 25.3051 286.907 25.5916C287.473 25.8708 287.949 26.2719 288.336 26.7947C288.723 27.3175 289.013 27.9441 289.206 28.6746C289.407 29.3979 289.507 30.2035 289.507 31.0916ZM287.509 31.3171V31.0916C287.509 30.5115 287.448 29.9672 287.326 29.4587C287.204 28.9431 287.015 28.4919 286.757 28.1052C286.506 27.7113 286.184 27.4034 285.79 27.1814C285.396 26.9522 284.927 26.8376 284.383 26.8376C283.882 26.8376 283.445 26.9236 283.072 27.0955C282.707 27.2673 282.396 27.5001 282.138 27.7937C281.88 28.0802 281.669 28.4096 281.504 28.782C281.346 29.1472 281.228 29.5268 281.149 29.9207V32.7029C281.293 33.2042 281.493 33.6768 281.751 34.1208C282.009 34.5577 282.353 34.9122 282.782 35.1843C283.212 35.4493 283.753 35.5818 284.404 35.5818C284.941 35.5818 285.403 35.4708 285.79 35.2488C286.184 35.0196 286.506 34.7081 286.757 34.3142C287.015 33.9203 287.204 33.4692 287.326 32.9607C287.448 32.4451 287.509 31.8972 287.509 31.3171ZM298.896 35.0125V29.0291C298.896 28.5707 298.802 28.1733 298.616 27.8367C298.437 27.4929 298.165 27.2279 297.8 27.0417C297.435 26.8556 296.983 26.7625 296.446 26.7625C295.945 26.7625 295.505 26.8484 295.125 27.0203C294.753 27.1921 294.459 27.4177 294.244 27.697C294.036 27.9763 293.933 28.2771 293.933 28.5994H291.945C291.945 28.184 292.053 27.7722 292.268 27.364C292.482 26.9558 292.79 26.587 293.191 26.2576C293.6 25.921 294.087 25.656 294.652 25.4626C295.225 25.2621 295.863 25.1619 296.564 25.1619C297.41 25.1619 298.154 25.3051 298.799 25.5916C299.451 25.878 299.959 26.3113 300.324 26.8914C300.697 27.4643 300.883 28.184 300.883 29.0505V34.4646C300.883 34.8513 300.915 35.2631 300.979 35.7C301.051 36.1368 301.155 36.5128 301.291 36.8279V36.9998H299.218C299.118 36.7706 299.039 36.4662 298.981 36.0867C298.924 35.7 298.896 35.3419 298.896 35.0125ZM299.239 29.9529L299.261 31.3494H297.252C296.686 31.3494 296.181 31.3959 295.737 31.489C295.293 31.575 294.921 31.7074 294.62 31.8865C294.319 32.0655 294.09 32.2911 293.933 32.5632C293.775 32.8282 293.696 33.1397 293.696 33.4978C293.696 33.863 293.779 34.196 293.943 34.4968C294.108 34.7976 294.355 35.0375 294.685 35.2166C295.021 35.3884 295.433 35.4744 295.92 35.4744C296.529 35.4744 297.066 35.3455 297.531 35.0876C297.997 34.8298 298.366 34.5147 298.638 34.1423C298.917 33.7699 299.067 33.4083 299.089 33.0574L299.938 34.0134C299.887 34.3142 299.751 34.6472 299.529 35.0125C299.307 35.3777 299.01 35.7286 298.638 36.0652C298.272 36.3946 297.836 36.6703 297.327 36.8923C296.826 37.1072 296.26 37.2146 295.63 37.2146C294.842 37.2146 294.151 37.0606 293.557 36.7527C292.969 36.4447 292.511 36.033 292.182 35.5173C291.859 34.9945 291.698 34.4109 291.698 33.7664C291.698 33.1433 291.82 32.5955 292.063 32.1228C292.307 31.643 292.658 31.2455 293.116 30.9304C293.575 30.6082 294.126 30.3647 294.771 30.2C295.415 30.0352 296.135 29.9529 296.93 29.9529H299.239ZM308.574 25.3767V36.9998H306.576V25.3767H308.574ZM312.474 25.3767V26.988H302.752V25.3767H312.474ZM318.393 37.2146C317.583 37.2146 316.849 37.0785 316.19 36.8064C315.539 36.5271 314.977 36.1368 314.504 35.6355C314.038 35.1342 313.68 34.5398 313.43 33.8523C313.179 33.1648 313.054 32.4128 313.054 31.5964V31.1453C313.054 30.2 313.193 29.3585 313.473 28.6208C313.752 27.8761 314.132 27.2458 314.611 26.7302C315.091 26.2146 315.635 25.8243 316.244 25.5593C316.853 25.2944 317.483 25.1619 318.135 25.1619C318.965 25.1619 319.682 25.3051 320.283 25.5916C320.892 25.878 321.39 26.2791 321.776 26.7947C322.163 27.3031 322.45 27.9047 322.636 28.5994C322.822 29.2869 322.915 30.0388 322.915 30.8552V31.7468H314.235V30.1248H320.928V29.9744C320.899 29.4587 320.792 28.9574 320.605 28.4705C320.426 27.9835 320.14 27.5824 319.746 27.2673C319.352 26.9522 318.815 26.7947 318.135 26.7947C317.684 26.7947 317.268 26.8914 316.889 27.0847C316.509 27.2709 316.183 27.5502 315.911 27.9226C315.639 28.295 315.428 28.7498 315.277 29.2869C315.127 29.824 315.052 30.4434 315.052 31.1453V31.5964C315.052 32.1479 315.127 32.6671 315.277 33.1541C315.435 33.6339 315.66 34.0564 315.954 34.4216C316.255 34.7869 316.617 35.0733 317.039 35.281C317.469 35.4887 317.956 35.5925 318.5 35.5925C319.202 35.5925 319.796 35.4493 320.283 35.1628C320.77 34.8764 321.196 34.4932 321.562 34.0134L322.765 34.9695C322.514 35.349 322.195 35.7107 321.809 36.0544C321.422 36.3982 320.946 36.6775 320.38 36.8923C319.821 37.1072 319.159 37.2146 318.393 37.2146ZM332.744 25.3767V27.0203H327.373V36.9998H325.386V25.3767H332.744ZM336.622 33.8523L341.982 25.3767H343.98V36.9998H341.982V28.5242L336.622 36.9998H334.646V25.3767H336.622V33.8523ZM349.319 33.8523L354.68 25.3767H356.678V36.9998H354.68V28.5242L349.319 36.9998H347.343V25.3767H349.319V33.8523ZM140.663 59.8523L146.023 51.3767H148.021V62.9998H146.023V54.5242L140.663 62.9998H138.687V51.3767H140.663V59.8523ZM158.764 51.3767H160.751L160.579 55.7273C160.536 56.8302 160.411 57.7826 160.203 58.5847C159.995 59.3868 159.73 60.0707 159.408 60.6365C159.086 61.1951 158.724 61.6641 158.323 62.0437C157.929 62.4233 157.521 62.7419 157.099 62.9998H156.11L156.164 61.3777L156.572 61.3669C156.809 61.0876 157.038 60.8012 157.26 60.5076C157.482 60.2068 157.686 59.8523 157.872 59.4441C158.058 59.0287 158.212 58.5238 158.334 57.9294C158.463 57.3279 158.545 56.5938 158.581 55.7273L158.764 51.3767ZM159.258 51.3767H166.251V62.9998H164.264V53.2136H159.258V51.3767ZM155.659 61.3669H167.744V66.4265H165.757V62.9998H157.646V66.4265H155.648L155.659 61.3669ZM174.77 63.2146C173.96 63.2146 173.226 63.0785 172.567 62.8064C171.916 62.5271 171.354 62.1368 170.881 61.6355C170.415 61.1342 170.057 60.5398 169.807 59.8523C169.556 59.1648 169.431 58.4128 169.431 57.5964V57.1453C169.431 56.2 169.57 55.3585 169.85 54.6208C170.129 53.8761 170.508 53.2458 170.988 52.7302C171.468 52.2146 172.012 51.8243 172.621 51.5593C173.23 51.2944 173.86 51.1619 174.512 51.1619C175.342 51.1619 176.059 51.3051 176.66 51.5916C177.269 51.878 177.767 52.2791 178.153 52.7947C178.54 53.3031 178.826 53.9047 179.013 54.5994C179.199 55.2869 179.292 56.0388 179.292 56.8552V57.7468H170.612V56.1248H177.305V55.9744C177.276 55.4587 177.169 54.9574 176.982 54.4705C176.803 53.9835 176.517 53.5824 176.123 53.2673C175.729 52.9522 175.192 52.7947 174.512 52.7947C174.061 52.7947 173.645 52.8914 173.266 53.0847C172.886 53.2709 172.56 53.5502 172.288 53.9226C172.016 54.295 171.805 54.7498 171.654 55.2869C171.504 55.824 171.429 56.4434 171.429 57.1453V57.5964C171.429 58.1479 171.504 58.6671 171.654 59.1541C171.812 59.6339 172.037 60.0564 172.331 60.4216C172.632 60.7869 172.993 61.0733 173.416 61.281C173.846 61.4887 174.333 61.5925 174.877 61.5925C175.579 61.5925 176.173 61.4493 176.66 61.1628C177.147 60.8764 177.573 60.4932 177.938 60.0134L179.142 60.9695C178.891 61.349 178.572 61.7107 178.186 62.0544C177.799 62.3982 177.323 62.6775 176.757 62.8923C176.198 63.1072 175.536 63.2146 174.77 63.2146ZM183.771 51.3767V62.9998H181.784V51.3767H183.771ZM191.398 51.3767L185.888 58.0369H183.105L182.805 56.2966H185.082L188.981 51.3767H191.398ZM189.261 62.9998L184.985 57.7361L186.264 56.2966L191.785 62.9998H189.261ZM192.752 57.3171V57.0701C192.752 56.2322 192.874 55.4552 193.117 54.739C193.361 54.0157 193.712 53.3891 194.17 52.8591C194.628 52.322 195.183 51.9067 195.835 51.613C196.487 51.3123 197.217 51.1619 198.026 51.1619C198.843 51.1619 199.577 51.3123 200.229 51.613C200.887 51.9067 201.446 52.322 201.904 52.8591C202.37 53.3891 202.724 54.0157 202.968 54.739C203.211 55.4552 203.333 56.2322 203.333 57.0701V57.3171C203.333 58.155 203.211 58.932 202.968 59.6482C202.724 60.3643 202.37 60.991 201.904 61.5281C201.446 62.058 200.891 62.4734 200.239 62.7742C199.595 63.0678 198.864 63.2146 198.048 63.2146C197.231 63.2146 196.497 63.0678 195.846 62.7742C195.194 62.4734 194.635 62.058 194.17 61.5281C193.712 60.991 193.361 60.3643 193.117 59.6482C192.874 58.932 192.752 58.155 192.752 57.3171ZM194.739 57.0701V57.3171C194.739 57.8972 194.807 58.4451 194.943 58.9607C195.079 59.4692 195.284 59.9203 195.556 60.3142C195.835 60.7081 196.182 61.0196 196.598 61.2488C197.013 61.4708 197.496 61.5818 198.048 61.5818C198.592 61.5818 199.068 61.4708 199.477 61.2488C199.892 61.0196 200.236 60.7081 200.508 60.3142C200.78 59.9203 200.984 59.4692 201.12 58.9607C201.263 58.4451 201.335 57.8972 201.335 57.3171V57.0701C201.335 56.4972 201.263 55.9565 201.12 55.448C200.984 54.9324 200.776 54.4776 200.497 54.0837C200.225 53.6827 199.881 53.3676 199.466 53.1384C199.058 52.9093 198.578 52.7947 198.026 52.7947C197.482 52.7947 197.002 52.9093 196.587 53.1384C196.179 53.3676 195.835 53.6827 195.556 54.0837C195.284 54.4776 195.079 54.9324 194.943 55.448C194.807 55.9565 194.739 56.4972 194.739 57.0701ZM212.507 60.3572L216.46 51.3767H218.372L213.194 62.9998H211.819L206.663 51.3767H208.575L212.507 60.3572ZM207.995 51.3767V62.9998H206.008V51.3767H207.995ZM216.954 62.9998V51.3767H218.952V62.9998H216.954ZM229.898 51.3767V53.0203H224.022V51.3767H229.898ZM224.312 51.3767V62.9998H222.325V51.3767H224.312ZM231.66 51.3767V62.9998H229.662V51.3767H231.66ZM234.324 57.3171V57.0701C234.324 56.2322 234.446 55.4552 234.689 54.739C234.933 54.0157 235.284 53.3891 235.742 52.8591C236.201 52.322 236.756 51.9067 237.407 51.613C238.059 51.3123 238.789 51.1619 239.599 51.1619C240.415 51.1619 241.149 51.3123 241.801 51.613C242.46 51.9067 243.018 52.322 243.477 52.8591C243.942 53.3891 244.297 54.0157 244.54 54.739C244.784 55.4552 244.905 56.2322 244.905 57.0701V57.3171C244.905 58.155 244.784 58.932 244.54 59.6482C244.297 60.3643 243.942 60.991 243.477 61.5281C243.018 62.058 242.463 62.4734 241.812 62.7742C241.167 63.0678 240.437 63.2146 239.62 63.2146C238.804 63.2146 238.07 63.0678 237.418 62.7742C236.766 62.4734 236.208 62.058 235.742 61.5281C235.284 60.991 234.933 60.3643 234.689 59.6482C234.446 58.932 234.324 58.155 234.324 57.3171ZM236.312 57.0701V57.3171C236.312 57.8972 236.38 58.4451 236.516 58.9607C236.652 59.4692 236.856 59.9203 237.128 60.3142C237.407 60.7081 237.755 61.0196 238.17 61.2488C238.585 61.4708 239.069 61.5818 239.62 61.5818C240.164 61.5818 240.641 61.4708 241.049 61.2488C241.464 61.0196 241.808 60.7081 242.08 60.3142C242.352 59.9203 242.556 59.4692 242.692 58.9607C242.836 58.4451 242.907 57.8972 242.907 57.3171V57.0701C242.907 56.4972 242.836 55.9565 242.692 55.448C242.556 54.9324 242.349 54.4776 242.069 54.0837C241.797 53.6827 241.453 53.3676 241.038 53.1384C240.63 52.9093 240.15 52.7947 239.599 52.7947C239.054 52.7947 238.575 52.9093 238.159 53.1384C237.751 53.3676 237.407 53.6827 237.128 54.0837C236.856 54.4776 236.652 54.9324 236.516 55.448C236.38 55.9565 236.312 56.4972 236.312 57.0701ZM251.737 57.446H249.6V56.2214H251.576C252.128 56.2214 252.564 56.1534 252.887 56.0173C253.209 55.8741 253.438 55.6772 253.574 55.4265C253.71 55.1759 253.778 54.8822 253.778 54.5457C253.778 54.2449 253.7 53.962 253.542 53.697C253.392 53.4249 253.148 53.2065 252.812 53.0417C252.475 52.8699 252.024 52.7839 251.458 52.7839C251 52.7839 250.584 52.8663 250.212 53.031C249.84 53.1886 249.542 53.407 249.32 53.6863C249.105 53.9584 248.998 54.2664 248.998 54.6101H247.011C247.011 53.9011 247.211 53.2924 247.612 52.7839C248.021 52.2683 248.561 51.8708 249.234 51.5916C249.915 51.3123 250.656 51.1726 251.458 51.1726C252.131 51.1726 252.733 51.2478 253.263 51.3982C253.8 51.5414 254.255 51.7563 254.627 52.0427C254.999 52.322 255.282 52.6729 255.476 53.0955C255.676 53.5108 255.776 53.9942 255.776 54.5457C255.776 54.9395 255.683 55.3119 255.497 55.6628C255.311 56.0138 255.042 56.3253 254.691 56.5974C254.34 56.8624 253.914 57.0701 253.413 57.2205C252.919 57.3708 252.36 57.446 251.737 57.446ZM249.6 56.6941H251.737C252.432 56.6941 253.044 56.7621 253.574 56.8982C254.104 57.0271 254.548 57.2205 254.906 57.4783C255.264 57.7361 255.533 58.0548 255.712 58.4343C255.898 58.8067 255.991 59.2364 255.991 59.7234C255.991 60.2677 255.88 60.7582 255.658 61.1951C255.443 61.6248 255.135 61.99 254.734 62.2908C254.333 62.5916 253.854 62.8207 253.295 62.9783C252.743 63.1358 252.131 63.2146 251.458 63.2146C250.706 63.2146 249.976 63.0857 249.267 62.8279C248.558 62.5701 247.974 62.1726 247.516 61.6355C247.057 61.0912 246.828 60.4001 246.828 59.5623H248.815C248.815 59.9132 248.926 60.2462 249.148 60.5613C249.37 60.8764 249.678 61.1306 250.072 61.324C250.473 61.5173 250.935 61.614 251.458 61.614C252.017 61.614 252.482 61.5281 252.854 61.3562C253.227 61.1843 253.506 60.9552 253.692 60.6687C253.886 60.3822 253.982 60.0707 253.982 59.7341C253.982 59.2973 253.896 58.9464 253.725 58.6814C253.553 58.4164 253.288 58.2231 252.93 58.1013C252.579 57.9724 252.128 57.908 251.576 57.908H249.6V56.6941ZM260.718 59.8523L266.078 51.3767H268.076V62.9998H266.078V54.5242L260.718 62.9998H258.741V51.3767H260.718V59.8523ZM271.438 62.9998V51.3767H273.426V61.3669H278.775V51.3767H280.773V62.9998H271.438ZM282.148 61.3669L281.955 66.448H280.183V62.9998H278.668V61.3669H282.148ZM286.456 59.8523L291.816 51.3767H293.814V62.9998H291.816V54.5242L286.456 62.9998H284.479V51.3767H286.456V59.8523ZM299.153 59.8523L304.514 51.3767H306.512V62.9998H304.514V54.5242L299.153 62.9998H297.177V51.3767H299.153V59.8523ZM322.904 51.3767V53.0203H317.028V51.3767H322.904ZM317.318 51.3767V62.9998H315.331V51.3767H317.318ZM324.666 51.3767V62.9998H322.668V51.3767H324.666ZM335.623 51.3767V53.0203H330.005V51.3767H335.623ZM337.374 51.3767V62.9998H335.387V51.3767H337.374ZM329.521 51.3767H331.52L331.219 56.9841C331.169 57.8507 331.086 58.6169 330.972 59.283C330.864 59.9418 330.714 60.5076 330.521 60.9802C330.334 61.4529 330.098 61.8396 329.812 62.1404C329.532 62.434 329.196 62.6524 328.802 62.7957C328.408 62.9317 327.953 62.9998 327.438 62.9998H326.814V61.2488L327.244 61.2166C327.552 61.1951 327.813 61.1235 328.028 61.0017C328.25 60.88 328.437 60.7009 328.587 60.4646C328.737 60.2211 328.859 59.9096 328.952 59.53C329.052 59.1505 329.128 58.6993 329.178 58.1765C329.235 57.6537 329.278 57.045 329.307 56.3503L329.521 51.3767ZM347.429 61.0125V55.0291C347.429 54.5707 347.336 54.1733 347.149 53.8367C346.97 53.4929 346.698 53.2279 346.333 53.0417C345.968 52.8556 345.517 52.7625 344.979 52.7625C344.478 52.7625 344.038 52.8484 343.658 53.0203C343.286 53.1921 342.992 53.4177 342.777 53.697C342.57 53.9763 342.466 54.2771 342.466 54.5994H340.479C340.479 54.184 340.586 53.7722 340.801 53.364C341.016 52.9558 341.324 52.587 341.725 52.2576C342.133 51.921 342.62 51.656 343.186 51.4626C343.758 51.2621 344.396 51.1619 345.098 51.1619C345.943 51.1619 346.688 51.3051 347.332 51.5916C347.984 51.878 348.492 52.3113 348.857 52.8914C349.23 53.4643 349.416 54.184 349.416 55.0505V60.4646C349.416 60.8513 349.448 61.2631 349.513 61.7C349.584 62.1368 349.688 62.5128 349.824 62.8279V62.9998H347.751C347.651 62.7706 347.572 62.4662 347.515 62.0867C347.457 61.7 347.429 61.3419 347.429 61.0125ZM347.772 55.9529L347.794 57.3494H345.785C345.219 57.3494 344.715 57.3959 344.271 57.489C343.826 57.575 343.454 57.7074 343.153 57.8865C342.853 58.0655 342.623 58.2911 342.466 58.5632C342.308 58.8282 342.229 59.1397 342.229 59.4978C342.229 59.863 342.312 60.196 342.477 60.4968C342.641 60.7976 342.888 61.0375 343.218 61.2166C343.554 61.3884 343.966 61.4744 344.453 61.4744C345.062 61.4744 345.599 61.3455 346.064 61.0876C346.53 60.8298 346.899 60.5147 347.171 60.1423C347.45 59.7699 347.601 59.4083 347.622 59.0574L348.471 60.0134C348.421 60.3142 348.285 60.6472 348.062 61.0125C347.84 61.3777 347.543 61.7286 347.171 62.0652C346.806 62.3946 346.369 62.6703 345.86 62.8923C345.359 63.1072 344.793 63.2146 344.163 63.2146C343.375 63.2146 342.684 63.0606 342.09 62.7527C341.503 62.4447 341.044 62.033 340.715 61.5173C340.393 60.9945 340.231 60.4109 340.231 59.7664C340.231 59.1433 340.353 58.5955 340.597 58.1228C340.84 57.643 341.191 57.2455 341.649 56.9304C342.108 56.6082 342.659 56.3647 343.304 56.2C343.948 56.0352 344.668 55.9529 345.463 55.9529H347.772ZM360.427 56.4148V58.0261H354.282V56.4148H360.427ZM354.701 51.3767V62.9998H352.714V51.3767H354.701ZM362.038 51.3767V62.9998H360.04V51.3767H362.038ZM372.093 61.0125V55.0291C372.093 54.5707 372 54.1733 371.813 53.8367C371.634 53.4929 371.362 53.2279 370.997 53.0417C370.632 52.8556 370.181 52.7625 369.644 52.7625C369.142 52.7625 368.702 52.8484 368.322 53.0203C367.95 53.1921 367.656 53.4177 367.441 53.697C367.234 53.9763 367.13 54.2771 367.13 54.5994H365.143C365.143 54.184 365.25 53.7722 365.465 53.364C365.68 52.9558 365.988 52.587 366.389 52.2576C366.797 51.921 367.284 51.656 367.85 51.4626C368.423 51.2621 369.06 51.1619 369.762 51.1619C370.607 51.1619 371.352 51.3051 371.996 51.5916C372.648 51.878 373.156 52.3113 373.521 52.8914C373.894 53.4643 374.08 54.184 374.08 55.0505V60.4646C374.08 60.8513 374.112 61.2631 374.177 61.7C374.248 62.1368 374.352 62.5128 374.488 62.8279V62.9998H372.415C372.315 62.7706 372.236 62.4662 372.179 62.0867C372.121 61.7 372.093 61.3419 372.093 61.0125ZM372.437 55.9529L372.458 57.3494H370.449C369.883 57.3494 369.379 57.3959 368.935 57.489C368.491 57.575 368.118 57.7074 367.817 57.8865C367.517 58.0655 367.287 58.2911 367.13 58.5632C366.972 58.8282 366.894 59.1397 366.894 59.4978C366.894 59.863 366.976 60.196 367.141 60.4968C367.305 60.7976 367.552 61.0375 367.882 61.2166C368.218 61.3884 368.63 61.4744 369.117 61.4744C369.726 61.4744 370.263 61.3455 370.729 61.0876C371.194 60.8298 371.563 60.5147 371.835 60.1423C372.114 59.7699 372.265 59.4083 372.286 59.0574L373.135 60.0134C373.085 60.3142 372.949 60.6472 372.727 61.0125C372.505 61.3777 372.207 61.7286 371.835 62.0652C371.47 62.3946 371.033 62.6703 370.524 62.8923C370.023 63.1072 369.457 63.2146 368.827 63.2146C368.039 63.2146 367.348 63.0606 366.754 62.7527C366.167 62.4447 365.708 62.033 365.379 61.5173C365.057 60.9945 364.896 60.4109 364.896 59.7664C364.896 59.1433 365.017 58.5955 365.261 58.1228C365.504 57.643 365.855 57.2455 366.313 56.9304C366.772 56.6082 367.323 56.3647 367.968 56.2C368.612 56.0352 369.332 55.9529 370.127 55.9529H372.437ZM140.609 77.3767H142.597L142.425 81.7273C142.382 82.8302 142.257 83.7826 142.049 84.5847C141.841 85.3868 141.576 86.0707 141.254 86.6365C140.932 87.1951 140.57 87.6641 140.169 88.0437C139.775 88.4233 139.367 88.7419 138.944 88.9998H137.956L138.01 87.3777L138.418 87.3669C138.654 87.0876 138.883 86.8012 139.105 86.5076C139.327 86.2068 139.532 85.8523 139.718 85.4441C139.904 85.0287 140.058 84.5238 140.18 83.9294C140.309 83.3279 140.391 82.5938 140.427 81.7273L140.609 77.3767ZM141.104 77.3767H148.097V88.9998H146.109V79.2136H141.104V77.3767ZM137.505 87.3669H149.59V92.4265H147.603V88.9998H139.492V92.4265H137.494L137.505 87.3669ZM156.615 89.2146C155.806 89.2146 155.072 89.0785 154.413 88.8064C153.761 88.5271 153.199 88.1368 152.727 87.6355C152.261 87.1342 151.903 86.5398 151.652 85.8523C151.402 85.1648 151.276 84.4128 151.276 83.5964V83.1453C151.276 82.2 151.416 81.3585 151.695 80.6208C151.975 79.8761 152.354 79.2458 152.834 78.7302C153.314 78.2146 153.858 77.8243 154.467 77.5593C155.076 77.2944 155.706 77.1619 156.357 77.1619C157.188 77.1619 157.904 77.3051 158.506 77.5916C159.115 77.878 159.612 78.2791 159.999 78.7947C160.386 79.3031 160.672 79.9047 160.858 80.5994C161.045 81.2869 161.138 82.0388 161.138 82.8552V83.7468H152.458V82.1248H159.15V81.9744C159.122 81.4587 159.014 80.9574 158.828 80.4705C158.649 79.9835 158.363 79.5824 157.969 79.2673C157.575 78.9522 157.038 78.7947 156.357 78.7947C155.906 78.7947 155.491 78.8914 155.111 79.0847C154.732 79.2709 154.406 79.5502 154.134 79.9226C153.862 80.295 153.65 80.7498 153.5 81.2869C153.35 81.824 153.274 82.4434 153.274 83.1453V83.5964C153.274 84.1479 153.35 84.6671 153.5 85.1541C153.658 85.6339 153.883 86.0564 154.177 86.4216C154.478 86.7869 154.839 87.0733 155.262 87.281C155.691 87.4887 156.178 87.5925 156.723 87.5925C157.424 87.5925 158.019 87.4493 158.506 87.1628C158.993 86.8764 159.419 86.4932 159.784 86.0134L160.987 86.9695C160.737 87.349 160.418 87.7107 160.031 88.0544C159.645 88.3982 159.168 88.6775 158.603 88.8923C158.044 89.1072 157.382 89.2146 156.615 89.2146ZM165.606 85.8523L170.967 77.3767H172.965V88.9998H170.967V80.5242L165.606 88.9998H163.63V77.3767H165.606V85.8523ZM169.882 73.1658H171.493C171.493 73.7244 171.364 74.2221 171.106 74.6589C170.849 75.0886 170.48 75.4252 170 75.6687C169.52 75.9122 168.951 76.0339 168.292 76.0339C167.297 76.0339 166.509 75.769 165.929 75.239C165.356 74.7019 165.069 74.0108 165.069 73.1658H166.681C166.681 73.5883 166.802 73.9607 167.046 74.283C167.289 74.6052 167.705 74.7664 168.292 74.7664C168.865 74.7664 169.273 74.6052 169.517 74.283C169.76 73.9607 169.882 73.5883 169.882 73.1658ZM180.807 87.5818C181.279 87.5818 181.716 87.4851 182.117 87.2917C182.518 87.0984 182.848 86.8334 183.105 86.4968C183.363 86.1531 183.51 85.7628 183.546 85.3259H185.437C185.401 86.0134 185.168 86.6544 184.738 87.2488C184.316 87.836 183.761 88.3123 183.073 88.6775C182.386 89.0356 181.63 89.2146 180.807 89.2146C179.933 89.2146 179.17 89.0606 178.519 88.7527C177.874 88.4447 177.337 88.0222 176.907 87.4851C176.485 86.948 176.166 86.3321 175.951 85.6375C175.743 84.9356 175.64 84.1944 175.64 83.4138V82.9626C175.64 82.182 175.743 81.4444 175.951 80.7498C176.166 80.0479 176.485 79.4285 176.907 78.8914C177.337 78.3542 177.874 77.9317 178.519 77.6238C179.17 77.3158 179.933 77.1619 180.807 77.1619C181.716 77.1619 182.511 77.3481 183.191 77.7205C183.872 78.0857 184.405 78.587 184.792 79.2244C185.186 79.8546 185.401 80.5707 185.437 81.3728H183.546C183.51 80.893 183.374 80.4597 183.138 80.073C182.909 79.6863 182.593 79.3783 182.192 79.1492C181.799 78.9128 181.337 78.7947 180.807 78.7947C180.198 78.7947 179.686 78.9164 179.271 79.1599C178.862 79.3962 178.536 79.7185 178.293 80.1267C178.057 80.5278 177.885 80.9753 177.777 81.4695C177.677 81.9565 177.627 82.4542 177.627 82.9626V83.4138C177.627 83.9223 177.677 84.4236 177.777 84.9177C177.878 85.4119 178.046 85.8595 178.282 86.2605C178.526 86.6615 178.852 86.9838 179.26 87.2273C179.675 87.4636 180.191 87.5818 180.807 87.5818ZM192.408 77.3767V88.9998H190.41V77.3767H192.408ZM196.308 77.3767V78.988H186.586V77.3767H196.308ZM203.72 83.8865H199.906L199.885 82.2966H203C203.616 82.2966 204.128 82.2358 204.536 82.114C204.951 81.9923 205.263 81.8097 205.471 81.5662C205.678 81.3227 205.782 81.0219 205.782 80.6638C205.782 80.3845 205.721 80.141 205.6 79.9333C205.485 79.7185 205.31 79.5431 205.073 79.407C204.837 79.2638 204.543 79.1599 204.192 79.0955C203.849 79.0238 203.444 78.988 202.979 78.988H200.433V88.9998H198.445V77.3767H202.979C203.716 77.3767 204.379 77.4412 204.966 77.5701C205.56 77.699 206.065 77.8959 206.48 78.1609C206.903 78.4187 207.225 78.7481 207.447 79.1492C207.669 79.5502 207.78 80.0229 207.78 80.5671C207.78 80.9181 207.709 81.2511 207.565 81.5662C207.422 81.8813 207.211 82.1606 206.932 82.4041C206.652 82.6475 206.309 82.8481 205.9 83.0056C205.492 83.156 205.023 83.2527 204.493 83.2957L203.72 83.8865ZM203.72 88.9998H199.187L200.175 87.3884H203.72C204.271 87.3884 204.729 87.3204 205.095 87.1843C205.46 87.0411 205.732 86.8406 205.911 86.5828C206.097 86.3178 206.19 86.0027 206.19 85.6375C206.19 85.2722 206.097 84.9607 205.911 84.7029C205.732 84.4379 205.46 84.2374 205.095 84.1013C204.729 83.9581 204.271 83.8865 203.72 83.8865H200.701L200.723 82.2966H204.493L205.213 82.8982C205.85 82.9483 206.391 83.1059 206.835 83.3708C207.279 83.6358 207.616 83.9724 207.845 84.3806C208.074 84.7817 208.188 85.2185 208.188 85.6912C208.188 86.2354 208.085 86.7153 207.877 87.1306C207.676 87.546 207.383 87.8933 206.996 88.1726C206.609 88.4447 206.14 88.6524 205.589 88.7957C205.037 88.9317 204.414 88.9998 203.72 88.9998ZM213.001 85.8523L218.361 77.3767H220.359V88.9998H218.361V80.5242L213.001 88.9998H211.024V77.3767H213.001V85.8523ZM225.698 85.8523L231.059 77.3767H233.057V88.9998H231.059V80.5242L225.698 88.9998H223.722V77.3767H225.698V85.8523ZM229.974 73.1658H231.585C231.585 73.7244 231.456 74.2221 231.198 74.6589C230.94 75.0886 230.572 75.4252 230.092 75.6687C229.612 75.9122 229.043 76.0339 228.384 76.0339C227.388 76.0339 226.601 75.769 226.021 75.239C225.448 74.7019 225.161 74.0108 225.161 73.1658H226.772C226.772 73.5883 226.894 73.9607 227.138 74.283C227.381 74.6052 227.797 74.7664 228.384 74.7664C228.957 74.7664 229.365 74.6052 229.608 74.283C229.852 73.9607 229.974 73.5883 229.974 73.1658Z" fill="black"/>
<defs>
<filter id="filter0_d_822_2152" x="545.052" y="5.08594" width="106.19" height="106.163" filterUnits="userSpaceOnUse" color-interpolation-filters="sRGB">
<feFlood flood-opacity="0" result="BackgroundImageFix"/>
<feColorMatrix in="SourceAlpha" type="matrix" values="0 0 0 0 0 0 0 0 0 0 0 0 0 0 0 0 0 0 127 0" result="hardAlpha"/>
<feOffset/>
<feGaussianBlur stdDeviation="12"/>
<feComposite in2="hardAlpha" operator="out"/>
<feColorMatrix type="matrix" values="0 0 0 0 0.579167 0 0 0 0 0.579167 0 0 0 0 0.579167 0 0 0 0.3 0"/>
<feBlend mode="normal" in2="BackgroundImageFix" result="effect1_dropShadow_822_2152"/>
<feBlend mode="normal" in="SourceGraphic" in2="effect1_dropShadow_822_2152" result="shape"/>
</filter>
</defs>
</svg>
