<svg width="672" height="125" viewBox="0 0 672 125" fill="none" xmlns="http://www.w3.org/2000/svg">
<path d="M175.294 65L57.2942 65" stroke="#00A3FF" stroke-miterlimit="10" stroke-linecap="round"/>
<g filter="url(#filter0_d_802_813)">
<path d="M32.5736 85.7315C21.2112 74.3745 21.2111 55.961 32.5736 44.6039C43.936 33.2468 62.3582 33.2468 73.7207 44.6039C85.0831 55.961 85.0831 74.3745 73.7207 85.7315C62.3582 97.0886 43.9361 97.0886 32.5736 85.7315Z" fill="white"/>
</g>
<path d="M44.0534 65.1647C44.0481 66.8873 44.5533 68.573 45.5053 70.009C46.4572 71.445 47.8133 72.5671 49.4025 73.2338C50.9917 73.9004 52.7428 74.0817 54.435 73.7549C56.1271 73.428 57.6846 72.6076 58.9108 71.3971C60.1371 70.1866 60.9772 68.6402 61.3253 66.9531C61.6734 65.2659 61.5138 63.5135 60.8667 61.9169C60.2196 60.3202 59.114 58.9509 57.6892 57.9816C56.2645 57.0122 54.5845 56.4863 52.8611 56.4702C51.7096 56.4557 50.5668 56.67 49.4988 57.1004C48.4308 57.5309 47.459 58.1691 46.6396 58.9779C45.8203 59.7867 45.1698 60.75 44.7258 61.8121C44.2819 62.8741 44.0534 64.0137 44.0534 65.1647Z" fill="#00A3FF"/>
<path d="M52.7519 68.5714C50.8694 68.5714 49.3434 67.0461 49.3434 65.1645C49.3434 63.2829 50.8694 61.7576 52.7519 61.7576C54.6344 61.7576 56.1604 63.2829 56.1604 65.1645C56.1604 67.0461 54.6344 68.5714 52.7519 68.5714Z" fill="white"/>
<path d="M172.842 65.1645C172.837 66.8906 173.344 68.5796 174.3 70.0174C175.255 71.4553 176.616 72.5774 178.21 73.2417C179.804 73.906 181.559 74.0827 183.254 73.7492C184.948 73.4158 186.506 72.5873 187.729 71.3686C188.952 70.1499 189.786 68.5959 190.125 66.9033C190.463 65.2107 190.292 63.4557 189.633 61.8604C188.973 60.2651 187.855 58.9013 186.419 57.9418C184.983 56.9822 183.295 56.47 181.568 56.47C179.259 56.47 177.043 57.3851 175.408 59.0149C173.772 60.6446 172.85 62.856 172.842 65.1645Z" fill="#00A3FF"/>
<path d="M181.541 68.5714C179.658 68.5714 178.132 67.0461 178.132 65.1645C178.132 63.2829 179.658 61.7576 181.541 61.7576C183.423 61.7576 184.949 63.2829 184.949 65.1645C184.949 67.0461 183.423 68.5714 181.541 68.5714Z" fill="white"/>
<path d="M640.304 93.2599C657.481 76.0913 657.481 48.2554 640.304 31.0867C623.127 13.9181 595.278 13.918 578.102 31.0867C560.925 48.2553 560.925 76.0913 578.102 93.26C595.278 110.429 623.128 110.429 640.304 93.2599Z" fill="#00A3FF"/>
<path d="M605.946 70.5679C606.857 71.3752 607.938 71.7788 609.188 71.7788C610.451 71.7788 611.531 71.3752 612.43 70.5679C613.341 69.7476 613.797 68.8166 613.797 67.7749C613.797 66.7332 613.341 65.8088 612.43 65.0015C611.531 64.1812 610.451 63.771 609.188 63.771C607.938 63.771 606.857 64.1812 605.946 65.0015C605.047 65.8088 604.598 66.7332 604.598 67.7749C604.598 68.8166 605.047 69.7476 605.946 70.5679ZM606.59 58.0483C607.267 58.6603 608.14 58.9663 609.207 58.9663C610.275 58.9663 611.141 58.6603 611.805 58.0483C612.469 57.4364 612.801 56.6812 612.801 55.7827C612.801 54.8713 612.469 54.1095 611.805 53.4976C611.141 52.8856 610.275 52.5796 609.207 52.5796C608.14 52.5796 607.267 52.8856 606.59 53.4976C605.926 54.1095 605.594 54.8713 605.594 55.7827C605.594 56.6812 605.926 57.4364 606.59 58.0483ZM616.492 74.1226C614.565 75.8934 612.13 76.7788 609.188 76.7788C606.258 76.7788 603.823 75.8934 601.883 74.1226C599.956 72.3387 598.992 70.2228 598.992 67.7749C598.992 66.9155 599.136 66.0952 599.422 65.314C599.722 64.5327 600.073 63.8882 600.477 63.3804C600.88 62.8726 601.284 62.4299 601.688 62.0522C602.104 61.6746 602.462 61.3947 602.762 61.2124L603.192 60.978C603.114 60.9259 603.003 60.8543 602.86 60.7632C602.716 60.659 602.456 60.4377 602.078 60.0991C601.701 59.7476 601.369 59.3765 601.082 58.9858C600.809 58.5822 600.561 58.0614 600.34 57.4233C600.119 56.7723 600.008 56.0887 600.008 55.3726C600.008 53.2892 600.887 51.4728 602.645 49.9233C604.403 48.3608 606.584 47.5796 609.188 47.5796C611.805 47.5796 613.992 48.3608 615.75 49.9233C617.521 51.4728 618.406 53.2892 618.406 55.3726C618.406 56.4924 618.14 57.521 617.606 58.4585C617.072 59.383 616.538 60.034 616.004 60.4116L615.203 60.978C615.308 61.0301 615.451 61.1147 615.633 61.2319C615.828 61.3491 616.167 61.616 616.649 62.0327C617.143 62.4494 617.573 62.9051 617.938 63.3999C618.302 63.8947 618.634 64.5327 618.934 65.314C619.246 66.0952 619.403 66.9155 619.403 67.7749C619.403 70.2228 618.433 72.3387 616.492 74.1226Z" fill="white"/>
<path d="M238.909 49.9141H240.462L244.421 59.7671L248.372 49.9141H249.933L245.019 62H243.807L238.909 49.9141ZM238.403 49.9141H239.773L239.997 57.2852V62H238.403V49.9141ZM249.061 49.9141H250.431V62H248.837V57.2852L249.061 49.9141ZM258.308 60.4644V55.8408C258.308 55.4867 258.236 55.1795 258.093 54.9194C257.954 54.6538 257.744 54.4491 257.462 54.3052C257.179 54.1613 256.831 54.0894 256.416 54.0894C256.028 54.0894 255.688 54.1558 255.395 54.2886C255.107 54.4214 254.88 54.5957 254.714 54.8115C254.554 55.0273 254.473 55.2598 254.473 55.5088H252.938C252.938 55.1878 253.021 54.8696 253.187 54.5542C253.353 54.2388 253.591 53.9538 253.901 53.6992C254.216 53.4391 254.592 53.2344 255.03 53.085C255.472 52.93 255.965 52.8525 256.507 52.8525C257.16 52.8525 257.736 52.9632 258.234 53.1846C258.737 53.4059 259.13 53.7407 259.412 54.189C259.7 54.6317 259.844 55.1878 259.844 55.8574V60.041C259.844 60.3398 259.869 60.658 259.919 60.9956C259.974 61.3332 260.054 61.6237 260.159 61.8672V62H258.557C258.48 61.8229 258.419 61.5877 258.375 61.2944C258.33 60.9956 258.308 60.7189 258.308 60.4644ZM258.574 56.5547L258.591 57.6338H257.038C256.601 57.6338 256.211 57.6698 255.868 57.7417C255.525 57.8081 255.237 57.9105 255.005 58.0488C254.772 58.1872 254.595 58.3615 254.473 58.5718C254.352 58.7765 254.291 59.0173 254.291 59.2939C254.291 59.5762 254.354 59.8335 254.482 60.0659C254.609 60.2983 254.8 60.4837 255.054 60.6221C255.315 60.7549 255.633 60.8213 256.009 60.8213C256.479 60.8213 256.894 60.7217 257.254 60.5225C257.614 60.3232 257.899 60.0798 258.109 59.792C258.325 59.5042 258.441 59.2248 258.458 58.9536L259.114 59.6924C259.075 59.9248 258.97 60.1821 258.798 60.4644C258.627 60.7466 258.397 61.0177 258.109 61.2778C257.827 61.5324 257.489 61.7454 257.096 61.917C256.709 62.083 256.272 62.166 255.785 62.166C255.176 62.166 254.642 62.047 254.183 61.8091C253.729 61.5711 253.375 61.2529 253.12 60.8545C252.871 60.4505 252.747 59.9995 252.747 59.5015C252.747 59.02 252.841 58.5967 253.029 58.2314C253.217 57.8607 253.488 57.5535 253.843 57.3101C254.197 57.061 254.623 56.8729 255.121 56.7456C255.619 56.6183 256.175 56.5547 256.789 56.5547H258.574ZM263.795 54.7451V65.4531H262.251V53.0186H263.662L263.795 54.7451ZM269.846 57.4346V57.6089C269.846 58.2619 269.769 58.8678 269.614 59.4268C269.459 59.9801 269.232 60.4616 268.933 60.8711C268.64 61.2806 268.278 61.5988 267.846 61.8257C267.414 62.0526 266.919 62.166 266.36 62.166C265.79 62.166 265.287 62.0719 264.849 61.8838C264.412 61.6956 264.041 61.4217 263.737 61.062C263.433 60.7023 263.189 60.2707 263.007 59.7671C262.83 59.2635 262.708 58.6963 262.641 58.0654V57.1357C262.708 56.4717 262.832 55.8768 263.015 55.3511C263.198 54.8254 263.438 54.3771 263.737 54.0063C264.041 53.63 264.409 53.3451 264.841 53.1514C265.273 52.9521 265.771 52.8525 266.335 52.8525C266.9 52.8525 267.4 52.9632 267.838 53.1846C268.275 53.4004 268.643 53.7103 268.942 54.1143C269.24 54.5182 269.465 55.0024 269.614 55.5669C269.769 56.1258 269.846 56.7484 269.846 57.4346ZM268.302 57.6089V57.4346C268.302 56.9863 268.255 56.5658 268.161 56.1729C268.067 55.7744 267.921 55.4258 267.721 55.127C267.528 54.8226 267.279 54.5846 266.974 54.4131C266.67 54.236 266.308 54.1475 265.887 54.1475C265.5 54.1475 265.162 54.2139 264.874 54.3467C264.592 54.4795 264.351 54.6593 264.152 54.8862C263.953 55.1076 263.79 55.3621 263.662 55.6499C263.541 55.9321 263.449 56.2254 263.388 56.5298V58.6797C263.499 59.0671 263.654 59.4323 263.853 59.7754C264.052 60.113 264.318 60.3869 264.65 60.5972C264.982 60.8019 265.4 60.9043 265.904 60.9043C266.319 60.9043 266.676 60.8185 266.974 60.647C267.279 60.4699 267.528 60.2292 267.721 59.9248C267.921 59.6204 268.067 59.2718 268.161 58.8789C268.255 58.4805 268.302 58.0571 268.302 57.6089ZM273.474 53.0186V62H271.938V53.0186H273.474ZM279.367 53.0186L275.109 58.165H272.959L272.727 56.8203H274.487L277.5 53.0186H279.367ZM277.716 62L274.412 57.9326L275.4 56.8203L279.666 62H277.716ZM284.597 62.166C283.972 62.166 283.404 62.0609 282.895 61.8506C282.392 61.6348 281.957 61.3332 281.592 60.9458C281.232 60.5584 280.956 60.0991 280.762 59.5679C280.568 59.0366 280.471 58.4556 280.471 57.8247V57.4761C280.471 56.7456 280.579 56.0954 280.795 55.5254C281.011 54.9499 281.304 54.4629 281.675 54.0645C282.046 53.666 282.466 53.3644 282.937 53.1597C283.407 52.9549 283.894 52.8525 284.398 52.8525C285.04 52.8525 285.593 52.9632 286.058 53.1846C286.528 53.4059 286.913 53.7158 287.212 54.1143C287.51 54.5072 287.732 54.972 287.876 55.5088C288.02 56.04 288.092 56.6211 288.092 57.252V57.9409H281.385V56.6875H286.556V56.5713C286.534 56.1729 286.451 55.7855 286.307 55.4092C286.169 55.0329 285.947 54.723 285.643 54.4795C285.338 54.236 284.923 54.1143 284.398 54.1143C284.049 54.1143 283.728 54.189 283.435 54.3384C283.142 54.4823 282.89 54.6981 282.679 54.9858C282.469 55.2736 282.306 55.625 282.19 56.04C282.073 56.4551 282.015 56.9338 282.015 57.4761V57.8247C282.015 58.2508 282.073 58.652 282.19 59.0283C282.311 59.3991 282.486 59.7256 282.713 60.0078C282.945 60.29 283.225 60.5114 283.551 60.6719C283.883 60.8324 284.259 60.9126 284.68 60.9126C285.222 60.9126 285.682 60.8019 286.058 60.5806C286.434 60.3592 286.763 60.0632 287.046 59.6924L287.975 60.4312C287.782 60.7244 287.535 61.0039 287.237 61.2695C286.938 61.5352 286.57 61.751 286.133 61.917C285.701 62.083 285.189 62.166 284.597 62.166ZM293.446 53.0186V62H291.902V53.0186H293.446ZM296.459 53.0186V54.2637H288.947V53.0186H296.459ZM299.63 59.5679L303.772 53.0186H305.316V62H303.772V55.4507L299.63 62H298.102V53.0186H299.63V59.5679ZM313.874 56.9116V58.1567H309.126V56.9116H313.874ZM309.449 53.0186V62H307.914V53.0186H309.449ZM315.119 53.0186V62H313.575V53.0186H315.119ZM323.395 53.0186V54.2886H319.244V62H317.709V53.0186H323.395ZM324.158 57.6089V57.418C324.158 56.7705 324.253 56.1701 324.441 55.6167C324.629 55.0578 324.9 54.5736 325.254 54.1641C325.608 53.749 326.037 53.4281 326.541 53.2012C327.044 52.9688 327.609 52.8525 328.234 52.8525C328.865 52.8525 329.432 52.9688 329.936 53.2012C330.445 53.4281 330.877 53.749 331.231 54.1641C331.59 54.5736 331.864 55.0578 332.052 55.6167C332.241 56.1701 332.335 56.7705 332.335 57.418V57.6089C332.335 58.2563 332.241 58.8568 332.052 59.4102C331.864 59.9635 331.59 60.4478 331.231 60.8628C330.877 61.2723 330.448 61.5933 329.944 61.8257C329.446 62.0526 328.882 62.166 328.251 62.166C327.62 62.166 327.053 62.0526 326.549 61.8257C326.045 61.5933 325.614 61.2723 325.254 60.8628C324.9 60.4478 324.629 59.9635 324.441 59.4102C324.253 58.8568 324.158 58.2563 324.158 57.6089ZM325.694 57.418V57.6089C325.694 58.0571 325.747 58.4805 325.852 58.8789C325.957 59.2718 326.115 59.6204 326.325 59.9248C326.541 60.2292 326.809 60.4699 327.13 60.647C327.451 60.8185 327.825 60.9043 328.251 60.9043C328.671 60.9043 329.039 60.8185 329.355 60.647C329.676 60.4699 329.941 60.2292 330.152 59.9248C330.362 59.6204 330.52 59.2718 330.625 58.8789C330.735 58.4805 330.791 58.0571 330.791 57.6089V57.418C330.791 56.9753 330.735 56.5575 330.625 56.1646C330.52 55.7661 330.359 55.4147 330.143 55.1104C329.933 54.8005 329.667 54.557 329.346 54.3799C329.031 54.2028 328.66 54.1143 328.234 54.1143C327.814 54.1143 327.443 54.2028 327.122 54.3799C326.806 54.557 326.541 54.8005 326.325 55.1104C326.115 55.4147 325.957 55.7661 325.852 56.1646C325.747 56.5575 325.694 56.9753 325.694 57.418ZM338.477 58.0488H335.531L335.514 56.8203H337.921C338.397 56.8203 338.793 56.7733 339.108 56.6792C339.429 56.5851 339.67 56.444 339.83 56.2559C339.991 56.0677 340.071 55.8353 340.071 55.5586C340.071 55.3428 340.024 55.1546 339.93 54.9941C339.841 54.8281 339.706 54.6925 339.523 54.5874C339.341 54.4767 339.114 54.3965 338.843 54.3467C338.577 54.2913 338.264 54.2637 337.905 54.2637H335.937V62H334.402V53.0186H337.905C338.475 53.0186 338.986 53.0684 339.44 53.168C339.899 53.2676 340.29 53.4198 340.611 53.6245C340.937 53.8237 341.186 54.0783 341.358 54.3882C341.529 54.6981 341.615 55.0633 341.615 55.4839C341.615 55.755 341.56 56.0124 341.449 56.2559C341.338 56.4993 341.175 56.7152 340.959 56.9033C340.743 57.0915 340.478 57.2464 340.162 57.3682C339.847 57.4844 339.484 57.5591 339.075 57.5923L338.477 58.0488ZM338.477 62H334.974L335.738 60.7549H338.477C338.903 60.7549 339.258 60.7023 339.54 60.5972C339.822 60.4865 340.032 60.3315 340.171 60.1323C340.315 59.9276 340.386 59.6841 340.386 59.4019C340.386 59.1196 340.315 58.8789 340.171 58.6797C340.032 58.4749 339.822 58.32 339.54 58.2148C339.258 58.1042 338.903 58.0488 338.477 58.0488H336.145L336.161 56.8203H339.075L339.631 57.2852C340.124 57.3239 340.541 57.4456 340.885 57.6504C341.228 57.8551 341.488 58.1152 341.665 58.4307C341.842 58.7406 341.93 59.0781 341.93 59.4434C341.93 59.8639 341.85 60.2347 341.69 60.5557C341.535 60.8766 341.308 61.145 341.009 61.3608C340.71 61.5711 340.348 61.7316 339.922 61.8423C339.496 61.9474 339.014 62 338.477 62ZM349.285 60.4644V55.8408C349.285 55.4867 349.213 55.1795 349.069 54.9194C348.931 54.6538 348.72 54.4491 348.438 54.3052C348.156 54.1613 347.807 54.0894 347.392 54.0894C347.005 54.0894 346.665 54.1558 346.371 54.2886C346.084 54.4214 345.857 54.5957 345.691 54.8115C345.53 55.0273 345.45 55.2598 345.45 55.5088H343.914C343.914 55.1878 343.997 54.8696 344.163 54.5542C344.329 54.2388 344.567 53.9538 344.877 53.6992C345.193 53.4391 345.569 53.2344 346.006 53.085C346.449 52.93 346.941 52.8525 347.484 52.8525C348.137 52.8525 348.712 52.9632 349.21 53.1846C349.714 53.4059 350.107 53.7407 350.389 54.189C350.677 54.6317 350.821 55.1878 350.821 55.8574V60.041C350.821 60.3398 350.845 60.658 350.895 60.9956C350.951 61.3332 351.031 61.6237 351.136 61.8672V62H349.534C349.456 61.8229 349.396 61.5877 349.351 61.2944C349.307 60.9956 349.285 60.7189 349.285 60.4644ZM349.551 56.5547L349.567 57.6338H348.015C347.578 57.6338 347.188 57.6698 346.844 57.7417C346.501 57.8081 346.214 57.9105 345.981 58.0488C345.749 58.1872 345.572 58.3615 345.45 58.5718C345.328 58.7765 345.267 59.0173 345.267 59.2939C345.267 59.5762 345.331 59.8335 345.458 60.0659C345.586 60.2983 345.776 60.4837 346.031 60.6221C346.291 60.7549 346.609 60.8213 346.986 60.8213C347.456 60.8213 347.871 60.7217 348.231 60.5225C348.59 60.3232 348.875 60.0798 349.086 59.792C349.302 59.5042 349.418 59.2248 349.434 58.9536L350.09 59.6924C350.051 59.9248 349.946 60.1821 349.775 60.4644C349.603 60.7466 349.373 61.0177 349.086 61.2778C348.803 61.5324 348.466 61.7454 348.073 61.917C347.686 62.083 347.248 62.166 346.761 62.166C346.153 62.166 345.619 62.047 345.159 61.8091C344.706 61.5711 344.351 61.2529 344.097 60.8545C343.848 60.4505 343.723 59.9995 343.723 59.5015C343.723 59.02 343.817 58.5967 344.006 58.2314C344.194 57.8607 344.465 57.5535 344.819 57.3101C345.173 57.061 345.599 56.8729 346.097 56.7456C346.595 56.6183 347.152 56.5547 347.766 56.5547H349.551ZM355.054 57.7168H356.714L354.116 62H352.456L355.054 57.7168ZM356.341 53.0186H360.093V62H358.557V54.2637H356.341C355.903 54.2637 355.546 54.3384 355.27 54.4878C354.993 54.6317 354.791 54.8198 354.664 55.0522C354.537 55.2847 354.473 55.5254 354.473 55.7744C354.473 56.0179 354.531 56.2531 354.647 56.48C354.763 56.7013 354.946 56.884 355.195 57.0278C355.444 57.1717 355.765 57.2437 356.158 57.2437H358.972V58.5054H356.158C355.643 58.5054 355.187 58.4362 354.788 58.2979C354.39 58.1595 354.052 57.9686 353.776 57.7251C353.499 57.4761 353.289 57.1855 353.145 56.8535C353.001 56.516 352.929 56.1507 352.929 55.7578C352.929 55.3649 353.004 55.0024 353.153 54.6704C353.308 54.3384 353.529 54.0479 353.817 53.7988C354.11 53.5498 354.467 53.3589 354.888 53.2261C355.314 53.0877 355.798 53.0186 356.341 53.0186ZM369.306 61.0703L371.805 53.0186H373.448L369.846 63.3862C369.763 63.6076 369.652 63.8455 369.514 64.1001C369.381 64.3602 369.21 64.6064 368.999 64.8389C368.789 65.0713 368.534 65.2594 368.236 65.4033C367.942 65.5527 367.591 65.6274 367.181 65.6274C367.06 65.6274 366.905 65.6108 366.717 65.5776C366.528 65.5444 366.396 65.5168 366.318 65.4946L366.31 64.2495C366.354 64.255 366.423 64.2606 366.517 64.2661C366.617 64.2772 366.686 64.2827 366.725 64.2827C367.073 64.2827 367.37 64.2357 367.613 64.1416C367.857 64.0531 368.061 63.9009 368.227 63.6851C368.399 63.4748 368.545 63.1842 368.667 62.8135L369.306 61.0703ZM367.472 53.0186L369.804 59.9912L370.203 61.6099L369.099 62.1743L365.795 53.0186H367.472ZM380.82 53.0186V54.2886H376.279V53.0186H380.82ZM376.503 53.0186V62H374.968V53.0186H376.503ZM382.181 53.0186V62H380.637V53.0186H382.181ZM389.942 60.4644V55.8408C389.942 55.4867 389.87 55.1795 389.726 54.9194C389.588 54.6538 389.378 54.4491 389.095 54.3052C388.813 54.1613 388.465 54.0894 388.05 54.0894C387.662 54.0894 387.322 54.1558 387.029 54.2886C386.741 54.4214 386.514 54.5957 386.348 54.8115C386.187 55.0273 386.107 55.2598 386.107 55.5088H384.572C384.572 55.1878 384.655 54.8696 384.821 54.5542C384.987 54.2388 385.225 53.9538 385.534 53.6992C385.85 53.4391 386.226 53.2344 386.663 53.085C387.106 52.93 387.599 52.8525 388.141 52.8525C388.794 52.8525 389.369 52.9632 389.867 53.1846C390.371 53.4059 390.764 53.7407 391.046 54.189C391.334 54.6317 391.478 55.1878 391.478 55.8574V60.041C391.478 60.3398 391.503 60.658 391.552 60.9956C391.608 61.3332 391.688 61.6237 391.793 61.8672V62H390.191C390.114 61.8229 390.053 61.5877 390.009 61.2944C389.964 60.9956 389.942 60.7189 389.942 60.4644ZM390.208 56.5547L390.224 57.6338H388.672C388.235 57.6338 387.845 57.6698 387.502 57.7417C387.159 57.8081 386.871 57.9105 386.638 58.0488C386.406 58.1872 386.229 58.3615 386.107 58.5718C385.985 58.7765 385.925 59.0173 385.925 59.2939C385.925 59.5762 385.988 59.8335 386.115 60.0659C386.243 60.2983 386.434 60.4837 386.688 60.6221C386.948 60.7549 387.267 60.8213 387.643 60.8213C388.113 60.8213 388.528 60.7217 388.888 60.5225C389.248 60.3232 389.533 60.0798 389.743 59.792C389.959 59.5042 390.075 59.2248 390.092 58.9536L390.747 59.6924C390.709 59.9248 390.603 60.1821 390.432 60.4644C390.26 60.7466 390.031 61.0177 389.743 61.2778C389.461 61.5324 389.123 61.7454 388.73 61.917C388.343 62.083 387.906 62.166 387.419 62.166C386.81 62.166 386.276 62.047 385.817 61.8091C385.363 61.5711 385.009 61.2529 384.754 60.8545C384.505 60.4505 384.381 59.9995 384.381 59.5015C384.381 59.02 384.475 58.5967 384.663 58.2314C384.851 57.8607 385.122 57.5535 385.476 57.3101C385.83 57.061 386.257 56.8729 386.755 56.7456C387.253 56.6183 387.809 56.5547 388.423 56.5547H390.208ZM395.562 53.0186V62H394.026V53.0186H395.562ZM401.455 53.0186L397.197 58.165H395.047L394.815 56.8203H396.574L399.588 53.0186H401.455ZM399.803 62L396.5 57.9326L397.488 56.8203L401.754 62H399.803ZM402.501 57.6089V57.418C402.501 56.7705 402.595 56.1701 402.783 55.6167C402.972 55.0578 403.243 54.5736 403.597 54.1641C403.951 53.749 404.38 53.4281 404.884 53.2012C405.387 52.9688 405.952 52.8525 406.577 52.8525C407.208 52.8525 407.775 52.9688 408.279 53.2012C408.788 53.4281 409.219 53.749 409.573 54.1641C409.933 54.5736 410.207 55.0578 410.395 55.6167C410.583 56.1701 410.677 56.7705 410.677 57.418V57.6089C410.677 58.2563 410.583 58.8568 410.395 59.4102C410.207 59.9635 409.933 60.4478 409.573 60.8628C409.219 61.2723 408.79 61.5933 408.287 61.8257C407.789 62.0526 407.224 62.166 406.594 62.166C405.963 62.166 405.395 62.0526 404.892 61.8257C404.388 61.5933 403.957 61.2723 403.597 60.8628C403.243 60.4478 402.972 59.9635 402.783 59.4102C402.595 58.8568 402.501 58.2563 402.501 57.6089ZM404.037 57.418V57.6089C404.037 58.0571 404.089 58.4805 404.195 58.8789C404.3 59.2718 404.457 59.6204 404.668 59.9248C404.884 60.2292 405.152 60.4699 405.473 60.647C405.794 60.8185 406.167 60.9043 406.594 60.9043C407.014 60.9043 407.382 60.8185 407.698 60.647C408.018 60.4699 408.284 60.2292 408.494 59.9248C408.705 59.6204 408.862 59.2718 408.968 58.8789C409.078 58.4805 409.134 58.0571 409.134 57.6089V57.418C409.134 56.9753 409.078 56.5575 408.968 56.1646C408.862 55.7661 408.702 55.4147 408.486 55.1104C408.276 54.8005 408.01 54.557 407.689 54.3799C407.374 54.2028 407.003 54.1143 406.577 54.1143C406.156 54.1143 405.786 54.2028 405.465 54.3799C405.149 54.557 404.884 54.8005 404.668 55.1104C404.457 55.4147 404.3 55.7661 404.195 56.1646C404.089 56.5575 404.037 56.9753 404.037 57.418ZM416.82 58.0488H413.873L413.857 56.8203H416.264C416.74 56.8203 417.135 56.7733 417.451 56.6792C417.772 56.5851 418.013 56.444 418.173 56.2559C418.334 56.0677 418.414 55.8353 418.414 55.5586C418.414 55.3428 418.367 55.1546 418.273 54.9941C418.184 54.8281 418.049 54.6925 417.866 54.5874C417.683 54.4767 417.456 54.3965 417.185 54.3467C416.92 54.2913 416.607 54.2637 416.247 54.2637H414.28V62H412.744V53.0186H416.247C416.817 53.0186 417.329 53.0684 417.783 53.168C418.242 53.2676 418.632 53.4198 418.953 53.6245C419.28 53.8237 419.529 54.0783 419.7 54.3882C419.872 54.6981 419.958 55.0633 419.958 55.4839C419.958 55.755 419.902 56.0124 419.792 56.2559C419.681 56.4993 419.518 56.7152 419.302 56.9033C419.086 57.0915 418.821 57.2464 418.505 57.3682C418.19 57.4844 417.827 57.5591 417.418 57.5923L416.82 58.0488ZM416.82 62H413.317L414.081 60.7549H416.82C417.246 60.7549 417.6 60.7023 417.883 60.5972C418.165 60.4865 418.375 60.3315 418.513 60.1323C418.657 59.9276 418.729 59.6841 418.729 59.4019C418.729 59.1196 418.657 58.8789 418.513 58.6797C418.375 58.4749 418.165 58.32 417.883 58.2148C417.6 58.1042 417.246 58.0488 416.82 58.0488H414.488L414.504 56.8203H417.418L417.974 57.2852C418.466 57.3239 418.884 57.4456 419.227 57.6504C419.57 57.8551 419.83 58.1152 420.008 58.4307C420.185 58.7406 420.273 59.0781 420.273 59.4434C420.273 59.8639 420.193 60.2347 420.032 60.5557C419.878 60.8766 419.651 61.145 419.352 61.3608C419.053 61.5711 418.691 61.7316 418.264 61.8423C417.838 61.9474 417.357 62 416.82 62ZM424 53.0186V62H422.465V53.0186H424ZM429.894 53.0186L425.635 58.165H423.486L423.253 56.8203H425.013L428.026 53.0186H429.894ZM428.242 62L424.938 57.9326L425.926 56.8203L430.193 62H428.242ZM436.825 60.4644V55.8408C436.825 55.4867 436.753 55.1795 436.609 54.9194C436.471 54.6538 436.26 54.4491 435.978 54.3052C435.696 54.1613 435.347 54.0894 434.932 54.0894C434.545 54.0894 434.205 54.1558 433.911 54.2886C433.624 54.4214 433.397 54.5957 433.231 54.8115C433.07 55.0273 432.99 55.2598 432.99 55.5088H431.454C431.454 55.1878 431.537 54.8696 431.703 54.5542C431.869 54.2388 432.107 53.9538 432.417 53.6992C432.733 53.4391 433.109 53.2344 433.546 53.085C433.989 52.93 434.481 52.8525 435.024 52.8525C435.677 52.8525 436.252 52.9632 436.75 53.1846C437.254 53.4059 437.647 53.7407 437.929 54.189C438.217 54.6317 438.361 55.1878 438.361 55.8574V60.041C438.361 60.3398 438.385 60.658 438.435 60.9956C438.491 61.3332 438.571 61.6237 438.676 61.8672V62H437.074C436.997 61.8229 436.936 61.5877 436.891 61.2944C436.847 60.9956 436.825 60.7189 436.825 60.4644ZM437.091 56.5547L437.107 57.6338H435.555C435.118 57.6338 434.728 57.6698 434.385 57.7417C434.041 57.8081 433.754 57.9105 433.521 58.0488C433.289 58.1872 433.112 58.3615 432.99 58.5718C432.868 58.7765 432.807 59.0173 432.807 59.2939C432.807 59.5762 432.871 59.8335 432.998 60.0659C433.126 60.2983 433.316 60.4837 433.571 60.6221C433.831 60.7549 434.149 60.8213 434.526 60.8213C434.996 60.8213 435.411 60.7217 435.771 60.5225C436.13 60.3232 436.415 60.0798 436.626 59.792C436.842 59.5042 436.958 59.2248 436.974 58.9536L437.63 59.6924C437.591 59.9248 437.486 60.1821 437.315 60.4644C437.143 60.7466 436.913 61.0177 436.626 61.2778C436.344 61.5324 436.006 61.7454 435.613 61.917C435.226 62.083 434.788 62.166 434.302 62.166C433.693 62.166 433.159 62.047 432.699 61.8091C432.246 61.5711 431.892 61.2529 431.637 60.8545C431.388 60.4505 431.263 59.9995 431.263 59.5015C431.263 59.02 431.358 58.5967 431.546 58.2314C431.734 57.8607 432.005 57.5535 432.359 57.3101C432.713 57.061 433.139 56.8729 433.637 56.7456C434.135 56.6183 434.692 56.5547 435.306 56.5547H437.091ZM450.754 49.1089H452.015C452.015 49.6512 451.932 50.0828 451.766 50.4038C451.6 50.7192 451.373 50.9627 451.086 51.1343C450.803 51.3058 450.483 51.4359 450.123 51.5244C449.769 51.613 449.401 51.6987 449.019 51.7817C448.543 51.8813 448.1 52.0391 447.691 52.2549C447.287 52.4652 446.938 52.764 446.645 53.1514C446.357 53.5387 446.144 54.0423 446.006 54.6621C445.873 55.2819 445.837 56.0483 445.898 56.9614V57.7251H444.636V56.9614C444.636 55.9377 444.733 55.0439 444.927 54.2803C445.126 53.5166 445.405 52.8719 445.765 52.3462C446.125 51.8205 446.551 51.4027 447.043 51.0928C447.541 50.7829 448.089 50.5698 448.687 50.4536C449.118 50.3706 449.489 50.2821 449.799 50.188C450.109 50.0884 450.344 49.9556 450.505 49.7896C450.671 49.6235 450.754 49.3966 450.754 49.1089ZM448.936 53.5332C449.522 53.5332 450.045 53.6356 450.505 53.8403C450.964 54.0451 451.354 54.3301 451.675 54.6953C451.996 55.0605 452.24 55.4922 452.406 55.9902C452.577 56.4827 452.663 57.0195 452.663 57.6006V57.7832C452.663 58.4085 452.572 58.9896 452.389 59.5264C452.212 60.0576 451.949 60.5225 451.6 60.9209C451.257 61.3138 450.837 61.6209 450.339 61.8423C449.846 62.0636 449.284 62.1743 448.654 62.1743C448.023 62.1743 447.458 62.0636 446.96 61.8423C446.468 61.6209 446.047 61.3138 445.698 60.9209C445.35 60.5225 445.084 60.0576 444.902 59.5264C444.725 58.9896 444.636 58.4085 444.636 57.7832V57.6006C444.636 57.4622 444.661 57.3267 444.711 57.1938C444.76 57.061 444.821 56.9255 444.893 56.7871C444.971 56.6488 445.04 56.5021 445.101 56.3472C445.306 55.8491 445.585 55.387 445.939 54.9609C446.299 54.5348 446.728 54.1917 447.226 53.9316C447.729 53.666 448.299 53.5332 448.936 53.5332ZM448.637 54.7866C448.073 54.7866 447.608 54.9167 447.242 55.1768C446.883 55.4368 446.614 55.7827 446.437 56.2144C446.26 56.6405 446.172 57.1025 446.172 57.6006V57.7832C446.172 58.2038 446.221 58.6022 446.321 58.9785C446.421 59.3548 446.57 59.6896 446.769 59.9829C446.974 60.2707 447.231 60.4976 447.541 60.6636C447.857 60.8296 448.227 60.9126 448.654 60.9126C449.08 60.9126 449.448 60.8296 449.758 60.6636C450.067 60.4976 450.322 60.2707 450.521 59.9829C450.72 59.6896 450.87 59.3548 450.969 58.9785C451.069 58.6022 451.119 58.2038 451.119 57.7832V57.6006C451.119 57.2243 451.069 56.8674 450.969 56.5298C450.87 56.1922 450.718 55.8934 450.513 55.6333C450.314 55.3732 450.056 55.1685 449.741 55.019C449.431 54.8641 449.063 54.7866 448.637 54.7866ZM455.792 54.7451V65.4531H454.248V53.0186H455.659L455.792 54.7451ZM461.844 57.4346V57.6089C461.844 58.2619 461.766 58.8678 461.611 59.4268C461.456 59.9801 461.229 60.4616 460.93 60.8711C460.637 61.2806 460.275 61.5988 459.843 61.8257C459.411 62.0526 458.916 62.166 458.357 62.166C457.787 62.166 457.284 62.0719 456.846 61.8838C456.409 61.6956 456.038 61.4217 455.734 61.062C455.43 60.7023 455.186 60.2707 455.004 59.7671C454.827 59.2635 454.705 58.6963 454.638 58.0654V57.1357C454.705 56.4717 454.829 55.8768 455.012 55.3511C455.195 54.8254 455.435 54.3771 455.734 54.0063C456.038 53.63 456.406 53.3451 456.838 53.1514C457.27 52.9521 457.768 52.8525 458.332 52.8525C458.897 52.8525 459.398 52.9632 459.835 53.1846C460.272 53.4004 460.64 53.7103 460.939 54.1143C461.238 54.5182 461.462 55.0024 461.611 55.5669C461.766 56.1258 461.844 56.7484 461.844 57.4346ZM460.3 57.6089V57.4346C460.3 56.9863 460.253 56.5658 460.158 56.1729C460.064 55.7744 459.918 55.4258 459.719 55.127C459.525 54.8226 459.276 54.5846 458.971 54.4131C458.667 54.236 458.305 54.1475 457.884 54.1475C457.497 54.1475 457.159 54.2139 456.871 54.3467C456.589 54.4795 456.348 54.6593 456.149 54.8862C455.95 55.1076 455.787 55.3621 455.659 55.6499C455.538 55.9321 455.446 56.2254 455.385 56.5298V58.6797C455.496 59.0671 455.651 59.4323 455.85 59.7754C456.05 60.113 456.315 60.3869 456.647 60.5972C456.979 60.8019 457.397 60.9043 457.901 60.9043C458.316 60.9043 458.673 60.8185 458.971 60.647C459.276 60.4699 459.525 60.2292 459.719 59.9248C459.918 59.6204 460.064 59.2718 460.158 58.8789C460.253 58.4805 460.3 58.0571 460.3 57.6089ZM467.53 62.166C466.904 62.166 466.337 62.0609 465.828 61.8506C465.324 61.6348 464.89 61.3332 464.525 60.9458C464.165 60.5584 463.888 60.0991 463.695 59.5679C463.501 59.0366 463.404 58.4556 463.404 57.8247V57.4761C463.404 56.7456 463.512 56.0954 463.728 55.5254C463.944 54.9499 464.237 54.4629 464.608 54.0645C464.978 53.666 465.399 53.3644 465.869 53.1597C466.34 52.9549 466.827 52.8525 467.33 52.8525C467.972 52.8525 468.526 52.9632 468.99 53.1846C469.461 53.4059 469.845 53.7158 470.144 54.1143C470.443 54.5072 470.664 54.972 470.808 55.5088C470.952 56.04 471.024 56.6211 471.024 57.252V57.9409H464.317V56.6875H469.489V56.5713C469.466 56.1729 469.383 55.7855 469.24 55.4092C469.101 55.0329 468.88 54.723 468.575 54.4795C468.271 54.236 467.856 54.1143 467.33 54.1143C466.982 54.1143 466.661 54.189 466.367 54.3384C466.074 54.4823 465.822 54.6981 465.612 54.9858C465.402 55.2736 465.239 55.625 465.122 56.04C465.006 56.4551 464.948 56.9338 464.948 57.4761V57.8247C464.948 58.2508 465.006 58.652 465.122 59.0283C465.244 59.3991 465.418 59.7256 465.645 60.0078C465.878 60.29 466.157 60.5114 466.484 60.6719C466.816 60.8324 467.192 60.9126 467.613 60.9126C468.155 60.9126 468.614 60.8019 468.99 60.5806C469.367 60.3592 469.696 60.0632 469.978 59.6924L470.908 60.4312C470.714 60.7244 470.468 61.0039 470.169 61.2695C469.87 61.5352 469.502 61.751 469.065 61.917C468.634 62.083 468.122 62.166 467.53 62.166ZM478.91 56.9116V58.1567H474.162V56.9116H478.91ZM474.486 53.0186V62H472.95V53.0186H474.486ZM480.155 53.0186V62H478.611V53.0186H480.155ZM484.247 53.0186H485.783L485.65 56.3804C485.617 57.2326 485.52 57.9686 485.36 58.5884C485.199 59.2082 484.994 59.7367 484.745 60.1738C484.496 60.6055 484.217 60.9679 483.907 61.2612C483.603 61.5545 483.287 61.8008 482.961 62H482.197L482.239 60.7466L482.554 60.7383C482.737 60.5225 482.914 60.3011 483.085 60.0742C483.257 59.8418 483.414 59.5679 483.558 59.2524C483.702 58.9315 483.821 58.5413 483.915 58.082C484.015 57.6172 484.079 57.05 484.106 56.3804L484.247 53.0186ZM484.629 53.0186H490.033V62H488.497V54.438H484.629V53.0186ZM481.848 60.7383H491.187V64.6479H489.651V62H483.384V64.6479H481.84L481.848 60.7383ZM498.184 60.4644V55.8408C498.184 55.4867 498.112 55.1795 497.969 54.9194C497.83 54.6538 497.62 54.4491 497.338 54.3052C497.055 54.1613 496.707 54.0894 496.292 54.0894C495.904 54.0894 495.564 54.1558 495.271 54.2886C494.983 54.4214 494.756 54.5957 494.59 54.8115C494.43 55.0273 494.349 55.2598 494.349 55.5088H492.814C492.814 55.1878 492.897 54.8696 493.063 54.5542C493.229 54.2388 493.467 53.9538 493.777 53.6992C494.092 53.4391 494.468 53.2344 494.906 53.085C495.348 52.93 495.841 52.8525 496.383 52.8525C497.036 52.8525 497.612 52.9632 498.11 53.1846C498.613 53.4059 499.006 53.7407 499.288 54.189C499.576 54.6317 499.72 55.1878 499.72 55.8574V60.041C499.72 60.3398 499.745 60.658 499.795 60.9956C499.85 61.3332 499.93 61.6237 500.035 61.8672V62H498.433C498.356 61.8229 498.295 61.5877 498.251 61.2944C498.206 60.9956 498.184 60.7189 498.184 60.4644ZM498.45 56.5547L498.467 57.6338H496.914C496.477 57.6338 496.087 57.6698 495.744 57.7417C495.401 57.8081 495.113 57.9105 494.881 58.0488C494.648 58.1872 494.471 58.3615 494.349 58.5718C494.228 58.7765 494.167 59.0173 494.167 59.2939C494.167 59.5762 494.23 59.8335 494.358 60.0659C494.485 60.2983 494.676 60.4837 494.93 60.6221C495.191 60.7549 495.509 60.8213 495.885 60.8213C496.355 60.8213 496.77 60.7217 497.13 60.5225C497.49 60.3232 497.775 60.0798 497.985 59.792C498.201 59.5042 498.317 59.2248 498.334 58.9536L498.99 59.6924C498.951 59.9248 498.846 60.1821 498.674 60.4644C498.503 60.7466 498.273 61.0177 497.985 61.2778C497.703 61.5324 497.365 61.7454 496.972 61.917C496.585 62.083 496.148 62.166 495.661 62.166C495.052 62.166 494.518 62.047 494.059 61.8091C493.605 61.5711 493.251 61.2529 492.996 60.8545C492.747 60.4505 492.623 59.9995 492.623 59.5015C492.623 59.02 492.717 58.5967 492.905 58.2314C493.093 57.8607 493.364 57.5535 493.719 57.3101C494.073 57.061 494.499 56.8729 494.997 56.7456C495.495 56.6183 496.051 56.5547 496.665 56.5547H498.45ZM239.831 79.5679L243.973 73.0186H245.517V82H243.973V75.4507L239.831 82H238.303V73.0186H239.831V79.5679ZM256.889 77.2603H253.66V75.957H256.889C257.514 75.957 258.021 75.8574 258.408 75.6582C258.795 75.459 259.078 75.1823 259.255 74.8281C259.437 74.474 259.529 74.07 259.529 73.6162C259.529 73.2012 259.437 72.811 259.255 72.4458C259.078 72.0806 258.795 71.7873 258.408 71.5659C258.021 71.339 257.514 71.2256 256.889 71.2256H254.033V82H252.431V69.9141H256.889C257.802 69.9141 258.574 70.0718 259.205 70.3872C259.836 70.7026 260.314 71.1398 260.641 71.6987C260.967 72.2521 261.131 72.8857 261.131 73.5996C261.131 74.3743 260.967 75.0356 260.641 75.5835C260.314 76.1313 259.836 76.5492 259.205 76.8369C258.574 77.1191 257.802 77.2603 256.889 77.2603ZM263.156 69.9141H267.157C268.065 69.9141 268.831 70.0524 269.456 70.3291C270.087 70.6058 270.566 71.0153 270.892 71.5576C271.224 72.0944 271.39 72.7557 271.39 73.5415C271.39 74.0949 271.277 74.6012 271.05 75.0605C270.829 75.5143 270.508 75.9017 270.087 76.2227C269.672 76.5381 269.174 76.7733 268.593 76.9282L268.145 77.1025H264.385L264.368 75.7993H267.207C267.782 75.7993 268.261 75.6997 268.643 75.5005C269.025 75.2957 269.312 75.0218 269.506 74.6787C269.7 74.3356 269.797 73.9565 269.797 73.5415C269.797 73.0767 269.705 72.6699 269.523 72.3213C269.34 71.9727 269.052 71.7043 268.659 71.5161C268.272 71.3224 267.771 71.2256 267.157 71.2256H264.758V82H263.156V69.9141ZM270.22 82L267.281 76.5215L268.95 76.5132L271.93 81.9004V82H270.22ZM276.595 76.231V77.4927H272.544V76.231H276.595ZM279.766 73.0186V82H278.23V73.0186H279.766ZM285.659 73.0186L281.401 78.165H279.251L279.019 76.8203H280.779L283.792 73.0186H285.659ZM284.008 82L280.704 77.9326L281.692 76.8203L285.958 82H284.008ZM286.705 77.6089V77.418C286.705 76.7705 286.799 76.1701 286.988 75.6167C287.176 75.0578 287.447 74.5736 287.801 74.1641C288.155 73.749 288.584 73.4281 289.088 73.2012C289.591 72.9688 290.156 72.8525 290.781 72.8525C291.412 72.8525 291.979 72.9688 292.483 73.2012C292.992 73.4281 293.423 73.749 293.778 74.1641C294.137 74.5736 294.411 75.0578 294.599 75.6167C294.788 76.1701 294.882 76.7705 294.882 77.418V77.6089C294.882 78.2563 294.788 78.8568 294.599 79.4102C294.411 79.9635 294.137 80.4478 293.778 80.8628C293.423 81.2723 292.995 81.5933 292.491 81.8257C291.993 82.0526 291.428 82.166 290.798 82.166C290.167 82.166 289.6 82.0526 289.096 81.8257C288.592 81.5933 288.161 81.2723 287.801 80.8628C287.447 80.4478 287.176 79.9635 286.988 79.4102C286.799 78.8568 286.705 78.2563 286.705 77.6089ZM288.241 77.418V77.6089C288.241 78.0571 288.294 78.4805 288.399 78.8789C288.504 79.2718 288.662 79.6204 288.872 79.9248C289.088 80.2292 289.356 80.4699 289.677 80.647C289.998 80.8185 290.372 80.9043 290.798 80.9043C291.218 80.9043 291.586 80.8185 291.902 80.647C292.223 80.4699 292.488 80.2292 292.698 79.9248C292.909 79.6204 293.066 79.2718 293.172 78.8789C293.282 78.4805 293.338 78.0571 293.338 77.6089V77.418C293.338 76.9753 293.282 76.5575 293.172 76.1646C293.066 75.7661 292.906 75.4147 292.69 75.1104C292.48 74.8005 292.214 74.557 291.893 74.3799C291.578 74.2028 291.207 74.1143 290.781 74.1143C290.36 74.1143 289.99 74.2028 289.669 74.3799C289.353 74.557 289.088 74.8005 288.872 75.1104C288.662 75.4147 288.504 75.7661 288.399 76.1646C288.294 76.5575 288.241 76.9753 288.241 77.418ZM301.97 79.958L305.025 73.0186H306.503L302.502 82H301.439L297.455 73.0186H298.932L301.97 79.958ZM298.484 73.0186V82H296.948V73.0186H298.484ZM305.407 82V73.0186H306.951V82H305.407ZM315.409 73.0186V74.2886H310.869V73.0186H315.409ZM311.093 73.0186V82H309.557V73.0186H311.093ZM316.771 73.0186V82H315.227V73.0186H316.771ZM324.532 80.4644V75.8408C324.532 75.4867 324.46 75.1795 324.316 74.9194C324.178 74.6538 323.968 74.4491 323.685 74.3052C323.403 74.1613 323.054 74.0894 322.639 74.0894C322.252 74.0894 321.912 74.1558 321.618 74.2886C321.331 74.4214 321.104 74.5957 320.938 74.8115C320.777 75.0273 320.697 75.2598 320.697 75.5088H319.161C319.161 75.1878 319.244 74.8696 319.41 74.5542C319.576 74.2388 319.814 73.9538 320.124 73.6992C320.44 73.4391 320.816 73.2344 321.253 73.085C321.696 72.93 322.188 72.8525 322.731 72.8525C323.384 72.8525 323.959 72.9632 324.457 73.1846C324.961 73.4059 325.354 73.7407 325.636 74.189C325.924 74.6317 326.068 75.1878 326.068 75.8574V80.041C326.068 80.3398 326.093 80.658 326.142 80.9956C326.198 81.3332 326.278 81.6237 326.383 81.8672V82H324.781C324.704 81.8229 324.643 81.5877 324.598 81.2944C324.554 80.9956 324.532 80.7189 324.532 80.4644ZM324.798 76.5547L324.814 77.6338H323.262C322.825 77.6338 322.435 77.6698 322.092 77.7417C321.748 77.8081 321.461 77.9105 321.228 78.0488C320.996 78.1872 320.819 78.3615 320.697 78.5718C320.575 78.7765 320.514 79.0173 320.514 79.2939C320.514 79.5762 320.578 79.8335 320.705 80.0659C320.833 80.2983 321.024 80.4837 321.278 80.6221C321.538 80.7549 321.856 80.8213 322.233 80.8213C322.703 80.8213 323.118 80.7217 323.478 80.5225C323.837 80.3232 324.122 80.0798 324.333 79.792C324.549 79.5042 324.665 79.2248 324.681 78.9536L325.337 79.6924C325.298 79.9248 325.193 80.1821 325.022 80.4644C324.85 80.7466 324.621 81.0177 324.333 81.2778C324.051 81.5324 323.713 81.7454 323.32 81.917C322.933 82.083 322.496 82.166 322.009 82.166C321.4 82.166 320.866 82.047 320.406 81.8091C319.953 81.5711 319.599 81.2529 319.344 80.8545C319.095 80.4505 318.97 79.9995 318.97 79.5015C318.97 79.02 319.065 78.5967 319.253 78.2314C319.441 77.8607 319.712 77.5535 320.066 77.3101C320.42 77.061 320.846 76.8729 321.344 76.7456C321.843 76.6183 322.399 76.5547 323.013 76.5547H324.798ZM334.576 76.9116V78.1567H329.828V76.9116H334.576ZM330.152 73.0186V82H328.616V73.0186H330.152ZM335.821 73.0186V82H334.277V73.0186H335.821ZM339.955 79.5679L344.097 73.0186H345.641V82H344.097V75.4507L339.955 82H338.427V73.0186H339.955V79.5679ZM349.924 77.7168H351.584L348.986 82H347.326L349.924 77.7168ZM351.211 73.0186H354.963V82H353.427V74.2637H351.211C350.774 74.2637 350.417 74.3384 350.14 74.4878C349.863 74.6317 349.661 74.8198 349.534 75.0522C349.407 75.2847 349.343 75.5254 349.343 75.7744C349.343 76.0179 349.401 76.2531 349.517 76.48C349.634 76.7013 349.816 76.884 350.065 77.0278C350.314 77.1717 350.635 77.2437 351.028 77.2437H353.842V78.5054H351.028C350.513 78.5054 350.057 78.4362 349.658 78.2979C349.26 78.1595 348.922 77.9686 348.646 77.7251C348.369 77.4761 348.159 77.1855 348.015 76.8535C347.871 76.516 347.799 76.1507 347.799 75.7578C347.799 75.3649 347.874 75.0024 348.023 74.6704C348.178 74.3384 348.399 74.0479 348.687 73.7988C348.981 73.5498 349.337 73.3589 349.758 73.2261C350.184 73.0877 350.668 73.0186 351.211 73.0186ZM367.746 76.9116V78.1567H362.998V76.9116H367.746ZM363.322 73.0186V82H361.786V73.0186H363.322ZM368.991 73.0186V82H367.447V73.0186H368.991ZM376.76 80.4644V75.8408C376.76 75.4867 376.689 75.1795 376.545 74.9194C376.406 74.6538 376.196 74.4491 375.914 74.3052C375.632 74.1613 375.283 74.0894 374.868 74.0894C374.481 74.0894 374.14 74.1558 373.847 74.2886C373.559 74.4214 373.332 74.5957 373.166 74.8115C373.006 75.0273 372.926 75.2598 372.926 75.5088H371.39C371.39 75.1878 371.473 74.8696 371.639 74.5542C371.805 74.2388 372.043 73.9538 372.353 73.6992C372.668 73.4391 373.045 73.2344 373.482 73.085C373.924 72.93 374.417 72.8525 374.959 72.8525C375.612 72.8525 376.188 72.9632 376.686 73.1846C377.189 73.4059 377.582 73.7407 377.865 74.189C378.152 74.6317 378.296 75.1878 378.296 75.8574V80.041C378.296 80.3398 378.321 80.658 378.371 80.9956C378.426 81.3332 378.506 81.6237 378.612 81.8672V82H377.01C376.932 81.8229 376.871 81.5877 376.827 81.2944C376.783 80.9956 376.76 80.7189 376.76 80.4644ZM377.026 76.5547L377.043 77.6338H375.49C375.053 77.6338 374.663 77.6698 374.32 77.7417C373.977 77.8081 373.689 77.9105 373.457 78.0488C373.224 78.1872 373.047 78.3615 372.926 78.5718C372.804 78.7765 372.743 79.0173 372.743 79.2939C372.743 79.5762 372.807 79.8335 372.934 80.0659C373.061 80.2983 373.252 80.4837 373.507 80.6221C373.767 80.7549 374.085 80.8213 374.461 80.8213C374.932 80.8213 375.347 80.7217 375.706 80.5225C376.066 80.3232 376.351 80.0798 376.561 79.792C376.777 79.5042 376.893 79.2248 376.91 78.9536L377.566 79.6924C377.527 79.9248 377.422 80.1821 377.25 80.4644C377.079 80.7466 376.849 81.0177 376.561 81.2778C376.279 81.5324 375.941 81.7454 375.549 81.917C375.161 82.083 374.724 82.166 374.237 82.166C373.628 82.166 373.094 82.047 372.635 81.8091C372.181 81.5711 371.827 81.2529 371.573 80.8545C371.323 80.4505 371.199 79.9995 371.199 79.5015C371.199 79.02 371.293 78.5967 371.481 78.2314C371.669 77.8607 371.941 77.5535 372.295 77.3101C372.649 77.061 373.075 76.8729 373.573 76.7456C374.071 76.6183 374.627 76.5547 375.241 76.5547H377.026ZM386.464 74.7451V85.4531H384.92V73.0186H386.331L386.464 74.7451ZM392.515 77.4346V77.6089C392.515 78.2619 392.438 78.8678 392.283 79.4268C392.128 79.9801 391.901 80.4616 391.602 80.8711C391.309 81.2806 390.947 81.5988 390.515 81.8257C390.083 82.0526 389.588 82.166 389.029 82.166C388.459 82.166 387.955 82.0719 387.518 81.8838C387.081 81.6956 386.71 81.4217 386.406 81.062C386.102 80.7023 385.858 80.2707 385.676 79.7671C385.498 79.2635 385.377 78.6963 385.31 78.0654V77.1357C385.377 76.4717 385.501 75.8768 385.684 75.3511C385.866 74.8254 386.107 74.3771 386.406 74.0063C386.71 73.63 387.078 73.3451 387.51 73.1514C387.942 72.9521 388.44 72.8525 389.004 72.8525C389.569 72.8525 390.069 72.9632 390.507 73.1846C390.944 73.4004 391.312 73.7103 391.611 74.1143C391.909 74.5182 392.134 75.0024 392.283 75.5669C392.438 76.1258 392.515 76.7484 392.515 77.4346ZM390.971 77.6089V77.4346C390.971 76.9863 390.924 76.5658 390.83 76.1729C390.736 75.7744 390.59 75.4258 390.39 75.127C390.197 74.8226 389.948 74.5846 389.643 74.4131C389.339 74.236 388.976 74.1475 388.556 74.1475C388.169 74.1475 387.831 74.2139 387.543 74.3467C387.261 74.4795 387.02 74.6593 386.821 74.8862C386.622 75.1076 386.459 75.3621 386.331 75.6499C386.21 75.9321 386.118 76.2254 386.057 76.5298V78.6797C386.168 79.0671 386.323 79.4323 386.522 79.7754C386.721 80.113 386.987 80.3869 387.319 80.5972C387.651 80.8019 388.069 80.9043 388.573 80.9043C388.988 80.9043 389.344 80.8185 389.643 80.647C389.948 80.4699 390.197 80.2292 390.39 79.9248C390.59 79.6204 390.736 79.2718 390.83 78.8789C390.924 78.4805 390.971 78.0571 390.971 77.6089ZM395.736 76.1064H398.434C399.159 76.1064 399.77 76.2337 400.268 76.4883C400.766 76.7373 401.143 77.0832 401.397 77.5259C401.657 77.9631 401.787 78.4611 401.787 79.02C401.787 79.4351 401.715 79.8252 401.572 80.1904C401.428 80.5501 401.212 80.8656 400.924 81.1367C400.642 81.4079 400.29 81.6209 399.87 81.7759C399.455 81.9253 398.976 82 398.434 82H394.615V73.0186H396.151V80.7383H398.434C398.877 80.7383 399.231 80.658 399.496 80.4976C399.762 80.3371 399.953 80.1296 400.069 79.875C400.185 79.6204 400.243 79.3548 400.243 79.0781C400.243 78.807 400.185 78.5413 400.069 78.2812C399.953 78.0212 399.762 77.8053 399.496 77.6338C399.231 77.4567 398.877 77.3682 398.434 77.3682H395.736V76.1064ZM404.983 73.0186V82H403.448V73.0186H404.983ZM413.765 76.9116V78.1567H409.017V76.9116H413.765ZM409.341 73.0186V82H407.805V73.0186H409.341ZM415.01 73.0186V82H413.467V73.0186H415.01ZM419.153 73.0186V82H417.617V73.0186H419.153ZM425.046 73.0186L420.788 78.165H418.638L418.406 76.8203H420.165L423.178 73.0186H425.046ZM423.394 82L420.091 77.9326L421.078 76.8203L425.345 82H423.394ZM430.276 82.166C429.65 82.166 429.083 82.0609 428.574 81.8506C428.07 81.6348 427.636 81.3332 427.271 80.9458C426.911 80.5584 426.634 80.0991 426.441 79.5679C426.247 79.0366 426.15 78.4556 426.15 77.8247V77.4761C426.15 76.7456 426.258 76.0954 426.474 75.5254C426.69 74.9499 426.983 74.4629 427.354 74.0645C427.725 73.666 428.145 73.3644 428.615 73.1597C429.086 72.9549 429.573 72.8525 430.076 72.8525C430.718 72.8525 431.272 72.9632 431.737 73.1846C432.207 73.4059 432.592 73.7158 432.89 74.1143C433.189 74.5072 433.411 74.972 433.554 75.5088C433.698 76.04 433.77 76.6211 433.77 77.252V77.9409H427.063V76.6875H432.235V76.5713C432.212 76.1729 432.129 75.7855 431.986 75.4092C431.847 75.0329 431.626 74.723 431.322 74.4795C431.017 74.236 430.602 74.1143 430.076 74.1143C429.728 74.1143 429.407 74.189 429.114 74.3384C428.82 74.4823 428.568 74.6981 428.358 74.9858C428.148 75.2736 427.985 75.625 427.868 76.04C427.752 76.4551 427.694 76.9338 427.694 77.4761V77.8247C427.694 78.2508 427.752 78.652 427.868 79.0283C427.99 79.3991 428.164 79.7256 428.391 80.0078C428.624 80.29 428.903 80.5114 429.23 80.6719C429.562 80.8324 429.938 80.9126 430.359 80.9126C430.901 80.9126 431.36 80.8019 431.737 80.5806C432.113 80.3592 432.442 80.0632 432.724 79.6924L433.654 80.4312C433.46 80.7244 433.214 81.0039 432.915 81.2695C432.616 81.5352 432.248 81.751 431.811 81.917C431.38 82.083 430.868 82.166 430.276 82.166Z" fill="black"/>
<defs>
<filter id="filter0_d_802_813" x="0.0517578" y="12.0862" width="106.191" height="106.163" filterUnits="userSpaceOnUse" color-interpolation-filters="sRGB">
<feFlood flood-opacity="0" result="BackgroundImageFix"/>
<feColorMatrix in="SourceAlpha" type="matrix" values="0 0 0 0 0 0 0 0 0 0 0 0 0 0 0 0 0 0 127 0" result="hardAlpha"/>
<feOffset/>
<feGaussianBlur stdDeviation="12"/>
<feComposite in2="hardAlpha" operator="out"/>
<feColorMatrix type="matrix" values="0 0 0 0 0.579167 0 0 0 0 0.579167 0 0 0 0 0.579167 0 0 0 0.3 0"/>
<feBlend mode="normal" in2="BackgroundImageFix" result="effect1_dropShadow_802_813"/>
<feBlend mode="normal" in="SourceGraphic" in2="effect1_dropShadow_802_813" result="shape"/>
</filter>
</defs>
</svg>
