<svg width="346" height="85" viewBox="0 0 346 85" fill="none" xmlns="http://www.w3.org/2000/svg">
<path d="M53.0456 60.0199C62.811 50.2591 62.811 34.4338 53.0455 24.673C43.2801 14.9122 27.4473 14.9121 17.6819 24.6729C7.91646 34.4337 7.91643 50.2591 17.6819 60.0199C27.4473 69.7807 43.2802 69.7807 53.0456 60.0199Z" fill="#00A3FF"/>
<path d="M41.1226 51.6931H28.8789C28.8789 50.4073 29.0864 49.2436 29.5015 48.2019C29.9165 47.1602 30.4333 46.3383 31.0518 45.7361C31.6702 45.1257 32.3416 44.5479 33.0659 44.0027C33.7902 43.4493 34.4575 42.9814 35.0679 42.5989C35.6864 42.2083 36.2031 41.7566 36.6182 41.2439C37.0413 40.7231 37.2529 40.1656 37.2529 39.5715C37.2529 38.8717 37.0332 38.3223 36.5938 37.9236C36.1624 37.5167 35.548 37.3132 34.7505 37.3132C34.1157 37.3132 33.5664 37.4923 33.1025 37.8503C32.6468 38.2084 32.3457 38.5624 32.1992 38.9124L32.0039 39.4373L28.8789 37.948C28.9115 37.8341 28.9644 37.6835 29.0376 37.4963C29.1108 37.3092 29.3062 36.9796 29.6235 36.5076C29.9409 36.0274 30.3071 35.6083 30.7222 35.2502C31.1372 34.8922 31.7231 34.5667 32.48 34.2737C33.245 33.9726 34.0832 33.822 34.9946 33.822C36.7769 33.822 38.2417 34.3632 39.3892 35.4456C40.5448 36.5279 41.1226 37.8585 41.1226 39.4373C41.1226 40.3243 40.9313 41.13 40.5488 41.8542C40.1663 42.5785 39.6659 43.197 39.0474 43.7097C38.4289 44.2143 37.7941 44.6822 37.1431 45.1135C36.5002 45.5367 35.841 46.0209 35.1655 46.5662C34.4901 47.1033 33.9774 47.6444 33.6274 48.1897H41.1226V51.6931Z" fill="white"/>
<path d="M114.826 18.4431H112.167V17.3699H114.826C115.341 17.3699 115.758 17.2878 116.077 17.1238C116.396 16.9597 116.629 16.7319 116.774 16.4402C116.925 16.1485 117 15.8158 117 15.4421C117 15.1003 116.925 14.7791 116.774 14.4783C116.629 14.1775 116.396 13.936 116.077 13.7537C115.758 13.5668 115.341 13.4734 114.826 13.4734H112.475V22.3464H111.155V12.3933H114.826C115.578 12.3933 116.214 12.5232 116.733 12.783C117.253 13.0427 117.647 13.4028 117.916 13.863C118.185 14.3188 118.319 14.8406 118.319 15.4285C118.319 16.0665 118.185 16.6111 117.916 17.0623C117.647 17.5134 117.253 17.8575 116.733 18.0945C116.214 18.3269 115.578 18.4431 114.826 18.4431ZM124.075 21.0818V17.2742C124.075 16.9825 124.016 16.7296 123.897 16.5154C123.784 16.2966 123.61 16.128 123.378 16.0095C123.146 15.891 122.858 15.8318 122.517 15.8318C122.198 15.8318 121.917 15.8865 121.676 15.9958C121.439 16.1052 121.252 16.2488 121.115 16.4265C120.983 16.6042 120.917 16.7957 120.917 17.0007H119.652C119.652 16.7364 119.721 16.4744 119.857 16.2146C119.994 15.9548 120.19 15.7201 120.445 15.5105C120.705 15.2963 121.015 15.1277 121.375 15.0046C121.74 14.877 122.145 14.8132 122.592 14.8132C123.13 14.8132 123.604 14.9044 124.014 15.0867C124.428 15.269 124.752 15.5447 124.984 15.9138C125.221 16.2784 125.34 16.7364 125.34 17.2878V20.7332C125.34 20.9792 125.36 21.2413 125.401 21.5193C125.447 21.7973 125.513 22.0365 125.6 22.2371V22.3464H124.28C124.216 22.2006 124.166 22.0069 124.13 21.7654C124.093 21.5193 124.075 21.2914 124.075 21.0818ZM124.294 17.8621L124.308 18.7507H123.029C122.669 18.7507 122.348 18.7804 122.065 18.8396C121.783 18.8943 121.546 18.9786 121.354 19.0925C121.163 19.2065 121.017 19.35 120.917 19.5232C120.817 19.6918 120.767 19.8901 120.767 20.1179C120.767 20.3503 120.819 20.5623 120.924 20.7537C121.029 20.9451 121.186 21.0977 121.396 21.2117C121.61 21.321 121.872 21.3757 122.182 21.3757C122.569 21.3757 122.911 21.2937 123.207 21.1296C123.503 20.9656 123.738 20.7651 123.911 20.5281C124.089 20.2911 124.185 20.061 124.198 19.8376L124.738 20.446C124.706 20.6375 124.62 20.8494 124.479 21.0818C124.337 21.3142 124.148 21.5375 123.911 21.7517C123.679 21.9613 123.401 22.1368 123.077 22.2781C122.758 22.4148 122.398 22.4832 121.997 22.4832C121.496 22.4832 121.056 22.3852 120.678 22.1892C120.304 21.9932 120.012 21.7312 119.803 21.4031C119.598 21.0704 119.495 20.699 119.495 20.2888C119.495 19.8923 119.573 19.5437 119.728 19.2429C119.882 18.9376 120.106 18.6847 120.397 18.4841C120.689 18.2791 121.04 18.1241 121.45 18.0193C121.86 17.9145 122.318 17.8621 122.824 17.8621H124.294ZM130.091 18.8123H128.73V18.033H129.988C130.339 18.033 130.617 17.9897 130.822 17.9031C131.027 17.8119 131.173 17.6866 131.26 17.5271C131.346 17.3676 131.39 17.1807 131.39 16.9666C131.39 16.7751 131.34 16.5951 131.239 16.4265C131.144 16.2533 130.989 16.1143 130.774 16.0095C130.56 15.9001 130.273 15.8455 129.913 15.8455C129.621 15.8455 129.357 15.8979 129.12 16.0027C128.883 16.1029 128.694 16.2419 128.553 16.4197C128.416 16.5929 128.348 16.7888 128.348 17.0076H127.083C127.083 16.5564 127.211 16.169 127.466 15.8455C127.726 15.5173 128.07 15.2644 128.498 15.0867C128.931 14.9089 129.403 14.8201 129.913 14.8201C130.341 14.8201 130.724 14.8679 131.062 14.9636C131.403 15.0548 131.693 15.1915 131.93 15.3738C132.167 15.5515 132.347 15.7748 132.47 16.0437C132.597 16.308 132.661 16.6156 132.661 16.9666C132.661 17.2172 132.602 17.4542 132.483 17.6775C132.365 17.9008 132.194 18.099 131.971 18.2722C131.747 18.4408 131.476 18.573 131.157 18.6687C130.843 18.7644 130.487 18.8123 130.091 18.8123ZM128.73 18.3337H130.091C130.533 18.3337 130.923 18.377 131.26 18.4636C131.597 18.5457 131.88 18.6687 132.107 18.8328C132.335 18.9968 132.506 19.1996 132.62 19.4412C132.739 19.6781 132.798 19.9516 132.798 20.2615C132.798 20.6078 132.727 20.92 132.586 21.198C132.449 21.4714 132.253 21.7039 131.998 21.8953C131.743 22.0867 131.438 22.2325 131.082 22.3328C130.731 22.433 130.341 22.4832 129.913 22.4832C129.435 22.4832 128.97 22.4011 128.519 22.2371C128.067 22.073 127.696 21.8201 127.404 21.4783C127.113 21.1319 126.967 20.6921 126.967 20.1589H128.231C128.231 20.3822 128.302 20.5942 128.443 20.7947C128.585 20.9952 128.781 21.157 129.031 21.28C129.286 21.4031 129.58 21.4646 129.913 21.4646C130.269 21.4646 130.565 21.4099 130.802 21.3005C131.039 21.1912 131.216 21.0453 131.335 20.863C131.458 20.6807 131.52 20.4825 131.52 20.2683C131.52 19.9903 131.465 19.767 131.355 19.5984C131.246 19.4298 131.077 19.3067 130.85 19.2292C130.626 19.1472 130.339 19.1062 129.988 19.1062H128.73V18.3337ZM135.703 16.3718V25.1902H134.432V14.95H135.594L135.703 16.3718ZM140.687 18.5867V18.7302C140.687 19.268 140.623 19.767 140.495 20.2273C140.368 20.683 140.181 21.0795 139.935 21.4167C139.693 21.754 139.395 22.016 139.039 22.2029C138.684 22.3897 138.276 22.4832 137.815 22.4832C137.346 22.4832 136.931 22.4057 136.571 22.2507C136.211 22.0958 135.906 21.8702 135.655 21.574C135.405 21.2778 135.204 20.9223 135.054 20.5076C134.908 20.0929 134.808 19.6257 134.753 19.1062V18.3406C134.808 17.7937 134.91 17.3038 135.061 16.8708C135.211 16.4379 135.409 16.0688 135.655 15.7634C135.906 15.4535 136.209 15.2188 136.564 15.0593C136.92 14.8953 137.33 14.8132 137.795 14.8132C138.26 14.8132 138.672 14.9044 139.032 15.0867C139.392 15.2644 139.695 15.5196 139.941 15.8523C140.188 16.185 140.372 16.5837 140.495 17.0486C140.623 17.5089 140.687 18.0216 140.687 18.5867ZM139.415 18.7302V18.5867C139.415 18.2175 139.376 17.8712 139.299 17.5476C139.221 17.2195 139.101 16.9324 138.937 16.6863C138.777 16.4356 138.572 16.2397 138.321 16.0984C138.071 15.9526 137.772 15.8796 137.426 15.8796C137.107 15.8796 136.829 15.9343 136.592 16.0437C136.359 16.1531 136.161 16.3012 135.997 16.488C135.833 16.6703 135.699 16.88 135.594 17.1169C135.493 17.3494 135.418 17.5909 135.368 17.8416V19.6121C135.459 19.9311 135.587 20.2319 135.751 20.5144C135.915 20.7924 136.134 21.018 136.407 21.1912C136.681 21.3598 137.025 21.4441 137.439 21.4441C137.781 21.4441 138.075 21.3735 138.321 21.2322C138.572 21.0863 138.777 20.8881 138.937 20.6375C139.101 20.3868 139.221 20.0997 139.299 19.7761C139.376 19.448 139.415 19.0994 139.415 18.7302ZM146.661 21.0818V17.2742C146.661 16.9825 146.602 16.7296 146.483 16.5154C146.369 16.2966 146.196 16.128 145.964 16.0095C145.731 15.891 145.444 15.8318 145.103 15.8318C144.784 15.8318 144.503 15.8865 144.262 15.9958C144.025 16.1052 143.838 16.2488 143.701 16.4265C143.569 16.6042 143.503 16.7957 143.503 17.0007H142.238C142.238 16.7364 142.307 16.4744 142.443 16.2146C142.58 15.9548 142.776 15.7201 143.031 15.5105C143.291 15.2963 143.601 15.1277 143.961 15.0046C144.326 14.877 144.731 14.8132 145.178 14.8132C145.715 14.8132 146.189 14.9044 146.6 15.0867C147.014 15.269 147.338 15.5447 147.57 15.9138C147.807 16.2784 147.926 16.7364 147.926 17.2878V20.7332C147.926 20.9792 147.946 21.2413 147.987 21.5193C148.033 21.7973 148.099 22.0365 148.186 22.2371V22.3464H146.866C146.802 22.2006 146.752 22.0069 146.716 21.7654C146.679 21.5193 146.661 21.2914 146.661 21.0818ZM146.88 17.8621L146.894 18.7507H145.615C145.255 18.7507 144.934 18.7804 144.651 18.8396C144.369 18.8943 144.132 18.9786 143.94 19.0925C143.749 19.2065 143.603 19.35 143.503 19.5232C143.403 19.6918 143.353 19.8901 143.353 20.1179C143.353 20.3503 143.405 20.5623 143.51 20.7537C143.615 20.9451 143.772 21.0977 143.981 21.2117C144.196 21.321 144.458 21.3757 144.768 21.3757C145.155 21.3757 145.497 21.2937 145.793 21.1296C146.089 20.9656 146.324 20.7651 146.497 20.5281C146.675 20.2911 146.771 20.061 146.784 19.8376L147.324 20.446C147.292 20.6375 147.206 20.8494 147.064 21.0818C146.923 21.3142 146.734 21.5375 146.497 21.7517C146.265 21.9613 145.987 22.1368 145.663 22.2781C145.344 22.4148 144.984 22.4832 144.583 22.4832C144.082 22.4832 143.642 22.3852 143.264 22.1892C142.89 21.9932 142.598 21.7312 142.389 21.4031C142.184 21.0704 142.081 20.699 142.081 20.2888C142.081 19.8923 142.159 19.5437 142.313 19.2429C142.468 18.9376 142.692 18.6847 142.983 18.4841C143.275 18.2791 143.626 18.1241 144.036 18.0193C144.446 17.9145 144.904 17.8621 145.41 17.8621H146.88ZM154.659 11.7302H155.698C155.698 12.1768 155.63 12.5323 155.493 12.7966C155.356 13.0564 155.17 13.2569 154.933 13.3982C154.7 13.5395 154.436 13.6466 154.14 13.7195C153.848 13.7924 153.545 13.863 153.23 13.9314C152.839 14.0134 152.474 14.1433 152.137 14.321C151.804 14.4942 151.517 14.7403 151.275 15.0593C151.038 15.3783 150.863 15.7931 150.749 16.3035C150.64 16.8139 150.61 17.4451 150.66 18.197V18.8259H149.621V18.197C149.621 17.3539 149.701 16.6179 149.86 15.989C150.024 15.3601 150.255 14.8292 150.551 14.3962C150.847 13.9633 151.198 13.6192 151.604 13.364C152.014 13.1088 152.465 12.9333 152.957 12.8376C153.312 12.7693 153.618 12.6964 153.873 12.6189C154.128 12.5369 154.322 12.4275 154.454 12.2908C154.591 12.1541 154.659 11.9672 154.659 11.7302ZM153.162 15.3738C153.645 15.3738 154.076 15.4581 154.454 15.6267C154.832 15.7953 155.154 16.03 155.418 16.3308C155.682 16.6316 155.883 16.9871 156.02 17.3972C156.161 17.8028 156.231 18.2449 156.231 18.7234V18.8738C156.231 19.3888 156.156 19.8673 156.006 20.3093C155.86 20.7468 155.644 21.1296 155.356 21.4578C155.074 21.7813 154.728 22.0343 154.317 22.2166C153.912 22.3988 153.449 22.49 152.93 22.49C152.41 22.49 151.945 22.3988 151.535 22.2166C151.13 22.0343 150.783 21.7813 150.496 21.4578C150.209 21.1296 149.99 20.7468 149.84 20.3093C149.694 19.8673 149.621 19.3888 149.621 18.8738V18.7234C149.621 18.6095 149.642 18.4978 149.683 18.3884C149.724 18.2791 149.774 18.1674 149.833 18.0535C149.897 17.9395 149.954 17.8188 150.004 17.6912C150.173 17.281 150.403 16.9005 150.694 16.5496C150.991 16.1986 151.344 15.9161 151.754 15.7019C152.169 15.4832 152.638 15.3738 153.162 15.3738ZM152.916 16.406C152.451 16.406 152.068 16.5131 151.768 16.7273C151.471 16.9415 151.25 17.2263 151.104 17.5818C150.959 17.9327 150.886 18.3132 150.886 18.7234V18.8738C150.886 19.2201 150.927 19.5483 151.009 19.8582C151.091 20.1681 151.214 20.4438 151.378 20.6853C151.547 20.9223 151.758 21.1091 152.014 21.2458C152.273 21.3826 152.579 21.4509 152.93 21.4509C153.281 21.4509 153.584 21.3826 153.839 21.2458C154.094 21.1091 154.304 20.9223 154.468 20.6853C154.632 20.4438 154.755 20.1681 154.837 19.8582C154.919 19.5483 154.96 19.2201 154.96 18.8738V18.7234C154.96 18.4135 154.919 18.1195 154.837 17.8416C154.755 17.5636 154.63 17.3175 154.461 17.1033C154.297 16.8891 154.085 16.7205 153.825 16.5974C153.57 16.4698 153.267 16.406 152.916 16.406ZM157.332 18.7302V18.573C157.332 18.0398 157.41 17.5453 157.564 17.0896C157.719 16.6293 157.943 16.2306 158.234 15.8933C158.526 15.5515 158.879 15.2872 159.294 15.1003C159.709 14.9089 160.174 14.8132 160.688 14.8132C161.208 14.8132 161.675 14.9089 162.09 15.1003C162.509 15.2872 162.865 15.5515 163.156 15.8933C163.452 16.2306 163.678 16.6293 163.833 17.0896C163.988 17.5453 164.065 18.0398 164.065 18.573V18.7302C164.065 19.2634 163.988 19.7579 163.833 20.2136C163.678 20.6694 163.452 21.0681 163.156 21.4099C162.865 21.7472 162.511 22.0115 162.097 22.2029C161.687 22.3897 161.222 22.4832 160.702 22.4832C160.183 22.4832 159.715 22.3897 159.301 22.2029C158.886 22.0115 158.531 21.7472 158.234 21.4099C157.943 21.0681 157.719 20.6694 157.564 20.2136C157.41 19.7579 157.332 19.2634 157.332 18.7302ZM158.597 18.573V18.7302C158.597 19.0994 158.64 19.448 158.727 19.7761C158.813 20.0997 158.943 20.3868 159.116 20.6375C159.294 20.8881 159.515 21.0863 159.779 21.2322C160.044 21.3735 160.351 21.4441 160.702 21.4441C161.049 21.4441 161.352 21.3735 161.611 21.2322C161.876 21.0863 162.094 20.8881 162.268 20.6375C162.441 20.3868 162.571 20.0997 162.657 19.7761C162.748 19.448 162.794 19.0994 162.794 18.7302V18.573C162.794 18.2084 162.748 17.8643 162.657 17.5408C162.571 17.2126 162.438 16.9233 162.261 16.6726C162.088 16.4174 161.869 16.2169 161.604 16.071C161.345 15.9252 161.039 15.8523 160.688 15.8523C160.342 15.8523 160.037 15.9252 159.772 16.071C159.513 16.2169 159.294 16.4174 159.116 16.6726C158.943 16.9233 158.813 17.2126 158.727 17.5408C158.64 17.8643 158.597 18.2084 158.597 18.573ZM168.516 14.95V22.3464H167.244V14.95H168.516ZM170.997 14.95V15.9753H164.811V14.95H170.997ZM173.615 14.95V22.3464H172.351V14.95H173.615ZM178.469 14.95L174.962 19.1882H173.191L173 18.0808H174.449L176.931 14.95H178.469ZM177.108 22.3464L174.388 18.9968L175.201 18.0808L178.715 22.3464H177.108ZM184.177 21.0818V17.2742C184.177 16.9825 184.118 16.7296 183.999 16.5154C183.885 16.2966 183.712 16.128 183.479 16.0095C183.247 15.891 182.96 15.8318 182.618 15.8318C182.299 15.8318 182.019 15.8865 181.777 15.9958C181.54 16.1052 181.354 16.2488 181.217 16.4265C181.085 16.6042 181.019 16.7957 181.019 17.0007H179.754C179.754 16.7364 179.822 16.4744 179.959 16.2146C180.096 15.9548 180.292 15.7201 180.547 15.5105C180.807 15.2963 181.117 15.1277 181.477 15.0046C181.841 14.877 182.247 14.8132 182.693 14.8132C183.231 14.8132 183.705 14.9044 184.115 15.0867C184.53 15.269 184.854 15.5447 185.086 15.9138C185.323 16.2784 185.441 16.7364 185.441 17.2878V20.7332C185.441 20.9792 185.462 21.2413 185.503 21.5193C185.549 21.7973 185.615 22.0365 185.701 22.2371V22.3464H184.382C184.318 22.2006 184.268 22.0069 184.231 21.7654C184.195 21.5193 184.177 21.2914 184.177 21.0818ZM184.396 17.8621L184.409 18.7507H183.131C182.771 18.7507 182.45 18.7804 182.167 18.8396C181.884 18.8943 181.647 18.9786 181.456 19.0925C181.265 19.2065 181.119 19.35 181.019 19.5232C180.918 19.6918 180.868 19.8901 180.868 20.1179C180.868 20.3503 180.921 20.5623 181.025 20.7537C181.13 20.9451 181.287 21.0977 181.497 21.2117C181.711 21.321 181.973 21.3757 182.283 21.3757C182.671 21.3757 183.012 21.2937 183.309 21.1296C183.605 20.9656 183.84 20.7651 184.013 20.5281C184.19 20.2911 184.286 20.061 184.3 19.8376L184.84 20.446C184.808 20.6375 184.721 20.8494 184.58 21.0818C184.439 21.3142 184.25 21.5375 184.013 21.7517C183.78 21.9613 183.502 22.1368 183.179 22.2781C182.86 22.4148 182.5 22.4832 182.099 22.4832C181.597 22.4832 181.158 22.3852 180.779 22.1892C180.406 21.9932 180.114 21.7312 179.904 21.4031C179.699 21.0704 179.597 20.699 179.597 20.2888C179.597 19.8923 179.674 19.5437 179.829 19.2429C179.984 18.9376 180.207 18.6847 180.499 18.4841C180.791 18.2791 181.142 18.1241 181.552 18.0193C181.962 17.9145 182.42 17.8621 182.926 17.8621H184.396ZM112.331 40.3435L115.742 34.95H117.014V42.3464H115.742V36.9529L112.331 42.3464H111.073V34.95H112.331V40.3435ZM124.595 41.5808L126.652 34.95H128.006L125.039 43.488C124.971 43.6703 124.88 43.8663 124.766 44.0759C124.656 44.2901 124.515 44.4929 124.342 44.6843C124.169 44.8757 123.959 45.0307 123.713 45.1492C123.471 45.2722 123.182 45.3337 122.845 45.3337C122.744 45.3337 122.617 45.3201 122.462 45.2927C122.307 45.2654 122.198 45.2426 122.134 45.2244L122.127 44.199C122.163 44.2035 122.22 44.2081 122.298 44.2126C122.38 44.2218 122.437 44.2263 122.469 44.2263C122.756 44.2263 123 44.1876 123.2 44.1101C123.401 44.0372 123.569 43.9119 123.706 43.7341C123.847 43.561 123.968 43.3217 124.068 43.0164L124.595 41.5808ZM123.084 34.95L125.005 40.6921L125.333 42.0251L124.424 42.49L121.703 34.95H123.084ZM132.162 34.95V42.3464H130.891V34.95H132.162ZM134.644 34.95V35.9753H128.457V34.95H134.644ZM139.36 39.0925H136.934L136.92 38.0808H138.902C139.294 38.0808 139.62 38.0421 139.88 37.9646C140.144 37.8871 140.342 37.7709 140.475 37.616C140.607 37.461 140.673 37.2696 140.673 37.0417C140.673 36.864 140.634 36.7091 140.557 36.5769C140.484 36.4402 140.372 36.3285 140.222 36.2419C140.071 36.1508 139.884 36.0847 139.661 36.0437C139.442 35.9981 139.185 35.9753 138.889 35.9753H137.269V42.3464H136.004V34.95H138.889C139.358 34.95 139.78 34.991 140.153 35.073C140.532 35.155 140.853 35.2804 141.117 35.449C141.386 35.613 141.591 35.8227 141.732 36.0779C141.874 36.3331 141.944 36.6339 141.944 36.9802C141.944 37.2035 141.899 37.4154 141.808 37.616C141.716 37.8165 141.582 37.9942 141.404 38.1492C141.227 38.3041 141.008 38.4317 140.748 38.532C140.488 38.6277 140.19 38.6892 139.853 38.7166L139.36 39.0925ZM139.36 42.3464H136.476L137.104 41.321H139.36C139.711 41.321 140.003 41.2778 140.235 41.1912C140.468 41.1 140.641 40.9724 140.755 40.8083C140.873 40.6397 140.933 40.4392 140.933 40.2068C140.933 39.9744 140.873 39.7761 140.755 39.6121C140.641 39.4434 140.468 39.3158 140.235 39.2292C140.003 39.1381 139.711 39.0925 139.36 39.0925H137.439L137.453 38.0808H139.853L140.311 38.4636C140.716 38.4955 141.06 38.5958 141.343 38.7644C141.625 38.933 141.84 39.1472 141.985 39.407C142.131 39.6622 142.204 39.9402 142.204 40.241C142.204 40.5873 142.138 40.8927 142.006 41.157C141.878 41.4213 141.691 41.6423 141.445 41.8201C141.199 41.9932 140.901 42.1254 140.55 42.2166C140.199 42.3031 139.802 42.3464 139.36 42.3464ZM146.969 42.4832C146.454 42.4832 145.987 42.3966 145.567 42.2234C145.153 42.0457 144.795 41.7973 144.494 41.4783C144.198 41.1593 143.97 40.781 143.811 40.3435C143.651 39.906 143.571 39.4275 143.571 38.908V38.6208C143.571 38.0193 143.66 37.4838 143.838 37.0144C144.016 36.5404 144.257 36.1394 144.562 35.8113C144.868 35.4832 145.214 35.2348 145.602 35.0662C145.989 34.8975 146.39 34.8132 146.805 34.8132C147.333 34.8132 147.789 34.9044 148.172 35.0867C148.559 35.269 148.876 35.5242 149.122 35.8523C149.368 36.1759 149.55 36.5587 149.669 37.0007C149.787 37.4382 149.847 37.9167 149.847 38.4363V39.0037H144.323V37.9714H148.582V37.8757C148.564 37.5476 148.495 37.2286 148.377 36.9187C148.263 36.6088 148.081 36.3536 147.83 36.1531C147.579 35.9526 147.238 35.8523 146.805 35.8523C146.518 35.8523 146.253 35.9138 146.012 36.0369C145.77 36.1554 145.563 36.3331 145.39 36.5701C145.216 36.807 145.082 37.0964 144.986 37.4382C144.891 37.78 144.843 38.1742 144.843 38.6208V38.908C144.843 39.2589 144.891 39.5893 144.986 39.8992C145.087 40.2045 145.23 40.4734 145.417 40.7058C145.608 40.9382 145.839 41.1205 146.107 41.2527C146.381 41.3848 146.691 41.4509 147.037 41.4509C147.484 41.4509 147.862 41.3598 148.172 41.1775C148.482 40.9952 148.753 40.7514 148.985 40.446L149.751 41.0544C149.591 41.296 149.389 41.5261 149.143 41.7449C148.896 41.9636 148.593 42.1414 148.233 42.2781C147.878 42.4148 147.456 42.4832 146.969 42.4832ZM152.588 36.3718V45.1902H151.316V34.95H152.479L152.588 36.3718ZM157.571 38.5867V38.7302C157.571 39.268 157.507 39.767 157.38 40.2273C157.252 40.683 157.065 41.0795 156.819 41.4167C156.578 41.754 156.279 42.016 155.924 42.2029C155.568 42.3897 155.16 42.4832 154.7 42.4832C154.231 42.4832 153.816 42.4057 153.456 42.2507C153.096 42.0958 152.791 41.8702 152.54 41.574C152.289 41.2778 152.089 40.9223 151.938 40.5076C151.793 40.0929 151.692 39.6257 151.638 39.1062V38.3406C151.692 37.7937 151.795 37.3038 151.945 36.8708C152.096 36.4379 152.294 36.0688 152.54 35.7634C152.791 35.4535 153.094 35.2188 153.449 35.0593C153.805 34.8953 154.215 34.8132 154.68 34.8132C155.145 34.8132 155.557 34.9044 155.917 35.0867C156.277 35.2644 156.58 35.5196 156.826 35.8523C157.072 36.185 157.257 36.5837 157.38 37.0486C157.507 37.5089 157.571 38.0216 157.571 38.5867ZM156.3 38.7302V38.5867C156.3 38.2175 156.261 37.8712 156.184 37.5476C156.106 37.2195 155.985 36.9324 155.821 36.6863C155.662 36.4356 155.457 36.2397 155.206 36.0984C154.955 35.9526 154.657 35.8796 154.311 35.8796C153.992 35.8796 153.714 35.9343 153.477 36.0437C153.244 36.1531 153.046 36.3012 152.882 36.488C152.718 36.6703 152.583 36.88 152.479 37.1169C152.378 37.3494 152.303 37.5909 152.253 37.8416V39.6121C152.344 39.9311 152.472 40.2319 152.636 40.5144C152.8 40.7924 153.019 41.018 153.292 41.1912C153.565 41.3598 153.91 41.4441 154.324 41.4441C154.666 41.4441 154.96 41.3735 155.206 41.2322C155.457 41.0863 155.662 40.8881 155.821 40.6375C155.985 40.3868 156.106 40.0997 156.184 39.7761C156.261 39.448 156.3 39.0994 156.3 38.7302ZM161.317 39.1267L158.515 34.95H160.039L161.953 38.0125H163.43L163.245 39.1267H161.317ZM162.008 38.9968L159.861 42.3464H158.262L161.208 38.0808L162.008 38.9968ZM164.079 34.95V42.3464H162.814V34.95H164.079ZM168.393 34.95L165.59 39.1267H163.662L163.464 38.0125H164.947L166.861 34.95H168.393ZM167.039 42.3464L164.886 38.9968L165.699 38.0808L168.639 42.3464H167.039ZM171.141 34.95H172.405L172.296 37.7185C172.269 38.4203 172.189 39.0264 172.057 39.5369C171.924 40.0473 171.756 40.4825 171.551 40.8425C171.346 41.198 171.116 41.4965 170.86 41.738C170.61 41.9796 170.35 42.1824 170.081 42.3464H169.452L169.486 41.3142L169.746 41.3074C169.896 41.1296 170.042 40.9473 170.184 40.7605C170.325 40.5691 170.455 40.3435 170.573 40.0837C170.692 39.8194 170.79 39.4981 170.867 39.1199C170.949 38.7371 171.002 38.2699 171.024 37.7185L171.141 34.95ZM171.455 34.95H175.905V42.3464H174.641V36.1189H171.455V34.95ZM169.165 41.3074H176.855V44.5271H175.591V42.3464H170.43V44.5271H169.158L169.165 41.3074ZM181.326 42.4832C180.811 42.4832 180.344 42.3966 179.925 42.2234C179.51 42.0457 179.152 41.7973 178.852 41.4783C178.555 41.1593 178.327 40.781 178.168 40.3435C178.008 39.906 177.929 39.4275 177.929 38.908V38.6208C177.929 38.0193 178.018 37.4838 178.195 37.0144C178.373 36.5404 178.615 36.1394 178.92 35.8113C179.225 35.4832 179.572 35.2348 179.959 35.0662C180.346 34.8975 180.747 34.8132 181.162 34.8132C181.691 34.8132 182.146 34.9044 182.529 35.0867C182.917 35.269 183.233 35.5242 183.479 35.8523C183.726 36.1759 183.908 36.5587 184.026 37.0007C184.145 37.4382 184.204 37.9167 184.204 38.4363V39.0037H178.681V37.9714H182.939V37.8757C182.921 37.5476 182.853 37.2286 182.734 36.9187C182.62 36.6088 182.438 36.3536 182.188 36.1531C181.937 35.9526 181.595 35.8523 181.162 35.8523C180.875 35.8523 180.611 35.9138 180.369 36.0369C180.128 36.1554 179.92 36.3331 179.747 36.5701C179.574 36.807 179.439 37.0964 179.344 37.4382C179.248 37.78 179.2 38.1742 179.2 38.6208V38.908C179.2 39.2589 179.248 39.5893 179.344 39.8992C179.444 40.2045 179.588 40.4734 179.774 40.7058C179.966 40.9382 180.196 41.1205 180.465 41.2527C180.738 41.3848 181.048 41.4509 181.395 41.4509C181.841 41.4509 182.219 41.3598 182.529 41.1775C182.839 40.9952 183.11 40.7514 183.343 40.446L184.108 41.0544C183.949 41.296 183.746 41.5261 183.5 41.7449C183.254 41.9636 182.951 42.1414 182.591 42.2781C182.235 42.4148 181.814 42.4832 181.326 42.4832ZM190.698 38.156V39.1814H186.788V38.156H190.698ZM187.055 34.95V42.3464H185.79V34.95H187.055ZM191.724 34.95V42.3464H190.452V34.95H191.724ZM195.128 40.3435L198.539 34.95H199.811V42.3464H198.539V36.9529L195.128 42.3464H193.87V34.95H195.128V40.3435ZM204.91 42.4832C204.395 42.4832 203.928 42.3966 203.509 42.2234C203.094 42.0457 202.736 41.7973 202.436 41.4783C202.139 41.1593 201.911 40.781 201.752 40.3435C201.592 39.906 201.513 39.4275 201.513 38.908V38.6208C201.513 38.0193 201.602 37.4838 201.779 37.0144C201.957 36.5404 202.199 36.1394 202.504 35.8113C202.809 35.4832 203.156 35.2348 203.543 35.0662C203.93 34.8975 204.331 34.8132 204.746 34.8132C205.275 34.8132 205.73 34.9044 206.113 35.0867C206.501 35.269 206.817 35.5242 207.063 35.8523C207.31 36.1759 207.492 36.5587 207.61 37.0007C207.729 37.4382 207.788 37.9167 207.788 38.4363V39.0037H202.265V37.9714H206.523V37.8757C206.505 37.5476 206.437 37.2286 206.318 36.9187C206.204 36.6088 206.022 36.3536 205.771 36.1531C205.521 35.9526 205.179 35.8523 204.746 35.8523C204.459 35.8523 204.195 35.9138 203.953 36.0369C203.712 36.1554 203.504 36.3331 203.331 36.5701C203.158 36.807 203.023 37.0964 202.928 37.4382C202.832 37.78 202.784 38.1742 202.784 38.6208V38.908C202.784 39.2589 202.832 39.5893 202.928 39.8992C203.028 40.2045 203.172 40.4734 203.358 40.7058C203.55 40.9382 203.78 41.1205 204.049 41.2527C204.322 41.3848 204.632 41.4509 204.979 41.4509C205.425 41.4509 205.803 41.3598 206.113 41.1775C206.423 40.9952 206.694 40.7514 206.927 40.446L207.692 41.0544C207.533 41.296 207.33 41.5261 207.084 41.7449C206.838 41.9636 206.535 42.1414 206.175 42.2781C205.819 42.4148 205.398 42.4832 204.91 42.4832ZM214.815 41.5808L216.873 34.95H218.227L215.26 43.488C215.191 43.6703 215.1 43.8663 214.986 44.0759C214.877 44.2901 214.736 44.4929 214.562 44.6843C214.389 44.8757 214.18 45.0307 213.934 45.1492C213.692 45.2722 213.403 45.3337 213.065 45.3337C212.965 45.3337 212.838 45.3201 212.683 45.2927C212.528 45.2654 212.418 45.2426 212.354 45.2244L212.348 44.199C212.384 44.2035 212.441 44.2081 212.519 44.2126C212.601 44.2218 212.658 44.2263 212.689 44.2263C212.977 44.2263 213.22 44.1876 213.421 44.1101C213.621 44.0372 213.79 43.9119 213.927 43.7341C214.068 43.561 214.189 43.3217 214.289 43.0164L214.815 41.5808ZM213.305 34.95L215.226 40.6921L215.554 42.0251L214.645 42.49L211.924 34.95H213.305ZM222.232 41.4441C222.533 41.4441 222.811 41.3826 223.066 41.2595C223.322 41.1365 223.531 40.9679 223.695 40.7537C223.859 40.5349 223.953 40.2865 223.976 40.0085H225.179C225.156 40.446 225.008 40.8539 224.734 41.2322C224.465 41.6059 224.112 41.9089 223.675 42.1414C223.237 42.3692 222.757 42.4832 222.232 42.4832C221.676 42.4832 221.191 42.3852 220.776 42.1892C220.366 41.9932 220.024 41.7244 219.751 41.3826C219.482 41.0408 219.279 40.6488 219.143 40.2068C219.01 39.7602 218.944 39.2885 218.944 38.7917V38.5046C218.944 38.0079 219.01 37.5385 219.143 37.0964C219.279 36.6498 219.482 36.2556 219.751 35.9138C220.024 35.572 220.366 35.3031 220.776 35.1072C221.191 34.9112 221.676 34.8132 222.232 34.8132C222.811 34.8132 223.317 34.9317 223.75 35.1687C224.183 35.4011 224.522 35.7201 224.769 36.1257C225.019 36.5268 225.156 36.9825 225.179 37.4929H223.976C223.953 37.1876 223.866 36.9119 223.716 36.6658C223.57 36.4197 223.369 36.2237 223.114 36.0779C222.864 35.9275 222.57 35.8523 222.232 35.8523C221.845 35.8523 221.519 35.9298 221.255 36.0847C220.995 36.2351 220.788 36.4402 220.633 36.7C220.482 36.9552 220.373 37.24 220.305 37.5544C220.241 37.8643 220.209 38.1811 220.209 38.5046V38.7917C220.209 39.1153 220.241 39.4343 220.305 39.7488C220.368 40.0632 220.476 40.3481 220.626 40.6033C220.781 40.8585 220.988 41.0636 221.248 41.2185C221.512 41.3689 221.84 41.4441 222.232 41.4441ZM231.543 34.95V35.9958H227.968V34.95H231.543ZM232.657 34.95V42.3464H231.393V34.95H232.657ZM227.66 34.95H228.932L228.74 38.5183C228.708 39.0697 228.656 39.5574 228.583 39.9812C228.515 40.4005 228.419 40.7605 228.296 41.0613C228.177 41.3621 228.027 41.6082 227.845 41.7996C227.667 41.9864 227.453 42.1254 227.202 42.2166C226.951 42.3031 226.662 42.3464 226.334 42.3464H225.938V41.2322L226.211 41.2117C226.407 41.198 226.573 41.1524 226.71 41.075C226.851 40.9975 226.97 40.8835 227.065 40.7332C227.161 40.5782 227.239 40.38 227.298 40.1384C227.362 39.8969 227.41 39.6098 227.441 39.2771C227.478 38.9444 227.505 38.557 227.523 38.115L227.66 34.95ZM234.359 38.7302V38.573C234.359 38.0398 234.437 37.5453 234.592 37.0896C234.747 36.6293 234.97 36.2306 235.262 35.8933C235.553 35.5515 235.907 35.2872 236.321 35.1003C236.736 34.9089 237.201 34.8132 237.716 34.8132C238.235 34.8132 238.702 34.9089 239.117 35.1003C239.536 35.2872 239.892 35.5515 240.184 35.8933C240.48 36.2306 240.705 36.6293 240.86 37.0896C241.015 37.5453 241.093 38.0398 241.093 38.573V38.7302C241.093 39.2634 241.015 39.7579 240.86 40.2136C240.705 40.6694 240.48 41.0681 240.184 41.4099C239.892 41.7472 239.539 42.0115 239.124 42.2029C238.714 42.3897 238.249 42.4832 237.729 42.4832C237.21 42.4832 236.743 42.3897 236.328 42.2029C235.913 42.0115 235.558 41.7472 235.262 41.4099C234.97 41.0681 234.747 40.6694 234.592 40.2136C234.437 39.7579 234.359 39.2634 234.359 38.7302ZM235.624 38.573V38.7302C235.624 39.0994 235.667 39.448 235.754 39.7761C235.84 40.0997 235.97 40.3868 236.144 40.6375C236.321 40.8881 236.542 41.0863 236.807 41.2322C237.071 41.3735 237.379 41.4441 237.729 41.4441C238.076 41.4441 238.379 41.3735 238.639 41.2322C238.903 41.0863 239.122 40.8881 239.295 40.6375C239.468 40.3868 239.598 40.0997 239.685 39.7761C239.776 39.448 239.821 39.0994 239.821 38.7302V38.573C239.821 38.2084 239.776 37.8643 239.685 37.5408C239.598 37.2126 239.466 36.9233 239.288 36.6726C239.115 36.4174 238.896 36.2169 238.632 36.071C238.372 35.9252 238.067 35.8523 237.716 35.8523C237.369 35.8523 237.064 35.9252 236.8 36.071C236.54 36.2169 236.321 36.4174 236.144 36.6726C235.97 36.9233 235.84 37.2126 235.754 37.5408C235.667 37.8643 235.624 38.2084 235.624 38.573ZM246.151 39.0925H243.725L243.711 38.0808H245.693C246.085 38.0808 246.411 38.0421 246.671 37.9646C246.935 37.8871 247.133 37.7709 247.266 37.616C247.398 37.461 247.464 37.2696 247.464 37.0417C247.464 36.864 247.425 36.7091 247.348 36.5769C247.275 36.4402 247.163 36.3285 247.013 36.2419C246.862 36.1508 246.675 36.0847 246.452 36.0437C246.233 35.9981 245.976 35.9753 245.68 35.9753H244.06V42.3464H242.795V34.95H245.68C246.149 34.95 246.571 34.991 246.944 35.073C247.323 35.155 247.644 35.2804 247.908 35.449C248.177 35.613 248.382 35.8227 248.523 36.0779C248.665 36.3331 248.735 36.6339 248.735 36.9802C248.735 37.2035 248.69 37.4154 248.599 37.616C248.507 37.8165 248.373 37.9942 248.195 38.1492C248.018 38.3041 247.799 38.4317 247.539 38.532C247.279 38.6277 246.981 38.6892 246.644 38.7166L246.151 39.0925ZM246.151 42.3464H243.267L243.896 41.321H246.151C246.502 41.321 246.794 41.2778 247.026 41.1912C247.259 41.1 247.432 40.9724 247.546 40.8083C247.664 40.6397 247.724 40.4392 247.724 40.2068C247.724 39.9744 247.664 39.7761 247.546 39.6121C247.432 39.4434 247.259 39.3158 247.026 39.2292C246.794 39.1381 246.502 39.0925 246.151 39.0925H244.23L244.244 38.0808H246.644L247.102 38.4636C247.507 38.4955 247.851 38.5958 248.134 38.7644C248.416 38.933 248.631 39.1472 248.776 39.407C248.922 39.6622 248.995 39.9402 248.995 40.241C248.995 40.5873 248.929 40.8927 248.797 41.157C248.669 41.4213 248.482 41.6423 248.236 41.8201C247.99 41.9932 247.692 42.1254 247.341 42.2166C246.99 42.3031 246.593 42.3464 246.151 42.3464ZM252.058 40.3435L255.469 34.95H256.74V42.3464H255.469V36.9529L252.058 42.3464H250.8V34.95H252.058V40.3435ZM260.138 40.3435L263.549 34.95H264.82V42.3464H263.549V36.9529L260.138 42.3464H258.88V34.95H260.138V40.3435ZM262.858 32.2703H263.884C263.884 32.6257 263.802 32.9425 263.638 33.2205C263.474 33.4939 263.239 33.7081 262.934 33.863C262.628 34.018 262.266 34.0955 261.847 34.0955C261.213 34.0955 260.712 33.9268 260.343 33.5896C259.978 33.2478 259.796 32.808 259.796 32.2703H260.821C260.821 32.5391 260.899 32.7761 261.054 32.9812C261.209 33.1863 261.473 33.2888 261.847 33.2888C262.211 33.2888 262.471 33.1863 262.626 32.9812C262.781 32.7761 262.858 32.5391 262.858 32.2703ZM112.229 56.3718V65.1902H110.957V54.95H112.119L112.229 56.3718ZM117.212 58.5867V58.7302C117.212 59.268 117.148 59.767 117.021 60.2273C116.893 60.683 116.706 61.0795 116.46 61.4167C116.218 61.754 115.92 62.016 115.564 62.2029C115.209 62.3897 114.801 62.4832 114.341 62.4832C113.871 62.4832 113.457 62.4057 113.097 62.2507C112.737 62.0958 112.431 61.8702 112.181 61.574C111.93 61.2778 111.729 60.9223 111.579 60.5076C111.433 60.0929 111.333 59.6257 111.278 59.1062V58.3406C111.333 57.7937 111.436 57.3038 111.586 56.8708C111.736 56.4379 111.935 56.0688 112.181 55.7634C112.431 55.4535 112.734 55.2188 113.09 55.0593C113.445 54.8953 113.855 54.8132 114.32 54.8132C114.785 54.8132 115.198 54.9044 115.558 55.0867C115.918 55.2644 116.221 55.5196 116.467 55.8523C116.713 56.185 116.897 56.5837 117.021 57.0486C117.148 57.5089 117.212 58.0216 117.212 58.5867ZM115.94 58.7302V58.5867C115.94 58.2175 115.902 57.8712 115.824 57.5476C115.747 57.2195 115.626 56.9324 115.462 56.6863C115.302 56.4356 115.097 56.2397 114.847 56.0984C114.596 55.9526 114.298 55.8796 113.951 55.8796C113.632 55.8796 113.354 55.9343 113.117 56.0437C112.885 56.1531 112.687 56.3012 112.522 56.488C112.358 56.6703 112.224 56.88 112.119 57.1169C112.019 57.3494 111.944 57.5909 111.894 57.8416V59.6121C111.985 59.9311 112.112 60.2319 112.276 60.5144C112.44 60.7924 112.659 61.018 112.933 61.1912C113.206 61.3598 113.55 61.4441 113.965 61.4441C114.307 61.4441 114.601 61.3735 114.847 61.2322C115.097 61.0863 115.302 60.8881 115.462 60.6375C115.626 60.3868 115.747 60.0997 115.824 59.7761C115.902 59.448 115.94 59.0994 115.94 58.7302ZM123.187 61.0818V57.2742C123.187 56.9825 123.127 56.7296 123.009 56.5154C122.895 56.2966 122.722 56.128 122.489 56.0095C122.257 55.891 121.97 55.8318 121.628 55.8318C121.309 55.8318 121.029 55.8865 120.787 55.9958C120.55 56.1052 120.363 56.2488 120.227 56.4265C120.094 56.6042 120.028 56.7957 120.028 57.0007H118.764C118.764 56.7364 118.832 56.4744 118.969 56.2146C119.105 55.9548 119.301 55.7201 119.557 55.5105C119.816 55.2963 120.126 55.1277 120.486 55.0046C120.851 54.877 121.257 54.8132 121.703 54.8132C122.241 54.8132 122.715 54.9044 123.125 55.0867C123.54 55.269 123.863 55.5447 124.096 55.9138C124.333 56.2784 124.451 56.7364 124.451 57.2878V60.7332C124.451 60.9792 124.472 61.2413 124.513 61.5193C124.558 61.7973 124.624 62.0365 124.711 62.2371V62.3464H123.392C123.328 62.2006 123.278 62.0069 123.241 61.7654C123.205 61.5193 123.187 61.2914 123.187 61.0818ZM123.405 57.8621L123.419 58.7507H122.141C121.781 58.7507 121.459 58.7804 121.177 58.8396C120.894 58.8943 120.657 58.9786 120.466 59.0925C120.274 59.2065 120.129 59.35 120.028 59.5232C119.928 59.6918 119.878 59.8901 119.878 60.1179C119.878 60.3503 119.93 60.5623 120.035 60.7537C120.14 60.9451 120.297 61.0977 120.507 61.2117C120.721 61.321 120.983 61.3757 121.293 61.3757C121.68 61.3757 122.022 61.2937 122.318 61.1296C122.615 60.9656 122.849 60.7651 123.022 60.5281C123.2 60.2911 123.296 60.061 123.31 59.8376L123.85 60.446C123.818 60.6375 123.731 60.8494 123.59 61.0818C123.449 61.3142 123.259 61.5375 123.022 61.7517C122.79 61.9613 122.512 62.1368 122.188 62.2781C121.869 62.4148 121.509 62.4832 121.108 62.4832C120.607 62.4832 120.167 62.3852 119.789 62.1892C119.415 61.9932 119.124 61.7312 118.914 61.4031C118.709 61.0704 118.606 60.699 118.606 60.2888C118.606 59.8923 118.684 59.5437 118.839 59.2429C118.994 58.9376 119.217 58.6847 119.509 58.4841C119.8 58.2791 120.151 58.1241 120.562 58.0193C120.972 57.9145 121.43 57.8621 121.936 57.8621H123.405ZM131.185 51.7302H132.224C132.224 52.1768 132.155 52.5323 132.019 52.7966C131.882 53.0564 131.695 53.2569 131.458 53.3982C131.226 53.5395 130.961 53.6466 130.665 53.7195C130.373 53.7924 130.07 53.863 129.756 53.9314C129.364 54.0134 128.999 54.1433 128.662 54.321C128.329 54.4942 128.042 54.7403 127.801 55.0593C127.564 55.3783 127.388 55.7931 127.274 56.3035C127.165 56.8139 127.135 57.4451 127.186 58.197V58.8259H126.146V58.197C126.146 57.3539 126.226 56.6179 126.386 55.989C126.55 55.3601 126.78 54.8292 127.076 54.3962C127.372 53.9633 127.723 53.6192 128.129 53.364C128.539 53.1088 128.99 52.9333 129.482 52.8376C129.838 52.7693 130.143 52.6964 130.398 52.6189C130.654 52.5369 130.847 52.4275 130.979 52.2908C131.116 52.1541 131.185 51.9672 131.185 51.7302ZM129.688 55.3738C130.171 55.3738 130.601 55.4581 130.979 55.6267C131.358 55.7953 131.679 56.03 131.943 56.3308C132.208 56.6316 132.408 56.9871 132.545 57.3972C132.686 57.8028 132.757 58.2449 132.757 58.7234V58.8738C132.757 59.3888 132.682 59.8673 132.531 60.3093C132.385 60.7468 132.169 61.1296 131.882 61.4578C131.599 61.7813 131.253 62.0343 130.843 62.2166C130.437 62.3988 129.975 62.49 129.455 62.49C128.936 62.49 128.471 62.3988 128.061 62.2166C127.655 62.0343 127.309 61.7813 127.021 61.4578C126.734 61.1296 126.516 60.7468 126.365 60.3093C126.219 59.8673 126.146 59.3888 126.146 58.8738V58.7234C126.146 58.6095 126.167 58.4978 126.208 58.3884C126.249 58.2791 126.299 58.1674 126.358 58.0535C126.422 57.9395 126.479 57.8188 126.529 57.6912C126.698 57.281 126.928 56.9005 127.22 56.5496C127.516 56.1986 127.869 55.9161 128.279 55.7019C128.694 55.4832 129.163 55.3738 129.688 55.3738ZM129.441 56.406C128.977 56.406 128.594 56.5131 128.293 56.7273C127.997 56.9415 127.776 57.2263 127.63 57.5818C127.484 57.9327 127.411 58.3132 127.411 58.7234V58.8738C127.411 59.2201 127.452 59.5483 127.534 59.8582C127.616 60.1681 127.739 60.4438 127.903 60.6853C128.072 60.9223 128.284 61.1091 128.539 61.2458C128.799 61.3826 129.104 61.4509 129.455 61.4509C129.806 61.4509 130.109 61.3826 130.364 61.2458C130.619 61.1091 130.829 60.9223 130.993 60.6853C131.157 60.4438 131.28 60.1681 131.362 59.8582C131.444 59.5483 131.485 59.2201 131.485 58.8738V58.7234C131.485 58.4135 131.444 58.1195 131.362 57.8416C131.28 57.5636 131.155 57.3175 130.986 57.1033C130.822 56.8891 130.61 56.7205 130.351 56.5974C130.095 56.4698 129.792 56.406 129.441 56.406ZM133.857 58.7302V58.573C133.857 58.0398 133.935 57.5453 134.09 57.0896C134.245 56.6293 134.468 56.2306 134.76 55.8933C135.051 55.5515 135.405 55.2872 135.819 55.1003C136.234 54.9089 136.699 54.8132 137.214 54.8132C137.733 54.8132 138.201 54.9089 138.615 55.1003C139.035 55.2872 139.39 55.5515 139.682 55.8933C139.978 56.2306 140.203 56.6293 140.358 57.0896C140.513 57.5453 140.591 58.0398 140.591 58.573V58.7302C140.591 59.2634 140.513 59.7579 140.358 60.2136C140.203 60.6694 139.978 61.0681 139.682 61.4099C139.39 61.7472 139.037 62.0115 138.622 62.2029C138.212 62.3897 137.747 62.4832 137.228 62.4832C136.708 62.4832 136.241 62.3897 135.826 62.2029C135.411 62.0115 135.056 61.7472 134.76 61.4099C134.468 61.0681 134.245 60.6694 134.09 60.2136C133.935 59.7579 133.857 59.2634 133.857 58.7302ZM135.122 58.573V58.7302C135.122 59.0994 135.165 59.448 135.252 59.7761C135.339 60.0997 135.468 60.3868 135.642 60.6375C135.819 60.8881 136.04 61.0863 136.305 61.2322C136.569 61.3735 136.877 61.4441 137.228 61.4441C137.574 61.4441 137.877 61.3735 138.137 61.2322C138.401 61.0863 138.62 60.8881 138.793 60.6375C138.966 60.3868 139.096 60.0997 139.183 59.7761C139.274 59.448 139.319 59.0994 139.319 58.7302V58.573C139.319 58.2084 139.274 57.8643 139.183 57.5408C139.096 57.2126 138.964 56.9233 138.786 56.6726C138.613 56.4174 138.394 56.2169 138.13 56.071C137.87 55.9252 137.565 55.8523 137.214 55.8523C136.868 55.8523 136.562 55.9252 136.298 56.071C136.038 56.2169 135.819 56.4174 135.642 56.6726C135.468 56.9233 135.339 57.2126 135.252 57.5408C135.165 57.8643 135.122 58.2084 135.122 58.573ZM145.041 54.95V62.3464H143.77V54.95H145.041ZM147.522 54.95V55.9753H141.336V54.95H147.522ZM149.806 57.4929H152.027C152.624 57.4929 153.128 57.5977 153.538 57.8074C153.948 58.0125 154.258 58.2973 154.468 58.6619C154.682 59.0219 154.789 59.432 154.789 59.8923C154.789 60.2341 154.73 60.5554 154.611 60.8562C154.493 61.1524 154.315 61.4122 154.078 61.6355C153.846 61.8588 153.556 62.0343 153.21 62.1619C152.868 62.2849 152.474 62.3464 152.027 62.3464H148.883V54.95H150.147V61.3074H152.027C152.392 61.3074 152.684 61.2413 152.902 61.1091C153.121 60.977 153.278 60.8061 153.374 60.5964C153.47 60.3868 153.518 60.1681 153.518 59.9402C153.518 59.7169 153.47 59.4981 153.374 59.2839C153.278 59.0697 153.121 58.892 152.902 58.7507C152.684 58.6049 152.392 58.532 152.027 58.532H149.806V57.4929ZM157.421 54.95V62.3464H156.156V54.95H157.421Z" fill="black"/>
<g filter="url(#filter0_d_316_449)">
<path d="M316.5 54.8464C323.404 47.9429 323.404 36.75 316.5 29.8464C309.596 22.9429 298.404 22.9429 291.5 29.8464C284.596 36.75 284.596 47.9429 291.5 54.8464C298.404 61.75 309.596 61.75 316.5 54.8464Z" fill="white"/>
</g>
<path d="M309.526 42.3446C309.529 43.3917 309.222 44.4164 308.643 45.2893C308.065 46.1622 307.241 46.8443 306.276 47.2495C305.31 47.6547 304.246 47.7649 303.218 47.5662C302.19 47.3675 301.244 46.8688 300.499 46.133C299.754 45.3972 299.243 44.4572 299.032 43.4317C298.82 42.4061 298.917 41.3409 299.31 40.3704C299.703 39.3998 300.375 38.5674 301.241 37.9782C302.106 37.389 303.127 37.0693 304.174 37.0595C304.874 37.0507 305.568 37.1809 306.217 37.4426C306.866 37.7043 307.456 38.0922 307.954 38.5838C308.452 39.0755 308.847 39.6611 309.117 40.3066C309.387 40.9522 309.526 41.6449 309.526 42.3446V42.3446Z" fill="#00A3FF"/>
<path d="M304.24 44.4153C305.384 44.4153 306.311 43.4881 306.311 42.3444C306.311 41.2006 305.384 40.2734 304.24 40.2734C303.096 40.2734 302.169 41.2006 302.169 42.3444C302.169 43.4881 303.096 44.4153 304.24 44.4153Z" fill="white"/>
<path d="M85 42.3464L59 42.3464" stroke="#00A3FF" stroke-miterlimit="10" stroke-linecap="round"/>
<path d="M80 40.4763C79.9954 41.9607 80.4313 43.413 81.2526 44.6495C82.0739 45.8859 83.2436 46.8508 84.6136 47.4221C85.9837 47.9934 87.4924 48.1452 88.9488 47.8585C90.4052 47.5718 91.7437 46.8593 92.795 45.8114C93.8462 44.7634 94.5629 43.4271 94.8542 41.9716C95.1455 40.5161 94.9983 39.0069 94.4313 37.6351C93.8644 36.2633 92.9031 35.0905 91.6692 34.2654C90.4354 33.4402 88.9844 32.9998 87.5 32.9998C85.515 32.9997 83.6108 33.7867 82.205 35.1882C80.7991 36.5896 80.0062 38.4913 80 40.4763V40.4763Z" fill="#00A3FF"/>
<path d="M87.4766 43.406C85.8586 43.406 84.5469 42.0943 84.5469 40.4763C84.5469 38.8583 85.8586 37.5466 87.4766 37.5466C89.0946 37.5466 90.4062 38.8583 90.4062 40.4763C90.4062 42.0943 89.0946 43.406 87.4766 43.406Z" fill="white"/>
<defs>
<filter id="filter0_d_316_449" x="262.322" y="0.668701" width="83.3555" height="83.3555" filterUnits="userSpaceOnUse" color-interpolation-filters="sRGB">
<feFlood flood-opacity="0" result="BackgroundImageFix"/>
<feColorMatrix in="SourceAlpha" type="matrix" values="0 0 0 0 0 0 0 0 0 0 0 0 0 0 0 0 0 0 127 0" result="hardAlpha"/>
<feOffset/>
<feGaussianBlur stdDeviation="12"/>
<feComposite in2="hardAlpha" operator="out"/>
<feColorMatrix type="matrix" values="0 0 0 0 0.579167 0 0 0 0 0.579167 0 0 0 0 0.579167 0 0 0 0.3 0"/>
<feBlend mode="normal" in2="BackgroundImageFix" result="effect1_dropShadow_316_449"/>
<feBlend mode="normal" in="SourceGraphic" in2="effect1_dropShadow_316_449" result="shape"/>
</filter>
</defs>
</svg>
