<svg width="672" height="125" viewBox="0 0 672 125" fill="none" xmlns="http://www.w3.org/2000/svg">
<path d="M175.294 65L57.2942 65" stroke="#00A3FF" stroke-miterlimit="10" stroke-linecap="round"/>
<g filter="url(#filter0_d_802_826)">
<path d="M32.5736 85.7315C21.2112 74.3745 21.2111 55.961 32.5736 44.6039C43.936 33.2468 62.3582 33.2468 73.7207 44.6039C85.0831 55.961 85.0831 74.3745 73.7207 85.7315C62.3582 97.0886 43.9361 97.0886 32.5736 85.7315Z" fill="white"/>
</g>
<path d="M44.0534 65.1647C44.0481 66.8873 44.5533 68.573 45.5053 70.009C46.4572 71.445 47.8133 72.5671 49.4025 73.2338C50.9917 73.9004 52.7428 74.0817 54.435 73.7549C56.1271 73.428 57.6846 72.6076 58.9108 71.3971C60.1371 70.1866 60.9772 68.6402 61.3253 66.9531C61.6734 65.2659 61.5138 63.5135 60.8667 61.9169C60.2196 60.3202 59.114 58.9509 57.6892 57.9816C56.2645 57.0122 54.5845 56.4863 52.8611 56.4702C51.7096 56.4557 50.5668 56.67 49.4988 57.1004C48.4308 57.5309 47.459 58.1691 46.6396 58.9779C45.8203 59.7867 45.1698 60.75 44.7258 61.8121C44.2819 62.8741 44.0534 64.0137 44.0534 65.1647Z" fill="#00A3FF"/>
<path d="M52.7519 68.5714C50.8694 68.5714 49.3434 67.0461 49.3434 65.1645C49.3434 63.2829 50.8694 61.7576 52.7519 61.7576C54.6344 61.7576 56.1604 63.2829 56.1604 65.1645C56.1604 67.0461 54.6344 68.5714 52.7519 68.5714Z" fill="white"/>
<path d="M172.842 65.1645C172.837 66.8906 173.344 68.5796 174.3 70.0174C175.255 71.4553 176.616 72.5774 178.21 73.2417C179.804 73.906 181.559 74.0827 183.254 73.7492C184.948 73.4158 186.506 72.5873 187.729 71.3686C188.952 70.1499 189.786 68.5959 190.125 66.9033C190.463 65.2107 190.292 63.4557 189.633 61.8604C188.973 60.2651 187.855 58.9013 186.419 57.9418C184.983 56.9822 183.295 56.47 181.568 56.47C179.259 56.47 177.043 57.3851 175.408 59.0149C173.772 60.6446 172.85 62.856 172.842 65.1645Z" fill="#00A3FF"/>
<path d="M181.541 68.5714C179.658 68.5714 178.132 67.0461 178.132 65.1645C178.132 63.2829 179.658 61.7576 181.541 61.7576C183.423 61.7576 184.949 63.2829 184.949 65.1645C184.949 67.0461 183.423 68.5714 181.541 68.5714Z" fill="white"/>
<path d="M640.304 93.2599C657.481 76.0913 657.481 48.2554 640.304 31.0867C623.127 13.9181 595.278 13.918 578.102 31.0867C560.925 48.2553 560.925 76.0913 578.102 93.26C595.278 110.429 623.128 110.429 640.304 93.2599Z" fill="#00A3FF"/>
<path d="M594.403 48.1655H599.403V76.1733H593.406V55.7827H588.602V51.9741C589.461 51.87 590.249 51.6681 590.965 51.3687C591.681 51.0562 592.235 50.7241 592.625 50.3726C593.029 50.021 593.367 49.6825 593.641 49.3569C593.927 49.0184 594.129 48.7319 594.246 48.4976L594.403 48.1655ZM612.996 55.3726C611.811 56.9741 611.219 59.2397 611.219 62.1694C611.219 65.0991 611.811 67.3647 612.996 68.9663C614.181 70.5679 615.587 71.3687 617.215 71.3687C618.843 71.3687 620.249 70.5679 621.434 68.9663C622.619 67.3647 623.211 65.0991 623.211 62.1694C623.211 59.2397 622.619 56.9741 621.434 55.3726C620.249 53.771 618.843 52.9702 617.215 52.9702C615.587 52.9702 614.181 53.771 612.996 55.3726ZM625.711 51.603C628.042 54.2723 629.207 57.7944 629.207 62.1694C629.207 66.5444 628.042 70.0731 625.711 72.7554C623.38 75.4377 620.548 76.7788 617.215 76.7788C613.882 76.7788 611.05 75.4377 608.719 72.7554C606.388 70.0731 605.223 66.5444 605.223 62.1694C605.223 57.7944 606.388 54.2723 608.719 51.603C611.05 48.9207 613.882 47.5796 617.215 47.5796C620.548 47.5796 623.38 48.9207 625.711 51.603Z" fill="white"/>
<path d="M242.711 56.3472H239.648L239.632 55.0605H242.412C242.872 55.0605 243.273 54.9831 243.616 54.8281C243.959 54.6732 244.225 54.4518 244.413 54.1641C244.607 53.8708 244.703 53.5221 244.703 53.1182C244.703 52.6755 244.618 52.3158 244.446 52.0391C244.28 51.7568 244.023 51.5521 243.674 51.4248C243.331 51.292 242.894 51.2256 242.363 51.2256H240.005V62H238.403V49.9141H242.363C242.982 49.9141 243.536 49.9777 244.023 50.105C244.51 50.2267 244.922 50.4204 245.26 50.686C245.603 50.9461 245.863 51.2782 246.04 51.6821C246.217 52.0861 246.305 52.5703 246.305 53.1348C246.305 53.6328 246.178 54.0838 245.924 54.4878C245.669 54.8862 245.315 55.2127 244.861 55.4673C244.413 55.7218 243.887 55.8851 243.284 55.957L242.711 56.3472ZM242.636 62H239.017L239.922 60.6968H242.636C243.146 60.6968 243.577 60.6082 243.931 60.4312C244.291 60.2541 244.565 60.005 244.753 59.6841C244.941 59.3576 245.035 58.973 245.035 58.5303C245.035 58.082 244.955 57.6947 244.795 57.3682C244.634 57.0417 244.382 56.7899 244.039 56.6128C243.696 56.4357 243.253 56.3472 242.711 56.3472H240.428L240.445 55.0605H243.566L243.906 55.5254C244.488 55.5752 244.98 55.7412 245.384 56.0234C245.788 56.3001 246.095 56.6543 246.305 57.0859C246.521 57.5176 246.629 57.9935 246.629 58.5137C246.629 59.2663 246.463 59.9027 246.131 60.4229C245.805 60.9375 245.343 61.3304 244.745 61.6016C244.147 61.8672 243.444 62 242.636 62ZM250.024 56.1064H252.722C253.447 56.1064 254.058 56.2337 254.556 56.4883C255.054 56.7373 255.431 57.0832 255.685 57.5259C255.945 57.9631 256.075 58.4611 256.075 59.02C256.075 59.4351 256.003 59.8252 255.86 60.1904C255.716 60.5501 255.5 60.8656 255.212 61.1367C254.93 61.4079 254.579 61.6209 254.158 61.7759C253.743 61.9253 253.264 62 252.722 62H248.904V53.0186H250.439V60.7383H252.722C253.165 60.7383 253.519 60.658 253.784 60.4976C254.05 60.3371 254.241 60.1296 254.357 59.875C254.473 59.6204 254.531 59.3548 254.531 59.0781C254.531 58.807 254.473 58.5413 254.357 58.2812C254.241 58.0212 254.05 57.8053 253.784 57.6338C253.519 57.4567 253.165 57.3682 252.722 57.3682H250.024V56.1064ZM259.271 53.0186V62H257.736V53.0186H259.271ZM266.177 58.0488H263.231L263.214 56.8203H265.621C266.097 56.8203 266.493 56.7733 266.808 56.6792C267.129 56.5851 267.37 56.444 267.531 56.2559C267.691 56.0677 267.771 55.8353 267.771 55.5586C267.771 55.3428 267.724 55.1546 267.63 54.9941C267.542 54.8281 267.406 54.6925 267.223 54.5874C267.041 54.4767 266.814 54.3965 266.543 54.3467C266.277 54.2913 265.964 54.2637 265.605 54.2637H263.637V62H262.102V53.0186H265.605C266.175 53.0186 266.687 53.0684 267.14 53.168C267.6 53.2676 267.99 53.4198 268.311 53.6245C268.637 53.8237 268.886 54.0783 269.058 54.3882C269.229 54.6981 269.315 55.0633 269.315 55.4839C269.315 55.755 269.26 56.0124 269.149 56.2559C269.038 56.4993 268.875 56.7152 268.659 56.9033C268.444 57.0915 268.178 57.2464 267.863 57.3682C267.547 57.4844 267.185 57.5591 266.775 57.5923L266.177 58.0488ZM266.177 62H262.675L263.438 60.7549H266.177C266.604 60.7549 266.958 60.7023 267.24 60.5972C267.522 60.4865 267.733 60.3315 267.871 60.1323C268.015 59.9276 268.087 59.6841 268.087 59.4019C268.087 59.1196 268.015 58.8789 267.871 58.6797C267.733 58.4749 267.522 58.32 267.24 58.2148C266.958 58.1042 266.604 58.0488 266.177 58.0488H263.845L263.862 56.8203H266.775L267.331 57.2852C267.824 57.3239 268.242 57.4456 268.585 57.6504C268.928 57.8551 269.188 58.1152 269.365 58.4307C269.542 58.7406 269.631 59.0781 269.631 59.4434C269.631 59.8639 269.55 60.2347 269.39 60.5557C269.235 60.8766 269.008 61.145 268.709 61.3608C268.41 61.5711 268.048 61.7316 267.622 61.8423C267.196 61.9474 266.714 62 266.177 62ZM271.282 57.6089V57.418C271.282 56.7705 271.377 56.1701 271.565 55.6167C271.753 55.0578 272.024 54.5736 272.378 54.1641C272.732 53.749 273.161 53.4281 273.665 53.2012C274.168 52.9688 274.733 52.8525 275.358 52.8525C275.989 52.8525 276.556 52.9688 277.06 53.2012C277.569 53.4281 278.001 53.749 278.355 54.1641C278.714 54.5736 278.988 55.0578 279.177 55.6167C279.365 56.1701 279.459 56.7705 279.459 57.418V57.6089C279.459 58.2563 279.365 58.8568 279.177 59.4102C278.988 59.9635 278.714 60.4478 278.355 60.8628C278.001 61.2723 277.572 61.5933 277.068 61.8257C276.57 62.0526 276.006 62.166 275.375 62.166C274.744 62.166 274.177 62.0526 273.673 61.8257C273.17 61.5933 272.738 61.2723 272.378 60.8628C272.024 60.4478 271.753 59.9635 271.565 59.4102C271.377 58.8568 271.282 58.2563 271.282 57.6089ZM272.818 57.418V57.6089C272.818 58.0571 272.871 58.4805 272.976 58.8789C273.081 59.2718 273.239 59.6204 273.449 59.9248C273.665 60.2292 273.933 60.4699 274.254 60.647C274.575 60.8185 274.949 60.9043 275.375 60.9043C275.795 60.9043 276.163 60.8185 276.479 60.647C276.8 60.4699 277.065 60.2292 277.276 59.9248C277.486 59.6204 277.644 59.2718 277.749 58.8789C277.859 58.4805 277.915 58.0571 277.915 57.6089V57.418C277.915 56.9753 277.859 56.5575 277.749 56.1646C277.644 55.7661 277.483 55.4147 277.267 55.1104C277.057 54.8005 276.791 54.557 276.47 54.3799C276.155 54.2028 275.784 54.1143 275.358 54.1143C274.938 54.1143 274.567 54.2028 274.246 54.3799C273.93 54.557 273.665 54.8005 273.449 55.1104C273.239 55.4147 273.081 55.7661 272.976 56.1646C272.871 56.5575 272.818 56.9753 272.818 57.418ZM282.406 53.0186H283.941L283.808 56.3804C283.775 57.2326 283.678 57.9686 283.518 58.5884C283.357 59.2082 283.153 59.7367 282.904 60.1738C282.655 60.6055 282.375 60.9679 282.065 61.2612C281.761 61.5545 281.445 61.8008 281.119 62H280.355L280.397 60.7466L280.712 60.7383C280.895 60.5225 281.072 60.3011 281.243 60.0742C281.415 59.8418 281.573 59.5679 281.717 59.2524C281.86 58.9315 281.979 58.5413 282.073 58.082C282.173 57.6172 282.237 57.05 282.264 56.3804L282.406 53.0186ZM282.787 53.0186H288.191V62H286.656V54.438H282.787V53.0186ZM280.007 60.7383H289.345V64.6479H287.809V62H281.542V64.6479H279.998L280.007 60.7383ZM298.924 53.0186V62H297.38V53.0186H298.924ZM301.937 53.0186V54.2637H294.425V53.0186H301.937ZM302.693 57.6089V57.418C302.693 56.7705 302.787 56.1701 302.975 55.6167C303.163 55.0578 303.434 54.5736 303.788 54.1641C304.142 53.749 304.571 53.4281 305.075 53.2012C305.579 52.9688 306.143 52.8525 306.768 52.8525C307.399 52.8525 307.966 52.9688 308.47 53.2012C308.979 53.4281 309.411 53.749 309.765 54.1641C310.125 54.5736 310.399 55.0578 310.587 55.6167C310.775 56.1701 310.869 56.7705 310.869 57.418V57.6089C310.869 58.2563 310.775 58.8568 310.587 59.4102C310.399 59.9635 310.125 60.4478 309.765 60.8628C309.411 61.2723 308.982 61.5933 308.478 61.8257C307.98 62.0526 307.416 62.166 306.785 62.166C306.154 62.166 305.587 62.0526 305.083 61.8257C304.58 61.5933 304.148 61.2723 303.788 60.8628C303.434 60.4478 303.163 59.9635 302.975 59.4102C302.787 58.8568 302.693 58.2563 302.693 57.6089ZM304.228 57.418V57.6089C304.228 58.0571 304.281 58.4805 304.386 58.8789C304.491 59.2718 304.649 59.6204 304.859 59.9248C305.075 60.2292 305.343 60.4699 305.664 60.647C305.985 60.8185 306.359 60.9043 306.785 60.9043C307.205 60.9043 307.573 60.8185 307.889 60.647C308.21 60.4699 308.476 60.2292 308.686 59.9248C308.896 59.6204 309.054 59.2718 309.159 58.8789C309.27 58.4805 309.325 58.0571 309.325 57.6089V57.418C309.325 56.9753 309.27 56.5575 309.159 56.1646C309.054 55.7661 308.893 55.4147 308.677 55.1104C308.467 54.8005 308.202 54.557 307.881 54.3799C307.565 54.2028 307.194 54.1143 306.768 54.1143C306.348 54.1143 305.977 54.2028 305.656 54.3799C305.341 54.557 305.075 54.8005 304.859 55.1104C304.649 55.4147 304.491 55.7661 304.386 56.1646C304.281 56.5575 304.228 56.9753 304.228 57.418ZM317.011 58.0488H314.065L314.048 56.8203H316.455C316.931 56.8203 317.327 56.7733 317.642 56.6792C317.963 56.5851 318.204 56.444 318.365 56.2559C318.525 56.0677 318.605 55.8353 318.605 55.5586C318.605 55.3428 318.558 55.1546 318.464 54.9941C318.376 54.8281 318.24 54.6925 318.057 54.5874C317.875 54.4767 317.648 54.3965 317.377 54.3467C317.111 54.2913 316.798 54.2637 316.439 54.2637H314.471V62H312.936V53.0186H316.439C317.009 53.0186 317.521 53.0684 317.974 53.168C318.434 53.2676 318.824 53.4198 319.145 53.6245C319.471 53.8237 319.72 54.0783 319.892 54.3882C320.063 54.6981 320.149 55.0633 320.149 55.4839C320.149 55.755 320.094 56.0124 319.983 56.2559C319.872 56.4993 319.709 56.7152 319.493 56.9033C319.278 57.0915 319.012 57.2464 318.697 57.3682C318.381 57.4844 318.019 57.5591 317.609 57.5923L317.011 58.0488ZM317.011 62H313.509L314.272 60.7549H317.011C317.438 60.7549 317.792 60.7023 318.074 60.5972C318.356 60.4865 318.566 60.3315 318.705 60.1323C318.849 59.9276 318.921 59.6841 318.921 59.4019C318.921 59.1196 318.849 58.8789 318.705 58.6797C318.566 58.4749 318.356 58.32 318.074 58.2148C317.792 58.1042 317.438 58.0488 317.011 58.0488H314.679L314.696 56.8203H317.609L318.165 57.2852C318.658 57.3239 319.076 57.4456 319.419 57.6504C319.762 57.8551 320.022 58.1152 320.199 58.4307C320.376 58.7406 320.465 59.0781 320.465 59.4434C320.465 59.8639 320.384 60.2347 320.224 60.5557C320.069 60.8766 319.842 61.145 319.543 61.3608C319.244 61.5711 318.882 61.7316 318.456 61.8423C318.03 61.9474 317.548 62 317.011 62ZM327.819 60.4644V55.8408C327.819 55.4867 327.747 55.1795 327.603 54.9194C327.465 54.6538 327.255 54.4491 326.972 54.3052C326.69 54.1613 326.342 54.0894 325.927 54.0894C325.539 54.0894 325.199 54.1558 324.906 54.2886C324.618 54.4214 324.391 54.5957 324.225 54.8115C324.064 55.0273 323.984 55.2598 323.984 55.5088H322.448C322.448 55.1878 322.531 54.8696 322.698 54.5542C322.864 54.2388 323.101 53.9538 323.411 53.6992C323.727 53.4391 324.103 53.2344 324.54 53.085C324.983 52.93 325.476 52.8525 326.018 52.8525C326.671 52.8525 327.246 52.9632 327.744 53.1846C328.248 53.4059 328.641 53.7407 328.923 54.189C329.211 54.6317 329.355 55.1878 329.355 55.8574V60.041C329.355 60.3398 329.38 60.658 329.429 60.9956C329.485 61.3332 329.565 61.6237 329.67 61.8672V62H328.068C327.991 61.8229 327.93 61.5877 327.885 61.2944C327.841 60.9956 327.819 60.7189 327.819 60.4644ZM328.085 56.5547L328.101 57.6338H326.549C326.112 57.6338 325.722 57.6698 325.379 57.7417C325.036 57.8081 324.748 57.9105 324.515 58.0488C324.283 58.1872 324.106 58.3615 323.984 58.5718C323.862 58.7765 323.802 59.0173 323.802 59.2939C323.802 59.5762 323.865 59.8335 323.992 60.0659C324.12 60.2983 324.311 60.4837 324.565 60.6221C324.825 60.7549 325.143 60.8213 325.52 60.8213C325.99 60.8213 326.405 60.7217 326.765 60.5225C327.125 60.3232 327.41 60.0798 327.62 59.792C327.836 59.5042 327.952 59.2248 327.969 58.9536L328.624 59.6924C328.586 59.9248 328.48 60.1821 328.309 60.4644C328.137 60.7466 327.908 61.0177 327.62 61.2778C327.338 61.5324 327 61.7454 326.607 61.917C326.22 62.083 325.783 62.166 325.296 62.166C324.687 62.166 324.153 62.047 323.694 61.8091C323.24 61.5711 322.886 61.2529 322.631 60.8545C322.382 60.4505 322.258 59.9995 322.258 59.5015C322.258 59.02 322.352 58.5967 322.54 58.2314C322.728 57.8607 322.999 57.5535 323.353 57.3101C323.707 57.061 324.134 56.8729 324.632 56.7456C325.13 56.6183 325.686 56.5547 326.3 56.5547H328.085ZM333.306 54.7451V65.4531H331.762V53.0186H333.173L333.306 54.7451ZM339.357 57.4346V57.6089C339.357 58.2619 339.28 58.8678 339.125 59.4268C338.97 59.9801 338.743 60.4616 338.444 60.8711C338.151 61.2806 337.788 61.5988 337.357 61.8257C336.925 62.0526 336.43 62.166 335.871 62.166C335.301 62.166 334.797 62.0719 334.36 61.8838C333.923 61.6956 333.552 61.4217 333.248 61.062C332.943 60.7023 332.7 60.2707 332.517 59.7671C332.34 59.2635 332.219 58.6963 332.152 58.0654V57.1357C332.219 56.4717 332.343 55.8768 332.526 55.3511C332.708 54.8254 332.949 54.3771 333.248 54.0063C333.552 53.63 333.92 53.3451 334.352 53.1514C334.783 52.9521 335.281 52.8525 335.846 52.8525C336.41 52.8525 336.911 52.9632 337.348 53.1846C337.786 53.4004 338.154 53.7103 338.452 54.1143C338.751 54.5182 338.975 55.0024 339.125 55.5669C339.28 56.1258 339.357 56.7484 339.357 57.4346ZM337.813 57.6089V57.4346C337.813 56.9863 337.766 56.5658 337.672 56.1729C337.578 55.7744 337.431 55.4258 337.232 55.127C337.038 54.8226 336.789 54.5846 336.485 54.4131C336.181 54.236 335.818 54.1475 335.398 54.1475C335.01 54.1475 334.673 54.2139 334.385 54.3467C334.103 54.4795 333.862 54.6593 333.663 54.8862C333.464 55.1076 333.3 55.3621 333.173 55.6499C333.051 55.9321 332.96 56.2254 332.899 56.5298V58.6797C333.01 59.0671 333.165 59.4323 333.364 59.7754C333.563 60.113 333.829 60.3869 334.161 60.5972C334.493 60.8019 334.911 60.9043 335.414 60.9043C335.829 60.9043 336.186 60.8185 336.485 60.647C336.789 60.4699 337.038 60.2292 337.232 59.9248C337.431 59.6204 337.578 59.2718 337.672 58.8789C337.766 58.4805 337.813 58.0571 337.813 57.6089ZM340.909 57.6089V57.418C340.909 56.7705 341.003 56.1701 341.192 55.6167C341.38 55.0578 341.651 54.5736 342.005 54.1641C342.359 53.749 342.788 53.4281 343.292 53.2012C343.795 52.9688 344.36 52.8525 344.985 52.8525C345.616 52.8525 346.183 52.9688 346.687 53.2012C347.196 53.4281 347.628 53.749 347.982 54.1641C348.341 54.5736 348.615 55.0578 348.803 55.6167C348.992 56.1701 349.086 56.7705 349.086 57.418V57.6089C349.086 58.2563 348.992 58.8568 348.803 59.4102C348.615 59.9635 348.341 60.4478 347.982 60.8628C347.628 61.2723 347.199 61.5933 346.695 61.8257C346.197 62.0526 345.633 62.166 345.002 62.166C344.371 62.166 343.804 62.0526 343.3 61.8257C342.796 61.5933 342.365 61.2723 342.005 60.8628C341.651 60.4478 341.38 59.9635 341.192 59.4102C341.003 58.8568 340.909 58.2563 340.909 57.6089ZM342.445 57.418V57.6089C342.445 58.0571 342.498 58.4805 342.603 58.8789C342.708 59.2718 342.866 59.6204 343.076 59.9248C343.292 60.2292 343.56 60.4699 343.881 60.647C344.202 60.8185 344.576 60.9043 345.002 60.9043C345.422 60.9043 345.79 60.8185 346.106 60.647C346.427 60.4699 346.692 60.2292 346.903 59.9248C347.113 59.6204 347.271 59.2718 347.376 58.8789C347.486 58.4805 347.542 58.0571 347.542 57.6089V57.418C347.542 56.9753 347.486 56.5575 347.376 56.1646C347.271 55.7661 347.11 55.4147 346.894 55.1104C346.684 54.8005 346.418 54.557 346.097 54.3799C345.782 54.2028 345.411 54.1143 344.985 54.1143C344.565 54.1143 344.194 54.2028 343.873 54.3799C343.557 54.557 343.292 54.8005 343.076 55.1104C342.866 55.4147 342.708 55.7661 342.603 56.1646C342.498 56.5575 342.445 56.9753 342.445 57.418ZM355.228 58.0488H352.281L352.265 56.8203H354.672C355.148 56.8203 355.544 56.7733 355.859 56.6792C356.18 56.5851 356.421 56.444 356.581 56.2559C356.742 56.0677 356.822 55.8353 356.822 55.5586C356.822 55.3428 356.775 55.1546 356.681 54.9941C356.592 54.8281 356.457 54.6925 356.274 54.5874C356.092 54.4767 355.865 54.3965 355.594 54.3467C355.328 54.2913 355.015 54.2637 354.656 54.2637H352.688V62H351.153V53.0186H354.656C355.226 53.0186 355.737 53.0684 356.191 53.168C356.65 53.2676 357.041 53.4198 357.362 53.6245C357.688 53.8237 357.937 54.0783 358.109 54.3882C358.28 54.6981 358.366 55.0633 358.366 55.4839C358.366 55.755 358.311 56.0124 358.2 56.2559C358.089 56.4993 357.926 56.7152 357.71 56.9033C357.494 57.0915 357.229 57.2464 356.913 57.3682C356.598 57.4844 356.235 57.5591 355.826 57.5923L355.228 58.0488ZM355.228 62H351.725L352.489 60.7549H355.228C355.654 60.7549 356.009 60.7023 356.291 60.5972C356.573 60.4865 356.783 60.3315 356.922 60.1323C357.066 59.9276 357.137 59.6841 357.137 59.4019C357.137 59.1196 357.066 58.8789 356.922 58.6797C356.783 58.4749 356.573 58.32 356.291 58.2148C356.009 58.1042 355.654 58.0488 355.228 58.0488H352.896L352.912 56.8203H355.826L356.382 57.2852C356.875 57.3239 357.292 57.4456 357.635 57.6504C357.979 57.8551 358.239 58.1152 358.416 58.4307C358.593 58.7406 358.681 59.0781 358.681 59.4434C358.681 59.8639 358.601 60.2347 358.441 60.5557C358.286 60.8766 358.059 61.145 357.76 61.3608C357.461 61.5711 357.099 61.7316 356.673 61.8423C356.247 61.9474 355.765 62 355.228 62ZM370.718 49.1089H371.979C371.979 49.6512 371.896 50.0828 371.73 50.4038C371.564 50.7192 371.337 50.9627 371.05 51.1343C370.767 51.3058 370.446 51.4359 370.087 51.5244C369.733 51.613 369.365 51.6987 368.983 51.7817C368.507 51.8813 368.064 52.0391 367.655 52.2549C367.251 52.4652 366.902 52.764 366.609 53.1514C366.321 53.5387 366.108 54.0423 365.969 54.6621C365.837 55.2819 365.801 56.0483 365.862 56.9614V57.7251H364.6V56.9614C364.6 55.9377 364.697 55.0439 364.89 54.2803C365.09 53.5166 365.369 52.8719 365.729 52.3462C366.088 51.8205 366.515 51.4027 367.007 51.0928C367.505 50.7829 368.053 50.5698 368.651 50.4536C369.082 50.3706 369.453 50.2821 369.763 50.188C370.073 50.0884 370.308 49.9556 370.469 49.7896C370.635 49.6235 370.718 49.3966 370.718 49.1089ZM368.9 53.5332C369.486 53.5332 370.009 53.6356 370.469 53.8403C370.928 54.0451 371.318 54.3301 371.639 54.6953C371.96 55.0605 372.203 55.4922 372.369 55.9902C372.541 56.4827 372.627 57.0195 372.627 57.6006V57.7832C372.627 58.4085 372.535 58.9896 372.353 59.5264C372.176 60.0576 371.913 60.5225 371.564 60.9209C371.221 61.3138 370.801 61.6209 370.302 61.8423C369.81 62.0636 369.248 62.1743 368.617 62.1743C367.987 62.1743 367.422 62.0636 366.924 61.8423C366.432 61.6209 366.011 61.3138 365.662 60.9209C365.314 60.5225 365.048 60.0576 364.865 59.5264C364.688 58.9896 364.6 58.4085 364.6 57.7832V57.6006C364.6 57.4622 364.625 57.3267 364.675 57.1938C364.724 57.061 364.785 56.9255 364.857 56.7871C364.935 56.6488 365.004 56.5021 365.065 56.3472C365.269 55.8491 365.549 55.387 365.903 54.9609C366.263 54.5348 366.692 54.1917 367.19 53.9316C367.693 53.666 368.263 53.5332 368.9 53.5332ZM368.601 54.7866C368.036 54.7866 367.572 54.9167 367.206 55.1768C366.847 55.4368 366.578 55.7827 366.401 56.2144C366.224 56.6405 366.135 57.1025 366.135 57.6006V57.7832C366.135 58.2038 366.185 58.6022 366.285 58.9785C366.385 59.3548 366.534 59.6896 366.733 59.9829C366.938 60.2707 367.195 60.4976 367.505 60.6636C367.821 60.8296 368.191 60.9126 368.617 60.9126C369.044 60.9126 369.412 60.8296 369.721 60.6636C370.031 60.4976 370.286 60.2707 370.485 59.9829C370.684 59.6896 370.834 59.3548 370.933 58.9785C371.033 58.6022 371.083 58.2038 371.083 57.7832V57.6006C371.083 57.2243 371.033 56.8674 370.933 56.5298C370.834 56.1922 370.682 55.8934 370.477 55.6333C370.278 55.3732 370.02 55.1685 369.705 55.019C369.395 54.8641 369.027 54.7866 368.601 54.7866ZM375.756 54.7451V65.4531H374.212V53.0186H375.623L375.756 54.7451ZM381.807 57.4346V57.6089C381.807 58.2619 381.73 58.8678 381.575 59.4268C381.42 59.9801 381.193 60.4616 380.894 60.8711C380.601 61.2806 380.239 61.5988 379.807 61.8257C379.375 62.0526 378.88 62.166 378.321 62.166C377.751 62.166 377.247 62.0719 376.81 61.8838C376.373 61.6956 376.002 61.4217 375.698 61.062C375.394 60.7023 375.15 60.2707 374.968 59.7671C374.79 59.2635 374.669 58.6963 374.602 58.0654V57.1357C374.669 56.4717 374.793 55.8768 374.976 55.3511C375.158 54.8254 375.399 54.3771 375.698 54.0063C376.002 53.63 376.37 53.3451 376.802 53.1514C377.234 52.9521 377.732 52.8525 378.296 52.8525C378.861 52.8525 379.361 52.9632 379.799 53.1846C380.236 53.4004 380.604 53.7103 380.903 54.1143C381.201 54.5182 381.426 55.0024 381.575 55.5669C381.73 56.1258 381.807 56.7484 381.807 57.4346ZM380.263 57.6089V57.4346C380.263 56.9863 380.216 56.5658 380.122 56.1729C380.028 55.7744 379.882 55.4258 379.682 55.127C379.489 54.8226 379.24 54.5846 378.935 54.4131C378.631 54.236 378.268 54.1475 377.848 54.1475C377.461 54.1475 377.123 54.2139 376.835 54.3467C376.553 54.4795 376.312 54.6593 376.113 54.8862C375.914 55.1076 375.751 55.3621 375.623 55.6499C375.502 55.9321 375.41 56.2254 375.349 56.5298V58.6797C375.46 59.0671 375.615 59.4323 375.814 59.7754C376.013 60.113 376.279 60.3869 376.611 60.5972C376.943 60.8019 377.361 60.9043 377.865 60.9043C378.28 60.9043 378.636 60.8185 378.935 60.647C379.24 60.4699 379.489 60.2292 379.682 59.9248C379.882 59.6204 380.028 59.2718 380.122 58.8789C380.216 58.4805 380.263 58.0571 380.263 57.6089ZM387.493 62.166C386.868 62.166 386.301 62.0609 385.792 61.8506C385.288 61.6348 384.854 61.3332 384.489 60.9458C384.129 60.5584 383.852 60.0991 383.658 59.5679C383.465 59.0366 383.368 58.4556 383.368 57.8247V57.4761C383.368 56.7456 383.476 56.0954 383.692 55.5254C383.907 54.9499 384.201 54.4629 384.572 54.0645C384.942 53.666 385.363 53.3644 385.833 53.1597C386.304 52.9549 386.791 52.8525 387.294 52.8525C387.936 52.8525 388.49 52.9632 388.954 53.1846C389.425 53.4059 389.809 53.7158 390.108 54.1143C390.407 54.5072 390.628 54.972 390.772 55.5088C390.916 56.04 390.988 56.6211 390.988 57.252V57.9409H384.281V56.6875H389.452V56.5713C389.43 56.1729 389.347 55.7855 389.203 55.4092C389.065 55.0329 388.844 54.723 388.539 54.4795C388.235 54.236 387.82 54.1143 387.294 54.1143C386.946 54.1143 386.625 54.189 386.331 54.3384C386.038 54.4823 385.786 54.6981 385.576 54.9858C385.366 55.2736 385.202 55.625 385.086 56.04C384.97 56.4551 384.912 56.9338 384.912 57.4761V57.8247C384.912 58.2508 384.97 58.652 385.086 59.0283C385.208 59.3991 385.382 59.7256 385.609 60.0078C385.842 60.29 386.121 60.5114 386.448 60.6719C386.78 60.8324 387.156 60.9126 387.576 60.9126C388.119 60.9126 388.578 60.8019 388.954 60.5806C389.331 60.3592 389.66 60.0632 389.942 59.6924L390.872 60.4312C390.678 60.7244 390.432 61.0039 390.133 61.2695C389.834 61.5352 389.466 61.751 389.029 61.917C388.597 62.083 388.086 62.166 387.493 62.166ZM398.874 56.9116V58.1567H394.126V56.9116H398.874ZM394.449 53.0186V62H392.914V53.0186H394.449ZM400.119 53.0186V62H398.575V53.0186H400.119ZM404.211 53.0186H405.747L405.614 56.3804C405.581 57.2326 405.484 57.9686 405.323 58.5884C405.163 59.2082 404.958 59.7367 404.709 60.1738C404.46 60.6055 404.181 60.9679 403.871 61.2612C403.566 61.5545 403.251 61.8008 402.925 62H402.161L402.202 60.7466L402.518 60.7383C402.7 60.5225 402.878 60.3011 403.049 60.0742C403.221 59.8418 403.378 59.5679 403.522 59.2524C403.666 58.9315 403.785 58.5413 403.879 58.082C403.979 57.6172 404.042 57.05 404.07 56.3804L404.211 53.0186ZM404.593 53.0186H409.997V62H408.461V54.438H404.593V53.0186ZM401.812 60.7383H411.151V64.6479H409.615V62H403.348V64.6479H401.804L401.812 60.7383ZM418.148 60.4644V55.8408C418.148 55.4867 418.076 55.1795 417.932 54.9194C417.794 54.6538 417.584 54.4491 417.302 54.3052C417.019 54.1613 416.671 54.0894 416.256 54.0894C415.868 54.0894 415.528 54.1558 415.235 54.2886C414.947 54.4214 414.72 54.5957 414.554 54.8115C414.393 55.0273 414.313 55.2598 414.313 55.5088H412.778C412.778 55.1878 412.861 54.8696 413.027 54.5542C413.193 54.2388 413.431 53.9538 413.74 53.6992C414.056 53.4391 414.432 53.2344 414.869 53.085C415.312 52.93 415.805 52.8525 416.347 52.8525C417 52.8525 417.575 52.9632 418.073 53.1846C418.577 53.4059 418.97 53.7407 419.252 54.189C419.54 54.6317 419.684 55.1878 419.684 55.8574V60.041C419.684 60.3398 419.709 60.658 419.759 60.9956C419.814 61.3332 419.894 61.6237 419.999 61.8672V62H418.397C418.32 61.8229 418.259 61.5877 418.215 61.2944C418.17 60.9956 418.148 60.7189 418.148 60.4644ZM418.414 56.5547L418.43 57.6338H416.878C416.441 57.6338 416.051 57.6698 415.708 57.7417C415.365 57.8081 415.077 57.9105 414.844 58.0488C414.612 58.1872 414.435 58.3615 414.313 58.5718C414.191 58.7765 414.131 59.0173 414.131 59.2939C414.131 59.5762 414.194 59.8335 414.322 60.0659C414.449 60.2983 414.64 60.4837 414.894 60.6221C415.154 60.7549 415.473 60.8213 415.849 60.8213C416.319 60.8213 416.734 60.7217 417.094 60.5225C417.454 60.3232 417.739 60.0798 417.949 59.792C418.165 59.5042 418.281 59.2248 418.298 58.9536L418.953 59.6924C418.915 59.9248 418.809 60.1821 418.638 60.4644C418.466 60.7466 418.237 61.0177 417.949 61.2778C417.667 61.5324 417.329 61.7454 416.936 61.917C416.549 62.083 416.112 62.166 415.625 62.166C415.016 62.166 414.482 62.047 414.023 61.8091C413.569 61.5711 413.215 61.2529 412.96 60.8545C412.711 60.4505 412.587 59.9995 412.587 59.5015C412.587 59.02 412.681 58.5967 412.869 58.2314C413.057 57.8607 413.328 57.5535 413.682 57.3101C414.037 57.061 414.463 56.8729 414.961 56.7456C415.459 56.6183 416.015 56.5547 416.629 56.5547H418.414ZM432.409 56.9116V58.1567H427.661V56.9116H432.409ZM427.985 53.0186V62H426.449V53.0186H427.985ZM433.654 53.0186V62H432.11V53.0186H433.654ZM441.424 60.4644V55.8408C441.424 55.4867 441.352 55.1795 441.208 54.9194C441.069 54.6538 440.859 54.4491 440.577 54.3052C440.295 54.1613 439.946 54.0894 439.531 54.0894C439.144 54.0894 438.803 54.1558 438.51 54.2886C438.222 54.4214 437.995 54.5957 437.829 54.8115C437.669 55.0273 437.589 55.2598 437.589 55.5088H436.053C436.053 55.1878 436.136 54.8696 436.302 54.5542C436.468 54.2388 436.706 53.9538 437.016 53.6992C437.331 53.4391 437.708 53.2344 438.145 53.085C438.587 52.93 439.08 52.8525 439.622 52.8525C440.275 52.8525 440.851 52.9632 441.349 53.1846C441.852 53.4059 442.245 53.7407 442.528 54.189C442.815 54.6317 442.959 55.1878 442.959 55.8574V60.041C442.959 60.3398 442.984 60.658 443.034 60.9956C443.089 61.3332 443.17 61.6237 443.275 61.8672V62H441.673C441.595 61.8229 441.534 61.5877 441.49 61.2944C441.446 60.9956 441.424 60.7189 441.424 60.4644ZM441.689 56.5547L441.706 57.6338H440.154C439.716 57.6338 439.326 57.6698 438.983 57.7417C438.64 57.8081 438.352 57.9105 438.12 58.0488C437.887 58.1872 437.71 58.3615 437.589 58.5718C437.467 58.7765 437.406 59.0173 437.406 59.2939C437.406 59.5762 437.47 59.8335 437.597 60.0659C437.724 60.2983 437.915 60.4837 438.17 60.6221C438.43 60.7549 438.748 60.8213 439.124 60.8213C439.595 60.8213 440.01 60.7217 440.369 60.5225C440.729 60.3232 441.014 60.0798 441.224 59.792C441.44 59.5042 441.556 59.2248 441.573 58.9536L442.229 59.6924C442.19 59.9248 442.085 60.1821 441.913 60.4644C441.742 60.7466 441.512 61.0177 441.224 61.2778C440.942 61.5324 440.605 61.7454 440.212 61.917C439.824 62.083 439.387 62.166 438.9 62.166C438.291 62.166 437.757 62.047 437.298 61.8091C436.844 61.5711 436.49 61.2529 436.236 60.8545C435.987 60.4505 435.862 59.9995 435.862 59.5015C435.862 59.02 435.956 58.5967 436.144 58.2314C436.332 57.8607 436.604 57.5535 436.958 57.3101C437.312 57.061 437.738 56.8729 438.236 56.7456C438.734 56.6183 439.29 56.5547 439.905 56.5547H441.689ZM455.576 53.0186V54.2886H451.036V53.0186H455.576ZM451.26 53.0186V62H449.724V53.0186H451.26ZM456.938 53.0186V62H455.394V53.0186H456.938ZM460.939 54.7451V65.4531H459.395V53.0186H460.806L460.939 54.7451ZM466.99 57.4346V57.6089C466.99 58.2619 466.913 58.8678 466.758 59.4268C466.603 59.9801 466.376 60.4616 466.077 60.8711C465.784 61.2806 465.421 61.5988 464.99 61.8257C464.558 62.0526 464.063 62.166 463.504 62.166C462.934 62.166 462.43 62.0719 461.993 61.8838C461.556 61.6956 461.185 61.4217 460.881 61.062C460.576 60.7023 460.333 60.2707 460.15 59.7671C459.973 59.2635 459.851 58.6963 459.785 58.0654V57.1357C459.851 56.4717 459.976 55.8768 460.158 55.3511C460.341 54.8254 460.582 54.3771 460.881 54.0063C461.185 53.63 461.553 53.3451 461.985 53.1514C462.416 52.9521 462.914 52.8525 463.479 52.8525C464.043 52.8525 464.544 52.9632 464.981 53.1846C465.418 53.4004 465.786 53.7103 466.085 54.1143C466.384 54.5182 466.608 55.0024 466.758 55.5669C466.913 56.1258 466.99 56.7484 466.99 57.4346ZM465.446 57.6089V57.4346C465.446 56.9863 465.399 56.5658 465.305 56.1729C465.211 55.7744 465.064 55.4258 464.865 55.127C464.671 54.8226 464.422 54.5846 464.118 54.4131C463.814 54.236 463.451 54.1475 463.031 54.1475C462.643 54.1475 462.306 54.2139 462.018 54.3467C461.736 54.4795 461.495 54.6593 461.296 54.8862C461.096 55.1076 460.933 55.3621 460.806 55.6499C460.684 55.9321 460.593 56.2254 460.532 56.5298V58.6797C460.643 59.0671 460.798 59.4323 460.997 59.7754C461.196 60.113 461.462 60.3869 461.794 60.5972C462.126 60.8019 462.544 60.9043 463.047 60.9043C463.462 60.9043 463.819 60.8185 464.118 60.647C464.422 60.4699 464.671 60.2292 464.865 59.9248C465.064 59.6204 465.211 59.2718 465.305 58.8789C465.399 58.4805 465.446 58.0571 465.446 57.6089ZM468.542 57.6089V57.418C468.542 56.7705 468.636 56.1701 468.824 55.6167C469.013 55.0578 469.284 54.5736 469.638 54.1641C469.992 53.749 470.421 53.4281 470.925 53.2012C471.428 52.9688 471.993 52.8525 472.618 52.8525C473.249 52.8525 473.816 52.9688 474.32 53.2012C474.829 53.4281 475.26 53.749 475.615 54.1641C475.974 54.5736 476.248 55.0578 476.436 55.6167C476.624 56.1701 476.719 56.7705 476.719 57.418V57.6089C476.719 58.2563 476.624 58.8568 476.436 59.4102C476.248 59.9635 475.974 60.4478 475.615 60.8628C475.26 61.2723 474.831 61.5933 474.328 61.8257C473.83 62.0526 473.265 62.166 472.635 62.166C472.004 62.166 471.436 62.0526 470.933 61.8257C470.429 61.5933 469.998 61.2723 469.638 60.8628C469.284 60.4478 469.013 59.9635 468.824 59.4102C468.636 58.8568 468.542 58.2563 468.542 57.6089ZM470.078 57.418V57.6089C470.078 58.0571 470.13 58.4805 470.236 58.8789C470.341 59.2718 470.498 59.6204 470.709 59.9248C470.925 60.2292 471.193 60.4699 471.514 60.647C471.835 60.8185 472.208 60.9043 472.635 60.9043C473.055 60.9043 473.423 60.8185 473.739 60.647C474.059 60.4699 474.325 60.2292 474.535 59.9248C474.746 59.6204 474.903 59.2718 475.009 58.8789C475.119 58.4805 475.175 58.0571 475.175 57.6089V57.418C475.175 56.9753 475.119 56.5575 475.009 56.1646C474.903 55.7661 474.743 55.4147 474.527 55.1104C474.317 54.8005 474.051 54.557 473.73 54.3799C473.415 54.2028 473.044 54.1143 472.618 54.1143C472.197 54.1143 471.827 54.2028 471.506 54.3799C471.19 54.557 470.925 54.8005 470.709 55.1104C470.498 55.4147 470.341 55.7661 470.236 56.1646C470.13 56.5575 470.078 56.9753 470.078 57.418ZM479.665 53.0186H481.201L481.068 56.3804C481.035 57.2326 480.938 57.9686 480.778 58.5884C480.617 59.2082 480.412 59.7367 480.163 60.1738C479.914 60.6055 479.635 60.9679 479.325 61.2612C479.021 61.5545 478.705 61.8008 478.379 62H477.615L477.656 60.7466L477.972 60.7383C478.155 60.5225 478.332 60.3011 478.503 60.0742C478.675 59.8418 478.832 59.5679 478.976 59.2524C479.12 58.9315 479.239 58.5413 479.333 58.082C479.433 57.6172 479.497 57.05 479.524 56.3804L479.665 53.0186ZM480.047 53.0186H485.451V62H483.915V54.438H480.047V53.0186ZM477.266 60.7383H486.605V64.6479H485.069V62H478.802V64.6479H477.258L477.266 60.7383ZM493.602 60.4644V55.8408C493.602 55.4867 493.53 55.1795 493.386 54.9194C493.248 54.6538 493.038 54.4491 492.756 54.3052C492.473 54.1613 492.125 54.0894 491.71 54.0894C491.322 54.0894 490.982 54.1558 490.689 54.2886C490.401 54.4214 490.174 54.5957 490.008 54.8115C489.848 55.0273 489.767 55.2598 489.767 55.5088H488.232C488.232 55.1878 488.315 54.8696 488.481 54.5542C488.647 54.2388 488.885 53.9538 489.195 53.6992C489.51 53.4391 489.886 53.2344 490.323 53.085C490.766 52.93 491.259 52.8525 491.801 52.8525C492.454 52.8525 493.03 52.9632 493.528 53.1846C494.031 53.4059 494.424 53.7407 494.706 54.189C494.994 54.6317 495.138 55.1878 495.138 55.8574V60.041C495.138 60.3398 495.163 60.658 495.213 60.9956C495.268 61.3332 495.348 61.6237 495.453 61.8672V62H493.851C493.774 61.8229 493.713 61.5877 493.669 61.2944C493.624 60.9956 493.602 60.7189 493.602 60.4644ZM493.868 56.5547L493.885 57.6338H492.332C491.895 57.6338 491.505 57.6698 491.162 57.7417C490.819 57.8081 490.531 57.9105 490.299 58.0488C490.066 58.1872 489.889 58.3615 489.767 58.5718C489.646 58.7765 489.585 59.0173 489.585 59.2939C489.585 59.5762 489.648 59.8335 489.776 60.0659C489.903 60.2983 490.094 60.4837 490.348 60.6221C490.608 60.7549 490.927 60.8213 491.303 60.8213C491.773 60.8213 492.188 60.7217 492.548 60.5225C492.908 60.3232 493.193 60.0798 493.403 59.792C493.619 59.5042 493.735 59.2248 493.752 58.9536L494.407 59.6924C494.369 59.9248 494.264 60.1821 494.092 60.4644C493.92 60.7466 493.691 61.0177 493.403 61.2778C493.121 61.5324 492.783 61.7454 492.39 61.917C492.003 62.083 491.566 62.166 491.079 62.166C490.47 62.166 489.936 62.047 489.477 61.8091C489.023 61.5711 488.669 61.2529 488.414 60.8545C488.165 60.4505 488.041 59.9995 488.041 59.5015C488.041 59.02 488.135 58.5967 488.323 58.2314C488.511 57.8607 488.782 57.5535 489.136 57.3101C489.491 57.061 489.917 56.8729 490.415 56.7456C490.913 56.6183 491.469 56.5547 492.083 56.5547H493.868ZM500.276 58.0903L496.873 53.0186H498.724L501.048 56.7373H502.841L502.617 58.0903H500.276ZM501.115 57.9326L498.508 62H496.566L500.143 56.8203L501.115 57.9326ZM503.63 53.0186V62H502.094V53.0186H503.63ZM508.867 53.0186L505.464 58.0903H503.123L502.883 56.7373H504.684L507.008 53.0186H508.867ZM507.224 62L504.609 57.9326L505.597 56.8203L509.166 62H507.224ZM512.246 59.5679L516.388 53.0186H517.932V62H516.388V55.4507L512.246 62H510.719V53.0186H512.246V59.5679ZM242.387 78.0488H239.441L239.424 76.8203H241.831C242.307 76.8203 242.703 76.7733 243.018 76.6792C243.339 76.5851 243.58 76.444 243.74 76.2559C243.901 76.0677 243.981 75.8353 243.981 75.5586C243.981 75.3428 243.934 75.1546 243.84 74.9941C243.752 74.8281 243.616 74.6925 243.433 74.5874C243.251 74.4767 243.024 74.3965 242.753 74.3467C242.487 74.2913 242.174 74.2637 241.815 74.2637H239.847V82H238.312V73.0186H241.815C242.385 73.0186 242.897 73.0684 243.35 73.168C243.81 73.2676 244.2 73.4198 244.521 73.6245C244.847 73.8237 245.096 74.0783 245.268 74.3882C245.439 74.6981 245.525 75.0633 245.525 75.4839C245.525 75.755 245.47 76.0124 245.359 76.2559C245.248 76.4993 245.085 76.7152 244.869 76.9033C244.654 77.0915 244.388 77.2464 244.073 77.3682C243.757 77.4844 243.395 77.5591 242.985 77.5923L242.387 78.0488ZM242.387 82H238.885L239.648 80.7549H242.387C242.814 80.7549 243.168 80.7023 243.45 80.5972C243.732 80.4865 243.942 80.3315 244.081 80.1323C244.225 79.9276 244.297 79.6841 244.297 79.4019C244.297 79.1196 244.225 78.8789 244.081 78.6797C243.942 78.4749 243.732 78.32 243.45 78.2148C243.168 78.1042 242.814 78.0488 242.387 78.0488H240.055L240.072 76.8203H242.985L243.541 77.2852C244.034 77.3239 244.452 77.4456 244.795 77.6504C245.138 77.8551 245.398 78.1152 245.575 78.4307C245.752 78.7406 245.841 79.0781 245.841 79.4434C245.841 79.8639 245.76 80.2347 245.6 80.5557C245.445 80.8766 245.218 81.145 244.919 81.3608C244.62 81.5711 244.258 81.7316 243.832 81.8423C243.406 81.9474 242.924 82 242.387 82ZM253.652 74.7451V85.4531H252.108V73.0186H253.519L253.652 74.7451ZM259.703 77.4346V77.6089C259.703 78.2619 259.625 78.8678 259.47 79.4268C259.316 79.9801 259.089 80.4616 258.79 80.8711C258.497 81.2806 258.134 81.5988 257.702 81.8257C257.271 82.0526 256.775 82.166 256.217 82.166C255.647 82.166 255.143 82.0719 254.706 81.8838C254.269 81.6956 253.898 81.4217 253.594 81.062C253.289 80.7023 253.046 80.2707 252.863 79.7671C252.686 79.2635 252.564 78.6963 252.498 78.0654V77.1357C252.564 76.4717 252.689 75.8768 252.871 75.3511C253.054 74.8254 253.295 74.3771 253.594 74.0063C253.898 73.63 254.266 73.3451 254.698 73.1514C255.129 72.9521 255.627 72.8525 256.192 72.8525C256.756 72.8525 257.257 72.9632 257.694 73.1846C258.131 73.4004 258.499 73.7103 258.798 74.1143C259.097 74.5182 259.321 75.0024 259.47 75.5669C259.625 76.1258 259.703 76.7484 259.703 77.4346ZM258.159 77.6089V77.4346C258.159 76.9863 258.112 76.5658 258.018 76.1729C257.924 75.7744 257.777 75.4258 257.578 75.127C257.384 74.8226 257.135 74.5846 256.831 74.4131C256.526 74.236 256.164 74.1475 255.743 74.1475C255.356 74.1475 255.018 74.2139 254.731 74.3467C254.448 74.4795 254.208 74.6593 254.009 74.8862C253.809 75.1076 253.646 75.3621 253.519 75.6499C253.397 75.9321 253.306 76.2254 253.245 76.5298V78.6797C253.356 79.0671 253.51 79.4323 253.71 79.7754C253.909 80.113 254.175 80.3869 254.507 80.5972C254.839 80.8019 255.256 80.9043 255.76 80.9043C256.175 80.9043 256.532 80.8185 256.831 80.647C257.135 80.4699 257.384 80.2292 257.578 79.9248C257.777 79.6204 257.924 79.2718 258.018 78.8789C258.112 78.4805 258.159 78.0571 258.159 77.6089ZM263.322 79.5679L267.464 73.0186H269.008V82H267.464V75.4507L263.322 82H261.795V73.0186H263.322V79.5679ZM275.134 73.0186V82H273.59V73.0186H275.134ZM278.147 73.0186V74.2637H270.635V73.0186H278.147ZM282.721 82.166C282.096 82.166 281.528 82.0609 281.019 81.8506C280.516 81.6348 280.081 81.3332 279.716 80.9458C279.356 80.5584 279.08 80.0991 278.886 79.5679C278.692 79.0366 278.595 78.4556 278.595 77.8247V77.4761C278.595 76.7456 278.703 76.0954 278.919 75.5254C279.135 74.9499 279.428 74.4629 279.799 74.0645C280.17 73.666 280.59 73.3644 281.061 73.1597C281.531 72.9549 282.018 72.8525 282.522 72.8525C283.164 72.8525 283.717 72.9632 284.182 73.1846C284.652 73.4059 285.037 73.7158 285.336 74.1143C285.635 74.5072 285.856 74.972 286 75.5088C286.144 76.04 286.216 76.6211 286.216 77.252V77.9409H279.509V76.6875H284.68V76.5713C284.658 76.1729 284.575 75.7855 284.431 75.4092C284.293 75.0329 284.071 74.723 283.767 74.4795C283.462 74.236 283.047 74.1143 282.522 74.1143C282.173 74.1143 281.852 74.189 281.559 74.3384C281.266 74.4823 281.014 74.6981 280.803 74.9858C280.593 75.2736 280.43 75.625 280.314 76.04C280.198 76.4551 280.139 76.9338 280.139 77.4761V77.8247C280.139 78.2508 280.198 78.652 280.314 79.0283C280.435 79.3991 280.61 79.7256 280.837 80.0078C281.069 80.29 281.349 80.5114 281.675 80.6719C282.007 80.8324 282.383 80.9126 282.804 80.9126C283.346 80.9126 283.806 80.8019 284.182 80.5806C284.558 80.3592 284.887 80.0632 285.17 79.6924L286.099 80.4312C285.906 80.7244 285.659 81.0039 285.361 81.2695C285.062 81.5352 284.694 81.751 284.257 81.917C283.825 82.083 283.313 82.166 282.721 82.166ZM289.669 79.5679L293.811 73.0186H295.355V82H293.811V75.4507L289.669 82H288.141V73.0186H289.669V79.5679ZM292.972 69.7646H294.218C294.218 70.1963 294.118 70.5809 293.919 70.9185C293.719 71.2505 293.434 71.5106 293.064 71.6987C292.693 71.8869 292.253 71.981 291.744 71.981C290.975 71.981 290.366 71.7762 289.918 71.3667C289.475 70.9517 289.254 70.4176 289.254 69.7646H290.499C290.499 70.0911 290.593 70.3789 290.781 70.6279C290.969 70.877 291.29 71.0015 291.744 71.0015C292.187 71.0015 292.502 70.877 292.69 70.6279C292.878 70.3789 292.972 70.0911 292.972 69.7646ZM303.822 73.0186V74.2886H299.48V73.0186H303.822ZM305.175 73.0186V82H303.639V73.0186H305.175ZM299.107 73.0186H300.651L300.418 77.3516C300.379 78.0212 300.316 78.6133 300.227 79.1279C300.144 79.637 300.028 80.0742 299.879 80.4395C299.735 80.8047 299.552 81.1035 299.331 81.3359C299.115 81.5628 298.855 81.7316 298.551 81.8423C298.246 81.9474 297.895 82 297.496 82H297.015V80.647L297.347 80.6221C297.585 80.6055 297.787 80.5501 297.953 80.4561C298.124 80.362 298.268 80.2236 298.385 80.041C298.501 79.8529 298.595 79.6121 298.667 79.3188C298.744 79.0256 298.802 78.6769 298.841 78.2729C298.885 77.869 298.919 77.3986 298.941 76.8618L299.107 73.0186Z" fill="black"/>
<defs>
<filter id="filter0_d_802_826" x="0.0517578" y="12.0862" width="106.191" height="106.163" filterUnits="userSpaceOnUse" color-interpolation-filters="sRGB">
<feFlood flood-opacity="0" result="BackgroundImageFix"/>
<feColorMatrix in="SourceAlpha" type="matrix" values="0 0 0 0 0 0 0 0 0 0 0 0 0 0 0 0 0 0 127 0" result="hardAlpha"/>
<feOffset/>
<feGaussianBlur stdDeviation="12"/>
<feComposite in2="hardAlpha" operator="out"/>
<feColorMatrix type="matrix" values="0 0 0 0 0.579167 0 0 0 0 0.579167 0 0 0 0 0.579167 0 0 0 0.3 0"/>
<feBlend mode="normal" in2="BackgroundImageFix" result="effect1_dropShadow_802_826"/>
<feBlend mode="normal" in="SourceGraphic" in2="effect1_dropShadow_802_826" result="shape"/>
</filter>
</defs>
</svg>
