<svg width="652" height="116" viewBox="0 0 652 116" fill="none" xmlns="http://www.w3.org/2000/svg">
<path d="M476 60.8743L594 60.8743" stroke="#00A3FF" stroke-miterlimit="10" stroke-linecap="round"/>
<g filter="url(#filter0_d_822_2154)">
<path d="M618.721 81.6058C630.083 70.2487 630.083 51.8352 618.721 40.4781C607.358 29.1211 588.936 29.1211 577.574 40.4782C566.211 51.8353 566.211 70.2487 577.574 81.6058C588.936 92.9629 607.358 92.9629 618.721 81.6058Z" fill="white"/>
</g>
<path d="M607.241 61.0389C607.246 62.7616 606.741 64.4472 605.789 65.8833C604.837 67.3193 603.481 68.4414 601.892 69.1081C600.302 69.7747 598.551 69.956 596.859 69.6291C595.167 69.3023 593.61 68.4818 592.383 67.2713C591.157 66.0608 590.317 64.5145 589.969 62.8273C589.621 61.1402 589.78 59.3878 590.427 57.7911C591.075 56.1945 592.18 54.8252 593.605 53.8558C595.03 52.8865 596.71 52.3606 598.433 52.3444C599.585 52.33 600.727 52.5442 601.795 52.9747C602.863 53.4052 603.835 54.0433 604.655 54.8521C605.474 55.6609 606.124 56.6243 606.568 57.6863C607.012 58.7484 607.241 59.8879 607.241 61.0389V61.0389Z" fill="#00A3FF"/>
<path d="M598.542 64.4457C600.425 64.4457 601.951 62.9204 601.951 61.0388C601.951 59.1572 600.425 57.6318 598.542 57.6318C596.66 57.6318 595.134 59.1572 595.134 61.0388C595.134 62.9204 596.66 64.4457 598.542 64.4457Z" fill="white"/>
<path d="M478.452 61.0387C478.457 62.7649 477.95 64.4538 476.994 65.8917C476.039 67.3296 474.678 68.4517 473.084 69.116C471.49 69.7803 469.735 69.9569 468.04 69.6235C466.346 69.29 464.789 68.4615 463.565 67.2429C462.342 66.0242 461.509 64.4702 461.17 62.7776C460.831 61.085 461.002 59.3299 461.662 57.7347C462.321 56.1394 463.44 54.7756 464.875 53.816C466.311 52.8565 467.999 52.3442 469.726 52.3442C472.035 52.3442 474.251 53.2594 475.886 54.8891C477.522 56.5189 478.445 58.7303 478.452 61.0387V61.0387Z" fill="#00A3FF"/>
<path d="M469.753 64.4457C471.636 64.4457 473.162 62.9204 473.162 61.0388C473.162 59.1572 471.636 57.6318 469.753 57.6318C467.871 57.6318 466.345 59.1572 466.345 61.0388C466.345 62.9204 467.871 64.4457 469.753 64.4457Z" fill="white"/>
<path d="M115.819 57.9096C115.819 25.927 89.8924 0.0122581 57.9097 0.0274026C25.9271 0.0425471 -3.92932e-06 25.9818 -2.53132e-06 57.9645C-1.13331e-06 89.9471 25.9271 115.862 57.9097 115.847C89.8924 115.832 115.819 89.8923 115.819 57.9096Z" fill="#00A3FF"/>
<path d="M56.1035 38.8625H63.6035V80.8743H54.6094V50.2883H47.4023V44.5754C48.6914 44.4192 49.873 44.1165 50.9473 43.6672C52.0215 43.1985 52.8516 42.7004 53.4375 42.1731C54.043 41.6458 54.5508 41.1379 54.9609 40.6497C55.3906 40.1418 55.6934 39.7122 55.8691 39.3606L56.1035 38.8625Z" fill="white"/>
<path d="M143.606 42.3655H141.748V41.0442H143.531C144.319 41.0442 144.956 40.9332 145.443 40.7112C145.93 40.4892 146.285 40.1812 146.507 39.7874C146.729 39.3935 146.84 38.9387 146.84 38.4231C146.84 37.929 146.718 37.4778 146.475 37.0696C146.231 36.6542 145.855 36.3248 145.347 36.0813C144.838 35.8306 144.183 35.7053 143.381 35.7053C142.779 35.7053 142.235 35.8199 141.748 36.0491C141.261 36.2711 140.874 36.5826 140.588 36.9836C140.301 37.3775 140.158 37.8323 140.158 38.3479H138.085C138.085 37.6819 138.225 37.0839 138.504 36.554C138.783 36.0168 139.166 35.5621 139.653 35.1897C140.14 34.8101 140.702 34.5201 141.34 34.3196C141.984 34.1191 142.665 34.0188 143.381 34.0188C144.219 34.0188 144.978 34.1155 145.658 34.3088C146.339 34.495 146.922 34.7743 147.409 35.1467C147.896 35.5191 148.269 35.981 148.526 36.5325C148.784 37.0839 148.913 37.7249 148.913 38.4553C148.913 38.9924 148.788 39.4973 148.537 39.97C148.286 40.4426 147.928 40.858 147.463 41.2161C146.997 41.5741 146.439 41.857 145.787 42.0647C145.135 42.2652 144.409 42.3655 143.606 42.3655ZM141.748 41.4524H143.606C144.487 41.4524 145.271 41.5419 145.959 41.7209C146.646 41.9 147.227 42.1614 147.699 42.5051C148.172 42.8489 148.53 43.275 148.773 43.7834C149.024 44.2847 149.149 44.8612 149.149 45.5129C149.149 46.2434 149.006 46.8915 148.72 47.4573C148.44 48.023 148.043 48.5028 147.527 48.8967C147.012 49.2906 146.399 49.5878 145.69 49.7883C144.989 49.9889 144.219 50.0891 143.381 50.0891C142.708 50.0891 142.042 50.0032 141.383 49.8313C140.731 49.6523 140.14 49.3801 139.61 49.0149C139.08 48.6425 138.654 48.1698 138.332 47.5969C138.017 47.024 137.859 46.3365 137.859 45.5344H139.933C139.933 46.0572 140.076 46.537 140.362 46.9739C140.656 47.4107 141.061 47.7616 141.576 48.0266C142.092 48.2844 142.693 48.4133 143.381 48.4133C144.169 48.4133 144.835 48.2916 145.379 48.0481C145.93 47.7974 146.349 47.4573 146.636 47.0276C146.929 46.5907 147.076 46.1002 147.076 45.5559C147.076 45.0761 146.997 44.6607 146.84 44.3098C146.689 43.9517 146.464 43.6581 146.163 43.429C145.869 43.1998 145.501 43.0315 145.057 42.9241C144.62 42.8095 144.111 42.7522 143.531 42.7522H141.748V41.4524ZM159.462 43.2893V44.9006H153.317V43.2893H159.462ZM153.736 38.2512V49.8743H151.749V38.2512H153.736ZM161.073 38.2512V49.8743H159.075V38.2512H161.073ZM171.128 47.887V41.9036C171.128 41.4452 171.035 41.0478 170.849 40.7112C170.67 40.3674 170.397 40.1025 170.032 39.9163C169.667 39.7301 169.216 39.637 168.679 39.637C168.177 39.637 167.737 39.7229 167.357 39.8948C166.985 40.0667 166.691 40.2922 166.477 40.5715C166.269 40.8508 166.165 41.1516 166.165 41.4739H164.178C164.178 41.0585 164.285 40.6467 164.5 40.2385C164.715 39.8303 165.023 39.4615 165.424 39.1321C165.832 38.7955 166.319 38.5305 166.885 38.3372C167.458 38.1366 168.095 38.0364 168.797 38.0364C169.642 38.0364 170.387 38.1796 171.031 38.4661C171.683 38.7525 172.191 39.1858 172.557 39.7659C172.929 40.3388 173.115 41.0585 173.115 41.925V47.3391C173.115 47.7258 173.147 48.1376 173.212 48.5745C173.284 49.0113 173.387 49.3873 173.523 49.7024V49.8743H171.45C171.35 49.6451 171.271 49.3407 171.214 48.9612C171.157 48.5745 171.128 48.2164 171.128 47.887ZM171.472 42.8274L171.493 44.2239H169.484C168.919 44.2239 168.414 44.2704 167.97 44.3635C167.526 44.4495 167.153 44.5819 166.853 44.761C166.552 44.94 166.323 45.1656 166.165 45.4377C166.007 45.7027 165.929 46.0142 165.929 46.3723C165.929 46.7375 166.011 47.0706 166.176 47.3713C166.34 47.6721 166.588 47.912 166.917 48.0911C167.254 48.2629 167.665 48.3489 168.152 48.3489C168.761 48.3489 169.298 48.22 169.764 47.9622C170.229 47.7043 170.598 47.3892 170.87 47.0168C171.149 46.6444 171.3 46.2828 171.321 45.9319L172.17 46.8879C172.12 47.1887 171.984 47.5217 171.762 47.887C171.54 48.2522 171.243 48.6031 170.87 48.9397C170.505 49.2691 170.068 49.5448 169.56 49.7668C169.058 49.9817 168.493 50.0891 167.862 50.0891C167.075 50.0891 166.383 49.9351 165.789 49.6272C165.202 49.3193 164.743 48.9075 164.414 48.3918C164.092 47.8691 163.931 47.2854 163.931 46.6409C163.931 46.0178 164.052 45.47 164.296 44.9973C164.539 44.5175 164.89 44.12 165.349 43.8049C165.807 43.4827 166.358 43.2392 167.003 43.0745C167.647 42.9097 168.367 42.8274 169.162 42.8274H171.472ZM178.4 38.2512V49.8743H176.413V38.2512H178.4ZM186.027 38.2512L180.517 44.9114H177.734L177.434 43.1711H179.711L183.61 38.2512H186.027ZM183.89 49.8743L179.614 44.6106L180.893 43.1711L186.414 49.8743H183.89ZM187.381 44.1917V43.9446C187.381 43.1067 187.503 42.3297 187.746 41.6135C187.99 40.8902 188.34 40.2636 188.799 39.7336C189.257 39.1965 189.812 38.7812 190.464 38.4875C191.116 38.1868 191.846 38.0364 192.655 38.0364C193.472 38.0364 194.206 38.1868 194.857 38.4875C195.516 38.7812 196.075 39.1965 196.533 39.7336C196.999 40.2636 197.353 40.8902 197.597 41.6135C197.84 42.3297 197.962 43.1067 197.962 43.9446V44.1917C197.962 45.0295 197.84 45.8066 197.597 46.5227C197.353 47.2389 196.999 47.8655 196.533 48.4026C196.075 48.9325 195.52 49.3479 194.868 49.6487C194.224 49.9423 193.493 50.0891 192.677 50.0891C191.86 50.0891 191.126 49.9423 190.475 49.6487C189.823 49.3479 189.264 48.9325 188.799 48.4026C188.34 47.8655 187.99 47.2389 187.746 46.5227C187.503 45.8066 187.381 45.0295 187.381 44.1917ZM189.368 43.9446V44.1917C189.368 44.7717 189.436 45.3196 189.572 45.8352C189.708 46.3437 189.912 46.7948 190.185 47.1887C190.464 47.5826 190.811 47.8941 191.227 48.1233C191.642 48.3453 192.125 48.4563 192.677 48.4563C193.221 48.4563 193.697 48.3453 194.105 48.1233C194.521 47.8941 194.865 47.5826 195.137 47.1887C195.409 46.7948 195.613 46.3437 195.749 45.8352C195.892 45.3196 195.964 44.7717 195.964 44.1917V43.9446C195.964 43.3717 195.892 42.831 195.749 42.3225C195.613 41.8069 195.405 41.3521 195.126 40.9583C194.854 40.5572 194.51 40.2421 194.095 40.0129C193.687 39.7838 193.207 39.6692 192.655 39.6692C192.111 39.6692 191.631 39.7838 191.216 40.0129C190.808 40.2421 190.464 40.5572 190.185 40.9583C189.912 41.3521 189.708 41.8069 189.572 42.3225C189.436 42.831 189.368 43.3717 189.368 43.9446ZM207.136 47.2317L211.089 38.2512H213.001L207.823 49.8743H206.448L201.292 38.2512H203.204L207.136 47.2317ZM202.624 38.2512V49.8743H200.637V38.2512H202.624ZM211.583 49.8743V38.2512H213.581V49.8743H211.583ZM221.434 48.4563C221.906 48.4563 222.343 48.3596 222.744 48.1663C223.145 47.9729 223.475 47.7079 223.732 47.3713C223.99 47.0276 224.137 46.6373 224.173 46.2004H226.063C226.028 46.8879 225.795 47.5289 225.365 48.1233C224.943 48.7105 224.388 49.1868 223.7 49.552C223.013 49.9101 222.257 50.0891 221.434 50.0891C220.56 50.0891 219.797 49.9351 219.146 49.6272C218.501 49.3193 217.964 48.8967 217.534 48.3596C217.112 47.8225 216.793 47.2066 216.578 46.512C216.37 45.8101 216.267 45.0689 216.267 44.2883V43.8372C216.267 43.0566 216.37 42.3189 216.578 41.6243C216.793 40.9224 217.112 40.303 217.534 39.7659C217.964 39.2288 218.501 38.8062 219.146 38.4983C219.797 38.1903 220.56 38.0364 221.434 38.0364C222.343 38.0364 223.138 38.2226 223.818 38.595C224.499 38.9602 225.032 39.4615 225.419 40.0989C225.813 40.7291 226.028 41.4452 226.063 42.2473H224.173C224.137 41.7675 224.001 41.3342 223.765 40.9475C223.535 40.5608 223.22 40.2528 222.819 40.0237C222.425 39.7874 221.964 39.6692 221.434 39.6692C220.825 39.6692 220.313 39.7909 219.897 40.0344C219.489 40.2708 219.163 40.593 218.92 41.0012C218.684 41.4023 218.512 41.8499 218.404 42.344C218.304 42.831 218.254 43.3287 218.254 43.8372V44.2883C218.254 44.7968 218.304 45.2981 218.404 45.7922C218.505 46.2864 218.673 46.734 218.909 47.135C219.153 47.5361 219.479 47.8583 219.887 48.1018C220.302 48.3381 220.818 48.4563 221.434 48.4563ZM233.035 38.2512V49.8743H231.037V38.2512H233.035ZM236.935 38.2512V39.8625H227.213V38.2512H236.935ZM244.347 44.761H240.533L240.512 43.1711H243.627C244.243 43.1711 244.755 43.1103 245.163 42.9885C245.578 42.8668 245.89 42.6842 246.098 42.4407C246.305 42.1972 246.409 41.8964 246.409 41.5383C246.409 41.259 246.348 41.0155 246.227 40.8079C246.112 40.593 245.937 40.4176 245.7 40.2815C245.464 40.1383 245.17 40.0344 244.819 39.97C244.476 39.8984 244.071 39.8625 243.605 39.8625H241.06V49.8743H239.072V38.2512H243.605C244.343 38.2512 245.006 38.3157 245.593 38.4446C246.187 38.5735 246.692 38.7704 247.107 39.0354C247.53 39.2932 247.852 39.6226 248.074 40.0237C248.296 40.4247 248.407 40.8974 248.407 41.4417C248.407 41.7926 248.336 42.1256 248.192 42.4407C248.049 42.7558 247.838 43.0351 247.559 43.2786C247.279 43.5221 246.936 43.7226 246.527 43.8801C246.119 44.0305 245.65 44.1272 245.12 44.1702L244.347 44.761ZM244.347 49.8743H239.813L240.802 48.2629H244.347C244.898 48.2629 245.356 48.1949 245.722 48.0588C246.087 47.9156 246.359 47.7151 246.538 47.4573C246.724 47.1923 246.817 46.8772 246.817 46.512C246.817 46.1467 246.724 45.8352 246.538 45.5774C246.359 45.3124 246.087 45.1119 245.722 44.9758C245.356 44.8326 244.898 44.761 244.347 44.761H241.328L241.35 43.1711H245.12L245.84 43.7727C246.477 43.8228 247.018 43.9804 247.462 44.2454C247.906 44.5103 248.243 44.8469 248.472 45.2551C248.701 45.6562 248.815 46.093 248.815 46.5657C248.815 47.1099 248.712 47.5898 248.504 48.0051C248.303 48.4205 248.01 48.7678 247.623 49.0471C247.236 49.3193 246.767 49.5269 246.216 49.6702C245.664 49.8062 245.041 49.8743 244.347 49.8743ZM250.953 44.1917V43.9446C250.953 43.1067 251.075 42.3297 251.318 41.6135C251.562 40.8902 251.913 40.2636 252.371 39.7336C252.829 39.1965 253.384 38.7812 254.036 38.4875C254.688 38.1868 255.418 38.0364 256.228 38.0364C257.044 38.0364 257.778 38.1868 258.43 38.4875C259.089 38.7812 259.647 39.1965 260.105 39.7336C260.571 40.2636 260.925 40.8902 261.169 41.6135C261.412 42.3297 261.534 43.1067 261.534 43.9446V44.1917C261.534 45.0295 261.412 45.8066 261.169 46.5227C260.925 47.2389 260.571 47.8655 260.105 48.4026C259.647 48.9325 259.092 49.3479 258.44 49.6487C257.796 49.9423 257.065 50.0891 256.249 50.0891C255.433 50.0891 254.699 49.9423 254.047 49.6487C253.395 49.3479 252.837 48.9325 252.371 48.4026C251.913 47.8655 251.562 47.2389 251.318 46.5227C251.075 45.8066 250.953 45.0295 250.953 44.1917ZM252.94 43.9446V44.1917C252.94 44.7717 253.008 45.3196 253.145 45.8352C253.281 46.3437 253.485 46.7948 253.757 47.1887C254.036 47.5826 254.383 47.8941 254.799 48.1233C255.214 48.3453 255.698 48.4563 256.249 48.4563C256.793 48.4563 257.27 48.3453 257.678 48.1233C258.093 47.8941 258.437 47.5826 258.709 47.1887C258.981 46.7948 259.185 46.3437 259.321 45.8352C259.465 45.3196 259.536 44.7717 259.536 44.1917V43.9446C259.536 43.3717 259.465 42.831 259.321 42.3225C259.185 41.8069 258.978 41.3521 258.698 40.9583C258.426 40.5572 258.082 40.2421 257.667 40.0129C257.259 39.7838 256.779 39.6692 256.228 39.6692C255.683 39.6692 255.203 39.7838 254.788 40.0129C254.38 40.2421 254.036 40.5572 253.757 40.9583C253.485 41.3521 253.281 41.8069 253.145 42.3225C253.008 42.831 252.94 43.3717 252.94 43.9446ZM264.059 48.8215C264.059 48.4849 264.162 48.2021 264.37 47.9729C264.585 47.7366 264.893 47.6184 265.294 47.6184C265.695 47.6184 265.999 47.7366 266.207 47.9729C266.422 48.2021 266.529 48.4849 266.529 48.8215C266.529 49.151 266.422 49.4303 266.207 49.6594C265.999 49.8886 265.695 50.0032 265.294 50.0032C264.893 50.0032 264.585 49.8886 264.37 49.6594C264.162 49.4303 264.059 49.151 264.059 48.8215ZM287.53 34.2336V49.8743H285.468V35.9309H277.755V49.8743H275.682V34.2336H287.53ZM290.463 44.1917V43.9446C290.463 43.1067 290.585 42.3297 290.828 41.6135C291.072 40.8902 291.423 40.2636 291.881 39.7336C292.339 39.1965 292.894 38.7812 293.546 38.4875C294.198 38.1868 294.928 38.0364 295.737 38.0364C296.554 38.0364 297.288 38.1868 297.939 38.4875C298.598 38.7812 299.157 39.1965 299.615 39.7336C300.081 40.2636 300.435 40.8902 300.679 41.6135C300.922 42.3297 301.044 43.1067 301.044 43.9446V44.1917C301.044 45.0295 300.922 45.8066 300.679 46.5227C300.435 47.2389 300.081 47.8655 299.615 48.4026C299.157 48.9325 298.602 49.3479 297.95 49.6487C297.306 49.9423 296.575 50.0891 295.759 50.0891C294.942 50.0891 294.208 49.9423 293.557 49.6487C292.905 49.3479 292.346 48.9325 291.881 48.4026C291.423 47.8655 291.072 47.2389 290.828 46.5227C290.585 45.8066 290.463 45.0295 290.463 44.1917ZM292.45 43.9446V44.1917C292.45 44.7717 292.518 45.3196 292.654 45.8352C292.79 46.3437 292.994 46.7948 293.267 47.1887C293.546 47.5826 293.893 47.8941 294.309 48.1233C294.724 48.3453 295.207 48.4563 295.759 48.4563C296.303 48.4563 296.779 48.3453 297.188 48.1233C297.603 47.8941 297.947 47.5826 298.219 47.1887C298.491 46.7948 298.695 46.3437 298.831 45.8352C298.974 45.3196 299.046 44.7717 299.046 44.1917V43.9446C299.046 43.3717 298.974 42.831 298.831 42.3225C298.695 41.8069 298.487 41.3521 298.208 40.9583C297.936 40.5572 297.592 40.2421 297.177 40.0129C296.769 39.7838 296.289 39.6692 295.737 39.6692C295.193 39.6692 294.713 39.7838 294.298 40.0129C293.89 40.2421 293.546 40.5572 293.267 40.9583C292.994 41.3521 292.79 41.8069 292.654 42.3225C292.518 42.831 292.45 43.3717 292.45 43.9446ZM311.131 38.2512V39.8948H305.513V38.2512H311.131ZM312.882 38.2512V49.8743H310.895V38.2512H312.882ZM305.029 38.2512H307.027L306.727 43.8586C306.676 44.7252 306.594 45.4915 306.479 46.1575C306.372 46.8163 306.222 47.3821 306.028 47.8547C305.842 48.3274 305.606 48.7141 305.319 49.0149C305.04 49.3085 304.703 49.5269 304.31 49.6702C303.916 49.8062 303.461 49.8743 302.945 49.8743H302.322V48.1233L302.752 48.0911C303.06 48.0696 303.321 47.998 303.536 47.8762C303.758 47.7545 303.944 47.5754 304.095 47.3391C304.245 47.0956 304.367 46.7841 304.46 46.4045C304.56 46.025 304.635 45.5738 304.686 45.051C304.743 44.5282 304.786 43.9195 304.814 43.2249L305.029 38.2512ZM319.349 48.6711L322.582 38.2512H324.709L320.047 51.6682C319.939 51.9547 319.796 52.2626 319.617 52.592C319.445 52.9286 319.223 53.2473 318.951 53.5481C318.679 53.8489 318.35 54.0924 317.963 54.2786C317.583 54.4719 317.129 54.5686 316.599 54.5686C316.441 54.5686 316.241 54.5471 315.997 54.5042C315.754 54.4612 315.582 54.4254 315.481 54.3967L315.471 52.7854C315.528 52.7926 315.618 52.7997 315.739 52.8069C315.868 52.8212 315.958 52.8284 316.008 52.8284C316.459 52.8284 316.842 52.7675 317.157 52.6458C317.472 52.5312 317.737 52.3342 317.952 52.0549C318.174 51.7828 318.364 51.4068 318.521 50.927L319.349 48.6711ZM316.975 38.2512L319.993 47.2747L320.509 49.3694L319.08 50.0999L314.805 38.2512H316.975ZM335.269 38.2512V49.8743H333.281V38.2512H335.269ZM334.592 43.5901V45.2229C334.191 45.3733 333.783 45.5094 333.367 45.6311C332.959 45.7457 332.526 45.8388 332.067 45.9104C331.616 45.9749 331.126 46.0071 330.596 46.0071C329.679 46.0071 328.884 45.8495 328.211 45.5344C327.538 45.2122 327.019 44.7288 326.653 44.0842C326.288 43.4325 326.105 42.6125 326.105 41.6243V38.2297H328.093V41.6243C328.093 42.2688 328.189 42.7916 328.383 43.1926C328.576 43.5937 328.859 43.8909 329.231 44.0842C329.604 44.2704 330.059 44.3635 330.596 44.3635C331.111 44.3635 331.595 44.3313 332.046 44.2668C332.504 44.1952 332.941 44.1021 333.356 43.9875C333.779 43.873 334.191 43.7405 334.592 43.5901ZM343.293 50.0891C342.484 50.0891 341.75 49.953 341.091 49.6809C340.439 49.4016 339.877 49.0113 339.404 48.51C338.939 48.0087 338.581 47.4143 338.33 46.7268C338.079 46.0393 337.954 45.2874 337.954 44.4709V44.0198C337.954 43.0745 338.094 42.233 338.373 41.4954C338.652 40.7506 339.032 40.1204 339.512 39.6047C339.992 39.0891 340.536 38.6988 341.145 38.4338C341.753 38.1689 342.383 38.0364 343.035 38.0364C343.866 38.0364 344.582 38.1796 345.184 38.4661C345.792 38.7525 346.29 39.1536 346.677 39.6692C347.063 40.1777 347.35 40.7792 347.536 41.4739C347.722 42.1614 347.815 42.9133 347.815 43.7297V44.6213H339.136V42.9993H345.828V42.8489C345.799 42.3333 345.692 41.8319 345.506 41.345C345.327 40.858 345.04 40.4569 344.646 40.1418C344.253 39.8267 343.715 39.6692 343.035 39.6692C342.584 39.6692 342.169 39.7659 341.789 39.9592C341.41 40.1454 341.084 40.4247 340.812 40.7971C340.539 41.1695 340.328 41.6243 340.178 42.1614C340.027 42.6985 339.952 43.318 339.952 44.0198V44.4709C339.952 45.0224 340.027 45.5416 340.178 46.0286C340.335 46.5084 340.561 46.9309 340.854 47.2961C341.155 47.6614 341.517 47.9478 341.939 48.1555C342.369 48.3632 342.856 48.467 343.4 48.467C344.102 48.467 344.697 48.3238 345.184 48.0374C345.671 47.7509 346.097 47.3678 346.462 46.8879L347.665 47.844C347.414 48.2236 347.096 48.5852 346.709 48.929C346.322 49.2727 345.846 49.552 345.28 49.7668C344.722 49.9817 344.059 50.0891 343.293 50.0891ZM358.021 43.2893V44.9006H351.876V43.2893H358.021ZM352.295 38.2512V49.8743H350.308V38.2512H352.295ZM359.632 38.2512V49.8743H357.634V38.2512H359.632ZM364.981 46.7268L370.342 38.2512H372.34V49.8743H370.342V41.3987L364.981 49.8743H363.005V38.2512H364.981V46.7268ZM380.354 50.0891C379.544 50.0891 378.81 49.953 378.151 49.6809C377.5 49.4016 376.938 49.0113 376.465 48.51C375.999 48.0087 375.641 47.4143 375.391 46.7268C375.14 46.0393 375.015 45.2874 375.015 44.4709V44.0198C375.015 43.0745 375.154 42.233 375.434 41.4954C375.713 40.7506 376.092 40.1204 376.572 39.6047C377.052 39.0891 377.596 38.6988 378.205 38.4338C378.814 38.1689 379.444 38.0364 380.096 38.0364C380.926 38.0364 381.643 38.1796 382.244 38.4661C382.853 38.7525 383.351 39.1536 383.737 39.6692C384.124 40.1777 384.41 40.7792 384.597 41.4739C384.783 42.1614 384.876 42.9133 384.876 43.7297V44.6213H376.196V42.9993H382.889V42.8489C382.86 42.3333 382.753 41.8319 382.566 41.345C382.387 40.858 382.101 40.4569 381.707 40.1418C381.313 39.8267 380.776 39.6692 380.096 39.6692C379.645 39.6692 379.229 39.7659 378.85 39.9592C378.47 40.1454 378.144 40.4247 377.872 40.7971C377.6 41.1695 377.389 41.6243 377.238 42.1614C377.088 42.6985 377.013 43.318 377.013 44.0198V44.4709C377.013 45.0224 377.088 45.5416 377.238 46.0286C377.396 46.5084 377.621 46.9309 377.915 47.2961C378.216 47.6614 378.577 47.9478 379 48.1555C379.43 48.3632 379.917 48.467 380.461 48.467C381.163 48.467 381.757 48.3238 382.244 48.0374C382.731 47.7509 383.157 47.3678 383.522 46.8879L384.726 47.844C384.475 48.2236 384.156 48.5852 383.77 48.929C383.383 49.2727 382.907 49.552 382.341 49.7668C381.782 49.9817 381.12 50.0891 380.354 50.0891ZM140.663 72.7268L146.023 64.2512H148.021V75.8743H146.023V67.3987L140.663 75.8743H138.687V64.2512H140.663V72.7268ZM159.097 69.2893V70.9006H152.952V69.2893H159.097ZM153.371 64.2512V75.8743H151.384V64.2512H153.371ZM160.708 64.2512V75.8743H158.71V64.2512H160.708ZM177.272 70.2668V70.4924C177.272 71.3088 177.183 72.0608 177.004 72.7483C176.825 73.4286 176.556 74.0194 176.198 74.5208C175.847 75.0221 175.41 75.4124 174.888 75.6917C174.365 75.9638 173.76 76.0999 173.072 76.0999C172.507 76.0999 172.009 76.0247 171.579 75.8743C171.149 75.7167 170.784 75.4911 170.483 75.1975C170.19 74.9039 169.953 74.553 169.774 74.1448C169.603 73.7294 169.484 73.2639 169.42 72.7483V67.592C169.484 67.0406 169.603 66.5465 169.774 66.1096C169.953 65.6728 170.19 65.3004 170.483 64.9924C170.784 64.6845 171.146 64.4482 171.568 64.2834C171.991 64.1187 172.485 64.0364 173.051 64.0364C173.609 64.0364 174.111 64.1366 174.555 64.3372C175.006 64.5305 175.4 64.8098 175.736 65.175C176.08 65.5403 176.363 65.9807 176.585 66.4963C176.814 67.0048 176.986 67.5777 177.101 68.2151C177.215 68.8525 177.272 69.5364 177.272 70.2668ZM175.285 70.4924V70.2668C175.285 69.7655 175.249 69.2893 175.178 68.8381C175.113 68.3798 175.009 67.9609 174.866 67.5813C174.73 67.1946 174.551 66.858 174.329 66.5715C174.107 66.2851 173.839 66.0631 173.523 65.9055C173.215 65.748 172.861 65.6692 172.46 65.6692C172.03 65.6692 171.672 65.7229 171.386 65.8303C171.106 65.9377 170.888 66.081 170.73 66.26C170.573 66.4319 170.458 66.6145 170.387 66.8079V73.5432C170.473 73.7008 170.598 73.8512 170.763 73.9944C170.927 74.1305 171.149 74.245 171.429 74.3381C171.708 74.4241 172.059 74.467 172.481 74.467C172.983 74.467 173.409 74.3668 173.76 74.1663C174.118 73.9586 174.408 73.6721 174.63 73.3069C174.859 72.9417 175.024 72.5191 175.124 72.0393C175.231 71.5595 175.285 71.0439 175.285 70.4924ZM163.469 70.4924V70.2668C163.469 69.5364 163.526 68.8525 163.641 68.2151C163.755 67.5777 163.927 67.0048 164.156 66.4963C164.385 65.9807 164.668 65.5403 165.005 65.175C165.349 64.8098 165.743 64.5305 166.187 64.3372C166.638 64.1366 167.143 64.0364 167.701 64.0364C168.253 64.0364 168.732 64.1187 169.141 64.2834C169.556 64.4482 169.907 64.6845 170.193 64.9924C170.48 65.3004 170.709 65.6728 170.881 66.1096C171.053 66.5465 171.174 67.0406 171.246 67.592V72.5442C171.182 73.0885 171.063 73.579 170.892 74.0159C170.72 74.4527 170.491 74.8287 170.204 75.1438C169.918 75.4517 169.563 75.6881 169.141 75.8528C168.725 76.0175 168.238 76.0999 167.68 76.0999C166.992 76.0999 166.387 75.9638 165.864 75.6917C165.341 75.4124 164.901 75.0221 164.543 74.5208C164.192 74.0194 163.924 73.4286 163.737 72.7483C163.558 72.0608 163.469 71.3088 163.469 70.4924ZM165.467 70.2668V70.4924C165.467 71.0439 165.513 71.5595 165.606 72.0393C165.707 72.5191 165.861 72.9417 166.068 73.3069C166.283 73.6721 166.562 73.9586 166.906 74.1663C167.25 74.3668 167.673 74.467 168.174 74.467C168.604 74.467 168.958 74.4133 169.237 74.3059C169.517 74.1985 169.739 74.0588 169.903 73.887C170.068 73.7151 170.193 73.5361 170.279 73.3499V66.8079C170.208 66.6145 170.09 66.4319 169.925 66.26C169.767 66.081 169.549 65.9377 169.27 65.8303C168.99 65.7229 168.632 65.6692 168.195 65.6692C167.694 65.6692 167.268 65.7909 166.917 66.0344C166.566 66.2779 166.283 66.6109 166.068 67.0334C165.861 67.456 165.707 67.9465 165.606 68.5051C165.513 69.0566 165.467 69.6438 165.467 70.2668ZM169.291 80.343V59.3743H171.289V80.343H169.291ZM179.346 70.1917V69.9446C179.346 69.1067 179.467 68.3297 179.711 67.6135C179.954 66.8902 180.305 66.2636 180.764 65.7336C181.222 65.1965 181.777 64.7812 182.429 64.4875C183.08 64.1868 183.811 64.0364 184.62 64.0364C185.437 64.0364 186.171 64.1868 186.822 64.4875C187.481 64.7812 188.04 65.1965 188.498 65.7336C188.964 66.2636 189.318 66.8902 189.562 67.6135C189.805 68.3297 189.927 69.1067 189.927 69.9446V70.1917C189.927 71.0295 189.805 71.8066 189.562 72.5227C189.318 73.2389 188.964 73.8655 188.498 74.4026C188.04 74.9325 187.485 75.3479 186.833 75.6487C186.188 75.9423 185.458 76.0891 184.642 76.0891C183.825 76.0891 183.091 75.9423 182.439 75.6487C181.788 75.3479 181.229 74.9325 180.764 74.4026C180.305 73.8655 179.954 73.2389 179.711 72.5227C179.467 71.8066 179.346 71.0295 179.346 70.1917ZM181.333 69.9446V70.1917C181.333 70.7717 181.401 71.3196 181.537 71.8352C181.673 72.3437 181.877 72.7948 182.149 73.1887C182.429 73.5826 182.776 73.8941 183.191 74.1233C183.607 74.3453 184.09 74.4563 184.642 74.4563C185.186 74.4563 185.662 74.3453 186.07 74.1233C186.486 73.8941 186.829 73.5826 187.102 73.1887C187.374 72.7948 187.578 72.3437 187.714 71.8352C187.857 71.3196 187.929 70.7717 187.929 70.1917V69.9446C187.929 69.3717 187.857 68.831 187.714 68.3225C187.578 67.8069 187.37 67.3521 187.091 66.9583C186.819 66.5572 186.475 66.2421 186.06 66.0129C185.651 65.7838 185.172 65.6692 184.62 65.6692C184.076 65.6692 183.596 65.7838 183.181 66.0129C182.772 66.2421 182.429 66.5572 182.149 66.9583C181.877 67.3521 181.673 67.8069 181.537 68.3225C181.401 68.831 181.333 69.3717 181.333 69.9446ZM194.406 66.4856V80.343H192.408V64.2512H194.234L194.406 66.4856ZM202.237 69.9661V70.1917C202.237 71.0367 202.137 71.8209 201.937 72.5442C201.736 73.2603 201.442 73.8834 201.056 74.4133C200.676 74.9433 200.207 75.3551 199.648 75.6487C199.09 75.9423 198.449 76.0891 197.726 76.0891C196.988 76.0891 196.336 75.9674 195.771 75.7239C195.205 75.4804 194.725 75.1259 194.331 74.6604C193.937 74.1949 193.622 73.6363 193.386 72.9846C193.157 72.3329 192.999 71.5989 192.913 70.7825V69.5793C192.999 68.72 193.16 67.9501 193.396 67.2698C193.633 66.5894 193.944 66.0094 194.331 65.5295C194.725 65.0426 195.201 64.6737 195.76 64.4231C196.318 64.1653 196.963 64.0364 197.693 64.0364C198.424 64.0364 199.072 64.1796 199.638 64.4661C200.203 64.7454 200.68 65.1464 201.066 65.6692C201.453 66.192 201.743 66.8186 201.937 67.5491C202.137 68.2724 202.237 69.078 202.237 69.9661ZM200.239 70.1917V69.9661C200.239 69.386 200.178 68.8417 200.057 68.3333C199.935 67.8176 199.745 67.3665 199.487 66.9797C199.237 66.5859 198.914 66.2779 198.521 66.0559C198.127 65.8267 197.658 65.7122 197.113 65.7122C196.612 65.7122 196.175 65.7981 195.803 65.97C195.438 66.1418 195.126 66.3746 194.868 66.6682C194.61 66.9547 194.399 67.2841 194.234 67.6565C194.077 68.0217 193.959 68.4013 193.88 68.7952V71.5774C194.023 72.0787 194.224 72.5514 194.481 72.9954C194.739 73.4322 195.083 73.7867 195.513 74.0588C195.942 74.3238 196.483 74.4563 197.135 74.4563C197.672 74.4563 198.134 74.3453 198.521 74.1233C198.914 73.8941 199.237 73.5826 199.487 73.1887C199.745 72.7948 199.935 72.3437 200.057 71.8352C200.178 71.3196 200.239 70.7717 200.239 70.1917ZM211.454 73.2317L215.407 64.2512H217.319L212.142 75.8743H210.767L205.61 64.2512H207.522L211.454 73.2317ZM206.942 64.2512V75.8743H204.955V64.2512H206.942ZM215.901 75.8743V64.2512H217.899V75.8743H215.901ZM227.954 73.887V67.9036C227.954 67.4452 227.861 67.0478 227.675 66.7112C227.496 66.3674 227.224 66.1025 226.858 65.9163C226.493 65.7301 226.042 65.637 225.505 65.637C225.004 65.637 224.563 65.7229 224.184 65.8948C223.811 66.0667 223.518 66.2922 223.303 66.5715C223.095 66.8508 222.991 67.1516 222.991 67.4739H221.004C221.004 67.0585 221.111 66.6467 221.326 66.2385C221.541 65.8303 221.849 65.4615 222.25 65.1321C222.658 64.7955 223.145 64.5305 223.711 64.3372C224.284 64.1366 224.921 64.0364 225.623 64.0364C226.468 64.0364 227.213 64.1796 227.857 64.4661C228.509 64.7525 229.018 65.1858 229.383 65.7659C229.755 66.3388 229.941 67.0585 229.941 67.925V73.3391C229.941 73.7258 229.974 74.1376 230.038 74.5745C230.11 75.0113 230.214 75.3873 230.35 75.7024V75.8743H228.276C228.176 75.6451 228.097 75.3407 228.04 74.9612C227.983 74.5745 227.954 74.2164 227.954 73.887ZM228.298 68.8274L228.319 70.2239H226.311C225.745 70.2239 225.24 70.2704 224.796 70.3635C224.352 70.4495 223.979 70.5819 223.679 70.761C223.378 70.94 223.149 71.1656 222.991 71.4377C222.834 71.7027 222.755 72.0142 222.755 72.3723C222.755 72.7375 222.837 73.0706 223.002 73.3713C223.167 73.6721 223.414 73.912 223.743 74.0911C224.08 74.2629 224.492 74.3489 224.979 74.3489C225.587 74.3489 226.124 74.22 226.59 73.9622C227.055 73.7043 227.424 73.3892 227.696 73.0168C227.976 72.6444 228.126 72.2828 228.147 71.9319L228.996 72.8879C228.946 73.1887 228.81 73.5217 228.588 73.887C228.366 74.2522 228.069 74.6031 227.696 74.9397C227.331 75.2691 226.894 75.5448 226.386 75.7668C225.884 75.9817 225.319 76.0891 224.688 76.0891C223.901 76.0891 223.21 75.9351 222.615 75.6272C222.028 75.3193 221.57 74.9075 221.24 74.3918C220.918 73.8691 220.757 73.2854 220.757 72.6409C220.757 72.0178 220.879 71.47 221.122 70.9973C221.366 70.5175 221.716 70.12 222.175 69.8049C222.633 69.4827 223.185 69.2392 223.829 69.0745C224.474 68.9097 225.193 68.8274 225.988 68.8274H228.298ZM233.239 75.8743V64.2512H235.227V74.2415H240.576V64.2512H242.574V75.8743H233.239ZM243.949 74.2415L243.756 79.3225H241.983V75.8743H240.469V74.2415H243.949ZM248.257 72.7268L253.617 64.2512H255.615V75.8743H253.617V67.3987L248.257 75.8743H246.28V64.2512H248.257V72.7268ZM260.954 72.7268L266.314 64.2512H268.312V75.8743H266.314V67.3987L260.954 75.8743H258.978V64.2512H260.954V72.7268ZM276.434 70.1917V69.9446C276.434 69.1067 276.555 68.3297 276.799 67.6135C277.042 66.8902 277.393 66.2636 277.852 65.7336C278.31 65.1965 278.865 64.7812 279.517 64.4875C280.168 64.1868 280.899 64.0364 281.708 64.0364C282.524 64.0364 283.258 64.1868 283.91 64.4875C284.569 64.7812 285.128 65.1965 285.586 65.7336C286.051 66.2636 286.406 66.8902 286.649 67.6135C286.893 68.3297 287.015 69.1067 287.015 69.9446V70.1917C287.015 71.0295 286.893 71.8066 286.649 72.5227C286.406 73.2389 286.051 73.8655 285.586 74.4026C285.128 74.9325 284.573 75.3479 283.921 75.6487C283.276 75.9423 282.546 76.0891 281.729 76.0891C280.913 76.0891 280.179 75.9423 279.527 75.6487C278.876 75.3479 278.317 74.9325 277.852 74.4026C277.393 73.8655 277.042 73.2389 276.799 72.5227C276.555 71.8066 276.434 71.0295 276.434 70.1917ZM278.421 69.9446V70.1917C278.421 70.7717 278.489 71.3196 278.625 71.8352C278.761 72.3437 278.965 72.7948 279.237 73.1887C279.517 73.5826 279.864 73.8941 280.279 74.1233C280.695 74.3453 281.178 74.4563 281.729 74.4563C282.274 74.4563 282.75 74.3453 283.158 74.1233C283.574 73.8941 283.917 73.5826 284.189 73.1887C284.462 72.7948 284.666 72.3437 284.802 71.8352C284.945 71.3196 285.017 70.7717 285.017 70.1917V69.9446C285.017 69.3717 284.945 68.831 284.802 68.3225C284.666 67.8069 284.458 67.3521 284.179 66.9583C283.907 66.5572 283.563 66.2421 283.147 66.0129C282.739 65.7838 282.259 65.6692 281.708 65.6692C281.164 65.6692 280.684 65.7838 280.269 66.0129C279.86 66.2421 279.517 66.5572 279.237 66.9583C278.965 67.3521 278.761 67.8069 278.625 68.3225C278.489 68.831 278.421 69.3717 278.421 69.9446ZM300.421 70.761H296.607L296.586 69.1711H299.701C300.317 69.1711 300.829 69.1103 301.237 68.9885C301.653 68.8668 301.964 68.6842 302.172 68.4407C302.38 68.1972 302.483 67.8964 302.483 67.5383C302.483 67.259 302.423 67.0155 302.301 66.8079C302.186 66.593 302.011 66.4176 301.774 66.2815C301.538 66.1383 301.244 66.0344 300.894 65.97C300.55 65.8984 300.145 65.8625 299.68 65.8625H297.134V75.8743H295.146V64.2512H299.68C300.417 64.2512 301.08 64.3157 301.667 64.4446C302.261 64.5735 302.766 64.7704 303.182 65.0354C303.604 65.2932 303.926 65.6226 304.148 66.0237C304.37 66.4247 304.481 66.8974 304.481 67.4417C304.481 67.7926 304.41 68.1256 304.267 68.4407C304.123 68.7558 303.912 69.0351 303.633 69.2786C303.354 69.5221 303.01 69.7226 302.602 69.8801C302.193 70.0305 301.724 70.1272 301.194 70.1702L300.421 70.761ZM300.421 75.8743H295.888L296.876 74.2629H300.421C300.972 74.2629 301.431 74.1949 301.796 74.0588C302.161 73.9156 302.433 73.7151 302.612 73.4573C302.799 73.1923 302.892 72.8772 302.892 72.512C302.892 72.1467 302.799 71.8352 302.612 71.5774C302.433 71.3124 302.161 71.1119 301.796 70.9758C301.431 70.8326 300.972 70.761 300.421 70.761H297.402L297.424 69.1711H301.194L301.914 69.7727C302.551 69.8228 303.092 69.9804 303.536 70.2454C303.98 70.5103 304.317 70.8469 304.546 71.2551C304.775 71.6562 304.89 72.093 304.89 72.5657C304.89 73.1099 304.786 73.5898 304.578 74.0051C304.378 74.4205 304.084 74.7678 303.697 75.0471C303.311 75.3193 302.841 75.5269 302.29 75.6702C301.739 75.8062 301.116 75.8743 300.421 75.8743ZM311.894 70.3206H309.756V69.0959H311.732C312.284 69.0959 312.721 69.0279 313.043 68.8918C313.365 68.7486 313.594 68.5517 313.73 68.301C313.867 68.0504 313.935 67.7568 313.935 67.4202C313.935 67.1194 313.856 66.8365 313.698 66.5715C313.548 66.2994 313.304 66.081 312.968 65.9163C312.631 65.7444 312.18 65.6584 311.614 65.6584C311.156 65.6584 310.741 65.7408 310.368 65.9055C309.996 66.0631 309.699 66.2815 309.477 66.5608C309.262 66.8329 309.154 67.1409 309.154 67.4846H307.167C307.167 66.7756 307.368 66.1669 307.769 65.6584C308.177 65.1428 308.717 64.7454 309.391 64.4661C310.071 64.1868 310.812 64.0471 311.614 64.0471C312.287 64.0471 312.889 64.1223 313.419 64.2727C313.956 64.4159 314.411 64.6308 314.783 64.9172C315.156 65.1965 315.438 65.5474 315.632 65.97C315.832 66.3853 315.933 66.8687 315.933 67.4202C315.933 67.814 315.84 68.1864 315.653 68.5374C315.467 68.8883 315.199 69.1998 314.848 69.4719C314.497 69.7369 314.071 69.9446 313.569 70.095C313.075 70.2454 312.517 70.3206 311.894 70.3206ZM309.756 69.5686H311.894C312.588 69.5686 313.201 69.6366 313.73 69.7727C314.26 69.9016 314.704 70.095 315.062 70.3528C315.421 70.6106 315.689 70.9293 315.868 71.3088C316.054 71.6812 316.147 72.1109 316.147 72.5979C316.147 73.1422 316.036 73.6327 315.814 74.0696C315.6 74.4993 315.292 74.8645 314.891 75.1653C314.49 75.4661 314.01 75.6952 313.451 75.8528C312.9 76.0103 312.287 76.0891 311.614 76.0891C310.862 76.0891 310.132 75.9602 309.423 75.7024C308.714 75.4446 308.13 75.0471 307.672 74.51C307.214 73.9657 306.984 73.2747 306.984 72.4368H308.972C308.972 72.7877 309.083 73.1207 309.305 73.4358C309.527 73.7509 309.835 74.0051 310.229 74.1985C310.63 74.3918 311.091 74.4885 311.614 74.4885C312.173 74.4885 312.638 74.4026 313.011 74.2307C313.383 74.0588 313.662 73.8297 313.849 73.5432C314.042 73.2568 314.139 72.9452 314.139 72.6086C314.139 72.1718 314.053 71.8209 313.881 71.5559C313.709 71.2909 313.444 71.0976 313.086 70.9758C312.735 70.8469 312.284 70.7825 311.732 70.7825H309.756V69.5686ZM325.579 73.887V67.9036C325.579 67.4452 325.486 67.0478 325.3 66.7112C325.121 66.3674 324.849 66.1025 324.483 65.9163C324.118 65.7301 323.667 65.637 323.13 65.637C322.629 65.637 322.188 65.7229 321.809 65.8948C321.436 66.0667 321.143 66.2922 320.928 66.5715C320.72 66.8508 320.616 67.1516 320.616 67.4739H318.629C318.629 67.0585 318.736 66.6467 318.951 66.2385C319.166 65.8303 319.474 65.4615 319.875 65.1321C320.283 64.7955 320.77 64.5305 321.336 64.3372C321.909 64.1366 322.546 64.0364 323.248 64.0364C324.093 64.0364 324.838 64.1796 325.482 64.4661C326.134 64.7525 326.643 65.1858 327.008 65.7659C327.38 66.3388 327.566 67.0585 327.566 67.925V73.3391C327.566 73.7258 327.599 74.1376 327.663 74.5745C327.735 75.0113 327.839 75.3873 327.975 75.7024V75.8743H325.901C325.801 75.6451 325.722 75.3407 325.665 74.9612C325.608 74.5745 325.579 74.2164 325.579 73.887ZM325.923 68.8274L325.944 70.2239H323.936C323.37 70.2239 322.865 70.2704 322.421 70.3635C321.977 70.4495 321.604 70.5819 321.304 70.761C321.003 70.94 320.774 71.1656 320.616 71.4377C320.459 71.7027 320.38 72.0142 320.38 72.3723C320.38 72.7375 320.462 73.0706 320.627 73.3713C320.792 73.6721 321.039 73.912 321.368 74.0911C321.705 74.2629 322.117 74.3489 322.604 74.3489C323.212 74.3489 323.749 74.22 324.215 73.9622C324.68 73.7043 325.049 73.3892 325.321 73.0168C325.601 72.6444 325.751 72.2828 325.772 71.9319L326.621 72.8879C326.571 73.1887 326.435 73.5217 326.213 73.887C325.991 74.2522 325.694 74.6031 325.321 74.9397C324.956 75.2691 324.519 75.5448 324.011 75.7668C323.509 75.9817 322.944 76.0891 322.313 76.0891C321.526 76.0891 320.835 75.9351 320.24 75.6272C319.653 75.3193 319.195 74.9075 318.865 74.3918C318.543 73.8691 318.382 73.2854 318.382 72.6409C318.382 72.0178 318.504 71.47 318.747 70.9973C318.991 70.5175 319.341 70.12 319.8 69.8049C320.258 69.4827 320.81 69.2392 321.454 69.0745C322.099 68.9097 322.818 68.8274 323.613 68.8274H325.923ZM332.841 72.7268L338.201 64.2512H340.199V75.8743H338.201V67.3987L332.841 75.8743H330.864V64.2512H332.841V72.7268ZM350.071 73.2317L354.024 64.2512H355.937L350.759 75.8743H349.384L344.228 64.2512H346.14L350.071 73.2317ZM345.56 64.2512V75.8743H343.572V64.2512H345.56ZM354.519 75.8743V64.2512H356.517V75.8743H354.519ZM359.191 70.1917V69.9446C359.191 69.1067 359.313 68.3297 359.557 67.6135C359.8 66.8902 360.151 66.2636 360.609 65.7336C361.068 65.1965 361.623 64.7812 362.274 64.4875C362.926 64.1868 363.657 64.0364 364.466 64.0364C365.282 64.0364 366.016 64.1868 366.668 64.4875C367.327 64.7812 367.885 65.1965 368.344 65.7336C368.809 66.2636 369.164 66.8902 369.407 67.6135C369.651 68.3297 369.772 69.1067 369.772 69.9446V70.1917C369.772 71.0295 369.651 71.8066 369.407 72.5227C369.164 73.2389 368.809 73.8655 368.344 74.4026C367.885 74.9325 367.33 75.3479 366.679 75.6487C366.034 75.9423 365.304 76.0891 364.487 76.0891C363.671 76.0891 362.937 75.9423 362.285 75.6487C361.633 75.3479 361.075 74.9325 360.609 74.4026C360.151 73.8655 359.8 73.2389 359.557 72.5227C359.313 71.8066 359.191 71.0295 359.191 70.1917ZM361.179 69.9446V70.1917C361.179 70.7717 361.247 71.3196 361.383 71.8352C361.519 72.3437 361.723 72.7948 361.995 73.1887C362.274 73.5826 362.622 73.8941 363.037 74.1233C363.452 74.3453 363.936 74.4563 364.487 74.4563C365.032 74.4563 365.508 74.3453 365.916 74.1233C366.331 73.8941 366.675 73.5826 366.947 73.1887C367.219 72.7948 367.424 72.3437 367.56 71.8352C367.703 71.3196 367.774 70.7717 367.774 70.1917V69.9446C367.774 69.3717 367.703 68.831 367.56 68.3225C367.424 67.8069 367.216 67.3521 366.937 66.9583C366.664 66.5572 366.321 66.2421 365.905 66.0129C365.497 65.7838 365.017 65.6692 364.466 65.6692C363.922 65.6692 363.442 65.7838 363.026 66.0129C362.618 66.2421 362.274 66.5572 361.995 66.9583C361.723 67.3521 361.519 67.8069 361.383 68.3225C361.247 68.831 361.179 69.3717 361.179 69.9446ZM371.738 70.1917V69.9446C371.738 69.1067 371.86 68.3297 372.104 67.6135C372.347 66.8902 372.698 66.2636 373.156 65.7336C373.615 65.1965 374.17 64.7812 374.821 64.4875C375.473 64.1868 376.203 64.0364 377.013 64.0364C377.829 64.0364 378.563 64.1868 379.215 64.4875C379.874 64.7812 380.432 65.1965 380.891 65.7336C381.356 66.2636 381.711 66.8902 381.954 67.6135C382.198 68.3297 382.319 69.1067 382.319 69.9446V70.1917C382.319 71.0295 382.198 71.8066 381.954 72.5227C381.711 73.2389 381.356 73.8655 380.891 74.4026C380.432 74.9325 379.877 75.3479 379.226 75.6487C378.581 75.9423 377.851 76.0891 377.034 76.0891C376.218 76.0891 375.484 75.9423 374.832 75.6487C374.18 75.3479 373.622 74.9325 373.156 74.4026C372.698 73.8655 372.347 73.2389 372.104 72.5227C371.86 71.8066 371.738 71.0295 371.738 70.1917ZM373.726 69.9446V70.1917C373.726 70.7717 373.794 71.3196 373.93 71.8352C374.066 72.3437 374.27 72.7948 374.542 73.1887C374.821 73.5826 375.169 73.8941 375.584 74.1233C375.999 74.3453 376.483 74.4563 377.034 74.4563C377.578 74.4563 378.055 74.3453 378.463 74.1233C378.878 73.8941 379.222 73.5826 379.494 73.1887C379.766 72.7948 379.97 72.3437 380.106 71.8352C380.25 71.3196 380.321 70.7717 380.321 70.1917V69.9446C380.321 69.3717 380.25 68.831 380.106 68.3225C379.97 67.8069 379.763 67.3521 379.483 66.9583C379.211 66.5572 378.868 66.2421 378.452 66.0129C378.044 65.7838 377.564 65.6692 377.013 65.6692C376.468 65.6692 375.989 65.7838 375.573 66.0129C375.165 66.2421 374.821 66.5572 374.542 66.9583C374.27 67.3521 374.066 67.8069 373.93 68.3225C373.794 68.831 373.726 69.3717 373.726 69.9446ZM392.557 64.2512V65.8948H386.681V64.2512H392.557ZM386.971 64.2512V75.8743H384.983V64.2512H386.971ZM394.318 64.2512V75.8743H392.32V64.2512H394.318ZM399.142 68.2473H402.633C403.571 68.2473 404.362 68.412 405.007 68.7415C405.651 69.0637 406.138 69.5113 406.468 70.0842C406.804 70.65 406.973 71.2945 406.973 72.0178C406.973 72.5549 406.88 73.0598 406.693 73.5325C406.507 73.998 406.228 74.4062 405.855 74.7571C405.49 75.108 405.035 75.3837 404.491 75.5842C403.954 75.7776 403.335 75.8743 402.633 75.8743H397.691V64.2512H399.679V74.2415H402.633C403.206 74.2415 403.664 74.1376 404.008 73.9299C404.352 73.7222 404.599 73.4537 404.749 73.1243C404.899 72.7948 404.975 72.4511 404.975 72.093C404.975 71.7421 404.899 71.3984 404.749 71.0618C404.599 70.7252 404.352 70.4459 404.008 70.2239C403.664 69.9947 403.206 69.8801 402.633 69.8801H399.142V68.2473ZM411.108 64.2512V75.8743H409.121V64.2512H411.108ZM419.326 64.2512V75.8743H417.328V64.2512H419.326ZM423.226 64.2512V65.8625H413.504V64.2512H423.226ZM429.145 76.0891C428.335 76.0891 427.601 75.953 426.942 75.6809C426.291 75.4016 425.729 75.0113 425.256 74.51C424.79 74.0087 424.432 73.4143 424.182 72.7268C423.931 72.0393 423.806 71.2874 423.806 70.4709V70.0198C423.806 69.0745 423.945 68.233 424.225 67.4954C424.504 66.7506 424.883 66.1204 425.363 65.6047C425.843 65.0891 426.387 64.6988 426.996 64.4338C427.605 64.1689 428.235 64.0364 428.887 64.0364C429.717 64.0364 430.434 64.1796 431.035 64.4661C431.644 64.7525 432.142 65.1536 432.528 65.6692C432.915 66.1777 433.201 66.7792 433.388 67.4739C433.574 68.1614 433.667 68.9133 433.667 69.7297V70.6213H424.987V68.9993H431.68V68.8489C431.651 68.3333 431.544 67.8319 431.357 67.345C431.178 66.858 430.892 66.4569 430.498 66.1418C430.104 65.8267 429.567 65.6692 428.887 65.6692C428.436 65.6692 428.02 65.7659 427.641 65.9592C427.261 66.1454 426.935 66.4247 426.663 66.7971C426.391 67.1695 426.18 67.6243 426.029 68.1614C425.879 68.6985 425.804 69.318 425.804 70.0198V70.4709C425.804 71.0224 425.879 71.5416 426.029 72.0286C426.187 72.5084 426.412 72.9309 426.706 73.2961C427.007 73.6614 427.368 73.9478 427.791 74.1555C428.221 74.3632 428.708 74.467 429.252 74.467C429.954 74.467 430.548 74.3238 431.035 74.0374C431.522 73.7509 431.948 73.3678 432.313 72.8879L433.517 73.844C433.266 74.2236 432.947 74.5852 432.561 74.929C432.174 75.2727 431.698 75.552 431.132 75.7668C430.573 75.9817 429.911 76.0891 429.145 76.0891Z" fill="black"/>
<defs>
<filter id="filter0_d_822_2154" x="545.052" y="7.96045" width="106.19" height="106.163" filterUnits="userSpaceOnUse" color-interpolation-filters="sRGB">
<feFlood flood-opacity="0" result="BackgroundImageFix"/>
<feColorMatrix in="SourceAlpha" type="matrix" values="0 0 0 0 0 0 0 0 0 0 0 0 0 0 0 0 0 0 127 0" result="hardAlpha"/>
<feOffset/>
<feGaussianBlur stdDeviation="12"/>
<feComposite in2="hardAlpha" operator="out"/>
<feColorMatrix type="matrix" values="0 0 0 0 0.579167 0 0 0 0 0.579167 0 0 0 0 0.579167 0 0 0 0.3 0"/>
<feBlend mode="normal" in2="BackgroundImageFix" result="effect1_dropShadow_822_2154"/>
<feBlend mode="normal" in="SourceGraphic" in2="effect1_dropShadow_822_2154" result="shape"/>
</filter>
</defs>
</svg>
