<svg width="346" height="85" viewBox="0 0 346 85" fill="none" xmlns="http://www.w3.org/2000/svg">
<g filter="url(#filter0_d_315_360)">
<path d="M316.5 54.8472C323.404 47.9436 323.404 36.7507 316.5 29.8472C309.596 22.9436 298.404 22.9436 291.5 29.8472C284.596 36.7507 284.596 47.9436 291.5 54.8472C298.404 61.7507 309.596 61.7507 316.5 54.8472Z" fill="white"/>
</g>
<path d="M309.526 42.3453C309.529 43.3924 309.222 44.4171 308.643 45.29C308.065 46.1629 307.241 46.845 306.276 47.2502C305.31 47.6554 304.246 47.7657 303.218 47.567C302.19 47.3683 301.244 46.8696 300.499 46.1338C299.754 45.3979 299.243 44.458 299.032 43.4324C298.82 42.4068 298.917 41.3416 299.31 40.3711C299.703 39.4006 300.375 38.5682 301.241 37.979C302.106 37.3897 303.127 37.0701 304.174 37.0602C304.874 37.0515 305.568 37.1817 306.217 37.4434C306.866 37.705 307.456 38.0929 307.954 38.5846C308.452 39.0762 308.847 39.6618 309.117 40.3074C309.387 40.9529 309.526 41.6456 309.526 42.3453V42.3453Z" fill="#00A3FF"/>
<path d="M304.24 44.4161C305.384 44.4161 306.311 43.4889 306.311 42.3451C306.311 41.2014 305.384 40.2742 304.24 40.2742C303.096 40.2742 302.169 41.2014 302.169 42.3451C302.169 43.4889 303.096 44.4161 304.24 44.4161Z" fill="white"/>
<path d="M53.0456 60.0204C62.811 50.2596 62.811 34.4342 53.0455 24.6734C43.2801 14.9127 27.4473 14.9126 17.6819 24.6734C7.91646 34.4342 7.91643 50.2596 17.6819 60.0204C27.4473 69.7812 43.2802 69.7812 53.0456 60.0204Z" fill="#00A3FF"/>
<path d="M26.6265 34.1887H29.7515V51.6936H26.0039V38.9495H23.001V36.5691C23.5381 36.504 24.0304 36.3778 24.478 36.1907C24.9256 35.9954 25.2715 35.7878 25.5156 35.5681C25.7679 35.3484 25.9795 35.1368 26.1504 34.9333C26.3294 34.7218 26.4556 34.5427 26.5288 34.3962L26.6265 34.1887ZM40.5059 40.0725C42.1904 40.0725 43.5902 40.63 44.7051 41.7449C45.8281 42.8598 46.3896 44.2595 46.3896 45.9441C46.3896 47.71 45.7752 49.1749 44.5464 50.3386C43.3257 51.4942 41.7306 52.072 39.7612 52.072C38.9312 52.072 38.1336 51.9744 37.3687 51.7791C36.6118 51.5919 35.9933 51.364 35.5132 51.0955C35.0412 50.8269 34.6261 50.5624 34.2681 50.302C33.91 50.0334 33.6577 49.7974 33.5112 49.594L33.2549 49.3132L35.5132 46.9451C35.6271 47.0753 35.7858 47.238 35.9893 47.4333C36.2008 47.6205 36.6566 47.8769 37.3564 48.2024C38.0563 48.5279 38.7725 48.6907 39.5049 48.6907C40.4408 48.6907 41.1732 48.4384 41.7021 47.9338C42.2393 47.4211 42.5078 46.7579 42.5078 45.9441C42.5078 45.1303 42.223 44.4467 41.6533 43.8933C41.0918 43.3399 40.3757 43.0632 39.5049 43.0632C38.9027 43.0632 38.3656 43.1772 37.8936 43.405C37.4215 43.6329 37.092 43.8608 36.9048 44.0886L36.6362 44.4426L34.0117 44.1985L34.6343 34.1887H45.2544V37.448H38.0156L37.7593 40.6951C38.4266 40.28 39.3421 40.0725 40.5059 40.0725Z" fill="white"/>
<path d="M112.57 24.0469V34H111.251V24.0469H112.57ZM118.641 30.0967H115.981V29.0234H118.641C119.156 29.0234 119.573 28.9414 119.892 28.7773C120.211 28.6133 120.443 28.3854 120.589 28.0938C120.739 27.8021 120.814 27.4694 120.814 27.0957C120.814 26.7539 120.739 26.4326 120.589 26.1318C120.443 25.8311 120.211 25.5895 119.892 25.4072C119.573 25.2204 119.156 25.127 118.641 25.127H116.289V34H114.97V24.0469H118.641C119.393 24.0469 120.028 24.1768 120.548 24.4365C121.067 24.6963 121.462 25.0563 121.73 25.5166C121.999 25.9723 122.134 26.4941 122.134 27.082C122.134 27.7201 121.999 28.2646 121.73 28.7158C121.462 29.167 121.067 29.5111 120.548 29.748C120.028 29.9805 119.393 30.0967 118.641 30.0967ZM131.465 28.709V29.3379C131.465 30.0853 131.371 30.7552 131.185 31.3477C130.998 31.9401 130.729 32.4437 130.378 32.8584C130.027 33.2731 129.605 33.5898 129.113 33.8086C128.626 34.0273 128.079 34.1367 127.473 34.1367C126.885 34.1367 126.345 34.0273 125.853 33.8086C125.365 33.5898 124.941 33.2731 124.581 32.8584C124.226 32.4437 123.95 31.9401 123.754 31.3477C123.558 30.7552 123.46 30.0853 123.46 29.3379V28.709C123.46 27.9616 123.556 27.2939 123.747 26.7061C123.943 26.1136 124.219 25.61 124.574 25.1953C124.93 24.776 125.351 24.457 125.839 24.2383C126.331 24.0195 126.871 23.9102 127.459 23.9102C128.065 23.9102 128.612 24.0195 129.1 24.2383C129.592 24.457 130.013 24.776 130.364 25.1953C130.72 25.61 130.991 26.1136 131.178 26.7061C131.369 27.2939 131.465 27.9616 131.465 28.709ZM130.159 29.3379V28.6953C130.159 28.1029 130.098 27.5788 129.975 27.123C129.856 26.6673 129.681 26.2845 129.448 25.9746C129.216 25.6647 128.931 25.43 128.594 25.2705C128.261 25.111 127.883 25.0312 127.459 25.0312C127.049 25.0312 126.677 25.111 126.345 25.2705C126.017 25.43 125.734 25.6647 125.497 25.9746C125.265 26.2845 125.085 26.6673 124.957 27.123C124.829 27.5788 124.766 28.1029 124.766 28.6953V29.3379C124.766 29.9349 124.829 30.4635 124.957 30.9238C125.085 31.3796 125.267 31.7646 125.504 32.0791C125.745 32.389 126.03 32.6237 126.358 32.7832C126.691 32.9427 127.062 33.0225 127.473 33.0225C127.901 33.0225 128.282 32.9427 128.614 32.7832C128.947 32.6237 129.227 32.389 129.455 32.0791C129.688 31.7646 129.863 31.3796 129.981 30.9238C130.1 30.4635 130.159 29.9349 130.159 29.3379ZM140.194 30.7461H137.768L137.754 29.7344H139.736C140.128 29.7344 140.454 29.6956 140.714 29.6182C140.978 29.5407 141.176 29.4245 141.309 29.2695C141.441 29.1146 141.507 28.9232 141.507 28.6953C141.507 28.5176 141.468 28.3626 141.391 28.2305C141.318 28.0938 141.206 27.9821 141.056 27.8955C140.905 27.8044 140.718 27.7383 140.495 27.6973C140.276 27.6517 140.019 27.6289 139.723 27.6289H138.103V34H136.838V26.6035H139.723C140.192 26.6035 140.614 26.6445 140.987 26.7266C141.366 26.8086 141.687 26.9339 141.951 27.1025C142.22 27.2666 142.425 27.4762 142.566 27.7314C142.708 27.9867 142.778 28.2874 142.778 28.6338C142.778 28.8571 142.733 29.069 142.642 29.2695C142.55 29.4701 142.416 29.6478 142.238 29.8027C142.061 29.9577 141.842 30.0853 141.582 30.1855C141.322 30.2812 141.024 30.3428 140.687 30.3701L140.194 30.7461ZM140.194 34H137.31L137.938 32.9746H140.194C140.545 32.9746 140.837 32.9313 141.069 32.8447C141.302 32.7536 141.475 32.626 141.589 32.4619C141.707 32.2933 141.767 32.0928 141.767 31.8604C141.767 31.6279 141.707 31.4297 141.589 31.2656C141.475 31.097 141.302 30.9694 141.069 30.8828C140.837 30.7917 140.545 30.7461 140.194 30.7461H138.273L138.287 29.7344H140.687L141.145 30.1172C141.55 30.1491 141.894 30.2493 142.177 30.418C142.459 30.5866 142.674 30.8008 142.819 31.0605C142.965 31.3158 143.038 31.5938 143.038 31.8945C143.038 32.2409 142.972 32.5462 142.84 32.8105C142.712 33.0749 142.525 33.2959 142.279 33.4736C142.033 33.6468 141.735 33.779 141.384 33.8701C141.033 33.9567 140.636 34 140.194 34ZM149.471 28.0254V36.8438H148.199V26.6035H149.361L149.471 28.0254ZM154.454 30.2402V30.3838C154.454 30.9215 154.39 31.4206 154.263 31.8809C154.135 32.3366 153.948 32.7331 153.702 33.0703C153.461 33.4076 153.162 33.6696 152.807 33.8564C152.451 34.0433 152.043 34.1367 151.583 34.1367C151.114 34.1367 150.699 34.0592 150.339 33.9043C149.979 33.7493 149.674 33.5238 149.423 33.2275C149.172 32.9313 148.972 32.5758 148.821 32.1611C148.675 31.7464 148.575 31.2793 148.521 30.7598V29.9941C148.575 29.4473 148.678 28.9574 148.828 28.5244C148.979 28.0915 149.177 27.7223 149.423 27.417C149.674 27.1071 149.977 26.8724 150.332 26.7129C150.688 26.5488 151.098 26.4668 151.562 26.4668C152.027 26.4668 152.44 26.5579 152.8 26.7402C153.16 26.918 153.463 27.1732 153.709 27.5059C153.955 27.8385 154.14 28.2373 154.263 28.7021C154.39 29.1624 154.454 29.6751 154.454 30.2402ZM153.183 30.3838V30.2402C153.183 29.8711 153.144 29.5247 153.066 29.2012C152.989 28.873 152.868 28.5859 152.704 28.3398C152.545 28.0892 152.34 27.8932 152.089 27.752C151.838 27.6061 151.54 27.5332 151.193 27.5332C150.874 27.5332 150.596 27.5879 150.359 27.6973C150.127 27.8066 149.929 27.9548 149.765 28.1416C149.601 28.3239 149.466 28.5335 149.361 28.7705C149.261 29.0029 149.186 29.2445 149.136 29.4951V31.2656C149.227 31.5846 149.354 31.8854 149.519 32.168C149.683 32.446 149.901 32.6715 150.175 32.8447C150.448 33.0133 150.792 33.0977 151.207 33.0977C151.549 33.0977 151.843 33.027 152.089 32.8857C152.34 32.7399 152.545 32.5417 152.704 32.291C152.868 32.0404 152.989 31.7533 153.066 31.4297C153.144 31.1016 153.183 30.7529 153.183 30.3838ZM160.429 32.7354V28.9277C160.429 28.6361 160.369 28.3831 160.251 28.1689C160.137 27.9502 159.964 27.7816 159.731 27.6631C159.499 27.5446 159.212 27.4854 158.87 27.4854C158.551 27.4854 158.271 27.54 158.029 27.6494C157.792 27.7588 157.605 27.9023 157.469 28.0801C157.337 28.2578 157.271 28.4492 157.271 28.6543H156.006C156.006 28.39 156.074 28.1279 156.211 27.8682C156.348 27.6084 156.544 27.3737 156.799 27.1641C157.059 26.9499 157.368 26.7812 157.729 26.6582C158.093 26.5306 158.499 26.4668 158.945 26.4668C159.483 26.4668 159.957 26.5579 160.367 26.7402C160.782 26.9225 161.105 27.1982 161.338 27.5674C161.575 27.932 161.693 28.39 161.693 28.9414V32.3867C161.693 32.6328 161.714 32.8949 161.755 33.1729C161.8 33.4508 161.867 33.6901 161.953 33.8906V34H160.634C160.57 33.8542 160.52 33.6605 160.483 33.4189C160.447 33.1729 160.429 32.945 160.429 32.7354ZM160.647 29.5156L160.661 30.4043H159.383C159.023 30.4043 158.701 30.4339 158.419 30.4932C158.136 30.5479 157.899 30.6322 157.708 30.7461C157.517 30.86 157.371 31.0036 157.271 31.1768C157.17 31.3454 157.12 31.5436 157.12 31.7715C157.12 32.0039 157.173 32.2158 157.277 32.4072C157.382 32.5986 157.539 32.7513 157.749 32.8652C157.963 32.9746 158.225 33.0293 158.535 33.0293C158.923 33.0293 159.264 32.9473 159.561 32.7832C159.857 32.6191 160.091 32.4186 160.265 32.1816C160.442 31.9447 160.538 31.7145 160.552 31.4912L161.092 32.0996C161.06 32.291 160.973 32.5029 160.832 32.7354C160.691 32.9678 160.502 33.1911 160.265 33.4053C160.032 33.6149 159.754 33.7904 159.431 33.9316C159.112 34.0684 158.752 34.1367 158.351 34.1367C157.849 34.1367 157.41 34.0387 157.031 33.8428C156.658 33.6468 156.366 33.3848 156.156 33.0566C155.951 32.724 155.849 32.3525 155.849 31.9424C155.849 31.5459 155.926 31.1973 156.081 30.8965C156.236 30.5911 156.459 30.3382 156.751 30.1377C157.043 29.9326 157.394 29.7777 157.804 29.6729C158.214 29.568 158.672 29.5156 159.178 29.5156H160.647ZM167.935 32.3184L170.45 26.6035H171.667L168.372 34H167.497L164.216 26.6035H165.433L167.935 32.3184ZM165.063 26.6035V34H163.799V26.6035H165.063ZM170.765 34V26.6035H172.036V34H170.765ZM175.447 26.6035V34H174.183V26.6035H175.447ZM180.301 26.6035L176.794 30.8418H175.023L174.832 29.7344H176.281L178.763 26.6035H180.301ZM178.94 34L176.22 30.6504L177.033 29.7344L180.547 34H178.94ZM186.009 32.7354V28.9277C186.009 28.6361 185.95 28.3831 185.831 28.1689C185.717 27.9502 185.544 27.7816 185.312 27.6631C185.079 27.5446 184.792 27.4854 184.45 27.4854C184.131 27.4854 183.851 27.54 183.609 27.6494C183.372 27.7588 183.186 27.9023 183.049 28.0801C182.917 28.2578 182.851 28.4492 182.851 28.6543H181.586C181.586 28.39 181.654 28.1279 181.791 27.8682C181.928 27.6084 182.124 27.3737 182.379 27.1641C182.639 26.9499 182.949 26.7812 183.309 26.6582C183.673 26.5306 184.079 26.4668 184.525 26.4668C185.063 26.4668 185.537 26.5579 185.947 26.7402C186.362 26.9225 186.686 27.1982 186.918 27.5674C187.155 27.932 187.273 28.39 187.273 28.9414V32.3867C187.273 32.6328 187.294 32.8949 187.335 33.1729C187.381 33.4508 187.447 33.6901 187.533 33.8906V34H186.214C186.15 33.8542 186.1 33.6605 186.063 33.4189C186.027 33.1729 186.009 32.945 186.009 32.7354ZM186.228 29.5156L186.241 30.4043H184.963C184.603 30.4043 184.282 30.4339 183.999 30.4932C183.716 30.5479 183.479 30.6322 183.288 30.7461C183.097 30.86 182.951 31.0036 182.851 31.1768C182.75 31.3454 182.7 31.5436 182.7 31.7715C182.7 32.0039 182.753 32.2158 182.857 32.4072C182.962 32.5986 183.119 32.7513 183.329 32.8652C183.543 32.9746 183.805 33.0293 184.115 33.0293C184.503 33.0293 184.844 32.9473 185.141 32.7832C185.437 32.6191 185.672 32.4186 185.845 32.1816C186.022 31.9447 186.118 31.7145 186.132 31.4912L186.672 32.0996C186.64 32.291 186.553 32.5029 186.412 32.7354C186.271 32.9678 186.082 33.1911 185.845 33.4053C185.612 33.6149 185.334 33.7904 185.011 33.9316C184.692 34.0684 184.332 34.1367 183.931 34.1367C183.429 34.1367 182.99 34.0387 182.611 33.8428C182.238 33.6468 181.946 33.3848 181.736 33.0566C181.531 32.724 181.429 32.3525 181.429 31.9424C181.429 31.5459 181.506 31.1973 181.661 30.8965C181.816 30.5911 182.039 30.3382 182.331 30.1377C182.623 29.9326 182.974 29.7777 183.384 29.6729C183.794 29.568 184.252 29.5156 184.758 29.5156H186.228ZM190.117 26.6035L191.737 29.2969L193.378 26.6035H194.861L192.441 30.2539L194.937 34H193.474L191.765 31.2246L190.056 34H188.586L191.074 30.2539L188.661 26.6035H190.117ZM115.216 52.3184L117.731 46.6035H118.948L115.653 54H114.778L111.497 46.6035H112.714L115.216 52.3184ZM112.345 46.6035V54H111.08V46.6035H112.345ZM118.046 54V46.6035H119.317V54H118.046ZM121.02 50.3838V50.2266C121.02 49.6934 121.097 49.1989 121.252 48.7432C121.407 48.2829 121.63 47.8841 121.922 47.5469C122.214 47.2051 122.567 46.9408 122.981 46.7539C123.396 46.5625 123.861 46.4668 124.376 46.4668C124.896 46.4668 125.363 46.5625 125.777 46.7539C126.197 46.9408 126.552 47.2051 126.844 47.5469C127.14 47.8841 127.366 48.2829 127.521 48.7432C127.675 49.1989 127.753 49.6934 127.753 50.2266V50.3838C127.753 50.917 127.675 51.4115 127.521 51.8672C127.366 52.3229 127.14 52.7217 126.844 53.0635C126.552 53.4007 126.199 53.665 125.784 53.8564C125.374 54.0433 124.909 54.1367 124.39 54.1367C123.87 54.1367 123.403 54.0433 122.988 53.8564C122.574 53.665 122.218 53.4007 121.922 53.0635C121.63 52.7217 121.407 52.3229 121.252 51.8672C121.097 51.4115 121.02 50.917 121.02 50.3838ZM122.284 50.2266V50.3838C122.284 50.7529 122.327 51.1016 122.414 51.4297C122.501 51.7533 122.631 52.0404 122.804 52.291C122.981 52.5417 123.202 52.7399 123.467 52.8857C123.731 53.027 124.039 53.0977 124.39 53.0977C124.736 53.0977 125.039 53.027 125.299 52.8857C125.563 52.7399 125.782 52.5417 125.955 52.291C126.128 52.0404 126.258 51.7533 126.345 51.4297C126.436 51.1016 126.481 50.7529 126.481 50.3838V50.2266C126.481 49.862 126.436 49.5179 126.345 49.1943C126.258 48.8662 126.126 48.5768 125.948 48.3262C125.775 48.071 125.556 47.8704 125.292 47.7246C125.032 47.5788 124.727 47.5059 124.376 47.5059C124.03 47.5059 123.724 47.5788 123.46 47.7246C123.2 47.8704 122.981 48.071 122.804 48.3262C122.631 48.5768 122.501 48.8662 122.414 49.1943C122.327 49.5179 122.284 49.862 122.284 50.2266ZM134.356 49.8096V50.835H130.446V49.8096H134.356ZM130.713 46.6035V54H129.448V46.6035H130.713ZM135.382 46.6035V54H134.11V46.6035H135.382ZM137.084 50.3838V50.2266C137.084 49.6934 137.161 49.1989 137.316 48.7432C137.471 48.2829 137.695 47.8841 137.986 47.5469C138.278 47.2051 138.631 46.9408 139.046 46.7539C139.461 46.5625 139.925 46.4668 140.44 46.4668C140.96 46.4668 141.427 46.5625 141.842 46.7539C142.261 46.9408 142.617 47.2051 142.908 47.5469C143.204 47.8841 143.43 48.2829 143.585 48.7432C143.74 49.1989 143.817 49.6934 143.817 50.2266V50.3838C143.817 50.917 143.74 51.4115 143.585 51.8672C143.43 52.3229 143.204 52.7217 142.908 53.0635C142.617 53.4007 142.263 53.665 141.849 53.8564C141.438 54.0433 140.974 54.1367 140.454 54.1367C139.935 54.1367 139.467 54.0433 139.053 53.8564C138.638 53.665 138.283 53.4007 137.986 53.0635C137.695 52.7217 137.471 52.3229 137.316 51.8672C137.161 51.4115 137.084 50.917 137.084 50.3838ZM138.349 50.2266V50.3838C138.349 50.7529 138.392 51.1016 138.479 51.4297C138.565 51.7533 138.695 52.0404 138.868 52.291C139.046 52.5417 139.267 52.7399 139.531 52.8857C139.796 53.027 140.103 53.0977 140.454 53.0977C140.8 53.0977 141.104 53.027 141.363 52.8857C141.628 52.7399 141.846 52.5417 142.02 52.291C142.193 52.0404 142.323 51.7533 142.409 51.4297C142.5 51.1016 142.546 50.7529 142.546 50.3838V50.2266C142.546 49.862 142.5 49.5179 142.409 49.1943C142.323 48.8662 142.19 48.5768 142.013 48.3262C141.84 48.071 141.621 47.8704 141.356 47.7246C141.097 47.5788 140.791 47.5059 140.44 47.5059C140.094 47.5059 139.789 47.5788 139.524 47.7246C139.265 47.8704 139.046 48.071 138.868 48.3262C138.695 48.5768 138.565 48.8662 138.479 49.1943C138.392 49.5179 138.349 49.862 138.349 50.2266ZM150.147 43.3838H151.187C151.187 43.8304 151.118 44.1859 150.981 44.4502C150.845 44.71 150.658 44.9105 150.421 45.0518C150.188 45.193 149.924 45.3001 149.628 45.373C149.336 45.446 149.033 45.5166 148.719 45.585C148.327 45.667 147.962 45.7969 147.625 45.9746C147.292 46.1478 147.005 46.3939 146.764 46.7129C146.527 47.0319 146.351 47.4466 146.237 47.957C146.128 48.4674 146.098 49.0986 146.148 49.8506V50.4795H145.109V49.8506C145.109 49.0075 145.189 48.2715 145.349 47.6426C145.513 47.0137 145.743 46.4827 146.039 46.0498C146.335 45.6169 146.686 45.2728 147.092 45.0176C147.502 44.7624 147.953 44.5869 148.445 44.4912C148.801 44.4229 149.106 44.3499 149.361 44.2725C149.617 44.1904 149.81 44.0811 149.942 43.9443C150.079 43.8076 150.147 43.6208 150.147 43.3838ZM148.65 47.0273C149.133 47.0273 149.564 47.1117 149.942 47.2803C150.321 47.4489 150.642 47.6836 150.906 47.9844C151.171 48.2852 151.371 48.6406 151.508 49.0508C151.649 49.4564 151.72 49.8984 151.72 50.377V50.5273C151.72 51.0423 151.645 51.5208 151.494 51.9629C151.348 52.4004 151.132 52.7832 150.845 53.1113C150.562 53.4349 150.216 53.6878 149.806 53.8701C149.4 54.0524 148.938 54.1436 148.418 54.1436C147.898 54.1436 147.434 54.0524 147.023 53.8701C146.618 53.6878 146.271 53.4349 145.984 53.1113C145.697 52.7832 145.479 52.4004 145.328 51.9629C145.182 51.5208 145.109 51.0423 145.109 50.5273V50.377C145.109 50.263 145.13 50.1514 145.171 50.042C145.212 49.9326 145.262 49.821 145.321 49.707C145.385 49.5931 145.442 49.4723 145.492 49.3447C145.661 48.9346 145.891 48.554 146.183 48.2031C146.479 47.8522 146.832 47.5697 147.242 47.3555C147.657 47.1367 148.126 47.0273 148.65 47.0273ZM148.404 48.0596C147.939 48.0596 147.557 48.1667 147.256 48.3809C146.96 48.5951 146.739 48.8799 146.593 49.2354C146.447 49.5863 146.374 49.9668 146.374 50.377V50.5273C146.374 50.8737 146.415 51.2018 146.497 51.5117C146.579 51.8216 146.702 52.0973 146.866 52.3389C147.035 52.5758 147.247 52.7627 147.502 52.8994C147.762 53.0361 148.067 53.1045 148.418 53.1045C148.769 53.1045 149.072 53.0361 149.327 52.8994C149.582 52.7627 149.792 52.5758 149.956 52.3389C150.12 52.0973 150.243 51.8216 150.325 51.5117C150.407 51.2018 150.448 50.8737 150.448 50.5273V50.377C150.448 50.0671 150.407 49.7731 150.325 49.4951C150.243 49.2171 150.118 48.971 149.949 48.7568C149.785 48.5426 149.573 48.374 149.313 48.251C149.058 48.1234 148.755 48.0596 148.404 48.0596ZM154.297 48.0254V56.8438H153.025V46.6035H154.188L154.297 48.0254ZM159.28 50.2402V50.3838C159.28 50.9215 159.216 51.4206 159.089 51.8809C158.961 52.3366 158.774 52.7331 158.528 53.0703C158.287 53.4076 157.988 53.6696 157.633 53.8564C157.277 54.0433 156.869 54.1367 156.409 54.1367C155.94 54.1367 155.525 54.0592 155.165 53.9043C154.805 53.7493 154.5 53.5238 154.249 53.2275C153.998 52.9313 153.798 52.5758 153.647 52.1611C153.502 51.7464 153.401 51.2793 153.347 50.7598V49.9941C153.401 49.4473 153.504 48.9574 153.654 48.5244C153.805 48.0915 154.003 47.7223 154.249 47.417C154.5 47.1071 154.803 46.8724 155.158 46.7129C155.514 46.5488 155.924 46.4668 156.389 46.4668C156.854 46.4668 157.266 46.5579 157.626 46.7402C157.986 46.918 158.289 47.1732 158.535 47.5059C158.781 47.8385 158.966 48.2373 159.089 48.7021C159.216 49.1624 159.28 49.6751 159.28 50.2402ZM158.009 50.3838V50.2402C158.009 49.8711 157.97 49.5247 157.893 49.2012C157.815 48.873 157.694 48.5859 157.53 48.3398C157.371 48.0892 157.166 47.8932 156.915 47.752C156.664 47.6061 156.366 47.5332 156.02 47.5332C155.701 47.5332 155.423 47.5879 155.186 47.6973C154.953 47.8066 154.755 47.9548 154.591 48.1416C154.427 48.3239 154.292 48.5335 154.188 48.7705C154.087 49.0029 154.012 49.2445 153.962 49.4951V51.2656C154.053 51.5846 154.181 51.8854 154.345 52.168C154.509 52.446 154.728 52.6715 155.001 52.8447C155.274 53.0133 155.618 53.0977 156.033 53.0977C156.375 53.0977 156.669 53.027 156.915 52.8857C157.166 52.7399 157.371 52.5417 157.53 52.291C157.694 52.0404 157.815 51.7533 157.893 51.4297C157.97 51.1016 158.009 50.7529 158.009 50.3838ZM163.963 54.1367C163.448 54.1367 162.981 54.0501 162.562 53.877C162.147 53.6992 161.789 53.4508 161.488 53.1318C161.192 52.8128 160.964 52.4346 160.805 51.9971C160.645 51.5596 160.565 51.0811 160.565 50.5615V50.2744C160.565 49.6729 160.654 49.1374 160.832 48.668C161.01 48.194 161.251 47.793 161.557 47.4648C161.862 47.1367 162.208 46.8883 162.596 46.7197C162.983 46.5511 163.384 46.4668 163.799 46.4668C164.327 46.4668 164.783 46.5579 165.166 46.7402C165.553 46.9225 165.87 47.1777 166.116 47.5059C166.362 47.8294 166.545 48.2122 166.663 48.6543C166.782 49.0918 166.841 49.5703 166.841 50.0898V50.6572H161.317V49.625H165.576V49.5293C165.558 49.2012 165.49 48.8822 165.371 48.5723C165.257 48.2624 165.075 48.0072 164.824 47.8066C164.574 47.6061 164.232 47.5059 163.799 47.5059C163.512 47.5059 163.247 47.5674 163.006 47.6904C162.764 47.8089 162.557 47.9867 162.384 48.2236C162.211 48.4606 162.076 48.75 161.98 49.0918C161.885 49.4336 161.837 49.8278 161.837 50.2744V50.5615C161.837 50.9124 161.885 51.2428 161.98 51.5527C162.081 51.8581 162.224 52.127 162.411 52.3594C162.603 52.5918 162.833 52.7741 163.102 52.9062C163.375 53.0384 163.685 53.1045 164.031 53.1045C164.478 53.1045 164.856 53.0133 165.166 52.8311C165.476 52.6488 165.747 52.4049 165.979 52.0996L166.745 52.708C166.586 52.9495 166.383 53.1797 166.137 53.3984C165.891 53.6172 165.588 53.7949 165.228 53.9316C164.872 54.0684 164.451 54.1367 163.963 54.1367ZM173.335 49.8096V50.835H169.425V49.8096H173.335ZM169.691 46.6035V54H168.427V46.6035H169.691ZM174.36 46.6035V54H173.089V46.6035H174.36ZM177.73 46.6035H178.995L178.886 49.3721C178.858 50.0739 178.779 50.68 178.646 51.1904C178.514 51.7008 178.346 52.1361 178.141 52.4961C177.936 52.8516 177.705 53.1501 177.45 53.3916C177.2 53.6331 176.94 53.8359 176.671 54H176.042L176.076 52.9678L176.336 52.9609C176.486 52.7832 176.632 52.6009 176.773 52.4141C176.915 52.2227 177.045 51.9971 177.163 51.7373C177.282 51.473 177.38 51.1517 177.457 50.7734C177.539 50.3906 177.591 49.9235 177.614 49.3721L177.73 46.6035ZM178.045 46.6035H182.495V54H181.23V47.7725H178.045V46.6035ZM175.755 52.9609H183.445V56.1807H182.181V54H177.02V56.1807H175.748L175.755 52.9609ZM189.208 52.7354V48.9277C189.208 48.6361 189.149 48.3831 189.03 48.1689C188.916 47.9502 188.743 47.7816 188.511 47.6631C188.278 47.5446 187.991 47.4854 187.649 47.4854C187.33 47.4854 187.05 47.54 186.809 47.6494C186.572 47.7588 186.385 47.9023 186.248 48.0801C186.116 48.2578 186.05 48.4492 186.05 48.6543H184.785C184.785 48.39 184.854 48.1279 184.99 47.8682C185.127 47.6084 185.323 47.3737 185.578 47.1641C185.838 46.9499 186.148 46.7812 186.508 46.6582C186.872 46.5306 187.278 46.4668 187.725 46.4668C188.262 46.4668 188.736 46.5579 189.146 46.7402C189.561 46.9225 189.885 47.1982 190.117 47.5674C190.354 47.932 190.473 48.39 190.473 48.9414V52.3867C190.473 52.6328 190.493 52.8949 190.534 53.1729C190.58 53.4508 190.646 53.6901 190.732 53.8906V54H189.413C189.349 53.8542 189.299 53.6605 189.263 53.4189C189.226 53.1729 189.208 52.945 189.208 52.7354ZM189.427 49.5156L189.44 50.4043H188.162C187.802 50.4043 187.481 50.4339 187.198 50.4932C186.916 50.5479 186.679 50.6322 186.487 50.7461C186.296 50.86 186.15 51.0036 186.05 51.1768C185.95 51.3454 185.899 51.5436 185.899 51.7715C185.899 52.0039 185.952 52.2158 186.057 52.4072C186.161 52.5986 186.319 52.7513 186.528 52.8652C186.743 52.9746 187.005 53.0293 187.314 53.0293C187.702 53.0293 188.044 52.9473 188.34 52.7832C188.636 52.6191 188.871 52.4186 189.044 52.1816C189.222 51.9447 189.317 51.7145 189.331 51.4912L189.871 52.0996C189.839 52.291 189.753 52.5029 189.611 52.7354C189.47 52.9678 189.281 53.1911 189.044 53.4053C188.812 53.6149 188.534 53.7904 188.21 53.9316C187.891 54.0684 187.531 54.1367 187.13 54.1367C186.629 54.1367 186.189 54.0387 185.811 53.8428C185.437 53.6468 185.145 53.3848 184.936 53.0566C184.73 52.724 184.628 52.3525 184.628 51.9424C184.628 51.5459 184.705 51.1973 184.86 50.8965C185.015 50.5911 185.239 50.3382 185.53 50.1377C185.822 49.9326 186.173 49.7777 186.583 49.6729C186.993 49.568 187.451 49.5156 187.957 49.5156H189.427ZM199.53 44.0469V54H198.231V44.0469H199.53ZM202.729 44.0469V45.127H195.039V44.0469H202.729ZM211.678 48.709V49.3379C211.678 50.0853 211.584 50.7552 211.397 51.3477C211.211 51.9401 210.942 52.4437 210.591 52.8584C210.24 53.2731 209.818 53.5898 209.326 53.8086C208.839 54.0273 208.292 54.1367 207.686 54.1367C207.098 54.1367 206.558 54.0273 206.065 53.8086C205.578 53.5898 205.154 53.2731 204.794 52.8584C204.438 52.4437 204.163 51.9401 203.967 51.3477C203.771 50.7552 203.673 50.0853 203.673 49.3379V48.709C203.673 47.9616 203.769 47.2939 203.96 46.7061C204.156 46.1136 204.432 45.61 204.787 45.1953C205.143 44.776 205.564 44.457 206.052 44.2383C206.544 44.0195 207.084 43.9102 207.672 43.9102C208.278 43.9102 208.825 44.0195 209.312 44.2383C209.805 44.457 210.226 44.776 210.577 45.1953C210.933 45.61 211.204 46.1136 211.391 46.7061C211.582 47.2939 211.678 47.9616 211.678 48.709ZM210.372 49.3379V48.6953C210.372 48.1029 210.311 47.5788 210.188 47.123C210.069 46.6673 209.894 46.2845 209.661 45.9746C209.429 45.6647 209.144 45.43 208.807 45.2705C208.474 45.111 208.096 45.0312 207.672 45.0312C207.262 45.0312 206.89 45.111 206.558 45.2705C206.229 45.43 205.947 45.6647 205.71 45.9746C205.478 46.2845 205.298 46.6673 205.17 47.123C205.042 47.5788 204.979 48.1029 204.979 48.6953V49.3379C204.979 49.9349 205.042 50.4635 205.17 50.9238C205.298 51.3796 205.48 51.7646 205.717 52.0791C205.958 52.389 206.243 52.6237 206.571 52.7832C206.904 52.9427 207.275 53.0225 207.686 53.0225C208.114 53.0225 208.494 52.9427 208.827 52.7832C209.16 52.6237 209.44 52.389 209.668 52.0791C209.9 51.7646 210.076 51.3796 210.194 50.9238C210.313 50.4635 210.372 49.9349 210.372 49.3379ZM221.009 49.0439V52.6875C220.886 52.8698 220.69 53.0749 220.421 53.3027C220.152 53.526 219.781 53.722 219.307 53.8906C218.837 54.0547 218.231 54.1367 217.488 54.1367C216.882 54.1367 216.324 54.0319 215.813 53.8223C215.308 53.6081 214.868 53.2982 214.494 52.8926C214.125 52.4824 213.838 51.9857 213.633 51.4023C213.432 50.8145 213.332 50.1491 213.332 49.4062V48.6338C213.332 47.891 213.419 47.2279 213.592 46.6445C213.77 46.0612 214.029 45.5667 214.371 45.1611C214.713 44.751 215.132 44.4411 215.629 44.2314C216.126 44.0173 216.695 43.9102 217.338 43.9102C218.099 43.9102 218.735 44.0423 219.245 44.3066C219.76 44.5664 220.161 44.9264 220.448 45.3867C220.74 45.847 220.927 46.3711 221.009 46.959H219.689C219.63 46.599 219.512 46.2708 219.334 45.9746C219.161 45.6784 218.912 45.4414 218.589 45.2637C218.265 45.0814 217.848 44.9902 217.338 44.9902C216.878 44.9902 216.479 45.0745 216.142 45.2432C215.804 45.4118 215.526 45.6533 215.308 45.9678C215.089 46.2822 214.925 46.6628 214.815 47.1094C214.711 47.556 214.658 48.0596 214.658 48.6201V49.4062C214.658 49.9805 214.724 50.4932 214.856 50.9443C214.993 51.3955 215.187 51.7806 215.438 52.0996C215.688 52.4141 215.987 52.6533 216.333 52.8174C216.684 52.9814 217.071 53.0635 217.495 53.0635C217.965 53.0635 218.345 53.0247 218.637 52.9473C218.928 52.8652 219.156 52.7695 219.32 52.6602C219.484 52.5462 219.61 52.4391 219.696 52.3389V50.1104H217.393V49.0439H221.009ZM230.859 48.709V49.3379C230.859 50.0853 230.766 50.7552 230.579 51.3477C230.392 51.9401 230.123 52.4437 229.772 52.8584C229.422 53.2731 229 53.5898 228.508 53.8086C228.02 54.0273 227.473 54.1367 226.867 54.1367C226.279 54.1367 225.739 54.0273 225.247 53.8086C224.759 53.5898 224.336 53.2731 223.976 52.8584C223.62 52.4437 223.344 51.9401 223.148 51.3477C222.952 50.7552 222.854 50.0853 222.854 49.3379V48.709C222.854 47.9616 222.95 47.2939 223.142 46.7061C223.338 46.1136 223.613 45.61 223.969 45.1953C224.324 44.776 224.746 44.457 225.233 44.2383C225.726 44.0195 226.266 43.9102 226.854 43.9102C227.46 43.9102 228.007 44.0195 228.494 44.2383C228.986 44.457 229.408 44.776 229.759 45.1953C230.114 45.61 230.385 46.1136 230.572 46.7061C230.764 47.2939 230.859 47.9616 230.859 48.709ZM229.554 49.3379V48.6953C229.554 48.1029 229.492 47.5788 229.369 47.123C229.251 46.6673 229.075 46.2845 228.843 45.9746C228.61 45.6647 228.326 45.43 227.988 45.2705C227.656 45.111 227.277 45.0312 226.854 45.0312C226.443 45.0312 226.072 45.111 225.739 45.2705C225.411 45.43 225.129 45.6647 224.892 45.9746C224.659 46.2845 224.479 46.6673 224.352 47.123C224.224 47.5788 224.16 48.1029 224.16 48.6953V49.3379C224.16 49.9349 224.224 50.4635 224.352 50.9238C224.479 51.3796 224.661 51.7646 224.898 52.0791C225.14 52.389 225.425 52.6237 225.753 52.7832C226.086 52.9427 226.457 53.0225 226.867 53.0225C227.296 53.0225 227.676 52.9427 228.009 52.7832C228.341 52.6237 228.622 52.389 228.85 52.0791C229.082 51.7646 229.257 51.3796 229.376 50.9238C229.494 50.4635 229.554 49.9349 229.554 49.3379Z" fill="black"/>
<path d="M85 42.3469L59 42.3469" stroke="#00A3FF" stroke-miterlimit="10" stroke-linecap="round"/>
<path d="M80 41.8235C79.9954 43.3078 80.4313 44.7602 81.2526 45.9966C82.0739 47.2331 83.2436 48.198 84.6136 48.7693C85.9837 49.3405 87.4924 49.4924 88.9488 49.2057C90.4052 48.9189 91.7437 48.2065 92.795 47.1585C93.8462 46.1106 94.5629 44.7742 94.8542 43.3187C95.1455 41.8632 94.9983 40.354 94.4313 38.9822C93.8644 37.6104 92.9031 36.4377 91.6692 35.6126C90.4354 34.7874 88.9844 34.3469 87.5 34.3469C85.515 34.3469 83.6108 35.1339 82.205 36.5353C80.7991 37.9368 80.0062 39.8384 80 41.8235V41.8235Z" fill="#00A3FF"/>
<path d="M87.4766 44.7532C85.8586 44.7532 84.5469 43.4415 84.5469 41.8235C84.5469 40.2055 85.8586 38.8938 87.4766 38.8938C89.0946 38.8938 90.4062 40.2055 90.4062 41.8235C90.4062 43.4415 89.0946 44.7532 87.4766 44.7532Z" fill="white"/>
<defs>
<filter id="filter0_d_315_360" x="262.322" y="0.669434" width="83.3555" height="83.3555" filterUnits="userSpaceOnUse" color-interpolation-filters="sRGB">
<feFlood flood-opacity="0" result="BackgroundImageFix"/>
<feColorMatrix in="SourceAlpha" type="matrix" values="0 0 0 0 0 0 0 0 0 0 0 0 0 0 0 0 0 0 127 0" result="hardAlpha"/>
<feOffset/>
<feGaussianBlur stdDeviation="12"/>
<feComposite in2="hardAlpha" operator="out"/>
<feColorMatrix type="matrix" values="0 0 0 0 0.579167 0 0 0 0 0.579167 0 0 0 0 0.579167 0 0 0 0.3 0"/>
<feBlend mode="normal" in2="BackgroundImageFix" result="effect1_dropShadow_315_360"/>
<feBlend mode="normal" in="SourceGraphic" in2="effect1_dropShadow_315_360" result="shape"/>
</filter>
</defs>
</svg>
