<svg width="672" height="125" viewBox="0 0 672 125" fill="none" xmlns="http://www.w3.org/2000/svg">
<path d="M175.294 65L57.2942 65" stroke="#00A3FF" stroke-miterlimit="10" stroke-linecap="round"/>
<g filter="url(#filter0_d_802_787)">
<path d="M32.5736 85.7315C21.2112 74.3745 21.2111 55.961 32.5736 44.6039C43.936 33.2468 62.3582 33.2468 73.7207 44.6039C85.0831 55.961 85.0831 74.3745 73.7207 85.7315C62.3582 97.0886 43.9361 97.0886 32.5736 85.7315Z" fill="white"/>
</g>
<path d="M44.0534 65.1647C44.0481 66.8873 44.5533 68.573 45.5053 70.009C46.4572 71.445 47.8133 72.5671 49.4025 73.2338C50.9917 73.9004 52.7428 74.0817 54.435 73.7549C56.1271 73.428 57.6846 72.6076 58.9108 71.3971C60.1371 70.1866 60.9772 68.6402 61.3253 66.9531C61.6734 65.2659 61.5138 63.5135 60.8667 61.9169C60.2196 60.3202 59.114 58.9509 57.6892 57.9816C56.2645 57.0122 54.5845 56.4863 52.8611 56.4702C51.7096 56.4557 50.5668 56.67 49.4988 57.1004C48.4308 57.5309 47.459 58.1691 46.6396 58.9779C45.8203 59.7867 45.1698 60.75 44.7258 61.8121C44.2819 62.8741 44.0534 64.0137 44.0534 65.1647Z" fill="#00A3FF"/>
<path d="M52.7519 68.5714C50.8694 68.5714 49.3434 67.0461 49.3434 65.1645C49.3434 63.2829 50.8694 61.7576 52.7519 61.7576C54.6344 61.7576 56.1604 63.2829 56.1604 65.1645C56.1604 67.0461 54.6344 68.5714 52.7519 68.5714Z" fill="white"/>
<path d="M172.842 65.1645C172.837 66.8906 173.344 68.5796 174.3 70.0174C175.255 71.4553 176.616 72.5774 178.21 73.2417C179.804 73.906 181.559 74.0827 183.254 73.7492C184.948 73.4158 186.506 72.5873 187.729 71.3686C188.952 70.1499 189.786 68.5959 190.125 66.9033C190.463 65.2107 190.292 63.4557 189.633 61.8604C188.973 60.2651 187.855 58.9013 186.419 57.9418C184.983 56.9822 183.295 56.47 181.568 56.47C179.259 56.47 177.043 57.3851 175.408 59.0149C173.772 60.6446 172.85 62.856 172.842 65.1645Z" fill="#00A3FF"/>
<path d="M181.541 68.5714C179.658 68.5714 178.132 67.0461 178.132 65.1645C178.132 63.2829 179.658 61.7576 181.541 61.7576C183.423 61.7576 184.949 63.2829 184.949 65.1645C184.949 67.0461 183.423 68.5714 181.541 68.5714Z" fill="white"/>
<path d="M640.304 93.2599C657.481 76.0913 657.481 48.2554 640.304 31.0867C623.127 13.9181 595.278 13.918 578.102 31.0867C560.925 48.2553 560.925 76.0913 578.102 93.26C595.278 110.429 623.128 110.429 640.304 93.2599Z" fill="#00A3FF"/>
<path d="M617.391 65.978H620.594V71.1733H617.391V76.1733H611.395V71.1733H598.192V65.1772L610.399 48.1655H617.391V65.978ZM611.395 65.978V55.1772L603.797 65.978H611.395Z" fill="white"/>
<path d="M247.708 55.5752V56.3389C247.708 57.2464 247.595 58.0599 247.368 58.7793C247.141 59.4987 246.815 60.1102 246.388 60.6138C245.962 61.1174 245.45 61.502 244.853 61.7676C244.261 62.0332 243.597 62.166 242.861 62.166C242.147 62.166 241.491 62.0332 240.893 61.7676C240.301 61.502 239.787 61.1174 239.349 60.6138C238.918 60.1102 238.583 59.4987 238.345 58.7793C238.107 58.0599 237.988 57.2464 237.988 56.3389V55.5752C237.988 54.6676 238.104 53.8569 238.337 53.1431C238.575 52.4237 238.909 51.8122 239.341 51.3086C239.773 50.7995 240.285 50.4121 240.877 50.1465C241.474 49.8809 242.13 49.748 242.844 49.748C243.58 49.748 244.244 49.8809 244.836 50.1465C245.434 50.4121 245.946 50.7995 246.372 51.3086C246.803 51.8122 247.133 52.4237 247.36 53.1431C247.592 53.8569 247.708 54.6676 247.708 55.5752ZM246.123 56.3389V55.5586C246.123 54.8392 246.048 54.2028 245.899 53.6494C245.755 53.096 245.542 52.6312 245.26 52.2549C244.977 51.8786 244.631 51.5936 244.222 51.3999C243.818 51.2062 243.359 51.1094 242.844 51.1094C242.346 51.1094 241.895 51.2062 241.491 51.3999C241.093 51.5936 240.749 51.8786 240.462 52.2549C240.179 52.6312 239.961 53.096 239.806 53.6494C239.651 54.2028 239.573 54.8392 239.573 55.5586V56.3389C239.573 57.0638 239.651 57.7057 239.806 58.2646C239.961 58.818 240.182 59.2856 240.47 59.6675C240.763 60.0438 241.109 60.3288 241.508 60.5225C241.912 60.7161 242.363 60.813 242.861 60.813C243.381 60.813 243.843 60.7161 244.247 60.5225C244.651 60.3288 244.991 60.0438 245.268 59.6675C245.55 59.2856 245.763 58.818 245.907 58.2646C246.051 57.7057 246.123 57.0638 246.123 56.3389ZM253.535 53.0186V62H251.991V53.0186H253.535ZM256.549 53.0186V54.2637H249.036V53.0186H256.549ZM259.728 53.0186V62H258.192V53.0186H259.728ZM265.621 53.0186L261.363 58.165H259.213L258.981 56.8203H260.74L263.754 53.0186H265.621ZM263.969 62L260.666 57.9326L261.654 56.8203L265.92 62H263.969ZM268.792 54.7451V65.4531H267.248V53.0186H268.659L268.792 54.7451ZM274.844 57.4346V57.6089C274.844 58.2619 274.766 58.8678 274.611 59.4268C274.456 59.9801 274.229 60.4616 273.93 60.8711C273.637 61.2806 273.275 61.5988 272.843 61.8257C272.411 62.0526 271.916 62.166 271.357 62.166C270.787 62.166 270.284 62.0719 269.846 61.8838C269.409 61.6956 269.038 61.4217 268.734 61.062C268.43 60.7023 268.186 60.2707 268.004 59.7671C267.827 59.2635 267.705 58.6963 267.638 58.0654V57.1357C267.705 56.4717 267.829 55.8768 268.012 55.3511C268.195 54.8254 268.435 54.3771 268.734 54.0063C269.038 53.63 269.406 53.3451 269.838 53.1514C270.27 52.9521 270.768 52.8525 271.332 52.8525C271.897 52.8525 272.398 52.9632 272.835 53.1846C273.272 53.4004 273.64 53.7103 273.939 54.1143C274.238 54.5182 274.462 55.0024 274.611 55.5669C274.766 56.1258 274.844 56.7484 274.844 57.4346ZM273.3 57.6089V57.4346C273.3 56.9863 273.253 56.5658 273.158 56.1729C273.064 55.7744 272.918 55.4258 272.719 55.127C272.525 54.8226 272.276 54.5846 271.971 54.4131C271.667 54.236 271.305 54.1475 270.884 54.1475C270.497 54.1475 270.159 54.2139 269.871 54.3467C269.589 54.4795 269.348 54.6593 269.149 54.8862C268.95 55.1076 268.787 55.3621 268.659 55.6499C268.538 55.9321 268.446 56.2254 268.385 56.5298V58.6797C268.496 59.0671 268.651 59.4323 268.85 59.7754C269.05 60.113 269.315 60.3869 269.647 60.5972C269.979 60.8019 270.397 60.9043 270.901 60.9043C271.316 60.9043 271.673 60.8185 271.971 60.647C272.276 60.4699 272.525 60.2292 272.719 59.9248C272.918 59.6204 273.064 59.2718 273.158 58.8789C273.253 58.4805 273.3 58.0571 273.3 57.6089ZM278.064 56.1064H280.762C281.487 56.1064 282.098 56.2337 282.596 56.4883C283.094 56.7373 283.471 57.0832 283.725 57.5259C283.985 57.9631 284.115 58.4611 284.115 59.02C284.115 59.4351 284.044 59.8252 283.9 60.1904C283.756 60.5501 283.54 60.8656 283.252 61.1367C282.97 61.4079 282.619 61.6209 282.198 61.7759C281.783 61.9253 281.304 62 280.762 62H276.944V53.0186H278.479V60.7383H280.762C281.205 60.7383 281.559 60.658 281.824 60.4976C282.09 60.3371 282.281 60.1296 282.397 59.875C282.513 59.6204 282.572 59.3548 282.572 59.0781C282.572 58.807 282.513 58.5413 282.397 58.2812C282.281 58.0212 282.09 57.8053 281.824 57.6338C281.559 57.4567 281.205 57.3682 280.762 57.3682H278.064V56.1064ZM287.311 53.0186V62H285.776V53.0186H287.311ZM293.661 53.0186V62H292.117V53.0186H293.661ZM296.675 53.0186V54.2637H289.162V53.0186H296.675ZM299.845 59.5679L303.988 53.0186H305.531V62H303.988V55.4507L299.845 62H298.318V53.0186H299.845V59.5679ZM311.724 62.166C311.099 62.166 310.531 62.0609 310.022 61.8506C309.519 61.6348 309.084 61.3332 308.719 60.9458C308.359 60.5584 308.083 60.0991 307.889 59.5679C307.695 59.0366 307.598 58.4556 307.598 57.8247V57.4761C307.598 56.7456 307.706 56.0954 307.922 55.5254C308.138 54.9499 308.431 54.4629 308.802 54.0645C309.173 53.666 309.593 53.3644 310.064 53.1597C310.534 52.9549 311.021 52.8525 311.525 52.8525C312.167 52.8525 312.72 52.9632 313.185 53.1846C313.655 53.4059 314.04 53.7158 314.339 54.1143C314.637 54.5072 314.859 54.972 315.003 55.5088C315.147 56.04 315.219 56.6211 315.219 57.252V57.9409H308.511V56.6875H313.683V56.5713C313.661 56.1729 313.578 55.7855 313.434 55.4092C313.295 55.0329 313.074 54.723 312.77 54.4795C312.465 54.236 312.05 54.1143 311.525 54.1143C311.176 54.1143 310.855 54.189 310.562 54.3384C310.268 54.4823 310.017 54.6981 309.806 54.9858C309.596 55.2736 309.433 55.625 309.317 56.04C309.2 56.4551 309.142 56.9338 309.142 57.4761V57.8247C309.142 58.2508 309.2 58.652 309.317 59.0283C309.438 59.3991 309.613 59.7256 309.84 60.0078C310.072 60.29 310.351 60.5114 310.678 60.6719C311.01 60.8324 311.386 60.9126 311.807 60.9126C312.349 60.9126 312.809 60.8019 313.185 60.5806C313.561 60.3592 313.89 60.0632 314.173 59.6924L315.102 60.4312C314.909 60.7244 314.662 61.0039 314.364 61.2695C314.065 61.5352 313.697 61.751 313.26 61.917C312.828 62.083 312.316 62.166 311.724 62.166ZM324.823 60.9043C325.188 60.9043 325.525 60.8296 325.835 60.6802C326.145 60.5308 326.4 60.326 326.599 60.0659C326.798 59.8003 326.912 59.4987 326.939 59.1611H328.4C328.372 59.6924 328.193 60.1877 327.861 60.647C327.534 61.1007 327.105 61.4688 326.574 61.751C326.043 62.0277 325.459 62.166 324.823 62.166C324.147 62.166 323.558 62.047 323.054 61.8091C322.556 61.5711 322.141 61.2446 321.809 60.8296C321.483 60.4146 321.237 59.9386 321.071 59.4019C320.91 58.8595 320.83 58.2868 320.83 57.6836V57.335C320.83 56.7318 320.91 56.1618 321.071 55.625C321.237 55.0827 321.483 54.604 321.809 54.189C322.141 53.7739 322.556 53.4474 323.054 53.2095C323.558 52.9715 324.147 52.8525 324.823 52.8525C325.525 52.8525 326.14 52.9964 326.665 53.2842C327.191 53.5664 327.603 53.9538 327.902 54.4463C328.206 54.9333 328.372 55.4867 328.4 56.1064H326.939C326.912 55.7357 326.806 55.4009 326.624 55.1021C326.447 54.8032 326.203 54.5653 325.893 54.3882C325.589 54.2056 325.232 54.1143 324.823 54.1143C324.352 54.1143 323.956 54.2083 323.635 54.3965C323.32 54.5791 323.068 54.8281 322.88 55.1436C322.698 55.4535 322.565 55.7993 322.482 56.1812C322.404 56.5575 322.365 56.9421 322.365 57.335V57.6836C322.365 58.0765 322.404 58.4639 322.482 58.8457C322.559 59.2275 322.689 59.5734 322.872 59.8833C323.06 60.1932 323.312 60.4422 323.627 60.6304C323.948 60.813 324.347 60.9043 324.823 60.9043ZM329.72 57.6089V57.418C329.72 56.7705 329.814 56.1701 330.002 55.6167C330.19 55.0578 330.462 54.5736 330.816 54.1641C331.17 53.749 331.599 53.4281 332.102 53.2012C332.606 52.9688 333.17 52.8525 333.796 52.8525C334.427 52.8525 334.994 52.9688 335.497 53.2012C336.006 53.4281 336.438 53.749 336.792 54.1641C337.152 54.5736 337.426 55.0578 337.614 55.6167C337.802 56.1701 337.896 56.7705 337.896 57.418V57.6089C337.896 58.2563 337.802 58.8568 337.614 59.4102C337.426 59.9635 337.152 60.4478 336.792 60.8628C336.438 61.2723 336.009 61.5933 335.506 61.8257C335.008 62.0526 334.443 62.166 333.812 62.166C333.181 62.166 332.614 62.0526 332.111 61.8257C331.607 61.5933 331.175 61.2723 330.816 60.8628C330.462 60.4478 330.19 59.9635 330.002 59.4102C329.814 58.8568 329.72 58.2563 329.72 57.6089ZM331.256 57.418V57.6089C331.256 58.0571 331.308 58.4805 331.413 58.8789C331.518 59.2718 331.676 59.6204 331.886 59.9248C332.102 60.2292 332.371 60.4699 332.692 60.647C333.013 60.8185 333.386 60.9043 333.812 60.9043C334.233 60.9043 334.601 60.8185 334.916 60.647C335.237 60.4699 335.503 60.2292 335.713 59.9248C335.923 59.6204 336.081 59.2718 336.186 58.8789C336.297 58.4805 336.352 58.0571 336.352 57.6089V57.418C336.352 56.9753 336.297 56.5575 336.186 56.1646C336.081 55.7661 335.921 55.4147 335.705 55.1104C335.495 54.8005 335.229 54.557 334.908 54.3799C334.593 54.2028 334.222 54.1143 333.796 54.1143C333.375 54.1143 333.004 54.2028 332.683 54.3799C332.368 54.557 332.102 54.8005 331.886 55.1104C331.676 55.4147 331.518 55.7661 331.413 56.1646C331.308 56.5575 331.256 56.9753 331.256 57.418ZM344.039 58.0488H341.092L341.075 56.8203H343.483C343.959 56.8203 344.354 56.7733 344.67 56.6792C344.991 56.5851 345.231 56.444 345.392 56.2559C345.552 56.0677 345.633 55.8353 345.633 55.5586C345.633 55.3428 345.586 55.1546 345.491 54.9941C345.403 54.8281 345.267 54.6925 345.085 54.5874C344.902 54.4767 344.675 54.3965 344.404 54.3467C344.138 54.2913 343.826 54.2637 343.466 54.2637H341.499V62H339.963V53.0186H343.466C344.036 53.0186 344.548 53.0684 345.002 53.168C345.461 53.2676 345.851 53.4198 346.172 53.6245C346.499 53.8237 346.748 54.0783 346.919 54.3882C347.091 54.6981 347.177 55.0633 347.177 55.4839C347.177 55.755 347.121 56.0124 347.01 56.2559C346.9 56.4993 346.737 56.7152 346.521 56.9033C346.305 57.0915 346.039 57.2464 345.724 57.3682C345.408 57.4844 345.046 57.5591 344.636 57.5923L344.039 58.0488ZM344.039 62H340.536L341.3 60.7549H344.039C344.465 60.7549 344.819 60.7023 345.101 60.5972C345.384 60.4865 345.594 60.3315 345.732 60.1323C345.876 59.9276 345.948 59.6841 345.948 59.4019C345.948 59.1196 345.876 58.8789 345.732 58.6797C345.594 58.4749 345.384 58.32 345.101 58.2148C344.819 58.1042 344.465 58.0488 344.039 58.0488H341.706L341.723 56.8203H344.636L345.193 57.2852C345.685 57.3239 346.103 57.4456 346.446 57.6504C346.789 57.8551 347.049 58.1152 347.226 58.4307C347.403 58.7406 347.492 59.0781 347.492 59.4434C347.492 59.8639 347.412 60.2347 347.251 60.5557C347.096 60.8766 346.869 61.145 346.571 61.3608C346.272 61.5711 345.909 61.7316 345.483 61.8423C345.057 61.9474 344.576 62 344.039 62ZM354.714 59.958L357.768 53.0186H359.246L355.245 62H354.182L350.198 53.0186H351.676L354.714 59.958ZM351.227 53.0186V62H349.692V53.0186H351.227ZM358.15 62V53.0186H359.694V62H358.15ZM365.895 62.166C365.269 62.166 364.702 62.0609 364.193 61.8506C363.69 61.6348 363.255 61.3332 362.89 60.9458C362.53 60.5584 362.253 60.0991 362.06 59.5679C361.866 59.0366 361.769 58.4556 361.769 57.8247V57.4761C361.769 56.7456 361.877 56.0954 362.093 55.5254C362.309 54.9499 362.602 54.4629 362.973 54.0645C363.344 53.666 363.764 53.3644 364.235 53.1597C364.705 52.9549 365.192 52.8525 365.696 52.8525C366.337 52.8525 366.891 52.9632 367.356 53.1846C367.826 53.4059 368.211 53.7158 368.51 54.1143C368.808 54.5072 369.03 54.972 369.174 55.5088C369.317 56.04 369.389 56.6211 369.389 57.252V57.9409H362.682V56.6875H367.854V56.5713C367.832 56.1729 367.749 55.7855 367.605 55.4092C367.466 55.0329 367.245 54.723 366.941 54.4795C366.636 54.236 366.221 54.1143 365.696 54.1143C365.347 54.1143 365.026 54.189 364.733 54.3384C364.439 54.4823 364.188 54.6981 363.977 54.9858C363.767 55.2736 363.604 55.625 363.488 56.04C363.371 56.4551 363.313 56.9338 363.313 57.4761V57.8247C363.313 58.2508 363.371 58.652 363.488 59.0283C363.609 59.3991 363.784 59.7256 364.01 60.0078C364.243 60.29 364.522 60.5114 364.849 60.6719C365.181 60.8324 365.557 60.9126 365.978 60.9126C366.52 60.9126 366.979 60.8019 367.356 60.5806C367.732 60.3592 368.061 60.0632 368.344 59.6924L369.273 60.4312C369.08 60.7244 368.833 61.0039 368.534 61.2695C368.236 61.5352 367.868 61.751 367.43 61.917C366.999 62.083 366.487 62.166 365.895 62.166ZM374.777 60.9043C375.142 60.9043 375.479 60.8296 375.789 60.6802C376.099 60.5308 376.354 60.326 376.553 60.0659C376.752 59.8003 376.866 59.4987 376.893 59.1611H378.354C378.327 59.6924 378.147 60.1877 377.815 60.647C377.488 61.1007 377.059 61.4688 376.528 61.751C375.997 62.0277 375.413 62.166 374.777 62.166C374.101 62.166 373.512 62.047 373.009 61.8091C372.51 61.5711 372.095 61.2446 371.763 60.8296C371.437 60.4146 371.191 59.9386 371.025 59.4019C370.864 58.8595 370.784 58.2868 370.784 57.6836V57.335C370.784 56.7318 370.864 56.1618 371.025 55.625C371.191 55.0827 371.437 54.604 371.763 54.189C372.095 53.7739 372.51 53.4474 373.009 53.2095C373.512 52.9715 374.101 52.8525 374.777 52.8525C375.479 52.8525 376.094 52.9964 376.619 53.2842C377.145 53.5664 377.557 53.9538 377.856 54.4463C378.161 54.9333 378.327 55.4867 378.354 56.1064H376.893C376.866 55.7357 376.76 55.4009 376.578 55.1021C376.401 54.8032 376.157 54.5653 375.847 54.3882C375.543 54.2056 375.186 54.1143 374.777 54.1143C374.306 54.1143 373.911 54.2083 373.59 54.3965C373.274 54.5791 373.022 54.8281 372.834 55.1436C372.652 55.4535 372.519 55.7993 372.436 56.1812C372.358 56.5575 372.32 56.9421 372.32 57.335V57.6836C372.32 58.0765 372.358 58.4639 372.436 58.8457C372.513 59.2275 372.643 59.5734 372.826 59.8833C373.014 60.1932 373.266 60.4422 373.581 60.6304C373.902 60.813 374.301 60.9043 374.777 60.9043ZM383.741 53.0186V62H382.198V53.0186H383.741ZM386.755 53.0186V54.2637H379.242V53.0186H386.755ZM394.358 56.9116V58.1567H389.61V56.9116H394.358ZM389.934 53.0186V62H388.398V53.0186H389.934ZM395.603 53.0186V62H394.059V53.0186H395.603ZM397.67 57.6089V57.418C397.67 56.7705 397.764 56.1701 397.952 55.6167C398.141 55.0578 398.412 54.5736 398.766 54.1641C399.12 53.749 399.549 53.4281 400.052 53.2012C400.556 52.9688 401.121 52.8525 401.746 52.8525C402.377 52.8525 402.944 52.9688 403.448 53.2012C403.957 53.4281 404.388 53.749 404.742 54.1641C405.102 54.5736 405.376 55.0578 405.564 55.6167C405.752 56.1701 405.846 56.7705 405.846 57.418V57.6089C405.846 58.2563 405.752 58.8568 405.564 59.4102C405.376 59.9635 405.102 60.4478 404.742 60.8628C404.388 61.2723 403.959 61.5933 403.456 61.8257C402.958 62.0526 402.393 62.166 401.762 62.166C401.132 62.166 400.564 62.0526 400.061 61.8257C399.557 61.5933 399.126 61.2723 398.766 60.8628C398.412 60.4478 398.141 59.9635 397.952 59.4102C397.764 58.8568 397.67 58.2563 397.67 57.6089ZM399.206 57.418V57.6089C399.206 58.0571 399.258 58.4805 399.364 58.8789C399.469 59.2718 399.626 59.6204 399.837 59.9248C400.052 60.2292 400.321 60.4699 400.642 60.647C400.963 60.8185 401.336 60.9043 401.762 60.9043C402.183 60.9043 402.551 60.8185 402.866 60.647C403.187 60.4699 403.453 60.2292 403.663 59.9248C403.874 59.6204 404.031 59.2718 404.136 58.8789C404.247 58.4805 404.302 58.0571 404.302 57.6089V57.418C404.302 56.9753 404.247 56.5575 404.136 56.1646C404.031 55.7661 403.871 55.4147 403.655 55.1104C403.445 54.8005 403.179 54.557 402.858 54.3799C402.543 54.2028 402.172 54.1143 401.746 54.1143C401.325 54.1143 400.955 54.2028 400.634 54.3799C400.318 54.557 400.052 54.8005 399.837 55.1104C399.626 55.4147 399.469 55.7661 399.364 56.1646C399.258 56.5575 399.206 56.9753 399.206 57.418ZM409.432 59.5679L413.574 53.0186H415.118V62H413.574V55.4507L409.432 62H407.905V53.0186H409.432V59.5679ZM412.736 49.7646H413.981C413.981 50.1963 413.882 50.5809 413.682 50.9185C413.483 51.2505 413.198 51.5106 412.827 51.6987C412.457 51.8869 412.017 51.981 411.508 51.981C410.738 51.981 410.13 51.7762 409.681 51.3667C409.239 50.9517 409.017 50.4176 409.017 49.7646H410.262C410.262 50.0911 410.357 50.3789 410.545 50.6279C410.733 50.877 411.054 51.0015 411.508 51.0015C411.95 51.0015 412.266 50.877 412.454 50.6279C412.642 50.3789 412.736 50.0911 412.736 49.7646ZM423.469 53.0186V62H421.933V53.0186H423.469ZM429.363 53.0186L425.104 58.165H422.954L422.722 56.8203H424.482L427.495 53.0186H429.363ZM427.711 62L424.407 57.9326L425.395 56.8203L429.661 62H427.711ZM430.408 57.6089V57.418C430.408 56.7705 430.503 56.1701 430.691 55.6167C430.879 55.0578 431.15 54.5736 431.504 54.1641C431.858 53.749 432.287 53.4281 432.791 53.2012C433.294 52.9688 433.859 52.8525 434.484 52.8525C435.115 52.8525 435.682 52.9688 436.186 53.2012C436.695 53.4281 437.127 53.749 437.481 54.1641C437.84 54.5736 438.114 55.0578 438.302 55.6167C438.491 56.1701 438.585 56.7705 438.585 57.418V57.6089C438.585 58.2563 438.491 58.8568 438.302 59.4102C438.114 59.9635 437.84 60.4478 437.481 60.8628C437.127 61.2723 436.698 61.5933 436.194 61.8257C435.696 62.0526 435.132 62.166 434.501 62.166C433.87 62.166 433.303 62.0526 432.799 61.8257C432.295 61.5933 431.864 61.2723 431.504 60.8628C431.15 60.4478 430.879 59.9635 430.691 59.4102C430.503 58.8568 430.408 58.2563 430.408 57.6089ZM431.944 57.418V57.6089C431.944 58.0571 431.997 58.4805 432.102 58.8789C432.207 59.2718 432.365 59.6204 432.575 59.9248C432.791 60.2292 433.059 60.4699 433.38 60.647C433.701 60.8185 434.075 60.9043 434.501 60.9043C434.921 60.9043 435.289 60.8185 435.605 60.647C435.926 60.4699 436.191 60.2292 436.402 59.9248C436.612 59.6204 436.77 59.2718 436.875 58.8789C436.985 58.4805 437.041 58.0571 437.041 57.6089V57.418C437.041 56.9753 436.985 56.5575 436.875 56.1646C436.77 55.7661 436.609 55.4147 436.393 55.1104C436.183 54.8005 435.917 54.557 435.596 54.3799C435.281 54.2028 434.91 54.1143 434.484 54.1143C434.064 54.1143 433.693 54.2028 433.372 54.3799C433.056 54.557 432.791 54.8005 432.575 55.1104C432.365 55.4147 432.207 55.7661 432.102 56.1646C431.997 56.5575 431.944 56.9753 431.944 57.418ZM445.674 59.958L448.728 53.0186H450.206L446.205 62H445.142L441.158 53.0186H442.635L445.674 59.958ZM442.187 53.0186V62H440.652V53.0186H442.187ZM449.11 62V53.0186H450.654V62H449.11ZM459.113 53.0186V54.2886H454.572V53.0186H459.113ZM454.796 53.0186V62H453.26V53.0186H454.796ZM460.474 53.0186V62H458.93V53.0186H460.474ZM468.235 60.4644V55.8408C468.235 55.4867 468.163 55.1795 468.019 54.9194C467.881 54.6538 467.671 54.4491 467.388 54.3052C467.106 54.1613 466.758 54.0894 466.343 54.0894C465.955 54.0894 465.615 54.1558 465.322 54.2886C465.034 54.4214 464.807 54.5957 464.641 54.8115C464.48 55.0273 464.4 55.2598 464.4 55.5088H462.865C462.865 55.1878 462.948 54.8696 463.114 54.5542C463.28 54.2388 463.517 53.9538 463.827 53.6992C464.143 53.4391 464.519 53.2344 464.956 53.085C465.399 52.93 465.892 52.8525 466.434 52.8525C467.087 52.8525 467.662 52.9632 468.16 53.1846C468.664 53.4059 469.057 53.7407 469.339 54.189C469.627 54.6317 469.771 55.1878 469.771 55.8574V60.041C469.771 60.3398 469.796 60.658 469.845 60.9956C469.901 61.3332 469.981 61.6237 470.086 61.8672V62H468.484C468.407 61.8229 468.346 61.5877 468.302 61.2944C468.257 60.9956 468.235 60.7189 468.235 60.4644ZM468.501 56.5547L468.517 57.6338H466.965C466.528 57.6338 466.138 57.6698 465.795 57.7417C465.452 57.8081 465.164 57.9105 464.931 58.0488C464.699 58.1872 464.522 58.3615 464.4 58.5718C464.278 58.7765 464.218 59.0173 464.218 59.2939C464.218 59.5762 464.281 59.8335 464.408 60.0659C464.536 60.2983 464.727 60.4837 464.981 60.6221C465.241 60.7549 465.559 60.8213 465.936 60.8213C466.406 60.8213 466.821 60.7217 467.181 60.5225C467.541 60.3232 467.826 60.0798 468.036 59.792C468.252 59.5042 468.368 59.2248 468.385 58.9536L469.04 59.6924C469.002 59.9248 468.896 60.1821 468.725 60.4644C468.553 60.7466 468.324 61.0177 468.036 61.2778C467.754 61.5324 467.416 61.7454 467.023 61.917C466.636 62.083 466.199 62.166 465.712 62.166C465.103 62.166 464.569 62.047 464.11 61.8091C463.656 61.5711 463.302 61.2529 463.047 60.8545C462.798 60.4505 462.674 59.9995 462.674 59.5015C462.674 59.02 462.768 58.5967 462.956 58.2314C463.144 57.8607 463.415 57.5535 463.769 57.3101C464.123 57.061 464.55 56.8729 465.048 56.7456C465.546 56.6183 466.102 56.5547 466.716 56.5547H468.501ZM478.279 56.9116V58.1567H473.531V56.9116H478.279ZM473.855 53.0186V62H472.319V53.0186H473.855ZM479.524 53.0186V62H477.98V53.0186H479.524ZM483.658 59.5679L487.8 53.0186H489.344V62H487.8V55.4507L483.658 62H482.131V53.0186H483.658V59.5679ZM493.469 59.5679L497.612 53.0186H499.156V62H497.612V55.4507L493.469 62H491.942V53.0186H493.469V59.5679ZM503.015 60.1738V61.4106C503.015 61.9142 502.888 62.4455 502.634 63.0044C502.379 63.5688 502.022 64.0392 501.563 64.4155L500.691 63.8096C500.868 63.5661 501.018 63.3171 501.139 63.0625C501.261 62.8135 501.352 62.5534 501.413 62.2822C501.48 62.0166 501.513 61.7344 501.513 61.4355V60.1738H503.015ZM515.193 53.0186V54.2886H510.851V53.0186H515.193ZM516.546 53.0186V62H515.01V53.0186H516.546ZM510.478 53.0186H512.022L511.789 57.3516C511.751 58.0212 511.687 58.6133 511.598 59.1279C511.515 59.637 511.399 60.0742 511.25 60.4395C511.106 60.8047 510.923 61.1035 510.702 61.3359C510.486 61.5628 510.226 61.7316 509.922 61.8423C509.617 61.9474 509.266 62 508.867 62H508.386V60.647L508.718 60.6221C508.956 60.6055 509.158 60.5501 509.324 60.4561C509.496 60.362 509.639 60.2236 509.756 60.041C509.872 59.8529 509.966 59.6121 510.038 59.3188C510.115 59.0256 510.173 58.6769 510.212 58.2729C510.256 57.869 510.29 57.3986 510.312 56.8618L510.478 53.0186ZM520.679 59.5679L524.822 53.0186H526.365V62H524.822V55.4507L520.679 62H519.152V53.0186H520.679V59.5679ZM534.592 49.1089H535.853C535.853 49.6512 535.77 50.0828 535.604 50.4038C535.438 50.7192 535.211 50.9627 534.924 51.1343C534.641 51.3058 534.32 51.4359 533.961 51.5244C533.607 51.613 533.239 51.6987 532.857 51.7817C532.381 51.8813 531.938 52.0391 531.529 52.2549C531.125 52.4652 530.776 52.764 530.483 53.1514C530.195 53.5387 529.982 54.0423 529.844 54.6621C529.711 55.2819 529.675 56.0483 529.736 56.9614V57.7251H528.474V56.9614C528.474 55.9377 528.571 55.0439 528.764 54.2803C528.964 53.5166 529.243 52.8719 529.603 52.3462C529.962 51.8205 530.389 51.4027 530.881 51.0928C531.379 50.7829 531.927 50.5698 532.525 50.4536C532.956 50.3706 533.327 50.2821 533.637 50.188C533.947 50.0884 534.182 49.9556 534.343 49.7896C534.509 49.6235 534.592 49.3966 534.592 49.1089ZM532.774 53.5332C533.36 53.5332 533.883 53.6356 534.343 53.8403C534.802 54.0451 535.192 54.3301 535.513 54.6953C535.834 55.0605 536.077 55.4922 536.243 55.9902C536.415 56.4827 536.501 57.0195 536.501 57.6006V57.7832C536.501 58.4085 536.409 58.9896 536.227 59.5264C536.05 60.0576 535.787 60.5225 535.438 60.9209C535.095 61.3138 534.675 61.6209 534.177 61.8423C533.684 62.0636 533.122 62.1743 532.491 62.1743C531.861 62.1743 531.296 62.0636 530.798 61.8423C530.306 61.6209 529.885 61.3138 529.536 60.9209C529.188 60.5225 528.922 60.0576 528.74 59.5264C528.562 58.9896 528.474 58.4085 528.474 57.7832V57.6006C528.474 57.4622 528.499 57.3267 528.549 57.1938C528.598 57.061 528.659 56.9255 528.731 56.7871C528.809 56.6488 528.878 56.5021 528.939 56.3472C529.143 55.8491 529.423 55.387 529.777 54.9609C530.137 54.5348 530.566 54.1917 531.064 53.9316C531.567 53.666 532.137 53.5332 532.774 53.5332ZM532.475 54.7866C531.91 54.7866 531.446 54.9167 531.08 55.1768C530.721 55.4368 530.452 55.7827 530.275 56.2144C530.098 56.6405 530.01 57.1025 530.01 57.6006V57.7832C530.01 58.2038 530.059 58.6022 530.159 58.9785C530.259 59.3548 530.408 59.6896 530.607 59.9829C530.812 60.2707 531.069 60.4976 531.379 60.6636C531.695 60.8296 532.065 60.9126 532.491 60.9126C532.918 60.9126 533.286 60.8296 533.595 60.6636C533.905 60.4976 534.16 60.2707 534.359 59.9829C534.558 59.6896 534.708 59.3548 534.807 58.9785C534.907 58.6022 534.957 58.2038 534.957 57.7832V57.6006C534.957 57.2243 534.907 56.8674 534.807 56.5298C534.708 56.1922 534.556 55.8934 534.351 55.6333C534.152 55.3732 533.894 55.1685 533.579 55.019C533.269 54.8641 532.901 54.7866 532.475 54.7866ZM537.837 57.6089V57.418C537.837 56.7705 537.931 56.1701 538.119 55.6167C538.308 55.0578 538.579 54.5736 538.933 54.1641C539.287 53.749 539.716 53.4281 540.219 53.2012C540.723 52.9688 541.288 52.8525 541.913 52.8525C542.544 52.8525 543.111 52.9688 543.615 53.2012C544.124 53.4281 544.555 53.749 544.909 54.1641C545.269 54.5736 545.543 55.0578 545.731 55.6167C545.919 56.1701 546.013 56.7705 546.013 57.418V57.6089C546.013 58.2563 545.919 58.8568 545.731 59.4102C545.543 59.9635 545.269 60.4478 544.909 60.8628C544.555 61.2723 544.126 61.5933 543.623 61.8257C543.125 62.0526 542.56 62.166 541.929 62.166C541.299 62.166 540.731 62.0526 540.228 61.8257C539.724 61.5933 539.293 61.2723 538.933 60.8628C538.579 60.4478 538.308 59.9635 538.119 59.4102C537.931 58.8568 537.837 58.2563 537.837 57.6089ZM539.373 57.418V57.6089C539.373 58.0571 539.425 58.4805 539.531 58.8789C539.636 59.2718 539.793 59.6204 540.004 59.9248C540.219 60.2292 540.488 60.4699 540.809 60.647C541.13 60.8185 541.503 60.9043 541.929 60.9043C542.35 60.9043 542.718 60.8185 543.033 60.647C543.354 60.4699 543.62 60.2292 543.83 59.9248C544.041 59.6204 544.198 59.2718 544.303 58.8789C544.414 58.4805 544.469 58.0571 544.469 57.6089V57.418C544.469 56.9753 544.414 56.5575 544.303 56.1646C544.198 55.7661 544.038 55.4147 543.822 55.1104C543.612 54.8005 543.346 54.557 543.025 54.3799C542.71 54.2028 542.339 54.1143 541.913 54.1143C541.492 54.1143 541.122 54.2028 540.801 54.3799C540.485 54.557 540.219 54.8005 540.004 55.1104C539.793 55.4147 539.636 55.7661 539.531 56.1646C539.425 56.5575 539.373 56.9753 539.373 57.418ZM242.387 78.0488H239.441L239.424 76.8203H241.831C242.307 76.8203 242.703 76.7733 243.018 76.6792C243.339 76.5851 243.58 76.444 243.74 76.2559C243.901 76.0677 243.981 75.8353 243.981 75.5586C243.981 75.3428 243.934 75.1546 243.84 74.9941C243.752 74.8281 243.616 74.6925 243.433 74.5874C243.251 74.4767 243.024 74.3965 242.753 74.3467C242.487 74.2913 242.174 74.2637 241.815 74.2637H239.847V82H238.312V73.0186H241.815C242.385 73.0186 242.897 73.0684 243.35 73.168C243.81 73.2676 244.2 73.4198 244.521 73.6245C244.847 73.8237 245.096 74.0783 245.268 74.3882C245.439 74.6981 245.525 75.0633 245.525 75.4839C245.525 75.755 245.47 76.0124 245.359 76.2559C245.248 76.4993 245.085 76.7152 244.869 76.9033C244.654 77.0915 244.388 77.2464 244.073 77.3682C243.757 77.4844 243.395 77.5591 242.985 77.5923L242.387 78.0488ZM242.387 82H238.885L239.648 80.7549H242.387C242.814 80.7549 243.168 80.7023 243.45 80.5972C243.732 80.4865 243.942 80.3315 244.081 80.1323C244.225 79.9276 244.297 79.6841 244.297 79.4019C244.297 79.1196 244.225 78.8789 244.081 78.6797C243.942 78.4749 243.732 78.32 243.45 78.2148C243.168 78.1042 242.814 78.0488 242.387 78.0488H240.055L240.072 76.8203H242.985L243.541 77.2852C244.034 77.3239 244.452 77.4456 244.795 77.6504C245.138 77.8551 245.398 78.1152 245.575 78.4307C245.752 78.7406 245.841 79.0781 245.841 79.4434C245.841 79.8639 245.76 80.2347 245.6 80.5557C245.445 80.8766 245.218 81.145 244.919 81.3608C244.62 81.5711 244.258 81.7316 243.832 81.8423C243.406 81.9474 242.924 82 242.387 82ZM248.937 73.0186L250.904 76.2891L252.896 73.0186H254.698L251.759 77.4512L254.789 82H253.012L250.937 78.6299L248.862 82H247.077L250.099 77.4512L247.169 73.0186H248.937ZM255.76 77.6089V77.418C255.76 76.7705 255.854 76.1701 256.042 75.6167C256.23 75.0578 256.502 74.5736 256.856 74.1641C257.21 73.749 257.639 73.4281 258.142 73.2012C258.646 72.9688 259.21 72.8525 259.836 72.8525C260.467 72.8525 261.034 72.9688 261.537 73.2012C262.046 73.4281 262.478 73.749 262.832 74.1641C263.192 74.5736 263.466 75.0578 263.654 75.6167C263.842 76.1701 263.936 76.7705 263.936 77.418V77.6089C263.936 78.2563 263.842 78.8568 263.654 79.4102C263.466 79.9635 263.192 80.4478 262.832 80.8628C262.478 81.2723 262.049 81.5933 261.546 81.8257C261.048 82.0526 260.483 82.166 259.852 82.166C259.221 82.166 258.654 82.0526 258.151 81.8257C257.647 81.5933 257.215 81.2723 256.856 80.8628C256.502 80.4478 256.23 79.9635 256.042 79.4102C255.854 78.8568 255.76 78.2563 255.76 77.6089ZM257.296 77.418V77.6089C257.296 78.0571 257.348 78.4805 257.453 78.8789C257.559 79.2718 257.716 79.6204 257.927 79.9248C258.142 80.2292 258.411 80.4699 258.732 80.647C259.053 80.8185 259.426 80.9043 259.852 80.9043C260.273 80.9043 260.641 80.8185 260.956 80.647C261.277 80.4699 261.543 80.2292 261.753 79.9248C261.963 79.6204 262.121 79.2718 262.226 78.8789C262.337 78.4805 262.392 78.0571 262.392 77.6089V77.418C262.392 76.9753 262.337 76.5575 262.226 76.1646C262.121 75.7661 261.961 75.4147 261.745 75.1104C261.535 74.8005 261.269 74.557 260.948 74.3799C260.633 74.2028 260.262 74.1143 259.836 74.1143C259.415 74.1143 259.044 74.2028 258.723 74.3799C258.408 74.557 258.142 74.8005 257.927 75.1104C257.716 75.4147 257.559 75.7661 257.453 76.1646C257.348 76.5575 257.296 76.9753 257.296 77.418ZM268.402 78.0903L264.999 73.0186H266.85L269.174 76.7373H270.967L270.743 78.0903H268.402ZM269.24 77.9326L266.634 82H264.692L268.269 76.8203L269.24 77.9326ZM271.756 73.0186V82H270.22V73.0186H271.756ZM276.993 73.0186L273.59 78.0903H271.249L271.009 76.7373H272.81L275.134 73.0186H276.993ZM275.35 82L272.735 77.9326L273.723 76.8203L277.292 82H275.35ZM280.33 73.0186H281.866L281.733 76.3804C281.7 77.2326 281.603 77.9686 281.443 78.5884C281.282 79.2082 281.077 79.7367 280.828 80.1738C280.579 80.6055 280.3 80.9679 279.99 81.2612C279.686 81.5545 279.37 81.8008 279.044 82H278.28L278.322 80.7466L278.637 80.7383C278.82 80.5225 278.997 80.3011 279.168 80.0742C279.34 79.8418 279.497 79.5679 279.641 79.2524C279.785 78.9315 279.904 78.5413 279.998 78.082C280.098 77.6172 280.162 77.05 280.189 76.3804L280.33 73.0186ZM280.712 73.0186H286.116V82H284.58V74.438H280.712V73.0186ZM277.931 80.7383H287.27V84.6479H285.734V82H279.467V84.6479H277.923L277.931 80.7383ZM292.698 82.166C292.073 82.166 291.506 82.0609 290.997 81.8506C290.493 81.6348 290.059 81.3332 289.694 80.9458C289.334 80.5584 289.057 80.0991 288.864 79.5679C288.67 79.0366 288.573 78.4556 288.573 77.8247V77.4761C288.573 76.7456 288.681 76.0954 288.897 75.5254C289.113 74.9499 289.406 74.4629 289.777 74.0645C290.147 73.666 290.568 73.3644 291.038 73.1597C291.509 72.9549 291.996 72.8525 292.499 72.8525C293.141 72.8525 293.695 72.9632 294.159 73.1846C294.63 73.4059 295.014 73.7158 295.313 74.1143C295.612 74.5072 295.833 74.972 295.977 75.5088C296.121 76.04 296.193 76.6211 296.193 77.252V77.9409H289.486V76.6875H294.657V76.5713C294.635 76.1729 294.552 75.7855 294.408 75.4092C294.27 75.0329 294.049 74.723 293.744 74.4795C293.44 74.236 293.025 74.1143 292.499 74.1143C292.151 74.1143 291.83 74.189 291.536 74.3384C291.243 74.4823 290.991 74.6981 290.781 74.9858C290.571 75.2736 290.407 75.625 290.291 76.04C290.175 76.4551 290.117 76.9338 290.117 77.4761V77.8247C290.117 78.2508 290.175 78.652 290.291 79.0283C290.413 79.3991 290.587 79.7256 290.814 80.0078C291.047 80.29 291.326 80.5114 291.653 80.6719C291.985 80.8324 292.361 80.9126 292.781 80.9126C293.324 80.9126 293.783 80.8019 294.159 80.5806C294.536 80.3592 294.865 80.0632 295.147 79.6924L296.077 80.4312C295.883 80.7244 295.637 81.0039 295.338 81.2695C295.039 81.5352 294.671 81.751 294.234 81.917C293.802 82.083 293.291 82.166 292.698 82.166ZM304.079 76.9116V78.1567H299.331V76.9116H304.079ZM299.655 73.0186V82H298.119V73.0186H299.655ZM305.324 73.0186V82H303.78V73.0186H305.324ZM309.458 79.5679L313.6 73.0186H315.144V82H313.6V75.4507L309.458 82H307.93V73.0186H309.458V79.5679ZM321.336 82.166C320.711 82.166 320.144 82.0609 319.635 81.8506C319.131 81.6348 318.697 81.3332 318.331 80.9458C317.972 80.5584 317.695 80.0991 317.501 79.5679C317.308 79.0366 317.211 78.4556 317.211 77.8247V77.4761C317.211 76.7456 317.319 76.0954 317.534 75.5254C317.75 74.9499 318.044 74.4629 318.414 74.0645C318.785 73.666 319.206 73.3644 319.676 73.1597C320.146 72.9549 320.633 72.8525 321.137 72.8525C321.779 72.8525 322.332 72.9632 322.797 73.1846C323.267 73.4059 323.652 73.7158 323.951 74.1143C324.25 74.5072 324.471 74.972 324.615 75.5088C324.759 76.04 324.831 76.6211 324.831 77.252V77.9409H318.124V76.6875H323.295V76.5713C323.273 76.1729 323.19 75.7855 323.046 75.4092C322.908 75.0329 322.686 74.723 322.382 74.4795C322.078 74.236 321.663 74.1143 321.137 74.1143C320.788 74.1143 320.467 74.189 320.174 74.3384C319.881 74.4823 319.629 74.6981 319.419 74.9858C319.208 75.2736 319.045 75.625 318.929 76.04C318.813 76.4551 318.755 76.9338 318.755 77.4761V77.8247C318.755 78.2508 318.813 78.652 318.929 79.0283C319.051 79.3991 319.225 79.7256 319.452 80.0078C319.684 80.29 319.964 80.5114 320.29 80.6719C320.622 80.8324 320.999 80.9126 321.419 80.9126C321.962 80.9126 322.421 80.8019 322.797 80.5806C323.173 80.3592 323.503 80.0632 323.785 79.6924L324.715 80.4312C324.521 80.7244 324.275 81.0039 323.976 81.2695C323.677 81.5352 323.309 81.751 322.872 81.917C322.44 82.083 321.928 82.166 321.336 82.166ZM335.057 78.0488H332.111L332.094 76.8203H334.501C334.977 76.8203 335.373 76.7733 335.688 76.6792C336.009 76.5851 336.25 76.444 336.41 76.2559C336.571 76.0677 336.651 75.8353 336.651 75.5586C336.651 75.3428 336.604 75.1546 336.51 74.9941C336.421 74.8281 336.286 74.6925 336.103 74.5874C335.921 74.4767 335.694 74.3965 335.423 74.3467C335.157 74.2913 334.844 74.2637 334.485 74.2637H332.517V82H330.982V73.0186H334.485C335.055 73.0186 335.566 73.0684 336.02 73.168C336.48 73.2676 336.87 73.4198 337.191 73.6245C337.517 73.8237 337.766 74.0783 337.938 74.3882C338.109 74.6981 338.195 75.0633 338.195 75.4839C338.195 75.755 338.14 76.0124 338.029 76.2559C337.918 76.4993 337.755 76.7152 337.539 76.9033C337.323 77.0915 337.058 77.2464 336.742 77.3682C336.427 77.4844 336.065 77.5591 335.655 77.5923L335.057 78.0488ZM335.057 82H331.554L332.318 80.7549H335.057C335.483 80.7549 335.838 80.7023 336.12 80.5972C336.402 80.4865 336.612 80.3315 336.751 80.1323C336.895 79.9276 336.967 79.6841 336.967 79.4019C336.967 79.1196 336.895 78.8789 336.751 78.6797C336.612 78.4749 336.402 78.32 336.12 78.2148C335.838 78.1042 335.483 78.0488 335.057 78.0488H332.725L332.741 76.8203H335.655L336.211 77.2852C336.704 77.3239 337.122 77.4456 337.465 77.6504C337.808 77.8551 338.068 78.1152 338.245 78.4307C338.422 78.7406 338.51 79.0781 338.51 79.4434C338.51 79.8639 338.43 80.2347 338.27 80.5557C338.115 80.8766 337.888 81.145 337.589 81.3608C337.29 81.5711 336.928 81.7316 336.502 81.8423C336.076 81.9474 335.594 82 335.057 82ZM346.446 79.5679L350.588 73.0186H352.132V82H350.588V75.4507L346.446 82H344.919V73.0186H346.446V79.5679ZM359.76 79.958L362.815 73.0186H364.293L360.292 82H359.229L355.245 73.0186H356.722L359.76 79.958ZM356.274 73.0186V82H354.739V73.0186H356.274ZM363.197 82V73.0186H364.741V82H363.197ZM370.942 82.166C370.316 82.166 369.749 82.0609 369.24 81.8506C368.736 81.6348 368.302 81.3332 367.937 80.9458C367.577 80.5584 367.3 80.0991 367.107 79.5679C366.913 79.0366 366.816 78.4556 366.816 77.8247V77.4761C366.816 76.7456 366.924 76.0954 367.14 75.5254C367.356 74.9499 367.649 74.4629 368.02 74.0645C368.391 73.666 368.811 73.3644 369.281 73.1597C369.752 72.9549 370.239 72.8525 370.742 72.8525C371.384 72.8525 371.938 72.9632 372.403 73.1846C372.873 73.4059 373.258 73.7158 373.556 74.1143C373.855 74.5072 374.077 74.972 374.22 75.5088C374.364 76.04 374.436 76.6211 374.436 77.252V77.9409H367.729V76.6875H372.901V76.5713C372.878 76.1729 372.795 75.7855 372.652 75.4092C372.513 75.0329 372.292 74.723 371.988 74.4795C371.683 74.236 371.268 74.1143 370.742 74.1143C370.394 74.1143 370.073 74.189 369.78 74.3384C369.486 74.4823 369.234 74.6981 369.024 74.9858C368.814 75.2736 368.651 75.625 368.534 76.04C368.418 76.4551 368.36 76.9338 368.36 77.4761V77.8247C368.36 78.2508 368.418 78.652 368.534 79.0283C368.656 79.3991 368.83 79.7256 369.057 80.0078C369.29 80.29 369.569 80.5114 369.896 80.6719C370.228 80.8324 370.604 80.9126 371.025 80.9126C371.567 80.9126 372.026 80.8019 372.403 80.5806C372.779 80.3592 373.108 80.0632 373.39 79.6924L374.32 80.4312C374.126 80.7244 373.88 81.0039 373.581 81.2695C373.282 81.5352 372.914 81.751 372.477 81.917C372.046 82.083 371.534 82.166 370.942 82.166ZM381.343 76.8286V78.082H376.57V76.8286H381.343ZM377.906 73.0186V82H376.37V73.0186H377.906ZM380.031 77.6089V77.418C380.031 76.7705 380.125 76.1701 380.313 75.6167C380.501 75.0578 380.773 74.5736 381.127 74.1641C381.486 73.749 381.915 73.4281 382.413 73.2012C382.917 72.9688 383.481 72.8525 384.107 72.8525C384.743 72.8525 385.313 72.9688 385.817 73.2012C386.32 73.4281 386.749 73.749 387.103 74.1641C387.463 74.5736 387.737 75.0578 387.925 75.6167C388.113 76.1701 388.207 76.7705 388.207 77.418V77.6089C388.207 78.2563 388.113 78.8568 387.925 79.4102C387.737 79.9635 387.466 80.4478 387.112 80.8628C386.757 81.2723 386.329 81.5933 385.825 81.8257C385.321 82.0526 384.754 82.166 384.123 82.166C383.492 82.166 382.925 82.0526 382.422 81.8257C381.918 81.5933 381.486 81.2723 381.127 80.8628C380.773 80.4478 380.501 79.9635 380.313 79.4102C380.125 78.8568 380.031 78.2563 380.031 77.6089ZM381.575 77.418V77.6089C381.575 78.0571 381.628 78.4805 381.733 78.8789C381.838 79.2718 381.996 79.6204 382.206 79.9248C382.422 80.2292 382.687 80.4699 383.003 80.647C383.324 80.8185 383.697 80.9043 384.123 80.9043C384.549 80.9043 384.92 80.8185 385.236 80.647C385.557 80.4699 385.822 80.2292 386.032 79.9248C386.243 79.6204 386.4 79.2718 386.506 78.8789C386.616 78.4805 386.672 78.0571 386.672 77.6089V77.418C386.672 76.9753 386.616 76.5575 386.506 76.1646C386.4 75.7661 386.24 75.4147 386.024 75.1104C385.814 74.8005 385.548 74.557 385.227 74.3799C384.906 74.2028 384.533 74.1143 384.107 74.1143C383.686 74.1143 383.318 74.2028 383.003 74.3799C382.687 74.557 382.422 74.8005 382.206 75.1104C381.996 75.4147 381.838 75.7661 381.733 76.1646C381.628 76.5575 381.575 76.9753 381.575 77.418ZM402.593 80.7383L402.443 84.6646H401.073V82H399.903V80.7383H402.593ZM390.15 73.0186H391.685V80.7383H394.972V73.0186H396.516V80.7383H399.795V73.0186H401.331V82H390.15V73.0186ZM406.71 81.0703L409.208 73.0186H410.852L407.249 83.3862C407.166 83.6076 407.056 83.8455 406.917 84.1001C406.784 84.3602 406.613 84.6064 406.403 84.8389C406.192 85.0713 405.938 85.2594 405.639 85.4033C405.346 85.5527 404.994 85.6274 404.585 85.6274C404.463 85.6274 404.308 85.6108 404.12 85.5776C403.932 85.5444 403.799 85.5168 403.721 85.4946L403.713 84.2495C403.757 84.255 403.827 84.2606 403.921 84.2661C404.02 84.2772 404.089 84.2827 404.128 84.2827C404.477 84.2827 404.773 84.2357 405.016 84.1416C405.26 84.0531 405.465 83.9009 405.631 83.6851C405.802 83.4748 405.949 83.1842 406.071 82.8135L406.71 81.0703ZM404.875 73.0186L407.208 79.9912L407.606 81.6099L406.502 82.1743L403.198 73.0186H404.875ZM417.351 76.8286V78.082H412.578V76.8286H417.351ZM413.915 73.0186V82H412.379V73.0186H413.915ZM416.04 77.6089V77.418C416.04 76.7705 416.134 76.1701 416.322 75.6167C416.51 75.0578 416.781 74.5736 417.135 74.1641C417.495 73.749 417.924 73.4281 418.422 73.2012C418.926 72.9688 419.49 72.8525 420.115 72.8525C420.752 72.8525 421.322 72.9688 421.825 73.2012C422.329 73.4281 422.758 73.749 423.112 74.1641C423.472 74.5736 423.746 75.0578 423.934 75.6167C424.122 76.1701 424.216 76.7705 424.216 77.418V77.6089C424.216 78.2563 424.122 78.8568 423.934 79.4102C423.746 79.9635 423.475 80.4478 423.12 80.8628C422.766 81.2723 422.337 81.5933 421.834 81.8257C421.33 82.0526 420.763 82.166 420.132 82.166C419.501 82.166 418.934 82.0526 418.43 81.8257C417.927 81.5933 417.495 81.2723 417.135 80.8628C416.781 80.4478 416.51 79.9635 416.322 79.4102C416.134 78.8568 416.04 78.2563 416.04 77.6089ZM417.584 77.418V77.6089C417.584 78.0571 417.636 78.4805 417.741 78.8789C417.847 79.2718 418.004 79.6204 418.215 79.9248C418.43 80.2292 418.696 80.4699 419.011 80.647C419.332 80.8185 419.706 80.9043 420.132 80.9043C420.558 80.9043 420.929 80.8185 421.244 80.647C421.565 80.4699 421.831 80.2292 422.041 79.9248C422.252 79.6204 422.409 79.2718 422.514 78.8789C422.625 78.4805 422.68 78.0571 422.68 77.6089V77.418C422.68 76.9753 422.625 76.5575 422.514 76.1646C422.409 75.7661 422.249 75.4147 422.033 75.1104C421.823 74.8005 421.557 74.557 421.236 74.3799C420.915 74.2028 420.542 74.1143 420.115 74.1143C419.695 74.1143 419.327 74.2028 419.011 74.3799C418.696 74.557 418.43 74.8005 418.215 75.1104C418.004 75.4147 417.847 75.7661 417.741 76.1646C417.636 76.5575 417.584 76.9753 417.584 77.418ZM429.711 80.9043C430.076 80.9043 430.414 80.8296 430.724 80.6802C431.034 80.5308 431.288 80.326 431.488 80.0659C431.687 79.8003 431.8 79.4987 431.828 79.1611H433.289C433.261 79.6924 433.081 80.1877 432.749 80.647C432.423 81.1007 431.994 81.4688 431.463 81.751C430.931 82.0277 430.348 82.166 429.711 82.166C429.036 82.166 428.447 82.047 427.943 81.8091C427.445 81.5711 427.03 81.2446 426.698 80.8296C426.372 80.4146 426.125 79.9386 425.959 79.4019C425.799 78.8595 425.719 78.2868 425.719 77.6836V77.335C425.719 76.7318 425.799 76.1618 425.959 75.625C426.125 75.0827 426.372 74.604 426.698 74.189C427.03 73.7739 427.445 73.4474 427.943 73.2095C428.447 72.9715 429.036 72.8525 429.711 72.8525C430.414 72.8525 431.028 72.9964 431.554 73.2842C432.08 73.5664 432.492 73.9538 432.791 74.4463C433.095 74.9333 433.261 75.4867 433.289 76.1064H431.828C431.8 75.7357 431.695 75.4009 431.512 75.1021C431.335 74.8032 431.092 74.5653 430.782 74.3882C430.478 74.2056 430.121 74.1143 429.711 74.1143C429.241 74.1143 428.845 74.2083 428.524 74.3965C428.209 74.5791 427.957 74.8281 427.769 75.1436C427.586 75.4535 427.453 75.7993 427.37 76.1812C427.293 76.5575 427.254 76.9421 427.254 77.335V77.6836C427.254 78.0765 427.293 78.4639 427.37 78.8457C427.448 79.2275 427.578 79.5734 427.76 79.8833C427.949 80.1932 428.2 80.4422 428.516 80.6304C428.837 80.813 429.235 80.9043 429.711 80.9043ZM436.833 77.7168H438.493L435.895 82H434.235L436.833 77.7168ZM438.12 73.0186H441.872V82H440.336V74.2637H438.12C437.683 74.2637 437.326 74.3384 437.049 74.4878C436.772 74.6317 436.57 74.8198 436.443 75.0522C436.316 75.2847 436.252 75.5254 436.252 75.7744C436.252 76.0179 436.31 76.2531 436.427 76.48C436.543 76.7013 436.725 76.884 436.974 77.0278C437.223 77.1717 437.544 77.2437 437.937 77.2437H440.751V78.5054H437.937C437.423 78.5054 436.966 78.4362 436.568 78.2979C436.169 78.1595 435.832 77.9686 435.555 77.7251C435.278 77.4761 435.068 77.1855 434.924 76.8535C434.78 76.516 434.708 76.1507 434.708 75.7578C434.708 75.3649 434.783 75.0024 434.932 74.6704C435.087 74.3384 435.309 74.0479 435.596 73.7988C435.89 73.5498 436.247 73.3589 436.667 73.2261C437.093 73.0877 437.578 73.0186 438.12 73.0186Z" fill="black"/>
<defs>
<filter id="filter0_d_802_787" x="0.0517578" y="12.0862" width="106.191" height="106.163" filterUnits="userSpaceOnUse" color-interpolation-filters="sRGB">
<feFlood flood-opacity="0" result="BackgroundImageFix"/>
<feColorMatrix in="SourceAlpha" type="matrix" values="0 0 0 0 0 0 0 0 0 0 0 0 0 0 0 0 0 0 127 0" result="hardAlpha"/>
<feOffset/>
<feGaussianBlur stdDeviation="12"/>
<feComposite in2="hardAlpha" operator="out"/>
<feColorMatrix type="matrix" values="0 0 0 0 0.579167 0 0 0 0 0.579167 0 0 0 0 0.579167 0 0 0 0.3 0"/>
<feBlend mode="normal" in2="BackgroundImageFix" result="effect1_dropShadow_802_787"/>
<feBlend mode="normal" in="SourceGraphic" in2="effect1_dropShadow_802_787" result="shape"/>
</filter>
</defs>
</svg>
