<svg width="652" height="116" viewBox="0 0 652 116" fill="none" xmlns="http://www.w3.org/2000/svg">
<path d="M115.819 57.9096C115.819 25.927 89.8924 0.0122581 57.9097 0.0274026C25.9271 0.0425471 -3.92932e-06 25.9818 -2.53132e-06 57.9645C-1.13331e-06 89.9471 25.9271 115.862 57.9097 115.847C89.8924 115.832 115.819 89.8923 115.819 57.9096Z" fill="#00A3FF"/>
<path d="M44.1035 37.9883H51.6035V80H42.6094V49.4141H35.4023V43.7012C36.6914 43.5449 37.873 43.2422 38.9473 42.793C40.0215 42.3242 40.8516 41.8262 41.4375 41.2988C42.043 40.7715 42.5508 40.2637 42.9609 39.7754C43.3906 39.2676 43.6934 38.8379 43.8691 38.4863L44.1035 37.9883ZM68.127 37.9883H75.627V80H66.6328V49.4141H59.4258V43.7012C60.7148 43.5449 61.8965 43.2422 62.9707 42.793C64.0449 42.3242 64.875 41.8262 65.4609 41.2988C66.0664 40.7715 66.5742 40.2637 66.9844 39.7754C67.4141 39.2676 67.7168 38.8379 67.8926 38.4863L68.127 37.9883Z" fill="white"/>
<path d="M476 58.0002L594 58.0002" stroke="#00A3FF" stroke-miterlimit="10" stroke-linecap="round"/>
<g filter="url(#filter0_d_822_2149)">
<path d="M618.721 78.7318C630.083 67.3747 630.083 48.9612 618.721 37.6041C607.358 26.247 588.936 26.2471 577.574 37.6042C566.211 48.9612 566.211 67.3747 577.574 78.7318C588.936 90.0889 607.358 90.0889 618.721 78.7318Z" fill="white"/>
</g>
<path d="M607.241 58.1649C607.246 59.8876 606.741 61.5732 605.789 63.0093C604.837 64.4453 603.481 65.5674 601.892 66.234C600.302 66.9007 598.551 67.082 596.859 66.7551C595.167 66.4282 593.61 65.6078 592.383 64.3973C591.157 63.1868 590.317 61.6405 589.969 59.9533C589.621 58.2662 589.78 56.5137 590.427 54.9171C591.075 53.3205 592.18 51.9511 593.605 50.9818C595.03 50.0125 596.71 49.4866 598.433 49.4704C599.585 49.456 600.727 49.6702 601.795 50.1007C602.863 50.5312 603.835 51.1693 604.655 51.9781C605.474 52.7869 606.124 53.7503 606.568 54.8123C607.012 55.8743 607.241 57.0139 607.241 58.1649Z" fill="#00A3FF"/>
<path d="M598.542 61.5717C600.425 61.5717 601.951 60.0464 601.951 58.1648C601.951 56.2832 600.425 54.7578 598.542 54.7578C596.66 54.7578 595.134 56.2832 595.134 58.1648C595.134 60.0464 596.66 61.5717 598.542 61.5717Z" fill="white"/>
<path d="M478.452 58.1647C478.457 59.8909 477.95 61.5798 476.994 63.0177C476.039 64.4555 474.678 65.5777 473.084 66.242C471.49 66.9063 469.735 67.0829 468.04 66.7495C466.346 66.416 464.789 65.5875 463.565 64.3688C462.342 63.1502 461.509 61.5962 461.17 59.9036C460.831 58.211 461.002 56.4559 461.662 54.8606C462.321 53.2653 463.44 51.9016 464.875 50.942C466.311 49.9824 467.999 49.4702 469.726 49.4702C472.035 49.4702 474.251 50.3854 475.886 52.0151C477.522 53.6449 478.445 55.8563 478.452 58.1647Z" fill="#00A3FF"/>
<path d="M469.753 61.5717C471.636 61.5717 473.162 60.0464 473.162 58.1648C473.162 56.2832 471.636 54.7578 469.753 54.7578C467.871 54.7578 466.345 56.2832 466.345 58.1648C466.345 60.0464 467.871 61.5717 469.753 61.5717Z" fill="white"/>
<path d="M150.761 33.3596V49.0002H148.698V35.0569H140.985V49.0002H138.912V33.3596H150.761ZM156.368 45.8528L161.729 37.3772H163.727V49.0002H161.729V40.5247L156.368 49.0002H154.392V37.3772H156.368V45.8528ZM171.654 37.3772V49.0002H169.656V37.3772H171.654ZM175.554 37.3772V38.9885H165.832V37.3772H175.554ZM186.274 37.3772V49.0002H184.287V37.3772H186.274ZM185.598 42.7161V44.3489C185.197 44.4993 184.788 44.6353 184.373 44.7571C183.965 44.8717 183.532 44.9648 183.073 45.0364C182.622 45.1008 182.132 45.1331 181.602 45.1331C180.685 45.1331 179.89 44.9755 179.217 44.6604C178.544 44.3381 178.024 43.8547 177.659 43.2102C177.294 42.5585 177.111 41.7385 177.111 40.7502V37.3557H179.099V40.7502C179.099 41.3948 179.195 41.9176 179.389 42.3186C179.582 42.7196 179.865 43.0168 180.237 43.2102C180.61 43.3964 181.064 43.4895 181.602 43.4895C182.117 43.4895 182.601 43.4573 183.052 43.3928C183.51 43.3212 183.947 43.2281 184.362 43.1135C184.785 42.9989 185.197 42.8665 185.598 42.7161ZM202.678 37.3772V39.0208H196.802V37.3772H202.678ZM197.092 37.3772V49.0002H195.104V37.3772H197.092ZM204.439 37.3772V49.0002H202.441V37.3772H204.439ZM209.617 39.6116V53.469H207.619V37.3772H209.445L209.617 39.6116ZM217.448 43.092V43.3176C217.448 44.1627 217.348 44.9469 217.147 45.6702C216.947 46.3863 216.653 47.0094 216.267 47.5393C215.887 48.0693 215.418 48.481 214.859 48.7747C214.301 49.0683 213.66 49.2151 212.937 49.2151C212.199 49.2151 211.547 49.0933 210.981 48.8499C210.416 48.6064 209.936 48.2519 209.542 47.7864C209.148 47.3209 208.833 46.7623 208.597 46.1106C208.368 45.4589 208.21 44.7249 208.124 43.9084V42.7053C208.21 41.8459 208.371 41.0761 208.607 40.3958C208.844 39.7154 209.155 39.1353 209.542 38.6555C209.936 38.1685 210.412 37.7997 210.971 37.5491C211.529 37.2913 212.174 37.1624 212.904 37.1624C213.635 37.1624 214.283 37.3056 214.849 37.592C215.414 37.8713 215.891 38.2724 216.277 38.7952C216.664 39.318 216.954 39.9446 217.147 40.675C217.348 41.3984 217.448 42.204 217.448 43.092ZM215.45 43.3176V43.092C215.45 42.512 215.389 41.9677 215.268 41.4592C215.146 40.9436 214.956 40.4924 214.698 40.1057C214.448 39.7118 214.125 39.4039 213.731 39.1819C213.338 38.9527 212.868 38.8381 212.324 38.8381C211.823 38.8381 211.386 38.9241 211.014 39.0959C210.648 39.2678 210.337 39.5006 210.079 39.7942C209.821 40.0806 209.61 40.4101 209.445 40.7825C209.288 41.1477 209.17 41.5273 209.091 41.9211V44.7034C209.234 45.2047 209.435 45.6773 209.692 46.1213C209.95 46.5582 210.294 46.9127 210.724 47.1848C211.153 47.4498 211.694 47.5823 212.346 47.5823C212.883 47.5823 213.345 47.4713 213.731 47.2493C214.125 47.0201 214.448 46.7086 214.698 46.3147C214.956 45.9208 215.146 45.4696 215.268 44.9612C215.389 44.4456 215.45 43.8977 215.45 43.3176ZM219.457 43.3176V43.0706C219.457 42.2327 219.579 41.4556 219.822 40.7395C220.066 40.0162 220.417 39.3896 220.875 38.8596C221.333 38.3225 221.888 37.9071 222.54 37.6135C223.192 37.3127 223.922 37.1624 224.731 37.1624C225.548 37.1624 226.282 37.3127 226.934 37.6135C227.592 37.9071 228.151 38.3225 228.609 38.8596C229.075 39.3896 229.429 40.0162 229.673 40.7395C229.916 41.4556 230.038 42.2327 230.038 43.0706V43.3176C230.038 44.1555 229.916 44.9325 229.673 45.6487C229.429 46.3648 229.075 46.9915 228.609 47.5286C228.151 48.0585 227.596 48.4739 226.944 48.7747C226.3 49.0683 225.569 49.2151 224.753 49.2151C223.937 49.2151 223.202 49.0683 222.551 48.7747C221.899 48.4739 221.34 48.0585 220.875 47.5286C220.417 46.9915 220.066 46.3648 219.822 45.6487C219.579 44.9325 219.457 44.1555 219.457 43.3176ZM221.444 43.0706V43.3176C221.444 43.8977 221.512 44.4456 221.648 44.9612C221.785 45.4696 221.989 45.9208 222.261 46.3147C222.54 46.7086 222.887 47.0201 223.303 47.2493C223.718 47.4713 224.201 47.5823 224.753 47.5823C225.297 47.5823 225.773 47.4713 226.182 47.2493C226.597 47.0201 226.941 46.7086 227.213 46.3147C227.485 45.9208 227.689 45.4696 227.825 44.9612C227.968 44.4456 228.04 43.8977 228.04 43.3176V43.0706C228.04 42.4976 227.968 41.9569 227.825 41.4485C227.689 40.9329 227.481 40.4781 227.202 40.0842C226.93 39.6832 226.586 39.3681 226.171 39.1389C225.763 38.9097 225.283 38.7952 224.731 38.7952C224.187 38.7952 223.707 38.9097 223.292 39.1389C222.884 39.3681 222.54 39.6832 222.261 40.0842C221.989 40.4781 221.785 40.9329 221.648 41.4485C221.512 41.9569 221.444 42.4976 221.444 43.0706ZM237.354 49.2151C236.544 49.2151 235.81 49.079 235.151 48.8069C234.5 48.5276 233.938 48.1373 233.465 47.636C232.999 47.1347 232.641 46.5403 232.391 45.8528C232.14 45.1653 232.015 44.4133 232.015 43.5969V43.1458C232.015 42.2004 232.154 41.359 232.434 40.6213C232.713 39.8765 233.092 39.2463 233.572 38.7307C234.052 38.2151 234.596 37.8248 235.205 37.5598C235.814 37.2948 236.444 37.1624 237.096 37.1624C237.926 37.1624 238.643 37.3056 239.244 37.592C239.853 37.8785 240.351 38.2795 240.737 38.7952C241.124 39.3036 241.41 39.9052 241.597 40.5999C241.783 41.2874 241.876 42.0393 241.876 42.8557V43.7473H233.196V42.1252H239.889V41.9749C239.86 41.4592 239.753 40.9579 239.566 40.4709C239.387 39.984 239.101 39.5829 238.707 39.2678C238.313 38.9527 237.776 38.7952 237.096 38.7952C236.645 38.7952 236.229 38.8918 235.85 39.0852C235.47 39.2714 235.144 39.5507 234.872 39.9231C234.6 40.2955 234.389 40.7502 234.238 41.2874C234.088 41.8245 234.013 42.4439 234.013 43.1458V43.5969C234.013 44.1484 234.088 44.6676 234.238 45.1545C234.396 45.6344 234.621 46.0569 234.915 46.4221C235.216 46.7874 235.577 47.0738 236 47.2815C236.43 47.4892 236.917 47.593 237.461 47.593C238.163 47.593 238.757 47.4498 239.244 47.1633C239.731 46.8769 240.157 46.4937 240.522 46.0139L241.726 46.97C241.475 47.3495 241.156 47.7112 240.77 48.0549C240.383 48.3987 239.907 48.678 239.341 48.8928C238.782 49.1077 238.12 49.2151 237.354 49.2151ZM246.355 37.3772V49.0002H244.368V37.3772H246.355ZM253.982 37.3772L248.472 44.0374H245.689L245.389 42.2971H247.666L251.565 37.3772H253.982ZM251.845 49.0002L247.569 43.7366L248.848 42.2971L254.369 49.0002H251.845ZM260.836 37.3772V49.0002H258.838V37.3772H260.836ZM264.735 37.3772V38.9885H255.014V37.3772H264.735ZM273.372 47.0129V41.0295C273.372 40.5712 273.279 40.1737 273.093 39.8372C272.914 39.4934 272.642 39.2284 272.276 39.0422C271.911 38.856 271.46 38.7629 270.923 38.7629C270.422 38.7629 269.981 38.8489 269.602 39.0208C269.229 39.1926 268.936 39.4182 268.721 39.6975C268.513 39.9768 268.409 40.2776 268.409 40.5999H266.422C266.422 40.1845 266.529 39.7727 266.744 39.3645C266.959 38.9563 267.267 38.5875 267.668 38.2581C268.076 37.9215 268.563 37.6565 269.129 37.4631C269.702 37.2626 270.339 37.1624 271.041 37.1624C271.886 37.1624 272.631 37.3056 273.275 37.592C273.927 37.8785 274.436 38.3118 274.801 38.8918C275.173 39.4648 275.359 40.1845 275.359 41.051V46.4651C275.359 46.8518 275.392 47.2636 275.456 47.7004C275.528 48.1373 275.632 48.5133 275.768 48.8284V49.0002H273.694C273.594 48.7711 273.515 48.4667 273.458 48.0872C273.401 47.7004 273.372 47.3424 273.372 47.0129ZM273.716 41.9534L273.737 43.3499H271.729C271.163 43.3499 270.658 43.3964 270.214 43.4895C269.77 43.5754 269.397 43.7079 269.097 43.887C268.796 44.066 268.567 44.2916 268.409 44.5637C268.252 44.8287 268.173 45.1402 268.173 45.4983C268.173 45.8635 268.255 46.1965 268.42 46.4973C268.585 46.7981 268.832 47.038 269.161 47.217C269.498 47.3889 269.91 47.4749 270.396 47.4749C271.005 47.4749 271.542 47.3459 272.008 47.0881C272.473 46.8303 272.842 46.5152 273.114 46.1428C273.394 45.7704 273.544 45.4088 273.565 45.0579L274.414 46.0139C274.364 46.3147 274.228 46.6477 274.006 47.0129C273.784 47.3782 273.487 47.7291 273.114 48.0657C272.749 48.3951 272.312 48.6708 271.804 48.8928C271.302 49.1077 270.737 49.2151 270.106 49.2151C269.319 49.2151 268.628 49.0611 268.033 48.7532C267.446 48.4452 266.988 48.0334 266.658 47.5178C266.336 46.995 266.175 46.4114 266.175 45.7668C266.175 45.1438 266.297 44.5959 266.54 44.1233C266.784 43.6435 267.134 43.246 267.593 42.9309C268.051 42.6086 268.603 42.3652 269.247 42.2004C269.892 42.0357 270.611 41.9534 271.406 41.9534H273.716ZM286.091 45.8528L291.451 37.3772H293.449V49.0002H291.451V40.5247L286.091 49.0002H284.114V37.3772H286.091V45.8528ZM304.524 42.4153V44.0266H298.38V42.4153H304.524ZM298.799 37.3772V49.0002H296.812V37.3772H298.799ZM306.136 37.3772V49.0002H304.138V37.3772H306.136ZM314.794 43.887H310.98L310.959 42.2971H314.074C314.69 42.2971 315.202 42.2362 315.61 42.1145C316.026 41.9928 316.337 41.8101 316.545 41.5667C316.753 41.3232 316.856 41.0224 316.856 40.6643C316.856 40.385 316.796 40.1415 316.674 39.9338C316.559 39.719 316.384 39.5435 316.147 39.4075C315.911 39.2642 315.618 39.1604 315.267 39.0959C314.923 39.0243 314.518 38.9885 314.053 38.9885H311.507V49.0002H309.52V37.3772H314.053C314.79 37.3772 315.453 37.4417 316.04 37.5706C316.634 37.6995 317.139 37.8964 317.555 38.1614C317.977 38.4192 318.299 38.7486 318.521 39.1497C318.743 39.5507 318.854 40.0234 318.854 40.5676C318.854 40.9185 318.783 41.2515 318.64 41.5667C318.496 41.8818 318.285 42.1611 318.006 42.4045C317.727 42.648 317.383 42.8486 316.975 43.0061C316.566 43.1565 316.097 43.2532 315.567 43.2961L314.794 43.887ZM314.794 49.0002H310.261L311.249 47.3889H314.794C315.345 47.3889 315.804 47.3209 316.169 47.1848C316.534 47.0416 316.806 46.8411 316.985 46.5833C317.172 46.3183 317.265 46.0032 317.265 45.6379C317.265 45.2727 317.172 44.9612 316.985 44.7034C316.806 44.4384 316.534 44.2379 316.169 44.1018C315.804 43.9586 315.345 43.887 314.794 43.887H311.775L311.797 42.2971H315.567L316.287 42.8987C316.924 42.9488 317.465 43.1064 317.909 43.3713C318.353 43.6363 318.69 43.9729 318.919 44.3811C319.148 44.7821 319.263 45.219 319.263 45.6917C319.263 46.2359 319.159 46.7157 318.951 47.1311C318.751 47.5465 318.457 47.8938 318.07 48.1731C317.684 48.4452 317.215 48.6529 316.663 48.7961C316.112 48.9322 315.489 49.0002 314.794 49.0002ZM326.75 49.2151C325.941 49.2151 325.207 49.079 324.548 48.8069C323.896 48.5276 323.334 48.1373 322.861 47.636C322.396 47.1347 322.038 46.5403 321.787 45.8528C321.536 45.1653 321.411 44.4133 321.411 43.5969V43.1458C321.411 42.2004 321.551 41.359 321.83 40.6213C322.109 39.8765 322.489 39.2463 322.969 38.7307C323.449 38.2151 323.993 37.8248 324.602 37.5598C325.21 37.2948 325.84 37.1624 326.492 37.1624C327.323 37.1624 328.039 37.3056 328.641 37.592C329.249 37.8785 329.747 38.2795 330.134 38.7952C330.521 39.3036 330.807 39.9052 330.993 40.5999C331.179 41.2874 331.272 42.0393 331.272 42.8557V43.7473H322.593V42.1252H329.285V41.9749C329.257 41.4592 329.149 40.9579 328.963 40.4709C328.784 39.984 328.497 39.5829 328.104 39.2678C327.71 38.9527 327.173 38.7952 326.492 38.7952C326.041 38.7952 325.626 38.8918 325.246 39.0852C324.867 39.2714 324.541 39.5507 324.269 39.9231C323.996 40.2955 323.785 40.7502 323.635 41.2874C323.484 41.8245 323.409 42.4439 323.409 43.1458V43.5969C323.409 44.1484 323.484 44.6676 323.635 45.1545C323.792 45.6344 324.018 46.0569 324.312 46.4221C324.612 46.7874 324.974 47.0738 325.396 47.2815C325.826 47.4892 326.313 47.593 326.857 47.593C327.559 47.593 328.154 47.4498 328.641 47.1633C329.128 46.8769 329.554 46.4937 329.919 46.0139L331.122 46.97C330.871 47.3495 330.553 47.7112 330.166 48.0549C329.779 48.3987 329.303 48.678 328.737 48.8928C328.179 49.1077 327.516 49.2151 326.75 49.2151ZM338.244 47.5823C338.717 47.5823 339.154 47.4856 339.555 47.2922C339.956 47.0989 340.285 46.8339 340.543 46.4973C340.801 46.1536 340.948 45.7633 340.983 45.3264H342.874C342.838 46.0139 342.605 46.6549 342.176 47.2493C341.753 47.8365 341.198 48.3127 340.511 48.678C339.823 49.0361 339.068 49.2151 338.244 49.2151C337.37 49.2151 336.608 49.0611 335.956 48.7532C335.312 48.4452 334.774 48.0227 334.345 47.4856C333.922 46.9485 333.604 46.3326 333.389 45.6379C333.181 44.9361 333.077 44.1949 333.077 43.4143V42.9631C333.077 42.1825 333.181 41.4449 333.389 40.7502C333.604 40.0484 333.922 39.429 334.345 38.8918C334.774 38.3547 335.312 37.9322 335.956 37.6243C336.608 37.3163 337.37 37.1624 338.244 37.1624C339.154 37.1624 339.949 37.3486 340.629 37.7209C341.309 38.0862 341.843 38.5875 342.229 39.2249C342.623 39.8551 342.838 40.5712 342.874 41.3733H340.983C340.948 40.8935 340.812 40.4602 340.575 40.0735C340.346 39.6868 340.031 39.3788 339.63 39.1497C339.236 38.9133 338.774 38.7952 338.244 38.7952C337.635 38.7952 337.123 38.9169 336.708 39.1604C336.3 39.3967 335.974 39.719 335.73 40.1272C335.494 40.5282 335.322 40.9758 335.215 41.47C335.115 41.9569 335.064 42.4547 335.064 42.9631V43.4143C335.064 43.9228 335.115 44.4241 335.215 44.9182C335.315 45.4124 335.483 45.8599 335.72 46.261C335.963 46.662 336.289 46.9843 336.697 47.2278C337.113 47.4641 337.628 47.5823 338.244 47.5823ZM349.846 37.3772V49.0002H347.848V37.3772H349.846ZM353.745 37.3772V38.9885H344.023V37.3772H353.745ZM354.723 43.3176V43.0706C354.723 42.2327 354.844 41.4556 355.088 40.7395C355.331 40.0162 355.682 39.3896 356.141 38.8596C356.599 38.3225 357.154 37.9071 357.806 37.6135C358.457 37.3127 359.188 37.1624 359.997 37.1624C360.813 37.1624 361.548 37.3127 362.199 37.6135C362.858 37.9071 363.417 38.3225 363.875 38.8596C364.34 39.3896 364.695 40.0162 364.938 40.7395C365.182 41.4556 365.304 42.2327 365.304 43.0706V43.3176C365.304 44.1555 365.182 44.9325 364.938 45.6487C364.695 46.3648 364.34 46.9915 363.875 47.5286C363.417 48.0585 362.862 48.4739 362.21 48.7747C361.565 49.0683 360.835 49.2151 360.019 49.2151C359.202 49.2151 358.468 49.0683 357.816 48.7747C357.165 48.4739 356.606 48.0585 356.141 47.5286C355.682 46.9915 355.331 46.3648 355.088 45.6487C354.844 44.9325 354.723 44.1555 354.723 43.3176ZM356.71 43.0706V43.3176C356.71 43.8977 356.778 44.4456 356.914 44.9612C357.05 45.4696 357.254 45.9208 357.526 46.3147C357.806 46.7086 358.153 47.0201 358.568 47.2493C358.984 47.4713 359.467 47.5823 360.019 47.5823C360.563 47.5823 361.039 47.4713 361.447 47.2493C361.863 47.0201 362.206 46.7086 362.479 46.3147C362.751 45.9208 362.955 45.4696 363.091 44.9612C363.234 44.4456 363.306 43.8977 363.306 43.3176V43.0706C363.306 42.4976 363.234 41.9569 363.091 41.4485C362.955 40.9329 362.747 40.4781 362.468 40.0842C362.196 39.6832 361.852 39.3681 361.437 39.1389C361.028 38.9097 360.549 38.7952 359.997 38.7952C359.453 38.7952 358.973 38.9097 358.558 39.1389C358.149 39.3681 357.806 39.6832 357.526 40.0842C357.254 40.4781 357.05 40.9329 356.914 41.4485C356.778 41.9569 356.71 42.4976 356.71 43.0706ZM369.783 39.6116V53.469H367.785V37.3772H369.611L369.783 39.6116ZM377.614 43.092V43.3176C377.614 44.1627 377.514 44.9469 377.313 45.6702C377.113 46.3863 376.819 47.0094 376.433 47.5393C376.053 48.0693 375.584 48.481 375.025 48.7747C374.467 49.0683 373.826 49.2151 373.103 49.2151C372.365 49.2151 371.713 49.0933 371.147 48.8499C370.582 48.6064 370.102 48.2519 369.708 47.7864C369.314 47.3209 368.999 46.7623 368.763 46.1106C368.534 45.4589 368.376 44.7249 368.29 43.9084V42.7053C368.376 41.8459 368.537 41.0761 368.773 40.3958C369.01 39.7154 369.321 39.1353 369.708 38.6555C370.102 38.1685 370.578 37.7997 371.137 37.5491C371.695 37.2913 372.34 37.1624 373.07 37.1624C373.801 37.1624 374.449 37.3056 375.015 37.592C375.58 37.8713 376.057 38.2724 376.443 38.7952C376.83 39.318 377.12 39.9446 377.313 40.675C377.514 41.3984 377.614 42.204 377.614 43.092ZM375.616 43.3176V43.092C375.616 42.512 375.555 41.9677 375.434 41.4592C375.312 40.9436 375.122 40.4924 374.864 40.1057C374.614 39.7118 374.291 39.4039 373.897 39.1819C373.504 38.9527 373.035 38.8381 372.49 38.8381C371.989 38.8381 371.552 38.9241 371.18 39.0959C370.814 39.2678 370.503 39.5006 370.245 39.7942C369.987 40.0806 369.776 40.4101 369.611 40.7825C369.454 41.1477 369.336 41.5273 369.257 41.9211V44.7034C369.4 45.2047 369.601 45.6773 369.858 46.1213C370.116 46.5582 370.46 46.9127 370.89 47.1848C371.319 47.4498 371.86 47.5823 372.512 47.5823C373.049 47.5823 373.511 47.4713 373.897 47.2493C374.291 47.0201 374.614 46.7086 374.864 46.3147C375.122 45.9208 375.312 45.4696 375.434 44.9612C375.555 44.4456 375.616 43.8977 375.616 43.3176ZM387.003 47.0129V41.0295C387.003 40.5712 386.91 40.1737 386.724 39.8372C386.545 39.4934 386.272 39.2284 385.907 39.0422C385.542 38.856 385.091 38.7629 384.554 38.7629C384.052 38.7629 383.612 38.8489 383.232 39.0208C382.86 39.1926 382.566 39.4182 382.352 39.6975C382.144 39.9768 382.04 40.2776 382.04 40.5999H380.053C380.053 40.1845 380.16 39.7727 380.375 39.3645C380.59 38.9563 380.898 38.5875 381.299 38.2581C381.707 37.9215 382.194 37.6565 382.76 37.4631C383.333 37.2626 383.97 37.1624 384.672 37.1624C385.517 37.1624 386.262 37.3056 386.906 37.592C387.558 37.8785 388.066 38.3118 388.432 38.8918C388.804 39.4648 388.99 40.1845 388.99 41.051V46.4651C388.99 46.8518 389.022 47.2636 389.087 47.7004C389.159 48.1373 389.262 48.5133 389.398 48.8284V49.0002H387.325C387.225 48.7711 387.146 48.4667 387.089 48.0872C387.032 47.7004 387.003 47.3424 387.003 47.0129ZM387.347 41.9534L387.368 43.3499H385.359C384.794 43.3499 384.289 43.3964 383.845 43.4895C383.401 43.5754 383.028 43.7079 382.728 43.887C382.427 44.066 382.198 44.2916 382.04 44.5637C381.882 44.8287 381.804 45.1402 381.804 45.4983C381.804 45.8635 381.886 46.1965 382.051 46.4973C382.215 46.7981 382.463 47.038 382.792 47.217C383.129 47.3889 383.54 47.4749 384.027 47.4749C384.636 47.4749 385.173 47.3459 385.639 47.0881C386.104 46.8303 386.473 46.5152 386.745 46.1428C387.024 45.7704 387.175 45.4088 387.196 45.0579L388.045 46.0139C387.995 46.3147 387.859 46.6477 387.637 47.0129C387.415 47.3782 387.118 47.7291 386.745 48.0657C386.38 48.3951 385.943 48.6708 385.435 48.8928C384.933 49.1077 384.368 49.2151 383.737 49.2151C382.95 49.2151 382.258 49.0611 381.664 48.7532C381.077 48.4452 380.618 48.0334 380.289 47.5178C379.967 46.995 379.806 46.4114 379.806 45.7668C379.806 45.1438 379.927 44.5959 380.171 44.1233C380.414 43.6435 380.765 43.246 381.224 42.9309C381.682 42.6086 382.233 42.3652 382.878 42.2004C383.522 42.0357 384.242 41.9534 385.037 41.9534H387.347ZM398.798 46.3577L402.751 37.3772H404.663L399.485 49.0002H398.11L392.954 37.3772H394.866L398.798 46.3577ZM394.286 37.3772V49.0002H392.299V37.3772H394.286ZM403.245 49.0002V37.3772H405.243V49.0002H403.245ZM140.663 71.8528L146.023 63.3772H148.021V75.0002H146.023V66.5247L140.663 75.0002H138.687V63.3772H140.663V71.8528ZM164.414 63.3772V65.0208H158.538V63.3772H164.414ZM158.828 63.3772V75.0002H156.841V63.3772H158.828ZM166.176 63.3772V75.0002H164.178V63.3772H166.176ZM168.84 69.3176V69.0706C168.84 68.2327 168.962 67.4556 169.205 66.7395C169.449 66.0162 169.799 65.3896 170.258 64.8596C170.716 64.3225 171.271 63.9071 171.923 63.6135C172.575 63.3127 173.305 63.1624 174.114 63.1624C174.931 63.1624 175.665 63.3127 176.316 63.6135C176.975 63.9071 177.534 64.3225 177.992 64.8596C178.458 65.3896 178.812 66.0162 179.056 66.7395C179.299 67.4556 179.421 68.2327 179.421 69.0706V69.3176C179.421 70.1555 179.299 70.9325 179.056 71.6487C178.812 72.3648 178.458 72.9915 177.992 73.5286C177.534 74.0585 176.979 74.4739 176.327 74.7747C175.683 75.0683 174.952 75.2151 174.136 75.2151C173.319 75.2151 172.585 75.0683 171.934 74.7747C171.282 74.4739 170.723 74.0585 170.258 73.5286C169.799 72.9915 169.449 72.3648 169.205 71.6487C168.962 70.9325 168.84 70.1555 168.84 69.3176ZM170.827 69.0706V69.3176C170.827 69.8977 170.895 70.4456 171.031 70.9612C171.167 71.4696 171.371 71.9208 171.644 72.3147C171.923 72.7086 172.27 73.0201 172.686 73.2493C173.101 73.4713 173.584 73.5823 174.136 73.5823C174.68 73.5823 175.156 73.4713 175.564 73.2493C175.98 73.0201 176.324 72.7086 176.596 72.3147C176.868 71.9208 177.072 71.4696 177.208 70.9612C177.351 70.4456 177.423 69.8977 177.423 69.3176V69.0706C177.423 68.4976 177.351 67.9569 177.208 67.4485C177.072 66.9329 176.864 66.4781 176.585 66.0842C176.313 65.6832 175.969 65.3681 175.554 65.1389C175.146 64.9097 174.666 64.7952 174.114 64.7952C173.57 64.7952 173.09 64.9097 172.675 65.1389C172.267 65.3681 171.923 65.6832 171.644 66.0842C171.371 66.4781 171.167 66.9329 171.031 67.4485C170.895 67.9569 170.827 68.4976 170.827 69.0706ZM189.508 63.3772V65.0208H183.89V63.3772H189.508ZM191.259 63.3772V75.0002H189.271V63.3772H191.259ZM183.406 63.3772H185.404L185.104 68.9846C185.053 69.8512 184.971 70.6174 184.856 71.2834C184.749 71.9423 184.599 72.5081 184.405 72.9807C184.219 73.4534 183.983 73.8401 183.696 74.1409C183.417 74.4345 183.08 74.6529 182.687 74.7961C182.293 74.9322 181.838 75.0002 181.322 75.0002H180.699V73.2493L181.129 73.217C181.437 73.1956 181.698 73.1239 181.913 73.0022C182.135 72.8805 182.321 72.7014 182.472 72.4651C182.622 72.2216 182.744 71.9101 182.837 71.5305C182.937 71.151 183.012 70.6998 183.062 70.177C183.12 69.6542 183.163 69.0455 183.191 68.3508L183.406 63.3772ZM197.726 73.7971L200.959 63.3772H203.086L198.424 76.7942C198.316 77.0806 198.173 77.3886 197.994 77.718C197.822 78.0546 197.6 78.3733 197.328 78.6741C197.056 78.9749 196.727 79.2183 196.34 79.4045C195.96 79.5979 195.506 79.6946 194.976 79.6946C194.818 79.6946 194.618 79.6731 194.374 79.6301C194.131 79.5872 193.959 79.5514 193.858 79.5227L193.848 77.9114C193.905 77.9185 193.994 77.9257 194.116 77.9329C194.245 77.9472 194.335 77.9543 194.385 77.9543C194.836 77.9543 195.219 77.8935 195.534 77.7717C195.849 77.6571 196.114 77.4602 196.329 77.1809C196.551 76.9088 196.741 76.5328 196.898 76.053L197.726 73.7971ZM195.352 63.3772L198.37 72.4006L198.886 74.4954L197.457 75.2258L193.182 63.3772H195.352ZM213.646 63.3772V75.0002H211.658V63.3772H213.646ZM212.969 68.7161V70.3489C212.568 70.4993 212.16 70.6353 211.744 70.7571C211.336 70.8717 210.903 70.9648 210.444 71.0364C209.993 71.1008 209.503 71.1331 208.973 71.1331C208.056 71.1331 207.261 70.9755 206.588 70.6604C205.915 70.3381 205.396 69.8547 205.03 69.2102C204.665 68.5585 204.482 67.7385 204.482 66.7502V63.3557H206.47V66.7502C206.47 67.3948 206.566 67.9176 206.76 68.3186C206.953 68.7196 207.236 69.0168 207.608 69.2102C207.981 69.3964 208.436 69.4895 208.973 69.4895C209.488 69.4895 209.972 69.4573 210.423 69.3928C210.881 69.3212 211.318 69.2281 211.733 69.1135C212.156 68.9989 212.568 68.8665 212.969 68.7161ZM221.67 75.2151C220.861 75.2151 220.127 75.079 219.468 74.8069C218.816 74.5276 218.254 74.1373 217.781 73.636C217.316 73.1347 216.958 72.5403 216.707 71.8528C216.456 71.1653 216.331 70.4133 216.331 69.5969V69.1458C216.331 68.2004 216.471 67.359 216.75 66.6213C217.029 65.8765 217.409 65.2463 217.889 64.7307C218.368 64.2151 218.913 63.8248 219.521 63.5598C220.13 63.2948 220.76 63.1624 221.412 63.1624C222.243 63.1624 222.959 63.3056 223.561 63.592C224.169 63.8785 224.667 64.2795 225.054 64.7952C225.44 65.3036 225.727 65.9052 225.913 66.5999C226.099 67.2874 226.192 68.0393 226.192 68.8557V69.7473H217.513V68.1252H224.205V67.9749C224.176 67.4592 224.069 66.9579 223.883 66.4709C223.704 65.984 223.417 65.5829 223.023 65.2678C222.63 64.9527 222.092 64.7952 221.412 64.7952C220.961 64.7952 220.546 64.8918 220.166 65.0852C219.786 65.2714 219.461 65.5507 219.188 65.9231C218.916 66.2955 218.705 66.7502 218.555 67.2874C218.404 67.8245 218.329 68.4439 218.329 69.1458V69.5969C218.329 70.1484 218.404 70.6676 218.555 71.1545C218.712 71.6344 218.938 72.0569 219.231 72.4221C219.532 72.7874 219.894 73.0738 220.316 73.2815C220.746 73.4892 221.233 73.593 221.777 73.593C222.479 73.593 223.074 73.4498 223.561 73.1633C224.048 72.8769 224.474 72.4937 224.839 72.0139L226.042 72.97C225.791 73.3495 225.473 73.7112 225.086 74.0549C224.699 74.3987 224.223 74.678 223.657 74.8928C223.099 75.1077 222.436 75.2151 221.67 75.2151ZM236.397 68.4153V70.0266H230.253V68.4153H236.397ZM230.672 63.3772V75.0002H228.685V63.3772H230.672ZM238.009 63.3772V75.0002H236.011V63.3772H238.009ZM243.358 71.8528L248.719 63.3772H250.717V75.0002H248.719V66.5247L243.358 75.0002H241.382V63.3772H243.358V71.8528ZM258.73 75.2151C257.921 75.2151 257.187 75.079 256.528 74.8069C255.877 74.5276 255.314 74.1373 254.842 73.636C254.376 73.1347 254.018 72.5403 253.768 71.8528C253.517 71.1653 253.392 70.4133 253.392 69.5969V69.1458C253.392 68.2004 253.531 67.359 253.811 66.6213C254.09 65.8765 254.469 65.2463 254.949 64.7307C255.429 64.2151 255.973 63.8248 256.582 63.5598C257.191 63.2948 257.821 63.1624 258.473 63.1624C259.303 63.1624 260.02 63.3056 260.621 63.592C261.23 63.8785 261.728 64.2795 262.114 64.7952C262.501 65.3036 262.787 65.9052 262.974 66.5999C263.16 67.2874 263.253 68.0393 263.253 68.8557V69.7473H254.573V68.1252H261.266V67.9749C261.237 67.4592 261.13 66.9579 260.943 66.4709C260.764 65.984 260.478 65.5829 260.084 65.2678C259.69 64.9527 259.153 64.7952 258.473 64.7952C258.021 64.7952 257.606 64.8918 257.227 65.0852C256.847 65.2714 256.521 65.5507 256.249 65.9231C255.977 66.2955 255.766 66.7502 255.615 67.2874C255.465 67.8245 255.39 68.4439 255.39 69.1458V69.5969C255.39 70.1484 255.465 70.6676 255.615 71.1545C255.773 71.6344 255.998 72.0569 256.292 72.4221C256.593 72.7874 256.954 73.0738 257.377 73.2815C257.807 73.4892 258.294 73.593 258.838 73.593C259.54 73.593 260.134 73.4498 260.621 73.1633C261.108 72.8769 261.534 72.4937 261.899 72.0139L263.103 72.97C262.852 73.3495 262.533 73.7112 262.146 74.0549C261.76 74.3987 261.284 74.678 260.718 74.8928C260.159 75.1077 259.497 75.2151 258.73 75.2151ZM270.504 69.3176V69.0706C270.504 68.2327 270.626 67.4556 270.869 66.7395C271.113 66.0162 271.464 65.3896 271.922 64.8596C272.38 64.3225 272.935 63.9071 273.587 63.6135C274.239 63.3127 274.969 63.1624 275.778 63.1624C276.595 63.1624 277.329 63.3127 277.98 63.6135C278.639 63.9071 279.198 64.3225 279.656 64.8596C280.122 65.3896 280.476 66.0162 280.72 66.7395C280.963 67.4556 281.085 68.2327 281.085 69.0706V69.3176C281.085 70.1555 280.963 70.9325 280.72 71.6487C280.476 72.3648 280.122 72.9915 279.656 73.5286C279.198 74.0585 278.643 74.4739 277.991 74.7747C277.347 75.0683 276.616 75.2151 275.8 75.2151C274.983 75.2151 274.249 75.0683 273.598 74.7747C272.946 74.4739 272.387 74.0585 271.922 73.5286C271.464 72.9915 271.113 72.3648 270.869 71.6487C270.626 70.9325 270.504 70.1555 270.504 69.3176ZM272.491 69.0706V69.3176C272.491 69.8977 272.559 70.4456 272.695 70.9612C272.831 71.4696 273.035 71.9208 273.308 72.3147C273.587 72.7086 273.934 73.0201 274.35 73.2493C274.765 73.4713 275.248 73.5823 275.8 73.5823C276.344 73.5823 276.82 73.4713 277.229 73.2493C277.644 73.0201 277.988 72.7086 278.26 72.3147C278.532 71.9208 278.736 71.4696 278.872 70.9612C279.015 70.4456 279.087 69.8977 279.087 69.3176V69.0706C279.087 68.4976 279.015 67.9569 278.872 67.4485C278.736 66.9329 278.528 66.4781 278.249 66.0842C277.977 65.6832 277.633 65.3681 277.218 65.1389C276.81 64.9097 276.33 64.7952 275.778 64.7952C275.234 64.7952 274.754 64.9097 274.339 65.1389C273.931 65.3681 273.587 65.6832 273.308 66.0842C273.035 66.4781 272.831 66.9329 272.695 67.4485C272.559 67.9569 272.491 68.4976 272.491 69.0706ZM283.749 75.0002V63.3772H285.736V73.3674H291.086V63.3772H293.084V75.0002H283.749ZM294.459 73.3674L294.266 78.4485H292.493V75.0002H290.979V73.3674H294.459ZM301.441 75.2151C300.632 75.2151 299.898 75.079 299.239 74.8069C298.588 74.5276 298.025 74.1373 297.553 73.636C297.087 73.1347 296.729 72.5403 296.479 71.8528C296.228 71.1653 296.103 70.4133 296.103 69.5969V69.1458C296.103 68.2004 296.242 67.359 296.521 66.6213C296.801 65.8765 297.18 65.2463 297.66 64.7307C298.14 64.2151 298.684 63.8248 299.293 63.5598C299.902 63.2948 300.532 63.1624 301.184 63.1624C302.014 63.1624 302.73 63.3056 303.332 63.592C303.941 63.8785 304.438 64.2795 304.825 64.7952C305.212 65.3036 305.498 65.9052 305.685 66.5999C305.871 67.2874 305.964 68.0393 305.964 68.8557V69.7473H297.284V68.1252H303.977V67.9749C303.948 67.4592 303.84 66.9579 303.654 66.4709C303.475 65.984 303.189 65.5829 302.795 65.2678C302.401 64.9527 301.864 64.7952 301.184 64.7952C300.732 64.7952 300.317 64.8918 299.938 65.0852C299.558 65.2714 299.232 65.5507 298.96 65.9231C298.688 66.2955 298.477 66.7502 298.326 67.2874C298.176 67.8245 298.101 68.4439 298.101 69.1458V69.5969C298.101 70.1484 298.176 70.6676 298.326 71.1545C298.484 71.6344 298.709 72.0569 299.003 72.4221C299.304 72.7874 299.665 73.0738 300.088 73.2815C300.518 73.4892 301.005 73.593 301.549 73.593C302.251 73.593 302.845 73.4498 303.332 73.1633C303.819 72.8769 304.245 72.4937 304.61 72.0139L305.813 72.97C305.563 73.3495 305.244 73.7112 304.857 74.0549C304.471 74.3987 303.994 74.678 303.429 74.8928C302.87 75.1077 302.208 75.2151 301.441 75.2151ZM316.169 68.4153V70.0266H310.024V68.4153H316.169ZM310.443 63.3772V75.0002H308.456V63.3772H310.443ZM317.78 63.3772V75.0002H315.782V63.3772H317.78ZM323.141 63.3772V75.0002H321.153V63.3772H323.141ZM330.768 63.3772L325.257 70.0374H322.475L322.174 68.2971H324.451L328.351 63.3772H330.768ZM328.63 75.0002L324.354 69.7366L325.633 68.2971L331.154 75.0002H328.63ZM335.032 71.8528L340.393 63.3772H342.391V75.0002H340.393V66.5247L335.032 75.0002H333.056V63.3772H335.032V71.8528ZM353.197 63.3772V75.0002H351.21V63.3772H353.197ZM360.824 63.3772L355.313 70.0374H352.531L352.23 68.2971H354.508L358.407 63.3772H360.824ZM358.687 75.0002L354.411 69.7366L355.689 68.2971L361.211 75.0002H358.687ZM362.178 69.3176V69.0706C362.178 68.2327 362.299 67.4556 362.543 66.7395C362.786 66.0162 363.137 65.3896 363.596 64.8596C364.054 64.3225 364.609 63.9071 365.261 63.6135C365.912 63.3127 366.643 63.1624 367.452 63.1624C368.269 63.1624 369.003 63.3127 369.654 63.6135C370.313 63.9071 370.872 64.3225 371.33 64.8596C371.796 65.3896 372.15 66.0162 372.394 66.7395C372.637 67.4556 372.759 68.2327 372.759 69.0706V69.3176C372.759 70.1555 372.637 70.9325 372.394 71.6487C372.15 72.3648 371.796 72.9915 371.33 73.5286C370.872 74.0585 370.317 74.4739 369.665 74.7747C369.021 75.0683 368.29 75.2151 367.474 75.2151C366.657 75.2151 365.923 75.0683 365.271 74.7747C364.62 74.4739 364.061 74.0585 363.596 73.5286C363.137 72.9915 362.786 72.3648 362.543 71.6487C362.299 70.9325 362.178 70.1555 362.178 69.3176ZM364.165 69.0706V69.3176C364.165 69.8977 364.233 70.4456 364.369 70.9612C364.505 71.4696 364.709 71.9208 364.981 72.3147C365.261 72.7086 365.608 73.0201 366.023 73.2493C366.439 73.4713 366.922 73.5823 367.474 73.5823C368.018 73.5823 368.494 73.4713 368.902 73.2493C369.318 73.0201 369.661 72.7086 369.934 72.3147C370.206 71.9208 370.41 71.4696 370.546 70.9612C370.689 70.4456 370.761 69.8977 370.761 69.3176V69.0706C370.761 68.4976 370.689 67.9569 370.546 67.4485C370.41 66.9329 370.202 66.4781 369.923 66.0842C369.651 65.6832 369.307 65.3681 368.892 65.1389C368.483 64.9097 368.004 64.7952 367.452 64.7952C366.908 64.7952 366.428 64.9097 366.013 65.1389C365.604 65.3681 365.261 65.6832 364.981 66.0842C364.709 66.4781 364.505 66.9329 364.369 67.4485C364.233 67.9569 364.165 68.4976 364.165 69.0706ZM381.933 72.3577L385.886 63.3772H387.798L382.62 75.0002H381.245L376.089 63.3772H378.001L381.933 72.3577ZM377.421 63.3772V75.0002H375.434V63.3772H377.421ZM386.38 75.0002V63.3772H388.378V75.0002H386.38ZM399.324 63.3772V65.0208H393.448V63.3772H399.324ZM393.738 63.3772V75.0002H391.751V63.3772H393.738ZM401.086 63.3772V75.0002H399.088V63.3772H401.086ZM411.13 73.0129V67.0295C411.13 66.5712 411.037 66.1737 410.851 65.8372C410.672 65.4934 410.399 65.2284 410.034 65.0422C409.669 64.856 409.218 64.7629 408.681 64.7629C408.179 64.7629 407.739 64.8489 407.359 65.0208C406.987 65.1926 406.693 65.4182 406.479 65.6975C406.271 65.9768 406.167 66.2776 406.167 66.5999H404.18C404.18 66.1845 404.287 65.7727 404.502 65.3645C404.717 64.9563 405.025 64.5875 405.426 64.2581C405.834 63.9215 406.321 63.6565 406.887 63.4631C407.46 63.2626 408.097 63.1624 408.799 63.1624C409.644 63.1624 410.389 63.3056 411.033 63.592C411.685 63.8785 412.193 64.3118 412.559 64.8918C412.931 65.4648 413.117 66.1845 413.117 67.051V72.4651C413.117 72.8518 413.149 73.2636 413.214 73.7004C413.285 74.1373 413.389 74.5133 413.525 74.8284V75.0002H411.452C411.352 74.7711 411.273 74.4667 411.216 74.0872C411.159 73.7004 411.13 73.3424 411.13 73.0129ZM411.474 67.9534L411.495 69.3499H409.486C408.921 69.3499 408.416 69.3964 407.972 69.4895C407.528 69.5754 407.155 69.7079 406.854 69.887C406.554 70.066 406.325 70.2916 406.167 70.5637C406.009 70.8287 405.931 71.1402 405.931 71.4983C405.931 71.8635 406.013 72.1965 406.178 72.4973C406.342 72.7981 406.59 73.038 406.919 73.217C407.256 73.3889 407.667 73.4749 408.154 73.4749C408.763 73.4749 409.3 73.3459 409.766 73.0881C410.231 72.8303 410.6 72.5152 410.872 72.1428C411.151 71.7704 411.302 71.4088 411.323 71.0579L412.172 72.0139C412.122 72.3147 411.986 72.6477 411.764 73.0129C411.542 73.3782 411.244 73.7291 410.872 74.0657C410.507 74.3951 410.07 74.6708 409.562 74.8928C409.06 75.1077 408.494 75.2151 407.864 75.2151C407.076 75.2151 406.385 75.0611 405.791 74.7532C405.204 74.4452 404.745 74.0334 404.416 73.5178C404.094 72.995 403.933 72.4114 403.933 71.7668C403.933 71.1438 404.054 70.5959 404.298 70.1233C404.541 69.6435 404.892 69.246 405.351 68.9309C405.809 68.6086 406.36 68.3652 407.005 68.2004C407.649 68.0357 408.369 67.9534 409.164 67.9534H411.474ZM424.128 68.4153V70.0266H417.983V68.4153H424.128ZM418.402 63.3772V75.0002H416.415V63.3772H418.402ZM425.739 63.3772V75.0002H423.741V63.3772H425.739ZM431.089 71.8528L436.449 63.3772H438.447V75.0002H436.449V66.5247L431.089 75.0002H429.112V63.3772H431.089V71.8528ZM443.786 71.8528L449.146 63.3772H451.145V75.0002H449.146V66.5247L443.786 75.0002H441.81V63.3772H443.786V71.8528Z" fill="black"/>
<defs>
<filter id="filter0_d_822_2149" x="545.052" y="5.08643" width="106.19" height="106.163" filterUnits="userSpaceOnUse" color-interpolation-filters="sRGB">
<feFlood flood-opacity="0" result="BackgroundImageFix"/>
<feColorMatrix in="SourceAlpha" type="matrix" values="0 0 0 0 0 0 0 0 0 0 0 0 0 0 0 0 0 0 127 0" result="hardAlpha"/>
<feOffset/>
<feGaussianBlur stdDeviation="12"/>
<feComposite in2="hardAlpha" operator="out"/>
<feColorMatrix type="matrix" values="0 0 0 0 0.579167 0 0 0 0 0.579167 0 0 0 0 0.579167 0 0 0 0.3 0"/>
<feBlend mode="normal" in2="BackgroundImageFix" result="effect1_dropShadow_822_2149"/>
<feBlend mode="normal" in="SourceGraphic" in2="effect1_dropShadow_822_2149" result="shape"/>
</filter>
</defs>
</svg>
