<svg width="74" height="74" viewBox="0 0 74 74" fill="none" xmlns="http://www.w3.org/2000/svg">
<path d="M54.6984 70.1458H19.3017C11.6242 70.1458 5.39587 63.9174 5.39587 56.2399V35.4891C5.39587 27.8116 11.6242 21.5833 19.3017 21.5833H54.6984C62.3759 21.5833 68.6042 27.8116 68.6042 35.4891V39.9291C68.6042 41.1933 67.5559 42.2416 66.2917 42.2416H60.0634C58.9842 42.2416 57.9975 42.6424 57.2884 43.3824L57.2575 43.4133C56.3942 44.2458 55.9934 45.3866 56.0859 46.5583C56.2709 48.5933 58.2134 50.2274 60.4334 50.2274H66.2917C67.5559 50.2274 68.6042 51.2758 68.6042 52.5399V56.2091C68.6042 63.9174 62.3759 70.1458 54.6984 70.1458ZM19.3017 26.2083C14.1834 26.2083 10.0209 30.3708 10.0209 35.4891V56.2399C10.0209 61.3583 14.1834 65.5208 19.3017 65.5208H54.6984C59.8167 65.5208 63.9792 61.3583 63.9792 56.2399V54.8833H60.4334C55.7775 54.8833 51.8309 51.4299 51.4609 46.9899C51.2142 44.4616 52.1392 41.9641 53.9892 40.1449C55.5925 38.5108 57.7509 37.6166 60.0634 37.6166H63.9792V35.4891C63.9792 30.3708 59.8167 26.2083 54.6984 26.2083H19.3017Z" fill="#FF9900"/>
<path d="M7.70837 40.5767C6.44421 40.5767 5.39587 39.5284 5.39587 38.2642V24.1736C5.39587 19.5794 8.29421 15.4168 12.58 13.7826L37.0617 4.53261C39.59 3.57677 42.3959 3.91606 44.585 5.45773C46.805 6.9994 48.1 9.4969 48.1 12.1794V23.896C48.1 25.1602 47.0517 26.2085 45.7875 26.2085C44.5234 26.2085 43.475 25.1602 43.475 23.896V12.1794C43.475 11.0077 42.92 9.9285 41.9334 9.25017C40.9467 8.57183 39.775 8.41767 38.665 8.84933L14.1834 18.0993C11.6859 19.0552 9.99004 21.4911 9.99004 24.1736V38.2642C10.0209 39.5592 8.97254 40.5767 7.70837 40.5767Z" fill="#FF9900"/>
<path d="M60.4348 54.8839C55.779 54.8839 51.8323 51.4305 51.4623 46.9905C51.2157 44.4314 52.1407 41.9339 53.9907 40.1147C55.5632 38.5114 57.7215 37.6172 60.034 37.6172H66.4473C69.4998 37.7097 71.8432 40.1147 71.8432 43.0747V49.4263C71.8432 52.3863 69.4998 54.7914 66.5398 54.8839H60.4348ZM66.3857 42.2422H60.0648C58.9857 42.2422 57.999 42.643 57.2898 43.383C56.3957 44.2464 55.964 45.418 56.0873 46.5897C56.2723 48.6247 58.2148 50.2589 60.4348 50.2589H66.4782C66.879 50.2589 67.249 49.8889 67.249 49.4263V43.0747C67.249 42.6122 66.879 42.273 66.3857 42.2422Z" fill="#FF9900"/>
<path d="M43.1667 39.3125H21.5834C20.3192 39.3125 19.2709 38.2642 19.2709 37C19.2709 35.7358 20.3192 34.6875 21.5834 34.6875H43.1667C44.4309 34.6875 45.4792 35.7358 45.4792 37C45.4792 38.2642 44.4309 39.3125 43.1667 39.3125Z" fill="#FF9900"/>
</svg>
