<svg width="346" height="84" viewBox="0 0 346 84" fill="none" xmlns="http://www.w3.org/2000/svg">
<path d="M53.0456 59.3666C62.811 49.6058 62.811 33.7804 53.0455 24.0196C43.2801 14.2588 27.4473 14.2588 17.6819 24.0196C7.91646 33.7804 7.91643 49.6058 17.6819 59.3666C27.4473 69.1274 43.2802 69.1274 53.0456 59.3666Z" fill="#00A3FF"/>
<path d="M41.1226 51.0398H28.8789C28.8789 49.754 29.0864 48.5903 29.5015 47.5486C29.9165 46.5069 30.4333 45.685 31.0518 45.0828C31.6702 44.4724 32.3416 43.8946 33.0659 43.3494C33.7902 42.796 34.4575 42.328 35.0679 41.9456C35.6864 41.5549 36.2031 41.1033 36.6182 40.5906C37.0413 40.0697 37.2529 39.5123 37.2529 38.9182C37.2529 38.2183 37.0332 37.669 36.5938 37.2703C36.1624 36.8634 35.548 36.6599 34.7505 36.6599C34.1157 36.6599 33.5664 36.8389 33.1025 37.197C32.6468 37.5551 32.3457 37.9091 32.1992 38.259L32.0039 38.7839L28.8789 37.2947C28.9115 37.1807 28.9644 37.0302 29.0376 36.843C29.1108 36.6558 29.3062 36.3263 29.6235 35.8542C29.9409 35.3741 30.3071 34.955 30.7222 34.5969C31.1372 34.2389 31.7231 33.9133 32.48 33.6204C33.245 33.3193 34.0832 33.1687 34.9946 33.1687C36.7769 33.1687 38.2417 33.7099 39.3892 34.7922C40.5448 35.8746 41.1226 37.2052 41.1226 38.7839C41.1226 39.671 40.9313 40.4766 40.5488 41.2009C40.1663 41.9252 39.6659 42.5437 39.0474 43.0564C38.4289 43.561 37.7941 44.0289 37.1431 44.4602C36.5002 44.8834 35.841 45.3676 35.1655 45.9128C34.4901 46.45 33.9774 46.9911 33.6274 47.5364H41.1226V51.0398Z" fill="white"/>
<path d="M114.826 17.7898H112.167V16.7166H114.826C115.341 16.7166 115.758 16.6345 116.077 16.4705C116.396 16.3064 116.629 16.0785 116.774 15.7869C116.925 15.4952 117 15.1625 117 14.7888C117 14.447 116.925 14.1257 116.774 13.825C116.629 13.5242 116.396 13.2826 116.077 13.1003C115.758 12.9135 115.341 12.8201 114.826 12.8201H112.475V21.6931H111.155V11.74H114.826C115.578 11.74 116.214 11.8699 116.733 12.1296C117.253 12.3894 117.647 12.7494 117.916 13.2097C118.185 13.6654 118.319 14.1873 118.319 14.7751C118.319 15.4132 118.185 15.9578 117.916 16.4089C117.647 16.8601 117.253 17.2042 116.733 17.4412C116.214 17.6736 115.578 17.7898 114.826 17.7898ZM124.075 20.4285V16.6208C124.075 16.3292 124.016 16.0763 123.897 15.8621C123.784 15.6433 123.61 15.4747 123.378 15.3562C123.146 15.2377 122.858 15.1785 122.517 15.1785C122.198 15.1785 121.917 15.2332 121.676 15.3425C121.439 15.4519 121.252 15.5955 121.115 15.7732C120.983 15.9509 120.917 16.1423 120.917 16.3474H119.652C119.652 16.0831 119.721 15.821 119.857 15.5613C119.994 15.3015 120.19 15.0668 120.445 14.8572C120.705 14.643 121.015 14.4744 121.375 14.3513C121.74 14.2237 122.145 14.1599 122.592 14.1599C123.13 14.1599 123.604 14.2511 124.014 14.4333C124.428 14.6156 124.752 14.8914 124.984 15.2605C125.221 15.6251 125.34 16.0831 125.34 16.6345V20.0798C125.34 20.3259 125.36 20.588 125.401 20.866C125.447 21.144 125.513 21.3832 125.6 21.5837V21.6931H124.28C124.216 21.5473 124.166 21.3536 124.13 21.1121C124.093 20.866 124.075 20.6381 124.075 20.4285ZM124.294 17.2087L124.308 18.0974H123.029C122.669 18.0974 122.348 18.127 122.065 18.1863C121.783 18.241 121.546 18.3253 121.354 18.4392C121.163 18.5531 121.017 18.6967 120.917 18.8699C120.817 19.0385 120.767 19.2367 120.767 19.4646C120.767 19.697 120.819 19.9089 120.924 20.1003C121.029 20.2917 121.186 20.4444 121.396 20.5583C121.61 20.6677 121.872 20.7224 122.182 20.7224C122.569 20.7224 122.911 20.6404 123.207 20.4763C123.503 20.3123 123.738 20.1117 123.911 19.8748C124.089 19.6378 124.185 19.4076 124.198 19.1843L124.738 19.7927C124.706 19.9841 124.62 20.196 124.479 20.4285C124.337 20.6609 124.148 20.8842 123.911 21.0984C123.679 21.308 123.401 21.4835 123.077 21.6248C122.758 21.7615 122.398 21.8298 121.997 21.8298C121.496 21.8298 121.056 21.7319 120.678 21.5359C120.304 21.3399 120.012 21.0779 119.803 20.7498C119.598 20.4171 119.495 20.0457 119.495 19.6355C119.495 19.239 119.573 18.8904 119.728 18.5896C119.882 18.2843 120.106 18.0313 120.397 17.8308C120.689 17.6257 121.04 17.4708 121.45 17.366C121.86 17.2611 122.318 17.2087 122.824 17.2087H124.294ZM130.091 18.1589H128.73V17.3796H129.988C130.339 17.3796 130.617 17.3363 130.822 17.2498C131.027 17.1586 131.173 17.0333 131.26 16.8738C131.346 16.7143 131.39 16.5274 131.39 16.3132C131.39 16.1218 131.34 15.9418 131.239 15.7732C131.144 15.6 130.989 15.461 130.774 15.3562C130.56 15.2468 130.273 15.1921 129.913 15.1921C129.621 15.1921 129.357 15.2445 129.12 15.3494C128.883 15.4496 128.694 15.5886 128.553 15.7664C128.416 15.9395 128.348 16.1355 128.348 16.3542H127.083C127.083 15.9031 127.211 15.5157 127.466 15.1921C127.726 14.864 128.07 14.6111 128.498 14.4333C128.931 14.2556 129.403 14.1667 129.913 14.1667C130.341 14.1667 130.724 14.2146 131.062 14.3103C131.403 14.4014 131.693 14.5382 131.93 14.7205C132.167 14.8982 132.347 15.1215 132.47 15.3904C132.597 15.6547 132.661 15.9623 132.661 16.3132C132.661 16.5639 132.602 16.8009 132.483 17.0242C132.365 17.2475 132.194 17.4457 131.971 17.6189C131.747 17.7875 131.476 17.9197 131.157 18.0154C130.843 18.1111 130.487 18.1589 130.091 18.1589ZM128.73 17.6804H130.091C130.533 17.6804 130.923 17.7237 131.26 17.8103C131.597 17.8923 131.88 18.0154 132.107 18.1794C132.335 18.3435 132.506 18.5463 132.62 18.7878C132.739 19.0248 132.798 19.2983 132.798 19.6082C132.798 19.9545 132.727 20.2667 132.586 20.5447C132.449 20.8181 132.253 21.0505 131.998 21.2419C131.743 21.4333 131.438 21.5792 131.082 21.6794C130.731 21.7797 130.341 21.8298 129.913 21.8298C129.435 21.8298 128.97 21.7478 128.519 21.5837C128.067 21.4197 127.696 21.1667 127.404 20.825C127.113 20.4786 126.967 20.0388 126.967 19.5056H128.231C128.231 19.7289 128.302 19.9408 128.443 20.1414C128.585 20.3419 128.781 20.5037 129.031 20.6267C129.286 20.7498 129.58 20.8113 129.913 20.8113C130.269 20.8113 130.565 20.7566 130.802 20.6472C131.039 20.5378 131.216 20.392 131.335 20.2097C131.458 20.0274 131.52 19.8292 131.52 19.615C131.52 19.337 131.465 19.1137 131.355 18.9451C131.246 18.7764 131.077 18.6534 130.85 18.5759C130.626 18.4939 130.339 18.4529 129.988 18.4529H128.73V17.6804ZM135.703 15.7185V24.5369H134.432V14.2966H135.594L135.703 15.7185ZM140.687 17.9333V18.0769C140.687 18.6147 140.623 19.1137 140.495 19.574C140.368 20.0297 140.181 20.4262 139.935 20.7634C139.693 21.1007 139.395 21.3627 139.039 21.5496C138.684 21.7364 138.276 21.8298 137.815 21.8298C137.346 21.8298 136.931 21.7524 136.571 21.5974C136.211 21.4425 135.906 21.2169 135.655 20.9207C135.405 20.6244 135.204 20.269 135.054 19.8542C134.908 19.4395 134.808 18.9724 134.753 18.4529V17.6873C134.808 17.1404 134.91 16.6505 135.061 16.2175C135.211 15.7846 135.409 15.4154 135.655 15.1101C135.906 14.8002 136.209 14.5655 136.564 14.406C136.92 14.2419 137.33 14.1599 137.795 14.1599C138.26 14.1599 138.672 14.2511 139.032 14.4333C139.392 14.6111 139.695 14.8663 139.941 15.199C140.188 15.5317 140.372 15.9304 140.495 16.3953C140.623 16.8556 140.687 17.3682 140.687 17.9333ZM139.415 18.0769V17.9333C139.415 17.5642 139.376 17.2179 139.299 16.8943C139.221 16.5662 139.101 16.2791 138.937 16.033C138.777 15.7823 138.572 15.5863 138.321 15.4451C138.071 15.2992 137.772 15.2263 137.426 15.2263C137.107 15.2263 136.829 15.281 136.592 15.3904C136.359 15.4998 136.161 15.6479 135.997 15.8347C135.833 16.017 135.699 16.2266 135.594 16.4636C135.493 16.696 135.418 16.9376 135.368 17.1882V18.9587C135.459 19.2778 135.587 19.5785 135.751 19.8611C135.915 20.1391 136.134 20.3647 136.407 20.5378C136.681 20.7065 137.025 20.7908 137.439 20.7908C137.781 20.7908 138.075 20.7201 138.321 20.5789C138.572 20.433 138.777 20.2348 138.937 19.9841C139.101 19.7335 139.221 19.4464 139.299 19.1228C139.376 18.7947 139.415 18.446 139.415 18.0769ZM146.661 20.4285V16.6208C146.661 16.3292 146.602 16.0763 146.483 15.8621C146.369 15.6433 146.196 15.4747 145.964 15.3562C145.731 15.2377 145.444 15.1785 145.103 15.1785C144.784 15.1785 144.503 15.2332 144.262 15.3425C144.025 15.4519 143.838 15.5955 143.701 15.7732C143.569 15.9509 143.503 16.1423 143.503 16.3474H142.238C142.238 16.0831 142.307 15.821 142.443 15.5613C142.58 15.3015 142.776 15.0668 143.031 14.8572C143.291 14.643 143.601 14.4744 143.961 14.3513C144.326 14.2237 144.731 14.1599 145.178 14.1599C145.715 14.1599 146.189 14.2511 146.6 14.4333C147.014 14.6156 147.338 14.8914 147.57 15.2605C147.807 15.6251 147.926 16.0831 147.926 16.6345V20.0798C147.926 20.3259 147.946 20.588 147.987 20.866C148.033 21.144 148.099 21.3832 148.186 21.5837V21.6931H146.866C146.802 21.5473 146.752 21.3536 146.716 21.1121C146.679 20.866 146.661 20.6381 146.661 20.4285ZM146.88 17.2087L146.894 18.0974H145.615C145.255 18.0974 144.934 18.127 144.651 18.1863C144.369 18.241 144.132 18.3253 143.94 18.4392C143.749 18.5531 143.603 18.6967 143.503 18.8699C143.403 19.0385 143.353 19.2367 143.353 19.4646C143.353 19.697 143.405 19.9089 143.51 20.1003C143.615 20.2917 143.772 20.4444 143.981 20.5583C144.196 20.6677 144.458 20.7224 144.768 20.7224C145.155 20.7224 145.497 20.6404 145.793 20.4763C146.089 20.3123 146.324 20.1117 146.497 19.8748C146.675 19.6378 146.771 19.4076 146.784 19.1843L147.324 19.7927C147.292 19.9841 147.206 20.196 147.064 20.4285C146.923 20.6609 146.734 20.8842 146.497 21.0984C146.265 21.308 145.987 21.4835 145.663 21.6248C145.344 21.7615 144.984 21.8298 144.583 21.8298C144.082 21.8298 143.642 21.7319 143.264 21.5359C142.89 21.3399 142.598 21.0779 142.389 20.7498C142.184 20.4171 142.081 20.0457 142.081 19.6355C142.081 19.239 142.159 18.8904 142.313 18.5896C142.468 18.2843 142.692 18.0313 142.983 17.8308C143.275 17.6257 143.626 17.4708 144.036 17.366C144.446 17.2611 144.904 17.2087 145.41 17.2087H146.88ZM154.659 11.0769H155.698C155.698 11.5235 155.63 11.879 155.493 12.1433C155.356 12.4031 155.17 12.6036 154.933 12.7449C154.7 12.8861 154.436 12.9932 154.14 13.0662C153.848 13.1391 153.545 13.2097 153.23 13.2781C152.839 13.3601 152.474 13.49 152.137 13.6677C151.804 13.8409 151.517 14.087 151.275 14.406C151.038 14.725 150.863 15.1397 150.749 15.6501C150.64 16.1606 150.61 16.7917 150.66 17.5437V18.1726H149.621V17.5437C149.621 16.7006 149.701 15.9646 149.86 15.3357C150.024 14.7068 150.255 14.1759 150.551 13.7429C150.847 13.31 151.198 12.9659 151.604 12.7107C152.014 12.4555 152.465 12.28 152.957 12.1843C153.312 12.116 153.618 12.0431 153.873 11.9656C154.128 11.8835 154.322 11.7742 154.454 11.6375C154.591 11.5007 154.659 11.3139 154.659 11.0769ZM153.162 14.7205C153.645 14.7205 154.076 14.8048 154.454 14.9734C154.832 15.142 155.154 15.3767 155.418 15.6775C155.682 15.9783 155.883 16.3337 156.02 16.7439C156.161 17.1495 156.231 17.5916 156.231 18.0701V18.2205C156.231 18.7354 156.156 19.2139 156.006 19.656C155.86 20.0935 155.644 20.4763 155.356 20.8044C155.074 21.128 154.728 21.3809 154.317 21.5632C153.912 21.7455 153.449 21.8367 152.93 21.8367C152.41 21.8367 151.945 21.7455 151.535 21.5632C151.13 21.3809 150.783 21.128 150.496 20.8044C150.209 20.4763 149.99 20.0935 149.84 19.656C149.694 19.2139 149.621 18.7354 149.621 18.2205V18.0701C149.621 17.9561 149.642 17.8445 149.683 17.7351C149.724 17.6257 149.774 17.5141 149.833 17.4001C149.897 17.2862 149.954 17.1654 150.004 17.0378C150.173 16.6277 150.403 16.2472 150.694 15.8962C150.991 15.5453 151.344 15.2628 151.754 15.0486C152.169 14.8298 152.638 14.7205 153.162 14.7205ZM152.916 15.7527C152.451 15.7527 152.068 15.8598 151.768 16.074C151.471 16.2882 151.25 16.573 151.104 16.9285C150.959 17.2794 150.886 17.6599 150.886 18.0701V18.2205C150.886 18.5668 150.927 18.8949 151.009 19.2048C151.091 19.5147 151.214 19.7904 151.378 20.032C151.547 20.269 151.758 20.4558 152.014 20.5925C152.273 20.7292 152.579 20.7976 152.93 20.7976C153.281 20.7976 153.584 20.7292 153.839 20.5925C154.094 20.4558 154.304 20.269 154.468 20.032C154.632 19.7904 154.755 19.5147 154.837 19.2048C154.919 18.8949 154.96 18.5668 154.96 18.2205V18.0701C154.96 17.7602 154.919 17.4662 154.837 17.1882C154.755 16.9102 154.63 16.6641 154.461 16.45C154.297 16.2358 154.085 16.0671 153.825 15.9441C153.57 15.8165 153.267 15.7527 152.916 15.7527ZM157.332 18.0769V17.9197C157.332 17.3865 157.41 16.892 157.564 16.4363C157.719 15.976 157.943 15.5772 158.234 15.24C158.526 14.8982 158.879 14.6339 159.294 14.447C159.709 14.2556 160.174 14.1599 160.688 14.1599C161.208 14.1599 161.675 14.2556 162.09 14.447C162.509 14.6339 162.865 14.8982 163.156 15.24C163.452 15.5772 163.678 15.976 163.833 16.4363C163.988 16.892 164.065 17.3865 164.065 17.9197V18.0769C164.065 18.6101 163.988 19.1046 163.833 19.5603C163.678 20.016 163.452 20.4148 163.156 20.7566C162.865 21.0938 162.511 21.3582 162.097 21.5496C161.687 21.7364 161.222 21.8298 160.702 21.8298C160.183 21.8298 159.715 21.7364 159.301 21.5496C158.886 21.3582 158.531 21.0938 158.234 20.7566C157.943 20.4148 157.719 20.016 157.564 19.5603C157.41 19.1046 157.332 18.6101 157.332 18.0769ZM158.597 17.9197V18.0769C158.597 18.446 158.64 18.7947 158.727 19.1228C158.813 19.4464 158.943 19.7335 159.116 19.9841C159.294 20.2348 159.515 20.433 159.779 20.5789C160.044 20.7201 160.351 20.7908 160.702 20.7908C161.049 20.7908 161.352 20.7201 161.611 20.5789C161.876 20.433 162.094 20.2348 162.268 19.9841C162.441 19.7335 162.571 19.4464 162.657 19.1228C162.748 18.7947 162.794 18.446 162.794 18.0769V17.9197C162.794 17.5551 162.748 17.211 162.657 16.8875C162.571 16.5593 162.438 16.2699 162.261 16.0193C162.088 15.7641 161.869 15.5636 161.604 15.4177C161.345 15.2719 161.039 15.199 160.688 15.199C160.342 15.199 160.037 15.2719 159.772 15.4177C159.513 15.5636 159.294 15.7641 159.116 16.0193C158.943 16.2699 158.813 16.5593 158.727 16.8875C158.64 17.211 158.597 17.5551 158.597 17.9197ZM168.516 14.2966V21.6931H167.244V14.2966H168.516ZM170.997 14.2966V15.322H164.811V14.2966H170.997ZM173.615 14.2966V21.6931H172.351V14.2966H173.615ZM178.469 14.2966L174.962 18.5349H173.191L173 17.4275H174.449L176.931 14.2966H178.469ZM177.108 21.6931L174.388 18.3435L175.201 17.4275L178.715 21.6931H177.108ZM184.177 20.4285V16.6208C184.177 16.3292 184.118 16.0763 183.999 15.8621C183.885 15.6433 183.712 15.4747 183.479 15.3562C183.247 15.2377 182.96 15.1785 182.618 15.1785C182.299 15.1785 182.019 15.2332 181.777 15.3425C181.54 15.4519 181.354 15.5955 181.217 15.7732C181.085 15.9509 181.019 16.1423 181.019 16.3474H179.754C179.754 16.0831 179.822 15.821 179.959 15.5613C180.096 15.3015 180.292 15.0668 180.547 14.8572C180.807 14.643 181.117 14.4744 181.477 14.3513C181.841 14.2237 182.247 14.1599 182.693 14.1599C183.231 14.1599 183.705 14.2511 184.115 14.4333C184.53 14.6156 184.854 14.8914 185.086 15.2605C185.323 15.6251 185.441 16.0831 185.441 16.6345V20.0798C185.441 20.3259 185.462 20.588 185.503 20.866C185.549 21.144 185.615 21.3832 185.701 21.5837V21.6931H184.382C184.318 21.5473 184.268 21.3536 184.231 21.1121C184.195 20.866 184.177 20.6381 184.177 20.4285ZM184.396 17.2087L184.409 18.0974H183.131C182.771 18.0974 182.45 18.127 182.167 18.1863C181.884 18.241 181.647 18.3253 181.456 18.4392C181.265 18.5531 181.119 18.6967 181.019 18.8699C180.918 19.0385 180.868 19.2367 180.868 19.4646C180.868 19.697 180.921 19.9089 181.025 20.1003C181.13 20.2917 181.287 20.4444 181.497 20.5583C181.711 20.6677 181.973 20.7224 182.283 20.7224C182.671 20.7224 183.012 20.6404 183.309 20.4763C183.605 20.3123 183.84 20.1117 184.013 19.8748C184.19 19.6378 184.286 19.4076 184.3 19.1843L184.84 19.7927C184.808 19.9841 184.721 20.196 184.58 20.4285C184.439 20.6609 184.25 20.8842 184.013 21.0984C183.78 21.308 183.502 21.4835 183.179 21.6248C182.86 21.7615 182.5 21.8298 182.099 21.8298C181.597 21.8298 181.158 21.7319 180.779 21.5359C180.406 21.3399 180.114 21.0779 179.904 20.7498C179.699 20.4171 179.597 20.0457 179.597 19.6355C179.597 19.239 179.674 18.8904 179.829 18.5896C179.984 18.2843 180.207 18.0313 180.499 17.8308C180.791 17.6257 181.142 17.4708 181.552 17.366C181.962 17.2611 182.42 17.2087 182.926 17.2087H184.396ZM112.331 39.6902L115.742 34.2966H117.014V41.6931H115.742V36.2996L112.331 41.6931H111.073V34.2966H112.331V39.6902ZM124.595 40.9275L126.652 34.2966H128.006L125.039 42.8347C124.971 43.017 124.88 43.213 124.766 43.4226C124.656 43.6368 124.515 43.8396 124.342 44.031C124.169 44.2224 123.959 44.3774 123.713 44.4958C123.471 44.6189 123.182 44.6804 122.845 44.6804C122.744 44.6804 122.617 44.6667 122.462 44.6394C122.307 44.6121 122.198 44.5893 122.134 44.571L122.127 43.5457C122.163 43.5502 122.22 43.5548 122.298 43.5593C122.38 43.5684 122.437 43.573 122.469 43.573C122.756 43.573 123 43.5343 123.2 43.4568C123.401 43.3839 123.569 43.2585 123.706 43.0808C123.847 42.9076 123.968 42.6684 124.068 42.363L124.595 40.9275ZM123.084 34.2966L125.005 40.0388L125.333 41.3718L124.424 41.8367L121.703 34.2966H123.084ZM132.162 34.2966V41.6931H130.891V34.2966H132.162ZM134.644 34.2966V35.322H128.457V34.2966H134.644ZM139.36 38.4392H136.934L136.92 37.4275H138.902C139.294 37.4275 139.62 37.3888 139.88 37.3113C140.144 37.2338 140.342 37.1176 140.475 36.9626C140.607 36.8077 140.673 36.6163 140.673 36.3884C140.673 36.2107 140.634 36.0557 140.557 35.9236C140.484 35.7869 140.372 35.6752 140.222 35.5886C140.071 35.4975 139.884 35.4314 139.661 35.3904C139.442 35.3448 139.185 35.322 138.889 35.322H137.269V41.6931H136.004V34.2966H138.889C139.358 34.2966 139.78 34.3376 140.153 34.4197C140.532 34.5017 140.853 34.627 141.117 34.7957C141.386 34.9597 141.591 35.1694 141.732 35.4246C141.874 35.6798 141.944 35.9806 141.944 36.3269C141.944 36.5502 141.899 36.7621 141.808 36.9626C141.716 37.1632 141.582 37.3409 141.404 37.4958C141.227 37.6508 141.008 37.7784 140.748 37.8787C140.488 37.9744 140.19 38.0359 139.853 38.0632L139.36 38.4392ZM139.36 41.6931H136.476L137.104 40.6677H139.36C139.711 40.6677 140.003 40.6244 140.235 40.5378C140.468 40.4467 140.641 40.3191 140.755 40.155C140.873 39.9864 140.933 39.7859 140.933 39.5535C140.933 39.321 140.873 39.1228 140.755 38.9587C140.641 38.7901 140.468 38.6625 140.235 38.5759C140.003 38.4848 139.711 38.4392 139.36 38.4392H137.439L137.453 37.4275H139.853L140.311 37.8103C140.716 37.8422 141.06 37.9425 141.343 38.1111C141.625 38.2797 141.84 38.4939 141.985 38.7537C142.131 39.0089 142.204 39.2869 142.204 39.5876C142.204 39.934 142.138 40.2393 142.006 40.5037C141.878 40.768 141.691 40.989 141.445 41.1667C141.199 41.3399 140.901 41.4721 140.55 41.5632C140.199 41.6498 139.802 41.6931 139.36 41.6931ZM146.969 41.8298C146.454 41.8298 145.987 41.7432 145.567 41.5701C145.153 41.3923 144.795 41.144 144.494 40.825C144.198 40.5059 143.97 40.1277 143.811 39.6902C143.651 39.2527 143.571 38.7742 143.571 38.2546V37.9675C143.571 37.366 143.66 36.8305 143.838 36.3611C144.016 35.8871 144.257 35.4861 144.562 35.158C144.868 34.8298 145.214 34.5815 145.602 34.4128C145.989 34.2442 146.39 34.1599 146.805 34.1599C147.333 34.1599 147.789 34.2511 148.172 34.4333C148.559 34.6156 148.876 34.8708 149.122 35.199C149.368 35.5225 149.55 35.9054 149.669 36.3474C149.787 36.7849 149.847 37.2634 149.847 37.783V38.3503H144.323V37.3181H148.582V37.2224C148.564 36.8943 148.495 36.5753 148.377 36.2654C148.263 35.9555 148.081 35.7003 147.83 35.4998C147.579 35.2992 147.238 35.199 146.805 35.199C146.518 35.199 146.253 35.2605 146.012 35.3835C145.77 35.502 145.563 35.6798 145.39 35.9167C145.216 36.1537 145.082 36.4431 144.986 36.7849C144.891 37.1267 144.843 37.5209 144.843 37.9675V38.2546C144.843 38.6056 144.891 38.936 144.986 39.2458C145.087 39.5512 145.23 39.8201 145.417 40.0525C145.608 40.2849 145.839 40.4672 146.107 40.5994C146.381 40.7315 146.691 40.7976 147.037 40.7976C147.484 40.7976 147.862 40.7065 148.172 40.5242C148.482 40.3419 148.753 40.0981 148.985 39.7927L149.751 40.4011C149.591 40.6427 149.389 40.8728 149.143 41.0916C148.896 41.3103 148.593 41.488 148.233 41.6248C147.878 41.7615 147.456 41.8298 146.969 41.8298ZM152.588 35.7185V44.5369H151.316V34.2966H152.479L152.588 35.7185ZM157.571 37.9333V38.0769C157.571 38.6147 157.507 39.1137 157.38 39.574C157.252 40.0297 157.065 40.4262 156.819 40.7634C156.578 41.1007 156.279 41.3627 155.924 41.5496C155.568 41.7364 155.16 41.8298 154.7 41.8298C154.231 41.8298 153.816 41.7524 153.456 41.5974C153.096 41.4425 152.791 41.2169 152.54 40.9207C152.289 40.6244 152.089 40.269 151.938 39.8542C151.793 39.4395 151.692 38.9724 151.638 38.4529V37.6873C151.692 37.1404 151.795 36.6505 151.945 36.2175C152.096 35.7846 152.294 35.4154 152.54 35.1101C152.791 34.8002 153.094 34.5655 153.449 34.406C153.805 34.2419 154.215 34.1599 154.68 34.1599C155.145 34.1599 155.557 34.2511 155.917 34.4333C156.277 34.6111 156.58 34.8663 156.826 35.199C157.072 35.5317 157.257 35.9304 157.38 36.3953C157.507 36.8556 157.571 37.3682 157.571 37.9333ZM156.3 38.0769V37.9333C156.3 37.5642 156.261 37.2179 156.184 36.8943C156.106 36.5662 155.985 36.2791 155.821 36.033C155.662 35.7823 155.457 35.5863 155.206 35.4451C154.955 35.2992 154.657 35.2263 154.311 35.2263C153.992 35.2263 153.714 35.281 153.477 35.3904C153.244 35.4998 153.046 35.6479 152.882 35.8347C152.718 36.017 152.583 36.2266 152.479 36.4636C152.378 36.696 152.303 36.9376 152.253 37.1882V38.9587C152.344 39.2778 152.472 39.5785 152.636 39.8611C152.8 40.1391 153.019 40.3647 153.292 40.5378C153.565 40.7065 153.91 40.7908 154.324 40.7908C154.666 40.7908 154.96 40.7201 155.206 40.5789C155.457 40.433 155.662 40.2348 155.821 39.9841C155.985 39.7335 156.106 39.4464 156.184 39.1228C156.261 38.7947 156.3 38.446 156.3 38.0769ZM161.317 38.4734L158.515 34.2966H160.039L161.953 37.3591H163.43L163.245 38.4734H161.317ZM162.008 38.3435L159.861 41.6931H158.262L161.208 37.4275L162.008 38.3435ZM164.079 34.2966V41.6931H162.814V34.2966H164.079ZM168.393 34.2966L165.59 38.4734H163.662L163.464 37.3591H164.947L166.861 34.2966H168.393ZM167.039 41.6931L164.886 38.3435L165.699 37.4275L168.639 41.6931H167.039ZM171.141 34.2966H172.405L172.296 37.0652C172.269 37.767 172.189 38.3731 172.057 38.8835C171.924 39.394 171.756 39.8292 171.551 40.1892C171.346 40.5447 171.116 40.8432 170.86 41.0847C170.61 41.3263 170.35 41.5291 170.081 41.6931H169.452L169.486 40.6609L169.746 40.6541C169.896 40.4763 170.042 40.294 170.184 40.1072C170.325 39.9158 170.455 39.6902 170.573 39.4304C170.692 39.1661 170.79 38.8448 170.867 38.4666C170.949 38.0837 171.002 37.6166 171.024 37.0652L171.141 34.2966ZM171.455 34.2966H175.905V41.6931H174.641V35.4656H171.455V34.2966ZM169.165 40.6541H176.855V43.8738H175.591V41.6931H170.43V43.8738H169.158L169.165 40.6541ZM181.326 41.8298C180.811 41.8298 180.344 41.7432 179.925 41.5701C179.51 41.3923 179.152 41.144 178.852 40.825C178.555 40.5059 178.327 40.1277 178.168 39.6902C178.008 39.2527 177.929 38.7742 177.929 38.2546V37.9675C177.929 37.366 178.018 36.8305 178.195 36.3611C178.373 35.8871 178.615 35.4861 178.92 35.158C179.225 34.8298 179.572 34.5815 179.959 34.4128C180.346 34.2442 180.747 34.1599 181.162 34.1599C181.691 34.1599 182.146 34.2511 182.529 34.4333C182.917 34.6156 183.233 34.8708 183.479 35.199C183.726 35.5225 183.908 35.9054 184.026 36.3474C184.145 36.7849 184.204 37.2634 184.204 37.783V38.3503H178.681V37.3181H182.939V37.2224C182.921 36.8943 182.853 36.5753 182.734 36.2654C182.62 35.9555 182.438 35.7003 182.188 35.4998C181.937 35.2992 181.595 35.199 181.162 35.199C180.875 35.199 180.611 35.2605 180.369 35.3835C180.128 35.502 179.92 35.6798 179.747 35.9167C179.574 36.1537 179.439 36.4431 179.344 36.7849C179.248 37.1267 179.2 37.5209 179.2 37.9675V38.2546C179.2 38.6056 179.248 38.936 179.344 39.2458C179.444 39.5512 179.588 39.8201 179.774 40.0525C179.966 40.2849 180.196 40.4672 180.465 40.5994C180.738 40.7315 181.048 40.7976 181.395 40.7976C181.841 40.7976 182.219 40.7065 182.529 40.5242C182.839 40.3419 183.11 40.0981 183.343 39.7927L184.108 40.4011C183.949 40.6427 183.746 40.8728 183.5 41.0916C183.254 41.3103 182.951 41.488 182.591 41.6248C182.235 41.7615 181.814 41.8298 181.326 41.8298ZM190.698 37.5027V38.5281H186.788V37.5027H190.698ZM187.055 34.2966V41.6931H185.79V34.2966H187.055ZM191.724 34.2966V41.6931H190.452V34.2966H191.724ZM195.128 39.6902L198.539 34.2966H199.811V41.6931H198.539V36.2996L195.128 41.6931H193.87V34.2966H195.128V39.6902ZM204.91 41.8298C204.395 41.8298 203.928 41.7432 203.509 41.5701C203.094 41.3923 202.736 41.144 202.436 40.825C202.139 40.5059 201.911 40.1277 201.752 39.6902C201.592 39.2527 201.513 38.7742 201.513 38.2546V37.9675C201.513 37.366 201.602 36.8305 201.779 36.3611C201.957 35.8871 202.199 35.4861 202.504 35.158C202.809 34.8298 203.156 34.5815 203.543 34.4128C203.93 34.2442 204.331 34.1599 204.746 34.1599C205.275 34.1599 205.73 34.2511 206.113 34.4333C206.501 34.6156 206.817 34.8708 207.063 35.199C207.31 35.5225 207.492 35.9054 207.61 36.3474C207.729 36.7849 207.788 37.2634 207.788 37.783V38.3503H202.265V37.3181H206.523V37.2224C206.505 36.8943 206.437 36.5753 206.318 36.2654C206.204 35.9555 206.022 35.7003 205.771 35.4998C205.521 35.2992 205.179 35.199 204.746 35.199C204.459 35.199 204.195 35.2605 203.953 35.3835C203.712 35.502 203.504 35.6798 203.331 35.9167C203.158 36.1537 203.023 36.4431 202.928 36.7849C202.832 37.1267 202.784 37.5209 202.784 37.9675V38.2546C202.784 38.6056 202.832 38.936 202.928 39.2458C203.028 39.5512 203.172 39.8201 203.358 40.0525C203.55 40.2849 203.78 40.4672 204.049 40.5994C204.322 40.7315 204.632 40.7976 204.979 40.7976C205.425 40.7976 205.803 40.7065 206.113 40.5242C206.423 40.3419 206.694 40.0981 206.927 39.7927L207.692 40.4011C207.533 40.6427 207.33 40.8728 207.084 41.0916C206.838 41.3103 206.535 41.488 206.175 41.6248C205.819 41.7615 205.398 41.8298 204.91 41.8298ZM214.815 40.9275L216.873 34.2966H218.227L215.26 42.8347C215.191 43.017 215.1 43.213 214.986 43.4226C214.877 43.6368 214.736 43.8396 214.562 44.031C214.389 44.2224 214.18 44.3774 213.934 44.4958C213.692 44.6189 213.403 44.6804 213.065 44.6804C212.965 44.6804 212.838 44.6667 212.683 44.6394C212.528 44.6121 212.418 44.5893 212.354 44.571L212.348 43.5457C212.384 43.5502 212.441 43.5548 212.519 43.5593C212.601 43.5684 212.658 43.573 212.689 43.573C212.977 43.573 213.22 43.5343 213.421 43.4568C213.621 43.3839 213.79 43.2585 213.927 43.0808C214.068 42.9076 214.189 42.6684 214.289 42.363L214.815 40.9275ZM213.305 34.2966L215.226 40.0388L215.554 41.3718L214.645 41.8367L211.924 34.2966H213.305ZM222.232 40.7908C222.533 40.7908 222.811 40.7292 223.066 40.6062C223.322 40.4832 223.531 40.3145 223.695 40.1003C223.859 39.8816 223.953 39.6332 223.976 39.3552H225.179C225.156 39.7927 225.008 40.2006 224.734 40.5789C224.465 40.9526 224.112 41.2556 223.675 41.488C223.237 41.7159 222.757 41.8298 222.232 41.8298C221.676 41.8298 221.191 41.7319 220.776 41.5359C220.366 41.3399 220.024 41.071 219.751 40.7292C219.482 40.3875 219.279 39.9955 219.143 39.5535C219.01 39.1069 218.944 38.6352 218.944 38.1384V37.8513C218.944 37.3546 219.01 36.8852 219.143 36.4431C219.279 35.9965 219.482 35.6023 219.751 35.2605C220.024 34.9187 220.366 34.6498 220.776 34.4539C221.191 34.2579 221.676 34.1599 222.232 34.1599C222.811 34.1599 223.317 34.2784 223.75 34.5154C224.183 34.7478 224.522 35.0668 224.769 35.4724C225.019 35.8735 225.156 36.3292 225.179 36.8396H223.976C223.953 36.5343 223.866 36.2585 223.716 36.0125C223.57 35.7664 223.369 35.5704 223.114 35.4246C222.864 35.2742 222.57 35.199 222.232 35.199C221.845 35.199 221.519 35.2764 221.255 35.4314C220.995 35.5818 220.788 35.7869 220.633 36.0466C220.482 36.3018 220.373 36.5867 220.305 36.9011C220.241 37.211 220.209 37.5278 220.209 37.8513V38.1384C220.209 38.462 220.241 38.781 220.305 39.0955C220.368 39.4099 220.476 39.6947 220.626 39.95C220.781 40.2052 220.988 40.4102 221.248 40.5652C221.512 40.7156 221.84 40.7908 222.232 40.7908ZM231.543 34.2966V35.3425H227.968V34.2966H231.543ZM232.657 34.2966V41.6931H231.393V34.2966H232.657ZM227.66 34.2966H228.932L228.74 37.865C228.708 38.4164 228.656 38.9041 228.583 39.3279C228.515 39.7472 228.419 40.1072 228.296 40.408C228.177 40.7087 228.027 40.9548 227.845 41.1462C227.667 41.3331 227.453 41.4721 227.202 41.5632C226.951 41.6498 226.662 41.6931 226.334 41.6931H225.938V40.5789L226.211 40.5583C226.407 40.5447 226.573 40.4991 226.71 40.4216C226.851 40.3442 226.97 40.2302 227.065 40.0798C227.161 39.9249 227.239 39.7266 227.298 39.4851C227.362 39.2436 227.41 38.9565 227.441 38.6238C227.478 38.2911 227.505 37.9037 227.523 37.4617L227.66 34.2966ZM234.359 38.0769V37.9197C234.359 37.3865 234.437 36.892 234.592 36.4363C234.747 35.976 234.97 35.5772 235.262 35.24C235.553 34.8982 235.907 34.6339 236.321 34.447C236.736 34.2556 237.201 34.1599 237.716 34.1599C238.235 34.1599 238.702 34.2556 239.117 34.447C239.536 34.6339 239.892 34.8982 240.184 35.24C240.48 35.5772 240.705 35.976 240.86 36.4363C241.015 36.892 241.093 37.3865 241.093 37.9197V38.0769C241.093 38.6101 241.015 39.1046 240.86 39.5603C240.705 40.016 240.48 40.4148 240.184 40.7566C239.892 41.0938 239.539 41.3582 239.124 41.5496C238.714 41.7364 238.249 41.8298 237.729 41.8298C237.21 41.8298 236.743 41.7364 236.328 41.5496C235.913 41.3582 235.558 41.0938 235.262 40.7566C234.97 40.4148 234.747 40.016 234.592 39.5603C234.437 39.1046 234.359 38.6101 234.359 38.0769ZM235.624 37.9197V38.0769C235.624 38.446 235.667 38.7947 235.754 39.1228C235.84 39.4464 235.97 39.7335 236.144 39.9841C236.321 40.2348 236.542 40.433 236.807 40.5789C237.071 40.7201 237.379 40.7908 237.729 40.7908C238.076 40.7908 238.379 40.7201 238.639 40.5789C238.903 40.433 239.122 40.2348 239.295 39.9841C239.468 39.7335 239.598 39.4464 239.685 39.1228C239.776 38.7947 239.821 38.446 239.821 38.0769V37.9197C239.821 37.5551 239.776 37.211 239.685 36.8875C239.598 36.5593 239.466 36.2699 239.288 36.0193C239.115 35.7641 238.896 35.5636 238.632 35.4177C238.372 35.2719 238.067 35.199 237.716 35.199C237.369 35.199 237.064 35.2719 236.8 35.4177C236.54 35.5636 236.321 35.7641 236.144 36.0193C235.97 36.2699 235.84 36.5593 235.754 36.8875C235.667 37.211 235.624 37.5551 235.624 37.9197ZM246.151 38.4392H243.725L243.711 37.4275H245.693C246.085 37.4275 246.411 37.3888 246.671 37.3113C246.935 37.2338 247.133 37.1176 247.266 36.9626C247.398 36.8077 247.464 36.6163 247.464 36.3884C247.464 36.2107 247.425 36.0557 247.348 35.9236C247.275 35.7869 247.163 35.6752 247.013 35.5886C246.862 35.4975 246.675 35.4314 246.452 35.3904C246.233 35.3448 245.976 35.322 245.68 35.322H244.06V41.6931H242.795V34.2966H245.68C246.149 34.2966 246.571 34.3376 246.944 34.4197C247.323 34.5017 247.644 34.627 247.908 34.7957C248.177 34.9597 248.382 35.1694 248.523 35.4246C248.665 35.6798 248.735 35.9806 248.735 36.3269C248.735 36.5502 248.69 36.7621 248.599 36.9626C248.507 37.1632 248.373 37.3409 248.195 37.4958C248.018 37.6508 247.799 37.7784 247.539 37.8787C247.279 37.9744 246.981 38.0359 246.644 38.0632L246.151 38.4392ZM246.151 41.6931H243.267L243.896 40.6677H246.151C246.502 40.6677 246.794 40.6244 247.026 40.5378C247.259 40.4467 247.432 40.3191 247.546 40.155C247.664 39.9864 247.724 39.7859 247.724 39.5535C247.724 39.321 247.664 39.1228 247.546 38.9587C247.432 38.7901 247.259 38.6625 247.026 38.5759C246.794 38.4848 246.502 38.4392 246.151 38.4392H244.23L244.244 37.4275H246.644L247.102 37.8103C247.507 37.8422 247.851 37.9425 248.134 38.1111C248.416 38.2797 248.631 38.4939 248.776 38.7537C248.922 39.0089 248.995 39.2869 248.995 39.5876C248.995 39.934 248.929 40.2393 248.797 40.5037C248.669 40.768 248.482 40.989 248.236 41.1667C247.99 41.3399 247.692 41.4721 247.341 41.5632C246.99 41.6498 246.593 41.6931 246.151 41.6931ZM252.058 39.6902L255.469 34.2966H256.74V41.6931H255.469V36.2996L252.058 41.6931H250.8V34.2966H252.058V39.6902ZM260.138 39.6902L263.549 34.2966H264.82V41.6931H263.549V36.2996L260.138 41.6931H258.88V34.2966H260.138V39.6902ZM262.858 31.6169H263.884C263.884 31.9724 263.802 32.2891 263.638 32.5671C263.474 32.8406 263.239 33.0548 262.934 33.2097C262.628 33.3647 262.266 33.4421 261.847 33.4421C261.213 33.4421 260.712 33.2735 260.343 32.9363C259.978 32.5945 259.796 32.1547 259.796 31.6169H260.821C260.821 31.8858 260.899 32.1228 261.054 32.3279C261.209 32.533 261.473 32.6355 261.847 32.6355C262.211 32.6355 262.471 32.533 262.626 32.3279C262.781 32.1228 262.858 31.8858 262.858 31.6169ZM112.229 55.7185V64.5369H110.957V54.2966H112.119L112.229 55.7185ZM117.212 57.9333V58.0769C117.212 58.6147 117.148 59.1137 117.021 59.574C116.893 60.0297 116.706 60.4262 116.46 60.7634C116.218 61.1007 115.92 61.3627 115.564 61.5496C115.209 61.7364 114.801 61.8298 114.341 61.8298C113.871 61.8298 113.457 61.7524 113.097 61.5974C112.737 61.4425 112.431 61.2169 112.181 60.9207C111.93 60.6244 111.729 60.269 111.579 59.8542C111.433 59.4395 111.333 58.9724 111.278 58.4529V57.6873C111.333 57.1404 111.436 56.6505 111.586 56.2175C111.736 55.7846 111.935 55.4154 112.181 55.1101C112.431 54.8002 112.734 54.5655 113.09 54.406C113.445 54.2419 113.855 54.1599 114.32 54.1599C114.785 54.1599 115.198 54.2511 115.558 54.4333C115.918 54.6111 116.221 54.8663 116.467 55.199C116.713 55.5317 116.897 55.9304 117.021 56.3953C117.148 56.8556 117.212 57.3682 117.212 57.9333ZM115.94 58.0769V57.9333C115.94 57.5642 115.902 57.2179 115.824 56.8943C115.747 56.5662 115.626 56.2791 115.462 56.033C115.302 55.7823 115.097 55.5863 114.847 55.4451C114.596 55.2992 114.298 55.2263 113.951 55.2263C113.632 55.2263 113.354 55.281 113.117 55.3904C112.885 55.4998 112.687 55.6479 112.522 55.8347C112.358 56.017 112.224 56.2266 112.119 56.4636C112.019 56.696 111.944 56.9376 111.894 57.1882V58.9587C111.985 59.2778 112.112 59.5785 112.276 59.8611C112.44 60.1391 112.659 60.3647 112.933 60.5378C113.206 60.7065 113.55 60.7908 113.965 60.7908C114.307 60.7908 114.601 60.7201 114.847 60.5789C115.097 60.433 115.302 60.2348 115.462 59.9841C115.626 59.7335 115.747 59.4464 115.824 59.1228C115.902 58.7947 115.94 58.446 115.94 58.0769ZM123.187 60.4285V56.6208C123.187 56.3292 123.127 56.0763 123.009 55.8621C122.895 55.6433 122.722 55.4747 122.489 55.3562C122.257 55.2377 121.97 55.1785 121.628 55.1785C121.309 55.1785 121.029 55.2332 120.787 55.3425C120.55 55.4519 120.363 55.5955 120.227 55.7732C120.094 55.9509 120.028 56.1423 120.028 56.3474H118.764C118.764 56.0831 118.832 55.821 118.969 55.5613C119.105 55.3015 119.301 55.0668 119.557 54.8572C119.816 54.643 120.126 54.4744 120.486 54.3513C120.851 54.2237 121.257 54.1599 121.703 54.1599C122.241 54.1599 122.715 54.2511 123.125 54.4333C123.54 54.6156 123.863 54.8914 124.096 55.2605C124.333 55.6251 124.451 56.0831 124.451 56.6345V60.0798C124.451 60.3259 124.472 60.588 124.513 60.866C124.558 61.144 124.624 61.3832 124.711 61.5837V61.6931H123.392C123.328 61.5473 123.278 61.3536 123.241 61.1121C123.205 60.866 123.187 60.6381 123.187 60.4285ZM123.405 57.2087L123.419 58.0974H122.141C121.781 58.0974 121.459 58.127 121.177 58.1863C120.894 58.241 120.657 58.3253 120.466 58.4392C120.274 58.5531 120.129 58.6967 120.028 58.8699C119.928 59.0385 119.878 59.2367 119.878 59.4646C119.878 59.697 119.93 59.9089 120.035 60.1003C120.14 60.2917 120.297 60.4444 120.507 60.5583C120.721 60.6677 120.983 60.7224 121.293 60.7224C121.68 60.7224 122.022 60.6404 122.318 60.4763C122.615 60.3123 122.849 60.1117 123.022 59.8748C123.2 59.6378 123.296 59.4076 123.31 59.1843L123.85 59.7927C123.818 59.9841 123.731 60.196 123.59 60.4285C123.449 60.6609 123.259 60.8842 123.022 61.0984C122.79 61.308 122.512 61.4835 122.188 61.6248C121.869 61.7615 121.509 61.8298 121.108 61.8298C120.607 61.8298 120.167 61.7319 119.789 61.5359C119.415 61.3399 119.124 61.0779 118.914 60.7498C118.709 60.4171 118.606 60.0457 118.606 59.6355C118.606 59.239 118.684 58.8904 118.839 58.5896C118.994 58.2843 119.217 58.0313 119.509 57.8308C119.8 57.6257 120.151 57.4708 120.562 57.366C120.972 57.2611 121.43 57.2087 121.936 57.2087H123.405ZM131.185 51.0769H132.224C132.224 51.5235 132.155 51.879 132.019 52.1433C131.882 52.4031 131.695 52.6036 131.458 52.7449C131.226 52.8861 130.961 52.9932 130.665 53.0662C130.373 53.1391 130.07 53.2097 129.756 53.2781C129.364 53.3601 128.999 53.49 128.662 53.6677C128.329 53.8409 128.042 54.087 127.801 54.406C127.564 54.725 127.388 55.1397 127.274 55.6501C127.165 56.1606 127.135 56.7917 127.186 57.5437V58.1726H126.146V57.5437C126.146 56.7006 126.226 55.9646 126.386 55.3357C126.55 54.7068 126.78 54.1759 127.076 53.7429C127.372 53.31 127.723 52.9659 128.129 52.7107C128.539 52.4555 128.99 52.28 129.482 52.1843C129.838 52.116 130.143 52.0431 130.398 51.9656C130.654 51.8835 130.847 51.7742 130.979 51.6375C131.116 51.5007 131.185 51.3139 131.185 51.0769ZM129.688 54.7205C130.171 54.7205 130.601 54.8048 130.979 54.9734C131.358 55.142 131.679 55.3767 131.943 55.6775C132.208 55.9783 132.408 56.3337 132.545 56.7439C132.686 57.1495 132.757 57.5916 132.757 58.0701V58.2205C132.757 58.7354 132.682 59.2139 132.531 59.656C132.385 60.0935 132.169 60.4763 131.882 60.8044C131.599 61.128 131.253 61.3809 130.843 61.5632C130.437 61.7455 129.975 61.8367 129.455 61.8367C128.936 61.8367 128.471 61.7455 128.061 61.5632C127.655 61.3809 127.309 61.128 127.021 60.8044C126.734 60.4763 126.516 60.0935 126.365 59.656C126.219 59.2139 126.146 58.7354 126.146 58.2205V58.0701C126.146 57.9561 126.167 57.8445 126.208 57.7351C126.249 57.6257 126.299 57.5141 126.358 57.4001C126.422 57.2862 126.479 57.1654 126.529 57.0378C126.698 56.6277 126.928 56.2472 127.22 55.8962C127.516 55.5453 127.869 55.2628 128.279 55.0486C128.694 54.8298 129.163 54.7205 129.688 54.7205ZM129.441 55.7527C128.977 55.7527 128.594 55.8598 128.293 56.074C127.997 56.2882 127.776 56.573 127.63 56.9285C127.484 57.2794 127.411 57.6599 127.411 58.0701V58.2205C127.411 58.5668 127.452 58.8949 127.534 59.2048C127.616 59.5147 127.739 59.7904 127.903 60.032C128.072 60.269 128.284 60.4558 128.539 60.5925C128.799 60.7292 129.104 60.7976 129.455 60.7976C129.806 60.7976 130.109 60.7292 130.364 60.5925C130.619 60.4558 130.829 60.269 130.993 60.032C131.157 59.7904 131.28 59.5147 131.362 59.2048C131.444 58.8949 131.485 58.5668 131.485 58.2205V58.0701C131.485 57.7602 131.444 57.4662 131.362 57.1882C131.28 56.9102 131.155 56.6641 130.986 56.45C130.822 56.2358 130.61 56.0671 130.351 55.9441C130.095 55.8165 129.792 55.7527 129.441 55.7527ZM133.857 58.0769V57.9197C133.857 57.3865 133.935 56.892 134.09 56.4363C134.245 55.976 134.468 55.5772 134.76 55.24C135.051 54.8982 135.405 54.6339 135.819 54.447C136.234 54.2556 136.699 54.1599 137.214 54.1599C137.733 54.1599 138.201 54.2556 138.615 54.447C139.035 54.6339 139.39 54.8982 139.682 55.24C139.978 55.5772 140.203 55.976 140.358 56.4363C140.513 56.892 140.591 57.3865 140.591 57.9197V58.0769C140.591 58.6101 140.513 59.1046 140.358 59.5603C140.203 60.016 139.978 60.4148 139.682 60.7566C139.39 61.0938 139.037 61.3582 138.622 61.5496C138.212 61.7364 137.747 61.8298 137.228 61.8298C136.708 61.8298 136.241 61.7364 135.826 61.5496C135.411 61.3582 135.056 61.0938 134.76 60.7566C134.468 60.4148 134.245 60.016 134.09 59.5603C133.935 59.1046 133.857 58.6101 133.857 58.0769ZM135.122 57.9197V58.0769C135.122 58.446 135.165 58.7947 135.252 59.1228C135.339 59.4464 135.468 59.7335 135.642 59.9841C135.819 60.2348 136.04 60.433 136.305 60.5789C136.569 60.7201 136.877 60.7908 137.228 60.7908C137.574 60.7908 137.877 60.7201 138.137 60.5789C138.401 60.433 138.62 60.2348 138.793 59.9841C138.966 59.7335 139.096 59.4464 139.183 59.1228C139.274 58.7947 139.319 58.446 139.319 58.0769V57.9197C139.319 57.5551 139.274 57.211 139.183 56.8875C139.096 56.5593 138.964 56.2699 138.786 56.0193C138.613 55.7641 138.394 55.5636 138.13 55.4177C137.87 55.2719 137.565 55.199 137.214 55.199C136.868 55.199 136.562 55.2719 136.298 55.4177C136.038 55.5636 135.819 55.7641 135.642 56.0193C135.468 56.2699 135.339 56.5593 135.252 56.8875C135.165 57.211 135.122 57.5551 135.122 57.9197ZM145.041 54.2966V61.6931H143.77V54.2966H145.041ZM147.522 54.2966V55.322H141.336V54.2966H147.522ZM149.806 56.8396H152.027C152.624 56.8396 153.128 56.9444 153.538 57.1541C153.948 57.3591 154.258 57.644 154.468 58.0085C154.682 58.3686 154.789 58.7787 154.789 59.239C154.789 59.5808 154.73 59.9021 154.611 60.2029C154.493 60.4991 154.315 60.7589 154.078 60.9822C153.846 61.2055 153.556 61.3809 153.21 61.5085C152.868 61.6316 152.474 61.6931 152.027 61.6931H148.883V54.2966H150.147V60.6541H152.027C152.392 60.6541 152.684 60.588 152.902 60.4558C153.121 60.3236 153.278 60.1528 153.374 59.9431C153.47 59.7335 153.518 59.5147 153.518 59.2869C153.518 59.0636 153.47 58.8448 153.374 58.6306C153.278 58.4164 153.121 58.2387 152.902 58.0974C152.684 57.9516 152.392 57.8787 152.027 57.8787H149.806V56.8396ZM157.421 54.2966V61.6931H156.156V54.2966H157.421Z" fill="black"/>
<g filter="url(#filter0_d_830_2158)">
<path d="M316.5 54.1931C323.404 47.2896 323.404 36.0967 316.5 29.1931C309.596 22.2895 298.404 22.2896 291.5 29.1931C284.596 36.0967 284.596 47.2896 291.5 54.1931C298.404 61.0967 309.596 61.0967 316.5 54.1931Z" fill="white"/>
</g>
<path d="M309.525 41.6913C309.529 42.7384 309.222 43.763 308.643 44.6359C308.065 45.5089 307.241 46.1909 306.275 46.5962C305.31 47.0014 304.246 47.1116 303.218 46.9129C302.19 46.7142 301.243 46.2155 300.498 45.4797C299.753 44.7439 299.243 43.8039 299.031 42.7784C298.82 41.7528 298.917 40.6876 299.31 39.717C299.703 38.7465 300.375 37.9141 301.241 37.3249C302.106 36.7357 303.127 36.416 304.174 36.4062C304.874 36.3974 305.568 36.5276 306.217 36.7893C306.866 37.051 307.456 37.4389 307.954 37.9305C308.452 38.4222 308.847 39.0077 309.117 39.6533C309.387 40.2989 309.525 40.9916 309.525 41.6913Z" fill="#00A3FF"/>
<path d="M304.24 43.762C305.383 43.762 306.311 42.8348 306.311 41.6911C306.311 40.5473 305.383 39.6201 304.24 39.6201C303.096 39.6201 302.169 40.5473 302.169 41.6911C302.169 42.8348 303.096 43.762 304.24 43.762Z" fill="white"/>
<path d="M85 41.6931L59 41.6931" stroke="#00A3FF" stroke-miterlimit="10" stroke-linecap="round"/>
<path d="M80 39.823C79.9954 41.3073 80.4313 42.7597 81.2526 43.9961C82.0739 45.2326 83.2436 46.1975 84.6136 46.7688C85.9837 47.34 87.4924 47.4919 88.9488 47.2052C90.4052 46.9184 91.7437 46.206 92.795 45.158C93.8462 44.1101 94.5629 42.7737 94.8542 41.3183C95.1455 39.8628 94.9983 38.3536 94.4313 36.9817C93.8644 35.6099 92.9031 34.4372 91.6692 33.6121C90.4354 32.7869 88.9844 32.3464 87.5 32.3464C85.515 32.3464 83.6108 33.1334 82.205 34.5348C80.7991 35.9363 80.0062 37.8379 80 39.823Z" fill="#00A3FF"/>
<path d="M87.4766 42.7527C85.8586 42.7527 84.5469 41.441 84.5469 39.823C84.5469 38.205 85.8586 36.8933 87.4766 36.8933C89.0946 36.8933 90.4062 38.205 90.4062 39.823C90.4062 41.441 89.0946 42.7527 87.4766 42.7527Z" fill="white"/>
<defs>
<filter id="filter0_d_830_2158" x="262.322" y="0.0153809" width="83.3555" height="83.3553" filterUnits="userSpaceOnUse" color-interpolation-filters="sRGB">
<feFlood flood-opacity="0" result="BackgroundImageFix"/>
<feColorMatrix in="SourceAlpha" type="matrix" values="0 0 0 0 0 0 0 0 0 0 0 0 0 0 0 0 0 0 127 0" result="hardAlpha"/>
<feOffset/>
<feGaussianBlur stdDeviation="12"/>
<feComposite in2="hardAlpha" operator="out"/>
<feColorMatrix type="matrix" values="0 0 0 0 0.579167 0 0 0 0 0.579167 0 0 0 0 0.579167 0 0 0 0.3 0"/>
<feBlend mode="normal" in2="BackgroundImageFix" result="effect1_dropShadow_830_2158"/>
<feBlend mode="normal" in="SourceGraphic" in2="effect1_dropShadow_830_2158" result="shape"/>
</filter>
</defs>
</svg>
