<svg width="655" height="116" viewBox="0 0 655 116" fill="none" xmlns="http://www.w3.org/2000/svg">
<path d="M654.819 57.9096C654.819 25.927 628.892 0.0122581 596.91 0.0274026C564.927 0.0425471 539 25.9818 539 57.9645C539 89.9471 564.927 115.862 596.91 115.847C628.892 115.832 654.819 89.8923 654.819 57.9096Z" fill="#00A3FF"/>
<path d="M574.104 37.9883H581.604V80H572.609V49.4141H565.402V43.7012C566.691 43.5449 567.873 43.2422 568.947 42.793C570.021 42.3242 570.852 41.8262 571.438 41.2988C572.043 40.7715 572.551 40.2637 572.961 39.7754C573.391 39.2676 573.693 38.8379 573.869 38.4863L574.104 37.9883ZM601.994 48.7988C600.217 51.2012 599.328 54.5996 599.328 58.9941C599.328 63.3887 600.217 66.7871 601.994 69.1895C603.771 71.5918 605.881 72.793 608.322 72.793C610.764 72.793 612.873 71.5918 614.65 69.1895C616.428 66.7871 617.316 63.3887 617.316 58.9941C617.316 54.5996 616.428 51.2012 614.65 48.7988C612.873 46.3965 610.764 45.1953 608.322 45.1953C605.881 45.1953 603.771 46.3965 601.994 48.7988ZM621.066 43.1445C624.562 47.1484 626.311 52.4316 626.311 58.9941C626.311 65.5566 624.562 70.8496 621.066 74.873C617.57 78.8965 613.322 80.9082 608.322 80.9082C603.322 80.9082 599.074 78.8965 595.578 74.873C592.082 70.8496 590.334 65.5566 590.334 58.9941C590.334 52.4316 592.082 47.1484 595.578 43.1445C599.074 39.1211 603.322 37.1094 608.322 37.1094C613.322 37.1094 617.57 39.1211 621.066 43.1445Z" fill="white"/>
<path d="M175.294 58.0002L57.2939 58.0002" stroke="#00A3FF" stroke-miterlimit="10" stroke-linecap="round"/>
<g filter="url(#filter0_d_822_2144)">
<path d="M32.5734 78.7318C21.2109 67.3747 21.2109 48.9612 32.5733 37.6041C43.9358 26.247 62.358 26.2471 73.7204 37.6042C85.0829 48.9612 85.0829 67.3747 73.7204 78.7318C62.358 90.0889 43.9358 90.0889 32.5734 78.7318Z" fill="white"/>
</g>
<path d="M44.0532 58.1649C44.0479 59.8876 44.5531 61.5732 45.505 63.0093C46.457 64.4453 47.8131 65.5674 49.4023 66.234C50.9915 66.9007 52.7426 67.082 54.4347 66.7551C56.1269 66.4282 57.6843 65.6078 58.9106 64.3973C60.1368 63.1868 60.977 61.6405 61.3251 59.9533C61.6731 58.2662 61.5136 56.5137 60.8665 54.9171C60.2194 53.3205 59.1137 51.9511 57.689 50.9818C56.2643 50.0125 54.5843 49.4866 52.8609 49.4704C51.7094 49.456 50.5665 49.6702 49.4985 50.1007C48.4306 50.5312 47.4587 51.1693 46.6394 51.9781C45.8201 52.7869 45.1695 53.7503 44.7256 54.8123C44.2816 55.8743 44.0531 57.0139 44.0532 58.1649Z" fill="#00A3FF"/>
<path d="M52.7516 61.5717C50.8692 61.5717 49.3431 60.0464 49.3431 58.1648C49.3431 56.2832 50.8692 54.7578 52.7516 54.7578C54.6341 54.7578 56.1602 56.2832 56.1602 58.1648C56.1602 60.0464 54.6341 61.5717 52.7516 61.5717Z" fill="white"/>
<path d="M172.842 58.1647C172.837 59.8909 173.344 61.5798 174.299 63.0177C175.255 64.4555 176.616 65.5777 178.21 66.242C179.804 66.9063 181.559 67.0829 183.254 66.7495C184.948 66.416 186.505 65.5875 187.729 64.3688C188.952 63.1502 189.785 61.5962 190.124 59.9036C190.463 58.211 190.292 56.4559 189.632 54.8606C188.973 53.2653 187.854 51.9016 186.419 50.942C184.983 49.9824 183.295 49.4702 181.568 49.4702C179.259 49.4702 177.043 50.3854 175.408 52.0151C173.772 53.6449 172.849 55.8563 172.842 58.1647Z" fill="#00A3FF"/>
<path d="M181.541 61.5717C179.658 61.5717 178.132 60.0464 178.132 58.1648C178.132 56.2832 179.658 54.7578 181.541 54.7578C183.423 54.7578 184.949 56.2832 184.949 58.1648C184.949 60.0464 183.423 61.5717 181.541 61.5717Z" fill="white"/>
<path d="M238.391 44.6848H234.427L234.405 43.0198H238.004C238.598 43.0198 239.118 42.9195 239.562 42.719C240.006 42.5185 240.349 42.232 240.593 41.8596C240.843 41.4801 240.969 41.0289 240.969 40.5061C240.969 39.9332 240.858 39.4677 240.636 39.1096C240.421 38.7444 240.088 38.4794 239.637 38.3147C239.193 38.1428 238.627 38.0569 237.939 38.0569H234.889V52.0002H232.815V36.3596H237.939C238.742 36.3596 239.458 36.442 240.088 36.6067C240.718 36.7642 241.252 37.0149 241.688 37.3586C242.132 37.6952 242.469 38.1249 242.698 38.6477C242.927 39.1705 243.042 39.7971 243.042 40.5276C243.042 41.1721 242.877 41.7558 242.548 42.2786C242.218 42.7942 241.76 43.2167 241.173 43.5461C240.593 43.8756 239.912 44.0868 239.132 44.1799L238.391 44.6848ZM238.294 52.0002H233.61L234.781 50.3137H238.294C238.953 50.3137 239.511 50.1991 239.97 49.97C240.435 49.7408 240.79 49.4185 241.033 49.0032C241.277 48.5806 241.398 48.0829 241.398 47.51C241.398 46.9299 241.295 46.4286 241.087 46.0061C240.879 45.5836 240.553 45.2577 240.109 45.0286C239.665 44.7994 239.092 44.6848 238.391 44.6848H235.437L235.458 43.0198H239.497L239.938 43.6213C240.689 43.6858 241.327 43.9006 241.85 44.2659C242.372 44.6239 242.77 45.0823 243.042 45.6409C243.321 46.1995 243.461 46.8153 243.461 47.4885C243.461 48.4625 243.246 49.2861 242.816 49.9592C242.394 50.6252 241.796 51.1337 241.022 51.4846C240.249 51.8284 239.34 52.0002 238.294 52.0002ZM247.854 44.3733H251.346C252.284 44.3733 253.075 44.538 253.72 44.8674C254.364 45.1897 254.851 45.6373 255.181 46.2102C255.517 46.776 255.686 47.4205 255.686 48.1438C255.686 48.6809 255.592 49.1858 255.406 49.6584C255.22 50.1239 254.941 50.5321 254.568 50.8831C254.203 51.234 253.748 51.5097 253.204 51.7102C252.667 51.9036 252.048 52.0002 251.346 52.0002H246.404V40.3772H248.392V50.3674H251.346C251.919 50.3674 252.377 50.2636 252.721 50.0559C253.064 49.8482 253.312 49.5797 253.462 49.2502C253.612 48.9208 253.688 48.5771 253.688 48.219C253.688 47.8681 253.612 47.5243 253.462 47.1877C253.312 46.8512 253.064 46.5719 252.721 46.3499C252.377 46.1207 251.919 46.0061 251.346 46.0061H247.854V44.3733ZM259.821 40.3772V52.0002H257.834V40.3772H259.821ZM268.759 46.887H264.945L264.924 45.2971H268.039C268.655 45.2971 269.167 45.2362 269.575 45.1145C269.991 44.9928 270.302 44.8101 270.51 44.5667C270.717 44.3232 270.821 44.0224 270.821 43.6643C270.821 43.385 270.76 43.1415 270.639 42.9338C270.524 42.719 270.349 42.5435 270.112 42.4075C269.876 42.2642 269.582 42.1604 269.231 42.0959C268.888 42.0243 268.483 41.9885 268.018 41.9885H265.472V52.0002H263.484V40.3772H268.018C268.755 40.3772 269.418 40.4417 270.005 40.5706C270.599 40.6995 271.104 40.8964 271.52 41.1614C271.942 41.4192 272.264 41.7486 272.486 42.1497C272.708 42.5507 272.819 43.0234 272.819 43.5676C272.819 43.9185 272.748 44.2515 272.604 44.5667C272.461 44.8818 272.25 45.1611 271.971 45.4045C271.691 45.648 271.348 45.8486 270.939 46.0061C270.531 46.1565 270.062 46.2532 269.532 46.2961L268.759 46.887ZM268.759 52.0002H264.226L265.214 50.3889H268.759C269.31 50.3889 269.769 50.3209 270.134 50.1848C270.499 50.0416 270.771 49.8411 270.95 49.5833C271.136 49.3183 271.229 49.0032 271.229 48.6379C271.229 48.2727 271.136 47.9612 270.95 47.7034C270.771 47.4384 270.499 47.2379 270.134 47.1018C269.769 46.9586 269.31 46.887 268.759 46.887H265.74L265.762 45.2971H269.532L270.252 45.8987C270.889 45.9488 271.43 46.1064 271.874 46.3713C272.318 46.6363 272.655 46.9729 272.884 47.3811C273.113 47.7821 273.228 48.219 273.228 48.6917C273.228 49.2359 273.124 49.7157 272.916 50.1311C272.715 50.5465 272.422 50.8938 272.035 51.1731C271.648 51.4452 271.179 51.6529 270.628 51.7961C270.076 51.9322 269.453 52.0002 268.759 52.0002ZM275.365 46.3176V46.0706C275.365 45.2327 275.487 44.4556 275.73 43.7395C275.974 43.0162 276.325 42.3896 276.783 41.8596C277.242 41.3225 277.797 40.9071 278.448 40.6135C279.1 40.3127 279.83 40.1624 280.64 40.1624C281.456 40.1624 282.19 40.3127 282.842 40.6135C283.501 40.9071 284.059 41.3225 284.518 41.8596C284.983 42.3896 285.338 43.0162 285.581 43.7395C285.825 44.4556 285.946 45.2327 285.946 46.0706V46.3176C285.946 47.1555 285.825 47.9325 285.581 48.6487C285.338 49.3648 284.983 49.9915 284.518 50.5286C284.059 51.0585 283.504 51.4739 282.853 51.7747C282.208 52.0683 281.478 52.2151 280.661 52.2151C279.845 52.2151 279.111 52.0683 278.459 51.7747C277.807 51.4739 277.249 51.0585 276.783 50.5286C276.325 49.9915 275.974 49.3648 275.73 48.6487C275.487 47.9325 275.365 47.1555 275.365 46.3176ZM277.353 46.0706V46.3176C277.353 46.8977 277.421 47.4456 277.557 47.9612C277.693 48.4696 277.897 48.9208 278.169 49.3147C278.448 49.7086 278.796 50.0201 279.211 50.2493C279.626 50.4713 280.11 50.5823 280.661 50.5823C281.205 50.5823 281.682 50.4713 282.09 50.2493C282.505 50.0201 282.849 49.7086 283.121 49.3147C283.393 48.9208 283.597 48.4696 283.733 47.9612C283.877 47.4456 283.948 46.8977 283.948 46.3176V46.0706C283.948 45.4976 283.877 44.9569 283.733 44.4485C283.597 43.9329 283.39 43.4781 283.11 43.0842C282.838 42.6832 282.494 42.3681 282.079 42.1389C281.671 41.9097 281.191 41.7952 280.64 41.7952C280.095 41.7952 279.616 41.9097 279.2 42.1389C278.792 42.3681 278.448 42.6832 278.169 43.0842C277.897 43.4781 277.693 43.9329 277.557 44.4485C277.421 44.9569 277.353 45.4976 277.353 46.0706ZM289.76 40.3772H291.747L291.575 44.7278C291.532 45.8306 291.407 46.7831 291.199 47.5852C290.992 48.3873 290.727 49.0712 290.404 49.637C290.082 50.1956 289.72 50.6646 289.319 51.0442C288.925 51.4237 288.517 51.7424 288.095 52.0002H287.106L287.16 50.3782L287.568 50.3674C287.805 50.0881 288.034 49.8017 288.256 49.5081C288.478 49.2073 288.682 48.8528 288.868 48.4446C289.054 48.0292 289.208 47.5243 289.33 46.9299C289.459 46.3284 289.541 45.5943 289.577 44.7278L289.76 40.3772ZM290.254 40.3772H297.247V52.0002H295.26V42.2141H290.254V40.3772ZM286.655 50.3674H298.74V55.427H296.753V52.0002H288.643V55.427H286.645L286.655 50.3674ZM311.137 40.3772V52.0002H309.139V40.3772H311.137ZM315.036 40.3772V41.9885H305.314V40.3772H315.036ZM316.014 46.3176V46.0706C316.014 45.2327 316.135 44.4556 316.379 43.7395C316.622 43.0162 316.973 42.3896 317.432 41.8596C317.89 41.3225 318.445 40.9071 319.097 40.6135C319.748 40.3127 320.479 40.1624 321.288 40.1624C322.104 40.1624 322.839 40.3127 323.49 40.6135C324.149 40.9071 324.708 41.3225 325.166 41.8596C325.632 42.3896 325.986 43.0162 326.229 43.7395C326.473 44.4556 326.595 45.2327 326.595 46.0706V46.3176C326.595 47.1555 326.473 47.9325 326.229 48.6487C325.986 49.3648 325.632 49.9915 325.166 50.5286C324.708 51.0585 324.153 51.4739 323.501 51.7747C322.856 52.0683 322.126 52.2151 321.31 52.2151C320.493 52.2151 319.759 52.0683 319.107 51.7747C318.456 51.4739 317.897 51.0585 317.432 50.5286C316.973 49.9915 316.622 49.3648 316.379 48.6487C316.135 47.9325 316.014 47.1555 316.014 46.3176ZM318.001 46.0706V46.3176C318.001 46.8977 318.069 47.4456 318.205 47.9612C318.341 48.4696 318.545 48.9208 318.817 49.3147C319.097 49.7086 319.444 50.0201 319.859 50.2493C320.275 50.4713 320.758 50.5823 321.31 50.5823C321.854 50.5823 322.33 50.4713 322.738 50.2493C323.154 50.0201 323.497 49.7086 323.77 49.3147C324.042 48.9208 324.246 48.4696 324.382 47.9612C324.525 47.4456 324.597 46.8977 324.597 46.3176V46.0706C324.597 45.4976 324.525 44.9569 324.382 44.4485C324.246 43.9329 324.038 43.4781 323.759 43.0842C323.487 42.6832 323.143 42.3681 322.728 42.1389C322.319 41.9097 321.84 41.7952 321.288 41.7952C320.744 41.7952 320.264 41.9097 319.849 42.1389C319.44 42.3681 319.097 42.6832 318.817 43.0842C318.545 43.4781 318.341 43.9329 318.205 44.4485C318.069 44.9569 318.001 45.4976 318.001 46.0706ZM334.544 46.887H330.73L330.709 45.2971H333.824C334.44 45.2971 334.952 45.2362 335.36 45.1145C335.776 44.9928 336.087 44.8101 336.295 44.5667C336.503 44.3232 336.606 44.0224 336.606 43.6643C336.606 43.385 336.546 43.1415 336.424 42.9338C336.309 42.719 336.134 42.5435 335.897 42.4075C335.661 42.2642 335.368 42.1604 335.017 42.0959C334.673 42.0243 334.268 41.9885 333.803 41.9885H331.257V52.0002H329.27V40.3772H333.803C334.54 40.3772 335.203 40.4417 335.79 40.5706C336.384 40.6995 336.889 40.8964 337.305 41.1614C337.727 41.4192 338.049 41.7486 338.271 42.1497C338.493 42.5507 338.604 43.0234 338.604 43.5676C338.604 43.9185 338.533 44.2515 338.39 44.5667C338.246 44.8818 338.035 45.1611 337.756 45.4045C337.477 45.648 337.133 45.8486 336.725 46.0061C336.316 46.1565 335.847 46.2532 335.317 46.2961L334.544 46.887ZM334.544 52.0002H330.011L330.999 50.3889H334.544C335.095 50.3889 335.554 50.3209 335.919 50.1848C336.284 50.0416 336.556 49.8411 336.735 49.5833C336.922 49.3183 337.015 49.0032 337.015 48.6379C337.015 48.2727 336.922 47.9612 336.735 47.7034C336.556 47.4384 336.284 47.2379 335.919 47.1018C335.554 46.9586 335.095 46.887 334.544 46.887H331.525L331.547 45.2971H335.317L336.037 45.8987C336.674 45.9488 337.215 46.1064 337.659 46.3713C338.103 46.6363 338.44 46.9729 338.669 47.3811C338.898 47.7821 339.013 48.219 339.013 48.6917C339.013 49.2359 338.909 49.7157 338.701 50.1311C338.501 50.5465 338.207 50.8938 337.82 51.1731C337.434 51.4452 336.965 51.6529 336.413 51.7961C335.862 51.9322 335.239 52.0002 334.544 52.0002ZM348.53 50.0129V44.0295C348.53 43.5712 348.437 43.1737 348.251 42.8372C348.072 42.4934 347.8 42.2284 347.435 42.0422C347.069 41.856 346.618 41.7629 346.081 41.7629C345.58 41.7629 345.139 41.8489 344.76 42.0208C344.387 42.1926 344.094 42.4182 343.879 42.6975C343.671 42.9768 343.567 43.2776 343.567 43.5999H341.58C341.58 43.1845 341.688 42.7727 341.902 42.3645C342.117 41.9563 342.425 41.5875 342.826 41.2581C343.234 40.9215 343.721 40.6565 344.287 40.4631C344.86 40.2626 345.497 40.1624 346.199 40.1624C347.044 40.1624 347.789 40.3056 348.434 40.592C349.085 40.8785 349.594 41.3118 349.959 41.8918C350.331 42.4648 350.518 43.1845 350.518 44.051V49.4651C350.518 49.8518 350.55 50.2636 350.614 50.7004C350.686 51.1373 350.79 51.5133 350.926 51.8284V52.0002H348.853C348.752 51.7711 348.674 51.4667 348.616 51.0872C348.559 50.7004 348.53 50.3424 348.53 50.0129ZM348.874 44.9534L348.896 46.3499H346.887C346.321 46.3499 345.816 46.3964 345.372 46.4895C344.928 46.5754 344.556 46.7079 344.255 46.887C343.954 47.066 343.725 47.2916 343.567 47.5637C343.41 47.8287 343.331 48.1402 343.331 48.4983C343.331 48.8635 343.413 49.1965 343.578 49.4973C343.743 49.7981 343.99 50.038 344.319 50.217C344.656 50.3889 345.068 50.4749 345.555 50.4749C346.163 50.4749 346.701 50.3459 347.166 50.0881C347.632 49.8303 348 49.5152 348.272 49.1428C348.552 48.7704 348.702 48.4088 348.724 48.0579L349.572 49.0139C349.522 49.3147 349.386 49.6477 349.164 50.0129C348.942 50.3782 348.645 50.7291 348.272 51.0657C347.907 51.3951 347.47 51.6708 346.962 51.8928C346.461 52.1077 345.895 52.2151 345.265 52.2151C344.477 52.2151 343.786 52.0611 343.191 51.7532C342.604 51.4452 342.146 51.0334 341.816 50.5178C341.494 49.995 341.333 49.4114 341.333 48.7668C341.333 48.1438 341.455 47.5959 341.698 47.1233C341.942 46.6435 342.293 46.246 342.751 45.9309C343.209 45.6086 343.761 45.3652 344.405 45.2004C345.05 45.0357 345.77 44.9534 346.564 44.9534H348.874ZM355.631 42.6116V56.469H353.633V40.3772H355.459L355.631 42.6116ZM363.462 46.092V46.3176C363.462 47.1627 363.362 47.9469 363.161 48.6702C362.961 49.3863 362.667 50.0094 362.28 50.5393C361.901 51.0693 361.432 51.481 360.873 51.7747C360.314 52.0683 359.674 52.2151 358.95 52.2151C358.213 52.2151 357.561 52.0933 356.995 51.8499C356.429 51.6064 355.95 51.2519 355.556 50.7864C355.162 50.3209 354.847 49.7623 354.61 49.1106C354.381 48.4589 354.224 47.7249 354.138 46.9084V45.7053C354.224 44.8459 354.385 44.0761 354.621 43.3958C354.857 42.7154 355.169 42.1353 355.556 41.6555C355.95 41.1685 356.426 40.7997 356.984 40.5491C357.543 40.2913 358.188 40.1624 358.918 40.1624C359.648 40.1624 360.297 40.3056 360.862 40.592C361.428 40.8713 361.904 41.2724 362.291 41.7952C362.678 42.318 362.968 42.9446 363.161 43.675C363.362 44.3984 363.462 45.204 363.462 46.092ZM361.464 46.3176V46.092C361.464 45.512 361.403 44.9677 361.281 44.4592C361.16 43.9436 360.97 43.4924 360.712 43.1057C360.461 42.7118 360.139 42.4039 359.745 42.1819C359.351 41.9527 358.882 41.8381 358.338 41.8381C357.837 41.8381 357.4 41.9241 357.027 42.0959C356.662 42.2678 356.351 42.5006 356.093 42.7942C355.835 43.0806 355.624 43.4101 355.459 43.7825C355.301 44.1477 355.183 44.5273 355.104 44.9211V47.7034C355.248 48.2047 355.448 48.6773 355.706 49.1213C355.964 49.5582 356.308 49.9127 356.737 50.1848C357.167 50.4498 357.708 50.5823 358.359 50.5823C358.896 50.5823 359.358 50.4713 359.745 50.2493C360.139 50.0201 360.461 49.7086 360.712 49.3147C360.97 48.9208 361.16 48.4696 361.281 47.9612C361.403 47.4456 361.464 46.8977 361.464 46.3176ZM365.471 46.3176V46.0706C365.471 45.2327 365.592 44.4556 365.836 43.7395C366.079 43.0162 366.43 42.3896 366.889 41.8596C367.347 41.3225 367.902 40.9071 368.554 40.6135C369.205 40.3127 369.936 40.1624 370.745 40.1624C371.562 40.1624 372.296 40.3127 372.947 40.6135C373.606 40.9071 374.165 41.3225 374.623 41.8596C375.089 42.3896 375.443 43.0162 375.687 43.7395C375.93 44.4556 376.052 45.2327 376.052 46.0706V46.3176C376.052 47.1555 375.93 47.9325 375.687 48.6487C375.443 49.3648 375.089 49.9915 374.623 50.5286C374.165 51.0585 373.61 51.4739 372.958 51.7747C372.313 52.0683 371.583 52.2151 370.767 52.2151C369.95 52.2151 369.216 52.0683 368.564 51.7747C367.913 51.4739 367.354 51.0585 366.889 50.5286C366.43 49.9915 366.079 49.3648 365.836 48.6487C365.592 47.9325 365.471 47.1555 365.471 46.3176ZM367.458 46.0706V46.3176C367.458 46.8977 367.526 47.4456 367.662 47.9612C367.798 48.4696 368.002 48.9208 368.274 49.3147C368.554 49.7086 368.901 50.0201 369.316 50.2493C369.732 50.4713 370.215 50.5823 370.767 50.5823C371.311 50.5823 371.787 50.4713 372.195 50.2493C372.611 50.0201 372.954 49.7086 373.227 49.3147C373.499 48.9208 373.703 48.4696 373.839 47.9612C373.982 47.4456 374.054 46.8977 374.054 46.3176V46.0706C374.054 45.4976 373.982 44.9569 373.839 44.4485C373.703 43.9329 373.495 43.4781 373.216 43.0842C372.944 42.6832 372.6 42.3681 372.185 42.1389C371.776 41.9097 371.297 41.7952 370.745 41.7952C370.201 41.7952 369.721 41.9097 369.306 42.1389C368.897 42.3681 368.554 42.6832 368.274 43.0842C368.002 43.4781 367.798 43.9329 367.662 44.4485C367.526 44.9569 367.458 45.4976 367.458 46.0706ZM384.001 46.887H380.188L380.166 45.2971H383.281C383.897 45.2971 384.409 45.2362 384.817 45.1145C385.233 44.9928 385.544 44.8101 385.752 44.5667C385.96 44.3232 386.063 44.0224 386.063 43.6643C386.063 43.385 386.003 43.1415 385.881 42.9338C385.766 42.719 385.591 42.5435 385.354 42.4075C385.118 42.2642 384.825 42.1604 384.474 42.0959C384.13 42.0243 383.725 41.9885 383.26 41.9885H380.714V52.0002H378.727V40.3772H383.26C383.997 40.3772 384.66 40.4417 385.247 40.5706C385.841 40.6995 386.346 40.8964 386.762 41.1614C387.184 41.4192 387.507 41.7486 387.729 42.1497C387.951 42.5507 388.062 43.0234 388.062 43.5676C388.062 43.9185 387.99 44.2515 387.847 44.5667C387.703 44.8818 387.492 45.1611 387.213 45.4045C386.934 45.648 386.59 45.8486 386.182 46.0061C385.773 46.1565 385.304 46.2532 384.774 46.2961L384.001 46.887ZM384.001 52.0002H379.468L380.456 50.3889H384.001C384.552 50.3889 385.011 50.3209 385.376 50.1848C385.741 50.0416 386.013 49.8411 386.192 49.5833C386.379 49.3183 386.472 49.0032 386.472 48.6379C386.472 48.2727 386.379 47.9612 386.192 47.7034C386.013 47.4384 385.741 47.2379 385.376 47.1018C385.011 46.9586 384.552 46.887 384.001 46.887H380.982L381.004 45.2971H384.774L385.494 45.8987C386.132 45.9488 386.672 46.1064 387.116 46.3713C387.56 46.6363 387.897 46.9729 388.126 47.3811C388.355 47.7821 388.47 48.219 388.47 48.6917C388.47 49.2359 388.366 49.7157 388.158 50.1311C387.958 50.5465 387.664 50.8938 387.277 51.1731C386.891 51.4452 386.422 51.6529 385.87 51.7961C385.319 51.9322 384.696 52.0002 384.001 52.0002ZM404.046 35.3176H405.679C405.679 36.0194 405.571 36.578 405.356 36.9934C405.142 37.4016 404.848 37.7167 404.476 37.9387C404.11 38.1607 403.695 38.329 403.229 38.4436C402.771 38.5582 402.295 38.6692 401.801 38.7766C401.185 38.9055 400.612 39.1096 400.082 39.3889C399.559 39.6611 399.108 40.0478 398.729 40.5491C398.356 41.0504 398.08 41.7021 397.901 42.5042C397.729 43.3062 397.683 44.2981 397.762 45.4797V46.468H396.129V45.4797C396.129 44.1549 396.254 42.9983 396.505 42.01C396.763 41.0217 397.124 40.1874 397.59 39.5071C398.055 38.8267 398.607 38.2861 399.244 37.885C399.889 37.484 400.598 37.2083 401.371 37.0579C401.93 36.9504 402.41 36.8359 402.811 36.7141C403.212 36.5852 403.516 36.4133 403.724 36.1985C403.938 35.9836 404.046 35.69 404.046 35.3176ZM401.693 41.0432C402.452 41.0432 403.129 41.1757 403.724 41.4407C404.318 41.7056 404.823 42.0745 405.238 42.5471C405.654 43.0198 405.969 43.5784 406.184 44.2229C406.406 44.8603 406.517 45.5549 406.517 46.3069V46.5432C406.517 47.3525 406.398 48.1044 406.162 48.7991C405.933 49.4866 405.593 50.0881 405.142 50.6038C404.698 51.1122 404.153 51.5097 403.509 51.7961C402.871 52.0826 402.145 52.2258 401.328 52.2258C400.512 52.2258 399.781 52.0826 399.137 51.7961C398.499 51.5097 397.955 51.1122 397.504 50.6038C397.053 50.0881 396.709 49.4866 396.473 48.7991C396.243 48.1044 396.129 47.3525 396.129 46.5432V46.3069C396.129 46.1278 396.161 45.9524 396.226 45.7805C396.29 45.6086 396.369 45.4332 396.462 45.2542C396.562 45.0751 396.652 44.8853 396.73 44.6848C396.995 44.0403 397.357 43.4423 397.815 42.8909C398.281 42.3394 398.836 41.8954 399.48 41.5588C400.132 41.2151 400.87 41.0432 401.693 41.0432ZM401.307 42.6653C400.576 42.6653 399.975 42.8336 399.502 43.1702C399.036 43.5068 398.689 43.9543 398.46 44.5129C398.231 45.0644 398.116 45.6624 398.116 46.3069V46.5432C398.116 47.0875 398.181 47.6031 398.31 48.0901C398.438 48.5771 398.632 49.0103 398.89 49.3899C399.155 49.7623 399.488 50.0559 399.889 50.2708C400.297 50.4856 400.777 50.593 401.328 50.593C401.88 50.593 402.356 50.4856 402.757 50.2708C403.158 50.0559 403.487 49.7623 403.745 49.3899C404.003 49.0103 404.196 48.5771 404.325 48.0901C404.454 47.6031 404.519 47.0875 404.519 46.5432V46.3069C404.519 45.8199 404.454 45.358 404.325 44.9211C404.196 44.4843 403.999 44.0976 403.734 43.761C403.477 43.4244 403.144 43.1594 402.735 42.9661C402.334 42.7655 401.858 42.6653 401.307 42.6653ZM410.566 42.6116V56.469H408.568V40.3772H410.395L410.566 42.6116ZM418.397 46.092V46.3176C418.397 47.1627 418.297 47.9469 418.097 48.6702C417.896 49.3863 417.603 50.0094 417.216 50.5393C416.836 51.0693 416.367 51.481 415.809 51.7747C415.25 52.0683 414.609 52.2151 413.886 52.2151C413.148 52.2151 412.496 52.0933 411.931 51.8499C411.365 51.6064 410.885 51.2519 410.491 50.7864C410.097 50.3209 409.782 49.7623 409.546 49.1106C409.317 48.4589 409.159 47.7249 409.073 46.9084V45.7053C409.159 44.8459 409.32 44.0761 409.557 43.3958C409.793 42.7154 410.104 42.1353 410.491 41.6555C410.885 41.1685 411.361 40.7997 411.92 40.5491C412.479 40.2913 413.123 40.1624 413.854 40.1624C414.584 40.1624 415.232 40.3056 415.798 40.592C416.364 40.8713 416.84 41.2724 417.227 41.7952C417.613 42.318 417.903 42.9446 418.097 43.675C418.297 44.3984 418.397 45.204 418.397 46.092ZM416.399 46.3176V46.092C416.399 45.512 416.339 44.9677 416.217 44.4592C416.095 43.9436 415.905 43.4924 415.647 43.1057C415.397 42.7118 415.075 42.4039 414.681 42.1819C414.287 41.9527 413.818 41.8381 413.273 41.8381C412.772 41.8381 412.335 41.9241 411.963 42.0959C411.598 42.2678 411.286 42.5006 411.028 42.7942C410.771 43.0806 410.559 43.4101 410.395 43.7825C410.237 44.1477 410.119 44.5273 410.04 44.9211V47.7034C410.183 48.2047 410.384 48.6773 410.642 49.1213C410.899 49.5582 411.243 49.9127 411.673 50.1848C412.103 50.4498 412.643 50.5823 413.295 50.5823C413.832 50.5823 414.294 50.4713 414.681 50.2493C415.075 50.0201 415.397 49.7086 415.647 49.3147C415.905 48.9208 416.095 48.4696 416.217 47.9612C416.339 47.4456 416.399 46.8977 416.399 46.3176ZM425.756 52.2151C424.947 52.2151 424.213 52.079 423.554 51.8069C422.902 51.5276 422.34 51.1373 421.867 50.636C421.402 50.1347 421.044 49.5403 420.793 48.8528C420.542 48.1653 420.417 47.4133 420.417 46.5969V46.1458C420.417 45.2004 420.557 44.359 420.836 43.6213C421.115 42.8765 421.495 42.2463 421.975 41.7307C422.454 41.2151 422.999 40.8248 423.607 40.5598C424.216 40.2948 424.846 40.1624 425.498 40.1624C426.329 40.1624 427.045 40.3056 427.646 40.592C428.255 40.8785 428.753 41.2795 429.14 41.7952C429.526 42.3036 429.813 42.9052 429.999 43.5999C430.185 44.2874 430.278 45.0393 430.278 45.8557V46.7473H421.599V45.1252H428.291V44.9749C428.262 44.4592 428.155 43.9579 427.969 43.4709C427.79 42.984 427.503 42.5829 427.109 42.2678C426.715 41.9527 426.178 41.7952 425.498 41.7952C425.047 41.7952 424.632 41.8918 424.252 42.0852C423.872 42.2714 423.547 42.5507 423.274 42.9231C423.002 43.2955 422.791 43.7502 422.641 44.2874C422.49 44.8245 422.415 45.4439 422.415 46.1458V46.5969C422.415 47.1484 422.49 47.6676 422.641 48.1545C422.798 48.6344 423.024 49.0569 423.317 49.4221C423.618 49.7874 423.98 50.0738 424.402 50.2815C424.832 50.4892 425.319 50.593 425.863 50.593C426.565 50.593 427.16 50.4498 427.646 50.1633C428.133 49.8769 428.56 49.4937 428.925 49.0139L430.128 49.97C429.877 50.3495 429.559 50.7112 429.172 51.0549C428.785 51.3987 428.309 51.678 427.743 51.8928C427.185 52.1077 426.522 52.2151 425.756 52.2151ZM440.483 45.4153V47.0266H434.339V45.4153H440.483ZM434.758 40.3772V52.0002H432.771V40.3772H434.758ZM442.095 40.3772V52.0002H440.097V40.3772H442.095ZM447.391 40.3772H449.378L449.206 44.7278C449.163 45.8306 449.038 46.7831 448.83 47.5852C448.622 48.3873 448.357 49.0712 448.035 49.637C447.713 50.1956 447.351 50.6646 446.95 51.0442C446.556 51.4237 446.148 51.7424 445.726 52.0002H444.737L444.791 50.3782L445.199 50.3674C445.436 50.0881 445.665 49.8017 445.887 49.5081C446.109 49.2073 446.313 48.8528 446.499 48.4446C446.685 48.0292 446.839 47.5243 446.961 46.9299C447.09 46.3284 447.172 45.5943 447.208 44.7278L447.391 40.3772ZM447.885 40.3772H454.878V52.0002H452.891V42.2141H447.885V40.3772ZM444.286 50.3674H456.371V55.427H454.384V52.0002H446.273V55.427H444.275L444.286 50.3674ZM465.427 50.0129V44.0295C465.427 43.5712 465.334 43.1737 465.147 42.8372C464.968 42.4934 464.696 42.2284 464.331 42.0422C463.966 41.856 463.515 41.7629 462.978 41.7629C462.476 41.7629 462.036 41.8489 461.656 42.0208C461.284 42.1926 460.99 42.4182 460.775 42.6975C460.568 42.9768 460.464 43.2776 460.464 43.5999H458.477C458.477 43.1845 458.584 42.7727 458.799 42.3645C459.014 41.9563 459.322 41.5875 459.723 41.2581C460.131 40.9215 460.618 40.6565 461.184 40.4631C461.757 40.2626 462.394 40.1624 463.096 40.1624C463.941 40.1624 464.686 40.3056 465.33 40.592C465.982 40.8785 466.49 41.3118 466.855 41.8918C467.228 42.4648 467.414 43.1845 467.414 44.051V49.4651C467.414 49.8518 467.446 50.2636 467.511 50.7004C467.582 51.1373 467.686 51.5133 467.822 51.8284V52.0002H465.749C465.649 51.7711 465.57 51.4667 465.513 51.0872C465.455 50.7004 465.427 50.3424 465.427 50.0129ZM465.771 44.9534L465.792 46.3499H463.783C463.217 46.3499 462.713 46.3964 462.269 46.4895C461.825 46.5754 461.452 46.7079 461.151 46.887C460.851 47.066 460.621 47.2916 460.464 47.5637C460.306 47.8287 460.228 48.1402 460.228 48.4983C460.228 48.8635 460.31 49.1965 460.475 49.4973C460.639 49.7981 460.886 50.038 461.216 50.217C461.552 50.3889 461.964 50.4749 462.451 50.4749C463.06 50.4749 463.597 50.3459 464.062 50.0881C464.528 49.8303 464.897 49.5152 465.169 49.1428C465.448 48.7704 465.599 48.4088 465.62 48.0579L466.469 49.0139C466.419 49.3147 466.283 49.6477 466.061 50.0129C465.839 50.3782 465.541 50.7291 465.169 51.0657C464.804 51.3951 464.367 51.6708 463.858 51.8928C463.357 52.1077 462.791 52.2151 462.161 52.2151C461.373 52.2151 460.682 52.0611 460.088 51.7532C459.501 51.4452 459.042 51.0334 458.713 50.5178C458.391 49.995 458.229 49.4114 458.229 48.7668C458.229 48.1438 458.351 47.5959 458.595 47.1233C458.838 46.6435 459.189 46.246 459.647 45.9309C460.106 45.6086 460.657 45.3652 461.302 45.2004C461.946 45.0357 462.666 44.9534 463.461 44.9534H465.771ZM240.399 71.4153V73.0266H234.255V71.4153H240.399ZM234.674 66.3772V78.0002H232.687V66.3772H234.674ZM242.011 66.3772V78.0002H240.013V66.3772H242.011ZM252.065 76.0129V70.0295C252.065 69.5712 251.972 69.1737 251.786 68.8372C251.607 68.4934 251.335 68.2284 250.97 68.0422C250.604 67.856 250.153 67.7629 249.616 67.7629C249.115 67.7629 248.674 67.8489 248.295 68.0208C247.923 68.1926 247.629 68.4182 247.414 68.6975C247.206 68.9768 247.103 69.2776 247.103 69.5999H245.115C245.115 69.1845 245.223 68.7727 245.438 68.3645C245.652 67.9563 245.96 67.5875 246.361 67.2581C246.77 66.9215 247.257 66.6565 247.822 66.4631C248.395 66.2626 249.033 66.1624 249.734 66.1624C250.579 66.1624 251.324 66.3056 251.969 66.592C252.62 66.8785 253.129 67.3118 253.494 67.8918C253.867 68.4648 254.053 69.1845 254.053 70.051V75.4651C254.053 75.8518 254.085 76.2636 254.149 76.7004C254.221 77.1373 254.325 77.5133 254.461 77.8284V78.0002H252.388C252.287 77.7711 252.209 77.4667 252.151 77.0872C252.094 76.7004 252.065 76.3424 252.065 76.0129ZM252.409 70.9534L252.431 72.3499H250.422C249.856 72.3499 249.351 72.3964 248.907 72.4895C248.463 72.5754 248.091 72.7079 247.79 72.887C247.489 73.066 247.26 73.2916 247.103 73.5637C246.945 73.8287 246.866 74.1402 246.866 74.4983C246.866 74.8635 246.949 75.1965 247.113 75.4973C247.278 75.7981 247.525 76.038 247.854 76.217C248.191 76.3889 248.603 76.4749 249.09 76.4749C249.699 76.4749 250.236 76.3459 250.701 76.0881C251.167 75.8303 251.535 75.5152 251.808 75.1428C252.087 74.7704 252.237 74.4088 252.259 74.0579L253.107 75.0139C253.057 75.3147 252.921 75.6477 252.699 76.0129C252.477 76.3782 252.18 76.7291 251.808 77.0657C251.442 77.3951 251.006 77.6708 250.497 77.8928C249.996 78.1077 249.43 78.2151 248.8 78.2151C248.012 78.2151 247.321 78.0611 246.727 77.7532C246.139 77.4452 245.681 77.0334 245.352 76.5178C245.029 75.995 244.868 75.4114 244.868 74.7668C244.868 74.1438 244.99 73.5959 245.233 73.1233C245.477 72.6435 245.828 72.246 246.286 71.9309C246.744 71.6086 247.296 71.3652 247.94 71.2004C248.585 71.0357 249.305 70.9534 250.1 70.9534H252.409ZM270.381 66.3772V68.0208H264.505V66.3772H270.381ZM264.795 66.3772V78.0002H262.808V66.3772H264.795ZM272.143 66.3772V78.0002H270.145V66.3772H272.143ZM277.32 68.6116V82.469H275.322V66.3772H277.148L277.32 68.6116ZM285.151 72.092V72.3176C285.151 73.1627 285.051 73.9469 284.851 74.6702C284.65 75.3863 284.356 76.0094 283.97 76.5393C283.59 77.0693 283.121 77.481 282.562 77.7747C282.004 78.0683 281.363 78.2151 280.64 78.2151C279.902 78.2151 279.25 78.0933 278.685 77.8499C278.119 77.6064 277.639 77.2519 277.245 76.7864C276.851 76.3209 276.536 75.7623 276.3 75.1106C276.071 74.4589 275.913 73.7249 275.827 72.9084V71.7053C275.913 70.8459 276.074 70.0761 276.311 69.3958C276.547 68.7154 276.858 68.1353 277.245 67.6555C277.639 67.1685 278.115 66.7997 278.674 66.5491C279.232 66.2913 279.877 66.1624 280.607 66.1624C281.338 66.1624 281.986 66.3056 282.552 66.592C283.118 66.8713 283.594 67.2724 283.98 67.7952C284.367 68.318 284.657 68.9446 284.851 69.675C285.051 70.3984 285.151 71.204 285.151 72.092ZM283.153 72.3176V72.092C283.153 71.512 283.092 70.9677 282.971 70.4592C282.849 69.9436 282.659 69.4924 282.401 69.1057C282.151 68.7118 281.828 68.4039 281.435 68.1819C281.041 67.9527 280.572 67.8381 280.027 67.8381C279.526 67.8381 279.089 67.9241 278.717 68.0959C278.352 68.2678 278.04 68.5006 277.782 68.7942C277.524 69.0806 277.313 69.4101 277.148 69.7825C276.991 70.1477 276.873 70.5273 276.794 70.9211V73.7034C276.937 74.2047 277.138 74.6773 277.396 75.1213C277.653 75.5582 277.997 75.9127 278.427 76.1848C278.856 76.4498 279.397 76.5823 280.049 76.5823C280.586 76.5823 281.048 76.4713 281.435 76.2493C281.828 76.0201 282.151 75.7086 282.401 75.3147C282.659 74.9208 282.849 74.4696 282.971 73.9612C283.092 73.4456 283.153 72.8977 283.153 72.3176ZM287.16 72.3176V72.0706C287.16 71.2327 287.282 70.4556 287.525 69.7395C287.769 69.0162 288.12 68.3896 288.578 67.8596C289.036 67.3225 289.591 66.9071 290.243 66.6135C290.895 66.3127 291.625 66.1624 292.435 66.1624C293.251 66.1624 293.985 66.3127 294.637 66.6135C295.296 66.9071 295.854 67.3225 296.312 67.8596C296.778 68.3896 297.132 69.0162 297.376 69.7395C297.619 70.4556 297.741 71.2327 297.741 72.0706V72.3176C297.741 73.1555 297.619 73.9325 297.376 74.6487C297.132 75.3648 296.778 75.9915 296.312 76.5286C295.854 77.0585 295.299 77.4739 294.647 77.7747C294.003 78.0683 293.272 78.2151 292.456 78.2151C291.64 78.2151 290.906 78.0683 290.254 77.7747C289.602 77.4739 289.044 77.0585 288.578 76.5286C288.12 75.9915 287.769 75.3648 287.525 74.6487C287.282 73.9325 287.16 73.1555 287.16 72.3176ZM289.147 72.0706V72.3176C289.147 72.8977 289.215 73.4456 289.352 73.9612C289.488 74.4696 289.692 74.9208 289.964 75.3147C290.243 75.7086 290.59 76.0201 291.006 76.2493C291.421 76.4713 291.905 76.5823 292.456 76.5823C293 76.5823 293.477 76.4713 293.885 76.2493C294.3 76.0201 294.644 75.7086 294.916 75.3147C295.188 74.9208 295.392 74.4696 295.528 73.9612C295.672 73.4456 295.743 72.8977 295.743 72.3176V72.0706C295.743 71.4976 295.672 70.9569 295.528 70.4485C295.392 69.9329 295.185 69.4781 294.905 69.0842C294.633 68.6832 294.289 68.3681 293.874 68.1389C293.466 67.9097 292.986 67.7952 292.435 67.7952C291.89 67.7952 291.41 67.9097 290.995 68.1389C290.587 68.3681 290.243 68.6832 289.964 69.0842C289.692 69.4781 289.488 69.9329 289.352 70.4485C289.215 70.9569 289.147 71.4976 289.147 72.0706ZM301.555 66.3772H303.542L303.37 70.7278C303.327 71.8306 303.202 72.7831 302.994 73.5852C302.786 74.3873 302.521 75.0712 302.199 75.637C301.877 76.1956 301.515 76.6646 301.114 77.0442C300.72 77.4237 300.312 77.7424 299.89 78.0002H298.901L298.955 76.3782L299.363 76.3674C299.6 76.0881 299.829 75.8017 300.051 75.5081C300.273 75.2073 300.477 74.8528 300.663 74.4446C300.849 74.0292 301.003 73.5243 301.125 72.9299C301.254 72.3284 301.336 71.5943 301.372 70.7278L301.555 66.3772ZM302.049 66.3772H309.042V78.0002H307.055V68.2141H302.049V66.3772ZM298.45 76.3674H310.535V81.427H308.548V78.0002H300.438V81.427H298.439L298.45 76.3674ZM319.591 76.0129V70.0295C319.591 69.5712 319.498 69.1737 319.312 68.8372C319.132 68.4934 318.86 68.2284 318.495 68.0422C318.13 67.856 317.679 67.7629 317.142 67.7629C316.64 67.7629 316.2 67.8489 315.82 68.0208C315.448 68.1926 315.154 68.4182 314.939 68.6975C314.732 68.9768 314.628 69.2776 314.628 69.5999H312.641C312.641 69.1845 312.748 68.7727 312.963 68.3645C313.178 67.9563 313.486 67.5875 313.887 67.2581C314.295 66.9215 314.782 66.6565 315.348 66.4631C315.921 66.2626 316.558 66.1624 317.26 66.1624C318.105 66.1624 318.85 66.3056 319.494 66.592C320.146 66.8785 320.654 67.3118 321.02 67.8918C321.392 68.4648 321.578 69.1845 321.578 70.051V75.4651C321.578 75.8518 321.61 76.2636 321.675 76.7004C321.746 77.1373 321.85 77.5133 321.986 77.8284V78.0002H319.913C319.813 77.7711 319.734 77.4667 319.677 77.0872C319.619 76.7004 319.591 76.3424 319.591 76.0129ZM319.935 70.9534L319.956 72.3499H317.947C317.382 72.3499 316.877 72.3964 316.433 72.4895C315.989 72.5754 315.616 72.7079 315.315 72.887C315.015 73.066 314.785 73.2916 314.628 73.5637C314.47 73.8287 314.392 74.1402 314.392 74.4983C314.392 74.8635 314.474 75.1965 314.639 75.4973C314.803 75.7981 315.05 76.038 315.38 76.217C315.716 76.3889 316.128 76.4749 316.615 76.4749C317.224 76.4749 317.761 76.3459 318.227 76.0881C318.692 75.8303 319.061 75.5152 319.333 75.1428C319.612 74.7704 319.763 74.4088 319.784 74.0579L320.633 75.0139C320.583 75.3147 320.447 75.6477 320.225 76.0129C320.003 76.3782 319.705 76.7291 319.333 77.0657C318.968 77.3951 318.531 77.6708 318.022 77.8928C317.521 78.1077 316.955 78.2151 316.325 78.2151C315.537 78.2151 314.846 78.0611 314.252 77.7532C313.665 77.4452 313.206 77.0334 312.877 76.5178C312.555 75.995 312.394 75.4114 312.394 74.7668C312.394 74.1438 312.515 73.5959 312.759 73.1233C313.002 72.6435 313.353 72.246 313.812 71.9309C314.27 71.6086 314.821 71.3652 315.466 71.2004C316.11 71.0357 316.83 70.9534 317.625 70.9534H319.935ZM328.228 72.9407L323.823 66.3772H326.219L329.227 71.1897H331.547L331.257 72.9407H328.228ZM329.312 72.7366L325.939 78.0002H323.426L328.056 71.2971L329.312 72.7366ZM332.567 66.3772V78.0002H330.58V66.3772H332.567ZM339.346 66.3772L334.941 72.9407H331.912L331.601 71.1897H333.932L336.939 66.3772H339.346ZM337.219 78.0002L333.835 72.7366L335.113 71.2971L339.732 78.0002H337.219ZM343.718 74.8528L349.078 66.3772H351.076V78.0002H349.078V69.5247L343.718 78.0002H341.741V66.3772H343.718V74.8528ZM365.181 72.887H361.367L361.346 71.2971H364.461C365.077 71.2971 365.589 71.2362 365.997 71.1145C366.412 70.9928 366.724 70.8101 366.932 70.5667C367.139 70.3232 367.243 70.0224 367.243 69.6643C367.243 69.385 367.182 69.1415 367.061 68.9338C366.946 68.719 366.771 68.5435 366.534 68.4075C366.298 68.2642 366.004 68.1604 365.653 68.0959C365.31 68.0243 364.905 67.9885 364.439 67.9885H361.894V78.0002H359.906V66.3772H364.439C365.177 66.3772 365.84 66.4417 366.427 66.5706C367.021 66.6995 367.526 66.8964 367.941 67.1614C368.364 67.4192 368.686 67.7486 368.908 68.1497C369.13 68.5507 369.241 69.0234 369.241 69.5676C369.241 69.9185 369.17 70.2515 369.026 70.5667C368.883 70.8818 368.672 71.1611 368.393 71.4045C368.113 71.648 367.77 71.8486 367.361 72.0061C366.953 72.1565 366.484 72.2532 365.954 72.2961L365.181 72.887ZM365.181 78.0002H360.647L361.636 76.3889H365.181C365.732 76.3889 366.19 76.3209 366.556 76.1848C366.921 76.0416 367.193 75.8411 367.372 75.5833C367.558 75.3183 367.651 75.0032 367.651 74.6379C367.651 74.2727 367.558 73.9612 367.372 73.7034C367.193 73.4384 366.921 73.2379 366.556 73.1018C366.19 72.9586 365.732 72.887 365.181 72.887H362.162L362.184 71.2971H365.954L366.674 71.8987C367.311 71.9488 367.852 72.1064 368.296 72.3713C368.74 72.6363 369.076 72.9729 369.306 73.3811C369.535 73.7821 369.649 74.219 369.649 74.6917C369.649 75.2359 369.546 75.7157 369.338 76.1311C369.137 76.5465 368.844 76.8938 368.457 77.1731C368.07 77.4452 367.601 77.6529 367.05 77.7961C366.498 77.9322 365.875 78.0002 365.181 78.0002ZM379.758 68.6116V82.469H377.76V66.3772H379.586L379.758 68.6116ZM387.589 72.092V72.3176C387.589 73.1627 387.489 73.9469 387.288 74.6702C387.088 75.3863 386.794 76.0094 386.407 76.5393C386.028 77.0693 385.559 77.481 385 77.7747C384.441 78.0683 383.8 78.2151 383.077 78.2151C382.34 78.2151 381.688 78.0933 381.122 77.8499C380.556 77.6064 380.076 77.2519 379.683 76.7864C379.289 76.3209 378.974 75.7623 378.737 75.1106C378.508 74.4589 378.351 73.7249 378.265 72.9084V71.7053C378.351 70.8459 378.512 70.0761 378.748 69.3958C378.984 68.7154 379.296 68.1353 379.683 67.6555C380.076 67.1685 380.553 66.7997 381.111 66.5491C381.67 66.2913 382.314 66.1624 383.045 66.1624C383.775 66.1624 384.424 66.3056 384.989 66.592C385.555 66.8713 386.031 67.2724 386.418 67.7952C386.805 68.318 387.095 68.9446 387.288 69.675C387.489 70.3984 387.589 71.204 387.589 72.092ZM385.591 72.3176V72.092C385.591 71.512 385.53 70.9677 385.408 70.4592C385.286 69.9436 385.097 69.4924 384.839 69.1057C384.588 68.7118 384.266 68.4039 383.872 68.1819C383.478 67.9527 383.009 67.8381 382.465 67.8381C381.964 67.8381 381.527 67.9241 381.154 68.0959C380.789 68.2678 380.478 68.5006 380.22 68.7942C379.962 69.0806 379.751 69.4101 379.586 69.7825C379.428 70.1477 379.31 70.5273 379.231 70.9211V73.7034C379.375 74.2047 379.575 74.6773 379.833 75.1213C380.091 75.5582 380.435 75.9127 380.864 76.1848C381.294 76.4498 381.835 76.5823 382.486 76.5823C383.023 76.5823 383.485 76.4713 383.872 76.2493C384.266 76.0201 384.588 75.7086 384.839 75.3147C385.097 74.9208 385.286 74.4696 385.408 73.9612C385.53 73.4456 385.591 72.8977 385.591 72.3176ZM392.272 74.8528L397.633 66.3772H399.631V78.0002H397.633V69.5247L392.272 78.0002H390.296V66.3772H392.272V74.8528ZM407.559 66.3772V78.0002H405.561V66.3772H407.559ZM411.458 66.3772V67.9885H401.736V66.3772H411.458ZM417.377 78.2151C416.568 78.2151 415.834 78.079 415.175 77.8069C414.523 77.5276 413.961 77.1373 413.488 76.636C413.023 76.1347 412.665 75.5403 412.414 74.8528C412.163 74.1653 412.038 73.4133 412.038 72.5969V72.1458C412.038 71.2004 412.178 70.359 412.457 69.6213C412.736 68.8765 413.116 68.2463 413.596 67.7307C414.076 67.2151 414.62 66.8248 415.229 66.5598C415.837 66.2948 416.467 66.1624 417.119 66.1624C417.95 66.1624 418.666 66.3056 419.268 66.592C419.876 66.8785 420.374 67.2795 420.761 67.7952C421.147 68.3036 421.434 68.9052 421.62 69.5999C421.806 70.2874 421.899 71.0393 421.899 71.8557V72.7473H413.22V71.1252H419.912V70.9749C419.883 70.4592 419.776 69.9579 419.59 69.4709C419.411 68.984 419.124 68.5829 418.73 68.2678C418.337 67.9527 417.799 67.7952 417.119 67.7952C416.668 67.7952 416.253 67.8918 415.873 68.0852C415.493 68.2714 415.168 68.5507 414.896 68.9231C414.623 69.2955 414.412 69.7502 414.262 70.2874C414.111 70.8245 414.036 71.4439 414.036 72.1458V72.5969C414.036 73.1484 414.111 73.6676 414.262 74.1545C414.419 74.6344 414.645 75.0569 414.938 75.4221C415.239 75.7874 415.601 76.0738 416.023 76.2815C416.453 76.4892 416.94 76.593 417.484 76.593C418.186 76.593 418.781 76.4498 419.268 76.1633C419.755 75.8769 420.181 75.4937 420.546 75.0139L421.749 75.97C421.498 76.3495 421.18 76.7112 420.793 77.0549C420.406 77.3987 419.93 77.678 419.364 77.8928C418.806 78.1077 418.143 78.2151 417.377 78.2151ZM426.368 74.8528L431.729 66.3772H433.727V78.0002H431.729V69.5247L426.368 78.0002H424.392V66.3772H426.368V74.8528ZM430.644 62.1663H432.255C432.255 62.7249 432.126 63.2226 431.868 63.6594C431.61 64.0891 431.242 64.4257 430.762 64.6692C430.282 64.9127 429.713 65.0344 429.054 65.0344C428.058 65.0344 427.271 64.7694 426.69 64.2395C426.118 63.7024 425.831 63.0113 425.831 62.1663H427.442C427.442 62.5888 427.564 62.9612 427.808 63.2834C428.051 63.6057 428.466 63.7668 429.054 63.7668C429.627 63.7668 430.035 63.6057 430.278 63.2834C430.522 62.9612 430.644 62.5888 430.644 62.1663ZM444.684 66.3772V68.0208H439.065V66.3772H444.684ZM446.435 66.3772V78.0002H444.447V66.3772H446.435ZM438.582 66.3772H440.58L440.279 71.9846C440.229 72.8512 440.147 73.6174 440.032 74.2834C439.925 74.9423 439.774 75.5081 439.581 75.9807C439.395 76.4534 439.159 76.8401 438.872 77.1409C438.593 77.4345 438.256 77.6529 437.862 77.7961C437.468 77.9322 437.014 78.0002 436.498 78.0002H435.875V76.2493L436.305 76.217C436.613 76.1956 436.874 76.1239 437.089 76.0022C437.311 75.8805 437.497 75.7014 437.647 75.4651C437.798 75.2216 437.92 74.9101 438.013 74.5305C438.113 74.151 438.188 73.6998 438.238 73.177C438.296 72.6542 438.339 72.0455 438.367 71.3508L438.582 66.3772Z" fill="black"/>
<defs>
<filter id="filter0_d_822_2144" x="0.0517578" y="5.08643" width="106.19" height="106.163" filterUnits="userSpaceOnUse" color-interpolation-filters="sRGB">
<feFlood flood-opacity="0" result="BackgroundImageFix"/>
<feColorMatrix in="SourceAlpha" type="matrix" values="0 0 0 0 0 0 0 0 0 0 0 0 0 0 0 0 0 0 127 0" result="hardAlpha"/>
<feOffset/>
<feGaussianBlur stdDeviation="12"/>
<feComposite in2="hardAlpha" operator="out"/>
<feColorMatrix type="matrix" values="0 0 0 0 0.579167 0 0 0 0 0.579167 0 0 0 0 0.579167 0 0 0 0.3 0"/>
<feBlend mode="normal" in2="BackgroundImageFix" result="effect1_dropShadow_822_2144"/>
<feBlend mode="normal" in="SourceGraphic" in2="effect1_dropShadow_822_2144" result="shape"/>
</filter>
</defs>
</svg>
