<svg width="346" height="85" viewBox="0 0 346 85" fill="none" xmlns="http://www.w3.org/2000/svg">
<g filter="url(#filter0_d_830_2163)">
<path d="M316.5 54.8467C323.404 47.9431 323.404 36.7502 316.5 29.8467C309.596 22.9431 298.404 22.9431 291.5 29.8467C284.596 36.7502 284.596 47.9431 291.5 54.8467C298.404 61.7502 309.596 61.7502 316.5 54.8467Z" fill="white"/>
</g>
<path d="M309.525 42.3448C309.529 43.392 309.222 44.4166 308.643 45.2895C308.065 46.1624 307.241 46.8445 306.275 47.2497C305.31 47.655 304.246 47.7652 303.218 47.5665C302.19 47.3678 301.243 46.8691 300.498 46.1333C299.753 45.3975 299.243 44.4575 299.031 43.4319C298.82 42.4064 298.917 41.3411 299.31 40.3706C299.703 39.4001 300.375 38.5677 301.241 37.9785C302.106 37.3892 303.127 37.0696 304.174 37.0597C304.874 37.051 305.568 37.1812 306.217 37.4429C306.866 37.7045 307.456 38.0924 307.954 38.5841C308.452 39.0757 308.847 39.6613 309.117 40.3069C309.387 40.9525 309.525 41.6452 309.525 42.3448Z" fill="#00A3FF"/>
<path d="M304.24 44.4156C305.383 44.4156 306.311 43.4884 306.311 42.3446C306.311 41.2009 305.383 40.2737 304.24 40.2737C303.096 40.2737 302.169 41.2009 302.169 42.3446C302.169 43.4884 303.096 44.4156 304.24 44.4156Z" fill="white"/>
<path d="M53.0456 60.0199C62.811 50.2591 62.811 34.4338 53.0455 24.673C43.2801 14.9122 27.4473 14.9121 17.6819 24.6729C7.91646 34.4337 7.91643 50.2591 17.6819 60.0199C27.4473 69.7807 43.2802 69.7807 53.0456 60.0199Z" fill="#00A3FF"/>
<path d="M27.6265 34.1882H30.7515V51.6931H27.0039V38.949H24.001V36.5686C24.5381 36.5035 25.0304 36.3774 25.478 36.1902C25.9256 35.9949 26.2715 35.7874 26.5156 35.5676C26.7679 35.3479 26.9795 35.1363 27.1504 34.9329C27.3294 34.7213 27.4556 34.5422 27.5288 34.3958L27.6265 34.1882ZM46.1323 51.6931H33.8887C33.8887 50.4073 34.0962 49.2436 34.5112 48.2019C34.9263 47.1602 35.443 46.3383 36.0615 45.7361C36.68 45.1257 37.3514 44.5479 38.0757 44.0027C38.8 43.4493 39.4673 42.9814 40.0776 42.5989C40.6961 42.2083 41.2129 41.7566 41.6279 41.2439C42.0511 40.7231 42.2627 40.1656 42.2627 39.5715C42.2627 38.8717 42.043 38.3223 41.6035 37.9236C41.1722 37.5167 40.5578 37.3132 39.7603 37.3132C39.1255 37.3132 38.5762 37.4923 38.1123 37.8503C37.6566 38.2084 37.3555 38.5624 37.209 38.9124L37.0137 39.4373L33.8887 37.948C33.9212 37.8341 33.9741 37.6835 34.0474 37.4963C34.1206 37.3092 34.3159 36.9796 34.6333 36.5076C34.9507 36.0274 35.3169 35.6083 35.7319 35.2502C36.147 34.8922 36.7329 34.5667 37.4897 34.2737C38.2547 33.9726 39.0929 33.822 40.0044 33.822C41.7866 33.822 43.2515 34.3632 44.3989 35.4456C45.5545 36.5279 46.1323 37.8585 46.1323 39.4373C46.1323 40.3243 45.9411 41.13 45.5586 41.8542C45.1761 42.5785 44.6756 43.197 44.0571 43.7097C43.4386 44.2143 42.8039 44.6822 42.1528 45.1135C41.5099 45.5367 40.8507 46.0209 40.1753 46.5662C39.4998 47.1033 38.9871 47.6444 38.6372 48.1897H46.1323V51.6931Z" fill="white"/>
<path d="M114.703 17.6912H112.181L112.167 16.6316H114.457C114.835 16.6316 115.166 16.5678 115.448 16.4402C115.731 16.3126 115.95 16.1303 116.104 15.8933C116.264 15.6518 116.344 15.3647 116.344 15.032C116.344 14.6674 116.273 14.3712 116.132 14.1433C115.995 13.9109 115.783 13.7423 115.496 13.6375C115.214 13.5281 114.854 13.4734 114.416 13.4734H112.475V22.3464H111.155V12.3933H114.416C114.926 12.3933 115.382 12.4457 115.783 12.5505C116.184 12.6508 116.524 12.8103 116.802 13.0291C117.084 13.2432 117.299 13.5167 117.444 13.8494C117.59 14.182 117.663 14.5808 117.663 15.0457C117.663 15.4558 117.558 15.8272 117.349 16.1599C117.139 16.488 116.847 16.7569 116.474 16.9666C116.104 17.1762 115.672 17.3106 115.175 17.3699L114.703 17.6912ZM114.642 22.3464H111.661L112.406 21.2732H114.642C115.061 21.2732 115.416 21.2003 115.708 21.0544C116.004 20.9086 116.23 20.7035 116.385 20.4392C116.54 20.1703 116.617 19.8536 116.617 19.489C116.617 19.1199 116.551 18.8009 116.419 18.532C116.287 18.2631 116.079 18.0557 115.797 17.9099C115.514 17.7641 115.15 17.6912 114.703 17.6912H112.823L112.837 16.6316H115.407L115.688 17.0144C116.166 17.0554 116.572 17.1921 116.904 17.4246C117.237 17.6524 117.49 17.9441 117.663 18.2996C117.841 18.655 117.93 19.047 117.93 19.4753C117.93 20.0951 117.793 20.6192 117.52 21.0476C117.251 21.4714 116.87 21.795 116.378 22.0183C115.886 22.2371 115.307 22.3464 114.642 22.3464ZM120.541 14.95L122.161 17.6433L123.802 14.95H125.285L122.865 18.6003L125.36 22.3464H123.897L122.188 19.571L120.479 22.3464H119.01L121.498 18.6003L119.085 14.95H120.541ZM126.16 18.7302V18.573C126.16 18.0398 126.238 17.5453 126.393 17.0896C126.548 16.6293 126.771 16.2306 127.062 15.8933C127.354 15.5515 127.707 15.2872 128.122 15.1003C128.537 14.9089 129.002 14.8132 129.517 14.8132C130.036 14.8132 130.503 14.9089 130.918 15.1003C131.337 15.2872 131.693 15.5515 131.984 15.8933C132.281 16.2306 132.506 16.6293 132.661 17.0896C132.816 17.5453 132.894 18.0398 132.894 18.573V18.7302C132.894 19.2634 132.816 19.7579 132.661 20.2136C132.506 20.6694 132.281 21.0681 131.984 21.4099C131.693 21.7472 131.34 22.0115 130.925 22.2029C130.515 22.3897 130.05 22.4832 129.53 22.4832C129.011 22.4832 128.544 22.3897 128.129 22.2029C127.714 22.0115 127.359 21.7472 127.062 21.4099C126.771 21.0681 126.548 20.6694 126.393 20.2136C126.238 19.7579 126.16 19.2634 126.16 18.7302ZM127.425 18.573V18.7302C127.425 19.0994 127.468 19.448 127.555 19.7761C127.641 20.0997 127.771 20.3868 127.944 20.6375C128.122 20.8881 128.343 21.0863 128.607 21.2322C128.872 21.3735 129.179 21.4441 129.53 21.4441C129.877 21.4441 130.18 21.3735 130.439 21.2322C130.704 21.0863 130.923 20.8881 131.096 20.6375C131.269 20.3868 131.399 20.0997 131.485 19.7761C131.576 19.448 131.622 19.0994 131.622 18.7302V18.573C131.622 18.2084 131.576 17.8643 131.485 17.5408C131.399 17.2126 131.267 16.9233 131.089 16.6726C130.916 16.4174 130.697 16.2169 130.433 16.071C130.173 15.9252 129.868 15.8523 129.517 15.8523C129.17 15.8523 128.865 15.9252 128.601 16.071C128.341 16.2169 128.122 16.4174 127.944 16.6726C127.771 16.9233 127.641 17.2126 127.555 17.5408C127.468 17.8643 127.425 18.2084 127.425 18.573ZM136.571 19.1267L133.769 14.95H135.293L137.207 18.0125H138.684L138.499 19.1267H136.571ZM137.262 18.9968L135.115 22.3464H133.516L136.462 18.0808L137.262 18.9968ZM139.333 14.95V22.3464H138.068V14.95H139.333ZM143.646 14.95L140.844 19.1267H138.916L138.718 18.0125H140.201L142.115 14.95H143.646ZM142.293 22.3464L140.14 18.9968L140.953 18.0808L143.893 22.3464H142.293ZM146.395 14.95H147.659L147.55 17.7185C147.522 18.4203 147.443 19.0264 147.311 19.5369C147.178 20.0473 147.01 20.4825 146.805 20.8425C146.6 21.198 146.369 21.4965 146.114 21.738C145.864 21.9796 145.604 22.1824 145.335 22.3464H144.706L144.74 21.3142L145 21.3074C145.15 21.1296 145.296 20.9473 145.438 20.7605C145.579 20.5691 145.709 20.3435 145.827 20.0837C145.946 19.8194 146.044 19.4981 146.121 19.1199C146.203 18.7371 146.256 18.2699 146.278 17.7185L146.395 14.95ZM146.709 14.95H151.159V22.3464H149.895V16.1189H146.709V14.95ZM144.419 21.3074H152.109V24.5271H150.845V22.3464H145.684V24.5271H144.412L144.419 21.3074ZM156.58 22.4832C156.065 22.4832 155.598 22.3966 155.179 22.2234C154.764 22.0457 154.406 21.7973 154.105 21.4783C153.809 21.1593 153.581 20.781 153.422 20.3435C153.262 19.906 153.183 19.4275 153.183 18.908V18.6208C153.183 18.0193 153.271 17.4838 153.449 17.0144C153.627 16.5404 153.868 16.1394 154.174 15.8113C154.479 15.4832 154.826 15.2348 155.213 15.0662C155.6 14.8975 156.001 14.8132 156.416 14.8132C156.945 14.8132 157.4 14.9044 157.783 15.0867C158.171 15.269 158.487 15.5242 158.733 15.8523C158.979 16.1759 159.162 16.5587 159.28 17.0007C159.399 17.4382 159.458 17.9167 159.458 18.4363V19.0037H153.935V17.9714H158.193V17.8757C158.175 17.5476 158.107 17.2286 157.988 16.9187C157.874 16.6088 157.692 16.3536 157.441 16.1531C157.191 15.9526 156.849 15.8523 156.416 15.8523C156.129 15.8523 155.865 15.9138 155.623 16.0369C155.382 16.1554 155.174 16.3331 155.001 16.5701C154.828 16.807 154.693 17.0964 154.598 17.4382C154.502 17.78 154.454 18.1742 154.454 18.6208V18.908C154.454 19.2589 154.502 19.5893 154.598 19.8992C154.698 20.2045 154.841 20.4734 155.028 20.7058C155.22 20.9382 155.45 21.1205 155.719 21.2527C155.992 21.3848 156.302 21.4509 156.648 21.4509C157.095 21.4509 157.473 21.3598 157.783 21.1775C158.093 20.9952 158.364 20.7514 158.597 20.446L159.362 21.0544C159.203 21.296 159 21.5261 158.754 21.7449C158.508 21.9636 158.205 22.1414 157.845 22.2781C157.489 22.4148 157.068 22.4832 156.58 22.4832ZM165.952 18.156V19.1814H162.042V18.156H165.952ZM162.309 14.95V22.3464H161.044V14.95H162.309ZM166.978 14.95V22.3464H165.706V14.95H166.978ZM170.382 20.3435L173.793 14.95H175.064V22.3464H173.793V16.9529L170.382 22.3464H169.124V14.95H170.382V20.3435ZM180.164 22.4832C179.649 22.4832 179.182 22.3966 178.763 22.2234C178.348 22.0457 177.99 21.7973 177.689 21.4783C177.393 21.1593 177.165 20.781 177.006 20.3435C176.846 19.906 176.767 19.4275 176.767 18.908V18.6208C176.767 18.0193 176.855 17.4838 177.033 17.0144C177.211 16.5404 177.452 16.1394 177.758 15.8113C178.063 15.4832 178.41 15.2348 178.797 15.0662C179.184 14.8975 179.585 14.8132 180 14.8132C180.529 14.8132 180.984 14.9044 181.367 15.0867C181.755 15.269 182.071 15.5242 182.317 15.8523C182.563 16.1759 182.746 16.5587 182.864 17.0007C182.983 17.4382 183.042 17.9167 183.042 18.4363V19.0037H177.519V17.9714H181.777V17.8757C181.759 17.5476 181.691 17.2286 181.572 16.9187C181.458 16.6088 181.276 16.3536 181.025 16.1531C180.775 15.9526 180.433 15.8523 180 15.8523C179.713 15.8523 179.449 15.9138 179.207 16.0369C178.965 16.1554 178.758 16.3331 178.585 16.5701C178.412 16.807 178.277 17.0964 178.182 17.4382C178.086 17.78 178.038 18.1742 178.038 18.6208V18.908C178.038 19.2589 178.086 19.5893 178.182 19.8992C178.282 20.2045 178.425 20.4734 178.612 20.7058C178.804 20.9382 179.034 21.1205 179.303 21.2527C179.576 21.3848 179.886 21.4509 180.232 21.4509C180.679 21.4509 181.057 21.3598 181.367 21.1775C181.677 20.9952 181.948 20.7514 182.181 20.446L182.946 21.0544C182.787 21.296 182.584 21.5261 182.338 21.7449C182.092 21.9636 181.789 22.1414 181.429 22.2781C181.073 22.4148 180.652 22.4832 180.164 22.4832ZM191.464 19.0925H189.037L189.023 18.0808H191.006C191.398 18.0808 191.724 18.0421 191.983 17.9646C192.248 17.8871 192.446 17.7709 192.578 17.616C192.71 17.461 192.776 17.2696 192.776 17.0417C192.776 16.864 192.738 16.7091 192.66 16.5769C192.587 16.4402 192.476 16.3285 192.325 16.2419C192.175 16.1508 191.988 16.0847 191.765 16.0437C191.546 15.9981 191.288 15.9753 190.992 15.9753H189.372V22.3464H188.107V14.95H190.992C191.462 14.95 191.883 14.991 192.257 15.073C192.635 15.155 192.956 15.2804 193.221 15.449C193.49 15.613 193.695 15.8227 193.836 16.0779C193.977 16.3331 194.048 16.6339 194.048 16.9802C194.048 17.2035 194.002 17.4154 193.911 17.616C193.82 17.8165 193.686 17.9942 193.508 18.1492C193.33 18.3041 193.111 18.4317 192.852 18.532C192.592 18.6277 192.293 18.6892 191.956 18.7166L191.464 19.0925ZM191.464 22.3464H188.579L189.208 21.321H191.464C191.815 21.321 192.106 21.2778 192.339 21.1912C192.571 21.1 192.744 20.9724 192.858 20.8083C192.977 20.6397 193.036 20.4392 193.036 20.2068C193.036 19.9744 192.977 19.7761 192.858 19.6121C192.744 19.4434 192.571 19.3158 192.339 19.2292C192.106 19.1381 191.815 19.0925 191.464 19.0925H189.543L189.557 18.0808H191.956L192.414 18.4636C192.82 18.4955 193.164 18.5958 193.446 18.7644C193.729 18.933 193.943 19.1472 194.089 19.407C194.235 19.6622 194.308 19.9402 194.308 20.241C194.308 20.5873 194.242 20.8927 194.109 21.157C193.982 21.4213 193.795 21.6423 193.549 21.8201C193.303 21.9932 193.004 22.1254 192.653 22.2166C192.302 22.3031 191.906 22.3464 191.464 22.3464ZM200.809 14.95H202.073L201.964 17.7185C201.937 18.4203 201.857 19.0264 201.725 19.5369C201.592 20.0473 201.424 20.4825 201.219 20.8425C201.014 21.198 200.784 21.4965 200.528 21.738C200.278 21.9796 200.018 22.1824 199.749 22.3464H199.12L199.154 21.3142L199.414 21.3074C199.564 21.1296 199.71 20.9473 199.852 20.7605C199.993 20.5691 200.123 20.3435 200.241 20.0837C200.36 19.8194 200.458 19.4981 200.535 19.1199C200.617 18.7371 200.67 18.2699 200.692 17.7185L200.809 14.95ZM201.123 14.95H205.573V22.3464H204.309V16.1189H201.123V14.95ZM198.833 21.3074H206.523V24.5271H205.259V22.3464H200.098V24.5271H198.826L198.833 21.3074ZM207.59 18.7302V18.573C207.59 18.0398 207.667 17.5453 207.822 17.0896C207.977 16.6293 208.201 16.2306 208.492 15.8933C208.784 15.5515 209.137 15.2872 209.552 15.1003C209.966 14.9089 210.431 14.8132 210.946 14.8132C211.466 14.8132 211.933 14.9089 212.348 15.1003C212.767 15.2872 213.122 15.5515 213.414 15.8933C213.71 16.2306 213.936 16.6293 214.091 17.0896C214.246 17.5453 214.323 18.0398 214.323 18.573V18.7302C214.323 19.2634 214.246 19.7579 214.091 20.2136C213.936 20.6694 213.71 21.0681 213.414 21.4099C213.122 21.7472 212.769 22.0115 212.354 22.2029C211.944 22.3897 211.479 22.4832 210.96 22.4832C210.44 22.4832 209.973 22.3897 209.559 22.2029C209.144 22.0115 208.788 21.7472 208.492 21.4099C208.201 21.0681 207.977 20.6694 207.822 20.2136C207.667 19.7579 207.59 19.2634 207.59 18.7302ZM208.854 18.573V18.7302C208.854 19.0994 208.898 19.448 208.984 19.7761C209.071 20.0997 209.201 20.3868 209.374 20.6375C209.552 20.8881 209.773 21.0863 210.037 21.2322C210.301 21.3735 210.609 21.4441 210.96 21.4441C211.306 21.4441 211.609 21.3735 211.869 21.2322C212.133 21.0863 212.352 20.8881 212.525 20.6375C212.699 20.3868 212.828 20.0997 212.915 19.7761C213.006 19.448 213.052 19.0994 213.052 18.7302V18.573C213.052 18.2084 213.006 17.8643 212.915 17.5408C212.828 17.2126 212.696 16.9233 212.519 16.6726C212.345 16.4174 212.127 16.2169 211.862 16.071C211.603 15.9252 211.297 15.8523 210.946 15.8523C210.6 15.8523 210.295 15.9252 210.03 16.071C209.771 16.2169 209.552 16.4174 209.374 16.6726C209.201 16.9233 209.071 17.2126 208.984 17.5408C208.898 17.8643 208.854 18.2084 208.854 18.573ZM220.742 14.95V15.9958H217.167V14.95H220.742ZM221.856 14.95V22.3464H220.592V14.95H221.856ZM216.859 14.95H218.131L217.939 18.5183C217.908 19.0697 217.855 19.5574 217.782 19.9812C217.714 20.4005 217.618 20.7605 217.495 21.0613C217.377 21.3621 217.226 21.6082 217.044 21.7996C216.866 21.9864 216.652 22.1254 216.401 22.2166C216.151 22.3031 215.861 22.3464 215.533 22.3464H215.137V21.2322L215.41 21.2117C215.606 21.198 215.772 21.1524 215.909 21.075C216.05 20.9975 216.169 20.8835 216.265 20.7332C216.36 20.5782 216.438 20.38 216.497 20.1384C216.561 19.8969 216.609 19.6098 216.641 19.2771C216.677 18.9444 216.704 18.557 216.723 18.115L216.859 14.95ZM228.104 18.0876V19.1199H224.174V18.0876H228.104ZM225.274 14.95V22.3464H224.01V14.95H225.274ZM227.024 18.7302V18.573C227.024 18.0398 227.102 17.5453 227.257 17.0896C227.412 16.6293 227.635 16.2306 227.927 15.8933C228.223 15.5515 228.576 15.2872 228.986 15.1003C229.401 14.9089 229.866 14.8132 230.381 14.8132C230.905 14.8132 231.374 14.9089 231.789 15.1003C232.204 15.2872 232.557 15.5515 232.849 15.8933C233.145 16.2306 233.37 16.6293 233.525 17.0896C233.68 17.5453 233.758 18.0398 233.758 18.573V18.7302C233.758 19.2634 233.68 19.7579 233.525 20.2136C233.37 20.6694 233.147 21.0681 232.855 21.4099C232.564 21.7472 232.211 22.0115 231.796 22.2029C231.381 22.3897 230.914 22.4832 230.395 22.4832C229.875 22.4832 229.408 22.3897 228.993 22.2029C228.578 22.0115 228.223 21.7472 227.927 21.4099C227.635 21.0681 227.412 20.6694 227.257 20.2136C227.102 19.7579 227.024 19.2634 227.024 18.7302ZM228.296 18.573V18.7302C228.296 19.0994 228.339 19.448 228.426 19.7761C228.512 20.0997 228.642 20.3868 228.815 20.6375C228.993 20.8881 229.212 21.0863 229.472 21.2322C229.736 21.3735 230.044 21.4441 230.395 21.4441C230.745 21.4441 231.051 21.3735 231.311 21.2322C231.575 21.0863 231.794 20.8881 231.967 20.6375C232.14 20.3868 232.27 20.0997 232.356 19.7761C232.448 19.448 232.493 19.0994 232.493 18.7302V18.573C232.493 18.2084 232.448 17.8643 232.356 17.5408C232.27 17.2126 232.138 16.9233 231.96 16.6726C231.787 16.4174 231.568 16.2169 231.304 16.071C231.039 15.9252 230.732 15.8523 230.381 15.8523C230.035 15.8523 229.731 15.9252 229.472 16.071C229.212 16.2169 228.993 16.4174 228.815 16.6726C228.642 16.9233 228.512 17.2126 228.426 17.5408C228.339 17.8643 228.296 18.2084 228.296 18.573ZM115.708 31.7302H116.747C116.747 32.1768 116.679 32.5323 116.542 32.7966C116.405 33.0564 116.218 33.2569 115.981 33.3982C115.749 33.5395 115.485 33.6466 115.188 33.7195C114.897 33.7924 114.594 33.863 114.279 33.9314C113.887 34.0134 113.523 34.1433 113.186 34.321C112.853 34.4942 112.566 34.7403 112.324 35.0593C112.087 35.3783 111.912 35.7931 111.798 36.3035C111.688 36.8139 111.659 37.4451 111.709 38.197V38.8259H110.67V38.197C110.67 37.3539 110.75 36.6179 110.909 35.989C111.073 35.3601 111.303 34.8292 111.6 34.3962C111.896 33.9633 112.247 33.6192 112.652 33.364C113.062 33.1088 113.514 32.9333 114.006 32.8376C114.361 32.7693 114.667 32.6964 114.922 32.6189C115.177 32.5369 115.371 32.4275 115.503 32.2908C115.64 32.1541 115.708 31.9672 115.708 31.7302ZM114.211 35.3738C114.694 35.3738 115.125 35.4581 115.503 35.6267C115.881 35.7953 116.202 36.03 116.467 36.3308C116.731 36.6316 116.932 36.9871 117.068 37.3972C117.21 37.8028 117.28 38.2449 117.28 38.7234V38.8738C117.28 39.3888 117.205 39.8673 117.055 40.3093C116.909 40.7468 116.692 41.1296 116.405 41.4578C116.123 41.7813 115.776 42.0343 115.366 42.2166C114.961 42.3988 114.498 42.49 113.979 42.49C113.459 42.49 112.994 42.3988 112.584 42.2166C112.178 42.0343 111.832 41.7813 111.545 41.4578C111.258 41.1296 111.039 40.7468 110.889 40.3093C110.743 39.8673 110.67 39.3888 110.67 38.8738V38.7234C110.67 38.6095 110.69 38.4978 110.731 38.3884C110.772 38.2791 110.823 38.1674 110.882 38.0535C110.946 37.9395 111.003 37.8188 111.053 37.6912C111.221 37.281 111.451 36.9005 111.743 36.5496C112.039 36.1986 112.393 35.9161 112.803 35.7019C113.217 35.4832 113.687 35.3738 114.211 35.3738ZM113.965 36.406C113.5 36.406 113.117 36.5131 112.816 36.7273C112.52 36.9415 112.299 37.2263 112.153 37.5818C112.007 37.9327 111.935 38.3132 111.935 38.7234V38.8738C111.935 39.2201 111.976 39.5483 112.058 39.8582C112.14 40.1681 112.263 40.4438 112.427 40.6853C112.595 40.9223 112.807 41.1091 113.062 41.2458C113.322 41.3826 113.628 41.4509 113.979 41.4509C114.329 41.4509 114.632 41.3826 114.888 41.2458C115.143 41.1091 115.353 40.9223 115.517 40.6853C115.681 40.4438 115.804 40.1681 115.886 39.8582C115.968 39.5483 116.009 39.2201 116.009 38.8738V38.7234C116.009 38.4135 115.968 38.1195 115.886 37.8416C115.804 37.5636 115.678 37.3175 115.51 37.1033C115.346 36.8891 115.134 36.7205 114.874 36.5974C114.619 36.4698 114.316 36.406 113.965 36.406ZM119.857 36.3718V45.1902H118.586V34.95H119.748L119.857 36.3718ZM124.841 38.5867V38.7302C124.841 39.268 124.777 39.767 124.649 40.2273C124.522 40.683 124.335 41.0795 124.089 41.4167C123.847 41.754 123.549 42.016 123.193 42.2029C122.838 42.3897 122.43 42.4832 121.97 42.4832C121.5 42.4832 121.086 42.4057 120.726 42.2507C120.366 42.0958 120.06 41.8702 119.81 41.574C119.559 41.2778 119.358 40.9223 119.208 40.5076C119.062 40.0929 118.962 39.6257 118.907 39.1062V38.3406C118.962 37.7937 119.064 37.3038 119.215 36.8708C119.365 36.4379 119.563 36.0688 119.81 35.7634C120.06 35.4535 120.363 35.2188 120.719 35.0593C121.074 34.8953 121.484 34.8132 121.949 34.8132C122.414 34.8132 122.826 34.9044 123.187 35.0867C123.547 35.2644 123.85 35.5196 124.096 35.8523C124.342 36.185 124.526 36.5837 124.649 37.0486C124.777 37.5089 124.841 38.0216 124.841 38.5867ZM123.569 38.7302V38.5867C123.569 38.2175 123.531 37.8712 123.453 37.5476C123.376 37.2195 123.255 36.9324 123.091 36.6863C122.931 36.4356 122.726 36.2397 122.476 36.0984C122.225 35.9526 121.926 35.8796 121.58 35.8796C121.261 35.8796 120.983 35.9343 120.746 36.0437C120.514 36.1531 120.315 36.3012 120.151 36.488C119.987 36.6703 119.853 36.88 119.748 37.1169C119.648 37.3494 119.573 37.5909 119.522 37.8416V39.6121C119.614 39.9311 119.741 40.2319 119.905 40.5144C120.069 40.7924 120.288 41.018 120.562 41.1912C120.835 41.3598 121.179 41.4441 121.594 41.4441C121.936 41.4441 122.229 41.3735 122.476 41.2322C122.726 41.0863 122.931 40.8881 123.091 40.6375C123.255 40.3868 123.376 40.0997 123.453 39.7761C123.531 39.448 123.569 39.0994 123.569 38.7302ZM129.523 42.4832C129.008 42.4832 128.541 42.3966 128.122 42.2234C127.707 42.0457 127.35 41.7973 127.049 41.4783C126.753 41.1593 126.525 40.781 126.365 40.3435C126.206 39.906 126.126 39.4275 126.126 38.908V38.6208C126.126 38.0193 126.215 37.4838 126.393 37.0144C126.57 36.5404 126.812 36.1394 127.117 35.8113C127.423 35.4832 127.769 35.2348 128.156 35.0662C128.544 34.8975 128.945 34.8132 129.359 34.8132C129.888 34.8132 130.344 34.9044 130.727 35.0867C131.114 35.269 131.431 35.5242 131.677 35.8523C131.923 36.1759 132.105 36.5587 132.224 37.0007C132.342 37.4382 132.401 37.9167 132.401 38.4363V39.0037H126.878V37.9714H131.137V37.8757C131.118 37.5476 131.05 37.2286 130.932 36.9187C130.818 36.6088 130.635 36.3536 130.385 36.1531C130.134 35.9526 129.792 35.8523 129.359 35.8523C129.072 35.8523 128.808 35.9138 128.566 36.0369C128.325 36.1554 128.118 36.3331 127.944 36.5701C127.771 36.807 127.637 37.0964 127.541 37.4382C127.445 37.78 127.397 38.1742 127.397 38.6208V38.908C127.397 39.2589 127.445 39.5893 127.541 39.8992C127.641 40.2045 127.785 40.4734 127.972 40.7058C128.163 40.9382 128.393 41.1205 128.662 41.2527C128.936 41.3848 129.245 41.4509 129.592 41.4509C130.038 41.4509 130.417 41.3598 130.727 41.1775C131.036 40.9952 131.308 40.7514 131.54 40.446L132.306 41.0544C132.146 41.296 131.943 41.5261 131.697 41.7449C131.451 41.9636 131.148 42.1414 130.788 42.2781C130.433 42.4148 130.011 42.4832 129.523 42.4832ZM138.896 38.156V39.1814H134.985V38.156H138.896ZM135.252 34.95V42.3464H133.987V34.95H135.252ZM139.921 34.95V42.3464H138.649V34.95H139.921ZM143.291 34.95H144.556L144.446 37.7185C144.419 38.4203 144.339 39.0264 144.207 39.5369C144.075 40.0473 143.906 40.4825 143.701 40.8425C143.496 41.198 143.266 41.4965 143.011 41.738C142.76 41.9796 142.5 42.1824 142.231 42.3464H141.603L141.637 41.3142L141.896 41.3074C142.047 41.1296 142.193 40.9473 142.334 40.7605C142.475 40.5691 142.605 40.3435 142.724 40.0837C142.842 39.8194 142.94 39.4981 143.018 39.1199C143.1 38.7371 143.152 38.2699 143.175 37.7185L143.291 34.95ZM143.605 34.95H148.056V42.3464H146.791V36.1189H143.605V34.95ZM141.315 41.3074H149.006V44.5271H147.741V42.3464H142.58V44.5271H141.309L141.315 41.3074ZM154.769 41.0818V37.2742C154.769 36.9825 154.709 36.7296 154.591 36.5154C154.477 36.2966 154.304 36.128 154.071 36.0095C153.839 35.891 153.552 35.8318 153.21 35.8318C152.891 35.8318 152.611 35.8865 152.369 35.9958C152.132 36.1052 151.945 36.2488 151.809 36.4265C151.676 36.6042 151.61 36.7957 151.61 37.0007H150.346C150.346 36.7364 150.414 36.4744 150.551 36.2146C150.688 35.9548 150.883 35.7201 151.139 35.5105C151.398 35.2963 151.708 35.1277 152.068 35.0046C152.433 34.877 152.839 34.8132 153.285 34.8132C153.823 34.8132 154.297 34.9044 154.707 35.0867C155.122 35.269 155.445 35.5447 155.678 35.9138C155.915 36.2784 156.033 36.7364 156.033 37.2878V40.7332C156.033 40.9792 156.054 41.2413 156.095 41.5193C156.14 41.7973 156.206 42.0365 156.293 42.2371V42.3464H154.974C154.91 42.2006 154.86 42.0069 154.823 41.7654C154.787 41.5193 154.769 41.2914 154.769 41.0818ZM154.987 37.8621L155.001 38.7507H153.723C153.363 38.7507 153.041 38.7804 152.759 38.8396C152.476 38.8943 152.239 38.9786 152.048 39.0925C151.856 39.2065 151.711 39.35 151.61 39.5232C151.51 39.6918 151.46 39.8901 151.46 40.1179C151.46 40.3503 151.512 40.5623 151.617 40.7537C151.722 40.9451 151.879 41.0977 152.089 41.2117C152.303 41.321 152.565 41.3757 152.875 41.3757C153.262 41.3757 153.604 41.2937 153.9 41.1296C154.197 40.9656 154.431 40.7651 154.604 40.5281C154.782 40.2911 154.878 40.061 154.892 39.8376L155.432 40.446C155.4 40.6375 155.313 40.8494 155.172 41.0818C155.031 41.3142 154.841 41.5375 154.604 41.7517C154.372 41.9613 154.094 42.1368 153.771 42.2781C153.451 42.4148 153.091 42.4832 152.69 42.4832C152.189 42.4832 151.749 42.3852 151.371 42.1892C150.997 41.9932 150.706 41.7312 150.496 41.4031C150.291 41.0704 150.188 40.699 150.188 40.2888C150.188 39.8923 150.266 39.5437 150.421 39.2429C150.576 38.9376 150.799 38.6847 151.091 38.4841C151.382 38.2791 151.733 38.1241 152.144 38.0193C152.554 37.9145 153.012 37.8621 153.518 37.8621H154.987ZM164.455 41.4441C164.756 41.4441 165.034 41.3826 165.289 41.2595C165.544 41.1365 165.754 40.9679 165.918 40.7537C166.082 40.5349 166.175 40.2865 166.198 40.0085H167.401C167.379 40.446 167.23 40.8539 166.957 41.2322C166.688 41.6059 166.335 41.9089 165.897 42.1414C165.46 42.3692 164.979 42.4832 164.455 42.4832C163.899 42.4832 163.414 42.3852 162.999 42.1892C162.589 41.9932 162.247 41.7244 161.974 41.3826C161.705 41.0408 161.502 40.6488 161.365 40.2068C161.233 39.7602 161.167 39.2885 161.167 38.7917V38.5046C161.167 38.0079 161.233 37.5385 161.365 37.0964C161.502 36.6498 161.705 36.2556 161.974 35.9138C162.247 35.572 162.589 35.3031 162.999 35.1072C163.414 34.9112 163.899 34.8132 164.455 34.8132C165.034 34.8132 165.54 34.9317 165.973 35.1687C166.406 35.4011 166.745 35.7201 166.991 36.1257C167.242 36.5268 167.379 36.9825 167.401 37.4929H166.198C166.175 37.1876 166.089 36.9119 165.938 36.6658C165.793 36.4197 165.592 36.2237 165.337 36.0779C165.086 35.9275 164.792 35.8523 164.455 35.8523C164.068 35.8523 163.742 35.9298 163.478 36.0847C163.218 36.2351 163.01 36.4402 162.855 36.7C162.705 36.9552 162.596 37.24 162.527 37.5544C162.464 37.8643 162.432 38.1811 162.432 38.5046V38.7917C162.432 39.1153 162.464 39.4343 162.527 39.7488C162.591 40.0632 162.698 40.3481 162.849 40.6033C163.004 40.8585 163.211 41.0636 163.471 41.2185C163.735 41.3689 164.063 41.4441 164.455 41.4441ZM171.838 34.95V42.3464H170.566V34.95H171.838ZM174.319 34.95V35.9753H168.133V34.95H174.319ZM176.828 36.3718V45.1902H175.557V34.95H176.719L176.828 36.3718ZM181.812 38.5867V38.7302C181.812 39.268 181.748 39.767 181.62 40.2273C181.493 40.683 181.306 41.0795 181.06 41.4167C180.818 41.754 180.52 42.016 180.164 42.2029C179.809 42.3897 179.401 42.4832 178.94 42.4832C178.471 42.4832 178.056 42.4057 177.696 42.2507C177.336 42.0958 177.031 41.8702 176.78 41.574C176.53 41.2778 176.329 40.9223 176.179 40.5076C176.033 40.0929 175.933 39.6257 175.878 39.1062V38.3406C175.933 37.7937 176.035 37.3038 176.186 36.8708C176.336 36.4379 176.534 36.0688 176.78 35.7634C177.031 35.4535 177.334 35.2188 177.689 35.0593C178.045 34.8953 178.455 34.8132 178.92 34.8132C179.385 34.8132 179.797 34.9044 180.157 35.0867C180.517 35.2644 180.82 35.5196 181.066 35.8523C181.312 36.185 181.497 36.5837 181.62 37.0486C181.748 37.5089 181.812 38.0216 181.812 38.5867ZM180.54 38.7302V38.5867C180.54 38.2175 180.501 37.8712 180.424 37.5476C180.346 37.2195 180.226 36.9324 180.062 36.6863C179.902 36.4356 179.697 36.2397 179.446 36.0984C179.196 35.9526 178.897 35.8796 178.551 35.8796C178.232 35.8796 177.954 35.9343 177.717 36.0437C177.484 36.1531 177.286 36.3012 177.122 36.488C176.958 36.6703 176.824 36.88 176.719 37.1169C176.618 37.3494 176.543 37.5909 176.493 37.8416V39.6121C176.584 39.9311 176.712 40.2319 176.876 40.5144C177.04 40.7924 177.259 41.018 177.532 41.1912C177.806 41.3598 178.15 41.4441 178.564 41.4441C178.906 41.4441 179.2 41.3735 179.446 41.2322C179.697 41.0863 179.902 40.8881 180.062 40.6375C180.226 40.3868 180.346 40.0997 180.424 39.7761C180.501 39.448 180.54 39.0994 180.54 38.7302ZM187.786 41.0818V37.2742C187.786 36.9825 187.727 36.7296 187.608 36.5154C187.494 36.2966 187.321 36.128 187.089 36.0095C186.856 35.891 186.569 35.8318 186.228 35.8318C185.909 35.8318 185.628 35.8865 185.387 35.9958C185.15 36.1052 184.963 36.2488 184.826 36.4265C184.694 36.6042 184.628 36.7957 184.628 37.0007H183.363C183.363 36.7364 183.432 36.4744 183.568 36.2146C183.705 35.9548 183.901 35.7201 184.156 35.5105C184.416 35.2963 184.726 35.1277 185.086 35.0046C185.451 34.877 185.856 34.8132 186.303 34.8132C186.84 34.8132 187.314 34.9044 187.725 35.0867C188.139 35.269 188.463 35.5447 188.695 35.9138C188.932 36.2784 189.051 36.7364 189.051 37.2878V40.7332C189.051 40.9792 189.071 41.2413 189.112 41.5193C189.158 41.7973 189.224 42.0365 189.311 42.2371V42.3464H187.991C187.927 42.2006 187.877 42.0069 187.841 41.7654C187.804 41.5193 187.786 41.2914 187.786 41.0818ZM188.005 37.8621L188.019 38.7507H186.74C186.38 38.7507 186.059 38.7804 185.776 38.8396C185.494 38.8943 185.257 38.9786 185.065 39.0925C184.874 39.2065 184.728 39.35 184.628 39.5232C184.528 39.6918 184.478 39.8901 184.478 40.1179C184.478 40.3503 184.53 40.5623 184.635 40.7537C184.74 40.9451 184.897 41.0977 185.106 41.2117C185.321 41.321 185.583 41.3757 185.893 41.3757C186.28 41.3757 186.622 41.2937 186.918 41.1296C187.214 40.9656 187.449 40.7651 187.622 40.5281C187.8 40.2911 187.896 40.061 187.909 39.8376L188.449 40.446C188.417 40.6375 188.331 40.8494 188.189 41.0818C188.048 41.3142 187.859 41.5375 187.622 41.7517C187.39 41.9613 187.112 42.1368 186.788 42.2781C186.469 42.4148 186.109 42.4832 185.708 42.4832C185.207 42.4832 184.767 42.3852 184.389 42.1892C184.015 41.9932 183.723 41.7312 183.514 41.4031C183.309 41.0704 183.206 40.699 183.206 40.2888C183.206 39.8923 183.284 39.5437 183.438 39.2429C183.593 38.9376 183.817 38.6847 184.108 38.4841C184.4 38.2791 184.751 38.1241 185.161 38.0193C185.571 37.9145 186.029 37.8621 186.535 37.8621H188.005ZM193.945 34.95V42.3464H192.674V34.95H193.945ZM196.427 34.95V35.9753H190.24V34.95H196.427ZM200.193 42.4832C199.678 42.4832 199.211 42.3966 198.792 42.2234C198.377 42.0457 198.02 41.7973 197.719 41.4783C197.423 41.1593 197.195 40.781 197.035 40.3435C196.876 39.906 196.796 39.4275 196.796 38.908V38.6208C196.796 38.0193 196.885 37.4838 197.062 37.0144C197.24 36.5404 197.482 36.1394 197.787 35.8113C198.092 35.4832 198.439 35.2348 198.826 35.0662C199.214 34.8975 199.615 34.8132 200.029 34.8132C200.558 34.8132 201.014 34.9044 201.396 35.0867C201.784 35.269 202.101 35.5242 202.347 35.8523C202.593 36.1759 202.775 36.5587 202.894 37.0007C203.012 37.4382 203.071 37.9167 203.071 38.4363V39.0037H197.548V37.9714H201.807V37.8757C201.788 37.5476 201.72 37.2286 201.602 36.9187C201.488 36.6088 201.305 36.3536 201.055 36.1531C200.804 35.9526 200.462 35.8523 200.029 35.8523C199.742 35.8523 199.478 35.9138 199.236 36.0369C198.995 36.1554 198.787 36.3331 198.614 36.5701C198.441 36.807 198.307 37.0964 198.211 37.4382C198.115 37.78 198.067 38.1742 198.067 38.6208V38.908C198.067 39.2589 198.115 39.5893 198.211 39.8992C198.311 40.2045 198.455 40.4734 198.642 40.7058C198.833 40.9382 199.063 41.1205 199.332 41.2527C199.605 41.3848 199.915 41.4509 200.262 41.4509C200.708 41.4509 201.087 41.3598 201.396 41.1775C201.706 40.9952 201.978 40.7514 202.21 40.446L202.976 41.0544C202.816 41.296 202.613 41.5261 202.367 41.7449C202.121 41.9636 201.818 42.1414 201.458 42.2781C201.103 42.4148 200.681 42.4832 200.193 42.4832ZM209.326 34.95V35.9958H205.908V42.3464H204.644V34.95H209.326ZM211.794 40.3435L215.205 34.95H216.477V42.3464H215.205V36.9529L211.794 42.3464H210.536V34.95H211.794V40.3435ZM224.085 34.95V42.3464H222.82V34.95H224.085ZM223.654 38.3474V39.3865C223.399 39.4822 223.139 39.5688 222.875 39.6462C222.615 39.7192 222.34 39.7784 222.048 39.824C221.761 39.865 221.449 39.8855 221.111 39.8855C220.528 39.8855 220.022 39.7852 219.594 39.5847C219.165 39.3796 218.835 39.072 218.603 38.6619C218.37 38.2472 218.254 37.7253 218.254 37.0964V34.9363H219.519V37.0964C219.519 37.5066 219.58 37.8393 219.703 38.0945C219.826 38.3497 220.006 38.5388 220.243 38.6619C220.48 38.7804 220.77 38.8396 221.111 38.8396C221.439 38.8396 221.747 38.8191 222.034 38.7781C222.326 38.7325 222.604 38.6733 222.868 38.6003C223.137 38.5274 223.399 38.4431 223.654 38.3474ZM229.191 42.4832C228.676 42.4832 228.209 42.3966 227.79 42.2234C227.375 42.0457 227.018 41.7973 226.717 41.4783C226.421 41.1593 226.193 40.781 226.033 40.3435C225.874 39.906 225.794 39.4275 225.794 38.908V38.6208C225.794 38.0193 225.883 37.4838 226.061 37.0144C226.238 36.5404 226.48 36.1394 226.785 35.8113C227.09 35.4832 227.437 35.2348 227.824 35.0662C228.212 34.8975 228.613 34.8132 229.027 34.8132C229.556 34.8132 230.012 34.9044 230.395 35.0867C230.782 35.269 231.099 35.5242 231.345 35.8523C231.591 36.1759 231.773 36.5587 231.892 37.0007C232.01 37.4382 232.069 37.9167 232.069 38.4363V39.0037H226.546V37.9714H230.805V37.8757C230.786 37.5476 230.718 37.2286 230.6 36.9187C230.486 36.6088 230.303 36.3536 230.053 36.1531C229.802 35.9526 229.46 35.8523 229.027 35.8523C228.74 35.8523 228.476 35.9138 228.234 36.0369C227.993 36.1554 227.785 36.3331 227.612 36.5701C227.439 36.807 227.305 37.0964 227.209 37.4382C227.113 37.78 227.065 38.1742 227.065 38.6208V38.908C227.065 39.2589 227.113 39.5893 227.209 39.8992C227.309 40.2045 227.453 40.4734 227.64 40.7058C227.831 40.9382 228.061 41.1205 228.33 41.2527C228.604 41.3848 228.913 41.4509 229.26 41.4509C229.706 41.4509 230.085 41.3598 230.395 41.1775C230.704 40.9952 230.976 40.7514 231.208 40.446L231.974 41.0544C231.814 41.296 231.611 41.5261 231.365 41.7449C231.119 41.9636 230.816 42.1414 230.456 42.2781C230.101 42.4148 229.679 42.4832 229.191 42.4832ZM236.506 41.4441C236.807 41.4441 237.085 41.3826 237.34 41.2595C237.595 41.1365 237.805 40.9679 237.969 40.7537C238.133 40.5349 238.226 40.2865 238.249 40.0085H239.452C239.429 40.446 239.281 40.8539 239.008 41.2322C238.739 41.6059 238.386 41.9089 237.948 42.1414C237.511 42.3692 237.03 42.4832 236.506 42.4832C235.95 42.4832 235.465 42.3852 235.05 42.1892C234.64 41.9932 234.298 41.7244 234.024 41.3826C233.756 41.0408 233.553 40.6488 233.416 40.2068C233.284 39.7602 233.218 39.2885 233.218 38.7917V38.5046C233.218 38.0079 233.284 37.5385 233.416 37.0964C233.553 36.6498 233.756 36.2556 234.024 35.9138C234.298 35.572 234.64 35.3031 235.05 35.1072C235.465 34.9112 235.95 34.8132 236.506 34.8132C237.085 34.8132 237.59 34.9317 238.023 35.1687C238.456 35.4011 238.796 35.7201 239.042 36.1257C239.293 36.5268 239.429 36.9825 239.452 37.4929H238.249C238.226 37.1876 238.14 36.9119 237.989 36.6658C237.843 36.4197 237.643 36.2237 237.388 36.0779C237.137 35.9275 236.843 35.8523 236.506 35.8523C236.118 35.8523 235.793 35.9298 235.528 36.0847C235.269 36.2351 235.061 36.4402 234.906 36.7C234.756 36.9552 234.646 37.24 234.578 37.5544C234.514 37.8643 234.482 38.1811 234.482 38.5046V38.7917C234.482 39.1153 234.514 39.4343 234.578 39.7488C234.642 40.0632 234.749 40.3481 234.899 40.6033C235.054 40.8585 235.262 41.0636 235.521 41.2185C235.786 41.3689 236.114 41.4441 236.506 41.4441ZM242.248 34.95V42.3464H240.983V34.95H242.248ZM247.102 34.95L243.595 39.1882H241.824L241.633 38.0808H243.082L245.563 34.95H247.102ZM245.741 42.3464L243.021 38.9968L243.834 38.0808L247.348 42.3464H245.741ZM247.963 38.7302V38.573C247.963 38.0398 248.04 37.5453 248.195 37.0896C248.35 36.6293 248.574 36.2306 248.865 35.8933C249.157 35.5515 249.51 35.2872 249.925 35.1003C250.34 34.9089 250.804 34.8132 251.319 34.8132C251.839 34.8132 252.306 34.9089 252.721 35.1003C253.14 35.2872 253.495 35.5515 253.787 35.8933C254.083 36.2306 254.309 36.6293 254.464 37.0896C254.619 37.5453 254.696 38.0398 254.696 38.573V38.7302C254.696 39.2634 254.619 39.7579 254.464 40.2136C254.309 40.6694 254.083 41.0681 253.787 41.4099C253.495 41.7472 253.142 42.0115 252.728 42.2029C252.317 42.3897 251.853 42.4832 251.333 42.4832C250.813 42.4832 250.346 42.3897 249.932 42.2029C249.517 42.0115 249.161 41.7472 248.865 41.4099C248.574 41.0681 248.35 40.6694 248.195 40.2136C248.04 39.7579 247.963 39.2634 247.963 38.7302ZM249.228 38.573V38.7302C249.228 39.0994 249.271 39.448 249.357 39.7761C249.444 40.0997 249.574 40.3868 249.747 40.6375C249.925 40.8881 250.146 41.0863 250.41 41.2322C250.674 41.3735 250.982 41.4441 251.333 41.4441C251.679 41.4441 251.982 41.3735 252.242 41.2322C252.507 41.0863 252.725 40.8881 252.898 40.6375C253.072 40.3868 253.201 40.0997 253.288 39.7761C253.379 39.448 253.425 39.0994 253.425 38.7302V38.573C253.425 38.2084 253.379 37.8643 253.288 37.5408C253.201 37.2126 253.069 36.9233 252.892 36.6726C252.718 36.4174 252.5 36.2169 252.235 36.071C251.976 35.9252 251.67 35.8523 251.319 35.8523C250.973 35.8523 250.668 35.9252 250.403 36.071C250.144 36.2169 249.925 36.4174 249.747 36.6726C249.574 36.9233 249.444 37.2126 249.357 37.5408C249.271 37.8643 249.228 38.2084 249.228 38.573ZM261.061 34.95V35.9958H257.643V42.3464H256.378V34.95H261.061ZM261.689 38.7302V38.573C261.689 38.0398 261.767 37.5453 261.922 37.0896C262.077 36.6293 262.3 36.2306 262.592 35.8933C262.883 35.5515 263.237 35.2872 263.651 35.1003C264.066 34.9089 264.531 34.8132 265.046 34.8132C265.565 34.8132 266.033 34.9089 266.447 35.1003C266.867 35.2872 267.222 35.5515 267.514 35.8933C267.81 36.2306 268.035 36.6293 268.19 37.0896C268.345 37.5453 268.423 38.0398 268.423 38.573V38.7302C268.423 39.2634 268.345 39.7579 268.19 40.2136C268.035 40.6694 267.81 41.0681 267.514 41.4099C267.222 41.7472 266.869 42.0115 266.454 42.2029C266.044 42.3897 265.579 42.4832 265.06 42.4832C264.54 42.4832 264.073 42.3897 263.658 42.2029C263.243 42.0115 262.888 41.7472 262.592 41.4099C262.3 41.0681 262.077 40.6694 261.922 40.2136C261.767 39.7579 261.689 39.2634 261.689 38.7302ZM262.954 38.573V38.7302C262.954 39.0994 262.997 39.448 263.084 39.7761C263.171 40.0997 263.3 40.3868 263.474 40.6375C263.651 40.8881 263.872 41.0863 264.137 41.2322C264.401 41.3735 264.709 41.4441 265.06 41.4441C265.406 41.4441 265.709 41.3735 265.969 41.2322C266.233 41.0863 266.452 40.8881 266.625 40.6375C266.798 40.3868 266.928 40.0997 267.015 39.7761C267.106 39.448 267.151 39.0994 267.151 38.7302V38.573C267.151 38.2084 267.106 37.8643 267.015 37.5408C266.928 37.2126 266.796 36.9233 266.618 36.6726C266.445 36.4174 266.226 36.2169 265.962 36.071C265.702 35.9252 265.397 35.8523 265.046 35.8523C264.7 35.8523 264.394 35.9252 264.13 36.071C263.87 36.2169 263.651 36.4174 263.474 36.6726C263.3 36.9233 263.171 37.2126 263.084 37.5408C262.997 37.8643 262.954 38.2084 262.954 38.573ZM112.331 60.3435L115.742 54.95H117.014V62.3464H115.742V56.9529L112.331 62.3464H111.073V54.95H112.331V60.3435ZM124.062 58.156V59.1814H120.151V58.156H124.062ZM120.418 54.95V62.3464H119.153V54.95H120.418ZM125.087 54.95V62.3464H123.815V54.95H125.087ZM130.597 59.0925H128.17L128.156 58.0808H130.139C130.531 58.0808 130.856 58.0421 131.116 57.9646C131.381 57.8871 131.579 57.7709 131.711 57.616C131.843 57.461 131.909 57.2696 131.909 57.0417C131.909 56.864 131.87 56.7091 131.793 56.5769C131.72 56.4402 131.608 56.3285 131.458 56.2419C131.308 56.1508 131.121 56.0847 130.897 56.0437C130.679 55.9981 130.421 55.9753 130.125 55.9753H128.505V62.3464H127.24V54.95H130.125C130.594 54.95 131.016 54.991 131.39 55.073C131.768 55.155 132.089 55.2804 132.354 55.449C132.622 55.613 132.827 55.8227 132.969 56.0779C133.11 56.3331 133.181 56.6339 133.181 56.9802C133.181 57.2035 133.135 57.4154 133.044 57.616C132.953 57.8165 132.818 57.9942 132.641 58.1492C132.463 58.3041 132.244 58.4317 131.984 58.532C131.725 58.6277 131.426 58.6892 131.089 58.7166L130.597 59.0925ZM130.597 62.3464H127.712L128.341 61.321H130.597C130.948 61.321 131.239 61.2778 131.472 61.1912C131.704 61.1 131.877 60.9724 131.991 60.8083C132.11 60.6397 132.169 60.4392 132.169 60.2068C132.169 59.9744 132.11 59.7761 131.991 59.6121C131.877 59.4434 131.704 59.3158 131.472 59.2292C131.239 59.1381 130.948 59.0925 130.597 59.0925H128.676L128.689 58.0808H131.089L131.547 58.4636C131.952 58.4955 132.297 58.5958 132.579 58.7644C132.862 58.933 133.076 59.1472 133.222 59.407C133.368 59.6622 133.44 59.9402 133.44 60.241C133.44 60.5873 133.374 60.8927 133.242 61.157C133.115 61.4213 132.928 61.6423 132.682 61.8201C132.436 61.9932 132.137 62.1254 131.786 62.2166C131.435 62.3031 131.039 62.3464 130.597 62.3464ZM138.205 62.4832C137.69 62.4832 137.223 62.3966 136.804 62.2234C136.389 62.0457 136.031 61.7973 135.73 61.4783C135.434 61.1593 135.206 60.781 135.047 60.3435C134.887 59.906 134.808 59.4275 134.808 58.908V58.6208C134.808 58.0193 134.896 57.4838 135.074 57.0144C135.252 56.5404 135.493 56.1394 135.799 55.8113C136.104 55.4832 136.451 55.2348 136.838 55.0662C137.225 54.8975 137.626 54.8132 138.041 54.8132C138.57 54.8132 139.025 54.9044 139.408 55.0867C139.796 55.269 140.112 55.5242 140.358 55.8523C140.604 56.1759 140.787 56.5587 140.905 57.0007C141.024 57.4382 141.083 57.9167 141.083 58.4363V59.0037H135.56V57.9714H139.818V57.8757C139.8 57.5476 139.732 57.2286 139.613 56.9187C139.499 56.6088 139.317 56.3536 139.066 56.1531C138.816 55.9526 138.474 55.8523 138.041 55.8523C137.754 55.8523 137.49 55.9138 137.248 56.0369C137.007 56.1554 136.799 56.3331 136.626 56.5701C136.453 56.807 136.318 57.0964 136.223 57.4382C136.127 57.78 136.079 58.1742 136.079 58.6208V58.908C136.079 59.2589 136.127 59.5893 136.223 59.8992C136.323 60.2045 136.466 60.4734 136.653 60.7058C136.845 60.9382 137.075 61.1205 137.344 61.2527C137.617 61.3848 137.927 61.4509 138.273 61.4509C138.72 61.4509 139.098 61.3598 139.408 61.1775C139.718 60.9952 139.989 60.7514 140.222 60.446L140.987 61.0544C140.828 61.296 140.625 61.5261 140.379 61.7449C140.133 61.9636 139.83 62.1414 139.47 62.2781C139.114 62.4148 138.693 62.4832 138.205 62.4832ZM145.52 61.4441C145.82 61.4441 146.098 61.3826 146.354 61.2595C146.609 61.1365 146.818 60.9679 146.982 60.7537C147.146 60.5349 147.24 60.2865 147.263 60.0085H148.466C148.443 60.446 148.295 60.8539 148.021 61.2322C147.753 61.6059 147.399 61.9089 146.962 62.1414C146.524 62.3692 146.044 62.4832 145.52 62.4832C144.964 62.4832 144.478 62.3852 144.063 62.1892C143.653 61.9932 143.312 61.7244 143.038 61.3826C142.769 61.0408 142.566 60.6488 142.43 60.2068C142.298 59.7602 142.231 59.2885 142.231 58.7917V58.5046C142.231 58.0079 142.298 57.5385 142.43 57.0964C142.566 56.6498 142.769 56.2556 143.038 55.9138C143.312 55.572 143.653 55.3031 144.063 55.1072C144.478 54.9112 144.964 54.8132 145.52 54.8132C146.098 54.8132 146.604 54.9317 147.037 55.1687C147.47 55.4011 147.81 55.7201 148.056 56.1257C148.306 56.5268 148.443 56.9825 148.466 57.4929H147.263C147.24 57.1876 147.153 56.9119 147.003 56.6658C146.857 56.4197 146.657 56.2237 146.401 56.0779C146.151 55.9275 145.857 55.8523 145.52 55.8523C145.132 55.8523 144.806 55.9298 144.542 56.0847C144.282 56.2351 144.075 56.4402 143.92 56.7C143.77 56.9552 143.66 57.24 143.592 57.5544C143.528 57.8643 143.496 58.1811 143.496 58.5046V58.7917C143.496 59.1153 143.528 59.4343 143.592 59.7488C143.656 60.0632 143.763 60.3481 143.913 60.6033C144.068 60.8585 144.275 61.0636 144.535 61.2185C144.799 61.3689 145.128 61.4441 145.52 61.4441ZM152.902 54.95V62.3464H151.631V54.95H152.902ZM155.384 54.95V55.9753H149.197V54.95H155.384ZM156.006 58.7302V58.573C156.006 58.0398 156.083 57.5453 156.238 57.0896C156.393 56.6293 156.617 56.2306 156.908 55.8933C157.2 55.5515 157.553 55.2872 157.968 55.1003C158.382 54.9089 158.847 54.8132 159.362 54.8132C159.882 54.8132 160.349 54.9089 160.764 55.1003C161.183 55.2872 161.538 55.5515 161.83 55.8933C162.126 56.2306 162.352 56.6293 162.507 57.0896C162.662 57.5453 162.739 58.0398 162.739 58.573V58.7302C162.739 59.2634 162.662 59.7579 162.507 60.2136C162.352 60.6694 162.126 61.0681 161.83 61.4099C161.538 61.7472 161.185 62.0115 160.771 62.2029C160.36 62.3897 159.896 62.4832 159.376 62.4832C158.856 62.4832 158.389 62.3897 157.975 62.2029C157.56 62.0115 157.204 61.7472 156.908 61.4099C156.617 61.0681 156.393 60.6694 156.238 60.2136C156.083 59.7579 156.006 59.2634 156.006 58.7302ZM157.271 58.573V58.7302C157.271 59.0994 157.314 59.448 157.4 59.7761C157.487 60.0997 157.617 60.3868 157.79 60.6375C157.968 60.8881 158.189 61.0863 158.453 61.2322C158.717 61.3735 159.025 61.4441 159.376 61.4441C159.722 61.4441 160.025 61.3735 160.285 61.2322C160.549 61.0863 160.768 60.8881 160.941 60.6375C161.115 60.3868 161.244 60.0997 161.331 59.7761C161.422 59.448 161.468 59.0994 161.468 58.7302V58.573C161.468 58.2084 161.422 57.8643 161.331 57.5408C161.244 57.2126 161.112 56.9233 160.935 56.6726C160.761 56.4174 160.543 56.2169 160.278 56.071C160.019 55.9252 159.713 55.8523 159.362 55.8523C159.016 55.8523 158.711 55.9252 158.446 56.071C158.187 56.2169 157.968 56.4174 157.79 56.6726C157.617 56.9233 157.487 57.2126 157.4 57.5408C157.314 57.8643 157.271 58.2084 157.271 58.573ZM165.59 56.3718V65.1902H164.318V54.95H165.48L165.59 56.3718ZM170.573 58.5867V58.7302C170.573 59.268 170.509 59.767 170.382 60.2273C170.254 60.683 170.067 61.0795 169.821 61.4167C169.58 61.754 169.281 62.016 168.926 62.2029C168.57 62.3897 168.162 62.4832 167.702 62.4832C167.233 62.4832 166.818 62.4057 166.458 62.2507C166.098 62.0958 165.793 61.8702 165.542 61.574C165.291 61.2778 165.091 60.9223 164.94 60.5076C164.795 60.0929 164.694 59.6257 164.64 59.1062V58.3406C164.694 57.7937 164.797 57.3038 164.947 56.8708C165.098 56.4379 165.296 56.0688 165.542 55.7634C165.793 55.4535 166.096 55.2188 166.451 55.0593C166.807 54.8953 167.217 54.8132 167.682 54.8132C168.146 54.8132 168.559 54.9044 168.919 55.0867C169.279 55.2644 169.582 55.5196 169.828 55.8523C170.074 56.185 170.259 56.5837 170.382 57.0486C170.509 57.5089 170.573 58.0216 170.573 58.5867ZM169.302 58.7302V58.5867C169.302 58.2175 169.263 57.8712 169.186 57.5476C169.108 57.2195 168.987 56.9324 168.823 56.6863C168.664 56.4356 168.459 56.2397 168.208 56.0984C167.957 55.9526 167.659 55.8796 167.312 55.8796C166.993 55.8796 166.715 55.9343 166.479 56.0437C166.246 56.1531 166.048 56.3012 165.884 56.488C165.72 56.6703 165.585 56.88 165.48 57.1169C165.38 57.3494 165.305 57.5909 165.255 57.8416V59.6121C165.346 59.9311 165.474 60.2319 165.638 60.5144C165.802 60.7924 166.021 61.018 166.294 61.1912C166.567 61.3598 166.911 61.4441 167.326 61.4441C167.668 61.4441 167.962 61.3735 168.208 61.2322C168.459 61.0863 168.664 60.8881 168.823 60.6375C168.987 60.3868 169.108 60.0997 169.186 59.7761C169.263 59.448 169.302 59.0994 169.302 58.7302ZM176.548 61.0818V57.2742C176.548 56.9825 176.489 56.7296 176.37 56.5154C176.256 56.2966 176.083 56.128 175.851 56.0095C175.618 55.891 175.331 55.8318 174.989 55.8318C174.67 55.8318 174.39 55.8865 174.148 55.9958C173.911 56.1052 173.725 56.2488 173.588 56.4265C173.456 56.6042 173.39 56.7957 173.39 57.0007H172.125C172.125 56.7364 172.193 56.4744 172.33 56.2146C172.467 55.9548 172.663 55.7201 172.918 55.5105C173.178 55.2963 173.488 55.1277 173.848 55.0046C174.212 54.877 174.618 54.8132 175.064 54.8132C175.602 54.8132 176.076 54.9044 176.486 55.0867C176.901 55.269 177.225 55.5447 177.457 55.9138C177.694 56.2784 177.812 56.7364 177.812 57.2878V60.7332C177.812 60.9792 177.833 61.2413 177.874 61.5193C177.92 61.7973 177.986 62.0365 178.072 62.2371V62.3464H176.753C176.689 62.2006 176.639 62.0069 176.603 61.7654C176.566 61.5193 176.548 61.2914 176.548 61.0818ZM176.767 57.8621L176.78 58.7507H175.502C175.142 58.7507 174.821 58.7804 174.538 58.8396C174.256 58.8943 174.019 58.9786 173.827 59.0925C173.636 59.2065 173.49 59.35 173.39 59.5232C173.289 59.6918 173.239 59.8901 173.239 60.1179C173.239 60.3503 173.292 60.5623 173.396 60.7537C173.501 60.9451 173.659 61.0977 173.868 61.2117C174.082 61.321 174.344 61.3757 174.654 61.3757C175.042 61.3757 175.383 61.2937 175.68 61.1296C175.976 60.9656 176.211 60.7651 176.384 60.5281C176.562 60.2911 176.657 60.061 176.671 59.8376L177.211 60.446C177.179 60.6375 177.092 60.8494 176.951 61.0818C176.81 61.3142 176.621 61.5375 176.384 61.7517C176.151 61.9613 175.873 62.1368 175.55 62.2781C175.231 62.4148 174.871 62.4832 174.47 62.4832C173.968 62.4832 173.529 62.3852 173.15 62.1892C172.777 61.9932 172.485 61.7312 172.275 61.4031C172.07 61.0704 171.968 60.699 171.968 60.2888C171.968 59.8923 172.045 59.5437 172.2 59.2429C172.355 58.9376 172.578 58.6847 172.87 58.4841C173.162 58.2791 173.513 58.1241 173.923 58.0193C174.333 57.9145 174.791 57.8621 175.297 57.8621H176.767Z" fill="black"/>
<path d="M85 42.3464L59 42.3464" stroke="#00A3FF" stroke-miterlimit="10" stroke-linecap="round"/>
<path d="M80 40.4763C79.9954 41.9607 80.4313 43.413 81.2526 44.6495C82.0739 45.8859 83.2436 46.8508 84.6136 47.4221C85.9837 47.9934 87.4924 48.1452 88.9488 47.8585C90.4052 47.5718 91.7437 46.8593 92.795 45.8114C93.8462 44.7634 94.5629 43.4271 94.8542 41.9716C95.1455 40.5161 94.9983 39.0069 94.4313 37.6351C93.8644 36.2633 92.9031 35.0905 91.6692 34.2654C90.4354 33.4402 88.9844 32.9998 87.5 32.9998C85.515 32.9997 83.6108 33.7867 82.205 35.1882C80.7991 36.5896 80.0062 38.4913 80 40.4763Z" fill="#00A3FF"/>
<path d="M87.4766 43.406C85.8586 43.406 84.5469 42.0943 84.5469 40.4763C84.5469 38.8583 85.8586 37.5466 87.4766 37.5466C89.0946 37.5466 90.4062 38.8583 90.4062 40.4763C90.4062 42.0943 89.0946 43.406 87.4766 43.406Z" fill="white"/>
<defs>
<filter id="filter0_d_830_2163" x="262.322" y="0.668945" width="83.3555" height="83.3555" filterUnits="userSpaceOnUse" color-interpolation-filters="sRGB">
<feFlood flood-opacity="0" result="BackgroundImageFix"/>
<feColorMatrix in="SourceAlpha" type="matrix" values="0 0 0 0 0 0 0 0 0 0 0 0 0 0 0 0 0 0 127 0" result="hardAlpha"/>
<feOffset/>
<feGaussianBlur stdDeviation="12"/>
<feComposite in2="hardAlpha" operator="out"/>
<feColorMatrix type="matrix" values="0 0 0 0 0.579167 0 0 0 0 0.579167 0 0 0 0 0.579167 0 0 0 0.3 0"/>
<feBlend mode="normal" in2="BackgroundImageFix" result="effect1_dropShadow_830_2163"/>
<feBlend mode="normal" in="SourceGraphic" in2="effect1_dropShadow_830_2163" result="shape"/>
</filter>
</defs>
</svg>
