<svg width="671" height="125" viewBox="0 0 671 125" fill="none" xmlns="http://www.w3.org/2000/svg">
<path d="M495 65L613 65" stroke="#00A3FF" stroke-miterlimit="10" stroke-linecap="round"/>
<g filter="url(#filter0_d_802_747)">
<path d="M637.721 85.7315C649.083 74.3745 649.083 55.961 637.721 44.6039C626.358 33.2468 607.936 33.2468 596.574 44.6039C585.211 55.961 585.211 74.3745 596.574 85.7315C607.936 97.0886 626.358 97.0886 637.721 85.7315Z" fill="white"/>
</g>
<path d="M626.241 65.1647C626.246 66.8873 625.741 68.573 624.789 70.009C623.837 71.445 622.481 72.5671 620.892 73.2338C619.302 73.9004 617.551 74.0817 615.859 73.7549C614.167 73.428 612.61 72.6076 611.383 71.3971C610.157 70.1866 609.317 68.6402 608.969 66.9531C608.621 65.2659 608.78 63.5135 609.427 61.9169C610.075 60.3202 611.18 58.9509 612.605 57.9816C614.03 57.0122 615.71 56.4863 617.433 56.4702C618.585 56.4557 619.727 56.67 620.795 57.1004C621.863 57.5309 622.835 58.1691 623.655 58.9779C624.474 59.7867 625.124 60.75 625.568 61.8121C626.012 62.8741 626.241 64.0137 626.241 65.1647Z" fill="#00A3FF"/>
<path d="M617.542 68.5714C619.425 68.5714 620.951 67.0461 620.951 65.1645C620.951 63.2829 619.425 61.7576 617.542 61.7576C615.66 61.7576 614.134 63.2829 614.134 65.1645C614.134 67.0461 615.66 68.5714 617.542 68.5714Z" fill="white"/>
<path d="M497.452 65.1645C497.457 66.8906 496.95 68.5796 495.994 70.0174C495.039 71.4553 493.678 72.5774 492.084 73.2417C490.49 73.906 488.735 74.0827 487.04 73.7492C485.346 73.4158 483.789 72.5873 482.565 71.3686C481.342 70.1499 480.509 68.5959 480.17 66.9033C479.831 65.2107 480.002 63.4557 480.662 61.8604C481.321 60.2651 482.44 58.9013 483.875 57.9418C485.311 56.9822 486.999 56.47 488.726 56.47C491.035 56.47 493.251 57.3851 494.886 59.0149C496.522 60.6446 497.445 62.856 497.452 65.1645Z" fill="#00A3FF"/>
<path d="M488.753 68.5714C490.636 68.5714 492.162 67.0461 492.162 65.1645C492.162 63.2829 490.636 61.7576 488.753 61.7576C486.871 61.7576 485.345 63.2829 485.345 65.1645C485.345 67.0461 486.871 68.5714 488.753 68.5714Z" fill="white"/>
<path d="M93.3041 93.2599C110.481 76.0913 110.481 48.2554 93.304 31.0867C76.1272 13.9181 48.2782 13.918 31.1014 31.0867C13.9246 48.2553 13.9245 76.0913 31.1014 93.26C48.2782 110.429 76.1273 110.429 93.3041 93.2599Z" fill="#00A3FF"/>
<path d="M53.4023 48.1655H58.4023V76.1733H52.4062V55.7827H47.6016V51.9741C48.4609 51.87 49.2487 51.6681 49.9648 51.3687C50.681 51.0562 51.2344 50.7241 51.625 50.3726C52.0286 50.021 52.3672 49.6825 52.6406 49.3569C52.9271 49.0184 53.1289 48.7319 53.2461 48.4976L53.4023 48.1655ZM69.418 48.1655H74.418V76.1733H68.4219V55.7827H63.6172V51.9741C64.4766 51.87 65.2643 51.6681 65.9805 51.3687C66.6966 51.0562 67.25 50.7241 67.6406 50.3726C68.0443 50.021 68.3828 49.6825 68.6562 49.3569C68.9427 49.0184 69.1445 48.7319 69.2617 48.4976L69.418 48.1655Z" fill="white"/>
<path d="M148.633 38.9141V51H147.04V40.2256H141.08V51H139.478V38.9141H148.633ZM152.966 48.5679L157.108 42.0186H158.652V51H157.108V44.4507L152.966 51H151.439V42.0186H152.966V48.5679ZM164.778 42.0186V51H163.234V42.0186H164.778ZM167.792 42.0186V43.2637H160.279V42.0186H167.792ZM176.076 42.0186V51H174.54V42.0186H176.076ZM175.553 46.144V47.4058C175.243 47.522 174.927 47.6271 174.606 47.7212C174.291 47.8097 173.956 47.8817 173.602 47.937C173.253 47.9868 172.874 48.0117 172.465 48.0117C171.757 48.0117 171.142 47.89 170.622 47.6465C170.102 47.3975 169.701 47.0239 169.418 46.5259C169.136 46.0223 168.995 45.3887 168.995 44.625V42.002H170.531V44.625C170.531 45.123 170.605 45.527 170.755 45.8369C170.904 46.1468 171.123 46.3765 171.411 46.5259C171.698 46.6698 172.05 46.7417 172.465 46.7417C172.863 46.7417 173.237 46.7168 173.585 46.667C173.94 46.6117 174.277 46.5397 174.598 46.4512C174.925 46.3626 175.243 46.2603 175.553 46.144ZM188.751 42.0186V43.2886H184.21V42.0186H188.751ZM184.435 42.0186V51H182.899V42.0186H184.435ZM190.112 42.0186V51H188.568V42.0186H190.112ZM194.113 43.7451V54.4531H192.569V42.0186H193.98L194.113 43.7451ZM200.165 46.4346V46.6089C200.165 47.2619 200.087 47.8678 199.932 48.4268C199.777 48.9801 199.55 49.4616 199.251 49.8711C198.958 50.2806 198.596 50.5988 198.164 50.8257C197.732 51.0526 197.237 51.166 196.678 51.166C196.108 51.166 195.605 51.0719 195.167 50.8838C194.73 50.6956 194.36 50.4217 194.055 50.062C193.751 49.7023 193.507 49.2707 193.325 48.7671C193.148 48.2635 193.026 47.6963 192.959 47.0654V46.1357C193.026 45.4717 193.15 44.8768 193.333 44.3511C193.516 43.8254 193.756 43.3771 194.055 43.0063C194.36 42.63 194.728 42.3451 195.159 42.1514C195.591 41.9521 196.089 41.8525 196.653 41.8525C197.218 41.8525 197.719 41.9632 198.156 42.1846C198.593 42.4004 198.961 42.7103 199.26 43.1143C199.559 43.5182 199.783 44.0024 199.932 44.5669C200.087 45.1258 200.165 45.7484 200.165 46.4346ZM198.621 46.6089V46.4346C198.621 45.9863 198.574 45.5658 198.479 45.1729C198.385 44.7744 198.239 44.4258 198.04 44.127C197.846 43.8226 197.597 43.5846 197.292 43.4131C196.988 43.236 196.626 43.1475 196.205 43.1475C195.818 43.1475 195.48 43.2139 195.192 43.3467C194.91 43.4795 194.669 43.6593 194.47 43.8862C194.271 44.1076 194.108 44.3621 193.98 44.6499C193.859 44.9321 193.767 45.2254 193.707 45.5298V47.6797C193.817 48.0671 193.972 48.4323 194.171 48.7754C194.371 49.113 194.636 49.3869 194.968 49.5972C195.3 49.8019 195.718 49.9043 196.222 49.9043C196.637 49.9043 196.994 49.8185 197.292 49.647C197.597 49.4699 197.846 49.2292 198.04 48.9248C198.239 48.6204 198.385 48.2718 198.479 47.8789C198.574 47.4805 198.621 47.0571 198.621 46.6089ZM201.717 46.6089V46.418C201.717 45.7705 201.811 45.1701 201.999 44.6167C202.187 44.0578 202.458 43.5736 202.812 43.1641C203.167 42.749 203.596 42.4281 204.099 42.2012C204.603 41.9688 205.167 41.8525 205.792 41.8525C206.423 41.8525 206.991 41.9688 207.494 42.2012C208.003 42.4281 208.435 42.749 208.789 43.1641C209.149 43.5736 209.423 44.0578 209.611 44.6167C209.799 45.1701 209.893 45.7705 209.893 46.418V46.6089C209.893 47.2563 209.799 47.8568 209.611 48.4102C209.423 48.9635 209.149 49.4478 208.789 49.8628C208.435 50.2723 208.006 50.5933 207.502 50.8257C207.004 51.0526 206.44 51.166 205.809 51.166C205.178 51.166 204.611 51.0526 204.107 50.8257C203.604 50.5933 203.172 50.2723 202.812 49.8628C202.458 49.4478 202.187 48.9635 201.999 48.4102C201.811 47.8568 201.717 47.2563 201.717 46.6089ZM203.252 46.418V46.6089C203.252 47.0571 203.305 47.4805 203.41 47.8789C203.515 48.2718 203.673 48.6204 203.883 48.9248C204.099 49.2292 204.368 49.4699 204.688 49.647C205.009 49.8185 205.383 49.9043 205.809 49.9043C206.23 49.9043 206.598 49.8185 206.913 49.647C207.234 49.4699 207.5 49.2292 207.71 48.9248C207.92 48.6204 208.078 48.2718 208.183 47.8789C208.294 47.4805 208.349 47.0571 208.349 46.6089V46.418C208.349 45.9753 208.294 45.5575 208.183 45.1646C208.078 44.7661 207.917 44.4147 207.702 44.1104C207.491 43.8005 207.226 43.557 206.905 43.3799C206.589 43.2028 206.219 43.1143 205.792 43.1143C205.372 43.1143 205.001 43.2028 204.68 43.3799C204.365 43.557 204.099 43.8005 203.883 44.1104C203.673 44.4147 203.515 44.7661 203.41 45.1646C203.305 45.5575 203.252 45.9753 203.252 46.418ZM215.546 51.166C214.921 51.166 214.353 51.0609 213.844 50.8506C213.341 50.6348 212.906 50.3332 212.541 49.9458C212.181 49.5584 211.905 49.0991 211.711 48.5679C211.517 48.0366 211.42 47.4556 211.42 46.8247V46.4761C211.42 45.7456 211.528 45.0954 211.744 44.5254C211.96 43.9499 212.253 43.4629 212.624 43.0645C212.995 42.666 213.415 42.3644 213.886 42.1597C214.356 41.9549 214.843 41.8525 215.347 41.8525C215.989 41.8525 216.542 41.9632 217.007 42.1846C217.477 42.4059 217.862 42.7158 218.161 43.1143C218.459 43.5072 218.681 43.972 218.825 44.5088C218.969 45.04 219.041 45.6211 219.041 46.252V46.9409H212.333V45.6875H217.505V45.5713C217.483 45.1729 217.4 44.7855 217.256 44.4092C217.118 44.0329 216.896 43.723 216.592 43.4795C216.287 43.236 215.872 43.1143 215.347 43.1143C214.998 43.1143 214.677 43.189 214.384 43.3384C214.09 43.4823 213.839 43.6981 213.628 43.9858C213.418 44.2736 213.255 44.625 213.139 45.04C213.022 45.4551 212.964 45.9338 212.964 46.4761V46.8247C212.964 47.2508 213.022 47.652 213.139 48.0283C213.26 48.3991 213.435 48.7256 213.662 49.0078C213.894 49.29 214.174 49.5114 214.5 49.6719C214.832 49.8324 215.208 49.9126 215.629 49.9126C216.171 49.9126 216.631 49.8019 217.007 49.5806C217.383 49.3592 217.712 49.0632 217.995 48.6924L218.924 49.4312C218.731 49.7244 218.484 50.0039 218.186 50.2695C217.887 50.5352 217.519 50.751 217.082 50.917C216.65 51.083 216.138 51.166 215.546 51.166ZM222.502 42.0186V51H220.966V42.0186H222.502ZM228.396 42.0186L224.137 47.165H221.987L221.755 45.8203H223.515L226.528 42.0186H228.396ZM226.744 51L223.44 46.9326L224.428 45.8203L228.694 51H226.744ZM233.691 42.0186V51H232.147V42.0186H233.691ZM236.705 42.0186V43.2637H229.192V42.0186H236.705ZM243.378 49.4644V44.8408C243.378 44.4867 243.306 44.1795 243.163 43.9194C243.024 43.6538 242.814 43.4491 242.532 43.3052C242.25 43.1613 241.901 43.0894 241.486 43.0894C241.098 43.0894 240.758 43.1558 240.465 43.2886C240.177 43.4214 239.95 43.5957 239.784 43.8115C239.624 44.0273 239.543 44.2598 239.543 44.5088H238.008C238.008 44.1878 238.091 43.8696 238.257 43.5542C238.423 43.2388 238.661 42.9538 238.971 42.6992C239.286 42.4391 239.662 42.2344 240.1 42.085C240.542 41.93 241.035 41.8525 241.577 41.8525C242.23 41.8525 242.806 41.9632 243.304 42.1846C243.807 42.4059 244.2 42.7407 244.482 43.189C244.77 43.6317 244.914 44.1878 244.914 44.8574V49.041C244.914 49.3398 244.939 49.658 244.989 49.9956C245.044 50.3332 245.124 50.6237 245.229 50.8672V51H243.627C243.55 50.8229 243.489 50.5877 243.445 50.2944C243.401 49.9956 243.378 49.7189 243.378 49.4644ZM243.644 45.5547L243.661 46.6338H242.108C241.671 46.6338 241.281 46.6698 240.938 46.7417C240.595 46.8081 240.307 46.9105 240.075 47.0488C239.842 47.1872 239.665 47.3615 239.543 47.5718C239.422 47.7765 239.361 48.0173 239.361 48.2939C239.361 48.5762 239.424 48.8335 239.552 49.0659C239.679 49.2983 239.87 49.4837 240.125 49.6221C240.385 49.7549 240.703 49.8213 241.079 49.8213C241.549 49.8213 241.965 49.7217 242.324 49.5225C242.684 49.3232 242.969 49.0798 243.179 48.792C243.395 48.5042 243.511 48.2248 243.528 47.9536L244.184 48.6924C244.145 48.9248 244.04 49.1821 243.868 49.4644C243.697 49.7466 243.467 50.0177 243.179 50.2778C242.897 50.5324 242.559 50.7454 242.167 50.917C241.779 51.083 241.342 51.166 240.855 51.166C240.246 51.166 239.712 51.047 239.253 50.8091C238.799 50.5711 238.445 50.2529 238.19 49.8545C237.941 49.4505 237.817 48.9995 237.817 48.5015C237.817 48.02 237.911 47.5967 238.099 47.2314C238.287 46.8607 238.558 46.5535 238.913 46.3101C239.267 46.061 239.693 45.8729 240.191 45.7456C240.689 45.6183 241.245 45.5547 241.859 45.5547H243.644ZM253.207 48.5679L257.349 42.0186H258.893V51H257.349V44.4507L253.207 51H251.679V42.0186H253.207V48.5679ZM267.451 45.9116V47.1567H262.703V45.9116H267.451ZM263.026 42.0186V51H261.491V42.0186H263.026ZM268.696 42.0186V51H267.152V42.0186H268.696ZM275.386 47.0488H272.439L272.423 45.8203H274.83C275.306 45.8203 275.702 45.7733 276.017 45.6792C276.338 45.5851 276.579 45.444 276.739 45.2559C276.9 45.0677 276.98 44.8353 276.98 44.5586C276.98 44.3428 276.933 44.1546 276.839 43.9941C276.75 43.8281 276.615 43.6925 276.432 43.5874C276.25 43.4767 276.023 43.3965 275.751 43.3467C275.486 43.2913 275.173 43.2637 274.813 43.2637H272.846V51H271.311V42.0186H274.813C275.383 42.0186 275.895 42.0684 276.349 42.168C276.808 42.2676 277.199 42.4198 277.52 42.6245C277.846 42.8237 278.095 43.0783 278.267 43.3882C278.438 43.6981 278.524 44.0633 278.524 44.4839C278.524 44.755 278.469 45.0124 278.358 45.2559C278.247 45.4993 278.084 45.7152 277.868 45.9033C277.652 46.0915 277.387 46.2464 277.071 46.3682C276.756 46.4844 276.393 46.5591 275.984 46.5923L275.386 47.0488ZM275.386 51H271.883L272.647 49.7549H275.386C275.812 49.7549 276.167 49.7023 276.449 49.5972C276.731 49.4865 276.941 49.3315 277.08 49.1323C277.223 48.9276 277.295 48.6841 277.295 48.4019C277.295 48.1196 277.223 47.8789 277.08 47.6797C276.941 47.4749 276.731 47.32 276.449 47.2148C276.167 47.1042 275.812 47.0488 275.386 47.0488H273.054L273.07 45.8203H275.984L276.54 46.2852C277.033 46.3239 277.45 46.4456 277.793 46.6504C278.137 46.8551 278.397 47.1152 278.574 47.4307C278.751 47.7406 278.839 48.0781 278.839 48.4434C278.839 48.8639 278.759 49.2347 278.599 49.5557C278.444 49.8766 278.217 50.145 277.918 50.3608C277.619 50.5711 277.257 50.7316 276.831 50.8423C276.404 50.9474 275.923 51 275.386 51ZM284.625 51.166C284 51.166 283.432 51.0609 282.923 50.8506C282.42 50.6348 281.985 50.3332 281.62 49.9458C281.26 49.5584 280.984 49.0991 280.79 48.5679C280.596 48.0366 280.5 47.4556 280.5 46.8247V46.4761C280.5 45.7456 280.607 45.0954 280.823 44.5254C281.039 43.9499 281.332 43.4629 281.703 43.0645C282.074 42.666 282.494 42.3644 282.965 42.1597C283.435 41.9549 283.922 41.8525 284.426 41.8525C285.068 41.8525 285.621 41.9632 286.086 42.1846C286.556 42.4059 286.941 42.7158 287.24 43.1143C287.539 43.5072 287.76 43.972 287.904 44.5088C288.048 45.04 288.12 45.6211 288.12 46.252V46.9409H281.413V45.6875H286.584V45.5713C286.562 45.1729 286.479 44.7855 286.335 44.4092C286.197 44.0329 285.975 43.723 285.671 43.4795C285.367 43.236 284.951 43.1143 284.426 43.1143C284.077 43.1143 283.756 43.189 283.463 43.3384C283.17 43.4823 282.918 43.6981 282.708 43.9858C282.497 44.2736 282.334 44.625 282.218 45.04C282.102 45.4551 282.043 45.9338 282.043 46.4761V46.8247C282.043 47.2508 282.102 47.652 282.218 48.0283C282.34 48.3991 282.514 48.7256 282.741 49.0078C282.973 49.29 283.253 49.5114 283.579 49.6719C283.911 49.8324 284.287 49.9126 284.708 49.9126C285.25 49.9126 285.71 49.8019 286.086 49.5806C286.462 49.3592 286.792 49.0632 287.074 48.6924L288.003 49.4312C287.81 49.7244 287.563 50.0039 287.265 50.2695C286.966 50.5352 286.598 50.751 286.161 50.917C285.729 51.083 285.217 51.166 284.625 51.166ZM293.507 49.9043C293.872 49.9043 294.21 49.8296 294.52 49.6802C294.829 49.5308 295.084 49.326 295.283 49.0659C295.482 48.8003 295.596 48.4987 295.624 48.1611H297.084C297.057 48.6924 296.877 49.1877 296.545 49.647C296.218 50.1007 295.79 50.4688 295.258 50.751C294.727 51.0277 294.143 51.166 293.507 51.166C292.832 51.166 292.242 51.047 291.739 50.8091C291.241 50.5711 290.826 50.2446 290.494 49.8296C290.167 49.4146 289.921 48.9386 289.755 48.4019C289.594 47.8595 289.514 47.2868 289.514 46.6836V46.335C289.514 45.7318 289.594 45.1618 289.755 44.625C289.921 44.0827 290.167 43.604 290.494 43.189C290.826 42.7739 291.241 42.4474 291.739 42.2095C292.242 41.9715 292.832 41.8525 293.507 41.8525C294.21 41.8525 294.824 41.9964 295.35 42.2842C295.875 42.5664 296.288 42.9538 296.586 43.4463C296.891 43.9333 297.057 44.4867 297.084 45.1064H295.624C295.596 44.7357 295.491 44.4009 295.308 44.1021C295.131 43.8032 294.888 43.5653 294.578 43.3882C294.273 43.2056 293.916 43.1143 293.507 43.1143C293.036 43.1143 292.641 43.2083 292.32 43.3965C292.004 43.5791 291.753 43.8281 291.564 44.1436C291.382 44.4535 291.249 44.7993 291.166 45.1812C291.089 45.5575 291.05 45.9421 291.05 46.335V46.6836C291.05 47.0765 291.089 47.4639 291.166 47.8457C291.243 48.2275 291.374 48.5734 291.556 48.8833C291.744 49.1932 291.996 49.4422 292.312 49.6304C292.632 49.813 293.031 49.9043 293.507 49.9043ZM302.472 42.0186V51H300.928V42.0186H302.472ZM305.485 42.0186V43.2637H297.973V42.0186H305.485ZM306.24 46.6089V46.418C306.24 45.7705 306.334 45.1701 306.522 44.6167C306.711 44.0578 306.982 43.5736 307.336 43.1641C307.69 42.749 308.119 42.4281 308.623 42.2012C309.126 41.9688 309.691 41.8525 310.316 41.8525C310.947 41.8525 311.514 41.9688 312.018 42.2012C312.527 42.4281 312.958 42.749 313.312 43.1641C313.672 43.5736 313.946 44.0578 314.134 44.6167C314.322 45.1701 314.417 45.7705 314.417 46.418V46.6089C314.417 47.2563 314.322 47.8568 314.134 48.4102C313.946 48.9635 313.672 49.4478 313.312 49.8628C312.958 50.2723 312.529 50.5933 312.026 50.8257C311.528 51.0526 310.963 51.166 310.333 51.166C309.702 51.166 309.134 51.0526 308.631 50.8257C308.127 50.5933 307.696 50.2723 307.336 49.8628C306.982 49.4478 306.711 48.9635 306.522 48.4102C306.334 47.8568 306.24 47.2563 306.24 46.6089ZM307.776 46.418V46.6089C307.776 47.0571 307.828 47.4805 307.934 47.8789C308.039 48.2718 308.196 48.6204 308.407 48.9248C308.623 49.2292 308.891 49.4699 309.212 49.647C309.533 49.8185 309.906 49.9043 310.333 49.9043C310.753 49.9043 311.121 49.8185 311.437 49.647C311.757 49.4699 312.023 49.2292 312.233 48.9248C312.444 48.6204 312.601 48.2718 312.707 47.8789C312.817 47.4805 312.873 47.0571 312.873 46.6089V46.418C312.873 45.9753 312.817 45.5575 312.707 45.1646C312.601 44.7661 312.441 44.4147 312.225 44.1104C312.015 43.8005 311.749 43.557 311.428 43.3799C311.113 43.2028 310.742 43.1143 310.316 43.1143C309.895 43.1143 309.525 43.2028 309.204 43.3799C308.888 43.557 308.623 43.8005 308.407 44.1104C308.196 44.4147 308.039 44.7661 307.934 45.1646C307.828 45.5575 307.776 45.9753 307.776 46.418ZM317.878 43.7451V54.4531H316.334V42.0186H317.745L317.878 43.7451ZM323.929 46.4346V46.6089C323.929 47.2619 323.852 47.8678 323.697 48.4268C323.542 48.9801 323.315 49.4616 323.016 49.8711C322.723 50.2806 322.36 50.5988 321.929 50.8257C321.497 51.0526 321.002 51.166 320.443 51.166C319.873 51.166 319.369 51.0719 318.932 50.8838C318.495 50.6956 318.124 50.4217 317.82 50.062C317.515 49.7023 317.272 49.2707 317.089 48.7671C316.912 48.2635 316.791 47.6963 316.724 47.0654V46.1357C316.791 45.4717 316.915 44.8768 317.098 44.3511C317.28 43.8254 317.521 43.3771 317.82 43.0063C318.124 42.63 318.492 42.3451 318.924 42.1514C319.355 41.9521 319.854 41.8525 320.418 41.8525C320.982 41.8525 321.483 41.9632 321.92 42.1846C322.358 42.4004 322.726 42.7103 323.024 43.1143C323.323 43.5182 323.547 44.0024 323.697 44.5669C323.852 45.1258 323.929 45.7484 323.929 46.4346ZM322.385 46.6089V46.4346C322.385 45.9863 322.338 45.5658 322.244 45.1729C322.15 44.7744 322.003 44.4258 321.804 44.127C321.611 43.8226 321.361 43.5846 321.057 43.4131C320.753 43.236 320.39 43.1475 319.97 43.1475C319.582 43.1475 319.245 43.2139 318.957 43.3467C318.675 43.4795 318.434 43.6593 318.235 43.8862C318.036 44.1076 317.872 44.3621 317.745 44.6499C317.623 44.9321 317.532 45.2254 317.471 45.5298V47.6797C317.582 48.0671 317.737 48.4323 317.936 48.7754C318.135 49.113 318.401 49.3869 318.733 49.5972C319.065 49.8019 319.483 49.9043 319.986 49.9043C320.401 49.9043 320.758 49.8185 321.057 49.647C321.361 49.4699 321.611 49.2292 321.804 48.9248C322.003 48.6204 322.15 48.2718 322.244 47.8789C322.338 47.4805 322.385 47.0571 322.385 46.6089ZM331.184 49.4644V44.8408C331.184 44.4867 331.112 44.1795 330.968 43.9194C330.83 43.6538 330.62 43.4491 330.337 43.3052C330.055 43.1613 329.707 43.0894 329.292 43.0894C328.904 43.0894 328.564 43.1558 328.271 43.2886C327.983 43.4214 327.756 43.5957 327.59 43.8115C327.429 44.0273 327.349 44.2598 327.349 44.5088H325.813C325.813 44.1878 325.896 43.8696 326.062 43.5542C326.229 43.2388 326.466 42.9538 326.776 42.6992C327.092 42.4391 327.468 42.2344 327.905 42.085C328.348 41.93 328.84 41.8525 329.383 41.8525C330.036 41.8525 330.611 41.9632 331.109 42.1846C331.613 42.4059 332.006 42.7407 332.288 43.189C332.576 43.6317 332.72 44.1878 332.72 44.8574V49.041C332.72 49.3398 332.745 49.658 332.794 49.9956C332.85 50.3332 332.93 50.6237 333.035 50.8672V51H331.433C331.356 50.8229 331.295 50.5877 331.25 50.2944C331.206 49.9956 331.184 49.7189 331.184 49.4644ZM331.45 45.5547L331.466 46.6338H329.914C329.477 46.6338 329.087 46.6698 328.744 46.7417C328.401 46.8081 328.113 46.9105 327.88 47.0488C327.648 47.1872 327.471 47.3615 327.349 47.5718C327.227 47.7765 327.167 48.0173 327.167 48.2939C327.167 48.5762 327.23 48.8335 327.357 49.0659C327.485 49.2983 327.676 49.4837 327.93 49.6221C328.19 49.7549 328.508 49.8213 328.885 49.8213C329.355 49.8213 329.77 49.7217 330.13 49.5225C330.49 49.3232 330.775 49.0798 330.985 48.792C331.201 48.5042 331.317 48.2248 331.333 47.9536L331.989 48.6924C331.951 48.9248 331.845 49.1821 331.674 49.4644C331.502 49.7466 331.273 50.0177 330.985 50.2778C330.703 50.5324 330.365 50.7454 329.972 50.917C329.585 51.083 329.148 51.166 328.661 51.166C328.052 51.166 327.518 51.047 327.059 50.8091C326.605 50.5711 326.251 50.2529 325.996 49.8545C325.747 49.4505 325.623 48.9995 325.623 48.5015C325.623 48.02 325.717 47.5967 325.905 47.2314C326.093 46.8607 326.364 46.5535 326.718 46.3101C327.072 46.061 327.499 45.8729 327.997 45.7456C328.495 45.6183 329.051 45.5547 329.665 45.5547H331.45ZM340.298 48.958L343.353 42.0186H344.831L340.83 51H339.767L335.783 42.0186H337.26L340.298 48.958ZM336.812 42.0186V51H335.276V42.0186H336.812ZM343.735 51V42.0186H345.279V51H343.735ZM140.831 68.5679L144.973 62.0186H146.517V71H144.973V64.4507L140.831 71H139.303V62.0186H140.831V68.5679ZM159.184 62.0186V63.2886H154.643V62.0186H159.184ZM154.867 62.0186V71H153.332V62.0186H154.867ZM160.545 62.0186V71H159.001V62.0186H160.545ZM162.604 66.6089V66.418C162.604 65.7705 162.698 65.1701 162.886 64.6167C163.074 64.0578 163.345 63.5736 163.699 63.1641C164.053 62.749 164.482 62.4281 164.986 62.2012C165.489 61.9688 166.054 61.8525 166.679 61.8525C167.31 61.8525 167.877 61.9688 168.381 62.2012C168.89 62.4281 169.322 62.749 169.676 63.1641C170.035 63.5736 170.309 64.0578 170.498 64.6167C170.686 65.1701 170.78 65.7705 170.78 66.418V66.6089C170.78 67.2563 170.686 67.8568 170.498 68.4102C170.309 68.9635 170.035 69.4478 169.676 69.8628C169.322 70.2723 168.893 70.5933 168.389 70.8257C167.891 71.0526 167.327 71.166 166.696 71.166C166.065 71.166 165.498 71.0526 164.994 70.8257C164.491 70.5933 164.059 70.2723 163.699 69.8628C163.345 69.4478 163.074 68.9635 162.886 68.4102C162.698 67.8568 162.604 67.2563 162.604 66.6089ZM164.139 66.418V66.6089C164.139 67.0571 164.192 67.4805 164.297 67.8789C164.402 68.2718 164.56 68.6204 164.77 68.9248C164.986 69.2292 165.254 69.4699 165.575 69.647C165.896 69.8185 166.27 69.9043 166.696 69.9043C167.116 69.9043 167.484 69.8185 167.8 69.647C168.121 69.4699 168.386 69.2292 168.597 68.9248C168.807 68.6204 168.965 68.2718 169.07 67.8789C169.181 67.4805 169.236 67.0571 169.236 66.6089V66.418C169.236 65.9753 169.181 65.5575 169.07 65.1646C168.965 64.7661 168.804 64.4147 168.588 64.1104C168.378 63.8005 168.112 63.557 167.792 63.3799C167.476 63.2028 167.105 63.1143 166.679 63.1143C166.259 63.1143 165.888 63.2028 165.567 63.3799C165.251 63.557 164.986 63.8005 164.77 64.1104C164.56 64.4147 164.402 64.7661 164.297 65.1646C164.192 65.5575 164.139 65.9753 164.139 66.418ZM178.574 62.0186V63.2886H174.233V62.0186H178.574ZM179.927 62.0186V71H178.392V62.0186H179.927ZM173.859 62.0186H175.403L175.171 66.3516C175.132 67.0212 175.069 67.6133 174.98 68.1279C174.897 68.637 174.781 69.0742 174.631 69.4395C174.487 69.8047 174.305 70.1035 174.083 70.3359C173.868 70.5628 173.608 70.7316 173.303 70.8423C172.999 70.9474 172.647 71 172.249 71H171.768V69.647L172.1 69.6221C172.338 69.6055 172.54 69.5501 172.706 69.4561C172.877 69.362 173.021 69.2236 173.137 69.041C173.253 68.8529 173.347 68.6121 173.419 68.3188C173.497 68.0256 173.555 67.6769 173.594 67.2729C173.638 66.869 173.671 66.3986 173.693 65.8618L173.859 62.0186ZM184.924 70.0703L187.423 62.0186H189.066L185.464 72.3862C185.381 72.6076 185.27 72.8455 185.132 73.1001C184.999 73.3602 184.827 73.6064 184.617 73.8389C184.407 74.0713 184.152 74.2594 183.854 74.4033C183.56 74.5527 183.209 74.6274 182.799 74.6274C182.678 74.6274 182.523 74.6108 182.334 74.5776C182.146 74.5444 182.014 74.5168 181.936 74.4946L181.928 73.2495C181.972 73.255 182.041 73.2606 182.135 73.2661C182.235 73.2772 182.304 73.2827 182.343 73.2827C182.691 73.2827 182.987 73.2357 183.231 73.1416C183.474 73.0531 183.679 72.9009 183.845 72.6851C184.017 72.4748 184.163 72.1842 184.285 71.8135L184.924 70.0703ZM183.09 62.0186L185.422 68.9912L185.821 70.6099L184.717 71.1743L181.413 62.0186H183.09ZM197.226 62.0186V71H195.69V62.0186H197.226ZM196.703 66.144V67.4058C196.393 67.522 196.078 67.6271 195.757 67.7212C195.441 67.8097 195.107 67.8817 194.752 67.937C194.404 67.9868 194.025 68.0117 193.615 68.0117C192.907 68.0117 192.293 67.89 191.772 67.6465C191.252 67.3975 190.851 67.0239 190.569 66.5259C190.287 66.0223 190.146 65.3887 190.146 64.625V62.002H191.681V64.625C191.681 65.123 191.756 65.527 191.905 65.8369C192.055 66.1468 192.273 66.3765 192.561 66.5259C192.849 66.6698 193.2 66.7417 193.615 66.7417C194.014 66.7417 194.387 66.7168 194.736 66.667C195.09 66.6117 195.428 66.5397 195.749 66.4512C196.075 66.3626 196.393 66.2603 196.703 66.144ZM203.427 71.166C202.801 71.166 202.234 71.0609 201.725 70.8506C201.222 70.6348 200.787 70.3332 200.422 69.9458C200.062 69.5584 199.785 69.0991 199.592 68.5679C199.398 68.0366 199.301 67.4556 199.301 66.8247V66.4761C199.301 65.7456 199.409 65.0954 199.625 64.5254C199.841 63.9499 200.134 63.4629 200.505 63.0645C200.876 62.666 201.296 62.3644 201.767 62.1597C202.237 61.9549 202.724 61.8525 203.228 61.8525C203.869 61.8525 204.423 61.9632 204.888 62.1846C205.358 62.4059 205.743 62.7158 206.042 63.1143C206.34 63.5072 206.562 63.972 206.706 64.5088C206.849 65.04 206.921 65.6211 206.921 66.252V66.9409H200.214V65.6875H205.386V65.5713C205.364 65.1729 205.281 64.7855 205.137 64.4092C204.998 64.0329 204.777 63.723 204.473 63.4795C204.168 63.236 203.753 63.1143 203.228 63.1143C202.879 63.1143 202.558 63.189 202.265 63.3384C201.971 63.4823 201.72 63.6981 201.509 63.9858C201.299 64.2736 201.136 64.625 201.02 65.04C200.903 65.4551 200.845 65.9338 200.845 66.4761V66.8247C200.845 67.2508 200.903 67.652 201.02 68.0283C201.141 68.3991 201.316 68.7256 201.542 69.0078C201.775 69.29 202.054 69.5114 202.381 69.6719C202.713 69.8324 203.089 69.9126 203.51 69.9126C204.052 69.9126 204.511 69.8019 204.888 69.5806C205.264 69.3592 205.593 69.0632 205.875 68.6924L206.805 69.4312C206.611 69.7244 206.365 70.0039 206.066 70.2695C205.768 70.5352 205.4 70.751 204.962 70.917C204.531 71.083 204.019 71.166 203.427 71.166ZM214.807 65.9116V67.1567H210.059V65.9116H214.807ZM210.383 62.0186V71H208.847V62.0186H210.383ZM216.052 62.0186V71H214.508V62.0186H216.052ZM220.186 68.5679L224.328 62.0186H225.872V71H224.328V64.4507L220.186 71H218.659V62.0186H220.186V68.5679ZM232.064 71.166C231.439 71.166 230.872 71.0609 230.363 70.8506C229.859 70.6348 229.425 70.3332 229.06 69.9458C228.7 69.5584 228.423 69.0991 228.229 68.5679C228.036 68.0366 227.939 67.4556 227.939 66.8247V66.4761C227.939 65.7456 228.047 65.0954 228.263 64.5254C228.479 63.9499 228.772 63.4629 229.143 63.0645C229.513 62.666 229.934 62.3644 230.404 62.1597C230.875 61.9549 231.362 61.8525 231.865 61.8525C232.507 61.8525 233.061 61.9632 233.525 62.1846C233.996 62.4059 234.38 62.7158 234.679 63.1143C234.978 63.5072 235.199 63.972 235.343 64.5088C235.487 65.04 235.559 65.6211 235.559 66.252V66.9409H228.852V65.6875H234.023V65.5713C234.001 65.1729 233.918 64.7855 233.774 64.4092C233.636 64.0329 233.415 63.723 233.11 63.4795C232.806 63.236 232.391 63.1143 231.865 63.1143C231.517 63.1143 231.196 63.189 230.902 63.3384C230.609 63.4823 230.357 63.6981 230.147 63.9858C229.937 64.2736 229.773 64.625 229.657 65.04C229.541 65.4551 229.483 65.9338 229.483 66.4761V66.8247C229.483 67.2508 229.541 67.652 229.657 68.0283C229.779 68.3991 229.953 68.7256 230.18 69.0078C230.413 69.29 230.692 69.5114 231.019 69.6719C231.351 69.8324 231.727 69.9126 232.147 69.9126C232.69 69.9126 233.149 69.8019 233.525 69.5806C233.902 69.3592 234.231 69.0632 234.513 68.6924L235.443 69.4312C235.249 69.7244 235.003 70.0039 234.704 70.2695C234.405 70.5352 234.037 70.751 233.6 70.917C233.168 71.083 232.657 71.166 232.064 71.166ZM241.162 66.6089V66.418C241.162 65.7705 241.256 65.1701 241.444 64.6167C241.632 64.0578 241.904 63.5736 242.258 63.1641C242.612 62.749 243.041 62.4281 243.544 62.2012C244.048 61.9688 244.612 61.8525 245.238 61.8525C245.869 61.8525 246.436 61.9688 246.939 62.2012C247.449 62.4281 247.88 62.749 248.234 63.1641C248.594 63.5736 248.868 64.0578 249.056 64.6167C249.244 65.1701 249.338 65.7705 249.338 66.418V66.6089C249.338 67.2563 249.244 67.8568 249.056 68.4102C248.868 68.9635 248.594 69.4478 248.234 69.8628C247.88 70.2723 247.451 70.5933 246.948 70.8257C246.45 71.0526 245.885 71.166 245.254 71.166C244.624 71.166 244.056 71.0526 243.553 70.8257C243.049 70.5933 242.618 70.2723 242.258 69.8628C241.904 69.4478 241.632 68.9635 241.444 68.4102C241.256 67.8568 241.162 67.2563 241.162 66.6089ZM242.698 66.418V66.6089C242.698 67.0571 242.75 67.4805 242.855 67.8789C242.961 68.2718 243.118 68.6204 243.329 68.9248C243.544 69.2292 243.813 69.4699 244.134 69.647C244.455 69.8185 244.828 69.9043 245.254 69.9043C245.675 69.9043 246.043 69.8185 246.358 69.647C246.679 69.4699 246.945 69.2292 247.155 68.9248C247.366 68.6204 247.523 68.2718 247.628 67.8789C247.739 67.4805 247.794 67.0571 247.794 66.6089V66.418C247.794 65.9753 247.739 65.5575 247.628 65.1646C247.523 64.7661 247.363 64.4147 247.147 64.1104C246.937 63.8005 246.671 63.557 246.35 63.3799C246.035 63.2028 245.664 63.1143 245.238 63.1143C244.817 63.1143 244.446 63.2028 244.125 63.3799C243.81 63.557 243.544 63.8005 243.329 64.1104C243.118 64.4147 242.961 64.7661 242.855 65.1646C242.75 65.5575 242.698 65.9753 242.698 66.418ZM251.397 71V62.0186H252.933V69.7383H257.066V62.0186H258.61V71H251.397ZM259.673 69.7383L259.523 73.6646H258.154V71H256.983V69.7383H259.673ZM265.068 71.166C264.443 71.166 263.876 71.0609 263.367 70.8506C262.863 70.6348 262.429 70.3332 262.063 69.9458C261.704 69.5584 261.427 69.0991 261.233 68.5679C261.04 68.0366 260.943 67.4556 260.943 66.8247V66.4761C260.943 65.7456 261.051 65.0954 261.267 64.5254C261.482 63.9499 261.776 63.4629 262.146 63.0645C262.517 62.666 262.938 62.3644 263.408 62.1597C263.879 61.9549 264.366 61.8525 264.869 61.8525C265.511 61.8525 266.064 61.9632 266.529 62.1846C267 62.4059 267.384 62.7158 267.683 63.1143C267.982 63.5072 268.203 63.972 268.347 64.5088C268.491 65.04 268.563 65.6211 268.563 66.252V66.9409H261.856V65.6875H267.027V65.5713C267.005 65.1729 266.922 64.7855 266.778 64.4092C266.64 64.0329 266.419 63.723 266.114 63.4795C265.81 63.236 265.395 63.1143 264.869 63.1143C264.521 63.1143 264.2 63.189 263.906 63.3384C263.613 63.4823 263.361 63.6981 263.151 63.9858C262.941 64.2736 262.777 64.625 262.661 65.04C262.545 65.4551 262.487 65.9338 262.487 66.4761V66.8247C262.487 67.2508 262.545 67.652 262.661 68.0283C262.783 68.3991 262.957 68.7256 263.184 69.0078C263.417 69.29 263.696 69.5114 264.022 69.6719C264.354 69.8324 264.731 69.9126 265.151 69.9126C265.694 69.9126 266.153 69.8019 266.529 69.5806C266.906 69.3592 267.235 69.0632 267.517 68.6924L268.447 69.4312C268.253 69.7244 268.007 70.0039 267.708 70.2695C267.409 70.5352 267.041 70.751 266.604 70.917C266.172 71.083 265.66 71.166 265.068 71.166ZM276.449 65.9116V67.1567H271.701V65.9116H276.449ZM272.024 62.0186V71H270.489V62.0186H272.024ZM277.694 62.0186V71H276.15V62.0186H277.694ZM281.836 62.0186V71H280.3V62.0186H281.836ZM287.729 62.0186L283.471 67.165H281.321L281.089 65.8203H282.849L285.862 62.0186H287.729ZM286.078 71L282.774 66.9326L283.762 65.8203L288.028 71H286.078ZM291.025 68.5679L295.167 62.0186H296.711V71H295.167V64.4507L291.025 71H289.498V62.0186H291.025V68.5679ZM305.062 62.0186V71H303.526V62.0186H305.062ZM310.955 62.0186L306.697 67.165H304.547L304.314 65.8203H306.074L309.087 62.0186H310.955ZM309.303 71L306 66.9326L306.987 65.8203L311.254 71H309.303ZM312.001 66.6089V66.418C312.001 65.7705 312.095 65.1701 312.283 64.6167C312.471 64.0578 312.743 63.5736 313.097 63.1641C313.451 62.749 313.88 62.4281 314.383 62.2012C314.887 61.9688 315.451 61.8525 316.077 61.8525C316.708 61.8525 317.275 61.9688 317.778 62.2012C318.287 62.4281 318.719 62.749 319.073 63.1641C319.433 63.5736 319.707 64.0578 319.895 64.6167C320.083 65.1701 320.177 65.7705 320.177 66.418V66.6089C320.177 67.2563 320.083 67.8568 319.895 68.4102C319.707 68.9635 319.433 69.4478 319.073 69.8628C318.719 70.2723 318.29 70.5933 317.787 70.8257C317.289 71.0526 316.724 71.166 316.093 71.166C315.462 71.166 314.895 71.0526 314.392 70.8257C313.888 70.5933 313.456 70.2723 313.097 69.8628C312.743 69.4478 312.471 68.9635 312.283 68.4102C312.095 67.8568 312.001 67.2563 312.001 66.6089ZM313.537 66.418V66.6089C313.537 67.0571 313.589 67.4805 313.694 67.8789C313.799 68.2718 313.957 68.6204 314.167 68.9248C314.383 69.2292 314.652 69.4699 314.973 69.647C315.294 69.8185 315.667 69.9043 316.093 69.9043C316.514 69.9043 316.882 69.8185 317.197 69.647C317.518 69.4699 317.784 69.2292 317.994 68.9248C318.204 68.6204 318.362 68.2718 318.467 67.8789C318.578 67.4805 318.633 67.0571 318.633 66.6089V66.418C318.633 65.9753 318.578 65.5575 318.467 65.1646C318.362 64.7661 318.202 64.4147 317.986 64.1104C317.776 63.8005 317.51 63.557 317.189 63.3799C316.874 63.2028 316.503 63.1143 316.077 63.1143C315.656 63.1143 315.285 63.2028 314.964 63.3799C314.649 63.557 314.383 63.8005 314.167 64.1104C313.957 64.4147 313.799 64.7661 313.694 65.1646C313.589 65.5575 313.537 65.9753 313.537 66.418ZM327.266 68.958L330.321 62.0186H331.798L327.797 71H326.735L322.75 62.0186H324.228L327.266 68.958ZM323.78 62.0186V71H322.244V62.0186H323.78ZM330.703 71V62.0186H332.247V71H330.703ZM340.705 62.0186V63.2886H336.165V62.0186H340.705ZM336.389 62.0186V71H334.853V62.0186H336.389ZM342.066 62.0186V71H340.522V62.0186H342.066ZM349.828 69.4644V64.8408C349.828 64.4867 349.756 64.1795 349.612 63.9194C349.473 63.6538 349.263 63.4491 348.981 63.3052C348.699 63.1613 348.35 63.0894 347.935 63.0894C347.548 63.0894 347.207 63.1558 346.914 63.2886C346.626 63.4214 346.399 63.5957 346.233 63.8115C346.073 64.0273 345.993 64.2598 345.993 64.5088H344.457C344.457 64.1878 344.54 63.8696 344.706 63.5542C344.872 63.2388 345.11 62.9538 345.42 62.6992C345.735 62.4391 346.112 62.2344 346.549 62.085C346.992 61.93 347.484 61.8525 348.026 61.8525C348.679 61.8525 349.255 61.9632 349.753 62.1846C350.257 62.4059 350.649 62.7407 350.932 63.189C351.219 63.6317 351.363 64.1878 351.363 64.8574V69.041C351.363 69.3398 351.388 69.658 351.438 69.9956C351.493 70.3332 351.574 70.6237 351.679 70.8672V71H350.077C349.999 70.8229 349.938 70.5877 349.894 70.2944C349.85 69.9956 349.828 69.7189 349.828 69.4644ZM350.093 65.5547L350.11 66.6338H348.558C348.12 66.6338 347.73 66.6698 347.387 66.7417C347.044 66.8081 346.756 66.9105 346.524 67.0488C346.292 67.1872 346.114 67.3615 345.993 67.5718C345.871 67.7765 345.81 68.0173 345.81 68.2939C345.81 68.5762 345.874 68.8335 346.001 69.0659C346.128 69.2983 346.319 69.4837 346.574 69.6221C346.834 69.7549 347.152 69.8213 347.528 69.8213C347.999 69.8213 348.414 69.7217 348.773 69.5225C349.133 69.3232 349.418 69.0798 349.628 68.792C349.844 68.5042 349.96 68.2248 349.977 67.9536L350.633 68.6924C350.594 68.9248 350.489 69.1821 350.317 69.4644C350.146 69.7466 349.916 70.0177 349.628 70.2778C349.346 70.5324 349.009 70.7454 348.616 70.917C348.228 71.083 347.791 71.166 347.304 71.166C346.695 71.166 346.161 71.047 345.702 70.8091C345.248 70.5711 344.894 70.2529 344.64 69.8545C344.391 69.4505 344.266 68.9995 344.266 68.5015C344.266 68.02 344.36 67.5967 344.548 67.2314C344.736 66.8607 345.008 66.5535 345.362 66.3101C345.716 66.061 346.142 65.8729 346.64 65.7456C347.138 65.6183 347.694 65.5547 348.309 65.5547H350.093ZM359.872 65.9116V67.1567H355.124V65.9116H359.872ZM355.447 62.0186V71H353.912V62.0186H355.447ZM361.117 62.0186V71H359.573V62.0186H361.117ZM365.25 68.5679L369.393 62.0186H370.937V71H369.393V64.4507L365.25 71H363.723V62.0186H365.25V68.5679ZM375.062 68.5679L379.204 62.0186H380.748V71H379.204V64.4507L375.062 71H373.535V62.0186H375.062V68.5679Z" fill="black"/>
<defs>
<filter id="filter0_d_802_747" x="564.052" y="12.0862" width="106.191" height="106.163" filterUnits="userSpaceOnUse" color-interpolation-filters="sRGB">
<feFlood flood-opacity="0" result="BackgroundImageFix"/>
<feColorMatrix in="SourceAlpha" type="matrix" values="0 0 0 0 0 0 0 0 0 0 0 0 0 0 0 0 0 0 127 0" result="hardAlpha"/>
<feOffset/>
<feGaussianBlur stdDeviation="12"/>
<feComposite in2="hardAlpha" operator="out"/>
<feColorMatrix type="matrix" values="0 0 0 0 0.579167 0 0 0 0 0.579167 0 0 0 0 0.579167 0 0 0 0.3 0"/>
<feBlend mode="normal" in2="BackgroundImageFix" result="effect1_dropShadow_802_747"/>
<feBlend mode="normal" in="SourceGraphic" in2="effect1_dropShadow_802_747" result="shape"/>
</filter>
</defs>
</svg>
