<svg width="346" height="84" viewBox="0 0 346 84" fill="none" xmlns="http://www.w3.org/2000/svg">
<path d="M53.0456 59.6732C62.811 49.9124 62.811 34.0871 53.0455 24.3263C43.2801 14.5655 27.4473 14.5655 17.6819 24.3263C7.91646 34.087 7.91643 49.9124 17.6819 59.6732C27.4473 69.434 43.2802 69.434 53.0456 59.6732Z" fill="#00A3FF"/>
<path d="M34.6265 33.8416H37.7515V51.3464H34.0039V38.6023H31.001V36.2219C31.5381 36.1568 32.0304 36.0307 32.478 35.8435C32.9256 35.6482 33.2715 35.4407 33.5156 35.2209C33.7679 35.0012 33.9795 34.7896 34.1504 34.5862C34.3294 34.3746 34.4556 34.1956 34.5288 34.0491L34.6265 33.8416Z" fill="white"/>
<path d="M114.204 17.2214H113.021V16.3806H114.156C114.658 16.3806 115.063 16.31 115.373 16.1687C115.683 16.0274 115.909 15.8315 116.05 15.5808C116.191 15.3302 116.262 15.0408 116.262 14.7126C116.262 14.3982 116.184 14.1111 116.029 13.8513C115.874 13.587 115.635 13.3774 115.312 13.2224C114.988 13.0629 114.571 12.9832 114.061 12.9832C113.678 12.9832 113.331 13.0561 113.021 13.2019C112.712 13.3432 112.465 13.5414 112.283 13.7966C112.101 14.0473 112.01 14.3367 112.01 14.6648H110.69C110.69 14.241 110.779 13.8604 110.957 13.5232C111.135 13.1814 111.379 12.892 111.688 12.655C111.998 12.4135 112.356 12.2289 112.762 12.1013C113.172 11.9737 113.605 11.9099 114.061 11.9099C114.594 11.9099 115.077 11.9714 115.51 12.0945C115.943 12.213 116.314 12.3907 116.624 12.6277C116.934 12.8647 117.171 13.1586 117.335 13.5095C117.499 13.8604 117.581 14.2683 117.581 14.7332C117.581 15.075 117.501 15.3962 117.342 15.697C117.182 15.9978 116.954 16.2621 116.658 16.49C116.362 16.7179 116.007 16.8979 115.592 17.03C115.177 17.1576 114.715 17.2214 114.204 17.2214ZM113.021 16.6404H114.204C114.765 16.6404 115.264 16.6973 115.701 16.8113C116.139 16.9252 116.508 17.0916 116.809 17.3103C117.109 17.5291 117.337 17.8002 117.492 18.1238C117.652 18.4428 117.731 18.8097 117.731 19.2244C117.731 19.6892 117.64 20.1016 117.458 20.4617C117.28 20.8217 117.027 21.127 116.699 21.3777C116.371 21.6283 115.981 21.8175 115.53 21.9451C115.084 22.0727 114.594 22.1365 114.061 22.1365C113.632 22.1365 113.208 22.0818 112.789 21.9724C112.374 21.8585 111.998 21.6853 111.661 21.4529C111.324 21.2159 111.053 20.9151 110.848 20.5505C110.647 20.186 110.547 19.7485 110.547 19.238H111.866C111.866 19.5707 111.957 19.8761 112.14 20.1541C112.326 20.432 112.584 20.6554 112.912 20.824C113.24 20.988 113.623 21.0701 114.061 21.0701C114.562 21.0701 114.986 20.9926 115.332 20.8376C115.683 20.6781 115.95 20.4617 116.132 20.1882C116.319 19.9102 116.412 19.5981 116.412 19.2517C116.412 18.9464 116.362 18.682 116.262 18.4587C116.166 18.2309 116.022 18.044 115.831 17.8982C115.644 17.7524 115.41 17.6453 115.127 17.5769C114.849 17.504 114.525 17.4675 114.156 17.4675H113.021V16.6404ZM124.294 17.8093V18.8347H120.384V17.8093H124.294ZM120.65 14.6033V21.9998H119.386V14.6033H120.65ZM125.319 14.6033V21.9998H124.048V14.6033H125.319ZM131.718 20.7351V16.9275C131.718 16.6358 131.659 16.3829 131.54 16.1687C131.426 15.95 131.253 15.7813 131.021 15.6628C130.788 15.5444 130.501 15.4851 130.159 15.4851C129.84 15.4851 129.56 15.5398 129.318 15.6492C129.081 15.7585 128.895 15.9021 128.758 16.0798C128.626 16.2576 128.56 16.449 128.56 16.6541H127.295C127.295 16.3897 127.363 16.1277 127.5 15.8679C127.637 15.6082 127.833 15.3735 128.088 15.1638C128.348 14.9496 128.658 14.781 129.018 14.658C129.382 14.5304 129.788 14.4666 130.234 14.4666C130.772 14.4666 131.246 14.5577 131.656 14.74C132.071 14.9223 132.395 15.198 132.627 15.5671C132.864 15.9317 132.982 16.3897 132.982 16.9412V20.3865C132.982 20.6326 133.003 20.8946 133.044 21.1726C133.09 21.4506 133.156 21.6899 133.242 21.8904V21.9998H131.923C131.859 21.8539 131.809 21.6602 131.772 21.4187C131.736 21.1726 131.718 20.9447 131.718 20.7351ZM131.937 17.5154L131.95 18.4041H130.672C130.312 18.4041 129.991 18.4337 129.708 18.4929C129.425 18.5476 129.188 18.6319 128.997 18.7458C128.806 18.8598 128.66 19.0033 128.56 19.1765C128.459 19.3451 128.409 19.5434 128.409 19.7712C128.409 20.0037 128.462 20.2156 128.566 20.407C128.671 20.5984 128.828 20.7511 129.038 20.865C129.252 20.9744 129.514 21.0291 129.824 21.0291C130.212 21.0291 130.553 20.947 130.85 20.783C131.146 20.6189 131.381 20.4184 131.554 20.1814C131.731 19.9444 131.827 19.7143 131.841 19.491L132.381 20.0994C132.349 20.2908 132.262 20.5027 132.121 20.7351C131.98 20.9675 131.791 21.1908 131.554 21.405C131.321 21.6147 131.043 21.7901 130.72 21.9314C130.401 22.0681 130.041 22.1365 129.64 22.1365C129.138 22.1365 128.699 22.0385 128.32 21.8425C127.947 21.6466 127.655 21.3845 127.445 21.0564C127.24 20.7237 127.138 20.3523 127.138 19.9421C127.138 19.5457 127.215 19.197 127.37 18.8962C127.525 18.5909 127.748 18.338 128.04 18.1375C128.332 17.9324 128.683 17.7774 129.093 17.6726C129.503 17.5678 129.961 17.5154 130.467 17.5154H131.937ZM136.346 14.6033V21.9998H135.081V14.6033H136.346ZM141.199 14.6033L137.692 18.8416H135.922L135.73 17.7341H137.18L139.661 14.6033H141.199ZM139.839 21.9998L137.118 18.6501L137.932 17.7341L141.445 21.9998H139.839ZM142.061 18.3835V18.2263C142.061 17.6931 142.138 17.1986 142.293 16.7429C142.448 16.2826 142.671 15.8839 142.963 15.5466C143.255 15.2048 143.608 14.9405 144.022 14.7537C144.437 14.5623 144.902 14.4666 145.417 14.4666C145.937 14.4666 146.404 14.5623 146.818 14.7537C147.238 14.9405 147.593 15.2048 147.885 15.5466C148.181 15.8839 148.407 16.2826 148.562 16.7429C148.716 17.1986 148.794 17.6931 148.794 18.2263V18.3835C148.794 18.9167 148.716 19.4112 148.562 19.8669C148.407 20.3227 148.181 20.7214 147.885 21.0632C147.593 21.4005 147.24 21.6648 146.825 21.8562C146.415 22.0431 145.95 22.1365 145.431 22.1365C144.911 22.1365 144.444 22.0431 144.029 21.8562C143.615 21.6648 143.259 21.4005 142.963 21.0632C142.671 20.7214 142.448 20.3227 142.293 19.8669C142.138 19.4112 142.061 18.9167 142.061 18.3835ZM143.325 18.2263V18.3835C143.325 18.7527 143.368 19.1013 143.455 19.4294C143.542 19.753 143.672 20.0401 143.845 20.2908C144.022 20.5414 144.243 20.7397 144.508 20.8855C144.772 21.0268 145.08 21.0974 145.431 21.0974C145.777 21.0974 146.08 21.0268 146.34 20.8855C146.604 20.7397 146.823 20.5414 146.996 20.2908C147.169 20.0401 147.299 19.753 147.386 19.4294C147.477 19.1013 147.522 18.7527 147.522 18.3835V18.2263C147.522 17.8617 147.477 17.5177 147.386 17.1941C147.299 16.866 147.167 16.5766 146.989 16.3259C146.816 16.0707 146.597 15.8702 146.333 15.7244C146.073 15.5785 145.768 15.5056 145.417 15.5056C145.071 15.5056 144.765 15.5785 144.501 15.7244C144.241 15.8702 144.022 16.0707 143.845 16.3259C143.672 16.5766 143.542 16.866 143.455 17.1941C143.368 17.5177 143.325 17.8617 143.325 18.2263ZM154.632 20.3181L157.147 14.6033H158.364L155.069 21.9998H154.194L150.913 14.6033H152.13L154.632 20.3181ZM151.761 14.6033V21.9998H150.496V14.6033H151.761ZM157.462 21.9998V14.6033H158.733V21.9998H157.462ZM163.73 21.0974C164.031 21.0974 164.309 21.0359 164.564 20.9128C164.82 20.7898 165.029 20.6212 165.193 20.407C165.357 20.1882 165.451 19.9399 165.474 19.6619H166.677C166.654 20.0994 166.506 20.5072 166.232 20.8855C165.964 21.2592 165.61 21.5623 165.173 21.7947C164.735 22.0225 164.255 22.1365 163.73 22.1365C163.174 22.1365 162.689 22.0385 162.274 21.8425C161.864 21.6466 161.522 21.3777 161.249 21.0359C160.98 20.6941 160.777 20.3022 160.641 19.8601C160.508 19.4135 160.442 18.9418 160.442 18.4451V18.158C160.442 17.6612 160.508 17.1918 160.641 16.7498C160.777 16.3031 160.98 15.9089 161.249 15.5671C161.522 15.2253 161.864 14.9565 162.274 14.7605C162.689 14.5645 163.174 14.4666 163.73 14.4666C164.309 14.4666 164.815 14.585 165.248 14.822C165.681 15.0544 166.021 15.3735 166.267 15.7791C166.517 16.1801 166.654 16.6358 166.677 17.1462H165.474C165.451 16.8409 165.364 16.5652 165.214 16.3191C165.068 16.073 164.868 15.877 164.612 15.7312C164.362 15.5808 164.068 15.5056 163.73 15.5056C163.343 15.5056 163.017 15.5831 162.753 15.738C162.493 15.8884 162.286 16.0935 162.131 16.3533C161.98 16.6085 161.871 16.8933 161.803 17.2078C161.739 17.5177 161.707 17.8344 161.707 18.158V18.4451C161.707 18.7686 161.739 19.0876 161.803 19.4021C161.867 19.7166 161.974 20.0014 162.124 20.2566C162.279 20.5118 162.486 20.7169 162.746 20.8718C163.01 21.0222 163.339 21.0974 163.73 21.0974ZM171.113 14.6033V21.9998H169.842V14.6033H171.113ZM173.595 14.6033V15.6287H167.408V14.6033H173.595ZM178.312 18.7458H175.885L175.871 17.7341H177.854C178.245 17.7341 178.571 17.6954 178.831 17.6179C179.095 17.5404 179.294 17.4242 179.426 17.2693C179.558 17.1143 179.624 16.9229 179.624 16.6951C179.624 16.5173 179.585 16.3624 179.508 16.2302C179.435 16.0935 179.323 15.9819 179.173 15.8953C179.022 15.8041 178.836 15.738 178.612 15.697C178.394 15.6514 178.136 15.6287 177.84 15.6287H176.22V21.9998H174.955V14.6033H177.84C178.309 14.6033 178.731 14.6443 179.104 14.7263C179.483 14.8083 179.804 14.9337 180.068 15.1023C180.337 15.2664 180.542 15.476 180.684 15.7312C180.825 15.9864 180.896 16.2872 180.896 16.6335C180.896 16.8569 180.85 17.0688 180.759 17.2693C180.668 17.4698 180.533 17.6475 180.355 17.8025C180.178 17.9574 179.959 18.085 179.699 18.1853C179.439 18.281 179.141 18.3425 178.804 18.3699L178.312 18.7458ZM178.312 21.9998H175.427L176.056 20.9744H178.312C178.662 20.9744 178.954 20.9311 179.187 20.8445C179.419 20.7533 179.592 20.6257 179.706 20.4617C179.825 20.2931 179.884 20.0925 179.884 19.8601C179.884 19.6277 179.825 19.4294 179.706 19.2654C179.592 19.0968 179.419 18.9692 179.187 18.8826C178.954 18.7914 178.662 18.7458 178.312 18.7458H176.391L176.404 17.7341H178.804L179.262 18.1169C179.667 18.1488 180.011 18.2491 180.294 18.4177C180.576 18.5863 180.791 18.8005 180.937 19.0603C181.082 19.3155 181.155 19.5935 181.155 19.8943C181.155 20.2406 181.089 20.546 180.957 20.8103C180.829 21.0746 180.643 21.2957 180.396 21.4734C180.15 21.6466 179.852 21.7787 179.501 21.8699C179.15 21.9565 178.754 21.9998 178.312 21.9998ZM182.516 18.3835V18.2263C182.516 17.6931 182.593 17.1986 182.748 16.7429C182.903 16.2826 183.126 15.8839 183.418 15.5466C183.71 15.2048 184.063 14.9405 184.478 14.7537C184.892 14.5623 185.357 14.4666 185.872 14.4666C186.392 14.4666 186.859 14.5623 187.273 14.7537C187.693 14.9405 188.048 15.2048 188.34 15.5466C188.636 15.8839 188.862 16.2826 189.017 16.7429C189.172 17.1986 189.249 17.6931 189.249 18.2263V18.3835C189.249 18.9167 189.172 19.4112 189.017 19.8669C188.862 20.3227 188.636 20.7214 188.34 21.0632C188.048 21.4005 187.695 21.6648 187.28 21.8562C186.87 22.0431 186.405 22.1365 185.886 22.1365C185.366 22.1365 184.899 22.0431 184.484 21.8562C184.07 21.6648 183.714 21.4005 183.418 21.0632C183.126 20.7214 182.903 20.3227 182.748 19.8669C182.593 19.4112 182.516 18.9167 182.516 18.3835ZM183.78 18.2263V18.3835C183.78 18.7527 183.824 19.1013 183.91 19.4294C183.997 19.753 184.127 20.0401 184.3 20.2908C184.478 20.5414 184.699 20.7397 184.963 20.8855C185.227 21.0268 185.535 21.0974 185.886 21.0974C186.232 21.0974 186.535 21.0268 186.795 20.8855C187.059 20.7397 187.278 20.5414 187.451 20.2908C187.624 20.0401 187.754 19.753 187.841 19.4294C187.932 19.1013 187.978 18.7527 187.978 18.3835V18.2263C187.978 17.8617 187.932 17.5177 187.841 17.1941C187.754 16.866 187.622 16.5766 187.444 16.3259C187.271 16.0707 187.052 15.8702 186.788 15.7244C186.528 15.5785 186.223 15.5056 185.872 15.5056C185.526 15.5056 185.22 15.5785 184.956 15.7244C184.696 15.8702 184.478 16.0707 184.3 16.3259C184.127 16.5766 183.997 16.866 183.91 17.1941C183.824 17.5177 183.78 17.8617 183.78 18.2263ZM190.855 21.3298C190.855 21.1156 190.922 20.9356 191.054 20.7898C191.19 20.6394 191.386 20.5642 191.642 20.5642C191.897 20.5642 192.09 20.6394 192.223 20.7898C192.359 20.9356 192.428 21.1156 192.428 21.3298C192.428 21.5395 192.359 21.7172 192.223 21.863C192.09 22.0089 191.897 22.0818 191.642 22.0818C191.386 22.0818 191.19 22.0089 191.054 21.863C190.922 21.7172 190.855 21.5395 190.855 21.3298ZM205.792 12.0466V21.9998H204.479V13.1267H199.571V21.9998H198.252V12.0466H205.792ZM207.658 18.3835V18.2263C207.658 17.6931 207.736 17.1986 207.891 16.7429C208.046 16.2826 208.269 15.8839 208.561 15.5466C208.852 15.2048 209.205 14.9405 209.62 14.7537C210.035 14.5623 210.5 14.4666 211.015 14.4666C211.534 14.4666 212.001 14.5623 212.416 14.7537C212.835 14.9405 213.191 15.2048 213.482 15.5466C213.779 15.8839 214.004 16.2826 214.159 16.7429C214.314 17.1986 214.392 17.6931 214.392 18.2263V18.3835C214.392 18.9167 214.314 19.4112 214.159 19.8669C214.004 20.3227 213.779 20.7214 213.482 21.0632C213.191 21.4005 212.838 21.6648 212.423 21.8562C212.013 22.0431 211.548 22.1365 211.028 22.1365C210.509 22.1365 210.042 22.0431 209.627 21.8562C209.212 21.6648 208.857 21.4005 208.561 21.0632C208.269 20.7214 208.046 20.3227 207.891 19.8669C207.736 19.4112 207.658 18.9167 207.658 18.3835ZM208.923 18.2263V18.3835C208.923 18.7527 208.966 19.1013 209.053 19.4294C209.139 19.753 209.269 20.0401 209.442 20.2908C209.62 20.5414 209.841 20.7397 210.105 20.8855C210.37 21.0268 210.677 21.0974 211.028 21.0974C211.375 21.0974 211.678 21.0268 211.938 20.8855C212.202 20.7397 212.421 20.5414 212.594 20.2908C212.767 20.0401 212.897 19.753 212.983 19.4294C213.075 19.1013 213.12 18.7527 213.12 18.3835V18.2263C213.12 17.8617 213.075 17.5177 212.983 17.1941C212.897 16.866 212.765 16.5766 212.587 16.3259C212.414 16.0707 212.195 15.8702 211.931 15.7244C211.671 15.5785 211.366 15.5056 211.015 15.5056C210.668 15.5056 210.363 15.5785 210.099 15.7244C209.839 15.8702 209.62 16.0707 209.442 16.3259C209.269 16.5766 209.139 16.866 209.053 17.1941C208.966 17.5177 208.923 17.8617 208.923 18.2263ZM220.811 14.6033V15.6492H217.235V14.6033H220.811ZM221.925 14.6033V21.9998H220.66V14.6033H221.925ZM216.928 14.6033H218.199L218.008 18.1716C217.976 18.7231 217.924 19.2107 217.851 19.6345C217.782 20.0538 217.687 20.4138 217.563 20.7146C217.445 21.0154 217.295 21.2615 217.112 21.4529C216.935 21.6397 216.72 21.7787 216.47 21.8699C216.219 21.9565 215.93 21.9998 215.602 21.9998H215.205V20.8855L215.479 20.865C215.674 20.8513 215.841 20.8057 215.978 20.7283C216.119 20.6508 216.237 20.5369 216.333 20.3865C216.429 20.2315 216.506 20.0333 216.565 19.7917C216.629 19.5502 216.677 19.2631 216.709 18.9304C216.745 18.5977 216.773 18.2104 216.791 17.7683L216.928 14.6033ZM226.04 21.2341L228.098 14.6033H229.451L226.484 23.1414C226.416 23.3236 226.325 23.5196 226.211 23.7292C226.102 23.9434 225.96 24.1462 225.787 24.3376C225.614 24.5291 225.404 24.684 225.158 24.8025C224.917 24.9255 224.627 24.9871 224.29 24.9871C224.19 24.9871 224.062 24.9734 223.907 24.946C223.752 24.9187 223.643 24.8959 223.579 24.8777L223.572 23.8523C223.609 23.8569 223.666 23.8614 223.743 23.866C223.825 23.8751 223.882 23.8796 223.914 23.8796C224.201 23.8796 224.445 23.8409 224.646 23.7634C224.846 23.6905 225.015 23.5652 225.151 23.3875C225.293 23.2143 225.413 22.975 225.514 22.6697L226.04 21.2341ZM224.529 14.6033L226.45 20.3455L226.778 21.6785L225.869 22.1433L223.148 14.6033H224.529ZM236.171 14.6033V21.9998H234.906V14.6033H236.171ZM235.74 18.0007V19.0398C235.485 19.1355 235.225 19.2221 234.961 19.2996C234.701 19.3725 234.425 19.4317 234.134 19.4773C233.847 19.5183 233.535 19.5388 233.197 19.5388C232.614 19.5388 232.108 19.4386 231.68 19.238C231.251 19.033 230.921 18.7253 230.688 18.3152C230.456 17.9005 230.34 17.3787 230.34 16.7498V14.5896H231.604V16.7498C231.604 17.1599 231.666 17.4926 231.789 17.7478C231.912 18.003 232.092 18.1921 232.329 18.3152C232.566 18.4337 232.855 18.4929 233.197 18.4929C233.525 18.4929 233.833 18.4724 234.12 18.4314C234.412 18.3858 234.69 18.3266 234.954 18.2537C235.223 18.1807 235.485 18.0964 235.74 18.0007ZM241.277 22.1365C240.762 22.1365 240.295 22.0499 239.876 21.8767C239.461 21.699 239.104 21.4506 238.803 21.1316C238.507 20.8126 238.279 20.4343 238.119 19.9968C237.96 19.5593 237.88 19.0808 237.88 18.5613V18.2742C237.88 17.6726 237.969 17.1371 238.146 16.6677C238.324 16.1938 238.566 15.7927 238.871 15.4646C239.176 15.1365 239.523 14.8881 239.91 14.7195C240.298 14.5509 240.699 14.4666 241.113 14.4666C241.642 14.4666 242.098 14.5577 242.48 14.74C242.868 14.9223 243.185 15.1775 243.431 15.5056C243.677 15.8292 243.859 16.212 243.978 16.6541C244.096 17.0916 244.155 17.5701 244.155 18.0896V18.657H238.632V17.6248H242.891V17.5291C242.872 17.2009 242.804 16.8819 242.686 16.572C242.572 16.2621 242.389 16.0069 242.139 15.8064C241.888 15.6059 241.546 15.5056 241.113 15.5056C240.826 15.5056 240.562 15.5671 240.32 15.6902C240.079 15.8087 239.871 15.9864 239.698 16.2234C239.525 16.4604 239.391 16.7498 239.295 17.0916C239.199 17.4333 239.151 17.8276 239.151 18.2742V18.5613C239.151 18.9122 239.199 19.2426 239.295 19.5525C239.395 19.8578 239.539 20.1267 239.726 20.3591C239.917 20.5916 240.147 20.7738 240.416 20.906C240.689 21.0382 240.999 21.1042 241.346 21.1042C241.792 21.1042 242.171 21.0131 242.48 20.8308C242.79 20.6485 243.062 20.4047 243.294 20.0994L244.06 20.7078C243.9 20.9493 243.697 21.1794 243.451 21.3982C243.205 21.6169 242.902 21.7947 242.542 21.9314C242.187 22.0681 241.765 22.1365 241.277 22.1365ZM250.649 17.8093V18.8347H246.739V17.8093H250.649ZM247.006 14.6033V21.9998H245.741V14.6033H247.006ZM251.675 14.6033V21.9998H250.403V14.6033H251.675ZM255.079 19.9968L258.49 14.6033H259.762V21.9998H258.49V16.6062L255.079 21.9998H253.821V14.6033H255.079V19.9968ZM264.861 22.1365C264.346 22.1365 263.879 22.0499 263.46 21.8767C263.045 21.699 262.688 21.4506 262.387 21.1316C262.09 20.8126 261.863 20.4343 261.703 19.9968C261.544 19.5593 261.464 19.0808 261.464 18.5613V18.2742C261.464 17.6726 261.553 17.1371 261.73 16.6677C261.908 16.1938 262.15 15.7927 262.455 15.4646C262.76 15.1365 263.107 14.8881 263.494 14.7195C263.882 14.5509 264.283 14.4666 264.697 14.4666C265.226 14.4666 265.682 14.5577 266.064 14.74C266.452 14.9223 266.769 15.1775 267.015 15.5056C267.261 15.8292 267.443 16.212 267.562 16.6541C267.68 17.0916 267.739 17.5701 267.739 18.0896V18.657H262.216V17.6248H266.475V17.5291C266.456 17.2009 266.388 16.8819 266.27 16.572C266.156 16.2621 265.973 16.0069 265.723 15.8064C265.472 15.6059 265.13 15.5056 264.697 15.5056C264.41 15.5056 264.146 15.5671 263.904 15.6902C263.663 15.8087 263.455 15.9864 263.282 16.2234C263.109 16.4604 262.975 16.7498 262.879 17.0916C262.783 17.4333 262.735 17.8276 262.735 18.2742V18.5613C262.735 18.9122 262.783 19.2426 262.879 19.5525C262.979 19.8578 263.123 20.1267 263.31 20.3591C263.501 20.5916 263.731 20.7738 264 20.906C264.273 21.0382 264.583 21.1042 264.93 21.1042C265.376 21.1042 265.755 21.0131 266.064 20.8308C266.374 20.6485 266.646 20.4047 266.878 20.0994L267.644 20.7078C267.484 20.9493 267.281 21.1794 267.035 21.3982C266.789 21.6169 266.486 21.7947 266.126 21.9314C265.771 22.0681 265.349 22.1365 264.861 22.1365ZM112.331 39.9968L115.742 34.6033H117.014V41.9998H115.742V36.6062L112.331 41.9998H111.073V34.6033H112.331V39.9968ZM124.062 37.8093V38.8347H120.151V37.8093H124.062ZM120.418 34.6033V41.9998H119.153V34.6033H120.418ZM125.087 34.6033V41.9998H123.815V34.6033H125.087ZM135.628 38.4314V38.575C135.628 39.0945 135.571 39.573 135.457 40.0105C135.343 40.4434 135.172 40.8194 134.944 41.1384C134.721 41.4574 134.443 41.7058 134.11 41.8835C133.778 42.0567 133.393 42.1433 132.955 42.1433C132.595 42.1433 132.278 42.0955 132.005 41.9998C131.731 41.8995 131.499 41.7559 131.308 41.5691C131.121 41.3822 130.97 41.1589 130.856 40.8992C130.747 40.6348 130.672 40.3386 130.631 40.0105V36.7292C130.672 36.3783 130.747 36.0639 130.856 35.7859C130.97 35.5079 131.121 35.2709 131.308 35.075C131.499 34.879 131.729 34.7286 131.998 34.6238C132.267 34.519 132.581 34.4666 132.941 34.4666C133.297 34.4666 133.616 34.5304 133.898 34.658C134.186 34.781 134.436 34.9587 134.65 35.1912C134.869 35.4236 135.049 35.7039 135.19 36.032C135.336 36.3556 135.446 36.7201 135.519 37.1257C135.591 37.5313 135.628 37.9666 135.628 38.4314ZM134.363 38.575V38.4314C134.363 38.1124 134.34 37.8093 134.295 37.5222C134.254 37.2306 134.188 36.9639 134.097 36.7224C134.01 36.4763 133.896 36.2621 133.755 36.0798C133.614 35.8975 133.443 35.7563 133.242 35.656C133.046 35.5557 132.821 35.5056 132.565 35.5056C132.292 35.5056 132.064 35.5398 131.882 35.6082C131.704 35.6765 131.565 35.7677 131.465 35.8816C131.365 35.991 131.292 36.1072 131.246 36.2302V40.5164C131.301 40.6166 131.381 40.7123 131.485 40.8035C131.59 40.8901 131.731 40.963 131.909 41.0222C132.087 41.0769 132.31 41.1042 132.579 41.1042C132.898 41.1042 133.169 41.0404 133.393 40.9128C133.62 40.7807 133.805 40.5984 133.946 40.366C134.092 40.1335 134.197 39.8647 134.261 39.5593C134.329 39.254 134.363 38.9259 134.363 38.575ZM126.844 38.575V38.4314C126.844 37.9666 126.88 37.5313 126.953 37.1257C127.026 36.7201 127.135 36.3556 127.281 36.032C127.427 35.7039 127.607 35.4236 127.821 35.1912C128.04 34.9587 128.291 34.781 128.573 34.658C128.86 34.5304 129.182 34.4666 129.537 34.4666C129.888 34.4666 130.193 34.519 130.453 34.6238C130.717 34.7286 130.941 34.879 131.123 35.075C131.305 35.2709 131.451 35.5079 131.561 35.7859C131.67 36.0639 131.747 36.3783 131.793 36.7292V39.8806C131.752 40.227 131.677 40.5391 131.567 40.8171C131.458 41.0951 131.312 41.3344 131.13 41.5349C130.948 41.7309 130.722 41.8813 130.453 41.9861C130.189 42.0909 129.879 42.1433 129.523 42.1433C129.086 42.1433 128.701 42.0567 128.368 41.8835C128.035 41.7058 127.755 41.4574 127.527 41.1384C127.304 40.8194 127.133 40.4434 127.015 40.0105C126.901 39.573 126.844 39.0945 126.844 38.575ZM128.115 38.4314V38.575C128.115 38.9259 128.145 39.254 128.204 39.5593C128.268 39.8647 128.366 40.1335 128.498 40.366C128.635 40.5984 128.812 40.7807 129.031 40.9128C129.25 41.0404 129.519 41.1042 129.838 41.1042C130.111 41.1042 130.337 41.0701 130.515 41.0017C130.692 40.9333 130.834 40.8445 130.938 40.7351C131.043 40.6257 131.123 40.5118 131.178 40.3933V36.2302C131.132 36.1072 131.057 35.991 130.952 35.8816C130.852 35.7677 130.713 35.6765 130.535 35.6082C130.357 35.5398 130.13 35.5056 129.852 35.5056C129.533 35.5056 129.261 35.5831 129.038 35.738C128.815 35.893 128.635 36.1049 128.498 36.3738C128.366 36.6427 128.268 36.9548 128.204 37.3103C128.145 37.6612 128.115 38.0349 128.115 38.4314ZM130.549 44.8435V31.4998H131.82V44.8435H130.549ZM136.947 38.3835V38.2263C136.947 37.6931 137.025 37.1986 137.18 36.7429C137.335 36.2826 137.558 35.8839 137.85 35.5466C138.141 35.2048 138.494 34.9405 138.909 34.7537C139.324 34.5623 139.789 34.4666 140.304 34.4666C140.823 34.4666 141.29 34.5623 141.705 34.7537C142.124 34.9405 142.48 35.2048 142.771 35.5466C143.068 35.8839 143.293 36.2826 143.448 36.7429C143.603 37.1986 143.681 37.6931 143.681 38.2263V38.3835C143.681 38.9167 143.603 39.4112 143.448 39.8669C143.293 40.3227 143.068 40.7214 142.771 41.0632C142.48 41.4005 142.127 41.6648 141.712 41.8562C141.302 42.0431 140.837 42.1365 140.317 42.1365C139.798 42.1365 139.331 42.0431 138.916 41.8562C138.501 41.6648 138.146 41.4005 137.85 41.0632C137.558 40.7214 137.335 40.3227 137.18 39.8669C137.025 39.4112 136.947 38.9167 136.947 38.3835ZM138.212 38.2263V38.3835C138.212 38.7527 138.255 39.1013 138.342 39.4294C138.428 39.753 138.558 40.0401 138.731 40.2908C138.909 40.5414 139.13 40.7397 139.395 40.8855C139.659 41.0268 139.966 41.0974 140.317 41.0974C140.664 41.0974 140.967 41.0268 141.227 40.8855C141.491 40.7397 141.71 40.5414 141.883 40.2908C142.056 40.0401 142.186 39.753 142.272 39.4294C142.364 39.1013 142.409 38.7527 142.409 38.3835V38.2263C142.409 37.8617 142.364 37.5177 142.272 37.1941C142.186 36.866 142.054 36.5766 141.876 36.3259C141.703 36.0707 141.484 35.8702 141.22 35.7244C140.96 35.5785 140.655 35.5056 140.304 35.5056C139.957 35.5056 139.652 35.5785 139.388 35.7244C139.128 35.8702 138.909 36.0707 138.731 36.3259C138.558 36.5766 138.428 36.866 138.342 37.1941C138.255 37.5177 138.212 37.8617 138.212 38.2263ZM146.531 36.0251V44.8435H145.26V34.6033H146.422L146.531 36.0251ZM151.515 38.24V38.3835C151.515 38.9213 151.451 39.4203 151.323 39.8806C151.196 40.3363 151.009 40.7328 150.763 41.0701C150.521 41.4073 150.223 41.6694 149.867 41.8562C149.512 42.0431 149.104 42.1365 148.644 42.1365C148.174 42.1365 147.759 42.059 147.399 41.9041C147.039 41.7491 146.734 41.5235 146.483 41.2273C146.233 40.9311 146.032 40.5756 145.882 40.1609C145.736 39.7462 145.636 39.2791 145.581 38.7595V37.9939C145.636 37.447 145.738 36.9571 145.889 36.5242C146.039 36.0912 146.237 35.7221 146.483 35.4167C146.734 35.1069 147.037 34.8722 147.393 34.7126C147.748 34.5486 148.158 34.4666 148.623 34.4666C149.088 34.4666 149.5 34.5577 149.86 34.74C150.22 34.9177 150.523 35.1729 150.77 35.5056C151.016 35.8383 151.2 36.2371 151.323 36.7019C151.451 37.1622 151.515 37.6749 151.515 38.24ZM150.243 38.3835V38.24C150.243 37.8708 150.204 37.5245 150.127 37.2009C150.049 36.8728 149.929 36.5857 149.765 36.3396C149.605 36.0889 149.4 35.893 149.149 35.7517C148.899 35.6059 148.6 35.533 148.254 35.533C147.935 35.533 147.657 35.5876 147.42 35.697C147.188 35.8064 146.989 35.9545 146.825 36.1414C146.661 36.3236 146.527 36.5333 146.422 36.7703C146.322 37.0027 146.246 37.2442 146.196 37.4949V39.2654C146.287 39.5844 146.415 39.8852 146.579 40.1677C146.743 40.4457 146.962 40.6713 147.235 40.8445C147.509 41.0131 147.853 41.0974 148.268 41.0974C148.609 41.0974 148.903 41.0268 149.149 40.8855C149.4 40.7397 149.605 40.5414 149.765 40.2908C149.929 40.0401 150.049 39.753 150.127 39.4294C150.204 39.1013 150.243 38.7527 150.243 38.3835ZM157.38 40.3181L159.896 34.6033H161.112L157.817 41.9998H156.942L153.661 34.6033H154.878L157.38 40.3181ZM154.509 34.6033V41.9998H153.244V34.6033H154.509ZM160.21 41.9998V34.6033H161.481V41.9998H160.21ZM167.88 40.7351V36.9275C167.88 36.6358 167.821 36.3829 167.702 36.1687C167.588 35.95 167.415 35.7813 167.183 35.6628C166.95 35.5444 166.663 35.4851 166.321 35.4851C166.002 35.4851 165.722 35.5398 165.48 35.6492C165.243 35.7585 165.057 35.9021 164.92 36.0798C164.788 36.2576 164.722 36.449 164.722 36.6541H163.457C163.457 36.3897 163.525 36.1277 163.662 35.8679C163.799 35.6082 163.995 35.3735 164.25 35.1638C164.51 34.9496 164.82 34.781 165.18 34.658C165.544 34.5304 165.95 34.4666 166.396 34.4666C166.934 34.4666 167.408 34.5577 167.818 34.74C168.233 34.9223 168.557 35.198 168.789 35.5671C169.026 35.9317 169.145 36.3897 169.145 36.9412V40.3865C169.145 40.6326 169.165 40.8946 169.206 41.1726C169.252 41.4506 169.318 41.6899 169.404 41.8904V41.9998H168.085C168.021 41.8539 167.971 41.6602 167.935 41.4187C167.898 41.1726 167.88 40.9447 167.88 40.7351ZM168.099 37.5154L168.112 38.4041H166.834C166.474 38.4041 166.153 38.4337 165.87 38.4929C165.588 38.5476 165.351 38.6319 165.159 38.7458C164.968 38.8598 164.822 39.0033 164.722 39.1765C164.621 39.3451 164.571 39.5434 164.571 39.7712C164.571 40.0037 164.624 40.2156 164.729 40.407C164.833 40.5984 164.991 40.7511 165.2 40.865C165.414 40.9744 165.676 41.0291 165.986 41.0291C166.374 41.0291 166.715 40.947 167.012 40.783C167.308 40.6189 167.543 40.4184 167.716 40.1814C167.894 39.9444 167.989 39.7143 168.003 39.491L168.543 40.0994C168.511 40.2908 168.424 40.5027 168.283 40.7351C168.142 40.9675 167.953 41.1908 167.716 41.405C167.483 41.6147 167.205 41.7901 166.882 41.9314C166.563 42.0681 166.203 42.1365 165.802 42.1365C165.3 42.1365 164.861 42.0385 164.482 41.8425C164.109 41.6466 163.817 41.3845 163.607 41.0564C163.402 40.7237 163.3 40.3523 163.3 39.9421C163.3 39.5457 163.377 39.197 163.532 38.8962C163.687 38.5909 163.91 38.338 164.202 38.1375C164.494 37.9324 164.845 37.7774 165.255 37.6726C165.665 37.5678 166.123 37.5154 166.629 37.5154H168.099ZM171.243 41.9998V34.6033H172.508V40.9607H175.912V34.6033H177.184V41.9998H171.243ZM178.059 40.9607L177.936 44.1941H176.808V41.9998H175.844V40.9607H178.059ZM180.8 39.9968L184.211 34.6033H185.482V41.9998H184.211V36.6062L180.8 41.9998H179.542V34.6033H180.8V39.9968ZM188.88 39.9968L192.291 34.6033H193.562V41.9998H192.291V36.6062L188.88 41.9998H187.622V34.6033H188.88V39.9968ZM110.629 58.3835V58.2263C110.629 57.6931 110.706 57.1986 110.861 56.7429C111.016 56.2826 111.24 55.8839 111.531 55.5466C111.823 55.2048 112.176 54.9405 112.591 54.7537C113.006 54.5623 113.47 54.4666 113.985 54.4666C114.505 54.4666 114.972 54.5623 115.387 54.7537C115.806 54.9405 116.161 55.2048 116.453 55.5466C116.749 55.8839 116.975 56.2826 117.13 56.7429C117.285 57.1986 117.362 57.6931 117.362 58.2263V58.3835C117.362 58.9167 117.285 59.4112 117.13 59.8669C116.975 60.3227 116.749 60.7214 116.453 61.0632C116.161 61.4005 115.808 61.6648 115.394 61.8562C114.983 62.0431 114.519 62.1365 113.999 62.1365C113.479 62.1365 113.012 62.0431 112.598 61.8562C112.183 61.6648 111.827 61.4005 111.531 61.0632C111.24 60.7214 111.016 60.3227 110.861 59.8669C110.706 59.4112 110.629 58.9167 110.629 58.3835ZM111.894 58.2263V58.3835C111.894 58.7527 111.937 59.1013 112.023 59.4294C112.11 59.753 112.24 60.0401 112.413 60.2908C112.591 60.5414 112.812 60.7397 113.076 60.8855C113.34 61.0268 113.648 61.0974 113.999 61.0974C114.345 61.0974 114.648 61.0268 114.908 60.8855C115.173 60.7397 115.391 60.5414 115.564 60.2908C115.738 60.0401 115.868 59.753 115.954 59.4294C116.045 59.1013 116.091 58.7527 116.091 58.3835V58.2263C116.091 57.8617 116.045 57.5177 115.954 57.1941C115.868 56.866 115.735 56.5766 115.558 56.3259C115.384 56.0707 115.166 55.8702 114.901 55.7244C114.642 55.5785 114.336 55.5056 113.985 55.5056C113.639 55.5056 113.334 55.5785 113.069 55.7244C112.81 55.8702 112.591 56.0707 112.413 56.3259C112.24 56.5766 112.11 56.866 112.023 57.1941C111.937 57.5177 111.894 57.8617 111.894 58.2263ZM125.894 58.7458H123.467L123.453 57.7341H125.436C125.827 57.7341 126.153 57.6954 126.413 57.6179C126.677 57.5404 126.876 57.4242 127.008 57.2693C127.14 57.1143 127.206 56.9229 127.206 56.6951C127.206 56.5173 127.167 56.3624 127.09 56.2302C127.017 56.0935 126.905 55.9819 126.755 55.8953C126.604 55.8041 126.418 55.738 126.194 55.697C125.976 55.6514 125.718 55.6287 125.422 55.6287H123.802V61.9998H122.537V54.6033H125.422C125.891 54.6033 126.313 54.6443 126.687 54.7263C127.065 54.8083 127.386 54.9337 127.65 55.1023C127.919 55.2664 128.124 55.476 128.266 55.7312C128.407 55.9864 128.478 56.2872 128.478 56.6335C128.478 56.8569 128.432 57.0688 128.341 57.2693C128.25 57.4698 128.115 57.6475 127.938 57.8025C127.76 57.9574 127.541 58.085 127.281 58.1853C127.021 58.281 126.723 58.3425 126.386 58.3699L125.894 58.7458ZM125.894 61.9998H123.009L123.638 60.9744H125.894C126.244 60.9744 126.536 60.9311 126.769 60.8445C127.001 60.7533 127.174 60.6257 127.288 60.4617C127.407 60.2931 127.466 60.0925 127.466 59.8601C127.466 59.6277 127.407 59.4294 127.288 59.2654C127.174 59.0968 127.001 58.9692 126.769 58.8826C126.536 58.7914 126.244 58.7458 125.894 58.7458H123.973L123.986 57.7341H126.386L126.844 58.1169C127.249 58.1488 127.593 58.2491 127.876 58.4177C128.159 58.5863 128.373 58.8005 128.519 59.0603C128.664 59.3155 128.737 59.5935 128.737 59.8943C128.737 60.2406 128.671 60.546 128.539 60.8103C128.411 61.0746 128.225 61.2957 127.979 61.4734C127.732 61.6466 127.434 61.7787 127.083 61.8699C126.732 61.9565 126.336 61.9998 125.894 61.9998ZM133.194 58.4656H131.834V57.6863H133.092C133.443 57.6863 133.721 57.643 133.926 57.5564C134.131 57.4653 134.277 57.3399 134.363 57.1804C134.45 57.0209 134.493 56.8341 134.493 56.6199C134.493 56.4285 134.443 56.2485 134.343 56.0798C134.247 55.9067 134.092 55.7677 133.878 55.6628C133.664 55.5535 133.377 55.4988 133.017 55.4988C132.725 55.4988 132.461 55.5512 132.224 55.656C131.987 55.7563 131.798 55.8953 131.656 56.073C131.52 56.2462 131.451 56.4421 131.451 56.6609H130.187C130.187 56.2097 130.314 55.8223 130.569 55.4988C130.829 55.1707 131.173 54.9177 131.602 54.74C132.035 54.5623 132.506 54.4734 133.017 54.4734C133.445 54.4734 133.828 54.5212 134.165 54.6169C134.507 54.7081 134.796 54.8448 135.033 55.0271C135.27 55.2048 135.45 55.4281 135.573 55.697C135.701 55.9613 135.765 56.269 135.765 56.6199C135.765 56.8705 135.705 57.1075 135.587 57.3308C135.468 57.5541 135.298 57.7524 135.074 57.9255C134.851 58.0942 134.58 58.2263 134.261 58.322C133.946 58.4177 133.591 58.4656 133.194 58.4656ZM131.834 57.9871H133.194C133.636 57.9871 134.026 58.0304 134.363 58.1169C134.701 58.199 134.983 58.322 135.211 58.4861C135.439 58.6501 135.61 58.8529 135.724 59.0945C135.842 59.3315 135.901 59.6049 135.901 59.9148C135.901 60.2611 135.831 60.5733 135.689 60.8513C135.553 61.1248 135.357 61.3572 135.102 61.5486C134.846 61.74 134.541 61.8858 134.186 61.9861C133.835 62.0863 133.445 62.1365 133.017 62.1365C132.538 62.1365 132.073 62.0544 131.622 61.8904C131.171 61.7263 130.799 61.4734 130.508 61.1316C130.216 60.7852 130.07 60.3455 130.07 59.8123H131.335C131.335 60.0356 131.406 60.2475 131.547 60.448C131.688 60.6485 131.884 60.8103 132.135 60.9333C132.39 61.0564 132.684 61.1179 133.017 61.1179C133.372 61.1179 133.668 61.0632 133.905 60.9539C134.142 60.8445 134.32 60.6986 134.438 60.5164C134.562 60.3341 134.623 60.1358 134.623 59.9216C134.623 59.6436 134.568 59.4203 134.459 59.2517C134.35 59.0831 134.181 58.96 133.953 58.8826C133.73 58.8005 133.443 58.7595 133.092 58.7595H131.834V57.9871ZM141.903 60.7351V56.9275C141.903 56.6358 141.844 56.3829 141.726 56.1687C141.612 55.95 141.438 55.7813 141.206 55.6628C140.974 55.5444 140.687 55.4851 140.345 55.4851C140.026 55.4851 139.745 55.5398 139.504 55.6492C139.267 55.7585 139.08 55.9021 138.943 56.0798C138.811 56.2576 138.745 56.449 138.745 56.6541H137.48C137.48 56.3897 137.549 56.1277 137.686 55.8679C137.822 55.6082 138.018 55.3735 138.273 55.1638C138.533 54.9496 138.843 54.781 139.203 54.658C139.568 54.5304 139.973 54.4666 140.42 54.4666C140.958 54.4666 141.432 54.5577 141.842 54.74C142.257 54.9223 142.58 55.198 142.812 55.5671C143.049 55.9317 143.168 56.3897 143.168 56.9412V60.3865C143.168 60.6326 143.188 60.8946 143.229 61.1726C143.275 61.4506 143.341 61.6899 143.428 61.8904V61.9998H142.108C142.045 61.8539 141.994 61.6602 141.958 61.4187C141.922 61.1726 141.903 60.9447 141.903 60.7351ZM142.122 57.5154L142.136 58.4041H140.857C140.497 58.4041 140.176 58.4337 139.894 58.4929C139.611 58.5476 139.374 58.6319 139.183 58.7458C138.991 58.8598 138.845 59.0033 138.745 59.1765C138.645 59.3451 138.595 59.5434 138.595 59.7712C138.595 60.0037 138.647 60.2156 138.752 60.407C138.857 60.5984 139.014 60.7511 139.224 60.865C139.438 60.9744 139.7 61.0291 140.01 61.0291C140.397 61.0291 140.739 60.947 141.035 60.783C141.331 60.6189 141.566 60.4184 141.739 60.1814C141.917 59.9444 142.013 59.7143 142.026 59.491L142.566 60.0994C142.535 60.2908 142.448 60.5027 142.307 60.7351C142.165 60.9675 141.976 61.1908 141.739 61.405C141.507 61.6147 141.229 61.7901 140.905 61.9314C140.586 62.0681 140.226 62.1365 139.825 62.1365C139.324 62.1365 138.884 62.0385 138.506 61.8425C138.132 61.6466 137.84 61.3845 137.631 61.0564C137.426 60.7237 137.323 60.3523 137.323 59.9421C137.323 59.5457 137.401 59.197 137.556 58.8962C137.711 58.5909 137.934 58.338 138.226 58.1375C138.517 57.9324 138.868 57.7774 139.278 57.6726C139.688 57.5678 140.146 57.5154 140.652 57.5154H142.122ZM146.524 59.9968L149.936 54.6033H151.207V61.9998H149.936V56.6062L146.524 61.9998H145.267V54.6033H146.524V59.9968ZM157.489 60.3181L160.005 54.6033H161.222L157.927 61.9998H157.052L153.771 54.6033H154.987L157.489 60.3181ZM154.618 54.6033V61.9998H153.354V54.6033H154.618ZM160.319 61.9998V54.6033H161.591V61.9998H160.319ZM163.293 58.3835V58.2263C163.293 57.6931 163.37 57.1986 163.525 56.7429C163.68 56.2826 163.904 55.8839 164.195 55.5466C164.487 55.2048 164.84 54.9405 165.255 54.7537C165.67 54.5623 166.134 54.4666 166.649 54.4666C167.169 54.4666 167.636 54.5623 168.051 54.7537C168.47 54.9405 168.826 55.2048 169.117 55.5466C169.413 55.8839 169.639 56.2826 169.794 56.7429C169.949 57.1986 170.026 57.6931 170.026 58.2263V58.3835C170.026 58.9167 169.949 59.4112 169.794 59.8669C169.639 60.3227 169.413 60.7214 169.117 61.0632C168.826 61.4005 168.472 61.6648 168.058 61.8562C167.647 62.0431 167.183 62.1365 166.663 62.1365C166.144 62.1365 165.676 62.0431 165.262 61.8562C164.847 61.6648 164.492 61.4005 164.195 61.0632C163.904 60.7214 163.68 60.3227 163.525 59.8669C163.37 59.4112 163.293 58.9167 163.293 58.3835ZM164.558 58.2263V58.3835C164.558 58.7527 164.601 59.1013 164.688 59.4294C164.774 59.753 164.904 60.0401 165.077 60.2908C165.255 60.5414 165.476 60.7397 165.74 60.8855C166.005 61.0268 166.312 61.0974 166.663 61.0974C167.009 61.0974 167.312 61.0268 167.572 60.8855C167.837 60.7397 168.055 60.5414 168.229 60.2908C168.402 60.0401 168.532 59.753 168.618 59.4294C168.709 59.1013 168.755 58.7527 168.755 58.3835V58.2263C168.755 57.8617 168.709 57.5177 168.618 57.1941C168.532 56.866 168.399 56.5766 168.222 56.3259C168.049 56.0707 167.83 55.8702 167.565 55.7244C167.306 55.5785 167 55.5056 166.649 55.5056C166.303 55.5056 165.998 55.5785 165.733 55.7244C165.474 55.8702 165.255 56.0707 165.077 56.3259C164.904 56.5766 164.774 56.866 164.688 57.1941C164.601 57.5177 164.558 57.8617 164.558 58.2263ZM171.277 58.3835V58.2263C171.277 57.6931 171.355 57.1986 171.51 56.7429C171.665 56.2826 171.888 55.8839 172.18 55.5466C172.471 55.2048 172.825 54.9405 173.239 54.7537C173.654 54.5623 174.119 54.4666 174.634 54.4666C175.153 54.4666 175.62 54.5623 176.035 54.7537C176.454 54.9405 176.81 55.2048 177.102 55.5466C177.398 55.8839 177.623 56.2826 177.778 56.7429C177.933 57.1986 178.011 57.6931 178.011 58.2263V58.3835C178.011 58.9167 177.933 59.4112 177.778 59.8669C177.623 60.3227 177.398 60.7214 177.102 61.0632C176.81 61.4005 176.457 61.6648 176.042 61.8562C175.632 62.0431 175.167 62.1365 174.647 62.1365C174.128 62.1365 173.661 62.0431 173.246 61.8562C172.831 61.6648 172.476 61.4005 172.18 61.0632C171.888 60.7214 171.665 60.3227 171.51 59.8669C171.355 59.4112 171.277 58.9167 171.277 58.3835ZM172.542 58.2263V58.3835C172.542 58.7527 172.585 59.1013 172.672 59.4294C172.758 59.753 172.888 60.0401 173.062 60.2908C173.239 60.5414 173.46 60.7397 173.725 60.8855C173.989 61.0268 174.297 61.0974 174.647 61.0974C174.994 61.0974 175.297 61.0268 175.557 60.8855C175.821 60.7397 176.04 60.5414 176.213 60.2908C176.386 60.0401 176.516 59.753 176.603 59.4294C176.694 59.1013 176.739 58.7527 176.739 58.3835V58.2263C176.739 57.8617 176.694 57.5177 176.603 57.1941C176.516 56.866 176.384 56.5766 176.206 56.3259C176.033 56.0707 175.814 55.8702 175.55 55.7244C175.29 55.5785 174.985 55.5056 174.634 55.5056C174.287 55.5056 173.982 55.5785 173.718 55.7244C173.458 55.8702 173.239 56.0707 173.062 56.3259C172.888 56.5766 172.758 56.866 172.672 57.1941C172.585 57.5177 172.542 57.8617 172.542 58.2263ZM184.525 54.6033V55.6492H180.786V54.6033H184.525ZM180.971 54.6033V61.9998H179.706V54.6033H180.971ZM185.646 54.6033V61.9998H184.375V54.6033H185.646ZM188.716 57.1462H190.938C191.535 57.1462 192.038 57.2511 192.448 57.4607C192.858 57.6658 193.168 57.9506 193.378 58.3152C193.592 58.6752 193.699 59.0854 193.699 59.5457C193.699 59.8875 193.64 60.2087 193.521 60.5095C193.403 60.8057 193.225 61.0655 192.988 61.2888C192.756 61.5121 192.466 61.6876 192.12 61.8152C191.778 61.9382 191.384 61.9998 190.938 61.9998H187.793V54.6033H189.058V60.9607H190.938C191.302 60.9607 191.594 60.8946 191.812 60.7625C192.031 60.6303 192.188 60.4594 192.284 60.2498C192.38 60.0401 192.428 59.8214 192.428 59.5935C192.428 59.3702 192.38 59.1514 192.284 58.9373C192.188 58.7231 192.031 58.5453 191.812 58.4041C191.594 58.2582 191.302 58.1853 190.938 58.1853H188.716V57.1462ZM196.331 54.6033V61.9998H195.066V54.6033H196.331ZM201.561 54.6033V61.9998H200.289V54.6033H201.561ZM204.042 54.6033V55.6287H197.855V54.6033H204.042ZM207.809 62.1365C207.294 62.1365 206.826 62.0499 206.407 61.8767C205.993 61.699 205.635 61.4506 205.334 61.1316C205.038 60.8126 204.81 60.4343 204.65 59.9968C204.491 59.5593 204.411 59.0808 204.411 58.5613V58.2742C204.411 57.6726 204.5 57.1371 204.678 56.6677C204.855 56.1938 205.097 55.7927 205.402 55.4646C205.708 55.1365 206.054 54.8881 206.441 54.7195C206.829 54.5509 207.23 54.4666 207.645 54.4666C208.173 54.4666 208.629 54.5577 209.012 54.74C209.399 54.9223 209.716 55.1775 209.962 55.5056C210.208 55.8292 210.39 56.212 210.509 56.6541C210.627 57.0916 210.687 57.5701 210.687 58.0896V58.657H205.163V57.6248H209.422V57.5291C209.404 57.2009 209.335 56.8819 209.217 56.572C209.103 56.2621 208.921 56.0069 208.67 55.8064C208.419 55.6059 208.077 55.5056 207.645 55.5056C207.357 55.5056 207.093 55.5671 206.852 55.6902C206.61 55.8087 206.403 55.9864 206.229 56.2234C206.056 56.4604 205.922 56.7498 205.826 57.0916C205.73 57.4333 205.683 57.8276 205.683 58.2742V58.5613C205.683 58.9122 205.73 59.2426 205.826 59.5525C205.926 59.8578 206.07 60.1267 206.257 60.3591C206.448 60.5916 206.678 60.7738 206.947 60.906C207.221 61.0382 207.531 61.1042 207.877 61.1042C208.324 61.1042 208.702 61.0131 209.012 60.8308C209.322 60.6485 209.593 60.4047 209.825 60.0994L210.591 60.7078C210.431 60.9493 210.229 61.1794 209.982 61.3982C209.736 61.6169 209.433 61.7947 209.073 61.9314C208.718 62.0681 208.296 62.1365 207.809 62.1365Z" fill="black"/>
<g filter="url(#filter0_d_316_448)">
<path d="M316.5 54.4998C323.404 47.5962 323.404 36.4033 316.5 29.4997C309.596 22.5962 298.404 22.5962 291.5 29.4998C284.596 36.4033 284.596 47.5962 291.5 54.4998C298.404 61.4033 309.596 61.4033 316.5 54.4998Z" fill="white"/>
</g>
<path d="M309.526 41.9979C309.529 43.045 309.222 44.0697 308.643 44.9426C308.065 45.8155 307.241 46.4976 306.276 46.9028C305.31 47.308 304.246 47.4183 303.218 47.2196C302.19 47.0209 301.244 46.5222 300.499 45.7863C299.754 45.0505 299.243 44.1106 299.032 43.085C298.82 42.0594 298.917 40.9942 299.31 40.0237C299.703 39.0531 300.375 38.2208 301.241 37.6315C302.106 37.0423 303.127 36.7226 304.174 36.7128C304.874 36.704 305.568 36.8343 306.217 37.0959C306.866 37.3576 307.456 37.7455 307.954 38.2372C308.452 38.7288 308.847 39.3144 309.117 39.96C309.387 40.6055 309.526 41.2982 309.526 41.9979V41.9979Z" fill="#00A3FF"/>
<path d="M304.24 44.0687C305.384 44.0687 306.311 43.1415 306.311 41.9977C306.311 40.854 305.384 39.9268 304.24 39.9268C303.096 39.9268 302.169 40.854 302.169 41.9977C302.169 43.1415 303.096 44.0687 304.24 44.0687Z" fill="white"/>
<path d="M85 41.9998L59 41.9998" stroke="#00A3FF" stroke-miterlimit="10" stroke-linecap="round"/>
<path d="M80 41.4763C79.9954 42.9607 80.4313 44.413 81.2526 45.6495C82.0739 46.8859 83.2436 47.8508 84.6136 48.4221C85.9837 48.9934 87.4924 49.1452 88.9488 48.8585C90.4052 48.5718 91.7437 47.8593 92.795 46.8114C93.8462 45.7634 94.5629 44.4271 94.8542 42.9716C95.1455 41.5161 94.9983 40.0069 94.4313 38.6351C93.8644 37.2633 92.9031 36.0905 91.6692 35.2654C90.4354 34.4402 88.9844 33.9998 87.5 33.9998C85.515 33.9997 83.6108 34.7867 82.205 36.1882C80.7991 37.5896 80.0062 39.4913 80 41.4763V41.4763Z" fill="#00A3FF"/>
<path d="M87.4766 44.406C85.8586 44.406 84.5469 43.0943 84.5469 41.4763C84.5469 39.8583 85.8586 38.5466 87.4766 38.5466C89.0946 38.5466 90.4062 39.8583 90.4062 41.4763C90.4062 43.0943 89.0946 44.406 87.4766 44.406Z" fill="white"/>
<defs>
<filter id="filter0_d_316_448" x="262.322" y="0.322021" width="83.3555" height="83.3555" filterUnits="userSpaceOnUse" color-interpolation-filters="sRGB">
<feFlood flood-opacity="0" result="BackgroundImageFix"/>
<feColorMatrix in="SourceAlpha" type="matrix" values="0 0 0 0 0 0 0 0 0 0 0 0 0 0 0 0 0 0 127 0" result="hardAlpha"/>
<feOffset/>
<feGaussianBlur stdDeviation="12"/>
<feComposite in2="hardAlpha" operator="out"/>
<feColorMatrix type="matrix" values="0 0 0 0 0.579167 0 0 0 0 0.579167 0 0 0 0 0.579167 0 0 0 0.3 0"/>
<feBlend mode="normal" in2="BackgroundImageFix" result="effect1_dropShadow_316_448"/>
<feBlend mode="normal" in="SourceGraphic" in2="effect1_dropShadow_316_448" result="shape"/>
</filter>
</defs>
</svg>
