<svg width="652" height="116" viewBox="0 0 652 116" fill="none" xmlns="http://www.w3.org/2000/svg">
<path d="M115.819 57.9096C115.819 25.927 89.8924 0.0122581 57.9097 0.0274026C25.9271 0.0425471 -3.92932e-06 25.9818 -2.53132e-06 57.9645C-1.13331e-06 89.9471 25.9271 115.862 57.9097 115.847C89.8924 115.832 115.819 89.8923 115.819 57.9096Z" fill="#00A3FF"/>
<path d="M56.1094 66.4941C52.3398 66.4941 48.9902 65.0195 46.0605 62.0703C43.1504 59.1016 41.6953 55.6738 41.6953 51.7871C41.6953 47.666 43.1895 44.1895 46.1777 41.3574C49.1855 38.5254 52.9844 37.1094 57.5742 37.1094C62.1836 37.1094 65.9922 38.5254 69 41.3574C72.0078 44.1895 73.5117 47.666 73.5117 51.7871C73.5117 53.4668 73.209 55.166 72.6035 56.8848C71.998 58.584 71.3926 59.8535 70.7871 60.6934L69.9082 62.0117L58.1895 80H48.9023L57.8965 66.2012C57.3887 66.3965 56.793 66.4941 56.1094 66.4941ZM52.418 46.8945C51.0703 48.2031 50.3965 49.8438 50.3965 51.8164C50.3965 53.7695 51.0703 55.4102 52.418 56.7383C53.7852 58.0469 55.5039 58.7012 57.5742 58.7012C59.6641 58.7012 61.3926 58.0469 62.7598 56.7383C64.127 55.4102 64.8105 53.7695 64.8105 51.8164C64.8105 49.8438 64.127 48.2031 62.7598 46.8945C61.3926 45.5664 59.6641 44.9023 57.5742 44.9023C55.5039 44.9023 53.7852 45.5664 52.418 46.8945Z" fill="white"/>
<path d="M476 58.0002L594 58.0002" stroke="#00A3FF" stroke-miterlimit="10" stroke-linecap="round"/>
<g filter="url(#filter0_d_822_2150)">
<path d="M618.721 78.7318C630.083 67.3747 630.083 48.9612 618.721 37.6041C607.358 26.247 588.936 26.2471 577.574 37.6042C566.211 48.9612 566.211 67.3747 577.574 78.7318C588.936 90.0889 607.358 90.0889 618.721 78.7318Z" fill="white"/>
</g>
<path d="M607.241 58.1649C607.246 59.8876 606.741 61.5732 605.789 63.0093C604.837 64.4453 603.481 65.5674 601.892 66.234C600.302 66.9007 598.551 67.082 596.859 66.7551C595.167 66.4282 593.61 65.6078 592.383 64.3973C591.157 63.1868 590.317 61.6405 589.969 59.9533C589.621 58.2662 589.78 56.5137 590.427 54.9171C591.075 53.3205 592.18 51.9511 593.605 50.9818C595.03 50.0125 596.71 49.4866 598.433 49.4704C599.585 49.456 600.727 49.6702 601.795 50.1007C602.863 50.5312 603.835 51.1693 604.655 51.9781C605.474 52.7869 606.124 53.7503 606.568 54.8123C607.012 55.8743 607.241 57.0139 607.241 58.1649Z" fill="#00A3FF"/>
<path d="M598.542 61.5717C600.425 61.5717 601.951 60.0464 601.951 58.1648C601.951 56.2832 600.425 54.7578 598.542 54.7578C596.66 54.7578 595.134 56.2832 595.134 58.1648C595.134 60.0464 596.66 61.5717 598.542 61.5717Z" fill="white"/>
<path d="M478.452 58.1647C478.457 59.8909 477.95 61.5798 476.994 63.0177C476.039 64.4555 474.678 65.5777 473.084 66.242C471.49 66.9063 469.735 67.0829 468.04 66.7495C466.346 66.416 464.789 65.5875 463.565 64.3688C462.342 63.1502 461.509 61.5962 461.17 59.9036C460.831 58.211 461.002 56.4559 461.662 54.8606C462.321 53.2653 463.44 51.9016 464.875 50.942C466.311 49.9824 467.999 49.4702 469.726 49.4702C472.035 49.4702 474.251 50.3854 475.886 52.0151C477.522 53.6449 478.445 55.8563 478.452 58.1647Z" fill="#00A3FF"/>
<path d="M469.753 61.5717C471.636 61.5717 473.162 60.0464 473.162 58.1648C473.162 56.2832 471.636 54.7578 469.753 54.7578C467.871 54.7578 466.345 56.2832 466.345 58.1648C466.345 60.0464 467.871 61.5717 469.753 61.5717Z" fill="white"/>
<path d="M150.761 8.35962V24.0002H148.698V10.0569H140.985V24.0002H138.912V8.35962H150.761ZM156.207 14.6116V28.469H154.209V12.3772H156.035L156.207 14.6116ZM164.038 18.092V18.3176C164.038 19.1627 163.938 19.9469 163.737 20.6702C163.537 21.3863 163.243 22.0094 162.856 22.5393C162.477 23.0693 162.008 23.481 161.449 23.7747C160.891 24.0683 160.25 24.2151 159.526 24.2151C158.789 24.2151 158.137 24.0933 157.571 23.8499C157.006 23.6064 156.526 23.2519 156.132 22.7864C155.738 22.3209 155.423 21.7623 155.187 21.1106C154.957 20.4589 154.8 19.7249 154.714 18.9084V17.7053C154.8 16.8459 154.961 16.0761 155.197 15.3958C155.434 14.7154 155.745 14.1353 156.132 13.6555C156.526 13.1685 157.002 12.7997 157.561 12.5491C158.119 12.2913 158.764 12.1624 159.494 12.1624C160.225 12.1624 160.873 12.3056 161.438 12.592C162.004 12.8713 162.48 13.2724 162.867 13.7952C163.254 14.318 163.544 14.9446 163.737 15.675C163.938 16.3984 164.038 17.204 164.038 18.092ZM162.04 18.3176V18.092C162.04 17.512 161.979 16.9677 161.857 16.4592C161.736 15.9436 161.546 15.4924 161.288 15.1057C161.037 14.7118 160.715 14.4039 160.321 14.1819C159.927 13.9527 159.458 13.8381 158.914 13.8381C158.413 13.8381 157.976 13.9241 157.604 14.0959C157.238 14.2678 156.927 14.5006 156.669 14.7942C156.411 15.0806 156.2 15.4101 156.035 15.7825C155.878 16.1477 155.759 16.5273 155.681 16.9211V19.7034C155.824 20.2047 156.024 20.6773 156.282 21.1213C156.54 21.5582 156.884 21.9127 157.313 22.1848C157.743 22.4498 158.284 22.5823 158.936 22.5823C159.473 22.5823 159.935 22.4713 160.321 22.2493C160.715 22.0201 161.037 21.7086 161.288 21.3147C161.546 20.9208 161.736 20.4696 161.857 19.9612C161.979 19.4456 162.04 18.8977 162.04 18.3176ZM166.047 18.3176V18.0706C166.047 17.2327 166.169 16.4556 166.412 15.7395C166.656 15.0162 167.007 14.3896 167.465 13.8596C167.923 13.3225 168.478 12.9071 169.13 12.6135C169.782 12.3127 170.512 12.1624 171.321 12.1624C172.138 12.1624 172.872 12.3127 173.523 12.6135C174.182 12.9071 174.741 13.3225 175.199 13.8596C175.665 14.3896 176.019 15.0162 176.263 15.7395C176.506 16.4556 176.628 17.2327 176.628 18.0706V18.3176C176.628 19.1555 176.506 19.9325 176.263 20.6487C176.019 21.3648 175.665 21.9915 175.199 22.5286C174.741 23.0585 174.186 23.4739 173.534 23.7747C172.89 24.0683 172.159 24.2151 171.343 24.2151C170.526 24.2151 169.792 24.0683 169.141 23.7747C168.489 23.4739 167.93 23.0585 167.465 22.5286C167.007 21.9915 166.656 21.3648 166.412 20.6487C166.169 19.9325 166.047 19.1555 166.047 18.3176ZM168.034 18.0706V18.3176C168.034 18.8977 168.102 19.4456 168.238 19.9612C168.374 20.4696 168.578 20.9208 168.851 21.3147C169.13 21.7086 169.477 22.0201 169.893 22.2493C170.308 22.4713 170.791 22.5823 171.343 22.5823C171.887 22.5823 172.363 22.4713 172.771 22.2493C173.187 22.0201 173.531 21.7086 173.803 21.3147C174.075 20.9208 174.279 20.4696 174.415 19.9612C174.558 19.4456 174.63 18.8977 174.63 18.3176V18.0706C174.63 17.4976 174.558 16.9569 174.415 16.4485C174.279 15.9329 174.071 15.4781 173.792 15.0842C173.52 14.6832 173.176 14.3681 172.761 14.1389C172.353 13.9097 171.873 13.7952 171.321 13.7952C170.777 13.7952 170.297 13.9097 169.882 14.1389C169.474 14.3681 169.13 14.6832 168.851 15.0842C168.578 15.4781 168.374 15.9329 168.238 16.4485C168.102 16.9569 168.034 17.4976 168.034 18.0706ZM180.441 12.3772H182.429L182.257 16.7278C182.214 17.8306 182.089 18.7831 181.881 19.5852C181.673 20.3873 181.408 21.0712 181.086 21.637C180.764 22.1956 180.402 22.6646 180.001 23.0442C179.607 23.4237 179.199 23.7424 178.776 24.0002H177.788L177.842 22.3782L178.25 22.3674C178.486 22.0881 178.715 21.8017 178.938 21.5081C179.16 21.2073 179.364 20.8528 179.55 20.4446C179.736 20.0292 179.89 19.5243 180.012 18.9299C180.141 18.3284 180.223 17.5943 180.259 16.7278L180.441 12.3772ZM180.936 12.3772H187.929V24.0002H185.941V14.2141H180.936V12.3772ZM177.337 22.3674H189.422V27.427H187.435V24.0002H179.324V27.427H177.326L177.337 22.3674ZM198.478 22.0129V16.0295C198.478 15.5712 198.384 15.1737 198.198 14.8372C198.019 14.4934 197.747 14.2284 197.382 14.0422C197.017 13.856 196.565 13.7629 196.028 13.7629C195.527 13.7629 195.087 13.8489 194.707 14.0208C194.335 14.1926 194.041 14.4182 193.826 14.6975C193.618 14.9768 193.515 15.2776 193.515 15.5999H191.527C191.527 15.1845 191.635 14.7727 191.85 14.3645C192.064 13.9563 192.372 13.5875 192.773 13.2581C193.182 12.9215 193.669 12.6565 194.234 12.4631C194.807 12.2626 195.445 12.1624 196.146 12.1624C196.992 12.1624 197.736 12.3056 198.381 12.592C199.033 12.8785 199.541 13.3118 199.906 13.8918C200.279 14.4648 200.465 15.1845 200.465 16.051V21.4651C200.465 21.8518 200.497 22.2636 200.562 22.7004C200.633 23.1373 200.737 23.5133 200.873 23.8284V24.0002H198.8C198.7 23.7711 198.621 23.4667 198.563 23.0872C198.506 22.7004 198.478 22.3424 198.478 22.0129ZM198.821 16.9534L198.843 18.3499H196.834C196.268 18.3499 195.763 18.3964 195.319 18.4895C194.875 18.5754 194.503 18.7079 194.202 18.887C193.901 19.066 193.672 19.2916 193.515 19.5637C193.357 19.8287 193.278 20.1402 193.278 20.4983C193.278 20.8635 193.361 21.1965 193.525 21.4973C193.69 21.7981 193.937 22.038 194.267 22.217C194.603 22.3889 195.015 22.4749 195.502 22.4749C196.111 22.4749 196.648 22.3459 197.113 22.0881C197.579 21.8303 197.948 21.5152 198.22 21.1428C198.499 20.7704 198.649 20.4088 198.671 20.0579L199.52 21.0139C199.469 21.3147 199.333 21.6477 199.111 22.0129C198.889 22.3782 198.592 22.7291 198.22 23.0657C197.854 23.3951 197.418 23.6708 196.909 23.8928C196.408 24.1077 195.842 24.2151 195.212 24.2151C194.424 24.2151 193.733 24.0611 193.139 23.7532C192.551 23.4452 192.093 23.0334 191.764 22.5178C191.441 21.995 191.28 21.4114 191.28 20.7668C191.28 20.1438 191.402 19.5959 191.646 19.1233C191.889 18.6435 192.24 18.246 192.698 17.9309C193.157 17.6086 193.708 17.3652 194.353 17.2004C194.997 17.0357 195.717 16.9534 196.512 16.9534H198.821ZM207.114 18.9407L202.71 12.3772H205.105L208.113 17.1897H210.434L210.144 18.9407H207.114ZM208.199 18.7366L204.826 24.0002H202.312L206.942 17.2971L208.199 18.7366ZM211.454 12.3772V24.0002H209.467V12.3772H211.454ZM218.232 12.3772L213.828 18.9407H210.799L210.487 17.1897H212.818L215.826 12.3772H218.232ZM216.105 24.0002L212.722 18.7366L214 17.2971L218.619 24.0002H216.105ZM222.604 20.8528L227.965 12.3772H229.963V24.0002H227.965V15.5247L222.604 24.0002H220.628V12.3772H222.604V20.8528ZM243.348 12.3772V24.0002H241.35V12.3772H243.348ZM247.247 12.3772V13.9885H237.525V12.3772H247.247ZM248.225 18.3176V18.0706C248.225 17.2327 248.346 16.4556 248.59 15.7395C248.833 15.0162 249.184 14.3896 249.643 13.8596C250.101 13.3225 250.656 12.9071 251.308 12.6135C251.959 12.3127 252.69 12.1624 253.499 12.1624C254.315 12.1624 255.049 12.3127 255.701 12.6135C256.36 12.9071 256.919 13.3225 257.377 13.8596C257.842 14.3896 258.197 15.0162 258.44 15.7395C258.684 16.4556 258.806 17.2327 258.806 18.0706V18.3176C258.806 19.1555 258.684 19.9325 258.44 20.6487C258.197 21.3648 257.842 21.9915 257.377 22.5286C256.919 23.0585 256.364 23.4739 255.712 23.7747C255.067 24.0683 254.337 24.2151 253.521 24.2151C252.704 24.2151 251.97 24.0683 251.318 23.7747C250.667 23.4739 250.108 23.0585 249.643 22.5286C249.184 21.9915 248.833 21.3648 248.59 20.6487C248.346 19.9325 248.225 19.1555 248.225 18.3176ZM250.212 18.0706V18.3176C250.212 18.8977 250.28 19.4456 250.416 19.9612C250.552 20.4696 250.756 20.9208 251.028 21.3147C251.308 21.7086 251.655 22.0201 252.07 22.2493C252.486 22.4713 252.969 22.5823 253.521 22.5823C254.065 22.5823 254.541 22.4713 254.949 22.2493C255.365 22.0201 255.708 21.7086 255.98 21.3147C256.253 20.9208 256.457 20.4696 256.593 19.9612C256.736 19.4456 256.808 18.8977 256.808 18.3176V18.0706C256.808 17.4976 256.736 16.9569 256.593 16.4485C256.457 15.9329 256.249 15.4781 255.97 15.0842C255.698 14.6832 255.354 14.3681 254.938 14.1389C254.53 13.9097 254.05 13.7952 253.499 13.7952C252.955 13.7952 252.475 13.9097 252.06 14.1389C251.651 14.3681 251.308 14.6832 251.028 15.0842C250.756 15.4781 250.552 15.9329 250.416 16.4485C250.28 16.9569 250.212 17.4976 250.212 18.0706ZM266.755 18.887H262.941L262.92 17.2971H266.035C266.651 17.2971 267.163 17.2362 267.571 17.1145C267.987 16.9928 268.298 16.8101 268.506 16.5667C268.714 16.3232 268.817 16.0224 268.817 15.6643C268.817 15.385 268.757 15.1415 268.635 14.9338C268.52 14.719 268.345 14.5435 268.108 14.4075C267.872 14.2642 267.578 14.1604 267.228 14.0959C266.884 14.0243 266.479 13.9885 266.014 13.9885H263.468V24.0002H261.48V12.3772H266.014C266.751 12.3772 267.414 12.4417 268.001 12.5706C268.595 12.6995 269.1 12.8964 269.516 13.1614C269.938 13.4192 270.26 13.7486 270.482 14.1497C270.704 14.5507 270.815 15.0234 270.815 15.5676C270.815 15.9185 270.744 16.2515 270.601 16.5667C270.457 16.8818 270.246 17.1611 269.967 17.4045C269.688 17.648 269.344 17.8486 268.936 18.0061C268.527 18.1565 268.058 18.2532 267.528 18.2961L266.755 18.887ZM266.755 24.0002H262.222L263.21 22.3889H266.755C267.306 22.3889 267.765 22.3209 268.13 22.1848C268.495 22.0416 268.767 21.8411 268.946 21.5833C269.132 21.3183 269.226 21.0032 269.226 20.6379C269.226 20.2727 269.132 19.9612 268.946 19.7034C268.767 19.4384 268.495 19.2379 268.13 19.1018C267.765 18.9586 267.306 18.887 266.755 18.887H263.736L263.758 17.2971H267.528L268.248 17.8987C268.885 17.9488 269.426 18.1064 269.87 18.3713C270.314 18.6363 270.651 18.9729 270.88 19.3811C271.109 19.7821 271.224 20.219 271.224 20.6917C271.224 21.2359 271.12 21.7157 270.912 22.1311C270.712 22.5465 270.418 22.8938 270.031 23.1731C269.645 23.4452 269.175 23.6529 268.624 23.7961C268.073 23.9322 267.45 24.0002 266.755 24.0002ZM280.741 22.0129V16.0295C280.741 15.5712 280.648 15.1737 280.462 14.8372C280.283 14.4934 280.011 14.2284 279.646 14.0422C279.28 13.856 278.829 13.7629 278.292 13.7629C277.791 13.7629 277.35 13.8489 276.971 14.0208C276.598 14.1926 276.305 14.4182 276.09 14.6975C275.882 14.9768 275.778 15.2776 275.778 15.5999H273.791C273.791 15.1845 273.898 14.7727 274.113 14.3645C274.328 13.9563 274.636 13.5875 275.037 13.2581C275.445 12.9215 275.932 12.6565 276.498 12.4631C277.071 12.2626 277.708 12.1624 278.41 12.1624C279.255 12.1624 280 12.3056 280.645 12.592C281.296 12.8785 281.805 13.3118 282.17 13.8918C282.542 14.4648 282.729 15.1845 282.729 16.051V21.4651C282.729 21.8518 282.761 22.2636 282.825 22.7004C282.897 23.1373 283.001 23.5133 283.137 23.8284V24.0002H281.063C280.963 23.7711 280.884 23.4667 280.827 23.0872C280.77 22.7004 280.741 22.3424 280.741 22.0129ZM281.085 16.9534L281.106 18.3499H279.098C278.532 18.3499 278.027 18.3964 277.583 18.4895C277.139 18.5754 276.767 18.7079 276.466 18.887C276.165 19.066 275.936 19.2916 275.778 19.5637C275.621 19.8287 275.542 20.1402 275.542 20.4983C275.542 20.8635 275.624 21.1965 275.789 21.4973C275.954 21.7981 276.201 22.038 276.53 22.217C276.867 22.3889 277.279 22.4749 277.766 22.4749C278.374 22.4749 278.911 22.3459 279.377 22.0881C279.842 21.8303 280.211 21.5152 280.483 21.1428C280.763 20.7704 280.913 20.4088 280.935 20.0579L281.783 21.0139C281.733 21.3147 281.597 21.6477 281.375 22.0129C281.153 22.3782 280.856 22.7291 280.483 23.0657C280.118 23.3951 279.681 23.6708 279.173 23.8928C278.672 24.1077 278.106 24.2151 277.476 24.2151C276.688 24.2151 275.997 24.0611 275.402 23.7532C274.815 23.4452 274.357 23.0334 274.027 22.5178C273.705 21.995 273.544 21.4114 273.544 20.7668C273.544 20.1438 273.666 19.5959 273.909 19.1233C274.153 18.6435 274.504 18.246 274.962 17.9309C275.42 17.6086 275.972 17.3652 276.616 17.2004C277.261 17.0357 277.98 16.9534 278.775 16.9534H281.085ZM287.842 14.6116V28.469H285.844V12.3772H287.67L287.842 14.6116ZM295.673 18.092V18.3176C295.673 19.1627 295.573 19.9469 295.372 20.6702C295.172 21.3863 294.878 22.0094 294.491 22.5393C294.112 23.0693 293.643 23.481 293.084 23.7747C292.525 24.0683 291.884 24.2151 291.161 24.2151C290.424 24.2151 289.772 24.0933 289.206 23.8499C288.64 23.6064 288.16 23.2519 287.767 22.7864C287.373 22.3209 287.058 21.7623 286.821 21.1106C286.592 20.4589 286.435 19.7249 286.349 18.9084V17.7053C286.435 16.8459 286.596 16.0761 286.832 15.3958C287.068 14.7154 287.38 14.1353 287.767 13.6555C288.16 13.1685 288.637 12.7997 289.195 12.5491C289.754 12.2913 290.398 12.1624 291.129 12.1624C291.859 12.1624 292.507 12.3056 293.073 12.592C293.639 12.8713 294.115 13.2724 294.502 13.7952C294.889 14.318 295.179 14.9446 295.372 15.675C295.573 16.3984 295.673 17.204 295.673 18.092ZM293.675 18.3176V18.092C293.675 17.512 293.614 16.9677 293.492 16.4592C293.37 15.9436 293.181 15.4924 292.923 15.1057C292.672 14.7118 292.35 14.4039 291.956 14.1819C291.562 13.9527 291.093 13.8381 290.549 13.8381C290.048 13.8381 289.611 13.9241 289.238 14.0959C288.873 14.2678 288.562 14.5006 288.304 14.7942C288.046 15.0806 287.835 15.4101 287.67 15.7825C287.512 16.1477 287.394 16.5273 287.315 16.9211V19.7034C287.459 20.2047 287.659 20.6773 287.917 21.1213C288.175 21.5582 288.519 21.9127 288.948 22.1848C289.378 22.4498 289.919 22.5823 290.57 22.5823C291.107 22.5823 291.569 22.4713 291.956 22.2493C292.35 22.0201 292.672 21.7086 292.923 21.3147C293.181 20.9208 293.37 20.4696 293.492 19.9612C293.614 19.4456 293.675 18.8977 293.675 18.3176ZM297.682 18.3176V18.0706C297.682 17.2327 297.803 16.4556 298.047 15.7395C298.29 15.0162 298.641 14.3896 299.1 13.8596C299.558 13.3225 300.113 12.9071 300.765 12.6135C301.416 12.3127 302.147 12.1624 302.956 12.1624C303.772 12.1624 304.507 12.3127 305.158 12.6135C305.817 12.9071 306.376 13.3225 306.834 13.8596C307.299 14.3896 307.654 15.0162 307.897 15.7395C308.141 16.4556 308.263 17.2327 308.263 18.0706V18.3176C308.263 19.1555 308.141 19.9325 307.897 20.6487C307.654 21.3648 307.299 21.9915 306.834 22.5286C306.376 23.0585 305.821 23.4739 305.169 23.7747C304.524 24.0683 303.794 24.2151 302.978 24.2151C302.161 24.2151 301.427 24.0683 300.775 23.7747C300.124 23.4739 299.565 23.0585 299.1 22.5286C298.641 21.9915 298.29 21.3648 298.047 20.6487C297.803 19.9325 297.682 19.1555 297.682 18.3176ZM299.669 18.0706V18.3176C299.669 18.8977 299.737 19.4456 299.873 19.9612C300.009 20.4696 300.213 20.9208 300.485 21.3147C300.765 21.7086 301.112 22.0201 301.527 22.2493C301.943 22.4713 302.426 22.5823 302.978 22.5823C303.522 22.5823 303.998 22.4713 304.406 22.2493C304.822 22.0201 305.165 21.7086 305.438 21.3147C305.71 20.9208 305.914 20.4696 306.05 19.9612C306.193 19.4456 306.265 18.8977 306.265 18.3176V18.0706C306.265 17.4976 306.193 16.9569 306.05 16.4485C305.914 15.9329 305.706 15.4781 305.427 15.0842C305.155 14.6832 304.811 14.3681 304.396 14.1389C303.987 13.9097 303.507 13.7952 302.956 13.7952C302.412 13.7952 301.932 13.9097 301.517 14.1389C301.108 14.3681 300.765 14.6832 300.485 15.0842C300.213 15.4781 300.009 15.9329 299.873 16.4485C299.737 16.9569 299.669 17.4976 299.669 18.0706ZM316.212 18.887H312.398L312.377 17.2971H315.492C316.108 17.2971 316.62 17.2362 317.028 17.1145C317.444 16.9928 317.755 16.8101 317.963 16.5667C318.171 16.3232 318.274 16.0224 318.274 15.6643C318.274 15.385 318.214 15.1415 318.092 14.9338C317.977 14.719 317.802 14.5435 317.565 14.4075C317.329 14.2642 317.035 14.1604 316.685 14.0959C316.341 14.0243 315.936 13.9885 315.471 13.9885H312.925V24.0002H310.938V12.3772H315.471C316.208 12.3772 316.871 12.4417 317.458 12.5706C318.052 12.6995 318.557 12.8964 318.973 13.1614C319.395 13.4192 319.717 13.7486 319.939 14.1497C320.161 14.5507 320.272 15.0234 320.272 15.5676C320.272 15.9185 320.201 16.2515 320.058 16.5667C319.914 16.8818 319.703 17.1611 319.424 17.4045C319.145 17.648 318.801 17.8486 318.393 18.0061C317.984 18.1565 317.515 18.2532 316.985 18.2961L316.212 18.887ZM316.212 24.0002H311.679L312.667 22.3889H316.212C316.763 22.3889 317.222 22.3209 317.587 22.1848C317.952 22.0416 318.224 21.8411 318.403 21.5833C318.59 21.3183 318.683 21.0032 318.683 20.6379C318.683 20.2727 318.59 19.9612 318.403 19.7034C318.224 19.4384 317.952 19.2379 317.587 19.1018C317.222 18.9586 316.763 18.887 316.212 18.887H313.193L313.215 17.2971H316.985L317.705 17.8987C318.342 17.9488 318.883 18.1064 319.327 18.3713C319.771 18.6363 320.108 18.9729 320.337 19.3811C320.566 19.7821 320.681 20.219 320.681 20.6917C320.681 21.2359 320.577 21.7157 320.369 22.1311C320.169 22.5465 319.875 22.8938 319.488 23.1731C319.102 23.4452 318.632 23.6529 318.081 23.7961C317.53 23.9322 316.907 24.0002 316.212 24.0002ZM336.257 7.31763H337.89C337.89 8.01945 337.782 8.57804 337.567 8.99341C337.353 9.40161 337.059 9.71672 336.687 9.93872C336.321 10.1607 335.906 10.329 335.44 10.4436C334.982 10.5582 334.506 10.6692 334.012 10.7766C333.396 10.9055 332.823 11.1096 332.293 11.3889C331.77 11.6611 331.319 12.0478 330.939 12.5491C330.567 13.0504 330.291 13.7021 330.112 14.5042C329.94 15.3062 329.894 16.2981 329.973 17.4797V18.468H328.34V17.4797C328.34 16.1549 328.465 14.9983 328.716 14.01C328.974 13.0217 329.335 12.1874 329.801 11.5071C330.266 10.8267 330.818 10.2861 331.455 9.88501C332.1 9.48397 332.809 9.20825 333.582 9.05786C334.141 8.95044 334.62 8.83586 335.021 8.71411C335.423 8.58521 335.727 8.41333 335.935 8.19849C336.149 7.98364 336.257 7.69002 336.257 7.31763ZM333.904 13.0432C334.663 13.0432 335.34 13.1757 335.935 13.4407C336.529 13.7056 337.034 14.0745 337.449 14.5471C337.865 15.0198 338.18 15.5784 338.395 16.2229C338.617 16.8603 338.728 17.5549 338.728 18.3069V18.5432C338.728 19.3525 338.609 20.1044 338.373 20.7991C338.144 21.4866 337.804 22.0881 337.353 22.6038C336.909 23.1122 336.364 23.5097 335.72 23.7961C335.082 24.0826 334.355 24.2258 333.539 24.2258C332.723 24.2258 331.992 24.0826 331.348 23.7961C330.71 23.5097 330.166 23.1122 329.715 22.6038C329.264 22.0881 328.92 21.4866 328.684 20.7991C328.454 20.1044 328.34 19.3525 328.34 18.5432V18.3069C328.34 18.1278 328.372 17.9524 328.437 17.7805C328.501 17.6086 328.58 17.4332 328.673 17.2542C328.773 17.0751 328.863 16.8853 328.941 16.6848C329.206 16.0403 329.568 15.4423 330.026 14.8909C330.492 14.3394 331.047 13.8954 331.691 13.5588C332.343 13.2151 333.081 13.0432 333.904 13.0432ZM333.518 14.6653C332.787 14.6653 332.186 14.8336 331.713 15.1702C331.247 15.5068 330.9 15.9543 330.671 16.5129C330.442 17.0644 330.327 17.6624 330.327 18.3069V18.5432C330.327 19.0875 330.392 19.6031 330.521 20.0901C330.649 20.5771 330.843 21.0103 331.101 21.3899C331.366 21.7623 331.699 22.0559 332.1 22.2708C332.508 22.4856 332.988 22.593 333.539 22.593C334.09 22.593 334.567 22.4856 334.968 22.2708C335.369 22.0559 335.698 21.7623 335.956 21.3899C336.214 21.0103 336.407 20.5771 336.536 20.0901C336.665 19.6031 336.729 19.0875 336.729 18.5432V18.3069C336.729 17.8199 336.665 17.358 336.536 16.9211C336.407 16.4843 336.21 16.0976 335.945 15.761C335.688 15.4244 335.354 15.1594 334.946 14.9661C334.545 14.7655 334.069 14.6653 333.518 14.6653ZM342.777 14.6116V28.469H340.779V12.3772H342.605L342.777 14.6116ZM350.608 18.092V18.3176C350.608 19.1627 350.508 19.9469 350.308 20.6702C350.107 21.3863 349.813 22.0094 349.427 22.5393C349.047 23.0693 348.578 23.481 348.02 23.7747C347.461 24.0683 346.82 24.2151 346.097 24.2151C345.359 24.2151 344.707 24.0933 344.142 23.8499C343.576 23.6064 343.096 23.2519 342.702 22.7864C342.308 22.3209 341.993 21.7623 341.757 21.1106C341.528 20.4589 341.37 19.7249 341.284 18.9084V17.7053C341.37 16.8459 341.531 16.0761 341.768 15.3958C342.004 14.7154 342.315 14.1353 342.702 13.6555C343.096 13.1685 343.572 12.7997 344.131 12.5491C344.689 12.2913 345.334 12.1624 346.064 12.1624C346.795 12.1624 347.443 12.3056 348.009 12.592C348.575 12.8713 349.051 13.2724 349.438 13.7952C349.824 14.318 350.114 14.9446 350.308 15.675C350.508 16.3984 350.608 17.204 350.608 18.092ZM348.61 18.3176V18.092C348.61 17.512 348.549 16.9677 348.428 16.4592C348.306 15.9436 348.116 15.4924 347.858 15.1057C347.608 14.7118 347.285 14.4039 346.892 14.1819C346.498 13.9527 346.029 13.8381 345.484 13.8381C344.983 13.8381 344.546 13.9241 344.174 14.0959C343.809 14.2678 343.497 14.5006 343.239 14.7942C342.981 15.0806 342.77 15.4101 342.605 15.7825C342.448 16.1477 342.33 16.5273 342.251 16.9211V19.7034C342.394 20.2047 342.595 20.6773 342.853 21.1213C343.11 21.5582 343.454 21.9127 343.884 22.1848C344.313 22.4498 344.854 22.5823 345.506 22.5823C346.043 22.5823 346.505 22.4713 346.892 22.2493C347.285 22.0201 347.608 21.7086 347.858 21.3147C348.116 20.9208 348.306 20.4696 348.428 19.9612C348.549 19.4456 348.61 18.8977 348.61 18.3176ZM357.967 24.2151C357.158 24.2151 356.424 24.079 355.765 23.8069C355.113 23.5276 354.551 23.1373 354.078 22.636C353.613 22.1347 353.255 21.5403 353.004 20.8528C352.753 20.1653 352.628 19.4133 352.628 18.5969V18.1458C352.628 17.2004 352.768 16.359 353.047 15.6213C353.326 14.8765 353.706 14.2463 354.186 13.7307C354.665 13.2151 355.21 12.8248 355.818 12.5598C356.427 12.2948 357.057 12.1624 357.709 12.1624C358.54 12.1624 359.256 12.3056 359.857 12.592C360.466 12.8785 360.964 13.2795 361.351 13.7952C361.737 14.3036 362.024 14.9052 362.21 15.5999C362.396 16.2874 362.489 17.0393 362.489 17.8557V18.7473H353.81V17.1252H360.502V16.9749C360.473 16.4592 360.366 15.9579 360.18 15.4709C360.001 14.984 359.714 14.5829 359.32 14.2678C358.926 13.9527 358.389 13.7952 357.709 13.7952C357.258 13.7952 356.842 13.8918 356.463 14.0852C356.083 14.2714 355.757 14.5507 355.485 14.9231C355.213 15.2955 355.002 15.7502 354.852 16.2874C354.701 16.8245 354.626 17.4439 354.626 18.1458V18.5969C354.626 19.1484 354.701 19.6676 354.852 20.1545C355.009 20.6344 355.235 21.0569 355.528 21.4221C355.829 21.7874 356.191 22.0738 356.613 22.2815C357.043 22.4892 357.53 22.593 358.074 22.593C358.776 22.593 359.37 22.4498 359.857 22.1633C360.344 21.8769 360.771 21.4937 361.136 21.0139L362.339 21.97C362.088 22.3495 361.77 22.7112 361.383 23.0549C360.996 23.3987 360.52 23.678 359.954 23.8928C359.396 24.1077 358.733 24.2151 357.967 24.2151ZM372.694 17.4153V19.0266H366.55V17.4153H372.694ZM366.969 12.3772V24.0002H364.981V12.3772H366.969ZM374.306 12.3772V24.0002H372.308V12.3772H374.306ZM379.602 12.3772H381.589L381.417 16.7278C381.374 17.8306 381.249 18.7831 381.041 19.5852C380.833 20.3873 380.568 21.0712 380.246 21.637C379.924 22.1956 379.562 22.6646 379.161 23.0442C378.767 23.4237 378.359 23.7424 377.937 24.0002H376.948L377.002 22.3782L377.41 22.3674C377.646 22.0881 377.876 21.8017 378.098 21.5081C378.32 21.2073 378.524 20.8528 378.71 20.4446C378.896 20.0292 379.05 19.5243 379.172 18.9299C379.301 18.3284 379.383 17.5943 379.419 16.7278L379.602 12.3772ZM380.096 12.3772H387.089V24.0002H385.102V14.2141H380.096V12.3772ZM376.497 22.3674H388.582V27.427H386.595V24.0002H378.484V27.427H376.486L376.497 22.3674ZM397.638 22.0129V16.0295C397.638 15.5712 397.545 15.1737 397.358 14.8372C397.179 14.4934 396.907 14.2284 396.542 14.0422C396.177 13.856 395.726 13.7629 395.188 13.7629C394.687 13.7629 394.247 13.8489 393.867 14.0208C393.495 14.1926 393.201 14.4182 392.986 14.6975C392.779 14.9768 392.675 15.2776 392.675 15.5999H390.688C390.688 15.1845 390.795 14.7727 391.01 14.3645C391.225 13.9563 391.533 13.5875 391.934 13.2581C392.342 12.9215 392.829 12.6565 393.395 12.4631C393.967 12.2626 394.605 12.1624 395.307 12.1624C396.152 12.1624 396.896 12.3056 397.541 12.592C398.193 12.8785 398.701 13.3118 399.066 13.8918C399.439 14.4648 399.625 15.1845 399.625 16.051V21.4651C399.625 21.8518 399.657 22.2636 399.722 22.7004C399.793 23.1373 399.897 23.5133 400.033 23.8284V24.0002H397.96C397.86 23.7711 397.781 23.4667 397.724 23.0872C397.666 22.7004 397.638 22.3424 397.638 22.0129ZM397.981 16.9534L398.003 18.3499H395.994C395.428 18.3499 394.924 18.3964 394.479 18.4895C394.035 18.5754 393.663 18.7079 393.362 18.887C393.062 19.066 392.832 19.2916 392.675 19.5637C392.517 19.8287 392.438 20.1402 392.438 20.4983C392.438 20.8635 392.521 21.1965 392.686 21.4973C392.85 21.7981 393.097 22.038 393.427 22.217C393.763 22.3889 394.175 22.4749 394.662 22.4749C395.271 22.4749 395.808 22.3459 396.273 22.0881C396.739 21.8303 397.108 21.5152 397.38 21.1428C397.659 20.7704 397.81 20.4088 397.831 20.0579L398.68 21.0139C398.63 21.3147 398.493 21.6477 398.271 22.0129C398.049 22.3782 397.752 22.7291 397.38 23.0657C397.015 23.3951 396.578 23.6708 396.069 23.8928C395.568 24.1077 395.002 24.2151 394.372 24.2151C393.584 24.2151 392.893 24.0611 392.299 23.7532C391.712 23.4452 391.253 23.0334 390.924 22.5178C390.602 21.995 390.44 21.4114 390.44 20.7668C390.44 20.1438 390.562 19.5959 390.806 19.1233C391.049 18.6435 391.4 18.246 391.858 17.9309C392.317 17.6086 392.868 17.3652 393.513 17.2004C394.157 17.0357 394.877 16.9534 395.672 16.9534H397.981ZM416.974 12.3772V24.0002H414.986V12.3772H416.974ZM416.297 17.7161V19.3489C415.896 19.4993 415.488 19.6353 415.072 19.7571C414.664 19.8717 414.231 19.9648 413.772 20.0364C413.321 20.1008 412.831 20.1331 412.301 20.1331C411.384 20.1331 410.589 19.9755 409.916 19.6604C409.243 19.3381 408.724 18.8547 408.358 18.2102C407.993 17.5585 407.811 16.7385 407.811 15.7502V12.3557H409.798V15.7502C409.798 16.3948 409.895 16.9176 410.088 17.3186C410.281 17.7196 410.564 18.0168 410.937 18.2102C411.309 18.3964 411.764 18.4895 412.301 18.4895C412.816 18.4895 413.3 18.4573 413.751 18.3928C414.209 18.3212 414.646 18.2281 415.062 18.1135C415.484 17.9989 415.896 17.8665 416.297 17.7161ZM424.998 24.2151C424.189 24.2151 423.455 24.079 422.796 23.8069C422.144 23.5276 421.582 23.1373 421.109 22.636C420.644 22.1347 420.286 21.5403 420.035 20.8528C419.785 20.1653 419.659 19.4133 419.659 18.5969V18.1458C419.659 17.2004 419.799 16.359 420.078 15.6213C420.357 14.8765 420.737 14.2463 421.217 13.7307C421.697 13.2151 422.241 12.8248 422.85 12.5598C423.458 12.2948 424.089 12.1624 424.74 12.1624C425.571 12.1624 426.287 12.3056 426.889 12.592C427.497 12.8785 427.995 13.2795 428.382 13.7952C428.769 14.3036 429.055 14.9052 429.241 15.5999C429.427 16.2874 429.521 17.0393 429.521 17.8557V18.7473H420.841V17.1252H427.533V16.9749C427.505 16.4592 427.397 15.9579 427.211 15.4709C427.032 14.984 426.745 14.5829 426.352 14.2678C425.958 13.9527 425.421 13.7952 424.74 13.7952C424.289 13.7952 423.874 13.8918 423.494 14.0852C423.115 14.2714 422.789 14.5507 422.517 14.9231C422.244 15.2955 422.033 15.7502 421.883 16.2874C421.732 16.8245 421.657 17.4439 421.657 18.1458V18.5969C421.657 19.1484 421.732 19.6676 421.883 20.1545C422.04 20.6344 422.266 21.0569 422.56 21.4221C422.86 21.7874 423.222 22.0738 423.645 22.2815C424.074 22.4892 424.561 22.593 425.105 22.593C425.807 22.593 426.402 22.4498 426.889 22.1633C427.376 21.8769 427.802 21.4937 428.167 21.0139L429.37 21.97C429.119 22.3495 428.801 22.7112 428.414 23.0549C428.027 23.3987 427.551 23.678 426.985 23.8928C426.427 24.1077 425.764 24.2151 424.998 24.2151ZM433.828 14.6116V28.469H431.83V12.3772H433.656L433.828 14.6116ZM441.659 18.092V18.3176C441.659 19.1627 441.559 19.9469 441.358 20.6702C441.158 21.3863 440.864 22.0094 440.478 22.5393C440.098 23.0693 439.629 23.481 439.07 23.7747C438.512 24.0683 437.871 24.2151 437.147 24.2151C436.41 24.2151 435.758 24.0933 435.192 23.8499C434.627 23.6064 434.147 23.2519 433.753 22.7864C433.359 22.3209 433.044 21.7623 432.808 21.1106C432.578 20.4589 432.421 19.7249 432.335 18.9084V17.7053C432.421 16.8459 432.582 16.0761 432.818 15.3958C433.055 14.7154 433.366 14.1353 433.753 13.6555C434.147 13.1685 434.623 12.7997 435.182 12.5491C435.74 12.2913 436.385 12.1624 437.115 12.1624C437.846 12.1624 438.494 12.3056 439.06 12.592C439.625 12.8713 440.102 13.2724 440.488 13.7952C440.875 14.318 441.165 14.9446 441.358 15.675C441.559 16.3984 441.659 17.204 441.659 18.092ZM439.661 18.3176V18.092C439.661 17.512 439.6 16.9677 439.479 16.4592C439.357 15.9436 439.167 15.4924 438.909 15.1057C438.659 14.7118 438.336 14.4039 437.942 14.1819C437.549 13.9527 437.079 13.8381 436.535 13.8381C436.034 13.8381 435.597 13.9241 435.225 14.0959C434.859 14.2678 434.548 14.5006 434.29 14.7942C434.032 15.0806 433.821 15.4101 433.656 15.7825C433.499 16.1477 433.381 16.5273 433.302 16.9211V19.7034C433.445 20.2047 433.646 20.6773 433.903 21.1213C434.161 21.5582 434.505 21.9127 434.935 22.1848C435.364 22.4498 435.905 22.5823 436.557 22.5823C437.094 22.5823 437.556 22.4713 437.942 22.2493C438.336 22.0201 438.659 21.7086 438.909 21.3147C439.167 20.9208 439.357 20.4696 439.479 19.9612C439.6 19.4456 439.661 18.8977 439.661 18.3176ZM449.018 24.2151C448.208 24.2151 447.474 24.079 446.815 23.8069C446.164 23.5276 445.602 23.1373 445.129 22.636C444.663 22.1347 444.305 21.5403 444.055 20.8528C443.804 20.1653 443.679 19.4133 443.679 18.5969V18.1458C443.679 17.2004 443.818 16.359 444.098 15.6213C444.377 14.8765 444.757 14.2463 445.236 13.7307C445.716 13.2151 446.26 12.8248 446.869 12.5598C447.478 12.2948 448.108 12.1624 448.76 12.1624C449.59 12.1624 450.307 12.3056 450.908 12.592C451.517 12.8785 452.015 13.2795 452.401 13.7952C452.788 14.3036 453.075 14.9052 453.261 15.5999C453.447 16.2874 453.54 17.0393 453.54 17.8557V18.7473H444.86V17.1252H451.553V16.9749C451.524 16.4592 451.417 15.9579 451.23 15.4709C451.051 14.984 450.765 14.5829 450.371 14.2678C449.977 13.9527 449.44 13.7952 448.76 13.7952C448.309 13.7952 447.893 13.8918 447.514 14.0852C447.134 14.2714 446.808 14.5507 446.536 14.9231C446.264 15.2955 446.053 15.7502 445.902 16.2874C445.752 16.8245 445.677 17.4439 445.677 18.1458V18.5969C445.677 19.1484 445.752 19.6676 445.902 20.1545C446.06 20.6344 446.285 21.0569 446.579 21.4221C446.88 21.7874 447.242 22.0738 447.664 22.2815C448.094 22.4892 448.581 22.593 449.125 22.593C449.827 22.593 450.421 22.4498 450.908 22.1633C451.395 21.8769 451.821 21.4937 452.187 21.0139L453.39 21.97C453.139 22.3495 452.82 22.7112 452.434 23.0549C452.047 23.3987 451.571 23.678 451.005 23.8928C450.446 24.1077 449.784 24.2151 449.018 24.2151ZM460.2 18.4465H458.062V17.2219H460.039C460.59 17.2219 461.027 17.1539 461.35 17.0178C461.672 16.8746 461.901 16.6777 462.037 16.427C462.173 16.1764 462.241 15.8827 462.241 15.5461C462.241 15.2454 462.162 14.9625 462.005 14.6975C461.854 14.4254 461.611 14.2069 461.274 14.0422C460.938 13.8704 460.487 13.7844 459.921 13.7844C459.463 13.7844 459.047 13.8668 458.675 14.0315C458.302 14.189 458.005 14.4075 457.783 14.6868C457.568 14.9589 457.461 15.2668 457.461 15.6106H455.474C455.474 14.9016 455.674 14.2929 456.075 13.7844C456.483 13.2688 457.024 12.8713 457.697 12.592C458.378 12.3127 459.119 12.1731 459.921 12.1731C460.594 12.1731 461.196 12.2483 461.726 12.3987C462.263 12.5419 462.717 12.7568 463.09 13.0432C463.462 13.3225 463.745 13.6734 463.938 14.0959C464.139 14.5113 464.239 14.9947 464.239 15.5461C464.239 15.94 464.146 16.3124 463.96 16.6633C463.774 17.0142 463.505 17.3258 463.154 17.5979C462.803 17.8629 462.377 18.0706 461.876 18.2209C461.382 18.3713 460.823 18.4465 460.2 18.4465ZM458.062 17.6946H460.2C460.895 17.6946 461.507 17.7626 462.037 17.8987C462.567 18.0276 463.011 18.2209 463.369 18.4788C463.727 18.7366 463.996 19.0553 464.175 19.4348C464.361 19.8072 464.454 20.2369 464.454 20.7239C464.454 21.2681 464.343 21.7587 464.121 22.1956C463.906 22.6252 463.598 22.9905 463.197 23.2913C462.796 23.592 462.316 23.8212 461.758 23.9788C461.206 24.1363 460.594 24.2151 459.921 24.2151C459.169 24.2151 458.438 24.0862 457.729 23.8284C457.021 23.5706 456.437 23.1731 455.979 22.636C455.52 22.0917 455.291 21.4006 455.291 20.5627H457.278C457.278 20.9137 457.389 21.2467 457.611 21.5618C457.833 21.8769 458.141 22.1311 458.535 22.3245C458.936 22.5178 459.398 22.6145 459.921 22.6145C460.479 22.6145 460.945 22.5286 461.317 22.3567C461.69 22.1848 461.969 21.9556 462.155 21.6692C462.349 21.3827 462.445 21.0712 462.445 20.7346C462.445 20.2978 462.359 19.9469 462.188 19.6819C462.016 19.4169 461.751 19.2236 461.393 19.1018C461.042 18.9729 460.59 18.9084 460.039 18.9084H458.062V17.6946ZM140.609 38.3772H142.597L142.425 42.7278C142.382 43.8306 142.257 44.7831 142.049 45.5852C141.841 46.3873 141.576 47.0712 141.254 47.637C140.932 48.1956 140.57 48.6646 140.169 49.0442C139.775 49.4237 139.367 49.7424 138.944 50.0002H137.956L138.01 48.3782L138.418 48.3674C138.654 48.0881 138.883 47.8017 139.105 47.5081C139.327 47.2073 139.532 46.8528 139.718 46.4446C139.904 46.0292 140.058 45.5243 140.18 44.9299C140.309 44.3284 140.391 43.5943 140.427 42.7278L140.609 38.3772ZM141.104 38.3772H148.097V50.0002H146.109V40.2141H141.104V38.3772ZM137.505 48.3674H149.59V53.427H147.603V50.0002H139.492V53.427H137.494L137.505 48.3674ZM153.779 40.6116V54.469H151.781V38.3772H153.607L153.779 40.6116ZM161.61 44.092V44.3176C161.61 45.1627 161.51 45.9469 161.31 46.6702C161.109 47.3863 160.815 48.0094 160.429 48.5393C160.049 49.0693 159.58 49.481 159.021 49.7747C158.463 50.0683 157.822 50.2151 157.099 50.2151C156.361 50.2151 155.709 50.0933 155.144 49.8499C154.578 49.6064 154.098 49.2519 153.704 48.7864C153.31 48.3209 152.995 47.7623 152.759 47.1106C152.53 46.4589 152.372 45.7249 152.286 44.9084V43.7053C152.372 42.8459 152.533 42.0761 152.77 41.3958C153.006 40.7154 153.317 40.1353 153.704 39.6555C154.098 39.1685 154.574 38.7997 155.133 38.5491C155.691 38.2913 156.336 38.1624 157.066 38.1624C157.797 38.1624 158.445 38.3056 159.011 38.592C159.576 38.8713 160.053 39.2724 160.439 39.7952C160.826 40.318 161.116 40.9446 161.31 41.675C161.51 42.3984 161.61 43.204 161.61 44.092ZM159.612 44.3176V44.092C159.612 43.512 159.551 42.9677 159.43 42.4592C159.308 41.9436 159.118 41.4924 158.86 41.1057C158.61 40.7118 158.287 40.4039 157.894 40.1819C157.5 39.9527 157.031 39.8381 156.486 39.8381C155.985 39.8381 155.548 39.9241 155.176 40.0959C154.811 40.2678 154.499 40.5006 154.241 40.7942C153.983 41.0806 153.772 41.4101 153.607 41.7825C153.45 42.1477 153.332 42.5273 153.253 42.9211V45.7034C153.396 46.2047 153.597 46.6773 153.854 47.1213C154.112 47.5582 154.456 47.9127 154.886 48.1848C155.315 48.4498 155.856 48.5823 156.508 48.5823C157.045 48.5823 157.507 48.4713 157.894 48.2493C158.287 48.0201 158.61 47.7086 158.86 47.3147C159.118 46.9208 159.308 46.4696 159.43 45.9612C159.551 45.4456 159.612 44.8977 159.612 44.3176ZM167.282 48.7971L170.516 38.3772H172.643L167.98 51.7942C167.873 52.0806 167.73 52.3886 167.551 52.718C167.379 53.0546 167.157 53.3733 166.885 53.6741C166.613 53.9749 166.283 54.2183 165.896 54.4045C165.517 54.5979 165.062 54.6946 164.532 54.6946C164.375 54.6946 164.174 54.6731 163.931 54.6301C163.687 54.5872 163.515 54.5514 163.415 54.5227L163.404 52.9114C163.462 52.9185 163.551 52.9257 163.673 52.9329C163.802 52.9472 163.891 52.9543 163.941 52.9543C164.393 52.9543 164.776 52.8935 165.091 52.7717C165.406 52.6571 165.671 52.4602 165.886 52.1809C166.108 51.9088 166.298 51.5328 166.455 51.053L167.282 48.7971ZM164.908 38.3772L167.927 47.4006L168.442 49.4954L167.014 50.2258L162.738 38.3772H164.908ZM181.945 38.3772V40.0208H176.574V50.0002H174.587V38.3772H181.945ZM185.823 46.8528L191.184 38.3772H193.182V50.0002H191.184V41.5247L185.823 50.0002H183.847V38.3772H185.823V46.8528ZM201.195 50.2151C200.386 50.2151 199.652 50.079 198.993 49.8069C198.341 49.5276 197.779 49.1373 197.307 48.636C196.841 48.1347 196.483 47.5403 196.232 46.8528C195.982 46.1653 195.856 45.4133 195.856 44.5969V44.1458C195.856 43.2004 195.996 42.359 196.275 41.6213C196.555 40.8765 196.934 40.2463 197.414 39.7307C197.894 39.2151 198.438 38.8248 199.047 38.5598C199.656 38.2948 200.286 38.1624 200.938 38.1624C201.768 38.1624 202.484 38.3056 203.086 38.592C203.695 38.8785 204.192 39.2795 204.579 39.7952C204.966 40.3036 205.252 40.9052 205.438 41.5999C205.625 42.2874 205.718 43.0393 205.718 43.8557V44.7473H197.038V43.1252H203.73V42.9749C203.702 42.4592 203.594 41.9579 203.408 41.4709C203.229 40.984 202.943 40.5829 202.549 40.2678C202.155 39.9527 201.618 39.7952 200.938 39.7952C200.486 39.7952 200.071 39.8918 199.691 40.0852C199.312 40.2714 198.986 40.5507 198.714 40.9231C198.442 41.2955 198.23 41.7502 198.08 42.2874C197.93 42.8245 197.854 43.4439 197.854 44.1458V44.5969C197.854 45.1484 197.93 45.6676 198.08 46.1545C198.238 46.6344 198.463 47.0569 198.757 47.4221C199.058 47.7874 199.419 48.0738 199.842 48.2815C200.271 48.4892 200.758 48.593 201.303 48.593C202.005 48.593 202.599 48.4498 203.086 48.1633C203.573 47.8769 203.999 47.4937 204.364 47.0139L205.567 47.97C205.317 48.3495 204.998 48.7112 204.611 49.0549C204.225 49.3987 203.748 49.678 203.183 49.8928C202.624 50.1077 201.962 50.2151 201.195 50.2151ZM215.654 38.3772V50.0002H213.667V38.3772H215.654ZM223.281 38.3772L217.771 45.0374H214.988L214.688 43.2971H216.965L220.864 38.3772H223.281ZM221.144 50.0002L216.868 44.7366L218.146 43.2971L223.668 50.0002H221.144ZM232.251 48.0129V42.0295C232.251 41.5712 232.158 41.1737 231.972 40.8372C231.793 40.4934 231.521 40.2284 231.155 40.0422C230.79 39.856 230.339 39.7629 229.802 39.7629C229.3 39.7629 228.86 39.8489 228.48 40.0208C228.108 40.1926 227.814 40.4182 227.6 40.6975C227.392 40.9768 227.288 41.2776 227.288 41.5999H225.301C225.301 41.1845 225.408 40.7727 225.623 40.3645C225.838 39.9563 226.146 39.5875 226.547 39.2581C226.955 38.9215 227.442 38.6565 228.008 38.4631C228.581 38.2626 229.218 38.1624 229.92 38.1624C230.765 38.1624 231.51 38.3056 232.154 38.592C232.806 38.8785 233.314 39.3118 233.68 39.8918C234.052 40.4648 234.238 41.1845 234.238 42.051V47.4651C234.238 47.8518 234.271 48.2636 234.335 48.7004C234.407 49.1373 234.51 49.5133 234.646 49.8284V50.0002H232.573C232.473 49.7711 232.394 49.4667 232.337 49.0872C232.28 48.7004 232.251 48.3424 232.251 48.0129ZM232.595 42.9534L232.616 44.3499H230.607C230.042 44.3499 229.537 44.3964 229.093 44.4895C228.649 44.5754 228.276 44.7079 227.976 44.887C227.675 45.066 227.446 45.2916 227.288 45.5637C227.131 45.8287 227.052 46.1402 227.052 46.4983C227.052 46.8635 227.134 47.1965 227.299 47.4973C227.464 47.7981 227.711 48.038 228.04 48.217C228.377 48.3889 228.788 48.4749 229.275 48.4749C229.884 48.4749 230.421 48.3459 230.887 48.0881C231.352 47.8303 231.721 47.5152 231.993 47.1428C232.272 46.7704 232.423 46.4088 232.444 46.0579L233.293 47.0139C233.243 47.3147 233.107 47.6477 232.885 48.0129C232.663 48.3782 232.366 48.7291 231.993 49.0657C231.628 49.3951 231.191 49.6708 230.683 49.8928C230.181 50.1077 229.616 50.2151 228.985 50.2151C228.198 50.2151 227.507 50.0611 226.912 49.7532C226.325 49.4452 225.867 49.0334 225.537 48.5178C225.215 47.995 225.054 47.4114 225.054 46.7668C225.054 46.1438 225.175 45.5959 225.419 45.1233C225.662 44.6435 226.013 44.246 226.472 43.9309C226.93 43.6086 227.481 43.3652 228.126 43.2004C228.771 43.0357 229.49 42.9534 230.285 42.9534H232.595ZM245.249 43.4153V45.0266H239.104V43.4153H245.249ZM239.523 38.3772V50.0002H237.536V38.3772H239.523ZM246.86 38.3772V50.0002H244.862V38.3772H246.86ZM256.915 48.0129V42.0295C256.915 41.5712 256.822 41.1737 256.636 40.8372C256.457 40.4934 256.185 40.2284 255.819 40.0422C255.454 39.856 255.003 39.7629 254.466 39.7629C253.965 39.7629 253.524 39.8489 253.145 40.0208C252.772 40.1926 252.479 40.4182 252.264 40.6975C252.056 40.9768 251.952 41.2776 251.952 41.5999H249.965C249.965 41.1845 250.072 40.7727 250.287 40.3645C250.502 39.9563 250.81 39.5875 251.211 39.2581C251.619 38.9215 252.106 38.6565 252.672 38.4631C253.245 38.2626 253.882 38.1624 254.584 38.1624C255.429 38.1624 256.174 38.3056 256.818 38.592C257.47 38.8785 257.979 39.3118 258.344 39.8918C258.716 40.4648 258.902 41.1845 258.902 42.051V47.4651C258.902 47.8518 258.935 48.2636 258.999 48.7004C259.071 49.1373 259.174 49.5133 259.311 49.8284V50.0002H257.237C257.137 49.7711 257.058 49.4667 257.001 49.0872C256.944 48.7004 256.915 48.3424 256.915 48.0129ZM257.259 42.9534L257.28 44.3499H255.271C254.706 44.3499 254.201 44.3964 253.757 44.4895C253.313 44.5754 252.94 44.7079 252.64 44.887C252.339 45.066 252.11 45.2916 251.952 45.5637C251.795 45.8287 251.716 46.1402 251.716 46.4983C251.716 46.8635 251.798 47.1965 251.963 47.4973C252.128 47.7981 252.375 48.038 252.704 48.217C253.041 48.3889 253.452 48.4749 253.939 48.4749C254.548 48.4749 255.085 48.3459 255.551 48.0881C256.016 47.8303 256.385 47.5152 256.657 47.1428C256.937 46.7704 257.087 46.4088 257.108 46.0579L257.957 47.0139C257.907 47.3147 257.771 47.6477 257.549 48.0129C257.327 48.3782 257.03 48.7291 256.657 49.0657C256.292 49.3951 255.855 49.6708 255.347 49.8928C254.845 50.1077 254.28 50.2151 253.649 50.2151C252.862 50.2151 252.171 50.0611 251.576 49.7532C250.989 49.4452 250.531 49.0334 250.201 48.5178C249.879 47.995 249.718 47.4114 249.718 46.7668C249.718 46.1438 249.84 45.5959 250.083 45.1233C250.326 44.6435 250.677 44.246 251.136 43.9309C251.594 43.6086 252.146 43.3652 252.79 43.2004C253.435 43.0357 254.154 42.9534 254.949 42.9534H257.259ZM269.795 38.3772V40.0208H264.177V38.3772H269.795ZM271.546 38.3772V50.0002H269.559V38.3772H271.546ZM263.693 38.3772H265.691L265.391 43.9846C265.34 44.8512 265.258 45.6174 265.144 46.2834C265.036 46.9423 264.886 47.5081 264.692 47.9807C264.506 48.4534 264.27 48.8401 263.983 49.1409C263.704 49.4345 263.368 49.6529 262.974 49.7961C262.58 49.9322 262.125 50.0002 261.609 50.0002H260.986V48.2493L261.416 48.217C261.724 48.1956 261.985 48.1239 262.2 48.0022C262.422 47.8805 262.608 47.7014 262.759 47.4651C262.909 47.2216 263.031 46.9101 263.124 46.5305C263.224 46.151 263.299 45.6998 263.35 45.177C263.407 44.6542 263.45 44.0455 263.479 43.3508L263.693 38.3772ZM276.38 42.3733H279.871C280.809 42.3733 281.601 42.538 282.245 42.8674C282.89 43.1897 283.377 43.6373 283.706 44.2102C284.043 44.776 284.211 45.4205 284.211 46.1438C284.211 46.6809 284.118 47.1858 283.932 47.6584C283.745 48.1239 283.466 48.5321 283.094 48.8831C282.729 49.234 282.274 49.5097 281.729 49.7102C281.192 49.9036 280.573 50.0002 279.871 50.0002H274.93V38.3772H276.917V48.3674H279.871C280.444 48.3674 280.902 48.2636 281.246 48.0559C281.59 47.8482 281.837 47.5797 281.987 47.2502C282.138 46.9208 282.213 46.5771 282.213 46.219C282.213 45.8681 282.138 45.5243 281.987 45.1877C281.837 44.8512 281.59 44.5719 281.246 44.3499C280.902 44.1207 280.444 44.0061 279.871 44.0061H276.38V42.3733ZM288.347 38.3772V50.0002H286.359V38.3772H288.347ZM302.021 38.3772V50.0002H300.023V38.3772H302.021ZM305.921 38.3772V39.9885H296.199V38.3772H305.921ZM309.863 40.6116V54.469H307.865V38.3772H309.691L309.863 40.6116ZM317.694 44.092V44.3176C317.694 45.1627 317.594 45.9469 317.394 46.6702C317.193 47.3863 316.899 48.0094 316.513 48.5393C316.133 49.0693 315.664 49.481 315.105 49.7747C314.547 50.0683 313.906 50.2151 313.183 50.2151C312.445 50.2151 311.793 50.0933 311.228 49.8499C310.662 49.6064 310.182 49.2519 309.788 48.7864C309.394 48.3209 309.079 47.7623 308.843 47.1106C308.614 46.4589 308.456 45.7249 308.37 44.9084V43.7053C308.456 42.8459 308.617 42.0761 308.854 41.3958C309.09 40.7154 309.401 40.1353 309.788 39.6555C310.182 39.1685 310.658 38.7997 311.217 38.5491C311.775 38.2913 312.42 38.1624 313.15 38.1624C313.881 38.1624 314.529 38.3056 315.095 38.592C315.66 38.8713 316.137 39.2724 316.523 39.7952C316.91 40.318 317.2 40.9446 317.394 41.675C317.594 42.3984 317.694 43.204 317.694 44.092ZM315.696 44.3176V44.092C315.696 43.512 315.635 42.9677 315.514 42.4592C315.392 41.9436 315.202 41.4924 314.944 41.1057C314.694 40.7118 314.371 40.4039 313.978 40.1819C313.584 39.9527 313.115 39.8381 312.57 39.8381C312.069 39.8381 311.632 39.9241 311.26 40.0959C310.895 40.2678 310.583 40.5006 310.325 40.7942C310.067 41.0806 309.856 41.4101 309.691 41.7825C309.534 42.1477 309.416 42.5273 309.337 42.9211V45.7034C309.48 46.2047 309.681 46.6773 309.938 47.1213C310.196 47.5582 310.54 47.9127 310.97 48.1848C311.399 48.4498 311.94 48.5823 312.592 48.5823C313.129 48.5823 313.591 48.4713 313.978 48.2493C314.371 48.0201 314.694 47.7086 314.944 47.3147C315.202 46.9208 315.392 46.4696 315.514 45.9612C315.635 45.4456 315.696 44.8977 315.696 44.3176ZM327.083 48.0129V42.0295C327.083 41.5712 326.99 41.1737 326.804 40.8372C326.625 40.4934 326.353 40.2284 325.987 40.0422C325.622 39.856 325.171 39.7629 324.634 39.7629C324.132 39.7629 323.692 39.8489 323.312 40.0208C322.94 40.1926 322.646 40.4182 322.432 40.6975C322.224 40.9768 322.12 41.2776 322.12 41.5999H320.133C320.133 41.1845 320.24 40.7727 320.455 40.3645C320.67 39.9563 320.978 39.5875 321.379 39.2581C321.787 38.9215 322.274 38.6565 322.84 38.4631C323.413 38.2626 324.05 38.1624 324.752 38.1624C325.597 38.1624 326.342 38.3056 326.986 38.592C327.638 38.8785 328.146 39.3118 328.512 39.8918C328.884 40.4648 329.07 41.1845 329.07 42.051V47.4651C329.07 47.8518 329.103 48.2636 329.167 48.7004C329.239 49.1373 329.342 49.5133 329.479 49.8284V50.0002H327.405C327.305 49.7711 327.226 49.4667 327.169 49.0872C327.112 48.7004 327.083 48.3424 327.083 48.0129ZM327.427 42.9534L327.448 44.3499H325.439C324.874 44.3499 324.369 44.3964 323.925 44.4895C323.481 44.5754 323.108 44.7079 322.808 44.887C322.507 45.066 322.278 45.2916 322.12 45.5637C321.963 45.8287 321.884 46.1402 321.884 46.4983C321.884 46.8635 321.966 47.1965 322.131 47.4973C322.296 47.7981 322.543 48.038 322.872 48.217C323.209 48.3889 323.62 48.4749 324.107 48.4749C324.716 48.4749 325.253 48.3459 325.719 48.0881C326.184 47.8303 326.553 47.5152 326.825 47.1428C327.104 46.7704 327.255 46.4088 327.276 46.0579L328.125 47.0139C328.075 47.3147 327.939 47.6477 327.717 48.0129C327.495 48.3782 327.198 48.7291 326.825 49.0657C326.46 49.3951 326.023 49.6708 325.515 49.8928C325.013 50.1077 324.448 50.2151 323.817 50.2151C323.03 50.2151 322.339 50.0611 321.744 49.7532C321.157 49.4452 320.699 49.0334 320.369 48.5178C320.047 47.995 319.886 47.4114 319.886 46.7668C319.886 46.1438 320.007 45.5959 320.251 45.1233C320.494 44.6435 320.845 44.246 321.304 43.9309C321.762 43.6086 322.313 43.3652 322.958 43.2004C323.603 43.0357 324.322 42.9534 325.117 42.9534H327.427ZM345.56 44.3928V44.6184C345.56 45.4348 345.47 46.1868 345.291 46.8743C345.112 47.5546 344.843 48.1454 344.485 48.6467C344.134 49.148 343.698 49.5383 343.175 49.8176C342.652 50.0898 342.047 50.2258 341.359 50.2258C340.794 50.2258 340.296 50.1506 339.866 50.0002C339.437 49.8427 339.071 49.6171 338.771 49.3235C338.477 49.0299 338.241 48.679 338.062 48.2708C337.89 47.8554 337.771 47.3899 337.707 46.8743V41.718C337.771 41.1666 337.89 40.6724 338.062 40.2356C338.241 39.7987 338.477 39.4264 338.771 39.1184C339.071 38.8105 339.433 38.5741 339.855 38.4094C340.278 38.2447 340.772 38.1624 341.338 38.1624C341.896 38.1624 342.398 38.2626 342.842 38.4631C343.293 38.6565 343.687 38.9358 344.023 39.301C344.367 39.6663 344.65 40.1067 344.872 40.6223C345.101 41.1308 345.273 41.7037 345.388 42.3411C345.502 42.9784 345.56 43.6624 345.56 44.3928ZM343.572 44.6184V44.3928C343.572 43.8915 343.536 43.4153 343.465 42.9641C343.4 42.5058 343.297 42.0868 343.153 41.7073C343.017 41.3206 342.838 40.984 342.616 40.6975C342.394 40.4111 342.126 40.189 341.811 40.0315C341.503 39.8739 341.148 39.7952 340.747 39.7952C340.317 39.7952 339.959 39.8489 339.673 39.9563C339.394 40.0637 339.175 40.2069 339.018 40.386C338.86 40.5579 338.745 40.7405 338.674 40.9338V47.6692C338.76 47.8267 338.885 47.9771 339.05 48.1204C339.215 48.2564 339.437 48.371 339.716 48.4641C339.995 48.55 340.346 48.593 340.769 48.593C341.27 48.593 341.696 48.4928 342.047 48.2922C342.405 48.0846 342.695 47.7981 342.917 47.4329C343.146 47.0676 343.311 46.6451 343.411 46.1653C343.519 45.6855 343.572 45.1698 343.572 44.6184ZM331.756 44.6184V44.3928C331.756 43.6624 331.813 42.9784 331.928 42.3411C332.042 41.7037 332.214 41.1308 332.443 40.6223C332.673 40.1067 332.955 39.6663 333.292 39.301C333.636 38.9358 334.03 38.6565 334.474 38.4631C334.925 38.2626 335.43 38.1624 335.988 38.1624C336.54 38.1624 337.02 38.2447 337.428 38.4094C337.843 38.5741 338.194 38.8105 338.48 39.1184C338.767 39.4264 338.996 39.7987 339.168 40.2356C339.34 40.6724 339.462 41.1666 339.533 41.718V46.6702C339.469 47.2144 339.351 47.705 339.179 48.1418C339.007 48.5787 338.778 48.9547 338.491 49.2698C338.205 49.5777 337.85 49.814 337.428 49.9788C337.012 50.1435 336.525 50.2258 335.967 50.2258C335.279 50.2258 334.674 50.0898 334.151 49.8176C333.629 49.5383 333.188 49.148 332.83 48.6467C332.479 48.1454 332.211 47.5546 332.024 46.8743C331.845 46.1868 331.756 45.4348 331.756 44.6184ZM333.754 44.3928V44.6184C333.754 45.1698 333.8 45.6855 333.894 46.1653C333.994 46.6451 334.148 47.0676 334.355 47.4329C334.57 47.7981 334.85 48.0846 335.193 48.2922C335.537 48.4928 335.96 48.593 336.461 48.593C336.891 48.593 337.245 48.5393 337.524 48.4319C337.804 48.3245 338.026 48.1848 338.19 48.0129C338.355 47.8411 338.48 47.662 338.566 47.4758V40.9338C338.495 40.7405 338.377 40.5579 338.212 40.386C338.054 40.2069 337.836 40.0637 337.557 39.9563C337.277 39.8489 336.919 39.7952 336.482 39.7952C335.981 39.7952 335.555 39.9169 335.204 40.1604C334.853 40.4039 334.57 40.7369 334.355 41.1594C334.148 41.5819 333.994 42.0725 333.894 42.6311C333.8 43.1825 333.754 43.7698 333.754 44.3928ZM337.578 54.469V33.5002H339.576V54.469H337.578ZM350.308 46.8528L355.668 38.3772H357.666V50.0002H355.668V41.5247L350.308 50.0002H348.331V38.3772H350.308V46.8528ZM363.016 38.3772V50.0002H361.028V38.3772H363.016ZM370.643 38.3772L365.132 45.0374H362.35L362.049 43.2971H364.326L368.226 38.3772H370.643ZM368.505 50.0002L364.229 44.7366L365.508 43.2971L371.029 50.0002H368.505ZM379.612 48.0129V42.0295C379.612 41.5712 379.519 41.1737 379.333 40.8372C379.154 40.4934 378.882 40.2284 378.517 40.0422C378.151 39.856 377.7 39.7629 377.163 39.7629C376.662 39.7629 376.221 39.8489 375.842 40.0208C375.469 40.1926 375.176 40.4182 374.961 40.6975C374.753 40.9768 374.649 41.2776 374.649 41.5999H372.662C372.662 41.1845 372.77 40.7727 372.984 40.3645C373.199 39.9563 373.507 39.5875 373.908 39.2581C374.316 38.9215 374.803 38.6565 375.369 38.4631C375.942 38.2626 376.579 38.1624 377.281 38.1624C378.126 38.1624 378.871 38.3056 379.516 38.592C380.167 38.8785 380.676 39.3118 381.041 39.8918C381.413 40.4648 381.6 41.1845 381.6 42.051V47.4651C381.6 47.8518 381.632 48.2636 381.696 48.7004C381.768 49.1373 381.872 49.5133 382.008 49.8284V50.0002H379.935C379.834 49.7711 379.756 49.4667 379.698 49.0872C379.641 48.7004 379.612 48.3424 379.612 48.0129ZM379.956 42.9534L379.978 44.3499H377.969C377.403 44.3499 376.898 44.3964 376.454 44.4895C376.01 44.5754 375.638 44.7079 375.337 44.887C375.036 45.066 374.807 45.2916 374.649 45.5637C374.492 45.8287 374.413 46.1402 374.413 46.4983C374.413 46.8635 374.495 47.1965 374.66 47.4973C374.825 47.7981 375.072 48.038 375.401 48.217C375.738 48.3889 376.15 48.4749 376.637 48.4749C377.245 48.4749 377.783 48.3459 378.248 48.0881C378.714 47.8303 379.082 47.5152 379.354 47.1428C379.634 46.7704 379.784 46.4088 379.806 46.0579L380.654 47.0139C380.604 47.3147 380.468 47.6477 380.246 48.0129C380.024 48.3782 379.727 48.7291 379.354 49.0657C378.989 49.3951 378.552 49.6708 378.044 49.8928C377.543 50.1077 376.977 50.2151 376.347 50.2151C375.559 50.2151 374.868 50.0611 374.273 49.7532C373.686 49.4452 373.228 49.0334 372.898 48.5178C372.576 47.995 372.415 47.4114 372.415 46.7668C372.415 46.1438 372.537 45.5959 372.78 45.1233C373.024 44.6435 373.375 44.246 373.833 43.9309C374.291 43.6086 374.843 43.3652 375.487 43.2004C376.132 43.0357 376.852 42.9534 377.646 42.9534H379.956ZM143.972 70.887H140.158L140.137 69.2971H143.252C143.868 69.2971 144.38 69.2362 144.788 69.1145C145.203 68.9928 145.515 68.8101 145.723 68.5667C145.93 68.3232 146.034 68.0224 146.034 67.6643C146.034 67.385 145.973 67.1415 145.852 66.9338C145.737 66.719 145.562 66.5435 145.325 66.4075C145.089 66.2642 144.795 66.1604 144.444 66.0959C144.101 66.0243 143.696 65.9885 143.23 65.9885H140.685V76.0002H138.697V64.3772H143.23C143.968 64.3772 144.631 64.4417 145.218 64.5706C145.812 64.6995 146.317 64.8964 146.732 65.1614C147.155 65.4192 147.477 65.7486 147.699 66.1497C147.921 66.5507 148.032 67.0234 148.032 67.5676C148.032 67.9185 147.961 68.2515 147.817 68.5667C147.674 68.8818 147.463 69.1611 147.184 69.4045C146.904 69.648 146.561 69.8486 146.152 70.0061C145.744 70.1565 145.275 70.2532 144.745 70.2961L143.972 70.887ZM143.972 76.0002H139.438L140.427 74.3889H143.972C144.523 74.3889 144.981 74.3209 145.347 74.1848C145.712 74.0416 145.984 73.8411 146.163 73.5833C146.349 73.3183 146.442 73.0032 146.442 72.6379C146.442 72.2727 146.349 71.9612 146.163 71.7034C145.984 71.4384 145.712 71.2379 145.347 71.1018C144.981 70.9586 144.523 70.887 143.972 70.887H140.953L140.975 69.2971H144.745L145.465 69.8987C146.102 69.9488 146.643 70.1064 147.087 70.3713C147.531 70.6363 147.868 70.9729 148.097 71.3811C148.326 71.7821 148.44 72.219 148.44 72.6917C148.44 73.2359 148.337 73.7157 148.129 74.1311C147.928 74.5465 147.635 74.8938 147.248 75.1731C146.861 75.4452 146.392 75.6529 145.841 75.7961C145.289 75.9322 144.666 76.0002 143.972 76.0002ZM161.385 76.2151C160.576 76.2151 159.841 76.079 159.183 75.8069C158.531 75.5276 157.969 75.1373 157.496 74.636C157.031 74.1347 156.673 73.5403 156.422 72.8528C156.171 72.1653 156.046 71.4133 156.046 70.5969V70.1458C156.046 69.2004 156.186 68.359 156.465 67.6213C156.744 66.8765 157.124 66.2463 157.604 65.7307C158.083 65.2151 158.628 64.8248 159.236 64.5598C159.845 64.2948 160.475 64.1624 161.127 64.1624C161.958 64.1624 162.674 64.3056 163.275 64.592C163.884 64.8785 164.382 65.2795 164.769 65.7952C165.155 66.3036 165.442 66.9052 165.628 67.5999C165.814 68.2874 165.907 69.0393 165.907 69.8557V70.7473H157.228V69.1252H163.92V68.9749C163.891 68.4592 163.784 67.9579 163.598 67.4709C163.419 66.984 163.132 66.5829 162.738 66.2678C162.344 65.9527 161.807 65.7952 161.127 65.7952C160.676 65.7952 160.26 65.8918 159.881 66.0852C159.501 66.2714 159.175 66.5507 158.903 66.9231C158.631 67.2955 158.42 67.7502 158.27 68.2874C158.119 68.8245 158.044 69.4439 158.044 70.1458V70.5969C158.044 71.1484 158.119 71.6676 158.27 72.1545C158.427 72.6344 158.653 73.0569 158.946 73.4221C159.247 73.7874 159.609 74.0738 160.031 74.2815C160.461 74.4892 160.948 74.593 161.492 74.593C162.194 74.593 162.788 74.4498 163.275 74.1633C163.762 73.8769 164.188 73.4937 164.554 73.0139L165.757 73.97C165.506 74.3495 165.188 74.7112 164.801 75.0549C164.414 75.3987 163.938 75.678 163.372 75.8928C162.813 76.1077 162.151 76.2151 161.385 76.2151ZM172.363 68.5344V70.1672H167.121V68.5344H172.363ZM178.959 74.5823C179.432 74.5823 179.868 74.4856 180.27 74.2922C180.671 74.0989 181 73.8339 181.258 73.4973C181.516 73.1536 181.662 72.7633 181.698 72.3264H183.589C183.553 73.0139 183.32 73.6549 182.891 74.2493C182.468 74.8365 181.913 75.3127 181.226 75.678C180.538 76.0361 179.783 76.2151 178.959 76.2151C178.085 76.2151 177.323 76.0611 176.671 75.7532C176.026 75.4452 175.489 75.0227 175.06 74.4856C174.637 73.9485 174.318 73.3326 174.104 72.6379C173.896 71.9361 173.792 71.1949 173.792 70.4143V69.9631C173.792 69.1825 173.896 68.4449 174.104 67.7502C174.318 67.0484 174.637 66.429 175.06 65.8918C175.489 65.3547 176.026 64.9322 176.671 64.6243C177.323 64.3163 178.085 64.1624 178.959 64.1624C179.868 64.1624 180.663 64.3486 181.344 64.7209C182.024 65.0862 182.558 65.5875 182.944 66.2249C183.338 66.8551 183.553 67.5712 183.589 68.3733H181.698C181.662 67.8935 181.526 67.4602 181.29 67.0735C181.061 66.6868 180.746 66.3788 180.345 66.1497C179.951 65.9133 179.489 65.7952 178.959 65.7952C178.35 65.7952 177.838 65.9169 177.423 66.1604C177.015 66.3967 176.689 66.719 176.445 67.1272C176.209 67.5282 176.037 67.9758 175.93 68.47C175.829 68.9569 175.779 69.4547 175.779 69.9631V70.4143C175.779 70.9228 175.829 71.4241 175.93 71.9182C176.03 72.4124 176.198 72.8599 176.435 73.261C176.678 73.662 177.004 73.9843 177.412 74.2278C177.827 74.4641 178.343 74.5823 178.959 74.5823ZM185.297 70.3176V70.0706C185.297 69.2327 185.419 68.4556 185.662 67.7395C185.906 67.0162 186.257 66.3896 186.715 65.8596C187.173 65.3225 187.728 64.9071 188.38 64.6135C189.032 64.3127 189.762 64.1624 190.571 64.1624C191.388 64.1624 192.122 64.3127 192.773 64.6135C193.432 64.9071 193.991 65.3225 194.449 65.8596C194.915 66.3896 195.269 67.0162 195.513 67.7395C195.756 68.4556 195.878 69.2327 195.878 70.0706V70.3176C195.878 71.1555 195.756 71.9325 195.513 72.6487C195.269 73.3648 194.915 73.9915 194.449 74.5286C193.991 75.0585 193.436 75.4739 192.784 75.7747C192.14 76.0683 191.409 76.2151 190.593 76.2151C189.776 76.2151 189.042 76.0683 188.391 75.7747C187.739 75.4739 187.18 75.0585 186.715 74.5286C186.257 73.9915 185.906 73.3648 185.662 72.6487C185.419 71.9325 185.297 71.1555 185.297 70.3176ZM187.284 70.0706V70.3176C187.284 70.8977 187.352 71.4456 187.488 71.9612C187.624 72.4696 187.828 72.9208 188.101 73.3147C188.38 73.7086 188.727 74.0201 189.143 74.2493C189.558 74.4713 190.041 74.5823 190.593 74.5823C191.137 74.5823 191.613 74.4713 192.021 74.2493C192.437 74.0201 192.781 73.7086 193.053 73.3147C193.325 72.9208 193.529 72.4696 193.665 71.9612C193.808 71.4456 193.88 70.8977 193.88 70.3176V70.0706C193.88 69.4976 193.808 68.9569 193.665 68.4485C193.529 67.9329 193.321 67.4781 193.042 67.0842C192.77 66.6832 192.426 66.3681 192.011 66.1389C191.603 65.9097 191.123 65.7952 190.571 65.7952C190.027 65.7952 189.547 65.9097 189.132 66.1389C188.724 66.3681 188.38 66.6832 188.101 67.0842C187.828 67.4781 187.624 67.9329 187.488 68.4485C187.352 68.9569 187.284 69.4976 187.284 70.0706ZM200.347 66.6868V76.0002H198.349V64.3772H200.239L200.347 66.6868ZM199.938 69.7483L199.015 69.7161C199.022 68.9211 199.126 68.1871 199.326 67.5139C199.527 66.8336 199.824 66.2428 200.218 65.7415C200.612 65.2402 201.102 64.8534 201.689 64.5813C202.277 64.302 202.957 64.1624 203.73 64.1624C204.275 64.1624 204.776 64.2411 205.234 64.3987C205.693 64.5491 206.09 64.789 206.427 65.1184C206.763 65.4478 207.025 65.8704 207.211 66.386C207.397 66.9016 207.49 67.5247 207.49 68.2551V76.0002H205.503V68.3518C205.503 67.7431 205.399 67.2561 205.191 66.8909C204.991 66.5256 204.704 66.2607 204.332 66.0959C203.96 65.9241 203.523 65.8381 203.021 65.8381C202.434 65.8381 201.944 65.942 201.55 66.1497C201.156 66.3573 200.841 66.6438 200.604 67.009C200.368 67.3743 200.196 67.7932 200.089 68.2659C199.989 68.7314 199.938 69.2255 199.938 69.7483ZM207.469 68.6526L206.137 69.0608C206.144 68.4234 206.248 67.8111 206.448 67.2239C206.656 66.6366 206.953 66.1139 207.34 65.6555C207.734 65.1972 208.217 64.8355 208.79 64.5706C209.363 64.2984 210.018 64.1624 210.756 64.1624C211.379 64.1624 211.93 64.2447 212.41 64.4094C212.897 64.5741 213.305 64.8284 213.635 65.1721C213.971 65.5087 214.226 65.942 214.397 66.4719C214.569 67.0019 214.655 67.6321 214.655 68.3625V76.0002H212.657V68.3411C212.657 67.6894 212.553 67.1845 212.346 66.8264C212.145 66.4612 211.859 66.2069 211.486 66.0637C211.121 65.9133 210.684 65.8381 210.176 65.8381C209.739 65.8381 209.352 65.9133 209.016 66.0637C208.679 66.2141 208.396 66.4218 208.167 66.6868C207.938 66.9446 207.762 67.2418 207.641 67.5784C207.526 67.915 207.469 68.273 207.469 68.6526ZM219.64 66.6868V76.0002H217.642V64.3772H219.532L219.64 66.6868ZM219.231 69.7483L218.308 69.7161C218.315 68.9211 218.419 68.1871 218.619 67.5139C218.82 66.8336 219.117 66.2428 219.511 65.7415C219.905 65.2402 220.395 64.8534 220.982 64.5813C221.57 64.302 222.25 64.1624 223.023 64.1624C223.568 64.1624 224.069 64.2411 224.527 64.3987C224.986 64.5491 225.383 64.789 225.72 65.1184C226.056 65.4478 226.318 65.8704 226.504 66.386C226.69 66.9016 226.783 67.5247 226.783 68.2551V76.0002H224.796V68.3518C224.796 67.7431 224.692 67.2561 224.484 66.8909C224.284 66.5256 223.997 66.2607 223.625 66.0959C223.253 65.9241 222.816 65.8381 222.314 65.8381C221.727 65.8381 221.237 65.942 220.843 66.1497C220.449 66.3573 220.134 66.6438 219.897 67.009C219.661 67.3743 219.489 67.7932 219.382 68.2659C219.282 68.7314 219.231 69.2255 219.231 69.7483ZM226.762 68.6526L225.43 69.0608C225.437 68.4234 225.541 67.8111 225.741 67.2239C225.949 66.6366 226.246 66.1139 226.633 65.6555C227.027 65.1972 227.51 64.8355 228.083 64.5706C228.656 64.2984 229.311 64.1624 230.049 64.1624C230.672 64.1624 231.223 64.2447 231.703 64.4094C232.19 64.5741 232.598 64.8284 232.928 65.1721C233.264 65.5087 233.519 65.942 233.69 66.4719C233.862 67.0019 233.948 67.6321 233.948 68.3625V76.0002H231.95V68.3411C231.95 67.6894 231.846 67.1845 231.639 66.8264C231.438 66.4612 231.152 66.2069 230.779 66.0637C230.414 65.9133 229.977 65.8381 229.469 65.8381C229.032 65.8381 228.645 65.9133 228.309 66.0637C227.972 66.2141 227.689 66.4218 227.46 66.6868C227.231 66.9446 227.055 67.2418 226.934 67.5784C226.819 67.915 226.762 68.273 226.762 68.6526ZM241.779 76.2151C240.97 76.2151 240.236 76.079 239.577 75.8069C238.925 75.5276 238.363 75.1373 237.891 74.636C237.425 74.1347 237.067 73.5403 236.816 72.8528C236.566 72.1653 236.44 71.4133 236.44 70.5969V70.1458C236.44 69.2004 236.58 68.359 236.859 67.6213C237.139 66.8765 237.518 66.2463 237.998 65.7307C238.478 65.2151 239.022 64.8248 239.631 64.5598C240.24 64.2948 240.87 64.1624 241.521 64.1624C242.352 64.1624 243.068 64.3056 243.67 64.592C244.279 64.8785 244.776 65.2795 245.163 65.7952C245.55 66.3036 245.836 66.9052 246.022 67.5999C246.209 68.2874 246.302 69.0393 246.302 69.8557V70.7473H237.622V69.1252H244.314V68.9749C244.286 68.4592 244.178 67.9579 243.992 67.4709C243.813 66.984 243.527 66.5829 243.133 66.2678C242.739 65.9527 242.202 65.7952 241.521 65.7952C241.07 65.7952 240.655 65.8918 240.275 66.0852C239.896 66.2714 239.57 66.5507 239.298 66.9231C239.026 67.2955 238.814 67.7502 238.664 68.2874C238.514 68.8245 238.438 69.4439 238.438 70.1458V70.5969C238.438 71.1484 238.514 71.6676 238.664 72.1545C238.822 72.6344 239.047 73.0569 239.341 73.4221C239.642 73.7874 240.003 74.0738 240.426 74.2815C240.855 74.4892 241.342 74.593 241.887 74.593C242.589 74.593 243.183 74.4498 243.67 74.1633C244.157 73.8769 244.583 73.4937 244.948 73.0139L246.151 73.97C245.901 74.3495 245.582 74.7112 245.195 75.0549C244.809 75.3987 244.332 75.678 243.767 75.8928C243.208 76.1077 242.546 76.2151 241.779 76.2151ZM250.609 66.2034V76.0002H248.622V64.3772H250.556L250.609 66.2034ZM254.24 64.3127L254.229 66.1604C254.065 66.1246 253.907 66.1031 253.757 66.0959C253.614 66.0816 253.449 66.0745 253.263 66.0745C252.804 66.0745 252.4 66.1461 252.049 66.2893C251.698 66.4325 251.401 66.6331 251.157 66.8909C250.914 67.1487 250.72 67.4566 250.577 67.8147C250.441 68.1656 250.352 68.5523 250.309 68.9749L249.75 69.2971C249.75 68.5953 249.818 67.9364 249.954 67.3206C250.097 66.7047 250.316 66.1604 250.609 65.6877C250.903 65.2079 251.275 64.8355 251.727 64.5706C252.185 64.2984 252.729 64.1624 253.359 64.1624C253.503 64.1624 253.667 64.1803 253.854 64.2161C254.04 64.2447 254.169 64.2769 254.24 64.3127ZM260.514 74.5823C260.986 74.5823 261.423 74.4856 261.824 74.2922C262.225 74.0989 262.555 73.8339 262.812 73.4973C263.07 73.1536 263.217 72.7633 263.253 72.3264H265.144C265.108 73.0139 264.875 73.6549 264.445 74.2493C264.023 74.8365 263.468 75.3127 262.78 75.678C262.093 76.0361 261.337 76.2151 260.514 76.2151C259.64 76.2151 258.877 76.0611 258.226 75.7532C257.581 75.4452 257.044 75.0227 256.614 74.4856C256.192 73.9485 255.873 73.3326 255.658 72.6379C255.451 71.9361 255.347 71.1949 255.347 70.4143V69.9631C255.347 69.1825 255.451 68.4449 255.658 67.7502C255.873 67.0484 256.192 66.429 256.614 65.8918C257.044 65.3547 257.581 64.9322 258.226 64.6243C258.877 64.3163 259.64 64.1624 260.514 64.1624C261.423 64.1624 262.218 64.3486 262.898 64.7209C263.579 65.0862 264.112 65.5875 264.499 66.2249C264.893 66.8551 265.108 67.5712 265.144 68.3733H263.253C263.217 67.8935 263.081 67.4602 262.845 67.0735C262.616 66.6868 262.3 66.3788 261.899 66.1497C261.506 65.9133 261.044 65.7952 260.514 65.7952C259.905 65.7952 259.393 65.9169 258.978 66.1604C258.569 66.3967 258.243 66.719 258 67.1272C257.764 67.5282 257.592 67.9758 257.484 68.47C257.384 68.9569 257.334 69.4547 257.334 69.9631V70.4143C257.334 70.9228 257.384 71.4241 257.484 71.9182C257.585 72.4124 257.753 72.8599 257.989 73.261C258.233 73.662 258.559 73.9843 258.967 74.2278C259.382 74.4641 259.898 74.5823 260.514 74.5823ZM272.201 76.2151C271.392 76.2151 270.658 76.079 269.999 75.8069C269.347 75.5276 268.785 75.1373 268.312 74.636C267.847 74.1347 267.489 73.5403 267.238 72.8528C266.988 72.1653 266.862 71.4133 266.862 70.5969V70.1458C266.862 69.2004 267.002 68.359 267.281 67.6213C267.561 66.8765 267.94 66.2463 268.42 65.7307C268.9 65.2151 269.444 64.8248 270.053 64.5598C270.661 64.2948 271.292 64.1624 271.943 64.1624C272.774 64.1624 273.49 64.3056 274.092 64.592C274.701 64.8785 275.198 65.2795 275.585 65.7952C275.972 66.3036 276.258 66.9052 276.444 67.5999C276.631 68.2874 276.724 69.0393 276.724 69.8557V70.7473H268.044V69.1252H274.736V68.9749C274.708 68.4592 274.6 67.9579 274.414 67.4709C274.235 66.984 273.949 66.5829 273.555 66.2678C273.161 65.9527 272.624 65.7952 271.943 65.7952C271.492 65.7952 271.077 65.8918 270.697 66.0852C270.318 66.2714 269.992 66.5507 269.72 66.9231C269.448 67.2955 269.236 67.7502 269.086 68.2874C268.936 68.8245 268.86 69.4439 268.86 70.1458V70.5969C268.86 71.1484 268.936 71.6676 269.086 72.1545C269.243 72.6344 269.469 73.0569 269.763 73.4221C270.063 73.7874 270.425 74.0738 270.848 74.2815C271.277 74.4892 271.764 74.593 272.309 74.593C273.01 74.593 273.605 74.4498 274.092 74.1633C274.579 73.8769 275.005 73.4937 275.37 73.0139L276.573 73.97C276.323 74.3495 276.004 74.7112 275.617 75.0549C275.23 75.3987 274.754 75.678 274.188 75.8928C273.63 76.1077 272.967 76.2151 272.201 76.2151ZM138.439 95.7483V95.6409C138.439 94.0797 138.615 92.6689 138.966 91.4084C139.317 90.1409 139.764 89.0308 140.309 88.0784C140.853 87.1259 141.426 86.3381 142.027 85.7151C142.629 85.0849 143.184 84.6301 143.692 84.3508L144.111 85.6614C143.689 85.9836 143.259 86.4277 142.822 86.9934C142.393 87.5592 141.995 88.2538 141.63 89.0774C141.272 89.901 140.982 90.857 140.76 91.9456C140.538 93.0341 140.427 94.2587 140.427 95.6194V95.7698C140.427 97.1305 140.538 98.3586 140.76 99.4543C140.982 100.543 141.272 101.503 141.63 102.333C141.995 103.164 142.393 103.869 142.822 104.449C143.259 105.037 143.689 105.502 144.111 105.846L143.692 107.049C143.184 106.77 142.629 106.315 142.027 105.685C141.426 105.062 140.853 104.274 140.309 103.322C139.764 102.376 139.317 101.27 138.966 100.002C138.615 98.7346 138.439 97.3167 138.439 95.7483ZM150.707 100.582C151.18 100.582 151.617 100.486 152.018 100.292C152.419 100.099 152.748 99.8339 153.006 99.4973C153.264 99.1536 153.41 98.7633 153.446 98.3264H155.337C155.301 99.0139 155.068 99.6549 154.639 100.249C154.216 100.837 153.661 101.313 152.974 101.678C152.286 102.036 151.531 102.215 150.707 102.215C149.833 102.215 149.071 102.061 148.419 101.753C147.774 101.445 147.237 101.023 146.808 100.486C146.385 99.9485 146.066 99.3326 145.852 98.6379C145.644 97.9361 145.54 97.1949 145.54 96.4143V95.9631C145.54 95.1825 145.644 94.4449 145.852 93.7502C146.066 93.0484 146.385 92.429 146.808 91.8918C147.237 91.3547 147.774 90.9322 148.419 90.6243C149.071 90.3163 149.833 90.1624 150.707 90.1624C151.617 90.1624 152.411 90.3486 153.092 90.7209C153.772 91.0862 154.306 91.5875 154.692 92.2249C155.086 92.8551 155.301 93.5712 155.337 94.3733H153.446C153.41 93.8935 153.274 93.4602 153.038 93.0735C152.809 92.6868 152.494 92.3788 152.093 92.1497C151.699 91.9133 151.237 91.7952 150.707 91.7952C150.098 91.7952 149.586 91.9169 149.171 92.1604C148.763 92.3967 148.437 92.719 148.193 93.1272C147.957 93.5282 147.785 93.9758 147.678 94.47C147.577 94.9569 147.527 95.4547 147.527 95.9631V96.4143C147.527 96.9228 147.577 97.4241 147.678 97.9182C147.778 98.4124 147.946 98.8599 148.183 99.261C148.426 99.662 148.752 99.9843 149.16 100.228C149.576 100.464 150.091 100.582 150.707 100.582ZM157.045 96.3176V96.0706C157.045 95.2327 157.167 94.4556 157.41 93.7395C157.654 93.0162 158.005 92.3896 158.463 91.8596C158.921 91.3225 159.476 90.9071 160.128 90.6135C160.78 90.3127 161.51 90.1624 162.319 90.1624C163.136 90.1624 163.87 90.3127 164.521 90.6135C165.18 90.9071 165.739 91.3225 166.197 91.8596C166.663 92.3896 167.017 93.0162 167.261 93.7395C167.504 94.4556 167.626 95.2327 167.626 96.0706V96.3176C167.626 97.1555 167.504 97.9325 167.261 98.6487C167.017 99.3648 166.663 99.9915 166.197 100.529C165.739 101.059 165.184 101.474 164.532 101.775C163.888 102.068 163.157 102.215 162.341 102.215C161.524 102.215 160.79 102.068 160.139 101.775C159.487 101.474 158.928 101.059 158.463 100.529C158.005 99.9915 157.654 99.3648 157.41 98.6487C157.167 97.9325 157.045 97.1555 157.045 96.3176ZM159.032 96.0706V96.3176C159.032 96.8977 159.1 97.4456 159.236 97.9612C159.372 98.4696 159.576 98.9208 159.849 99.3147C160.128 99.7086 160.475 100.02 160.891 100.249C161.306 100.471 161.789 100.582 162.341 100.582C162.885 100.582 163.361 100.471 163.77 100.249C164.185 100.02 164.529 99.7086 164.801 99.3147C165.073 98.9208 165.277 98.4696 165.413 97.9612C165.556 97.4456 165.628 96.8977 165.628 96.3176V96.0706C165.628 95.4976 165.556 94.9569 165.413 94.4485C165.277 93.9329 165.069 93.4781 164.79 93.0842C164.518 92.6832 164.174 92.3681 163.759 92.1389C163.351 91.9097 162.871 91.7952 162.319 91.7952C161.775 91.7952 161.295 91.9097 160.88 92.1389C160.472 92.3681 160.128 92.6832 159.849 93.0842C159.576 93.4781 159.372 93.9329 159.236 94.4485C159.1 94.9569 159.032 95.4976 159.032 96.0706ZM177.573 85.3176H179.206C179.206 86.0194 179.099 86.578 178.884 86.9934C178.669 87.4016 178.375 87.7167 178.003 87.9387C177.638 88.1607 177.222 88.329 176.757 88.4436C176.299 88.5582 175.822 88.6692 175.328 88.7766C174.712 88.9055 174.139 89.1096 173.609 89.3889C173.087 89.6611 172.635 90.0478 172.256 90.5491C171.883 91.0504 171.608 91.7021 171.429 92.5042C171.257 93.3062 171.21 94.2981 171.289 95.4797V96.468H169.656V95.4797C169.656 94.1549 169.782 92.9983 170.032 92.01C170.29 91.0217 170.652 90.1874 171.117 89.5071C171.583 88.8267 172.134 88.2861 172.771 87.885C173.416 87.484 174.125 87.2083 174.898 87.0579C175.457 86.9504 175.937 86.8359 176.338 86.7141C176.739 86.5852 177.043 86.4133 177.251 86.1985C177.466 85.9836 177.573 85.69 177.573 85.3176ZM175.221 91.0432C175.98 91.0432 176.657 91.1757 177.251 91.4407C177.845 91.7056 178.35 92.0745 178.766 92.5471C179.181 93.0198 179.496 93.5784 179.711 94.2229C179.933 94.8603 180.044 95.5549 180.044 96.3069V96.5432C180.044 97.3525 179.926 98.1044 179.689 98.7991C179.46 99.4866 179.12 100.088 178.669 100.604C178.225 101.112 177.681 101.51 177.036 101.796C176.399 102.083 175.672 102.226 174.855 102.226C174.039 102.226 173.309 102.083 172.664 101.796C172.027 101.51 171.482 101.112 171.031 100.604C170.58 100.088 170.236 99.4866 170 98.7991C169.771 98.1044 169.656 97.3525 169.656 96.5432V96.3069C169.656 96.1278 169.688 95.9524 169.753 95.7805C169.817 95.6086 169.896 95.4332 169.989 95.2542C170.09 95.0751 170.179 94.8853 170.258 94.6848C170.523 94.0403 170.884 93.4423 171.343 92.8909C171.808 92.3394 172.363 91.8954 173.008 91.5588C173.66 91.2151 174.397 91.0432 175.221 91.0432ZM174.834 92.6653C174.104 92.6653 173.502 92.8336 173.029 93.1702C172.564 93.5068 172.216 93.9543 171.987 94.5129C171.758 95.0644 171.644 95.6624 171.644 96.3069V96.5432C171.644 97.0875 171.708 97.6031 171.837 98.0901C171.966 98.5771 172.159 99.0103 172.417 99.3899C172.682 99.7623 173.015 100.056 173.416 100.271C173.824 100.486 174.304 100.593 174.855 100.593C175.407 100.593 175.883 100.486 176.284 100.271C176.685 100.056 177.015 99.7623 177.272 99.3899C177.53 99.0103 177.724 98.5771 177.853 98.0901C177.981 97.6031 178.046 97.0875 178.046 96.5432V96.3069C178.046 95.8199 177.981 95.358 177.853 94.9211C177.724 94.4843 177.527 94.0976 177.262 93.761C177.004 93.4244 176.671 93.1594 176.263 92.9661C175.862 92.7655 175.385 92.6653 174.834 92.6653ZM186.951 100.582C187.424 100.582 187.861 100.486 188.262 100.292C188.663 100.099 188.992 99.8339 189.25 99.4973C189.508 99.1536 189.655 98.7633 189.69 98.3264H191.581C191.545 99.0139 191.312 99.6549 190.883 100.249C190.46 100.837 189.905 101.313 189.218 101.678C188.53 102.036 187.775 102.215 186.951 102.215C186.077 102.215 185.315 102.061 184.663 101.753C184.019 101.445 183.481 101.023 183.052 100.486C182.629 99.9485 182.311 99.3326 182.096 98.6379C181.888 97.9361 181.784 97.1949 181.784 96.4143V95.9631C181.784 95.1825 181.888 94.4449 182.096 93.7502C182.311 93.0484 182.629 92.429 183.052 91.8918C183.481 91.3547 184.019 90.9322 184.663 90.6243C185.315 90.3163 186.077 90.1624 186.951 90.1624C187.861 90.1624 188.656 90.3486 189.336 90.7209C190.016 91.0862 190.55 91.5875 190.937 92.2249C191.33 92.8551 191.545 93.5712 191.581 94.3733H189.69C189.655 93.8935 189.519 93.4602 189.282 93.0735C189.053 92.6868 188.738 92.3788 188.337 92.1497C187.943 91.9133 187.481 91.7952 186.951 91.7952C186.342 91.7952 185.83 91.9169 185.415 92.1604C185.007 92.3967 184.681 92.719 184.438 93.1272C184.201 93.5282 184.029 93.9758 183.922 94.47C183.822 94.9569 183.771 95.4547 183.771 95.9631V96.4143C183.771 96.9228 183.822 97.4241 183.922 97.9182C184.022 98.4124 184.19 98.8599 184.427 99.261C184.67 99.662 184.996 99.9843 185.404 100.228C185.82 100.464 186.335 100.582 186.951 100.582ZM198.553 90.3772V102H196.555V90.3772H198.553ZM202.452 90.3772V91.9885H192.73V90.3772H202.452ZM209.864 96.887H206.051L206.029 95.2971H209.145C209.76 95.2971 210.272 95.2362 210.681 95.1145C211.096 94.9928 211.408 94.8101 211.615 94.5667C211.823 94.3232 211.927 94.0224 211.927 93.6643C211.927 93.385 211.866 93.1415 211.744 92.9338C211.63 92.719 211.454 92.5435 211.218 92.4075C210.981 92.2642 210.688 92.1604 210.337 92.0959C209.993 92.0243 209.589 91.9885 209.123 91.9885H206.577V102H204.59V90.3772H209.123C209.861 90.3772 210.523 90.4417 211.11 90.5706C211.705 90.6995 212.21 90.8964 212.625 91.1614C213.048 91.4192 213.37 91.7486 213.592 92.1497C213.814 92.5507 213.925 93.0234 213.925 93.5676C213.925 93.9185 213.853 94.2515 213.71 94.5667C213.567 94.8818 213.355 95.1611 213.076 95.4045C212.797 95.648 212.453 95.8486 212.045 96.0061C211.637 96.1565 211.168 96.2532 210.638 96.2961L209.864 96.887ZM209.864 102H205.331L206.319 100.389H209.864C210.416 100.389 210.874 100.321 211.239 100.185C211.604 100.042 211.877 99.8411 212.056 99.5833C212.242 99.3183 212.335 99.0032 212.335 98.6379C212.335 98.2727 212.242 97.9612 212.056 97.7034C211.877 97.4384 211.604 97.2379 211.239 97.1018C210.874 96.9586 210.416 96.887 209.864 96.887H206.846L206.867 95.2971H210.638L211.357 95.8987C211.995 95.9488 212.535 96.1064 212.979 96.3713C213.424 96.6363 213.76 96.9729 213.989 97.3811C214.218 97.7821 214.333 98.219 214.333 98.6917C214.333 99.2359 214.229 99.7157 214.021 100.131C213.821 100.546 213.527 100.894 213.141 101.173C212.754 101.445 212.285 101.653 211.733 101.796C211.182 101.932 210.559 102 209.864 102ZM221.82 102.215C221.011 102.215 220.277 102.079 219.618 101.807C218.966 101.528 218.404 101.137 217.932 100.636C217.466 100.135 217.108 99.5403 216.857 98.8528C216.607 98.1653 216.481 97.4133 216.481 96.5969V96.1458C216.481 95.2004 216.621 94.359 216.9 93.6213C217.18 92.8765 217.559 92.2463 218.039 91.7307C218.519 91.2151 219.063 90.8248 219.672 90.5598C220.281 90.2948 220.911 90.1624 221.562 90.1624C222.393 90.1624 223.109 90.3056 223.711 90.592C224.32 90.8785 224.817 91.2795 225.204 91.7952C225.591 92.3036 225.877 92.9052 226.063 93.5999C226.25 94.2874 226.343 95.0393 226.343 95.8557V96.7473H217.663V95.1252H224.355V94.9749C224.327 94.4592 224.219 93.9579 224.033 93.4709C223.854 92.984 223.568 92.5829 223.174 92.2678C222.78 91.9527 222.243 91.7952 221.562 91.7952C221.111 91.7952 220.696 91.8918 220.316 92.0852C219.937 92.2714 219.611 92.5507 219.339 92.9231C219.067 93.2955 218.855 93.7502 218.705 94.2874C218.555 94.8245 218.479 95.4439 218.479 96.1458V96.5969C218.479 97.1484 218.555 97.6676 218.705 98.1545C218.863 98.6344 219.088 99.0569 219.382 99.4221C219.683 99.7874 220.044 100.074 220.467 100.281C220.896 100.489 221.383 100.593 221.928 100.593C222.63 100.593 223.224 100.45 223.711 100.163C224.198 99.8769 224.624 99.4937 224.989 99.0139L226.192 99.97C225.942 100.35 225.623 100.711 225.236 101.055C224.85 101.399 224.373 101.678 223.808 101.893C223.249 102.108 222.587 102.215 221.82 102.215ZM236.548 95.4153V97.0266H230.403V95.4153H236.548ZM230.822 90.3772V102H228.835V90.3772H230.822ZM238.159 90.3772V102H236.161V90.3772H238.159ZM249.245 95.4153V97.0266H243.101V95.4153H249.245ZM243.52 90.3772V102H241.532V90.3772H243.52ZM250.856 90.3772V102H248.858V90.3772H250.856ZM255.69 94.3733H259.182C260.12 94.3733 260.911 94.538 261.556 94.8674C262.2 95.1897 262.687 95.6373 263.017 96.2102C263.353 96.776 263.521 97.4205 263.521 98.1438C263.521 98.6809 263.428 99.1858 263.242 99.6584C263.056 100.124 262.777 100.532 262.404 100.883C262.039 101.234 261.584 101.51 261.04 101.71C260.503 101.904 259.883 102 259.182 102H254.24V90.3772H256.228V100.367H259.182C259.755 100.367 260.213 100.264 260.557 100.056C260.9 99.8482 261.147 99.5797 261.298 99.2502C261.448 98.9208 261.523 98.5771 261.523 98.219C261.523 97.8681 261.448 97.5243 261.298 97.1877C261.147 96.8512 260.9 96.5719 260.557 96.3499C260.213 96.1207 259.755 96.0061 259.182 96.0061H255.69V94.3733ZM267.657 90.3772V102H265.67V90.3772H267.657ZM273.286 98.8528L278.646 90.3772H280.645V102H278.646V93.5247L273.286 102H271.31V90.3772H273.286V98.8528ZM277.562 86.1663H279.173C279.173 86.7249 279.044 87.2226 278.786 87.6594C278.528 88.0891 278.16 88.4257 277.68 88.6692C277.2 88.9127 276.631 89.0344 275.972 89.0344C274.976 89.0344 274.188 88.7694 273.608 88.2395C273.035 87.7024 272.749 87.0113 272.749 86.1663H274.36C274.36 86.5888 274.482 86.9612 274.726 87.2834C274.969 87.6057 275.384 87.7668 275.972 87.7668C276.545 87.7668 276.953 87.6057 277.196 87.2834C277.44 86.9612 277.562 86.5888 277.562 86.1663ZM293.943 100.582C294.416 100.582 294.853 100.486 295.254 100.292C295.655 100.099 295.984 99.8339 296.242 99.4973C296.5 99.1536 296.647 98.7633 296.683 98.3264H298.573C298.537 99.0139 298.305 99.6549 297.875 100.249C297.452 100.837 296.897 101.313 296.21 101.678C295.522 102.036 294.767 102.215 293.943 102.215C293.07 102.215 292.307 102.061 291.655 101.753C291.011 101.445 290.474 101.023 290.044 100.486C289.621 99.9485 289.303 99.3326 289.088 98.6379C288.88 97.9361 288.776 97.1949 288.776 96.4143V95.9631C288.776 95.1825 288.88 94.4449 289.088 93.7502C289.303 93.0484 289.621 92.429 290.044 91.8918C290.474 91.3547 291.011 90.9322 291.655 90.6243C292.307 90.3163 293.07 90.1624 293.943 90.1624C294.853 90.1624 295.648 90.3486 296.328 90.7209C297.008 91.0862 297.542 91.5875 297.929 92.2249C298.323 92.8551 298.537 93.5712 298.573 94.3733H296.683C296.647 93.8935 296.511 93.4602 296.274 93.0735C296.045 92.6868 295.73 92.3788 295.329 92.1497C294.935 91.9133 294.473 91.7952 293.943 91.7952C293.335 91.7952 292.823 91.9169 292.407 92.1604C291.999 92.3967 291.673 92.719 291.43 93.1272C291.193 93.5282 291.021 93.9758 290.914 94.47C290.814 94.9569 290.764 95.4547 290.764 95.9631V96.4143C290.764 96.9228 290.814 97.4241 290.914 97.9182C291.014 98.4124 291.183 98.8599 291.419 99.261C291.662 99.662 291.988 99.9843 292.396 100.228C292.812 100.464 293.327 100.582 293.943 100.582ZM307.661 100.013V94.0295C307.661 93.5712 307.568 93.1737 307.382 92.8372C307.203 92.4934 306.931 92.2284 306.565 92.0422C306.2 91.856 305.749 91.7629 305.212 91.7629C304.711 91.7629 304.27 91.8489 303.891 92.0208C303.518 92.1926 303.225 92.4182 303.01 92.6975C302.802 92.9768 302.698 93.2776 302.698 93.5999H300.711C300.711 93.1845 300.818 92.7727 301.033 92.3645C301.248 91.9563 301.556 91.5875 301.957 91.2581C302.365 90.9215 302.852 90.6565 303.418 90.4631C303.991 90.2626 304.628 90.1624 305.33 90.1624C306.175 90.1624 306.92 90.3056 307.564 90.592C308.216 90.8785 308.725 91.3118 309.09 91.8918C309.462 92.4648 309.648 93.1845 309.648 94.051V99.4651C309.648 99.8518 309.681 100.264 309.745 100.7C309.817 101.137 309.921 101.513 310.057 101.828V102H307.983C307.883 101.771 307.804 101.467 307.747 101.087C307.69 100.7 307.661 100.342 307.661 100.013ZM308.005 94.9534L308.026 96.3499H306.018C305.452 96.3499 304.947 96.3964 304.503 96.4895C304.059 96.5754 303.687 96.7079 303.386 96.887C303.085 97.066 302.856 97.2916 302.698 97.5637C302.541 97.8287 302.462 98.1402 302.462 98.4983C302.462 98.8635 302.544 99.1965 302.709 99.4973C302.874 99.7981 303.121 100.038 303.45 100.217C303.787 100.389 304.199 100.475 304.686 100.475C305.294 100.475 305.831 100.346 306.297 100.088C306.762 99.8303 307.131 99.5152 307.403 99.1428C307.683 98.7704 307.833 98.4088 307.854 98.0579L308.703 99.0139C308.653 99.3147 308.517 99.6477 308.295 100.013C308.073 100.378 307.776 100.729 307.403 101.066C307.038 101.395 306.601 101.671 306.093 101.893C305.591 102.108 305.026 102.215 304.396 102.215C303.608 102.215 302.917 102.061 302.322 101.753C301.735 101.445 301.277 101.033 300.947 100.518C300.625 99.995 300.464 99.4114 300.464 98.7668C300.464 98.1438 300.586 97.5959 300.829 97.1233C301.073 96.6435 301.424 96.246 301.882 95.9309C302.34 95.6086 302.892 95.3652 303.536 95.2004C304.181 95.0357 304.9 94.9534 305.695 94.9534H308.005ZM314.923 98.8528L320.283 90.3772H322.281V102H320.283V93.5247L314.923 102H312.946V90.3772H314.923V98.8528ZM319.198 86.1663H320.81C320.81 86.7249 320.681 87.2226 320.423 87.6594C320.165 88.0891 319.796 88.4257 319.316 88.6692C318.837 88.9127 318.267 89.0344 317.608 89.0344C316.613 89.0344 315.825 88.7694 315.245 88.2395C314.672 87.7024 314.386 87.0113 314.386 86.1663H315.997C315.997 86.5888 316.119 86.9612 316.362 87.2834C316.606 87.6057 317.021 87.7668 317.608 87.7668C318.181 87.7668 318.59 87.6057 318.833 87.2834C319.076 86.9612 319.198 86.5888 319.198 86.1663ZM330.209 90.3772V102H328.211V90.3772H330.209ZM334.108 90.3772V91.9885H324.387V90.3772H334.108ZM337.868 99.637V101.238C337.868 101.889 337.703 102.577 337.374 103.3C337.045 104.031 336.583 104.639 335.988 105.126L334.86 104.342C335.09 104.027 335.283 103.705 335.44 103.375C335.598 103.053 335.716 102.716 335.795 102.365C335.881 102.022 335.924 101.656 335.924 101.27V99.637H337.868ZM350.512 100.582C350.984 100.582 351.421 100.486 351.822 100.292C352.223 100.099 352.553 99.8339 352.811 99.4973C353.068 99.1536 353.215 98.7633 353.251 98.3264H355.142C355.106 99.0139 354.873 99.6549 354.443 100.249C354.021 100.837 353.466 101.313 352.778 101.678C352.091 102.036 351.335 102.215 350.512 102.215C349.638 102.215 348.875 102.061 348.224 101.753C347.579 101.445 347.042 101.023 346.612 100.486C346.19 99.9485 345.871 99.3326 345.656 98.6379C345.449 97.9361 345.345 97.1949 345.345 96.4143V95.9631C345.345 95.1825 345.449 94.4449 345.656 93.7502C345.871 93.0484 346.19 92.429 346.612 91.8918C347.042 91.3547 347.579 90.9322 348.224 90.6243C348.875 90.3163 349.638 90.1624 350.512 90.1624C351.421 90.1624 352.216 90.3486 352.896 90.7209C353.577 91.0862 354.11 91.5875 354.497 92.2249C354.891 92.8551 355.106 93.5712 355.142 94.3733H353.251C353.215 93.8935 353.079 93.4602 352.843 93.0735C352.614 92.6868 352.299 92.3788 351.897 92.1497C351.504 91.9133 351.042 91.7952 350.512 91.7952C349.903 91.7952 349.391 91.9169 348.976 92.1604C348.567 92.3967 348.242 92.719 347.998 93.1272C347.762 93.5282 347.59 93.9758 347.482 94.47C347.382 94.9569 347.332 95.4547 347.332 95.9631V96.4143C347.332 96.9228 347.382 97.4241 347.482 97.9182C347.583 98.4124 347.751 98.8599 347.987 99.261C348.231 99.662 348.557 99.9843 348.965 100.228C349.38 100.464 349.896 100.582 350.512 100.582ZM356.85 96.3176V96.0706C356.85 95.2327 356.971 94.4556 357.215 93.7395C357.458 93.0162 357.809 92.3896 358.268 91.8596C358.726 91.3225 359.281 90.9071 359.933 90.6135C360.584 90.3127 361.315 90.1624 362.124 90.1624C362.94 90.1624 363.674 90.3127 364.326 90.6135C364.985 90.9071 365.544 91.3225 366.002 91.8596C366.467 92.3896 366.822 93.0162 367.065 93.7395C367.309 94.4556 367.431 95.2327 367.431 96.0706V96.3176C367.431 97.1555 367.309 97.9325 367.065 98.6487C366.822 99.3648 366.467 99.9915 366.002 100.529C365.544 101.059 364.989 101.474 364.337 101.775C363.692 102.068 362.962 102.215 362.146 102.215C361.329 102.215 360.595 102.068 359.943 101.775C359.292 101.474 358.733 101.059 358.268 100.529C357.809 99.9915 357.458 99.3648 357.215 98.6487C356.971 97.9325 356.85 97.1555 356.85 96.3176ZM358.837 96.0706V96.3176C358.837 96.8977 358.905 97.4456 359.041 97.9612C359.177 98.4696 359.381 98.9208 359.653 99.3147C359.933 99.7086 360.28 100.02 360.695 100.249C361.111 100.471 361.594 100.582 362.146 100.582C362.69 100.582 363.166 100.471 363.574 100.249C363.99 100.02 364.333 99.7086 364.605 99.3147C364.878 98.9208 365.082 98.4696 365.218 97.9612C365.361 97.4456 365.433 96.8977 365.433 96.3176V96.0706C365.433 95.4976 365.361 94.9569 365.218 94.4485C365.082 93.9329 364.874 93.4781 364.595 93.0842C364.323 92.6832 363.979 92.3681 363.563 92.1389C363.155 91.9097 362.675 91.7952 362.124 91.7952C361.58 91.7952 361.1 91.9097 360.685 92.1389C360.276 92.3681 359.933 92.6832 359.653 93.0842C359.381 93.4781 359.177 93.9329 359.041 94.4485C358.905 94.9569 358.837 95.4976 358.837 96.0706ZM370.095 102V90.3772H372.082V100.367H377.432V90.3772H379.43V102H370.095ZM380.805 100.367L380.611 105.448H378.839V102H377.324V100.367H380.805ZM393.072 100.582C393.545 100.582 393.982 100.486 394.383 100.292C394.784 100.099 395.113 99.8339 395.371 99.4973C395.629 99.1536 395.776 98.7633 395.812 98.3264H397.702C397.666 99.0139 397.434 99.6549 397.004 100.249C396.581 100.837 396.026 101.313 395.339 101.678C394.651 102.036 393.896 102.215 393.072 102.215C392.199 102.215 391.436 102.061 390.784 101.753C390.14 101.445 389.603 101.023 389.173 100.486C388.75 99.9485 388.432 99.3326 388.217 98.6379C388.009 97.9361 387.905 97.1949 387.905 96.4143V95.9631C387.905 95.1825 388.009 94.4449 388.217 93.7502C388.432 93.0484 388.75 92.429 389.173 91.8918C389.603 91.3547 390.14 90.9322 390.784 90.6243C391.436 90.3163 392.199 90.1624 393.072 90.1624C393.982 90.1624 394.777 90.3486 395.457 90.7209C396.137 91.0862 396.671 91.5875 397.058 92.2249C397.451 92.8551 397.666 93.5712 397.702 94.3733H395.812C395.776 93.8935 395.64 93.4602 395.403 93.0735C395.174 92.6868 394.859 92.3788 394.458 92.1497C394.064 91.9133 393.602 91.7952 393.072 91.7952C392.464 91.7952 391.951 91.9169 391.536 92.1604C391.128 92.3967 390.802 92.719 390.559 93.1272C390.322 93.5282 390.15 93.9758 390.043 94.47C389.943 94.9569 389.893 95.4547 389.893 95.9631V96.4143C389.893 96.9228 389.943 97.4241 390.043 97.9182C390.143 98.4124 390.312 98.8599 390.548 99.261C390.791 99.662 391.117 99.9843 391.525 100.228C391.941 100.464 392.456 100.582 393.072 100.582ZM404.76 102.215C403.951 102.215 403.216 102.079 402.558 101.807C401.906 101.528 401.344 101.137 400.871 100.636C400.406 100.135 400.048 99.5403 399.797 98.8528C399.546 98.1653 399.421 97.4133 399.421 96.5969V96.1458C399.421 95.2004 399.561 94.359 399.84 93.6213C400.119 92.8765 400.499 92.2463 400.979 91.7307C401.458 91.2151 402.003 90.8248 402.611 90.5598C403.22 90.2948 403.85 90.1624 404.502 90.1624C405.333 90.1624 406.049 90.3056 406.65 90.592C407.259 90.8785 407.757 91.2795 408.144 91.7952C408.53 92.3036 408.817 92.9052 409.003 93.5999C409.189 94.2874 409.282 95.0393 409.282 95.8557V96.7473H400.603V95.1252H407.295V94.9749C407.266 94.4592 407.159 93.9579 406.973 93.4709C406.794 92.984 406.507 92.5829 406.113 92.2678C405.719 91.9527 405.182 91.7952 404.502 91.7952C404.051 91.7952 403.635 91.8918 403.256 92.0852C402.876 92.2714 402.55 92.5507 402.278 92.9231C402.006 93.2955 401.795 93.7502 401.645 94.2874C401.494 94.8245 401.419 95.4439 401.419 96.1458V96.5969C401.419 97.1484 401.494 97.6676 401.645 98.1545C401.802 98.6344 402.028 99.0569 402.321 99.4221C402.622 99.7874 402.984 100.074 403.406 100.281C403.836 100.489 404.323 100.593 404.867 100.593C405.569 100.593 406.163 100.45 406.65 100.163C407.137 99.8769 407.563 99.4937 407.929 99.0139L409.132 99.97C408.881 100.35 408.562 100.711 408.176 101.055C407.789 101.399 407.313 101.678 406.747 101.893C406.188 102.108 405.526 102.215 404.76 102.215ZM416.211 90.3772V102H414.213V90.3772H416.211ZM420.11 90.3772V91.9885H410.389V90.3772H420.11ZM424.214 98.8528L429.574 90.3772H431.572V102H429.574V93.5247L424.214 102H422.237V90.3772H424.214V98.8528ZM442.368 98.8528L447.729 90.3772H449.727V102H447.729V93.5247L442.368 102H440.392V90.3772H442.368V98.8528ZM463.111 90.3772V102H461.113V90.3772H463.111ZM467.011 90.3772V91.9885H457.289V90.3772H467.011ZM476.711 90.3772V92.0208H470.835V90.3772H476.711ZM471.125 90.3772V102H469.138V90.3772H471.125ZM478.473 90.3772V102H476.475V90.3772H478.473ZM486.239 95.6409V95.7483C486.239 97.3167 486.064 98.7346 485.713 100.002C485.362 101.27 484.914 102.376 484.37 103.322C483.826 104.274 483.253 105.062 482.651 105.685C482.05 106.315 481.495 106.77 480.986 107.049L480.567 105.846C480.99 105.524 481.416 105.073 481.846 104.492C482.275 103.92 482.673 103.211 483.038 102.365C483.403 101.528 483.697 100.561 483.919 99.4651C484.141 98.3622 484.252 97.1305 484.252 95.7698V95.6194C484.252 94.2587 484.134 93.0305 483.897 91.9348C483.661 90.8319 483.353 89.8616 482.974 89.0237C482.601 88.1858 482.2 87.4804 481.771 86.9075C481.348 86.3274 480.947 85.8798 480.567 85.5647L480.986 84.3508C481.495 84.6301 482.05 85.0849 482.651 85.7151C483.253 86.3381 483.826 87.1259 484.37 88.0784C484.914 89.0308 485.362 90.1409 485.713 91.4084C486.064 92.6689 486.239 94.0797 486.239 95.6409Z" fill="black"/>
<defs>
<filter id="filter0_d_822_2150" x="545.052" y="5.08643" width="106.19" height="106.163" filterUnits="userSpaceOnUse" color-interpolation-filters="sRGB">
<feFlood flood-opacity="0" result="BackgroundImageFix"/>
<feColorMatrix in="SourceAlpha" type="matrix" values="0 0 0 0 0 0 0 0 0 0 0 0 0 0 0 0 0 0 127 0" result="hardAlpha"/>
<feOffset/>
<feGaussianBlur stdDeviation="12"/>
<feComposite in2="hardAlpha" operator="out"/>
<feColorMatrix type="matrix" values="0 0 0 0 0.579167 0 0 0 0 0.579167 0 0 0 0 0.579167 0 0 0 0.3 0"/>
<feBlend mode="normal" in2="BackgroundImageFix" result="effect1_dropShadow_822_2150"/>
<feBlend mode="normal" in="SourceGraphic" in2="effect1_dropShadow_822_2150" result="shape"/>
</filter>
</defs>
</svg>
