<svg width="652" height="116" viewBox="0 0 652 116" fill="none" xmlns="http://www.w3.org/2000/svg">
<path d="M115.819 57.9096C115.819 25.927 89.8924 0.0122581 57.9097 0.0274026C25.9271 0.0425471 -3.92932e-06 25.9818 -2.53132e-06 57.9645C-1.13331e-06 89.9471 25.9271 115.862 57.9097 115.847C89.8924 115.832 115.819 89.8923 115.819 57.9096Z" fill="#00A3FF"/>
<path d="M42.7871 37.9883H71.5859V45.1953L55.0918 80H45.8047L62.0059 46.1035H42.7871V37.9883Z" fill="white"/>
<path d="M476 58.0002L594 58.0002" stroke="#00A3FF" stroke-miterlimit="10" stroke-linecap="round"/>
<g filter="url(#filter0_d_822_2151)">
<path d="M618.721 78.7318C630.083 67.3747 630.083 48.9612 618.721 37.6041C607.358 26.247 588.936 26.2471 577.574 37.6042C566.211 48.9612 566.211 67.3747 577.574 78.7318C588.936 90.0889 607.358 90.0889 618.721 78.7318Z" fill="white"/>
</g>
<path d="M607.241 58.1649C607.246 59.8876 606.741 61.5732 605.789 63.0093C604.837 64.4453 603.481 65.5674 601.892 66.234C600.302 66.9007 598.551 67.082 596.859 66.7551C595.167 66.4282 593.61 65.6078 592.383 64.3973C591.157 63.1868 590.317 61.6405 589.969 59.9533C589.621 58.2662 589.78 56.5137 590.427 54.9171C591.075 53.3205 592.18 51.9511 593.605 50.9818C595.03 50.0125 596.71 49.4866 598.433 49.4704C599.585 49.456 600.727 49.6702 601.795 50.1007C602.863 50.5312 603.835 51.1693 604.655 51.9781C605.474 52.7869 606.124 53.7503 606.568 54.8123C607.012 55.8743 607.241 57.0139 607.241 58.1649Z" fill="#00A3FF"/>
<path d="M598.542 61.5717C600.425 61.5717 601.951 60.0464 601.951 58.1648C601.951 56.2832 600.425 54.7578 598.542 54.7578C596.66 54.7578 595.134 56.2832 595.134 58.1648C595.134 60.0464 596.66 61.5717 598.542 61.5717Z" fill="white"/>
<path d="M478.452 58.1647C478.457 59.8909 477.95 61.5798 476.994 63.0177C476.039 64.4555 474.678 65.5777 473.084 66.242C471.49 66.9063 469.735 67.0829 468.04 66.7495C466.346 66.416 464.789 65.5875 463.565 64.3688C462.342 63.1502 461.509 61.5962 461.17 59.9036C460.831 58.211 461.002 56.4559 461.662 54.8606C462.321 53.2653 463.44 51.9016 464.875 50.942C466.311 49.9824 467.999 49.4702 469.726 49.4702C472.035 49.4702 474.251 50.3854 475.886 52.0151C477.522 53.6449 478.445 55.8563 478.452 58.1647Z" fill="#00A3FF"/>
<path d="M469.753 61.5717C471.636 61.5717 473.162 60.0464 473.162 58.1648C473.162 56.2832 471.636 54.7578 469.753 54.7578C467.871 54.7578 466.345 56.2832 466.345 58.1648C466.345 60.0464 467.871 61.5717 469.753 61.5717Z" fill="white"/>
<path d="M143.66 30.8118L147.796 20.3596H150.181L144.648 33.3899C144.491 33.7551 144.315 34.1096 144.122 34.4534C143.929 34.79 143.692 35.0907 143.413 35.3557C143.134 35.6207 142.786 35.8319 142.371 35.9895C141.963 36.1471 141.454 36.2258 140.846 36.2258C140.674 36.2258 140.47 36.2151 140.233 36.1936C139.997 36.1793 139.843 36.1614 139.771 36.1399L139.836 34.4856C139.915 34.4999 140.069 34.5142 140.298 34.5286C140.527 34.5357 140.695 34.5393 140.803 34.5393C141.211 34.5393 141.533 34.4569 141.77 34.2922C142.006 34.1275 142.196 33.9198 142.339 33.6692C142.489 33.4114 142.625 33.15 142.747 32.885L143.66 30.8118ZM140.147 20.3596L144.498 30.1028L145.014 32.0256L143.273 32.1545L137.827 20.3596H140.147ZM157.088 24.3772V36.0002H155.09V24.3772H157.088ZM160.987 24.3772V25.9885H151.266V24.3772H160.987ZM168.399 30.887H164.586L164.564 29.2971H167.68C168.296 29.2971 168.808 29.2362 169.216 29.1145C169.631 28.9928 169.943 28.8101 170.15 28.5667C170.358 28.3232 170.462 28.0224 170.462 27.6643C170.462 27.385 170.401 27.1415 170.279 26.9338C170.165 26.719 169.989 26.5435 169.753 26.4075C169.517 26.2642 169.223 26.1604 168.872 26.0959C168.528 26.0243 168.124 25.9885 167.658 25.9885H165.112V36.0002H163.125V24.3772H167.658C168.396 24.3772 169.058 24.4417 169.646 24.5706C170.24 24.6995 170.745 24.8964 171.16 25.1614C171.583 25.4192 171.905 25.7486 172.127 26.1497C172.349 26.5507 172.46 27.0234 172.46 27.5676C172.46 27.9185 172.388 28.2515 172.245 28.5667C172.102 28.8818 171.891 29.1611 171.611 29.4045C171.332 29.648 170.988 29.8486 170.58 30.0061C170.172 30.1565 169.703 30.2532 169.173 30.2961L168.399 30.887ZM168.399 36.0002H163.866L164.854 34.3889H168.399C168.951 34.3889 169.409 34.3209 169.774 34.1848C170.14 34.0416 170.412 33.8411 170.591 33.5833C170.777 33.3183 170.87 33.0032 170.87 32.6379C170.87 32.2727 170.777 31.9612 170.591 31.7034C170.412 31.4384 170.14 31.2379 169.774 31.1018C169.409 30.9586 168.951 30.887 168.399 30.887H165.381L165.402 29.2971H169.173L169.893 29.8987C170.53 29.9488 171.071 30.1064 171.515 30.3713C171.959 30.6363 172.295 30.9729 172.524 31.3811C172.754 31.7821 172.868 32.219 172.868 32.6917C172.868 33.2359 172.764 33.7157 172.557 34.1311C172.356 34.5465 172.062 34.8938 171.676 35.1731C171.289 35.4452 170.82 35.6529 170.269 35.7961C169.717 35.9322 169.094 36.0002 168.399 36.0002ZM180.355 36.2151C179.546 36.2151 178.812 36.079 178.153 35.8069C177.502 35.5276 176.939 35.1373 176.467 34.636C176.001 34.1347 175.643 33.5403 175.393 32.8528C175.142 32.1653 175.017 31.4133 175.017 30.5969V30.1458C175.017 29.2004 175.156 28.359 175.436 27.6213C175.715 26.8765 176.094 26.2463 176.574 25.7307C177.054 25.2151 177.598 24.8248 178.207 24.5598C178.816 24.2948 179.446 24.1624 180.098 24.1624C180.928 24.1624 181.645 24.3056 182.246 24.592C182.855 24.8785 183.353 25.2795 183.739 25.7952C184.126 26.3036 184.412 26.9052 184.599 27.5999C184.785 28.2874 184.878 29.0393 184.878 29.8557V30.7473H176.198V29.1252H182.891V28.9749C182.862 28.4592 182.755 27.9579 182.568 27.4709C182.389 26.984 182.103 26.5829 181.709 26.2678C181.315 25.9527 180.778 25.7952 180.098 25.7952C179.646 25.7952 179.231 25.8918 178.852 26.0852C178.472 26.2714 178.146 26.5507 177.874 26.9231C177.602 27.2955 177.391 27.7502 177.24 28.2874C177.09 28.8245 177.015 29.4439 177.015 30.1458V30.5969C177.015 31.1484 177.09 31.6676 177.24 32.1545C177.398 32.6344 177.623 33.0569 177.917 33.4221C178.218 33.7874 178.579 34.0738 179.002 34.2815C179.432 34.4892 179.919 34.593 180.463 34.593C181.165 34.593 181.759 34.4498 182.246 34.1633C182.733 33.8769 183.159 33.4937 183.524 33.0139L184.728 33.97C184.477 34.3495 184.158 34.7112 183.771 35.0549C183.385 35.3987 182.909 35.678 182.343 35.8928C181.784 36.1077 181.122 36.2151 180.355 36.2151ZM189.186 26.6116V40.469H187.188V24.3772H189.014L189.186 26.6116ZM197.017 30.092V30.3176C197.017 31.1627 196.916 31.9469 196.716 32.6702C196.515 33.3863 196.222 34.0094 195.835 34.5393C195.455 35.0693 194.986 35.481 194.428 35.7747C193.869 36.0683 193.228 36.2151 192.505 36.2151C191.767 36.2151 191.116 36.0933 190.55 35.8499C189.984 35.6064 189.504 35.2519 189.11 34.7864C188.716 34.3209 188.401 33.7623 188.165 33.1106C187.936 32.4589 187.778 31.7249 187.692 30.9084V29.7053C187.778 28.8459 187.939 28.0761 188.176 27.3958C188.412 26.7154 188.724 26.1353 189.11 25.6555C189.504 25.1685 189.98 24.7997 190.539 24.5491C191.098 24.2913 191.742 24.1624 192.473 24.1624C193.203 24.1624 193.851 24.3056 194.417 24.592C194.983 24.8713 195.459 25.2724 195.846 25.7952C196.232 26.318 196.522 26.9446 196.716 27.675C196.916 28.3984 197.017 29.204 197.017 30.092ZM195.019 30.3176V30.092C195.019 29.512 194.958 28.9677 194.836 28.4592C194.714 27.9436 194.524 27.4924 194.267 27.1057C194.016 26.7118 193.694 26.4039 193.3 26.1819C192.906 25.9527 192.437 25.8381 191.893 25.8381C191.391 25.8381 190.954 25.9241 190.582 26.0959C190.217 26.2678 189.905 26.5006 189.647 26.7942C189.39 27.0806 189.178 27.4101 189.014 27.7825C188.856 28.1477 188.738 28.5273 188.659 28.9211V31.7034C188.802 32.2047 189.003 32.6773 189.261 33.1213C189.519 33.5582 189.862 33.9127 190.292 34.1848C190.722 34.4498 191.262 34.5823 191.914 34.5823C192.451 34.5823 192.913 34.4713 193.3 34.2493C193.694 34.0201 194.016 33.7086 194.267 33.3147C194.524 32.9208 194.714 32.4696 194.836 31.9612C194.958 31.4456 195.019 30.8977 195.019 30.3176ZM202.903 30.9407L198.499 24.3772H200.895L203.902 29.1897H206.223L205.933 30.9407H202.903ZM203.988 30.7366L200.615 36.0002H198.102L202.731 29.2971L203.988 30.7366ZM207.243 24.3772V36.0002H205.256V24.3772H207.243ZM214.021 24.3772L209.617 30.9407H206.588L206.276 29.1897H208.607L211.615 24.3772H214.021ZM211.895 36.0002L208.511 30.7366L209.789 29.2971L214.408 36.0002H211.895ZM218.34 24.3772H220.327L220.155 28.7278C220.112 29.8306 219.987 30.7831 219.779 31.5852C219.572 32.3873 219.307 33.0712 218.984 33.637C218.662 34.1956 218.3 34.6646 217.899 35.0442C217.506 35.4237 217.097 35.7424 216.675 36.0002H215.687L215.74 34.3782L216.148 34.3674C216.385 34.0881 216.614 33.8017 216.836 33.5081C217.058 33.2073 217.262 32.8528 217.448 32.4446C217.634 32.0292 217.788 31.5243 217.91 30.9299C218.039 30.3284 218.121 29.5943 218.157 28.7278L218.34 24.3772ZM218.834 24.3772H225.827V36.0002H223.84V26.2141H218.834V24.3772ZM215.235 34.3674H227.32V39.427H225.333V36.0002H217.223V39.427H215.225L215.235 34.3674ZM234.346 36.2151C233.536 36.2151 232.802 36.079 232.144 35.8069C231.492 35.5276 230.93 35.1373 230.457 34.636C229.992 34.1347 229.633 33.5403 229.383 32.8528C229.132 32.1653 229.007 31.4133 229.007 30.5969V30.1458C229.007 29.2004 229.146 28.359 229.426 27.6213C229.705 26.8765 230.085 26.2463 230.564 25.7307C231.044 25.2151 231.589 24.8248 232.197 24.5598C232.806 24.2948 233.436 24.1624 234.088 24.1624C234.919 24.1624 235.635 24.3056 236.236 24.592C236.845 24.8785 237.343 25.2795 237.729 25.7952C238.116 26.3036 238.403 26.9052 238.589 27.5999C238.775 28.2874 238.868 29.0393 238.868 29.8557V30.7473H230.188V29.1252H236.881V28.9749C236.852 28.4592 236.745 27.9579 236.559 27.4709C236.38 26.984 236.093 26.5829 235.699 26.2678C235.305 25.9527 234.768 25.7952 234.088 25.7952C233.637 25.7952 233.221 25.8918 232.842 26.0852C232.462 26.2714 232.136 26.5507 231.864 26.9231C231.592 27.2955 231.381 27.7502 231.23 28.2874C231.08 28.8245 231.005 29.4439 231.005 30.1458V30.5969C231.005 31.1484 231.08 31.6676 231.23 32.1545C231.388 32.6344 231.614 33.0569 231.907 33.4221C232.208 33.7874 232.57 34.0738 232.992 34.2815C233.422 34.4892 233.909 34.593 234.453 34.593C235.155 34.593 235.749 34.4498 236.236 34.1633C236.723 33.8769 237.149 33.4937 237.515 33.0139L238.718 33.97C238.467 34.3495 238.148 34.7112 237.762 35.0549C237.375 35.3987 236.899 35.678 236.333 35.8928C235.774 36.1077 235.112 36.2151 234.346 36.2151ZM249.073 29.4153V31.0266H242.929V29.4153H249.073ZM243.348 24.3772V36.0002H241.36V24.3772H243.348ZM250.685 24.3772V36.0002H248.687V24.3772H250.685ZM256.034 32.8528L261.395 24.3772H263.393V36.0002H261.395V27.5247L256.034 36.0002H254.058V24.3772H256.034V32.8528ZM271.406 36.2151C270.597 36.2151 269.863 36.079 269.204 35.8069C268.552 35.5276 267.99 35.1373 267.518 34.636C267.052 34.1347 266.694 33.5403 266.443 32.8528C266.193 32.1653 266.067 31.4133 266.067 30.5969V30.1458C266.067 29.2004 266.207 28.359 266.486 27.6213C266.766 26.8765 267.145 26.2463 267.625 25.7307C268.105 25.2151 268.649 24.8248 269.258 24.5598C269.867 24.2948 270.497 24.1624 271.148 24.1624C271.979 24.1624 272.695 24.3056 273.297 24.592C273.906 24.8785 274.403 25.2795 274.79 25.7952C275.177 26.3036 275.463 26.9052 275.649 27.5999C275.836 28.2874 275.929 29.0393 275.929 29.8557V30.7473H267.249V29.1252H273.941V28.9749C273.913 28.4592 273.805 27.9579 273.619 27.4709C273.44 26.984 273.154 26.5829 272.76 26.2678C272.366 25.9527 271.829 25.7952 271.148 25.7952C270.697 25.7952 270.282 25.8918 269.902 26.0852C269.523 26.2714 269.197 26.5507 268.925 26.9231C268.653 27.2955 268.441 27.7502 268.291 28.2874C268.141 28.8245 268.065 29.4439 268.065 30.1458V30.5969C268.065 31.1484 268.141 31.6676 268.291 32.1545C268.449 32.6344 268.674 33.0569 268.968 33.4221C269.269 33.7874 269.63 34.0738 270.053 34.2815C270.482 34.4892 270.969 34.593 271.514 34.593C272.215 34.593 272.81 34.4498 273.297 34.1633C273.784 33.8769 274.21 33.4937 274.575 33.0139L275.778 33.97C275.528 34.3495 275.209 34.7112 274.822 35.0549C274.436 35.3987 273.959 35.678 273.394 35.8928C272.835 36.1077 272.173 36.2151 271.406 36.2151ZM289.163 30.887H285.35L285.328 29.2971H288.443C289.059 29.2971 289.571 29.2362 289.979 29.1145C290.395 28.9928 290.706 28.8101 290.914 28.5667C291.122 28.3232 291.226 28.0224 291.226 27.6643C291.226 27.385 291.165 27.1415 291.043 26.9338C290.928 26.719 290.753 26.5435 290.517 26.4075C290.28 26.2642 289.987 26.1604 289.636 26.0959C289.292 26.0243 288.887 25.9885 288.422 25.9885H285.876V36.0002H283.889V24.3772H288.422C289.16 24.3772 289.822 24.4417 290.409 24.5706C291.004 24.6995 291.508 24.8964 291.924 25.1614C292.346 25.4192 292.669 25.7486 292.891 26.1497C293.113 26.5507 293.224 27.0234 293.224 27.5676C293.224 27.9185 293.152 28.2515 293.009 28.5667C292.866 28.8818 292.654 29.1611 292.375 29.4045C292.096 29.648 291.752 29.8486 291.344 30.0061C290.936 30.1565 290.466 30.2532 289.937 30.2961L289.163 30.887ZM289.163 36.0002H284.63L285.618 34.3889H289.163C289.715 34.3889 290.173 34.3209 290.538 34.1848C290.903 34.0416 291.175 33.8411 291.354 33.5833C291.541 33.3183 291.634 33.0032 291.634 32.6379C291.634 32.2727 291.541 31.9612 291.354 31.7034C291.175 31.4384 290.903 31.2379 290.538 31.1018C290.173 30.9586 289.715 30.887 289.163 30.887H286.145L286.166 29.2971H289.937L290.656 29.8987C291.294 29.9488 291.834 30.1064 292.278 30.3713C292.722 30.6363 293.059 30.9729 293.288 31.3811C293.517 31.7821 293.632 32.219 293.632 32.6917C293.632 33.2359 293.528 33.7157 293.32 34.1311C293.12 34.5465 292.826 34.8938 292.439 35.1731C292.053 35.4452 291.584 35.6529 291.032 35.7961C290.481 35.9322 289.858 36.0002 289.163 36.0002ZM297.929 28.3733H301.42C302.358 28.3733 303.149 28.538 303.794 28.8674C304.438 29.1897 304.925 29.6373 305.255 30.2102C305.591 30.776 305.76 31.4205 305.76 32.1438C305.76 32.6809 305.667 33.1858 305.48 33.6584C305.294 34.1239 305.015 34.5321 304.643 34.8831C304.277 35.234 303.823 35.5097 303.278 35.7102C302.741 35.9036 302.122 36.0002 301.42 36.0002H296.479V24.3772H298.466V34.3674H301.42C301.993 34.3674 302.451 34.2636 302.795 34.0559C303.139 33.8482 303.386 33.5797 303.536 33.2502C303.687 32.9208 303.762 32.5771 303.762 32.219C303.762 31.8681 303.687 31.5243 303.536 31.1877C303.386 30.8512 303.139 30.5719 302.795 30.3499C302.451 30.1207 301.993 30.0061 301.42 30.0061H297.929V28.3733ZM309.896 24.3772V36.0002H307.908V24.3772H309.896ZM320.831 19.3176H322.464C322.464 20.0194 322.356 20.578 322.142 20.9934C321.927 21.4016 321.633 21.7167 321.261 21.9387C320.896 22.1607 320.48 22.329 320.015 22.4436C319.556 22.5582 319.08 22.6692 318.586 22.7766C317.97 22.9055 317.397 23.1096 316.867 23.3889C316.344 23.6611 315.893 24.0478 315.514 24.5491C315.141 25.0504 314.866 25.7021 314.687 26.5042C314.515 27.3062 314.468 28.2981 314.547 29.4797V30.468H312.914V29.4797C312.914 28.1549 313.039 26.9983 313.29 26.01C313.548 25.0217 313.91 24.1874 314.375 23.5071C314.84 22.8267 315.392 22.2861 316.029 21.885C316.674 21.484 317.383 21.2083 318.156 21.0579C318.715 20.9504 319.195 20.8359 319.596 20.7141C319.997 20.5852 320.301 20.4133 320.509 20.1985C320.724 19.9836 320.831 19.69 320.831 19.3176ZM318.479 25.0432C319.238 25.0432 319.914 25.1757 320.509 25.4407C321.103 25.7056 321.608 26.0745 322.023 26.5471C322.439 27.0198 322.754 27.5784 322.969 28.2229C323.191 28.8603 323.302 29.5549 323.302 30.3069V30.5432C323.302 31.3525 323.184 32.1044 322.947 32.7991C322.718 33.4866 322.378 34.0881 321.927 34.6038C321.483 35.1122 320.938 35.5097 320.294 35.7961C319.657 36.0826 318.93 36.2258 318.113 36.2258C317.297 36.2258 316.566 36.0826 315.922 35.7961C315.285 35.5097 314.74 35.1122 314.289 34.6038C313.838 34.0881 313.494 33.4866 313.258 32.7991C313.029 32.1044 312.914 31.3525 312.914 30.5432V30.3069C312.914 30.1278 312.946 29.9524 313.011 29.7805C313.075 29.6086 313.154 29.4332 313.247 29.2542C313.347 29.0751 313.437 28.8853 313.516 28.6848C313.781 28.0403 314.142 27.4423 314.601 26.8909C315.066 26.3394 315.621 25.8954 316.266 25.5588C316.917 25.2151 317.655 25.0432 318.479 25.0432ZM318.092 26.6653C317.361 26.6653 316.76 26.8336 316.287 27.1702C315.822 27.5068 315.474 27.9543 315.245 28.5129C315.016 29.0644 314.901 29.6624 314.901 30.3069V30.5432C314.901 31.0875 314.966 31.6031 315.095 32.0901C315.224 32.5771 315.417 33.0103 315.675 33.3899C315.94 33.7623 316.273 34.0559 316.674 34.2708C317.082 34.4856 317.562 34.593 318.113 34.593C318.665 34.593 319.141 34.4856 319.542 34.2708C319.943 34.0559 320.272 33.7623 320.53 33.3899C320.788 33.0103 320.981 32.5771 321.11 32.0901C321.239 31.6031 321.304 31.0875 321.304 30.5432V30.3069C321.304 29.8199 321.239 29.358 321.11 28.9211C320.981 28.4843 320.785 28.0976 320.52 27.761C320.262 27.4244 319.929 27.1594 319.521 26.9661C319.119 26.7655 318.643 26.6653 318.092 26.6653ZM327.352 26.6116V40.469H325.354V24.3772H327.18L327.352 26.6116ZM335.183 30.092V30.3176C335.183 31.1627 335.082 31.9469 334.882 32.6702C334.681 33.3863 334.388 34.0094 334.001 34.5393C333.621 35.0693 333.152 35.481 332.594 35.7747C332.035 36.0683 331.394 36.2151 330.671 36.2151C329.933 36.2151 329.282 36.0933 328.716 35.8499C328.15 35.6064 327.67 35.2519 327.276 34.7864C326.882 34.3209 326.567 33.7623 326.331 33.1106C326.102 32.4589 325.944 31.7249 325.858 30.9084V29.7053C325.944 28.8459 326.105 28.0761 326.342 27.3958C326.578 26.7154 326.89 26.1353 327.276 25.6555C327.67 25.1685 328.146 24.7997 328.705 24.5491C329.264 24.2913 329.908 24.1624 330.639 24.1624C331.369 24.1624 332.017 24.3056 332.583 24.592C333.149 24.8713 333.625 25.2724 334.012 25.7952C334.398 26.318 334.688 26.9446 334.882 27.675C335.082 28.3984 335.183 29.204 335.183 30.092ZM333.185 30.3176V30.092C333.185 29.512 333.124 28.9677 333.002 28.4592C332.88 27.9436 332.69 27.4924 332.433 27.1057C332.182 26.7118 331.86 26.4039 331.466 26.1819C331.072 25.9527 330.603 25.8381 330.059 25.8381C329.557 25.8381 329.12 25.9241 328.748 26.0959C328.383 26.2678 328.071 26.5006 327.813 26.7942C327.556 27.0806 327.344 27.4101 327.18 27.7825C327.022 28.1477 326.904 28.5273 326.825 28.9211V31.7034C326.968 32.2047 327.169 32.6773 327.427 33.1213C327.685 33.5582 328.028 33.9127 328.458 34.1848C328.888 34.4498 329.428 34.5823 330.08 34.5823C330.617 34.5823 331.079 34.4713 331.466 34.2493C331.86 34.0201 332.182 33.7086 332.433 33.3147C332.69 32.9208 332.88 32.4696 333.002 31.9612C333.124 31.4456 333.185 30.8977 333.185 30.3176ZM344.571 34.0129V28.0295C344.571 27.5712 344.478 27.1737 344.292 26.8372C344.113 26.4934 343.841 26.2284 343.476 26.0422C343.11 25.856 342.659 25.7629 342.122 25.7629C341.621 25.7629 341.18 25.8489 340.801 26.0208C340.428 26.1926 340.135 26.4182 339.92 26.6975C339.712 26.9768 339.608 27.2776 339.608 27.5999H337.621C337.621 27.1845 337.729 26.7727 337.943 26.3645C338.158 25.9563 338.466 25.5875 338.867 25.2581C339.275 24.9215 339.762 24.6565 340.328 24.4631C340.901 24.2626 341.538 24.1624 342.24 24.1624C343.085 24.1624 343.83 24.3056 344.475 24.592C345.126 24.8785 345.635 25.3118 346 25.8918C346.372 26.4648 346.559 27.1845 346.559 28.051V33.4651C346.559 33.8518 346.591 34.2636 346.655 34.7004C346.727 35.1373 346.831 35.5133 346.967 35.8284V36.0002H344.894C344.793 35.7711 344.715 35.4667 344.657 35.0872C344.6 34.7004 344.571 34.3424 344.571 34.0129ZM344.915 28.9534L344.937 30.3499H342.928C342.362 30.3499 341.857 30.3964 341.413 30.4895C340.969 30.5754 340.597 30.7079 340.296 30.887C339.995 31.066 339.766 31.2916 339.608 31.5637C339.451 31.8287 339.372 32.1402 339.372 32.4983C339.372 32.8635 339.454 33.1965 339.619 33.4973C339.784 33.7981 340.031 34.038 340.36 34.217C340.697 34.3889 341.109 34.4749 341.596 34.4749C342.204 34.4749 342.742 34.3459 343.207 34.0881C343.673 33.8303 344.041 33.5152 344.313 33.1428C344.593 32.7704 344.743 32.4088 344.765 32.0579L345.613 33.0139C345.563 33.3147 345.427 33.6477 345.205 34.0129C344.983 34.3782 344.686 34.7291 344.313 35.0657C343.948 35.3951 343.511 35.6708 343.003 35.8928C342.502 36.1077 341.936 36.2151 341.306 36.2151C340.518 36.2151 339.827 36.0611 339.232 35.7532C338.645 35.4452 338.187 35.0334 337.857 34.5178C337.535 33.995 337.374 33.4114 337.374 32.7668C337.374 32.1438 337.496 31.5959 337.739 31.1233C337.983 30.6435 338.334 30.246 338.792 29.9309C339.25 29.6086 339.802 29.3652 340.446 29.2004C341.091 29.0357 341.811 28.9534 342.605 28.9534H344.915ZM357.569 29.4153V31.0266H351.425V29.4153H357.569ZM351.844 24.3772V36.0002H349.856V24.3772H351.844ZM359.181 24.3772V36.0002H357.183V24.3772H359.181ZM370.267 29.4153V31.0266H364.122V29.4153H370.267ZM364.541 24.3772V36.0002H362.554V24.3772H364.541ZM371.878 24.3772V36.0002H369.88V24.3772H371.878ZM376.712 28.3733H380.203C381.141 28.3733 381.933 28.538 382.577 28.8674C383.222 29.1897 383.709 29.6373 384.038 30.2102C384.375 30.776 384.543 31.4205 384.543 32.1438C384.543 32.6809 384.45 33.1858 384.264 33.6584C384.077 34.1239 383.798 34.5321 383.426 34.8831C383.061 35.234 382.606 35.5097 382.062 35.7102C381.524 35.9036 380.905 36.0002 380.203 36.0002H375.262V24.3772H377.249V34.3674H380.203C380.776 34.3674 381.234 34.2636 381.578 34.0559C381.922 33.8482 382.169 33.5797 382.319 33.2502C382.47 32.9208 382.545 32.5771 382.545 32.219C382.545 31.8681 382.47 31.5243 382.319 31.1877C382.169 30.8512 381.922 30.5719 381.578 30.3499C381.234 30.1207 380.776 30.0061 380.203 30.0061H376.712V28.3733ZM388.679 24.3772V36.0002H386.691V24.3772H388.679ZM393.502 24.3772L396.048 28.6096L398.626 24.3772H400.957L397.154 30.1135L401.075 36.0002H398.776L396.091 31.6389L393.405 36.0002H391.096L395.006 30.1135L391.214 24.3772H393.502ZM417.167 32.0471C417.167 31.6819 417.11 31.3596 416.995 31.0803C416.888 30.7939 416.694 30.5361 416.415 30.3069C416.143 30.0777 415.763 29.8593 415.276 29.6516C414.797 29.4439 414.188 29.2327 413.45 29.0178C412.677 28.7887 411.979 28.5344 411.355 28.2551C410.732 27.9687 410.199 27.6428 409.755 27.2776C409.311 26.9124 408.971 26.4934 408.734 26.0208C408.498 25.5481 408.38 25.0074 408.38 24.3987C408.38 23.79 408.505 23.2278 408.756 22.7122C409.007 22.1965 409.365 21.7489 409.83 21.3694C410.303 20.9827 410.865 20.6819 411.517 20.467C412.168 20.2522 412.895 20.1448 413.697 20.1448C414.872 20.1448 415.867 20.3704 416.684 20.8215C417.507 21.2655 418.134 21.8492 418.563 22.5725C418.993 23.2887 419.208 24.0549 419.208 24.8713H417.146C417.146 24.2841 417.02 23.7649 416.77 23.3137C416.519 22.8554 416.139 22.4973 415.631 22.2395C415.122 21.9745 414.478 21.842 413.697 21.842C412.96 21.842 412.351 21.953 411.871 22.175C411.391 22.3971 411.033 22.6978 410.797 23.0774C410.568 23.4569 410.453 23.8902 410.453 24.3772C410.453 24.7066 410.521 25.0074 410.657 25.2795C410.8 25.5445 411.019 25.7916 411.312 26.0208C411.613 26.2499 411.993 26.4612 412.451 26.6545C412.917 26.8479 413.472 27.0341 414.116 27.2131C415.004 27.4638 415.771 27.7431 416.415 28.051C417.06 28.359 417.59 28.7063 418.005 29.093C418.427 29.4726 418.739 29.9058 418.939 30.3928C419.147 30.8726 419.251 31.4169 419.251 32.0256C419.251 32.663 419.122 33.2395 418.864 33.7551C418.606 34.2708 418.238 34.7112 417.758 35.0764C417.278 35.4417 416.701 35.7245 416.028 35.925C415.362 36.1184 414.618 36.2151 413.794 36.2151C413.071 36.2151 412.358 36.1148 411.656 35.9143C410.962 35.7138 410.328 35.413 409.755 35.012C409.189 34.6109 408.734 34.1168 408.391 33.5295C408.054 32.9351 407.886 32.2476 407.886 31.467H409.948C409.948 32.0042 410.052 32.4661 410.26 32.8528C410.467 33.2323 410.75 33.5474 411.108 33.7981C411.474 34.0487 411.885 34.2349 412.344 34.3567C412.809 34.4713 413.293 34.5286 413.794 34.5286C414.517 34.5286 415.13 34.4283 415.631 34.2278C416.132 34.0273 416.512 33.7408 416.77 33.3684C417.035 32.996 417.167 32.5556 417.167 32.0471ZM423.967 20.3596V36.0002H421.894V20.3596H423.967ZM433.409 20.3596L426.91 27.6536L423.258 31.4456L422.914 29.2327L425.664 26.2034L430.917 20.3596H433.409ZM431.411 36.0002L425.621 28.3733L426.856 26.7297L433.882 36.0002H431.411ZM444.656 20.3596H446.719V30.9407C446.719 32.1152 446.457 33.0927 445.935 33.8733C445.412 34.6539 444.717 35.2411 443.851 35.635C442.991 36.0217 442.057 36.2151 441.047 36.2151C439.987 36.2151 439.027 36.0217 438.168 35.635C437.316 35.2411 436.639 34.6539 436.138 33.8733C435.644 33.0927 435.396 32.1152 435.396 30.9407V20.3596H437.448V30.9407C437.448 31.7571 437.599 32.4303 437.899 32.9602C438.2 33.4902 438.619 33.884 439.156 34.1418C439.701 34.3997 440.331 34.5286 441.047 34.5286C441.77 34.5286 442.4 34.3997 442.938 34.1418C443.482 33.884 443.904 33.4902 444.205 32.9602C444.506 32.4303 444.656 31.7571 444.656 30.9407V20.3596ZM140.663 58.8528L146.023 50.3772H148.021V62.0002H146.023V53.5247L140.663 62.0002H138.687V50.3772H140.663V58.8528ZM158.656 52.6116V66.469H156.658V50.3772H158.484L158.656 52.6116ZM166.487 56.092V56.3176C166.487 57.1627 166.387 57.9469 166.187 58.6702C165.986 59.3863 165.692 60.0094 165.306 60.5393C164.926 61.0693 164.457 61.481 163.898 61.7747C163.34 62.0683 162.699 62.2151 161.976 62.2151C161.238 62.2151 160.586 62.0933 160.021 61.8499C159.455 61.6064 158.975 61.2519 158.581 60.7864C158.187 60.3209 157.872 59.7623 157.636 59.1106C157.407 58.4589 157.249 57.7249 157.163 56.9084V55.7053C157.249 54.8459 157.41 54.0761 157.646 53.3958C157.883 52.7154 158.194 52.1353 158.581 51.6555C158.975 51.1685 159.451 50.7997 160.01 50.5491C160.568 50.2913 161.213 50.1624 161.943 50.1624C162.674 50.1624 163.322 50.3056 163.888 50.592C164.453 50.8713 164.93 51.2724 165.316 51.7952C165.703 52.318 165.993 52.9446 166.187 53.675C166.387 54.3984 166.487 55.204 166.487 56.092ZM164.489 56.3176V56.092C164.489 55.512 164.428 54.9677 164.307 54.4592C164.185 53.9436 163.995 53.4924 163.737 53.1057C163.487 52.7118 163.164 52.4039 162.771 52.1819C162.377 51.9527 161.908 51.8381 161.363 51.8381C160.862 51.8381 160.425 51.9241 160.053 52.0959C159.688 52.2678 159.376 52.5006 159.118 52.7942C158.86 53.0806 158.649 53.4101 158.484 53.7825C158.327 54.1477 158.209 54.5273 158.13 54.9211V57.7034C158.273 58.2047 158.474 58.6773 158.731 59.1213C158.989 59.5582 159.333 59.9127 159.763 60.1848C160.192 60.4498 160.733 60.5823 161.385 60.5823C161.922 60.5823 162.384 60.4713 162.771 60.2493C163.164 60.0201 163.487 59.7086 163.737 59.3147C163.995 58.9208 164.185 58.4696 164.307 57.9612C164.428 57.4456 164.489 56.8977 164.489 56.3176ZM173.846 62.2151C173.036 62.2151 172.302 62.079 171.644 61.8069C170.992 61.5276 170.43 61.1373 169.957 60.636C169.492 60.1347 169.133 59.5403 168.883 58.8528C168.632 58.1653 168.507 57.4133 168.507 56.5969V56.1458C168.507 55.2004 168.646 54.359 168.926 53.6213C169.205 52.8765 169.585 52.2463 170.064 51.7307C170.544 51.2151 171.089 50.8248 171.697 50.5598C172.306 50.2948 172.936 50.1624 173.588 50.1624C174.419 50.1624 175.135 50.3056 175.736 50.592C176.345 50.8785 176.843 51.2795 177.229 51.7952C177.616 52.3036 177.903 52.9052 178.089 53.5999C178.275 54.2874 178.368 55.0393 178.368 55.8557V56.7473H169.688V55.1252H176.381V54.9749C176.352 54.4592 176.245 53.9579 176.059 53.4709C175.88 52.984 175.593 52.5829 175.199 52.2678C174.805 51.9527 174.268 51.7952 173.588 51.7952C173.137 51.7952 172.721 51.8918 172.342 52.0852C171.962 52.2714 171.636 52.5507 171.364 52.9231C171.092 53.2955 170.881 53.7502 170.73 54.2874C170.58 54.8245 170.505 55.4439 170.505 56.1458V56.5969C170.505 57.1484 170.58 57.6676 170.73 58.1545C170.888 58.6344 171.114 59.0569 171.407 59.4221C171.708 59.7874 172.07 60.0738 172.492 60.2815C172.922 60.4892 173.409 60.593 173.953 60.593C174.655 60.593 175.249 60.4498 175.736 60.1633C176.223 59.8769 176.649 59.4937 177.015 59.0139L178.218 59.97C177.967 60.3495 177.648 60.7112 177.262 61.0549C176.875 61.3987 176.399 61.678 175.833 61.8928C175.274 62.1077 174.612 62.2151 173.846 62.2151ZM187.542 60.0129V54.0295C187.542 53.5712 187.449 53.1737 187.263 52.8372C187.084 52.4934 186.812 52.2284 186.446 52.0422C186.081 51.856 185.63 51.7629 185.093 51.7629C184.591 51.7629 184.151 51.8489 183.771 52.0208C183.399 52.1926 183.105 52.4182 182.891 52.6975C182.683 52.9768 182.579 53.2776 182.579 53.5999H180.592C180.592 53.1845 180.699 52.7727 180.914 52.3645C181.129 51.9563 181.437 51.5875 181.838 51.2581C182.246 50.9215 182.733 50.6565 183.299 50.4631C183.872 50.2626 184.509 50.1624 185.211 50.1624C186.056 50.1624 186.801 50.3056 187.445 50.592C188.097 50.8785 188.605 51.3118 188.971 51.8918C189.343 52.4648 189.529 53.1845 189.529 54.051V59.4651C189.529 59.8518 189.562 60.2636 189.626 60.7004C189.698 61.1373 189.801 61.5133 189.938 61.8284V62.0002H187.864C187.764 61.7711 187.685 61.4667 187.628 61.0872C187.571 60.7004 187.542 60.3424 187.542 60.0129ZM187.886 54.9534L187.907 56.3499H185.898C185.333 56.3499 184.828 56.3964 184.384 56.4895C183.94 56.5754 183.567 56.7079 183.267 56.887C182.966 57.066 182.737 57.2916 182.579 57.5637C182.422 57.8287 182.343 58.1402 182.343 58.4983C182.343 58.8635 182.425 59.1965 182.59 59.4973C182.755 59.7981 183.002 60.038 183.331 60.217C183.668 60.3889 184.079 60.4749 184.566 60.4749C185.175 60.4749 185.712 60.3459 186.178 60.0881C186.643 59.8303 187.012 59.5152 187.284 59.1428C187.563 58.7704 187.714 58.4088 187.735 58.0579L188.584 59.0139C188.534 59.3147 188.398 59.6477 188.176 60.0129C187.954 60.3782 187.657 60.7291 187.284 61.0657C186.919 61.3951 186.482 61.6708 185.974 61.8928C185.472 62.1077 184.907 62.2151 184.276 62.2151C183.489 62.2151 182.798 62.0611 182.203 61.7532C181.616 61.4452 181.158 61.0334 180.828 60.5178C180.506 59.995 180.345 59.4114 180.345 58.7668C180.345 58.1438 180.466 57.5959 180.71 57.1233C180.953 56.6435 181.304 56.246 181.763 55.9309C182.221 55.6086 182.772 55.3652 183.417 55.2004C184.062 55.0357 184.781 54.9534 185.576 54.9534H187.886ZM200.422 50.3772V52.0208H194.804V50.3772H200.422ZM202.173 50.3772V62.0002H200.186V50.3772H202.173ZM194.32 50.3772H196.318L196.018 55.9846C195.967 56.8512 195.885 57.6174 195.771 58.2834C195.663 58.9423 195.513 59.5081 195.319 59.9807C195.133 60.4534 194.897 60.8401 194.61 61.1409C194.331 61.4345 193.994 61.6529 193.601 61.7961C193.207 61.9322 192.752 62.0002 192.236 62.0002H191.613V60.2493L192.043 60.217C192.351 60.1956 192.612 60.1239 192.827 60.0022C193.049 59.8805 193.235 59.7014 193.386 59.4651C193.536 59.2216 193.658 58.9101 193.751 58.5305C193.851 58.151 193.926 57.6998 193.977 57.177C194.034 56.6542 194.077 56.0455 194.105 55.3508L194.32 50.3772ZM207.522 58.8528L212.883 50.3772H214.881V62.0002H212.883V53.5247L207.522 62.0002H205.546V50.3772H207.522V58.8528ZM222.411 56.4465H220.273V55.2219H222.25C222.801 55.2219 223.238 55.1539 223.561 55.0178C223.883 54.8746 224.112 54.6777 224.248 54.427C224.384 54.1764 224.452 53.8827 224.452 53.5461C224.452 53.2454 224.373 52.9625 224.216 52.6975C224.065 52.4254 223.822 52.2069 223.485 52.0422C223.149 51.8704 222.698 51.7844 222.132 51.7844C221.674 51.7844 221.258 51.8668 220.886 52.0315C220.513 52.189 220.216 52.4075 219.994 52.6868C219.779 52.9589 219.672 53.2668 219.672 53.6106H217.685C217.685 52.9016 217.885 52.2929 218.286 51.7844C218.694 51.2688 219.235 50.8713 219.908 50.592C220.589 50.3127 221.33 50.1731 222.132 50.1731C222.805 50.1731 223.407 50.2483 223.937 50.3987C224.474 50.5419 224.928 50.7568 225.301 51.0432C225.673 51.3225 225.956 51.6734 226.149 52.0959C226.35 52.5113 226.45 52.9947 226.45 53.5461C226.45 53.94 226.357 54.3124 226.171 54.6633C225.985 55.0142 225.716 55.3258 225.365 55.5979C225.014 55.8629 224.588 56.0706 224.087 56.2209C223.593 56.3713 223.034 56.4465 222.411 56.4465ZM220.273 55.6946H222.411C223.106 55.6946 223.718 55.7626 224.248 55.8987C224.778 56.0276 225.222 56.2209 225.58 56.4788C225.938 56.7366 226.207 57.0553 226.386 57.4348C226.572 57.8072 226.665 58.2369 226.665 58.7239C226.665 59.2681 226.554 59.7587 226.332 60.1956C226.117 60.6252 225.809 60.9905 225.408 61.2913C225.007 61.592 224.527 61.8212 223.969 61.9788C223.417 62.1363 222.805 62.2151 222.132 62.2151C221.38 62.2151 220.649 62.0862 219.94 61.8284C219.231 61.5706 218.648 61.1731 218.189 60.636C217.731 60.0917 217.502 59.4006 217.502 58.5627H219.489C219.489 58.9137 219.6 59.2467 219.822 59.5618C220.044 59.8769 220.352 60.1311 220.746 60.3245C221.147 60.5178 221.609 60.6145 222.132 60.6145C222.69 60.6145 223.156 60.5286 223.528 60.3567C223.901 60.1848 224.18 59.9556 224.366 59.6692C224.56 59.3827 224.656 59.0712 224.656 58.7346C224.656 58.2978 224.57 57.9469 224.398 57.6819C224.227 57.4169 223.962 57.2236 223.604 57.1018C223.253 56.9729 222.801 56.9084 222.25 56.9084H220.273V55.6946ZM236.097 60.0129V54.0295C236.097 53.5712 236.004 53.1737 235.817 52.8372C235.638 52.4934 235.366 52.2284 235.001 52.0422C234.636 51.856 234.185 51.7629 233.647 51.7629C233.146 51.7629 232.706 51.8489 232.326 52.0208C231.954 52.1926 231.66 52.4182 231.445 52.6975C231.238 52.9768 231.134 53.2776 231.134 53.5999H229.146C229.146 53.1845 229.254 52.7727 229.469 52.3645C229.684 51.9563 229.992 51.5875 230.393 51.2581C230.801 50.9215 231.288 50.6565 231.854 50.4631C232.426 50.2626 233.064 50.1624 233.766 50.1624C234.611 50.1624 235.355 50.3056 236 50.592C236.652 50.8785 237.16 51.3118 237.525 51.8918C237.898 52.4648 238.084 53.1845 238.084 54.051V59.4651C238.084 59.8518 238.116 60.2636 238.181 60.7004C238.252 61.1373 238.356 61.5133 238.492 61.8284V62.0002H236.419C236.319 61.7711 236.24 61.4667 236.183 61.0872C236.125 60.7004 236.097 60.3424 236.097 60.0129ZM236.44 54.9534L236.462 56.3499H234.453C233.887 56.3499 233.382 56.3964 232.938 56.4895C232.494 56.5754 232.122 56.7079 231.821 56.887C231.521 57.066 231.291 57.2916 231.134 57.5637C230.976 57.8287 230.897 58.1402 230.897 58.4983C230.897 58.8635 230.98 59.1965 231.145 59.4973C231.309 59.7981 231.556 60.038 231.886 60.217C232.222 60.3889 232.634 60.4749 233.121 60.4749C233.73 60.4749 234.267 60.3459 234.732 60.0881C235.198 59.8303 235.567 59.5152 235.839 59.1428C236.118 58.7704 236.269 58.4088 236.29 58.0579L237.139 59.0139C237.089 59.3147 236.952 59.6477 236.73 60.0129C236.508 60.3782 236.211 60.7291 235.839 61.0657C235.474 61.3951 235.037 61.6708 234.528 61.8928C234.027 62.1077 233.461 62.2151 232.831 62.2151C232.043 62.2151 231.352 62.0611 230.758 61.7532C230.171 61.4452 229.712 61.0334 229.383 60.5178C229.061 59.995 228.899 59.4114 228.899 58.7668C228.899 58.1438 229.021 57.5959 229.265 57.1233C229.508 56.6435 229.859 56.246 230.317 55.9309C230.776 55.6086 231.327 55.3652 231.972 55.2004C232.616 55.0357 233.336 54.9534 234.131 54.9534H236.44ZM241.382 62.0002V50.3772H243.369V60.3674H248.719V50.3772H250.717V62.0002H241.382ZM252.092 60.3674L251.898 65.4485H250.126V62.0002H248.611V60.3674H252.092ZM256.399 58.8528L261.76 50.3772H263.758V62.0002H261.76V53.5247L256.399 62.0002H254.423V50.3772H256.399V58.8528ZM269.301 56.4573H271.449L268.087 62.0002H265.938L269.301 56.4573ZM270.966 50.3772H275.821V62.0002H273.834V51.9885H270.966C270.4 51.9885 269.938 52.0852 269.58 52.2786C269.222 52.4648 268.961 52.7083 268.796 53.009C268.631 53.3098 268.549 53.6213 268.549 53.9436C268.549 54.2587 268.624 54.5631 268.774 54.8567C268.925 55.1431 269.161 55.3795 269.483 55.5657C269.806 55.7519 270.221 55.845 270.729 55.845H274.371V57.4778H270.729C270.063 57.4778 269.473 57.3883 268.957 57.2092C268.441 57.0302 268.005 56.7831 267.646 56.468C267.288 56.1458 267.016 55.7698 266.83 55.3401C266.644 54.9032 266.551 54.4306 266.551 53.9221C266.551 53.4137 266.647 52.9446 266.841 52.5149C267.041 52.0852 267.328 51.7092 267.7 51.387C268.08 51.0647 268.542 50.8176 269.086 50.6458C269.637 50.4667 270.264 50.3772 270.966 50.3772ZM292.225 50.3772V52.0208H286.349V50.3772H292.225ZM286.639 50.3772V62.0002H284.651V50.3772H286.639ZM293.986 50.3772V62.0002H291.988V50.3772H293.986ZM304.943 50.3772V52.0208H299.325V50.3772H304.943ZM306.694 50.3772V62.0002H304.707V50.3772H306.694ZM298.842 50.3772H300.84L300.539 55.9846C300.489 56.8512 300.407 57.6174 300.292 58.2834C300.185 58.9423 300.034 59.5081 299.841 59.9807C299.655 60.4534 299.418 60.8401 299.132 61.1409C298.853 61.4345 298.516 61.6529 298.122 61.7961C297.728 61.9322 297.273 62.0002 296.758 62.0002H296.135V60.2493L296.564 60.217C296.872 60.1956 297.134 60.1239 297.349 60.0022C297.571 59.8805 297.757 59.7014 297.907 59.4651C298.058 59.2216 298.179 58.9101 298.272 58.5305C298.373 58.151 298.448 57.6998 298.498 57.177C298.555 56.6542 298.598 56.0455 298.627 55.3508L298.842 50.3772ZM316.749 60.0129V54.0295C316.749 53.5712 316.656 53.1737 316.47 52.8372C316.291 52.4934 316.019 52.2284 315.653 52.0422C315.288 51.856 314.837 51.7629 314.3 51.7629C313.799 51.7629 313.358 51.8489 312.979 52.0208C312.606 52.1926 312.312 52.4182 312.098 52.6975C311.89 52.9768 311.786 53.2776 311.786 53.5999H309.799C309.799 53.1845 309.906 52.7727 310.121 52.3645C310.336 51.9563 310.644 51.5875 311.045 51.2581C311.453 50.9215 311.94 50.6565 312.506 50.4631C313.079 50.2626 313.716 50.1624 314.418 50.1624C315.263 50.1624 316.008 50.3056 316.652 50.592C317.304 50.8785 317.812 51.3118 318.178 51.8918C318.55 52.4648 318.736 53.1845 318.736 54.051V59.4651C318.736 59.8518 318.769 60.2636 318.833 60.7004C318.905 61.1373 319.008 61.5133 319.145 61.8284V62.0002H317.071C316.971 61.7711 316.892 61.4667 316.835 61.0872C316.778 60.7004 316.749 60.3424 316.749 60.0129ZM317.093 54.9534L317.114 56.3499H315.105C314.54 56.3499 314.035 56.3964 313.591 56.4895C313.147 56.5754 312.774 56.7079 312.474 56.887C312.173 57.066 311.944 57.2916 311.786 57.5637C311.629 57.8287 311.55 58.1402 311.55 58.4983C311.55 58.8635 311.632 59.1965 311.797 59.4973C311.962 59.7981 312.209 60.038 312.538 60.217C312.875 60.3889 313.286 60.4749 313.773 60.4749C314.382 60.4749 314.919 60.3459 315.385 60.0881C315.85 59.8303 316.219 59.5152 316.491 59.1428C316.771 58.7704 316.921 58.4088 316.942 58.0579L317.791 59.0139C317.741 59.3147 317.605 59.6477 317.383 60.0129C317.161 60.3782 316.864 60.7291 316.491 61.0657C316.126 61.3951 315.689 61.6708 315.181 61.8928C314.679 62.1077 314.114 62.2151 313.483 62.2151C312.696 62.2151 312.005 62.0611 311.41 61.7532C310.823 61.4452 310.365 61.0334 310.035 60.5178C309.713 59.995 309.552 59.4114 309.552 58.7668C309.552 58.1438 309.674 57.5959 309.917 57.1233C310.16 56.6435 310.511 56.246 310.97 55.9309C311.428 55.6086 311.979 55.3652 312.624 55.2004C313.269 55.0357 313.988 54.9534 314.783 54.9534H317.093ZM329.747 55.4153V57.0266H323.603V55.4153H329.747ZM324.021 50.3772V62.0002H322.034V50.3772H324.021ZM331.358 50.3772V62.0002H329.36V50.3772H331.358ZM341.413 60.0129V54.0295C341.413 53.5712 341.32 53.1737 341.134 52.8372C340.955 52.4934 340.683 52.2284 340.317 52.0422C339.952 51.856 339.501 51.7629 338.964 51.7629C338.463 51.7629 338.022 51.8489 337.643 52.0208C337.27 52.1926 336.977 52.4182 336.762 52.6975C336.554 52.9768 336.45 53.2776 336.45 53.5999H334.463C334.463 53.1845 334.57 52.7727 334.785 52.3645C335 51.9563 335.308 51.5875 335.709 51.2581C336.117 50.9215 336.604 50.6565 337.17 50.4631C337.743 50.2626 338.38 50.1624 339.082 50.1624C339.927 50.1624 340.672 50.3056 341.316 50.592C341.968 50.8785 342.477 51.3118 342.842 51.8918C343.214 52.4648 343.4 53.1845 343.4 54.051V59.4651C343.4 59.8518 343.433 60.2636 343.497 60.7004C343.569 61.1373 343.673 61.5133 343.809 61.8284V62.0002H341.735C341.635 61.7711 341.556 61.4667 341.499 61.0872C341.442 60.7004 341.413 60.3424 341.413 60.0129ZM341.757 54.9534L341.778 56.3499H339.77C339.204 56.3499 338.699 56.3964 338.255 56.4895C337.811 56.5754 337.438 56.7079 337.138 56.887C336.837 57.066 336.608 57.2916 336.45 57.5637C336.293 57.8287 336.214 58.1402 336.214 58.4983C336.214 58.8635 336.296 59.1965 336.461 59.4973C336.626 59.7981 336.873 60.038 337.202 60.217C337.539 60.3889 337.951 60.4749 338.438 60.4749C339.046 60.4749 339.583 60.3459 340.049 60.0881C340.514 59.8303 340.883 59.5152 341.155 59.1428C341.435 58.7704 341.585 58.4088 341.606 58.0579L342.455 59.0139C342.405 59.3147 342.269 59.6477 342.047 60.0129C341.825 60.3782 341.528 60.7291 341.155 61.0657C340.79 61.3951 340.353 61.6708 339.845 61.8928C339.343 62.1077 338.778 62.2151 338.147 62.2151C337.36 62.2151 336.669 62.0611 336.074 61.7532C335.487 61.4452 335.029 61.0334 334.699 60.5178C334.377 59.995 334.216 59.4114 334.216 58.7668C334.216 58.1438 334.338 57.5959 334.581 57.1233C334.825 56.6435 335.175 56.246 335.634 55.9309C336.092 55.6086 336.644 55.3652 337.288 55.2004C337.933 55.0357 338.652 54.9534 339.447 54.9534H341.757ZM359.729 50.3772V52.0208H353.853V50.3772H359.729ZM354.143 50.3772V62.0002H352.155V50.3772H354.143ZM361.49 50.3772V62.0002H359.492V50.3772H361.49ZM366.668 52.6116V66.469H364.67V50.3772H366.496L366.668 52.6116ZM374.499 56.092V56.3176C374.499 57.1627 374.399 57.9469 374.198 58.6702C373.998 59.3863 373.704 60.0094 373.317 60.5393C372.938 61.0693 372.469 61.481 371.91 61.7747C371.352 62.0683 370.711 62.2151 369.987 62.2151C369.25 62.2151 368.598 62.0933 368.032 61.8499C367.466 61.6064 366.987 61.2519 366.593 60.7864C366.199 60.3209 365.884 59.7623 365.647 59.1106C365.418 58.4589 365.261 57.7249 365.175 56.9084V55.7053C365.261 54.8459 365.422 54.0761 365.658 53.3958C365.895 52.7154 366.206 52.1353 366.593 51.6555C366.987 51.1685 367.463 50.7997 368.021 50.5491C368.58 50.2913 369.225 50.1624 369.955 50.1624C370.686 50.1624 371.334 50.3056 371.899 50.592C372.465 50.8713 372.941 51.2724 373.328 51.7952C373.715 52.318 374.005 52.9446 374.198 53.675C374.399 54.3984 374.499 55.204 374.499 56.092ZM372.501 56.3176V56.092C372.501 55.512 372.44 54.9677 372.318 54.4592C372.197 53.9436 372.007 53.4924 371.749 53.1057C371.498 52.7118 371.176 52.4039 370.782 52.1819C370.388 51.9527 369.919 51.8381 369.375 51.8381C368.874 51.8381 368.437 51.9241 368.064 52.0959C367.699 52.2678 367.388 52.5006 367.13 52.7942C366.872 53.0806 366.661 53.4101 366.496 53.7825C366.339 54.1477 366.22 54.5273 366.142 54.9211V57.7034C366.285 58.2047 366.485 58.6773 366.743 59.1213C367.001 59.5582 367.345 59.9127 367.774 60.1848C368.204 60.4498 368.745 60.5823 369.396 60.5823C369.934 60.5823 370.396 60.4713 370.782 60.2493C371.176 60.0201 371.498 59.7086 371.749 59.3147C372.007 58.9208 372.197 58.4696 372.318 57.9612C372.44 57.4456 372.501 56.8977 372.501 56.3176ZM376.508 56.3176V56.0706C376.508 55.2327 376.63 54.4556 376.873 53.7395C377.117 53.0162 377.467 52.3896 377.926 51.8596C378.384 51.3225 378.939 50.9071 379.591 50.6135C380.243 50.3127 380.973 50.1624 381.782 50.1624C382.599 50.1624 383.333 50.3127 383.984 50.6135C384.643 50.9071 385.202 51.3225 385.66 51.8596C386.126 52.3896 386.48 53.0162 386.724 53.7395C386.967 54.4556 387.089 55.2327 387.089 56.0706V56.3176C387.089 57.1555 386.967 57.9325 386.724 58.6487C386.48 59.3648 386.126 59.9915 385.66 60.5286C385.202 61.0585 384.647 61.4739 383.995 61.7747C383.351 62.0683 382.62 62.2151 381.804 62.2151C380.987 62.2151 380.253 62.0683 379.602 61.7747C378.95 61.4739 378.391 61.0585 377.926 60.5286C377.467 59.9915 377.117 59.3648 376.873 58.6487C376.63 57.9325 376.508 57.1555 376.508 56.3176ZM378.495 56.0706V56.3176C378.495 56.8977 378.563 57.4456 378.699 57.9612C378.835 58.4696 379.039 58.9208 379.312 59.3147C379.591 59.7086 379.938 60.0201 380.354 60.2493C380.769 60.4713 381.252 60.5823 381.804 60.5823C382.348 60.5823 382.824 60.4713 383.232 60.2493C383.648 60.0201 383.992 59.7086 384.264 59.3147C384.536 58.9208 384.74 58.4696 384.876 57.9612C385.019 57.4456 385.091 56.8977 385.091 56.3176V56.0706C385.091 55.4976 385.019 54.9569 384.876 54.4485C384.74 53.9329 384.532 53.4781 384.253 53.0842C383.981 52.6832 383.637 52.3681 383.222 52.1389C382.813 51.9097 382.334 51.7952 381.782 51.7952C381.238 51.7952 380.758 51.9097 380.343 52.1389C379.935 52.3681 379.591 52.6832 379.312 53.0842C379.039 53.4781 378.835 53.9329 378.699 54.4485C378.563 54.9569 378.495 55.4976 378.495 56.0706ZM390.902 50.3772H392.89L392.718 54.7278C392.675 55.8306 392.549 56.7831 392.342 57.5852C392.134 58.3873 391.869 59.0712 391.547 59.637C391.225 60.1956 390.863 60.6646 390.462 61.0442C390.068 61.4237 389.66 61.7424 389.237 62.0002H388.249L388.303 60.3782L388.711 60.3674C388.947 60.0881 389.176 59.8017 389.398 59.5081C389.62 59.2073 389.825 58.8528 390.011 58.4446C390.197 58.0292 390.351 57.5243 390.473 56.9299C390.602 56.3284 390.684 55.5943 390.72 54.7278L390.902 50.3772ZM391.396 50.3772H398.39V62.0002H396.402V52.2141H391.396V50.3772ZM387.798 60.3674H399.883V65.427H397.896V62.0002H389.785V65.427H387.787L387.798 60.3674ZM408.938 60.0129V54.0295C408.938 53.5712 408.845 53.1737 408.659 52.8372C408.48 52.4934 408.208 52.2284 407.843 52.0422C407.478 51.856 407.026 51.7629 406.489 51.7629C405.988 51.7629 405.548 51.8489 405.168 52.0208C404.796 52.1926 404.502 52.4182 404.287 52.6975C404.079 52.9768 403.976 53.2776 403.976 53.5999H401.988C401.988 53.1845 402.096 52.7727 402.311 52.3645C402.525 51.9563 402.833 51.5875 403.234 51.2581C403.643 50.9215 404.13 50.6565 404.695 50.4631C405.268 50.2626 405.906 50.1624 406.607 50.1624C407.452 50.1624 408.197 50.3056 408.842 50.592C409.493 50.8785 410.002 51.3118 410.367 51.8918C410.74 52.4648 410.926 53.1845 410.926 54.051V59.4651C410.926 59.8518 410.958 60.2636 411.022 60.7004C411.094 61.1373 411.198 61.5133 411.334 61.8284V62.0002H409.261C409.16 61.7711 409.082 61.4667 409.024 61.0872C408.967 60.7004 408.938 60.3424 408.938 60.0129ZM409.282 54.9534L409.304 56.3499H407.295C406.729 56.3499 406.224 56.3964 405.78 56.4895C405.336 56.5754 404.964 56.7079 404.663 56.887C404.362 57.066 404.133 57.2916 403.976 57.5637C403.818 57.8287 403.739 58.1402 403.739 58.4983C403.739 58.8635 403.822 59.1965 403.986 59.4973C404.151 59.7981 404.398 60.038 404.728 60.217C405.064 60.3889 405.476 60.4749 405.963 60.4749C406.572 60.4749 407.109 60.3459 407.574 60.0881C408.04 59.8303 408.409 59.5152 408.681 59.1428C408.96 58.7704 409.11 58.4088 409.132 58.0579L409.98 59.0139C409.93 59.3147 409.794 59.6477 409.572 60.0129C409.35 60.3782 409.053 60.7291 408.681 61.0657C408.315 61.3951 407.879 61.6708 407.37 61.8928C406.869 62.1077 406.303 62.2151 405.673 62.2151C404.885 62.2151 404.194 62.0611 403.6 61.7532C403.012 61.4452 402.554 61.0334 402.225 60.5178C401.902 59.995 401.741 59.4114 401.741 58.7668C401.741 58.1438 401.863 57.5959 402.106 57.1233C402.35 56.6435 402.701 56.246 403.159 55.9309C403.618 55.6086 404.169 55.3652 404.813 55.2004C405.458 55.0357 406.178 54.9534 406.973 54.9534H409.282ZM417.575 56.9407L413.171 50.3772H415.566L418.574 55.1897H420.895L420.604 56.9407H417.575ZM418.66 56.7366L415.287 62.0002H412.773L417.403 55.2971L418.66 56.7366ZM421.915 50.3772V62.0002H419.928V50.3772H421.915ZM428.693 50.3772L424.289 56.9407H421.26L420.948 55.1897H423.279L426.287 50.3772H428.693ZM426.566 62.0002L423.183 56.7366L424.461 55.2971L429.08 62.0002H426.566ZM146.399 81.4153V83.0266H140.255V81.4153H146.399ZM140.674 76.3772V88.0002H138.687V76.3772H140.674ZM148.011 76.3772V88.0002H146.013V76.3772H148.011ZM158.065 86.0129V80.0295C158.065 79.5712 157.972 79.1737 157.786 78.8372C157.607 78.4934 157.335 78.2284 156.97 78.0422C156.604 77.856 156.153 77.7629 155.616 77.7629C155.115 77.7629 154.674 77.8489 154.295 78.0208C153.923 78.1926 153.629 78.4182 153.414 78.6975C153.206 78.9768 153.103 79.2776 153.103 79.5999H151.115C151.115 79.1845 151.223 78.7727 151.438 78.3645C151.652 77.9563 151.96 77.5875 152.361 77.2581C152.77 76.9215 153.257 76.6565 153.822 76.4631C154.395 76.2626 155.033 76.1624 155.734 76.1624C156.579 76.1624 157.324 76.3056 157.969 76.592C158.62 76.8785 159.129 77.3118 159.494 77.8918C159.867 78.4648 160.053 79.1845 160.053 80.051V85.4651C160.053 85.8518 160.085 86.2636 160.149 86.7004C160.221 87.1373 160.325 87.5133 160.461 87.8284V88.0002H158.388C158.287 87.7711 158.209 87.4667 158.151 87.0872C158.094 86.7004 158.065 86.3424 158.065 86.0129ZM158.409 80.9534L158.431 82.3499H156.422C155.856 82.3499 155.351 82.3964 154.907 82.4895C154.463 82.5754 154.091 82.7079 153.79 82.887C153.489 83.066 153.26 83.2916 153.103 83.5637C152.945 83.8287 152.866 84.1402 152.866 84.4983C152.866 84.8635 152.949 85.1965 153.113 85.4973C153.278 85.7981 153.525 86.038 153.854 86.217C154.191 86.3889 154.603 86.4749 155.09 86.4749C155.699 86.4749 156.236 86.3459 156.701 86.0881C157.167 85.8303 157.535 85.5152 157.808 85.1428C158.087 84.7704 158.237 84.4088 158.259 84.0579L159.107 85.0139C159.057 85.3147 158.921 85.6477 158.699 86.0129C158.477 86.3782 158.18 86.7291 157.808 87.0657C157.442 87.3951 157.006 87.6708 156.497 87.8928C155.996 88.1077 155.43 88.2151 154.8 88.2151C154.012 88.2151 153.321 88.0611 152.727 87.7532C152.139 87.4452 151.681 87.0334 151.352 86.5178C151.029 85.995 150.868 85.4114 150.868 84.7668C150.868 84.1438 150.99 83.5959 151.233 83.1233C151.477 82.6435 151.828 82.246 152.286 81.9309C152.744 81.6086 153.296 81.3652 153.94 81.2004C154.585 81.0357 155.305 80.9534 156.1 80.9534H158.409ZM175.317 85.3577L179.271 76.3772H181.183L176.005 88.0002H174.63L169.474 76.3772H171.386L175.317 85.3577ZM170.806 76.3772V88.0002H168.818V76.3772H170.806ZM179.765 88.0002V76.3772H181.763V88.0002H179.765ZM191.817 86.0129V80.0295C191.817 79.5712 191.724 79.1737 191.538 78.8372C191.359 78.4934 191.087 78.2284 190.722 78.0422C190.356 77.856 189.905 77.7629 189.368 77.7629C188.867 77.7629 188.426 77.8489 188.047 78.0208C187.674 78.1926 187.381 78.4182 187.166 78.6975C186.958 78.9768 186.854 79.2776 186.854 79.5999H184.867C184.867 79.1845 184.975 78.7727 185.189 78.3645C185.404 77.9563 185.712 77.5875 186.113 77.2581C186.521 76.9215 187.008 76.6565 187.574 76.4631C188.147 76.2626 188.785 76.1624 189.486 76.1624C190.331 76.1624 191.076 76.3056 191.721 76.592C192.372 76.8785 192.881 77.3118 193.246 77.8918C193.618 78.4648 193.805 79.1845 193.805 80.051V85.4651C193.805 85.8518 193.837 86.2636 193.901 86.7004C193.973 87.1373 194.077 87.5133 194.213 87.8284V88.0002H192.14C192.039 87.7711 191.961 87.4667 191.903 87.0872C191.846 86.7004 191.817 86.3424 191.817 86.0129ZM192.161 80.9534L192.183 82.3499H190.174C189.608 82.3499 189.103 82.3964 188.659 82.4895C188.215 82.5754 187.843 82.7079 187.542 82.887C187.241 83.066 187.012 83.2916 186.854 83.5637C186.697 83.8287 186.618 84.1402 186.618 84.4983C186.618 84.8635 186.701 85.1965 186.865 85.4973C187.03 85.7981 187.277 86.038 187.606 86.217C187.943 86.3889 188.355 86.4749 188.842 86.4749C189.451 86.4749 189.988 86.3459 190.453 86.0881C190.919 85.8303 191.287 85.5152 191.56 85.1428C191.839 84.7704 191.989 84.4088 192.011 84.0579L192.859 85.0139C192.809 85.3147 192.673 85.6477 192.451 86.0129C192.229 86.3782 191.932 86.7291 191.56 87.0657C191.194 87.3951 190.757 87.6708 190.249 87.8928C189.748 88.1077 189.182 88.2151 188.552 88.2151C187.764 88.2151 187.073 88.0611 186.479 87.7532C185.891 87.4452 185.433 87.0334 185.104 86.5178C184.781 85.995 184.62 85.4114 184.62 84.7668C184.62 84.1438 184.742 83.5959 184.985 83.1233C185.229 82.6435 185.58 82.246 186.038 81.9309C186.496 81.6086 187.048 81.3652 187.692 81.2004C188.337 81.0357 189.057 80.9534 189.852 80.9534H192.161ZM198.918 78.6116V92.469H196.92V76.3772H198.746L198.918 78.6116ZM206.749 82.092V82.3176C206.749 83.1627 206.649 83.9469 206.448 84.6702C206.248 85.3863 205.954 86.0094 205.567 86.5393C205.188 87.0693 204.719 87.481 204.16 87.7747C203.602 88.0683 202.961 88.2151 202.237 88.2151C201.5 88.2151 200.848 88.0933 200.282 87.8499C199.716 87.6064 199.237 87.2519 198.843 86.7864C198.449 86.3209 198.134 85.7623 197.897 85.1106C197.668 84.4589 197.511 83.7249 197.425 82.9084V81.7053C197.511 80.8459 197.672 80.0761 197.908 79.3958C198.145 78.7154 198.456 78.1353 198.843 77.6555C199.237 77.1685 199.713 76.7997 200.271 76.5491C200.83 76.2913 201.475 76.1624 202.205 76.1624C202.936 76.1624 203.584 76.3056 204.149 76.592C204.715 76.8713 205.191 77.2724 205.578 77.7952C205.965 78.318 206.255 78.9446 206.448 79.675C206.649 80.3984 206.749 81.204 206.749 82.092ZM204.751 82.3176V82.092C204.751 81.512 204.69 80.9677 204.568 80.4592C204.447 79.9436 204.257 79.4924 203.999 79.1057C203.748 78.7118 203.426 78.4039 203.032 78.1819C202.638 77.9527 202.169 77.8381 201.625 77.8381C201.124 77.8381 200.687 77.9241 200.314 78.0959C199.949 78.2678 199.638 78.5006 199.38 78.7942C199.122 79.0806 198.911 79.4101 198.746 79.7825C198.589 80.1477 198.47 80.5273 198.392 80.9211V83.7034C198.535 84.2047 198.735 84.6773 198.993 85.1213C199.251 85.5582 199.595 85.9127 200.024 86.1848C200.454 86.4498 200.995 86.5823 201.646 86.5823C202.184 86.5823 202.646 86.4713 203.032 86.2493C203.426 86.0201 203.748 85.7086 203.999 85.3147C204.257 84.9208 204.447 84.4696 204.568 83.9612C204.69 83.4456 204.751 82.8977 204.751 82.3176ZM211.443 76.3772V88.0002H209.456V76.3772H211.443ZM219.07 76.3772L213.56 83.0374H210.777L210.477 81.2971H212.754L216.653 76.3772H219.07ZM216.933 88.0002L212.657 82.7366L213.936 81.2971L219.457 88.0002H216.933ZM225.838 88.2151C225.029 88.2151 224.295 88.079 223.636 87.8069C222.984 87.5276 222.422 87.1373 221.949 86.636C221.484 86.1347 221.126 85.5403 220.875 84.8528C220.624 84.1653 220.499 83.4133 220.499 82.5969V82.1458C220.499 81.2004 220.639 80.359 220.918 79.6213C221.197 78.8765 221.577 78.2463 222.057 77.7307C222.536 77.2151 223.081 76.8248 223.689 76.5598C224.298 76.2948 224.928 76.1624 225.58 76.1624C226.411 76.1624 227.127 76.3056 227.729 76.592C228.337 76.8785 228.835 77.2795 229.222 77.7952C229.608 78.3036 229.895 78.9052 230.081 79.5999C230.267 80.2874 230.36 81.0393 230.36 81.8557V82.7473H221.681V81.1252H228.373V80.9749C228.344 80.4592 228.237 79.9579 228.051 79.4709C227.872 78.984 227.585 78.5829 227.191 78.2678C226.798 77.9527 226.26 77.7952 225.58 77.7952C225.129 77.7952 224.714 77.8918 224.334 78.0852C223.954 78.2714 223.629 78.5507 223.356 78.9231C223.084 79.2955 222.873 79.7502 222.723 80.2874C222.572 80.8245 222.497 81.4439 222.497 82.1458V82.5969C222.497 83.1484 222.572 83.6676 222.723 84.1545C222.88 84.6344 223.106 85.0569 223.399 85.4221C223.7 85.7874 224.062 86.0738 224.484 86.2815C224.914 86.4892 225.401 86.593 225.945 86.593C226.647 86.593 227.242 86.4498 227.729 86.1633C228.215 85.8769 228.642 85.4937 229.007 85.0139L230.21 85.97C229.959 86.3495 229.641 86.7112 229.254 87.0549C228.867 87.3987 228.391 87.678 227.825 87.8928C227.267 88.1077 226.604 88.2151 225.838 88.2151ZM237.289 76.3772V88.0002H235.291V76.3772H237.289ZM241.188 76.3772V77.9885H231.467V76.3772H241.188ZM250.889 76.3772V78.0208H245.013V76.3772H250.889ZM245.303 76.3772V88.0002H243.315V76.3772H245.303ZM252.65 76.3772V88.0002H250.652V76.3772H252.65ZM263.607 76.3772V78.0208H257.989V76.3772H263.607ZM265.358 76.3772V88.0002H263.371V76.3772H265.358ZM257.506 76.3772H259.504L259.203 81.9846C259.153 82.8512 259.071 83.6174 258.956 84.2834C258.849 84.9423 258.698 85.5081 258.505 85.9807C258.319 86.4534 258.082 86.8401 257.796 87.1409C257.517 87.4345 257.18 87.6529 256.786 87.7961C256.392 87.9322 255.938 88.0002 255.422 88.0002H254.799V86.2493L255.229 86.217C255.536 86.1956 255.798 86.1239 256.013 86.0022C256.235 85.8805 256.421 85.7014 256.571 85.4651C256.722 85.2216 256.843 84.9101 256.937 84.5305C257.037 84.151 257.112 83.6998 257.162 83.177C257.219 82.6542 257.262 82.0455 257.291 81.3508L257.506 76.3772ZM273.383 88.2151C272.574 88.2151 271.84 88.079 271.181 87.8069C270.529 87.5276 269.967 87.1373 269.494 86.636C269.029 86.1347 268.671 85.5403 268.42 84.8528C268.169 84.1653 268.044 83.4133 268.044 82.5969V82.1458C268.044 81.2004 268.184 80.359 268.463 79.6213C268.742 78.8765 269.122 78.2463 269.602 77.7307C270.081 77.2151 270.626 76.8248 271.234 76.5598C271.843 76.2948 272.473 76.1624 273.125 76.1624C273.956 76.1624 274.672 76.3056 275.273 76.592C275.882 76.8785 276.38 77.2795 276.767 77.7952C277.153 78.3036 277.44 78.9052 277.626 79.5999C277.812 80.2874 277.905 81.0393 277.905 81.8557V82.7473H269.226V81.1252H275.918V80.9749C275.889 80.4592 275.782 79.9579 275.596 79.4709C275.417 78.984 275.13 78.5829 274.736 78.2678C274.342 77.9527 273.805 77.7952 273.125 77.7952C272.674 77.7952 272.258 77.8918 271.879 78.0852C271.499 78.2714 271.174 78.5507 270.901 78.9231C270.629 79.2955 270.418 79.7502 270.268 80.2874C270.117 80.8245 270.042 81.4439 270.042 82.1458V82.5969C270.042 83.1484 270.117 83.6676 270.268 84.1545C270.425 84.6344 270.651 85.0569 270.944 85.4221C271.245 85.7874 271.607 86.0738 272.029 86.2815C272.459 86.4892 272.946 86.593 273.49 86.593C274.192 86.593 274.786 86.4498 275.273 86.1633C275.76 85.8769 276.187 85.4937 276.552 85.0139L277.755 85.97C277.504 86.3495 277.186 86.7112 276.799 87.0549C276.412 87.3987 275.936 87.678 275.37 87.8928C274.812 88.1077 274.149 88.2151 273.383 88.2151ZM282.374 84.8528L287.734 76.3772H289.732V88.0002H287.734V79.5247L282.374 88.0002H280.397V76.3772H282.374V84.8528ZM286.649 72.1663H288.261C288.261 72.7249 288.132 73.2226 287.874 73.6594C287.616 74.0891 287.247 74.4257 286.768 74.6692C286.288 74.9127 285.718 75.0344 285.06 75.0344C284.064 75.0344 283.276 74.7694 282.696 74.2395C282.123 73.7024 281.837 73.0113 281.837 72.1663H283.448C283.448 72.5888 283.57 72.9612 283.813 73.2834C284.057 73.6057 284.472 73.7668 285.06 73.7668C285.632 73.7668 286.041 73.6057 286.284 73.2834C286.528 72.9612 286.649 72.5888 286.649 72.1663ZM297.574 86.5823C298.047 86.5823 298.484 86.4856 298.885 86.2922C299.286 86.0989 299.615 85.8339 299.873 85.4973C300.131 85.1536 300.278 84.7633 300.313 84.3264H302.204C302.168 85.0139 301.936 85.6549 301.506 86.2493C301.083 86.8365 300.528 87.3127 299.841 87.678C299.153 88.0361 298.398 88.2151 297.574 88.2151C296.701 88.2151 295.938 88.0611 295.286 87.7532C294.642 87.4452 294.104 87.0227 293.675 86.4856C293.252 85.9485 292.934 85.3326 292.719 84.6379C292.511 83.9361 292.407 83.1949 292.407 82.4143V81.9631C292.407 81.1825 292.511 80.4449 292.719 79.7502C292.934 79.0484 293.252 78.429 293.675 77.8918C294.104 77.3547 294.642 76.9322 295.286 76.6243C295.938 76.3163 296.701 76.1624 297.574 76.1624C298.484 76.1624 299.279 76.3486 299.959 76.7209C300.639 77.0862 301.173 77.5875 301.56 78.2249C301.953 78.8551 302.168 79.5712 302.204 80.3733H300.313C300.278 79.8935 300.142 79.4602 299.905 79.0735C299.676 78.6868 299.361 78.3788 298.96 78.1497C298.566 77.9133 298.104 77.7952 297.574 77.7952C296.965 77.7952 296.453 77.9169 296.038 78.1604C295.63 78.3967 295.304 78.719 295.061 79.1272C294.824 79.5282 294.652 79.9758 294.545 80.47C294.445 80.9569 294.395 81.4547 294.395 81.9631V82.4143C294.395 82.9228 294.445 83.4241 294.545 83.9182C294.645 84.4124 294.813 84.8599 295.05 85.261C295.293 85.662 295.619 85.9843 296.027 86.2278C296.443 86.4641 296.958 86.5823 297.574 86.5823ZM311.292 86.0129V80.0295C311.292 79.5712 311.199 79.1737 311.013 78.8372C310.834 78.4934 310.562 78.2284 310.196 78.0422C309.831 77.856 309.38 77.7629 308.843 77.7629C308.341 77.7629 307.901 77.8489 307.521 78.0208C307.149 78.1926 306.855 78.4182 306.641 78.6975C306.433 78.9768 306.329 79.2776 306.329 79.5999H304.342C304.342 79.1845 304.449 78.7727 304.664 78.3645C304.879 77.9563 305.187 77.5875 305.588 77.2581C305.996 76.9215 306.483 76.6565 307.049 76.4631C307.622 76.2626 308.259 76.1624 308.961 76.1624C309.806 76.1624 310.551 76.3056 311.195 76.592C311.847 76.8785 312.355 77.3118 312.721 77.8918C313.093 78.4648 313.279 79.1845 313.279 80.051V85.4651C313.279 85.8518 313.312 86.2636 313.376 86.7004C313.448 87.1373 313.551 87.5133 313.688 87.8284V88.0002H311.614C311.514 87.7711 311.435 87.4667 311.378 87.0872C311.321 86.7004 311.292 86.3424 311.292 86.0129ZM311.636 80.9534L311.657 82.3499H309.648C309.083 82.3499 308.578 82.3964 308.134 82.4895C307.69 82.5754 307.317 82.7079 307.017 82.887C306.716 83.066 306.487 83.2916 306.329 83.5637C306.172 83.8287 306.093 84.1402 306.093 84.4983C306.093 84.8635 306.175 85.1965 306.34 85.4973C306.505 85.7981 306.752 86.038 307.081 86.217C307.418 86.3889 307.829 86.4749 308.316 86.4749C308.925 86.4749 309.462 86.3459 309.928 86.0881C310.393 85.8303 310.762 85.5152 311.034 85.1428C311.313 84.7704 311.464 84.4088 311.485 84.0579L312.334 85.0139C312.284 85.3147 312.148 85.6477 311.926 86.0129C311.704 86.3782 311.407 86.7291 311.034 87.0657C310.669 87.3951 310.232 87.6708 309.724 87.8928C309.222 88.1077 308.657 88.2151 308.026 88.2151C307.239 88.2151 306.548 88.0611 305.953 87.7532C305.366 87.4452 304.908 87.0334 304.578 86.5178C304.256 85.995 304.095 85.4114 304.095 84.7668C304.095 84.1438 304.216 83.5959 304.46 83.1233C304.703 82.6435 305.054 82.246 305.513 81.9309C305.971 81.6086 306.522 81.3652 307.167 81.2004C307.812 81.0357 308.531 80.9534 309.326 80.9534H311.636ZM317.748 76.3772L320.294 80.6096L322.872 76.3772H325.203L321.4 82.1135L325.321 88.0002H323.022L320.337 83.6389L317.651 88.0002H315.342L319.252 82.1135L315.46 76.3772H317.748Z" fill="black"/>
<defs>
<filter id="filter0_d_822_2151" x="545.052" y="5.08643" width="106.19" height="106.163" filterUnits="userSpaceOnUse" color-interpolation-filters="sRGB">
<feFlood flood-opacity="0" result="BackgroundImageFix"/>
<feColorMatrix in="SourceAlpha" type="matrix" values="0 0 0 0 0 0 0 0 0 0 0 0 0 0 0 0 0 0 127 0" result="hardAlpha"/>
<feOffset/>
<feGaussianBlur stdDeviation="12"/>
<feComposite in2="hardAlpha" operator="out"/>
<feColorMatrix type="matrix" values="0 0 0 0 0.579167 0 0 0 0 0.579167 0 0 0 0 0.579167 0 0 0 0.3 0"/>
<feBlend mode="normal" in2="BackgroundImageFix" result="effect1_dropShadow_822_2151"/>
<feBlend mode="normal" in="SourceGraphic" in2="effect1_dropShadow_822_2151" result="shape"/>
</filter>
</defs>
</svg>
