<svg width="346" height="85" viewBox="0 0 346 85" fill="none" xmlns="http://www.w3.org/2000/svg">
<path d="M53.0456 60.0199C62.811 50.2591 62.811 34.4338 53.0455 24.673C43.2801 14.9122 27.4473 14.9121 17.6819 24.6729C7.91646 34.4337 7.91643 50.2591 17.6819 60.0199C27.4473 69.7807 43.2802 69.7807 53.0456 60.0199Z" fill="#00A3FF"/>
<path d="M34.6265 34.1882H37.7515V51.6931H34.0039V38.949H31.001V36.5686C31.5381 36.5035 32.0304 36.3774 32.478 36.1902C32.9256 35.9949 33.2715 35.7874 33.5156 35.5676C33.7679 35.3479 33.9795 35.1363 34.1504 34.9329C34.3294 34.7213 34.4556 34.5422 34.5288 34.3958L34.6265 34.1882Z" fill="white"/>
<path d="M114.204 17.5681H113.021V16.7273H114.156C114.658 16.7273 115.063 16.6567 115.373 16.5154C115.683 16.3741 115.909 16.1781 116.05 15.9275C116.191 15.6768 116.262 15.3875 116.262 15.0593C116.262 14.7449 116.184 14.4578 116.029 14.198C115.874 13.9337 115.635 13.724 115.312 13.5691C114.988 13.4096 114.571 13.3298 114.061 13.3298C113.678 13.3298 113.331 13.4028 113.021 13.5486C112.712 13.6899 112.465 13.8881 112.283 14.1433C112.101 14.394 112.01 14.6833 112.01 15.0115H110.69C110.69 14.5876 110.779 14.2071 110.957 13.8699C111.135 13.5281 111.379 13.2387 111.688 13.0017C111.998 12.7602 112.356 12.5756 112.762 12.448C113.172 12.3204 113.605 12.2566 114.061 12.2566C114.594 12.2566 115.077 12.3181 115.51 12.4412C115.943 12.5597 116.314 12.7374 116.624 12.9744C116.934 13.2113 117.171 13.5053 117.335 13.8562C117.499 14.2071 117.581 14.615 117.581 15.0798C117.581 15.4216 117.501 15.7429 117.342 16.0437C117.182 16.3445 116.954 16.6088 116.658 16.8367C116.362 17.0645 116.007 17.2445 115.592 17.3767C115.177 17.5043 114.715 17.5681 114.204 17.5681ZM113.021 16.9871H114.204C114.765 16.9871 115.264 17.044 115.701 17.158C116.139 17.2719 116.508 17.4382 116.809 17.657C117.109 17.8757 117.337 18.1469 117.492 18.4705C117.652 18.7895 117.731 19.1563 117.731 19.571C117.731 20.0359 117.64 20.4483 117.458 20.8083C117.28 21.1684 117.027 21.4737 116.699 21.7244C116.371 21.975 115.981 22.1641 115.53 22.2917C115.084 22.4194 114.594 22.4832 114.061 22.4832C113.632 22.4832 113.208 22.4285 112.789 22.3191C112.374 22.2052 111.998 22.032 111.661 21.7996C111.324 21.5626 111.053 21.2618 110.848 20.8972C110.647 20.5326 110.547 20.0951 110.547 19.5847H111.866C111.866 19.9174 111.957 20.2227 112.14 20.5007C112.326 20.7787 112.584 21.002 112.912 21.1707C113.24 21.3347 113.623 21.4167 114.061 21.4167C114.562 21.4167 114.986 21.3393 115.332 21.1843C115.683 21.0248 115.95 20.8083 116.132 20.5349C116.319 20.2569 116.412 19.9447 116.412 19.5984C116.412 19.2931 116.362 19.0287 116.262 18.8054C116.166 18.5776 116.022 18.3907 115.831 18.2449C115.644 18.099 115.41 17.9919 115.127 17.9236C114.849 17.8507 114.525 17.8142 114.156 17.8142H113.021V16.9871ZM124.294 18.156V19.1814H120.384V18.156H124.294ZM120.65 14.95V22.3464H119.386V14.95H120.65ZM125.319 14.95V22.3464H124.048V14.95H125.319ZM131.718 21.0818V17.2742C131.718 16.9825 131.659 16.7296 131.54 16.5154C131.426 16.2966 131.253 16.128 131.021 16.0095C130.788 15.891 130.501 15.8318 130.159 15.8318C129.84 15.8318 129.56 15.8865 129.318 15.9958C129.081 16.1052 128.895 16.2488 128.758 16.4265C128.626 16.6042 128.56 16.7957 128.56 17.0007H127.295C127.295 16.7364 127.363 16.4744 127.5 16.2146C127.637 15.9548 127.833 15.7201 128.088 15.5105C128.348 15.2963 128.658 15.1277 129.018 15.0046C129.382 14.877 129.788 14.8132 130.234 14.8132C130.772 14.8132 131.246 14.9044 131.656 15.0867C132.071 15.269 132.395 15.5447 132.627 15.9138C132.864 16.2784 132.982 16.7364 132.982 17.2878V20.7332C132.982 20.9792 133.003 21.2413 133.044 21.5193C133.09 21.7973 133.156 22.0365 133.242 22.2371V22.3464H131.923C131.859 22.2006 131.809 22.0069 131.772 21.7654C131.736 21.5193 131.718 21.2914 131.718 21.0818ZM131.937 17.8621L131.95 18.7507H130.672C130.312 18.7507 129.991 18.7804 129.708 18.8396C129.425 18.8943 129.188 18.9786 128.997 19.0925C128.806 19.2065 128.66 19.35 128.56 19.5232C128.459 19.6918 128.409 19.8901 128.409 20.1179C128.409 20.3503 128.462 20.5623 128.566 20.7537C128.671 20.9451 128.828 21.0977 129.038 21.2117C129.252 21.321 129.514 21.3757 129.824 21.3757C130.212 21.3757 130.553 21.2937 130.85 21.1296C131.146 20.9656 131.381 20.7651 131.554 20.5281C131.731 20.2911 131.827 20.061 131.841 19.8376L132.381 20.446C132.349 20.6375 132.262 20.8494 132.121 21.0818C131.98 21.3142 131.791 21.5375 131.554 21.7517C131.321 21.9613 131.043 22.1368 130.72 22.2781C130.401 22.4148 130.041 22.4832 129.64 22.4832C129.138 22.4832 128.699 22.3852 128.32 22.1892C127.947 21.9932 127.655 21.7312 127.445 21.4031C127.24 21.0704 127.138 20.699 127.138 20.2888C127.138 19.8923 127.215 19.5437 127.37 19.2429C127.525 18.9376 127.748 18.6847 128.04 18.4841C128.332 18.2791 128.683 18.1241 129.093 18.0193C129.503 17.9145 129.961 17.8621 130.467 17.8621H131.937ZM136.346 14.95V22.3464H135.081V14.95H136.346ZM141.199 14.95L137.692 19.1882H135.922L135.73 18.0808H137.18L139.661 14.95H141.199ZM139.839 22.3464L137.118 18.9968L137.932 18.0808L141.445 22.3464H139.839ZM142.061 18.7302V18.573C142.061 18.0398 142.138 17.5453 142.293 17.0896C142.448 16.6293 142.671 16.2306 142.963 15.8933C143.255 15.5515 143.608 15.2872 144.022 15.1003C144.437 14.9089 144.902 14.8132 145.417 14.8132C145.937 14.8132 146.404 14.9089 146.818 15.1003C147.238 15.2872 147.593 15.5515 147.885 15.8933C148.181 16.2306 148.407 16.6293 148.562 17.0896C148.716 17.5453 148.794 18.0398 148.794 18.573V18.7302C148.794 19.2634 148.716 19.7579 148.562 20.2136C148.407 20.6694 148.181 21.0681 147.885 21.4099C147.593 21.7472 147.24 22.0115 146.825 22.2029C146.415 22.3897 145.95 22.4832 145.431 22.4832C144.911 22.4832 144.444 22.3897 144.029 22.2029C143.615 22.0115 143.259 21.7472 142.963 21.4099C142.671 21.0681 142.448 20.6694 142.293 20.2136C142.138 19.7579 142.061 19.2634 142.061 18.7302ZM143.325 18.573V18.7302C143.325 19.0994 143.368 19.448 143.455 19.7761C143.542 20.0997 143.672 20.3868 143.845 20.6375C144.022 20.8881 144.243 21.0863 144.508 21.2322C144.772 21.3735 145.08 21.4441 145.431 21.4441C145.777 21.4441 146.08 21.3735 146.34 21.2322C146.604 21.0863 146.823 20.8881 146.996 20.6375C147.169 20.3868 147.299 20.0997 147.386 19.7761C147.477 19.448 147.522 19.0994 147.522 18.7302V18.573C147.522 18.2084 147.477 17.8643 147.386 17.5408C147.299 17.2126 147.167 16.9233 146.989 16.6726C146.816 16.4174 146.597 16.2169 146.333 16.071C146.073 15.9252 145.768 15.8523 145.417 15.8523C145.071 15.8523 144.765 15.9252 144.501 16.071C144.241 16.2169 144.022 16.4174 143.845 16.6726C143.672 16.9233 143.542 17.2126 143.455 17.5408C143.368 17.8643 143.325 18.2084 143.325 18.573ZM154.632 20.6648L157.147 14.95H158.364L155.069 22.3464H154.194L150.913 14.95H152.13L154.632 20.6648ZM151.761 14.95V22.3464H150.496V14.95H151.761ZM157.462 22.3464V14.95H158.733V22.3464H157.462ZM163.73 21.4441C164.031 21.4441 164.309 21.3826 164.564 21.2595C164.82 21.1365 165.029 20.9679 165.193 20.7537C165.357 20.5349 165.451 20.2865 165.474 20.0085H166.677C166.654 20.446 166.506 20.8539 166.232 21.2322C165.964 21.6059 165.61 21.9089 165.173 22.1414C164.735 22.3692 164.255 22.4832 163.73 22.4832C163.174 22.4832 162.689 22.3852 162.274 22.1892C161.864 21.9932 161.522 21.7244 161.249 21.3826C160.98 21.0408 160.777 20.6488 160.641 20.2068C160.508 19.7602 160.442 19.2885 160.442 18.7917V18.5046C160.442 18.0079 160.508 17.5385 160.641 17.0964C160.777 16.6498 160.98 16.2556 161.249 15.9138C161.522 15.572 161.864 15.3031 162.274 15.1072C162.689 14.9112 163.174 14.8132 163.73 14.8132C164.309 14.8132 164.815 14.9317 165.248 15.1687C165.681 15.4011 166.021 15.7201 166.267 16.1257C166.517 16.5268 166.654 16.9825 166.677 17.4929H165.474C165.451 17.1876 165.364 16.9119 165.214 16.6658C165.068 16.4197 164.868 16.2237 164.612 16.0779C164.362 15.9275 164.068 15.8523 163.73 15.8523C163.343 15.8523 163.017 15.9298 162.753 16.0847C162.493 16.2351 162.286 16.4402 162.131 16.7C161.98 16.9552 161.871 17.24 161.803 17.5544C161.739 17.8643 161.707 18.1811 161.707 18.5046V18.7917C161.707 19.1153 161.739 19.4343 161.803 19.7488C161.867 20.0632 161.974 20.3481 162.124 20.6033C162.279 20.8585 162.486 21.0636 162.746 21.2185C163.01 21.3689 163.339 21.4441 163.73 21.4441ZM171.113 14.95V22.3464H169.842V14.95H171.113ZM173.595 14.95V15.9753H167.408V14.95H173.595ZM178.312 19.0925H175.885L175.871 18.0808H177.854C178.245 18.0808 178.571 18.0421 178.831 17.9646C179.095 17.8871 179.294 17.7709 179.426 17.616C179.558 17.461 179.624 17.2696 179.624 17.0417C179.624 16.864 179.585 16.7091 179.508 16.5769C179.435 16.4402 179.323 16.3285 179.173 16.2419C179.022 16.1508 178.836 16.0847 178.612 16.0437C178.394 15.9981 178.136 15.9753 177.84 15.9753H176.22V22.3464H174.955V14.95H177.84C178.309 14.95 178.731 14.991 179.104 15.073C179.483 15.155 179.804 15.2804 180.068 15.449C180.337 15.613 180.542 15.8227 180.684 16.0779C180.825 16.3331 180.896 16.6339 180.896 16.9802C180.896 17.2035 180.85 17.4154 180.759 17.616C180.668 17.8165 180.533 17.9942 180.355 18.1492C180.178 18.3041 179.959 18.4317 179.699 18.532C179.439 18.6277 179.141 18.6892 178.804 18.7166L178.312 19.0925ZM178.312 22.3464H175.427L176.056 21.321H178.312C178.662 21.321 178.954 21.2778 179.187 21.1912C179.419 21.1 179.592 20.9724 179.706 20.8083C179.825 20.6397 179.884 20.4392 179.884 20.2068C179.884 19.9744 179.825 19.7761 179.706 19.6121C179.592 19.4434 179.419 19.3158 179.187 19.2292C178.954 19.1381 178.662 19.0925 178.312 19.0925H176.391L176.404 18.0808H178.804L179.262 18.4636C179.667 18.4955 180.011 18.5958 180.294 18.7644C180.576 18.933 180.791 19.1472 180.937 19.407C181.082 19.6622 181.155 19.9402 181.155 20.241C181.155 20.5873 181.089 20.8927 180.957 21.157C180.829 21.4213 180.643 21.6423 180.396 21.8201C180.15 21.9932 179.852 22.1254 179.501 22.2166C179.15 22.3031 178.754 22.3464 178.312 22.3464ZM182.516 18.7302V18.573C182.516 18.0398 182.593 17.5453 182.748 17.0896C182.903 16.6293 183.126 16.2306 183.418 15.8933C183.71 15.5515 184.063 15.2872 184.478 15.1003C184.892 14.9089 185.357 14.8132 185.872 14.8132C186.392 14.8132 186.859 14.9089 187.273 15.1003C187.693 15.2872 188.048 15.5515 188.34 15.8933C188.636 16.2306 188.862 16.6293 189.017 17.0896C189.172 17.5453 189.249 18.0398 189.249 18.573V18.7302C189.249 19.2634 189.172 19.7579 189.017 20.2136C188.862 20.6694 188.636 21.0681 188.34 21.4099C188.048 21.7472 187.695 22.0115 187.28 22.2029C186.87 22.3897 186.405 22.4832 185.886 22.4832C185.366 22.4832 184.899 22.3897 184.484 22.2029C184.07 22.0115 183.714 21.7472 183.418 21.4099C183.126 21.0681 182.903 20.6694 182.748 20.2136C182.593 19.7579 182.516 19.2634 182.516 18.7302ZM183.78 18.573V18.7302C183.78 19.0994 183.824 19.448 183.91 19.7761C183.997 20.0997 184.127 20.3868 184.3 20.6375C184.478 20.8881 184.699 21.0863 184.963 21.2322C185.227 21.3735 185.535 21.4441 185.886 21.4441C186.232 21.4441 186.535 21.3735 186.795 21.2322C187.059 21.0863 187.278 20.8881 187.451 20.6375C187.624 20.3868 187.754 20.0997 187.841 19.7761C187.932 19.448 187.978 19.0994 187.978 18.7302V18.573C187.978 18.2084 187.932 17.8643 187.841 17.5408C187.754 17.2126 187.622 16.9233 187.444 16.6726C187.271 16.4174 187.052 16.2169 186.788 16.071C186.528 15.9252 186.223 15.8523 185.872 15.8523C185.526 15.8523 185.22 15.9252 184.956 16.071C184.696 16.2169 184.478 16.4174 184.3 16.6726C184.127 16.9233 183.997 17.2126 183.91 17.5408C183.824 17.8643 183.78 18.2084 183.78 18.573ZM190.855 21.6765C190.855 21.4623 190.922 21.2823 191.054 21.1365C191.19 20.9861 191.386 20.9109 191.642 20.9109C191.897 20.9109 192.09 20.9861 192.223 21.1365C192.359 21.2823 192.428 21.4623 192.428 21.6765C192.428 21.8861 192.359 22.0639 192.223 22.2097C192.09 22.3556 191.897 22.4285 191.642 22.4285C191.386 22.4285 191.19 22.3556 191.054 22.2097C190.922 22.0639 190.855 21.8861 190.855 21.6765ZM205.792 12.3933V22.3464H204.479V13.4734H199.571V22.3464H198.252V12.3933H205.792ZM207.658 18.7302V18.573C207.658 18.0398 207.736 17.5453 207.891 17.0896C208.046 16.6293 208.269 16.2306 208.561 15.8933C208.852 15.5515 209.205 15.2872 209.62 15.1003C210.035 14.9089 210.5 14.8132 211.015 14.8132C211.534 14.8132 212.001 14.9089 212.416 15.1003C212.835 15.2872 213.191 15.5515 213.482 15.8933C213.779 16.2306 214.004 16.6293 214.159 17.0896C214.314 17.5453 214.392 18.0398 214.392 18.573V18.7302C214.392 19.2634 214.314 19.7579 214.159 20.2136C214.004 20.6694 213.779 21.0681 213.482 21.4099C213.191 21.7472 212.838 22.0115 212.423 22.2029C212.013 22.3897 211.548 22.4832 211.028 22.4832C210.509 22.4832 210.042 22.3897 209.627 22.2029C209.212 22.0115 208.857 21.7472 208.561 21.4099C208.269 21.0681 208.046 20.6694 207.891 20.2136C207.736 19.7579 207.658 19.2634 207.658 18.7302ZM208.923 18.573V18.7302C208.923 19.0994 208.966 19.448 209.053 19.7761C209.139 20.0997 209.269 20.3868 209.442 20.6375C209.62 20.8881 209.841 21.0863 210.105 21.2322C210.37 21.3735 210.677 21.4441 211.028 21.4441C211.375 21.4441 211.678 21.3735 211.938 21.2322C212.202 21.0863 212.421 20.8881 212.594 20.6375C212.767 20.3868 212.897 20.0997 212.983 19.7761C213.075 19.448 213.12 19.0994 213.12 18.7302V18.573C213.12 18.2084 213.075 17.8643 212.983 17.5408C212.897 17.2126 212.765 16.9233 212.587 16.6726C212.414 16.4174 212.195 16.2169 211.931 16.071C211.671 15.9252 211.366 15.8523 211.015 15.8523C210.668 15.8523 210.363 15.9252 210.099 16.071C209.839 16.2169 209.62 16.4174 209.442 16.6726C209.269 16.9233 209.139 17.2126 209.053 17.5408C208.966 17.8643 208.923 18.2084 208.923 18.573ZM220.811 14.95V15.9958H217.235V14.95H220.811ZM221.925 14.95V22.3464H220.66V14.95H221.925ZM216.928 14.95H218.199L218.008 18.5183C217.976 19.0697 217.924 19.5574 217.851 19.9812C217.782 20.4005 217.687 20.7605 217.563 21.0613C217.445 21.3621 217.295 21.6082 217.112 21.7996C216.935 21.9864 216.72 22.1254 216.47 22.2166C216.219 22.3031 215.93 22.3464 215.602 22.3464H215.205V21.2322L215.479 21.2117C215.674 21.198 215.841 21.1524 215.978 21.075C216.119 20.9975 216.237 20.8835 216.333 20.7332C216.429 20.5782 216.506 20.38 216.565 20.1384C216.629 19.8969 216.677 19.6098 216.709 19.2771C216.745 18.9444 216.773 18.557 216.791 18.115L216.928 14.95ZM226.04 21.5808L228.098 14.95H229.451L226.484 23.488C226.416 23.6703 226.325 23.8663 226.211 24.0759C226.102 24.2901 225.96 24.4929 225.787 24.6843C225.614 24.8757 225.404 25.0307 225.158 25.1492C224.917 25.2722 224.627 25.3337 224.29 25.3337C224.19 25.3337 224.062 25.3201 223.907 25.2927C223.752 25.2654 223.643 25.2426 223.579 25.2244L223.572 24.199C223.609 24.2035 223.666 24.2081 223.743 24.2126C223.825 24.2218 223.882 24.2263 223.914 24.2263C224.201 24.2263 224.445 24.1876 224.646 24.1101C224.846 24.0372 225.015 23.9119 225.151 23.7341C225.293 23.561 225.413 23.3217 225.514 23.0164L226.04 21.5808ZM224.529 14.95L226.45 20.6921L226.778 22.0251L225.869 22.49L223.148 14.95H224.529ZM236.171 14.95V22.3464H234.906V14.95H236.171ZM235.74 18.3474V19.3865C235.485 19.4822 235.225 19.5688 234.961 19.6462C234.701 19.7192 234.425 19.7784 234.134 19.824C233.847 19.865 233.535 19.8855 233.197 19.8855C232.614 19.8855 232.108 19.7852 231.68 19.5847C231.251 19.3796 230.921 19.072 230.688 18.6619C230.456 18.2472 230.34 17.7253 230.34 17.0964V14.9363H231.604V17.0964C231.604 17.5066 231.666 17.8393 231.789 18.0945C231.912 18.3497 232.092 18.5388 232.329 18.6619C232.566 18.7804 232.855 18.8396 233.197 18.8396C233.525 18.8396 233.833 18.8191 234.12 18.7781C234.412 18.7325 234.69 18.6733 234.954 18.6003C235.223 18.5274 235.485 18.4431 235.74 18.3474ZM241.277 22.4832C240.762 22.4832 240.295 22.3966 239.876 22.2234C239.461 22.0457 239.104 21.7973 238.803 21.4783C238.507 21.1593 238.279 20.781 238.119 20.3435C237.96 19.906 237.88 19.4275 237.88 18.908V18.6208C237.88 18.0193 237.969 17.4838 238.146 17.0144C238.324 16.5404 238.566 16.1394 238.871 15.8113C239.176 15.4832 239.523 15.2348 239.91 15.0662C240.298 14.8975 240.699 14.8132 241.113 14.8132C241.642 14.8132 242.098 14.9044 242.48 15.0867C242.868 15.269 243.185 15.5242 243.431 15.8523C243.677 16.1759 243.859 16.5587 243.978 17.0007C244.096 17.4382 244.155 17.9167 244.155 18.4363V19.0037H238.632V17.9714H242.891V17.8757C242.872 17.5476 242.804 17.2286 242.686 16.9187C242.572 16.6088 242.389 16.3536 242.139 16.1531C241.888 15.9526 241.546 15.8523 241.113 15.8523C240.826 15.8523 240.562 15.9138 240.32 16.0369C240.079 16.1554 239.871 16.3331 239.698 16.5701C239.525 16.807 239.391 17.0964 239.295 17.4382C239.199 17.78 239.151 18.1742 239.151 18.6208V18.908C239.151 19.2589 239.199 19.5893 239.295 19.8992C239.395 20.2045 239.539 20.4734 239.726 20.7058C239.917 20.9382 240.147 21.1205 240.416 21.2527C240.689 21.3848 240.999 21.4509 241.346 21.4509C241.792 21.4509 242.171 21.3598 242.48 21.1775C242.79 20.9952 243.062 20.7514 243.294 20.446L244.06 21.0544C243.9 21.296 243.697 21.5261 243.451 21.7449C243.205 21.9636 242.902 22.1414 242.542 22.2781C242.187 22.4148 241.765 22.4832 241.277 22.4832ZM250.649 18.156V19.1814H246.739V18.156H250.649ZM247.006 14.95V22.3464H245.741V14.95H247.006ZM251.675 14.95V22.3464H250.403V14.95H251.675ZM255.079 20.3435L258.49 14.95H259.762V22.3464H258.49V16.9529L255.079 22.3464H253.821V14.95H255.079V20.3435ZM264.861 22.4832C264.346 22.4832 263.879 22.3966 263.46 22.2234C263.045 22.0457 262.688 21.7973 262.387 21.4783C262.09 21.1593 261.863 20.781 261.703 20.3435C261.544 19.906 261.464 19.4275 261.464 18.908V18.6208C261.464 18.0193 261.553 17.4838 261.73 17.0144C261.908 16.5404 262.15 16.1394 262.455 15.8113C262.76 15.4832 263.107 15.2348 263.494 15.0662C263.882 14.8975 264.283 14.8132 264.697 14.8132C265.226 14.8132 265.682 14.9044 266.064 15.0867C266.452 15.269 266.769 15.5242 267.015 15.8523C267.261 16.1759 267.443 16.5587 267.562 17.0007C267.68 17.4382 267.739 17.9167 267.739 18.4363V19.0037H262.216V17.9714H266.475V17.8757C266.456 17.5476 266.388 17.2286 266.27 16.9187C266.156 16.6088 265.973 16.3536 265.723 16.1531C265.472 15.9526 265.13 15.8523 264.697 15.8523C264.41 15.8523 264.146 15.9138 263.904 16.0369C263.663 16.1554 263.455 16.3331 263.282 16.5701C263.109 16.807 262.975 17.0964 262.879 17.4382C262.783 17.78 262.735 18.1742 262.735 18.6208V18.908C262.735 19.2589 262.783 19.5893 262.879 19.8992C262.979 20.2045 263.123 20.4734 263.31 20.7058C263.501 20.9382 263.731 21.1205 264 21.2527C264.273 21.3848 264.583 21.4509 264.93 21.4509C265.376 21.4509 265.755 21.3598 266.064 21.1775C266.374 20.9952 266.646 20.7514 266.878 20.446L267.644 21.0544C267.484 21.296 267.281 21.5261 267.035 21.7449C266.789 21.9636 266.486 22.1414 266.126 22.2781C265.771 22.4148 265.349 22.4832 264.861 22.4832ZM112.331 40.3435L115.742 34.95H117.014V42.3464H115.742V36.9529L112.331 42.3464H111.073V34.95H112.331V40.3435ZM124.062 38.156V39.1814H120.151V38.156H124.062ZM120.418 34.95V42.3464H119.153V34.95H120.418ZM125.087 34.95V42.3464H123.815V34.95H125.087ZM135.628 38.7781V38.9216C135.628 39.4412 135.571 39.9197 135.457 40.3572C135.343 40.7901 135.172 41.1661 134.944 41.4851C134.721 41.8041 134.443 42.0525 134.11 42.2302C133.778 42.4034 133.393 42.49 132.955 42.49C132.595 42.49 132.278 42.4421 132.005 42.3464C131.731 42.2462 131.499 42.1026 131.308 41.9158C131.121 41.7289 130.97 41.5056 130.856 41.2458C130.747 40.9815 130.672 40.6853 130.631 40.3572V37.0759C130.672 36.725 130.747 36.4106 130.856 36.1326C130.97 35.8546 131.121 35.6176 131.308 35.4216C131.499 35.2257 131.729 35.0753 131.998 34.9705C132.267 34.8656 132.581 34.8132 132.941 34.8132C133.297 34.8132 133.616 34.877 133.898 35.0046C134.186 35.1277 134.436 35.3054 134.65 35.5378C134.869 35.7703 135.049 36.0505 135.19 36.3787C135.336 36.7022 135.446 37.0668 135.519 37.4724C135.591 37.878 135.628 38.3132 135.628 38.7781ZM134.363 38.9216V38.7781C134.363 38.4591 134.34 38.156 134.295 37.8689C134.254 37.5772 134.188 37.3106 134.097 37.0691C134.01 36.823 133.896 36.6088 133.755 36.4265C133.614 36.2442 133.443 36.1029 133.242 36.0027C133.046 35.9024 132.821 35.8523 132.565 35.8523C132.292 35.8523 132.064 35.8865 131.882 35.9548C131.704 36.0232 131.565 36.1143 131.465 36.2283C131.365 36.3376 131.292 36.4539 131.246 36.5769V40.863C131.301 40.9633 131.381 41.059 131.485 41.1501C131.59 41.2367 131.731 41.3097 131.909 41.3689C132.087 41.4236 132.31 41.4509 132.579 41.4509C132.898 41.4509 133.169 41.3871 133.393 41.2595C133.62 41.1274 133.805 40.9451 133.946 40.7126C134.092 40.4802 134.197 40.2113 134.261 39.906C134.329 39.6007 134.363 39.2725 134.363 38.9216ZM126.844 38.9216V38.7781C126.844 38.3132 126.88 37.878 126.953 37.4724C127.026 37.0668 127.135 36.7022 127.281 36.3787C127.427 36.0505 127.607 35.7703 127.821 35.5378C128.04 35.3054 128.291 35.1277 128.573 35.0046C128.86 34.877 129.182 34.8132 129.537 34.8132C129.888 34.8132 130.193 34.8656 130.453 34.9705C130.717 35.0753 130.941 35.2257 131.123 35.4216C131.305 35.6176 131.451 35.8546 131.561 36.1326C131.67 36.4106 131.747 36.725 131.793 37.0759V40.2273C131.752 40.5736 131.677 40.8858 131.567 41.1638C131.458 41.4418 131.312 41.6811 131.13 41.8816C130.948 42.0776 130.722 42.2279 130.453 42.3328C130.189 42.4376 129.879 42.49 129.523 42.49C129.086 42.49 128.701 42.4034 128.368 42.2302C128.035 42.0525 127.755 41.8041 127.527 41.4851C127.304 41.1661 127.133 40.7901 127.015 40.3572C126.901 39.9197 126.844 39.4412 126.844 38.9216ZM128.115 38.7781V38.9216C128.115 39.2725 128.145 39.6007 128.204 39.906C128.268 40.2113 128.366 40.4802 128.498 40.7126C128.635 40.9451 128.812 41.1274 129.031 41.2595C129.25 41.3871 129.519 41.4509 129.838 41.4509C130.111 41.4509 130.337 41.4167 130.515 41.3484C130.692 41.28 130.834 41.1912 130.938 41.0818C131.043 40.9724 131.123 40.8585 131.178 40.74V36.5769C131.132 36.4539 131.057 36.3376 130.952 36.2283C130.852 36.1143 130.713 36.0232 130.535 35.9548C130.357 35.8865 130.13 35.8523 129.852 35.8523C129.533 35.8523 129.261 35.9298 129.038 36.0847C128.815 36.2397 128.635 36.4516 128.498 36.7205C128.366 36.9893 128.268 37.3015 128.204 37.657C128.145 38.0079 128.115 38.3816 128.115 38.7781ZM130.549 45.1902V31.8464H131.82V45.1902H130.549ZM136.947 38.7302V38.573C136.947 38.0398 137.025 37.5453 137.18 37.0896C137.335 36.6293 137.558 36.2306 137.85 35.8933C138.141 35.5515 138.494 35.2872 138.909 35.1003C139.324 34.9089 139.789 34.8132 140.304 34.8132C140.823 34.8132 141.29 34.9089 141.705 35.1003C142.124 35.2872 142.48 35.5515 142.771 35.8933C143.068 36.2306 143.293 36.6293 143.448 37.0896C143.603 37.5453 143.681 38.0398 143.681 38.573V38.7302C143.681 39.2634 143.603 39.7579 143.448 40.2136C143.293 40.6694 143.068 41.0681 142.771 41.4099C142.48 41.7472 142.127 42.0115 141.712 42.2029C141.302 42.3897 140.837 42.4832 140.317 42.4832C139.798 42.4832 139.331 42.3897 138.916 42.2029C138.501 42.0115 138.146 41.7472 137.85 41.4099C137.558 41.0681 137.335 40.6694 137.18 40.2136C137.025 39.7579 136.947 39.2634 136.947 38.7302ZM138.212 38.573V38.7302C138.212 39.0994 138.255 39.448 138.342 39.7761C138.428 40.0997 138.558 40.3868 138.731 40.6375C138.909 40.8881 139.13 41.0863 139.395 41.2322C139.659 41.3735 139.966 41.4441 140.317 41.4441C140.664 41.4441 140.967 41.3735 141.227 41.2322C141.491 41.0863 141.71 40.8881 141.883 40.6375C142.056 40.3868 142.186 40.0997 142.272 39.7761C142.364 39.448 142.409 39.0994 142.409 38.7302V38.573C142.409 38.2084 142.364 37.8643 142.272 37.5408C142.186 37.2126 142.054 36.9233 141.876 36.6726C141.703 36.4174 141.484 36.2169 141.22 36.071C140.96 35.9252 140.655 35.8523 140.304 35.8523C139.957 35.8523 139.652 35.9252 139.388 36.071C139.128 36.2169 138.909 36.4174 138.731 36.6726C138.558 36.9233 138.428 37.2126 138.342 37.5408C138.255 37.8643 138.212 38.2084 138.212 38.573ZM146.531 36.3718V45.1902H145.26V34.95H146.422L146.531 36.3718ZM151.515 38.5867V38.7302C151.515 39.268 151.451 39.767 151.323 40.2273C151.196 40.683 151.009 41.0795 150.763 41.4167C150.521 41.754 150.223 42.016 149.867 42.2029C149.512 42.3897 149.104 42.4832 148.644 42.4832C148.174 42.4832 147.759 42.4057 147.399 42.2507C147.039 42.0958 146.734 41.8702 146.483 41.574C146.233 41.2778 146.032 40.9223 145.882 40.5076C145.736 40.0929 145.636 39.6257 145.581 39.1062V38.3406C145.636 37.7937 145.738 37.3038 145.889 36.8708C146.039 36.4379 146.237 36.0688 146.483 35.7634C146.734 35.4535 147.037 35.2188 147.393 35.0593C147.748 34.8953 148.158 34.8132 148.623 34.8132C149.088 34.8132 149.5 34.9044 149.86 35.0867C150.22 35.2644 150.523 35.5196 150.77 35.8523C151.016 36.185 151.2 36.5837 151.323 37.0486C151.451 37.5089 151.515 38.0216 151.515 38.5867ZM150.243 38.7302V38.5867C150.243 38.2175 150.204 37.8712 150.127 37.5476C150.049 37.2195 149.929 36.9324 149.765 36.6863C149.605 36.4356 149.4 36.2397 149.149 36.0984C148.899 35.9526 148.6 35.8796 148.254 35.8796C147.935 35.8796 147.657 35.9343 147.42 36.0437C147.188 36.1531 146.989 36.3012 146.825 36.488C146.661 36.6703 146.527 36.88 146.422 37.1169C146.322 37.3494 146.246 37.5909 146.196 37.8416V39.6121C146.287 39.9311 146.415 40.2319 146.579 40.5144C146.743 40.7924 146.962 41.018 147.235 41.1912C147.509 41.3598 147.853 41.4441 148.268 41.4441C148.609 41.4441 148.903 41.3735 149.149 41.2322C149.4 41.0863 149.605 40.8881 149.765 40.6375C149.929 40.3868 150.049 40.0997 150.127 39.7761C150.204 39.448 150.243 39.0994 150.243 38.7302ZM157.38 40.6648L159.896 34.95H161.112L157.817 42.3464H156.942L153.661 34.95H154.878L157.38 40.6648ZM154.509 34.95V42.3464H153.244V34.95H154.509ZM160.21 42.3464V34.95H161.481V42.3464H160.21ZM167.88 41.0818V37.2742C167.88 36.9825 167.821 36.7296 167.702 36.5154C167.588 36.2966 167.415 36.128 167.183 36.0095C166.95 35.891 166.663 35.8318 166.321 35.8318C166.002 35.8318 165.722 35.8865 165.48 35.9958C165.243 36.1052 165.057 36.2488 164.92 36.4265C164.788 36.6042 164.722 36.7957 164.722 37.0007H163.457C163.457 36.7364 163.525 36.4744 163.662 36.2146C163.799 35.9548 163.995 35.7201 164.25 35.5105C164.51 35.2963 164.82 35.1277 165.18 35.0046C165.544 34.877 165.95 34.8132 166.396 34.8132C166.934 34.8132 167.408 34.9044 167.818 35.0867C168.233 35.269 168.557 35.5447 168.789 35.9138C169.026 36.2784 169.145 36.7364 169.145 37.2878V40.7332C169.145 40.9792 169.165 41.2413 169.206 41.5193C169.252 41.7973 169.318 42.0365 169.404 42.2371V42.3464H168.085C168.021 42.2006 167.971 42.0069 167.935 41.7654C167.898 41.5193 167.88 41.2914 167.88 41.0818ZM168.099 37.8621L168.112 38.7507H166.834C166.474 38.7507 166.153 38.7804 165.87 38.8396C165.588 38.8943 165.351 38.9786 165.159 39.0925C164.968 39.2065 164.822 39.35 164.722 39.5232C164.621 39.6918 164.571 39.8901 164.571 40.1179C164.571 40.3503 164.624 40.5623 164.729 40.7537C164.833 40.9451 164.991 41.0977 165.2 41.2117C165.414 41.321 165.676 41.3757 165.986 41.3757C166.374 41.3757 166.715 41.2937 167.012 41.1296C167.308 40.9656 167.543 40.7651 167.716 40.5281C167.894 40.2911 167.989 40.061 168.003 39.8376L168.543 40.446C168.511 40.6375 168.424 40.8494 168.283 41.0818C168.142 41.3142 167.953 41.5375 167.716 41.7517C167.483 41.9613 167.205 42.1368 166.882 42.2781C166.563 42.4148 166.203 42.4832 165.802 42.4832C165.3 42.4832 164.861 42.3852 164.482 42.1892C164.109 41.9932 163.817 41.7312 163.607 41.4031C163.402 41.0704 163.3 40.699 163.3 40.2888C163.3 39.8923 163.377 39.5437 163.532 39.2429C163.687 38.9376 163.91 38.6847 164.202 38.4841C164.494 38.2791 164.845 38.1241 165.255 38.0193C165.665 37.9145 166.123 37.8621 166.629 37.8621H168.099ZM171.243 42.3464V34.95H172.508V41.3074H175.912V34.95H177.184V42.3464H171.243ZM178.059 41.3074L177.936 44.5408H176.808V42.3464H175.844V41.3074H178.059ZM180.8 40.3435L184.211 34.95H185.482V42.3464H184.211V36.9529L180.8 42.3464H179.542V34.95H180.8V40.3435ZM188.88 40.3435L192.291 34.95H193.562V42.3464H192.291V36.9529L188.88 42.3464H187.622V34.95H188.88V40.3435ZM110.629 58.7302V58.573C110.629 58.0398 110.706 57.5453 110.861 57.0896C111.016 56.6293 111.24 56.2306 111.531 55.8933C111.823 55.5515 112.176 55.2872 112.591 55.1003C113.006 54.9089 113.47 54.8132 113.985 54.8132C114.505 54.8132 114.972 54.9089 115.387 55.1003C115.806 55.2872 116.161 55.5515 116.453 55.8933C116.749 56.2306 116.975 56.6293 117.13 57.0896C117.285 57.5453 117.362 58.0398 117.362 58.573V58.7302C117.362 59.2634 117.285 59.7579 117.13 60.2136C116.975 60.6694 116.749 61.0681 116.453 61.4099C116.161 61.7472 115.808 62.0115 115.394 62.2029C114.983 62.3897 114.519 62.4832 113.999 62.4832C113.479 62.4832 113.012 62.3897 112.598 62.2029C112.183 62.0115 111.827 61.7472 111.531 61.4099C111.24 61.0681 111.016 60.6694 110.861 60.2136C110.706 59.7579 110.629 59.2634 110.629 58.7302ZM111.894 58.573V58.7302C111.894 59.0994 111.937 59.448 112.023 59.7761C112.11 60.0997 112.24 60.3868 112.413 60.6375C112.591 60.8881 112.812 61.0863 113.076 61.2322C113.34 61.3735 113.648 61.4441 113.999 61.4441C114.345 61.4441 114.648 61.3735 114.908 61.2322C115.173 61.0863 115.391 60.8881 115.564 60.6375C115.738 60.3868 115.868 60.0997 115.954 59.7761C116.045 59.448 116.091 59.0994 116.091 58.7302V58.573C116.091 58.2084 116.045 57.8643 115.954 57.5408C115.868 57.2126 115.735 56.9233 115.558 56.6726C115.384 56.4174 115.166 56.2169 114.901 56.071C114.642 55.9252 114.336 55.8523 113.985 55.8523C113.639 55.8523 113.334 55.9252 113.069 56.071C112.81 56.2169 112.591 56.4174 112.413 56.6726C112.24 56.9233 112.11 57.2126 112.023 57.5408C111.937 57.8643 111.894 58.2084 111.894 58.573ZM125.894 59.0925H123.467L123.453 58.0808H125.436C125.827 58.0808 126.153 58.0421 126.413 57.9646C126.677 57.8871 126.876 57.7709 127.008 57.616C127.14 57.461 127.206 57.2696 127.206 57.0417C127.206 56.864 127.167 56.7091 127.09 56.5769C127.017 56.4402 126.905 56.3285 126.755 56.2419C126.604 56.1508 126.418 56.0847 126.194 56.0437C125.976 55.9981 125.718 55.9753 125.422 55.9753H123.802V62.3464H122.537V54.95H125.422C125.891 54.95 126.313 54.991 126.687 55.073C127.065 55.155 127.386 55.2804 127.65 55.449C127.919 55.613 128.124 55.8227 128.266 56.0779C128.407 56.3331 128.478 56.6339 128.478 56.9802C128.478 57.2035 128.432 57.4154 128.341 57.616C128.25 57.8165 128.115 57.9942 127.938 58.1492C127.76 58.3041 127.541 58.4317 127.281 58.532C127.021 58.6277 126.723 58.6892 126.386 58.7166L125.894 59.0925ZM125.894 62.3464H123.009L123.638 61.321H125.894C126.244 61.321 126.536 61.2778 126.769 61.1912C127.001 61.1 127.174 60.9724 127.288 60.8083C127.407 60.6397 127.466 60.4392 127.466 60.2068C127.466 59.9744 127.407 59.7761 127.288 59.6121C127.174 59.4434 127.001 59.3158 126.769 59.2292C126.536 59.1381 126.244 59.0925 125.894 59.0925H123.973L123.986 58.0808H126.386L126.844 58.4636C127.249 58.4955 127.593 58.5958 127.876 58.7644C128.159 58.933 128.373 59.1472 128.519 59.407C128.664 59.6622 128.737 59.9402 128.737 60.241C128.737 60.5873 128.671 60.8927 128.539 61.157C128.411 61.4213 128.225 61.6423 127.979 61.8201C127.732 61.9932 127.434 62.1254 127.083 62.2166C126.732 62.3031 126.336 62.3464 125.894 62.3464ZM133.194 58.8123H131.834V58.033H133.092C133.443 58.033 133.721 57.9897 133.926 57.9031C134.131 57.8119 134.277 57.6866 134.363 57.5271C134.45 57.3676 134.493 57.1807 134.493 56.9666C134.493 56.7751 134.443 56.5951 134.343 56.4265C134.247 56.2533 134.092 56.1143 133.878 56.0095C133.664 55.9001 133.377 55.8455 133.017 55.8455C132.725 55.8455 132.461 55.8979 132.224 56.0027C131.987 56.1029 131.798 56.2419 131.656 56.4197C131.52 56.5929 131.451 56.7888 131.451 57.0076H130.187C130.187 56.5564 130.314 56.169 130.569 55.8455C130.829 55.5173 131.173 55.2644 131.602 55.0867C132.035 54.9089 132.506 54.8201 133.017 54.8201C133.445 54.8201 133.828 54.8679 134.165 54.9636C134.507 55.0548 134.796 55.1915 135.033 55.3738C135.27 55.5515 135.45 55.7748 135.573 56.0437C135.701 56.308 135.765 56.6156 135.765 56.9666C135.765 57.2172 135.705 57.4542 135.587 57.6775C135.468 57.9008 135.298 58.099 135.074 58.2722C134.851 58.4408 134.58 58.573 134.261 58.6687C133.946 58.7644 133.591 58.8123 133.194 58.8123ZM131.834 58.3337H133.194C133.636 58.3337 134.026 58.377 134.363 58.4636C134.701 58.5457 134.983 58.6687 135.211 58.8328C135.439 58.9968 135.61 59.1996 135.724 59.4412C135.842 59.6781 135.901 59.9516 135.901 60.2615C135.901 60.6078 135.831 60.92 135.689 61.198C135.553 61.4714 135.357 61.7039 135.102 61.8953C134.846 62.0867 134.541 62.2325 134.186 62.3328C133.835 62.433 133.445 62.4832 133.017 62.4832C132.538 62.4832 132.073 62.4011 131.622 62.2371C131.171 62.073 130.799 61.8201 130.508 61.4783C130.216 61.1319 130.07 60.6921 130.07 60.1589H131.335C131.335 60.3822 131.406 60.5942 131.547 60.7947C131.688 60.9952 131.884 61.157 132.135 61.28C132.39 61.4031 132.684 61.4646 133.017 61.4646C133.372 61.4646 133.668 61.4099 133.905 61.3005C134.142 61.1912 134.32 61.0453 134.438 60.863C134.562 60.6807 134.623 60.4825 134.623 60.2683C134.623 59.9903 134.568 59.767 134.459 59.5984C134.35 59.4298 134.181 59.3067 133.953 59.2292C133.73 59.1472 133.443 59.1062 133.092 59.1062H131.834V58.3337ZM141.903 61.0818V57.2742C141.903 56.9825 141.844 56.7296 141.726 56.5154C141.612 56.2966 141.438 56.128 141.206 56.0095C140.974 55.891 140.687 55.8318 140.345 55.8318C140.026 55.8318 139.745 55.8865 139.504 55.9958C139.267 56.1052 139.08 56.2488 138.943 56.4265C138.811 56.6042 138.745 56.7957 138.745 57.0007H137.48C137.48 56.7364 137.549 56.4744 137.686 56.2146C137.822 55.9548 138.018 55.7201 138.273 55.5105C138.533 55.2963 138.843 55.1277 139.203 55.0046C139.568 54.877 139.973 54.8132 140.42 54.8132C140.958 54.8132 141.432 54.9044 141.842 55.0867C142.257 55.269 142.58 55.5447 142.812 55.9138C143.049 56.2784 143.168 56.7364 143.168 57.2878V60.7332C143.168 60.9792 143.188 61.2413 143.229 61.5193C143.275 61.7973 143.341 62.0365 143.428 62.2371V62.3464H142.108C142.045 62.2006 141.994 62.0069 141.958 61.7654C141.922 61.5193 141.903 61.2914 141.903 61.0818ZM142.122 57.8621L142.136 58.7507H140.857C140.497 58.7507 140.176 58.7804 139.894 58.8396C139.611 58.8943 139.374 58.9786 139.183 59.0925C138.991 59.2065 138.845 59.35 138.745 59.5232C138.645 59.6918 138.595 59.8901 138.595 60.1179C138.595 60.3503 138.647 60.5623 138.752 60.7537C138.857 60.9451 139.014 61.0977 139.224 61.2117C139.438 61.321 139.7 61.3757 140.01 61.3757C140.397 61.3757 140.739 61.2937 141.035 61.1296C141.331 60.9656 141.566 60.7651 141.739 60.5281C141.917 60.2911 142.013 60.061 142.026 59.8376L142.566 60.446C142.535 60.6375 142.448 60.8494 142.307 61.0818C142.165 61.3142 141.976 61.5375 141.739 61.7517C141.507 61.9613 141.229 62.1368 140.905 62.2781C140.586 62.4148 140.226 62.4832 139.825 62.4832C139.324 62.4832 138.884 62.3852 138.506 62.1892C138.132 61.9932 137.84 61.7312 137.631 61.4031C137.426 61.0704 137.323 60.699 137.323 60.2888C137.323 59.8923 137.401 59.5437 137.556 59.2429C137.711 58.9376 137.934 58.6847 138.226 58.4841C138.517 58.2791 138.868 58.1241 139.278 58.0193C139.688 57.9145 140.146 57.8621 140.652 57.8621H142.122ZM146.524 60.3435L149.936 54.95H151.207V62.3464H149.936V56.9529L146.524 62.3464H145.267V54.95H146.524V60.3435ZM157.489 60.6648L160.005 54.95H161.222L157.927 62.3464H157.052L153.771 54.95H154.987L157.489 60.6648ZM154.618 54.95V62.3464H153.354V54.95H154.618ZM160.319 62.3464V54.95H161.591V62.3464H160.319ZM163.293 58.7302V58.573C163.293 58.0398 163.37 57.5453 163.525 57.0896C163.68 56.6293 163.904 56.2306 164.195 55.8933C164.487 55.5515 164.84 55.2872 165.255 55.1003C165.67 54.9089 166.134 54.8132 166.649 54.8132C167.169 54.8132 167.636 54.9089 168.051 55.1003C168.47 55.2872 168.826 55.5515 169.117 55.8933C169.413 56.2306 169.639 56.6293 169.794 57.0896C169.949 57.5453 170.026 58.0398 170.026 58.573V58.7302C170.026 59.2634 169.949 59.7579 169.794 60.2136C169.639 60.6694 169.413 61.0681 169.117 61.4099C168.826 61.7472 168.472 62.0115 168.058 62.2029C167.647 62.3897 167.183 62.4832 166.663 62.4832C166.144 62.4832 165.676 62.3897 165.262 62.2029C164.847 62.0115 164.492 61.7472 164.195 61.4099C163.904 61.0681 163.68 60.6694 163.525 60.2136C163.37 59.7579 163.293 59.2634 163.293 58.7302ZM164.558 58.573V58.7302C164.558 59.0994 164.601 59.448 164.688 59.7761C164.774 60.0997 164.904 60.3868 165.077 60.6375C165.255 60.8881 165.476 61.0863 165.74 61.2322C166.005 61.3735 166.312 61.4441 166.663 61.4441C167.009 61.4441 167.312 61.3735 167.572 61.2322C167.837 61.0863 168.055 60.8881 168.229 60.6375C168.402 60.3868 168.532 60.0997 168.618 59.7761C168.709 59.448 168.755 59.0994 168.755 58.7302V58.573C168.755 58.2084 168.709 57.8643 168.618 57.5408C168.532 57.2126 168.399 56.9233 168.222 56.6726C168.049 56.4174 167.83 56.2169 167.565 56.071C167.306 55.9252 167 55.8523 166.649 55.8523C166.303 55.8523 165.998 55.9252 165.733 56.071C165.474 56.2169 165.255 56.4174 165.077 56.6726C164.904 56.9233 164.774 57.2126 164.688 57.5408C164.601 57.8643 164.558 58.2084 164.558 58.573ZM171.277 58.7302V58.573C171.277 58.0398 171.355 57.5453 171.51 57.0896C171.665 56.6293 171.888 56.2306 172.18 55.8933C172.471 55.5515 172.825 55.2872 173.239 55.1003C173.654 54.9089 174.119 54.8132 174.634 54.8132C175.153 54.8132 175.62 54.9089 176.035 55.1003C176.454 55.2872 176.81 55.5515 177.102 55.8933C177.398 56.2306 177.623 56.6293 177.778 57.0896C177.933 57.5453 178.011 58.0398 178.011 58.573V58.7302C178.011 59.2634 177.933 59.7579 177.778 60.2136C177.623 60.6694 177.398 61.0681 177.102 61.4099C176.81 61.7472 176.457 62.0115 176.042 62.2029C175.632 62.3897 175.167 62.4832 174.647 62.4832C174.128 62.4832 173.661 62.3897 173.246 62.2029C172.831 62.0115 172.476 61.7472 172.18 61.4099C171.888 61.0681 171.665 60.6694 171.51 60.2136C171.355 59.7579 171.277 59.2634 171.277 58.7302ZM172.542 58.573V58.7302C172.542 59.0994 172.585 59.448 172.672 59.7761C172.758 60.0997 172.888 60.3868 173.062 60.6375C173.239 60.8881 173.46 61.0863 173.725 61.2322C173.989 61.3735 174.297 61.4441 174.647 61.4441C174.994 61.4441 175.297 61.3735 175.557 61.2322C175.821 61.0863 176.04 60.8881 176.213 60.6375C176.386 60.3868 176.516 60.0997 176.603 59.7761C176.694 59.448 176.739 59.0994 176.739 58.7302V58.573C176.739 58.2084 176.694 57.8643 176.603 57.5408C176.516 57.2126 176.384 56.9233 176.206 56.6726C176.033 56.4174 175.814 56.2169 175.55 56.071C175.29 55.9252 174.985 55.8523 174.634 55.8523C174.287 55.8523 173.982 55.9252 173.718 56.071C173.458 56.2169 173.239 56.4174 173.062 56.6726C172.888 56.9233 172.758 57.2126 172.672 57.5408C172.585 57.8643 172.542 58.2084 172.542 58.573ZM184.525 54.95V55.9958H180.786V54.95H184.525ZM180.971 54.95V62.3464H179.706V54.95H180.971ZM185.646 54.95V62.3464H184.375V54.95H185.646ZM188.716 57.4929H190.938C191.535 57.4929 192.038 57.5977 192.448 57.8074C192.858 58.0125 193.168 58.2973 193.378 58.6619C193.592 59.0219 193.699 59.432 193.699 59.8923C193.699 60.2341 193.64 60.5554 193.521 60.8562C193.403 61.1524 193.225 61.4122 192.988 61.6355C192.756 61.8588 192.466 62.0343 192.12 62.1619C191.778 62.2849 191.384 62.3464 190.938 62.3464H187.793V54.95H189.058V61.3074H190.938C191.302 61.3074 191.594 61.2413 191.812 61.1091C192.031 60.977 192.188 60.8061 192.284 60.5964C192.38 60.3868 192.428 60.1681 192.428 59.9402C192.428 59.7169 192.38 59.4981 192.284 59.2839C192.188 59.0697 192.031 58.892 191.812 58.7507C191.594 58.6049 191.302 58.532 190.938 58.532H188.716V57.4929ZM196.331 54.95V62.3464H195.066V54.95H196.331ZM201.561 54.95V62.3464H200.289V54.95H201.561ZM204.042 54.95V55.9753H197.855V54.95H204.042ZM207.809 62.4832C207.294 62.4832 206.826 62.3966 206.407 62.2234C205.993 62.0457 205.635 61.7973 205.334 61.4783C205.038 61.1593 204.81 60.781 204.65 60.3435C204.491 59.906 204.411 59.4275 204.411 58.908V58.6208C204.411 58.0193 204.5 57.4838 204.678 57.0144C204.855 56.5404 205.097 56.1394 205.402 55.8113C205.708 55.4832 206.054 55.2348 206.441 55.0662C206.829 54.8975 207.23 54.8132 207.645 54.8132C208.173 54.8132 208.629 54.9044 209.012 55.0867C209.399 55.269 209.716 55.5242 209.962 55.8523C210.208 56.1759 210.39 56.5587 210.509 57.0007C210.627 57.4382 210.687 57.9167 210.687 58.4363V59.0037H205.163V57.9714H209.422V57.8757C209.404 57.5476 209.335 57.2286 209.217 56.9187C209.103 56.6088 208.921 56.3536 208.67 56.1531C208.419 55.9526 208.077 55.8523 207.645 55.8523C207.357 55.8523 207.093 55.9138 206.852 56.0369C206.61 56.1554 206.403 56.3331 206.229 56.5701C206.056 56.807 205.922 57.0964 205.826 57.4382C205.73 57.78 205.683 58.1742 205.683 58.6208V58.908C205.683 59.2589 205.73 59.5893 205.826 59.8992C205.926 60.2045 206.07 60.4734 206.257 60.7058C206.448 60.9382 206.678 61.1205 206.947 61.2527C207.221 61.3848 207.531 61.4509 207.877 61.4509C208.324 61.4509 208.702 61.3598 209.012 61.1775C209.322 60.9952 209.593 60.7514 209.825 60.446L210.591 61.0544C210.431 61.296 210.229 61.5261 209.982 61.7449C209.736 61.9636 209.433 62.1414 209.073 62.2781C208.718 62.4148 208.296 62.4832 207.809 62.4832Z" fill="black"/>
<g filter="url(#filter0_d_830_2157)">
<path d="M316.5 54.8464C323.404 47.9429 323.404 36.75 316.5 29.8464C309.596 22.9429 298.404 22.9429 291.5 29.8464C284.596 36.75 284.596 47.9429 291.5 54.8464C298.404 61.75 309.596 61.75 316.5 54.8464Z" fill="white"/>
</g>
<path d="M309.525 42.3446C309.529 43.3917 309.222 44.4164 308.643 45.2893C308.065 46.1622 307.241 46.8443 306.275 47.2495C305.31 47.6547 304.246 47.7649 303.218 47.5662C302.19 47.3675 301.243 46.8688 300.498 46.133C299.753 45.3972 299.243 44.4572 299.031 43.4317C298.82 42.4061 298.917 41.3409 299.31 40.3704C299.703 39.3998 300.375 38.5674 301.241 37.9782C302.106 37.389 303.127 37.0693 304.174 37.0595C304.874 37.0507 305.568 37.1809 306.217 37.4426C306.866 37.7043 307.456 38.0922 307.954 38.5838C308.452 39.0755 308.847 39.6611 309.117 40.3066C309.387 40.9522 309.525 41.6449 309.525 42.3446V42.3446Z" fill="#00A3FF"/>
<path d="M304.24 44.4153C305.383 44.4153 306.311 43.4881 306.311 42.3444C306.311 41.2006 305.383 40.2734 304.24 40.2734C303.096 40.2734 302.169 41.2006 302.169 42.3444C302.169 43.4881 303.096 44.4153 304.24 44.4153Z" fill="white"/>
<path d="M85 42.3464L59 42.3464" stroke="#00A3FF" stroke-miterlimit="10" stroke-linecap="round"/>
<path d="M80 41.823C79.9954 43.3073 80.4313 44.7597 81.2526 45.9961C82.0739 47.2326 83.2436 48.1975 84.6136 48.7688C85.9837 49.34 87.4924 49.4919 88.9488 49.2052C90.4052 48.9184 91.7437 48.206 92.795 47.158C93.8462 46.1101 94.5629 44.7737 94.8542 43.3183C95.1455 41.8628 94.9983 40.3536 94.4313 38.9817C93.8644 37.6099 92.9031 36.4372 91.6692 35.6121C90.4354 34.7869 88.9844 34.3464 87.5 34.3464C85.515 34.3464 83.6108 35.1334 82.205 36.5348C80.7991 37.9363 80.0062 39.8379 80 41.823V41.823Z" fill="#00A3FF"/>
<path d="M87.4766 44.7527C85.8586 44.7527 84.5469 43.441 84.5469 41.823C84.5469 40.205 85.8586 38.8933 87.4766 38.8933C89.0946 38.8933 90.4062 40.205 90.4062 41.823C90.4062 43.441 89.0946 44.7527 87.4766 44.7527Z" fill="white"/>
<defs>
<filter id="filter0_d_830_2157" x="262.322" y="0.668701" width="83.3555" height="83.3553" filterUnits="userSpaceOnUse" color-interpolation-filters="sRGB">
<feFlood flood-opacity="0" result="BackgroundImageFix"/>
<feColorMatrix in="SourceAlpha" type="matrix" values="0 0 0 0 0 0 0 0 0 0 0 0 0 0 0 0 0 0 127 0" result="hardAlpha"/>
<feOffset/>
<feGaussianBlur stdDeviation="12"/>
<feComposite in2="hardAlpha" operator="out"/>
<feColorMatrix type="matrix" values="0 0 0 0 0.579167 0 0 0 0 0.579167 0 0 0 0 0.579167 0 0 0 0.3 0"/>
<feBlend mode="normal" in2="BackgroundImageFix" result="effect1_dropShadow_830_2157"/>
<feBlend mode="normal" in="SourceGraphic" in2="effect1_dropShadow_830_2157" result="shape"/>
</filter>
</defs>
</svg>
