<svg width="672" height="125" viewBox="0 0 672 125" fill="none" xmlns="http://www.w3.org/2000/svg">
<path d="M175.294 65L57.2942 65" stroke="#00A3FF" stroke-miterlimit="10" stroke-linecap="round"/>
<g filter="url(#filter0_d_802_800)">
<path d="M32.5736 85.7315C21.2112 74.3745 21.2111 55.961 32.5736 44.6039C43.936 33.2468 62.3582 33.2468 73.7207 44.6039C85.0831 55.961 85.0831 74.3745 73.7207 85.7315C62.3582 97.0886 43.9361 97.0886 32.5736 85.7315Z" fill="white"/>
</g>
<path d="M44.0534 65.1647C44.0481 66.8873 44.5533 68.573 45.5053 70.009C46.4572 71.445 47.8133 72.5671 49.4025 73.2338C50.9917 73.9004 52.7428 74.0817 54.435 73.7549C56.1271 73.428 57.6846 72.6076 58.9108 71.3971C60.1371 70.1866 60.9772 68.6402 61.3253 66.9531C61.6734 65.2659 61.5138 63.5135 60.8667 61.9169C60.2196 60.3202 59.114 58.9509 57.6892 57.9816C56.2645 57.0122 54.5845 56.4863 52.8611 56.4702C51.7096 56.4557 50.5668 56.67 49.4988 57.1004C48.4308 57.5309 47.459 58.1691 46.6396 58.9779C45.8203 59.7867 45.1698 60.75 44.7258 61.8121C44.2819 62.8741 44.0534 64.0137 44.0534 65.1647Z" fill="#00A3FF"/>
<path d="M52.7519 68.5714C50.8694 68.5714 49.3434 67.0461 49.3434 65.1645C49.3434 63.2829 50.8694 61.7576 52.7519 61.7576C54.6344 61.7576 56.1604 63.2829 56.1604 65.1645C56.1604 67.0461 54.6344 68.5714 52.7519 68.5714Z" fill="white"/>
<path d="M172.842 65.1645C172.837 66.8906 173.344 68.5796 174.3 70.0174C175.255 71.4553 176.616 72.5774 178.21 73.2417C179.804 73.906 181.559 74.0827 183.254 73.7492C184.948 73.4158 186.506 72.5873 187.729 71.3686C188.952 70.1499 189.786 68.5959 190.125 66.9033C190.463 65.2107 190.292 63.4557 189.633 61.8604C188.973 60.2651 187.855 58.9013 186.419 57.9418C184.983 56.9822 183.295 56.47 181.568 56.47C179.259 56.47 177.043 57.3851 175.408 59.0149C173.772 60.6446 172.85 62.856 172.842 65.1645Z" fill="#00A3FF"/>
<path d="M181.541 68.5714C179.658 68.5714 178.132 67.0461 178.132 65.1645C178.132 63.2829 179.658 61.7576 181.541 61.7576C183.423 61.7576 184.949 63.2829 184.949 65.1645C184.949 67.0461 183.423 68.5714 181.541 68.5714Z" fill="white"/>
<path d="M640.304 93.2599C657.481 76.0913 657.481 48.2554 640.304 31.0867C623.127 13.9181 595.278 13.918 578.102 31.0867C560.925 48.2553 560.925 76.0913 578.102 93.26C595.278 110.429 623.128 110.429 640.304 93.2599Z" fill="#00A3FF"/>
<path d="M610.203 57.1694C612.716 57.1694 614.943 58.159 616.883 60.1382C618.823 62.1043 619.793 64.383 619.793 66.9741C619.793 69.7215 618.791 72.0457 616.785 73.9468C614.793 75.8348 612.261 76.7788 609.188 76.7788C606.128 76.7788 603.595 75.8348 601.59 73.9468C599.598 72.0457 598.602 69.7215 598.602 66.9741C598.602 65.8543 598.797 64.728 599.188 63.5952C599.591 62.4624 599.995 61.616 600.399 61.0562L601.004 60.1772L608.797 48.1655H615.008L608.992 57.3647C609.344 57.2345 609.748 57.1694 610.203 57.1694ZM612.625 70.2554C613.537 69.37 613.992 68.2762 613.992 66.9741C613.992 65.672 613.537 64.5783 612.625 63.6929C611.727 62.8075 610.581 62.3647 609.188 62.3647C607.808 62.3647 606.662 62.8075 605.75 63.6929C604.852 64.5783 604.403 65.672 604.403 66.9741C604.403 68.2762 604.852 69.37 605.75 70.2554C606.662 71.1278 607.808 71.564 609.188 71.564C610.581 71.564 611.727 71.1278 612.625 70.2554Z" fill="white"/>
<path d="M242.869 49.9141V62H241.292V49.9141H242.869ZM246.754 49.9141V51.2256H237.415V49.9141H246.754ZM251.211 62.166C250.586 62.166 250.019 62.0609 249.51 61.8506C249.006 61.6348 248.572 61.3332 248.206 60.9458C247.847 60.5584 247.57 60.0991 247.376 59.5679C247.183 59.0366 247.086 58.4556 247.086 57.8247V57.4761C247.086 56.7456 247.194 56.0954 247.409 55.5254C247.625 54.9499 247.919 54.4629 248.289 54.0645C248.66 53.666 249.081 53.3644 249.551 53.1597C250.021 52.9549 250.508 52.8525 251.012 52.8525C251.654 52.8525 252.207 52.9632 252.672 53.1846C253.142 53.4059 253.527 53.7158 253.826 54.1143C254.125 54.5072 254.346 54.972 254.49 55.5088C254.634 56.04 254.706 56.6211 254.706 57.252V57.9409H247.999V56.6875H253.17V56.5713C253.148 56.1729 253.065 55.7855 252.921 55.4092C252.783 55.0329 252.561 54.723 252.257 54.4795C251.953 54.236 251.538 54.1143 251.012 54.1143C250.663 54.1143 250.342 54.189 250.049 54.3384C249.756 54.4823 249.504 54.6981 249.294 54.9858C249.083 55.2736 248.92 55.625 248.804 56.04C248.688 56.4551 248.63 56.9338 248.63 57.4761V57.8247C248.63 58.2508 248.688 58.652 248.804 59.0283C248.926 59.3991 249.1 59.7256 249.327 60.0078C249.559 60.29 249.839 60.5114 250.165 60.6719C250.497 60.8324 250.874 60.9126 251.294 60.9126C251.837 60.9126 252.296 60.8019 252.672 60.5806C253.048 60.3592 253.378 60.0632 253.66 59.6924L254.59 60.4312C254.396 60.7244 254.15 61.0039 253.851 61.2695C253.552 61.5352 253.184 61.751 252.747 61.917C252.315 62.083 251.803 62.166 251.211 62.166ZM260.093 60.9043C260.458 60.9043 260.796 60.8296 261.106 60.6802C261.416 60.5308 261.67 60.326 261.869 60.0659C262.069 59.8003 262.182 59.4987 262.21 59.1611H263.671C263.643 59.6924 263.463 60.1877 263.131 60.647C262.805 61.1007 262.376 61.4688 261.844 61.751C261.313 62.0277 260.729 62.166 260.093 62.166C259.418 62.166 258.829 62.047 258.325 61.8091C257.827 61.5711 257.412 61.2446 257.08 60.8296C256.753 60.4146 256.507 59.9386 256.341 59.4019C256.181 58.8595 256.1 58.2868 256.1 57.6836V57.335C256.1 56.7318 256.181 56.1618 256.341 55.625C256.507 55.0827 256.753 54.604 257.08 54.189C257.412 53.7739 257.827 53.4474 258.325 53.2095C258.829 52.9715 259.418 52.8525 260.093 52.8525C260.796 52.8525 261.41 52.9964 261.936 53.2842C262.462 53.5664 262.874 53.9538 263.173 54.4463C263.477 54.9333 263.643 55.4867 263.671 56.1064H262.21C262.182 55.7357 262.077 55.4009 261.894 55.1021C261.717 54.8032 261.474 54.5653 261.164 54.3882C260.859 54.2056 260.503 54.1143 260.093 54.1143C259.623 54.1143 259.227 54.2083 258.906 54.3965C258.591 54.5791 258.339 54.8281 258.151 55.1436C257.968 55.4535 257.835 55.7993 257.752 56.1812C257.675 56.5575 257.636 56.9421 257.636 57.335V57.6836C257.636 58.0765 257.675 58.4639 257.752 58.8457C257.83 59.2275 257.96 59.5734 258.142 59.8833C258.33 60.1932 258.582 60.4422 258.898 60.6304C259.219 60.813 259.617 60.9043 260.093 60.9043ZM269.058 53.0186V62H267.514V53.0186H269.058ZM272.071 53.0186V54.2637H264.559V53.0186H272.071ZM275.242 59.5679L279.384 53.0186H280.928V62H279.384V55.4507L275.242 62H273.715V53.0186H275.242V59.5679ZM284.929 54.7451V65.4531H283.385V53.0186H284.796L284.929 54.7451ZM290.98 57.4346V57.6089C290.98 58.2619 290.903 58.8678 290.748 59.4268C290.593 59.9801 290.366 60.4616 290.067 60.8711C289.774 61.2806 289.411 61.5988 288.98 61.8257C288.548 62.0526 288.053 62.166 287.494 62.166C286.924 62.166 286.42 62.0719 285.983 61.8838C285.546 61.6956 285.175 61.4217 284.871 61.062C284.566 60.7023 284.323 60.2707 284.14 59.7671C283.963 59.2635 283.842 58.6963 283.775 58.0654V57.1357C283.842 56.4717 283.966 55.8768 284.149 55.3511C284.331 54.8254 284.572 54.3771 284.871 54.0063C285.175 53.63 285.543 53.3451 285.975 53.1514C286.406 52.9521 286.905 52.8525 287.469 52.8525C288.033 52.8525 288.534 52.9632 288.971 53.1846C289.409 53.4004 289.777 53.7103 290.075 54.1143C290.374 54.5182 290.598 55.0024 290.748 55.5669C290.903 56.1258 290.98 56.7484 290.98 57.4346ZM289.436 57.6089V57.4346C289.436 56.9863 289.389 56.5658 289.295 56.1729C289.201 55.7744 289.054 55.4258 288.855 55.127C288.662 54.8226 288.413 54.5846 288.108 54.4131C287.804 54.236 287.441 54.1475 287.021 54.1475C286.633 54.1475 286.296 54.2139 286.008 54.3467C285.726 54.4795 285.485 54.6593 285.286 54.8862C285.087 55.1076 284.923 55.3621 284.796 55.6499C284.674 55.9321 284.583 56.2254 284.522 56.5298V58.6797C284.633 59.0671 284.788 59.4323 284.987 59.7754C285.186 60.113 285.452 60.3869 285.784 60.5972C286.116 60.8019 286.534 60.9043 287.037 60.9043C287.452 60.9043 287.809 60.8185 288.108 60.647C288.413 60.4699 288.662 60.2292 288.855 59.9248C289.054 59.6204 289.201 59.2718 289.295 58.8789C289.389 58.4805 289.436 58.0571 289.436 57.6089ZM292.532 57.6089V57.418C292.532 56.7705 292.627 56.1701 292.815 55.6167C293.003 55.0578 293.274 54.5736 293.628 54.1641C293.982 53.749 294.411 53.4281 294.915 53.2012C295.418 52.9688 295.983 52.8525 296.608 52.8525C297.239 52.8525 297.806 52.9688 298.31 53.2012C298.819 53.4281 299.251 53.749 299.605 54.1641C299.964 54.5736 300.238 55.0578 300.427 55.6167C300.615 56.1701 300.709 56.7705 300.709 57.418V57.6089C300.709 58.2563 300.615 58.8568 300.427 59.4102C300.238 59.9635 299.964 60.4478 299.605 60.8628C299.251 61.2723 298.822 61.5933 298.318 61.8257C297.82 62.0526 297.256 62.166 296.625 62.166C295.994 62.166 295.427 62.0526 294.923 61.8257C294.42 61.5933 293.988 61.2723 293.628 60.8628C293.274 60.4478 293.003 59.9635 292.815 59.4102C292.627 58.8568 292.532 58.2563 292.532 57.6089ZM294.068 57.418V57.6089C294.068 58.0571 294.121 58.4805 294.226 58.8789C294.331 59.2718 294.489 59.6204 294.699 59.9248C294.915 60.2292 295.183 60.4699 295.504 60.647C295.825 60.8185 296.199 60.9043 296.625 60.9043C297.045 60.9043 297.413 60.8185 297.729 60.647C298.05 60.4699 298.315 60.2292 298.526 59.9248C298.736 59.6204 298.894 59.2718 298.999 58.8789C299.109 58.4805 299.165 58.0571 299.165 57.6089V57.418C299.165 56.9753 299.109 56.5575 298.999 56.1646C298.894 55.7661 298.733 55.4147 298.517 55.1104C298.307 54.8005 298.041 54.557 297.72 54.3799C297.405 54.2028 297.034 54.1143 296.608 54.1143C296.188 54.1143 295.817 54.2028 295.496 54.3799C295.18 54.557 294.915 54.8005 294.699 55.1104C294.489 55.4147 294.331 55.7661 294.226 56.1646C294.121 56.5575 294.068 56.9753 294.068 57.418ZM306.851 58.0488H303.905L303.888 56.8203H306.295C306.771 56.8203 307.167 56.7733 307.482 56.6792C307.803 56.5851 308.044 56.444 308.204 56.2559C308.365 56.0677 308.445 55.8353 308.445 55.5586C308.445 55.3428 308.398 55.1546 308.304 54.9941C308.215 54.8281 308.08 54.6925 307.897 54.5874C307.715 54.4767 307.488 54.3965 307.217 54.3467C306.951 54.2913 306.638 54.2637 306.279 54.2637H304.311V62H302.776V53.0186H306.279C306.849 53.0186 307.36 53.0684 307.814 53.168C308.274 53.2676 308.664 53.4198 308.985 53.6245C309.311 53.8237 309.56 54.0783 309.732 54.3882C309.903 54.6981 309.989 55.0633 309.989 55.4839C309.989 55.755 309.934 56.0124 309.823 56.2559C309.712 56.4993 309.549 56.7152 309.333 56.9033C309.117 57.0915 308.852 57.2464 308.536 57.3682C308.221 57.4844 307.858 57.5591 307.449 57.5923L306.851 58.0488ZM306.851 62H303.348L304.112 60.7549H306.851C307.277 60.7549 307.632 60.7023 307.914 60.5972C308.196 60.4865 308.406 60.3315 308.545 60.1323C308.689 59.9276 308.76 59.6841 308.76 59.4019C308.76 59.1196 308.689 58.8789 308.545 58.6797C308.406 58.4749 308.196 58.32 307.914 58.2148C307.632 58.1042 307.277 58.0488 306.851 58.0488H304.519L304.535 56.8203H307.449L308.005 57.2852C308.498 57.3239 308.915 57.4456 309.259 57.6504C309.602 57.8551 309.862 58.1152 310.039 58.4307C310.216 58.7406 310.304 59.0781 310.304 59.4434C310.304 59.8639 310.224 60.2347 310.064 60.5557C309.909 60.8766 309.682 61.145 309.383 61.3608C309.084 61.5711 308.722 61.7316 308.296 61.8423C307.87 61.9474 307.388 62 306.851 62ZM317.659 60.4644V55.8408C317.659 55.4867 317.587 55.1795 317.443 54.9194C317.305 54.6538 317.094 54.4491 316.812 54.3052C316.53 54.1613 316.181 54.0894 315.766 54.0894C315.379 54.0894 315.039 54.1558 314.745 54.2886C314.458 54.4214 314.231 54.5957 314.065 54.8115C313.904 55.0273 313.824 55.2598 313.824 55.5088H312.288C312.288 55.1878 312.371 54.8696 312.537 54.5542C312.703 54.2388 312.941 53.9538 313.251 53.6992C313.567 53.4391 313.943 53.2344 314.38 53.085C314.823 52.93 315.315 52.8525 315.858 52.8525C316.511 52.8525 317.086 52.9632 317.584 53.1846C318.088 53.4059 318.481 53.7407 318.763 54.189C319.051 54.6317 319.195 55.1878 319.195 55.8574V60.041C319.195 60.3398 319.219 60.658 319.269 60.9956C319.325 61.3332 319.405 61.6237 319.51 61.8672V62H317.908C317.83 61.8229 317.77 61.5877 317.725 61.2944C317.681 60.9956 317.659 60.7189 317.659 60.4644ZM317.925 56.5547L317.941 57.6338H316.389C315.952 57.6338 315.562 57.6698 315.219 57.7417C314.875 57.8081 314.588 57.9105 314.355 58.0488C314.123 58.1872 313.946 58.3615 313.824 58.5718C313.702 58.7765 313.641 59.0173 313.641 59.2939C313.641 59.5762 313.705 59.8335 313.832 60.0659C313.96 60.2983 314.15 60.4837 314.405 60.6221C314.665 60.7549 314.983 60.8213 315.36 60.8213C315.83 60.8213 316.245 60.7217 316.605 60.5225C316.964 60.3232 317.249 60.0798 317.46 59.792C317.676 59.5042 317.792 59.2248 317.808 58.9536L318.464 59.6924C318.425 59.9248 318.32 60.1821 318.149 60.4644C317.977 60.7466 317.747 61.0177 317.46 61.2778C317.177 61.5324 316.84 61.7454 316.447 61.917C316.06 62.083 315.622 62.166 315.135 62.166C314.527 62.166 313.993 62.047 313.533 61.8091C313.08 61.5711 312.726 61.2529 312.471 60.8545C312.222 60.4505 312.097 59.9995 312.097 59.5015C312.097 59.02 312.191 58.5967 312.38 58.2314C312.568 57.8607 312.839 57.5535 313.193 57.3101C313.547 57.061 313.973 56.8729 314.471 56.7456C314.969 56.6183 315.526 56.5547 316.14 56.5547H317.925ZM327.703 56.9116V58.1567H322.955V56.9116H327.703ZM323.279 53.0186V62H321.743V53.0186H323.279ZM328.948 53.0186V62H327.404V53.0186H328.948ZM333.082 59.5679L337.224 53.0186H338.768V62H337.224V55.4507L333.082 62H331.554V53.0186H333.082V59.5679ZM344.96 62.166C344.335 62.166 343.768 62.0609 343.259 61.8506C342.755 61.6348 342.321 61.3332 341.955 60.9458C341.596 60.5584 341.319 60.0991 341.125 59.5679C340.932 59.0366 340.835 58.4556 340.835 57.8247V57.4761C340.835 56.7456 340.943 56.0954 341.158 55.5254C341.374 54.9499 341.668 54.4629 342.038 54.0645C342.409 53.666 342.83 53.3644 343.3 53.1597C343.77 52.9549 344.257 52.8525 344.761 52.8525C345.403 52.8525 345.956 52.9632 346.421 53.1846C346.892 53.4059 347.276 53.7158 347.575 54.1143C347.874 54.5072 348.095 54.972 348.239 55.5088C348.383 56.04 348.455 56.6211 348.455 57.252V57.9409H341.748V56.6875H346.919V56.5713C346.897 56.1729 346.814 55.7855 346.67 55.4092C346.532 55.0329 346.31 54.723 346.006 54.4795C345.702 54.236 345.287 54.1143 344.761 54.1143C344.412 54.1143 344.091 54.189 343.798 54.3384C343.505 54.4823 343.253 54.6981 343.043 54.9858C342.832 55.2736 342.669 55.625 342.553 56.04C342.437 56.4551 342.379 56.9338 342.379 57.4761V57.8247C342.379 58.2508 342.437 58.652 342.553 59.0283C342.675 59.3991 342.849 59.7256 343.076 60.0078C343.308 60.29 343.588 60.5114 343.914 60.6719C344.246 60.8324 344.623 60.9126 345.043 60.9126C345.586 60.9126 346.045 60.8019 346.421 60.5806C346.797 60.3592 347.127 60.0632 347.409 59.6924L348.339 60.4312C348.145 60.7244 347.899 61.0039 347.6 61.2695C347.301 61.5352 346.933 61.751 346.496 61.917C346.064 62.083 345.552 62.166 344.96 62.166ZM360.267 53.0186V54.2886H356.116V62H354.581V53.0186H360.267ZM363.263 59.5679L367.406 53.0186H368.949V62H367.406V55.4507L363.263 62H361.736V53.0186H363.263V59.5679ZM377.4 53.0186V54.2886H372.859V53.0186H377.4ZM373.083 53.0186V62H371.548V53.0186H373.083ZM378.761 53.0186V62H377.217V53.0186H378.761ZM380.82 57.6089V57.418C380.82 56.7705 380.914 56.1701 381.102 55.6167C381.29 55.0578 381.561 54.5736 381.915 54.1641C382.269 53.749 382.698 53.4281 383.202 53.2012C383.705 52.9688 384.27 52.8525 384.895 52.8525C385.526 52.8525 386.093 52.9688 386.597 53.2012C387.106 53.4281 387.538 53.749 387.892 54.1641C388.252 54.5736 388.525 55.0578 388.714 55.6167C388.902 56.1701 388.996 56.7705 388.996 57.418V57.6089C388.996 58.2563 388.902 58.8568 388.714 59.4102C388.525 59.9635 388.252 60.4478 387.892 60.8628C387.538 61.2723 387.109 61.5933 386.605 61.8257C386.107 62.0526 385.543 62.166 384.912 62.166C384.281 62.166 383.714 62.0526 383.21 61.8257C382.707 61.5933 382.275 61.2723 381.915 60.8628C381.561 60.4478 381.29 59.9635 381.102 59.4102C380.914 58.8568 380.82 58.2563 380.82 57.6089ZM382.355 57.418V57.6089C382.355 58.0571 382.408 58.4805 382.513 58.8789C382.618 59.2718 382.776 59.6204 382.986 59.9248C383.202 60.2292 383.47 60.4699 383.791 60.647C384.112 60.8185 384.486 60.9043 384.912 60.9043C385.332 60.9043 385.7 60.8185 386.016 60.647C386.337 60.4699 386.602 60.2292 386.813 59.9248C387.023 59.6204 387.181 59.2718 387.286 58.8789C387.397 58.4805 387.452 58.0571 387.452 57.6089V57.418C387.452 56.9753 387.397 56.5575 387.286 56.1646C387.181 55.7661 387.02 55.4147 386.804 55.1104C386.594 54.8005 386.329 54.557 386.008 54.3799C385.692 54.2028 385.321 54.1143 384.895 54.1143C384.475 54.1143 384.104 54.2028 383.783 54.3799C383.468 54.557 383.202 54.8005 382.986 55.1104C382.776 55.4147 382.618 55.7661 382.513 56.1646C382.408 56.5575 382.355 56.9753 382.355 57.418ZM394.4 53.0186V62H392.856V53.0186H394.4ZM397.413 53.0186V54.2637H389.901V53.0186H397.413ZM401.987 62.166C401.361 62.166 400.794 62.0609 400.285 61.8506C399.781 61.6348 399.347 61.3332 398.982 60.9458C398.622 60.5584 398.345 60.0991 398.152 59.5679C397.958 59.0366 397.861 58.4556 397.861 57.8247V57.4761C397.861 56.7456 397.969 56.0954 398.185 55.5254C398.401 54.9499 398.694 54.4629 399.065 54.0645C399.435 53.666 399.856 53.3644 400.326 53.1597C400.797 52.9549 401.284 52.8525 401.787 52.8525C402.429 52.8525 402.983 52.9632 403.448 53.1846C403.918 53.4059 404.302 53.7158 404.601 54.1143C404.9 54.5072 405.122 54.972 405.265 55.5088C405.409 56.04 405.481 56.6211 405.481 57.252V57.9409H398.774V56.6875H403.946V56.5713C403.923 56.1729 403.84 55.7855 403.697 55.4092C403.558 55.0329 403.337 54.723 403.032 54.4795C402.728 54.236 402.313 54.1143 401.787 54.1143C401.439 54.1143 401.118 54.189 400.824 54.3384C400.531 54.4823 400.279 54.6981 400.069 54.9858C399.859 55.2736 399.696 55.625 399.579 56.04C399.463 56.4551 399.405 56.9338 399.405 57.4761V57.8247C399.405 58.2508 399.463 58.652 399.579 59.0283C399.701 59.3991 399.875 59.7256 400.102 60.0078C400.335 60.29 400.614 60.5114 400.941 60.6719C401.273 60.8324 401.649 60.9126 402.07 60.9126C402.612 60.9126 403.071 60.8019 403.448 60.5806C403.824 60.3592 404.153 60.0632 404.435 59.6924L405.365 60.4312C405.171 60.7244 404.925 61.0039 404.626 61.2695C404.327 61.5352 403.959 61.751 403.522 61.917C403.091 62.083 402.579 62.166 401.987 62.166ZM410.628 57.7085H408.976V56.7622H410.503C410.929 56.7622 411.267 56.7096 411.516 56.6045C411.765 56.4938 411.942 56.3416 412.047 56.1479C412.152 55.9543 412.205 55.7274 412.205 55.4673C412.205 55.2349 412.144 55.0163 412.022 54.8115C411.906 54.6012 411.718 54.4325 411.458 54.3052C411.198 54.1724 410.849 54.106 410.412 54.106C410.058 54.106 409.737 54.1696 409.449 54.2969C409.161 54.4186 408.932 54.5874 408.76 54.8032C408.594 55.0135 408.511 55.2515 408.511 55.5171H406.975C406.975 54.9692 407.13 54.4989 407.44 54.106C407.756 53.7075 408.173 53.4004 408.694 53.1846C409.219 52.9688 409.792 52.8608 410.412 52.8608C410.932 52.8608 411.397 52.9189 411.806 53.0352C412.221 53.1458 412.573 53.3118 412.861 53.5332C413.148 53.749 413.367 54.0202 413.516 54.3467C413.671 54.6676 413.749 55.0412 413.749 55.4673C413.749 55.7716 413.677 56.0594 413.533 56.3306C413.389 56.6017 413.182 56.8424 412.91 57.0527C412.639 57.2575 412.31 57.418 411.923 57.5342C411.541 57.6504 411.109 57.7085 410.628 57.7085ZM408.976 57.1274H410.628C411.164 57.1274 411.638 57.18 412.047 57.2852C412.457 57.3848 412.8 57.5342 413.076 57.7334C413.353 57.9326 413.561 58.1789 413.699 58.4722C413.843 58.7599 413.915 59.092 413.915 59.4683C413.915 59.8888 413.829 60.2679 413.657 60.6055C413.491 60.9375 413.253 61.2197 412.944 61.4521C412.634 61.6846 412.263 61.8617 411.831 61.9834C411.405 62.1051 410.932 62.166 410.412 62.166C409.831 62.166 409.266 62.0664 408.719 61.8672C408.171 61.668 407.72 61.3608 407.365 60.9458C407.011 60.5252 406.834 59.9912 406.834 59.3438H408.37C408.37 59.6149 408.456 59.8722 408.627 60.1157C408.799 60.3592 409.037 60.5557 409.341 60.7051C409.651 60.8545 410.008 60.9292 410.412 60.9292C410.844 60.9292 411.203 60.8628 411.491 60.73C411.779 60.5972 411.995 60.4201 412.138 60.1987C412.288 59.9774 412.363 59.7367 412.363 59.4766C412.363 59.139 412.296 58.8678 412.163 58.6631C412.031 58.4583 411.826 58.3089 411.549 58.2148C411.278 58.1152 410.929 58.0654 410.503 58.0654H408.976V57.1274ZM426.109 53.0186V54.2886H421.568V53.0186H426.109ZM421.792 53.0186V62H420.257V53.0186H421.792ZM427.47 53.0186V62H425.926V53.0186H427.47ZM431.471 54.7451V65.4531H429.927V53.0186H431.338L431.471 54.7451ZM437.522 57.4346V57.6089C437.522 58.2619 437.445 58.8678 437.29 59.4268C437.135 59.9801 436.908 60.4616 436.609 60.8711C436.316 61.2806 435.953 61.5988 435.522 61.8257C435.09 62.0526 434.595 62.166 434.036 62.166C433.466 62.166 432.962 62.0719 432.525 61.8838C432.088 61.6956 431.717 61.4217 431.413 61.062C431.108 60.7023 430.865 60.2707 430.682 59.7671C430.505 59.2635 430.384 58.6963 430.317 58.0654V57.1357C430.384 56.4717 430.508 55.8768 430.691 55.3511C430.873 54.8254 431.114 54.3771 431.413 54.0063C431.717 53.63 432.085 53.3451 432.517 53.1514C432.948 52.9521 433.447 52.8525 434.011 52.8525C434.575 52.8525 435.076 52.9632 435.513 53.1846C435.951 53.4004 436.319 53.7103 436.617 54.1143C436.916 54.5182 437.14 55.0024 437.29 55.5669C437.445 56.1258 437.522 56.7484 437.522 57.4346ZM435.978 57.6089V57.4346C435.978 56.9863 435.931 56.5658 435.837 56.1729C435.743 55.7744 435.596 55.4258 435.397 55.127C435.204 54.8226 434.955 54.5846 434.65 54.4131C434.346 54.236 433.983 54.1475 433.563 54.1475C433.175 54.1475 432.838 54.2139 432.55 54.3467C432.268 54.4795 432.027 54.6593 431.828 54.8862C431.629 55.1076 431.465 55.3621 431.338 55.6499C431.216 55.9321 431.125 56.2254 431.064 56.5298V58.6797C431.175 59.0671 431.33 59.4323 431.529 59.7754C431.728 60.113 431.994 60.3869 432.326 60.5972C432.658 60.8019 433.076 60.9043 433.579 60.9043C433.994 60.9043 434.351 60.8185 434.65 60.647C434.955 60.4699 435.204 60.2292 435.397 59.9248C435.596 59.6204 435.743 59.2718 435.837 58.8789C435.931 58.4805 435.978 58.0571 435.978 57.6089ZM439.074 57.6089V57.418C439.074 56.7705 439.169 56.1701 439.357 55.6167C439.545 55.0578 439.816 54.5736 440.17 54.1641C440.524 53.749 440.953 53.4281 441.457 53.2012C441.96 52.9688 442.525 52.8525 443.15 52.8525C443.781 52.8525 444.348 52.9688 444.852 53.2012C445.361 53.4281 445.793 53.749 446.147 54.1641C446.506 54.5736 446.78 55.0578 446.969 55.6167C447.157 56.1701 447.251 56.7705 447.251 57.418V57.6089C447.251 58.2563 447.157 58.8568 446.969 59.4102C446.78 59.9635 446.506 60.4478 446.147 60.8628C445.793 61.2723 445.364 61.5933 444.86 61.8257C444.362 62.0526 443.798 62.166 443.167 62.166C442.536 62.166 441.969 62.0526 441.465 61.8257C440.962 61.5933 440.53 61.2723 440.17 60.8628C439.816 60.4478 439.545 59.9635 439.357 59.4102C439.169 58.8568 439.074 58.2563 439.074 57.6089ZM440.61 57.418V57.6089C440.61 58.0571 440.663 58.4805 440.768 58.8789C440.873 59.2718 441.031 59.6204 441.241 59.9248C441.457 60.2292 441.725 60.4699 442.046 60.647C442.367 60.8185 442.741 60.9043 443.167 60.9043C443.587 60.9043 443.955 60.8185 444.271 60.647C444.592 60.4699 444.857 60.2292 445.068 59.9248C445.278 59.6204 445.436 59.2718 445.541 58.8789C445.651 58.4805 445.707 58.0571 445.707 57.6089V57.418C445.707 56.9753 445.651 56.5575 445.541 56.1646C445.436 55.7661 445.275 55.4147 445.059 55.1104C444.849 54.8005 444.583 54.557 444.262 54.3799C443.947 54.2028 443.576 54.1143 443.15 54.1143C442.73 54.1143 442.359 54.2028 442.038 54.3799C441.722 54.557 441.457 54.8005 441.241 55.1104C441.031 55.4147 440.873 55.7661 440.768 56.1646C440.663 56.5575 440.61 56.9753 440.61 57.418ZM450.198 53.0186H451.733L451.6 56.3804C451.567 57.2326 451.47 57.9686 451.31 58.5884C451.149 59.2082 450.945 59.7367 450.696 60.1738C450.447 60.6055 450.167 60.9679 449.857 61.2612C449.553 61.5545 449.237 61.8008 448.911 62H448.147L448.189 60.7466L448.504 60.7383C448.687 60.5225 448.864 60.3011 449.035 60.0742C449.207 59.8418 449.365 59.5679 449.509 59.2524C449.652 58.9315 449.771 58.5413 449.865 58.082C449.965 57.6172 450.029 57.05 450.056 56.3804L450.198 53.0186ZM450.579 53.0186H455.983V62H454.448V54.438H450.579V53.0186ZM447.799 60.7383H457.137V64.6479H455.601V62H449.334V64.6479H447.79L447.799 60.7383ZM464.135 60.4644V55.8408C464.135 55.4867 464.063 55.1795 463.919 54.9194C463.78 54.6538 463.57 54.4491 463.288 54.3052C463.006 54.1613 462.657 54.0894 462.242 54.0894C461.855 54.0894 461.514 54.1558 461.221 54.2886C460.933 54.4214 460.706 54.5957 460.54 54.8115C460.38 55.0273 460.3 55.2598 460.3 55.5088H458.764C458.764 55.1878 458.847 54.8696 459.013 54.5542C459.179 54.2388 459.417 53.9538 459.727 53.6992C460.042 53.4391 460.419 53.2344 460.856 53.085C461.298 52.93 461.791 52.8525 462.333 52.8525C462.986 52.8525 463.562 52.9632 464.06 53.1846C464.563 53.4059 464.956 53.7407 465.239 54.189C465.526 54.6317 465.67 55.1878 465.67 55.8574V60.041C465.67 60.3398 465.695 60.658 465.745 60.9956C465.8 61.3332 465.88 61.6237 465.986 61.8672V62H464.384C464.306 61.8229 464.245 61.5877 464.201 61.2944C464.157 60.9956 464.135 60.7189 464.135 60.4644ZM464.4 56.5547L464.417 57.6338H462.865C462.427 57.6338 462.037 57.6698 461.694 57.7417C461.351 57.8081 461.063 57.9105 460.831 58.0488C460.598 58.1872 460.421 58.3615 460.3 58.5718C460.178 58.7765 460.117 59.0173 460.117 59.2939C460.117 59.5762 460.181 59.8335 460.308 60.0659C460.435 60.2983 460.626 60.4837 460.881 60.6221C461.141 60.7549 461.459 60.8213 461.835 60.8213C462.306 60.8213 462.721 60.7217 463.08 60.5225C463.44 60.3232 463.725 60.0798 463.935 59.792C464.151 59.5042 464.267 59.2248 464.284 58.9536L464.94 59.6924C464.901 59.9248 464.796 60.1821 464.624 60.4644C464.453 60.7466 464.223 61.0177 463.935 61.2778C463.653 61.5324 463.316 61.7454 462.923 61.917C462.535 62.083 462.098 62.166 461.611 62.166C461.002 62.166 460.468 62.047 460.009 61.8091C459.555 61.5711 459.201 61.2529 458.947 60.8545C458.698 60.4505 458.573 59.9995 458.573 59.5015C458.573 59.02 458.667 58.5967 458.855 58.2314C459.043 57.8607 459.315 57.5535 459.669 57.3101C460.023 57.061 460.449 56.8729 460.947 56.7456C461.445 56.6183 462.001 56.5547 462.615 56.5547H464.4ZM470.808 58.0903L467.405 53.0186H469.256L471.58 56.7373H473.373L473.149 58.0903H470.808ZM471.647 57.9326L469.04 62H467.098L470.676 56.8203L471.647 57.9326ZM474.162 53.0186V62H472.626V53.0186H474.162ZM479.4 53.0186L475.996 58.0903H473.656L473.415 56.7373H475.216L477.54 53.0186H479.4ZM477.756 62L475.141 57.9326L476.129 56.8203L479.698 62H477.756ZM242.387 78.0488H239.441L239.424 76.8203H241.831C242.307 76.8203 242.703 76.7733 243.018 76.6792C243.339 76.5851 243.58 76.444 243.74 76.2559C243.901 76.0677 243.981 75.8353 243.981 75.5586C243.981 75.3428 243.934 75.1546 243.84 74.9941C243.752 74.8281 243.616 74.6925 243.433 74.5874C243.251 74.4767 243.024 74.3965 242.753 74.3467C242.487 74.2913 242.174 74.2637 241.815 74.2637H239.847V82H238.312V73.0186H241.815C242.385 73.0186 242.897 73.0684 243.35 73.168C243.81 73.2676 244.2 73.4198 244.521 73.6245C244.847 73.8237 245.096 74.0783 245.268 74.3882C245.439 74.6981 245.525 75.0633 245.525 75.4839C245.525 75.755 245.47 76.0124 245.359 76.2559C245.248 76.4993 245.085 76.7152 244.869 76.9033C244.654 77.0915 244.388 77.2464 244.073 77.3682C243.757 77.4844 243.395 77.5591 242.985 77.5923L242.387 78.0488ZM242.387 82H238.885L239.648 80.7549H242.387C242.814 80.7549 243.168 80.7023 243.45 80.5972C243.732 80.4865 243.942 80.3315 244.081 80.1323C244.225 79.9276 244.297 79.6841 244.297 79.4019C244.297 79.1196 244.225 78.8789 244.081 78.6797C243.942 78.4749 243.732 78.32 243.45 78.2148C243.168 78.1042 242.814 78.0488 242.387 78.0488H240.055L240.072 76.8203H242.985L243.541 77.2852C244.034 77.3239 244.452 77.4456 244.795 77.6504C245.138 77.8551 245.398 78.1152 245.575 78.4307C245.752 78.7406 245.841 79.0781 245.841 79.4434C245.841 79.8639 245.76 80.2347 245.6 80.5557C245.445 80.8766 245.218 81.145 244.919 81.3608C244.62 81.5711 244.258 81.7316 243.832 81.8423C243.406 81.9474 242.924 82 242.387 82ZM249.161 76.1064H251.859C252.584 76.1064 253.195 76.2337 253.693 76.4883C254.191 76.7373 254.567 77.0832 254.822 77.5259C255.082 77.9631 255.212 78.4611 255.212 79.02C255.212 79.4351 255.14 79.8252 254.996 80.1904C254.852 80.5501 254.637 80.8656 254.349 81.1367C254.067 81.4079 253.715 81.6209 253.295 81.7759C252.88 81.9253 252.401 82 251.859 82H248.04V73.0186H249.576V80.7383H251.859C252.301 80.7383 252.656 80.658 252.921 80.4976C253.187 80.3371 253.378 80.1296 253.494 79.875C253.61 79.6204 253.668 79.3548 253.668 79.0781C253.668 78.807 253.61 78.5413 253.494 78.2812C253.378 78.0212 253.187 77.8053 252.921 77.6338C252.656 77.4567 252.301 77.3682 251.859 77.3682H249.161V76.1064ZM258.408 73.0186V82H256.872V73.0186H258.408ZM266.858 69.1089H268.12C268.12 69.6512 268.037 70.0828 267.871 70.4038C267.705 70.7192 267.478 70.9627 267.19 71.1343C266.908 71.3058 266.587 71.4359 266.227 71.5244C265.873 71.613 265.505 71.6987 265.123 71.7817C264.647 71.8813 264.205 72.0391 263.795 72.2549C263.391 72.4652 263.043 72.764 262.749 73.1514C262.462 73.5387 262.248 74.0423 262.11 74.6621C261.977 75.2819 261.941 76.0483 262.002 76.9614V77.7251H260.74V76.9614C260.74 75.9377 260.837 75.0439 261.031 74.2803C261.23 73.5166 261.51 72.8719 261.869 72.3462C262.229 71.8205 262.655 71.4027 263.148 71.0928C263.646 70.7829 264.194 70.5698 264.791 70.4536C265.223 70.3706 265.594 70.2821 265.904 70.188C266.213 70.0884 266.449 69.9556 266.609 69.7896C266.775 69.6235 266.858 69.3966 266.858 69.1089ZM265.04 73.5332C265.627 73.5332 266.15 73.6356 266.609 73.8403C267.068 74.0451 267.459 74.3301 267.78 74.6953C268.101 75.0605 268.344 75.4922 268.51 75.9902C268.682 76.4827 268.767 77.0195 268.767 77.6006V77.7832C268.767 78.4085 268.676 78.9896 268.493 79.5264C268.316 80.0576 268.053 80.5225 267.705 80.9209C267.362 81.3138 266.941 81.6209 266.443 81.8423C265.951 82.0636 265.389 82.1743 264.758 82.1743C264.127 82.1743 263.563 82.0636 263.065 81.8423C262.572 81.6209 262.152 81.3138 261.803 80.9209C261.454 80.5225 261.189 80.0576 261.006 79.5264C260.829 78.9896 260.74 78.4085 260.74 77.7832V77.6006C260.74 77.4622 260.765 77.3267 260.815 77.1938C260.865 77.061 260.926 76.9255 260.998 76.7871C261.075 76.6488 261.144 76.5021 261.205 76.3472C261.41 75.8491 261.69 75.387 262.044 74.9609C262.403 74.5348 262.832 74.1917 263.33 73.9316C263.834 73.666 264.404 73.5332 265.04 73.5332ZM264.741 74.7866C264.177 74.7866 263.712 74.9167 263.347 75.1768C262.987 75.4368 262.719 75.7827 262.542 76.2144C262.365 76.6405 262.276 77.1025 262.276 77.6006V77.7832C262.276 78.2038 262.326 78.6022 262.426 78.9785C262.525 79.3548 262.675 79.6896 262.874 79.9829C263.079 80.2707 263.336 80.4976 263.646 80.6636C263.961 80.8296 264.332 80.9126 264.758 80.9126C265.184 80.9126 265.552 80.8296 265.862 80.6636C266.172 80.4976 266.427 80.2707 266.626 79.9829C266.825 79.6896 266.974 79.3548 267.074 78.9785C267.174 78.6022 267.223 78.2038 267.223 77.7832V77.6006C267.223 77.2243 267.174 76.8674 267.074 76.5298C266.974 76.1922 266.822 75.8934 266.617 75.6333C266.418 75.3732 266.161 75.1685 265.845 75.019C265.536 74.8641 265.168 74.7866 264.741 74.7866ZM271.897 74.7451V85.4531H270.353V73.0186H271.764L271.897 74.7451ZM277.948 77.4346V77.6089C277.948 78.2619 277.871 78.8678 277.716 79.4268C277.561 79.9801 277.334 80.4616 277.035 80.8711C276.742 81.2806 276.379 81.5988 275.948 81.8257C275.516 82.0526 275.021 82.166 274.462 82.166C273.892 82.166 273.388 82.0719 272.951 81.8838C272.514 81.6956 272.143 81.4217 271.839 81.062C271.534 80.7023 271.291 80.2707 271.108 79.7671C270.931 79.2635 270.809 78.6963 270.743 78.0654V77.1357C270.809 76.4717 270.934 75.8768 271.116 75.3511C271.299 74.8254 271.54 74.3771 271.839 74.0063C272.143 73.63 272.511 73.3451 272.943 73.1514C273.374 72.9521 273.872 72.8525 274.437 72.8525C275.001 72.8525 275.502 72.9632 275.939 73.1846C276.376 73.4004 276.744 73.7103 277.043 74.1143C277.342 74.5182 277.566 75.0024 277.716 75.5669C277.871 76.1258 277.948 76.7484 277.948 77.4346ZM276.404 77.6089V77.4346C276.404 76.9863 276.357 76.5658 276.263 76.1729C276.169 75.7744 276.022 75.4258 275.823 75.127C275.629 74.8226 275.38 74.5846 275.076 74.4131C274.772 74.236 274.409 74.1475 273.989 74.1475C273.601 74.1475 273.264 74.2139 272.976 74.3467C272.694 74.4795 272.453 74.6593 272.254 74.8862C272.054 75.1076 271.891 75.3621 271.764 75.6499C271.642 75.9321 271.551 76.2254 271.49 76.5298V78.6797C271.601 79.0671 271.756 79.4323 271.955 79.7754C272.154 80.113 272.42 80.3869 272.752 80.5972C273.084 80.8019 273.502 80.9043 274.005 80.9043C274.42 80.9043 274.777 80.8185 275.076 80.647C275.38 80.4699 275.629 80.2292 275.823 79.9248C276.022 79.6204 276.169 79.2718 276.263 78.8789C276.357 78.4805 276.404 78.0571 276.404 77.6089ZM285.203 80.4644V75.8408C285.203 75.4867 285.131 75.1795 284.987 74.9194C284.849 74.6538 284.638 74.4491 284.356 74.3052C284.074 74.1613 283.725 74.0894 283.31 74.0894C282.923 74.0894 282.583 74.1558 282.289 74.2886C282.002 74.4214 281.775 74.5957 281.609 74.8115C281.448 75.0273 281.368 75.2598 281.368 75.5088H279.832C279.832 75.1878 279.915 74.8696 280.081 74.5542C280.247 74.2388 280.485 73.9538 280.795 73.6992C281.111 73.4391 281.487 73.2344 281.924 73.085C282.367 72.93 282.859 72.8525 283.402 72.8525C284.055 72.8525 284.63 72.9632 285.128 73.1846C285.632 73.4059 286.025 73.7407 286.307 74.189C286.595 74.6317 286.739 75.1878 286.739 75.8574V80.041C286.739 80.3398 286.763 80.658 286.813 80.9956C286.869 81.3332 286.949 81.6237 287.054 81.8672V82H285.452C285.374 81.8229 285.314 81.5877 285.269 81.2944C285.225 80.9956 285.203 80.7189 285.203 80.4644ZM285.469 76.5547L285.485 77.6338H283.933C283.496 77.6338 283.106 77.6698 282.762 77.7417C282.419 77.8081 282.132 77.9105 281.899 78.0488C281.667 78.1872 281.49 78.3615 281.368 78.5718C281.246 78.7765 281.185 79.0173 281.185 79.2939C281.185 79.5762 281.249 79.8335 281.376 80.0659C281.503 80.2983 281.694 80.4837 281.949 80.6221C282.209 80.7549 282.527 80.8213 282.904 80.8213C283.374 80.8213 283.789 80.7217 284.149 80.5225C284.508 80.3232 284.793 80.0798 285.004 79.792C285.219 79.5042 285.336 79.2248 285.352 78.9536L286.008 79.6924C285.969 79.9248 285.864 80.1821 285.693 80.4644C285.521 80.7466 285.291 81.0177 285.004 81.2778C284.721 81.5324 284.384 81.7454 283.991 81.917C283.604 82.083 283.166 82.166 282.679 82.166C282.071 82.166 281.537 82.047 281.077 81.8091C280.624 81.5711 280.269 81.2529 280.015 80.8545C279.766 80.4505 279.641 79.9995 279.641 79.5015C279.641 79.02 279.735 78.5967 279.924 78.2314C280.112 77.8607 280.383 77.5535 280.737 77.3101C281.091 77.061 281.517 76.8729 282.015 76.7456C282.513 76.6183 283.07 76.5547 283.684 76.5547H285.469ZM295.247 76.9116V78.1567H290.499V76.9116H295.247ZM290.823 73.0186V82H289.287V73.0186H290.823ZM296.492 73.0186V82H294.948V73.0186H296.492ZM305.058 76.9116V78.1567H300.31V76.9116H305.058ZM300.634 73.0186V82H299.098V73.0186H300.634ZM306.303 73.0186V82H304.76V73.0186H306.303ZM310.039 76.1064H312.737C313.462 76.1064 314.073 76.2337 314.571 76.4883C315.069 76.7373 315.445 77.0832 315.7 77.5259C315.96 77.9631 316.09 78.4611 316.09 79.02C316.09 79.4351 316.018 79.8252 315.874 80.1904C315.73 80.5501 315.515 80.8656 315.227 81.1367C314.945 81.4079 314.593 81.6209 314.173 81.7759C313.758 81.9253 313.279 82 312.737 82H308.918V73.0186H310.454V80.7383H312.737C313.179 80.7383 313.533 80.658 313.799 80.4976C314.065 80.3371 314.256 80.1296 314.372 79.875C314.488 79.6204 314.546 79.3548 314.546 79.0781C314.546 78.807 314.488 78.5413 314.372 78.2812C314.256 78.0212 314.065 77.8053 313.799 77.6338C313.533 77.4567 313.179 77.3682 312.737 77.3682H310.039V76.1064ZM319.286 73.0186V82H317.75V73.0186H319.286ZM323.013 73.0186L324.98 76.2891L326.972 73.0186H328.774L325.835 77.4512L328.865 82H327.089L325.013 78.6299L322.938 82H321.154L324.175 77.4512L321.245 73.0186H323.013ZM338.286 73.0186V82H336.742V73.0186H338.286ZM341.3 73.0186V74.2637H333.787V73.0186H341.3ZM342.055 77.6089V77.418C342.055 76.7705 342.149 76.1701 342.337 75.6167C342.525 75.0578 342.796 74.5736 343.151 74.1641C343.505 73.749 343.934 73.4281 344.437 73.2012C344.941 72.9688 345.505 72.8525 346.131 72.8525C346.761 72.8525 347.329 72.9688 347.832 73.2012C348.341 73.4281 348.773 73.749 349.127 74.1641C349.487 74.5736 349.761 75.0578 349.949 75.6167C350.137 76.1701 350.231 76.7705 350.231 77.418V77.6089C350.231 78.2563 350.137 78.8568 349.949 79.4102C349.761 79.9635 349.487 80.4478 349.127 80.8628C348.773 81.2723 348.344 81.5933 347.841 81.8257C347.343 82.0526 346.778 82.166 346.147 82.166C345.516 82.166 344.949 82.0526 344.446 81.8257C343.942 81.5933 343.51 81.2723 343.151 80.8628C342.796 80.4478 342.525 79.9635 342.337 79.4102C342.149 78.8568 342.055 78.2563 342.055 77.6089ZM343.591 77.418V77.6089C343.591 78.0571 343.643 78.4805 343.748 78.8789C343.853 79.2718 344.011 79.6204 344.221 79.9248C344.437 80.2292 344.706 80.4699 345.027 80.647C345.348 80.8185 345.721 80.9043 346.147 80.9043C346.568 80.9043 346.936 80.8185 347.251 80.647C347.572 80.4699 347.838 80.2292 348.048 79.9248C348.258 79.6204 348.416 79.2718 348.521 78.8789C348.632 78.4805 348.687 78.0571 348.687 77.6089V77.418C348.687 76.9753 348.632 76.5575 348.521 76.1646C348.416 75.7661 348.256 75.4147 348.04 75.1104C347.83 74.8005 347.564 74.557 347.243 74.3799C346.927 74.2028 346.557 74.1143 346.131 74.1143C345.71 74.1143 345.339 74.2028 345.018 74.3799C344.703 74.557 344.437 74.8005 344.221 75.1104C344.011 75.4147 343.853 75.7661 343.748 76.1646C343.643 76.5575 343.591 76.9753 343.591 77.418ZM356.374 78.0488H353.427L353.41 76.8203H355.818C356.294 76.8203 356.689 76.7733 357.005 76.6792C357.326 76.5851 357.566 76.444 357.727 76.2559C357.887 76.0677 357.968 75.8353 357.968 75.5586C357.968 75.3428 357.92 75.1546 357.826 74.9941C357.738 74.8281 357.602 74.6925 357.42 74.5874C357.237 74.4767 357.01 74.3965 356.739 74.3467C356.473 74.2913 356.161 74.2637 355.801 74.2637H353.834V82H352.298V73.0186H355.801C356.371 73.0186 356.883 73.0684 357.337 73.168C357.796 73.2676 358.186 73.4198 358.507 73.6245C358.834 73.8237 359.083 74.0783 359.254 74.3882C359.426 74.6981 359.511 75.0633 359.511 75.4839C359.511 75.755 359.456 76.0124 359.345 76.2559C359.235 76.4993 359.072 76.7152 358.856 76.9033C358.64 77.0915 358.374 77.2464 358.059 77.3682C357.743 77.4844 357.381 77.5591 356.971 77.5923L356.374 78.0488ZM356.374 82H352.871L353.635 80.7549H356.374C356.8 80.7549 357.154 80.7023 357.436 80.5972C357.719 80.4865 357.929 80.3315 358.067 80.1323C358.211 79.9276 358.283 79.6841 358.283 79.4019C358.283 79.1196 358.211 78.8789 358.067 78.6797C357.929 78.4749 357.719 78.32 357.436 78.2148C357.154 78.1042 356.8 78.0488 356.374 78.0488H354.041L354.058 76.8203H356.971L357.528 77.2852C358.02 77.3239 358.438 77.4456 358.781 77.6504C359.124 77.8551 359.384 78.1152 359.561 78.4307C359.738 78.7406 359.827 79.0781 359.827 79.4434C359.827 79.8639 359.747 80.2347 359.586 80.5557C359.431 80.8766 359.204 81.145 358.906 81.3608C358.607 81.5711 358.244 81.7316 357.818 81.8423C357.392 81.9474 356.911 82 356.374 82ZM367.181 80.4644V75.8408C367.181 75.4867 367.109 75.1795 366.966 74.9194C366.827 74.6538 366.617 74.4491 366.335 74.3052C366.052 74.1613 365.704 74.0894 365.289 74.0894C364.901 74.0894 364.561 74.1558 364.268 74.2886C363.98 74.4214 363.753 74.5957 363.587 74.8115C363.427 75.0273 363.346 75.2598 363.346 75.5088H361.811C361.811 75.1878 361.894 74.8696 362.06 74.5542C362.226 74.2388 362.464 73.9538 362.774 73.6992C363.089 73.4391 363.465 73.2344 363.903 73.085C364.345 72.93 364.838 72.8525 365.38 72.8525C366.033 72.8525 366.609 72.9632 367.107 73.1846C367.61 73.4059 368.003 73.7407 368.285 74.189C368.573 74.6317 368.717 75.1878 368.717 75.8574V80.041C368.717 80.3398 368.742 80.658 368.792 80.9956C368.847 81.3332 368.927 81.6237 369.032 81.8672V82H367.43C367.353 81.8229 367.292 81.5877 367.248 81.2944C367.204 80.9956 367.181 80.7189 367.181 80.4644ZM367.447 76.5547L367.464 77.6338H365.911C365.474 77.6338 365.084 77.6698 364.741 77.7417C364.398 77.8081 364.11 77.9105 363.878 78.0488C363.645 78.1872 363.468 78.3615 363.346 78.5718C363.225 78.7765 363.164 79.0173 363.164 79.2939C363.164 79.5762 363.227 79.8335 363.355 80.0659C363.482 80.2983 363.673 80.4837 363.927 80.6221C364.188 80.7549 364.506 80.8213 364.882 80.8213C365.352 80.8213 365.767 80.7217 366.127 80.5225C366.487 80.3232 366.772 80.0798 366.982 79.792C367.198 79.5042 367.314 79.2248 367.331 78.9536L367.987 79.6924C367.948 79.9248 367.843 80.1821 367.671 80.4644C367.5 80.7466 367.27 81.0177 366.982 81.2778C366.7 81.5324 366.362 81.7454 365.969 81.917C365.582 82.083 365.145 82.166 364.658 82.166C364.049 82.166 363.515 82.047 363.056 81.8091C362.602 81.5711 362.248 81.2529 361.993 80.8545C361.744 80.4505 361.62 79.9995 361.62 79.5015C361.62 79.02 361.714 78.5967 361.902 78.2314C362.09 77.8607 362.361 77.5535 362.716 77.3101C363.07 77.061 363.496 76.8729 363.994 76.7456C364.492 76.6183 365.048 76.5547 365.662 76.5547H367.447ZM372.668 74.7451V85.4531H371.124V73.0186H372.535L372.668 74.7451ZM378.719 77.4346V77.6089C378.719 78.2619 378.642 78.8678 378.487 79.4268C378.332 79.9801 378.105 80.4616 377.806 80.8711C377.513 81.2806 377.151 81.5988 376.719 81.8257C376.287 82.0526 375.792 82.166 375.233 82.166C374.663 82.166 374.16 82.0719 373.722 81.8838C373.285 81.6956 372.914 81.4217 372.61 81.062C372.306 80.7023 372.062 80.2707 371.88 79.7671C371.703 79.2635 371.581 78.6963 371.514 78.0654V77.1357C371.581 76.4717 371.705 75.8768 371.888 75.3511C372.071 74.8254 372.311 74.3771 372.61 74.0063C372.914 73.63 373.282 73.3451 373.714 73.1514C374.146 72.9521 374.644 72.8525 375.208 72.8525C375.773 72.8525 376.274 72.9632 376.711 73.1846C377.148 73.4004 377.516 73.7103 377.815 74.1143C378.114 74.5182 378.338 75.0024 378.487 75.5669C378.642 76.1258 378.719 76.7484 378.719 77.4346ZM377.176 77.6089V77.4346C377.176 76.9863 377.128 76.5658 377.034 76.1729C376.94 75.7744 376.794 75.4258 376.594 75.127C376.401 74.8226 376.152 74.5846 375.847 74.4131C375.543 74.236 375.181 74.1475 374.76 74.1475C374.373 74.1475 374.035 74.2139 373.747 74.3467C373.465 74.4795 373.224 74.6593 373.025 74.8862C372.826 75.1076 372.663 75.3621 372.535 75.6499C372.414 75.9321 372.322 76.2254 372.261 76.5298V78.6797C372.372 79.0671 372.527 79.4323 372.726 79.7754C372.926 80.113 373.191 80.3869 373.523 80.5972C373.855 80.8019 374.273 80.9043 374.777 80.9043C375.192 80.9043 375.549 80.8185 375.847 80.647C376.152 80.4699 376.401 80.2292 376.594 79.9248C376.794 79.6204 376.94 79.2718 377.034 78.8789C377.128 78.4805 377.176 78.0571 377.176 77.6089ZM380.272 77.6089V77.418C380.272 76.7705 380.366 76.1701 380.554 75.6167C380.742 75.0578 381.013 74.5736 381.367 74.1641C381.722 73.749 382.15 73.4281 382.654 73.2012C383.158 72.9688 383.722 72.8525 384.347 72.8525C384.978 72.8525 385.545 72.9688 386.049 73.2012C386.558 73.4281 386.99 73.749 387.344 74.1641C387.704 74.5736 387.978 75.0578 388.166 75.6167C388.354 76.1701 388.448 76.7705 388.448 77.418V77.6089C388.448 78.2563 388.354 78.8568 388.166 79.4102C387.978 79.9635 387.704 80.4478 387.344 80.8628C386.99 81.2723 386.561 81.5933 386.057 81.8257C385.559 82.0526 384.995 82.166 384.364 82.166C383.733 82.166 383.166 82.0526 382.662 81.8257C382.159 81.5933 381.727 81.2723 381.367 80.8628C381.013 80.4478 380.742 79.9635 380.554 79.4102C380.366 78.8568 380.272 78.2563 380.272 77.6089ZM381.807 77.418V77.6089C381.807 78.0571 381.86 78.4805 381.965 78.8789C382.07 79.2718 382.228 79.6204 382.438 79.9248C382.654 80.2292 382.922 80.4699 383.243 80.647C383.564 80.8185 383.938 80.9043 384.364 80.9043C384.785 80.9043 385.153 80.8185 385.468 80.647C385.789 80.4699 386.055 80.2292 386.265 79.9248C386.475 79.6204 386.633 79.2718 386.738 78.8789C386.849 78.4805 386.904 78.0571 386.904 77.6089V77.418C386.904 76.9753 386.849 76.5575 386.738 76.1646C386.633 75.7661 386.472 75.4147 386.257 75.1104C386.046 74.8005 385.781 74.557 385.46 74.3799C385.144 74.2028 384.774 74.1143 384.347 74.1143C383.927 74.1143 383.556 74.2028 383.235 74.3799C382.92 74.557 382.654 74.8005 382.438 75.1104C382.228 75.4147 382.07 75.7661 381.965 76.1646C381.86 76.5575 381.807 76.9753 381.807 77.418ZM394.591 78.0488H391.644L391.627 76.8203H394.034C394.51 76.8203 394.906 76.7733 395.221 76.6792C395.542 76.5851 395.783 76.444 395.944 76.2559C396.104 76.0677 396.184 75.8353 396.184 75.5586C396.184 75.3428 396.137 75.1546 396.043 74.9941C395.955 74.8281 395.819 74.6925 395.636 74.5874C395.454 74.4767 395.227 74.3965 394.956 74.3467C394.69 74.2913 394.378 74.2637 394.018 74.2637H392.051V82H390.515V73.0186H394.018C394.588 73.0186 395.1 73.0684 395.553 73.168C396.013 73.2676 396.403 73.4198 396.724 73.6245C397.05 73.8237 397.299 74.0783 397.471 74.3882C397.642 74.6981 397.728 75.0633 397.728 75.4839C397.728 75.755 397.673 76.0124 397.562 76.2559C397.452 76.4993 397.288 76.7152 397.073 76.9033C396.857 77.0915 396.591 77.2464 396.276 77.3682C395.96 77.4844 395.598 77.5591 395.188 77.5923L394.591 78.0488ZM394.591 82H391.088L391.851 80.7549H394.591C395.017 80.7549 395.371 80.7023 395.653 80.5972C395.935 80.4865 396.146 80.3315 396.284 80.1323C396.428 79.9276 396.5 79.6841 396.5 79.4019C396.5 79.1196 396.428 78.8789 396.284 78.6797C396.146 78.4749 395.935 78.32 395.653 78.2148C395.371 78.1042 395.017 78.0488 394.591 78.0488H392.258L392.275 76.8203H395.188L395.744 77.2852C396.237 77.3239 396.655 77.4456 396.998 77.6504C397.341 77.8551 397.601 78.1152 397.778 78.4307C397.955 78.7406 398.044 79.0781 398.044 79.4434C398.044 79.8639 397.963 80.2347 397.803 80.5557C397.648 80.8766 397.421 81.145 397.122 81.3608C396.823 81.5711 396.461 81.7316 396.035 81.8423C395.609 81.9474 395.127 82 394.591 82Z" fill="black"/>
<defs>
<filter id="filter0_d_802_800" x="0.0517578" y="12.0862" width="106.191" height="106.163" filterUnits="userSpaceOnUse" color-interpolation-filters="sRGB">
<feFlood flood-opacity="0" result="BackgroundImageFix"/>
<feColorMatrix in="SourceAlpha" type="matrix" values="0 0 0 0 0 0 0 0 0 0 0 0 0 0 0 0 0 0 127 0" result="hardAlpha"/>
<feOffset/>
<feGaussianBlur stdDeviation="12"/>
<feComposite in2="hardAlpha" operator="out"/>
<feColorMatrix type="matrix" values="0 0 0 0 0.579167 0 0 0 0 0.579167 0 0 0 0 0.579167 0 0 0 0.3 0"/>
<feBlend mode="normal" in2="BackgroundImageFix" result="effect1_dropShadow_802_800"/>
<feBlend mode="normal" in="SourceGraphic" in2="effect1_dropShadow_802_800" result="shape"/>
</filter>
</defs>
</svg>
