<svg width="671" height="125" viewBox="0 0 671 125" fill="none" xmlns="http://www.w3.org/2000/svg">
<path d="M495 65L613 65" stroke="#00A3FF" stroke-miterlimit="10" stroke-linecap="round"/>
<g filter="url(#filter0_d_802_760)">
<path d="M637.721 85.7313C649.083 74.3742 649.083 55.9607 637.721 44.6036C626.358 33.2466 607.936 33.2466 596.574 44.6037C585.211 55.9607 585.211 74.3742 596.574 85.7313C607.936 97.0884 626.358 97.0884 637.721 85.7313Z" fill="white"/>
</g>
<path d="M626.241 65.1644C626.246 66.8871 625.741 68.5727 624.789 70.0088C623.837 71.4448 622.481 72.5669 620.892 73.2335C619.302 73.9002 617.551 74.0815 615.859 73.7546C614.167 73.4278 612.61 72.6073 611.383 71.3968C610.157 70.1863 609.317 68.64 608.969 66.9528C608.621 65.2657 608.78 63.5133 609.427 61.9166C610.075 60.32 611.18 58.9507 612.605 57.9813C614.03 57.012 615.71 56.4861 617.433 56.4699C618.585 56.4555 619.727 56.6697 620.795 57.1002C621.863 57.5307 622.835 58.1688 623.655 58.9776C624.474 59.7864 625.124 60.7498 625.568 61.8118C626.012 62.8739 626.241 64.0134 626.241 65.1644Z" fill="#00A3FF"/>
<path d="M617.542 68.5712C619.425 68.5712 620.951 67.0459 620.951 65.1643C620.951 63.2827 619.425 61.7573 617.542 61.7573C615.66 61.7573 614.134 63.2827 614.134 65.1643C614.134 67.0459 615.66 68.5712 617.542 68.5712Z" fill="white"/>
<path d="M497.452 65.1642C497.457 66.8904 496.95 68.5793 495.994 70.0172C495.039 71.4551 493.678 72.5772 492.084 73.2415C490.49 73.9058 488.735 74.0824 487.04 73.749C485.346 73.4155 483.789 72.587 482.565 71.3684C481.342 70.1497 480.509 68.5957 480.17 66.9031C479.831 65.2105 480.002 63.4554 480.662 61.8601C481.321 60.2649 482.44 58.9011 483.875 57.9415C485.311 56.982 486.999 56.4697 488.726 56.4697C491.035 56.4697 493.251 57.3849 494.886 59.0146C496.522 60.6444 497.445 62.8558 497.452 65.1642Z" fill="#00A3FF"/>
<path d="M488.753 68.5712C490.636 68.5712 492.162 67.0459 492.162 65.1643C492.162 63.2827 490.636 61.7573 488.753 61.7573C486.871 61.7573 485.345 63.2827 485.345 65.1643C485.345 67.0459 486.871 68.5712 488.753 68.5712Z" fill="white"/>
<path d="M93.3041 93.2599C110.481 76.0913 110.481 48.2554 93.304 31.0867C76.1272 13.9181 48.2782 13.918 31.1014 31.0867C13.9246 48.2553 13.9245 76.0913 31.1014 93.26C48.2782 110.429 76.1273 110.429 93.3041 93.2599Z" fill="#00A3FF"/>
<path d="M49.4023 48.1655H54.4023V76.1733H48.4062V55.7827H43.6016V51.9741C44.4609 51.87 45.2487 51.6681 45.9648 51.3687C46.681 51.0562 47.2344 50.7241 47.625 50.3726C48.0286 50.021 48.3672 49.6825 48.6406 49.3569C48.9271 49.0184 49.1289 48.7319 49.2461 48.4976L49.4023 48.1655ZM74.4219 61.3687C74.5521 61.4207 74.7279 61.4989 74.9492 61.603C75.1836 61.6942 75.5872 61.9285 76.1602 62.3062C76.7331 62.6707 77.2344 63.0939 77.6641 63.5757C78.1068 64.0575 78.5104 64.728 78.875 65.5874C79.2396 66.4338 79.4219 67.3647 79.4219 68.3804C79.4219 70.672 78.4648 72.6447 76.5508 74.2983C74.6497 75.952 72.1367 76.7788 69.0117 76.7788C67.6836 76.7788 66.401 76.6226 65.1641 76.3101C63.9401 76.0106 62.9375 75.646 62.1562 75.2163C61.375 74.7866 60.6849 74.3634 60.0859 73.9468C59.5 73.5171 59.0768 73.1395 58.8164 72.814L58.4062 72.3647L62.0195 68.5757C62.0716 68.6538 62.1562 68.7645 62.2734 68.9077C62.3906 69.0379 62.6576 69.2788 63.0742 69.6304C63.4909 69.9689 63.9271 70.2749 64.3828 70.5483C64.8516 70.8088 65.444 71.0431 66.1602 71.2515C66.8893 71.4598 67.638 71.564 68.4062 71.564C69.9557 71.564 71.1406 71.2254 71.9609 70.5483C72.7943 69.8713 73.2109 69.0119 73.2109 67.9702C73.2109 66.9285 72.8008 66.0692 71.9805 65.3921C71.1732 64.715 70.0534 64.3765 68.6211 64.3765H65.6133V59.3765H68.4062C69.5781 59.3765 70.5026 59.064 71.1797 58.439C71.8698 57.814 72.2148 56.9937 72.2148 55.978C72.2148 55.0405 71.8763 54.2723 71.1992 53.6733C70.5221 53.0744 69.5911 52.7749 68.4062 52.7749C67.3906 52.7749 66.4336 52.9963 65.5352 53.439C64.6497 53.8817 64.0117 54.3114 63.6211 54.728L63.0156 55.3726L59.4219 51.7788C59.5 51.6746 59.6172 51.5314 59.7734 51.3491C59.9297 51.1538 60.3008 50.8088 60.8867 50.314C61.4857 49.8192 62.1237 49.396 62.8008 49.0444C63.4779 48.6799 64.3763 48.3478 65.4961 48.0483C66.6159 47.7358 67.7878 47.5796 69.0117 47.5796C71.8372 47.5796 74.1094 48.3283 75.8281 49.8257C77.5469 51.3101 78.4062 53.159 78.4062 55.3726C78.4062 56.1929 78.263 56.9611 77.9766 57.6772C77.7031 58.3804 77.3711 58.9533 76.9805 59.396C76.6029 59.8387 76.2188 60.2163 75.8281 60.5288C75.4505 60.8283 75.112 61.0431 74.8125 61.1733L74.4219 61.3687Z" fill="white"/>
<path d="M141.08 58.9141V71H139.478V58.9141H141.08ZM148.525 58.9141L143.279 65.563H140.44L140.191 64.2349H142.325L146.542 58.9141H148.525ZM146.915 71L142.375 65.3555L143.271 63.9526L148.874 71H146.915ZM151.431 63.7451V74.4531H149.887V62.0186H151.298L151.431 63.7451ZM157.482 66.4346V66.6089C157.482 67.2619 157.404 67.8678 157.25 68.4268C157.095 68.9801 156.868 69.4616 156.569 69.8711C156.276 70.2806 155.913 70.5988 155.481 70.8257C155.05 71.0526 154.555 71.166 153.996 71.166C153.426 71.166 152.922 71.0719 152.485 70.8838C152.048 70.6956 151.677 70.4217 151.373 70.062C151.068 69.7023 150.825 69.2707 150.642 68.7671C150.465 68.2635 150.343 67.6963 150.277 67.0654V66.1357C150.343 65.4717 150.468 64.8768 150.65 64.3511C150.833 63.8254 151.074 63.3771 151.373 63.0063C151.677 62.63 152.045 62.3451 152.477 62.1514C152.908 61.9521 153.406 61.8525 153.971 61.8525C154.535 61.8525 155.036 61.9632 155.473 62.1846C155.91 62.4004 156.278 62.7103 156.577 63.1143C156.876 63.5182 157.1 64.0024 157.25 64.5669C157.404 65.1258 157.482 65.7484 157.482 66.4346ZM155.938 66.6089V66.4346C155.938 65.9863 155.891 65.5658 155.797 65.1729C155.703 64.7744 155.556 64.4258 155.357 64.127C155.163 63.8226 154.914 63.5846 154.61 63.4131C154.306 63.236 153.943 63.1475 153.522 63.1475C153.135 63.1475 152.798 63.2139 152.51 63.3467C152.228 63.4795 151.987 63.6593 151.788 63.8862C151.588 64.1076 151.425 64.3621 151.298 64.6499C151.176 64.9321 151.085 65.2254 151.024 65.5298V67.6797C151.135 68.0671 151.29 68.4323 151.489 68.7754C151.688 69.113 151.954 69.3869 152.286 69.5972C152.618 69.8019 153.035 69.9043 153.539 69.9043C153.954 69.9043 154.311 69.8185 154.61 69.647C154.914 69.4699 155.163 69.2292 155.357 68.9248C155.556 68.6204 155.703 68.2718 155.797 67.8789C155.891 67.4805 155.938 67.0571 155.938 66.6089ZM164.737 69.4644V64.8408C164.737 64.4867 164.665 64.1795 164.521 63.9194C164.383 63.6538 164.172 63.4491 163.89 63.3052C163.608 63.1613 163.259 63.0894 162.844 63.0894C162.457 63.0894 162.117 63.1558 161.823 63.2886C161.535 63.4214 161.309 63.5957 161.143 63.8115C160.982 64.0273 160.902 64.2598 160.902 64.5088H159.366C159.366 64.1878 159.449 63.8696 159.615 63.5542C159.781 63.2388 160.019 62.9538 160.329 62.6992C160.645 62.4391 161.021 62.2344 161.458 62.085C161.901 61.93 162.393 61.8525 162.936 61.8525C163.589 61.8525 164.164 61.9632 164.662 62.1846C165.166 62.4059 165.559 62.7407 165.841 63.189C166.129 63.6317 166.272 64.1878 166.272 64.8574V69.041C166.272 69.3398 166.297 69.658 166.347 69.9956C166.403 70.3332 166.483 70.6237 166.588 70.8672V71H164.986C164.908 70.8229 164.847 70.5877 164.803 70.2944C164.759 69.9956 164.737 69.7189 164.737 69.4644ZM165.002 65.5547L165.019 66.6338H163.467C163.03 66.6338 162.639 66.6698 162.296 66.7417C161.953 66.8081 161.666 66.9105 161.433 67.0488C161.201 67.1872 161.024 67.3615 160.902 67.5718C160.78 67.7765 160.719 68.0173 160.719 68.2939C160.719 68.5762 160.783 68.8335 160.91 69.0659C161.037 69.2983 161.228 69.4837 161.483 69.6221C161.743 69.7549 162.061 69.8213 162.438 69.8213C162.908 69.8213 163.323 69.7217 163.683 69.5225C164.042 69.3232 164.327 69.0798 164.538 68.792C164.753 68.5042 164.87 68.2248 164.886 67.9536L165.542 68.6924C165.503 68.9248 165.398 69.1821 165.227 69.4644C165.055 69.7466 164.825 70.0177 164.538 70.2778C164.255 70.5324 163.918 70.7454 163.525 70.917C163.138 71.083 162.7 71.166 162.213 71.166C161.605 71.166 161.071 71.047 160.611 70.8091C160.158 70.5711 159.803 70.2529 159.549 69.8545C159.3 69.4505 159.175 68.9995 159.175 68.5015C159.175 68.02 159.269 67.5967 159.458 67.2314C159.646 66.8607 159.917 66.5535 160.271 66.3101C160.625 66.061 161.051 65.8729 161.549 65.7456C162.047 65.6183 162.604 65.5547 163.218 65.5547H165.002ZM172.216 62.0186V71H170.672V62.0186H172.216ZM175.229 62.0186V63.2637H167.717V62.0186H175.229ZM182.833 65.9116V67.1567H178.084V65.9116H182.833ZM178.408 62.0186V71H176.873V62.0186H178.408ZM184.078 62.0186V71H182.534V62.0186H184.078ZM186.145 66.6089V66.418C186.145 65.7705 186.239 65.1701 186.427 64.6167C186.615 64.0578 186.886 63.5736 187.24 63.1641C187.594 62.749 188.023 62.4281 188.527 62.2012C189.03 61.9688 189.595 61.8525 190.22 61.8525C190.851 61.8525 191.418 61.9688 191.922 62.2012C192.431 62.4281 192.863 62.749 193.217 63.1641C193.576 63.5736 193.85 64.0578 194.039 64.6167C194.227 65.1701 194.321 65.7705 194.321 66.418V66.6089C194.321 67.2563 194.227 67.8568 194.039 68.4102C193.85 68.9635 193.576 69.4478 193.217 69.8628C192.863 70.2723 192.434 70.5933 191.93 70.8257C191.432 71.0526 190.868 71.166 190.237 71.166C189.606 71.166 189.039 71.0526 188.535 70.8257C188.032 70.5933 187.6 70.2723 187.24 69.8628C186.886 69.4478 186.615 68.9635 186.427 68.4102C186.239 67.8568 186.145 67.2563 186.145 66.6089ZM187.68 66.418V66.6089C187.68 67.0571 187.733 67.4805 187.838 67.8789C187.943 68.2718 188.101 68.6204 188.311 68.9248C188.527 69.2292 188.795 69.4699 189.116 69.647C189.437 69.8185 189.811 69.9043 190.237 69.9043C190.657 69.9043 191.025 69.8185 191.341 69.647C191.662 69.4699 191.927 69.2292 192.138 68.9248C192.348 68.6204 192.506 68.2718 192.611 67.8789C192.722 67.4805 192.777 67.0571 192.777 66.6089V66.418C192.777 65.9753 192.722 65.5575 192.611 65.1646C192.506 64.7661 192.345 64.4147 192.129 64.1104C191.919 63.8005 191.653 63.557 191.333 63.3799C191.017 63.2028 190.646 63.1143 190.22 63.1143C189.8 63.1143 189.429 63.2028 189.108 63.3799C188.792 63.557 188.527 63.8005 188.311 64.1104C188.101 64.4147 187.943 64.7661 187.838 65.1646C187.733 65.5575 187.68 65.9753 187.68 66.418ZM199.974 71.166C199.348 71.166 198.781 71.0609 198.272 70.8506C197.768 70.6348 197.334 70.3332 196.969 69.9458C196.609 69.5584 196.332 69.0991 196.139 68.5679C195.945 68.0366 195.848 67.4556 195.848 66.8247V66.4761C195.848 65.7456 195.956 65.0954 196.172 64.5254C196.388 63.9499 196.681 63.4629 197.052 63.0645C197.423 62.666 197.843 62.3644 198.313 62.1597C198.784 61.9549 199.271 61.8525 199.774 61.8525C200.416 61.8525 200.97 61.9632 201.435 62.1846C201.905 62.4059 202.29 62.7158 202.588 63.1143C202.887 63.5072 203.109 63.972 203.252 64.5088C203.396 65.04 203.468 65.6211 203.468 66.252V66.9409H196.761V65.6875H201.933V65.5713C201.91 65.1729 201.827 64.7855 201.684 64.4092C201.545 64.0329 201.324 63.723 201.02 63.4795C200.715 63.236 200.3 63.1143 199.774 63.1143C199.426 63.1143 199.105 63.189 198.812 63.3384C198.518 63.4823 198.266 63.6981 198.056 63.9858C197.846 64.2736 197.683 64.625 197.566 65.04C197.45 65.4551 197.392 65.9338 197.392 66.4761V66.8247C197.392 67.2508 197.45 67.652 197.566 68.0283C197.688 68.3991 197.862 68.7256 198.089 69.0078C198.322 69.29 198.601 69.5114 198.928 69.6719C199.26 69.8324 199.636 69.9126 200.057 69.9126C200.599 69.9126 201.058 69.8019 201.435 69.5806C201.811 69.3592 202.14 69.0632 202.422 68.6924L203.352 69.4312C203.158 69.7244 202.912 70.0039 202.613 70.2695C202.314 70.5352 201.946 70.751 201.509 70.917C201.078 71.083 200.566 71.166 199.974 71.166ZM214.641 68.958L217.696 62.0186H219.173L215.172 71H214.11L210.125 62.0186H211.603L214.641 68.958ZM211.155 62.0186V71H209.619V62.0186H211.155ZM218.078 71V62.0186H219.622V71H218.078ZM227.391 69.4644V64.8408C227.391 64.4867 227.319 64.1795 227.175 63.9194C227.037 63.6538 226.827 63.4491 226.544 63.3052C226.262 63.1613 225.914 63.0894 225.499 63.0894C225.111 63.0894 224.771 63.1558 224.478 63.2886C224.19 63.4214 223.963 63.5957 223.797 63.8115C223.636 64.0273 223.556 64.2598 223.556 64.5088H222.021C222.021 64.1878 222.104 63.8696 222.27 63.5542C222.436 63.2388 222.674 62.9538 222.983 62.6992C223.299 62.4391 223.675 62.2344 224.112 62.085C224.555 61.93 225.048 61.8525 225.59 61.8525C226.243 61.8525 226.818 61.9632 227.316 62.1846C227.82 62.4059 228.213 62.7407 228.495 63.189C228.783 63.6317 228.927 64.1878 228.927 64.8574V69.041C228.927 69.3398 228.952 69.658 229.001 69.9956C229.057 70.3332 229.137 70.6237 229.242 70.8672V71H227.64C227.563 70.8229 227.502 70.5877 227.458 70.2944C227.413 69.9956 227.391 69.7189 227.391 69.4644ZM227.657 65.5547L227.673 66.6338H226.121C225.684 66.6338 225.294 66.6698 224.951 66.7417C224.608 66.8081 224.32 66.9105 224.087 67.0488C223.855 67.1872 223.678 67.3615 223.556 67.5718C223.434 67.7765 223.374 68.0173 223.374 68.2939C223.374 68.5762 223.437 68.8335 223.564 69.0659C223.692 69.2983 223.883 69.4837 224.137 69.6221C224.397 69.7549 224.715 69.8213 225.092 69.8213C225.562 69.8213 225.977 69.7217 226.337 69.5225C226.697 69.3232 226.982 69.0798 227.192 68.792C227.408 68.5042 227.524 68.2248 227.541 67.9536L228.196 68.6924C228.158 68.9248 228.052 69.1821 227.881 69.4644C227.709 69.7466 227.48 70.0177 227.192 70.2778C226.91 70.5324 226.572 70.7454 226.179 70.917C225.792 71.083 225.355 71.166 224.868 71.166C224.259 71.166 223.725 71.047 223.266 70.8091C222.812 70.5711 222.458 70.2529 222.203 69.8545C221.954 69.4505 221.83 68.9995 221.83 68.5015C221.83 68.02 221.924 67.5967 222.112 67.2314C222.3 66.8607 222.571 66.5535 222.925 66.3101C223.279 66.061 223.706 65.8729 224.204 65.7456C224.702 65.6183 225.258 65.5547 225.872 65.5547H227.657ZM234.937 69.9043C235.302 69.9043 235.639 69.8296 235.949 69.6802C236.259 69.5308 236.514 69.326 236.713 69.0659C236.912 68.8003 237.026 68.4987 237.053 68.1611H238.514C238.486 68.6924 238.307 69.1877 237.975 69.647C237.648 70.1007 237.219 70.4688 236.688 70.751C236.157 71.0277 235.573 71.166 234.937 71.166C234.261 71.166 233.672 71.047 233.168 70.8091C232.67 70.5711 232.255 70.2446 231.923 69.8296C231.597 69.4146 231.351 68.9386 231.185 68.4019C231.024 67.8595 230.944 67.2868 230.944 66.6836V66.335C230.944 65.7318 231.024 65.1618 231.185 64.625C231.351 64.0827 231.597 63.604 231.923 63.189C232.255 62.7739 232.67 62.4474 233.168 62.2095C233.672 61.9715 234.261 61.8525 234.937 61.8525C235.639 61.8525 236.254 61.9964 236.779 62.2842C237.305 62.5664 237.717 62.9538 238.016 63.4463C238.32 63.9333 238.486 64.4867 238.514 65.1064H237.053C237.026 64.7357 236.92 64.4009 236.738 64.1021C236.561 63.8032 236.317 63.5653 236.007 63.3882C235.703 63.2056 235.346 63.1143 234.937 63.1143C234.466 63.1143 234.07 63.2083 233.75 63.3965C233.434 63.5791 233.182 63.8281 232.994 64.1436C232.812 64.4535 232.679 64.7993 232.596 65.1812C232.518 65.5575 232.479 65.9421 232.479 66.335V66.6836C232.479 67.0765 232.518 67.4639 232.596 67.8457C232.673 68.2275 232.803 68.5734 232.986 68.8833C233.174 69.1932 233.426 69.4422 233.741 69.6304C234.062 69.813 234.461 69.9043 234.937 69.9043ZM240.374 62.0186H241.909V69.7383H245.196V62.0186H246.74V69.7383H250.019V62.0186H251.555V71H240.374V62.0186ZM257.664 62.0186V71H256.12V62.0186H257.664ZM260.677 62.0186V63.2637H253.165V62.0186H260.677ZM267.351 69.4644V64.8408C267.351 64.4867 267.279 64.1795 267.135 63.9194C266.997 63.6538 266.787 63.4491 266.504 63.3052C266.222 63.1613 265.874 63.0894 265.458 63.0894C265.071 63.0894 264.731 63.1558 264.438 63.2886C264.15 63.4214 263.923 63.5957 263.757 63.8115C263.596 64.0273 263.516 64.2598 263.516 64.5088H261.98C261.98 64.1878 262.063 63.8696 262.229 63.5542C262.396 63.2388 262.633 62.9538 262.943 62.6992C263.259 62.4391 263.635 62.2344 264.072 62.085C264.515 61.93 265.007 61.8525 265.55 61.8525C266.203 61.8525 266.778 61.9632 267.276 62.1846C267.78 62.4059 268.173 62.7407 268.455 63.189C268.743 63.6317 268.887 64.1878 268.887 64.8574V69.041C268.887 69.3398 268.912 69.658 268.961 69.9956C269.017 70.3332 269.097 70.6237 269.202 70.8672V71H267.6C267.523 70.8229 267.462 70.5877 267.417 70.2944C267.373 69.9956 267.351 69.7189 267.351 69.4644ZM267.617 65.5547L267.633 66.6338H266.081C265.644 66.6338 265.254 66.6698 264.911 66.7417C264.568 66.8081 264.28 66.9105 264.047 67.0488C263.815 67.1872 263.638 67.3615 263.516 67.5718C263.394 67.7765 263.333 68.0173 263.333 68.2939C263.333 68.5762 263.397 68.8335 263.524 69.0659C263.652 69.2983 263.843 69.4837 264.097 69.6221C264.357 69.7549 264.675 69.8213 265.052 69.8213C265.522 69.8213 265.937 69.7217 266.297 69.5225C266.657 69.3232 266.942 69.0798 267.152 68.792C267.368 68.5042 267.484 68.2248 267.5 67.9536L268.156 68.6924C268.118 68.9248 268.012 69.1821 267.841 69.4644C267.669 69.7466 267.44 70.0177 267.152 70.2778C266.87 70.5324 266.532 70.7454 266.139 70.917C265.752 71.083 265.315 71.166 264.828 71.166C264.219 71.166 263.685 71.047 263.226 70.8091C262.772 70.5711 262.418 70.2529 262.163 69.8545C261.914 69.4505 261.79 68.9995 261.79 68.5015C261.79 68.02 261.884 67.5967 262.072 67.2314C262.26 66.8607 262.531 66.5535 262.885 66.3101C263.239 66.061 263.666 65.8729 264.164 65.7456C264.662 65.6183 265.218 65.5547 265.832 65.5547H267.617ZM277.063 58.1089H278.325C278.325 58.6512 278.242 59.0828 278.076 59.4038C277.91 59.7192 277.683 59.9627 277.395 60.1343C277.113 60.3058 276.792 60.4359 276.432 60.5244C276.078 60.613 275.71 60.6987 275.328 60.7817C274.852 60.8813 274.41 61.0391 274 61.2549C273.596 61.4652 273.247 61.764 272.954 62.1514C272.666 62.5387 272.453 63.0423 272.315 63.6621C272.182 64.2819 272.146 65.0483 272.207 65.9614V66.7251H270.945V65.9614C270.945 64.9377 271.042 64.0439 271.236 63.2803C271.435 62.5166 271.715 61.8719 272.074 61.3462C272.434 60.8205 272.86 60.4027 273.353 60.0928C273.851 59.7829 274.398 59.5698 274.996 59.4536C275.428 59.3706 275.799 59.2821 276.108 59.188C276.418 59.0884 276.653 58.9556 276.814 58.7896C276.98 58.6235 277.063 58.3966 277.063 58.1089ZM275.245 62.5332C275.832 62.5332 276.355 62.6356 276.814 62.8403C277.273 63.0451 277.663 63.3301 277.984 63.6953C278.305 64.0605 278.549 64.4922 278.715 64.9902C278.886 65.4827 278.972 66.0195 278.972 66.6006V66.7832C278.972 67.4085 278.881 67.9896 278.698 68.5264C278.521 69.0576 278.258 69.5225 277.91 69.9209C277.567 70.3138 277.146 70.6209 276.648 70.8423C276.155 71.0636 275.594 71.1743 274.963 71.1743C274.332 71.1743 273.768 71.0636 273.27 70.8423C272.777 70.6209 272.356 70.3138 272.008 69.9209C271.659 69.5225 271.394 69.0576 271.211 68.5264C271.034 67.9896 270.945 67.4085 270.945 66.7832V66.6006C270.945 66.4622 270.97 66.3267 271.02 66.1938C271.07 66.061 271.131 65.9255 271.203 65.7871C271.28 65.6488 271.349 65.5021 271.41 65.3472C271.615 64.8491 271.894 64.387 272.249 63.9609C272.608 63.5348 273.037 63.1917 273.535 62.9316C274.039 62.666 274.609 62.5332 275.245 62.5332ZM274.946 63.7866C274.382 63.7866 273.917 63.9167 273.552 64.1768C273.192 64.4368 272.924 64.7827 272.747 65.2144C272.569 65.6405 272.481 66.1025 272.481 66.6006V66.7832C272.481 67.2038 272.531 67.6022 272.63 67.9785C272.73 68.3548 272.879 68.6896 273.079 68.9829C273.283 69.2707 273.541 69.4976 273.851 69.6636C274.166 69.8296 274.537 69.9126 274.963 69.9126C275.389 69.9126 275.757 69.8296 276.067 69.6636C276.377 69.4976 276.631 69.2707 276.831 68.9829C277.03 68.6896 277.179 68.3548 277.279 67.9785C277.378 67.6022 277.428 67.2038 277.428 66.7832V66.6006C277.428 66.2243 277.378 65.8674 277.279 65.5298C277.179 65.1922 277.027 64.8934 276.822 64.6333C276.623 64.3732 276.366 64.1685 276.05 64.019C275.74 63.8641 275.372 63.7866 274.946 63.7866ZM282.226 68.5679L286.368 62.0186H287.912V71H286.368V64.4507L282.226 71H280.699V62.0186H282.226V68.5679ZM291.913 63.7451V74.4531H290.369V62.0186H291.78L291.913 63.7451ZM297.964 66.4346V66.6089C297.964 67.2619 297.887 67.8678 297.732 68.4268C297.577 68.9801 297.35 69.4616 297.051 69.8711C296.758 70.2806 296.396 70.5988 295.964 70.8257C295.532 71.0526 295.037 71.166 294.478 71.166C293.908 71.166 293.404 71.0719 292.967 70.8838C292.53 70.6956 292.159 70.4217 291.855 70.062C291.551 69.7023 291.307 69.2707 291.125 68.7671C290.947 68.2635 290.826 67.6963 290.759 67.0654V66.1357C290.826 65.4717 290.95 64.8768 291.133 64.3511C291.315 63.8254 291.556 63.3771 291.855 63.0063C292.159 62.63 292.527 62.3451 292.959 62.1514C293.391 61.9521 293.889 61.8525 294.453 61.8525C295.018 61.8525 295.518 61.9632 295.956 62.1846C296.393 62.4004 296.761 62.7103 297.06 63.1143C297.358 63.5182 297.583 64.0024 297.732 64.5669C297.887 65.1258 297.964 65.7484 297.964 66.4346ZM296.42 66.6089V66.4346C296.42 65.9863 296.373 65.5658 296.279 65.1729C296.185 64.7744 296.039 64.4258 295.839 64.127C295.646 63.8226 295.397 63.5846 295.092 63.4131C294.788 63.236 294.425 63.1475 294.005 63.1475C293.618 63.1475 293.28 63.2139 292.992 63.3467C292.71 63.4795 292.469 63.6593 292.27 63.8862C292.071 64.1076 291.908 64.3621 291.78 64.6499C291.659 64.9321 291.567 65.2254 291.506 65.5298V67.6797C291.617 68.0671 291.772 68.4323 291.971 68.7754C292.17 69.113 292.436 69.3869 292.768 69.5972C293.1 69.8019 293.518 69.9043 294.021 69.9043C294.437 69.9043 294.793 69.8185 295.092 69.647C295.397 69.4699 295.646 69.2292 295.839 68.9248C296.039 68.6204 296.185 68.2718 296.279 67.8789C296.373 67.4805 296.42 67.0571 296.42 66.6089ZM299.517 66.6089V66.418C299.517 65.7705 299.611 65.1701 299.799 64.6167C299.987 64.0578 300.258 63.5736 300.612 63.1641C300.966 62.749 301.395 62.4281 301.899 62.2012C302.403 61.9688 302.967 61.8525 303.592 61.8525C304.223 61.8525 304.79 61.9688 305.294 62.2012C305.803 62.4281 306.235 62.749 306.589 63.1641C306.949 63.5736 307.222 64.0578 307.411 64.6167C307.599 65.1701 307.693 65.7705 307.693 66.418V66.6089C307.693 67.2563 307.599 67.8568 307.411 68.4102C307.222 68.9635 306.949 69.4478 306.589 69.8628C306.235 70.2723 305.806 70.5933 305.302 70.8257C304.804 71.0526 304.24 71.166 303.609 71.166C302.978 71.166 302.411 71.0526 301.907 70.8257C301.404 70.5933 300.972 70.2723 300.612 69.8628C300.258 69.4478 299.987 68.9635 299.799 68.4102C299.611 67.8568 299.517 67.2563 299.517 66.6089ZM301.052 66.418V66.6089C301.052 67.0571 301.105 67.4805 301.21 67.8789C301.315 68.2718 301.473 68.6204 301.683 68.9248C301.899 69.2292 302.167 69.4699 302.488 69.647C302.809 69.8185 303.183 69.9043 303.609 69.9043C304.029 69.9043 304.397 69.8185 304.713 69.647C305.034 69.4699 305.299 69.2292 305.51 68.9248C305.72 68.6204 305.878 68.2718 305.983 67.8789C306.094 67.4805 306.149 67.0571 306.149 66.6089V66.418C306.149 65.9753 306.094 65.5575 305.983 65.1646C305.878 64.7661 305.717 64.4147 305.501 64.1104C305.291 63.8005 305.026 63.557 304.705 63.3799C304.389 63.2028 304.018 63.1143 303.592 63.1143C303.172 63.1143 302.801 63.2028 302.48 63.3799C302.165 63.557 301.899 63.8005 301.683 64.1104C301.473 64.4147 301.315 64.7661 301.21 65.1646C301.105 65.5575 301.052 65.9753 301.052 66.418ZM313.835 67.0488H310.889L310.872 65.8203H313.279C313.755 65.8203 314.151 65.7733 314.466 65.6792C314.787 65.5851 315.028 65.444 315.188 65.2559C315.349 65.0677 315.429 64.8353 315.429 64.5586C315.429 64.3428 315.382 64.1546 315.288 63.9941C315.2 63.8281 315.064 63.6925 314.881 63.5874C314.699 63.4767 314.472 63.3965 314.201 63.3467C313.935 63.2913 313.622 63.2637 313.263 63.2637H311.295V71H309.76V62.0186H313.263C313.833 62.0186 314.345 62.0684 314.798 62.168C315.258 62.2676 315.648 62.4198 315.969 62.6245C316.295 62.8237 316.544 63.0783 316.716 63.3882C316.887 63.6981 316.973 64.0633 316.973 64.4839C316.973 64.755 316.918 65.0124 316.807 65.2559C316.696 65.4993 316.533 65.7152 316.317 65.9033C316.102 66.0915 315.836 66.2464 315.521 66.3682C315.205 66.4844 314.843 66.5591 314.433 66.5923L313.835 67.0488ZM313.835 71H310.333L311.096 69.7549H313.835C314.262 69.7549 314.616 69.7023 314.898 69.5972C315.18 69.4865 315.39 69.3315 315.529 69.1323C315.673 68.9276 315.745 68.6841 315.745 68.4019C315.745 68.1196 315.673 67.8789 315.529 67.6797C315.39 67.4749 315.18 67.32 314.898 67.2148C314.616 67.1042 314.262 67.0488 313.835 67.0488H311.503L311.52 65.8203H314.433L314.989 66.2852C315.482 66.3239 315.9 66.4456 316.243 66.6504C316.586 66.8551 316.846 67.1152 317.023 67.4307C317.2 67.7406 317.289 68.0781 317.289 68.4434C317.289 68.8639 317.208 69.2347 317.048 69.5557C316.893 69.8766 316.666 70.145 316.367 70.3608C316.068 70.5711 315.706 70.7316 315.28 70.8423C314.854 70.9474 314.372 71 313.835 71ZM324.643 69.4644V64.8408C324.643 64.4867 324.571 64.1795 324.427 63.9194C324.289 63.6538 324.079 63.4491 323.796 63.3052C323.514 63.1613 323.166 63.0894 322.75 63.0894C322.363 63.0894 322.023 63.1558 321.729 63.2886C321.442 63.4214 321.215 63.5957 321.049 63.8115C320.888 64.0273 320.808 64.2598 320.808 64.5088H319.272C319.272 64.1878 319.355 63.8696 319.521 63.5542C319.688 63.2388 319.925 62.9538 320.235 62.6992C320.551 62.4391 320.927 62.2344 321.364 62.085C321.807 61.93 322.299 61.8525 322.842 61.8525C323.495 61.8525 324.07 61.9632 324.568 62.1846C325.072 62.4059 325.465 62.7407 325.747 63.189C326.035 63.6317 326.179 64.1878 326.179 64.8574V69.041C326.179 69.3398 326.204 69.658 326.253 69.9956C326.309 70.3332 326.389 70.6237 326.494 70.8672V71H324.892C324.815 70.8229 324.754 70.5877 324.709 70.2944C324.665 69.9956 324.643 69.7189 324.643 69.4644ZM324.909 65.5547L324.925 66.6338H323.373C322.936 66.6338 322.546 66.6698 322.203 66.7417C321.86 66.8081 321.572 66.9105 321.339 67.0488C321.107 67.1872 320.93 67.3615 320.808 67.5718C320.686 67.7765 320.625 68.0173 320.625 68.2939C320.625 68.5762 320.689 68.8335 320.816 69.0659C320.944 69.2983 321.135 69.4837 321.389 69.6221C321.649 69.7549 321.967 69.8213 322.344 69.8213C322.814 69.8213 323.229 69.7217 323.589 69.5225C323.949 69.3232 324.234 69.0798 324.444 68.792C324.66 68.5042 324.776 68.2248 324.792 67.9536L325.448 68.6924C325.41 68.9248 325.304 69.1821 325.133 69.4644C324.961 69.7466 324.732 70.0177 324.444 70.2778C324.162 70.5324 323.824 70.7454 323.431 70.917C323.044 71.083 322.607 71.166 322.12 71.166C321.511 71.166 320.977 71.047 320.518 70.8091C320.064 70.5711 319.71 70.2529 319.455 69.8545C319.206 69.4505 319.082 68.9995 319.082 68.5015C319.082 68.02 319.176 67.5967 319.364 67.2314C319.552 66.8607 319.823 66.5535 320.177 66.3101C320.531 66.061 320.958 65.8729 321.456 65.7456C321.954 65.6183 322.51 65.5547 323.124 65.5547H324.909ZM334.687 65.9116V67.1567H329.939V65.9116H334.687ZM330.263 62.0186V71H328.727V62.0186H330.263ZM335.932 62.0186V71H334.388V62.0186H335.932ZM340.066 68.5679L344.208 62.0186H345.752V71H344.208V64.4507L340.066 71H338.539V62.0186H340.066V68.5679ZM351.944 71.166C351.319 71.166 350.752 71.0609 350.243 70.8506C349.739 70.6348 349.305 70.3332 348.939 69.9458C348.58 69.5584 348.303 69.0991 348.109 68.5679C347.916 68.0366 347.819 67.4556 347.819 66.8247V66.4761C347.819 65.7456 347.927 65.0954 348.143 64.5254C348.358 63.9499 348.652 63.4629 349.022 63.0645C349.393 62.666 349.814 62.3644 350.284 62.1597C350.755 61.9549 351.242 61.8525 351.745 61.8525C352.387 61.8525 352.94 61.9632 353.405 62.1846C353.876 62.4059 354.26 62.7158 354.559 63.1143C354.858 63.5072 355.079 63.972 355.223 64.5088C355.367 65.04 355.439 65.6211 355.439 66.252V66.9409H348.732V65.6875H353.903V65.5713C353.881 65.1729 353.798 64.7855 353.654 64.4092C353.516 64.0329 353.295 63.723 352.99 63.4795C352.686 63.236 352.271 63.1143 351.745 63.1143C351.396 63.1143 351.076 63.189 350.782 63.3384C350.489 63.4823 350.237 63.6981 350.027 63.9858C349.817 64.2736 349.653 64.625 349.537 65.04C349.421 65.4551 349.363 65.9338 349.363 66.4761V66.8247C349.363 67.2508 349.421 67.652 349.537 68.0283C349.659 68.3991 349.833 68.7256 350.06 69.0078C350.292 69.29 350.572 69.5114 350.898 69.6719C351.23 69.8324 351.607 69.9126 352.027 69.9126C352.57 69.9126 353.029 69.8019 353.405 69.5806C353.782 69.3592 354.111 69.0632 354.393 68.6924L355.323 69.4312C355.129 69.7244 354.883 70.0039 354.584 70.2695C354.285 70.5352 353.917 70.751 353.48 70.917C353.048 71.083 352.536 71.166 351.944 71.166ZM367.542 65.9116V67.1567H362.793V65.9116H367.542ZM363.117 62.0186V71H361.582V62.0186H363.117ZM368.787 62.0186V71H367.243V62.0186H368.787ZM376.556 69.4644V64.8408C376.556 64.4867 376.484 64.1795 376.34 63.9194C376.202 63.6538 375.992 63.4491 375.709 63.3052C375.427 63.1613 375.079 63.0894 374.664 63.0894C374.276 63.0894 373.936 63.1558 373.643 63.2886C373.355 63.4214 373.128 63.5957 372.962 63.8115C372.801 64.0273 372.721 64.2598 372.721 64.5088H371.186C371.186 64.1878 371.269 63.8696 371.435 63.5542C371.601 63.2388 371.839 62.9538 372.148 62.6992C372.464 62.4391 372.84 62.2344 373.277 62.085C373.72 61.93 374.213 61.8525 374.755 61.8525C375.408 61.8525 375.983 61.9632 376.481 62.1846C376.985 62.4059 377.378 62.7407 377.66 63.189C377.948 63.6317 378.092 64.1878 378.092 64.8574V69.041C378.092 69.3398 378.117 69.658 378.167 69.9956C378.222 70.3332 378.302 70.6237 378.407 70.8672V71H376.805C376.728 70.8229 376.667 70.5877 376.623 70.2944C376.578 69.9956 376.556 69.7189 376.556 69.4644ZM376.822 65.5547L376.838 66.6338H375.286C374.849 66.6338 374.459 66.6698 374.116 66.7417C373.773 66.8081 373.485 66.9105 373.252 67.0488C373.02 67.1872 372.843 67.3615 372.721 67.5718C372.599 67.7765 372.539 68.0173 372.539 68.2939C372.539 68.5762 372.602 68.8335 372.729 69.0659C372.857 69.2983 373.048 69.4837 373.302 69.6221C373.562 69.7549 373.881 69.8213 374.257 69.8213C374.727 69.8213 375.142 69.7217 375.502 69.5225C375.862 69.3232 376.147 69.0798 376.357 68.792C376.573 68.5042 376.689 68.2248 376.706 67.9536L377.361 68.6924C377.323 68.9248 377.217 69.1821 377.046 69.4644C376.874 69.7466 376.645 70.0177 376.357 70.2778C376.075 70.5324 375.737 70.7454 375.344 70.917C374.957 71.083 374.52 71.166 374.033 71.166C373.424 71.166 372.89 71.047 372.431 70.8091C371.977 70.5711 371.623 70.2529 371.368 69.8545C371.119 69.4505 370.995 68.9995 370.995 68.5015C370.995 68.02 371.089 67.5967 371.277 67.2314C371.465 66.8607 371.736 66.5535 372.09 66.3101C372.444 66.061 372.871 65.8729 373.369 65.7456C373.867 65.6183 374.423 65.5547 375.037 65.5547H376.822ZM386.26 63.7451V74.4531H384.716V62.0186H386.127L386.26 63.7451ZM392.311 66.4346V66.6089C392.311 67.2619 392.234 67.8678 392.079 68.4268C391.924 68.9801 391.697 69.4616 391.398 69.8711C391.105 70.2806 390.742 70.5988 390.311 70.8257C389.879 71.0526 389.384 71.166 388.825 71.166C388.255 71.166 387.751 71.0719 387.314 70.8838C386.877 70.6956 386.506 70.4217 386.202 70.062C385.897 69.7023 385.654 69.2707 385.471 68.7671C385.294 68.2635 385.172 67.6963 385.106 67.0654V66.1357C385.172 65.4717 385.297 64.8768 385.479 64.3511C385.662 63.8254 385.903 63.3771 386.202 63.0063C386.506 62.63 386.874 62.3451 387.306 62.1514C387.737 61.9521 388.235 61.8525 388.8 61.8525C389.364 61.8525 389.865 61.9632 390.302 62.1846C390.739 62.4004 391.107 62.7103 391.406 63.1143C391.705 63.5182 391.929 64.0024 392.079 64.5669C392.234 65.1258 392.311 65.7484 392.311 66.4346ZM390.767 66.6089V66.4346C390.767 65.9863 390.72 65.5658 390.626 65.1729C390.532 64.7744 390.385 64.4258 390.186 64.127C389.992 63.8226 389.743 63.5846 389.439 63.4131C389.135 63.236 388.772 63.1475 388.352 63.1475C387.964 63.1475 387.627 63.2139 387.339 63.3467C387.057 63.4795 386.816 63.6593 386.617 63.8862C386.417 64.1076 386.254 64.3621 386.127 64.6499C386.005 64.9321 385.914 65.2254 385.853 65.5298V67.6797C385.964 68.0671 386.119 68.4323 386.318 68.7754C386.517 69.113 386.783 69.3869 387.115 69.5972C387.447 69.8019 387.865 69.9043 388.368 69.9043C388.783 69.9043 389.14 69.8185 389.439 69.647C389.743 69.4699 389.992 69.2292 390.186 68.9248C390.385 68.6204 390.532 68.2718 390.626 67.8789C390.72 67.4805 390.767 67.0571 390.767 66.6089ZM395.532 65.1064H398.229C398.954 65.1064 399.566 65.2337 400.064 65.4883C400.562 65.7373 400.938 66.0832 401.193 66.5259C401.453 66.9631 401.583 67.4611 401.583 68.02C401.583 68.4351 401.511 68.8252 401.367 69.1904C401.223 69.5501 401.007 69.8656 400.72 70.1367C400.438 70.4079 400.086 70.6209 399.666 70.7759C399.25 70.9253 398.772 71 398.229 71H394.411V62.0186H395.947V69.7383H398.229C398.672 69.7383 399.026 69.658 399.292 69.4976C399.558 69.3371 399.749 69.1296 399.865 68.875C399.981 68.6204 400.039 68.3548 400.039 68.0781C400.039 67.807 399.981 67.5413 399.865 67.2812C399.749 67.0212 399.558 66.8053 399.292 66.6338C399.026 66.4567 398.672 66.3682 398.229 66.3682H395.532V65.1064ZM404.779 62.0186V71H403.243V62.0186H404.779ZM413.561 65.9116V67.1567H408.813V65.9116H413.561ZM409.137 62.0186V71H407.601V62.0186H409.137ZM414.806 62.0186V71H413.262V62.0186H414.806ZM418.948 62.0186V71H417.413V62.0186H418.948ZM424.842 62.0186L420.583 67.165H418.434L418.201 65.8203H419.961L422.974 62.0186H424.842ZM423.19 71L419.886 66.9326L420.874 65.8203L425.141 71H423.19ZM430.071 71.166C429.446 71.166 428.879 71.0609 428.37 70.8506C427.866 70.6348 427.432 70.3332 427.066 69.9458C426.707 69.5584 426.43 69.0991 426.236 68.5679C426.043 68.0366 425.946 67.4556 425.946 66.8247V66.4761C425.946 65.7456 426.054 65.0954 426.27 64.5254C426.485 63.9499 426.779 63.4629 427.149 63.0645C427.52 62.666 427.941 62.3644 428.411 62.1597C428.882 61.9549 429.368 61.8525 429.872 61.8525C430.514 61.8525 431.067 61.9632 431.532 62.1846C432.003 62.4059 432.387 62.7158 432.686 63.1143C432.985 63.5072 433.206 63.972 433.35 64.5088C433.494 65.04 433.566 65.6211 433.566 66.252V66.9409H426.859V65.6875H432.03V65.5713C432.008 65.1729 431.925 64.7855 431.781 64.4092C431.643 64.0329 431.422 63.723 431.117 63.4795C430.813 63.236 430.398 63.1143 429.872 63.1143C429.523 63.1143 429.202 63.189 428.909 63.3384C428.616 63.4823 428.364 63.6981 428.154 63.9858C427.944 64.2736 427.78 64.625 427.664 65.04C427.548 65.4551 427.49 65.9338 427.49 66.4761V66.8247C427.49 67.2508 427.548 67.652 427.664 68.0283C427.786 68.3991 427.96 68.7256 428.187 69.0078C428.419 69.29 428.699 69.5114 429.025 69.6719C429.357 69.8324 429.734 69.9126 430.154 69.9126C430.697 69.9126 431.156 69.8019 431.532 69.5806C431.909 69.3592 432.238 69.0632 432.52 68.6924L433.45 69.4312C433.256 69.7244 433.01 70.0039 432.711 70.2695C432.412 70.5352 432.044 70.751 431.607 70.917C431.175 71.083 430.663 71.166 430.071 71.166ZM444.266 66.2603H441.037V64.957H444.266C444.891 64.957 445.397 64.8574 445.785 64.6582C446.172 64.459 446.454 64.1823 446.631 63.8281C446.814 63.474 446.905 63.07 446.905 62.6162C446.905 62.2012 446.814 61.811 446.631 61.4458C446.454 61.0806 446.172 60.7873 445.785 60.5659C445.397 60.339 444.891 60.2256 444.266 60.2256H441.41V71H439.808V58.9141H444.266C445.179 58.9141 445.951 59.0718 446.582 59.3872C447.212 59.7026 447.691 60.1398 448.018 60.6987C448.344 61.2521 448.507 61.8857 448.507 62.5996C448.507 63.3743 448.344 64.0356 448.018 64.5835C447.691 65.1313 447.212 65.5492 446.582 65.8369C445.951 66.1191 445.179 66.2603 444.266 66.2603ZM454.725 60.1177H456.725C457.422 60.1177 458.067 60.2367 458.659 60.4746C459.257 60.707 459.777 61.0391 460.22 61.4707C460.668 61.9023 461.017 62.417 461.266 63.0146C461.515 63.6068 461.639 64.2625 461.639 64.9819C461.639 65.7013 461.515 66.3599 461.266 66.9575C461.017 67.5552 460.668 68.0726 460.22 68.5098C459.777 68.9414 459.257 69.2762 458.659 69.5142C458.067 69.7466 457.422 69.8628 456.725 69.8628H454.725C454.027 69.8628 453.383 69.7466 452.791 69.5142C452.198 69.2762 451.678 68.9414 451.23 68.5098C450.787 68.0781 450.441 67.5662 450.192 66.9741C449.949 66.3765 449.827 65.7179 449.827 64.9985C449.827 64.2791 449.949 63.6234 450.192 63.0312C450.441 62.4336 450.787 61.9189 451.23 61.4873C451.678 61.0501 452.198 60.7126 452.791 60.4746C453.383 60.2367 454.027 60.1177 454.725 60.1177ZM454.725 61.3794C454 61.3794 453.385 61.5316 452.882 61.8359C452.378 62.1348 451.996 62.5553 451.736 63.0977C451.476 63.64 451.346 64.2736 451.346 64.9985C451.346 65.5464 451.418 66.0417 451.562 66.4844C451.711 66.9271 451.93 67.3062 452.218 67.6216C452.506 67.937 452.86 68.1805 453.28 68.3521C453.701 68.5236 454.182 68.6094 454.725 68.6094H456.742C457.461 68.6094 458.07 68.46 458.568 68.1611C459.071 67.8568 459.453 67.4334 459.713 66.8911C459.979 66.3433 460.112 65.7069 460.112 64.9819C460.112 64.4396 460.037 63.9471 459.888 63.5044C459.738 63.0617 459.52 62.6826 459.232 62.3672C458.95 62.0518 458.598 61.8083 458.178 61.6367C457.763 61.4652 457.284 61.3794 456.742 61.3794H454.725ZM456.501 58.416V71.498H454.965V58.416H456.501Z" fill="black"/>
<defs>
<filter id="filter0_d_802_760" x="564.052" y="12.0859" width="106.191" height="106.163" filterUnits="userSpaceOnUse" color-interpolation-filters="sRGB">
<feFlood flood-opacity="0" result="BackgroundImageFix"/>
<feColorMatrix in="SourceAlpha" type="matrix" values="0 0 0 0 0 0 0 0 0 0 0 0 0 0 0 0 0 0 127 0" result="hardAlpha"/>
<feOffset/>
<feGaussianBlur stdDeviation="12"/>
<feComposite in2="hardAlpha" operator="out"/>
<feColorMatrix type="matrix" values="0 0 0 0 0.579167 0 0 0 0 0.579167 0 0 0 0 0.579167 0 0 0 0.3 0"/>
<feBlend mode="normal" in2="BackgroundImageFix" result="effect1_dropShadow_802_760"/>
<feBlend mode="normal" in="SourceGraphic" in2="effect1_dropShadow_802_760" result="shape"/>
</filter>
</defs>
</svg>
