<svg width="671" height="125" viewBox="0 0 671 125" fill="none" xmlns="http://www.w3.org/2000/svg">
<path d="M495 65L613 65" stroke="#00A3FF" stroke-miterlimit="10" stroke-linecap="round"/>
<g filter="url(#filter0_d_804_877)">
<path d="M637.721 85.7315C649.083 74.3745 649.083 55.961 637.721 44.6039C626.358 33.2468 607.936 33.2468 596.574 44.6039C585.211 55.961 585.211 74.3745 596.574 85.7315C607.936 97.0886 626.358 97.0886 637.721 85.7315Z" fill="white"/>
</g>
<path d="M626.241 65.1647C626.246 66.8873 625.741 68.573 624.789 70.009C623.837 71.445 622.481 72.5671 620.892 73.2338C619.302 73.9004 617.551 74.0817 615.859 73.7549C614.167 73.428 612.61 72.6076 611.383 71.3971C610.157 70.1866 609.317 68.6402 608.969 66.9531C608.621 65.2659 608.78 63.5135 609.427 61.9169C610.075 60.3202 611.18 58.9509 612.605 57.9816C614.03 57.0122 615.71 56.4863 617.433 56.4702C618.585 56.4557 619.727 56.67 620.795 57.1004C621.863 57.5309 622.835 58.1691 623.655 58.9779C624.474 59.7867 625.124 60.75 625.568 61.8121C626.012 62.8741 626.241 64.0137 626.241 65.1647V65.1647Z" fill="#00A3FF"/>
<path d="M617.542 68.5714C619.425 68.5714 620.951 67.0461 620.951 65.1645C620.951 63.2829 619.425 61.7576 617.542 61.7576C615.66 61.7576 614.134 63.2829 614.134 65.1645C614.134 67.0461 615.66 68.5714 617.542 68.5714Z" fill="white"/>
<path d="M497.452 65.1645C497.457 66.8906 496.95 68.5796 495.994 70.0174C495.039 71.4553 493.678 72.5774 492.084 73.2417C490.49 73.906 488.735 74.0827 487.04 73.7492C485.346 73.4158 483.789 72.5873 482.565 71.3686C481.342 70.1499 480.509 68.5959 480.17 66.9033C479.831 65.2107 480.002 63.4557 480.662 61.8604C481.321 60.2651 482.44 58.9013 483.875 57.9418C485.311 56.9822 486.999 56.47 488.726 56.47C491.035 56.47 493.251 57.3851 494.886 59.0149C496.522 60.6446 497.445 62.856 497.452 65.1645V65.1645Z" fill="#00A3FF"/>
<path d="M488.753 68.5714C490.636 68.5714 492.162 67.0461 492.162 65.1645C492.162 63.2829 490.636 61.7576 488.753 61.7576C486.871 61.7576 485.345 63.2829 485.345 65.1645C485.345 67.0461 486.871 68.5714 488.753 68.5714Z" fill="white"/>
<path d="M93.3041 93.2599C110.481 76.0913 110.481 48.2554 93.304 31.0867C76.1272 13.9181 48.2782 13.918 31.1014 31.0867C13.9246 48.2553 13.9245 76.0913 31.1014 93.26C48.2782 110.429 76.1273 110.429 93.3041 93.2599Z" fill="#00A3FF"/>
<path d="M61.4023 48.1655H66.4023V76.1733H60.4062V55.7827H55.6016V51.9741C56.4609 51.87 57.2487 51.6681 57.9648 51.3687C58.681 51.0562 59.2344 50.7241 59.625 50.3726C60.0286 50.021 60.3672 49.6825 60.6406 49.3569C60.9271 49.0184 61.1289 48.7319 61.2461 48.4976L61.4023 48.1655Z" fill="white"/>
<path d="M143.105 56.1978H141.669V55.1768H143.047C143.656 55.1768 144.148 55.091 144.524 54.9194C144.901 54.7479 145.175 54.5099 145.346 54.2056C145.518 53.9012 145.604 53.5498 145.604 53.1514C145.604 52.7695 145.509 52.4209 145.321 52.1055C145.133 51.7845 144.843 51.5299 144.45 51.3418C144.057 51.1481 143.55 51.0513 142.931 51.0513C142.466 51.0513 142.045 51.1398 141.669 51.3169C141.293 51.4884 140.994 51.7292 140.772 52.0391C140.551 52.3434 140.44 52.6948 140.44 53.0933H138.838C138.838 52.5786 138.946 52.1165 139.162 51.707C139.378 51.292 139.674 50.9406 140.05 50.6528C140.427 50.3595 140.861 50.1354 141.354 49.9805C141.852 49.8255 142.377 49.748 142.931 49.748C143.578 49.748 144.165 49.8228 144.69 49.9722C145.216 50.116 145.667 50.3319 146.043 50.6196C146.42 50.9074 146.708 51.2643 146.907 51.6904C147.106 52.1165 147.206 52.6118 147.206 53.1763C147.206 53.5913 147.109 53.9814 146.915 54.3467C146.721 54.7119 146.445 55.0329 146.085 55.3096C145.725 55.5863 145.294 55.8049 144.79 55.9653C144.286 56.1203 143.725 56.1978 143.105 56.1978ZM141.669 55.4922H143.105C143.786 55.4922 144.392 55.5614 144.923 55.6997C145.454 55.8381 145.902 56.04 146.268 56.3057C146.633 56.5713 146.91 56.9006 147.098 57.2935C147.291 57.6808 147.388 58.1263 147.388 58.6299C147.388 59.1943 147.278 59.6951 147.056 60.1323C146.84 60.5695 146.533 60.9403 146.135 61.2446C145.736 61.549 145.263 61.7786 144.715 61.9336C144.173 62.0885 143.578 62.166 142.931 62.166C142.41 62.166 141.896 62.0996 141.387 61.9668C140.883 61.8285 140.427 61.6182 140.017 61.3359C139.608 61.0482 139.278 60.6829 139.029 60.2402C138.786 59.7975 138.664 59.2663 138.664 58.6465H140.266C140.266 59.0505 140.377 59.4212 140.598 59.7588C140.825 60.0964 141.138 60.3675 141.536 60.5723C141.935 60.7715 142.399 60.8711 142.931 60.8711C143.539 60.8711 144.054 60.777 144.475 60.5889C144.901 60.3952 145.224 60.1323 145.446 59.8003C145.673 59.4627 145.786 59.0837 145.786 58.6631C145.786 58.2923 145.725 57.9714 145.604 57.7002C145.487 57.4235 145.313 57.1966 145.081 57.0195C144.854 56.8424 144.569 56.7124 144.226 56.6294C143.888 56.5409 143.495 56.4966 143.047 56.4966H141.669V55.4922ZM155.357 56.9116V58.1567H150.609V56.9116H155.357ZM150.933 53.0186V62H149.397V53.0186H150.933ZM156.602 53.0186V62H155.058V53.0186H156.602ZM164.372 60.4644V55.8408C164.372 55.4867 164.3 55.1795 164.156 54.9194C164.017 54.6538 163.807 54.4491 163.525 54.3052C163.243 54.1613 162.894 54.0894 162.479 54.0894C162.092 54.0894 161.751 54.1558 161.458 54.2886C161.17 54.4214 160.943 54.5957 160.777 54.8115C160.617 55.0273 160.537 55.2598 160.537 55.5088H159.001C159.001 55.1878 159.084 54.8696 159.25 54.5542C159.416 54.2388 159.654 53.9538 159.964 53.6992C160.279 53.4391 160.656 53.2344 161.093 53.085C161.535 52.93 162.028 52.8525 162.57 52.8525C163.223 52.8525 163.799 52.9632 164.297 53.1846C164.8 53.4059 165.193 53.7407 165.476 54.189C165.763 54.6317 165.907 55.1878 165.907 55.8574V60.041C165.907 60.3398 165.932 60.658 165.982 60.9956C166.037 61.3332 166.118 61.6237 166.223 61.8672V62H164.621C164.543 61.8229 164.482 61.5877 164.438 61.2944C164.394 60.9956 164.372 60.7189 164.372 60.4644ZM164.637 56.5547L164.654 57.6338H163.102C162.664 57.6338 162.274 57.6698 161.931 57.7417C161.588 57.8081 161.3 57.9105 161.068 58.0488C160.835 58.1872 160.658 58.3615 160.537 58.5718C160.415 58.7765 160.354 59.0173 160.354 59.2939C160.354 59.5762 160.418 59.8335 160.545 60.0659C160.672 60.2983 160.863 60.4837 161.118 60.6221C161.378 60.7549 161.696 60.8213 162.072 60.8213C162.543 60.8213 162.958 60.7217 163.317 60.5225C163.677 60.3232 163.962 60.0798 164.172 59.792C164.388 59.5042 164.504 59.2248 164.521 58.9536L165.177 59.6924C165.138 59.9248 165.033 60.1821 164.861 60.4644C164.69 60.7466 164.46 61.0177 164.172 61.2778C163.89 61.5324 163.553 61.7454 163.16 61.917C162.772 62.083 162.335 62.166 161.848 62.166C161.239 62.166 160.705 62.047 160.246 61.8091C159.792 61.5711 159.438 61.2529 159.184 60.8545C158.935 60.4505 158.81 59.9995 158.81 59.5015C158.81 59.02 158.904 58.5967 159.092 58.2314C159.28 57.8607 159.552 57.5535 159.906 57.3101C160.26 57.061 160.686 56.8729 161.184 56.7456C161.682 56.6183 162.238 56.5547 162.853 56.5547H164.637ZM169.991 53.0186V62H168.456V53.0186H169.991ZM175.885 53.0186L171.626 58.165H169.477L169.244 56.8203H171.004L174.017 53.0186H175.885ZM174.233 62L170.929 57.9326L171.917 56.8203L176.184 62H174.233ZM176.931 57.6089V57.418C176.931 56.7705 177.025 56.1701 177.213 55.6167C177.401 55.0578 177.672 54.5736 178.026 54.1641C178.381 53.749 178.809 53.4281 179.313 53.2012C179.817 52.9688 180.381 52.8525 181.006 52.8525C181.637 52.8525 182.204 52.9688 182.708 53.2012C183.217 53.4281 183.649 53.749 184.003 54.1641C184.363 54.5736 184.637 55.0578 184.825 55.6167C185.013 56.1701 185.107 56.7705 185.107 57.418V57.6089C185.107 58.2563 185.013 58.8568 184.825 59.4102C184.637 59.9635 184.363 60.4478 184.003 60.8628C183.649 61.2723 183.22 61.5933 182.716 61.8257C182.218 62.0526 181.654 62.166 181.023 62.166C180.392 62.166 179.825 62.0526 179.321 61.8257C178.818 61.5933 178.386 61.2723 178.026 60.8628C177.672 60.4478 177.401 59.9635 177.213 59.4102C177.025 58.8568 176.931 58.2563 176.931 57.6089ZM178.466 57.418V57.6089C178.466 58.0571 178.519 58.4805 178.624 58.8789C178.729 59.2718 178.887 59.6204 179.097 59.9248C179.313 60.2292 179.581 60.4699 179.902 60.647C180.223 60.8185 180.597 60.9043 181.023 60.9043C181.444 60.9043 181.812 60.8185 182.127 60.647C182.448 60.4699 182.714 60.2292 182.924 59.9248C183.134 59.6204 183.292 59.2718 183.397 58.8789C183.508 58.4805 183.563 58.0571 183.563 57.6089V57.418C183.563 56.9753 183.508 56.5575 183.397 56.1646C183.292 55.7661 183.131 55.4147 182.916 55.1104C182.705 54.8005 182.44 54.557 182.119 54.3799C181.803 54.2028 181.432 54.1143 181.006 54.1143C180.586 54.1143 180.215 54.2028 179.894 54.3799C179.579 54.557 179.313 54.8005 179.097 55.1104C178.887 55.4147 178.729 55.7661 178.624 56.1646C178.519 56.5575 178.466 56.9753 178.466 57.418ZM192.196 59.958L195.25 53.0186H196.728L192.727 62H191.665L187.68 53.0186H189.158L192.196 59.958ZM188.709 53.0186V62H187.174V53.0186H188.709ZM195.632 62V53.0186H197.176V62H195.632ZM203.244 60.9043C203.609 60.9043 203.947 60.8296 204.257 60.6802C204.567 60.5308 204.821 60.326 205.021 60.0659C205.22 59.8003 205.333 59.4987 205.361 59.1611H206.822C206.794 59.6924 206.614 60.1877 206.282 60.647C205.956 61.1007 205.527 61.4688 204.996 61.751C204.464 62.0277 203.881 62.166 203.244 62.166C202.569 62.166 201.98 62.047 201.476 61.8091C200.978 61.5711 200.563 61.2446 200.231 60.8296C199.904 60.4146 199.658 59.9386 199.492 59.4019C199.332 58.8595 199.251 58.2868 199.251 57.6836V57.335C199.251 56.7318 199.332 56.1618 199.492 55.625C199.658 55.0827 199.904 54.604 200.231 54.189C200.563 53.7739 200.978 53.4474 201.476 53.2095C201.98 52.9715 202.569 52.8525 203.244 52.8525C203.947 52.8525 204.561 52.9964 205.087 53.2842C205.613 53.5664 206.025 53.9538 206.324 54.4463C206.628 54.9333 206.794 55.4867 206.822 56.1064H205.361C205.333 55.7357 205.228 55.4009 205.045 55.1021C204.868 54.8032 204.625 54.5653 204.315 54.3882C204.011 54.2056 203.654 54.1143 203.244 54.1143C202.774 54.1143 202.378 54.2083 202.057 54.3965C201.742 54.5791 201.49 54.8281 201.302 55.1436C201.119 55.4535 200.986 55.7993 200.903 56.1812C200.826 56.5575 200.787 56.9421 200.787 57.335V57.6836C200.787 58.0765 200.826 58.4639 200.903 58.8457C200.981 59.2275 201.111 59.5734 201.293 59.8833C201.482 60.1932 201.733 60.4422 202.049 60.6304C202.37 60.813 202.768 60.9043 203.244 60.9043ZM212.209 53.0186V62H210.665V53.0186H212.209ZM215.222 53.0186V54.2637H207.71V53.0186H215.222ZM220.95 58.0488H218.003L217.986 56.8203H220.394C220.869 56.8203 221.265 56.7733 221.581 56.6792C221.902 56.5851 222.142 56.444 222.303 56.2559C222.463 56.0677 222.543 55.8353 222.543 55.5586C222.543 55.3428 222.496 55.1546 222.402 54.9941C222.314 54.8281 222.178 54.6925 221.996 54.5874C221.813 54.4767 221.586 54.3965 221.315 54.3467C221.049 54.2913 220.737 54.2637 220.377 54.2637H218.41V62H216.874V53.0186H220.377C220.947 53.0186 221.459 53.0684 221.913 53.168C222.372 53.2676 222.762 53.4198 223.083 53.6245C223.41 53.8237 223.659 54.0783 223.83 54.3882C224.002 54.6981 224.087 55.0633 224.087 55.4839C224.087 55.755 224.032 56.0124 223.921 56.2559C223.811 56.4993 223.647 56.7152 223.432 56.9033C223.216 57.0915 222.95 57.2464 222.635 57.3682C222.319 57.4844 221.957 57.5591 221.547 57.5923L220.95 58.0488ZM220.95 62H217.447L218.21 60.7549H220.95C221.376 60.7549 221.73 60.7023 222.012 60.5972C222.294 60.4865 222.505 60.3315 222.643 60.1323C222.787 59.9276 222.859 59.6841 222.859 59.4019C222.859 59.1196 222.787 58.8789 222.643 58.6797C222.505 58.4749 222.294 58.32 222.012 58.2148C221.73 58.1042 221.376 58.0488 220.95 58.0488H218.617L218.634 56.8203H221.547L222.104 57.2852C222.596 57.3239 223.014 57.4456 223.357 57.6504C223.7 57.8551 223.96 58.1152 224.137 58.4307C224.314 58.7406 224.403 59.0781 224.403 59.4434C224.403 59.8639 224.323 60.2347 224.162 60.5557C224.007 60.8766 223.78 61.145 223.481 61.3608C223.183 61.5711 222.82 61.7316 222.394 61.8423C221.968 61.9474 221.486 62 220.95 62ZM226.055 57.6089V57.418C226.055 56.7705 226.149 56.1701 226.337 55.6167C226.525 55.0578 226.796 54.5736 227.15 54.1641C227.505 53.749 227.933 53.4281 228.437 53.2012C228.941 52.9688 229.505 52.8525 230.13 52.8525C230.761 52.8525 231.328 52.9688 231.832 53.2012C232.341 53.4281 232.773 53.749 233.127 54.1641C233.487 54.5736 233.761 55.0578 233.949 55.6167C234.137 56.1701 234.231 56.7705 234.231 57.418V57.6089C234.231 58.2563 234.137 58.8568 233.949 59.4102C233.761 59.9635 233.487 60.4478 233.127 60.8628C232.773 61.2723 232.344 61.5933 231.84 61.8257C231.342 62.0526 230.778 62.166 230.147 62.166C229.516 62.166 228.949 62.0526 228.445 61.8257C227.942 61.5933 227.51 61.2723 227.15 60.8628C226.796 60.4478 226.525 59.9635 226.337 59.4102C226.149 58.8568 226.055 58.2563 226.055 57.6089ZM227.59 57.418V57.6089C227.59 58.0571 227.643 58.4805 227.748 58.8789C227.853 59.2718 228.011 59.6204 228.221 59.9248C228.437 60.2292 228.705 60.4699 229.026 60.647C229.347 60.8185 229.721 60.9043 230.147 60.9043C230.568 60.9043 230.936 60.8185 231.251 60.647C231.572 60.4699 231.838 60.2292 232.048 59.9248C232.258 59.6204 232.416 59.2718 232.521 58.8789C232.632 58.4805 232.687 58.0571 232.687 57.6089V57.418C232.687 56.9753 232.632 56.5575 232.521 56.1646C232.416 55.7661 232.255 55.4147 232.04 55.1104C231.829 54.8005 231.564 54.557 231.243 54.3799C230.927 54.2028 230.556 54.1143 230.13 54.1143C229.71 54.1143 229.339 54.2028 229.018 54.3799C228.703 54.557 228.437 54.8005 228.221 55.1104C228.011 55.4147 227.853 55.7661 227.748 56.1646C227.643 56.5575 227.59 56.9753 227.59 57.418ZM236.182 61.1865C236.182 60.9264 236.262 60.7078 236.422 60.5308C236.588 60.3481 236.826 60.2568 237.136 60.2568C237.446 60.2568 237.681 60.3481 237.842 60.5308C238.008 60.7078 238.091 60.9264 238.091 61.1865C238.091 61.4411 238.008 61.6569 237.842 61.834C237.681 62.0111 237.446 62.0996 237.136 62.0996C236.826 62.0996 236.588 62.0111 236.422 61.834C236.262 61.6569 236.182 61.4411 236.182 61.1865ZM254.319 49.9141V62H252.725V51.2256H246.765V62H245.163V49.9141H254.319ZM256.585 57.6089V57.418C256.585 56.7705 256.679 56.1701 256.867 55.6167C257.055 55.0578 257.326 54.5736 257.681 54.1641C258.035 53.749 258.464 53.4281 258.967 53.2012C259.471 52.9688 260.035 52.8525 260.661 52.8525C261.292 52.8525 261.859 52.9688 262.362 53.2012C262.871 53.4281 263.303 53.749 263.657 54.1641C264.017 54.5736 264.291 55.0578 264.479 55.6167C264.667 56.1701 264.761 56.7705 264.761 57.418V57.6089C264.761 58.2563 264.667 58.8568 264.479 59.4102C264.291 59.9635 264.017 60.4478 263.657 60.8628C263.303 61.2723 262.874 61.5933 262.371 61.8257C261.873 62.0526 261.308 62.166 260.677 62.166C260.046 62.166 259.479 62.0526 258.976 61.8257C258.472 61.5933 258.04 61.2723 257.681 60.8628C257.326 60.4478 257.055 59.9635 256.867 59.4102C256.679 58.8568 256.585 58.2563 256.585 57.6089ZM258.121 57.418V57.6089C258.121 58.0571 258.173 58.4805 258.278 58.8789C258.383 59.2718 258.541 59.6204 258.751 59.9248C258.967 60.2292 259.236 60.4699 259.557 60.647C259.878 60.8185 260.251 60.9043 260.677 60.9043C261.098 60.9043 261.466 60.8185 261.781 60.647C262.102 60.4699 262.368 60.2292 262.578 59.9248C262.788 59.6204 262.946 59.2718 263.051 58.8789C263.162 58.4805 263.217 58.0571 263.217 57.6089V57.418C263.217 56.9753 263.162 56.5575 263.051 56.1646C262.946 55.7661 262.786 55.4147 262.57 55.1104C262.36 54.8005 262.094 54.557 261.773 54.3799C261.458 54.2028 261.087 54.1143 260.661 54.1143C260.24 54.1143 259.869 54.2028 259.548 54.3799C259.233 54.557 258.967 54.8005 258.751 55.1104C258.541 55.4147 258.383 55.7661 258.278 56.1646C258.173 56.5575 258.121 56.9753 258.121 57.418ZM272.556 53.0186V54.2886H268.214V53.0186H272.556ZM273.909 53.0186V62H272.373V53.0186H273.909ZM267.841 53.0186H269.385L269.152 57.3516C269.114 58.0212 269.05 58.6133 268.961 59.1279C268.878 59.637 268.762 60.0742 268.613 60.4395C268.469 60.8047 268.286 61.1035 268.065 61.3359C267.849 61.5628 267.589 61.7316 267.285 61.8423C266.98 61.9474 266.629 62 266.23 62H265.749V60.647L266.081 60.6221C266.319 60.6055 266.521 60.5501 266.687 60.4561C266.859 60.362 267.002 60.2236 267.119 60.041C267.235 59.8529 267.329 59.6121 267.401 59.3188C267.478 59.0256 267.536 58.6769 267.575 58.2729C267.619 57.869 267.653 57.3986 267.675 56.8618L267.841 53.0186ZM278.906 61.0703L281.404 53.0186H283.048L279.445 63.3862C279.362 63.6076 279.252 63.8455 279.113 64.1001C278.98 64.3602 278.809 64.6064 278.599 64.8389C278.388 65.0713 278.134 65.2594 277.835 65.4033C277.542 65.5527 277.19 65.6274 276.781 65.6274C276.659 65.6274 276.504 65.6108 276.316 65.5776C276.128 65.5444 275.995 65.5168 275.917 65.4946L275.909 64.2495C275.953 64.255 276.023 64.2606 276.117 64.2661C276.216 64.2772 276.285 64.2827 276.324 64.2827C276.673 64.2827 276.969 64.2357 277.212 64.1416C277.456 64.0531 277.661 63.9009 277.827 63.6851C277.998 63.4748 278.145 63.1842 278.267 62.8135L278.906 61.0703ZM277.071 53.0186L279.404 59.9912L279.802 61.6099L278.698 62.1743L275.395 53.0186H277.071ZM291.208 53.0186V62H289.672V53.0186H291.208ZM290.685 57.144V58.4058C290.375 58.522 290.059 58.6271 289.738 58.7212C289.423 58.8097 289.088 58.8817 288.734 58.937C288.385 58.9868 288.006 59.0117 287.597 59.0117C286.888 59.0117 286.274 58.89 285.754 58.6465C285.234 58.3975 284.833 58.0239 284.55 57.5259C284.268 57.0223 284.127 56.3887 284.127 55.625V53.002H285.663V55.625C285.663 56.123 285.737 56.527 285.887 56.8369C286.036 57.1468 286.255 57.3765 286.542 57.5259C286.83 57.6698 287.182 57.7417 287.597 57.7417C287.995 57.7417 288.369 57.7168 288.717 57.667C289.071 57.6117 289.409 57.5397 289.73 57.4512C290.056 57.3626 290.375 57.2603 290.685 57.144ZM297.408 62.166C296.783 62.166 296.216 62.0609 295.707 61.8506C295.203 61.6348 294.769 61.3332 294.403 60.9458C294.044 60.5584 293.767 60.0991 293.573 59.5679C293.38 59.0366 293.283 58.4556 293.283 57.8247V57.4761C293.283 56.7456 293.391 56.0954 293.606 55.5254C293.822 54.9499 294.116 54.4629 294.486 54.0645C294.857 53.666 295.278 53.3644 295.748 53.1597C296.218 52.9549 296.705 52.8525 297.209 52.8525C297.851 52.8525 298.404 52.9632 298.869 53.1846C299.34 53.4059 299.724 53.7158 300.023 54.1143C300.322 54.5072 300.543 54.972 300.687 55.5088C300.831 56.04 300.903 56.6211 300.903 57.252V57.9409H294.196V56.6875H299.367V56.5713C299.345 56.1729 299.262 55.7855 299.118 55.4092C298.98 55.0329 298.758 54.723 298.454 54.4795C298.15 54.236 297.735 54.1143 297.209 54.1143C296.86 54.1143 296.539 54.189 296.246 54.3384C295.953 54.4823 295.701 54.6981 295.491 54.9858C295.28 55.2736 295.117 55.625 295.001 56.04C294.885 56.4551 294.827 56.9338 294.827 57.4761V57.8247C294.827 58.2508 294.885 58.652 295.001 59.0283C295.123 59.3991 295.297 59.7256 295.524 60.0078C295.756 60.29 296.036 60.5114 296.362 60.6719C296.694 60.8324 297.071 60.9126 297.491 60.9126C298.034 60.9126 298.493 60.8019 298.869 60.5806C299.245 60.3592 299.575 60.0632 299.857 59.6924L300.787 60.4312C300.593 60.7244 300.347 61.0039 300.048 61.2695C299.749 61.5352 299.381 61.751 298.944 61.917C298.512 62.083 298 62.166 297.408 62.166ZM308.789 56.9116V58.1567H304.041V56.9116H308.789ZM304.364 53.0186V62H302.829V53.0186H304.364ZM310.034 53.0186V62H308.49V53.0186H310.034ZM314.167 59.5679L318.31 53.0186H319.854V62H318.31V55.4507L314.167 62H312.64V53.0186H314.167V59.5679ZM326.046 62.166C325.421 62.166 324.853 62.0609 324.344 61.8506C323.841 61.6348 323.406 61.3332 323.041 60.9458C322.681 60.5584 322.405 60.0991 322.211 59.5679C322.017 59.0366 321.92 58.4556 321.92 57.8247V57.4761C321.92 56.7456 322.028 56.0954 322.244 55.5254C322.46 54.9499 322.753 54.4629 323.124 54.0645C323.495 53.666 323.915 53.3644 324.386 53.1597C324.856 52.9549 325.343 52.8525 325.847 52.8525C326.489 52.8525 327.042 52.9632 327.507 53.1846C327.977 53.4059 328.362 53.7158 328.661 54.1143C328.959 54.5072 329.181 54.972 329.325 55.5088C329.469 56.04 329.541 56.6211 329.541 57.252V57.9409H322.833V56.6875H328.005V56.5713C327.983 56.1729 327.9 55.7855 327.756 55.4092C327.618 55.0329 327.396 54.723 327.092 54.4795C326.787 54.236 326.372 54.1143 325.847 54.1143C325.498 54.1143 325.177 54.189 324.884 54.3384C324.59 54.4823 324.339 54.6981 324.128 54.9858C323.918 55.2736 323.755 55.625 323.639 56.04C323.522 56.4551 323.464 56.9338 323.464 57.4761V57.8247C323.464 58.2508 323.522 58.652 323.639 59.0283C323.76 59.3991 323.935 59.7256 324.162 60.0078C324.394 60.29 324.674 60.5114 325 60.6719C325.332 60.8324 325.708 60.9126 326.129 60.9126C326.671 60.9126 327.131 60.8019 327.507 60.5806C327.883 60.3592 328.212 60.0632 328.495 59.6924L329.424 60.4312C329.231 60.7244 328.984 61.0039 328.686 61.2695C328.387 61.5352 328.019 61.751 327.582 61.917C327.15 62.083 326.638 62.166 326.046 62.166ZM337.21 59.5679L341.353 53.0186H342.896V62H341.353V55.4507L337.21 62H335.683V53.0186H337.21V59.5679ZM351.455 56.9116V58.1567H346.707V56.9116H351.455ZM347.03 53.0186V62H345.495V53.0186H347.03ZM352.7 53.0186V62H351.156V53.0186H352.7ZM365.5 57.667V57.8413C365.5 58.4722 365.43 59.0532 365.292 59.5845C365.154 60.1102 364.946 60.5667 364.669 60.9541C364.398 61.3415 364.061 61.6431 363.657 61.8589C363.253 62.0692 362.785 62.1743 362.254 62.1743C361.817 62.1743 361.432 62.1162 361.1 62C360.768 61.8783 360.486 61.7039 360.253 61.4771C360.027 61.2502 359.844 60.979 359.706 60.6636C359.573 60.3426 359.481 59.9829 359.432 59.5845V55.6001C359.481 55.174 359.573 54.7922 359.706 54.4546C359.844 54.117 360.027 53.8293 360.253 53.5913C360.486 53.3534 360.765 53.1707 361.092 53.0435C361.418 52.9162 361.8 52.8525 362.237 52.8525C362.669 52.8525 363.056 52.93 363.399 53.085C363.748 53.2344 364.052 53.4502 364.312 53.7324C364.578 54.0146 364.797 54.355 364.968 54.7534C365.145 55.1463 365.278 55.589 365.367 56.0815C365.455 56.5741 365.5 57.1025 365.5 57.667ZM363.964 57.8413V57.667C363.964 57.2796 363.936 56.9116 363.881 56.563C363.831 56.2088 363.751 55.8851 363.64 55.5918C363.535 55.293 363.397 55.0329 363.225 54.8115C363.054 54.5902 362.846 54.4186 362.603 54.2969C362.365 54.1751 362.091 54.1143 361.781 54.1143C361.449 54.1143 361.172 54.1558 360.951 54.2388C360.735 54.3218 360.566 54.4325 360.444 54.5708C360.323 54.7036 360.234 54.8447 360.179 54.9941V60.1987C360.245 60.3205 360.342 60.4367 360.469 60.5474C360.597 60.6525 360.768 60.741 360.984 60.813C361.2 60.8794 361.471 60.9126 361.797 60.9126C362.185 60.9126 362.514 60.8351 362.785 60.6802C363.062 60.5197 363.286 60.2983 363.458 60.0161C363.635 59.7339 363.762 59.4074 363.839 59.0366C363.922 58.6659 363.964 58.2674 363.964 57.8413ZM354.833 57.8413V57.667C354.833 57.1025 354.877 56.5741 354.966 56.0815C355.054 55.589 355.187 55.1463 355.364 54.7534C355.541 54.355 355.76 54.0146 356.02 53.7324C356.286 53.4502 356.59 53.2344 356.933 53.085C357.282 52.93 357.672 52.8525 358.104 52.8525C358.53 52.8525 358.9 52.9162 359.216 53.0435C359.537 53.1707 359.808 53.3534 360.029 53.5913C360.251 53.8293 360.428 54.117 360.561 54.4546C360.693 54.7922 360.787 55.174 360.843 55.6001V59.4268C360.793 59.8473 360.702 60.2264 360.569 60.564C360.436 60.9015 360.259 61.1921 360.038 61.4355C359.816 61.6735 359.542 61.8561 359.216 61.9834C358.895 62.1107 358.519 62.1743 358.087 62.1743C357.556 62.1743 357.088 62.0692 356.684 61.8589C356.28 61.6431 355.94 61.3415 355.663 60.9541C355.392 60.5667 355.184 60.1102 355.041 59.5845C354.902 59.0532 354.833 58.4722 354.833 57.8413ZM356.377 57.667V57.8413C356.377 58.2674 356.413 58.6659 356.485 59.0366C356.562 59.4074 356.681 59.7339 356.842 60.0161C357.008 60.2983 357.224 60.5197 357.489 60.6802C357.755 60.8351 358.081 60.9126 358.469 60.9126C358.801 60.9126 359.075 60.8711 359.291 60.7881C359.506 60.7051 359.678 60.5972 359.805 60.4644C359.932 60.3315 360.029 60.1932 360.096 60.0493V54.9941C360.04 54.8447 359.949 54.7036 359.822 54.5708C359.7 54.4325 359.531 54.3218 359.315 54.2388C359.1 54.1558 358.823 54.1143 358.485 54.1143C358.098 54.1143 357.769 54.2083 357.498 54.3965C357.226 54.5846 357.008 54.842 356.842 55.1685C356.681 55.495 356.562 55.874 356.485 56.3057C356.413 56.7318 356.377 57.1855 356.377 57.667ZM359.332 65.4531V49.25H360.876V65.4531H359.332ZM367.102 57.6089V57.418C367.102 56.7705 367.196 56.1701 367.384 55.6167C367.572 55.0578 367.843 54.5736 368.197 54.1641C368.551 53.749 368.98 53.4281 369.484 53.2012C369.987 52.9688 370.552 52.8525 371.177 52.8525C371.808 52.8525 372.375 52.9688 372.879 53.2012C373.388 53.4281 373.82 53.749 374.174 54.1641C374.534 54.5736 374.807 55.0578 374.996 55.6167C375.184 56.1701 375.278 56.7705 375.278 57.418V57.6089C375.278 58.2563 375.184 58.8568 374.996 59.4102C374.807 59.9635 374.534 60.4478 374.174 60.8628C373.82 61.2723 373.391 61.5933 372.887 61.8257C372.389 62.0526 371.825 62.166 371.194 62.166C370.563 62.166 369.996 62.0526 369.492 61.8257C368.989 61.5933 368.557 61.2723 368.197 60.8628C367.843 60.4478 367.572 59.9635 367.384 59.4102C367.196 58.8568 367.102 58.2563 367.102 57.6089ZM368.637 57.418V57.6089C368.637 58.0571 368.69 58.4805 368.795 58.8789C368.9 59.2718 369.058 59.6204 369.268 59.9248C369.484 60.2292 369.752 60.4699 370.073 60.647C370.394 60.8185 370.768 60.9043 371.194 60.9043C371.614 60.9043 371.982 60.8185 372.298 60.647C372.619 60.4699 372.884 60.2292 373.095 59.9248C373.305 59.6204 373.463 59.2718 373.568 58.8789C373.679 58.4805 373.734 58.0571 373.734 57.6089V57.418C373.734 56.9753 373.679 56.5575 373.568 56.1646C373.463 55.7661 373.302 55.4147 373.086 55.1104C372.876 54.8005 372.611 54.557 372.29 54.3799C371.974 54.2028 371.603 54.1143 371.177 54.1143C370.757 54.1143 370.386 54.2028 370.065 54.3799C369.75 54.557 369.484 54.8005 369.268 55.1104C369.058 55.4147 368.9 55.7661 368.795 56.1646C368.69 56.5575 368.637 56.9753 368.637 57.418ZM378.739 54.7451V65.4531H377.195V53.0186H378.606L378.739 54.7451ZM384.791 57.4346V57.6089C384.791 58.2619 384.713 58.8678 384.558 59.4268C384.403 59.9801 384.176 60.4616 383.877 60.8711C383.584 61.2806 383.222 61.5988 382.79 61.8257C382.358 62.0526 381.863 62.166 381.304 62.166C380.734 62.166 380.231 62.0719 379.793 61.8838C379.356 61.6956 378.986 61.4217 378.681 61.062C378.377 60.7023 378.133 60.2707 377.951 59.7671C377.774 59.2635 377.652 58.6963 377.585 58.0654V57.1357C377.652 56.4717 377.776 55.8768 377.959 55.3511C378.142 54.8254 378.382 54.3771 378.681 54.0063C378.986 53.63 379.354 53.3451 379.785 53.1514C380.217 52.9521 380.715 52.8525 381.279 52.8525C381.844 52.8525 382.345 52.9632 382.782 53.1846C383.219 53.4004 383.587 53.7103 383.886 54.1143C384.185 54.5182 384.409 55.0024 384.558 55.5669C384.713 56.1258 384.791 56.7484 384.791 57.4346ZM383.247 57.6089V57.4346C383.247 56.9863 383.2 56.5658 383.105 56.1729C383.011 55.7744 382.865 55.4258 382.666 55.127C382.472 54.8226 382.223 54.5846 381.918 54.4131C381.614 54.236 381.252 54.1475 380.831 54.1475C380.444 54.1475 380.106 54.2139 379.818 54.3467C379.536 54.4795 379.295 54.6593 379.096 54.8862C378.897 55.1076 378.734 55.3621 378.606 55.6499C378.485 55.9321 378.393 56.2254 378.333 56.5298V58.6797C378.443 59.0671 378.598 59.4323 378.797 59.7754C378.997 60.113 379.262 60.3869 379.594 60.5972C379.926 60.8019 380.344 60.9043 380.848 60.9043C381.263 60.9043 381.62 60.8185 381.918 60.647C382.223 60.4699 382.472 60.2292 382.666 59.9248C382.865 59.6204 383.011 59.2718 383.105 58.8789C383.2 58.4805 383.247 58.0571 383.247 57.6089ZM391.913 59.958L394.967 53.0186H396.445L392.444 62H391.381L387.397 53.0186H388.875L391.913 59.958ZM388.426 53.0186V62H386.891V53.0186H388.426ZM395.349 62V53.0186H396.893V62H395.349ZM404.663 60.4644V55.8408C404.663 55.4867 404.591 55.1795 404.447 54.9194C404.308 54.6538 404.098 54.4491 403.816 54.3052C403.534 54.1613 403.185 54.0894 402.77 54.0894C402.383 54.0894 402.042 54.1558 401.749 54.2886C401.461 54.4214 401.234 54.5957 401.068 54.8115C400.908 55.0273 400.828 55.2598 400.828 55.5088H399.292C399.292 55.1878 399.375 54.8696 399.541 54.5542C399.707 54.2388 399.945 53.9538 400.255 53.6992C400.57 53.4391 400.947 53.2344 401.384 53.085C401.826 52.93 402.319 52.8525 402.861 52.8525C403.514 52.8525 404.09 52.9632 404.588 53.1846C405.091 53.4059 405.484 53.7407 405.767 54.189C406.054 54.6317 406.198 55.1878 406.198 55.8574V60.041C406.198 60.3398 406.223 60.658 406.273 60.9956C406.328 61.3332 406.409 61.6237 406.514 61.8672V62H404.912C404.834 61.8229 404.773 61.5877 404.729 61.2944C404.685 60.9956 404.663 60.7189 404.663 60.4644ZM404.928 56.5547L404.945 57.6338H403.393C402.955 57.6338 402.565 57.6698 402.222 57.7417C401.879 57.8081 401.591 57.9105 401.359 58.0488C401.126 58.1872 400.949 58.3615 400.828 58.5718C400.706 58.7765 400.645 59.0173 400.645 59.2939C400.645 59.5762 400.709 59.8335 400.836 60.0659C400.963 60.2983 401.154 60.4837 401.409 60.6221C401.669 60.7549 401.987 60.8213 402.363 60.8213C402.834 60.8213 403.249 60.7217 403.608 60.5225C403.968 60.3232 404.253 60.0798 404.463 59.792C404.679 59.5042 404.795 59.2248 404.812 58.9536L405.468 59.6924C405.429 59.9248 405.324 60.1821 405.152 60.4644C404.981 60.7466 404.751 61.0177 404.463 61.2778C404.181 61.5324 403.844 61.7454 403.451 61.917C403.063 62.083 402.626 62.166 402.139 62.166C401.53 62.166 400.996 62.047 400.537 61.8091C400.083 61.5711 399.729 61.2529 399.475 60.8545C399.226 60.4505 399.101 59.9995 399.101 59.5015C399.101 59.02 399.195 58.5967 399.383 58.2314C399.571 57.8607 399.843 57.5535 400.197 57.3101C400.551 57.061 400.977 56.8729 401.475 56.7456C401.973 56.6183 402.529 56.5547 403.144 56.5547H404.928ZM408.747 62V53.0186H410.282V60.7383H414.416V53.0186H415.96V62H408.747ZM417.022 60.7383L416.873 64.6646H415.503V62H414.333V60.7383H417.022ZM420.351 59.5679L424.493 53.0186H426.037V62H424.493V55.4507L420.351 62H418.824V53.0186H420.351V59.5679ZM430.163 59.5679L434.305 53.0186H435.849V62H434.305V55.4507L430.163 62H428.635V53.0186H430.163V59.5679ZM138.764 77.6089V77.418C138.764 76.7705 138.858 76.1701 139.046 75.6167C139.234 75.0578 139.505 74.5736 139.859 74.1641C140.214 73.749 140.642 73.4281 141.146 73.2012C141.65 72.9688 142.214 72.8525 142.839 72.8525C143.47 72.8525 144.037 72.9688 144.541 73.2012C145.05 73.4281 145.482 73.749 145.836 74.1641C146.196 74.5736 146.47 75.0578 146.658 75.6167C146.846 76.1701 146.94 76.7705 146.94 77.418V77.6089C146.94 78.2563 146.846 78.8568 146.658 79.4102C146.47 79.9635 146.196 80.4478 145.836 80.8628C145.482 81.2723 145.053 81.5933 144.549 81.8257C144.051 82.0526 143.487 82.166 142.856 82.166C142.225 82.166 141.658 82.0526 141.154 81.8257C140.651 81.5933 140.219 81.2723 139.859 80.8628C139.505 80.4478 139.234 79.9635 139.046 79.4102C138.858 78.8568 138.764 78.2563 138.764 77.6089ZM140.299 77.418V77.6089C140.299 78.0571 140.352 78.4805 140.457 78.8789C140.562 79.2718 140.72 79.6204 140.93 79.9248C141.146 80.2292 141.414 80.4699 141.735 80.647C142.056 80.8185 142.43 80.9043 142.856 80.9043C143.277 80.9043 143.645 80.8185 143.96 80.647C144.281 80.4699 144.547 80.2292 144.757 79.9248C144.967 79.6204 145.125 79.2718 145.23 78.8789C145.341 78.4805 145.396 78.0571 145.396 77.6089V77.418C145.396 76.9753 145.341 76.5575 145.23 76.1646C145.125 75.7661 144.964 75.4147 144.749 75.1104C144.538 74.8005 144.273 74.557 143.952 74.3799C143.636 74.2028 143.265 74.1143 142.839 74.1143C142.419 74.1143 142.048 74.2028 141.727 74.3799C141.412 74.557 141.146 74.8005 140.93 75.1104C140.72 75.4147 140.562 75.7661 140.457 76.1646C140.352 76.5575 140.299 76.9753 140.299 77.418ZM157.299 78.0488H154.353L154.336 76.8203H156.743C157.219 76.8203 157.615 76.7733 157.93 76.6792C158.251 76.5851 158.492 76.444 158.652 76.2559C158.813 76.0677 158.893 75.8353 158.893 75.5586C158.893 75.3428 158.846 75.1546 158.752 74.9941C158.663 74.8281 158.528 74.6925 158.345 74.5874C158.163 74.4767 157.936 74.3965 157.665 74.3467C157.399 74.2913 157.086 74.2637 156.727 74.2637H154.759V82H153.224V73.0186H156.727C157.297 73.0186 157.808 73.0684 158.262 73.168C158.722 73.2676 159.112 73.4198 159.433 73.6245C159.759 73.8237 160.008 74.0783 160.18 74.3882C160.351 74.6981 160.437 75.0633 160.437 75.4839C160.437 75.755 160.382 76.0124 160.271 76.2559C160.16 76.4993 159.997 76.7152 159.781 76.9033C159.565 77.0915 159.3 77.2464 158.984 77.3682C158.669 77.4844 158.306 77.5591 157.897 77.5923L157.299 78.0488ZM157.299 82H153.796L154.56 80.7549H157.299C157.725 80.7549 158.08 80.7023 158.362 80.5972C158.644 80.4865 158.854 80.3315 158.993 80.1323C159.137 79.9276 159.208 79.6841 159.208 79.4019C159.208 79.1196 159.137 78.8789 158.993 78.6797C158.854 78.4749 158.644 78.32 158.362 78.2148C158.08 78.1042 157.725 78.0488 157.299 78.0488H154.967L154.983 76.8203H157.897L158.453 77.2852C158.946 77.3239 159.363 77.4456 159.707 77.6504C160.05 77.8551 160.31 78.1152 160.487 78.4307C160.664 78.7406 160.752 79.0781 160.752 79.4434C160.752 79.8639 160.672 80.2347 160.512 80.5557C160.357 80.8766 160.13 81.145 159.831 81.3608C159.532 81.5711 159.17 81.7316 158.744 81.8423C158.318 81.9474 157.836 82 157.299 82ZM166.165 77.7085H164.513V76.7622H166.04C166.466 76.7622 166.804 76.7096 167.053 76.6045C167.302 76.4938 167.479 76.3416 167.584 76.1479C167.689 75.9543 167.742 75.7274 167.742 75.4673C167.742 75.2349 167.681 75.0163 167.559 74.8115C167.443 74.6012 167.255 74.4325 166.995 74.3052C166.735 74.1724 166.386 74.106 165.949 74.106C165.595 74.106 165.274 74.1696 164.986 74.2969C164.698 74.4186 164.468 74.5874 164.297 74.8032C164.131 75.0135 164.048 75.2515 164.048 75.5171H162.512C162.512 74.9692 162.667 74.4989 162.977 74.106C163.292 73.7075 163.71 73.4004 164.23 73.1846C164.756 72.9688 165.329 72.8608 165.949 72.8608C166.469 72.8608 166.934 72.9189 167.343 73.0352C167.758 73.1458 168.11 73.3118 168.397 73.5332C168.685 73.749 168.904 74.0202 169.053 74.3467C169.208 74.6676 169.286 75.0412 169.286 75.4673C169.286 75.7716 169.214 76.0594 169.07 76.3306C168.926 76.6017 168.718 76.8424 168.447 77.0527C168.176 77.2575 167.847 77.418 167.459 77.5342C167.078 77.6504 166.646 77.7085 166.165 77.7085ZM164.513 77.1274H166.165C166.701 77.1274 167.174 77.18 167.584 77.2852C167.993 77.3848 168.337 77.5342 168.613 77.7334C168.89 77.9326 169.097 78.1789 169.236 78.4722C169.38 78.7599 169.452 79.092 169.452 79.4683C169.452 79.8888 169.366 80.2679 169.194 80.6055C169.028 80.9375 168.79 81.2197 168.48 81.4521C168.171 81.6846 167.8 81.8617 167.368 81.9834C166.942 82.1051 166.469 82.166 165.949 82.166C165.368 82.166 164.803 82.0664 164.255 81.8672C163.708 81.668 163.257 81.3608 162.902 80.9458C162.548 80.5252 162.371 79.9912 162.371 79.3438H163.907C163.907 79.6149 163.993 79.8722 164.164 80.1157C164.336 80.3592 164.574 80.5557 164.878 80.7051C165.188 80.8545 165.545 80.9292 165.949 80.9292C166.38 80.9292 166.74 80.8628 167.028 80.73C167.316 80.5972 167.531 80.4201 167.675 80.1987C167.825 79.9774 167.899 79.7367 167.899 79.4766C167.899 79.139 167.833 78.8678 167.7 78.6631C167.567 78.4583 167.363 78.3089 167.086 78.2148C166.815 78.1152 166.466 78.0654 166.04 78.0654H164.513V77.1274ZM176.74 80.4644V75.8408C176.74 75.4867 176.668 75.1795 176.524 74.9194C176.386 74.6538 176.175 74.4491 175.893 74.3052C175.611 74.1613 175.262 74.0894 174.847 74.0894C174.46 74.0894 174.119 74.1558 173.826 74.2886C173.538 74.4214 173.312 74.5957 173.146 74.8115C172.985 75.0273 172.905 75.2598 172.905 75.5088H171.369C171.369 75.1878 171.452 74.8696 171.618 74.5542C171.784 74.2388 172.022 73.9538 172.332 73.6992C172.647 73.4391 173.024 73.2344 173.461 73.085C173.904 72.93 174.396 72.8525 174.938 72.8525C175.591 72.8525 176.167 72.9632 176.665 73.1846C177.169 73.4059 177.562 73.7407 177.844 74.189C178.132 74.6317 178.275 75.1878 178.275 75.8574V80.041C178.275 80.3398 178.3 80.658 178.35 80.9956C178.405 81.3332 178.486 81.6237 178.591 81.8672V82H176.989C176.911 81.8229 176.85 81.5877 176.806 81.2944C176.762 80.9956 176.74 80.7189 176.74 80.4644ZM177.005 76.5547L177.022 77.6338H175.47C175.033 77.6338 174.642 77.6698 174.299 77.7417C173.956 77.8081 173.668 77.9105 173.436 78.0488C173.204 78.1872 173.027 78.3615 172.905 78.5718C172.783 78.7765 172.722 79.0173 172.722 79.2939C172.722 79.5762 172.786 79.8335 172.913 80.0659C173.04 80.2983 173.231 80.4837 173.486 80.6221C173.746 80.7549 174.064 80.8213 174.44 80.8213C174.911 80.8213 175.326 80.7217 175.686 80.5225C176.045 80.3232 176.33 80.0798 176.541 79.792C176.756 79.5042 176.873 79.2248 176.889 78.9536L177.545 79.6924C177.506 79.9248 177.401 80.1821 177.229 80.4644C177.058 80.7466 176.828 81.0177 176.541 81.2778C176.258 81.5324 175.921 81.7454 175.528 81.917C175.14 82.083 174.703 82.166 174.216 82.166C173.608 82.166 173.074 82.047 172.614 81.8091C172.16 81.5711 171.806 81.2529 171.552 80.8545C171.303 80.4505 171.178 79.9995 171.178 79.5015C171.178 79.02 171.272 78.5967 171.46 78.2314C171.649 77.8607 171.92 77.5535 172.274 77.3101C172.628 77.061 173.054 76.8729 173.552 76.7456C174.05 76.6183 174.606 76.5547 175.221 76.5547H177.005ZM182.351 79.5679L186.493 73.0186H188.037V82H186.493V75.4507L182.351 82H180.824V73.0186H182.351V79.5679ZM195.666 79.958L198.72 73.0186H200.198L196.197 82H195.134L191.15 73.0186H192.627L195.666 79.958ZM192.179 73.0186V82H190.644V73.0186H192.179ZM199.102 82V73.0186H200.646V82H199.102ZM202.713 77.6089V77.418C202.713 76.7705 202.807 76.1701 202.995 75.6167C203.183 75.0578 203.454 74.5736 203.809 74.1641C204.163 73.749 204.592 73.4281 205.095 73.2012C205.599 72.9688 206.163 72.8525 206.789 72.8525C207.419 72.8525 207.987 72.9688 208.49 73.2012C208.999 73.4281 209.431 73.749 209.785 74.1641C210.145 74.5736 210.419 75.0578 210.607 75.6167C210.795 76.1701 210.889 76.7705 210.889 77.418V77.6089C210.889 78.2563 210.795 78.8568 210.607 79.4102C210.419 79.9635 210.145 80.4478 209.785 80.8628C209.431 81.2723 209.002 81.5933 208.499 81.8257C208 82.0526 207.436 82.166 206.805 82.166C206.174 82.166 205.607 82.0526 205.104 81.8257C204.6 81.5933 204.168 81.2723 203.809 80.8628C203.454 80.4478 203.183 79.9635 202.995 79.4102C202.807 78.8568 202.713 78.2563 202.713 77.6089ZM204.249 77.418V77.6089C204.249 78.0571 204.301 78.4805 204.406 78.8789C204.511 79.2718 204.669 79.6204 204.879 79.9248C205.095 80.2292 205.364 80.4699 205.685 80.647C206.006 80.8185 206.379 80.9043 206.805 80.9043C207.226 80.9043 207.594 80.8185 207.909 80.647C208.23 80.4699 208.496 80.2292 208.706 79.9248C208.916 79.6204 209.074 79.2718 209.179 78.8789C209.29 78.4805 209.345 78.0571 209.345 77.6089V77.418C209.345 76.9753 209.29 76.5575 209.179 76.1646C209.074 75.7661 208.914 75.4147 208.698 75.1104C208.487 74.8005 208.222 74.557 207.901 74.3799C207.585 74.2028 207.215 74.1143 206.789 74.1143C206.368 74.1143 205.997 74.2028 205.676 74.3799C205.361 74.557 205.095 74.8005 204.879 75.1104C204.669 75.4147 204.511 75.7661 204.406 76.1646C204.301 76.5575 204.249 76.9753 204.249 77.418ZM212.408 77.6089V77.418C212.408 76.7705 212.502 76.1701 212.69 75.6167C212.879 75.0578 213.15 74.5736 213.504 74.1641C213.858 73.749 214.287 73.4281 214.791 73.2012C215.294 72.9688 215.859 72.8525 216.484 72.8525C217.115 72.8525 217.682 72.9688 218.186 73.2012C218.695 73.4281 219.126 73.749 219.48 74.1641C219.84 74.5736 220.114 75.0578 220.302 75.6167C220.49 76.1701 220.584 76.7705 220.584 77.418V77.6089C220.584 78.2563 220.49 78.8568 220.302 79.4102C220.114 79.9635 219.84 80.4478 219.48 80.8628C219.126 81.2723 218.697 81.5933 218.194 81.8257C217.696 82.0526 217.131 82.166 216.5 82.166C215.87 82.166 215.302 82.0526 214.799 81.8257C214.295 81.5933 213.864 81.2723 213.504 80.8628C213.15 80.4478 212.879 79.9635 212.69 79.4102C212.502 78.8568 212.408 78.2563 212.408 77.6089ZM213.944 77.418V77.6089C213.944 78.0571 213.996 78.4805 214.102 78.8789C214.207 79.2718 214.364 79.6204 214.575 79.9248C214.791 80.2292 215.059 80.4699 215.38 80.647C215.701 80.8185 216.074 80.9043 216.5 80.9043C216.921 80.9043 217.289 80.8185 217.604 80.647C217.925 80.4699 218.191 80.2292 218.401 79.9248C218.612 79.6204 218.769 79.2718 218.875 78.8789C218.985 78.4805 219.041 78.0571 219.041 77.6089V77.418C219.041 76.9753 218.985 76.5575 218.875 76.1646C218.769 75.7661 218.609 75.4147 218.393 75.1104C218.183 74.8005 217.917 74.557 217.596 74.3799C217.281 74.2028 216.91 74.1143 216.484 74.1143C216.063 74.1143 215.693 74.2028 215.372 74.3799C215.056 74.557 214.791 74.8005 214.575 75.1104C214.364 75.4147 214.207 75.7661 214.102 76.1646C213.996 76.5575 213.944 76.9753 213.944 77.418ZM228.495 73.0186V74.2886H223.955V73.0186H228.495ZM224.179 73.0186V82H222.643V73.0186H224.179ZM229.856 73.0186V82H228.312V73.0186H229.856ZM233.583 76.1064H236.281C237.006 76.1064 237.618 76.2337 238.116 76.4883C238.614 76.7373 238.99 77.0832 239.245 77.5259C239.505 77.9631 239.635 78.4611 239.635 79.02C239.635 79.4351 239.563 79.8252 239.419 80.1904C239.275 80.5501 239.059 80.8656 238.771 81.1367C238.489 81.4079 238.138 81.6209 237.717 81.7759C237.302 81.9253 236.824 82 236.281 82H232.463V73.0186H233.999V80.7383H236.281C236.724 80.7383 237.078 80.658 237.344 80.4976C237.609 80.3371 237.8 80.1296 237.917 79.875C238.033 79.6204 238.091 79.3548 238.091 79.0781C238.091 78.807 238.033 78.5413 237.917 78.2812C237.8 78.0212 237.609 77.8053 237.344 77.6338C237.078 77.4567 236.724 77.3682 236.281 77.3682H233.583V76.1064ZM242.831 73.0186V82H241.295V73.0186H242.831ZM249.181 73.0186V82H247.637V73.0186H249.181ZM252.194 73.0186V74.2637H244.682V73.0186H252.194ZM256.768 82.166C256.142 82.166 255.575 82.0609 255.066 81.8506C254.562 81.6348 254.128 81.3332 253.763 80.9458C253.403 80.5584 253.126 80.0991 252.933 79.5679C252.739 79.0366 252.642 78.4556 252.642 77.8247V77.4761C252.642 76.7456 252.75 76.0954 252.966 75.5254C253.182 74.9499 253.475 74.4629 253.846 74.0645C254.216 73.666 254.637 73.3644 255.107 73.1597C255.578 72.9549 256.065 72.8525 256.568 72.8525C257.21 72.8525 257.764 72.9632 258.229 73.1846C258.699 73.4059 259.083 73.7158 259.382 74.1143C259.681 74.5072 259.903 74.972 260.046 75.5088C260.19 76.04 260.262 76.6211 260.262 77.252V77.9409H253.555V76.6875H258.727V76.5713C258.704 76.1729 258.621 75.7855 258.478 75.4092C258.339 75.0329 258.118 74.723 257.813 74.4795C257.509 74.236 257.094 74.1143 256.568 74.1143C256.22 74.1143 255.899 74.189 255.605 74.3384C255.312 74.4823 255.06 74.6981 254.85 74.9858C254.64 75.2736 254.477 75.625 254.36 76.04C254.244 76.4551 254.186 76.9338 254.186 77.4761V77.8247C254.186 78.2508 254.244 78.652 254.36 79.0283C254.482 79.3991 254.656 79.7256 254.883 80.0078C255.116 80.29 255.395 80.5114 255.722 80.6719C256.054 80.8324 256.43 80.9126 256.851 80.9126C257.393 80.9126 257.852 80.8019 258.229 80.5806C258.605 80.3592 258.934 80.0632 259.216 79.6924L260.146 80.4312C259.952 80.7244 259.706 81.0039 259.407 81.2695C259.108 81.5352 258.74 81.751 258.303 81.917C257.872 82.083 257.36 82.166 256.768 82.166Z" fill="black"/>
<defs>
<filter id="filter0_d_804_877" x="564.052" y="12.0862" width="106.191" height="106.163" filterUnits="userSpaceOnUse" color-interpolation-filters="sRGB">
<feFlood flood-opacity="0" result="BackgroundImageFix"/>
<feColorMatrix in="SourceAlpha" type="matrix" values="0 0 0 0 0 0 0 0 0 0 0 0 0 0 0 0 0 0 127 0" result="hardAlpha"/>
<feOffset/>
<feGaussianBlur stdDeviation="12"/>
<feComposite in2="hardAlpha" operator="out"/>
<feColorMatrix type="matrix" values="0 0 0 0 0.579167 0 0 0 0 0.579167 0 0 0 0 0.579167 0 0 0 0.3 0"/>
<feBlend mode="normal" in2="BackgroundImageFix" result="effect1_dropShadow_804_877"/>
<feBlend mode="normal" in="SourceGraphic" in2="effect1_dropShadow_804_877" result="shape"/>
</filter>
</defs>
</svg>
