<svg width="652" height="116" viewBox="0 0 652 116" fill="none" xmlns="http://www.w3.org/2000/svg">
<path d="M115.819 58.0351C115.819 26.0524 89.8924 0.137746 57.9097 0.152891C25.9271 0.168035 -3.92932e-06 26.1073 -2.53132e-06 58.09C-1.13331e-06 90.0726 25.9271 115.987 57.9097 115.972C89.8924 115.957 115.819 90.0178 115.819 58.0351Z" fill="#00A3FF"/>
<path d="M64.6094 57.7927C64.8047 57.8708 65.0684 57.988 65.4004 58.1443C65.752 58.281 66.3574 58.6326 67.2168 59.199C68.0762 59.7458 68.8281 60.3806 69.4727 61.1033C70.1367 61.8259 70.7422 62.8318 71.2891 64.1208C71.8359 65.3904 72.1094 66.7869 72.1094 68.3103C72.1094 71.7478 70.6738 74.7068 67.8027 77.1873C64.9512 79.6677 61.1816 80.908 56.4941 80.908C54.502 80.908 52.5781 80.6736 50.7227 80.2048C48.8867 79.7556 47.3828 79.2087 46.2109 78.5642C45.0391 77.9197 44.0039 77.2849 43.1055 76.6599C42.2266 76.0154 41.5918 75.449 41.2012 74.9607L40.5859 74.2869L46.0059 68.6033C46.084 68.7205 46.2109 68.8865 46.3867 69.1013C46.5625 69.2966 46.9629 69.658 47.5879 70.1853C48.2129 70.6931 48.8672 71.1521 49.5508 71.5623C50.2539 71.9529 51.1426 72.3044 52.2168 72.6169C53.3105 72.9294 54.4336 73.0857 55.5859 73.0857C57.9102 73.0857 59.6875 72.5779 60.918 71.5623C62.168 70.5466 62.793 69.2576 62.793 67.6951C62.793 66.1326 62.1777 64.8435 60.9473 63.8279C59.7363 62.8123 58.0566 62.3044 55.9082 62.3044H51.3965V54.8044H55.5859C57.3438 54.8044 58.7305 54.3357 59.7461 53.3982C60.7812 52.4607 61.2988 51.2302 61.2988 49.7068C61.2988 48.3005 60.791 47.1482 59.7754 46.2498C58.7598 45.3513 57.3633 44.9021 55.5859 44.9021C54.0625 44.9021 52.627 45.2341 51.2793 45.8982C49.9512 46.5623 48.9941 47.2068 48.4082 47.8318L47.5 48.7986L42.1094 43.408C42.2266 43.2517 42.4023 43.0369 42.6367 42.7634C42.8711 42.4705 43.4277 41.9529 44.3066 41.2107C45.2051 40.4685 46.1621 39.8337 47.1777 39.3064C48.1934 38.7595 49.541 38.2615 51.2207 37.8123C52.9004 37.3435 54.6582 37.1091 56.4941 37.1091C60.7324 37.1091 64.1406 38.2322 66.7188 40.4783C69.2969 42.7048 70.5859 45.4783 70.5859 48.7986C70.5859 50.0291 70.3711 51.1814 69.9414 52.2556C69.5312 53.3103 69.0332 54.1697 68.4473 54.8337C67.8809 55.4978 67.3047 56.0642 66.7188 56.533C66.1523 56.9822 65.6445 57.3044 65.1953 57.4998L64.6094 57.7927Z" fill="white"/>
<path d="M476 56.9998L594 56.9997" stroke="#00A3FF" stroke-miterlimit="10" stroke-linecap="round"/>
<g filter="url(#filter0_d_822_2153)">
<path d="M618.721 77.7313C630.083 66.3742 630.083 47.9607 618.721 36.6036C607.358 25.2466 588.936 25.2466 577.574 36.6037C566.211 47.9607 566.211 66.3742 577.574 77.7313C588.936 89.0884 607.358 89.0884 618.721 77.7313Z" fill="white"/>
</g>
<path d="M607.241 57.1644C607.246 58.8871 606.741 60.5727 605.789 62.0088C604.837 63.4448 603.481 64.5669 601.892 65.2335C600.302 65.9002 598.551 66.0815 596.859 65.7546C595.167 65.4278 593.61 64.6073 592.383 63.3968C591.157 62.1863 590.317 60.64 589.969 58.9528C589.621 57.2657 589.78 55.5133 590.427 53.9166C591.075 52.32 592.18 50.9507 593.605 49.9813C595.03 49.012 596.71 48.4861 598.433 48.4699C599.585 48.4555 600.727 48.6697 601.795 49.1002C602.863 49.5307 603.835 50.1688 604.655 50.9776C605.474 51.7864 606.124 52.7498 606.568 53.8118C607.012 54.8739 607.241 56.0134 607.241 57.1644Z" fill="#00A3FF"/>
<path d="M598.542 60.5712C600.425 60.5712 601.951 59.0459 601.951 57.1643C601.951 55.2827 600.425 53.7573 598.542 53.7573C596.66 53.7573 595.134 55.2827 595.134 57.1643C595.134 59.0459 596.66 60.5712 598.542 60.5712Z" fill="white"/>
<path d="M478.452 57.1642C478.457 58.8904 477.95 60.5793 476.994 62.0172C476.039 63.4551 474.678 64.5772 473.084 65.2415C471.49 65.9058 469.735 66.0824 468.04 65.749C466.346 65.4155 464.789 64.587 463.565 63.3684C462.342 62.1497 461.509 60.5957 461.17 58.9031C460.831 57.2105 461.002 55.4554 461.662 53.8601C462.321 52.2649 463.44 50.9011 464.875 49.9415C466.311 48.982 467.999 48.4697 469.726 48.4697C472.035 48.4697 474.251 49.3849 475.886 51.0146C477.522 52.6444 478.445 54.8558 478.452 57.1642Z" fill="#00A3FF"/>
<path d="M469.753 60.5712C471.636 60.5712 473.162 59.0459 473.162 57.1643C473.162 55.2827 471.636 53.7573 469.753 53.7573C467.871 53.7573 466.345 55.2827 466.345 57.1643C466.345 59.0459 467.871 60.5712 469.753 60.5712Z" fill="white"/>
<path d="M144.391 41.6843H140.427L140.405 40.0193H144.004C144.598 40.0193 145.118 39.919 145.562 39.7185C146.006 39.518 146.349 39.2315 146.593 38.8591C146.843 38.4796 146.969 38.0284 146.969 37.5056C146.969 36.9327 146.858 36.4672 146.636 36.1091C146.421 35.7439 146.088 35.4789 145.637 35.3142C145.193 35.1423 144.627 35.0564 143.939 35.0564H140.889V48.9998H138.815V33.3591H143.939C144.742 33.3591 145.458 33.4415 146.088 33.6062C146.718 33.7638 147.252 34.0144 147.688 34.3582C148.132 34.6947 148.469 35.1244 148.698 35.6472C148.927 36.17 149.042 36.7966 149.042 37.5271C149.042 38.1716 148.877 38.7553 148.548 39.2781C148.218 39.7937 147.76 40.2162 147.173 40.5457C146.593 40.8751 145.912 41.0863 145.132 41.1794L144.391 41.6843ZM144.294 48.9998H139.61L140.781 47.3132H144.294C144.953 47.3132 145.511 47.1986 145.97 46.9695C146.435 46.7403 146.79 46.4181 147.033 46.0027C147.277 45.5802 147.398 45.0824 147.398 44.5095C147.398 43.9294 147.295 43.4281 147.087 43.0056C146.879 42.5831 146.553 42.2572 146.109 42.0281C145.665 41.7989 145.092 41.6843 144.391 41.6843H141.437L141.458 40.0193H145.497L145.938 40.6208C146.689 40.6853 147.327 40.9001 147.85 41.2654C148.372 41.6235 148.77 42.0818 149.042 42.6404C149.321 43.199 149.461 43.8149 149.461 44.488C149.461 45.462 149.246 46.2856 148.816 46.9587C148.394 47.6248 147.796 48.1332 147.022 48.4841C146.249 48.8279 145.34 48.9998 144.294 48.9998ZM153.854 41.3728H157.346C158.284 41.3728 159.075 41.5375 159.72 41.8669C160.364 42.1892 160.851 42.6368 161.181 43.2097C161.517 43.7755 161.686 44.42 161.686 45.1433C161.686 45.6804 161.592 46.1853 161.406 46.658C161.22 47.1235 160.941 47.5317 160.568 47.8826C160.203 48.2335 159.748 48.5092 159.204 48.7097C158.667 48.9031 158.048 48.9998 157.346 48.9998H152.404V37.3767H154.392V47.3669H157.346C157.919 47.3669 158.377 47.2631 158.721 47.0554C159.064 46.8477 159.312 46.5792 159.462 46.2498C159.612 45.9203 159.688 45.5766 159.688 45.2185C159.688 44.8676 159.612 44.5238 159.462 44.1873C159.312 43.8507 159.064 43.5714 158.721 43.3494C158.377 43.1202 157.919 43.0056 157.346 43.0056H153.854V41.3728ZM165.821 37.3767V48.9998H163.834V37.3767H165.821ZM176.757 32.3171H178.39C178.39 33.019 178.282 33.5776 178.067 33.9929C177.853 34.4011 177.559 34.7162 177.187 34.9382C176.821 35.1602 176.406 35.3285 175.94 35.4431C175.482 35.5577 175.006 35.6687 174.512 35.7761C173.896 35.905 173.323 36.1091 172.793 36.3884C172.27 36.6606 171.819 37.0473 171.439 37.5486C171.067 38.0499 170.791 38.7016 170.612 39.5037C170.44 40.3057 170.394 41.2976 170.473 42.4792V43.4675H168.84V42.4792C168.84 41.1544 168.965 39.9978 169.216 39.0095C169.474 38.0212 169.835 37.1869 170.301 36.5066C170.766 35.8263 171.318 35.2856 171.955 34.8845C172.6 34.4835 173.309 34.2078 174.082 34.0574C174.641 33.95 175.12 33.8354 175.521 33.7136C175.923 33.5847 176.227 33.4128 176.435 33.198C176.649 32.9832 176.757 32.6895 176.757 32.3171ZM174.404 38.0427C175.163 38.0427 175.84 38.1752 176.435 38.4402C177.029 38.7052 177.534 39.074 177.949 39.5466C178.365 40.0193 178.68 40.5779 178.895 41.2224C179.117 41.8598 179.228 42.5544 179.228 43.3064V43.5427C179.228 44.352 179.109 45.1039 178.873 45.7986C178.644 46.4861 178.304 47.0876 177.853 47.6033C177.409 48.1117 176.864 48.5092 176.22 48.7957C175.582 49.0821 174.855 49.2253 174.039 49.2253C173.223 49.2253 172.492 49.0821 171.848 48.7957C171.21 48.5092 170.666 48.1117 170.215 47.6033C169.764 47.0876 169.42 46.4861 169.184 45.7986C168.954 45.1039 168.84 44.352 168.84 43.5427V43.3064C168.84 43.1274 168.872 42.9519 168.937 42.78C169.001 42.6082 169.08 42.4327 169.173 42.2537C169.273 42.0746 169.363 41.8848 169.441 41.6843C169.706 41.0398 170.068 40.4418 170.526 39.8904C170.992 39.3389 171.547 38.8949 172.191 38.5583C172.843 38.2146 173.581 38.0427 174.404 38.0427ZM174.018 39.6648C173.287 39.6648 172.686 39.8331 172.213 40.1697C171.747 40.5063 171.4 40.9539 171.171 41.5125C170.942 42.0639 170.827 42.6619 170.827 43.3064V43.5427C170.827 44.087 170.892 44.6026 171.021 45.0896C171.149 45.5766 171.343 46.0098 171.601 46.3894C171.866 46.7618 172.199 47.0554 172.6 47.2703C173.008 47.4851 173.488 47.5925 174.039 47.5925C174.59 47.5925 175.067 47.4851 175.468 47.2703C175.869 47.0554 176.198 46.7618 176.456 46.3894C176.714 46.0098 176.907 45.5766 177.036 45.0896C177.165 44.6026 177.229 44.087 177.229 43.5427V43.3064C177.229 42.8194 177.165 42.3575 177.036 41.9207C176.907 41.4838 176.71 41.0971 176.445 40.7605C176.188 40.4239 175.854 40.1589 175.446 39.9656C175.045 39.7651 174.569 39.6648 174.018 39.6648ZM180.957 43.3171V43.0701C180.957 42.2322 181.079 41.4552 181.322 40.739C181.566 40.0157 181.917 39.3891 182.375 38.8591C182.833 38.322 183.388 37.9067 184.04 37.613C184.692 37.3123 185.422 37.1619 186.231 37.1619C187.048 37.1619 187.782 37.3123 188.434 37.613C189.092 37.9067 189.651 38.322 190.109 38.8591C190.575 39.3891 190.929 40.0157 191.173 40.739C191.416 41.4552 191.538 42.2322 191.538 43.0701V43.3171C191.538 44.155 191.416 44.932 191.173 45.6482C190.929 46.3643 190.575 46.991 190.109 47.5281C189.651 48.058 189.096 48.4734 188.444 48.7742C187.8 49.0678 187.069 49.2146 186.253 49.2146C185.437 49.2146 184.702 49.0678 184.051 48.7742C183.399 48.4734 182.84 48.058 182.375 47.5281C181.917 46.991 181.566 46.3643 181.322 45.6482C181.079 44.932 180.957 44.155 180.957 43.3171ZM182.944 43.0701V43.3171C182.944 43.8972 183.012 44.4451 183.148 44.9607C183.285 45.4692 183.489 45.9203 183.761 46.3142C184.04 46.7081 184.387 47.0196 184.803 47.2488C185.218 47.4708 185.701 47.5818 186.253 47.5818C186.797 47.5818 187.273 47.4708 187.682 47.2488C188.097 47.0196 188.441 46.7081 188.713 46.3142C188.985 45.9203 189.189 45.4692 189.325 44.9607C189.468 44.4451 189.54 43.8972 189.54 43.3171V43.0701C189.54 42.4972 189.468 41.9565 189.325 41.448C189.189 40.9324 188.981 40.4776 188.702 40.0837C188.43 39.6827 188.086 39.3676 187.671 39.1384C187.263 38.9093 186.783 38.7947 186.231 38.7947C185.687 38.7947 185.207 38.9093 184.792 39.1384C184.384 39.3676 184.04 39.6827 183.761 40.0837C183.489 40.4776 183.285 40.9324 183.148 41.448C183.012 41.9565 182.944 42.4972 182.944 43.0701ZM196.018 39.6111V53.4685H194.02V37.3767H195.846L196.018 39.6111ZM203.849 43.0916V43.3171C203.849 44.1622 203.748 44.9464 203.548 45.6697C203.347 46.3858 203.054 47.0089 202.667 47.5388C202.287 48.0688 201.818 48.4806 201.26 48.7742C200.701 49.0678 200.06 49.2146 199.337 49.2146C198.599 49.2146 197.948 49.0929 197.382 48.8494C196.816 48.6059 196.336 48.2514 195.942 47.7859C195.549 47.3204 195.233 46.7618 194.997 46.1101C194.768 45.4584 194.61 44.7244 194.524 43.908V42.7048C194.61 41.8455 194.771 41.0756 195.008 40.3953C195.244 39.7149 195.556 39.1348 195.942 38.655C196.336 38.1681 196.812 37.7992 197.371 37.5486C197.93 37.2908 198.574 37.1619 199.305 37.1619C200.035 37.1619 200.683 37.3051 201.249 37.5916C201.815 37.8708 202.291 38.2719 202.678 38.7947C203.064 39.3175 203.354 39.9441 203.548 40.6746C203.748 41.3979 203.849 42.2035 203.849 43.0916ZM201.851 43.3171V43.0916C201.851 42.5115 201.79 41.9672 201.668 41.4587C201.546 40.9431 201.356 40.4919 201.099 40.1052C200.848 39.7113 200.526 39.4034 200.132 39.1814C199.738 38.9522 199.269 38.8376 198.725 38.8376C198.223 38.8376 197.786 38.9236 197.414 39.0955C197.049 39.2673 196.737 39.5001 196.479 39.7937C196.222 40.0802 196.01 40.4096 195.846 40.782C195.688 41.1472 195.57 41.5268 195.491 41.9207V44.7029C195.634 45.2042 195.835 45.6768 196.093 46.1208C196.351 46.5577 196.694 46.9122 197.124 47.1843C197.554 47.4493 198.094 47.5818 198.746 47.5818C199.283 47.5818 199.745 47.4708 200.132 47.2488C200.526 47.0196 200.848 46.7081 201.099 46.3142C201.356 45.9203 201.546 45.4692 201.668 44.9607C201.79 44.4451 201.851 43.8972 201.851 43.3171ZM219.726 42.4148V44.0261H213.581V42.4148H219.726ZM214 37.3767V48.9998H212.013V37.3767H214ZM221.337 37.3767V48.9998H219.339V37.3767H221.337ZM226.687 45.8523L232.047 37.3767H234.045V48.9998H232.047V40.5242L226.687 48.9998H224.71V37.3767H226.687V45.8523ZM237.407 37.3767H239.395V47.3669H243.648V37.3767H245.646V47.3669H249.89V37.3767H251.877V48.9998H237.407V37.3767ZM257.194 45.8523L262.555 37.3767H264.553V48.9998H262.555V40.5242L257.194 48.9998H255.218V37.3767H257.194V45.8523ZM269.548 46.6365V48.2371C269.548 48.8888 269.383 49.5763 269.054 50.2996C268.724 51.03 268.262 51.6388 267.668 52.1257L266.54 51.3416C266.769 51.0264 266.963 50.7042 267.12 50.3748C267.278 50.0525 267.396 49.7159 267.475 49.365C267.561 49.0212 267.604 48.656 267.604 48.2693V46.6365H269.548ZM285.285 37.3767V39.0203H279.409V37.3767H285.285ZM279.699 37.3767V48.9998H277.712V37.3767H279.699ZM287.047 37.3767V48.9998H285.049V37.3767H287.047ZM289.711 43.3171V43.0701C289.711 42.2322 289.833 41.4552 290.076 40.739C290.32 40.0157 290.671 39.3891 291.129 38.8591C291.587 38.322 292.142 37.9067 292.794 37.613C293.446 37.3123 294.176 37.1619 294.985 37.1619C295.802 37.1619 296.536 37.3123 297.188 37.613C297.846 37.9067 298.405 38.322 298.863 38.8591C299.329 39.3891 299.683 40.0157 299.927 40.739C300.17 41.4552 300.292 42.2322 300.292 43.0701V43.3171C300.292 44.155 300.17 44.932 299.927 45.6482C299.683 46.3643 299.329 46.991 298.863 47.5281C298.405 48.058 297.85 48.4734 297.198 48.7742C296.554 49.0678 295.823 49.2146 295.007 49.2146C294.19 49.2146 293.456 49.0678 292.805 48.7742C292.153 48.4734 291.594 48.058 291.129 47.5281C290.671 46.991 290.32 46.3643 290.076 45.6482C289.833 44.932 289.711 44.155 289.711 43.3171ZM291.698 43.0701V43.3171C291.698 43.8972 291.766 44.4451 291.902 44.9607C292.038 45.4692 292.243 45.9203 292.515 46.3142C292.794 46.7081 293.141 47.0196 293.557 47.2488C293.972 47.4708 294.455 47.5818 295.007 47.5818C295.551 47.5818 296.027 47.4708 296.436 47.2488C296.851 47.0196 297.195 46.7081 297.467 46.3142C297.739 45.9203 297.943 45.4692 298.079 44.9607C298.222 44.4451 298.294 43.8972 298.294 43.3171V43.0701C298.294 42.4972 298.222 41.9565 298.079 41.448C297.943 40.9324 297.735 40.4776 297.456 40.0837C297.184 39.6827 296.84 39.3676 296.425 39.1384C296.017 38.9093 295.537 38.7947 294.985 38.7947C294.441 38.7947 293.961 38.9093 293.546 39.1384C293.138 39.3676 292.794 39.6827 292.515 40.0837C292.243 40.4776 292.038 40.9324 291.902 41.448C291.766 41.9565 291.698 42.4972 291.698 43.0701ZM307.436 47.5818C307.908 47.5818 308.345 47.4851 308.746 47.2917C309.147 47.0984 309.477 46.8334 309.734 46.4968C309.992 46.1531 310.139 45.7628 310.175 45.3259H312.065C312.03 46.0134 311.797 46.6544 311.367 47.2488C310.945 47.836 310.39 48.3123 309.702 48.6775C309.015 49.0356 308.259 49.2146 307.436 49.2146C306.562 49.2146 305.799 49.0606 305.147 48.7527C304.503 48.4447 303.966 48.0222 303.536 47.4851C303.114 46.948 302.795 46.3321 302.58 45.6375C302.372 44.9356 302.269 44.1944 302.269 43.4138V42.9626C302.269 42.182 302.372 41.4444 302.58 40.7498C302.795 40.0479 303.114 39.4285 303.536 38.8914C303.966 38.3542 304.503 37.9317 305.147 37.6238C305.799 37.3158 306.562 37.1619 307.436 37.1619C308.345 37.1619 309.14 37.3481 309.82 37.7205C310.501 38.0857 311.034 38.587 311.421 39.2244C311.815 39.8546 312.03 40.5707 312.065 41.3728H310.175C310.139 40.893 310.003 40.4597 309.767 40.073C309.537 39.6863 309.222 39.3783 308.821 39.1492C308.427 38.9128 307.965 38.7947 307.436 38.7947C306.827 38.7947 306.315 38.9164 305.899 39.1599C305.491 39.3962 305.165 39.7185 304.922 40.1267C304.686 40.5278 304.514 40.9753 304.406 41.4695C304.306 41.9565 304.256 42.4542 304.256 42.9626V43.4138C304.256 43.9223 304.306 44.4236 304.406 44.9177C304.507 45.4119 304.675 45.8595 304.911 46.2605C305.155 46.6615 305.48 46.9838 305.889 47.2273C306.304 47.4636 306.82 47.5818 307.436 47.5818ZM316.287 39.6111V53.4685H314.289V37.3767H316.115L316.287 39.6111ZM324.118 43.0916V43.3171C324.118 44.1622 324.018 44.9464 323.817 45.6697C323.617 46.3858 323.323 47.0089 322.937 47.5388C322.557 48.0688 322.088 48.4806 321.529 48.7742C320.971 49.0678 320.33 49.2146 319.606 49.2146C318.869 49.2146 318.217 49.0929 317.651 48.8494C317.086 48.6059 316.606 48.2514 316.212 47.7859C315.818 47.3204 315.503 46.7618 315.267 46.1101C315.037 45.4584 314.88 44.7244 314.794 43.908V42.7048C314.88 41.8455 315.041 41.0756 315.277 40.3953C315.514 39.7149 315.825 39.1348 316.212 38.655C316.606 38.1681 317.082 37.7992 317.641 37.5486C318.199 37.2908 318.844 37.1619 319.574 37.1619C320.305 37.1619 320.953 37.3051 321.519 37.5916C322.084 37.8708 322.561 38.2719 322.947 38.7947C323.334 39.3175 323.624 39.9441 323.817 40.6746C324.018 41.3979 324.118 42.2035 324.118 43.0916ZM322.12 43.3171V43.0916C322.12 42.5115 322.059 41.9672 321.938 41.4587C321.816 40.9431 321.626 40.4919 321.368 40.1052C321.118 39.7113 320.795 39.4034 320.401 39.1814C320.007 38.9522 319.538 38.8376 318.994 38.8376C318.493 38.8376 318.056 38.9236 317.684 39.0955C317.318 39.2673 317.007 39.5001 316.749 39.7937C316.491 40.0802 316.28 40.4096 316.115 40.782C315.958 41.1472 315.84 41.5268 315.761 41.9207V44.7029C315.904 45.2042 316.104 45.6768 316.362 46.1208C316.62 46.5577 316.964 46.9122 317.394 47.1843C317.823 47.4493 318.364 47.5818 319.016 47.5818C319.553 47.5818 320.015 47.4708 320.401 47.2488C320.795 47.0196 321.118 46.7081 321.368 46.3142C321.626 45.9203 321.816 45.4692 321.938 44.9607C322.059 44.4451 322.12 43.8972 322.12 43.3171ZM331.477 49.2146C330.667 49.2146 329.933 49.0785 329.274 48.8064C328.623 48.5271 328.061 48.1368 327.588 47.6355C327.122 47.1342 326.764 46.5398 326.514 45.8523C326.263 45.1648 326.138 44.4128 326.138 43.5964V43.1453C326.138 42.2 326.277 41.3585 326.557 40.6208C326.836 39.8761 327.215 39.2458 327.695 38.7302C328.175 38.2146 328.719 37.8243 329.328 37.5593C329.937 37.2944 330.567 37.1619 331.219 37.1619C332.049 37.1619 332.766 37.3051 333.367 37.5916C333.976 37.878 334.474 38.2791 334.86 38.7947C335.247 39.3031 335.534 39.9047 335.72 40.5994C335.906 41.2869 335.999 42.0388 335.999 42.8552V43.7468H327.319V42.1248H334.012V41.9744C333.983 41.4587 333.876 40.9574 333.689 40.4705C333.51 39.9835 333.224 39.5824 332.83 39.2673C332.436 38.9522 331.899 38.7947 331.219 38.7947C330.768 38.7947 330.352 38.8914 329.973 39.0847C329.593 39.2709 329.267 39.5502 328.995 39.9226C328.723 40.295 328.512 40.7498 328.361 41.2869C328.211 41.824 328.136 42.4434 328.136 43.1453V43.5964C328.136 44.1479 328.211 44.6671 328.361 45.1541C328.519 45.6339 328.744 46.0564 329.038 46.4216C329.339 46.7869 329.701 47.0733 330.123 47.281C330.553 47.4887 331.04 47.5925 331.584 47.5925C332.286 47.5925 332.88 47.4493 333.367 47.1628C333.854 46.8764 334.28 46.4932 334.646 46.0134L335.849 46.9695C335.598 47.349 335.279 47.7107 334.893 48.0544C334.506 48.3982 334.03 48.6775 333.464 48.8923C332.905 49.1072 332.243 49.2146 331.477 49.2146ZM340.414 37.3767H342.401L342.229 41.7273C342.187 42.8302 342.061 43.7826 341.854 44.5847C341.646 45.3868 341.381 46.0707 341.059 46.6365C340.736 47.1951 340.375 47.6641 339.974 48.0437C339.58 48.4233 339.172 48.7419 338.749 48.9998H337.761L337.814 47.3777L338.223 47.3669C338.459 47.0876 338.688 46.8012 338.91 46.5076C339.132 46.2068 339.336 45.8523 339.522 45.4441C339.709 45.0287 339.863 44.5238 339.984 43.9294C340.113 43.3279 340.196 42.5938 340.231 41.7273L340.414 37.3767ZM340.908 37.3767H347.901V48.9998H345.914V39.2136H340.908V37.3767ZM337.31 47.3669H349.395V52.4265H347.407V48.9998H339.297V52.4265H337.299L337.31 47.3669ZM356.248 47.5818C356.721 47.5818 357.158 47.4851 357.559 47.2917C357.96 47.0984 358.289 46.8334 358.547 46.4968C358.805 46.1531 358.951 45.7628 358.987 45.3259H360.878C360.842 46.0134 360.609 46.6544 360.18 47.2488C359.757 47.836 359.202 48.3123 358.515 48.6775C357.827 49.0356 357.072 49.2146 356.248 49.2146C355.374 49.2146 354.612 49.0606 353.96 48.7527C353.315 48.4447 352.778 48.0222 352.349 47.4851C351.926 46.948 351.607 46.3321 351.393 45.6375C351.185 44.9356 351.081 44.1944 351.081 43.4138V42.9626C351.081 42.182 351.185 41.4444 351.393 40.7498C351.607 40.0479 351.926 39.4285 352.349 38.8914C352.778 38.3542 353.315 37.9317 353.96 37.6238C354.612 37.3158 355.374 37.1619 356.248 37.1619C357.158 37.1619 357.952 37.3481 358.633 37.7205C359.313 38.0857 359.847 38.587 360.233 39.2244C360.627 39.8546 360.842 40.5707 360.878 41.3728H358.987C358.951 40.893 358.815 40.4597 358.579 40.073C358.35 39.6863 358.035 39.3783 357.634 39.1492C357.24 38.9128 356.778 38.7947 356.248 38.7947C355.639 38.7947 355.127 38.9164 354.712 39.1599C354.304 39.3962 353.978 39.7185 353.734 40.1267C353.498 40.5278 353.326 40.9753 353.219 41.4695C353.118 41.9565 353.068 42.4542 353.068 42.9626V43.4138C353.068 43.9223 353.118 44.4236 353.219 44.9177C353.319 45.4119 353.487 45.8595 353.724 46.2605C353.967 46.6615 354.293 46.9838 354.701 47.2273C355.117 47.4636 355.632 47.5818 356.248 47.5818ZM367.85 37.3767V48.9998H365.852V37.3767H367.85ZM371.749 37.3767V38.988H362.027V37.3767H371.749ZM379.161 43.8865H375.348L375.326 42.2966H378.441C379.057 42.2966 379.569 42.2358 379.978 42.114C380.393 41.9923 380.704 41.8097 380.912 41.5662C381.12 41.3227 381.224 41.0219 381.224 40.6638C381.224 40.3845 381.163 40.141 381.041 39.9333C380.926 39.7185 380.751 39.5431 380.515 39.407C380.278 39.2638 379.985 39.1599 379.634 39.0955C379.29 39.0238 378.885 38.988 378.42 38.988H375.874V48.9998H373.887V37.3767H378.42C379.158 37.3767 379.82 37.4412 380.407 37.5701C381.002 37.699 381.507 37.8959 381.922 38.1609C382.344 38.4187 382.667 38.7481 382.889 39.1492C383.111 39.5502 383.222 40.0229 383.222 40.5671C383.222 40.9181 383.15 41.2511 383.007 41.5662C382.864 41.8813 382.652 42.1606 382.373 42.4041C382.094 42.6475 381.75 42.8481 381.342 43.0056C380.934 43.156 380.465 43.2527 379.935 43.2957L379.161 43.8865ZM379.161 48.9998H374.628L375.616 47.3884H379.161C379.713 47.3884 380.171 47.3204 380.536 47.1843C380.901 47.0411 381.174 46.8406 381.353 46.5828C381.539 46.3178 381.632 46.0027 381.632 45.6375C381.632 45.2722 381.539 44.9607 381.353 44.7029C381.174 44.4379 380.901 44.2374 380.536 44.1013C380.171 43.9581 379.713 43.8865 379.161 43.8865H376.143L376.164 42.2966H379.935L380.654 42.8982C381.292 42.9483 381.832 43.1059 382.276 43.3708C382.72 43.6358 383.057 43.9724 383.286 44.3806C383.515 44.7817 383.63 45.2185 383.63 45.6912C383.63 46.2354 383.526 46.7153 383.318 47.1306C383.118 47.546 382.824 47.8933 382.438 48.1726C382.051 48.4447 381.582 48.6524 381.03 48.7957C380.479 48.9317 379.856 48.9998 379.161 48.9998ZM385.768 43.3171V43.0701C385.768 42.2322 385.889 41.4552 386.133 40.739C386.376 40.0157 386.727 39.3891 387.186 38.8591C387.644 38.322 388.199 37.9067 388.851 37.613C389.502 37.3123 390.233 37.1619 391.042 37.1619C391.858 37.1619 392.592 37.3123 393.244 37.613C393.903 37.9067 394.462 38.322 394.92 38.8591C395.385 39.3891 395.74 40.0157 395.983 40.739C396.227 41.4552 396.349 42.2322 396.349 43.0701V43.3171C396.349 44.155 396.227 44.932 395.983 45.6482C395.74 46.3643 395.385 46.991 394.92 47.5281C394.462 48.058 393.907 48.4734 393.255 48.7742C392.61 49.0678 391.88 49.2146 391.063 49.2146C390.247 49.2146 389.513 49.0678 388.861 48.7742C388.21 48.4734 387.651 48.058 387.186 47.5281C386.727 46.991 386.376 46.3643 386.133 45.6482C385.889 44.932 385.768 44.155 385.768 43.3171ZM387.755 43.0701V43.3171C387.755 43.8972 387.823 44.4451 387.959 44.9607C388.095 45.4692 388.299 45.9203 388.571 46.3142C388.851 46.7081 389.198 47.0196 389.613 47.2488C390.029 47.4708 390.512 47.5818 391.063 47.5818C391.608 47.5818 392.084 47.4708 392.492 47.2488C392.908 47.0196 393.251 46.7081 393.523 46.3142C393.796 45.9203 394 45.4692 394.136 44.9607C394.279 44.4451 394.351 43.8972 394.351 43.3171V43.0701C394.351 42.4972 394.279 41.9565 394.136 41.448C394 40.9324 393.792 40.4776 393.513 40.0837C393.241 39.6827 392.897 39.3676 392.481 39.1384C392.073 38.9093 391.593 38.7947 391.042 38.7947C390.498 38.7947 390.018 38.9093 389.603 39.1384C389.194 39.3676 388.851 39.6827 388.571 40.0837C388.299 40.4776 388.095 40.9324 387.959 41.448C387.823 41.9565 387.755 42.4972 387.755 43.0701ZM405.522 46.3572L409.476 37.3767H411.388L406.21 48.9998H404.835L399.679 37.3767H401.591L405.522 46.3572ZM401.011 37.3767V48.9998H399.023V37.3767H401.011ZM409.97 48.9998V37.3767H411.968V48.9998H409.97ZM146.023 63.3767V65.0203H140.652V74.9998H138.665V63.3767H146.023ZM155.09 63.3767V65.0203H149.472V63.3767H155.09ZM156.841 63.3767V74.9998H154.854V63.3767H156.841ZM148.988 63.3767H150.986L150.686 68.9841C150.635 69.8507 150.553 70.6169 150.438 71.283C150.331 71.9418 150.181 72.5076 149.987 72.9802C149.801 73.4529 149.565 73.8396 149.278 74.1404C148.999 74.434 148.662 74.6524 148.269 74.7957C147.875 74.9317 147.42 74.9998 146.904 74.9998H146.281V73.2488L146.711 73.2166C147.019 73.1951 147.28 73.1235 147.495 73.0017C147.717 72.88 147.903 72.7009 148.054 72.4646C148.204 72.2211 148.326 71.9096 148.419 71.53C148.519 71.1505 148.594 70.6993 148.645 70.1765C148.702 69.6537 148.745 69.045 148.773 68.3503L148.988 63.3767ZM163.308 73.7966L166.541 63.3767H168.668L164.006 76.7937C163.898 77.0802 163.755 77.3881 163.576 77.7175C163.404 78.0541 163.182 78.3728 162.91 78.6736C162.638 78.9744 162.309 79.2179 161.922 79.4041C161.542 79.5974 161.088 79.6941 160.558 79.6941C160.4 79.6941 160.2 79.6726 159.956 79.6296C159.713 79.5867 159.541 79.5509 159.44 79.5222L159.43 77.9109C159.487 77.9181 159.576 77.9252 159.698 77.9324C159.827 77.9467 159.917 77.9539 159.967 77.9539C160.418 77.9539 160.801 77.893 161.116 77.7712C161.431 77.6567 161.696 77.4597 161.911 77.1804C162.133 76.9083 162.323 76.5323 162.48 76.0525L163.308 73.7966ZM160.934 63.3767L163.952 72.4001L164.468 74.4949L163.039 75.2253L158.764 63.3767H160.934ZM177.917 58.3171H179.55C179.55 59.019 179.442 59.5776 179.228 59.9929C179.013 60.4011 178.719 60.7162 178.347 60.9382C177.981 61.1602 177.566 61.3285 177.101 61.4431C176.642 61.5577 176.166 61.6687 175.672 61.7761C175.056 61.905 174.483 62.1091 173.953 62.3884C173.43 62.6606 172.979 63.0473 172.6 63.5486C172.227 64.0499 171.951 64.7016 171.772 65.5037C171.601 66.3057 171.554 67.2976 171.633 68.4792V69.4675H170V68.4792C170 67.1544 170.125 65.9978 170.376 65.0095C170.634 64.0212 170.995 63.1869 171.461 62.5066C171.926 61.8263 172.478 61.2856 173.115 60.8845C173.76 60.4835 174.469 60.2078 175.242 60.0574C175.801 59.95 176.281 59.8354 176.682 59.7136C177.083 59.5847 177.387 59.4128 177.595 59.198C177.81 58.9832 177.917 58.6895 177.917 58.3171ZM175.564 64.0427C176.324 64.0427 177 64.1752 177.595 64.4402C178.189 64.7052 178.694 65.074 179.109 65.5466C179.525 66.0193 179.84 66.5779 180.055 67.2224C180.277 67.8598 180.388 68.5544 180.388 69.3064V69.5427C180.388 70.352 180.27 71.1039 180.033 71.7986C179.804 72.4861 179.464 73.0876 179.013 73.6033C178.569 74.1117 178.024 74.5092 177.38 74.7957C176.743 75.0821 176.016 75.2253 175.199 75.2253C174.383 75.2253 173.652 75.0821 173.008 74.7957C172.37 74.5092 171.826 74.1117 171.375 73.6033C170.924 73.0876 170.58 72.4861 170.344 71.7986C170.115 71.1039 170 70.352 170 69.5427V69.3064C170 69.1274 170.032 68.9519 170.097 68.78C170.161 68.6082 170.24 68.4327 170.333 68.2537C170.433 68.0746 170.523 67.8848 170.602 67.6843C170.867 67.0398 171.228 66.4418 171.687 65.8904C172.152 65.3389 172.707 64.8949 173.352 64.5583C174.003 64.2146 174.741 64.0427 175.564 64.0427ZM175.178 65.6648C174.447 65.6648 173.846 65.8331 173.373 66.1697C172.908 66.5063 172.56 66.9539 172.331 67.5125C172.102 68.0639 171.987 68.6619 171.987 69.3064V69.5427C171.987 70.087 172.052 70.6026 172.181 71.0896C172.31 71.5766 172.503 72.0098 172.761 72.3894C173.026 72.7618 173.359 73.0554 173.76 73.2703C174.168 73.4851 174.648 73.5925 175.199 73.5925C175.751 73.5925 176.227 73.4851 176.628 73.2703C177.029 73.0554 177.358 72.7618 177.616 72.3894C177.874 72.0098 178.067 71.5766 178.196 71.0896C178.325 70.6026 178.39 70.087 178.39 69.5427V69.3064C178.39 68.8194 178.325 68.3575 178.196 67.9207C178.067 67.4838 177.87 67.0971 177.605 66.7605C177.348 66.4239 177.015 66.1589 176.606 65.9656C176.205 65.7651 175.729 65.6648 175.178 65.6648ZM182.117 69.3171V69.0701C182.117 68.2322 182.239 67.4552 182.482 66.739C182.726 66.0157 183.077 65.3891 183.535 64.8591C183.993 64.322 184.549 63.9067 185.2 63.613C185.852 63.3123 186.582 63.1619 187.392 63.1619C188.208 63.1619 188.942 63.3123 189.594 63.613C190.253 63.9067 190.811 64.322 191.27 64.8591C191.735 65.3891 192.09 66.0157 192.333 66.739C192.576 67.4552 192.698 68.2322 192.698 69.0701V69.3171C192.698 70.155 192.576 70.932 192.333 71.6482C192.09 72.3643 191.735 72.991 191.27 73.5281C190.811 74.058 190.256 74.4734 189.604 74.7742C188.96 75.0678 188.229 75.2146 187.413 75.2146C186.597 75.2146 185.863 75.0678 185.211 74.7742C184.559 74.4734 184.001 74.058 183.535 73.5281C183.077 72.991 182.726 72.3643 182.482 71.6482C182.239 70.932 182.117 70.155 182.117 69.3171ZM184.104 69.0701V69.3171C184.104 69.8972 184.173 70.4451 184.309 70.9607C184.445 71.4692 184.649 71.9203 184.921 72.3142C185.2 72.7081 185.548 73.0196 185.963 73.2488C186.378 73.4708 186.862 73.5818 187.413 73.5818C187.957 73.5818 188.434 73.4708 188.842 73.2488C189.257 73.0196 189.601 72.7081 189.873 72.3142C190.145 71.9203 190.349 71.4692 190.485 70.9607C190.629 70.4451 190.7 69.8972 190.7 69.3171V69.0701C190.7 68.4972 190.629 67.9565 190.485 67.448C190.349 66.9324 190.142 66.4776 189.862 66.0837C189.59 65.6827 189.246 65.3676 188.831 65.1384C188.423 64.9093 187.943 64.7947 187.392 64.7947C186.847 64.7947 186.368 64.9093 185.952 65.1384C185.544 65.3676 185.2 65.6827 184.921 66.0837C184.649 66.4776 184.445 66.9324 184.309 67.448C184.173 67.9565 184.104 68.4972 184.104 69.0701ZM197.35 63.3767V74.9998H195.362V63.3767H197.35ZM204.977 63.3767L199.466 70.0369H196.684L196.383 68.2966H198.66L202.56 63.3767H204.977ZM202.839 74.9998L198.563 69.7361L199.842 68.2966L205.363 74.9998H202.839ZM206.33 69.3171V69.0701C206.33 68.2322 206.452 67.4552 206.695 66.739C206.939 66.0157 207.29 65.3891 207.748 64.8591C208.206 64.322 208.761 63.9067 209.413 63.613C210.065 63.3123 210.795 63.1619 211.604 63.1619C212.421 63.1619 213.155 63.3123 213.807 63.613C214.465 63.9067 215.024 64.322 215.482 64.8591C215.948 65.3891 216.302 66.0157 216.546 66.739C216.789 67.4552 216.911 68.2322 216.911 69.0701V69.3171C216.911 70.155 216.789 70.932 216.546 71.6482C216.302 72.3643 215.948 72.991 215.482 73.5281C215.024 74.058 214.469 74.4734 213.817 74.7742C213.173 75.0678 212.442 75.2146 211.626 75.2146C210.81 75.2146 210.076 75.0678 209.424 74.7742C208.772 74.4734 208.214 74.058 207.748 73.5281C207.29 72.991 206.939 72.3643 206.695 71.6482C206.452 70.932 206.33 70.155 206.33 69.3171ZM208.317 69.0701V69.3171C208.317 69.8972 208.385 70.4451 208.521 70.9607C208.658 71.4692 208.862 71.9203 209.134 72.3142C209.413 72.7081 209.76 73.0196 210.176 73.2488C210.591 73.4708 211.075 73.5818 211.626 73.5818C212.17 73.5818 212.646 73.4708 213.055 73.2488C213.47 73.0196 213.814 72.7081 214.086 72.3142C214.358 71.9203 214.562 71.4692 214.698 70.9607C214.841 70.4451 214.913 69.8972 214.913 69.3171V69.0701C214.913 68.4972 214.841 67.9565 214.698 67.448C214.562 66.9324 214.354 66.4776 214.075 66.0837C213.803 65.6827 213.459 65.3676 213.044 65.1384C212.636 64.9093 212.156 64.7947 211.604 64.7947C211.06 64.7947 210.58 64.9093 210.165 65.1384C209.757 65.3676 209.413 65.6827 209.134 66.0837C208.862 66.4776 208.658 66.9324 208.521 67.448C208.385 67.9565 208.317 68.4972 208.317 69.0701ZM226.912 63.3767V65.0203H221.541V74.9998H219.554V63.3767H226.912ZM227.9 69.3171V69.0701C227.9 68.2322 228.022 67.4552 228.266 66.739C228.509 66.0157 228.86 65.3891 229.318 64.8591C229.777 64.322 230.332 63.9067 230.983 63.613C231.635 63.3123 232.366 63.1619 233.175 63.1619C233.991 63.1619 234.725 63.3123 235.377 63.613C236.036 63.9067 236.594 64.322 237.053 64.8591C237.518 65.3891 237.873 66.0157 238.116 66.739C238.36 67.4552 238.481 68.2322 238.481 69.0701V69.3171C238.481 70.155 238.36 70.932 238.116 71.6482C237.873 72.3643 237.518 72.991 237.053 73.5281C236.594 74.058 236.039 74.4734 235.388 74.7742C234.743 75.0678 234.013 75.2146 233.196 75.2146C232.38 75.2146 231.646 75.0678 230.994 74.7742C230.342 74.4734 229.784 74.058 229.318 73.5281C228.86 72.991 228.509 72.3643 228.266 71.6482C228.022 70.932 227.9 70.155 227.9 69.3171ZM229.888 69.0701V69.3171C229.888 69.8972 229.956 70.4451 230.092 70.9607C230.228 71.4692 230.432 71.9203 230.704 72.3142C230.983 72.7081 231.331 73.0196 231.746 73.2488C232.161 73.4708 232.645 73.5818 233.196 73.5818C233.741 73.5818 234.217 73.4708 234.625 73.2488C235.04 73.0196 235.384 72.7081 235.656 72.3142C235.928 71.9203 236.132 71.4692 236.269 70.9607C236.412 70.4451 236.483 69.8972 236.483 69.3171V69.0701C236.483 68.4972 236.412 67.9565 236.269 67.448C236.132 66.9324 235.925 66.4776 235.646 66.0837C235.373 65.6827 235.03 65.3676 234.614 65.1384C234.206 64.9093 233.726 64.7947 233.175 64.7947C232.631 64.7947 232.151 64.9093 231.735 65.1384C231.327 65.3676 230.983 65.6827 230.704 66.0837C230.432 66.4776 230.228 66.9324 230.092 67.448C229.956 67.9565 229.888 68.4972 229.888 69.0701ZM253.284 73.0125V67.0291C253.284 66.5707 253.191 66.1733 253.005 65.8367C252.826 65.4929 252.554 65.2279 252.188 65.0417C251.823 64.8556 251.372 64.7625 250.835 64.7625C250.334 64.7625 249.893 64.8484 249.514 65.0203C249.141 65.1921 248.848 65.4177 248.633 65.697C248.425 65.9763 248.321 66.2771 248.321 66.5994H246.334C246.334 66.184 246.441 65.7722 246.656 65.364C246.871 64.9558 247.179 64.587 247.58 64.2576C247.988 63.921 248.475 63.656 249.041 63.4626C249.614 63.2621 250.251 63.1619 250.953 63.1619C251.798 63.1619 252.543 63.3051 253.188 63.5916C253.839 63.878 254.348 64.3113 254.713 64.8914C255.085 65.4643 255.271 66.184 255.271 67.0505V72.4646C255.271 72.8513 255.304 73.2631 255.368 73.7C255.44 74.1368 255.544 74.5128 255.68 74.8279V74.9998H253.606C253.506 74.7706 253.427 74.4662 253.37 74.0867C253.313 73.7 253.284 73.3419 253.284 73.0125ZM253.628 67.9529L253.649 69.3494H251.641C251.075 69.3494 250.57 69.3959 250.126 69.489C249.682 69.575 249.31 69.7074 249.009 69.8865C248.708 70.0655 248.479 70.2911 248.321 70.5632C248.164 70.8282 248.085 71.1397 248.085 71.4978C248.085 71.863 248.167 72.196 248.332 72.4968C248.497 72.7976 248.744 73.0375 249.073 73.2166C249.41 73.3884 249.822 73.4744 250.309 73.4744C250.917 73.4744 251.454 73.3455 251.92 73.0876C252.385 72.8298 252.754 72.5147 253.026 72.1423C253.306 71.7699 253.456 71.4083 253.478 71.0574L254.326 72.0134C254.276 72.3142 254.14 72.6472 253.918 73.0125C253.696 73.3777 253.399 73.7286 253.026 74.0652C252.661 74.3946 252.224 74.6703 251.716 74.8923C251.215 75.1072 250.649 75.2146 250.019 75.2146C249.231 75.2146 248.54 75.0606 247.945 74.7527C247.358 74.4447 246.9 74.033 246.57 73.5173C246.248 72.9945 246.087 72.4109 246.087 71.7664C246.087 71.1433 246.209 70.5955 246.452 70.1228C246.696 69.643 247.047 69.2455 247.505 68.9304C247.963 68.6082 248.515 68.3647 249.159 68.2C249.804 68.0352 250.523 67.9529 251.318 67.9529H253.628ZM266.282 68.4148V70.0261H260.138V68.4148H266.282ZM260.557 63.3767V74.9998H258.569V63.3767H260.557ZM267.894 63.3767V74.9998H265.896V63.3767H267.894ZM277.948 73.0125V67.0291C277.948 66.5707 277.855 66.1733 277.669 65.8367C277.49 65.4929 277.218 65.2279 276.853 65.0417C276.487 64.8556 276.036 64.7625 275.499 64.7625C274.998 64.7625 274.557 64.8484 274.178 65.0203C273.805 65.1921 273.512 65.4177 273.297 65.697C273.089 65.9763 272.985 66.2771 272.985 66.5994H270.998C270.998 66.184 271.105 65.7722 271.32 65.364C271.535 64.9558 271.843 64.587 272.244 64.2576C272.652 63.921 273.139 63.656 273.705 63.4626C274.278 63.2621 274.915 63.1619 275.617 63.1619C276.462 63.1619 277.207 63.3051 277.852 63.5916C278.503 63.878 279.012 64.3113 279.377 64.8914C279.749 65.4643 279.936 66.184 279.936 67.0505V72.4646C279.936 72.8513 279.968 73.2631 280.032 73.7C280.104 74.1368 280.208 74.5128 280.344 74.8279V74.9998H278.271C278.17 74.7706 278.091 74.4662 278.034 74.0867C277.977 73.7 277.948 73.3419 277.948 73.0125ZM278.292 67.9529L278.313 69.3494H276.305C275.739 69.3494 275.234 69.3959 274.79 69.489C274.346 69.575 273.974 69.7074 273.673 69.8865C273.372 70.0655 273.143 70.2911 272.985 70.5632C272.828 70.8282 272.749 71.1397 272.749 71.4978C272.749 71.863 272.831 72.196 272.996 72.4968C273.161 72.7976 273.408 73.0375 273.737 73.2166C274.074 73.3884 274.486 73.4744 274.973 73.4744C275.581 73.4744 276.118 73.3455 276.584 73.0876C277.049 72.8298 277.418 72.5147 277.69 72.1423C277.97 71.7699 278.12 71.4083 278.142 71.0574L278.99 72.0134C278.94 72.3142 278.804 72.6472 278.582 73.0125C278.36 73.3777 278.063 73.7286 277.69 74.0652C277.325 74.3946 276.888 74.6703 276.38 74.8923C275.879 75.1072 275.313 75.2146 274.683 75.2146C273.895 75.2146 273.204 75.0606 272.609 74.7527C272.022 74.4447 271.564 74.033 271.234 73.5173C270.912 72.9945 270.751 72.4109 270.751 71.7664C270.751 71.1433 270.873 70.5955 271.116 70.1228C271.36 69.643 271.711 69.2455 272.169 68.9304C272.627 68.6082 273.179 68.3647 273.823 68.2C274.468 68.0352 275.188 67.9529 275.982 67.9529H278.292ZM290.828 63.3767V65.0203H285.21V63.3767H290.828ZM292.579 63.3767V74.9998H290.592V63.3767H292.579ZM284.727 63.3767H286.725L286.424 68.9841C286.374 69.8507 286.291 70.6169 286.177 71.283C286.069 71.9418 285.919 72.5076 285.726 72.9802C285.539 73.4529 285.303 73.8396 285.017 74.1404C284.737 74.434 284.401 74.6524 284.007 74.7957C283.613 74.9317 283.158 74.9998 282.643 74.9998H282.02V73.2488L282.449 73.2166C282.757 73.1951 283.019 73.1235 283.233 73.0017C283.455 72.88 283.642 72.7009 283.792 72.4646C283.942 72.2211 284.064 71.9096 284.157 71.53C284.257 71.1505 284.333 70.6993 284.383 70.1765C284.44 69.6537 284.483 69.045 284.512 68.3503L284.727 63.3767ZM297.929 71.8523L303.289 63.3767H305.287V74.9998H303.289V66.5242L297.929 74.9998H295.952V63.3767H297.929V71.8523ZM312.817 69.446H310.68V68.2214H312.656C313.208 68.2214 313.645 68.1534 313.967 68.0173C314.289 67.8741 314.518 67.6772 314.654 67.4265C314.79 67.1759 314.858 66.8822 314.858 66.5457C314.858 66.2449 314.78 65.962 314.622 65.697C314.472 65.4249 314.228 65.2065 313.892 65.0417C313.555 64.8699 313.104 64.7839 312.538 64.7839C312.08 64.7839 311.664 64.8663 311.292 65.031C310.92 65.1886 310.622 65.407 310.4 65.6863C310.186 65.9584 310.078 66.2664 310.078 66.6101H308.091C308.091 65.9011 308.291 65.2924 308.692 64.7839C309.101 64.2683 309.641 63.8708 310.314 63.5916C310.995 63.3123 311.736 63.1726 312.538 63.1726C313.211 63.1726 313.813 63.2478 314.343 63.3982C314.88 63.5414 315.335 63.7563 315.707 64.0427C316.079 64.322 316.362 64.6729 316.556 65.0955C316.756 65.5108 316.856 65.9942 316.856 66.5457C316.856 66.9395 316.763 67.3119 316.577 67.6628C316.391 68.0138 316.122 68.3253 315.771 68.5974C315.421 68.8624 314.994 69.0701 314.493 69.2205C313.999 69.3708 313.44 69.446 312.817 69.446ZM310.68 68.6941H312.817C313.512 68.6941 314.124 68.7621 314.654 68.8982C315.184 69.0271 315.628 69.2205 315.986 69.4783C316.344 69.7361 316.613 70.0548 316.792 70.4343C316.978 70.8067 317.071 71.2364 317.071 71.7234C317.071 72.2677 316.96 72.7582 316.738 73.1951C316.523 73.6248 316.215 73.99 315.814 74.2908C315.413 74.5916 314.934 74.8207 314.375 74.9783C313.824 75.1358 313.211 75.2146 312.538 75.2146C311.786 75.2146 311.056 75.0857 310.347 74.8279C309.638 74.5701 309.054 74.1726 308.596 73.6355C308.137 73.0912 307.908 72.4001 307.908 71.5623H309.896C309.896 71.9132 310.007 72.2462 310.229 72.5613C310.451 72.8764 310.758 73.1306 311.152 73.324C311.553 73.5173 312.015 73.614 312.538 73.614C313.097 73.614 313.562 73.5281 313.935 73.3562C314.307 73.1843 314.586 72.9552 314.772 72.6687C314.966 72.3822 315.062 72.0707 315.062 71.7341C315.062 71.2973 314.977 70.9464 314.805 70.6814C314.633 70.4164 314.368 70.2231 314.01 70.1013C313.659 69.9724 313.208 69.908 312.656 69.908H310.68V68.6941ZM326.503 73.0125V67.0291C326.503 66.5707 326.41 66.1733 326.224 65.8367C326.045 65.4929 325.772 65.2279 325.407 65.0417C325.042 64.8556 324.591 64.7625 324.054 64.7625C323.552 64.7625 323.112 64.8484 322.732 65.0203C322.36 65.1921 322.066 65.4177 321.852 65.697C321.644 65.9763 321.54 66.2771 321.54 66.5994H319.553C319.553 66.184 319.66 65.7722 319.875 65.364C320.09 64.9558 320.398 64.587 320.799 64.2576C321.207 63.921 321.694 63.656 322.26 63.4626C322.833 63.2621 323.47 63.1619 324.172 63.1619C325.017 63.1619 325.762 63.3051 326.406 63.5916C327.058 63.878 327.566 64.3113 327.932 64.8914C328.304 65.4643 328.49 66.184 328.49 67.0505V72.4646C328.49 72.8513 328.522 73.2631 328.587 73.7C328.659 74.1368 328.762 74.5128 328.898 74.8279V74.9998H326.825C326.725 74.7706 326.646 74.4662 326.589 74.0867C326.532 73.7 326.503 73.3419 326.503 73.0125ZM326.847 67.9529L326.868 69.3494H324.859C324.294 69.3494 323.789 69.3959 323.345 69.489C322.901 69.575 322.528 69.7074 322.228 69.8865C321.927 70.0655 321.698 70.2911 321.54 70.5632C321.382 70.8282 321.304 71.1397 321.304 71.4978C321.304 71.863 321.386 72.196 321.551 72.4968C321.715 72.7976 321.963 73.0375 322.292 73.2166C322.629 73.3884 323.04 73.4744 323.527 73.4744C324.136 73.4744 324.673 73.3455 325.139 73.0876C325.604 72.8298 325.973 72.5147 326.245 72.1423C326.524 71.7699 326.675 71.4083 326.696 71.0574L327.545 72.0134C327.495 72.3142 327.359 72.6472 327.137 73.0125C326.915 73.3777 326.618 73.7286 326.245 74.0652C325.88 74.3946 325.443 74.6703 324.935 74.8923C324.433 75.1072 323.868 75.2146 323.237 75.2146C322.45 75.2146 321.758 75.0606 321.164 74.7527C320.577 74.4447 320.118 74.033 319.789 73.5173C319.467 72.9945 319.306 72.4109 319.306 71.7664C319.306 71.1433 319.427 70.5955 319.671 70.1228C319.914 69.643 320.265 69.2455 320.724 68.9304C321.182 68.6082 321.733 68.3647 322.378 68.2C323.022 68.0352 323.742 67.9529 324.537 67.9529H326.847Z" fill="black"/>
<defs>
<filter id="filter0_d_822_2153" x="545.052" y="4.08594" width="106.19" height="106.163" filterUnits="userSpaceOnUse" color-interpolation-filters="sRGB">
<feFlood flood-opacity="0" result="BackgroundImageFix"/>
<feColorMatrix in="SourceAlpha" type="matrix" values="0 0 0 0 0 0 0 0 0 0 0 0 0 0 0 0 0 0 127 0" result="hardAlpha"/>
<feOffset/>
<feGaussianBlur stdDeviation="12"/>
<feComposite in2="hardAlpha" operator="out"/>
<feColorMatrix type="matrix" values="0 0 0 0 0.579167 0 0 0 0 0.579167 0 0 0 0 0.579167 0 0 0 0.3 0"/>
<feBlend mode="normal" in2="BackgroundImageFix" result="effect1_dropShadow_822_2153"/>
<feBlend mode="normal" in="SourceGraphic" in2="effect1_dropShadow_822_2153" result="shape"/>
</filter>
</defs>
</svg>
