<svg width="655" height="116" viewBox="0 0 655 116" fill="none" xmlns="http://www.w3.org/2000/svg">
<path d="M654.819 58.0351C654.819 26.0524 628.892 0.137746 596.91 0.152891C564.927 0.168035 539 26.1073 539 58.09C539 90.0726 564.927 115.987 596.91 115.972C628.892 115.957 654.819 90.0178 654.819 58.0351Z" fill="#00A3FF"/>
<path d="M608.586 64.7068H613.391V72.4998H608.586V79.9998H599.592V72.4998H579.787V63.5056L598.098 37.988H608.586V64.7068ZM599.592 64.7068V48.5056L588.195 64.7068H599.592Z" fill="white"/>
<path d="M175.294 57.9995L57.2939 57.9995" stroke="#00A3FF" stroke-miterlimit="10" stroke-linecap="round"/>
<g filter="url(#filter0_d_822_2141)">
<path d="M32.5734 78.7311C21.2109 67.374 21.2109 48.9605 32.5733 37.6034C43.9358 26.2463 62.358 26.2463 73.7204 37.6034C85.0829 48.9605 85.0829 67.374 73.7204 78.731C62.358 90.0881 43.9358 90.0881 32.5734 78.7311Z" fill="white"/>
</g>
<path d="M44.0532 58.1642C44.0479 59.8868 44.5531 61.5725 45.505 63.0085C46.457 64.4446 47.8131 65.5667 49.4023 66.2333C50.9915 66.8999 52.7426 67.0813 54.4347 66.7544C56.1269 66.4275 57.6843 65.6071 58.9106 64.3966C60.1368 63.1861 60.977 61.6397 61.3251 59.9526C61.6731 58.2654 61.5136 56.513 60.8665 54.9164C60.2194 53.3198 59.1137 51.9504 57.689 50.9811C56.2643 50.0117 54.5843 49.4858 52.8609 49.4697C51.7094 49.4552 50.5665 49.6695 49.4985 50.1C48.4306 50.5304 47.4587 51.1686 46.6394 51.9774C45.8201 52.7862 45.1695 53.7495 44.7256 54.8116C44.2816 55.8736 44.0531 57.0132 44.0532 58.1642V58.1642Z" fill="#00A3FF"/>
<path d="M52.7516 61.571C50.8692 61.571 49.3431 60.0456 49.3431 58.164C49.3431 56.2824 50.8692 54.7571 52.7516 54.7571C54.6341 54.7571 56.1602 56.2824 56.1602 58.164C56.1602 60.0456 54.6341 61.571 52.7516 61.571Z" fill="white"/>
<path d="M172.842 58.164C172.837 59.8901 173.344 61.5791 174.299 63.0169C175.255 64.4548 176.616 65.5769 178.21 66.2412C179.804 66.9056 181.559 67.0822 183.254 66.7487C184.948 66.4153 186.505 65.5868 187.729 64.3681C188.952 63.1494 189.785 61.5954 190.124 59.9028C190.463 58.2102 190.292 56.4552 189.632 54.8599C188.973 53.2646 187.854 51.9009 186.419 50.9413C184.983 49.9817 183.295 49.4695 181.568 49.4695C179.259 49.4695 177.043 50.3846 175.408 52.0144C173.772 53.6441 172.849 55.8556 172.842 58.164V58.164Z" fill="#00A3FF"/>
<path d="M181.541 61.571C179.658 61.571 178.132 60.0456 178.132 58.164C178.132 56.2824 179.658 54.7571 181.541 54.7571C183.423 54.7571 184.949 56.2824 184.949 58.164C184.949 60.0456 183.423 61.571 181.541 61.571Z" fill="white"/>
<path d="M244.857 32.6851V33.6733C244.857 34.8478 244.711 35.9006 244.417 36.8315C244.123 37.7625 243.701 38.5539 243.149 39.2056C242.598 39.8573 241.936 40.355 241.162 40.6987C240.396 41.0425 239.536 41.2144 238.584 41.2144C237.66 41.2144 236.812 41.0425 236.038 40.6987C235.272 40.355 234.606 39.8573 234.04 39.2056C233.481 38.5539 233.048 37.7625 232.74 36.8315C232.432 35.9006 232.278 34.8478 232.278 33.6733V32.6851C232.278 31.5106 232.429 30.4614 232.729 29.5376C233.037 28.6066 233.471 27.8153 234.029 27.1636C234.588 26.5047 235.25 26.0034 236.017 25.6597C236.79 25.3159 237.639 25.144 238.562 25.144C239.515 25.144 240.374 25.3159 241.141 25.6597C241.914 26.0034 242.576 26.5047 243.128 27.1636C243.687 27.8153 244.113 28.6066 244.406 29.5376C244.707 30.4614 244.857 31.5106 244.857 32.6851ZM242.806 33.6733V32.6636C242.806 31.7326 242.709 30.909 242.516 30.1929C242.329 29.4767 242.054 28.8752 241.688 28.3882C241.323 27.9012 240.876 27.5324 240.346 27.2817C239.823 27.0311 239.229 26.9058 238.562 26.9058C237.918 26.9058 237.334 27.0311 236.812 27.2817C236.296 27.5324 235.852 27.9012 235.479 28.3882C235.114 28.8752 234.831 29.4767 234.631 30.1929C234.43 30.909 234.33 31.7326 234.33 32.6636V33.6733C234.33 34.6115 234.43 35.4422 234.631 36.1655C234.831 36.8817 235.118 37.4868 235.49 37.981C235.87 38.4679 236.317 38.8368 236.833 39.0874C237.356 39.3381 237.939 39.4634 238.584 39.4634C239.257 39.4634 239.855 39.3381 240.378 39.0874C240.901 38.8368 241.341 38.4679 241.699 37.981C242.064 37.4868 242.34 36.8817 242.526 36.1655C242.713 35.4422 242.806 34.6115 242.806 33.6733ZM252.398 29.3765V40.9995H250.4V29.3765H252.398ZM256.298 29.3765V30.9878H246.576V29.3765H256.298ZM260.412 29.3765V40.9995H258.425V29.3765H260.412ZM268.039 29.3765L262.528 36.0366H259.746L259.445 34.2964H261.723L265.622 29.3765H268.039ZM265.901 40.9995L261.626 35.7358L262.904 34.2964L268.426 40.9995H265.901ZM272.143 31.6108V45.4683H270.145V29.3765H271.971L272.143 31.6108ZM279.974 35.0913V35.3169C279.974 36.1619 279.873 36.9461 279.673 37.6694C279.472 38.3856 279.179 39.0086 278.792 39.5386C278.412 40.0685 277.943 40.4803 277.385 40.7739C276.826 41.0675 276.185 41.2144 275.462 41.2144C274.724 41.2144 274.073 41.0926 273.507 40.8491C272.941 40.6056 272.461 40.2511 272.067 39.7856C271.674 39.3201 271.358 38.7616 271.122 38.1099C270.893 37.4582 270.735 36.7241 270.649 35.9077V34.7046C270.735 33.8452 270.896 33.0754 271.133 32.395C271.369 31.7147 271.681 31.1346 272.067 30.6548C272.461 30.1678 272.938 29.799 273.496 29.5483C274.055 29.2905 274.699 29.1616 275.43 29.1616C276.16 29.1616 276.808 29.3049 277.374 29.5913C277.94 29.8706 278.416 30.2716 278.803 30.7944C279.189 31.3172 279.479 31.9438 279.673 32.6743C279.873 33.3976 279.974 34.2033 279.974 35.0913ZM277.976 35.3169V35.0913C277.976 34.5112 277.915 33.967 277.793 33.4585C277.671 32.9429 277.481 32.4917 277.224 32.105C276.973 31.7111 276.651 31.4032 276.257 31.1812C275.863 30.952 275.394 30.8374 274.85 30.8374C274.348 30.8374 273.911 30.9233 273.539 31.0952C273.174 31.2671 272.862 31.4998 272.604 31.7935C272.347 32.0799 272.135 32.4093 271.971 32.7817C271.813 33.147 271.695 33.5265 271.616 33.9204V36.7026C271.759 37.2039 271.96 37.6766 272.218 38.1206C272.476 38.5575 272.819 38.9119 273.249 39.1841C273.679 39.4491 274.219 39.5815 274.871 39.5815C275.408 39.5815 275.87 39.4705 276.257 39.2485C276.651 39.0194 276.973 38.7078 277.224 38.314C277.481 37.9201 277.671 37.4689 277.793 36.9604C277.915 36.4448 277.976 35.897 277.976 35.3169ZM284.142 33.3726H287.633C288.571 33.3726 289.362 33.5373 290.007 33.8667C290.651 34.189 291.138 34.6366 291.468 35.2095C291.804 35.7752 291.973 36.4198 291.973 37.1431C291.973 37.6802 291.88 38.1851 291.693 38.6577C291.507 39.1232 291.228 39.5314 290.855 39.8823C290.49 40.2332 290.035 40.509 289.491 40.7095C288.954 40.9028 288.335 40.9995 287.633 40.9995H282.691V29.3765H284.679V39.3667H287.633C288.206 39.3667 288.664 39.2629 289.008 39.0552C289.352 38.8475 289.599 38.5789 289.749 38.2495C289.899 37.9201 289.975 37.5763 289.975 37.2183C289.975 36.8674 289.899 36.5236 289.749 36.187C289.599 35.8504 289.352 35.5711 289.008 35.3491C288.664 35.12 288.206 35.0054 287.633 35.0054H284.142V33.3726ZM296.108 29.3765V40.9995H294.121V29.3765H296.108ZM304.326 29.3765V40.9995H302.328V29.3765H304.326ZM308.226 29.3765V30.9878H298.504V29.3765H308.226ZM312.329 37.8521L317.689 29.3765H319.688V40.9995H317.689V32.5239L312.329 40.9995H310.353V29.3765H312.329V37.8521ZM327.701 41.2144C326.892 41.2144 326.158 41.0783 325.499 40.8062C324.847 40.5269 324.285 40.1366 323.812 39.6353C323.347 39.134 322.989 38.5396 322.738 37.8521C322.488 37.1646 322.362 36.4126 322.362 35.5962V35.145C322.362 34.1997 322.502 33.3582 322.781 32.6206C323.061 31.8758 323.44 31.2456 323.92 30.73C324.4 30.2144 324.944 29.8241 325.553 29.5591C326.161 29.2941 326.792 29.1616 327.443 29.1616C328.274 29.1616 328.99 29.3049 329.592 29.5913C330.201 29.8778 330.698 30.2788 331.085 30.7944C331.472 31.3029 331.758 31.9045 331.944 32.5991C332.131 33.2866 332.224 34.0386 332.224 34.855V35.7466H323.544V34.1245H330.236V33.9741C330.208 33.4585 330.1 32.9572 329.914 32.4702C329.735 31.9832 329.449 31.5822 329.055 31.2671C328.661 30.952 328.124 30.7944 327.443 30.7944C326.992 30.7944 326.577 30.8911 326.197 31.0845C325.818 31.2707 325.492 31.55 325.22 31.9224C324.948 32.2948 324.736 32.7495 324.586 33.2866C324.436 33.8237 324.36 34.4432 324.36 35.145V35.5962C324.36 36.1476 324.436 36.6668 324.586 37.1538C324.743 37.6336 324.969 38.0562 325.263 38.4214C325.563 38.7866 325.925 39.0731 326.348 39.2808C326.777 39.4884 327.264 39.5923 327.809 39.5923C328.51 39.5923 329.105 39.4491 329.592 39.1626C330.079 38.8761 330.505 38.493 330.87 38.0132L332.073 38.9692C331.823 39.3488 331.504 39.7104 331.117 40.0542C330.73 40.3979 330.254 40.6772 329.688 40.8921C329.13 41.1069 328.467 41.2144 327.701 41.2144ZM344.652 39.5815C345.125 39.5815 345.562 39.4849 345.963 39.2915C346.364 39.0981 346.693 38.8332 346.951 38.4966C347.209 38.1528 347.356 37.7625 347.392 37.3257H349.282C349.246 38.0132 349.014 38.6541 348.584 39.2485C348.161 39.8358 347.606 40.312 346.919 40.6772C346.231 41.0353 345.476 41.2144 344.652 41.2144C343.779 41.2144 343.016 41.0604 342.364 40.7524C341.72 40.4445 341.183 40.022 340.753 39.4849C340.33 38.9478 340.012 38.3319 339.797 37.6372C339.589 36.9354 339.485 36.1942 339.485 35.4136V34.9624C339.485 34.1818 339.589 33.4442 339.797 32.7495C340.012 32.0477 340.33 31.4282 340.753 30.8911C341.183 30.354 341.72 29.9315 342.364 29.6235C343.016 29.3156 343.779 29.1616 344.652 29.1616C345.562 29.1616 346.357 29.3478 347.037 29.7202C347.717 30.0854 348.251 30.5868 348.638 31.2241C349.032 31.8543 349.246 32.5705 349.282 33.3726H347.392C347.356 32.8927 347.22 32.4595 346.983 32.0728C346.754 31.686 346.439 31.3781 346.038 31.1489C345.644 30.9126 345.182 30.7944 344.652 30.7944C344.044 30.7944 343.532 30.9162 343.116 31.1597C342.708 31.396 342.382 31.7183 342.139 32.1265C341.902 32.5275 341.73 32.9751 341.623 33.4692C341.523 33.9562 341.473 34.4539 341.473 34.9624V35.4136C341.473 35.922 341.523 36.4233 341.623 36.9175C341.723 37.4116 341.892 37.8592 342.128 38.2603C342.371 38.6613 342.697 38.9836 343.105 39.2271C343.521 39.4634 344.036 39.5815 344.652 39.5815ZM350.99 35.3169V35.0698C350.99 34.2319 351.112 33.4549 351.355 32.7388C351.599 32.0155 351.95 31.3888 352.408 30.8589C352.867 30.3218 353.422 29.9064 354.073 29.6128C354.725 29.312 355.455 29.1616 356.265 29.1616C357.081 29.1616 357.815 29.312 358.467 29.6128C359.126 29.9064 359.684 30.3218 360.143 30.8589C360.608 31.3888 360.963 32.0155 361.206 32.7388C361.45 33.4549 361.571 34.2319 361.571 35.0698V35.3169C361.571 36.1548 361.45 36.9318 361.206 37.6479C360.963 38.3641 360.608 38.9907 360.143 39.5278C359.684 40.0578 359.129 40.4731 358.478 40.7739C357.833 41.0675 357.103 41.2144 356.286 41.2144C355.47 41.2144 354.736 41.0675 354.084 40.7739C353.432 40.4731 352.874 40.0578 352.408 39.5278C351.95 38.9907 351.599 38.3641 351.355 37.6479C351.112 36.9318 350.99 36.1548 350.99 35.3169ZM352.978 35.0698V35.3169C352.978 35.897 353.046 36.4448 353.182 36.9604C353.318 37.4689 353.522 37.9201 353.794 38.314C354.073 38.7078 354.421 39.0194 354.836 39.2485C355.251 39.4705 355.735 39.5815 356.286 39.5815C356.83 39.5815 357.307 39.4705 357.715 39.2485C358.13 39.0194 358.474 38.7078 358.746 38.314C359.018 37.9201 359.222 37.4689 359.358 36.9604C359.502 36.4448 359.573 35.897 359.573 35.3169V35.0698C359.573 34.4969 359.502 33.9562 359.358 33.4478C359.222 32.9321 359.015 32.4774 358.735 32.0835C358.463 31.6825 358.119 31.3674 357.704 31.1382C357.296 30.909 356.816 30.7944 356.265 30.7944C355.72 30.7944 355.241 30.909 354.825 31.1382C354.417 31.3674 354.073 31.6825 353.794 32.0835C353.522 32.4774 353.318 32.9321 353.182 33.4478C353.046 33.9562 352.978 34.4969 352.978 35.0698ZM369.521 35.8862H365.707L365.686 34.2964H368.801C369.417 34.2964 369.929 34.2355 370.337 34.1138C370.752 33.992 371.064 33.8094 371.271 33.5659C371.479 33.3224 371.583 33.0216 371.583 32.6636C371.583 32.3843 371.522 32.1408 371.4 31.9331C371.286 31.7183 371.11 31.5428 370.874 31.4067C370.638 31.2635 370.344 31.1597 369.993 31.0952C369.649 31.0236 369.245 30.9878 368.779 30.9878H366.233V40.9995H364.246V29.3765H368.779C369.517 29.3765 370.179 29.4409 370.767 29.5698C371.361 29.6987 371.866 29.8957 372.281 30.1606C372.704 30.4185 373.026 30.7479 373.248 31.1489C373.47 31.55 373.581 32.0226 373.581 32.5669C373.581 32.9178 373.509 33.2508 373.366 33.5659C373.223 33.881 373.012 34.1603 372.732 34.4038C372.453 34.6473 372.109 34.8478 371.701 35.0054C371.293 35.1558 370.824 35.2524 370.294 35.2954L369.521 35.8862ZM369.521 40.9995H364.987L365.976 39.3882H369.521C370.072 39.3882 370.53 39.3201 370.896 39.1841C371.261 39.0409 371.533 38.8403 371.712 38.5825C371.898 38.3175 371.991 38.0024 371.991 37.6372C371.991 37.272 371.898 36.9604 371.712 36.7026C371.533 36.4377 371.261 36.2371 370.896 36.1011C370.53 35.9578 370.072 35.8862 369.521 35.8862H366.502L366.523 34.2964H370.294L371.014 34.8979C371.651 34.9481 372.192 35.1056 372.636 35.3706C373.08 35.6356 373.416 35.9722 373.646 36.3804C373.875 36.7814 373.989 37.2183 373.989 37.6909C373.989 38.2352 373.885 38.715 373.678 39.1304C373.477 39.5457 373.184 39.8931 372.797 40.1724C372.41 40.4445 371.941 40.6522 371.39 40.7954C370.838 40.9315 370.215 40.9995 369.521 40.9995ZM383.335 38.3569L387.288 29.3765H389.2L384.022 40.9995H382.647L377.491 29.3765H379.403L383.335 38.3569ZM378.823 29.3765V40.9995H376.836V29.3765H378.823ZM387.782 40.9995V29.3765H389.78V40.9995H387.782ZM397.805 41.2144C396.995 41.2144 396.261 41.0783 395.603 40.8062C394.951 40.5269 394.389 40.1366 393.916 39.6353C393.451 39.134 393.092 38.5396 392.842 37.8521C392.591 37.1646 392.466 36.4126 392.466 35.5962V35.145C392.466 34.1997 392.605 33.3582 392.885 32.6206C393.164 31.8758 393.544 31.2456 394.023 30.73C394.503 30.2144 395.048 29.8241 395.656 29.5591C396.265 29.2941 396.895 29.1616 397.547 29.1616C398.378 29.1616 399.094 29.3049 399.695 29.5913C400.304 29.8778 400.802 30.2788 401.188 30.7944C401.575 31.3029 401.862 31.9045 402.048 32.5991C402.234 33.2866 402.327 34.0386 402.327 34.855V35.7466H393.647V34.1245H400.34V33.9741C400.311 33.4585 400.204 32.9572 400.018 32.4702C399.839 31.9832 399.552 31.5822 399.158 31.2671C398.764 30.952 398.227 30.7944 397.547 30.7944C397.096 30.7944 396.68 30.8911 396.301 31.0845C395.921 31.2707 395.595 31.55 395.323 31.9224C395.051 32.2948 394.84 32.7495 394.689 33.2866C394.539 33.8237 394.464 34.4432 394.464 35.145V35.5962C394.464 36.1476 394.539 36.6668 394.689 37.1538C394.847 37.6336 395.073 38.0562 395.366 38.4214C395.667 38.7866 396.029 39.0731 396.451 39.2808C396.881 39.4884 397.368 39.5923 397.912 39.5923C398.614 39.5923 399.208 39.4491 399.695 39.1626C400.182 38.8761 400.608 38.493 400.974 38.0132L402.177 38.9692C401.926 39.3488 401.607 39.7104 401.221 40.0542C400.834 40.3979 400.358 40.6772 399.792 40.8921C399.233 41.1069 398.571 41.2144 397.805 41.2144ZM409.299 39.5815C409.771 39.5815 410.208 39.4849 410.609 39.2915C411.01 39.0981 411.34 38.8332 411.598 38.4966C411.855 38.1528 412.002 37.7625 412.038 37.3257H413.929C413.893 38.0132 413.66 38.6541 413.23 39.2485C412.808 39.8358 412.253 40.312 411.565 40.6772C410.878 41.0353 410.122 41.2144 409.299 41.2144C408.425 41.2144 407.662 41.0604 407.011 40.7524C406.366 40.4445 405.829 40.022 405.399 39.4849C404.977 38.9478 404.658 38.3319 404.443 37.6372C404.236 36.9354 404.132 36.1942 404.132 35.4136V34.9624C404.132 34.1818 404.236 33.4442 404.443 32.7495C404.658 32.0477 404.977 31.4282 405.399 30.8911C405.829 30.354 406.366 29.9315 407.011 29.6235C407.662 29.3156 408.425 29.1616 409.299 29.1616C410.208 29.1616 411.003 29.3478 411.684 29.7202C412.364 30.0854 412.897 30.5868 413.284 31.2241C413.678 31.8543 413.893 32.5705 413.929 33.3726H412.038C412.002 32.8927 411.866 32.4595 411.63 32.0728C411.401 31.686 411.086 31.3781 410.685 31.1489C410.291 30.9126 409.829 30.7944 409.299 30.7944C408.69 30.7944 408.178 30.9162 407.763 31.1597C407.354 31.396 407.029 31.7183 406.785 32.1265C406.549 32.5275 406.377 32.9751 406.27 33.4692C406.169 33.9562 406.119 34.4539 406.119 34.9624V35.4136C406.119 35.922 406.169 36.4233 406.27 36.9175C406.37 37.4116 406.538 37.8592 406.774 38.2603C407.018 38.6613 407.344 38.9836 407.752 39.2271C408.167 39.4634 408.683 39.5815 409.299 39.5815ZM420.9 29.3765V40.9995H418.902V29.3765H420.9ZM424.8 29.3765V30.9878H415.078V29.3765H424.8ZM434.64 34.4146V36.0259H428.495V34.4146H434.64ZM428.914 29.3765V40.9995H426.927V29.3765H428.914ZM436.251 29.3765V40.9995H434.253V29.3765H436.251ZM438.926 35.3169V35.0698C438.926 34.2319 439.048 33.4549 439.291 32.7388C439.535 32.0155 439.885 31.3888 440.344 30.8589C440.802 30.3218 441.357 29.9064 442.009 29.6128C442.66 29.312 443.391 29.1616 444.2 29.1616C445.017 29.1616 445.751 29.312 446.402 29.6128C447.061 29.9064 447.62 30.3218 448.078 30.8589C448.544 31.3888 448.898 32.0155 449.142 32.7388C449.385 33.4549 449.507 34.2319 449.507 35.0698V35.3169C449.507 36.1548 449.385 36.9318 449.142 37.6479C448.898 38.3641 448.544 38.9907 448.078 39.5278C447.62 40.0578 447.065 40.4731 446.413 40.7739C445.769 41.0675 445.038 41.2144 444.222 41.2144C443.405 41.2144 442.671 41.0675 442.02 40.7739C441.368 40.4731 440.809 40.0578 440.344 39.5278C439.885 38.9907 439.535 38.3641 439.291 37.6479C439.048 36.9318 438.926 36.1548 438.926 35.3169ZM440.913 35.0698V35.3169C440.913 35.897 440.981 36.4448 441.117 36.9604C441.253 37.4689 441.457 37.9201 441.729 38.314C442.009 38.7078 442.356 39.0194 442.771 39.2485C443.187 39.4705 443.67 39.5815 444.222 39.5815C444.766 39.5815 445.242 39.4705 445.65 39.2485C446.066 39.0194 446.41 38.7078 446.682 38.314C446.954 37.9201 447.158 37.4689 447.294 36.9604C447.437 36.4448 447.509 35.897 447.509 35.3169V35.0698C447.509 34.4969 447.437 33.9562 447.294 33.4478C447.158 32.9321 446.95 32.4774 446.671 32.0835C446.399 31.6825 446.055 31.3674 445.64 31.1382C445.231 30.909 444.752 30.7944 444.2 30.7944C443.656 30.7944 443.176 30.909 442.761 31.1382C442.353 31.3674 442.009 31.6825 441.729 32.0835C441.457 32.4774 441.253 32.9321 441.117 33.4478C440.981 33.9562 440.913 34.4969 440.913 35.0698ZM454.147 37.8521L459.508 29.3765H461.506V40.9995H459.508V32.5239L454.147 40.9995H452.171V29.3765H454.147V37.8521ZM458.423 25.1655H460.034C460.034 25.7241 459.905 26.2218 459.647 26.6587C459.39 27.0884 459.021 27.425 458.541 27.6685C458.061 27.9119 457.492 28.0337 456.833 28.0337C455.838 28.0337 455.05 27.7687 454.47 27.2388C453.897 26.7017 453.61 26.0106 453.61 25.1655H455.222C455.222 25.5881 455.343 25.9604 455.587 26.2827C455.83 26.605 456.246 26.7661 456.833 26.7661C457.406 26.7661 457.814 26.605 458.058 26.2827C458.301 25.9604 458.423 25.5881 458.423 25.1655ZM234.674 55.3765V66.9995H232.687V55.3765H234.674ZM242.301 55.3765L236.79 62.0366H234.008L233.707 60.2964H235.984L239.884 55.3765H242.301ZM240.163 66.9995L235.888 61.7358L237.166 60.2964L242.688 66.9995H240.163ZM243.654 61.3169V61.0698C243.654 60.2319 243.776 59.4549 244.02 58.7388C244.263 58.0155 244.614 57.3888 245.072 56.8589C245.531 56.3218 246.086 55.9064 246.737 55.6128C247.389 55.312 248.119 55.1616 248.929 55.1616C249.745 55.1616 250.479 55.312 251.131 55.6128C251.79 55.9064 252.348 56.3218 252.807 56.8589C253.272 57.3888 253.627 58.0155 253.87 58.7388C254.114 59.4549 254.235 60.2319 254.235 61.0698V61.3169C254.235 62.1548 254.114 62.9318 253.87 63.6479C253.627 64.3641 253.272 64.9907 252.807 65.5278C252.348 66.0578 251.793 66.4731 251.142 66.7739C250.497 67.0675 249.767 67.2144 248.95 67.2144C248.134 67.2144 247.4 67.0675 246.748 66.7739C246.096 66.4731 245.538 66.0578 245.072 65.5278C244.614 64.9907 244.263 64.3641 244.02 63.6479C243.776 62.9318 243.654 62.1548 243.654 61.3169ZM245.642 61.0698V61.3169C245.642 61.897 245.71 62.4448 245.846 62.9604C245.982 63.4689 246.186 63.9201 246.458 64.314C246.737 64.7078 247.085 65.0194 247.5 65.2485C247.915 65.4705 248.399 65.5815 248.95 65.5815C249.494 65.5815 249.971 65.4705 250.379 65.2485C250.794 65.0194 251.138 64.7078 251.41 64.314C251.682 63.9201 251.886 63.4689 252.022 62.9604C252.166 62.4448 252.237 61.897 252.237 61.3169V61.0698C252.237 60.4969 252.166 59.9562 252.022 59.4478C251.886 58.9321 251.679 58.4774 251.399 58.0835C251.127 57.6825 250.784 57.3674 250.368 57.1382C249.96 56.909 249.48 56.7944 248.929 56.7944C248.384 56.7944 247.905 56.909 247.489 57.1382C247.081 57.3674 246.737 57.6825 246.458 58.0835C246.186 58.4774 245.982 58.9321 245.846 59.4478C245.71 59.9562 245.642 60.4969 245.642 61.0698ZM263.409 64.3569L267.362 55.3765H269.274L264.097 66.9995H262.722L257.565 55.3765H259.478L263.409 64.3569ZM258.897 55.3765V66.9995H256.91V55.3765H258.897ZM267.856 66.9995V55.3765H269.854V66.9995H267.856ZM280.801 55.3765V57.02H274.925V55.3765H280.801ZM275.215 55.3765V66.9995H273.228V55.3765H275.215ZM282.562 55.3765V66.9995H280.564V55.3765H282.562ZM292.606 65.0122V59.0288C292.606 58.5705 292.513 58.173 292.327 57.8364C292.148 57.4927 291.876 57.2277 291.511 57.0415C291.146 56.8553 290.694 56.7622 290.157 56.7622C289.656 56.7622 289.215 56.8481 288.836 57.02C288.464 57.1919 288.17 57.4175 287.955 57.6968C287.747 57.9761 287.644 58.2769 287.644 58.5991H285.656C285.656 58.1838 285.764 57.772 285.979 57.3638C286.193 56.9556 286.501 56.5868 286.902 56.2573C287.311 55.9207 287.798 55.6558 288.363 55.4624C288.936 55.2619 289.574 55.1616 290.275 55.1616C291.12 55.1616 291.865 55.3049 292.51 55.5913C293.161 55.8778 293.67 56.311 294.035 56.8911C294.408 57.464 294.594 58.1838 294.594 59.0503V64.4644C294.594 64.8511 294.626 65.2629 294.69 65.6997C294.762 66.1366 294.866 66.5125 295.002 66.8276V66.9995H292.929C292.828 66.7703 292.75 66.466 292.692 66.0864C292.635 65.6997 292.606 65.3416 292.606 65.0122ZM292.95 59.9526L292.972 61.3491H290.963C290.397 61.3491 289.892 61.3957 289.448 61.4888C289.004 61.5747 288.632 61.7072 288.331 61.8862C288.03 62.0653 287.801 62.2909 287.644 62.563C287.486 62.828 287.407 63.1395 287.407 63.4976C287.407 63.8628 287.49 64.1958 287.654 64.4966C287.819 64.7974 288.066 65.0373 288.396 65.2163C288.732 65.3882 289.144 65.4741 289.631 65.4741C290.24 65.4741 290.777 65.3452 291.242 65.0874C291.708 64.8296 292.076 64.5145 292.349 64.1421C292.628 63.7697 292.778 63.408 292.8 63.0571L293.648 64.0132C293.598 64.314 293.462 64.647 293.24 65.0122C293.018 65.3774 292.721 65.7284 292.349 66.0649C291.983 66.3944 291.547 66.6701 291.038 66.8921C290.537 67.1069 289.971 67.2144 289.341 67.2144C288.553 67.2144 287.862 67.0604 287.268 66.7524C286.68 66.4445 286.222 66.0327 285.893 65.5171C285.57 64.9943 285.409 64.4106 285.409 63.7661C285.409 63.1431 285.531 62.5952 285.774 62.1226C286.018 61.6427 286.369 61.2453 286.827 60.9302C287.285 60.6079 287.837 60.3644 288.481 60.1997C289.126 60.035 289.846 59.9526 290.641 59.9526H292.95ZM305.604 60.4146V62.0259H299.46V60.4146H305.604ZM299.879 55.3765V66.9995H297.892V55.3765H299.879ZM307.216 55.3765V66.9995H305.218V55.3765H307.216ZM312.565 63.8521L317.926 55.3765H319.924V66.9995H317.926V58.5239L312.565 66.9995H310.589V55.3765H312.565V63.8521ZM325.263 63.8521L330.623 55.3765H332.621V66.9995H330.623V58.5239L325.263 66.9995H323.286V55.3765H325.263V63.8521ZM337.616 64.6362V66.2368C337.616 66.8885 337.451 67.576 337.122 68.2993C336.793 69.0298 336.331 69.6385 335.736 70.1255L334.608 69.3413C334.838 69.0262 335.031 68.7039 335.188 68.3745C335.346 68.0522 335.464 67.7157 335.543 67.3647C335.629 67.021 335.672 66.6558 335.672 66.269V64.6362H337.616ZM353.375 55.3765V57.02H347.757V55.3765H353.375ZM355.126 55.3765V66.9995H353.139V55.3765H355.126ZM347.273 55.3765H349.271L348.971 60.9839C348.921 61.8504 348.838 62.6167 348.724 63.2827C348.616 63.9416 348.466 64.5073 348.272 64.98C348.086 65.4526 347.85 65.8394 347.563 66.1401C347.284 66.4338 346.948 66.6522 346.554 66.7954C346.16 66.9315 345.705 66.9995 345.189 66.9995H344.566V65.2485L344.996 65.2163C345.304 65.1948 345.565 65.1232 345.78 65.0015C346.002 64.8797 346.188 64.7007 346.339 64.4644C346.489 64.2209 346.611 63.9093 346.704 63.5298C346.804 63.1502 346.88 62.6991 346.93 62.1763C346.987 61.6535 347.03 61.0448 347.059 60.3501L347.273 55.3765ZM360.476 63.8521L365.836 55.3765H367.834V66.9995H365.836V58.5239L360.476 66.9995H358.499V55.3765H360.476V63.8521ZM378.479 50.3169H380.112C380.112 51.0187 380.005 51.5773 379.79 51.9927C379.575 52.4009 379.282 52.716 378.909 52.938C378.544 53.16 378.129 53.3283 377.663 53.4429C377.205 53.5575 376.729 53.6685 376.234 53.7759C375.618 53.9048 375.046 54.1089 374.516 54.3882C373.993 54.6603 373.542 55.047 373.162 55.5483C372.79 56.0496 372.514 56.7013 372.335 57.5034C372.163 58.3055 372.117 59.2974 372.195 60.479V61.4673H370.562V60.479C370.562 59.1541 370.688 57.9976 370.938 57.0093C371.196 56.021 371.558 55.1867 372.023 54.5063C372.489 53.826 373.04 53.2853 373.678 52.8843C374.322 52.4832 375.031 52.2075 375.805 52.0571C376.363 51.9497 376.843 51.8351 377.244 51.7134C377.645 51.5845 377.95 51.4126 378.157 51.1978C378.372 50.9829 378.479 50.6893 378.479 50.3169ZM376.127 56.0425C376.886 56.0425 377.563 56.175 378.157 56.4399C378.752 56.7049 379.257 57.0737 379.672 57.5464C380.087 58.019 380.402 58.5776 380.617 59.2222C380.839 59.8595 380.95 60.5542 380.95 61.3062V61.5425C380.95 62.3517 380.832 63.1037 380.596 63.7983C380.367 64.4858 380.026 65.0874 379.575 65.603C379.131 66.1115 378.587 66.509 377.942 66.7954C377.305 67.0819 376.578 67.2251 375.762 67.2251C374.945 67.2251 374.215 67.0819 373.57 66.7954C372.933 66.509 372.389 66.1115 371.938 65.603C371.486 65.0874 371.143 64.4858 370.906 63.7983C370.677 63.1037 370.562 62.3517 370.562 61.5425V61.3062C370.562 61.1271 370.595 60.9517 370.659 60.7798C370.724 60.6079 370.802 60.4325 370.896 60.2534C370.996 60.0744 371.085 59.8846 371.164 59.6841C371.429 59.0396 371.791 58.4416 372.249 57.8901C372.715 57.3387 373.27 56.8947 373.914 56.5581C374.566 56.2144 375.303 56.0425 376.127 56.0425ZM375.74 57.6646C375.01 57.6646 374.408 57.8328 373.936 58.1694C373.47 58.506 373.123 58.9536 372.894 59.5122C372.664 60.0636 372.55 60.6616 372.55 61.3062V61.5425C372.55 62.0868 372.614 62.6024 372.743 63.0894C372.872 63.5763 373.065 64.0096 373.323 64.3892C373.588 64.7616 373.921 65.0552 374.322 65.27C374.73 65.4849 375.21 65.5923 375.762 65.5923C376.313 65.5923 376.789 65.4849 377.19 65.27C377.591 65.0552 377.921 64.7616 378.179 64.3892C378.437 64.0096 378.63 63.5763 378.759 63.0894C378.888 62.6024 378.952 62.0868 378.952 61.5425V61.3062C378.952 60.8192 378.888 60.3573 378.759 59.9204C378.63 59.4836 378.433 59.0968 378.168 58.7603C377.91 58.4237 377.577 58.1587 377.169 57.9653C376.768 57.7648 376.292 57.6646 375.74 57.6646ZM382.68 61.3169V61.0698C382.68 60.2319 382.801 59.4549 383.045 58.7388C383.288 58.0155 383.639 57.3888 384.098 56.8589C384.556 56.3218 385.111 55.9064 385.763 55.6128C386.414 55.312 387.145 55.1616 387.954 55.1616C388.771 55.1616 389.505 55.312 390.156 55.6128C390.815 55.9064 391.374 56.3218 391.832 56.8589C392.298 57.3888 392.652 58.0155 392.896 58.7388C393.139 59.4549 393.261 60.2319 393.261 61.0698V61.3169C393.261 62.1548 393.139 62.9318 392.896 63.6479C392.652 64.3641 392.298 64.9907 391.832 65.5278C391.374 66.0578 390.819 66.4731 390.167 66.7739C389.522 67.0675 388.792 67.2144 387.976 67.2144C387.159 67.2144 386.425 67.0675 385.773 66.7739C385.122 66.4731 384.563 66.0578 384.098 65.5278C383.639 64.9907 383.288 64.3641 383.045 63.6479C382.801 62.9318 382.68 62.1548 382.68 61.3169ZM384.667 61.0698V61.3169C384.667 61.897 384.735 62.4448 384.871 62.9604C385.007 63.4689 385.211 63.9201 385.483 64.314C385.763 64.7078 386.11 65.0194 386.525 65.2485C386.941 65.4705 387.424 65.5815 387.976 65.5815C388.52 65.5815 388.996 65.4705 389.404 65.2485C389.82 65.0194 390.163 64.7078 390.436 64.314C390.708 63.9201 390.912 63.4689 391.048 62.9604C391.191 62.4448 391.263 61.897 391.263 61.3169V61.0698C391.263 60.4969 391.191 59.9562 391.048 59.4478C390.912 58.9321 390.704 58.4774 390.425 58.0835C390.153 57.6825 389.809 57.3674 389.394 57.1382C388.985 56.909 388.506 56.7944 387.954 56.7944C387.41 56.7944 386.93 56.909 386.515 57.1382C386.106 57.3674 385.763 57.6825 385.483 58.0835C385.211 58.4774 385.007 58.9321 384.871 59.4478C384.735 59.9562 384.667 60.4969 384.667 61.0698ZM237.972 87.8862H234.158L234.137 86.2964H237.252C237.868 86.2964 238.38 86.2355 238.788 86.1138C239.203 85.992 239.515 85.8094 239.723 85.5659C239.93 85.3224 240.034 85.0216 240.034 84.6636C240.034 84.3843 239.973 84.1408 239.852 83.9331C239.737 83.7183 239.562 83.5428 239.325 83.4067C239.089 83.2635 238.795 83.1597 238.444 83.0952C238.101 83.0236 237.696 82.9878 237.23 82.9878H234.685V92.9995H232.697V81.3765H237.23C237.968 81.3765 238.631 81.4409 239.218 81.5698C239.812 81.6987 240.317 81.8957 240.732 82.1606C241.155 82.4185 241.477 82.7479 241.699 83.1489C241.921 83.55 242.032 84.0226 242.032 84.5669C242.032 84.9178 241.961 85.2508 241.817 85.5659C241.674 85.881 241.463 86.1603 241.184 86.4038C240.904 86.6473 240.561 86.8478 240.152 87.0054C239.744 87.1558 239.275 87.2524 238.745 87.2954L237.972 87.8862ZM237.972 92.9995H233.438L234.427 91.3882H237.972C238.523 91.3882 238.981 91.3201 239.347 91.1841C239.712 91.0409 239.984 90.8403 240.163 90.5825C240.349 90.3175 240.442 90.0024 240.442 89.6372C240.442 89.272 240.349 88.9604 240.163 88.7026C239.984 88.4377 239.712 88.2371 239.347 88.1011C238.981 87.9578 238.523 87.8862 237.972 87.8862H234.953L234.975 86.2964H238.745L239.465 86.8979C240.102 86.9481 240.643 87.1056 241.087 87.3706C241.531 87.6356 241.868 87.9722 242.097 88.3804C242.326 88.7814 242.44 89.2183 242.44 89.6909C242.44 90.2352 242.337 90.715 242.129 91.1304C241.928 91.5457 241.635 91.8931 241.248 92.1724C240.861 92.4445 240.392 92.6522 239.841 92.7954C239.289 92.9315 238.666 92.9995 237.972 92.9995ZM246.447 81.3765L248.993 85.6089L251.571 81.3765H253.902L250.1 87.1128L254.021 92.9995H251.722L249.036 88.6382L246.351 92.9995H244.041L247.951 87.1128L244.159 81.3765H246.447ZM255.277 87.3169V87.0698C255.277 86.2319 255.399 85.4549 255.643 84.7388C255.886 84.0155 256.237 83.3888 256.695 82.8589C257.154 82.3218 257.709 81.9064 258.36 81.6128C259.012 81.312 259.743 81.1616 260.552 81.1616C261.368 81.1616 262.102 81.312 262.754 81.6128C263.413 81.9064 263.971 82.3218 264.43 82.8589C264.895 83.3888 265.25 84.0155 265.493 84.7388C265.737 85.4549 265.858 86.2319 265.858 87.0698V87.3169C265.858 88.1548 265.737 88.9318 265.493 89.6479C265.25 90.3641 264.895 90.9907 264.43 91.5278C263.971 92.0578 263.416 92.4731 262.765 92.7739C262.12 93.0675 261.39 93.2144 260.573 93.2144C259.757 93.2144 259.023 93.0675 258.371 92.7739C257.719 92.4731 257.161 92.0578 256.695 91.5278C256.237 90.9907 255.886 90.3641 255.643 89.6479C255.399 88.9318 255.277 88.1548 255.277 87.3169ZM257.265 87.0698V87.3169C257.265 87.897 257.333 88.4448 257.469 88.9604C257.605 89.4689 257.809 89.9201 258.081 90.314C258.36 90.7078 258.708 91.0194 259.123 91.2485C259.538 91.4705 260.022 91.5815 260.573 91.5815C261.118 91.5815 261.594 91.4705 262.002 91.2485C262.417 91.0194 262.761 90.7078 263.033 90.314C263.305 89.9201 263.509 89.4689 263.646 88.9604C263.789 88.4448 263.86 87.897 263.86 87.3169V87.0698C263.86 86.4969 263.789 85.9562 263.646 85.4478C263.509 84.9321 263.302 84.4774 263.022 84.0835C262.75 83.6825 262.407 83.3674 261.991 83.1382C261.583 82.909 261.103 82.7944 260.552 82.7944C260.007 82.7944 259.528 82.909 259.112 83.1382C258.704 83.3674 258.36 83.6825 258.081 84.0835C257.809 84.4774 257.605 84.9321 257.469 85.4478C257.333 85.9562 257.265 86.4969 257.265 87.0698ZM271.638 87.9399L267.233 81.3765H269.629L272.637 86.189H274.957L274.667 87.9399H271.638ZM272.723 87.7358L269.35 92.9995H266.836L271.466 86.2964L272.723 87.7358ZM275.978 81.3765V92.9995H273.99V81.3765H275.978ZM282.756 81.3765L278.352 87.9399H275.322L275.011 86.189H277.342L280.35 81.3765H282.756ZM280.629 92.9995L277.245 87.7358L278.523 86.2964L283.143 92.9995H280.629ZM287.074 81.3765H289.062L288.89 85.7271C288.847 86.8299 288.721 87.7824 288.514 88.5845C288.306 89.3866 288.041 90.0705 287.719 90.6362C287.396 91.1948 287.035 91.6639 286.634 92.0435C286.24 92.423 285.832 92.7417 285.409 92.9995H284.421L284.475 91.3774L284.883 91.3667C285.119 91.0874 285.348 90.8009 285.57 90.5073C285.792 90.2065 285.996 89.8521 286.183 89.4438C286.369 89.0285 286.523 88.5236 286.645 87.9292C286.773 87.3276 286.856 86.5936 286.892 85.7271L287.074 81.3765ZM287.568 81.3765H294.562V92.9995H292.574V83.2134H287.568V81.3765ZM283.97 91.3667H296.055V96.4263H294.067V92.9995H285.957V96.4263H283.959L283.97 91.3667ZM303.08 93.2144C302.271 93.2144 301.537 93.0783 300.878 92.8062C300.226 92.5269 299.664 92.1366 299.191 91.6353C298.726 91.134 298.368 90.5396 298.117 89.8521C297.867 89.1646 297.741 88.4126 297.741 87.5962V87.145C297.741 86.1997 297.881 85.3582 298.16 84.6206C298.439 83.8758 298.819 83.2456 299.299 82.73C299.779 82.2144 300.323 81.8241 300.932 81.5591C301.54 81.2941 302.171 81.1616 302.822 81.1616C303.653 81.1616 304.369 81.3049 304.971 81.5913C305.579 81.8778 306.077 82.2788 306.464 82.7944C306.851 83.3029 307.137 83.9045 307.323 84.5991C307.509 85.2866 307.603 86.0386 307.603 86.855V87.7466H298.923V86.1245H305.615V85.9741C305.587 85.4585 305.479 84.9572 305.293 84.4702C305.114 83.9832 304.827 83.5822 304.434 83.2671C304.04 82.952 303.503 82.7944 302.822 82.7944C302.371 82.7944 301.956 82.8911 301.576 83.0845C301.197 83.2707 300.871 83.55 300.599 83.9224C300.326 84.2948 300.115 84.7495 299.965 85.2866C299.814 85.8237 299.739 86.4432 299.739 87.145V87.5962C299.739 88.1476 299.814 88.6668 299.965 89.1538C300.122 89.6336 300.348 90.0562 300.642 90.4214C300.942 90.7866 301.304 91.0731 301.727 91.2808C302.156 91.4884 302.643 91.5923 303.188 91.5923C303.889 91.5923 304.484 91.4491 304.971 91.1626C305.458 90.8761 305.884 90.493 306.249 90.0132L307.452 90.9692C307.201 91.3488 306.883 91.7104 306.496 92.0542C306.109 92.3979 305.633 92.6772 305.067 92.8921C304.509 93.1069 303.846 93.2144 303.08 93.2144ZM317.808 86.4146V88.0259H311.663V86.4146H317.808ZM312.082 81.3765V92.9995H310.095V81.3765H312.082ZM319.419 81.3765V92.9995H317.421V81.3765H319.419ZM324.769 89.8521L330.129 81.3765H332.127V92.9995H330.129V84.5239L324.769 92.9995H322.792V81.3765H324.769V89.8521ZM340.141 93.2144C339.331 93.2144 338.597 93.0783 337.938 92.8062C337.287 92.5269 336.725 92.1366 336.252 91.6353C335.786 91.134 335.428 90.5396 335.178 89.8521C334.927 89.1646 334.802 88.4126 334.802 87.5962V87.145C334.802 86.1997 334.941 85.3582 335.221 84.6206C335.5 83.8758 335.88 83.2456 336.359 82.73C336.839 82.2144 337.383 81.8241 337.992 81.5591C338.601 81.2941 339.231 81.1616 339.883 81.1616C340.714 81.1616 341.43 81.3049 342.031 81.5913C342.64 81.8778 343.138 82.2788 343.524 82.7944C343.911 83.3029 344.198 83.9045 344.384 84.5991C344.57 85.2866 344.663 86.0386 344.663 86.855V87.7466H335.983V86.1245H342.676V85.9741C342.647 85.4585 342.54 84.9572 342.354 84.4702C342.174 83.9832 341.888 83.5822 341.494 83.2671C341.1 82.952 340.563 82.7944 339.883 82.7944C339.432 82.7944 339.016 82.8911 338.637 83.0845C338.257 83.2707 337.931 83.55 337.659 83.9224C337.387 84.2948 337.176 84.7495 337.025 85.2866C336.875 85.8237 336.8 86.4432 336.8 87.145V87.5962C336.8 88.1476 336.875 88.6668 337.025 89.1538C337.183 89.6336 337.409 90.0562 337.702 90.4214C338.003 90.7866 338.365 91.0731 338.787 91.2808C339.217 91.4884 339.704 91.5923 340.248 91.5923C340.95 91.5923 341.544 91.4491 342.031 91.1626C342.518 90.8761 342.944 90.493 343.31 90.0132L344.513 90.9692C344.262 91.3488 343.943 91.7104 343.557 92.0542C343.17 92.3979 342.694 92.6772 342.128 92.8921C341.569 93.1069 340.907 93.2144 340.141 93.2144ZM357.897 87.8862H354.084L354.062 86.2964H357.178C357.794 86.2964 358.306 86.2355 358.714 86.1138C359.129 85.992 359.441 85.8094 359.648 85.5659C359.856 85.3224 359.96 85.0216 359.96 84.6636C359.96 84.3843 359.899 84.1408 359.777 83.9331C359.663 83.7183 359.487 83.5428 359.251 83.4067C359.015 83.2635 358.721 83.1597 358.37 83.0952C358.026 83.0236 357.622 82.9878 357.156 82.9878H354.61V92.9995H352.623V81.3765H357.156C357.894 81.3765 358.556 81.4409 359.144 81.5698C359.738 81.6987 360.243 81.8957 360.658 82.1606C361.081 82.4185 361.403 82.7479 361.625 83.1489C361.847 83.55 361.958 84.0226 361.958 84.5669C361.958 84.9178 361.886 85.2508 361.743 85.5659C361.6 85.881 361.389 86.1603 361.109 86.4038C360.83 86.6473 360.486 86.8478 360.078 87.0054C359.67 87.1558 359.201 87.2524 358.671 87.2954L357.897 87.8862ZM357.897 92.9995H353.364L354.353 91.3882H357.897C358.449 91.3882 358.907 91.3201 359.272 91.1841C359.638 91.0409 359.91 90.8403 360.089 90.5825C360.275 90.3175 360.368 90.0024 360.368 89.6372C360.368 89.272 360.275 88.9604 360.089 88.7026C359.91 88.4377 359.638 88.2371 359.272 88.1011C358.907 87.9578 358.449 87.8862 357.897 87.8862H354.879L354.9 86.2964H358.671L359.391 86.8979C360.028 86.9481 360.569 87.1056 361.013 87.3706C361.457 87.6356 361.793 87.9722 362.022 88.3804C362.252 88.7814 362.366 89.2183 362.366 89.6909C362.366 90.2352 362.262 90.715 362.055 91.1304C361.854 91.5457 361.561 91.8931 361.174 92.1724C360.787 92.4445 360.318 92.6522 359.767 92.7954C359.215 92.9315 358.592 92.9995 357.897 92.9995ZM372.636 89.8521L377.996 81.3765H379.994V92.9995H377.996V84.5239L372.636 92.9995H370.659V81.3765H372.636V89.8521ZM389.866 90.3569L393.819 81.3765H395.731L390.554 92.9995H389.179L384.022 81.3765H385.935L389.866 90.3569ZM385.354 81.3765V92.9995H383.367V81.3765H385.354ZM394.313 92.9995V81.3765H396.312V92.9995H394.313ZM404.336 93.2144C403.527 93.2144 402.793 93.0783 402.134 92.8062C401.482 92.5269 400.92 92.1366 400.447 91.6353C399.982 91.134 399.624 90.5396 399.373 89.8521C399.122 89.1646 398.997 88.4126 398.997 87.5962V87.145C398.997 86.1997 399.137 85.3582 399.416 84.6206C399.695 83.8758 400.075 83.2456 400.555 82.73C401.035 82.2144 401.579 81.8241 402.188 81.5591C402.796 81.2941 403.426 81.1616 404.078 81.1616C404.909 81.1616 405.625 81.3049 406.227 81.5913C406.835 81.8778 407.333 82.2788 407.72 82.7944C408.106 83.3029 408.393 83.9045 408.579 84.5991C408.765 85.2866 408.858 86.0386 408.858 86.855V87.7466H400.179V86.1245H406.871V85.9741C406.842 85.4585 406.735 84.9572 406.549 84.4702C406.37 83.9832 406.083 83.5822 405.689 83.2671C405.296 82.952 404.758 82.7944 404.078 82.7944C403.627 82.7944 403.212 82.8911 402.832 83.0845C402.452 83.2707 402.127 83.55 401.854 83.9224C401.582 84.2948 401.371 84.7495 401.221 85.2866C401.07 85.8237 400.995 86.4432 400.995 87.145V87.5962C400.995 88.1476 401.07 88.6668 401.221 89.1538C401.378 89.6336 401.604 90.0562 401.897 90.4214C402.198 90.7866 402.56 91.0731 402.982 91.2808C403.412 91.4884 403.899 91.5923 404.443 91.5923C405.145 91.5923 405.74 91.4491 406.227 91.1626C406.714 90.8761 407.14 90.493 407.505 90.0132L408.708 90.9692C408.457 91.3488 408.139 91.7104 407.752 92.0542C407.365 92.3979 406.889 92.6772 406.323 92.8921C405.765 93.1069 405.102 93.2144 404.336 93.2144ZM417.796 86.3071V87.9292H411.619V86.3071H417.796ZM413.349 81.3765V92.9995H411.361V81.3765H413.349ZM416.099 87.3169V87.0698C416.099 86.2319 416.22 85.4549 416.464 84.7388C416.707 84.0155 417.058 83.3888 417.517 82.8589C417.982 82.3218 418.537 81.9064 419.182 81.6128C419.833 81.312 420.564 81.1616 421.373 81.1616C422.197 81.1616 422.934 81.312 423.586 81.6128C424.238 81.9064 424.793 82.3218 425.251 82.8589C425.716 83.3888 426.071 84.0155 426.314 84.7388C426.558 85.4549 426.68 86.2319 426.68 87.0698V87.3169C426.68 88.1548 426.558 88.9318 426.314 89.6479C426.071 90.3641 425.72 90.9907 425.262 91.5278C424.803 92.0578 424.248 92.4731 423.597 92.7739C422.945 93.0675 422.211 93.2144 421.395 93.2144C420.578 93.2144 419.844 93.0675 419.192 92.7739C418.541 92.4731 417.982 92.0578 417.517 91.5278C417.058 90.9907 416.707 90.3641 416.464 89.6479C416.22 88.9318 416.099 88.1548 416.099 87.3169ZM418.097 87.0698V87.3169C418.097 87.897 418.165 88.4448 418.301 88.9604C418.437 89.4689 418.641 89.9201 418.913 90.314C419.192 90.7078 419.536 91.0194 419.944 91.2485C420.36 91.4705 420.843 91.5815 421.395 91.5815C421.946 91.5815 422.426 91.4705 422.834 91.2485C423.249 91.0194 423.593 90.7078 423.865 90.314C424.137 89.9201 424.341 89.4689 424.478 88.9604C424.621 88.4448 424.692 87.897 424.692 87.3169V87.0698C424.692 86.4969 424.621 85.9562 424.478 85.4478C424.341 84.9321 424.134 84.4774 423.854 84.0835C423.582 83.6825 423.239 83.3674 422.823 83.1382C422.408 82.909 421.924 82.7944 421.373 82.7944C420.829 82.7944 420.353 82.909 419.944 83.1382C419.536 83.3674 419.192 83.6825 418.913 84.0835C418.641 84.4774 418.437 84.9321 418.301 85.4478C418.165 85.9562 418.097 86.4969 418.097 87.0698ZM445.296 91.3667L445.103 96.4478H443.33V92.9995H441.815V91.3667H445.296ZM429.193 81.3765H431.181V91.3667H435.435V81.3765H437.433V91.3667H441.676V81.3765H443.663V92.9995H429.193V81.3765ZM450.624 91.7964L453.857 81.3765H455.984L451.322 94.7935C451.215 95.0799 451.072 95.3879 450.893 95.7173C450.721 96.0539 450.499 96.3726 450.227 96.6733C449.954 96.9741 449.625 97.2176 449.238 97.4038C448.859 97.5972 448.404 97.6938 447.874 97.6938C447.716 97.6938 447.516 97.6724 447.272 97.6294C447.029 97.5864 446.857 97.5506 446.757 97.522L446.746 95.9106C446.803 95.9178 446.893 95.925 447.015 95.9321C447.144 95.9465 447.233 95.9536 447.283 95.9536C447.734 95.9536 448.118 95.8927 448.433 95.771C448.748 95.6564 449.013 95.4595 449.228 95.1802C449.45 94.908 449.639 94.5321 449.797 94.0522L450.624 91.7964ZM448.25 81.3765L451.269 90.3999L451.784 92.4946L450.355 93.2251L446.08 81.3765H448.25ZM464.396 86.3071V87.9292H458.219V86.3071H464.396ZM459.948 81.3765V92.9995H457.961V81.3765H459.948ZM462.698 87.3169V87.0698C462.698 86.2319 462.82 85.4549 463.063 84.7388C463.307 84.0155 463.658 83.3888 464.116 82.8589C464.582 82.3218 465.137 81.9064 465.781 81.6128C466.433 81.312 467.163 81.1616 467.973 81.1616C468.796 81.1616 469.534 81.312 470.186 81.6128C470.837 81.9064 471.392 82.3218 471.851 82.8589C472.316 83.3888 472.671 84.0155 472.914 84.7388C473.158 85.4549 473.279 86.2319 473.279 87.0698V87.3169C473.279 88.1548 473.158 88.9318 472.914 89.6479C472.671 90.3641 472.32 90.9907 471.861 91.5278C471.403 92.0578 470.848 92.4731 470.196 92.7739C469.545 93.0675 468.811 93.2144 467.994 93.2144C467.178 93.2144 466.444 93.0675 465.792 92.7739C465.14 92.4731 464.582 92.0578 464.116 91.5278C463.658 90.9907 463.307 90.3641 463.063 89.6479C462.82 88.9318 462.698 88.1548 462.698 87.3169ZM464.696 87.0698V87.3169C464.696 87.897 464.764 88.4448 464.9 88.9604C465.036 89.4689 465.241 89.9201 465.513 90.314C465.792 90.7078 466.136 91.0194 466.544 91.2485C466.959 91.4705 467.443 91.5815 467.994 91.5815C468.546 91.5815 469.025 91.4705 469.434 91.2485C469.849 91.0194 470.193 90.7078 470.465 90.314C470.737 89.9201 470.941 89.4689 471.077 88.9604C471.22 88.4448 471.292 87.897 471.292 87.3169V87.0698C471.292 86.4969 471.22 85.9562 471.077 85.4478C470.941 84.9321 470.733 84.4774 470.454 84.0835C470.182 83.6825 469.838 83.3674 469.423 83.1382C469.007 82.909 468.524 82.7944 467.973 82.7944C467.428 82.7944 466.952 82.909 466.544 83.1382C466.136 83.3674 465.792 83.6825 465.513 84.0835C465.241 84.4774 465.036 84.9321 464.9 85.4478C464.764 85.9562 464.696 86.4969 464.696 87.0698ZM480.391 91.5815C480.863 91.5815 481.3 91.4849 481.701 91.2915C482.102 91.0981 482.432 90.8332 482.689 90.4966C482.947 90.1528 483.094 89.7625 483.13 89.3257H485.021C484.985 90.0132 484.752 90.6541 484.322 91.2485C483.9 91.8358 483.345 92.312 482.657 92.6772C481.97 93.0353 481.214 93.2144 480.391 93.2144C479.517 93.2144 478.754 93.0604 478.103 92.7524C477.458 92.4445 476.921 92.022 476.491 91.4849C476.069 90.9478 475.75 90.3319 475.535 89.6372C475.327 88.9354 475.224 88.1942 475.224 87.4136V86.9624C475.224 86.1818 475.327 85.4442 475.535 84.7495C475.75 84.0477 476.069 83.4282 476.491 82.8911C476.921 82.354 477.458 81.9315 478.103 81.6235C478.754 81.3156 479.517 81.1616 480.391 81.1616C481.3 81.1616 482.095 81.3478 482.775 81.7202C483.456 82.0854 483.989 82.5868 484.376 83.2241C484.77 83.8543 484.985 84.5705 485.021 85.3726H483.13C483.094 84.8927 482.958 84.4595 482.722 84.0728C482.493 83.686 482.177 83.3781 481.776 83.1489C481.382 82.9126 480.921 82.7944 480.391 82.7944C479.782 82.7944 479.27 82.9162 478.854 83.1597C478.446 83.396 478.12 83.7183 477.877 84.1265C477.641 84.5275 477.469 84.9751 477.361 85.4692C477.261 85.9562 477.211 86.4539 477.211 86.9624V87.4136C477.211 87.922 477.261 88.4233 477.361 88.9175C477.462 89.4116 477.63 89.8592 477.866 90.2603C478.11 90.6613 478.436 90.9836 478.844 91.2271C479.259 91.4634 479.775 91.5815 480.391 91.5815ZM489.607 87.4565H491.756L488.394 92.9995H486.245L489.607 87.4565ZM491.272 81.3765H496.128V92.9995H494.141V82.9878H491.272C490.707 82.9878 490.245 83.0845 489.887 83.2778C489.529 83.464 489.267 83.7075 489.103 84.0083C488.938 84.3091 488.855 84.6206 488.855 84.9429C488.855 85.258 488.931 85.5623 489.081 85.856C489.231 86.1424 489.468 86.3787 489.79 86.5649C490.112 86.7511 490.528 86.8442 491.036 86.8442H494.678V88.4771H491.036C490.37 88.4771 489.779 88.3875 489.264 88.2085C488.748 88.0295 488.311 87.7824 487.953 87.4673C487.595 87.145 487.323 86.769 487.137 86.3394C486.951 85.9025 486.857 85.4299 486.857 84.9214C486.857 84.4129 486.954 83.9438 487.147 83.5142C487.348 83.0845 487.634 82.7085 488.007 82.3862C488.386 82.064 488.848 81.8169 489.393 81.645C489.944 81.466 490.571 81.3765 491.272 81.3765Z" fill="black"/>
<defs>
<filter id="filter0_d_822_2141" x="0.0517578" y="5.08569" width="106.19" height="106.163" filterUnits="userSpaceOnUse" color-interpolation-filters="sRGB">
<feFlood flood-opacity="0" result="BackgroundImageFix"/>
<feColorMatrix in="SourceAlpha" type="matrix" values="0 0 0 0 0 0 0 0 0 0 0 0 0 0 0 0 0 0 127 0" result="hardAlpha"/>
<feOffset/>
<feGaussianBlur stdDeviation="12"/>
<feComposite in2="hardAlpha" operator="out"/>
<feColorMatrix type="matrix" values="0 0 0 0 0.579167 0 0 0 0 0.579167 0 0 0 0 0.579167 0 0 0 0.3 0"/>
<feBlend mode="normal" in2="BackgroundImageFix" result="effect1_dropShadow_822_2141"/>
<feBlend mode="normal" in="SourceGraphic" in2="effect1_dropShadow_822_2141" result="shape"/>
</filter>
</defs>
</svg>
