<svg width="672" height="125" viewBox="0 0 672 125" fill="none" xmlns="http://www.w3.org/2000/svg">
<path d="M175.294 65L57.2942 65" stroke="#00A3FF" stroke-miterlimit="10" stroke-linecap="round"/>
<g filter="url(#filter0_d_802_852)">
<path d="M32.5736 85.7313C21.2112 74.3742 21.2111 55.9607 32.5736 44.6036C43.936 33.2466 62.3582 33.2466 73.7207 44.6037C85.0831 55.9607 85.0831 74.3742 73.7207 85.7313C62.3582 97.0884 43.9361 97.0884 32.5736 85.7313Z" fill="white"/>
</g>
<path d="M44.0534 65.1644C44.0481 66.8871 44.5533 68.5727 45.5053 70.0088C46.4572 71.4448 47.8133 72.5669 49.4025 73.2335C50.9917 73.9002 52.7428 74.0815 54.435 73.7546C56.1271 73.4278 57.6846 72.6073 58.9108 71.3968C60.1371 70.1863 60.9772 68.64 61.3253 66.9528C61.6734 65.2657 61.5138 63.5133 60.8667 61.9166C60.2196 60.32 59.114 58.9507 57.6892 57.9813C56.2645 57.012 54.5845 56.4861 52.8611 56.4699C51.7096 56.4555 50.5668 56.6697 49.4988 57.1002C48.4308 57.5307 47.459 58.1688 46.6396 58.9776C45.8203 59.7864 45.1698 60.7498 44.7258 61.8118C44.2819 62.8739 44.0534 64.0134 44.0534 65.1644V65.1644Z" fill="#00A3FF"/>
<path d="M52.7519 68.5712C50.8694 68.5712 49.3434 67.0459 49.3434 65.1643C49.3434 63.2827 50.8694 61.7573 52.7519 61.7573C54.6344 61.7573 56.1604 63.2827 56.1604 65.1643C56.1604 67.0459 54.6344 68.5712 52.7519 68.5712Z" fill="white"/>
<path d="M172.842 65.1642C172.837 66.8904 173.344 68.5793 174.3 70.0172C175.255 71.4551 176.616 72.5772 178.21 73.2415C179.804 73.9058 181.559 74.0824 183.254 73.749C184.948 73.4155 186.506 72.587 187.729 71.3684C188.952 70.1497 189.786 68.5957 190.125 66.9031C190.463 65.2105 190.292 63.4554 189.633 61.8601C188.973 60.2649 187.855 58.9011 186.419 57.9415C184.983 56.982 183.295 56.4697 181.568 56.4697C179.259 56.4697 177.043 57.3849 175.408 59.0146C173.772 60.6444 172.85 62.8558 172.842 65.1642V65.1642Z" fill="#00A3FF"/>
<path d="M181.541 68.5712C179.658 68.5712 178.132 67.0459 178.132 65.1643C178.132 63.2827 179.658 61.7573 181.541 61.7573C183.423 61.7573 184.949 63.2827 184.949 65.1643C184.949 67.0459 183.423 68.5712 181.541 68.5712Z" fill="white"/>
<path d="M640.304 93.2599C657.481 76.0913 657.481 48.2554 640.304 31.0867C623.127 13.9181 595.278 13.918 578.102 31.0867C560.925 48.2553 560.925 76.0913 578.102 93.26C595.278 110.429 623.128 110.429 640.304 93.2599Z" fill="#00A3FF"/>
<path d="M596.403 48.1655H601.403V76.1733H595.406V55.7827H590.602V51.9741C591.461 51.87 592.249 51.6681 592.965 51.3687C593.681 51.0562 594.235 50.7241 594.625 50.3726C595.029 50.021 595.367 49.6825 595.641 49.3569C595.927 49.0184 596.129 48.7319 596.246 48.4976L596.403 48.1655ZM625.406 65.978H628.61V71.1733H625.406V76.1733H619.41V71.1733H606.207V65.1772L618.414 48.1655H625.406V65.978ZM619.41 65.978V55.1772L611.813 65.978H619.41Z" fill="white"/>
<path d="M242.711 56.3472H239.648L239.632 55.0605H242.412C242.872 55.0605 243.273 54.9831 243.616 54.8281C243.959 54.6732 244.225 54.4518 244.413 54.1641C244.607 53.8708 244.703 53.5221 244.703 53.1182C244.703 52.6755 244.618 52.3158 244.446 52.0391C244.28 51.7568 244.023 51.5521 243.674 51.4248C243.331 51.292 242.894 51.2256 242.363 51.2256H240.005V62H238.403V49.9141H242.363C242.982 49.9141 243.536 49.9777 244.023 50.105C244.51 50.2267 244.922 50.4204 245.26 50.686C245.603 50.9461 245.863 51.2782 246.04 51.6821C246.217 52.0861 246.305 52.5703 246.305 53.1348C246.305 53.6328 246.178 54.0838 245.924 54.4878C245.669 54.8862 245.315 55.2127 244.861 55.4673C244.413 55.7218 243.887 55.8851 243.284 55.957L242.711 56.3472ZM242.636 62H239.017L239.922 60.6968H242.636C243.146 60.6968 243.577 60.6082 243.931 60.4312C244.291 60.2541 244.565 60.005 244.753 59.6841C244.941 59.3576 245.035 58.973 245.035 58.5303C245.035 58.082 244.955 57.6947 244.795 57.3682C244.634 57.0417 244.382 56.7899 244.039 56.6128C243.696 56.4357 243.253 56.3472 242.711 56.3472H240.428L240.445 55.0605H243.566L243.906 55.5254C244.488 55.5752 244.98 55.7412 245.384 56.0234C245.788 56.3001 246.095 56.6543 246.305 57.0859C246.521 57.5176 246.629 57.9935 246.629 58.5137C246.629 59.2663 246.463 59.9027 246.131 60.4229C245.805 60.9375 245.343 61.3304 244.745 61.6016C244.147 61.8672 243.444 62 242.636 62ZM250.024 56.1064H252.722C253.447 56.1064 254.058 56.2337 254.556 56.4883C255.054 56.7373 255.431 57.0832 255.685 57.5259C255.945 57.9631 256.075 58.4611 256.075 59.02C256.075 59.4351 256.003 59.8252 255.86 60.1904C255.716 60.5501 255.5 60.8656 255.212 61.1367C254.93 61.4079 254.579 61.6209 254.158 61.7759C253.743 61.9253 253.264 62 252.722 62H248.904V53.0186H250.439V60.7383H252.722C253.165 60.7383 253.519 60.658 253.784 60.4976C254.05 60.3371 254.241 60.1296 254.357 59.875C254.473 59.6204 254.531 59.3548 254.531 59.0781C254.531 58.807 254.473 58.5413 254.357 58.2812C254.241 58.0212 254.05 57.8053 253.784 57.6338C253.519 57.4567 253.165 57.3682 252.722 57.3682H250.024V56.1064ZM259.271 53.0186V62H257.736V53.0186H259.271ZM262.998 53.0186L264.966 56.2891L266.958 53.0186H268.759L265.821 57.4512L268.85 62H267.074L264.999 58.6299L262.924 62H261.139L264.16 57.4512L261.23 53.0186H262.998ZM269.822 57.6089V57.418C269.822 56.7705 269.916 56.1701 270.104 55.6167C270.292 55.0578 270.563 54.5736 270.917 54.1641C271.271 53.749 271.7 53.4281 272.204 53.2012C272.707 52.9688 273.272 52.8525 273.897 52.8525C274.528 52.8525 275.095 52.9688 275.599 53.2012C276.108 53.4281 276.54 53.749 276.894 54.1641C277.253 54.5736 277.527 55.0578 277.716 55.6167C277.904 56.1701 277.998 56.7705 277.998 57.418V57.6089C277.998 58.2563 277.904 58.8568 277.716 59.4102C277.527 59.9635 277.253 60.4478 276.894 60.8628C276.54 61.2723 276.111 61.5933 275.607 61.8257C275.109 62.0526 274.545 62.166 273.914 62.166C273.283 62.166 272.716 62.0526 272.212 61.8257C271.709 61.5933 271.277 61.2723 270.917 60.8628C270.563 60.4478 270.292 59.9635 270.104 59.4102C269.916 58.8568 269.822 58.2563 269.822 57.6089ZM271.357 57.418V57.6089C271.357 58.0571 271.41 58.4805 271.515 58.8789C271.62 59.2718 271.778 59.6204 271.988 59.9248C272.204 60.2292 272.472 60.4699 272.793 60.647C273.114 60.8185 273.488 60.9043 273.914 60.9043C274.334 60.9043 274.702 60.8185 275.018 60.647C275.339 60.4699 275.604 60.2292 275.815 59.9248C276.025 59.6204 276.183 59.2718 276.288 58.8789C276.399 58.4805 276.454 58.0571 276.454 57.6089V57.418C276.454 56.9753 276.399 56.5575 276.288 56.1646C276.183 55.7661 276.022 55.4147 275.806 55.1104C275.596 54.8005 275.33 54.557 275.01 54.3799C274.694 54.2028 274.323 54.1143 273.897 54.1143C273.477 54.1143 273.106 54.2028 272.785 54.3799C272.469 54.557 272.204 54.8005 271.988 55.1104C271.778 55.4147 271.62 55.7661 271.515 56.1646C271.41 56.5575 271.357 56.9753 271.357 57.418ZM280.945 53.0186H282.48L282.347 56.3804C282.314 57.2326 282.217 57.9686 282.057 58.5884C281.896 59.2082 281.692 59.7367 281.443 60.1738C281.194 60.6055 280.914 60.9679 280.604 61.2612C280.3 61.5545 279.984 61.8008 279.658 62H278.894L278.936 60.7466L279.251 60.7383C279.434 60.5225 279.611 60.3011 279.782 60.0742C279.954 59.8418 280.112 59.5679 280.256 59.2524C280.399 58.9315 280.518 58.5413 280.613 58.082C280.712 57.6172 280.776 57.05 280.803 56.3804L280.945 53.0186ZM281.326 53.0186H286.73V62H285.195V54.438H281.326V53.0186ZM278.546 60.7383H287.884V64.6479H286.348V62H280.081V64.6479H278.537L278.546 60.7383ZM299.563 49.1089H300.825C300.825 49.6512 300.742 50.0828 300.576 50.4038C300.41 50.7192 300.183 50.9627 299.895 51.1343C299.613 51.3058 299.292 51.4359 298.932 51.5244C298.578 51.613 298.21 51.6987 297.828 51.7817C297.352 51.8813 296.91 52.0391 296.5 52.2549C296.096 52.4652 295.748 52.764 295.454 53.1514C295.167 53.5387 294.954 54.0423 294.815 54.6621C294.682 55.2819 294.646 56.0483 294.707 56.9614V57.7251H293.446V56.9614C293.446 55.9377 293.542 55.0439 293.736 54.2803C293.935 53.5166 294.215 52.8719 294.574 52.3462C294.934 51.8205 295.36 51.4027 295.853 51.0928C296.351 50.7829 296.899 50.5698 297.496 50.4536C297.928 50.3706 298.299 50.2821 298.609 50.188C298.919 50.0884 299.154 49.9556 299.314 49.7896C299.48 49.6235 299.563 49.3966 299.563 49.1089ZM297.745 53.5332C298.332 53.5332 298.855 53.6356 299.314 53.8403C299.774 54.0451 300.164 54.3301 300.485 54.6953C300.806 55.0605 301.049 55.4922 301.215 55.9902C301.387 56.4827 301.472 57.0195 301.472 57.6006V57.7832C301.472 58.4085 301.381 58.9896 301.198 59.5264C301.021 60.0576 300.759 60.5225 300.41 60.9209C300.067 61.3138 299.646 61.6209 299.148 61.8423C298.656 62.0636 298.094 62.1743 297.463 62.1743C296.832 62.1743 296.268 62.0636 295.77 61.8423C295.277 61.6209 294.857 61.3138 294.508 60.9209C294.159 60.5225 293.894 60.0576 293.711 59.5264C293.534 58.9896 293.446 58.4085 293.446 57.7832V57.6006C293.446 57.4622 293.47 57.3267 293.52 57.1938C293.57 57.061 293.631 56.9255 293.703 56.7871C293.78 56.6488 293.85 56.5021 293.91 56.3472C294.115 55.8491 294.395 55.387 294.749 54.9609C295.108 54.5348 295.537 54.1917 296.035 53.9316C296.539 53.666 297.109 53.5332 297.745 53.5332ZM297.447 54.7866C296.882 54.7866 296.417 54.9167 296.052 55.1768C295.692 55.4368 295.424 55.7827 295.247 56.2144C295.07 56.6405 294.981 57.1025 294.981 57.6006V57.7832C294.981 58.2038 295.031 58.6022 295.131 58.9785C295.23 59.3548 295.38 59.6896 295.579 59.9829C295.784 60.2707 296.041 60.4976 296.351 60.6636C296.666 60.8296 297.037 60.9126 297.463 60.9126C297.889 60.9126 298.257 60.8296 298.567 60.6636C298.877 60.4976 299.132 60.2707 299.331 59.9829C299.53 59.6896 299.679 59.3548 299.779 58.9785C299.879 58.6022 299.928 58.2038 299.928 57.7832V57.6006C299.928 57.2243 299.879 56.8674 299.779 56.5298C299.679 56.1922 299.527 55.8934 299.323 55.6333C299.123 55.3732 298.866 55.1685 298.551 55.019C298.241 54.8641 297.873 54.7866 297.447 54.7866ZM304.602 54.7451V65.4531H303.058V53.0186H304.469L304.602 54.7451ZM310.653 57.4346V57.6089C310.653 58.2619 310.576 58.8678 310.421 59.4268C310.266 59.9801 310.039 60.4616 309.74 60.8711C309.447 61.2806 309.084 61.5988 308.653 61.8257C308.221 62.0526 307.726 62.166 307.167 62.166C306.597 62.166 306.093 62.0719 305.656 61.8838C305.219 61.6956 304.848 61.4217 304.544 61.062C304.239 60.7023 303.996 60.2707 303.813 59.7671C303.636 59.2635 303.514 58.6963 303.448 58.0654V57.1357C303.514 56.4717 303.639 55.8768 303.822 55.3511C304.004 54.8254 304.245 54.3771 304.544 54.0063C304.848 53.63 305.216 53.3451 305.648 53.1514C306.079 52.9521 306.577 52.8525 307.142 52.8525C307.706 52.8525 308.207 52.9632 308.644 53.1846C309.081 53.4004 309.449 53.7103 309.748 54.1143C310.047 54.5182 310.271 55.0024 310.421 55.5669C310.576 56.1258 310.653 56.7484 310.653 57.4346ZM309.109 57.6089V57.4346C309.109 56.9863 309.062 56.5658 308.968 56.1729C308.874 55.7744 308.727 55.4258 308.528 55.127C308.334 54.8226 308.085 54.5846 307.781 54.4131C307.477 54.236 307.114 54.1475 306.694 54.1475C306.306 54.1475 305.969 54.2139 305.681 54.3467C305.399 54.4795 305.158 54.6593 304.959 54.8862C304.76 55.1076 304.596 55.3621 304.469 55.6499C304.347 55.9321 304.256 56.2254 304.195 56.5298V58.6797C304.306 59.0671 304.461 59.4323 304.66 59.7754C304.859 60.113 305.125 60.3869 305.457 60.5972C305.789 60.8019 306.207 60.9043 306.71 60.9043C307.125 60.9043 307.482 60.8185 307.781 60.647C308.085 60.4699 308.334 60.2292 308.528 59.9248C308.727 59.6204 308.874 59.2718 308.968 58.8789C309.062 58.4805 309.109 58.0571 309.109 57.6089ZM316.339 62.166C315.714 62.166 315.147 62.0609 314.637 61.8506C314.134 61.6348 313.699 61.3332 313.334 60.9458C312.975 60.5584 312.698 60.0991 312.504 59.5679C312.31 59.0366 312.214 58.4556 312.214 57.8247V57.4761C312.214 56.7456 312.322 56.0954 312.537 55.5254C312.753 54.9499 313.046 54.4629 313.417 54.0645C313.788 53.666 314.209 53.3644 314.679 53.1597C315.149 52.9549 315.636 52.8525 316.14 52.8525C316.782 52.8525 317.335 52.9632 317.8 53.1846C318.27 53.4059 318.655 53.7158 318.954 54.1143C319.253 54.5072 319.474 54.972 319.618 55.5088C319.762 56.04 319.834 56.6211 319.834 57.252V57.9409H313.127V56.6875H318.298V56.5713C318.276 56.1729 318.193 55.7855 318.049 55.4092C317.911 55.0329 317.689 54.723 317.385 54.4795C317.081 54.236 316.666 54.1143 316.14 54.1143C315.791 54.1143 315.47 54.189 315.177 54.3384C314.884 54.4823 314.632 54.6981 314.422 54.9858C314.211 55.2736 314.048 55.625 313.932 56.04C313.816 56.4551 313.758 56.9338 313.758 57.4761V57.8247C313.758 58.2508 313.816 58.652 313.932 59.0283C314.054 59.3991 314.228 59.7256 314.455 60.0078C314.687 60.29 314.967 60.5114 315.293 60.6719C315.625 60.8324 316.002 60.9126 316.422 60.9126C316.964 60.9126 317.424 60.8019 317.8 60.5806C318.176 60.3592 318.506 60.0632 318.788 59.6924L319.718 60.4312C319.524 60.7244 319.278 61.0039 318.979 61.2695C318.68 61.5352 318.312 61.751 317.875 61.917C317.443 62.083 316.931 62.166 316.339 62.166ZM327.719 56.9116V58.1567H322.971V56.9116H327.719ZM323.295 53.0186V62H321.76V53.0186H323.295ZM328.965 53.0186V62H327.421V53.0186H328.965ZM333.057 53.0186H334.593L334.46 56.3804C334.427 57.2326 334.33 57.9686 334.169 58.5884C334.009 59.2082 333.804 59.7367 333.555 60.1738C333.306 60.6055 333.026 60.9679 332.717 61.2612C332.412 61.5545 332.097 61.8008 331.77 62H331.007L331.048 60.7466L331.364 60.7383C331.546 60.5225 331.723 60.3011 331.895 60.0742C332.066 59.8418 332.224 59.5679 332.368 59.2524C332.512 58.9315 332.631 58.5413 332.725 58.082C332.824 57.6172 332.888 57.05 332.916 56.3804L333.057 53.0186ZM333.439 53.0186H338.843V62H337.307V54.438H333.439V53.0186ZM330.658 60.7383H339.996V64.6479H338.461V62H332.194V64.6479H330.65L330.658 60.7383ZM346.994 60.4644V55.8408C346.994 55.4867 346.922 55.1795 346.778 54.9194C346.64 54.6538 346.429 54.4491 346.147 54.3052C345.865 54.1613 345.516 54.0894 345.101 54.0894C344.714 54.0894 344.374 54.1558 344.08 54.2886C343.793 54.4214 343.566 54.5957 343.4 54.8115C343.239 55.0273 343.159 55.2598 343.159 55.5088H341.623C341.623 55.1878 341.706 54.8696 341.872 54.5542C342.038 54.2388 342.276 53.9538 342.586 53.6992C342.902 53.4391 343.278 53.2344 343.715 53.085C344.158 52.93 344.65 52.8525 345.193 52.8525C345.846 52.8525 346.421 52.9632 346.919 53.1846C347.423 53.4059 347.816 53.7407 348.098 54.189C348.386 54.6317 348.53 55.1878 348.53 55.8574V60.041C348.53 60.3398 348.554 60.658 348.604 60.9956C348.66 61.3332 348.74 61.6237 348.845 61.8672V62H347.243C347.165 61.8229 347.105 61.5877 347.06 61.2944C347.016 60.9956 346.994 60.7189 346.994 60.4644ZM347.26 56.5547L347.276 57.6338H345.724C345.287 57.6338 344.897 57.6698 344.553 57.7417C344.21 57.8081 343.923 57.9105 343.69 58.0488C343.458 58.1872 343.281 58.3615 343.159 58.5718C343.037 58.7765 342.976 59.0173 342.976 59.2939C342.976 59.5762 343.04 59.8335 343.167 60.0659C343.295 60.2983 343.485 60.4837 343.74 60.6221C344 60.7549 344.318 60.8213 344.695 60.8213C345.165 60.8213 345.58 60.7217 345.94 60.5225C346.299 60.3232 346.584 60.0798 346.795 59.792C347.01 59.5042 347.127 59.2248 347.143 58.9536L347.799 59.6924C347.76 59.9248 347.655 60.1821 347.484 60.4644C347.312 60.7466 347.082 61.0177 346.795 61.2778C346.512 61.5324 346.175 61.7454 345.782 61.917C345.395 62.083 344.957 62.166 344.47 62.166C343.862 62.166 343.328 62.047 342.868 61.8091C342.415 61.5711 342.06 61.2529 341.806 60.8545C341.557 60.4505 341.432 59.9995 341.432 59.5015C341.432 59.02 341.526 58.5967 341.715 58.2314C341.903 57.8607 342.174 57.5535 342.528 57.3101C342.882 57.061 343.308 56.8729 343.806 56.7456C344.304 56.6183 344.861 56.5547 345.475 56.5547H347.26ZM361.255 56.9116V58.1567H356.507V56.9116H361.255ZM356.83 53.0186V62H355.295V53.0186H356.83ZM362.5 53.0186V62H360.956V53.0186H362.5ZM370.269 60.4644V55.8408C370.269 55.4867 370.197 55.1795 370.053 54.9194C369.915 54.6538 369.705 54.4491 369.423 54.3052C369.14 54.1613 368.792 54.0894 368.377 54.0894C367.989 54.0894 367.649 54.1558 367.356 54.2886C367.068 54.4214 366.841 54.5957 366.675 54.8115C366.515 55.0273 366.434 55.2598 366.434 55.5088H364.899C364.899 55.1878 364.982 54.8696 365.148 54.5542C365.314 54.2388 365.552 53.9538 365.862 53.6992C366.177 53.4391 366.553 53.2344 366.99 53.085C367.433 52.93 367.926 52.8525 368.468 52.8525C369.121 52.8525 369.697 52.9632 370.195 53.1846C370.698 53.4059 371.091 53.7407 371.373 54.189C371.661 54.6317 371.805 55.1878 371.805 55.8574V60.041C371.805 60.3398 371.83 60.658 371.88 60.9956C371.935 61.3332 372.015 61.6237 372.12 61.8672V62H370.518C370.441 61.8229 370.38 61.5877 370.336 61.2944C370.291 60.9956 370.269 60.7189 370.269 60.4644ZM370.535 56.5547L370.552 57.6338H368.999C368.562 57.6338 368.172 57.6698 367.829 57.7417C367.486 57.8081 367.198 57.9105 366.966 58.0488C366.733 58.1872 366.556 58.3615 366.434 58.5718C366.313 58.7765 366.252 59.0173 366.252 59.2939C366.252 59.5762 366.315 59.8335 366.443 60.0659C366.57 60.2983 366.761 60.4837 367.015 60.6221C367.275 60.7549 367.594 60.8213 367.97 60.8213C368.44 60.8213 368.855 60.7217 369.215 60.5225C369.575 60.3232 369.86 60.0798 370.07 59.792C370.286 59.5042 370.402 59.2248 370.419 58.9536L371.074 59.6924C371.036 59.9248 370.931 60.1821 370.759 60.4644C370.587 60.7466 370.358 61.0177 370.07 61.2778C369.788 61.5324 369.45 61.7454 369.057 61.917C368.67 62.083 368.233 62.166 367.746 62.166C367.137 62.166 366.603 62.047 366.144 61.8091C365.69 61.5711 365.336 61.2529 365.081 60.8545C364.832 60.4505 364.708 59.9995 364.708 59.5015C364.708 59.02 364.802 58.5967 364.99 58.2314C365.178 57.8607 365.449 57.5535 365.803 57.3101C366.158 57.061 366.584 56.8729 367.082 56.7456C367.58 56.6183 368.136 56.5547 368.75 56.5547H370.535ZM383.6 59.958L386.655 53.0186H388.133L384.132 62H383.069L379.085 53.0186H380.562L383.6 59.958ZM380.114 53.0186V62H378.578V53.0186H380.114ZM387.037 62V53.0186H388.581V62H387.037ZM394.781 62.166C394.156 62.166 393.589 62.0609 393.08 61.8506C392.576 61.6348 392.142 61.3332 391.777 60.9458C391.417 60.5584 391.14 60.0991 390.947 59.5679C390.753 59.0366 390.656 58.4556 390.656 57.8247V57.4761C390.656 56.7456 390.764 56.0954 390.98 55.5254C391.196 54.9499 391.489 54.4629 391.86 54.0645C392.23 53.666 392.651 53.3644 393.121 53.1597C393.592 52.9549 394.079 52.8525 394.582 52.8525C395.224 52.8525 395.778 52.9632 396.242 53.1846C396.713 53.4059 397.097 53.7158 397.396 54.1143C397.695 54.5072 397.916 54.972 398.06 55.5088C398.204 56.04 398.276 56.6211 398.276 57.252V57.9409H391.569V56.6875H396.74V56.5713C396.718 56.1729 396.635 55.7855 396.491 55.4092C396.353 55.0329 396.132 54.723 395.827 54.4795C395.523 54.236 395.108 54.1143 394.582 54.1143C394.234 54.1143 393.913 54.189 393.619 54.3384C393.326 54.4823 393.074 54.6981 392.864 54.9858C392.654 55.2736 392.49 55.625 392.374 56.04C392.258 56.4551 392.2 56.9338 392.2 57.4761V57.8247C392.2 58.2508 392.258 58.652 392.374 59.0283C392.496 59.3991 392.67 59.7256 392.897 60.0078C393.13 60.29 393.409 60.5114 393.736 60.6719C394.068 60.8324 394.444 60.9126 394.865 60.9126C395.407 60.9126 395.866 60.8019 396.242 60.5806C396.619 60.3592 396.948 60.0632 397.23 59.6924L398.16 60.4312C397.966 60.7244 397.72 61.0039 397.421 61.2695C397.122 61.5352 396.754 61.751 396.317 61.917C395.885 62.083 395.374 62.166 394.781 62.166ZM402.792 58.0903L399.388 53.0186H401.24L403.564 56.7373H405.357L405.133 58.0903H402.792ZM403.63 57.9326L401.024 62H399.081L402.659 56.8203L403.63 57.9326ZM406.145 53.0186V62H404.61V53.0186H406.145ZM411.383 53.0186L407.98 58.0903H405.639L405.398 56.7373H407.199L409.524 53.0186H411.383ZM409.74 62L407.125 57.9326L408.113 56.8203L411.682 62H409.74ZM414.72 53.0186H416.256L416.123 56.3804C416.09 57.2326 415.993 57.9686 415.832 58.5884C415.672 59.2082 415.467 59.7367 415.218 60.1738C414.969 60.6055 414.69 60.9679 414.38 61.2612C414.075 61.5545 413.76 61.8008 413.433 62H412.67L412.711 60.7466L413.027 60.7383C413.209 60.5225 413.386 60.3011 413.558 60.0742C413.729 59.8418 413.887 59.5679 414.031 59.2524C414.175 58.9315 414.294 58.5413 414.388 58.082C414.488 57.6172 414.551 57.05 414.579 56.3804L414.72 53.0186ZM415.102 53.0186H420.506V62H418.97V54.438H415.102V53.0186ZM412.321 60.7383H421.659V64.6479H420.124V62H413.857V64.6479H412.313L412.321 60.7383ZM425.885 61.0703L428.383 53.0186H430.027L426.424 63.3862C426.341 63.6076 426.23 63.8455 426.092 64.1001C425.959 64.3602 425.788 64.6064 425.577 64.8389C425.367 65.0713 425.113 65.2594 424.814 65.4033C424.52 65.5527 424.169 65.6274 423.76 65.6274C423.638 65.6274 423.483 65.6108 423.295 65.5776C423.107 65.5444 422.974 65.5168 422.896 65.4946L422.888 64.2495C422.932 64.255 423.001 64.2606 423.095 64.2661C423.195 64.2772 423.264 64.2827 423.303 64.2827C423.652 64.2827 423.948 64.2357 424.191 64.1416C424.435 64.0531 424.639 63.9009 424.805 63.6851C424.977 63.4748 425.124 63.1842 425.245 62.8135L425.885 61.0703ZM424.05 53.0186L426.383 59.9912L426.781 61.6099L425.677 62.1743L422.373 53.0186H424.05ZM437.506 56.9116V58.1567H432.758V56.9116H437.506ZM433.081 53.0186V62H431.546V53.0186H433.081ZM438.751 53.0186V62H437.207V53.0186H438.751ZM446.52 60.4644V55.8408C446.52 55.4867 446.448 55.1795 446.304 54.9194C446.166 54.6538 445.956 54.4491 445.674 54.3052C445.391 54.1613 445.043 54.0894 444.628 54.0894C444.24 54.0894 443.9 54.1558 443.607 54.2886C443.319 54.4214 443.092 54.5957 442.926 54.8115C442.766 55.0273 442.685 55.2598 442.685 55.5088H441.15C441.15 55.1878 441.233 54.8696 441.399 54.5542C441.565 54.2388 441.803 53.9538 442.113 53.6992C442.428 53.4391 442.804 53.2344 443.241 53.085C443.684 52.93 444.177 52.8525 444.719 52.8525C445.372 52.8525 445.948 52.9632 446.446 53.1846C446.949 53.4059 447.342 53.7407 447.624 54.189C447.912 54.6317 448.056 55.1878 448.056 55.8574V60.041C448.056 60.3398 448.081 60.658 448.131 60.9956C448.186 61.3332 448.266 61.6237 448.371 61.8672V62H446.769C446.692 61.8229 446.631 61.5877 446.587 61.2944C446.542 60.9956 446.52 60.7189 446.52 60.4644ZM446.786 56.5547L446.802 57.6338H445.25C444.813 57.6338 444.423 57.6698 444.08 57.7417C443.737 57.8081 443.449 57.9105 443.217 58.0488C442.984 58.1872 442.807 58.3615 442.685 58.5718C442.564 58.7765 442.503 59.0173 442.503 59.2939C442.503 59.5762 442.566 59.8335 442.694 60.0659C442.821 60.2983 443.012 60.4837 443.266 60.6221C443.526 60.7549 443.845 60.8213 444.221 60.8213C444.691 60.8213 445.106 60.7217 445.466 60.5225C445.826 60.3232 446.111 60.0798 446.321 59.792C446.537 59.5042 446.653 59.2248 446.67 58.9536L447.325 59.6924C447.287 59.9248 447.182 60.1821 447.01 60.4644C446.838 60.7466 446.609 61.0177 446.321 61.2778C446.039 61.5324 445.701 61.7454 445.308 61.917C444.921 62.083 444.484 62.166 443.997 62.166C443.388 62.166 442.854 62.047 442.395 61.8091C441.941 61.5711 441.587 61.2529 441.332 60.8545C441.083 60.4505 440.959 59.9995 440.959 59.5015C440.959 59.02 441.053 58.5967 441.241 58.2314C441.429 57.8607 441.7 57.5535 442.054 57.3101C442.409 57.061 442.835 56.8729 443.333 56.7456C443.831 56.6183 444.387 56.5547 445.001 56.5547H446.786ZM452.007 54.7451V65.4531H450.463V53.0186H451.874L452.007 54.7451ZM458.058 57.4346V57.6089C458.058 58.2619 457.981 58.8678 457.826 59.4268C457.671 59.9801 457.444 60.4616 457.145 60.8711C456.852 61.2806 456.49 61.5988 456.058 61.8257C455.626 62.0526 455.131 62.166 454.572 62.166C454.002 62.166 453.498 62.0719 453.061 61.8838C452.624 61.6956 452.253 61.4217 451.949 61.062C451.645 60.7023 451.401 60.2707 451.219 59.7671C451.041 59.2635 450.92 58.6963 450.853 58.0654V57.1357C450.92 56.4717 451.044 55.8768 451.227 55.3511C451.409 54.8254 451.65 54.3771 451.949 54.0063C452.253 53.63 452.621 53.3451 453.053 53.1514C453.485 52.9521 453.983 52.8525 454.547 52.8525C455.112 52.8525 455.612 52.9632 456.05 53.1846C456.487 53.4004 456.855 53.7103 457.154 54.1143C457.452 54.5182 457.677 55.0024 457.826 55.5669C457.981 56.1258 458.058 56.7484 458.058 57.4346ZM456.514 57.6089V57.4346C456.514 56.9863 456.467 56.5658 456.373 56.1729C456.279 55.7744 456.133 55.4258 455.933 55.127C455.74 54.8226 455.491 54.5846 455.186 54.4131C454.882 54.236 454.519 54.1475 454.099 54.1475C453.712 54.1475 453.374 54.2139 453.086 54.3467C452.804 54.4795 452.563 54.6593 452.364 54.8862C452.165 55.1076 452.002 55.3621 451.874 55.6499C451.753 55.9321 451.661 56.2254 451.6 56.5298V58.6797C451.711 59.0671 451.866 59.4323 452.065 59.7754C452.264 60.113 452.53 60.3869 452.862 60.5972C453.194 60.8019 453.612 60.9043 454.115 60.9043C454.531 60.9043 454.887 60.8185 455.186 60.647C455.491 60.4699 455.74 60.2292 455.933 59.9248C456.133 59.6204 456.279 59.2718 456.373 58.8789C456.467 58.4805 456.514 58.0571 456.514 57.6089ZM459.611 57.6089V57.418C459.611 56.7705 459.705 56.1701 459.893 55.6167C460.081 55.0578 460.352 54.5736 460.706 54.1641C461.06 53.749 461.489 53.4281 461.993 53.2012C462.497 52.9688 463.061 52.8525 463.686 52.8525C464.317 52.8525 464.884 52.9688 465.388 53.2012C465.897 53.4281 466.329 53.749 466.683 54.1641C467.043 54.5736 467.316 55.0578 467.505 55.6167C467.693 56.1701 467.787 56.7705 467.787 57.418V57.6089C467.787 58.2563 467.693 58.8568 467.505 59.4102C467.316 59.9635 467.043 60.4478 466.683 60.8628C466.329 61.2723 465.9 61.5933 465.396 61.8257C464.898 62.0526 464.334 62.166 463.703 62.166C463.072 62.166 462.505 62.0526 462.001 61.8257C461.498 61.5933 461.066 61.2723 460.706 60.8628C460.352 60.4478 460.081 59.9635 459.893 59.4102C459.705 58.8568 459.611 58.2563 459.611 57.6089ZM461.146 57.418V57.6089C461.146 58.0571 461.199 58.4805 461.304 58.8789C461.409 59.2718 461.567 59.6204 461.777 59.9248C461.993 60.2292 462.261 60.4699 462.582 60.647C462.903 60.8185 463.277 60.9043 463.703 60.9043C464.123 60.9043 464.491 60.8185 464.807 60.647C465.128 60.4699 465.393 60.2292 465.604 59.9248C465.814 59.6204 465.972 59.2718 466.077 58.8789C466.188 58.4805 466.243 58.0571 466.243 57.6089V57.418C466.243 56.9753 466.188 56.5575 466.077 56.1646C465.972 55.7661 465.811 55.4147 465.595 55.1104C465.385 54.8005 465.12 54.557 464.799 54.3799C464.483 54.2028 464.112 54.1143 463.686 54.1143C463.266 54.1143 462.895 54.2028 462.574 54.3799C462.259 54.557 461.993 54.8005 461.777 55.1104C461.567 55.4147 461.409 55.7661 461.304 56.1646C461.199 56.5575 461.146 56.9753 461.146 57.418ZM470.734 53.0186H472.269L472.136 56.3804C472.103 57.2326 472.006 57.9686 471.846 58.5884C471.685 59.2082 471.481 59.7367 471.232 60.1738C470.983 60.6055 470.703 60.9679 470.393 61.2612C470.089 61.5545 469.774 61.8008 469.447 62H468.683L468.725 60.7466L469.04 60.7383C469.223 60.5225 469.4 60.3011 469.572 60.0742C469.743 59.8418 469.901 59.5679 470.045 59.2524C470.189 58.9315 470.308 58.5413 470.402 58.082C470.501 57.6172 470.565 57.05 470.593 56.3804L470.734 53.0186ZM471.115 53.0186H476.519V62H474.984V54.438H471.115V53.0186ZM468.335 60.7383H477.673V64.6479H476.137V62H469.87V64.6479H468.326L468.335 60.7383ZM485.468 56.9116V58.1567H480.719V56.9116H485.468ZM481.043 53.0186V62H479.508V53.0186H481.043ZM486.713 53.0186V62H485.169V53.0186H486.713ZM491.71 61.0703L494.208 53.0186H495.852L492.249 63.3862C492.166 63.6076 492.056 63.8455 491.917 64.1001C491.784 64.3602 491.613 64.6064 491.403 64.8389C491.192 65.0713 490.938 65.2594 490.639 65.4033C490.346 65.5527 489.994 65.6274 489.585 65.6274C489.463 65.6274 489.308 65.6108 489.12 65.5776C488.932 65.5444 488.799 65.5168 488.721 65.4946L488.713 64.2495C488.757 64.255 488.827 64.2606 488.921 64.2661C489.02 64.2772 489.089 64.2827 489.128 64.2827C489.477 64.2827 489.773 64.2357 490.016 64.1416C490.26 64.0531 490.465 63.9009 490.631 63.6851C490.802 63.4748 490.949 63.1842 491.071 62.8135L491.71 61.0703ZM489.875 53.0186L492.208 59.9912L492.606 61.6099L491.502 62.1743L488.198 53.0186H489.875ZM502.351 56.8286V58.082H497.578V56.8286H502.351ZM498.915 53.0186V62H497.379V53.0186H498.915ZM501.04 57.6089V57.418C501.04 56.7705 501.134 56.1701 501.322 55.6167C501.51 55.0578 501.781 54.5736 502.135 54.1641C502.495 53.749 502.924 53.4281 503.422 53.2012C503.926 52.9688 504.49 52.8525 505.115 52.8525C505.752 52.8525 506.322 52.9688 506.825 53.2012C507.329 53.4281 507.758 53.749 508.112 54.1641C508.472 54.5736 508.746 55.0578 508.934 55.6167C509.122 56.1701 509.216 56.7705 509.216 57.418V57.6089C509.216 58.2563 509.122 58.8568 508.934 59.4102C508.746 59.9635 508.475 60.4478 508.12 60.8628C507.766 61.2723 507.337 61.5933 506.834 61.8257C506.33 62.0526 505.763 62.166 505.132 62.166C504.501 62.166 503.934 62.0526 503.43 61.8257C502.927 61.5933 502.495 61.2723 502.135 60.8628C501.781 60.4478 501.51 59.9635 501.322 59.4102C501.134 58.8568 501.04 58.2563 501.04 57.6089ZM502.584 57.418V57.6089C502.584 58.0571 502.636 58.4805 502.741 58.8789C502.847 59.2718 503.004 59.6204 503.215 59.9248C503.43 60.2292 503.696 60.4699 504.011 60.647C504.332 60.8185 504.706 60.9043 505.132 60.9043C505.558 60.9043 505.929 60.8185 506.244 60.647C506.565 60.4699 506.831 60.2292 507.041 59.9248C507.252 59.6204 507.409 59.2718 507.514 58.8789C507.625 58.4805 507.68 58.0571 507.68 57.6089V57.418C507.68 56.9753 507.625 56.5575 507.514 56.1646C507.409 55.7661 507.249 55.4147 507.033 55.1104C506.823 54.8005 506.557 54.557 506.236 54.3799C505.915 54.2028 505.542 54.1143 505.115 54.1143C504.695 54.1143 504.327 54.2028 504.011 54.3799C503.696 54.557 503.43 54.8005 503.215 55.1104C503.004 55.4147 502.847 55.7661 502.741 56.1646C502.636 56.5575 502.584 56.9753 502.584 57.418ZM241.317 74.1143C240.979 74.1143 240.655 74.189 240.345 74.3384C240.041 74.4878 239.789 74.6953 239.59 74.9609C239.396 75.221 239.3 75.5226 239.3 75.8657H237.83C237.83 75.3289 237.996 74.8337 238.328 74.3799C238.66 73.9206 239.092 73.5526 239.623 73.2759C240.155 72.9937 240.719 72.8525 241.317 72.8525C241.948 72.8525 242.506 72.9715 242.993 73.2095C243.48 73.4474 243.89 73.7739 244.222 74.189C244.559 74.604 244.814 75.0827 244.986 75.625C245.157 76.1618 245.243 76.7318 245.243 77.335V77.6836C245.243 78.2868 245.154 78.8595 244.977 79.4019C244.806 79.9386 244.551 80.4173 244.214 80.8379C243.882 81.2529 243.472 81.5794 242.985 81.8174C242.504 82.0553 241.95 82.1743 241.325 82.1743C240.655 82.1743 240.055 82.0304 239.524 81.7427C238.998 81.4549 238.583 81.0675 238.279 80.5806C237.98 80.0881 237.83 79.5347 237.83 78.9204H239.3C239.3 79.2912 239.388 79.6287 239.565 79.9331C239.748 80.2319 239.991 80.4699 240.296 80.647C240.6 80.8241 240.943 80.9126 241.325 80.9126C241.74 80.9126 242.097 80.8185 242.396 80.6304C242.7 80.4422 242.949 80.1932 243.143 79.8833C243.337 79.5734 243.478 79.2275 243.566 78.8457C243.66 78.4583 243.707 78.071 243.707 77.6836V77.335C243.707 76.9421 243.66 76.5547 243.566 76.1729C243.478 75.791 243.337 75.4451 243.143 75.1353C242.955 74.8254 242.708 74.5791 242.404 74.3965C242.105 74.2083 241.743 74.1143 241.317 74.1143ZM244.454 76.7954V78.0488H240.312V76.7954H244.454ZM248.987 73.0186V82H247.451V73.0186H248.987ZM254.88 73.0186L250.622 78.165H248.472L248.24 76.8203H249.999L253.012 73.0186H254.88ZM253.228 82L249.925 77.9326L250.912 76.8203L255.179 82H253.228ZM259.977 80.9043C260.342 80.9043 260.68 80.8296 260.99 80.6802C261.299 80.5308 261.554 80.326 261.753 80.0659C261.952 79.8003 262.066 79.4987 262.094 79.1611H263.554C263.527 79.6924 263.347 80.1877 263.015 80.647C262.688 81.1007 262.26 81.4688 261.728 81.751C261.197 82.0277 260.613 82.166 259.977 82.166C259.302 82.166 258.712 82.047 258.209 81.8091C257.711 81.5711 257.296 81.2446 256.964 80.8296C256.637 80.4146 256.391 79.9386 256.225 79.4019C256.064 78.8595 255.984 78.2868 255.984 77.6836V77.335C255.984 76.7318 256.064 76.1618 256.225 75.625C256.391 75.0827 256.637 74.604 256.964 74.189C257.296 73.7739 257.711 73.4474 258.209 73.2095C258.712 72.9715 259.302 72.8525 259.977 72.8525C260.68 72.8525 261.294 72.9964 261.82 73.2842C262.345 73.5664 262.758 73.9538 263.056 74.4463C263.361 74.9333 263.527 75.4867 263.554 76.1064H262.094C262.066 75.7357 261.961 75.4009 261.778 75.1021C261.601 74.8032 261.358 74.5653 261.048 74.3882C260.743 74.2056 260.386 74.1143 259.977 74.1143C259.506 74.1143 259.111 74.2083 258.79 74.3965C258.474 74.5791 258.223 74.8281 258.034 75.1436C257.852 75.4535 257.719 75.7993 257.636 76.1812C257.559 76.5575 257.52 76.9421 257.52 77.335V77.6836C257.52 78.0765 257.559 78.4639 257.636 78.8457C257.713 79.2275 257.844 79.5734 258.026 79.8833C258.214 80.1932 258.466 80.4422 258.781 80.6304C259.102 80.813 259.501 80.9043 259.977 80.9043ZM271.266 73.0186V74.2886H266.725V73.0186H271.266ZM266.949 73.0186V82H265.414V73.0186H266.949ZM272.627 73.0186V82H271.083V73.0186H272.627ZM280.388 80.4644V75.8408C280.388 75.4867 280.316 75.1795 280.173 74.9194C280.034 74.6538 279.824 74.4491 279.542 74.3052C279.26 74.1613 278.911 74.0894 278.496 74.0894C278.108 74.0894 277.768 74.1558 277.475 74.2886C277.187 74.4214 276.96 74.5957 276.794 74.8115C276.634 75.0273 276.553 75.2598 276.553 75.5088H275.018C275.018 75.1878 275.101 74.8696 275.267 74.5542C275.433 74.2388 275.671 73.9538 275.981 73.6992C276.296 73.4391 276.672 73.2344 277.11 73.085C277.552 72.93 278.045 72.8525 278.587 72.8525C279.24 72.8525 279.816 72.9632 280.314 73.1846C280.817 73.4059 281.21 73.7407 281.492 74.189C281.78 74.6317 281.924 75.1878 281.924 75.8574V80.041C281.924 80.3398 281.949 80.658 281.999 80.9956C282.054 81.3332 282.134 81.6237 282.24 81.8672V82H280.637C280.56 81.8229 280.499 81.5877 280.455 81.2944C280.411 80.9956 280.388 80.7189 280.388 80.4644ZM280.654 76.5547L280.671 77.6338H279.118C278.681 77.6338 278.291 77.6698 277.948 77.7417C277.605 77.8081 277.317 77.9105 277.085 78.0488C276.852 78.1872 276.675 78.3615 276.553 78.5718C276.432 78.7765 276.371 79.0173 276.371 79.2939C276.371 79.5762 276.434 79.8335 276.562 80.0659C276.689 80.2983 276.88 80.4837 277.135 80.6221C277.395 80.7549 277.713 80.8213 278.089 80.8213C278.559 80.8213 278.975 80.7217 279.334 80.5225C279.694 80.3232 279.979 80.0798 280.189 79.792C280.405 79.5042 280.521 79.2248 280.538 78.9536L281.194 79.6924C281.155 79.9248 281.05 80.1821 280.878 80.4644C280.707 80.7466 280.477 81.0177 280.189 81.2778C279.907 81.5324 279.569 81.7454 279.177 81.917C278.789 82.083 278.352 82.166 277.865 82.166C277.256 82.166 276.722 82.047 276.263 81.8091C275.809 81.5711 275.455 81.2529 275.2 80.8545C274.951 80.4505 274.827 79.9995 274.827 79.5015C274.827 79.02 274.921 78.5967 275.109 78.2314C275.297 77.8607 275.568 77.5535 275.923 77.3101C276.277 77.061 276.703 76.8729 277.201 76.7456C277.699 76.6183 278.255 76.5547 278.869 76.5547H280.654ZM290.432 76.9116V78.1567H285.684V76.9116H290.432ZM286.008 73.0186V82H284.472V73.0186H286.008ZM291.677 73.0186V82H290.134V73.0186H291.677ZM297.745 80.9043C298.111 80.9043 298.448 80.8296 298.758 80.6802C299.068 80.5308 299.323 80.326 299.522 80.0659C299.721 79.8003 299.834 79.4987 299.862 79.1611H301.323C301.295 79.6924 301.115 80.1877 300.783 80.647C300.457 81.1007 300.028 81.4688 299.497 81.751C298.966 82.0277 298.382 82.166 297.745 82.166C297.07 82.166 296.481 82.047 295.977 81.8091C295.479 81.5711 295.064 81.2446 294.732 80.8296C294.406 80.4146 294.159 79.9386 293.993 79.4019C293.833 78.8595 293.753 78.2868 293.753 77.6836V77.335C293.753 76.7318 293.833 76.1618 293.993 75.625C294.159 75.0827 294.406 74.604 294.732 74.189C295.064 73.7739 295.479 73.4474 295.977 73.2095C296.481 72.9715 297.07 72.8525 297.745 72.8525C298.448 72.8525 299.062 72.9964 299.588 73.2842C300.114 73.5664 300.526 73.9538 300.825 74.4463C301.129 74.9333 301.295 75.4867 301.323 76.1064H299.862C299.834 75.7357 299.729 75.4009 299.547 75.1021C299.37 74.8032 299.126 74.5653 298.816 74.3882C298.512 74.2056 298.155 74.1143 297.745 74.1143C297.275 74.1143 296.879 74.2083 296.558 74.3965C296.243 74.5791 295.991 74.8281 295.803 75.1436C295.62 75.4535 295.488 75.7993 295.405 76.1812C295.327 76.5575 295.288 76.9421 295.288 77.335V77.6836C295.288 78.0765 295.327 78.4639 295.405 78.8457C295.482 79.2275 295.612 79.5734 295.795 79.8833C295.983 80.1932 296.235 80.4422 296.55 80.6304C296.871 80.813 297.269 80.9043 297.745 80.9043ZM304.71 79.5679L308.852 73.0186H310.396V82H308.852V75.4507L304.71 82H303.182V73.0186H304.71V79.5679ZM317.974 76.8286V78.082H313.201V76.8286H317.974ZM314.538 73.0186V82H313.002V73.0186H314.538ZM316.663 77.6089V77.418C316.663 76.7705 316.757 76.1701 316.945 75.6167C317.133 75.0578 317.404 74.5736 317.759 74.1641C318.118 73.749 318.547 73.4281 319.045 73.2012C319.549 72.9688 320.113 72.8525 320.739 72.8525C321.375 72.8525 321.945 72.9688 322.448 73.2012C322.952 73.4281 323.381 73.749 323.735 74.1641C324.095 74.5736 324.369 75.0578 324.557 75.6167C324.745 76.1701 324.839 76.7705 324.839 77.418V77.6089C324.839 78.2563 324.745 78.8568 324.557 79.4102C324.369 79.9635 324.098 80.4478 323.743 80.8628C323.389 81.2723 322.96 81.5933 322.457 81.8257C321.953 82.0526 321.386 82.166 320.755 82.166C320.124 82.166 319.557 82.0526 319.053 81.8257C318.55 81.5933 318.118 81.2723 317.759 80.8628C317.404 80.4478 317.133 79.9635 316.945 79.4102C316.757 78.8568 316.663 78.2563 316.663 77.6089ZM318.207 77.418V77.6089C318.207 78.0571 318.259 78.4805 318.365 78.8789C318.47 79.2718 318.627 79.6204 318.838 79.9248C319.053 80.2292 319.319 80.4699 319.635 80.647C319.955 80.8185 320.329 80.9043 320.755 80.9043C321.181 80.9043 321.552 80.8185 321.867 80.647C322.188 80.4699 322.454 80.2292 322.664 79.9248C322.875 79.6204 323.032 79.2718 323.137 78.8789C323.248 78.4805 323.303 78.0571 323.303 77.6089V77.418C323.303 76.9753 323.248 76.5575 323.137 76.1646C323.032 75.7661 322.872 75.4147 322.656 75.1104C322.446 74.8005 322.18 74.557 321.859 74.3799C321.538 74.2028 321.165 74.1143 320.739 74.1143C320.318 74.1143 319.95 74.2028 319.635 74.3799C319.319 74.557 319.053 74.8005 318.838 75.1104C318.627 75.4147 318.47 75.7661 318.365 76.1646C318.259 76.5575 318.207 76.9753 318.207 77.418Z" fill="black"/>
<defs>
<filter id="filter0_d_802_852" x="0.0517578" y="12.0859" width="106.191" height="106.163" filterUnits="userSpaceOnUse" color-interpolation-filters="sRGB">
<feFlood flood-opacity="0" result="BackgroundImageFix"/>
<feColorMatrix in="SourceAlpha" type="matrix" values="0 0 0 0 0 0 0 0 0 0 0 0 0 0 0 0 0 0 127 0" result="hardAlpha"/>
<feOffset/>
<feGaussianBlur stdDeviation="12"/>
<feComposite in2="hardAlpha" operator="out"/>
<feColorMatrix type="matrix" values="0 0 0 0 0.579167 0 0 0 0 0.579167 0 0 0 0 0.579167 0 0 0 0.3 0"/>
<feBlend mode="normal" in2="BackgroundImageFix" result="effect1_dropShadow_802_852"/>
<feBlend mode="normal" in="SourceGraphic" in2="effect1_dropShadow_802_852" result="shape"/>
</filter>
</defs>
</svg>
