<svg width="655" height="116" viewBox="0 0 655 116" fill="none" xmlns="http://www.w3.org/2000/svg">
<path d="M654.819 58.0349C654.819 26.0522 628.892 0.137502 596.91 0.152647C564.927 0.167791 539 26.107 539 58.0897C539 90.0724 564.927 115.987 596.91 115.972C628.892 115.957 654.819 90.0175 654.819 58.0349Z" fill="#00A3FF"/>
<path d="M577.104 37.9878H584.604V79.9995H575.609V49.4136H568.402V43.7007C569.691 43.5444 570.873 43.2417 571.947 42.7925C573.021 42.3237 573.852 41.8257 574.438 41.2983C575.043 40.771 575.551 40.2632 575.961 39.7749C576.391 39.2671 576.693 38.8374 576.869 38.4858L577.104 37.9878ZM620.609 64.7065H625.414V72.4995H620.609V79.9995H611.615V72.4995H591.811V63.5054L610.121 37.9878H620.609V64.7065ZM611.615 64.7065V48.5054L600.219 64.7065H611.615Z" fill="white"/>
<path d="M175.294 58L57.2939 58" stroke="#00A3FF" stroke-miterlimit="10" stroke-linecap="round"/>
<g filter="url(#filter0_d_822_2146)">
<path d="M32.5734 78.7313C21.2109 67.3742 21.2109 48.9607 32.5733 37.6036C43.9358 26.2466 62.358 26.2466 73.7204 37.6037C85.0829 48.9607 85.0829 67.3742 73.7204 78.7313C62.358 90.0884 43.9358 90.0884 32.5734 78.7313Z" fill="white"/>
</g>
<path d="M44.0532 58.1644C44.0479 59.8871 44.5531 61.5727 45.505 63.0088C46.457 64.4448 47.8131 65.5669 49.4023 66.2335C50.9915 66.9002 52.7426 67.0815 54.4347 66.7546C56.1269 66.4278 57.6843 65.6073 58.9106 64.3968C60.1368 63.1863 60.977 61.64 61.3251 59.9528C61.6731 58.2657 61.5136 56.5133 60.8665 54.9166C60.2194 53.32 59.1137 51.9507 57.689 50.9813C56.2643 50.012 54.5843 49.4861 52.8609 49.4699C51.7094 49.4555 50.5665 49.6697 49.4985 50.1002C48.4306 50.5307 47.4587 51.1688 46.6394 51.9776C45.8201 52.7864 45.1695 53.7498 44.7256 54.8118C44.2816 55.8739 44.0531 57.0134 44.0532 58.1644Z" fill="#00A3FF"/>
<path d="M52.7516 61.5712C50.8692 61.5712 49.3431 60.0459 49.3431 58.1643C49.3431 56.2827 50.8692 54.7573 52.7516 54.7573C54.6341 54.7573 56.1602 56.2827 56.1602 58.1643C56.1602 60.0459 54.6341 61.5712 52.7516 61.5712Z" fill="white"/>
<path d="M172.842 58.1642C172.837 59.8904 173.344 61.5793 174.299 63.0172C175.255 64.4551 176.616 65.5772 178.21 66.2415C179.804 66.9058 181.559 67.0824 183.254 66.749C184.948 66.4155 186.505 65.587 187.729 64.3684C188.952 63.1497 189.785 61.5957 190.124 59.9031C190.463 58.2105 190.292 56.4554 189.632 54.8601C188.973 53.2649 187.854 51.9011 186.419 50.9415C184.983 49.982 183.295 49.4697 181.568 49.4697C179.259 49.4697 177.043 50.3849 175.408 52.0146C173.772 53.6444 172.849 55.8558 172.842 58.1642Z" fill="#00A3FF"/>
<path d="M181.541 61.5712C179.658 61.5712 178.132 60.0459 178.132 58.1643C178.132 56.2827 179.658 54.7573 181.541 54.7573C183.423 54.7573 184.949 56.2827 184.949 58.1643C184.949 60.0459 183.423 61.5712 181.541 61.5712Z" fill="white"/>
<path d="M238.391 44.6846H234.427L234.405 43.0195H238.004C238.598 43.0195 239.118 42.9193 239.562 42.7188C240.006 42.5182 240.349 42.2318 240.593 41.8594C240.843 41.4798 240.969 41.0286 240.969 40.5059C240.969 39.9329 240.858 39.4674 240.636 39.1094C240.421 38.7441 240.088 38.4792 239.637 38.3145C239.193 38.1426 238.627 38.0566 237.939 38.0566H234.889V52H232.815V36.3594H237.939C238.742 36.3594 239.458 36.4417 240.088 36.6064C240.718 36.764 241.252 37.0146 241.688 37.3584C242.132 37.695 242.469 38.1247 242.698 38.6475C242.927 39.1702 243.042 39.7969 243.042 40.5273C243.042 41.1719 242.877 41.7555 242.548 42.2783C242.218 42.7939 241.76 43.2165 241.173 43.5459C240.593 43.8753 239.912 44.0866 239.132 44.1797L238.391 44.6846ZM238.294 52H233.61L234.781 50.3135H238.294C238.953 50.3135 239.511 50.1989 239.97 49.9697C240.435 49.7406 240.79 49.4183 241.033 49.0029C241.277 48.5804 241.398 48.0827 241.398 47.5098C241.398 46.9297 241.295 46.4284 241.087 46.0059C240.879 45.5833 240.553 45.2575 240.109 45.0283C239.665 44.7992 239.092 44.6846 238.391 44.6846H235.437L235.458 43.0195H239.497L239.938 43.6211C240.689 43.6855 241.327 43.9004 241.85 44.2656C242.372 44.6237 242.77 45.082 243.042 45.6406C243.321 46.1992 243.461 46.8151 243.461 47.4883C243.461 48.4622 243.246 49.2858 242.816 49.959C242.394 50.625 241.796 51.1335 241.022 51.4844C240.249 51.8281 239.34 52 238.294 52ZM247.854 44.373H251.346C252.284 44.373 253.075 44.5378 253.72 44.8672C254.364 45.1895 254.851 45.637 255.181 46.21C255.517 46.7757 255.686 47.4202 255.686 48.1436C255.686 48.6807 255.592 49.1855 255.406 49.6582C255.22 50.1237 254.941 50.5319 254.568 50.8828C254.203 51.2337 253.748 51.5094 253.204 51.71C252.667 51.9033 252.048 52 251.346 52H246.404V40.377H248.392V50.3672H251.346C251.919 50.3672 252.377 50.2633 252.721 50.0557C253.064 49.848 253.312 49.5794 253.462 49.25C253.612 48.9206 253.688 48.5768 253.688 48.2188C253.688 47.8678 253.612 47.5241 253.462 47.1875C253.312 46.8509 253.064 46.5716 252.721 46.3496C252.377 46.1204 251.919 46.0059 251.346 46.0059H247.854V44.373ZM259.821 40.377V52H257.834V40.377H259.821ZM264.645 40.377L267.19 44.6094L269.769 40.377H272.1L268.297 46.1133L272.218 52H269.919L267.233 47.6387L264.548 52H262.238L266.148 46.1133L262.356 40.377H264.645ZM273.475 46.3174V46.0703C273.475 45.2324 273.596 44.4554 273.84 43.7393C274.083 43.016 274.434 42.3893 274.893 41.8594C275.351 41.3223 275.906 40.9069 276.558 40.6133C277.209 40.3125 277.94 40.1621 278.749 40.1621C279.565 40.1621 280.299 40.3125 280.951 40.6133C281.61 40.9069 282.169 41.3223 282.627 41.8594C283.092 42.3893 283.447 43.016 283.69 43.7393C283.934 44.4554 284.056 45.2324 284.056 46.0703V46.3174C284.056 47.1553 283.934 47.9323 283.69 48.6484C283.447 49.3646 283.092 49.9912 282.627 50.5283C282.169 51.0583 281.614 51.4736 280.962 51.7744C280.317 52.068 279.587 52.2148 278.771 52.2148C277.954 52.2148 277.22 52.068 276.568 51.7744C275.917 51.4736 275.358 51.0583 274.893 50.5283C274.434 49.9912 274.083 49.3646 273.84 48.6484C273.596 47.9323 273.475 47.1553 273.475 46.3174ZM275.462 46.0703V46.3174C275.462 46.8975 275.53 47.4453 275.666 47.9609C275.802 48.4694 276.006 48.9206 276.278 49.3145C276.558 49.7083 276.905 50.0199 277.32 50.249C277.736 50.471 278.219 50.582 278.771 50.582C279.315 50.582 279.791 50.471 280.199 50.249C280.615 50.0199 280.958 49.7083 281.23 49.3145C281.503 48.9206 281.707 48.4694 281.843 47.9609C281.986 47.4453 282.058 46.8975 282.058 46.3174V46.0703C282.058 45.4974 281.986 44.9567 281.843 44.4482C281.707 43.9326 281.499 43.4779 281.22 43.084C280.948 42.6829 280.604 42.3678 280.188 42.1387C279.78 41.9095 279.3 41.7949 278.749 41.7949C278.205 41.7949 277.725 41.9095 277.31 42.1387C276.901 42.3678 276.558 42.6829 276.278 43.084C276.006 43.4779 275.802 43.9326 275.666 44.4482C275.53 44.9567 275.462 45.4974 275.462 46.0703ZM287.869 40.377H289.856L289.685 44.7275C289.642 45.8304 289.516 46.7829 289.309 47.585C289.101 48.387 288.836 49.071 288.514 49.6367C288.191 50.1953 287.83 50.6644 287.429 51.0439C287.035 51.4235 286.627 51.7422 286.204 52H285.216L285.27 50.3779L285.678 50.3672C285.914 50.0879 286.143 49.8014 286.365 49.5078C286.587 49.207 286.791 48.8525 286.978 48.4443C287.164 48.029 287.318 47.5241 287.439 46.9297C287.568 46.3281 287.651 45.5941 287.687 44.7275L287.869 40.377ZM288.363 40.377H295.356V52H293.369V42.2139H288.363V40.377ZM284.765 50.3672H296.85V55.4268H294.862V52H286.752V55.4268H284.754L284.765 50.3672ZM311.964 35.3174H313.597C313.597 36.0192 313.489 36.5778 313.274 36.9932C313.06 37.4014 312.766 37.7165 312.394 37.9385C312.028 38.1605 311.613 38.3288 311.147 38.4434C310.689 38.5579 310.213 38.6689 309.719 38.7764C309.103 38.9053 308.53 39.1094 308 39.3887C307.477 39.6608 307.026 40.0475 306.646 40.5488C306.274 41.0501 305.998 41.7018 305.819 42.5039C305.647 43.306 305.601 44.2979 305.68 45.4795V46.4678H304.047V45.4795C304.047 44.1546 304.172 42.998 304.423 42.0098C304.681 41.0215 305.042 40.1872 305.508 39.5068C305.973 38.8265 306.525 38.2858 307.162 37.8848C307.807 37.4837 308.516 37.208 309.289 37.0576C309.848 36.9502 310.327 36.8356 310.729 36.7139C311.13 36.585 311.434 36.4131 311.642 36.1982C311.856 35.9834 311.964 35.6898 311.964 35.3174ZM309.611 41.043C310.37 41.043 311.047 41.1755 311.642 41.4404C312.236 41.7054 312.741 42.0742 313.156 42.5469C313.572 43.0195 313.887 43.5781 314.102 44.2227C314.324 44.86 314.435 45.5547 314.435 46.3066V46.543C314.435 47.3522 314.316 48.1042 314.08 48.7988C313.851 49.4863 313.511 50.0879 313.06 50.6035C312.616 51.112 312.071 51.5094 311.427 51.7959C310.789 52.0824 310.062 52.2256 309.246 52.2256C308.43 52.2256 307.699 52.0824 307.055 51.7959C306.417 51.5094 305.873 51.112 305.422 50.6035C304.971 50.0879 304.627 49.4863 304.391 48.7988C304.161 48.1042 304.047 47.3522 304.047 46.543V46.3066C304.047 46.1276 304.079 45.9521 304.144 45.7803C304.208 45.6084 304.287 45.4329 304.38 45.2539C304.48 45.0749 304.57 44.8851 304.648 44.6846C304.913 44.04 305.275 43.4421 305.733 42.8906C306.199 42.3392 306.754 41.8952 307.398 41.5586C308.05 41.2148 308.788 41.043 309.611 41.043ZM309.225 42.665C308.494 42.665 307.893 42.8333 307.42 43.1699C306.954 43.5065 306.607 43.9541 306.378 44.5127C306.149 45.0641 306.034 45.6621 306.034 46.3066V46.543C306.034 47.0872 306.099 47.6029 306.228 48.0898C306.356 48.5768 306.55 49.0101 306.808 49.3896C307.073 49.762 307.406 50.0557 307.807 50.2705C308.215 50.4854 308.695 50.5928 309.246 50.5928C309.798 50.5928 310.274 50.4854 310.675 50.2705C311.076 50.0557 311.405 49.762 311.663 49.3896C311.921 49.0101 312.114 48.5768 312.243 48.0898C312.372 47.6029 312.437 47.0872 312.437 46.543V46.3066C312.437 45.8197 312.372 45.3577 312.243 44.9209C312.114 44.484 311.917 44.0973 311.652 43.7607C311.395 43.4242 311.062 43.1592 310.653 42.9658C310.252 42.7653 309.776 42.665 309.225 42.665ZM318.484 42.6113V56.4688H316.486V40.377H318.312L318.484 42.6113ZM326.315 46.0918V46.3174C326.315 47.1624 326.215 47.9466 326.015 48.6699C325.814 49.3861 325.521 50.0091 325.134 50.5391C324.754 51.069 324.285 51.4808 323.727 51.7744C323.168 52.068 322.527 52.2148 321.804 52.2148C321.066 52.2148 320.414 52.0931 319.849 51.8496C319.283 51.6061 318.803 51.2516 318.409 50.7861C318.015 50.3206 317.7 49.762 317.464 49.1104C317.235 48.4587 317.077 47.7246 316.991 46.9082V45.7051C317.077 44.8457 317.238 44.0758 317.475 43.3955C317.711 42.7152 318.022 42.1351 318.409 41.6553C318.803 41.1683 319.279 40.7995 319.838 40.5488C320.396 40.291 321.041 40.1621 321.771 40.1621C322.502 40.1621 323.15 40.3053 323.716 40.5918C324.282 40.8711 324.758 41.2721 325.145 41.7949C325.531 42.3177 325.821 42.9443 326.015 43.6748C326.215 44.3981 326.315 45.2038 326.315 46.0918ZM324.317 46.3174V46.0918C324.317 45.5117 324.257 44.9674 324.135 44.459C324.013 43.9434 323.823 43.4922 323.565 43.1055C323.315 42.7116 322.993 42.4036 322.599 42.1816C322.205 41.9525 321.736 41.8379 321.191 41.8379C320.69 41.8379 320.253 41.9238 319.881 42.0957C319.516 42.2676 319.204 42.5003 318.946 42.7939C318.688 43.0804 318.477 43.4098 318.312 43.7822C318.155 44.1475 318.037 44.527 317.958 44.9209V47.7031C318.101 48.2044 318.302 48.6771 318.56 49.1211C318.817 49.5579 319.161 49.9124 319.591 50.1846C320.021 50.4495 320.561 50.582 321.213 50.582C321.75 50.582 322.212 50.471 322.599 50.249C322.993 50.0199 323.315 49.7083 323.565 49.3145C323.823 48.9206 324.013 48.4694 324.135 47.9609C324.257 47.4453 324.317 46.8975 324.317 46.3174ZM333.674 52.2148C332.865 52.2148 332.131 52.0788 331.472 51.8066C330.82 51.5273 330.258 51.137 329.785 50.6357C329.32 50.1344 328.962 49.54 328.711 48.8525C328.46 48.165 328.335 47.4131 328.335 46.5967V46.1455C328.335 45.2002 328.475 44.3587 328.754 43.6211C329.033 42.8763 329.413 42.2461 329.893 41.7305C330.372 41.2148 330.917 40.8245 331.525 40.5596C332.134 40.2946 332.764 40.1621 333.416 40.1621C334.247 40.1621 334.963 40.3053 335.564 40.5918C336.173 40.8783 336.671 41.2793 337.058 41.7949C337.444 42.3034 337.731 42.9049 337.917 43.5996C338.103 44.2871 338.196 45.0391 338.196 45.8555V46.7471H329.517V45.125H336.209V44.9746C336.18 44.459 336.073 43.9577 335.887 43.4707C335.708 42.9837 335.421 42.5827 335.027 42.2676C334.633 41.9525 334.096 41.7949 333.416 41.7949C332.965 41.7949 332.549 41.8916 332.17 42.085C331.79 42.2712 331.465 42.5505 331.192 42.9229C330.92 43.2952 330.709 43.75 330.559 44.2871C330.408 44.8242 330.333 45.4437 330.333 46.1455V46.5967C330.333 47.1481 330.408 47.6673 330.559 48.1543C330.716 48.6341 330.942 49.0566 331.235 49.4219C331.536 49.7871 331.898 50.0736 332.32 50.2812C332.75 50.4889 333.237 50.5928 333.781 50.5928C334.483 50.5928 335.077 50.4495 335.564 50.1631C336.051 49.8766 336.478 49.4935 336.843 49.0137L338.046 49.9697C337.795 50.3493 337.477 50.7109 337.09 51.0547C336.703 51.3984 336.227 51.6777 335.661 51.8926C335.103 52.1074 334.44 52.2148 333.674 52.2148ZM348.401 45.415V47.0264H342.257V45.415H348.401ZM342.676 40.377V52H340.688V40.377H342.676ZM350.013 40.377V52H348.015V40.377H350.013ZM355.309 40.377H357.296L357.124 44.7275C357.081 45.8304 356.956 46.7829 356.748 47.585C356.54 48.387 356.275 49.071 355.953 49.6367C355.631 50.1953 355.269 50.6644 354.868 51.0439C354.474 51.4235 354.066 51.7422 353.644 52H352.655L352.709 50.3779L353.117 50.3672C353.354 50.0879 353.583 49.8014 353.805 49.5078C354.027 49.207 354.231 48.8525 354.417 48.4443C354.603 48.029 354.757 47.5241 354.879 46.9297C355.008 46.3281 355.09 45.5941 355.126 44.7275L355.309 40.377ZM355.803 40.377H362.796V52H360.809V42.2139H355.803V40.377ZM352.204 50.3672H364.289V55.4268H362.302V52H354.191V55.4268H352.193L352.204 50.3672ZM373.345 50.0127V44.0293C373.345 43.571 373.252 43.1735 373.065 42.8369C372.886 42.4932 372.614 42.2282 372.249 42.042C371.884 41.8558 371.433 41.7627 370.896 41.7627C370.394 41.7627 369.954 41.8486 369.574 42.0205C369.202 42.1924 368.908 42.418 368.693 42.6973C368.486 42.9766 368.382 43.2773 368.382 43.5996H366.395C366.395 43.1842 366.502 42.7725 366.717 42.3643C366.932 41.9561 367.24 41.5872 367.641 41.2578C368.049 40.9212 368.536 40.6562 369.102 40.4629C369.674 40.2624 370.312 40.1621 371.014 40.1621C371.859 40.1621 372.604 40.3053 373.248 40.5918C373.9 40.8783 374.408 41.3115 374.773 41.8916C375.146 42.4645 375.332 43.1842 375.332 44.0508V49.4648C375.332 49.8516 375.364 50.2633 375.429 50.7002C375.5 51.137 375.604 51.513 375.74 51.8281V52H373.667C373.567 51.7708 373.488 51.4665 373.431 51.0869C373.373 50.7002 373.345 50.3421 373.345 50.0127ZM373.688 44.9531L373.71 46.3496H371.701C371.135 46.3496 370.631 46.3962 370.187 46.4893C369.743 46.5752 369.37 46.7077 369.069 46.8867C368.769 47.0658 368.539 47.2913 368.382 47.5635C368.224 47.8285 368.146 48.14 368.146 48.498C368.146 48.8633 368.228 49.1963 368.393 49.4971C368.557 49.7979 368.804 50.0378 369.134 50.2168C369.47 50.3887 369.882 50.4746 370.369 50.4746C370.978 50.4746 371.515 50.3457 371.98 50.0879C372.446 49.8301 372.815 49.515 373.087 49.1426C373.366 48.7702 373.517 48.4085 373.538 48.0576L374.387 49.0137C374.337 49.3145 374.201 49.6475 373.979 50.0127C373.757 50.3779 373.459 50.7288 373.087 51.0654C372.722 51.3949 372.285 51.6706 371.776 51.8926C371.275 52.1074 370.709 52.2148 370.079 52.2148C369.291 52.2148 368.6 52.0609 368.006 51.7529C367.419 51.445 366.96 51.0332 366.631 50.5176C366.309 49.9948 366.147 49.4111 366.147 48.7666C366.147 48.1436 366.269 47.5957 366.513 47.123C366.756 46.6432 367.107 46.2458 367.565 45.9307C368.024 45.6084 368.575 45.3649 369.22 45.2002C369.864 45.0355 370.584 44.9531 371.379 44.9531H373.688ZM391.8 45.415V47.0264H385.655V45.415H391.8ZM386.074 40.377V52H384.087V40.377H386.074ZM393.411 40.377V52H391.413V40.377H393.411ZM403.466 50.0127V44.0293C403.466 43.571 403.373 43.1735 403.187 42.8369C403.007 42.4932 402.735 42.2282 402.37 42.042C402.005 41.8558 401.554 41.7627 401.017 41.7627C400.515 41.7627 400.075 41.8486 399.695 42.0205C399.323 42.1924 399.029 42.418 398.814 42.6973C398.607 42.9766 398.503 43.2773 398.503 43.5996H396.516C396.516 43.1842 396.623 42.7725 396.838 42.3643C397.053 41.9561 397.361 41.5872 397.762 41.2578C398.17 40.9212 398.657 40.6562 399.223 40.4629C399.796 40.2624 400.433 40.1621 401.135 40.1621C401.98 40.1621 402.725 40.3053 403.369 40.5918C404.021 40.8783 404.529 41.3115 404.895 41.8916C405.267 42.4645 405.453 43.1842 405.453 44.0508V49.4648C405.453 49.8516 405.485 50.2633 405.55 50.7002C405.621 51.137 405.725 51.513 405.861 51.8281V52H403.788C403.688 51.7708 403.609 51.4665 403.552 51.0869C403.494 50.7002 403.466 50.3421 403.466 50.0127ZM403.81 44.9531L403.831 46.3496H401.822C401.257 46.3496 400.752 46.3962 400.308 46.4893C399.864 46.5752 399.491 46.7077 399.19 46.8867C398.89 47.0658 398.66 47.2913 398.503 47.5635C398.345 47.8285 398.267 48.14 398.267 48.498C398.267 48.8633 398.349 49.1963 398.514 49.4971C398.678 49.7979 398.925 50.0378 399.255 50.2168C399.591 50.3887 400.003 50.4746 400.49 50.4746C401.099 50.4746 401.636 50.3457 402.102 50.0879C402.567 49.8301 402.936 49.515 403.208 49.1426C403.487 48.7702 403.638 48.4085 403.659 48.0576L404.508 49.0137C404.458 49.3145 404.322 49.6475 404.1 50.0127C403.878 50.3779 403.58 50.7288 403.208 51.0654C402.843 51.3949 402.406 51.6706 401.897 51.8926C401.396 52.1074 400.83 52.2148 400.2 52.2148C399.412 52.2148 398.721 52.0609 398.127 51.7529C397.54 51.445 397.081 51.0332 396.752 50.5176C396.43 49.9948 396.269 49.4111 396.269 48.7666C396.269 48.1436 396.39 47.5957 396.634 47.123C396.877 46.6432 397.228 46.2458 397.687 45.9307C398.145 45.6084 398.696 45.3649 399.341 45.2002C399.985 45.0355 400.705 44.9531 401.5 44.9531H403.81ZM239.196 75.3574L243.149 66.377H245.062L239.884 78H238.509L233.353 66.377H235.265L239.196 75.3574ZM234.685 66.377V78H232.697V66.377H234.685ZM243.644 78V66.377H245.642V78H243.644ZM253.666 78.2148C252.857 78.2148 252.123 78.0788 251.464 77.8066C250.812 77.5273 250.25 77.137 249.777 76.6357C249.312 76.1344 248.954 75.54 248.703 74.8525C248.452 74.165 248.327 73.4131 248.327 72.5967V72.1455C248.327 71.2002 248.467 70.3587 248.746 69.6211C249.025 68.8763 249.405 68.2461 249.885 67.7305C250.365 67.2148 250.909 66.8245 251.518 66.5596C252.126 66.2946 252.757 66.1621 253.408 66.1621C254.239 66.1621 254.955 66.3053 255.557 66.5918C256.165 66.8783 256.663 67.2793 257.05 67.7949C257.437 68.3034 257.723 68.9049 257.909 69.5996C258.095 70.2871 258.188 71.0391 258.188 71.8555V72.7471H249.509V71.125H256.201V70.9746C256.173 70.459 256.065 69.9577 255.879 69.4707C255.7 68.9837 255.413 68.5827 255.02 68.2676C254.626 67.9525 254.089 67.7949 253.408 67.7949C252.957 67.7949 252.542 67.8916 252.162 68.085C251.783 68.2712 251.457 68.5505 251.185 68.9229C250.912 69.2952 250.701 69.75 250.551 70.2871C250.4 70.8242 250.325 71.4437 250.325 72.1455V72.5967C250.325 73.1481 250.4 73.6673 250.551 74.1543C250.708 74.6341 250.934 75.0566 251.228 75.4219C251.528 75.7871 251.89 76.0736 252.312 76.2812C252.742 76.4889 253.229 76.5928 253.773 76.5928C254.475 76.5928 255.07 76.4495 255.557 76.1631C256.044 75.8766 256.47 75.4935 256.835 75.0137L258.038 75.9697C257.787 76.3493 257.469 76.7109 257.082 77.0547C256.695 77.3984 256.219 77.6777 255.653 77.8926C255.095 78.1074 254.432 78.2148 253.666 78.2148ZM264.032 72.9404L259.628 66.377H262.023L265.031 71.1895H267.352L267.062 72.9404H264.032ZM265.117 72.7363L261.744 78H259.23L263.86 71.2969L265.117 72.7363ZM268.372 66.377V78H266.385V66.377H268.372ZM275.15 66.377L270.746 72.9404H267.717L267.405 71.1895H269.736L272.744 66.377H275.15ZM273.023 78L269.64 72.7363L270.918 71.2969L275.537 78H273.023ZM279.469 66.377H281.456L281.284 70.7275C281.241 71.8304 281.116 72.7829 280.908 73.585C280.701 74.387 280.436 75.071 280.113 75.6367C279.791 76.1953 279.429 76.6644 279.028 77.0439C278.634 77.4235 278.226 77.7422 277.804 78H276.815L276.869 76.3779L277.277 76.3672C277.514 76.0879 277.743 75.8014 277.965 75.5078C278.187 75.207 278.391 74.8525 278.577 74.4443C278.763 74.029 278.917 73.5241 279.039 72.9297C279.168 72.3281 279.25 71.5941 279.286 70.7275L279.469 66.377ZM279.963 66.377H286.956V78H284.969V68.2139H279.963V66.377ZM276.364 76.3672H288.449V81.4268H286.462V78H278.352V81.4268H276.354L276.364 76.3672ZM293.917 76.7969L297.15 66.377H299.277L294.615 79.7939C294.508 80.0804 294.365 80.3883 294.186 80.7178C294.014 81.0544 293.792 81.373 293.52 81.6738C293.247 81.9746 292.918 82.2181 292.531 82.4043C292.152 82.5977 291.697 82.6943 291.167 82.6943C291.009 82.6943 290.809 82.6729 290.565 82.6299C290.322 82.5869 290.15 82.5511 290.05 82.5225L290.039 80.9111C290.096 80.9183 290.186 80.9255 290.308 80.9326C290.437 80.9469 290.526 80.9541 290.576 80.9541C291.027 80.9541 291.41 80.8932 291.726 80.7715C292.041 80.6569 292.306 80.46 292.521 80.1807C292.743 79.9085 292.932 79.5326 293.09 79.0527L293.917 76.7969ZM291.543 66.377L294.562 75.4004L295.077 77.4951L293.648 78.2256L289.373 66.377H291.543ZM308.956 71.415V73.0264H302.812V71.415H308.956ZM303.23 66.377V78H301.243V66.377H303.23ZM310.567 66.377V78H308.569V66.377H310.567ZM320.622 76.0127V70.0293C320.622 69.571 320.529 69.1735 320.343 68.8369C320.164 68.4932 319.892 68.2282 319.526 68.042C319.161 67.8558 318.71 67.7627 318.173 67.7627C317.672 67.7627 317.231 67.8486 316.852 68.0205C316.479 68.1924 316.186 68.418 315.971 68.6973C315.763 68.9766 315.659 69.2773 315.659 69.5996H313.672C313.672 69.1842 313.779 68.7725 313.994 68.3643C314.209 67.9561 314.517 67.5872 314.918 67.2578C315.326 66.9212 315.813 66.6562 316.379 66.4629C316.952 66.2624 317.589 66.1621 318.291 66.1621C319.136 66.1621 319.881 66.3053 320.525 66.5918C321.177 66.8783 321.686 67.3115 322.051 67.8916C322.423 68.4645 322.609 69.1842 322.609 70.0508V75.4648C322.609 75.8516 322.642 76.2633 322.706 76.7002C322.778 77.137 322.882 77.513 323.018 77.8281V78H320.944C320.844 77.7708 320.765 77.4665 320.708 77.0869C320.651 76.7002 320.622 76.3421 320.622 76.0127ZM320.966 70.9531L320.987 72.3496H318.979C318.413 72.3496 317.908 72.3962 317.464 72.4893C317.02 72.5752 316.647 72.7077 316.347 72.8867C316.046 73.0658 315.817 73.2913 315.659 73.5635C315.502 73.8285 315.423 74.14 315.423 74.498C315.423 74.8633 315.505 75.1963 315.67 75.4971C315.835 75.7979 316.082 76.0378 316.411 76.2168C316.748 76.3887 317.16 76.4746 317.646 76.4746C318.255 76.4746 318.792 76.3457 319.258 76.0879C319.723 75.8301 320.092 75.515 320.364 75.1426C320.644 74.7702 320.794 74.4085 320.815 74.0576L321.664 75.0137C321.614 75.3145 321.478 75.6475 321.256 76.0127C321.034 76.3779 320.737 76.7288 320.364 77.0654C319.999 77.3949 319.562 77.6706 319.054 77.8926C318.552 78.1074 317.987 78.2148 317.356 78.2148C316.569 78.2148 315.878 78.0609 315.283 77.7529C314.696 77.445 314.238 77.0332 313.908 76.5176C313.586 75.9948 313.425 75.4111 313.425 74.7666C313.425 74.1436 313.547 73.5957 313.79 73.123C314.034 72.6432 314.384 72.2458 314.843 71.9307C315.301 71.6084 315.853 71.3649 316.497 71.2002C317.142 71.0355 317.861 70.9531 318.656 70.9531H320.966ZM327.723 68.6113V82.4688H325.725V66.377H327.551L327.723 68.6113ZM335.554 72.0918V72.3174C335.554 73.1624 335.453 73.9466 335.253 74.6699C335.052 75.3861 334.759 76.0091 334.372 76.5391C333.993 77.069 333.523 77.4808 332.965 77.7744C332.406 78.068 331.765 78.2148 331.042 78.2148C330.304 78.2148 329.653 78.0931 329.087 77.8496C328.521 77.6061 328.041 77.2516 327.647 76.7861C327.254 76.3206 326.938 75.762 326.702 75.1104C326.473 74.4587 326.315 73.7246 326.229 72.9082V71.7051C326.315 70.8457 326.477 70.0758 326.713 69.3955C326.949 68.7152 327.261 68.1351 327.647 67.6553C328.041 67.1683 328.518 66.7995 329.076 66.5488C329.635 66.291 330.279 66.1621 331.01 66.1621C331.74 66.1621 332.388 66.3053 332.954 66.5918C333.52 66.8711 333.996 67.2721 334.383 67.7949C334.77 68.3177 335.06 68.9443 335.253 69.6748C335.453 70.3981 335.554 71.2038 335.554 72.0918ZM333.556 72.3174V72.0918C333.556 71.5117 333.495 70.9674 333.373 70.459C333.251 69.9434 333.062 69.4922 332.804 69.1055C332.553 68.7116 332.231 68.4036 331.837 68.1816C331.443 67.9525 330.974 67.8379 330.43 67.8379C329.928 67.8379 329.492 67.9238 329.119 68.0957C328.754 68.2676 328.442 68.5003 328.185 68.7939C327.927 69.0804 327.715 69.4098 327.551 69.7822C327.393 70.1475 327.275 70.527 327.196 70.9209V73.7031C327.34 74.2044 327.54 74.6771 327.798 75.1211C328.056 75.5579 328.399 75.9124 328.829 76.1846C329.259 76.4495 329.799 76.582 330.451 76.582C330.988 76.582 331.45 76.471 331.837 76.249C332.231 76.0199 332.553 75.7083 332.804 75.3145C333.062 74.9206 333.251 74.4694 333.373 73.9609C333.495 73.4453 333.556 72.8975 333.556 72.3174ZM337.562 72.3174V72.0703C337.562 71.2324 337.684 70.4554 337.928 69.7393C338.171 69.016 338.522 68.3893 338.98 67.8594C339.439 67.3223 339.994 66.9069 340.646 66.6133C341.297 66.3125 342.028 66.1621 342.837 66.1621C343.653 66.1621 344.387 66.3125 345.039 66.6133C345.698 66.9069 346.257 67.3223 346.715 67.8594C347.18 68.3893 347.535 69.016 347.778 69.7393C348.022 70.4554 348.144 71.2324 348.144 72.0703V72.3174C348.144 73.1553 348.022 73.9323 347.778 74.6484C347.535 75.3646 347.18 75.9912 346.715 76.5283C346.257 77.0583 345.701 77.4736 345.05 77.7744C344.405 78.068 343.675 78.2148 342.858 78.2148C342.042 78.2148 341.308 78.068 340.656 77.7744C340.005 77.4736 339.446 77.0583 338.98 76.5283C338.522 75.9912 338.171 75.3646 337.928 74.6484C337.684 73.9323 337.562 73.1553 337.562 72.3174ZM339.55 72.0703V72.3174C339.55 72.8975 339.618 73.4453 339.754 73.9609C339.89 74.4694 340.094 74.9206 340.366 75.3145C340.646 75.7083 340.993 76.0199 341.408 76.249C341.824 76.471 342.307 76.582 342.858 76.582C343.403 76.582 343.879 76.471 344.287 76.249C344.702 76.0199 345.046 75.7083 345.318 75.3145C345.59 74.9206 345.795 74.4694 345.931 73.9609C346.074 73.4453 346.146 72.8975 346.146 72.3174V72.0703C346.146 71.4974 346.074 70.9567 345.931 70.4482C345.795 69.9326 345.587 69.4779 345.308 69.084C345.035 68.6829 344.692 68.3678 344.276 68.1387C343.868 67.9095 343.388 67.7949 342.837 67.7949C342.293 67.7949 341.813 67.9095 341.397 68.1387C340.989 68.3678 340.646 68.6829 340.366 69.084C340.094 69.4779 339.89 69.9326 339.754 70.4482C339.618 70.9567 339.55 71.4974 339.55 72.0703ZM351.957 66.377H353.944L353.772 70.7275C353.729 71.8304 353.604 72.7829 353.396 73.585C353.189 74.387 352.924 75.071 352.602 75.6367C352.279 76.1953 351.918 76.6644 351.517 77.0439C351.123 77.4235 350.715 77.7422 350.292 78H349.304L349.357 76.3779L349.766 76.3672C350.002 76.0879 350.231 75.8014 350.453 75.5078C350.675 75.207 350.879 74.8525 351.065 74.4443C351.252 74.029 351.406 73.5241 351.527 72.9297C351.656 72.3281 351.739 71.5941 351.774 70.7275L351.957 66.377ZM352.451 66.377H359.444V78H357.457V68.2139H352.451V66.377ZM348.853 76.3672H360.938V81.4268H358.95V78H350.84V81.4268H348.842L348.853 76.3672ZM371.024 71.415V73.0264H364.88V71.415H371.024ZM365.299 66.377V78H363.312V66.377H365.299ZM372.636 66.377V78H370.638V66.377H372.636ZM379.103 76.7969L382.336 66.377H384.463L379.801 79.7939C379.693 80.0804 379.55 80.3883 379.371 80.7178C379.199 81.0544 378.977 81.373 378.705 81.6738C378.433 81.9746 378.104 82.2181 377.717 82.4043C377.337 82.5977 376.882 82.6943 376.353 82.6943C376.195 82.6943 375.994 82.6729 375.751 82.6299C375.507 82.5869 375.336 82.5511 375.235 82.5225L375.225 80.9111C375.282 80.9183 375.371 80.9255 375.493 80.9326C375.622 80.9469 375.712 80.9541 375.762 80.9541C376.213 80.9541 376.596 80.8932 376.911 80.7715C377.226 80.6569 377.491 80.46 377.706 80.1807C377.928 79.9085 378.118 79.5326 378.275 79.0527L379.103 76.7969ZM376.729 66.377L379.747 75.4004L380.263 77.4951L378.834 78.2256L374.559 66.377H376.729ZM392.874 71.3076V72.9297H386.697V71.3076H392.874ZM388.427 66.377V78H386.439V66.377H388.427ZM391.177 72.3174V72.0703C391.177 71.2324 391.299 70.4554 391.542 69.7393C391.785 69.016 392.136 68.3893 392.595 67.8594C393.06 67.3223 393.615 66.9069 394.26 66.6133C394.911 66.3125 395.642 66.1621 396.451 66.1621C397.275 66.1621 398.012 66.3125 398.664 66.6133C399.316 66.9069 399.871 67.3223 400.329 67.8594C400.795 68.3893 401.149 69.016 401.393 69.7393C401.636 70.4554 401.758 71.2324 401.758 72.0703V72.3174C401.758 73.1553 401.636 73.9323 401.393 74.6484C401.149 75.3646 400.798 75.9912 400.34 76.5283C399.882 77.0583 399.326 77.4736 398.675 77.7744C398.023 78.068 397.289 78.2148 396.473 78.2148C395.656 78.2148 394.922 78.068 394.271 77.7744C393.619 77.4736 393.06 77.0583 392.595 76.5283C392.136 75.9912 391.785 75.3646 391.542 74.6484C391.299 73.9323 391.177 73.1553 391.177 72.3174ZM393.175 72.0703V72.3174C393.175 72.8975 393.243 73.4453 393.379 73.9609C393.515 74.4694 393.719 74.9206 393.991 75.3145C394.271 75.7083 394.614 76.0199 395.022 76.249C395.438 76.471 395.921 76.582 396.473 76.582C397.024 76.582 397.504 76.471 397.912 76.249C398.327 76.0199 398.671 75.7083 398.943 75.3145C399.215 74.9206 399.42 74.4694 399.556 73.9609C399.699 73.4453 399.771 72.8975 399.771 72.3174V72.0703C399.771 71.4974 399.699 70.9567 399.556 70.4482C399.42 69.9326 399.212 69.4779 398.933 69.084C398.66 68.6829 398.317 68.3678 397.901 68.1387C397.486 67.9095 397.003 67.7949 396.451 67.7949C395.907 67.7949 395.431 67.9095 395.022 68.1387C394.614 68.3678 394.271 68.6829 393.991 69.084C393.719 69.4779 393.515 69.9326 393.379 70.4482C393.243 70.9567 393.175 71.4974 393.175 72.0703ZM413.746 67.7949C413.309 67.7949 412.89 67.8916 412.489 68.085C412.095 68.2783 411.77 68.5469 411.512 68.8906C411.261 69.2272 411.136 69.6175 411.136 70.0615H409.234C409.234 69.3669 409.449 68.7259 409.879 68.1387C410.309 67.5443 410.867 67.068 411.555 66.71C412.242 66.3447 412.973 66.1621 413.746 66.1621C414.562 66.1621 415.286 66.3161 415.916 66.624C416.546 66.932 417.076 67.3545 417.506 67.8916C417.943 68.4287 418.272 69.0482 418.494 69.75C418.716 70.4447 418.827 71.1823 418.827 71.9629V72.4141C418.827 73.1947 418.713 73.9359 418.483 74.6377C418.261 75.3324 417.932 75.9518 417.495 76.4961C417.065 77.0332 416.535 77.4557 415.905 77.7637C415.282 78.0716 414.566 78.2256 413.757 78.2256C412.89 78.2256 412.113 78.0394 411.426 77.667C410.745 77.2946 410.208 76.7933 409.814 76.1631C409.428 75.5257 409.234 74.8096 409.234 74.0146H411.136C411.136 74.4945 411.25 74.9313 411.479 75.3252C411.716 75.7119 412.031 76.0199 412.425 76.249C412.819 76.4782 413.263 76.5928 413.757 76.5928C414.294 76.5928 414.756 76.471 415.143 76.2275C415.536 75.984 415.859 75.6618 416.109 75.2607C416.36 74.8597 416.543 74.4121 416.657 73.918C416.779 73.4167 416.84 72.9154 416.84 72.4141V71.9629C416.84 71.4544 416.779 70.9531 416.657 70.459C416.543 69.9648 416.36 69.5173 416.109 69.1162C415.866 68.7152 415.547 68.3965 415.153 68.1602C414.767 67.9167 414.298 67.7949 413.746 67.7949ZM417.807 71.2646V72.8867H412.446V71.2646H417.807ZM423.672 66.377V78H421.685V66.377H423.672ZM431.299 66.377L425.788 73.0371H423.006L422.705 71.2969H424.982L428.882 66.377H431.299ZM429.161 78L424.886 72.7363L426.164 71.2969L431.686 78H429.161ZM437.895 76.582C438.367 76.582 438.804 76.4854 439.205 76.292C439.606 76.0986 439.936 75.8337 440.193 75.4971C440.451 75.1533 440.598 74.763 440.634 74.3262H442.524C442.489 75.0137 442.256 75.6546 441.826 76.249C441.404 76.8363 440.849 77.3125 440.161 77.6777C439.474 78.0358 438.718 78.2148 437.895 78.2148C437.021 78.2148 436.258 78.0609 435.606 77.7529C434.962 77.445 434.425 77.0225 433.995 76.4854C433.573 75.9482 433.254 75.3324 433.039 74.6377C432.831 73.9359 432.728 73.1947 432.728 72.4141V71.9629C432.728 71.1823 432.831 70.4447 433.039 69.75C433.254 69.0482 433.573 68.4287 433.995 67.8916C434.425 67.3545 434.962 66.932 435.606 66.624C436.258 66.3161 437.021 66.1621 437.895 66.1621C438.804 66.1621 439.599 66.3483 440.279 66.7207C440.96 67.0859 441.493 67.5872 441.88 68.2246C442.274 68.8548 442.489 69.571 442.524 70.373H440.634C440.598 69.8932 440.462 69.46 440.226 69.0732C439.996 68.6865 439.681 68.3786 439.28 68.1494C438.886 67.9131 438.424 67.7949 437.895 67.7949C437.286 67.7949 436.774 67.9167 436.358 68.1602C435.95 68.3965 435.624 68.7188 435.381 69.127C435.145 69.528 434.973 69.9756 434.865 70.4697C434.765 70.9567 434.715 71.4544 434.715 71.9629V72.4141C434.715 72.9225 434.765 73.4238 434.865 73.918C434.965 74.4121 435.134 74.8597 435.37 75.2607C435.614 75.6618 435.939 75.984 436.348 76.2275C436.763 76.4639 437.279 76.582 437.895 76.582ZM452.504 66.377V68.0205H446.628V66.377H452.504ZM446.918 66.377V78H444.931V66.377H446.918ZM454.266 66.377V78H452.268V66.377H454.266ZM464.31 76.0127V70.0293C464.31 69.571 464.216 69.1735 464.03 68.8369C463.851 68.4932 463.579 68.2282 463.214 68.042C462.849 67.8558 462.397 67.7627 461.86 67.7627C461.359 67.7627 460.919 67.8486 460.539 68.0205C460.167 68.1924 459.873 68.418 459.658 68.6973C459.451 68.9766 459.347 69.2773 459.347 69.5996H457.359C457.359 69.1842 457.467 68.7725 457.682 68.3643C457.896 67.9561 458.204 67.5872 458.605 67.2578C459.014 66.9212 459.501 66.6562 460.066 66.4629C460.639 66.2624 461.277 66.1621 461.979 66.1621C462.824 66.1621 463.568 66.3053 464.213 66.5918C464.865 66.8783 465.373 67.3115 465.738 67.8916C466.111 68.4645 466.297 69.1842 466.297 70.0508V75.4648C466.297 75.8516 466.329 76.2633 466.394 76.7002C466.465 77.137 466.569 77.513 466.705 77.8281V78H464.632C464.532 77.7708 464.453 77.4665 464.396 77.0869C464.338 76.7002 464.31 76.3421 464.31 76.0127ZM464.653 70.9531L464.675 72.3496H462.666C462.1 72.3496 461.595 72.3962 461.151 72.4893C460.707 72.5752 460.335 72.7077 460.034 72.8867C459.733 73.0658 459.504 73.2913 459.347 73.5635C459.189 73.8285 459.11 74.14 459.11 74.498C459.11 74.8633 459.193 75.1963 459.357 75.4971C459.522 75.7979 459.769 76.0378 460.099 76.2168C460.435 76.3887 460.847 76.4746 461.334 76.4746C461.943 76.4746 462.48 76.3457 462.945 76.0879C463.411 75.8301 463.78 75.515 464.052 75.1426C464.331 74.7702 464.481 74.4085 464.503 74.0576L465.352 75.0137C465.301 75.3145 465.165 75.6475 464.943 76.0127C464.721 76.3779 464.424 76.7288 464.052 77.0654C463.687 77.3949 463.25 77.6706 462.741 77.8926C462.24 78.1074 461.674 78.2148 461.044 78.2148C460.256 78.2148 459.565 78.0609 458.971 77.7529C458.383 77.445 457.925 77.0332 457.596 76.5176C457.273 75.9948 457.112 75.4111 457.112 74.7666C457.112 74.1436 457.234 73.5957 457.478 73.123C457.721 72.6432 458.072 72.2458 458.53 71.9307C458.989 71.6084 459.54 71.3649 460.185 71.2002C460.829 71.0355 461.549 70.9531 462.344 70.9531H464.653ZM477.308 71.415V73.0264H471.163V71.415H477.308ZM471.582 66.377V78H469.595V66.377H471.582ZM478.919 66.377V78H476.921V66.377H478.919ZM486.771 76.582C487.244 76.582 487.681 76.4854 488.082 76.292C488.483 76.0986 488.812 75.8337 489.07 75.4971C489.328 75.1533 489.475 74.763 489.511 74.3262H491.401C491.366 75.0137 491.133 75.6546 490.703 76.249C490.281 76.8363 489.726 77.3125 489.038 77.6777C488.351 78.0358 487.595 78.2148 486.771 78.2148C485.898 78.2148 485.135 78.0609 484.483 77.7529C483.839 77.445 483.302 77.0225 482.872 76.4854C482.45 75.9482 482.131 75.3324 481.916 74.6377C481.708 73.9359 481.604 73.1947 481.604 72.4141V71.9629C481.604 71.1823 481.708 70.4447 481.916 69.75C482.131 69.0482 482.45 68.4287 482.872 67.8916C483.302 67.3545 483.839 66.932 484.483 66.624C485.135 66.3161 485.898 66.1621 486.771 66.1621C487.681 66.1621 488.476 66.3483 489.156 66.7207C489.837 67.0859 490.37 67.5872 490.757 68.2246C491.151 68.8548 491.366 69.571 491.401 70.373H489.511C489.475 69.8932 489.339 69.46 489.103 69.0732C488.873 68.6865 488.558 68.3786 488.157 68.1494C487.763 67.9131 487.301 67.7949 486.771 67.7949C486.163 67.7949 485.651 67.9167 485.235 68.1602C484.827 68.3965 484.501 68.7188 484.258 69.127C484.021 69.528 483.85 69.9756 483.742 70.4697C483.642 70.9567 483.592 71.4544 483.592 71.9629V72.4141C483.592 72.9225 483.642 73.4238 483.742 73.918C483.842 74.4121 484.011 74.8597 484.247 75.2607C484.491 75.6618 484.816 75.984 485.225 76.2275C485.64 76.4639 486.156 76.582 486.771 76.582ZM495.784 74.8525L501.145 66.377H503.143V78H501.145V69.5244L495.784 78H493.808V66.377H495.784V74.8525ZM512.95 71.3076V72.9297H506.773V71.3076H512.95ZM508.503 66.377V78H506.516V66.377H508.503ZM511.253 72.3174V72.0703C511.253 71.2324 511.375 70.4554 511.618 69.7393C511.862 69.016 512.213 68.3893 512.671 67.8594C513.136 67.3223 513.691 66.9069 514.336 66.6133C514.988 66.3125 515.718 66.1621 516.527 66.1621C517.351 66.1621 518.089 66.3125 518.74 66.6133C519.392 66.9069 519.947 67.3223 520.405 67.8594C520.871 68.3893 521.225 69.016 521.469 69.7393C521.712 70.4554 521.834 71.2324 521.834 72.0703V72.3174C521.834 73.1553 521.712 73.9323 521.469 74.6484C521.225 75.3646 520.874 75.9912 520.416 76.5283C519.958 77.0583 519.403 77.4736 518.751 77.7744C518.099 78.068 517.365 78.2148 516.549 78.2148C515.732 78.2148 514.998 78.068 514.347 77.7744C513.695 77.4736 513.136 77.0583 512.671 76.5283C512.213 75.9912 511.862 75.3646 511.618 74.6484C511.375 73.9323 511.253 73.1553 511.253 72.3174ZM513.251 72.0703V72.3174C513.251 72.8975 513.319 73.4453 513.455 73.9609C513.591 74.4694 513.795 74.9206 514.067 75.3145C514.347 75.7083 514.69 76.0199 515.099 76.249C515.514 76.471 515.997 76.582 516.549 76.582C517.1 76.582 517.58 76.471 517.988 76.249C518.404 76.0199 518.747 75.7083 519.02 75.3145C519.292 74.9206 519.496 74.4694 519.632 73.9609C519.775 73.4453 519.847 72.8975 519.847 72.3174V72.0703C519.847 71.4974 519.775 70.9567 519.632 70.4482C519.496 69.9326 519.288 69.4779 519.009 69.084C518.737 68.6829 518.393 68.3678 517.978 68.1387C517.562 67.9095 517.079 67.7949 516.527 67.7949C515.983 67.7949 515.507 67.9095 515.099 68.1387C514.69 68.3678 514.347 68.6829 514.067 69.084C513.795 69.4779 513.591 69.9326 513.455 70.4482C513.319 70.9567 513.251 71.4974 513.251 72.0703Z" fill="black"/>
<defs>
<filter id="filter0_d_822_2146" x="0.0517578" y="5.08594" width="106.19" height="106.163" filterUnits="userSpaceOnUse" color-interpolation-filters="sRGB">
<feFlood flood-opacity="0" result="BackgroundImageFix"/>
<feColorMatrix in="SourceAlpha" type="matrix" values="0 0 0 0 0 0 0 0 0 0 0 0 0 0 0 0 0 0 127 0" result="hardAlpha"/>
<feOffset/>
<feGaussianBlur stdDeviation="12"/>
<feComposite in2="hardAlpha" operator="out"/>
<feColorMatrix type="matrix" values="0 0 0 0 0.579167 0 0 0 0 0.579167 0 0 0 0 0.579167 0 0 0 0.3 0"/>
<feBlend mode="normal" in2="BackgroundImageFix" result="effect1_dropShadow_822_2146"/>
<feBlend mode="normal" in="SourceGraphic" in2="effect1_dropShadow_822_2146" result="shape"/>
</filter>
</defs>
</svg>
