<svg width="655" height="116" viewBox="0 0 655 116" fill="none" xmlns="http://www.w3.org/2000/svg">
<path d="M654.819 57.9096C654.819 25.927 628.892 0.0122581 596.91 0.0274026C564.927 0.0425471 539 25.9818 539 57.9645C539 89.9471 564.927 115.862 596.91 115.847C628.892 115.832 654.819 89.8923 654.819 57.9096Z" fill="#00A3FF"/>
<path d="M591.418 71.5918C592.785 72.8027 594.406 73.4082 596.281 73.4082C598.176 73.4082 599.797 72.8027 601.145 71.5918C602.512 70.3613 603.195 68.9648 603.195 67.4023C603.195 65.8398 602.512 64.4531 601.145 63.2422C599.797 62.0117 598.176 61.3965 596.281 61.3965C594.406 61.3965 592.785 62.0117 591.418 63.2422C590.07 64.4531 589.396 65.8398 589.396 67.4023C589.396 68.9648 590.07 70.3613 591.418 71.5918ZM592.385 52.8125C593.4 53.7305 594.709 54.1895 596.311 54.1895C597.912 54.1895 599.211 53.7305 600.207 52.8125C601.203 51.8945 601.701 50.7617 601.701 49.4141C601.701 48.0469 601.203 46.9043 600.207 45.9863C599.211 45.0684 597.912 44.6094 596.311 44.6094C594.709 44.6094 593.4 45.0684 592.385 45.9863C591.389 46.9043 590.891 48.0469 590.891 49.4141C590.891 50.7617 591.389 51.8945 592.385 52.8125ZM607.238 76.9238C604.348 79.5801 600.695 80.9082 596.281 80.9082C591.887 80.9082 588.234 79.5801 585.324 76.9238C582.434 74.248 580.988 71.0742 580.988 67.4023C580.988 66.1133 581.203 64.8828 581.633 63.7109C582.082 62.5391 582.609 61.5723 583.215 60.8105C583.82 60.0488 584.426 59.3848 585.031 58.8184C585.656 58.252 586.193 57.832 586.643 57.5586L587.287 57.207C587.17 57.1289 587.004 57.0215 586.789 56.8848C586.574 56.7285 586.184 56.3965 585.617 55.8887C585.051 55.3613 584.553 54.8047 584.123 54.2188C583.713 53.6133 583.342 52.832 583.01 51.875C582.678 50.8984 582.512 49.873 582.512 48.7988C582.512 45.6738 583.83 42.9492 586.467 40.625C589.104 38.2812 592.375 37.1094 596.281 37.1094C600.207 37.1094 603.488 38.2812 606.125 40.625C608.781 42.9492 610.109 45.6738 610.109 48.7988C610.109 50.4785 609.709 52.0215 608.908 53.4277C608.107 54.8145 607.307 55.791 606.506 56.3574L605.305 57.207C605.461 57.2852 605.676 57.4121 605.949 57.5879C606.242 57.7637 606.75 58.1641 607.473 58.7891C608.215 59.4141 608.859 60.0977 609.406 60.8398C609.953 61.582 610.451 62.5391 610.9 63.7109C611.369 64.8828 611.604 66.1133 611.604 67.4023C611.604 71.0742 610.148 74.248 607.238 76.9238Z" fill="white"/>
<path d="M175.294 58.0002L57.2939 58.0002" stroke="#00A3FF" stroke-miterlimit="10" stroke-linecap="round"/>
<g filter="url(#filter0_d_822_2143)">
<path d="M32.5734 78.7318C21.2109 67.3747 21.2109 48.9612 32.5733 37.6041C43.9358 26.247 62.358 26.2471 73.7204 37.6042C85.0829 48.9612 85.0829 67.3747 73.7204 78.7318C62.358 90.0889 43.9358 90.0889 32.5734 78.7318Z" fill="white"/>
</g>
<path d="M44.0532 58.1649C44.0479 59.8876 44.5531 61.5732 45.505 63.0093C46.457 64.4453 47.8131 65.5674 49.4023 66.234C50.9915 66.9007 52.7426 67.082 54.4347 66.7551C56.1269 66.4282 57.6843 65.6078 58.9106 64.3973C60.1368 63.1868 60.977 61.6405 61.3251 59.9533C61.6731 58.2662 61.5136 56.5137 60.8665 54.9171C60.2194 53.3205 59.1137 51.9511 57.689 50.9818C56.2643 50.0125 54.5843 49.4866 52.8609 49.4704C51.7094 49.456 50.5665 49.6702 49.4985 50.1007C48.4306 50.5312 47.4587 51.1693 46.6394 51.9781C45.8201 52.7869 45.1695 53.7503 44.7256 54.8123C44.2816 55.8743 44.0531 57.0139 44.0532 58.1649Z" fill="#00A3FF"/>
<path d="M52.7516 61.5717C50.8692 61.5717 49.3431 60.0464 49.3431 58.1648C49.3431 56.2832 50.8692 54.7578 52.7516 54.7578C54.6341 54.7578 56.1602 56.2832 56.1602 58.1648C56.1602 60.0464 54.6341 61.5717 52.7516 61.5717Z" fill="white"/>
<path d="M172.842 58.1647C172.837 59.8909 173.344 61.5798 174.299 63.0177C175.255 64.4555 176.616 65.5777 178.21 66.242C179.804 66.9063 181.559 67.0829 183.254 66.7495C184.948 66.416 186.505 65.5875 187.729 64.3688C188.952 63.1502 189.785 61.5962 190.124 59.9036C190.463 58.211 190.292 56.4559 189.632 54.8606C188.973 53.2653 187.854 51.9016 186.419 50.942C184.983 49.9824 183.295 49.4702 181.568 49.4702C179.259 49.4702 177.043 50.3854 175.408 52.0151C173.772 53.6449 172.849 55.8563 172.842 58.1647Z" fill="#00A3FF"/>
<path d="M181.541 61.5717C179.658 61.5717 178.132 60.0464 178.132 58.1648C178.132 56.2832 179.658 54.7578 181.541 54.7578C183.423 54.7578 184.949 56.2832 184.949 58.1648C184.949 60.0464 183.423 61.5717 181.541 61.5717Z" fill="white"/>
<path d="M233.471 27.3596H235.479L240.604 40.1106L245.717 27.3596H247.736L241.377 43.0002H239.809L233.471 27.3596ZM232.815 27.3596H234.588L234.878 36.8987V43.0002H232.815V27.3596ZM246.608 27.3596H248.381V43.0002H246.318V36.8987L246.608 27.3596ZM258.575 41.0129V35.0295C258.575 34.5712 258.482 34.1737 258.296 33.8372C258.117 33.4934 257.845 33.2284 257.479 33.0422C257.114 32.856 256.663 32.7629 256.126 32.7629C255.625 32.7629 255.184 32.8489 254.805 33.0208C254.432 33.1926 254.139 33.4182 253.924 33.6975C253.716 33.9768 253.612 34.2776 253.612 34.5999H251.625C251.625 34.1845 251.732 33.7727 251.947 33.3645C252.162 32.9563 252.47 32.5875 252.871 32.2581C253.279 31.9215 253.766 31.6565 254.332 31.4631C254.905 31.2626 255.542 31.1624 256.244 31.1624C257.089 31.1624 257.834 31.3056 258.479 31.592C259.13 31.8785 259.639 32.3118 260.004 32.8918C260.376 33.4648 260.562 34.1845 260.562 35.051V40.4651C260.562 40.8518 260.595 41.2636 260.659 41.7004C260.731 42.1373 260.835 42.5133 260.971 42.8284V43.0002H258.897C258.797 42.7711 258.718 42.4667 258.661 42.0872C258.604 41.7004 258.575 41.3424 258.575 41.0129ZM258.919 35.9534L258.94 37.3499H256.932C256.366 37.3499 255.861 37.3964 255.417 37.4895C254.973 37.5754 254.601 37.7079 254.3 37.887C253.999 38.066 253.77 38.2916 253.612 38.5637C253.455 38.8287 253.376 39.1402 253.376 39.4983C253.376 39.8635 253.458 40.1965 253.623 40.4973C253.788 40.7981 254.035 41.038 254.364 41.217C254.701 41.3889 255.113 41.4749 255.6 41.4749C256.208 41.4749 256.745 41.3459 257.211 41.0881C257.676 40.8303 258.045 40.5152 258.317 40.1428C258.597 39.7704 258.747 39.4088 258.769 39.0579L259.617 40.0139C259.567 40.3147 259.431 40.6477 259.209 41.0129C258.987 41.3782 258.69 41.7291 258.317 42.0657C257.952 42.3951 257.515 42.6708 257.007 42.8928C256.506 43.1077 255.94 43.2151 255.31 43.2151C254.522 43.2151 253.831 43.0611 253.236 42.7532C252.649 42.4452 252.191 42.0334 251.861 41.5178C251.539 40.995 251.378 40.4114 251.378 39.7668C251.378 39.1438 251.5 38.5959 251.743 38.1233C251.987 37.6435 252.338 37.246 252.796 36.9309C253.254 36.6086 253.806 36.3652 254.45 36.2004C255.095 36.0357 255.814 35.9534 256.609 35.9534H258.919ZM265.676 33.6116V47.469H263.678V31.3772H265.504L265.676 33.6116ZM273.507 37.092V37.3176C273.507 38.1627 273.407 38.9469 273.206 39.6702C273.006 40.3863 272.712 41.0094 272.325 41.5393C271.946 42.0693 271.477 42.481 270.918 42.7747C270.359 43.0683 269.718 43.2151 268.995 43.2151C268.257 43.2151 267.606 43.0933 267.04 42.8499C266.474 42.6064 265.994 42.2519 265.601 41.7864C265.207 41.3209 264.892 40.7623 264.655 40.1106C264.426 39.4589 264.269 38.7249 264.183 37.9084V36.7053C264.269 35.8459 264.43 35.0761 264.666 34.3958C264.902 33.7154 265.214 33.1353 265.601 32.6555C265.994 32.1685 266.471 31.7997 267.029 31.5491C267.588 31.2913 268.232 31.1624 268.963 31.1624C269.693 31.1624 270.341 31.3056 270.907 31.592C271.473 31.8713 271.949 32.2724 272.336 32.7952C272.723 33.318 273.013 33.9446 273.206 34.675C273.407 35.3984 273.507 36.204 273.507 37.092ZM271.509 37.3176V37.092C271.509 36.512 271.448 35.9677 271.326 35.4592C271.204 34.9436 271.015 34.4924 270.757 34.1057C270.506 33.7118 270.184 33.4039 269.79 33.1819C269.396 32.9527 268.927 32.8381 268.383 32.8381C267.882 32.8381 267.445 32.9241 267.072 33.0959C266.707 33.2678 266.396 33.5006 266.138 33.7942C265.88 34.0806 265.669 34.4101 265.504 34.7825C265.346 35.1477 265.228 35.5273 265.149 35.9211V38.7034C265.293 39.2047 265.493 39.6773 265.751 40.1213C266.009 40.5582 266.353 40.9127 266.782 41.1848C267.212 41.4498 267.753 41.5823 268.404 41.5823C268.941 41.5823 269.403 41.4713 269.79 41.2493C270.184 41.0201 270.506 40.7086 270.757 40.3147C271.015 39.9208 271.204 39.4696 271.326 38.9612C271.448 38.4456 271.509 37.8977 271.509 37.3176ZM278.201 31.3772V43.0002H276.214V31.3772H278.201ZM285.828 31.3772L280.317 38.0374H277.535L277.234 36.2971H279.512L283.411 31.3772H285.828ZM283.69 43.0002L279.415 37.7366L280.693 36.2971L286.215 43.0002H283.69ZM292.596 43.2151C291.786 43.2151 291.052 43.079 290.394 42.8069C289.742 42.5276 289.18 42.1373 288.707 41.636C288.242 41.1347 287.883 40.5403 287.633 39.8528C287.382 39.1653 287.257 38.4133 287.257 37.5969V37.1458C287.257 36.2004 287.396 35.359 287.676 34.6213C287.955 33.8765 288.335 33.2463 288.814 32.7307C289.294 32.2151 289.839 31.8248 290.447 31.5598C291.056 31.2948 291.686 31.1624 292.338 31.1624C293.169 31.1624 293.885 31.3056 294.486 31.592C295.095 31.8785 295.593 32.2795 295.979 32.7952C296.366 33.3036 296.653 33.9052 296.839 34.5999C297.025 35.2874 297.118 36.0393 297.118 36.8557V37.7473H288.438V36.1252H295.131V35.9749C295.102 35.4592 294.995 34.9579 294.809 34.4709C294.63 33.984 294.343 33.5829 293.949 33.2678C293.555 32.9527 293.018 32.7952 292.338 32.7952C291.887 32.7952 291.471 32.8918 291.092 33.0852C290.712 33.2714 290.386 33.5507 290.114 33.9231C289.842 34.2955 289.631 34.7502 289.48 35.2874C289.33 35.8245 289.255 36.4439 289.255 37.1458V37.5969C289.255 38.1484 289.33 38.6676 289.48 39.1545C289.638 39.6344 289.864 40.0569 290.157 40.4221C290.458 40.7874 290.82 41.0738 291.242 41.2815C291.672 41.4892 292.159 41.593 292.703 41.593C293.405 41.593 293.999 41.4498 294.486 41.1633C294.973 40.8769 295.399 40.4937 295.765 40.0139L296.968 40.97C296.717 41.3495 296.398 41.7112 296.012 42.0549C295.625 42.3987 295.149 42.678 294.583 42.8928C294.024 43.1077 293.362 43.2151 292.596 43.2151ZM304.047 31.3772V43.0002H302.049V31.3772H304.047ZM307.946 31.3772V32.9885H298.225V31.3772H307.946ZM312.05 39.8528L317.41 31.3772H319.408V43.0002H317.41V34.5247L312.05 43.0002H310.073V31.3772H312.05V39.8528ZM330.483 36.4153V38.0266H324.339V36.4153H330.483ZM324.758 31.3772V43.0002H322.771V31.3772H324.758ZM332.095 31.3772V43.0002H330.097V31.3772H332.095ZM342.805 31.3772V33.0208H337.434V43.0002H335.446V31.3772H342.805ZM343.793 37.3176V37.0706C343.793 36.2327 343.915 35.4556 344.158 34.7395C344.402 34.0162 344.753 33.3896 345.211 32.8596C345.669 32.3225 346.224 31.9071 346.876 31.6135C347.528 31.3127 348.258 31.1624 349.067 31.1624C349.884 31.1624 350.618 31.3127 351.27 31.6135C351.928 31.9071 352.487 32.3225 352.945 32.8596C353.411 33.3896 353.765 34.0162 354.009 34.7395C354.252 35.4556 354.374 36.2327 354.374 37.0706V37.3176C354.374 38.1555 354.252 38.9325 354.009 39.6487C353.765 40.3648 353.411 40.9915 352.945 41.5286C352.487 42.0585 351.932 42.4739 351.28 42.7747C350.636 43.0683 349.905 43.2151 349.089 43.2151C348.272 43.2151 347.538 43.0683 346.887 42.7747C346.235 42.4739 345.676 42.0585 345.211 41.5286C344.753 40.9915 344.402 40.3648 344.158 39.6487C343.915 38.9325 343.793 38.1555 343.793 37.3176ZM345.78 37.0706V37.3176C345.78 37.8977 345.848 38.4456 345.984 38.9612C346.12 39.4696 346.325 39.9208 346.597 40.3147C346.876 40.7086 347.223 41.0201 347.639 41.2493C348.054 41.4713 348.537 41.5823 349.089 41.5823C349.633 41.5823 350.109 41.4713 350.518 41.2493C350.933 41.0201 351.277 40.7086 351.549 40.3147C351.821 39.9208 352.025 39.4696 352.161 38.9612C352.304 38.4456 352.376 37.8977 352.376 37.3176V37.0706C352.376 36.4976 352.304 35.9569 352.161 35.4485C352.025 34.9329 351.817 34.4781 351.538 34.0842C351.266 33.6832 350.922 33.3681 350.507 33.1389C350.099 32.9097 349.619 32.7952 349.067 32.7952C348.523 32.7952 348.043 32.9097 347.628 33.1389C347.22 33.3681 346.876 33.6832 346.597 34.0842C346.325 34.4781 346.12 34.9329 345.984 35.4485C345.848 35.9569 345.78 36.4976 345.78 37.0706ZM362.323 37.887H358.51L358.488 36.2971H361.604C362.219 36.2971 362.731 36.2362 363.14 36.1145C363.555 35.9928 363.867 35.8101 364.074 35.5667C364.282 35.3232 364.386 35.0224 364.386 34.6643C364.386 34.385 364.325 34.1415 364.203 33.9338C364.089 33.719 363.913 33.5435 363.677 33.4075C363.44 33.2642 363.147 33.1604 362.796 33.0959C362.452 33.0243 362.048 32.9885 361.582 32.9885H359.036V43.0002H357.049V31.3772H361.582C362.32 31.3772 362.982 31.4417 363.569 31.5706C364.164 31.6995 364.669 31.8964 365.084 32.1614C365.507 32.4192 365.829 32.7486 366.051 33.1497C366.273 33.5507 366.384 34.0234 366.384 34.5676C366.384 34.9185 366.312 35.2515 366.169 35.5667C366.026 35.8818 365.814 36.1611 365.535 36.4045C365.256 36.648 364.912 36.8486 364.504 37.0061C364.096 37.1565 363.627 37.2532 363.097 37.2961L362.323 37.887ZM362.323 43.0002H357.79L358.778 41.3889H362.323C362.875 41.3889 363.333 41.3209 363.698 41.1848C364.063 41.0416 364.336 40.8411 364.515 40.5833C364.701 40.3183 364.794 40.0032 364.794 39.6379C364.794 39.2727 364.701 38.9612 364.515 38.7034C364.336 38.4384 364.063 38.2379 363.698 38.1018C363.333 37.9586 362.875 37.887 362.323 37.887H359.305L359.326 36.2971H363.097L363.816 36.8987C364.454 36.9488 364.994 37.1064 365.438 37.3713C365.882 37.6363 366.219 37.9729 366.448 38.3811C366.677 38.7821 366.792 39.219 366.792 39.6917C366.792 40.2359 366.688 40.7157 366.48 41.1311C366.28 41.5465 365.986 41.8938 365.6 42.1731C365.213 42.4452 364.744 42.6529 364.192 42.7961C363.641 42.9322 363.018 43.0002 362.323 43.0002ZM376.31 41.0129V35.0295C376.31 34.5712 376.216 34.1737 376.03 33.8372C375.851 33.4934 375.579 33.2284 375.214 33.0422C374.849 32.856 374.397 32.7629 373.86 32.7629C373.359 32.7629 372.919 32.8489 372.539 33.0208C372.167 33.1926 371.873 33.4182 371.658 33.6975C371.451 33.9768 371.347 34.2776 371.347 34.5999H369.359C369.359 34.1845 369.467 33.7727 369.682 33.3645C369.896 32.9563 370.204 32.5875 370.605 32.2581C371.014 31.9215 371.501 31.6565 372.066 31.4631C372.639 31.2626 373.277 31.1624 373.979 31.1624C374.824 31.1624 375.568 31.3056 376.213 31.592C376.865 31.8785 377.373 32.3118 377.738 32.8918C378.111 33.4648 378.297 34.1845 378.297 35.051V40.4651C378.297 40.8518 378.329 41.2636 378.394 41.7004C378.465 42.1373 378.569 42.5133 378.705 42.8284V43.0002H376.632C376.532 42.7711 376.453 42.4667 376.396 42.0872C376.338 41.7004 376.31 41.3424 376.31 41.0129ZM376.653 35.9534L376.675 37.3499H374.666C374.1 37.3499 373.595 37.3964 373.151 37.4895C372.707 37.5754 372.335 37.7079 372.034 37.887C371.733 38.066 371.504 38.2916 371.347 38.5637C371.189 38.8287 371.11 39.1402 371.11 39.4983C371.11 39.8635 371.193 40.1965 371.357 40.4973C371.522 40.7981 371.769 41.038 372.099 41.217C372.435 41.3889 372.847 41.4749 373.334 41.4749C373.943 41.4749 374.48 41.3459 374.945 41.0881C375.411 40.8303 375.78 40.5152 376.052 40.1428C376.331 39.7704 376.481 39.4088 376.503 39.0579L377.352 40.0139C377.301 40.3147 377.165 40.6477 376.943 41.0129C376.721 41.3782 376.424 41.7291 376.052 42.0657C375.687 42.3951 375.25 42.6708 374.741 42.8928C374.24 43.1077 373.674 43.2151 373.044 43.2151C372.256 43.2151 371.565 43.0611 370.971 42.7532C370.383 42.4452 369.925 42.0334 369.596 41.5178C369.273 40.995 369.112 40.4114 369.112 39.7668C369.112 39.1438 369.234 38.5959 369.478 38.1233C369.721 37.6435 370.072 37.246 370.53 36.9309C370.989 36.6086 371.54 36.3652 372.185 36.2004C372.829 36.0357 373.549 35.9534 374.344 35.9534H376.653ZM383.775 37.4573H385.924L382.562 43.0002H380.413L383.775 37.4573ZM385.44 31.3772H390.296V43.0002H388.309V32.9885H385.44C384.875 32.9885 384.413 33.0852 384.055 33.2786C383.697 33.4648 383.435 33.7083 383.271 34.009C383.106 34.3098 383.023 34.6213 383.023 34.9436C383.023 35.2587 383.099 35.5631 383.249 35.8567C383.399 36.1431 383.636 36.3795 383.958 36.5657C384.28 36.7519 384.696 36.845 385.204 36.845H388.846V38.4778H385.204C384.538 38.4778 383.947 38.3883 383.432 38.2092C382.916 38.0302 382.479 37.7831 382.121 37.468C381.763 37.1458 381.491 36.7698 381.305 36.3401C381.118 35.9032 381.025 35.4306 381.025 34.9221C381.025 34.4137 381.122 33.9446 381.315 33.5149C381.516 33.0852 381.802 32.7092 382.175 32.387C382.554 32.0647 383.016 31.8176 383.561 31.6458C384.112 31.4667 384.739 31.3772 385.44 31.3772ZM402.22 41.7971L405.453 31.3772H407.58L402.918 44.7942C402.811 45.0806 402.667 45.3886 402.488 45.718C402.316 46.0546 402.094 46.3733 401.822 46.6741C401.55 46.9749 401.221 47.2183 400.834 47.4045C400.454 47.5979 400 47.6946 399.47 47.6946C399.312 47.6946 399.112 47.6731 398.868 47.6301C398.625 47.5872 398.453 47.5514 398.353 47.5227L398.342 45.9114C398.399 45.9185 398.489 45.9257 398.61 45.9329C398.739 45.9472 398.829 45.9543 398.879 45.9543C399.33 45.9543 399.713 45.8935 400.028 45.7717C400.343 45.6571 400.608 45.4602 400.823 45.1809C401.045 44.9088 401.235 44.5328 401.393 44.053L402.22 41.7971ZM399.846 31.3772L402.864 40.4006L403.38 42.4954L401.951 43.2258L397.676 31.3772H399.846ZM417.119 31.3772V33.0208H411.243V31.3772H417.119ZM411.533 31.3772V43.0002H409.546V31.3772H411.533ZM418.881 31.3772V43.0002H416.883V31.3772H418.881ZM428.925 41.0129V35.0295C428.925 34.5712 428.832 34.1737 428.646 33.8372C428.466 33.4934 428.194 33.2284 427.829 33.0422C427.464 32.856 427.013 32.7629 426.476 32.7629C425.974 32.7629 425.534 32.8489 425.154 33.0208C424.782 33.1926 424.488 33.4182 424.273 33.6975C424.066 33.9768 423.962 34.2776 423.962 34.5999H421.975C421.975 34.1845 422.082 33.7727 422.297 33.3645C422.512 32.9563 422.82 32.5875 423.221 32.2581C423.629 31.9215 424.116 31.6565 424.682 31.4631C425.255 31.2626 425.892 31.1624 426.594 31.1624C427.439 31.1624 428.184 31.3056 428.828 31.592C429.48 31.8785 429.988 32.3118 430.354 32.8918C430.726 33.4648 430.912 34.1845 430.912 35.051V40.4651C430.912 40.8518 430.944 41.2636 431.009 41.7004C431.08 42.1373 431.184 42.5133 431.32 42.8284V43.0002H429.247C429.147 42.7711 429.068 42.4667 429.011 42.0872C428.953 41.7004 428.925 41.3424 428.925 41.0129ZM429.269 35.9534L429.29 37.3499H427.281C426.715 37.3499 426.211 37.3964 425.767 37.4895C425.323 37.5754 424.95 37.7079 424.649 37.887C424.349 38.066 424.119 38.2916 423.962 38.5637C423.804 38.8287 423.726 39.1402 423.726 39.4983C423.726 39.8635 423.808 40.1965 423.973 40.4973C424.137 40.7981 424.384 41.038 424.714 41.217C425.05 41.3889 425.462 41.4749 425.949 41.4749C426.558 41.4749 427.095 41.3459 427.561 41.0881C428.026 40.8303 428.395 40.5152 428.667 40.1428C428.946 39.7704 429.097 39.4088 429.118 39.0579L429.967 40.0139C429.917 40.3147 429.781 40.6477 429.559 41.0129C429.337 41.3782 429.039 41.7291 428.667 42.0657C428.302 42.3951 427.865 42.6708 427.356 42.8928C426.855 43.1077 426.289 43.2151 425.659 43.2151C424.871 43.2151 424.18 43.0611 423.586 42.7532C422.999 42.4452 422.54 42.0334 422.211 41.5178C421.889 40.995 421.728 40.4114 421.728 39.7668C421.728 39.1438 421.849 38.5959 422.093 38.1233C422.336 37.6435 422.687 37.246 423.146 36.9309C423.604 36.6086 424.155 36.3652 424.8 36.2004C425.444 36.0357 426.164 35.9534 426.959 35.9534H429.269ZM436.197 31.3772V43.0002H434.21V31.3772H436.197ZM443.824 31.3772L438.313 38.0374H435.531L435.23 36.2971H437.508L441.407 31.3772H443.824ZM441.687 43.0002L437.411 37.7366L438.689 36.2971L444.211 43.0002H441.687ZM445.178 37.3176V37.0706C445.178 36.2327 445.299 35.4556 445.543 34.7395C445.786 34.0162 446.137 33.3896 446.596 32.8596C447.054 32.3225 447.609 31.9071 448.261 31.6135C448.912 31.3127 449.643 31.1624 450.452 31.1624C451.269 31.1624 452.003 31.3127 452.654 31.6135C453.313 31.9071 453.872 32.3225 454.33 32.8596C454.796 33.3896 455.15 34.0162 455.394 34.7395C455.637 35.4556 455.759 36.2327 455.759 37.0706V37.3176C455.759 38.1555 455.637 38.9325 455.394 39.6487C455.15 40.3648 454.796 40.9915 454.33 41.5286C453.872 42.0585 453.317 42.4739 452.665 42.7747C452.021 43.0683 451.29 43.2151 450.474 43.2151C449.657 43.2151 448.923 43.0683 448.271 42.7747C447.62 42.4739 447.061 42.0585 446.596 41.5286C446.137 40.9915 445.786 40.3648 445.543 39.6487C445.299 38.9325 445.178 38.1555 445.178 37.3176ZM447.165 37.0706V37.3176C447.165 37.8977 447.233 38.4456 447.369 38.9612C447.505 39.4696 447.709 39.9208 447.981 40.3147C448.261 40.7086 448.608 41.0201 449.023 41.2493C449.439 41.4713 449.922 41.5823 450.474 41.5823C451.018 41.5823 451.494 41.4713 451.902 41.2493C452.318 41.0201 452.661 40.7086 452.934 40.3147C453.206 39.9208 453.41 39.4696 453.546 38.9612C453.689 38.4456 453.761 37.8977 453.761 37.3176V37.0706C453.761 36.4976 453.689 35.9569 453.546 35.4485C453.41 34.9329 453.202 34.4781 452.923 34.0842C452.651 33.6832 452.307 33.3681 451.892 33.1389C451.483 32.9097 451.004 32.7952 450.452 32.7952C449.908 32.7952 449.428 32.9097 449.013 33.1389C448.604 33.3681 448.261 33.6832 447.981 34.0842C447.709 34.4781 447.505 34.9329 447.369 35.4485C447.233 35.9569 447.165 36.4976 447.165 37.0706ZM463.708 37.887H459.895L459.873 36.2971H462.988C463.604 36.2971 464.116 36.2362 464.524 36.1145C464.94 35.9928 465.251 35.8101 465.459 35.5667C465.667 35.3232 465.771 35.0224 465.771 34.6643C465.771 34.385 465.71 34.1415 465.588 33.9338C465.473 33.719 465.298 33.5435 465.062 33.4075C464.825 33.2642 464.532 33.1604 464.181 33.0959C463.837 33.0243 463.432 32.9885 462.967 32.9885H460.421V43.0002H458.434V31.3772H462.967C463.704 31.3772 464.367 31.4417 464.954 31.5706C465.549 31.6995 466.053 31.8964 466.469 32.1614C466.891 32.4192 467.214 32.7486 467.436 33.1497C467.658 33.5507 467.769 34.0234 467.769 34.5676C467.769 34.9185 467.697 35.2515 467.554 35.5667C467.41 35.8818 467.199 36.1611 466.92 36.4045C466.641 36.648 466.297 36.8486 465.889 37.0061C465.48 37.1565 465.011 37.2532 464.481 37.2961L463.708 37.887ZM463.708 43.0002H459.175L460.163 41.3889H463.708C464.259 41.3889 464.718 41.3209 465.083 41.1848C465.448 41.0416 465.72 40.8411 465.899 40.5833C466.086 40.3183 466.179 40.0032 466.179 39.6379C466.179 39.2727 466.086 38.9612 465.899 38.7034C465.72 38.4384 465.448 38.2379 465.083 38.1018C464.718 37.9586 464.259 37.887 463.708 37.887H460.689L460.711 36.2971H464.481L465.201 36.8987C465.839 36.9488 466.379 37.1064 466.823 37.3713C467.267 37.6363 467.604 37.9729 467.833 38.3811C468.062 38.7821 468.177 39.219 468.177 39.6917C468.177 40.2359 468.073 40.7157 467.865 41.1311C467.665 41.5465 467.371 41.8938 466.984 42.1731C466.598 42.4452 466.129 42.6529 465.577 42.7961C465.026 42.9322 464.403 43.0002 463.708 43.0002ZM473 31.3772V43.0002H471.013V31.3772H473ZM480.627 31.3772L475.116 38.0374H472.334L472.033 36.2971H474.311L478.21 31.3772H480.627ZM478.489 43.0002L474.214 37.7366L475.492 36.2971L481.014 43.0002H478.489ZM489.597 41.0129V35.0295C489.597 34.5712 489.504 34.1737 489.317 33.8372C489.138 33.4934 488.866 33.2284 488.501 33.0422C488.136 32.856 487.685 32.7629 487.147 32.7629C486.646 32.7629 486.206 32.8489 485.826 33.0208C485.454 33.1926 485.16 33.4182 484.945 33.6975C484.738 33.9768 484.634 34.2776 484.634 34.5999H482.646C482.646 34.1845 482.754 33.7727 482.969 33.3645C483.184 32.9563 483.492 32.5875 483.893 32.2581C484.301 31.9215 484.788 31.6565 485.354 31.4631C485.926 31.2626 486.564 31.1624 487.266 31.1624C488.111 31.1624 488.855 31.3056 489.5 31.592C490.152 31.8785 490.66 32.3118 491.025 32.8918C491.398 33.4648 491.584 34.1845 491.584 35.051V40.4651C491.584 40.8518 491.616 41.2636 491.681 41.7004C491.752 42.1373 491.856 42.5133 491.992 42.8284V43.0002H489.919C489.819 42.7711 489.74 42.4667 489.683 42.0872C489.625 41.7004 489.597 41.3424 489.597 41.0129ZM489.94 35.9534L489.962 37.3499H487.953C487.387 37.3499 486.882 37.3964 486.438 37.4895C485.994 37.5754 485.622 37.7079 485.321 37.887C485.021 38.066 484.791 38.2916 484.634 38.5637C484.476 38.8287 484.397 39.1402 484.397 39.4983C484.397 39.8635 484.48 40.1965 484.645 40.4973C484.809 40.7981 485.056 41.038 485.386 41.217C485.722 41.3889 486.134 41.4749 486.621 41.4749C487.23 41.4749 487.767 41.3459 488.232 41.0881C488.698 40.8303 489.067 40.5152 489.339 40.1428C489.618 39.7704 489.769 39.4088 489.79 39.0579L490.639 40.0139C490.589 40.3147 490.452 40.6477 490.23 41.0129C490.008 41.3782 489.711 41.7291 489.339 42.0657C488.974 42.3951 488.537 42.6708 488.028 42.8928C487.527 43.1077 486.961 43.2151 486.331 43.2151C485.543 43.2151 484.852 43.0611 484.258 42.7532C483.671 42.4452 483.212 42.0334 482.883 41.5178C482.561 40.995 482.399 40.4114 482.399 39.7668C482.399 39.1438 482.521 38.5959 482.765 38.1233C483.008 37.6435 483.359 37.246 483.817 36.9309C484.276 36.6086 484.827 36.3652 485.472 36.2004C486.116 36.0357 486.836 35.9534 487.631 35.9534H489.94ZM239.97 52.3176H241.603C241.603 53.0194 241.495 53.578 241.28 53.9934C241.065 54.4016 240.772 54.7167 240.399 54.9387C240.034 55.1607 239.619 55.329 239.153 55.4436C238.695 55.5582 238.219 55.6692 237.725 55.7766C237.109 55.9055 236.536 56.1096 236.006 56.3889C235.483 56.6611 235.032 57.0478 234.652 57.5491C234.28 58.0504 234.004 58.7021 233.825 59.5042C233.653 60.3062 233.607 61.2981 233.686 62.4797V63.468H232.053V62.4797C232.053 61.1549 232.178 59.9983 232.429 59.01C232.687 58.0217 233.048 57.1874 233.514 56.5071C233.979 55.8267 234.531 55.2861 235.168 54.885C235.812 54.484 236.521 54.2083 237.295 54.0579C237.854 53.9504 238.333 53.8359 238.734 53.7141C239.135 53.5852 239.44 53.4133 239.647 53.1985C239.862 52.9836 239.97 52.69 239.97 52.3176ZM237.617 58.0432C238.376 58.0432 239.053 58.1757 239.647 58.4407C240.242 58.7056 240.747 59.0745 241.162 59.5471C241.577 60.0198 241.893 60.5784 242.107 61.2229C242.329 61.8603 242.44 62.5549 242.44 63.3069V63.5432C242.44 64.3525 242.322 65.1044 242.086 65.7991C241.857 66.4866 241.517 67.0881 241.065 67.6038C240.621 68.1122 240.077 68.5097 239.433 68.7961C238.795 69.0826 238.068 69.2258 237.252 69.2258C236.436 69.2258 235.705 69.0826 235.061 68.7961C234.423 68.5097 233.879 68.1122 233.428 67.6038C232.977 67.0881 232.633 66.4866 232.396 65.7991C232.167 65.1044 232.053 64.3525 232.053 63.5432V63.3069C232.053 63.1278 232.085 62.9524 232.149 62.7805C232.214 62.6086 232.293 62.4332 232.386 62.2542C232.486 62.0751 232.576 61.8853 232.654 61.6848C232.919 61.0403 233.281 60.4423 233.739 59.8909C234.205 59.3394 234.76 58.8954 235.404 58.5588C236.056 58.2151 236.794 58.0432 237.617 58.0432ZM237.23 59.6653C236.5 59.6653 235.898 59.8336 235.426 60.1702C234.96 60.5068 234.613 60.9543 234.384 61.5129C234.155 62.0644 234.04 62.6624 234.04 63.3069V63.5432C234.04 64.0875 234.104 64.6031 234.233 65.0901C234.362 65.5771 234.556 66.0103 234.813 66.3899C235.078 66.7623 235.411 67.0559 235.812 67.2708C236.221 67.4856 236.701 67.593 237.252 67.593C237.803 67.593 238.28 67.4856 238.681 67.2708C239.082 67.0559 239.411 66.7623 239.669 66.3899C239.927 66.0103 240.12 65.5771 240.249 65.0901C240.378 64.6031 240.442 64.0875 240.442 63.5432V63.3069C240.442 62.8199 240.378 62.358 240.249 61.9211C240.12 61.4843 239.923 61.0976 239.658 60.761C239.4 60.4244 239.067 60.1594 238.659 59.9661C238.258 59.7655 237.782 59.6653 237.23 59.6653ZM246.49 59.6116V73.469H244.492V57.3772H246.318L246.49 59.6116ZM254.321 63.092V63.3176C254.321 64.1627 254.221 64.9469 254.021 65.6702C253.82 66.3863 253.526 67.0094 253.14 67.5393C252.76 68.0693 252.291 68.481 251.732 68.7747C251.174 69.0683 250.533 69.2151 249.81 69.2151C249.072 69.2151 248.42 69.0933 247.854 68.8499C247.289 68.6064 246.809 68.2519 246.415 67.7864C246.021 67.3209 245.706 66.7623 245.47 66.1106C245.241 65.4589 245.083 64.7249 244.997 63.9084V62.7053C245.083 61.8459 245.244 61.0761 245.48 60.3958C245.717 59.7154 246.028 59.1353 246.415 58.6555C246.809 58.1685 247.285 57.7997 247.844 57.5491C248.402 57.2913 249.047 57.1624 249.777 57.1624C250.508 57.1624 251.156 57.3056 251.722 57.592C252.287 57.8713 252.764 58.2724 253.15 58.7952C253.537 59.318 253.827 59.9446 254.021 60.675C254.221 61.3984 254.321 62.204 254.321 63.092ZM252.323 63.3176V63.092C252.323 62.512 252.262 61.9677 252.141 61.4592C252.019 60.9436 251.829 60.4924 251.571 60.1057C251.321 59.7118 250.998 59.4039 250.604 59.1819C250.211 58.9527 249.742 58.8381 249.197 58.8381C248.696 58.8381 248.259 58.9241 247.887 59.0959C247.521 59.2678 247.21 59.5006 246.952 59.7942C246.694 60.0806 246.483 60.4101 246.318 60.7825C246.161 61.1477 246.043 61.5273 245.964 61.9211V64.7034C246.107 65.2047 246.308 65.6773 246.565 66.1213C246.823 66.5582 247.167 66.9127 247.597 67.1848C248.026 67.4498 248.567 67.5823 249.219 67.5823C249.756 67.5823 250.218 67.4713 250.604 67.2493C250.998 67.0201 251.321 66.7086 251.571 66.3147C251.829 65.9208 252.019 65.4696 252.141 64.9612C252.262 64.4456 252.323 63.8977 252.323 63.3176ZM261.68 69.2151C260.87 69.2151 260.136 69.079 259.478 68.8069C258.826 68.5276 258.264 68.1373 257.791 67.636C257.326 67.1347 256.967 66.5403 256.717 65.8528C256.466 65.1653 256.341 64.4133 256.341 63.5969V63.1458C256.341 62.2004 256.48 61.359 256.76 60.6213C257.039 59.8765 257.419 59.2463 257.898 58.7307C258.378 58.2151 258.923 57.8248 259.531 57.5598C260.14 57.2948 260.77 57.1624 261.422 57.1624C262.253 57.1624 262.969 57.3056 263.57 57.592C264.179 57.8785 264.677 58.2795 265.063 58.7952C265.45 59.3036 265.737 59.9052 265.923 60.5999C266.109 61.2874 266.202 62.0393 266.202 62.8557V63.7473H257.522V62.1252H264.215V61.9749C264.186 61.4592 264.079 60.9579 263.893 60.4709C263.714 59.984 263.427 59.5829 263.033 59.2678C262.639 58.9527 262.102 58.7952 261.422 58.7952C260.971 58.7952 260.555 58.8918 260.176 59.0852C259.796 59.2714 259.47 59.5507 259.198 59.9231C258.926 60.2955 258.715 60.7502 258.564 61.2874C258.414 61.8245 258.339 62.4439 258.339 63.1458V63.5969C258.339 64.1484 258.414 64.6676 258.564 65.1545C258.722 65.6344 258.948 66.0569 259.241 66.4221C259.542 66.7874 259.904 67.0738 260.326 67.2815C260.756 67.4892 261.243 67.593 261.787 67.593C262.489 67.593 263.083 67.4498 263.57 67.1633C264.057 66.8769 264.483 66.4937 264.849 66.0139L266.052 66.97C265.801 67.3495 265.482 67.7112 265.096 68.0549C264.709 68.3987 264.233 68.678 263.667 68.8928C263.108 69.1077 262.446 69.2151 261.68 69.2151ZM276.407 62.4153V64.0266H270.263V62.4153H276.407ZM270.682 57.3772V69.0002H268.694V57.3772H270.682ZM278.019 57.3772V69.0002H276.021V57.3772H278.019ZM283.314 57.3772H285.302L285.13 61.7278C285.087 62.8306 284.962 63.7831 284.754 64.5852C284.546 65.3873 284.281 66.0712 283.959 66.637C283.637 67.1956 283.275 67.6646 282.874 68.0442C282.48 68.4237 282.072 68.7424 281.649 69.0002H280.661L280.715 67.3782L281.123 67.3674C281.359 67.0881 281.589 66.8017 281.811 66.5081C282.033 66.2073 282.237 65.8528 282.423 65.4446C282.609 65.0292 282.763 64.5243 282.885 63.9299C283.014 63.3284 283.096 62.5943 283.132 61.7278L283.314 57.3772ZM283.809 57.3772H290.802V69.0002H288.814V59.2141H283.809V57.3772ZM280.21 67.3674H292.295V72.427H290.308V69.0002H282.197V72.427H280.199L280.21 67.3674ZM301.351 67.0129V61.0295C301.351 60.5712 301.257 60.1737 301.071 59.8372C300.892 59.4934 300.62 59.2284 300.255 59.0422C299.89 58.856 299.438 58.7629 298.901 58.7629C298.4 58.7629 297.96 58.8489 297.58 59.0208C297.208 59.1926 296.914 59.4182 296.699 59.6975C296.492 59.9768 296.388 60.2776 296.388 60.5999H294.4C294.4 60.1845 294.508 59.7727 294.723 59.3645C294.938 58.9563 295.245 58.5875 295.646 58.2581C296.055 57.9215 296.542 57.6565 297.107 57.4631C297.68 57.2626 298.318 57.1624 299.02 57.1624C299.865 57.1624 300.609 57.3056 301.254 57.592C301.906 57.8785 302.414 58.3118 302.779 58.8918C303.152 59.4648 303.338 60.1845 303.338 61.051V66.4651C303.338 66.8518 303.37 67.2636 303.435 67.7004C303.506 68.1373 303.61 68.5133 303.746 68.8284V69.0002H301.673C301.573 68.7711 301.494 68.4667 301.437 68.0872C301.379 67.7004 301.351 67.3424 301.351 67.0129ZM301.694 61.9534L301.716 63.3499H299.707C299.141 63.3499 298.636 63.3964 298.192 63.4895C297.748 63.5754 297.376 63.7079 297.075 63.887C296.774 64.066 296.545 64.2916 296.388 64.5637C296.23 64.8287 296.151 65.1402 296.151 65.4983C296.151 65.8635 296.234 66.1965 296.398 66.4973C296.563 66.7981 296.81 67.038 297.14 67.217C297.476 67.3889 297.888 67.4749 298.375 67.4749C298.984 67.4749 299.521 67.3459 299.986 67.0881C300.452 66.8303 300.821 66.5152 301.093 66.1428C301.372 65.7704 301.522 65.4088 301.544 65.0579L302.393 66.0139C302.342 66.3147 302.206 66.6477 301.984 67.0129C301.762 67.3782 301.465 67.7291 301.093 68.0657C300.728 68.3951 300.291 68.6708 299.782 68.8928C299.281 69.1077 298.715 69.2151 298.085 69.2151C297.297 69.2151 296.606 69.0611 296.012 68.7532C295.424 68.4452 294.966 68.0334 294.637 67.5178C294.314 66.995 294.153 66.4114 294.153 65.7668C294.153 65.1438 294.275 64.5959 294.519 64.1233C294.762 63.6435 295.113 63.246 295.571 62.9309C296.03 62.6086 296.581 62.3652 297.226 62.2004C297.87 62.0357 298.59 61.9534 299.385 61.9534H301.694ZM314.069 65.8528L319.43 57.3772H321.428V69.0002H319.43V60.5247L314.069 69.0002H312.093V57.3772H314.069V65.8528ZM336.145 62.8665H331.966V61.1799H336.145C336.954 61.1799 337.609 61.051 338.11 60.7932C338.612 60.5354 338.977 60.1773 339.206 59.719C339.442 59.2607 339.561 58.7379 339.561 58.1506C339.561 57.6135 339.442 57.1086 339.206 56.636C338.977 56.1633 338.612 55.7838 338.11 55.4973C337.609 55.2037 336.954 55.0569 336.145 55.0569H332.449V69.0002H330.376V53.3596H336.145C337.326 53.3596 338.325 53.5637 339.142 53.9719C339.958 54.3801 340.577 54.9459 341 55.6692C341.423 56.3853 341.634 57.2053 341.634 58.1292C341.634 59.1318 341.423 59.9875 341 60.6965C340.577 61.4055 339.958 61.9462 339.142 62.3186C338.325 62.6838 337.326 62.8665 336.145 62.8665ZM344.255 53.3596H349.433C350.607 53.3596 351.599 53.5387 352.408 53.8967C353.225 54.2548 353.844 54.7847 354.267 55.4866C354.696 56.1812 354.911 57.037 354.911 58.054C354.911 58.7701 354.764 59.4254 354.471 60.0198C354.184 60.607 353.769 61.1083 353.225 61.5237C352.688 61.9319 352.043 62.2362 351.291 62.4368L350.711 62.6624H345.845L345.823 60.9758H349.497C350.242 60.9758 350.861 60.8469 351.355 60.5891C351.85 60.3241 352.222 59.9696 352.473 59.5256C352.723 59.0816 352.849 58.5911 352.849 58.054C352.849 57.4524 352.73 56.926 352.494 56.4749C352.258 56.0237 351.885 55.6764 351.377 55.4329C350.876 55.1822 350.228 55.0569 349.433 55.0569H346.328V69.0002H344.255V53.3596ZM353.396 69.0002L349.594 61.9104L351.753 61.8997L355.609 68.8713V69.0002H353.396ZM361.646 61.5344V63.1672H356.404V61.5344H361.646ZM365.75 57.3772V69.0002H363.763V57.3772H365.75ZM373.377 57.3772L367.866 64.0374H365.084L364.783 62.2971H367.061L370.96 57.3772H373.377ZM371.239 69.0002L366.964 63.7366L368.242 62.2971L373.764 69.0002H371.239ZM374.73 63.3176V63.0706C374.73 62.2327 374.852 61.4556 375.096 60.7395C375.339 60.0162 375.69 59.3896 376.148 58.8596C376.607 58.3225 377.162 57.9071 377.813 57.6135C378.465 57.3127 379.196 57.1624 380.005 57.1624C380.821 57.1624 381.555 57.3127 382.207 57.6135C382.866 57.9071 383.424 58.3225 383.883 58.8596C384.348 59.3896 384.703 60.0162 384.946 60.7395C385.19 61.4556 385.312 62.2327 385.312 63.0706V63.3176C385.312 64.1555 385.19 64.9325 384.946 65.6487C384.703 66.3648 384.348 66.9915 383.883 67.5286C383.424 68.0585 382.869 68.4739 382.218 68.7747C381.573 69.0683 380.843 69.2151 380.026 69.2151C379.21 69.2151 378.476 69.0683 377.824 68.7747C377.173 68.4739 376.614 68.0585 376.148 67.5286C375.69 66.9915 375.339 66.3648 375.096 65.6487C374.852 64.9325 374.73 64.1555 374.73 63.3176ZM376.718 63.0706V63.3176C376.718 63.8977 376.786 64.4456 376.922 64.9612C377.058 65.4696 377.262 65.9208 377.534 66.3147C377.813 66.7086 378.161 67.0201 378.576 67.2493C378.992 67.4713 379.475 67.5823 380.026 67.5823C380.571 67.5823 381.047 67.4713 381.455 67.2493C381.87 67.0201 382.214 66.7086 382.486 66.3147C382.758 65.9208 382.963 65.4696 383.099 64.9612C383.242 64.4456 383.313 63.8977 383.313 63.3176V63.0706C383.313 62.4976 383.242 61.9569 383.099 61.4485C382.963 60.9329 382.755 60.4781 382.476 60.0842C382.203 59.6832 381.86 59.3681 381.444 59.1389C381.036 58.9097 380.556 58.7952 380.005 58.7952C379.461 58.7952 378.981 58.9097 378.565 59.1389C378.157 59.3681 377.813 59.6832 377.534 60.0842C377.262 60.4781 377.058 60.9329 376.922 61.4485C376.786 61.9569 376.718 62.4976 376.718 63.0706ZM394.485 66.3577L398.438 57.3772H400.351L395.173 69.0002H393.798L388.642 57.3772H390.554L394.485 66.3577ZM389.974 57.3772V69.0002H387.986V57.3772H389.974ZM398.933 69.0002V57.3772H400.931V69.0002H398.933ZM411.877 57.3772V59.0208H406.001V57.3772H411.877ZM406.291 57.3772V69.0002H404.304V57.3772H406.291ZM413.639 57.3772V69.0002H411.641V57.3772H413.639ZM423.683 67.0129V61.0295C423.683 60.5712 423.59 60.1737 423.403 59.8372C423.224 59.4934 422.952 59.2284 422.587 59.0422C422.222 58.856 421.771 58.7629 421.233 58.7629C420.732 58.7629 420.292 58.8489 419.912 59.0208C419.54 59.1926 419.246 59.4182 419.031 59.6975C418.824 59.9768 418.72 60.2776 418.72 60.5999H416.732C416.732 60.1845 416.84 59.7727 417.055 59.3645C417.27 58.9563 417.577 58.5875 417.979 58.2581C418.387 57.9215 418.874 57.6565 419.439 57.4631C420.012 57.2626 420.65 57.1624 421.352 57.1624C422.197 57.1624 422.941 57.3056 423.586 57.592C424.238 57.8785 424.746 58.3118 425.111 58.8918C425.484 59.4648 425.67 60.1845 425.67 61.051V66.4651C425.67 66.8518 425.702 67.2636 425.767 67.7004C425.838 68.1373 425.942 68.5133 426.078 68.8284V69.0002H424.005C423.905 68.7711 423.826 68.4667 423.769 68.0872C423.711 67.7004 423.683 67.3424 423.683 67.0129ZM424.026 61.9534L424.048 63.3499H422.039C421.473 63.3499 420.968 63.3964 420.524 63.4895C420.08 63.5754 419.708 63.7079 419.407 63.887C419.106 64.066 418.877 64.2916 418.72 64.5637C418.562 64.8287 418.483 65.1402 418.483 65.4983C418.483 65.8635 418.566 66.1965 418.73 66.4973C418.895 66.7981 419.142 67.038 419.472 67.217C419.808 67.3889 420.22 67.4749 420.707 67.4749C421.316 67.4749 421.853 67.3459 422.318 67.0881C422.784 66.8303 423.153 66.5152 423.425 66.1428C423.704 65.7704 423.854 65.4088 423.876 65.0579L424.725 66.0139C424.674 66.3147 424.538 66.6477 424.316 67.0129C424.094 67.3782 423.797 67.7291 423.425 68.0657C423.06 68.3951 422.623 68.6708 422.114 68.8928C421.613 69.1077 421.047 69.2151 420.417 69.2151C419.629 69.2151 418.938 69.0611 418.344 68.7532C417.757 68.4452 417.298 68.0334 416.969 67.5178C416.646 66.995 416.485 66.4114 416.485 65.7668C416.485 65.1438 416.607 64.5959 416.851 64.1233C417.094 63.6435 417.445 63.246 417.903 62.9309C418.362 62.6086 418.913 62.3652 419.558 62.2004C420.202 62.0357 420.922 61.9534 421.717 61.9534H424.026ZM436.681 62.4153V64.0266H430.536V62.4153H436.681ZM430.955 57.3772V69.0002H428.968V57.3772H430.955ZM438.292 57.3772V69.0002H436.294V57.3772H438.292ZM443.642 65.8528L449.002 57.3772H451V69.0002H449.002V60.5247L443.642 69.0002H441.665V57.3772H443.642V65.8528ZM456.543 63.4573H458.691L455.329 69.0002H453.181L456.543 63.4573ZM458.208 57.3772H463.063V69.0002H461.076V58.9885H458.208C457.642 58.9885 457.18 59.0852 456.822 59.2786C456.464 59.4648 456.203 59.7083 456.038 60.009C455.873 60.3098 455.791 60.6213 455.791 60.9436C455.791 61.2587 455.866 61.5631 456.017 61.8567C456.167 62.1431 456.403 62.3795 456.726 62.5657C457.048 62.7519 457.463 62.845 457.972 62.845H461.613V64.4778H457.972C457.306 64.4778 456.715 64.3883 456.199 64.2092C455.684 64.0302 455.247 63.7831 454.889 63.468C454.531 63.1458 454.258 62.7698 454.072 62.3401C453.886 61.9032 453.793 61.4306 453.793 60.9221C453.793 60.4137 453.89 59.9446 454.083 59.5149C454.284 59.0852 454.57 58.7092 454.942 58.387C455.322 58.0647 455.784 57.8176 456.328 57.6458C456.88 57.4667 457.506 57.3772 458.208 57.3772ZM240.399 88.4153V90.0266H234.255V88.4153H240.399ZM234.674 83.3772V95.0002H232.687V83.3772H234.674ZM242.011 83.3772V95.0002H240.013V83.3772H242.011ZM252.065 93.0129V87.0295C252.065 86.5712 251.972 86.1737 251.786 85.8372C251.607 85.4934 251.335 85.2284 250.97 85.0422C250.604 84.856 250.153 84.7629 249.616 84.7629C249.115 84.7629 248.674 84.8489 248.295 85.0208C247.923 85.1926 247.629 85.4182 247.414 85.6975C247.206 85.9768 247.103 86.2776 247.103 86.5999H245.115C245.115 86.1845 245.223 85.7727 245.438 85.3645C245.652 84.9563 245.96 84.5875 246.361 84.2581C246.77 83.9215 247.257 83.6565 247.822 83.4631C248.395 83.2626 249.033 83.1624 249.734 83.1624C250.579 83.1624 251.324 83.3056 251.969 83.592C252.62 83.8785 253.129 84.3118 253.494 84.8918C253.867 85.4648 254.053 86.1845 254.053 87.051V92.4651C254.053 92.8518 254.085 93.2636 254.149 93.7004C254.221 94.1373 254.325 94.5133 254.461 94.8284V95.0002H252.388C252.287 94.7711 252.209 94.4667 252.151 94.0872C252.094 93.7004 252.065 93.3424 252.065 93.0129ZM252.409 87.9534L252.431 89.3499H250.422C249.856 89.3499 249.351 89.3964 248.907 89.4895C248.463 89.5754 248.091 89.7079 247.79 89.887C247.489 90.066 247.26 90.2916 247.103 90.5637C246.945 90.8287 246.866 91.1402 246.866 91.4983C246.866 91.8635 246.949 92.1965 247.113 92.4973C247.278 92.7981 247.525 93.038 247.854 93.217C248.191 93.3889 248.603 93.4749 249.09 93.4749C249.699 93.4749 250.236 93.3459 250.701 93.0881C251.167 92.8303 251.535 92.5152 251.808 92.1428C252.087 91.7704 252.237 91.4088 252.259 91.0579L253.107 92.0139C253.057 92.3147 252.921 92.6477 252.699 93.0129C252.477 93.3782 252.18 93.7291 251.808 94.0657C251.442 94.3951 251.006 94.6708 250.497 94.8928C249.996 95.1077 249.43 95.2151 248.8 95.2151C248.012 95.2151 247.321 95.0611 246.727 94.7532C246.139 94.4452 245.681 94.0334 245.352 93.5178C245.029 92.995 244.868 92.4114 244.868 91.7668C244.868 91.1438 244.99 90.5959 245.233 90.1233C245.477 89.6435 245.828 89.246 246.286 88.9309C246.744 88.6086 247.296 88.3652 247.94 88.2004C248.585 88.0357 249.305 87.9534 250.1 87.9534H252.409ZM264.623 85.6116V99.469H262.625V83.3772H264.451L264.623 85.6116ZM272.454 89.092V89.3176C272.454 90.1627 272.354 90.9469 272.153 91.6702C271.953 92.3863 271.659 93.0094 271.272 93.5393C270.893 94.0693 270.424 94.481 269.865 94.7747C269.307 95.0683 268.666 95.2151 267.942 95.2151C267.205 95.2151 266.553 95.0933 265.987 94.8499C265.422 94.6064 264.942 94.2519 264.548 93.7864C264.154 93.3209 263.839 92.7623 263.603 92.1106C263.373 91.4589 263.216 90.7249 263.13 89.9084V88.7053C263.216 87.8459 263.377 87.0761 263.613 86.3958C263.85 85.7154 264.161 85.1353 264.548 84.6555C264.942 84.1685 265.418 83.7997 265.977 83.5491C266.535 83.2913 267.18 83.1624 267.91 83.1624C268.641 83.1624 269.289 83.3056 269.854 83.592C270.42 83.8713 270.896 84.2724 271.283 84.7952C271.67 85.318 271.96 85.9446 272.153 86.675C272.354 87.3984 272.454 88.204 272.454 89.092ZM270.456 89.3176V89.092C270.456 88.512 270.395 87.9677 270.273 87.4592C270.152 86.9436 269.962 86.4924 269.704 86.1057C269.453 85.7118 269.131 85.4039 268.737 85.1819C268.343 84.9527 267.874 84.8381 267.33 84.8381C266.829 84.8381 266.392 84.9241 266.02 85.0959C265.654 85.2678 265.343 85.5006 265.085 85.7942C264.827 86.0806 264.616 86.4101 264.451 86.7825C264.294 87.1477 264.175 87.5273 264.097 87.9211V90.7034C264.24 91.2047 264.44 91.6773 264.698 92.1213C264.956 92.5582 265.3 92.9127 265.729 93.1848C266.159 93.4498 266.7 93.5823 267.352 93.5823C267.889 93.5823 268.351 93.4713 268.737 93.2493C269.131 93.0201 269.453 92.7086 269.704 92.3147C269.962 91.9208 270.152 91.4696 270.273 90.9612C270.395 90.4456 270.456 89.8977 270.456 89.3176ZM276.622 87.3733H280.113C281.051 87.3733 281.843 87.538 282.487 87.8674C283.132 88.1897 283.619 88.6373 283.948 89.2102C284.285 89.776 284.453 90.4205 284.453 91.1438C284.453 91.6809 284.36 92.1858 284.174 92.6584C283.988 93.1239 283.708 93.5321 283.336 93.8831C282.971 94.234 282.516 94.5097 281.972 94.7102C281.435 94.9036 280.815 95.0002 280.113 95.0002H275.172V83.3772H277.159V93.3674H280.113C280.686 93.3674 281.145 93.2636 281.488 93.0559C281.832 92.8482 282.079 92.5797 282.229 92.2502C282.38 91.9208 282.455 91.5771 282.455 91.219C282.455 90.8681 282.38 90.5243 282.229 90.1877C282.079 89.8512 281.832 89.5719 281.488 89.3499C281.145 89.1207 280.686 89.0061 280.113 89.0061H276.622V87.3733ZM288.589 83.3772V95.0002H286.602V83.3772H288.589ZM299.954 88.4153V90.0266H293.81V88.4153H299.954ZM294.229 83.3772V95.0002H292.241V83.3772H294.229ZM301.565 83.3772V95.0002H299.567V83.3772H301.565ZM306.926 83.3772V95.0002H304.938V83.3772H306.926ZM314.553 83.3772L309.042 90.0374H306.26L305.959 88.2971H308.236L312.136 83.3772H314.553ZM312.415 95.0002L308.14 89.7366L309.418 88.2971L314.939 95.0002H312.415ZM321.32 95.2151C320.511 95.2151 319.777 95.079 319.118 94.8069C318.466 94.5276 317.904 94.1373 317.432 93.636C316.966 93.1347 316.608 92.5403 316.357 91.8528C316.107 91.1653 315.981 90.4133 315.981 89.5969V89.1458C315.981 88.2004 316.121 87.359 316.4 86.6213C316.68 85.8765 317.059 85.2463 317.539 84.7307C318.019 84.2151 318.563 83.8248 319.172 83.5598C319.781 83.2948 320.411 83.1624 321.062 83.1624C321.893 83.1624 322.609 83.3056 323.211 83.592C323.82 83.8785 324.317 84.2795 324.704 84.7952C325.091 85.3036 325.377 85.9052 325.563 86.5999C325.75 87.2874 325.843 88.0393 325.843 88.8557V89.7473H317.163V88.1252H323.855V87.9749C323.827 87.4592 323.719 86.9579 323.533 86.4709C323.354 85.984 323.068 85.5829 322.674 85.2678C322.28 84.9527 321.743 84.7952 321.062 84.7952C320.611 84.7952 320.196 84.8918 319.816 85.0852C319.437 85.2714 319.111 85.5507 318.839 85.9231C318.567 86.2955 318.355 86.7502 318.205 87.2874C318.055 87.8245 317.979 88.4439 317.979 89.1458V89.5969C317.979 90.1484 318.055 90.6676 318.205 91.1545C318.363 91.6344 318.588 92.0569 318.882 92.4221C319.183 92.7874 319.544 93.0738 319.967 93.2815C320.396 93.4892 320.883 93.593 321.428 93.593C322.13 93.593 322.724 93.4498 323.211 93.1633C323.698 92.8769 324.124 92.4937 324.489 92.0139L325.692 92.97C325.442 93.3495 325.123 93.7112 324.736 94.0549C324.35 94.3987 323.873 94.678 323.308 94.8928C322.749 95.1077 322.087 95.2151 321.32 95.2151Z" fill="black"/>
<defs>
<filter id="filter0_d_822_2143" x="0.0517578" y="5.08643" width="106.19" height="106.163" filterUnits="userSpaceOnUse" color-interpolation-filters="sRGB">
<feFlood flood-opacity="0" result="BackgroundImageFix"/>
<feColorMatrix in="SourceAlpha" type="matrix" values="0 0 0 0 0 0 0 0 0 0 0 0 0 0 0 0 0 0 127 0" result="hardAlpha"/>
<feOffset/>
<feGaussianBlur stdDeviation="12"/>
<feComposite in2="hardAlpha" operator="out"/>
<feColorMatrix type="matrix" values="0 0 0 0 0.579167 0 0 0 0 0.579167 0 0 0 0 0.579167 0 0 0 0.3 0"/>
<feBlend mode="normal" in2="BackgroundImageFix" result="effect1_dropShadow_822_2143"/>
<feBlend mode="normal" in="SourceGraphic" in2="effect1_dropShadow_822_2143" result="shape"/>
</filter>
</defs>
</svg>
