<svg width="672" height="125" viewBox="0 0 672 125" fill="none" xmlns="http://www.w3.org/2000/svg">
<path d="M175.294 65L57.2939 65" stroke="#00A3FF" stroke-miterlimit="10" stroke-linecap="round"/>
<g filter="url(#filter0_d_804_876)">
<path d="M32.5734 85.7315C21.2109 74.3745 21.2109 55.961 32.5733 44.6039C43.9358 33.2468 62.358 33.2468 73.7204 44.6039C85.0829 55.961 85.0829 74.3745 73.7204 85.7315C62.358 97.0886 43.9358 97.0886 32.5734 85.7315Z" fill="white"/>
</g>
<path d="M44.0532 65.1647C44.0479 66.8873 44.5531 68.573 45.505 70.009C46.457 71.445 47.8131 72.5671 49.4023 73.2338C50.9915 73.9004 52.7426 74.0817 54.4347 73.7549C56.1269 73.428 57.6843 72.6076 58.9106 71.3971C60.1368 70.1866 60.977 68.6402 61.3251 66.9531C61.6731 65.2659 61.5136 63.5135 60.8665 61.9169C60.2194 60.3202 59.1137 58.9509 57.689 57.9816C56.2643 57.0122 54.5843 56.4863 52.8609 56.4702C51.7094 56.4557 50.5665 56.67 49.4985 57.1004C48.4306 57.5309 47.4587 58.1691 46.6394 58.9779C45.8201 59.7867 45.1695 60.75 44.7256 61.8121C44.2816 62.8741 44.0531 64.0137 44.0532 65.1647Z" fill="#00A3FF"/>
<path d="M52.7516 68.5714C50.8692 68.5714 49.3431 67.0461 49.3431 65.1645C49.3431 63.2829 50.8692 61.7576 52.7516 61.7576C54.6341 61.7576 56.1602 63.2829 56.1602 65.1645C56.1602 67.0461 54.6341 68.5714 52.7516 68.5714Z" fill="white"/>
<path d="M172.842 65.1645C172.837 66.8906 173.344 68.5796 174.299 70.0174C175.255 71.4553 176.616 72.5774 178.21 73.2417C179.804 73.906 181.559 74.0827 183.254 73.7492C184.948 73.4158 186.505 72.5873 187.729 71.3686C188.952 70.1499 189.785 68.5959 190.124 66.9033C190.463 65.2107 190.292 63.4557 189.632 61.8604C188.973 60.2651 187.854 58.9013 186.419 57.9418C184.983 56.9822 183.295 56.47 181.568 56.47C179.259 56.47 177.043 57.3851 175.408 59.0149C173.772 60.6446 172.849 62.856 172.842 65.1645Z" fill="#00A3FF"/>
<path d="M181.541 68.5714C179.658 68.5714 178.132 67.0461 178.132 65.1645C178.132 63.2829 179.658 61.7576 181.541 61.7576C183.423 61.7576 184.949 63.2829 184.949 65.1645C184.949 67.0461 183.423 68.5714 181.541 68.5714Z" fill="white"/>
<path d="M640.304 93.2599C657.481 76.0913 657.481 48.2554 640.304 31.0867C623.127 13.9181 595.278 13.918 578.101 31.0867C560.925 48.2553 560.925 76.0913 578.101 93.26C595.278 110.429 623.127 110.429 640.304 93.2599Z" fill="#00A3FF"/>
<path d="M617.996 76.1733H598.406C598.406 74.116 598.738 72.2541 599.402 70.5874C600.066 68.9207 600.893 67.6056 601.883 66.6421C602.872 65.6655 603.947 64.741 605.105 63.8687C606.264 62.9832 607.332 62.2345 608.309 61.6226C609.298 60.9976 610.125 60.2749 610.789 59.4546C611.466 58.6213 611.805 57.7293 611.805 56.7788C611.805 55.659 611.453 54.7801 610.75 54.1421C610.06 53.491 609.077 53.1655 607.801 53.1655C606.785 53.1655 605.906 53.452 605.164 54.0249C604.435 54.5978 603.953 55.1642 603.719 55.7241L603.406 56.564L598.406 54.1812C598.458 53.9989 598.543 53.758 598.66 53.4585C598.777 53.159 599.09 52.6317 599.598 51.8765C600.105 51.1082 600.691 50.4377 601.355 49.8647C602.02 49.2918 602.957 48.771 604.168 48.3022C605.392 47.8205 606.733 47.5796 608.191 47.5796C611.043 47.5796 613.387 48.4455 615.223 50.1772C617.072 51.909 617.996 54.0379 617.996 56.564C617.996 57.9832 617.69 59.2723 617.078 60.4312C616.466 61.59 615.665 62.5796 614.676 63.3999C613.686 64.2072 612.671 64.9559 611.629 65.646C610.6 66.3231 609.546 67.0978 608.465 67.9702C607.384 68.8296 606.564 69.6955 606.004 70.5679H617.996V76.1733Z" fill="white"/>
<path d="M242.86 57.2603H239.631V55.957H242.86C243.486 55.957 243.992 55.8574 244.379 55.6582C244.767 55.459 245.049 55.1823 245.226 54.8281C245.409 54.474 245.5 54.07 245.5 53.6162C245.5 53.2012 245.409 52.811 245.226 52.4458C245.049 52.0806 244.767 51.7873 244.379 51.5659C243.992 51.339 243.486 51.2256 242.86 51.2256H240.005V62H238.403V49.9141H242.86C243.773 49.9141 244.545 50.0718 245.176 50.3872C245.807 50.7026 246.286 51.1398 246.612 51.6987C246.939 52.2521 247.102 52.8857 247.102 53.5996C247.102 54.3743 246.939 55.0356 246.612 55.5835C246.286 56.1313 245.807 56.5492 245.176 56.8369C244.545 57.1191 243.773 57.2603 242.86 57.2603ZM254.091 60.4644V55.8408C254.091 55.4867 254.019 55.1795 253.875 54.9194C253.737 54.6538 253.527 54.4491 253.245 54.3052C252.962 54.1613 252.614 54.0894 252.199 54.0894C251.811 54.0894 251.471 54.1558 251.178 54.2886C250.89 54.4214 250.663 54.5957 250.497 54.8115C250.337 55.0273 250.256 55.2598 250.256 55.5088H248.721C248.721 55.1878 248.804 54.8696 248.97 54.5542C249.136 54.2388 249.374 53.9538 249.684 53.6992C249.999 53.4391 250.375 53.2344 250.812 53.085C251.255 52.93 251.748 52.8525 252.29 52.8525C252.943 52.8525 253.519 52.9632 254.017 53.1846C254.52 53.4059 254.913 53.7407 255.195 54.189C255.483 54.6317 255.627 55.1878 255.627 55.8574V60.041C255.627 60.3398 255.652 60.658 255.702 60.9956C255.757 61.3332 255.837 61.6237 255.942 61.8672V62H254.34C254.263 61.8229 254.202 61.5877 254.158 61.2944C254.113 60.9956 254.091 60.7189 254.091 60.4644ZM254.357 56.5547L254.374 57.6338H252.821C252.384 57.6338 251.994 57.6698 251.651 57.7417C251.308 57.8081 251.02 57.9105 250.788 58.0488C250.555 58.1872 250.378 58.3615 250.256 58.5718C250.135 58.7765 250.074 59.0173 250.074 59.2939C250.074 59.5762 250.137 59.8335 250.265 60.0659C250.392 60.2983 250.583 60.4837 250.837 60.6221C251.097 60.7549 251.416 60.8213 251.792 60.8213C252.262 60.8213 252.677 60.7217 253.037 60.5225C253.397 60.3232 253.682 60.0798 253.892 59.792C254.108 59.5042 254.224 59.2248 254.241 58.9536L254.896 59.6924C254.858 59.9248 254.753 60.1821 254.581 60.4644C254.41 60.7466 254.18 61.0177 253.892 61.2778C253.61 61.5324 253.272 61.7454 252.879 61.917C252.492 62.083 252.055 62.166 251.568 62.166C250.959 62.166 250.425 62.047 249.966 61.8091C249.512 61.5711 249.158 61.2529 248.903 60.8545C248.654 60.4505 248.53 59.9995 248.53 59.5015C248.53 59.02 248.624 58.5967 248.812 58.2314C249 57.8607 249.271 57.5535 249.625 57.3101C249.98 57.061 250.406 56.8729 250.904 56.7456C251.402 56.6183 251.958 56.5547 252.572 56.5547H254.357ZM261.396 57.7085H259.744V56.7622H261.271C261.698 56.7622 262.035 56.7096 262.284 56.6045C262.533 56.4938 262.71 56.3416 262.815 56.1479C262.921 55.9543 262.973 55.7274 262.973 55.4673C262.973 55.2349 262.912 55.0163 262.791 54.8115C262.674 54.6012 262.486 54.4325 262.226 54.3052C261.966 54.1724 261.617 54.106 261.18 54.106C260.826 54.106 260.505 54.1696 260.217 54.2969C259.93 54.4186 259.7 54.5874 259.528 54.8032C259.362 55.0135 259.279 55.2515 259.279 55.5171H257.744C257.744 54.9692 257.899 54.4989 258.208 54.106C258.524 53.7075 258.942 53.4004 259.462 53.1846C259.988 52.9688 260.56 52.8608 261.18 52.8608C261.7 52.8608 262.165 52.9189 262.575 53.0352C262.99 53.1458 263.341 53.3118 263.629 53.5332C263.917 53.749 264.135 54.0202 264.285 54.3467C264.44 54.6676 264.517 55.0412 264.517 55.4673C264.517 55.7716 264.445 56.0594 264.301 56.3306C264.157 56.6017 263.95 56.8424 263.679 57.0527C263.408 57.2575 263.078 57.418 262.691 57.5342C262.309 57.6504 261.877 57.7085 261.396 57.7085ZM259.744 57.1274H261.396C261.933 57.1274 262.406 57.18 262.815 57.2852C263.225 57.3848 263.568 57.5342 263.845 57.7334C264.121 57.9326 264.329 58.1789 264.467 58.4722C264.611 58.7599 264.683 59.092 264.683 59.4683C264.683 59.8888 264.597 60.2679 264.426 60.6055C264.26 60.9375 264.022 61.2197 263.712 61.4521C263.402 61.6846 263.031 61.8617 262.6 61.9834C262.174 62.1051 261.7 62.166 261.18 62.166C260.599 62.166 260.035 62.0664 259.487 61.8672C258.939 61.668 258.488 61.3608 258.134 60.9458C257.78 60.5252 257.603 59.9912 257.603 59.3438H259.138C259.138 59.6149 259.224 59.8722 259.396 60.1157C259.567 60.3592 259.805 60.5557 260.109 60.7051C260.419 60.8545 260.776 60.9292 261.18 60.9292C261.612 60.9292 261.972 60.8628 262.259 60.73C262.547 60.5972 262.763 60.4201 262.907 60.1987C263.056 59.9774 263.131 59.7367 263.131 59.4766C263.131 59.139 263.064 58.8678 262.932 58.6631C262.799 58.4583 262.594 58.3089 262.317 58.2148C262.046 58.1152 261.698 58.0654 261.271 58.0654H259.744V57.1274ZM268.211 54.7451V65.4531H266.667V53.0186H268.078L268.211 54.7451ZM274.262 57.4346V57.6089C274.262 58.2619 274.185 58.8678 274.03 59.4268C273.875 59.9801 273.648 60.4616 273.349 60.8711C273.056 61.2806 272.693 61.5988 272.262 61.8257C271.83 62.0526 271.335 62.166 270.776 62.166C270.206 62.166 269.702 62.0719 269.265 61.8838C268.828 61.6956 268.457 61.4217 268.153 61.062C267.848 60.7023 267.605 60.2707 267.422 59.7671C267.245 59.2635 267.124 58.6963 267.057 58.0654V57.1357C267.124 56.4717 267.248 55.8768 267.431 55.3511C267.613 54.8254 267.854 54.3771 268.153 54.0063C268.457 53.63 268.825 53.3451 269.257 53.1514C269.688 52.9521 270.187 52.8525 270.751 52.8525C271.315 52.8525 271.816 52.9632 272.253 53.1846C272.691 53.4004 273.059 53.7103 273.357 54.1143C273.656 54.5182 273.88 55.0024 274.03 55.5669C274.185 56.1258 274.262 56.7484 274.262 57.4346ZM272.718 57.6089V57.4346C272.718 56.9863 272.671 56.5658 272.577 56.1729C272.483 55.7744 272.336 55.4258 272.137 55.127C271.944 54.8226 271.694 54.5846 271.39 54.4131C271.086 54.236 270.723 54.1475 270.303 54.1475C269.915 54.1475 269.578 54.2139 269.29 54.3467C269.008 54.4795 268.767 54.6593 268.568 54.8862C268.369 55.1076 268.205 55.3621 268.078 55.6499C267.956 55.9321 267.865 56.2254 267.804 56.5298V58.6797C267.915 59.0671 268.07 59.4323 268.269 59.7754C268.468 60.113 268.734 60.3869 269.066 60.5972C269.398 60.8019 269.816 60.9043 270.319 60.9043C270.734 60.9043 271.091 60.8185 271.39 60.647C271.694 60.4699 271.944 60.2292 272.137 59.9248C272.336 59.6204 272.483 59.2718 272.577 58.8789C272.671 58.4805 272.718 58.0571 272.718 57.6089ZM281.517 60.4644V55.8408C281.517 55.4867 281.445 55.1795 281.301 54.9194C281.163 54.6538 280.953 54.4491 280.67 54.3052C280.388 54.1613 280.04 54.0894 279.625 54.0894C279.237 54.0894 278.897 54.1558 278.604 54.2886C278.316 54.4214 278.089 54.5957 277.923 54.8115C277.762 55.0273 277.682 55.2598 277.682 55.5088H276.146C276.146 55.1878 276.229 54.8696 276.396 54.5542C276.562 54.2388 276.799 53.9538 277.109 53.6992C277.425 53.4391 277.801 53.2344 278.238 53.085C278.681 52.93 279.174 52.8525 279.716 52.8525C280.369 52.8525 280.944 52.9632 281.442 53.1846C281.946 53.4059 282.339 53.7407 282.621 54.189C282.909 54.6317 283.053 55.1878 283.053 55.8574V60.041C283.053 60.3398 283.078 60.658 283.127 60.9956C283.183 61.3332 283.263 61.6237 283.368 61.8672V62H281.766C281.689 61.8229 281.628 61.5877 281.583 61.2944C281.539 60.9956 281.517 60.7189 281.517 60.4644ZM281.783 56.5547L281.799 57.6338H280.247C279.81 57.6338 279.42 57.6698 279.077 57.7417C278.734 57.8081 278.446 57.9105 278.213 58.0488C277.981 58.1872 277.804 58.3615 277.682 58.5718C277.56 58.7765 277.5 59.0173 277.5 59.2939C277.5 59.5762 277.563 59.8335 277.69 60.0659C277.818 60.2983 278.009 60.4837 278.263 60.6221C278.523 60.7549 278.841 60.8213 279.218 60.8213C279.688 60.8213 280.103 60.7217 280.463 60.5225C280.823 60.3232 281.108 60.0798 281.318 59.792C281.534 59.5042 281.65 59.2248 281.667 58.9536L282.322 59.6924C282.284 59.9248 282.178 60.1821 282.007 60.4644C281.835 60.7466 281.606 61.0177 281.318 61.2778C281.036 61.5324 280.698 61.7454 280.305 61.917C279.918 62.083 279.481 62.166 278.994 62.166C278.385 62.166 277.851 62.047 277.392 61.8091C276.938 61.5711 276.584 61.2529 276.329 60.8545C276.08 60.4505 275.956 59.9995 275.956 59.5015C275.956 59.02 276.05 58.5967 276.238 58.2314C276.426 57.8607 276.697 57.5535 277.051 57.3101C277.405 57.061 277.832 56.8729 278.33 56.7456C278.828 56.6183 279.384 56.5547 279.998 56.5547H281.783ZM291.229 49.1089H292.491C292.491 49.6512 292.408 50.0828 292.242 50.4038C292.076 50.7192 291.849 50.9627 291.561 51.1343C291.279 51.3058 290.958 51.4359 290.598 51.5244C290.244 51.613 289.876 51.6987 289.494 51.7817C289.018 51.8813 288.576 52.0391 288.166 52.2549C287.762 52.4652 287.413 52.764 287.12 53.1514C286.832 53.5387 286.619 54.0423 286.481 54.6621C286.348 55.2819 286.312 56.0483 286.373 56.9614V57.7251H285.111V56.9614C285.111 55.9377 285.208 55.0439 285.402 54.2803C285.601 53.5166 285.881 52.8719 286.24 52.3462C286.6 51.8205 287.026 51.4027 287.519 51.0928C288.017 50.7829 288.564 50.5698 289.162 50.4536C289.594 50.3706 289.965 50.2821 290.274 50.188C290.584 50.0884 290.819 49.9556 290.98 49.7896C291.146 49.6235 291.229 49.3966 291.229 49.1089ZM289.411 53.5332C289.998 53.5332 290.521 53.6356 290.98 53.8403C291.439 54.0451 291.829 54.3301 292.15 54.6953C292.471 55.0605 292.715 55.4922 292.881 55.9902C293.052 56.4827 293.138 57.0195 293.138 57.6006V57.7832C293.138 58.4085 293.047 58.9896 292.864 59.5264C292.687 60.0576 292.424 60.5225 292.076 60.9209C291.733 61.3138 291.312 61.6209 290.814 61.8423C290.321 62.0636 289.76 62.1743 289.129 62.1743C288.498 62.1743 287.934 62.0636 287.436 61.8423C286.943 61.6209 286.522 61.3138 286.174 60.9209C285.825 60.5225 285.56 60.0576 285.377 59.5264C285.2 58.9896 285.111 58.4085 285.111 57.7832V57.6006C285.111 57.4622 285.136 57.3267 285.186 57.1938C285.236 57.061 285.297 56.9255 285.369 56.7871C285.446 56.6488 285.515 56.5021 285.576 56.3472C285.781 55.8491 286.06 55.387 286.415 54.9609C286.774 54.5348 287.203 54.1917 287.701 53.9316C288.205 53.666 288.775 53.5332 289.411 53.5332ZM289.112 54.7866C288.548 54.7866 288.083 54.9167 287.718 55.1768C287.358 55.4368 287.09 55.7827 286.913 56.2144C286.736 56.6405 286.647 57.1025 286.647 57.6006V57.7832C286.647 58.2038 286.697 58.6022 286.796 58.9785C286.896 59.3548 287.045 59.6896 287.245 59.9829C287.449 60.2707 287.707 60.4976 288.017 60.6636C288.332 60.8296 288.703 60.9126 289.129 60.9126C289.555 60.9126 289.923 60.8296 290.233 60.6636C290.543 60.4976 290.797 60.2707 290.997 59.9829C291.196 59.6896 291.345 59.3548 291.445 58.9785C291.544 58.6022 291.594 58.2038 291.594 57.7832V57.6006C291.594 57.2243 291.544 56.8674 291.445 56.5298C291.345 56.1922 291.193 55.8934 290.988 55.6333C290.789 55.3732 290.532 55.1685 290.216 55.019C289.906 54.8641 289.538 54.7866 289.112 54.7866ZM294.475 57.6089V57.418C294.475 56.7705 294.569 56.1701 294.757 55.6167C294.945 55.0578 295.216 54.5736 295.57 54.1641C295.924 53.749 296.353 53.4281 296.857 53.2012C297.361 52.9688 297.925 52.8525 298.55 52.8525C299.181 52.8525 299.748 52.9688 300.252 53.2012C300.761 53.4281 301.193 53.749 301.547 54.1641C301.907 54.5736 302.181 55.0578 302.369 55.6167C302.557 56.1701 302.651 56.7705 302.651 57.418V57.6089C302.651 58.2563 302.557 58.8568 302.369 59.4102C302.181 59.9635 301.907 60.4478 301.547 60.8628C301.193 61.2723 300.764 61.5933 300.26 61.8257C299.762 62.0526 299.198 62.166 298.567 62.166C297.936 62.166 297.369 62.0526 296.865 61.8257C296.362 61.5933 295.93 61.2723 295.57 60.8628C295.216 60.4478 294.945 59.9635 294.757 59.4102C294.569 58.8568 294.475 58.2563 294.475 57.6089ZM296.01 57.418V57.6089C296.01 58.0571 296.063 58.4805 296.168 58.8789C296.273 59.2718 296.431 59.6204 296.641 59.9248C296.857 60.2292 297.125 60.4699 297.446 60.647C297.767 60.8185 298.141 60.9043 298.567 60.9043C298.987 60.9043 299.355 60.8185 299.671 60.647C299.992 60.4699 300.257 60.2292 300.468 59.9248C300.678 59.6204 300.836 59.2718 300.941 58.8789C301.052 58.4805 301.107 58.0571 301.107 57.6089V57.418C301.107 56.9753 301.052 56.5575 300.941 56.1646C300.836 55.7661 300.675 55.4147 300.459 55.1104C300.249 54.8005 299.984 54.557 299.663 54.3799C299.347 54.2028 298.976 54.1143 298.55 54.1143C298.13 54.1143 297.759 54.2028 297.438 54.3799C297.123 54.557 296.857 54.8005 296.641 55.1104C296.431 55.4147 296.273 55.7661 296.168 56.1646C296.063 56.5575 296.01 56.9753 296.01 57.418ZM308.055 53.0186V62H306.511V53.0186H308.055ZM311.068 53.0186V54.2637H303.556V53.0186H311.068ZM314.247 53.0186V62H312.711V53.0186H314.247ZM320.141 53.0186L315.882 58.165H313.732L313.5 56.8203H315.26L318.273 53.0186H320.141ZM318.489 62L315.185 57.9326L316.173 56.8203L320.439 62H318.489ZM327.072 60.4644V55.8408C327.072 55.4867 327 55.1795 326.856 54.9194C326.718 54.6538 326.507 54.4491 326.225 54.3052C325.943 54.1613 325.594 54.0894 325.179 54.0894C324.792 54.0894 324.451 54.1558 324.158 54.2886C323.87 54.4214 323.644 54.5957 323.478 54.8115C323.317 55.0273 323.237 55.2598 323.237 55.5088H321.701C321.701 55.1878 321.784 54.8696 321.95 54.5542C322.116 54.2388 322.354 53.9538 322.664 53.6992C322.979 53.4391 323.356 53.2344 323.793 53.085C324.236 52.93 324.728 52.8525 325.271 52.8525C325.924 52.8525 326.499 52.9632 326.997 53.1846C327.501 53.4059 327.894 53.7407 328.176 54.189C328.464 54.6317 328.607 55.1878 328.607 55.8574V60.041C328.607 60.3398 328.632 60.658 328.682 60.9956C328.737 61.3332 328.818 61.6237 328.923 61.8672V62H327.321C327.243 61.8229 327.182 61.5877 327.138 61.2944C327.094 60.9956 327.072 60.7189 327.072 60.4644ZM327.337 56.5547L327.354 57.6338H325.802C325.365 57.6338 324.974 57.6698 324.631 57.7417C324.288 57.8081 324 57.9105 323.768 58.0488C323.536 58.1872 323.359 58.3615 323.237 58.5718C323.115 58.7765 323.054 59.0173 323.054 59.2939C323.054 59.5762 323.118 59.8335 323.245 60.0659C323.372 60.2983 323.563 60.4837 323.818 60.6221C324.078 60.7549 324.396 60.8213 324.772 60.8213C325.243 60.8213 325.658 60.7217 326.018 60.5225C326.377 60.3232 326.662 60.0798 326.873 59.792C327.088 59.5042 327.205 59.2248 327.221 58.9536L327.877 59.6924C327.838 59.9248 327.733 60.1821 327.562 60.4644C327.39 60.7466 327.16 61.0177 326.873 61.2778C326.59 61.5324 326.253 61.7454 325.86 61.917C325.472 62.083 325.035 62.166 324.548 62.166C323.94 62.166 323.406 62.047 322.946 61.8091C322.493 61.5711 322.138 61.2529 321.884 60.8545C321.635 60.4505 321.51 59.9995 321.51 59.5015C321.51 59.02 321.604 58.5967 321.792 58.2314C321.981 57.8607 322.252 57.5535 322.606 57.3101C322.96 57.061 323.386 56.8729 323.884 56.7456C324.382 56.6183 324.938 56.5547 325.553 56.5547H327.337ZM336.9 59.5679L341.042 53.0186H342.586V62H341.042V55.4507L336.9 62H335.373V53.0186H336.9V59.5679ZM351.792 61.0703L354.29 53.0186H355.934L352.331 63.3862C352.248 63.6076 352.137 63.8455 351.999 64.1001C351.866 64.3602 351.695 64.6064 351.484 64.8389C351.274 65.0713 351.02 65.2594 350.721 65.4033C350.427 65.5527 350.076 65.6274 349.667 65.6274C349.545 65.6274 349.39 65.6108 349.202 65.5776C349.014 65.5444 348.881 65.5168 348.803 65.4946L348.795 64.2495C348.839 64.255 348.908 64.2606 349.002 64.2661C349.102 64.2772 349.171 64.2827 349.21 64.2827C349.559 64.2827 349.855 64.2357 350.098 64.1416C350.342 64.0531 350.546 63.9009 350.712 63.6851C350.884 63.4748 351.031 63.1842 351.152 62.8135L351.792 61.0703ZM349.957 53.0186L352.29 59.9912L352.688 61.6099L351.584 62.1743L348.28 53.0186H349.957ZM360.98 53.0186V62H359.437V53.0186H360.98ZM363.994 53.0186V54.2637H356.481V53.0186H363.994ZM369.721 58.0488H366.774L366.758 56.8203H369.165C369.641 56.8203 370.037 56.7733 370.352 56.6792C370.673 56.5851 370.914 56.444 371.074 56.2559C371.235 56.0677 371.315 55.8353 371.315 55.5586C371.315 55.3428 371.268 55.1546 371.174 54.9941C371.085 54.8281 370.95 54.6925 370.767 54.5874C370.584 54.4767 370.358 54.3965 370.086 54.3467C369.821 54.2913 369.508 54.2637 369.148 54.2637H367.181V62H365.646V53.0186H369.148C369.718 53.0186 370.23 53.0684 370.684 53.168C371.143 53.2676 371.534 53.4198 371.854 53.6245C372.181 53.8237 372.43 54.0783 372.602 54.3882C372.773 54.6981 372.859 55.0633 372.859 55.4839C372.859 55.755 372.804 56.0124 372.693 56.2559C372.582 56.4993 372.419 56.7152 372.203 56.9033C371.987 57.0915 371.722 57.2464 371.406 57.3682C371.091 57.4844 370.728 57.5591 370.319 57.5923L369.721 58.0488ZM369.721 62H366.218L366.982 60.7549H369.721C370.147 60.7549 370.501 60.7023 370.784 60.5972C371.066 60.4865 371.276 60.3315 371.415 60.1323C371.558 59.9276 371.63 59.6841 371.63 59.4019C371.63 59.1196 371.558 58.8789 371.415 58.6797C371.276 58.4749 371.066 58.32 370.784 58.2148C370.501 58.1042 370.147 58.0488 369.721 58.0488H367.389L367.405 56.8203H370.319L370.875 57.2852C371.368 57.3239 371.785 57.4456 372.128 57.6504C372.472 57.8551 372.732 58.1152 372.909 58.4307C373.086 58.7406 373.174 59.0781 373.174 59.4434C373.174 59.8639 373.094 60.2347 372.934 60.5557C372.779 60.8766 372.552 61.145 372.253 61.3608C371.954 61.5711 371.592 61.7316 371.166 61.8423C370.739 61.9474 370.258 62 369.721 62ZM378.96 62.166C378.335 62.166 377.767 62.0609 377.258 61.8506C376.755 61.6348 376.32 61.3332 375.955 60.9458C375.595 60.5584 375.319 60.0991 375.125 59.5679C374.931 59.0366 374.834 58.4556 374.834 57.8247V57.4761C374.834 56.7456 374.942 56.0954 375.158 55.5254C375.374 54.9499 375.667 54.4629 376.038 54.0645C376.409 53.666 376.829 53.3644 377.3 53.1597C377.77 52.9549 378.257 52.8525 378.761 52.8525C379.403 52.8525 379.956 52.9632 380.421 53.1846C380.891 53.4059 381.276 53.7158 381.575 54.1143C381.874 54.5072 382.095 54.972 382.239 55.5088C382.383 56.04 382.455 56.6211 382.455 57.252V57.9409H375.748V56.6875H380.919V56.5713C380.897 56.1729 380.814 55.7855 380.67 55.4092C380.532 55.0329 380.31 54.723 380.006 54.4795C379.701 54.236 379.286 54.1143 378.761 54.1143C378.412 54.1143 378.091 54.189 377.798 54.3384C377.505 54.4823 377.253 54.6981 377.042 54.9858C376.832 55.2736 376.669 55.625 376.553 56.04C376.437 56.4551 376.378 56.9338 376.378 57.4761V57.8247C376.378 58.2508 376.437 58.652 376.553 59.0283C376.674 59.3991 376.849 59.7256 377.076 60.0078C377.308 60.29 377.588 60.5114 377.914 60.6719C378.246 60.8324 378.622 60.9126 379.043 60.9126C379.585 60.9126 380.045 60.8019 380.421 60.5806C380.797 60.3592 381.126 60.0632 381.409 59.6924L382.338 60.4312C382.145 60.7244 381.898 61.0039 381.6 61.2695C381.301 61.5352 380.933 61.751 380.496 61.917C380.064 62.083 379.552 62.166 378.96 62.166ZM385.783 54.7451V65.4531H384.239V53.0186H385.65L385.783 54.7451ZM391.834 57.4346V57.6089C391.834 58.2619 391.757 58.8678 391.602 59.4268C391.447 59.9801 391.22 60.4616 390.921 60.8711C390.628 61.2806 390.266 61.5988 389.834 61.8257C389.402 62.0526 388.907 62.166 388.348 62.166C387.778 62.166 387.275 62.0719 386.837 61.8838C386.4 61.6956 386.029 61.4217 385.725 61.062C385.421 60.7023 385.177 60.2707 384.995 59.7671C384.818 59.2635 384.696 58.6963 384.629 58.0654V57.1357C384.696 56.4717 384.82 55.8768 385.003 55.3511C385.186 54.8254 385.426 54.3771 385.725 54.0063C386.029 53.63 386.397 53.3451 386.829 53.1514C387.261 52.9521 387.759 52.8525 388.323 52.8525C388.888 52.8525 389.389 52.9632 389.826 53.1846C390.263 53.4004 390.631 53.7103 390.93 54.1143C391.229 54.5182 391.453 55.0024 391.602 55.5669C391.757 56.1258 391.834 56.7484 391.834 57.4346ZM390.291 57.6089V57.4346C390.291 56.9863 390.243 56.5658 390.149 56.1729C390.055 55.7744 389.909 55.4258 389.709 55.127C389.516 54.8226 389.267 54.5846 388.962 54.4131C388.658 54.236 388.296 54.1475 387.875 54.1475C387.488 54.1475 387.15 54.2139 386.862 54.3467C386.58 54.4795 386.339 54.6593 386.14 54.8862C385.941 55.1076 385.778 55.3621 385.65 55.6499C385.529 55.9321 385.437 56.2254 385.376 56.5298V58.6797C385.487 59.0671 385.642 59.4323 385.841 59.7754C386.041 60.113 386.306 60.3869 386.638 60.5972C386.97 60.8019 387.388 60.9043 387.892 60.9043C388.307 60.9043 388.664 60.8185 388.962 60.647C389.267 60.4699 389.516 60.2292 389.709 59.9248C389.909 59.6204 390.055 59.2718 390.149 58.8789C390.243 58.4805 390.291 58.0571 390.291 57.6089ZM396.383 58.0903L392.98 53.0186H394.831L397.155 56.7373H398.948L398.724 58.0903H396.383ZM397.222 57.9326L394.615 62H392.673L396.25 56.8203L397.222 57.9326ZM399.737 53.0186V62H398.201V53.0186H399.737ZM404.975 53.0186L401.571 58.0903H399.23L398.99 56.7373H400.791L403.115 53.0186H404.975ZM403.331 62L400.716 57.9326L401.704 56.8203L405.273 62H403.331ZM408.312 53.0186H409.847L409.714 56.3804C409.681 57.2326 409.584 57.9686 409.424 58.5884C409.263 59.2082 409.059 59.7367 408.81 60.1738C408.561 60.6055 408.281 60.9679 407.971 61.2612C407.667 61.5545 407.351 61.8008 407.025 62H406.261L406.303 60.7466L406.618 60.7383C406.801 60.5225 406.978 60.3011 407.149 60.0742C407.321 59.8418 407.479 59.5679 407.623 59.2524C407.766 58.9315 407.885 58.5413 407.979 58.082C408.079 57.6172 408.143 57.05 408.17 56.3804L408.312 53.0186ZM408.693 53.0186H414.097V62H412.562V54.438H408.693V53.0186ZM405.913 60.7383H415.251V64.6479H413.715V62H407.448V64.6479H405.904L405.913 60.7383ZM420.68 62.166C420.054 62.166 419.487 62.0609 418.978 61.8506C418.474 61.6348 418.04 61.3332 417.675 60.9458C417.315 60.5584 417.038 60.0991 416.845 59.5679C416.651 59.0366 416.554 58.4556 416.554 57.8247V57.4761C416.554 56.7456 416.662 56.0954 416.878 55.5254C417.094 54.9499 417.387 54.4629 417.758 54.0645C418.129 53.666 418.549 53.3644 419.02 53.1597C419.49 52.9549 419.977 52.8525 420.48 52.8525C421.122 52.8525 421.676 52.9632 422.141 53.1846C422.611 53.4059 422.996 53.7158 423.294 54.1143C423.593 54.5072 423.815 54.972 423.958 55.5088C424.102 56.04 424.174 56.6211 424.174 57.252V57.9409H417.467V56.6875H422.639V56.5713C422.617 56.1729 422.534 55.7855 422.39 55.4092C422.251 55.0329 422.03 54.723 421.726 54.4795C421.421 54.236 421.006 54.1143 420.48 54.1143C420.132 54.1143 419.811 54.189 419.518 54.3384C419.224 54.4823 418.972 54.6981 418.762 54.9858C418.552 55.2736 418.389 55.625 418.272 56.04C418.156 56.4551 418.098 56.9338 418.098 57.4761V57.8247C418.098 58.2508 418.156 58.652 418.272 59.0283C418.394 59.3991 418.569 59.7256 418.795 60.0078C419.028 60.29 419.307 60.5114 419.634 60.6719C419.966 60.8324 420.342 60.9126 420.763 60.9126C421.305 60.9126 421.764 60.8019 422.141 60.5806C422.517 60.3592 422.846 60.0632 423.128 59.6924L424.058 60.4312C423.864 60.7244 423.618 61.0039 423.319 61.2695C423.021 61.5352 422.653 61.751 422.215 61.917C421.784 62.083 421.272 62.166 420.68 62.166ZM432.06 56.9116V58.1567H427.312V56.9116H432.06ZM427.636 53.0186V62H426.1V53.0186H427.636ZM433.305 53.0186V62H431.761V53.0186H433.305ZM437.439 59.5679L441.581 53.0186H443.125V62H441.581V55.4507L437.439 62H435.912V53.0186H437.439V59.5679ZM449.317 62.166C448.692 62.166 448.125 62.0609 447.616 61.8506C447.112 61.6348 446.678 61.3332 446.312 60.9458C445.953 60.5584 445.676 60.0991 445.482 59.5679C445.289 59.0366 445.192 58.4556 445.192 57.8247V57.4761C445.192 56.7456 445.3 56.0954 445.516 55.5254C445.731 54.9499 446.025 54.4629 446.396 54.0645C446.766 53.666 447.187 53.3644 447.657 53.1597C448.128 52.9549 448.615 52.8525 449.118 52.8525C449.76 52.8525 450.313 52.9632 450.778 53.1846C451.249 53.4059 451.633 53.7158 451.932 54.1143C452.231 54.5072 452.452 54.972 452.596 55.5088C452.74 56.04 452.812 56.6211 452.812 57.252V57.9409H446.105V56.6875H451.276V56.5713C451.254 56.1729 451.171 55.7855 451.027 55.4092C450.889 55.0329 450.668 54.723 450.363 54.4795C450.059 54.236 449.644 54.1143 449.118 54.1143C448.77 54.1143 448.449 54.189 448.155 54.3384C447.862 54.4823 447.61 54.6981 447.4 54.9858C447.19 55.2736 447.026 55.625 446.91 56.04C446.794 56.4551 446.736 56.9338 446.736 57.4761V57.8247C446.736 58.2508 446.794 58.652 446.91 59.0283C447.032 59.3991 447.206 59.7256 447.433 60.0078C447.666 60.29 447.945 60.5114 448.271 60.6719C448.604 60.8324 448.98 60.9126 449.4 60.9126C449.943 60.9126 450.402 60.8019 450.778 60.5806C451.155 60.3592 451.484 60.0632 451.766 59.6924L452.696 60.4312C452.502 60.7244 452.256 61.0039 451.957 61.2695C451.658 61.5352 451.29 61.751 450.853 61.917C450.421 62.083 449.91 62.166 449.317 62.166ZM461.345 61.0703L463.844 53.0186H465.487L461.885 63.3862C461.802 63.6076 461.691 63.8455 461.553 64.1001C461.42 64.3602 461.248 64.6064 461.038 64.8389C460.828 65.0713 460.573 65.2594 460.274 65.4033C459.981 65.5527 459.63 65.6274 459.22 65.6274C459.098 65.6274 458.944 65.6108 458.755 65.5776C458.567 65.5444 458.434 65.5168 458.357 65.4946L458.349 64.2495C458.393 64.255 458.462 64.2606 458.556 64.2661C458.656 64.2772 458.725 64.2827 458.764 64.2827C459.112 64.2827 459.408 64.2357 459.652 64.1416C459.895 64.0531 460.1 63.9009 460.266 63.6851C460.438 63.4748 460.584 63.1842 460.706 62.8135L461.345 61.0703ZM459.511 53.0186L461.843 59.9912L462.242 61.6099L461.138 62.1743L457.834 53.0186H459.511ZM470.352 60.9043C470.717 60.9043 471.054 60.8296 471.364 60.6802C471.674 60.5308 471.929 60.326 472.128 60.0659C472.327 59.8003 472.441 59.4987 472.468 59.1611H473.929C473.902 59.6924 473.722 60.1877 473.39 60.647C473.063 61.1007 472.634 61.4688 472.103 61.751C471.572 62.0277 470.988 62.166 470.352 62.166C469.676 62.166 469.087 62.047 468.583 61.8091C468.085 61.5711 467.67 61.2446 467.338 60.8296C467.012 60.4146 466.766 59.9386 466.6 59.4019C466.439 58.8595 466.359 58.2868 466.359 57.6836V57.335C466.359 56.7318 466.439 56.1618 466.6 55.625C466.766 55.0827 467.012 54.604 467.338 54.189C467.67 53.7739 468.085 53.4474 468.583 53.2095C469.087 52.9715 469.676 52.8525 470.352 52.8525C471.054 52.8525 471.669 52.9964 472.194 53.2842C472.72 53.5664 473.132 53.9538 473.431 54.4463C473.736 54.9333 473.902 55.4867 473.929 56.1064H472.468C472.441 55.7357 472.335 55.4009 472.153 55.1021C471.976 54.8032 471.732 54.5653 471.422 54.3882C471.118 54.2056 470.761 54.1143 470.352 54.1143C469.881 54.1143 469.486 54.2083 469.165 54.3965C468.849 54.5791 468.597 54.8281 468.409 55.1436C468.227 55.4535 468.094 55.7993 468.011 56.1812C467.933 56.5575 467.895 56.9421 467.895 57.335V57.6836C467.895 58.0765 467.933 58.4639 468.011 58.8457C468.088 59.2275 468.218 59.5734 468.401 59.8833C468.589 60.1932 468.841 60.4422 469.156 60.6304C469.477 60.813 469.876 60.9043 470.352 60.9043ZM481.657 53.0186V54.2886H477.316V53.0186H481.657ZM483.01 53.0186V62H481.475V53.0186H483.01ZM476.942 53.0186H478.486L478.254 57.3516C478.215 58.0212 478.152 58.6133 478.063 59.1279C477.98 59.637 477.864 60.0742 477.714 60.4395C477.57 60.8047 477.388 61.1035 477.167 61.3359C476.951 61.5628 476.691 61.7316 476.386 61.8423C476.082 61.9474 475.73 62 475.332 62H474.851V60.647L475.183 60.6221C475.421 60.6055 475.623 60.5501 475.789 60.4561C475.96 60.362 476.104 60.2236 476.22 60.041C476.336 59.8529 476.431 59.6121 476.502 59.3188C476.58 59.0256 476.638 58.6769 476.677 58.2729C476.721 57.869 476.754 57.3986 476.776 56.8618L476.942 53.0186ZM485.077 57.6089V57.418C485.077 56.7705 485.171 56.1701 485.359 55.6167C485.548 55.0578 485.819 54.5736 486.173 54.1641C486.527 53.749 486.956 53.4281 487.459 53.2012C487.963 52.9688 488.528 52.8525 489.153 52.8525C489.784 52.8525 490.351 52.9688 490.854 53.2012C491.364 53.4281 491.795 53.749 492.149 54.1641C492.509 54.5736 492.783 55.0578 492.971 55.6167C493.159 56.1701 493.253 56.7705 493.253 57.418V57.6089C493.253 58.2563 493.159 58.8568 492.971 59.4102C492.783 59.9635 492.509 60.4478 492.149 60.8628C491.795 61.2723 491.366 61.5933 490.863 61.8257C490.365 62.0526 489.8 62.166 489.169 62.166C488.539 62.166 487.971 62.0526 487.468 61.8257C486.964 61.5933 486.533 61.2723 486.173 60.8628C485.819 60.4478 485.548 59.9635 485.359 59.4102C485.171 58.8568 485.077 58.2563 485.077 57.6089ZM486.613 57.418V57.6089C486.613 58.0571 486.665 58.4805 486.771 58.8789C486.876 59.2718 487.033 59.6204 487.244 59.9248C487.459 60.2292 487.728 60.4699 488.049 60.647C488.37 60.8185 488.743 60.9043 489.169 60.9043C489.59 60.9043 489.958 60.8185 490.273 60.647C490.594 60.4699 490.86 60.2292 491.07 59.9248C491.281 59.6204 491.438 59.2718 491.543 58.8789C491.654 58.4805 491.709 58.0571 491.709 57.6089V57.418C491.709 56.9753 491.654 56.5575 491.543 56.1646C491.438 55.7661 491.278 55.4147 491.062 55.1104C490.852 54.8005 490.586 54.557 490.265 54.3799C489.95 54.2028 489.579 54.1143 489.153 54.1143C488.732 54.1143 488.361 54.2028 488.041 54.3799C487.725 54.557 487.459 54.8005 487.244 55.1104C487.033 55.4147 486.876 55.7661 486.771 56.1646C486.665 56.5575 486.613 56.9753 486.613 57.418ZM499.396 58.0488H496.449L496.433 56.8203H498.84C499.316 56.8203 499.711 56.7733 500.027 56.6792C500.348 56.5851 500.589 56.444 500.749 56.2559C500.91 56.0677 500.99 55.8353 500.99 55.5586C500.99 55.3428 500.943 55.1546 500.849 54.9941C500.76 54.8281 500.625 54.6925 500.442 54.5874C500.259 54.4767 500.032 54.3965 499.761 54.3467C499.496 54.2913 499.183 54.2637 498.823 54.2637H496.856V62H495.32V53.0186H498.823C499.393 53.0186 499.905 53.0684 500.359 53.168C500.818 53.2676 501.208 53.4198 501.529 53.6245C501.856 53.8237 502.105 54.0783 502.276 54.3882C502.448 54.6981 502.534 55.0633 502.534 55.4839C502.534 55.755 502.478 56.0124 502.368 56.2559C502.257 56.4993 502.094 56.7152 501.878 56.9033C501.662 57.0915 501.396 57.2464 501.081 57.3682C500.766 57.4844 500.403 57.5591 499.994 57.5923L499.396 58.0488ZM499.396 62H495.893L496.657 60.7549H499.396C499.822 60.7549 500.176 60.7023 500.458 60.5972C500.741 60.4865 500.951 60.3315 501.089 60.1323C501.233 59.9276 501.305 59.6841 501.305 59.4019C501.305 59.1196 501.233 58.8789 501.089 58.6797C500.951 58.4749 500.741 58.32 500.458 58.2148C500.176 58.1042 499.822 58.0488 499.396 58.0488H497.063L497.08 56.8203H499.994L500.55 57.2852C501.042 57.3239 501.46 57.4456 501.803 57.6504C502.146 57.8551 502.406 58.1152 502.583 58.4307C502.761 58.7406 502.849 59.0781 502.849 59.4434C502.849 59.8639 502.769 60.2347 502.608 60.5557C502.453 60.8766 502.227 61.145 501.928 61.3608C501.629 61.5711 501.266 61.7316 500.84 61.8423C500.414 61.9474 499.933 62 499.396 62ZM506.568 59.5679L510.71 53.0186H512.254V62H510.71V55.4507L506.568 62H505.041V53.0186H506.568V59.5679ZM516.379 59.5679L520.521 53.0186H522.065V62H520.521V55.4507L516.379 62H514.852V53.0186H516.379V59.5679ZM519.683 49.7646H520.928C520.928 50.1963 520.829 50.5809 520.629 50.9185C520.43 51.2505 520.145 51.5106 519.774 51.6987C519.404 51.8869 518.964 51.981 518.455 51.981C517.685 51.981 517.077 51.7762 516.628 51.3667C516.186 50.9517 515.964 50.4176 515.964 49.7646H517.209C517.209 50.0911 517.304 50.3789 517.492 50.6279C517.68 50.877 518.001 51.0015 518.455 51.0015C518.897 51.0015 519.213 50.877 519.401 50.6279C519.589 50.3789 519.683 50.0911 519.683 49.7646ZM239.706 74.7451V85.4531H238.162V73.0186H239.573L239.706 74.7451ZM245.757 77.4346V77.6089C245.757 78.2619 245.68 78.8678 245.525 79.4268C245.37 79.9801 245.143 80.4616 244.844 80.8711C244.551 81.2806 244.188 81.5988 243.757 81.8257C243.325 82.0526 242.83 82.166 242.271 82.166C241.701 82.166 241.197 82.0719 240.76 81.8838C240.323 81.6956 239.952 81.4217 239.648 81.062C239.344 80.7023 239.1 80.2707 238.917 79.7671C238.74 79.2635 238.619 78.6963 238.552 78.0654V77.1357C238.619 76.4717 238.743 75.8768 238.926 75.3511C239.108 74.8254 239.349 74.3771 239.648 74.0063C239.952 73.63 240.32 73.3451 240.752 73.1514C241.184 72.9521 241.682 72.8525 242.246 72.8525C242.811 72.8525 243.311 72.9632 243.749 73.1846C244.186 73.4004 244.554 73.7103 244.853 74.1143C245.151 74.5182 245.375 75.0024 245.525 75.5669C245.68 76.1258 245.757 76.7484 245.757 77.4346ZM244.213 77.6089V77.4346C244.213 76.9863 244.166 76.5658 244.072 76.1729C243.978 75.7744 243.832 75.4258 243.632 75.127C243.439 74.8226 243.19 74.5846 242.885 74.4131C242.581 74.236 242.218 74.1475 241.798 74.1475C241.41 74.1475 241.073 74.2139 240.785 74.3467C240.503 74.4795 240.262 74.6593 240.063 74.8862C239.864 75.1076 239.701 75.3621 239.573 75.6499C239.451 75.9321 239.36 76.2254 239.299 76.5298V78.6797C239.41 79.0671 239.565 79.4323 239.764 79.7754C239.963 80.113 240.229 80.3869 240.561 80.5972C240.893 80.8019 241.311 80.9043 241.814 80.9043C242.229 80.9043 242.586 80.8185 242.885 80.647C243.19 80.4699 243.439 80.2292 243.632 79.9248C243.832 79.6204 243.978 79.2718 244.072 78.8789C244.166 78.4805 244.213 78.0571 244.213 77.6089ZM253.012 80.4644V75.8408C253.012 75.4867 252.94 75.1795 252.796 74.9194C252.658 74.6538 252.448 74.4491 252.166 74.3052C251.883 74.1613 251.535 74.0894 251.12 74.0894C250.732 74.0894 250.392 74.1558 250.099 74.2886C249.811 74.4214 249.584 74.5957 249.418 74.8115C249.257 75.0273 249.177 75.2598 249.177 75.5088H247.642C247.642 75.1878 247.725 74.8696 247.891 74.5542C248.057 74.2388 248.295 73.9538 248.604 73.6992C248.92 73.4391 249.296 73.2344 249.733 73.085C250.176 72.93 250.669 72.8525 251.211 72.8525C251.864 72.8525 252.439 72.9632 252.938 73.1846C253.441 73.4059 253.834 73.7407 254.116 74.189C254.404 74.6317 254.548 75.1878 254.548 75.8574V80.041C254.548 80.3398 254.573 80.658 254.623 80.9956C254.678 81.3332 254.758 81.6237 254.863 81.8672V82H253.261C253.184 81.8229 253.123 81.5877 253.079 81.2944C253.034 80.9956 253.012 80.7189 253.012 80.4644ZM253.278 76.5547L253.294 77.6338H251.742C251.305 77.6338 250.915 77.6698 250.572 77.7417C250.229 77.8081 249.941 77.9105 249.708 78.0488C249.476 78.1872 249.299 78.3615 249.177 78.5718C249.056 78.7765 248.995 79.0173 248.995 79.2939C248.995 79.5762 249.058 79.8335 249.186 80.0659C249.313 80.2983 249.504 80.4837 249.758 80.6221C250.018 80.7549 250.337 80.8213 250.713 80.8213C251.183 80.8213 251.598 80.7217 251.958 80.5225C252.318 80.3232 252.603 80.0798 252.813 79.792C253.029 79.5042 253.145 79.2248 253.162 78.9536L253.817 79.6924C253.779 79.9248 253.674 80.1821 253.502 80.4644C253.33 80.7466 253.101 81.0177 252.813 81.2778C252.531 81.5324 252.193 81.7454 251.8 81.917C251.413 82.083 250.976 82.166 250.489 82.166C249.88 82.166 249.346 82.047 248.887 81.8091C248.433 81.5711 248.079 81.2529 247.824 80.8545C247.575 80.4505 247.451 79.9995 247.451 79.5015C247.451 79.02 247.545 78.5967 247.733 78.2314C247.921 77.8607 248.192 77.5535 248.546 77.3101C248.901 77.061 249.327 76.8729 249.825 76.7456C250.323 76.6183 250.879 76.5547 251.493 76.5547H253.278ZM262.724 69.1089H263.986C263.986 69.6512 263.903 70.0828 263.737 70.4038C263.571 70.7192 263.344 70.9627 263.056 71.1343C262.774 71.3058 262.453 71.4359 262.093 71.5244C261.739 71.613 261.371 71.6987 260.989 71.7817C260.513 71.8813 260.071 72.0391 259.661 72.2549C259.257 72.4652 258.909 72.764 258.615 73.1514C258.327 73.5387 258.114 74.0423 257.976 74.6621C257.843 75.2819 257.807 76.0483 257.868 76.9614V77.7251H256.606V76.9614C256.606 75.9377 256.703 75.0439 256.897 74.2803C257.096 73.5166 257.376 72.8719 257.735 72.3462C258.095 71.8205 258.521 71.4027 259.014 71.0928C259.512 70.7829 260.06 70.5698 260.657 70.4536C261.089 70.3706 261.46 70.2821 261.77 70.188C262.079 70.0884 262.315 69.9556 262.475 69.7896C262.641 69.6235 262.724 69.3966 262.724 69.1089ZM260.906 73.5332C261.493 73.5332 262.016 73.6356 262.475 73.8403C262.934 74.0451 263.325 74.3301 263.646 74.6953C263.966 75.0605 264.21 75.4922 264.376 75.9902C264.548 76.4827 264.633 77.0195 264.633 77.6006V77.7832C264.633 78.4085 264.542 78.9896 264.359 79.5264C264.182 80.0576 263.919 80.5225 263.571 80.9209C263.228 81.3138 262.807 81.6209 262.309 81.8423C261.817 82.0636 261.255 82.1743 260.624 82.1743C259.993 82.1743 259.429 82.0636 258.931 81.8423C258.438 81.6209 258.018 81.3138 257.669 80.9209C257.32 80.5225 257.055 80.0576 256.872 79.5264C256.695 78.9896 256.606 78.4085 256.606 77.7832V77.6006C256.606 77.4622 256.631 77.3267 256.681 77.1938C256.731 77.061 256.792 76.9255 256.864 76.7871C256.941 76.6488 257.01 76.5021 257.071 76.3472C257.276 75.8491 257.556 75.387 257.91 74.9609C258.269 74.5348 258.698 74.1917 259.196 73.9316C259.7 73.666 260.27 73.5332 260.906 73.5332ZM260.607 74.7866C260.043 74.7866 259.578 74.9167 259.213 75.1768C258.853 75.4368 258.585 75.7827 258.408 76.2144C258.231 76.6405 258.142 77.1025 258.142 77.6006V77.7832C258.142 78.2038 258.192 78.6022 258.292 78.9785C258.391 79.3548 258.541 79.6896 258.74 79.9829C258.944 80.2707 259.202 80.4976 259.512 80.6636C259.827 80.8296 260.198 80.9126 260.624 80.9126C261.05 80.9126 261.418 80.8296 261.728 80.6636C262.038 80.4976 262.292 80.2707 262.492 79.9829C262.691 79.6896 262.84 79.3548 262.94 78.9785C263.04 78.6022 263.089 78.2038 263.089 77.7832V77.6006C263.089 77.2243 263.04 76.8674 262.94 76.5298C262.84 76.1922 262.688 75.8934 262.483 75.6333C262.284 75.3732 262.027 75.1685 261.711 75.019C261.402 74.8641 261.034 74.7866 260.607 74.7866ZM265.97 77.6089V77.418C265.97 76.7705 266.064 76.1701 266.252 75.6167C266.44 75.0578 266.711 74.5736 267.065 74.1641C267.42 73.749 267.848 73.4281 268.352 73.2012C268.856 72.9688 269.42 72.8525 270.045 72.8525C270.676 72.8525 271.243 72.9688 271.747 73.2012C272.256 73.4281 272.688 73.749 273.042 74.1641C273.402 74.5736 273.676 75.0578 273.864 75.6167C274.052 76.1701 274.146 76.7705 274.146 77.418V77.6089C274.146 78.2563 274.052 78.8568 273.864 79.4102C273.676 79.9635 273.402 80.4478 273.042 80.8628C272.688 81.2723 272.259 81.5933 271.755 81.8257C271.257 82.0526 270.693 82.166 270.062 82.166C269.431 82.166 268.864 82.0526 268.36 81.8257C267.857 81.5933 267.425 81.2723 267.065 80.8628C266.711 80.4478 266.44 79.9635 266.252 79.4102C266.064 78.8568 265.97 78.2563 265.97 77.6089ZM267.505 77.418V77.6089C267.505 78.0571 267.558 78.4805 267.663 78.8789C267.768 79.2718 267.926 79.6204 268.136 79.9248C268.352 80.2292 268.62 80.4699 268.941 80.647C269.262 80.8185 269.636 80.9043 270.062 80.9043C270.483 80.9043 270.851 80.8185 271.166 80.647C271.487 80.4699 271.753 80.2292 271.963 79.9248C272.173 79.6204 272.331 79.2718 272.436 78.8789C272.547 78.4805 272.602 78.0571 272.602 77.6089V77.418C272.602 76.9753 272.547 76.5575 272.436 76.1646C272.331 75.7661 272.17 75.4147 271.955 75.1104C271.744 74.8005 271.479 74.557 271.158 74.3799C270.842 74.2028 270.472 74.1143 270.045 74.1143C269.625 74.1143 269.254 74.2028 268.933 74.3799C268.618 74.557 268.352 74.8005 268.136 75.1104C267.926 75.4147 267.768 75.7661 267.663 76.1646C267.558 76.5575 267.505 76.9753 267.505 77.418ZM279.55 73.0186V82H278.006V73.0186H279.55ZM282.563 73.0186V74.2637H275.051V73.0186H282.563ZM285.335 76.1064H288.033C288.758 76.1064 289.37 76.2337 289.868 76.4883C290.366 76.7373 290.742 77.0832 290.997 77.5259C291.257 77.9631 291.387 78.4611 291.387 79.02C291.387 79.4351 291.315 79.8252 291.171 80.1904C291.027 80.5501 290.811 80.8656 290.523 81.1367C290.241 81.4079 289.89 81.6209 289.469 81.7759C289.054 81.9253 288.576 82 288.033 82H284.215V73.0186H285.75V80.7383H288.033C288.476 80.7383 288.83 80.658 289.096 80.4976C289.361 80.3371 289.552 80.1296 289.668 79.875C289.785 79.6204 289.843 79.3548 289.843 79.0781C289.843 78.807 289.785 78.5413 289.668 78.2812C289.552 78.0212 289.361 77.8053 289.096 77.6338C288.83 77.4567 288.476 77.3682 288.033 77.3682H285.335V76.1064ZM294.583 73.0186V82H293.047V73.0186H294.583Z" fill="black"/>
<defs>
<filter id="filter0_d_804_876" x="0.0515137" y="12.0862" width="106.191" height="106.163" filterUnits="userSpaceOnUse" color-interpolation-filters="sRGB">
<feFlood flood-opacity="0" result="BackgroundImageFix"/>
<feColorMatrix in="SourceAlpha" type="matrix" values="0 0 0 0 0 0 0 0 0 0 0 0 0 0 0 0 0 0 127 0" result="hardAlpha"/>
<feOffset/>
<feGaussianBlur stdDeviation="12"/>
<feComposite in2="hardAlpha" operator="out"/>
<feColorMatrix type="matrix" values="0 0 0 0 0.579167 0 0 0 0 0.579167 0 0 0 0 0.579167 0 0 0 0.3 0"/>
<feBlend mode="normal" in2="BackgroundImageFix" result="effect1_dropShadow_804_876"/>
<feBlend mode="normal" in="SourceGraphic" in2="effect1_dropShadow_804_876" result="shape"/>
</filter>
</defs>
</svg>
