<svg width="346" height="84" viewBox="0 0 346 84" fill="none" xmlns="http://www.w3.org/2000/svg">
<g filter="url(#filter0_d_315_282)">
<path d="M316.5 54.4998C323.404 47.5962 323.404 36.4033 316.5 29.4997C309.596 22.5962 298.404 22.5962 291.5 29.4998C284.596 36.4033 284.596 47.5962 291.5 54.4998C298.404 61.4033 309.596 61.4033 316.5 54.4998Z" fill="white"/>
</g>
<path d="M309.526 41.9979C309.529 43.045 309.222 44.0697 308.643 44.9426C308.065 45.8155 307.241 46.4976 306.276 46.9028C305.31 47.308 304.246 47.4183 303.218 47.2196C302.19 47.0209 301.244 46.5222 300.499 45.7863C299.754 45.0505 299.243 44.1106 299.032 43.085C298.82 42.0594 298.917 40.9942 299.31 40.0237C299.703 39.0531 300.375 38.2208 301.241 37.6315C302.106 37.0423 303.127 36.7226 304.174 36.7128C304.874 36.704 305.568 36.8343 306.217 37.0959C306.866 37.3576 307.456 37.7455 307.954 38.2372C308.452 38.7288 308.847 39.3144 309.117 39.96C309.387 40.6055 309.526 41.2982 309.526 41.9979V41.9979Z" fill="#00A3FF"/>
<path d="M304.24 44.0687C305.384 44.0687 306.311 43.1415 306.311 41.9977C306.311 40.854 305.384 39.9268 304.24 39.9268C303.096 39.9268 302.169 40.854 302.169 41.9977C302.169 43.1415 303.096 44.0687 304.24 44.0687Z" fill="white"/>
<path d="M53.0456 59.6732C62.811 49.9124 62.811 34.0871 53.0455 24.3263C43.2801 14.5655 27.4473 14.5655 17.6819 24.3263C7.91646 34.087 7.91643 49.9124 17.6819 59.6732C27.4473 69.434 43.2802 69.434 53.0456 59.6732Z" fill="#00A3FF"/>
<path d="M38.2539 41.7468C38.3353 41.7794 38.4451 41.8282 38.5835 41.8933C38.73 41.9503 38.9823 42.0968 39.3403 42.3328C39.6984 42.5606 40.0117 42.8251 40.2803 43.1262C40.557 43.4273 40.8092 43.8464 41.0371 44.3835C41.265 44.9125 41.3789 45.4944 41.3789 46.1292C41.3789 47.5614 40.7808 48.7944 39.5845 49.8279C38.3963 50.8614 36.8257 51.3782 34.8726 51.3782C34.0425 51.3782 33.2409 51.2805 32.4678 51.0852C31.7028 50.898 31.0762 50.6702 30.5879 50.4016C30.0996 50.1331 29.6683 49.8686 29.2939 49.6082C28.9277 49.3396 28.6632 49.1036 28.5005 48.9001L28.2441 48.6194L30.5024 46.2512C30.535 46.3 30.5879 46.3692 30.6611 46.4587C30.7344 46.5401 30.9012 46.6907 31.1616 46.9104C31.422 47.122 31.6947 47.3132 31.9795 47.4841C32.2725 47.6469 32.6427 47.7934 33.0903 47.9236C33.5461 48.0538 34.014 48.1189 34.4941 48.1189C35.4626 48.1189 36.2031 47.9073 36.7158 47.4841C37.2367 47.061 37.4971 46.5238 37.4971 45.8728C37.4971 45.2218 37.2407 44.6847 36.728 44.2615C36.2235 43.8383 35.5236 43.6267 34.6284 43.6267H32.7485V40.5017H34.4941C35.2266 40.5017 35.8044 40.3064 36.2275 39.9158C36.6589 39.5251 36.8745 39.0125 36.8745 38.3777C36.8745 37.7917 36.6629 37.3116 36.2397 36.9373C35.8166 36.5629 35.2347 36.3757 34.4941 36.3757C33.8594 36.3757 33.2612 36.5141 32.6997 36.7908C32.1463 37.0675 31.7476 37.336 31.5034 37.5964L31.125 37.9993L28.8789 35.7532C28.9277 35.6881 29.001 35.5986 29.0986 35.4846C29.1963 35.3625 29.4282 35.1469 29.7944 34.8376C30.1688 34.5284 30.5675 34.2639 30.9907 34.0442C31.4139 33.8163 31.9754 33.6088 32.6753 33.4216C33.3752 33.2263 34.1076 33.1287 34.8726 33.1287C36.6385 33.1287 38.0586 33.5966 39.1328 34.5325C40.207 35.4602 40.7441 36.6158 40.7441 37.9993C40.7441 38.512 40.6546 38.9921 40.4756 39.4397C40.3047 39.8792 40.0972 40.2372 39.853 40.5139C39.617 40.7906 39.377 41.0266 39.1328 41.2219C38.8968 41.4091 38.6852 41.5434 38.498 41.6248L38.2539 41.7468Z" fill="white"/>
<path d="M114.703 17.3442H112.181L112.167 16.2847H114.457C114.835 16.2847 115.166 16.2209 115.448 16.0933C115.731 15.9657 115.95 15.7834 116.104 15.5464C116.264 15.3049 116.344 15.0177 116.344 14.6851C116.344 14.3205 116.273 14.0243 116.132 13.7964C115.995 13.564 115.783 13.3953 115.496 13.2905C115.214 13.1812 114.854 13.1265 114.416 13.1265H112.475V21.9995H111.155V12.0464H114.416C114.926 12.0464 115.382 12.0988 115.783 12.2036C116.184 12.3039 116.524 12.4634 116.802 12.6821C117.084 12.8963 117.299 13.1698 117.444 13.5024C117.59 13.8351 117.663 14.2339 117.663 14.6987C117.663 15.1089 117.558 15.4803 117.349 15.813C117.139 16.1411 116.847 16.41 116.474 16.6196C116.104 16.8293 115.672 16.9637 115.175 17.0229L114.703 17.3442ZM114.642 21.9995H111.661L112.406 20.9263H114.642C115.061 20.9263 115.416 20.8534 115.708 20.7075C116.004 20.5617 116.23 20.3566 116.385 20.0923C116.54 19.8234 116.617 19.5067 116.617 19.1421C116.617 18.7729 116.551 18.4539 116.419 18.1851C116.287 17.9162 116.079 17.7088 115.797 17.563C115.514 17.4172 115.15 17.3442 114.703 17.3442H112.823L112.837 16.2847H115.407L115.688 16.6675C116.166 16.7085 116.572 16.8452 116.904 17.0776C117.237 17.3055 117.49 17.5972 117.663 17.9526C117.841 18.3081 117.93 18.7 117.93 19.1284C117.93 19.7482 117.793 20.2723 117.52 20.7007C117.251 21.1245 116.87 21.4481 116.378 21.6714C115.886 21.8901 115.307 21.9995 114.642 21.9995ZM120.726 17.146H122.947C123.544 17.146 124.048 17.2508 124.458 17.4604C124.868 17.6655 125.178 17.9504 125.388 18.3149C125.602 18.675 125.709 19.0851 125.709 19.5454C125.709 19.8872 125.65 20.2085 125.531 20.5093C125.413 20.8055 125.235 21.0653 124.998 21.2886C124.766 21.5119 124.476 21.6873 124.13 21.8149C123.788 21.938 123.394 21.9995 122.947 21.9995H119.803V14.603H121.067V20.9604H122.947C123.312 20.9604 123.604 20.8944 123.822 20.7622C124.041 20.63 124.198 20.4591 124.294 20.2495C124.39 20.0399 124.438 19.8211 124.438 19.5933C124.438 19.37 124.39 19.1512 124.294 18.937C124.198 18.7228 124.041 18.5451 123.822 18.4038C123.604 18.258 123.312 18.1851 122.947 18.1851H120.726V17.146ZM128.341 14.603V21.9995H127.076V14.603H128.341ZM135.3 11.3833H136.339C136.339 11.8299 136.271 12.1854 136.134 12.4497C135.997 12.7095 135.81 12.91 135.573 13.0513C135.341 13.1925 135.076 13.2996 134.78 13.3726C134.489 13.4455 134.186 13.5161 133.871 13.5845C133.479 13.6665 133.115 13.7964 132.777 13.9741C132.445 14.1473 132.158 14.3934 131.916 14.7124C131.679 15.0314 131.504 15.4461 131.39 15.9565C131.28 16.467 131.251 17.0981 131.301 17.8501V18.479H130.262V17.8501C130.262 17.007 130.341 16.271 130.501 15.6421C130.665 15.0132 130.895 14.4823 131.191 14.0493C131.488 13.6164 131.839 13.2723 132.244 13.0171C132.654 12.7619 133.105 12.5864 133.598 12.4907C133.953 12.4224 134.258 12.3494 134.514 12.272C134.769 12.1899 134.963 12.0806 135.095 11.9438C135.231 11.8071 135.3 11.6203 135.3 11.3833ZM133.803 15.0269C134.286 15.0269 134.716 15.1112 135.095 15.2798C135.473 15.4484 135.794 15.6831 136.059 15.9839C136.323 16.2847 136.523 16.6401 136.66 17.0503C136.801 17.4559 136.872 17.8979 136.872 18.3765V18.5269C136.872 19.0418 136.797 19.5203 136.646 19.9624C136.501 20.3999 136.284 20.7827 135.997 21.1108C135.715 21.4344 135.368 21.6873 134.958 21.8696C134.552 22.0519 134.09 22.1431 133.57 22.1431C133.051 22.1431 132.586 22.0519 132.176 21.8696C131.77 21.6873 131.424 21.4344 131.137 21.1108C130.85 20.7827 130.631 20.3999 130.48 19.9624C130.335 19.5203 130.262 19.0418 130.262 18.5269V18.3765C130.262 18.2625 130.282 18.1509 130.323 18.0415C130.364 17.9321 130.414 17.8205 130.474 17.7065C130.537 17.5926 130.594 17.4718 130.645 17.3442C130.813 16.9341 131.043 16.5535 131.335 16.2026C131.631 15.8517 131.984 15.5692 132.395 15.355C132.809 15.1362 133.279 15.0269 133.803 15.0269ZM133.557 16.0591C133.092 16.0591 132.709 16.1662 132.408 16.3804C132.112 16.5946 131.891 16.8794 131.745 17.2349C131.599 17.5858 131.526 17.9663 131.526 18.3765V18.5269C131.526 18.8732 131.567 19.2013 131.649 19.5112C131.731 19.8211 131.854 20.0968 132.019 20.3384C132.187 20.5754 132.399 20.7622 132.654 20.8989C132.914 21.0356 133.219 21.104 133.57 21.104C133.921 21.104 134.224 21.0356 134.479 20.8989C134.735 20.7622 134.944 20.5754 135.108 20.3384C135.272 20.0968 135.396 19.8211 135.478 19.5112C135.56 19.2013 135.601 18.8732 135.601 18.5269V18.3765C135.601 18.0666 135.56 17.7726 135.478 17.4946C135.396 17.2166 135.27 16.9705 135.102 16.7563C134.938 16.5422 134.726 16.3735 134.466 16.2505C134.211 16.1229 133.908 16.0591 133.557 16.0591ZM137.973 18.3833V18.2261C137.973 17.6929 138.05 17.1984 138.205 16.7427C138.36 16.2824 138.583 15.8836 138.875 15.5464C139.167 15.2046 139.52 14.9403 139.935 14.7534C140.349 14.562 140.814 14.4663 141.329 14.4663C141.849 14.4663 142.316 14.562 142.73 14.7534C143.15 14.9403 143.505 15.2046 143.797 15.5464C144.093 15.8836 144.319 16.2824 144.474 16.7427C144.629 17.1984 144.706 17.6929 144.706 18.2261V18.3833C144.706 18.9165 144.629 19.411 144.474 19.8667C144.319 20.3224 144.093 20.7212 143.797 21.063C143.505 21.4002 143.152 21.6646 142.737 21.856C142.327 22.0428 141.862 22.1362 141.343 22.1362C140.823 22.1362 140.356 22.0428 139.941 21.856C139.527 21.6646 139.171 21.4002 138.875 21.063C138.583 20.7212 138.36 20.3224 138.205 19.8667C138.05 19.411 137.973 18.9165 137.973 18.3833ZM139.237 18.2261V18.3833C139.237 18.7524 139.281 19.1011 139.367 19.4292C139.454 19.7528 139.584 20.0399 139.757 20.2905C139.935 20.5412 140.156 20.7394 140.42 20.8853C140.684 21.0265 140.992 21.0972 141.343 21.0972C141.689 21.0972 141.992 21.0265 142.252 20.8853C142.516 20.7394 142.735 20.5412 142.908 20.2905C143.081 20.0399 143.211 19.7528 143.298 19.4292C143.389 19.1011 143.435 18.7524 143.435 18.3833V18.2261C143.435 17.8615 143.389 17.5174 143.298 17.1938C143.211 16.8657 143.079 16.5763 142.901 16.3257C142.728 16.0705 142.509 15.87 142.245 15.7241C141.985 15.5783 141.68 15.5054 141.329 15.5054C140.983 15.5054 140.677 15.5783 140.413 15.7241C140.153 15.87 139.935 16.0705 139.757 16.3257C139.584 16.5763 139.454 16.8657 139.367 17.1938C139.281 17.5174 139.237 17.8615 139.237 18.2261ZM147.557 16.0249V24.8433H146.285V14.603H147.447L147.557 16.0249ZM152.54 18.2397V18.3833C152.54 18.9211 152.476 19.4201 152.349 19.8804C152.221 20.3361 152.034 20.7326 151.788 21.0698C151.547 21.4071 151.248 21.6691 150.893 21.856C150.537 22.0428 150.129 22.1362 149.669 22.1362C149.2 22.1362 148.785 22.0588 148.425 21.9038C148.065 21.7489 147.759 21.5233 147.509 21.2271C147.258 20.9308 147.058 20.5754 146.907 20.1606C146.761 19.7459 146.661 19.2788 146.606 18.7593V17.9937C146.661 17.4468 146.764 16.9569 146.914 16.5239C147.064 16.091 147.263 15.7218 147.509 15.4165C147.759 15.1066 148.062 14.8719 148.418 14.7124C148.773 14.5483 149.184 14.4663 149.648 14.4663C150.113 14.4663 150.526 14.5575 150.886 14.7397C151.246 14.9175 151.549 15.1727 151.795 15.5054C152.041 15.8381 152.226 16.2368 152.349 16.7017C152.476 17.1619 152.54 17.6746 152.54 18.2397ZM151.269 18.3833V18.2397C151.269 17.8706 151.23 17.5243 151.152 17.2007C151.075 16.8726 150.954 16.5854 150.79 16.3394C150.631 16.0887 150.425 15.8927 150.175 15.7515C149.924 15.6056 149.626 15.5327 149.279 15.5327C148.96 15.5327 148.682 15.5874 148.445 15.6968C148.213 15.8062 148.015 15.9543 147.851 16.1411C147.687 16.3234 147.552 16.533 147.447 16.77C147.347 17.0024 147.272 17.244 147.222 17.4946V19.2651C147.313 19.5841 147.44 19.8849 147.604 20.1675C147.769 20.4455 147.987 20.6711 148.261 20.8442C148.534 21.0129 148.878 21.0972 149.293 21.0972C149.635 21.0972 149.929 21.0265 150.175 20.8853C150.425 20.7394 150.631 20.5412 150.79 20.2905C150.954 20.0399 151.075 19.7528 151.152 19.4292C151.23 19.1011 151.269 18.7524 151.269 18.3833ZM162.644 17.8091V18.8345H158.733V17.8091H162.644ZM159 14.603V21.9995H157.735V14.603H159ZM163.669 14.603V21.9995H162.397V14.603H163.669ZM167.073 19.9966L170.484 14.603H171.756V21.9995H170.484V16.606L167.073 21.9995H165.815V14.603H167.073V19.9966ZM173.896 14.603H175.16V20.9604H177.867V14.603H179.139V20.9604H181.839V14.603H183.104V21.9995H173.896V14.603ZM186.487 19.9966L189.898 14.603H191.17V21.9995H189.898V16.606L186.487 21.9995H185.229V14.603H186.487V19.9966ZM194.349 20.4956V21.5142C194.349 21.9289 194.244 22.3664 194.034 22.8267C193.825 23.2915 193.531 23.6789 193.152 23.9888L192.435 23.4897C192.58 23.2892 192.703 23.0841 192.804 22.8745C192.904 22.6694 192.979 22.4552 193.029 22.2319C193.084 22.0132 193.111 21.7808 193.111 21.5347V20.4956H194.349ZM115.893 34.603V35.6489H112.153V34.603H115.893ZM112.338 34.603V41.9995H111.073V34.603H112.338ZM117.014 34.603V41.9995H115.742V34.603H117.014ZM118.709 38.3833V38.2261C118.709 37.6929 118.786 37.1984 118.941 36.7427C119.096 36.2824 119.32 35.8836 119.611 35.5464C119.903 35.2046 120.256 34.9403 120.671 34.7534C121.086 34.562 121.55 34.4663 122.065 34.4663C122.585 34.4663 123.052 34.562 123.467 34.7534C123.886 34.9403 124.242 35.2046 124.533 35.5464C124.829 35.8836 125.055 36.2824 125.21 36.7427C125.365 37.1984 125.442 37.6929 125.442 38.2261V38.3833C125.442 38.9165 125.365 39.411 125.21 39.8667C125.055 40.3224 124.829 40.7212 124.533 41.063C124.242 41.4002 123.888 41.6646 123.474 41.856C123.063 42.0428 122.599 42.1362 122.079 42.1362C121.56 42.1362 121.092 42.0428 120.678 41.856C120.263 41.6646 119.908 41.4002 119.611 41.063C119.32 40.7212 119.096 40.3224 118.941 39.8667C118.786 39.411 118.709 38.9165 118.709 38.3833ZM119.974 38.2261V38.3833C119.974 38.7524 120.017 39.1011 120.104 39.4292C120.19 39.7528 120.32 40.0399 120.493 40.2905C120.671 40.5412 120.892 40.7394 121.156 40.8853C121.421 41.0265 121.728 41.0972 122.079 41.0972C122.425 41.0972 122.729 41.0265 122.988 40.8853C123.253 40.7394 123.471 40.5412 123.645 40.2905C123.818 40.0399 123.948 39.7528 124.034 39.4292C124.125 39.1011 124.171 38.7524 124.171 38.3833V38.2261C124.171 37.8615 124.125 37.5174 124.034 37.1938C123.948 36.8657 123.815 36.5763 123.638 36.3257C123.465 36.0705 123.246 35.87 122.981 35.7241C122.722 35.5783 122.416 35.5054 122.065 35.5054C121.719 35.5054 121.414 35.5783 121.149 35.7241C120.89 35.87 120.671 36.0705 120.493 36.3257C120.32 36.5763 120.19 36.8657 120.104 37.1938C120.017 37.5174 119.974 37.8615 119.974 38.2261ZM129.988 41.0972C130.289 41.0972 130.567 41.0356 130.822 40.9126C131.077 40.7896 131.287 40.6209 131.451 40.4067C131.615 40.188 131.709 39.9396 131.731 39.6616H132.935C132.912 40.0991 132.764 40.507 132.49 40.8853C132.221 41.259 131.868 41.562 131.431 41.7944C130.993 42.0223 130.512 42.1362 129.988 42.1362C129.432 42.1362 128.947 42.0382 128.532 41.8423C128.122 41.6463 127.78 41.3774 127.507 41.0356C127.238 40.6938 127.035 40.3019 126.898 39.8599C126.766 39.4132 126.7 38.9416 126.7 38.4448V38.1577C126.7 37.661 126.766 37.1916 126.898 36.7495C127.035 36.3029 127.238 35.9087 127.507 35.5669C127.78 35.2251 128.122 34.9562 128.532 34.7603C128.947 34.5643 129.432 34.4663 129.988 34.4663C130.567 34.4663 131.073 34.5848 131.506 34.8218C131.939 35.0542 132.278 35.3732 132.524 35.7788C132.775 36.1799 132.912 36.6356 132.935 37.146H131.731C131.709 36.8407 131.622 36.5649 131.472 36.3188C131.326 36.0728 131.125 35.8768 130.87 35.731C130.619 35.5806 130.326 35.5054 129.988 35.5054C129.601 35.5054 129.275 35.5828 129.011 35.7378C128.751 35.8882 128.544 36.0933 128.389 36.353C128.238 36.6082 128.129 36.8931 128.061 37.2075C127.997 37.5174 127.965 37.8341 127.965 38.1577V38.4448C127.965 38.7684 127.997 39.0874 128.061 39.4019C128.124 39.7163 128.231 40.0011 128.382 40.2563C128.537 40.5116 128.744 40.7166 129.004 40.8716C129.268 41.022 129.596 41.0972 129.988 41.0972ZM135.621 36.0249V44.8433H134.35V34.603H135.512L135.621 36.0249ZM140.604 38.2397V38.3833C140.604 38.9211 140.541 39.4201 140.413 39.8804C140.285 40.3361 140.099 40.7326 139.853 41.0698C139.611 41.4071 139.312 41.6691 138.957 41.856C138.602 42.0428 138.194 42.1362 137.733 42.1362C137.264 42.1362 136.849 42.0588 136.489 41.9038C136.129 41.7489 135.824 41.5233 135.573 41.2271C135.323 40.9308 135.122 40.5754 134.972 40.1606C134.826 39.7459 134.726 39.2788 134.671 38.7593V37.9937C134.726 37.4468 134.828 36.9569 134.979 36.5239C135.129 36.091 135.327 35.7218 135.573 35.4165C135.824 35.1066 136.127 34.8719 136.482 34.7124C136.838 34.5483 137.248 34.4663 137.713 34.4663C138.178 34.4663 138.59 34.5575 138.95 34.7397C139.31 34.9175 139.613 35.1727 139.859 35.5054C140.105 35.8381 140.29 36.2368 140.413 36.7017C140.541 37.1619 140.604 37.6746 140.604 38.2397ZM139.333 38.3833V38.2397C139.333 37.8706 139.294 37.5243 139.217 37.2007C139.139 36.8726 139.019 36.5854 138.854 36.3394C138.695 36.0887 138.49 35.8927 138.239 35.7515C137.989 35.6056 137.69 35.5327 137.344 35.5327C137.025 35.5327 136.747 35.5874 136.51 35.6968C136.277 35.8062 136.079 35.9543 135.915 36.1411C135.751 36.3234 135.617 36.533 135.512 36.77C135.411 37.0024 135.336 37.244 135.286 37.4946V39.2651C135.377 39.5841 135.505 39.8849 135.669 40.1675C135.833 40.4455 136.052 40.6711 136.325 40.8442C136.599 41.0129 136.943 41.0972 137.357 41.0972C137.699 41.0972 137.993 41.0265 138.239 40.8853C138.49 40.7394 138.695 40.5412 138.854 40.2905C139.019 40.0399 139.139 39.7528 139.217 39.4292C139.294 39.1011 139.333 38.7524 139.333 38.3833ZM145.287 42.1362C144.772 42.1362 144.305 42.0496 143.886 41.8765C143.471 41.6987 143.113 41.4504 142.812 41.1313C142.516 40.8123 142.288 40.4341 142.129 39.9966C141.969 39.5591 141.89 39.0806 141.89 38.561V38.2739C141.89 37.6724 141.979 37.1369 142.156 36.6675C142.334 36.1935 142.576 35.7925 142.881 35.4644C143.186 35.1362 143.533 34.8879 143.92 34.7192C144.307 34.5506 144.708 34.4663 145.123 34.4663C145.652 34.4663 146.107 34.5575 146.49 34.7397C146.878 34.922 147.194 35.1772 147.44 35.5054C147.687 35.8289 147.869 36.2118 147.987 36.6538C148.106 37.0913 148.165 37.5698 148.165 38.0894V38.6567H142.642V37.6245H146.9V37.5288C146.882 37.2007 146.814 36.8817 146.695 36.5718C146.581 36.2619 146.399 36.0067 146.148 35.8062C145.898 35.6056 145.556 35.5054 145.123 35.5054C144.836 35.5054 144.572 35.5669 144.33 35.6899C144.089 35.8084 143.881 35.9862 143.708 36.2231C143.535 36.4601 143.4 36.7495 143.305 37.0913C143.209 37.4331 143.161 37.8273 143.161 38.2739V38.561C143.161 38.9119 143.209 39.2424 143.305 39.5522C143.405 39.8576 143.549 40.1265 143.735 40.3589C143.927 40.5913 144.157 40.7736 144.426 40.9058C144.699 41.0379 145.009 41.104 145.355 41.104C145.802 41.104 146.18 41.0129 146.49 40.8306C146.8 40.6483 147.071 40.4045 147.304 40.0991L148.069 40.7075C147.91 40.9491 147.707 41.1792 147.461 41.3979C147.215 41.6167 146.912 41.7944 146.552 41.9312C146.196 42.0679 145.775 42.1362 145.287 42.1362ZM150.975 34.603H152.239L152.13 37.3716C152.103 38.0734 152.023 38.6795 151.891 39.1899C151.758 39.7004 151.59 40.1356 151.385 40.4956C151.18 40.8511 150.95 41.1496 150.694 41.3911C150.444 41.6326 150.184 41.8354 149.915 41.9995H149.286L149.32 40.9673L149.58 40.9604C149.73 40.7827 149.876 40.6004 150.018 40.4136C150.159 40.2222 150.289 39.9966 150.407 39.7368C150.526 39.4725 150.624 39.1512 150.701 38.7729C150.783 38.3901 150.836 37.923 150.858 37.3716L150.975 34.603ZM151.289 34.603H155.739V41.9995H154.475V35.772H151.289V34.603ZM148.999 40.9604H156.689V44.1802H155.425V41.9995H150.264V44.1802H148.992L148.999 40.9604ZM161.051 41.0972C161.352 41.0972 161.63 41.0356 161.885 40.9126C162.14 40.7896 162.35 40.6209 162.514 40.4067C162.678 40.188 162.771 39.9396 162.794 39.6616H163.997C163.974 40.0991 163.826 40.507 163.553 40.8853C163.284 41.259 162.931 41.562 162.493 41.7944C162.056 42.0223 161.575 42.1362 161.051 42.1362C160.495 42.1362 160.009 42.0382 159.595 41.8423C159.185 41.6463 158.843 41.3774 158.569 41.0356C158.3 40.6938 158.098 40.3019 157.961 39.8599C157.829 39.4132 157.763 38.9416 157.763 38.4448V38.1577C157.763 37.661 157.829 37.1916 157.961 36.7495C158.098 36.3029 158.3 35.9087 158.569 35.5669C158.843 35.2251 159.185 34.9562 159.595 34.7603C160.009 34.5643 160.495 34.4663 161.051 34.4663C161.63 34.4663 162.135 34.5848 162.568 34.8218C163.001 35.0542 163.341 35.3732 163.587 35.7788C163.838 36.1799 163.974 36.6356 163.997 37.146H162.794C162.771 36.8407 162.685 36.5649 162.534 36.3188C162.388 36.0728 162.188 35.8768 161.933 35.731C161.682 35.5806 161.388 35.5054 161.051 35.5054C160.663 35.5054 160.338 35.5828 160.073 35.7378C159.813 35.8882 159.606 36.0933 159.451 36.353C159.301 36.6082 159.191 36.8931 159.123 37.2075C159.059 37.5174 159.027 37.8341 159.027 38.1577V38.4448C159.027 38.7684 159.059 39.0874 159.123 39.4019C159.187 39.7163 159.294 40.0011 159.444 40.2563C159.599 40.5116 159.807 40.7166 160.066 40.8716C160.331 41.022 160.659 41.0972 161.051 41.0972ZM168.434 34.603V41.9995H167.162V34.603H168.434ZM170.915 34.603V35.6284H164.729V34.603H170.915ZM175.632 38.7456H173.205L173.191 37.7339H175.174C175.566 37.7339 175.892 37.6951 176.151 37.6177C176.416 37.5402 176.614 37.424 176.746 37.269C176.878 37.1141 176.944 36.9227 176.944 36.6948C176.944 36.5171 176.906 36.3621 176.828 36.23C176.755 36.0933 176.644 35.9816 176.493 35.895C176.343 35.8039 176.156 35.7378 175.933 35.6968C175.714 35.6512 175.456 35.6284 175.16 35.6284H173.54V41.9995H172.275V34.603H175.16C175.63 34.603 176.051 34.644 176.425 34.7261C176.803 34.8081 177.124 34.9334 177.389 35.1021C177.658 35.2661 177.863 35.4757 178.004 35.731C178.145 35.9862 178.216 36.2869 178.216 36.6333C178.216 36.8566 178.17 37.0685 178.079 37.269C177.988 37.4696 177.854 37.6473 177.676 37.8022C177.498 37.9572 177.279 38.0848 177.02 38.1851C176.76 38.2808 176.461 38.3423 176.124 38.3696L175.632 38.7456ZM175.632 41.9995H172.747L173.376 40.9741H175.632C175.983 40.9741 176.274 40.9308 176.507 40.8442C176.739 40.7531 176.912 40.6255 177.026 40.4614C177.145 40.2928 177.204 40.0923 177.204 39.8599C177.204 39.6274 177.145 39.4292 177.026 39.2651C176.912 39.0965 176.739 38.9689 176.507 38.8823C176.274 38.7912 175.983 38.7456 175.632 38.7456H173.711L173.725 37.7339H176.124L176.582 38.1167C176.988 38.1486 177.332 38.2489 177.614 38.4175C177.897 38.5861 178.111 38.8003 178.257 39.0601C178.403 39.3153 178.476 39.5933 178.476 39.894C178.476 40.2404 178.41 40.5457 178.277 40.8101C178.15 41.0744 177.963 41.2954 177.717 41.4731C177.471 41.6463 177.172 41.7785 176.821 41.8696C176.47 41.9562 176.074 41.9995 175.632 41.9995ZM179.836 38.3833V38.2261C179.836 37.6929 179.913 37.1984 180.068 36.7427C180.223 36.2824 180.447 35.8836 180.738 35.5464C181.03 35.2046 181.383 34.9403 181.798 34.7534C182.213 34.562 182.677 34.4663 183.192 34.4663C183.712 34.4663 184.179 34.562 184.594 34.7534C185.013 34.9403 185.368 35.2046 185.66 35.5464C185.956 35.8836 186.182 36.2824 186.337 36.7427C186.492 37.1984 186.569 37.6929 186.569 38.2261V38.3833C186.569 38.9165 186.492 39.411 186.337 39.8667C186.182 40.3224 185.956 40.7212 185.66 41.063C185.368 41.4002 185.015 41.6646 184.601 41.856C184.19 42.0428 183.726 42.1362 183.206 42.1362C182.687 42.1362 182.219 42.0428 181.805 41.856C181.39 41.6646 181.035 41.4002 180.738 41.063C180.447 40.7212 180.223 40.3224 180.068 39.8667C179.913 39.411 179.836 38.9165 179.836 38.3833ZM181.101 38.2261V38.3833C181.101 38.7524 181.144 39.1011 181.23 39.4292C181.317 39.7528 181.447 40.0399 181.62 40.2905C181.798 40.5412 182.019 40.7394 182.283 40.8853C182.548 41.0265 182.855 41.0972 183.206 41.0972C183.552 41.0972 183.855 41.0265 184.115 40.8853C184.38 40.7394 184.598 40.5412 184.771 40.2905C184.945 40.0399 185.075 39.7528 185.161 39.4292C185.252 39.1011 185.298 38.7524 185.298 38.3833V38.2261C185.298 37.8615 185.252 37.5174 185.161 37.1938C185.075 36.8657 184.942 36.5763 184.765 36.3257C184.591 36.0705 184.373 35.87 184.108 35.7241C183.849 35.5783 183.543 35.5054 183.192 35.5054C182.846 35.5054 182.541 35.5783 182.276 35.7241C182.017 35.87 181.798 36.0705 181.62 36.3257C181.447 36.5763 181.317 36.8657 181.23 37.1938C181.144 37.5174 181.101 37.8615 181.101 38.2261ZM192.407 40.3179L194.923 34.603H196.14L192.845 41.9995H191.97L188.688 34.603H189.905L192.407 40.3179ZM189.536 34.603V41.9995H188.271V34.603H189.536ZM195.237 41.9995V34.603H196.509V41.9995H195.237ZM206.797 34.603V35.6489H203.379V41.9995H202.114V34.603H206.797ZM212.566 34.603V35.6489H208.991V34.603H212.566ZM213.681 34.603V41.9995H212.416V34.603H213.681ZM208.684 34.603H209.955L209.764 38.1714C209.732 38.7228 209.679 39.2104 209.606 39.6343C209.538 40.0535 209.442 40.4136 209.319 40.7144C209.201 41.0151 209.05 41.2612 208.868 41.4526C208.69 41.6395 208.476 41.7785 208.226 41.8696C207.975 41.9562 207.686 41.9995 207.357 41.9995H206.961V40.8853L207.234 40.8647C207.43 40.8511 207.597 40.8055 207.733 40.728C207.875 40.6506 207.993 40.5366 208.089 40.3862C208.185 40.2313 208.262 40.033 208.321 39.7915C208.385 39.55 208.433 39.2629 208.465 38.9302C208.501 38.5975 208.529 38.2101 208.547 37.7681L208.684 34.603ZM217.796 41.2339L219.854 34.603H221.207L218.24 43.1411C218.172 43.3234 218.081 43.5194 217.967 43.729C217.857 43.9432 217.716 44.146 217.543 44.3374C217.37 44.5288 217.16 44.6838 216.914 44.8022C216.673 44.9253 216.383 44.9868 216.046 44.9868C215.946 44.9868 215.818 44.9731 215.663 44.9458C215.508 44.9185 215.399 44.8957 215.335 44.8774L215.328 43.8521C215.365 43.8566 215.422 43.8612 215.499 43.8657C215.581 43.8748 215.638 43.8794 215.67 43.8794C215.957 43.8794 216.201 43.8407 216.401 43.7632C216.602 43.6903 216.771 43.5649 216.907 43.3872C217.049 43.214 217.169 42.9748 217.27 42.6694L217.796 41.2339ZM216.285 34.603L218.206 40.3452L218.534 41.6782L217.625 42.1431L214.904 34.603H216.285ZM227.093 31.3833H228.132C228.132 31.8299 228.063 32.1854 227.927 32.4497C227.79 32.7095 227.603 32.91 227.366 33.0513C227.134 33.1925 226.869 33.2996 226.573 33.3726C226.282 33.4455 225.979 33.5161 225.664 33.5845C225.272 33.6665 224.908 33.7964 224.57 33.9741C224.238 34.1473 223.951 34.3934 223.709 34.7124C223.472 35.0314 223.297 35.4461 223.183 35.9565C223.073 36.467 223.044 37.0981 223.094 37.8501V38.479H222.055V37.8501C222.055 37.007 222.134 36.271 222.294 35.6421C222.458 35.0132 222.688 34.4823 222.984 34.0493C223.281 33.6164 223.632 33.2723 224.037 33.0171C224.447 32.7619 224.898 32.5864 225.391 32.4907C225.746 32.4224 226.051 32.3494 226.307 32.272C226.562 32.1899 226.756 32.0806 226.888 31.9438C227.024 31.8071 227.093 31.6203 227.093 31.3833ZM225.596 35.0269C226.079 35.0269 226.509 35.1112 226.888 35.2798C227.266 35.4484 227.587 35.6831 227.852 35.9839C228.116 36.2847 228.316 36.6401 228.453 37.0503C228.594 37.4559 228.665 37.8979 228.665 38.3765V38.5269C228.665 39.0418 228.59 39.5203 228.439 39.9624C228.294 40.3999 228.077 40.7827 227.79 41.1108C227.507 41.4344 227.161 41.6873 226.751 41.8696C226.345 42.0519 225.883 42.1431 225.363 42.1431C224.844 42.1431 224.379 42.0519 223.969 41.8696C223.563 41.6873 223.217 41.4344 222.93 41.1108C222.643 40.7827 222.424 40.3999 222.273 39.9624C222.128 39.5203 222.055 39.0418 222.055 38.5269V38.3765C222.055 38.2625 222.075 38.1509 222.116 38.0415C222.157 37.9321 222.207 37.8205 222.267 37.7065C222.33 37.5926 222.387 37.4718 222.438 37.3442C222.606 36.9341 222.836 36.5535 223.128 36.2026C223.424 35.8517 223.777 35.5692 224.188 35.355C224.602 35.1362 225.072 35.0269 225.596 35.0269ZM225.35 36.0591C224.885 36.0591 224.502 36.1662 224.201 36.3804C223.905 36.5946 223.684 36.8794 223.538 37.2349C223.392 37.5858 223.319 37.9663 223.319 38.3765V38.5269C223.319 38.8732 223.36 39.2013 223.442 39.5112C223.524 39.8211 223.647 40.0968 223.812 40.3384C223.98 40.5754 224.192 40.7622 224.447 40.8989C224.707 41.0356 225.012 41.104 225.363 41.104C225.714 41.104 226.017 41.0356 226.272 40.8989C226.528 40.7622 226.737 40.5754 226.901 40.3384C227.065 40.0968 227.188 39.8211 227.271 39.5112C227.353 39.2013 227.394 38.8732 227.394 38.5269V38.3765C227.394 38.0666 227.353 37.7726 227.271 37.4946C227.188 37.2166 227.063 36.9705 226.895 36.7563C226.73 36.5422 226.519 36.3735 226.259 36.2505C226.004 36.1229 225.701 36.0591 225.35 36.0591ZM229.766 38.3833V38.2261C229.766 37.6929 229.843 37.1984 229.998 36.7427C230.153 36.2824 230.376 35.8836 230.668 35.5464C230.96 35.2046 231.313 34.9403 231.728 34.7534C232.142 34.562 232.607 34.4663 233.122 34.4663C233.642 34.4663 234.109 34.562 234.523 34.7534C234.943 34.9403 235.298 35.2046 235.59 35.5464C235.886 35.8836 236.112 36.2824 236.267 36.7427C236.422 37.1984 236.499 37.6929 236.499 38.2261V38.3833C236.499 38.9165 236.422 39.411 236.267 39.8667C236.112 40.3224 235.886 40.7212 235.59 41.063C235.298 41.4002 234.945 41.6646 234.53 41.856C234.12 42.0428 233.655 42.1362 233.136 42.1362C232.616 42.1362 232.149 42.0428 231.734 41.856C231.32 41.6646 230.964 41.4002 230.668 41.063C230.376 40.7212 230.153 40.3224 229.998 39.8667C229.843 39.411 229.766 38.9165 229.766 38.3833ZM231.03 38.2261V38.3833C231.03 38.7524 231.074 39.1011 231.16 39.4292C231.247 39.7528 231.377 40.0399 231.55 40.2905C231.728 40.5412 231.949 40.7394 232.213 40.8853C232.477 41.0265 232.785 41.0972 233.136 41.0972C233.482 41.0972 233.785 41.0265 234.045 40.8853C234.309 40.7394 234.528 40.5412 234.701 40.2905C234.874 40.0399 235.004 39.7528 235.091 39.4292C235.182 39.1011 235.228 38.7524 235.228 38.3833V38.2261C235.228 37.8615 235.182 37.5174 235.091 37.1938C235.004 36.8657 234.872 36.5763 234.694 36.3257C234.521 36.0705 234.302 35.87 234.038 35.7241C233.778 35.5783 233.473 35.5054 233.122 35.5054C232.776 35.5054 232.47 35.5783 232.206 35.7241C231.946 35.87 231.728 36.0705 231.55 36.3257C231.377 36.5763 231.247 36.8657 231.16 37.1938C231.074 37.5174 231.03 37.8615 231.03 38.2261ZM239.459 34.603V41.9995H238.194V34.603H239.459ZM244.312 34.603L240.806 38.8413H239.035L238.844 37.7339H240.293L242.774 34.603H244.312ZM242.952 41.9995L240.231 38.6499L241.045 37.7339L244.559 41.9995H242.952ZM245.174 38.3833V38.2261C245.174 37.6929 245.251 37.1984 245.406 36.7427C245.561 36.2824 245.785 35.8836 246.076 35.5464C246.368 35.2046 246.721 34.9403 247.136 34.7534C247.55 34.562 248.015 34.4663 248.53 34.4663C249.05 34.4663 249.517 34.562 249.932 34.7534C250.351 34.9403 250.706 35.2046 250.998 35.5464C251.294 35.8836 251.52 36.2824 251.675 36.7427C251.83 37.1984 251.907 37.6929 251.907 38.2261V38.3833C251.907 38.9165 251.83 39.411 251.675 39.8667C251.52 40.3224 251.294 40.7212 250.998 41.063C250.706 41.4002 250.353 41.6646 249.938 41.856C249.528 42.0428 249.063 42.1362 248.544 42.1362C248.024 42.1362 247.557 42.0428 247.143 41.856C246.728 41.6646 246.372 41.4002 246.076 41.063C245.785 40.7212 245.561 40.3224 245.406 39.8667C245.251 39.411 245.174 38.9165 245.174 38.3833ZM246.438 38.2261V38.3833C246.438 38.7524 246.482 39.1011 246.568 39.4292C246.655 39.7528 246.785 40.0399 246.958 40.2905C247.136 40.5412 247.357 40.7394 247.621 40.8853C247.885 41.0265 248.193 41.0972 248.544 41.0972C248.89 41.0972 249.193 41.0265 249.453 40.8853C249.717 40.7394 249.936 40.5412 250.109 40.2905C250.283 40.0399 250.412 39.7528 250.499 39.4292C250.59 39.1011 250.636 38.7524 250.636 38.3833V38.2261C250.636 37.8615 250.59 37.5174 250.499 37.1938C250.412 36.8657 250.28 36.5763 250.103 36.3257C249.929 36.0705 249.711 35.87 249.446 35.7241C249.187 35.5783 248.881 35.5054 248.53 35.5054C248.184 35.5054 247.879 35.5783 247.614 35.7241C247.354 35.87 247.136 36.0705 246.958 36.3257C246.785 36.5763 246.655 36.8657 246.568 37.1938C246.482 37.5174 246.438 37.8615 246.438 38.2261ZM258.271 34.603V35.6489H254.854V41.9995H253.589V34.603H258.271ZM258.9 38.3833V38.2261C258.9 37.6929 258.978 37.1984 259.133 36.7427C259.288 36.2824 259.511 35.8836 259.803 35.5464C260.094 35.2046 260.448 34.9403 260.862 34.7534C261.277 34.562 261.742 34.4663 262.257 34.4663C262.776 34.4663 263.243 34.562 263.658 34.7534C264.077 34.9403 264.433 35.2046 264.725 35.5464C265.021 35.8836 265.246 36.2824 265.401 36.7427C265.556 37.1984 265.634 37.6929 265.634 38.2261V38.3833C265.634 38.9165 265.556 39.411 265.401 39.8667C265.246 40.3224 265.021 40.7212 264.725 41.063C264.433 41.4002 264.08 41.6646 263.665 41.856C263.255 42.0428 262.79 42.1362 262.271 42.1362C261.751 42.1362 261.284 42.0428 260.869 41.856C260.454 41.6646 260.099 41.4002 259.803 41.063C259.511 40.7212 259.288 40.3224 259.133 39.8667C258.978 39.411 258.9 38.9165 258.9 38.3833ZM260.165 38.2261V38.3833C260.165 38.7524 260.208 39.1011 260.295 39.4292C260.382 39.7528 260.511 40.0399 260.685 40.2905C260.862 40.5412 261.083 40.7394 261.348 40.8853C261.612 41.0265 261.92 41.0972 262.271 41.0972C262.617 41.0972 262.92 41.0265 263.18 40.8853C263.444 40.7394 263.663 40.5412 263.836 40.2905C264.009 40.0399 264.139 39.7528 264.226 39.4292C264.317 39.1011 264.362 38.7524 264.362 38.3833V38.2261C264.362 37.8615 264.317 37.5174 264.226 37.1938C264.139 36.8657 264.007 36.5763 263.829 36.3257C263.656 36.0705 263.437 35.87 263.173 35.7241C262.913 35.5783 262.608 35.5054 262.257 35.5054C261.91 35.5054 261.605 35.5783 261.341 35.7241C261.081 35.87 260.862 36.0705 260.685 36.3257C260.511 36.5763 260.382 36.8657 260.295 37.1938C260.208 37.5174 260.165 37.8615 260.165 38.2261ZM115.325 60.7349V56.9272C115.325 56.6356 115.266 56.3826 115.147 56.1685C115.034 55.9497 114.86 55.7811 114.628 55.6626C114.396 55.5441 114.108 55.4849 113.767 55.4849C113.448 55.4849 113.167 55.5396 112.926 55.6489C112.689 55.7583 112.502 55.9019 112.365 56.0796C112.233 56.2573 112.167 56.4487 112.167 56.6538H110.902C110.902 56.3895 110.971 56.1274 111.107 55.8677C111.244 55.6079 111.44 55.3732 111.695 55.1636C111.955 54.9494 112.265 54.7808 112.625 54.6577C112.99 54.5301 113.395 54.4663 113.842 54.4663C114.38 54.4663 114.854 54.5575 115.264 54.7397C115.678 54.922 116.002 55.1978 116.234 55.5669C116.471 55.9315 116.59 56.3895 116.59 56.9409V60.3862C116.59 60.6323 116.61 60.8944 116.651 61.1724C116.697 61.4504 116.763 61.6896 116.85 61.8901V61.9995H115.53C115.466 61.8537 115.416 61.66 115.38 61.4185C115.343 61.1724 115.325 60.9445 115.325 60.7349ZM115.544 57.5151L115.558 58.4038H114.279C113.919 58.4038 113.598 58.4334 113.315 58.4927C113.033 58.5474 112.796 58.6317 112.604 58.7456C112.413 58.8595 112.267 59.0031 112.167 59.1763C112.067 59.3449 112.017 59.5431 112.017 59.771C112.017 60.0034 112.069 60.2153 112.174 60.4067C112.279 60.5981 112.436 60.7508 112.646 60.8647C112.86 60.9741 113.122 61.0288 113.432 61.0288C113.819 61.0288 114.161 60.9468 114.457 60.7827C114.753 60.6187 114.988 60.4181 115.161 60.1812C115.339 59.9442 115.435 59.714 115.448 59.4907L115.988 60.0991C115.956 60.2905 115.87 60.5024 115.729 60.7349C115.587 60.9673 115.398 61.1906 115.161 61.4048C114.929 61.6144 114.651 61.7899 114.327 61.9312C114.008 62.0679 113.648 62.1362 113.247 62.1362C112.746 62.1362 112.306 62.0382 111.928 61.8423C111.554 61.6463 111.262 61.3843 111.053 61.0562C110.848 60.7235 110.745 60.3521 110.745 59.9419C110.745 59.5454 110.823 59.1968 110.978 58.896C111.132 58.5907 111.356 58.3377 111.647 58.1372C111.939 57.9321 112.29 57.7772 112.7 57.6724C113.11 57.5675 113.568 57.5151 114.074 57.5151H115.544ZM123.597 57.8091V58.8345H119.687V57.8091H123.597ZM119.953 54.603V61.9995H118.688V54.603H119.953ZM124.622 54.603V61.9995H123.351V54.603H124.622ZM131.021 60.7349V56.9272C131.021 56.6356 130.961 56.3826 130.843 56.1685C130.729 55.9497 130.556 55.7811 130.323 55.6626C130.091 55.5441 129.804 55.4849 129.462 55.4849C129.143 55.4849 128.863 55.5396 128.621 55.6489C128.384 55.7583 128.197 55.9019 128.061 56.0796C127.928 56.2573 127.862 56.4487 127.862 56.6538H126.598C126.598 56.3895 126.666 56.1274 126.803 55.8677C126.939 55.6079 127.135 55.3732 127.391 55.1636C127.65 54.9494 127.96 54.7808 128.32 54.6577C128.685 54.5301 129.09 54.4663 129.537 54.4663C130.075 54.4663 130.549 54.5575 130.959 54.7397C131.374 54.922 131.697 55.1978 131.93 55.5669C132.167 55.9315 132.285 56.3895 132.285 56.9409V60.3862C132.285 60.6323 132.306 60.8944 132.347 61.1724C132.392 61.4504 132.458 61.6896 132.545 61.8901V61.9995H131.226C131.162 61.8537 131.112 61.66 131.075 61.4185C131.039 61.1724 131.021 60.9445 131.021 60.7349ZM131.239 57.5151L131.253 58.4038H129.975C129.615 58.4038 129.293 58.4334 129.011 58.4927C128.728 58.5474 128.491 58.6317 128.3 58.7456C128.108 58.8595 127.963 59.0031 127.862 59.1763C127.762 59.3449 127.712 59.5431 127.712 59.771C127.712 60.0034 127.764 60.2153 127.869 60.4067C127.974 60.5981 128.131 60.7508 128.341 60.8647C128.555 60.9741 128.817 61.0288 129.127 61.0288C129.514 61.0288 129.856 60.9468 130.152 60.7827C130.449 60.6187 130.683 60.4181 130.856 60.1812C131.034 59.9442 131.13 59.714 131.144 59.4907L131.684 60.0991C131.652 60.2905 131.565 60.5024 131.424 60.7349C131.283 60.9673 131.093 61.1906 130.856 61.4048C130.624 61.6144 130.346 61.7899 130.022 61.9312C129.703 62.0679 129.343 62.1362 128.942 62.1362C128.441 62.1362 128.001 62.0382 127.623 61.8423C127.249 61.6463 126.958 61.3843 126.748 61.0562C126.543 60.7235 126.44 60.3521 126.44 59.9419C126.44 59.5454 126.518 59.1968 126.673 58.896C126.828 58.5907 127.051 58.3377 127.343 58.1372C127.634 57.9321 127.985 57.7772 128.396 57.6724C128.806 57.5675 129.264 57.5151 129.77 57.5151H131.239ZM139.217 54.603V55.6489H135.642V54.603H139.217ZM140.331 54.603V61.9995H139.066V54.603H140.331ZM135.334 54.603H136.605L136.414 58.1714C136.382 58.7228 136.33 59.2104 136.257 59.6343C136.188 60.0535 136.093 60.4136 135.97 60.7144C135.851 61.0151 135.701 61.2612 135.519 61.4526C135.341 61.6395 135.127 61.7785 134.876 61.8696C134.625 61.9562 134.336 61.9995 134.008 61.9995H133.611V60.8853L133.885 60.8647C134.081 60.8511 134.247 60.8055 134.384 60.728C134.525 60.6506 134.644 60.5366 134.739 60.3862C134.835 60.2313 134.912 60.033 134.972 59.7915C135.035 59.55 135.083 59.2629 135.115 58.9302C135.152 58.5975 135.179 58.2101 135.197 57.7681L135.334 54.603ZM143.735 59.9966L147.146 54.603H148.418V61.9995H147.146V56.606L143.735 61.9995H142.478V54.603H143.735V59.9966ZM153.21 58.4653H151.85V57.686H153.107C153.458 57.686 153.736 57.6427 153.941 57.5562C154.146 57.465 154.292 57.3397 154.379 57.1802C154.465 57.0207 154.509 56.8338 154.509 56.6196C154.509 56.4282 154.459 56.2482 154.358 56.0796C154.263 55.9064 154.108 55.7674 153.894 55.6626C153.679 55.5532 153.392 55.4985 153.032 55.4985C152.741 55.4985 152.476 55.5509 152.239 55.6558C152.002 55.756 151.813 55.895 151.672 56.0728C151.535 56.2459 151.467 56.4419 151.467 56.6606H150.202C150.202 56.2095 150.33 55.8221 150.585 55.4985C150.845 55.1704 151.189 54.9175 151.617 54.7397C152.05 54.562 152.522 54.4731 153.032 54.4731C153.461 54.4731 153.843 54.521 154.181 54.6167C154.522 54.7078 154.812 54.8446 155.049 55.0269C155.286 55.2046 155.466 55.4279 155.589 55.6968C155.716 55.9611 155.78 56.2687 155.78 56.6196C155.78 56.8703 155.721 57.1073 155.603 57.3306C155.484 57.5539 155.313 57.7521 155.09 57.9253C154.867 58.0939 154.595 58.2261 154.276 58.3218C153.962 58.4175 153.606 58.4653 153.21 58.4653ZM151.85 57.9868H153.21C153.652 57.9868 154.042 58.0301 154.379 58.1167C154.716 58.1987 154.999 58.3218 155.227 58.4858C155.454 58.6499 155.625 58.8527 155.739 59.0942C155.858 59.3312 155.917 59.6047 155.917 59.9146C155.917 60.2609 155.846 60.5731 155.705 60.8511C155.568 61.1245 155.372 61.3569 155.117 61.5483C154.862 61.7397 154.557 61.8856 154.201 61.9858C153.85 62.0861 153.461 62.1362 153.032 62.1362C152.554 62.1362 152.089 62.0542 151.638 61.8901C151.187 61.7261 150.815 61.4731 150.523 61.1313C150.232 60.785 150.086 60.3452 150.086 59.812H151.351C151.351 60.0353 151.421 60.2472 151.562 60.4478C151.704 60.6483 151.9 60.8101 152.15 60.9331C152.406 61.0562 152.7 61.1177 153.032 61.1177C153.388 61.1177 153.684 61.063 153.921 60.9536C154.158 60.8442 154.336 60.6984 154.454 60.5161C154.577 60.3338 154.639 60.1356 154.639 59.9214C154.639 59.6434 154.584 59.4201 154.475 59.2515C154.365 59.0828 154.197 58.9598 153.969 58.8823C153.745 58.8003 153.458 58.7593 153.107 58.7593H151.85V57.9868ZM161.919 60.7349V56.9272C161.919 56.6356 161.86 56.3826 161.741 56.1685C161.627 55.9497 161.454 55.7811 161.222 55.6626C160.989 55.5441 160.702 55.4849 160.36 55.4849C160.041 55.4849 159.761 55.5396 159.52 55.6489C159.283 55.7583 159.096 55.9019 158.959 56.0796C158.827 56.2573 158.761 56.4487 158.761 56.6538H157.496C157.496 56.3895 157.564 56.1274 157.701 55.8677C157.838 55.6079 158.034 55.3732 158.289 55.1636C158.549 54.9494 158.859 54.7808 159.219 54.6577C159.583 54.5301 159.989 54.4663 160.436 54.4663C160.973 54.4663 161.447 54.5575 161.857 54.7397C162.272 54.922 162.596 55.1978 162.828 55.5669C163.065 55.9315 163.184 56.3895 163.184 56.9409V60.3862C163.184 60.6323 163.204 60.8944 163.245 61.1724C163.291 61.4504 163.357 61.6896 163.443 61.8901V61.9995H162.124C162.06 61.8537 162.01 61.66 161.974 61.4185C161.937 61.1724 161.919 60.9445 161.919 60.7349ZM162.138 57.5151L162.151 58.4038H160.873C160.513 58.4038 160.192 58.4334 159.909 58.4927C159.627 58.5474 159.39 58.6317 159.198 58.7456C159.007 58.8595 158.861 59.0031 158.761 59.1763C158.66 59.3449 158.61 59.5431 158.61 59.771C158.61 60.0034 158.663 60.2153 158.768 60.4067C158.872 60.5981 159.03 60.7508 159.239 60.8647C159.453 60.9741 159.715 61.0288 160.025 61.0288C160.413 61.0288 160.755 60.9468 161.051 60.7827C161.347 60.6187 161.582 60.4181 161.755 60.1812C161.933 59.9442 162.028 59.714 162.042 59.4907L162.582 60.0991C162.55 60.2905 162.464 60.5024 162.322 60.7349C162.181 60.9673 161.992 61.1906 161.755 61.4048C161.522 61.6144 161.244 61.7899 160.921 61.9312C160.602 62.0679 160.242 62.1362 159.841 62.1362C159.34 62.1362 158.9 62.0382 158.521 61.8423C158.148 61.6463 157.856 61.3843 157.646 61.0562C157.441 60.7235 157.339 60.3521 157.339 59.9419C157.339 59.5454 157.416 59.1968 157.571 58.896C157.726 58.5907 157.95 58.3377 158.241 58.1372C158.533 57.9321 158.884 57.7772 159.294 57.6724C159.704 57.5675 160.162 57.5151 160.668 57.5151H162.138Z" fill="black"/>
<path d="M85 41.9995L59 41.9995" stroke="#00A3FF" stroke-miterlimit="10" stroke-linecap="round"/>
<path d="M80 41.4761C79.9954 42.9604 80.4313 44.4128 81.2526 45.6492C82.0739 46.8857 83.2436 47.8506 84.6136 48.4219C85.9837 48.9931 87.4924 49.145 88.9488 48.8582C90.4052 48.5715 91.7437 47.8591 92.795 46.8111C93.8462 45.7632 94.5629 44.4268 94.8542 42.9713C95.1455 41.5158 94.9983 40.0066 94.4313 38.6348C93.8644 37.263 92.9031 36.0903 91.6692 35.2651C90.4354 34.44 88.9844 33.9995 87.5 33.9995C85.515 33.9995 83.6108 34.7865 82.205 36.1879C80.7991 37.5894 80.0062 39.491 80 41.4761V41.4761Z" fill="#00A3FF"/>
<path d="M87.4766 44.4058C85.8586 44.4058 84.5469 43.0941 84.5469 41.4761C84.5469 39.8581 85.8586 38.5464 87.4766 38.5464C89.0946 38.5464 90.4062 39.8581 90.4062 41.4761C90.4062 43.0941 89.0946 44.4058 87.4766 44.4058Z" fill="white"/>
<defs>
<filter id="filter0_d_315_282" x="262.322" y="0.322021" width="83.3555" height="83.3555" filterUnits="userSpaceOnUse" color-interpolation-filters="sRGB">
<feFlood flood-opacity="0" result="BackgroundImageFix"/>
<feColorMatrix in="SourceAlpha" type="matrix" values="0 0 0 0 0 0 0 0 0 0 0 0 0 0 0 0 0 0 127 0" result="hardAlpha"/>
<feOffset/>
<feGaussianBlur stdDeviation="12"/>
<feComposite in2="hardAlpha" operator="out"/>
<feColorMatrix type="matrix" values="0 0 0 0 0.579167 0 0 0 0 0.579167 0 0 0 0 0.579167 0 0 0 0.3 0"/>
<feBlend mode="normal" in2="BackgroundImageFix" result="effect1_dropShadow_315_282"/>
<feBlend mode="normal" in="SourceGraphic" in2="effect1_dropShadow_315_282" result="shape"/>
</filter>
</defs>
</svg>
