<svg width="346" height="85" viewBox="0 0 346 85" fill="none" xmlns="http://www.w3.org/2000/svg">
<g filter="url(#filter0_d_811_1165)">
<path d="M316.5 54.8472C323.404 47.9436 323.404 36.7507 316.5 29.8472C309.596 22.9436 298.404 22.9436 291.5 29.8472C284.596 36.7507 284.596 47.9436 291.5 54.8472C298.404 61.7507 309.596 61.7507 316.5 54.8472Z" fill="white"/>
</g>
<path d="M309.525 42.3453C309.529 43.3924 309.222 44.4171 308.643 45.29C308.065 46.1629 307.241 46.845 306.275 47.2502C305.31 47.6554 304.246 47.7657 303.218 47.567C302.19 47.3683 301.243 46.8696 300.498 46.1338C299.753 45.3979 299.243 44.458 299.031 43.4324C298.82 42.4068 298.917 41.3416 299.31 40.3711C299.703 39.4006 300.375 38.5682 301.241 37.979C302.106 37.3897 303.127 37.0701 304.174 37.0602C304.874 37.0515 305.568 37.1817 306.217 37.4434C306.866 37.705 307.456 38.0929 307.954 38.5846C308.452 39.0762 308.847 39.6618 309.117 40.3074C309.387 40.9529 309.525 41.6456 309.525 42.3453Z" fill="#00A3FF"/>
<path d="M304.24 44.4161C305.383 44.4161 306.311 43.4889 306.311 42.3451C306.311 41.2014 305.383 40.2742 304.24 40.2742C303.096 40.2742 302.169 41.2014 302.169 42.3451C302.169 43.4889 303.096 44.4161 304.24 44.4161Z" fill="white"/>
<path d="M53.0456 60.0204C62.811 50.2596 62.811 34.4342 53.0455 24.6734C43.2801 14.9127 27.4473 14.9126 17.6819 24.6734C7.91646 34.4342 7.91643 50.2596 17.6819 60.0204C27.4473 69.7812 43.2802 69.7812 53.0456 60.0204Z" fill="#00A3FF"/>
<path d="M35.4961 39.3789C37.1807 39.3789 38.5804 39.9364 39.6953 41.0513C40.8184 42.1662 41.3799 43.5659 41.3799 45.2505C41.3799 47.0164 40.7655 48.4813 39.5366 49.645C38.3159 50.8006 36.7209 51.3784 34.7515 51.3784C33.9214 51.3784 33.1239 51.2808 32.3589 51.0854C31.6021 50.8983 30.9836 50.6704 30.5034 50.4019C30.0314 50.1333 29.6164 49.8688 29.2583 49.6084C28.9002 49.3398 28.6479 49.1038 28.5015 48.9004L28.2451 48.6196L30.5034 46.2515C30.6174 46.3817 30.776 46.5444 30.9795 46.7397C31.1911 46.9269 31.6468 47.1833 32.3467 47.5088C33.0465 47.8343 33.7627 47.9971 34.4951 47.9971C35.431 47.9971 36.1634 47.7448 36.6924 47.2402C37.2295 46.7275 37.498 46.0643 37.498 45.2505C37.498 44.4367 37.2132 43.7531 36.6436 43.1997C36.082 42.6463 35.3659 42.3696 34.4951 42.3696C33.8929 42.3696 33.3558 42.4836 32.8838 42.7114C32.4118 42.9393 32.0822 43.1672 31.895 43.395L31.6265 43.749L29.002 43.5049L29.6245 33.4951H40.2446V36.7544H33.0059L32.7495 40.0015C33.4168 39.5864 34.3324 39.3789 35.4961 39.3789Z" fill="white"/>
<path d="M117.656 16.6731V17.7463H112.27V16.6731H117.656ZM112.475 12.3938V22.3469H111.155V12.3938H112.475ZM118.805 12.3938V22.3469H117.492V12.3938H118.805ZM125.319 21.0823V17.2747C125.319 16.983 125.26 16.7301 125.142 16.5159C125.028 16.2971 124.854 16.1285 124.622 16.01C124.39 15.8915 124.103 15.8323 123.761 15.8323C123.442 15.8323 123.161 15.887 122.92 15.9963C122.683 16.1057 122.496 16.2493 122.359 16.427C122.227 16.6047 122.161 16.7961 122.161 17.0012H120.896C120.896 16.7369 120.965 16.4749 121.102 16.2151C121.238 15.9553 121.434 15.7206 121.689 15.511C121.949 15.2968 122.259 15.1282 122.619 15.0051C122.984 14.8775 123.389 14.8137 123.836 14.8137C124.374 14.8137 124.848 14.9049 125.258 15.0872C125.673 15.2694 125.996 15.5452 126.229 15.9143C126.465 16.2789 126.584 16.7369 126.584 17.2883V20.7336C126.584 20.9797 126.604 21.2418 126.646 21.5198C126.691 21.7978 126.757 22.037 126.844 22.2375V22.3469H125.524C125.461 22.2011 125.41 22.0074 125.374 21.7659C125.338 21.5198 125.319 21.2919 125.319 21.0823ZM125.538 17.8625L125.552 18.7512H124.273C123.913 18.7512 123.592 18.7808 123.31 18.8401C123.027 18.8948 122.79 18.9791 122.599 19.093C122.407 19.2069 122.261 19.3505 122.161 19.5237C122.061 19.6923 122.011 19.8905 122.011 20.1184C122.011 20.3508 122.063 20.5627 122.168 20.7542C122.273 20.9456 122.43 21.0982 122.64 21.2122C122.854 21.3215 123.116 21.3762 123.426 21.3762C123.813 21.3762 124.155 21.2942 124.451 21.1301C124.747 20.9661 124.982 20.7655 125.155 20.5286C125.333 20.2916 125.429 20.0614 125.442 19.8381L125.982 20.4465C125.951 20.6379 125.864 20.8499 125.723 21.0823C125.581 21.3147 125.392 21.538 125.155 21.7522C124.923 21.9618 124.645 22.1373 124.321 22.2786C124.002 22.4153 123.642 22.4836 123.241 22.4836C122.74 22.4836 122.3 22.3857 121.922 22.1897C121.548 21.9937 121.257 21.7317 121.047 21.4036C120.842 21.0709 120.739 20.6995 120.739 20.2893C120.739 19.8928 120.817 19.5442 120.972 19.2434C121.127 18.9381 121.35 18.6851 121.642 18.4846C121.933 18.2795 122.284 18.1246 122.694 18.0198C123.104 17.915 123.562 17.8625 124.068 17.8625H125.538ZM133.502 14.9504V15.9963H129.763V14.9504H133.502ZM129.947 14.9504V22.3469H128.683V14.9504H129.947ZM134.623 14.9504V22.3469H133.352V14.9504H134.623ZM138.021 20.344L141.432 14.9504H142.703V22.3469H141.432V16.9534L138.021 22.3469H136.763V14.9504H138.021V20.344ZM147.693 21.4446C147.994 21.4446 148.272 21.3831 148.527 21.26C148.783 21.137 148.992 20.9683 149.156 20.7542C149.32 20.5354 149.414 20.287 149.437 20.009H150.64C150.617 20.4465 150.469 20.8544 150.195 21.2327C149.926 21.6064 149.573 21.9094 149.136 22.1418C148.698 22.3697 148.217 22.4836 147.693 22.4836C147.137 22.4836 146.652 22.3857 146.237 22.1897C145.827 21.9937 145.485 21.7249 145.212 21.3831C144.943 21.0413 144.74 20.6493 144.604 20.2073C144.471 19.7607 144.405 19.289 144.405 18.7922V18.5051C144.405 18.0084 144.471 17.539 144.604 17.0969C144.74 16.6503 144.943 16.2561 145.212 15.9143C145.485 15.5725 145.827 15.3036 146.237 15.1077C146.652 14.9117 147.137 14.8137 147.693 14.8137C148.272 14.8137 148.778 14.9322 149.211 15.1692C149.644 15.4016 149.983 15.7206 150.229 16.1262C150.48 16.5273 150.617 16.983 150.64 17.4934H149.437C149.414 17.1881 149.327 16.9124 149.177 16.6663C149.031 16.4202 148.83 16.2242 148.575 16.0784C148.325 15.928 148.031 15.8528 147.693 15.8528C147.306 15.8528 146.98 15.9303 146.716 16.0852C146.456 16.2356 146.249 16.4407 146.094 16.7004C145.943 16.9556 145.834 17.2405 145.766 17.5549C145.702 17.8648 145.67 18.1816 145.67 18.5051V18.7922C145.67 19.1158 145.702 19.4348 145.766 19.7493C145.829 20.0637 145.937 20.3486 146.087 20.6038C146.242 20.859 146.449 21.064 146.709 21.219C146.973 21.3694 147.301 21.4446 147.693 21.4446ZM156.423 21.0823V17.2747C156.423 16.983 156.364 16.7301 156.245 16.5159C156.131 16.2971 155.958 16.1285 155.726 16.01C155.493 15.8915 155.206 15.8323 154.864 15.8323C154.545 15.8323 154.265 15.887 154.023 15.9963C153.786 16.1057 153.6 16.2493 153.463 16.427C153.331 16.6047 153.265 16.7961 153.265 17.0012H152C152 16.7369 152.068 16.4749 152.205 16.2151C152.342 15.9553 152.538 15.7206 152.793 15.511C153.053 15.2968 153.363 15.1282 153.723 15.0051C154.087 14.8775 154.493 14.8137 154.939 14.8137C155.477 14.8137 155.951 14.9049 156.361 15.0872C156.776 15.2694 157.1 15.5452 157.332 15.9143C157.569 16.2789 157.688 16.7369 157.688 17.2883V20.7336C157.688 20.9797 157.708 21.2418 157.749 21.5198C157.795 21.7978 157.861 22.037 157.947 22.2375V22.3469H156.628C156.564 22.2011 156.514 22.0074 156.478 21.7659C156.441 21.5198 156.423 21.2919 156.423 21.0823ZM156.642 17.8625L156.655 18.7512H155.377C155.017 18.7512 154.696 18.7808 154.413 18.8401C154.131 18.8948 153.894 18.9791 153.702 19.093C153.511 19.2069 153.365 19.3505 153.265 19.5237C153.164 19.6923 153.114 19.8905 153.114 20.1184C153.114 20.3508 153.167 20.5627 153.271 20.7542C153.376 20.9456 153.534 21.0982 153.743 21.2122C153.957 21.3215 154.219 21.3762 154.529 21.3762C154.917 21.3762 155.258 21.2942 155.555 21.1301C155.851 20.9661 156.086 20.7655 156.259 20.5286C156.437 20.2916 156.532 20.0614 156.546 19.8381L157.086 20.4465C157.054 20.6379 156.967 20.8499 156.826 21.0823C156.685 21.3147 156.496 21.538 156.259 21.7522C156.026 21.9618 155.748 22.1373 155.425 22.2786C155.106 22.4153 154.746 22.4836 154.345 22.4836C153.843 22.4836 153.404 22.3857 153.025 22.1897C152.652 21.9937 152.36 21.7317 152.15 21.4036C151.945 21.0709 151.843 20.6995 151.843 20.2893C151.843 19.8928 151.92 19.5442 152.075 19.2434C152.23 18.9381 152.453 18.6851 152.745 18.4846C153.037 18.2795 153.388 18.1246 153.798 18.0198C154.208 17.915 154.666 17.8625 155.172 17.8625H156.642ZM164.694 18.1565V19.1819H160.784V18.1565H164.694ZM161.051 14.9504V22.3469H159.786V14.9504H161.051ZM165.72 14.9504V22.3469H164.448V14.9504H165.72ZM169.124 20.344L172.535 14.9504H173.807V22.3469H172.535V16.9534L169.124 22.3469H167.866V14.9504H169.124V20.344ZM178.906 22.4836C178.391 22.4836 177.924 22.3971 177.505 22.2239C177.09 22.0461 176.732 21.7978 176.432 21.4788C176.135 21.1597 175.908 20.7815 175.748 20.344C175.589 19.9065 175.509 19.428 175.509 18.9084V18.6213C175.509 18.0198 175.598 17.4843 175.775 17.0149C175.953 16.5409 176.195 16.1399 176.5 15.8118C176.805 15.4836 177.152 15.2353 177.539 15.0667C177.926 14.898 178.327 14.8137 178.742 14.8137C179.271 14.8137 179.727 14.9049 180.109 15.0872C180.497 15.2694 180.813 15.5247 181.06 15.8528C181.306 16.1764 181.488 16.5592 181.606 17.0012C181.725 17.4387 181.784 17.9172 181.784 18.4368V19.0042H176.261V17.9719H180.52V17.8762C180.501 17.5481 180.433 17.2291 180.314 16.9192C180.201 16.6093 180.018 16.3541 179.768 16.1536C179.517 15.953 179.175 15.8528 178.742 15.8528C178.455 15.8528 178.191 15.9143 177.949 16.0374C177.708 16.1558 177.5 16.3336 177.327 16.5706C177.154 16.8075 177.02 17.0969 176.924 17.4387C176.828 17.7805 176.78 18.1747 176.78 18.6213V18.9084C176.78 19.2594 176.828 19.5898 176.924 19.8997C177.024 20.205 177.168 20.4739 177.354 20.7063C177.546 20.9387 177.776 21.121 178.045 21.2532C178.318 21.3853 178.628 21.4514 178.975 21.4514C179.421 21.4514 179.799 21.3603 180.109 21.178C180.419 20.9957 180.69 20.7519 180.923 20.4465L181.688 21.0549C181.529 21.2965 181.326 21.5266 181.08 21.7454C180.834 21.9641 180.531 22.1418 180.171 22.2786C179.815 22.4153 179.394 22.4836 178.906 22.4836ZM189.693 21.4446C189.994 21.4446 190.272 21.3831 190.527 21.26C190.783 21.137 190.992 20.9683 191.156 20.7542C191.32 20.5354 191.414 20.287 191.437 20.009H192.64C192.617 20.4465 192.469 20.8544 192.195 21.2327C191.926 21.6064 191.573 21.9094 191.136 22.1418C190.698 22.3697 190.217 22.4836 189.693 22.4836C189.137 22.4836 188.652 22.3857 188.237 22.1897C187.827 21.9937 187.485 21.7249 187.212 21.3831C186.943 21.0413 186.74 20.6493 186.604 20.2073C186.471 19.7607 186.405 19.289 186.405 18.7922V18.5051C186.405 18.0084 186.471 17.539 186.604 17.0969C186.74 16.6503 186.943 16.2561 187.212 15.9143C187.485 15.5725 187.827 15.3036 188.237 15.1077C188.652 14.9117 189.137 14.8137 189.693 14.8137C190.272 14.8137 190.778 14.9322 191.211 15.1692C191.644 15.4016 191.983 15.7206 192.229 16.1262C192.48 16.5273 192.617 16.983 192.64 17.4934H191.437C191.414 17.1881 191.327 16.9124 191.177 16.6663C191.031 16.4202 190.83 16.2242 190.575 16.0784C190.325 15.928 190.031 15.8528 189.693 15.8528C189.306 15.8528 188.98 15.9303 188.716 16.0852C188.456 16.2356 188.249 16.4407 188.094 16.7004C187.943 16.9556 187.834 17.2405 187.766 17.5549C187.702 17.8648 187.67 18.1816 187.67 18.5051V18.7922C187.67 19.1158 187.702 19.4348 187.766 19.7493C187.829 20.0637 187.937 20.3486 188.087 20.6038C188.242 20.859 188.449 21.064 188.709 21.219C188.973 21.3694 189.301 21.4446 189.693 21.4446ZM197.076 14.9504V22.3469H195.805V14.9504H197.076ZM199.558 14.9504V15.9758H193.371V14.9504H199.558ZM202.066 16.3723V25.1907H200.795V14.9504H201.957L202.066 16.3723ZM207.05 18.5872V18.7307C207.05 19.2685 206.986 19.7675 206.858 20.2278C206.731 20.6835 206.544 21.08 206.298 21.4172C206.056 21.7545 205.758 22.0165 205.402 22.2034C205.047 22.3902 204.639 22.4836 204.179 22.4836C203.709 22.4836 203.295 22.4062 202.935 22.2512C202.575 22.0963 202.269 21.8707 202.019 21.5745C201.768 21.2782 201.567 20.9228 201.417 20.5081C201.271 20.0933 201.171 19.6262 201.116 19.1067V18.3411C201.171 17.7942 201.273 17.3043 201.424 16.8713C201.574 16.4384 201.772 16.0693 202.019 15.7639C202.269 15.454 202.572 15.2193 202.928 15.0598C203.283 14.8958 203.693 14.8137 204.158 14.8137C204.623 14.8137 205.035 14.9049 205.396 15.0872C205.756 15.2649 206.059 15.5201 206.305 15.8528C206.551 16.1855 206.735 16.5842 206.858 17.0491C206.986 17.5094 207.05 18.0221 207.05 18.5872ZM205.778 18.7307V18.5872C205.778 18.218 205.74 17.8717 205.662 17.5481C205.585 17.22 205.464 16.9329 205.3 16.6868C205.14 16.4361 204.935 16.2402 204.685 16.0989C204.434 15.953 204.135 15.8801 203.789 15.8801C203.47 15.8801 203.192 15.9348 202.955 16.0442C202.723 16.1536 202.524 16.3017 202.36 16.4885C202.196 16.6708 202.062 16.8805 201.957 17.1174C201.857 17.3499 201.782 17.5914 201.731 17.842V19.6125C201.823 19.9316 201.95 20.2323 202.114 20.5149C202.278 20.7929 202.497 21.0185 202.771 21.1917C203.044 21.3603 203.388 21.4446 203.803 21.4446C204.145 21.4446 204.438 21.3739 204.685 21.2327C204.935 21.0868 205.14 20.8886 205.3 20.6379C205.464 20.3873 205.585 20.1002 205.662 19.7766C205.74 19.4485 205.778 19.0999 205.778 18.7307ZM213.024 21.0823V17.2747C213.024 16.983 212.965 16.7301 212.847 16.5159C212.733 16.2971 212.56 16.1285 212.327 16.01C212.095 15.8915 211.808 15.8323 211.466 15.8323C211.147 15.8323 210.867 15.887 210.625 15.9963C210.388 16.1057 210.201 16.2493 210.064 16.427C209.932 16.6047 209.866 16.7961 209.866 17.0012H208.602C208.602 16.7369 208.67 16.4749 208.807 16.2151C208.943 15.9553 209.139 15.7206 209.395 15.511C209.654 15.2968 209.964 15.1282 210.324 15.0051C210.689 14.8775 211.094 14.8137 211.541 14.8137C212.079 14.8137 212.553 14.9049 212.963 15.0872C213.378 15.2694 213.701 15.5452 213.934 15.9143C214.171 16.2789 214.289 16.7369 214.289 17.2883V20.7336C214.289 20.9797 214.31 21.2418 214.351 21.5198C214.396 21.7978 214.462 22.037 214.549 22.2375V22.3469H213.229C213.166 22.2011 213.116 22.0074 213.079 21.7659C213.043 21.5198 213.024 21.2919 213.024 21.0823ZM213.243 17.8625L213.257 18.7512H211.979C211.618 18.7512 211.297 18.7808 211.015 18.8401C210.732 18.8948 210.495 18.9791 210.304 19.093C210.112 19.2069 209.966 19.3505 209.866 19.5237C209.766 19.6923 209.716 19.8905 209.716 20.1184C209.716 20.3508 209.768 20.5627 209.873 20.7542C209.978 20.9456 210.135 21.0982 210.345 21.2122C210.559 21.3215 210.821 21.3762 211.131 21.3762C211.518 21.3762 211.86 21.2942 212.156 21.1301C212.452 20.9661 212.687 20.7655 212.86 20.5286C213.038 20.2916 213.134 20.0614 213.147 19.8381L213.688 20.4465C213.656 20.6379 213.569 20.8499 213.428 21.0823C213.286 21.3147 213.097 21.538 212.86 21.7522C212.628 21.9618 212.35 22.1373 212.026 22.2786C211.707 22.4153 211.347 22.4836 210.946 22.4836C210.445 22.4836 210.005 22.3857 209.627 22.1897C209.253 21.9937 208.962 21.7317 208.752 21.4036C208.547 21.0709 208.444 20.6995 208.444 20.2893C208.444 19.8928 208.522 19.5442 208.677 19.2434C208.832 18.9381 209.055 18.6851 209.347 18.4846C209.638 18.2795 209.989 18.1246 210.399 18.0198C210.81 17.915 211.268 17.8625 211.773 17.8625H213.243ZM219.184 14.9504V22.3469H217.912V14.9504H219.184ZM221.665 14.9504V15.9758H215.479V14.9504H221.665ZM225.432 22.4836C224.917 22.4836 224.45 22.3971 224.03 22.2239C223.616 22.0461 223.258 21.7978 222.957 21.4788C222.661 21.1597 222.433 20.7815 222.273 20.344C222.114 19.9065 222.034 19.428 222.034 18.9084V18.6213C222.034 18.0198 222.123 17.4843 222.301 17.0149C222.479 16.5409 222.72 16.1399 223.025 15.8118C223.331 15.4836 223.677 15.2353 224.064 15.0667C224.452 14.898 224.853 14.8137 225.268 14.8137C225.796 14.8137 226.252 14.9049 226.635 15.0872C227.022 15.2694 227.339 15.5247 227.585 15.8528C227.831 16.1764 228.013 16.5592 228.132 17.0012C228.25 17.4387 228.31 17.9172 228.31 18.4368V19.0042H222.786V17.9719H227.045V17.8762C227.027 17.5481 226.958 17.2291 226.84 16.9192C226.726 16.6093 226.544 16.3541 226.293 16.1536C226.042 15.953 225.701 15.8528 225.268 15.8528C224.98 15.8528 224.716 15.9143 224.475 16.0374C224.233 16.1558 224.026 16.3336 223.853 16.5706C223.679 16.8075 223.545 17.0969 223.449 17.4387C223.354 17.7805 223.306 18.1747 223.306 18.6213V18.9084C223.306 19.2594 223.354 19.5898 223.449 19.8997C223.549 20.205 223.693 20.4739 223.88 20.7063C224.071 20.9387 224.301 21.121 224.57 21.2532C224.844 21.3853 225.154 21.4514 225.5 21.4514C225.947 21.4514 226.325 21.3603 226.635 21.178C226.945 20.9957 227.216 20.7519 227.448 20.4465L228.214 21.0549C228.054 21.2965 227.852 21.5266 227.605 21.7454C227.359 21.9641 227.056 22.1418 226.696 22.2786C226.341 22.4153 225.919 22.4836 225.432 22.4836ZM234.564 14.9504V15.9963H231.146V22.3469H229.882V14.9504H234.564ZM237.032 20.344L240.443 14.9504H241.715V22.3469H240.443V16.9534L237.032 22.3469H235.774V14.9504H237.032V20.344ZM245.112 20.344L248.523 14.9504H249.795V22.3469H248.523V16.9534L245.112 22.3469H243.854V14.9504H245.112V20.344ZM112.331 40.344L115.742 34.9504H117.014V42.3469H115.742V36.9534L112.331 42.3469H111.073V34.9504H112.331V40.344ZM123.85 34.9504H125.114L125.005 37.719C124.978 38.4208 124.898 39.0269 124.766 39.5374C124.633 40.0478 124.465 40.483 124.26 40.843C124.055 41.1985 123.825 41.497 123.569 41.7385C123.319 41.9801 123.059 42.1829 122.79 42.3469H122.161L122.195 41.3147L122.455 41.3079C122.605 41.1301 122.751 40.9478 122.893 40.761C123.034 40.5696 123.164 40.344 123.282 40.0842C123.401 39.8199 123.499 39.4986 123.576 39.1204C123.658 38.7375 123.711 38.2704 123.733 37.719L123.85 34.9504ZM124.164 34.9504H128.614V42.3469H127.35V36.1194H124.164V34.9504ZM121.874 41.3079H129.564V44.5276H128.3V42.3469H123.139V44.5276H121.867L121.874 41.3079ZM134.035 42.4836C133.52 42.4836 133.053 42.3971 132.634 42.2239C132.219 42.0461 131.861 41.7978 131.561 41.4788C131.264 41.1597 131.036 40.7815 130.877 40.344C130.717 39.9065 130.638 39.428 130.638 38.9084V38.6213C130.638 38.0198 130.727 37.4843 130.904 37.0149C131.082 36.5409 131.324 36.1399 131.629 35.8118C131.934 35.4836 132.281 35.2353 132.668 35.0667C133.055 34.898 133.456 34.8137 133.871 34.8137C134.4 34.8137 134.855 34.9049 135.238 35.0872C135.626 35.2694 135.942 35.5247 136.188 35.8528C136.435 36.1764 136.617 36.5592 136.735 37.0012C136.854 37.4387 136.913 37.9172 136.913 38.4368V39.0042H131.39V37.9719H135.648V37.8762C135.63 37.5481 135.562 37.2291 135.443 36.9192C135.329 36.6093 135.147 36.3541 134.896 36.1536C134.646 35.953 134.304 35.8528 133.871 35.8528C133.584 35.8528 133.32 35.9143 133.078 36.0374C132.837 36.1558 132.629 36.3336 132.456 36.5706C132.283 36.8075 132.148 37.0969 132.053 37.4387C131.957 37.7805 131.909 38.1747 131.909 38.6213V38.9084C131.909 39.2594 131.957 39.5898 132.053 39.8997C132.153 40.205 132.297 40.4739 132.483 40.7063C132.675 40.9387 132.905 41.121 133.174 41.2532C133.447 41.3853 133.757 41.4514 134.104 41.4514C134.55 41.4514 134.928 41.3603 135.238 41.178C135.548 40.9957 135.819 40.7519 136.052 40.4465L136.817 41.0549C136.658 41.2965 136.455 41.5266 136.209 41.7454C135.963 41.9641 135.66 42.1418 135.3 42.2786C134.944 42.4153 134.523 42.4836 134.035 42.4836ZM139.764 34.9504V42.3469H138.499V34.9504H139.764ZM144.617 34.9504L141.11 39.1887H139.34L139.148 38.0813H140.598L143.079 34.9504H144.617ZM143.257 42.3469L140.536 38.9973L141.35 38.0813L144.863 42.3469H143.257ZM145.479 38.7307V38.5735C145.479 38.0403 145.556 37.5458 145.711 37.0901C145.866 36.6298 146.089 36.231 146.381 35.8938C146.673 35.552 147.026 35.2877 147.44 35.1008C147.855 34.9094 148.32 34.8137 148.835 34.8137C149.354 34.8137 149.822 34.9094 150.236 35.1008C150.656 35.2877 151.011 35.552 151.303 35.8938C151.599 36.231 151.825 36.6298 151.979 37.0901C152.134 37.5458 152.212 38.0403 152.212 38.5735V38.7307C152.212 39.2639 152.134 39.7584 151.979 40.2141C151.825 40.6698 151.599 41.0686 151.303 41.4104C151.011 41.7476 150.658 42.012 150.243 42.2034C149.833 42.3902 149.368 42.4836 148.849 42.4836C148.329 42.4836 147.862 42.3902 147.447 42.2034C147.033 42.012 146.677 41.7476 146.381 41.4104C146.089 41.0686 145.866 40.6698 145.711 40.2141C145.556 39.7584 145.479 39.2639 145.479 38.7307ZM146.743 38.5735V38.7307C146.743 39.0999 146.786 39.4485 146.873 39.7766C146.96 40.1002 147.09 40.3873 147.263 40.6379C147.44 40.8886 147.661 41.0868 147.926 41.2327C148.19 41.3739 148.498 41.4446 148.849 41.4446C149.195 41.4446 149.498 41.3739 149.758 41.2327C150.022 41.0868 150.241 40.8886 150.414 40.6379C150.587 40.3873 150.717 40.1002 150.804 39.7766C150.895 39.4485 150.94 39.0999 150.94 38.7307V38.5735C150.94 38.2089 150.895 37.8648 150.804 37.5413C150.717 37.2131 150.585 36.9237 150.407 36.6731C150.234 36.4179 150.015 36.2174 149.751 36.0715C149.491 35.9257 149.186 35.8528 148.835 35.8528C148.489 35.8528 148.183 35.9257 147.919 36.0715C147.659 36.2174 147.44 36.4179 147.263 36.6731C147.09 36.9237 146.96 37.2131 146.873 37.5413C146.786 37.8648 146.743 38.2089 146.743 38.5735ZM158.05 40.6653L160.565 34.9504H161.782L158.487 42.3469H157.612L154.331 34.9504H155.548L158.05 40.6653ZM155.179 34.9504V42.3469H153.914V34.9504H155.179ZM160.88 42.3469V34.9504H162.151V42.3469H160.88ZM169.117 34.9504V35.9963H165.378V34.9504H169.117ZM165.562 34.9504V42.3469H164.298V34.9504H165.562ZM170.238 34.9504V42.3469H168.967V34.9504H170.238ZM171.934 38.7307V38.5735C171.934 38.0403 172.011 37.5458 172.166 37.0901C172.321 36.6298 172.544 36.231 172.836 35.8938C173.128 35.552 173.481 35.2877 173.896 35.1008C174.31 34.9094 174.775 34.8137 175.29 34.8137C175.81 34.8137 176.277 34.9094 176.691 35.1008C177.111 35.2877 177.466 35.552 177.758 35.8938C178.054 36.231 178.28 36.6298 178.435 37.0901C178.59 37.5458 178.667 38.0403 178.667 38.5735V38.7307C178.667 39.2639 178.59 39.7584 178.435 40.2141C178.28 40.6698 178.054 41.0686 177.758 41.4104C177.466 41.7476 177.113 42.012 176.698 42.2034C176.288 42.3902 175.823 42.4836 175.304 42.4836C174.784 42.4836 174.317 42.3902 173.902 42.2034C173.488 42.012 173.132 41.7476 172.836 41.4104C172.544 41.0686 172.321 40.6698 172.166 40.2141C172.011 39.7584 171.934 39.2639 171.934 38.7307ZM173.198 38.5735V38.7307C173.198 39.0999 173.242 39.4485 173.328 39.7766C173.415 40.1002 173.545 40.3873 173.718 40.6379C173.896 40.8886 174.117 41.0868 174.381 41.2327C174.645 41.3739 174.953 41.4446 175.304 41.4446C175.65 41.4446 175.953 41.3739 176.213 41.2327C176.477 41.0868 176.696 40.8886 176.869 40.6379C177.042 40.3873 177.172 40.1002 177.259 39.7766C177.35 39.4485 177.396 39.0999 177.396 38.7307V38.5735C177.396 38.2089 177.35 37.8648 177.259 37.5413C177.172 37.2131 177.04 36.9237 176.862 36.6731C176.689 36.4179 176.47 36.2174 176.206 36.0715C175.946 35.9257 175.641 35.8528 175.29 35.8528C174.944 35.8528 174.638 35.9257 174.374 36.0715C174.114 36.2174 173.896 36.4179 173.718 36.6731C173.545 36.9237 173.415 37.2131 173.328 37.5413C173.242 37.8648 173.198 38.2089 173.198 38.5735ZM183.015 38.8127H181.654V38.0334H182.912C183.263 38.0334 183.541 37.9902 183.746 37.9036C183.951 37.8124 184.097 37.6871 184.184 37.5276C184.27 37.3681 184.313 37.1812 184.313 36.967C184.313 36.7756 184.263 36.5956 184.163 36.427C184.067 36.2538 183.912 36.1148 183.698 36.01C183.484 35.9006 183.197 35.8459 182.837 35.8459C182.545 35.8459 182.281 35.8984 182.044 36.0032C181.807 36.1034 181.618 36.2424 181.477 36.4202C181.34 36.5933 181.271 36.7893 181.271 37.0081H180.007C180.007 36.5569 180.134 36.1695 180.39 35.8459C180.649 35.5178 180.993 35.2649 181.422 35.0872C181.855 34.9094 182.326 34.8206 182.837 34.8206C183.265 34.8206 183.648 34.8684 183.985 34.9641C184.327 35.0553 184.617 35.192 184.854 35.3743C185.09 35.552 185.271 35.7753 185.394 36.0442C185.521 36.3085 185.585 36.6161 185.585 36.967C185.585 37.2177 185.526 37.4547 185.407 37.678C185.289 37.9013 185.118 38.0995 184.895 38.2727C184.671 38.4413 184.4 38.5735 184.081 38.6692C183.767 38.7649 183.411 38.8127 183.015 38.8127ZM181.654 38.3342H183.015C183.457 38.3342 183.846 38.3775 184.184 38.4641C184.521 38.5461 184.803 38.6692 185.031 38.8333C185.259 38.9973 185.43 39.2001 185.544 39.4417C185.662 39.6786 185.722 39.9521 185.722 40.262C185.722 40.6083 185.651 40.9205 185.51 41.1985C185.373 41.4719 185.177 41.7043 184.922 41.8958C184.667 42.0872 184.361 42.233 184.006 42.3333C183.655 42.4335 183.265 42.4836 182.837 42.4836C182.358 42.4836 181.894 42.4016 181.442 42.2375C180.991 42.0735 180.62 41.8206 180.328 41.4788C180.036 41.1324 179.891 40.6926 179.891 40.1594H181.155C181.155 40.3827 181.226 40.5946 181.367 40.7952C181.508 40.9957 181.704 41.1575 181.955 41.2805C182.21 41.4036 182.504 41.4651 182.837 41.4651C183.192 41.4651 183.489 41.4104 183.726 41.301C183.963 41.1917 184.14 41.0458 184.259 40.8635C184.382 40.6812 184.443 40.483 184.443 40.2688C184.443 39.9908 184.389 39.7675 184.279 39.5989C184.17 39.4303 184.001 39.3072 183.773 39.2297C183.55 39.1477 183.263 39.1067 182.912 39.1067H181.654V38.3342ZM188.729 40.344L192.141 34.9504H193.412V42.3469H192.141V36.9534L188.729 42.3469H187.472V34.9504H188.729V40.344ZM195.552 42.3469V34.9504H196.816V41.3079H200.221V34.9504H201.492V42.3469H195.552ZM202.367 41.3079L202.244 44.5413H201.116V42.3469H200.152V41.3079H202.367ZM205.108 40.344L208.52 34.9504H209.791V42.3469H208.52V36.9534L205.108 42.3469H203.851V34.9504H205.108V40.344ZM213.188 40.344L216.6 34.9504H217.871V42.3469H216.6V36.9534L213.188 42.3469H211.931V34.9504H213.188V40.344ZM115.893 54.9504V55.9963H112.153V54.9504H115.893ZM112.338 54.9504V62.3469H111.073V54.9504H112.338ZM117.014 54.9504V62.3469H115.742V54.9504H117.014ZM123.986 54.9504V55.9963H120.411V54.9504H123.986ZM125.101 54.9504V62.3469H123.836V54.9504H125.101ZM120.104 54.9504H121.375L121.184 58.5188C121.152 59.0702 121.099 59.5579 121.026 59.9817C120.958 60.401 120.862 60.761 120.739 61.0618C120.621 61.3625 120.47 61.6086 120.288 61.8C120.11 61.9869 119.896 62.1259 119.646 62.217C119.395 62.3036 119.105 62.3469 118.777 62.3469H118.381V61.2327L118.654 61.2122C118.85 61.1985 119.017 61.1529 119.153 61.0754C119.295 60.998 119.413 60.884 119.509 60.7336C119.604 60.5787 119.682 60.3805 119.741 60.1389C119.805 59.8974 119.853 59.6103 119.885 59.2776C119.921 58.9449 119.949 58.5575 119.967 58.1155L120.104 54.9504ZM131.499 61.0823V57.2747C131.499 56.983 131.44 56.7301 131.321 56.5159C131.207 56.2971 131.034 56.1285 130.802 56.01C130.569 55.8915 130.282 55.8323 129.94 55.8323C129.621 55.8323 129.341 55.887 129.1 55.9963C128.863 56.1057 128.676 56.2493 128.539 56.427C128.407 56.6047 128.341 56.7961 128.341 57.0012H127.076C127.076 56.7369 127.145 56.4749 127.281 56.2151C127.418 55.9553 127.614 55.7206 127.869 55.511C128.129 55.2968 128.439 55.1282 128.799 55.0051C129.163 54.8775 129.569 54.8137 130.016 54.8137C130.553 54.8137 131.027 54.9049 131.438 55.0872C131.852 55.2694 132.176 55.5452 132.408 55.9143C132.645 56.2789 132.764 56.7369 132.764 57.2883V60.7336C132.764 60.9797 132.784 61.2418 132.825 61.5198C132.871 61.7978 132.937 62.037 133.023 62.2375V62.3469H131.704C131.64 62.2011 131.59 62.0074 131.554 61.7659C131.517 61.5198 131.499 61.2919 131.499 61.0823ZM131.718 57.8625L131.731 58.7512H130.453C130.093 58.7512 129.772 58.7808 129.489 58.8401C129.207 58.8948 128.97 58.9791 128.778 59.093C128.587 59.2069 128.441 59.3505 128.341 59.5237C128.241 59.6923 128.19 59.8905 128.19 60.1184C128.19 60.3508 128.243 60.5627 128.348 60.7542C128.452 60.9456 128.61 61.0982 128.819 61.2122C129.034 61.3215 129.296 61.3762 129.605 61.3762C129.993 61.3762 130.335 61.2942 130.631 61.1301C130.927 60.9661 131.162 60.7655 131.335 60.5286C131.513 60.2916 131.608 60.0614 131.622 59.8381L132.162 60.4465C132.13 60.6379 132.044 60.8499 131.902 61.0823C131.761 61.3147 131.572 61.538 131.335 61.7522C131.103 61.9618 130.825 62.1373 130.501 62.2786C130.182 62.4153 129.822 62.4836 129.421 62.4836C128.92 62.4836 128.48 62.3857 128.102 62.1897C127.728 61.9937 127.436 61.7317 127.227 61.4036C127.021 61.0709 126.919 60.6995 126.919 60.2893C126.919 59.8928 126.996 59.5442 127.151 59.2434C127.306 58.9381 127.53 58.6851 127.821 58.4846C128.113 58.2795 128.464 58.1246 128.874 58.0198C129.284 57.915 129.742 57.8625 130.248 57.8625H131.718ZM139.771 58.1565V59.1819H135.86V58.1565H139.771ZM136.127 54.9504V62.3469H134.862V54.9504H136.127ZM140.796 54.9504V62.3469H139.524V54.9504H140.796ZM147.194 61.0823V57.2747C147.194 56.983 147.135 56.7301 147.017 56.5159C146.903 56.2971 146.729 56.1285 146.497 56.01C146.265 55.8915 145.978 55.8323 145.636 55.8323C145.317 55.8323 145.036 55.887 144.795 55.9963C144.558 56.1057 144.371 56.2493 144.234 56.427C144.102 56.6047 144.036 56.7961 144.036 57.0012H142.771C142.771 56.7369 142.84 56.4749 142.977 56.2151C143.113 55.9553 143.309 55.7206 143.564 55.511C143.824 55.2968 144.134 55.1282 144.494 55.0051C144.859 54.8775 145.264 54.8137 145.711 54.8137C146.249 54.8137 146.723 54.9049 147.133 55.0872C147.548 55.2694 147.871 55.5452 148.104 55.9143C148.34 56.2789 148.459 56.7369 148.459 57.2883V60.7336C148.459 60.9797 148.479 61.2418 148.521 61.5198C148.566 61.7978 148.632 62.037 148.719 62.2375V62.3469H147.399C147.336 62.2011 147.285 62.0074 147.249 61.7659C147.213 61.5198 147.194 61.2919 147.194 61.0823ZM147.413 57.8625L147.427 58.7512H146.148C145.788 58.7512 145.467 58.7808 145.185 58.8401C144.902 58.8948 144.665 58.9791 144.474 59.093C144.282 59.2069 144.136 59.3505 144.036 59.5237C143.936 59.6923 143.886 59.8905 143.886 60.1184C143.886 60.3508 143.938 60.5627 144.043 60.7542C144.148 60.9456 144.305 61.0982 144.515 61.2122C144.729 61.3215 144.991 61.3762 145.301 61.3762C145.688 61.3762 146.03 61.2942 146.326 61.1301C146.622 60.9661 146.857 60.7655 147.03 60.5286C147.208 60.2916 147.304 60.0614 147.317 59.8381L147.857 60.4465C147.826 60.6379 147.739 60.8499 147.598 61.0823C147.456 61.3147 147.267 61.538 147.03 61.7522C146.798 61.9618 146.52 62.1373 146.196 62.2786C145.877 62.4153 145.517 62.4836 145.116 62.4836C144.615 62.4836 144.175 62.3857 143.797 62.1897C143.423 61.9937 143.132 61.7317 142.922 61.4036C142.717 61.0709 142.614 60.6995 142.614 60.2893C142.614 59.8928 142.692 59.5442 142.847 59.2434C143.002 58.9381 143.225 58.6851 143.517 58.4846C143.808 58.2795 144.159 58.1246 144.569 58.0198C144.979 57.915 145.438 57.8625 145.943 57.8625H147.413ZM155.254 54.9504H156.519L156.409 57.719C156.382 58.4208 156.302 59.0269 156.17 59.5374C156.038 60.0478 155.869 60.483 155.664 60.843C155.459 61.1985 155.229 61.497 154.974 61.7385C154.723 61.9801 154.463 62.1829 154.194 62.3469H153.565L153.6 61.3147L153.859 61.3079C154.01 61.1301 154.156 60.9478 154.297 60.761C154.438 60.5696 154.568 60.344 154.687 60.0842C154.805 59.8199 154.903 59.4986 154.98 59.1204C155.062 58.7375 155.115 58.2704 155.138 57.719L155.254 54.9504ZM155.568 54.9504H160.019V62.3469H158.754V56.1194H155.568V54.9504ZM153.278 61.3079H160.969V64.5276H159.704V62.3469H154.543V64.5276H153.271L153.278 61.3079ZM165.439 62.4836C164.924 62.4836 164.457 62.3971 164.038 62.2239C163.623 62.0461 163.266 61.7978 162.965 61.4788C162.669 61.1597 162.441 60.7815 162.281 60.344C162.122 59.9065 162.042 59.428 162.042 58.9084V58.6213C162.042 58.0198 162.131 57.4843 162.309 57.0149C162.486 56.5409 162.728 56.1399 163.033 55.8118C163.339 55.4836 163.685 55.2353 164.072 55.0667C164.46 54.898 164.861 54.8137 165.275 54.8137C165.804 54.8137 166.26 54.9049 166.643 55.0872C167.03 55.2694 167.347 55.5247 167.593 55.8528C167.839 56.1764 168.021 56.5592 168.14 57.0012C168.258 57.4387 168.317 57.9172 168.317 58.4368V59.0042H162.794V57.9719H167.053V57.8762C167.035 57.5481 166.966 57.2291 166.848 56.9192C166.734 56.6093 166.551 56.3541 166.301 56.1536C166.05 55.953 165.708 55.8528 165.275 55.8528C164.988 55.8528 164.724 55.9143 164.482 56.0374C164.241 56.1558 164.034 56.3336 163.86 56.5706C163.687 56.8075 163.553 57.0969 163.457 57.4387C163.361 57.7805 163.313 58.1747 163.313 58.6213V58.9084C163.313 59.2594 163.361 59.5898 163.457 59.8997C163.557 60.205 163.701 60.4739 163.888 60.7063C164.079 60.9387 164.309 61.121 164.578 61.2532C164.852 61.3853 165.161 61.4514 165.508 61.4514C165.954 61.4514 166.333 61.3603 166.643 61.178C166.952 60.9957 167.224 60.7519 167.456 60.4465L168.222 61.0549C168.062 61.2965 167.859 61.5266 167.613 61.7454C167.367 61.9641 167.064 62.1418 166.704 62.2786C166.349 62.4153 165.927 62.4836 165.439 62.4836ZM171.161 60.344L174.572 54.9504H175.844V62.3469H174.572V56.9534L171.161 62.3469H169.903V54.9504H171.161V60.344ZM173.882 52.2708H174.907C174.907 52.6262 174.825 52.943 174.661 53.2209C174.497 53.4944 174.262 53.7086 173.957 53.8635C173.652 54.0185 173.289 54.0959 172.87 54.0959C172.237 54.0959 171.735 53.9273 171.366 53.5901C171.002 53.2483 170.819 52.8085 170.819 52.2708H171.845C171.845 52.5396 171.922 52.7766 172.077 52.9817C172.232 53.1868 172.496 53.2893 172.87 53.2893C173.235 53.2893 173.494 53.1868 173.649 52.9817C173.804 52.7766 173.882 52.5396 173.882 52.2708ZM180.834 61.4446C181.135 61.4446 181.413 61.3831 181.668 61.26C181.923 61.137 182.133 60.9683 182.297 60.7542C182.461 60.5354 182.554 60.287 182.577 60.009H183.78C183.757 60.4465 183.609 60.8544 183.336 61.2327C183.067 61.6064 182.714 61.9094 182.276 62.1418C181.839 62.3697 181.358 62.4836 180.834 62.4836C180.278 62.4836 179.793 62.3857 179.378 62.1897C178.968 61.9937 178.626 61.7249 178.353 61.3831C178.084 61.0413 177.881 60.6493 177.744 60.2073C177.612 59.7607 177.546 59.289 177.546 58.7922V58.5051C177.546 58.0084 177.612 57.539 177.744 57.0969C177.881 56.6503 178.084 56.2561 178.353 55.9143C178.626 55.5725 178.968 55.3036 179.378 55.1077C179.793 54.9117 180.278 54.8137 180.834 54.8137C181.413 54.8137 181.919 54.9322 182.352 55.1692C182.785 55.4016 183.124 55.7206 183.37 56.1262C183.621 56.5273 183.757 56.983 183.78 57.4934H182.577C182.554 57.1881 182.468 56.9124 182.317 56.6663C182.172 56.4202 181.971 56.2242 181.716 56.0784C181.465 55.928 181.171 55.8528 180.834 55.8528C180.447 55.8528 180.121 55.9303 179.856 56.0852C179.597 56.2356 179.389 56.4407 179.234 56.7004C179.084 56.9556 178.975 57.2405 178.906 57.5549C178.842 57.8648 178.811 58.1816 178.811 58.5051V58.7922C178.811 59.1158 178.842 59.4348 178.906 59.7493C178.97 60.0637 179.077 60.3486 179.228 60.6038C179.382 60.859 179.59 61.064 179.85 61.219C180.114 61.3694 180.442 61.4446 180.834 61.4446ZM188.217 54.9504V62.3469H186.945V54.9504H188.217ZM190.698 54.9504V55.9758H184.512V54.9504H190.698ZM195.415 59.093H192.988L192.975 58.0813H194.957C195.349 58.0813 195.675 58.0426 195.935 57.9651C196.199 57.8876 196.397 57.7714 196.529 57.6165C196.661 57.4615 196.728 57.2701 196.728 57.0422C196.728 56.8645 196.689 56.7096 196.611 56.5774C196.538 56.4407 196.427 56.329 196.276 56.2424C196.126 56.1513 195.939 56.0852 195.716 56.0442C195.497 55.9986 195.24 55.9758 194.943 55.9758H193.323V62.3469H192.059V54.9504H194.943C195.413 54.9504 195.834 54.9915 196.208 55.0735C196.586 55.1555 196.908 55.2808 197.172 55.4495C197.441 55.6135 197.646 55.8232 197.787 56.0784C197.928 56.3336 197.999 56.6344 197.999 56.9807C197.999 57.204 197.953 57.4159 197.862 57.6165C197.771 57.817 197.637 57.9947 197.459 58.1497C197.281 58.3046 197.062 58.4322 196.803 58.5325C196.543 58.6282 196.244 58.6897 195.907 58.717L195.415 59.093ZM195.415 62.3469H192.53L193.159 61.3215H195.415C195.766 61.3215 196.058 61.2782 196.29 61.1917C196.522 61.1005 196.696 60.9729 196.81 60.8088C196.928 60.6402 196.987 60.4397 196.987 60.2073C196.987 59.9749 196.928 59.7766 196.81 59.6125C196.696 59.4439 196.522 59.3163 196.29 59.2297C196.058 59.1386 195.766 59.093 195.415 59.093H193.494L193.508 58.0813H195.907L196.365 58.4641C196.771 58.496 197.115 58.5963 197.397 58.7649C197.68 58.9335 197.894 59.1477 198.04 59.4075C198.186 59.6627 198.259 59.9407 198.259 60.2415C198.259 60.5878 198.193 60.8931 198.061 61.1575C197.933 61.4218 197.746 61.6428 197.5 61.8206C197.254 61.9937 196.955 62.1259 196.604 62.217C196.254 62.3036 195.857 62.3469 195.415 62.3469ZM201.321 60.344L204.732 54.9504H206.004V62.3469H204.732V56.9534L201.321 62.3469H200.063V54.9504H201.321V60.344ZM209.401 60.344L212.812 54.9504H214.084V62.3469H212.812V56.9534L209.401 62.3469H208.144V54.9504H209.401V60.344ZM212.122 52.2708H213.147C213.147 52.6262 213.065 52.943 212.901 53.2209C212.737 53.4944 212.503 53.7086 212.197 53.8635C211.892 54.0185 211.53 54.0959 211.11 54.0959C210.477 54.0959 209.976 53.9273 209.606 53.5901C209.242 53.2483 209.06 52.8085 209.06 52.2708H210.085C210.085 52.5396 210.162 52.7766 210.317 52.9817C210.472 53.1868 210.737 53.2893 211.11 53.2893C211.475 53.2893 211.735 53.1868 211.89 52.9817C212.045 52.7766 212.122 52.5396 212.122 52.2708Z" fill="black"/>
<path d="M85 42.3469L59 42.3469" stroke="#00A3FF" stroke-miterlimit="10" stroke-linecap="round"/>
<path d="M80 41.8235C79.9954 43.3078 80.4313 44.7602 81.2526 45.9966C82.0739 47.2331 83.2436 48.198 84.6136 48.7693C85.9837 49.3405 87.4924 49.4924 88.9488 49.2057C90.4052 48.9189 91.7437 48.2065 92.795 47.1585C93.8462 46.1106 94.5629 44.7742 94.8542 43.3187C95.1455 41.8632 94.9983 40.354 94.4313 38.9822C93.8644 37.6104 92.9031 36.4377 91.6692 35.6126C90.4354 34.7874 88.9844 34.3469 87.5 34.3469C85.515 34.3469 83.6108 35.1339 82.205 36.5353C80.7991 37.9368 80.0062 39.8384 80 41.8235Z" fill="#00A3FF"/>
<path d="M87.4766 44.7532C85.8586 44.7532 84.5469 43.4415 84.5469 41.8235C84.5469 40.2055 85.8586 38.8938 87.4766 38.8938C89.0946 38.8938 90.4062 40.2055 90.4062 41.8235C90.4062 43.4415 89.0946 44.7532 87.4766 44.7532Z" fill="white"/>
<defs>
<filter id="filter0_d_811_1165" x="262.322" y="0.669434" width="83.3555" height="83.3553" filterUnits="userSpaceOnUse" color-interpolation-filters="sRGB">
<feFlood flood-opacity="0" result="BackgroundImageFix"/>
<feColorMatrix in="SourceAlpha" type="matrix" values="0 0 0 0 0 0 0 0 0 0 0 0 0 0 0 0 0 0 127 0" result="hardAlpha"/>
<feOffset/>
<feGaussianBlur stdDeviation="12"/>
<feComposite in2="hardAlpha" operator="out"/>
<feColorMatrix type="matrix" values="0 0 0 0 0.579167 0 0 0 0 0.579167 0 0 0 0 0.579167 0 0 0 0.3 0"/>
<feBlend mode="normal" in2="BackgroundImageFix" result="effect1_dropShadow_811_1165"/>
<feBlend mode="normal" in="SourceGraphic" in2="effect1_dropShadow_811_1165" result="shape"/>
</filter>
</defs>
</svg>
