<svg width="346" height="85" viewBox="0 0 346 85" fill="none" xmlns="http://www.w3.org/2000/svg">
<g filter="url(#filter0_d_315_347)">
<path d="M316.5 54.8472C323.404 47.9436 323.404 36.7507 316.5 29.8472C309.596 22.9436 298.404 22.9436 291.5 29.8472C284.596 36.7507 284.596 47.9436 291.5 54.8472C298.404 61.7507 309.596 61.7507 316.5 54.8472Z" fill="white"/>
</g>
<path d="M309.526 42.3453C309.529 43.3924 309.222 44.4171 308.643 45.29C308.065 46.1629 307.241 46.845 306.276 47.2502C305.31 47.6554 304.246 47.7657 303.218 47.567C302.19 47.3683 301.244 46.8696 300.499 46.1338C299.754 45.3979 299.243 44.458 299.032 43.4324C298.82 42.4068 298.917 41.3416 299.31 40.3711C299.703 39.4006 300.375 38.5682 301.241 37.979C302.106 37.3897 303.127 37.0701 304.174 37.0602C304.874 37.0515 305.568 37.1817 306.217 37.4434C306.866 37.705 307.456 38.0929 307.954 38.5846C308.452 39.0762 308.847 39.6618 309.117 40.3074C309.387 40.9529 309.526 41.6456 309.526 42.3453V42.3453Z" fill="#00A3FF"/>
<path d="M304.24 44.4161C305.384 44.4161 306.311 43.4889 306.311 42.3451C306.311 41.2014 305.384 40.2742 304.24 40.2742C303.096 40.2742 302.169 41.2014 302.169 42.3451C302.169 43.4889 303.096 44.4161 304.24 44.4161Z" fill="white"/>
<path d="M53.0456 60.0204C62.811 50.2596 62.811 34.4342 53.0455 24.6734C43.2801 14.9127 27.4473 14.9126 17.6819 24.6734C7.91646 34.4342 7.91643 50.2596 17.6819 60.0204C27.4473 69.7812 43.2802 69.7812 53.0456 60.0204Z" fill="#00A3FF"/>
<path d="M27.6265 34.1887H30.7515V51.6936H27.0039V38.9495H24.001V36.5691C24.5381 36.504 25.0304 36.3778 25.478 36.1907C25.9256 35.9954 26.2715 35.7878 26.5156 35.5681C26.7679 35.3484 26.9795 35.1368 27.1504 34.9333C27.3294 34.7218 27.4556 34.5427 27.5288 34.3962L27.6265 34.1887ZM43.2637 42.4407C43.3451 42.4732 43.4549 42.5221 43.5933 42.5872C43.7397 42.6441 43.992 42.7906 44.3501 43.0266C44.7082 43.2545 45.0215 43.519 45.29 43.8201C45.5667 44.1212 45.819 44.5403 46.0469 45.0774C46.2747 45.6064 46.3887 46.1882 46.3887 46.823C46.3887 48.2553 45.7905 49.4882 44.5942 50.5217C43.4061 51.5553 41.8354 52.072 39.8823 52.072C39.0522 52.072 38.2507 51.9744 37.4775 51.7791C36.7126 51.5919 36.0859 51.364 35.5977 51.0955C35.1094 50.8269 34.6781 50.5624 34.3037 50.302C33.9375 50.0334 33.673 49.7974 33.5103 49.594L33.2539 49.3132L35.5122 46.9451C35.5448 46.9939 35.5977 47.0631 35.6709 47.1526C35.7441 47.234 35.911 47.3845 36.1714 47.6042C36.4318 47.8158 36.7044 48.0071 36.9893 48.178C37.2822 48.3407 37.6525 48.4872 38.1001 48.6174C38.5558 48.7476 39.0238 48.8127 39.5039 48.8127C40.4723 48.8127 41.2129 48.6012 41.7256 48.178C42.2464 47.7548 42.5068 47.2177 42.5068 46.5667C42.5068 45.9156 42.2505 45.3785 41.7378 44.9553C41.2332 44.5321 40.5334 44.3206 39.6382 44.3206H37.7583V41.1956H39.5039C40.2363 41.1956 40.8141 41.0002 41.2373 40.6096C41.6686 40.219 41.8843 39.7063 41.8843 39.0715C41.8843 38.4856 41.6727 38.0055 41.2495 37.6311C40.8263 37.2568 40.2445 37.0696 39.5039 37.0696C38.8691 37.0696 38.271 37.2079 37.7095 37.4846C37.1561 37.7613 36.7573 38.0299 36.5132 38.2903L36.1348 38.6931L33.8887 36.447C33.9375 36.3819 34.0107 36.2924 34.1084 36.1785C34.2061 36.0564 34.438 35.8407 34.8042 35.5315C35.1785 35.2222 35.5773 34.9578 36.0005 34.738C36.4237 34.5102 36.9852 34.3027 37.6851 34.1155C38.3849 33.9202 39.1174 33.8225 39.8823 33.8225C41.6483 33.8225 43.0684 34.2904 44.1426 35.2263C45.2168 36.1541 45.7539 37.3097 45.7539 38.6931C45.7539 39.2058 45.6644 39.686 45.4854 40.1335C45.3145 40.573 45.1069 40.9311 44.8628 41.2078C44.6268 41.4845 44.3867 41.7205 44.1426 41.9158C43.9066 42.1029 43.695 42.2372 43.5078 42.3186L43.2637 42.4407Z" fill="white"/>
<path d="M112.536 12.3938V22.3469H111.217V12.3938H112.536ZM118.668 12.3938L114.348 17.8694H112.01L111.805 16.7756H113.562L117.034 12.3938H118.668ZM117.342 22.3469L113.603 17.6985L114.341 16.5432L118.955 22.3469H117.342ZM121.061 16.3723V25.1907H119.789V14.9504H120.951L121.061 16.3723ZM126.044 18.5872V18.7307C126.044 19.2685 125.98 19.7675 125.853 20.2278C125.725 20.6835 125.538 21.08 125.292 21.4172C125.05 21.7545 124.752 22.0165 124.396 22.2034C124.041 22.3902 123.633 22.4836 123.173 22.4836C122.703 22.4836 122.289 22.4062 121.929 22.2512C121.569 22.0963 121.263 21.8707 121.013 21.5745C120.762 21.2782 120.562 20.9228 120.411 20.5081C120.265 20.0933 120.165 19.6262 120.11 19.1067V18.3411C120.165 17.7942 120.268 17.3043 120.418 16.8713C120.568 16.4384 120.767 16.0693 121.013 15.7639C121.263 15.454 121.566 15.2193 121.922 15.0598C122.277 14.8958 122.688 14.8137 123.152 14.8137C123.617 14.8137 124.03 14.9049 124.39 15.0872C124.75 15.2649 125.053 15.5201 125.299 15.8528C125.545 16.1855 125.729 16.5842 125.853 17.0491C125.98 17.5094 126.044 18.0221 126.044 18.5872ZM124.772 18.7307V18.5872C124.772 18.218 124.734 17.8717 124.656 17.5481C124.579 17.22 124.458 16.9329 124.294 16.6868C124.134 16.4361 123.929 16.2402 123.679 16.0989C123.428 15.953 123.13 15.8801 122.783 15.8801C122.464 15.8801 122.186 15.9348 121.949 16.0442C121.717 16.1536 121.519 16.3017 121.354 16.4885C121.19 16.6708 121.056 16.8805 120.951 17.1174C120.851 17.3499 120.776 17.5914 120.726 17.842V19.6125C120.817 19.9316 120.944 20.2323 121.108 20.5149C121.272 20.7929 121.491 21.0185 121.765 21.1917C122.038 21.3603 122.382 21.4446 122.797 21.4446C123.139 21.4446 123.433 21.3739 123.679 21.2327C123.929 21.0868 124.134 20.8886 124.294 20.6379C124.458 20.3873 124.579 20.1002 124.656 19.7766C124.734 19.4485 124.772 19.0999 124.772 18.7307ZM132.019 21.0823V17.2747C132.019 16.983 131.959 16.7301 131.841 16.5159C131.727 16.2971 131.554 16.1285 131.321 16.01C131.089 15.8915 130.802 15.8323 130.46 15.8323C130.141 15.8323 129.861 15.887 129.619 15.9963C129.382 16.1057 129.195 16.2493 129.059 16.427C128.926 16.6047 128.86 16.7961 128.86 17.0012H127.596C127.596 16.7369 127.664 16.4749 127.801 16.2151C127.938 15.9553 128.133 15.7206 128.389 15.511C128.648 15.2968 128.958 15.1282 129.318 15.0051C129.683 14.8775 130.089 14.8137 130.535 14.8137C131.073 14.8137 131.547 14.9049 131.957 15.0872C132.372 15.2694 132.695 15.5452 132.928 15.9143C133.165 16.2789 133.283 16.7369 133.283 17.2883V20.7336C133.283 20.9797 133.304 21.2418 133.345 21.5198C133.39 21.7978 133.456 22.037 133.543 22.2375V22.3469H132.224C132.16 22.2011 132.11 22.0074 132.073 21.7659C132.037 21.5198 132.019 21.2919 132.019 21.0823ZM132.237 17.8625L132.251 18.7512H130.973C130.613 18.7512 130.291 18.7808 130.009 18.8401C129.726 18.8948 129.489 18.9791 129.298 19.093C129.106 19.2069 128.961 19.3505 128.86 19.5237C128.76 19.6923 128.71 19.8905 128.71 20.1184C128.71 20.3508 128.762 20.5627 128.867 20.7542C128.972 20.9456 129.129 21.0982 129.339 21.2122C129.553 21.3215 129.815 21.3762 130.125 21.3762C130.512 21.3762 130.854 21.2942 131.15 21.1301C131.447 20.9661 131.681 20.7655 131.854 20.5286C132.032 20.2916 132.128 20.0614 132.142 19.8381L132.682 20.4465C132.65 20.6379 132.563 20.8499 132.422 21.0823C132.281 21.3147 132.091 21.538 131.854 21.7522C131.622 21.9618 131.344 22.1373 131.021 22.2786C130.701 22.4153 130.341 22.4836 129.94 22.4836C129.439 22.4836 128.999 22.3857 128.621 22.1897C128.247 21.9937 127.956 21.7317 127.746 21.4036C127.541 21.0709 127.438 20.6995 127.438 20.2893C127.438 19.8928 127.516 19.5442 127.671 19.2434C127.826 18.9381 128.049 18.6851 128.341 18.4846C128.632 18.2795 128.983 18.1246 129.394 18.0198C129.804 17.915 130.262 17.8625 130.768 17.8625H132.237ZM138.178 14.9504V22.3469H136.906V14.9504H138.178ZM140.659 14.9504V15.9758H134.473V14.9504H140.659ZM146.921 18.1565V19.1819H143.011V18.1565H146.921ZM143.277 14.9504V22.3469H142.013V14.9504H143.277ZM147.946 14.9504V22.3469H146.675V14.9504H147.946ZM149.648 18.7307V18.5735C149.648 18.0403 149.726 17.5458 149.881 17.0901C150.036 16.6298 150.259 16.231 150.551 15.8938C150.842 15.552 151.196 15.2877 151.61 15.1008C152.025 14.9094 152.49 14.8137 153.005 14.8137C153.524 14.8137 153.992 14.9094 154.406 15.1008C154.826 15.2877 155.181 15.552 155.473 15.8938C155.769 16.231 155.994 16.6298 156.149 17.0901C156.304 17.5458 156.382 18.0403 156.382 18.5735V18.7307C156.382 19.2639 156.304 19.7584 156.149 20.2141C155.994 20.6698 155.769 21.0686 155.473 21.4104C155.181 21.7476 154.828 22.012 154.413 22.2034C154.003 22.3902 153.538 22.4836 153.019 22.4836C152.499 22.4836 152.032 22.3902 151.617 22.2034C151.202 22.012 150.847 21.7476 150.551 21.4104C150.259 21.0686 150.036 20.6698 149.881 20.2141C149.726 19.7584 149.648 19.2639 149.648 18.7307ZM150.913 18.5735V18.7307C150.913 19.0999 150.956 19.4485 151.043 19.7766C151.13 20.1002 151.259 20.3873 151.433 20.6379C151.61 20.8886 151.831 21.0868 152.096 21.2327C152.36 21.3739 152.668 21.4446 153.019 21.4446C153.365 21.4446 153.668 21.3739 153.928 21.2327C154.192 21.0868 154.411 20.8886 154.584 20.6379C154.757 20.3873 154.887 20.1002 154.974 19.7766C155.065 19.4485 155.11 19.0999 155.11 18.7307V18.5735C155.11 18.2089 155.065 17.8648 154.974 17.5413C154.887 17.2131 154.755 16.9237 154.577 16.6731C154.404 16.4179 154.185 16.2174 153.921 16.0715C153.661 15.9257 153.356 15.8528 153.005 15.8528C152.659 15.8528 152.353 15.9257 152.089 16.0715C151.829 16.2174 151.61 16.4179 151.433 16.6731C151.259 16.9237 151.13 17.2131 151.043 17.5413C150.956 17.8648 150.913 18.2089 150.913 18.5735ZM161.037 22.4836C160.522 22.4836 160.055 22.3971 159.636 22.2239C159.221 22.0461 158.863 21.7978 158.562 21.4788C158.266 21.1597 158.038 20.7815 157.879 20.344C157.719 19.9065 157.64 19.428 157.64 18.9084V18.6213C157.64 18.0198 157.729 17.4843 157.906 17.0149C158.084 16.5409 158.326 16.1399 158.631 15.8118C158.936 15.4836 159.283 15.2353 159.67 15.0667C160.057 14.898 160.458 14.8137 160.873 14.8137C161.402 14.8137 161.857 14.9049 162.24 15.0872C162.628 15.2694 162.944 15.5247 163.19 15.8528C163.437 16.1764 163.619 16.5592 163.737 17.0012C163.856 17.4387 163.915 17.9172 163.915 18.4368V19.0042H158.392V17.9719H162.65V17.8762C162.632 17.5481 162.564 17.2291 162.445 16.9192C162.331 16.6093 162.149 16.3541 161.898 16.1536C161.648 15.953 161.306 15.8528 160.873 15.8528C160.586 15.8528 160.322 15.9143 160.08 16.0374C159.839 16.1558 159.631 16.3336 159.458 16.5706C159.285 16.8075 159.15 17.0969 159.055 17.4387C158.959 17.7805 158.911 18.1747 158.911 18.6213V18.9084C158.911 19.2594 158.959 19.5898 159.055 19.8997C159.155 20.205 159.299 20.4739 159.485 20.7063C159.677 20.9387 159.907 21.121 160.176 21.2532C160.449 21.3853 160.759 21.4514 161.105 21.4514C161.552 21.4514 161.93 21.3603 162.24 21.178C162.55 20.9957 162.821 20.7519 163.054 20.4465L163.819 21.0549C163.66 21.2965 163.457 21.5266 163.211 21.7454C162.965 21.9641 162.662 22.1418 162.302 22.2786C161.946 22.4153 161.525 22.4836 161.037 22.4836ZM115.216 40.6653L117.731 34.9504H118.948L115.653 42.3469H114.778L111.497 34.9504H112.714L115.216 40.6653ZM112.345 34.9504V42.3469H111.08V34.9504H112.345ZM118.046 42.3469V34.9504H119.317V42.3469H118.046ZM125.716 41.0823V37.2747C125.716 36.983 125.657 36.7301 125.538 36.5159C125.424 36.2971 125.251 36.1285 125.019 36.01C124.786 35.8915 124.499 35.8323 124.157 35.8323C123.838 35.8323 123.558 35.887 123.316 35.9963C123.079 36.1057 122.893 36.2493 122.756 36.427C122.624 36.6047 122.558 36.7961 122.558 37.0012H121.293C121.293 36.7369 121.361 36.4749 121.498 36.2151C121.635 35.9553 121.831 35.7206 122.086 35.511C122.346 35.2968 122.656 35.1282 123.016 35.0051C123.38 34.8775 123.786 34.8137 124.232 34.8137C124.77 34.8137 125.244 34.9049 125.654 35.0872C126.069 35.2694 126.393 35.5452 126.625 35.9143C126.862 36.2789 126.98 36.7369 126.98 37.2883V40.7336C126.98 40.9797 127.001 41.2418 127.042 41.5198C127.088 41.7978 127.154 42.037 127.24 42.2375V42.3469H125.921C125.857 42.2011 125.807 42.0074 125.771 41.7659C125.734 41.5198 125.716 41.2919 125.716 41.0823ZM125.935 37.8625L125.948 38.7512H124.67C124.31 38.7512 123.989 38.7808 123.706 38.8401C123.424 38.8948 123.187 38.9791 122.995 39.093C122.804 39.2069 122.658 39.3505 122.558 39.5237C122.457 39.6923 122.407 39.8905 122.407 40.1184C122.407 40.3508 122.46 40.5627 122.564 40.7542C122.669 40.9456 122.826 41.0982 123.036 41.2122C123.25 41.3215 123.512 41.3762 123.822 41.3762C124.21 41.3762 124.551 41.2942 124.848 41.1301C125.144 40.9661 125.379 40.7655 125.552 40.5286C125.729 40.2916 125.825 40.0614 125.839 39.8381L126.379 40.4465C126.347 40.6379 126.26 40.8499 126.119 41.0823C125.978 41.3147 125.789 41.538 125.552 41.7522C125.319 41.9618 125.041 42.1373 124.718 42.2786C124.399 42.4153 124.039 42.4836 123.638 42.4836C123.136 42.4836 122.697 42.3857 122.318 42.1897C121.945 41.9937 121.653 41.7317 121.443 41.4036C121.238 41.0709 121.136 40.6995 121.136 40.2893C121.136 39.8928 121.213 39.5442 121.368 39.2434C121.523 38.9381 121.746 38.6851 122.038 38.4846C122.33 38.2795 122.681 38.1246 123.091 38.0198C123.501 37.915 123.959 37.8625 124.465 37.8625H125.935ZM131.93 41.4446C132.23 41.4446 132.508 41.3831 132.764 41.26C133.019 41.137 133.229 40.9683 133.393 40.7542C133.557 40.5354 133.65 40.287 133.673 40.009H134.876C134.853 40.4465 134.705 40.8544 134.432 41.2327C134.163 41.6064 133.81 41.9094 133.372 42.1418C132.935 42.3697 132.454 42.4836 131.93 42.4836C131.374 42.4836 130.888 42.3857 130.474 42.1897C130.063 41.9937 129.722 41.7249 129.448 41.3831C129.179 41.0413 128.977 40.6493 128.84 40.2073C128.708 39.7607 128.642 39.289 128.642 38.7922V38.5051C128.642 38.0084 128.708 37.539 128.84 37.0969C128.977 36.6503 129.179 36.2561 129.448 35.9143C129.722 35.5725 130.063 35.3036 130.474 35.1077C130.888 34.9117 131.374 34.8137 131.93 34.8137C132.508 34.8137 133.014 34.9322 133.447 35.1692C133.88 35.4016 134.22 35.7206 134.466 36.1262C134.716 36.5273 134.853 36.983 134.876 37.4934H133.673C133.65 37.1881 133.563 36.9124 133.413 36.6663C133.267 36.4202 133.067 36.2242 132.812 36.0784C132.561 35.928 132.267 35.8528 131.93 35.8528C131.542 35.8528 131.216 35.9303 130.952 36.0852C130.692 36.2356 130.485 36.4407 130.33 36.7004C130.18 36.9556 130.07 37.2405 130.002 37.5549C129.938 37.8648 129.906 38.1816 129.906 38.5051V38.7922C129.906 39.1158 129.938 39.4348 130.002 39.7493C130.066 40.0637 130.173 40.3486 130.323 40.6038C130.478 40.859 130.686 41.064 130.945 41.219C131.21 41.3694 131.538 41.4446 131.93 41.4446ZM136.407 34.9504H137.672V41.3079H140.379V34.9504H141.65V41.3079H144.351V34.9504H145.615V42.3469H136.407V34.9504ZM150.646 34.9504V42.3469H149.375V34.9504H150.646ZM153.128 34.9504V35.9758H146.941V34.9504H153.128ZM158.624 41.0823V37.2747C158.624 36.983 158.565 36.7301 158.446 36.5159C158.332 36.2971 158.159 36.1285 157.927 36.01C157.694 35.8915 157.407 35.8323 157.065 35.8323C156.746 35.8323 156.466 35.887 156.225 35.9963C155.988 36.1057 155.801 36.2493 155.664 36.427C155.532 36.6047 155.466 36.7961 155.466 37.0012H154.201C154.201 36.7369 154.27 36.4749 154.406 36.2151C154.543 35.9553 154.739 35.7206 154.994 35.511C155.254 35.2968 155.564 35.1282 155.924 35.0051C156.288 34.8775 156.694 34.8137 157.141 34.8137C157.678 34.8137 158.152 34.9049 158.562 35.0872C158.977 35.2694 159.301 35.5452 159.533 35.9143C159.77 36.2789 159.889 36.7369 159.889 37.2883V40.7336C159.889 40.9797 159.909 41.2418 159.95 41.5198C159.996 41.7978 160.062 42.037 160.148 42.2375V42.3469H158.829C158.765 42.2011 158.715 42.0074 158.679 41.7659C158.642 41.5198 158.624 41.2919 158.624 41.0823ZM158.843 37.8625L158.856 38.7512H157.578C157.218 38.7512 156.897 38.7808 156.614 38.8401C156.332 38.8948 156.095 38.9791 155.903 39.093C155.712 39.2069 155.566 39.3505 155.466 39.5237C155.366 39.6923 155.315 39.8905 155.315 40.1184C155.315 40.3508 155.368 40.5627 155.473 40.7542C155.577 40.9456 155.735 41.0982 155.944 41.2122C156.159 41.3215 156.421 41.3762 156.73 41.3762C157.118 41.3762 157.46 41.2942 157.756 41.1301C158.052 40.9661 158.287 40.7655 158.46 40.5286C158.638 40.2916 158.733 40.0614 158.747 39.8381L159.287 40.4465C159.255 40.6379 159.169 40.8499 159.027 41.0823C158.886 41.3147 158.697 41.538 158.46 41.7522C158.228 41.9618 157.95 42.1373 157.626 42.2786C157.307 42.4153 156.947 42.4836 156.546 42.4836C156.045 42.4836 155.605 42.3857 155.227 42.1897C154.853 41.9937 154.561 41.7317 154.352 41.4036C154.146 41.0709 154.044 40.6995 154.044 40.2893C154.044 39.8928 154.121 39.5442 154.276 39.2434C154.431 38.9381 154.655 38.6851 154.946 38.4846C155.238 38.2795 155.589 38.1246 155.999 38.0198C156.409 37.915 156.867 37.8625 157.373 37.8625H158.843ZM166.622 31.7307H167.661C167.661 32.1773 167.593 32.5328 167.456 32.7971C167.319 33.0569 167.132 33.2574 166.896 33.3987C166.663 33.54 166.399 33.6471 166.103 33.72C165.811 33.7929 165.508 33.8635 165.193 33.9319C164.801 34.0139 164.437 34.1438 164.1 34.3215C163.767 34.4947 163.48 34.7408 163.238 35.0598C163.001 35.3788 162.826 35.7935 162.712 36.304C162.603 36.8144 162.573 37.4456 162.623 38.1975V38.8264H161.584V38.1975C161.584 37.3544 161.664 36.6184 161.823 35.9895C161.987 35.3606 162.217 34.8297 162.514 34.3967C162.81 33.9638 163.161 33.6197 163.566 33.3645C163.977 33.1093 164.428 32.9338 164.92 32.8381C165.275 32.7698 165.581 32.6969 165.836 32.6194C166.091 32.5374 166.285 32.428 166.417 32.2913C166.554 32.1545 166.622 31.9677 166.622 31.7307ZM165.125 35.3743C165.608 35.3743 166.039 35.4586 166.417 35.6272C166.795 35.7958 167.117 36.0305 167.381 36.3313C167.645 36.6321 167.846 36.9875 167.982 37.3977C168.124 37.8033 168.194 38.2454 168.194 38.7239V38.8743C168.194 39.3892 168.119 39.8678 167.969 40.3098C167.823 40.7473 167.606 41.1301 167.319 41.4583C167.037 41.7818 166.69 42.0347 166.28 42.217C165.875 42.3993 165.412 42.4905 164.893 42.4905C164.373 42.4905 163.908 42.3993 163.498 42.217C163.092 42.0347 162.746 41.7818 162.459 41.4583C162.172 41.1301 161.953 40.7473 161.803 40.3098C161.657 39.8678 161.584 39.3892 161.584 38.8743V38.7239C161.584 38.6099 161.604 38.4983 161.646 38.3889C161.687 38.2795 161.737 38.1679 161.796 38.054C161.86 37.94 161.917 37.8193 161.967 37.6917C162.135 37.2815 162.366 36.901 162.657 36.55C162.953 36.1991 163.307 35.9166 163.717 35.7024C164.132 35.4836 164.601 35.3743 165.125 35.3743ZM164.879 36.4065C164.414 36.4065 164.031 36.5136 163.73 36.7278C163.434 36.942 163.213 37.2268 163.067 37.5823C162.922 37.9332 162.849 38.3137 162.849 38.7239V38.8743C162.849 39.2206 162.89 39.5487 162.972 39.8586C163.054 40.1685 163.177 40.4443 163.341 40.6858C163.509 40.9228 163.721 41.1096 163.977 41.2463C164.236 41.3831 164.542 41.4514 164.893 41.4514C165.243 41.4514 165.547 41.3831 165.802 41.2463C166.057 41.1096 166.267 40.9228 166.431 40.6858C166.595 40.4443 166.718 40.1685 166.8 39.8586C166.882 39.5487 166.923 39.2206 166.923 38.8743V38.7239C166.923 38.414 166.882 38.12 166.8 37.842C166.718 37.564 166.592 37.318 166.424 37.1038C166.26 36.8896 166.048 36.7209 165.788 36.5979C165.533 36.4703 165.23 36.4065 164.879 36.4065ZM170.874 40.344L174.285 34.9504H175.557V42.3469H174.285V36.9534L170.874 42.3469H169.616V34.9504H170.874V40.344ZM178.852 36.3723V45.1907H177.58V34.9504H178.742L178.852 36.3723ZM183.835 38.5872V38.7307C183.835 39.2685 183.771 39.7675 183.644 40.2278C183.516 40.6835 183.329 41.08 183.083 41.4172C182.841 41.7545 182.543 42.0165 182.188 42.2034C181.832 42.3902 181.424 42.4836 180.964 42.4836C180.494 42.4836 180.08 42.4062 179.72 42.2512C179.36 42.0963 179.054 41.8707 178.804 41.5745C178.553 41.2782 178.353 40.9228 178.202 40.5081C178.056 40.0933 177.956 39.6262 177.901 39.1067V38.3411C177.956 37.7942 178.059 37.3043 178.209 36.8713C178.359 36.4384 178.558 36.0693 178.804 35.7639C179.054 35.454 179.357 35.2193 179.713 35.0598C180.068 34.8958 180.479 34.8137 180.943 34.8137C181.408 34.8137 181.821 34.9049 182.181 35.0872C182.541 35.2649 182.844 35.5201 183.09 35.8528C183.336 36.1855 183.521 36.5842 183.644 37.0491C183.771 37.5094 183.835 38.0221 183.835 38.5872ZM182.563 38.7307V38.5872C182.563 38.218 182.525 37.8717 182.447 37.5481C182.37 37.22 182.249 36.9329 182.085 36.6868C181.925 36.4361 181.72 36.2402 181.47 36.0989C181.219 35.953 180.921 35.8801 180.574 35.8801C180.255 35.8801 179.977 35.9348 179.74 36.0442C179.508 36.1536 179.31 36.3017 179.146 36.4885C178.981 36.6708 178.847 36.8805 178.742 37.1174C178.642 37.3499 178.567 37.5914 178.517 37.842V39.6125C178.608 39.9316 178.735 40.2323 178.899 40.5149C179.063 40.7929 179.282 41.0185 179.556 41.1917C179.829 41.3603 180.173 41.4446 180.588 41.4446C180.93 41.4446 181.224 41.3739 181.47 41.2327C181.72 41.0868 181.925 40.8886 182.085 40.6379C182.249 40.3873 182.37 40.1002 182.447 39.7766C182.525 39.4485 182.563 39.0999 182.563 38.7307ZM185.113 38.7307V38.5735C185.113 38.0403 185.191 37.5458 185.346 37.0901C185.501 36.6298 185.724 36.231 186.016 35.8938C186.307 35.552 186.66 35.2877 187.075 35.1008C187.49 34.9094 187.955 34.8137 188.47 34.8137C188.989 34.8137 189.456 34.9094 189.871 35.1008C190.29 35.2877 190.646 35.552 190.938 35.8938C191.234 36.231 191.459 36.6298 191.614 37.0901C191.769 37.5458 191.847 38.0403 191.847 38.5735V38.7307C191.847 39.2639 191.769 39.7584 191.614 40.2141C191.459 40.6698 191.234 41.0686 190.938 41.4104C190.646 41.7476 190.293 42.012 189.878 42.2034C189.468 42.3902 189.003 42.4836 188.483 42.4836C187.964 42.4836 187.497 42.3902 187.082 42.2034C186.667 42.012 186.312 41.7476 186.016 41.4104C185.724 41.0686 185.501 40.6698 185.346 40.2141C185.191 39.7584 185.113 39.2639 185.113 38.7307ZM186.378 38.5735V38.7307C186.378 39.0999 186.421 39.4485 186.508 39.7766C186.594 40.1002 186.724 40.3873 186.897 40.6379C187.075 40.8886 187.296 41.0868 187.561 41.2327C187.825 41.3739 188.132 41.4446 188.483 41.4446C188.83 41.4446 189.133 41.3739 189.393 41.2327C189.657 41.0868 189.876 40.8886 190.049 40.6379C190.222 40.3873 190.352 40.1002 190.438 39.7766C190.53 39.4485 190.575 39.0999 190.575 38.7307V38.5735C190.575 38.2089 190.53 37.8648 190.438 37.5413C190.352 37.2131 190.22 36.9237 190.042 36.6731C189.869 36.4179 189.65 36.2174 189.386 36.0715C189.126 35.9257 188.821 35.8528 188.47 35.8528C188.123 35.8528 187.818 35.9257 187.554 36.0715C187.294 36.2174 187.075 36.4179 186.897 36.6731C186.724 36.9237 186.594 37.2131 186.508 37.5413C186.421 37.8648 186.378 38.2089 186.378 38.5735ZM196.905 39.093H194.479L194.465 38.0813H196.447C196.839 38.0813 197.165 38.0426 197.425 37.9651C197.689 37.8876 197.887 37.7714 198.02 37.6165C198.152 37.4615 198.218 37.2701 198.218 37.0422C198.218 36.8645 198.179 36.7096 198.102 36.5774C198.029 36.4407 197.917 36.329 197.767 36.2424C197.616 36.1513 197.429 36.0852 197.206 36.0442C196.987 35.9986 196.73 35.9758 196.434 35.9758H194.813V42.3469H193.549V34.9504H196.434C196.903 34.9504 197.325 34.9915 197.698 35.0735C198.076 35.1555 198.398 35.2808 198.662 35.4495C198.931 35.6135 199.136 35.8232 199.277 36.0784C199.419 36.3336 199.489 36.6344 199.489 36.9807C199.489 37.204 199.444 37.4159 199.353 37.6165C199.261 37.817 199.127 37.9947 198.949 38.1497C198.771 38.3046 198.553 38.4322 198.293 38.5325C198.033 38.6282 197.735 38.6897 197.397 38.717L196.905 39.093ZM196.905 42.3469H194.021L194.649 41.3215H196.905C197.256 41.3215 197.548 41.2782 197.78 41.1917C198.013 41.1005 198.186 40.9729 198.3 40.8088C198.418 40.6402 198.478 40.4397 198.478 40.2073C198.478 39.9749 198.418 39.7766 198.3 39.6125C198.186 39.4439 198.013 39.3163 197.78 39.2297C197.548 39.1386 197.256 39.093 196.905 39.093H194.984L194.998 38.0813H197.397L197.855 38.4641C198.261 38.496 198.605 38.5963 198.888 38.7649C199.17 38.9335 199.384 39.1477 199.53 39.4075C199.676 39.6627 199.749 39.9407 199.749 40.2415C199.749 40.5878 199.683 40.8931 199.551 41.1575C199.423 41.4218 199.236 41.6428 198.99 41.8206C198.744 41.9937 198.446 42.1259 198.095 42.217C197.744 42.3036 197.347 42.3469 196.905 42.3469ZM205.806 41.0823V37.2747C205.806 36.983 205.746 36.7301 205.628 36.5159C205.514 36.2971 205.341 36.1285 205.108 36.01C204.876 35.8915 204.589 35.8323 204.247 35.8323C203.928 35.8323 203.648 35.887 203.406 35.9963C203.169 36.1057 202.982 36.2493 202.846 36.427C202.714 36.6047 202.647 36.7961 202.647 37.0012H201.383C201.383 36.7369 201.451 36.4749 201.588 36.2151C201.725 35.9553 201.921 35.7206 202.176 35.511C202.436 35.2968 202.745 35.1282 203.105 35.0051C203.47 34.8775 203.876 34.8137 204.322 34.8137C204.86 34.8137 205.334 34.9049 205.744 35.0872C206.159 35.2694 206.482 35.5452 206.715 35.9143C206.952 36.2789 207.07 36.7369 207.07 37.2883V40.7336C207.07 40.9797 207.091 41.2418 207.132 41.5198C207.177 41.7978 207.243 42.037 207.33 42.2375V42.3469H206.011C205.947 42.2011 205.897 42.0074 205.86 41.7659C205.824 41.5198 205.806 41.2919 205.806 41.0823ZM206.024 37.8625L206.038 38.7512H204.76C204.4 38.7512 204.078 38.7808 203.796 38.8401C203.513 38.8948 203.276 38.9791 203.085 39.093C202.894 39.2069 202.748 39.3505 202.647 39.5237C202.547 39.6923 202.497 39.8905 202.497 40.1184C202.497 40.3508 202.549 40.5627 202.654 40.7542C202.759 40.9456 202.916 41.0982 203.126 41.2122C203.34 41.3215 203.602 41.3762 203.912 41.3762C204.299 41.3762 204.641 41.2942 204.938 41.1301C205.234 40.9661 205.468 40.7655 205.642 40.5286C205.819 40.2916 205.915 40.0614 205.929 39.8381L206.469 40.4465C206.437 40.6379 206.35 40.8499 206.209 41.0823C206.068 41.3147 205.879 41.538 205.642 41.7522C205.409 41.9618 205.131 42.1373 204.808 42.2786C204.489 42.4153 204.129 42.4836 203.728 42.4836C203.226 42.4836 202.786 42.3857 202.408 42.1897C202.035 41.9937 201.743 41.7317 201.533 41.4036C201.328 41.0709 201.226 40.6995 201.226 40.2893C201.226 39.8928 201.303 39.5442 201.458 39.2434C201.613 38.9381 201.836 38.6851 202.128 38.4846C202.42 38.2795 202.771 38.1246 203.181 38.0198C203.591 37.915 204.049 37.8625 204.555 37.8625H206.024ZM214.077 38.1565V39.1819H210.167V38.1565H214.077ZM210.434 34.9504V42.3469H209.169V34.9504H210.434ZM215.103 34.9504V42.3469H213.831V34.9504H215.103ZM218.507 40.344L221.918 34.9504H223.189V42.3469H221.918V36.9534L218.507 42.3469H217.249V34.9504H218.507V40.344ZM228.289 42.4836C227.774 42.4836 227.307 42.3971 226.888 42.2239C226.473 42.0461 226.115 41.7978 225.814 41.4788C225.518 41.1597 225.29 40.7815 225.131 40.344C224.971 39.9065 224.892 39.428 224.892 38.9084V38.6213C224.892 38.0198 224.98 37.4843 225.158 37.0149C225.336 36.5409 225.577 36.1399 225.883 35.8118C226.188 35.4836 226.535 35.2353 226.922 35.0667C227.309 34.898 227.71 34.8137 228.125 34.8137C228.654 34.8137 229.109 34.9049 229.492 35.0872C229.88 35.2694 230.196 35.5247 230.442 35.8528C230.688 36.1764 230.871 36.5592 230.989 37.0012C231.108 37.4387 231.167 37.9172 231.167 38.4368V39.0042H225.644V37.9719H229.902V37.8762C229.884 37.5481 229.816 37.2291 229.697 36.9192C229.583 36.6093 229.401 36.3541 229.15 36.1536C228.9 35.953 228.558 35.8528 228.125 35.8528C227.838 35.8528 227.574 35.9143 227.332 36.0374C227.09 36.1558 226.883 36.3336 226.71 36.5706C226.537 36.8075 226.402 37.0969 226.307 37.4387C226.211 37.7805 226.163 38.1747 226.163 38.6213V38.9084C226.163 39.2594 226.211 39.5898 226.307 39.8997C226.407 40.205 226.55 40.4739 226.737 40.7063C226.929 40.9387 227.159 41.121 227.428 41.2532C227.701 41.3853 228.011 41.4514 228.357 41.4514C228.804 41.4514 229.182 41.3603 229.492 41.178C229.802 40.9957 230.073 40.7519 230.306 40.4465L231.071 41.0549C230.912 41.2965 230.709 41.5266 230.463 41.7454C230.217 41.9641 229.914 42.1418 229.554 42.2786C229.198 42.4153 228.777 42.4836 228.289 42.4836ZM115.981 58.1565V59.1819H112.071V58.1565H115.981ZM112.338 54.9504V62.3469H111.073V54.9504H112.338ZM117.007 54.9504V62.3469H115.735V54.9504H117.007ZM123.405 61.0823V57.2747C123.405 56.983 123.346 56.7301 123.228 56.5159C123.114 56.2971 122.94 56.1285 122.708 56.01C122.476 55.8915 122.188 55.8323 121.847 55.8323C121.528 55.8323 121.247 55.887 121.006 55.9963C120.769 56.1057 120.582 56.2493 120.445 56.427C120.313 56.6047 120.247 56.7961 120.247 57.0012H118.982C118.982 56.7369 119.051 56.4749 119.188 56.2151C119.324 55.9553 119.52 55.7206 119.775 55.511C120.035 55.2968 120.345 55.1282 120.705 55.0051C121.07 54.8775 121.475 54.8137 121.922 54.8137C122.46 54.8137 122.934 54.9049 123.344 55.0872C123.758 55.2694 124.082 55.5452 124.314 55.9143C124.551 56.2789 124.67 56.7369 124.67 57.2883V60.7336C124.67 60.9797 124.69 61.2418 124.731 61.5198C124.777 61.7978 124.843 62.037 124.93 62.2375V62.3469H123.61C123.547 62.2011 123.496 62.0074 123.46 61.7659C123.424 61.5198 123.405 61.2919 123.405 61.0823ZM123.624 57.8625L123.638 58.7512H122.359C121.999 58.7512 121.678 58.7808 121.396 58.8401C121.113 58.8948 120.876 58.9791 120.685 59.093C120.493 59.2069 120.347 59.3505 120.247 59.5237C120.147 59.6923 120.097 59.8905 120.097 60.1184C120.097 60.3508 120.149 60.5627 120.254 60.7542C120.359 60.9456 120.516 61.0982 120.726 61.2122C120.94 61.3215 121.202 61.3762 121.512 61.3762C121.899 61.3762 122.241 61.2942 122.537 61.1301C122.833 60.9661 123.068 60.7655 123.241 60.5286C123.419 60.2916 123.515 60.0614 123.528 59.8381L124.068 60.4465C124.036 60.6379 123.95 60.8499 123.809 61.0823C123.667 61.3147 123.478 61.538 123.241 61.7522C123.009 61.9618 122.731 62.1373 122.407 62.2786C122.088 62.4153 121.728 62.4836 121.327 62.4836C120.826 62.4836 120.386 62.3857 120.008 62.1897C119.634 61.9937 119.342 61.7317 119.133 61.4036C118.928 61.0709 118.825 60.6995 118.825 60.2893C118.825 59.8928 118.903 59.5442 119.058 59.2434C119.213 58.9381 119.436 58.6851 119.728 58.4846C120.019 58.2795 120.37 58.1246 120.78 58.0198C121.19 57.915 121.648 57.8625 122.154 57.8625H123.624ZM131.396 56.3723V65.1907H130.125V54.9504H131.287L131.396 56.3723ZM136.38 58.5872V58.7307C136.38 59.2685 136.316 59.7675 136.188 60.2278C136.061 60.6835 135.874 61.08 135.628 61.4172C135.386 61.7545 135.088 62.0165 134.732 62.2034C134.377 62.3902 133.969 62.4836 133.509 62.4836C133.039 62.4836 132.625 62.4062 132.265 62.2512C131.905 62.0963 131.599 61.8707 131.349 61.5745C131.098 61.2782 130.897 60.9228 130.747 60.5081C130.601 60.0933 130.501 59.6262 130.446 59.1067V58.3411C130.501 57.7942 130.604 57.3043 130.754 56.8713C130.904 56.4384 131.103 56.0693 131.349 55.7639C131.599 55.454 131.902 55.2193 132.258 55.0598C132.613 54.8958 133.023 54.8137 133.488 54.8137C133.953 54.8137 134.366 54.9049 134.726 55.0872C135.086 55.2649 135.389 55.5201 135.635 55.8528C135.881 56.1855 136.065 56.5842 136.188 57.0491C136.316 57.5094 136.38 58.0221 136.38 58.5872ZM135.108 58.7307V58.5872C135.108 58.218 135.07 57.8717 134.992 57.5481C134.915 57.22 134.794 56.9329 134.63 56.6868C134.47 56.4361 134.265 56.2402 134.015 56.0989C133.764 55.953 133.465 55.8801 133.119 55.8801C132.8 55.8801 132.522 55.9348 132.285 56.0442C132.053 56.1536 131.854 56.3017 131.69 56.4885C131.526 56.6708 131.392 56.8805 131.287 57.1174C131.187 57.3499 131.112 57.5914 131.062 57.842V59.6125C131.153 59.9316 131.28 60.2323 131.444 60.5149C131.608 60.7929 131.827 61.0185 132.101 61.1917C132.374 61.3603 132.718 61.4446 133.133 61.4446C133.475 61.4446 133.769 61.3739 134.015 61.2327C134.265 61.0868 134.47 60.8886 134.63 60.6379C134.794 60.3873 134.915 60.1002 134.992 59.7766C135.07 59.4485 135.108 59.0999 135.108 58.7307ZM139.032 57.4934H141.254C141.851 57.4934 142.354 57.5982 142.765 57.8079C143.175 58.0129 143.485 58.2978 143.694 58.6624C143.909 59.0224 144.016 59.4325 144.016 59.8928C144.016 60.2346 143.956 60.5559 143.838 60.8567C143.719 61.1529 143.542 61.4127 143.305 61.636C143.072 61.8593 142.783 62.0347 142.437 62.1624C142.095 62.2854 141.701 62.3469 141.254 62.3469H138.109V54.9504H139.374V61.3079H141.254C141.618 61.3079 141.91 61.2418 142.129 61.1096C142.348 60.9775 142.505 60.8066 142.601 60.5969C142.696 60.3873 142.744 60.1685 142.744 59.9407C142.744 59.7174 142.696 59.4986 142.601 59.2844C142.505 59.0702 142.348 58.8925 142.129 58.7512C141.91 58.6054 141.618 58.5325 141.254 58.5325H139.032V57.4934ZM146.647 54.9504V62.3469H145.383V54.9504H146.647ZM153.88 58.1565V59.1819H149.97V58.1565H153.88ZM150.236 54.9504V62.3469H148.972V54.9504H150.236ZM154.905 54.9504V62.3469H153.634V54.9504H154.905ZM158.316 54.9504V62.3469H157.052V54.9504H158.316ZM163.17 54.9504L159.663 59.1887H157.893L157.701 58.0813H159.15L161.632 54.9504H163.17ZM161.81 62.3469L159.089 58.9973L159.902 58.0813L163.416 62.3469H161.81ZM167.477 62.4836C166.962 62.4836 166.494 62.3971 166.075 62.2239C165.66 62.0461 165.303 61.7978 165.002 61.4788C164.706 61.1597 164.478 60.7815 164.318 60.344C164.159 59.9065 164.079 59.428 164.079 58.9084V58.6213C164.079 58.0198 164.168 57.4843 164.346 57.0149C164.523 56.5409 164.765 56.1399 165.07 55.8118C165.376 55.4836 165.722 55.2353 166.109 55.0667C166.497 54.898 166.898 54.8137 167.312 54.8137C167.841 54.8137 168.297 54.9049 168.68 55.0872C169.067 55.2694 169.384 55.5247 169.63 55.8528C169.876 56.1764 170.058 56.5592 170.177 57.0012C170.295 57.4387 170.354 57.9172 170.354 58.4368V59.0042H164.831V57.9719H169.09V57.8762C169.072 57.5481 169.003 57.2291 168.885 56.9192C168.771 56.6093 168.589 56.3541 168.338 56.1536C168.087 55.953 167.745 55.8528 167.312 55.8528C167.025 55.8528 166.761 55.9143 166.52 56.0374C166.278 56.1558 166.071 56.3336 165.897 56.5706C165.724 56.8075 165.59 57.0969 165.494 57.4387C165.398 57.7805 165.351 58.1747 165.351 58.6213V58.9084C165.351 59.2594 165.398 59.5898 165.494 59.8997C165.594 60.205 165.738 60.4739 165.925 60.7063C166.116 60.9387 166.346 61.121 166.615 61.2532C166.889 61.3853 167.199 61.4514 167.545 61.4514C167.992 61.4514 168.37 61.3603 168.68 61.178C168.99 60.9957 169.261 60.7519 169.493 60.4465L170.259 61.0549C170.099 61.2965 169.896 61.5266 169.65 61.7454C169.404 61.9641 169.101 62.1418 168.741 62.2786C168.386 62.4153 167.964 62.4836 167.477 62.4836ZM179.166 58.4436H176.507V57.3704H179.166C179.681 57.3704 180.098 57.2883 180.417 57.1243C180.736 56.9602 180.968 56.7323 181.114 56.4407C181.265 56.149 181.34 55.8163 181.34 55.4426C181.34 55.1008 181.265 54.7795 181.114 54.4788C180.968 54.178 180.736 53.9364 180.417 53.7542C180.098 53.5673 179.681 53.4739 179.166 53.4739H176.814V62.3469H175.495V52.3938H179.166C179.918 52.3938 180.554 52.5237 181.073 52.7834C181.593 53.0432 181.987 53.4032 182.256 53.8635C182.525 54.3193 182.659 54.8411 182.659 55.429C182.659 56.067 182.525 56.6116 182.256 57.0627C181.987 57.5139 181.593 57.858 181.073 58.095C180.554 58.3274 179.918 58.4436 179.166 58.4436ZM187.779 53.385H189.427C190.001 53.385 190.532 53.483 191.02 53.679C191.512 53.8704 191.94 54.1438 192.305 54.4993C192.674 54.8547 192.961 55.2786 193.166 55.7708C193.371 56.2584 193.474 56.7984 193.474 57.3909C193.474 57.9833 193.371 58.5256 193.166 59.0178C192.961 59.51 192.674 59.9361 192.305 60.2961C191.94 60.6516 191.512 60.9273 191.02 61.1233C190.532 61.3147 190.001 61.4104 189.427 61.4104H187.779C187.205 61.4104 186.674 61.3147 186.187 61.1233C185.699 60.9273 185.271 60.6516 184.901 60.2961C184.537 59.9407 184.252 59.5191 184.047 59.0315C183.846 58.5393 183.746 57.997 183.746 57.4045C183.746 56.8121 183.846 56.2721 184.047 55.7844C184.252 55.2922 184.537 54.8684 184.901 54.5129C185.271 54.1529 185.699 53.8749 186.187 53.679C186.674 53.483 187.205 53.385 187.779 53.385ZM187.779 54.4241C187.182 54.4241 186.676 54.5494 186.262 54.8C185.847 55.0461 185.533 55.3925 185.318 55.8391C185.104 56.2857 184.997 56.8075 184.997 57.4045C184.997 57.8557 185.056 58.2636 185.175 58.6282C185.298 58.9928 185.478 59.3049 185.715 59.5647C185.952 59.8245 186.243 60.025 186.59 60.1663C186.936 60.3075 187.333 60.3782 187.779 60.3782H189.44C190.033 60.3782 190.534 60.2551 190.944 60.009C191.359 59.7584 191.674 59.4097 191.888 58.9631C192.106 58.512 192.216 57.9879 192.216 57.3909C192.216 56.9443 192.154 56.5387 192.031 56.1741C191.908 55.8095 191.728 55.4973 191.491 55.2375C191.259 54.9778 190.969 54.7773 190.623 54.636C190.281 54.4947 189.887 54.4241 189.44 54.4241H187.779ZM189.242 51.9836V62.7571H187.978V51.9836H189.242Z" fill="black"/>
<path d="M85 42.3469L59 42.3469" stroke="#00A3FF" stroke-miterlimit="10" stroke-linecap="round"/>
<path d="M80 41.8235C79.9954 43.3078 80.4313 44.7602 81.2526 45.9966C82.0739 47.2331 83.2436 48.198 84.6136 48.7693C85.9837 49.3405 87.4924 49.4924 88.9488 49.2057C90.4052 48.9189 91.7437 48.2065 92.795 47.1585C93.8462 46.1106 94.5629 44.7742 94.8542 43.3187C95.1455 41.8632 94.9983 40.354 94.4313 38.9822C93.8644 37.6104 92.9031 36.4377 91.6692 35.6126C90.4354 34.7874 88.9844 34.3469 87.5 34.3469C85.515 34.3469 83.6108 35.1339 82.205 36.5353C80.7991 37.9368 80.0062 39.8384 80 41.8235V41.8235Z" fill="#00A3FF"/>
<path d="M87.4766 44.7532C85.8586 44.7532 84.5469 43.4415 84.5469 41.8235C84.5469 40.2055 85.8586 38.8938 87.4766 38.8938C89.0946 38.8938 90.4062 40.2055 90.4062 41.8235C90.4062 43.4415 89.0946 44.7532 87.4766 44.7532Z" fill="white"/>
<defs>
<filter id="filter0_d_315_347" x="262.322" y="0.669434" width="83.3555" height="83.3555" filterUnits="userSpaceOnUse" color-interpolation-filters="sRGB">
<feFlood flood-opacity="0" result="BackgroundImageFix"/>
<feColorMatrix in="SourceAlpha" type="matrix" values="0 0 0 0 0 0 0 0 0 0 0 0 0 0 0 0 0 0 127 0" result="hardAlpha"/>
<feOffset/>
<feGaussianBlur stdDeviation="12"/>
<feComposite in2="hardAlpha" operator="out"/>
<feColorMatrix type="matrix" values="0 0 0 0 0.579167 0 0 0 0 0.579167 0 0 0 0 0.579167 0 0 0 0.3 0"/>
<feBlend mode="normal" in2="BackgroundImageFix" result="effect1_dropShadow_315_347"/>
<feBlend mode="normal" in="SourceGraphic" in2="effect1_dropShadow_315_347" result="shape"/>
</filter>
</defs>
</svg>
