<svg width="671" height="125" viewBox="0 0 671 125" fill="none" xmlns="http://www.w3.org/2000/svg">
<path d="M495 65L613 65" stroke="#00A3FF" stroke-miterlimit="10" stroke-linecap="round"/>
<g filter="url(#filter0_d_802_773)">
<path d="M637.721 85.7313C649.083 74.3742 649.083 55.9607 637.721 44.6036C626.358 33.2466 607.936 33.2466 596.574 44.6037C585.211 55.9607 585.211 74.3742 596.574 85.7313C607.936 97.0884 626.358 97.0884 637.721 85.7313Z" fill="white"/>
</g>
<path d="M626.241 65.1644C626.246 66.8871 625.741 68.5727 624.789 70.0088C623.837 71.4448 622.481 72.5669 620.892 73.2335C619.302 73.9002 617.551 74.0815 615.859 73.7546C614.167 73.4278 612.61 72.6073 611.383 71.3968C610.157 70.1863 609.317 68.64 608.969 66.9528C608.621 65.2657 608.78 63.5133 609.427 61.9166C610.075 60.32 611.18 58.9507 612.605 57.9813C614.03 57.012 615.71 56.4861 617.433 56.4699C618.585 56.4555 619.727 56.6697 620.795 57.1002C621.863 57.5307 622.835 58.1688 623.655 58.9776C624.474 59.7864 625.124 60.7498 625.568 61.8118C626.012 62.8739 626.241 64.0134 626.241 65.1644Z" fill="#00A3FF"/>
<path d="M617.542 68.5712C619.425 68.5712 620.951 67.0459 620.951 65.1643C620.951 63.2827 619.425 61.7573 617.542 61.7573C615.66 61.7573 614.134 63.2827 614.134 65.1643C614.134 67.0459 615.66 68.5712 617.542 68.5712Z" fill="white"/>
<path d="M497.452 65.1642C497.457 66.8904 496.95 68.5793 495.994 70.0172C495.039 71.4551 493.678 72.5772 492.084 73.2415C490.49 73.9058 488.735 74.0824 487.04 73.749C485.346 73.4155 483.789 72.587 482.565 71.3684C481.342 70.1497 480.509 68.5957 480.17 66.9031C479.831 65.2105 480.002 63.4554 480.662 61.8601C481.321 60.2649 482.44 58.9011 483.875 57.9415C485.311 56.982 486.999 56.4697 488.726 56.4697C491.035 56.4697 493.251 57.3849 494.886 59.0146C496.522 60.6444 497.445 62.8558 497.452 65.1642Z" fill="#00A3FF"/>
<path d="M488.753 68.5712C490.636 68.5712 492.162 67.0459 492.162 65.1643C492.162 63.2827 490.636 61.7573 488.753 61.7573C486.871 61.7573 485.345 63.2827 485.345 65.1643C485.345 67.0459 486.871 68.5712 488.753 68.5712Z" fill="white"/>
<path d="M93.3041 93.2599C110.481 76.0913 110.481 48.2554 93.304 31.0867C76.1272 13.9181 48.2782 13.918 31.1014 31.0867C13.9246 48.2553 13.9245 76.0913 31.1014 93.26C48.2782 110.429 76.1273 110.429 93.3041 93.2599Z" fill="#00A3FF"/>
<path d="M49.4023 48.1655H54.4023V76.1733H48.4062V55.7827H43.6016V51.9741C44.4609 51.87 45.2487 51.6681 45.9648 51.3687C46.681 51.0562 47.2344 50.7241 47.625 50.3726C48.0286 50.021 48.3672 49.6825 48.6406 49.3569C48.9271 49.0184 49.1289 48.7319 49.2461 48.4976L49.4023 48.1655ZM71.6094 57.5796C74.3047 57.5796 76.5443 58.4715 78.3281 60.2554C80.125 62.0392 81.0234 64.2788 81.0234 66.9741C81.0234 69.7996 80.0404 72.1434 78.0742 74.0054C76.1211 75.8543 73.569 76.7788 70.418 76.7788C69.0898 76.7788 67.8138 76.6226 66.5898 76.3101C65.3789 76.0106 64.3893 75.646 63.6211 75.2163C62.8659 74.7866 62.2018 74.3634 61.6289 73.9468C61.056 73.5171 60.6523 73.1395 60.418 72.814L60.0078 72.3647L63.6211 68.5757C63.8034 68.784 64.0573 69.0444 64.3828 69.3569C64.7214 69.6564 65.4505 70.0666 66.5703 70.5874C67.6901 71.1082 68.8359 71.3687 70.0078 71.3687C71.5052 71.3687 72.6771 70.965 73.5234 70.1577C74.3828 69.3374 74.8125 68.2762 74.8125 66.9741C74.8125 65.672 74.3568 64.5783 73.4453 63.6929C72.5469 62.8075 71.401 62.3647 70.0078 62.3647C69.0443 62.3647 68.1849 62.547 67.4297 62.9116C66.6745 63.2762 66.1471 63.6408 65.8477 64.0054L65.418 64.5718L61.2188 64.1812L62.2148 48.1655H79.207V53.3804H67.625L67.2148 58.5757C68.2826 57.9116 69.7474 57.5796 71.6094 57.5796Z" fill="white"/>
<path d="M141.121 55.9141V68H139.519V55.9141H141.121ZM148.492 63.2603H145.263V61.957H148.492C149.118 61.957 149.624 61.8574 150.011 61.6582C150.399 61.459 150.681 61.1823 150.858 60.8281C151.041 60.474 151.132 60.07 151.132 59.6162C151.132 59.2012 151.041 58.811 150.858 58.4458C150.681 58.0806 150.399 57.7873 150.011 57.5659C149.624 57.339 149.118 57.2256 148.492 57.2256H145.637V68H144.035V55.9141H148.492C149.405 55.9141 150.177 56.0718 150.808 56.3872C151.439 56.7026 151.918 57.1398 152.244 57.6987C152.571 58.2521 152.734 58.8857 152.734 59.5996C152.734 60.3743 152.571 61.0356 152.244 61.5835C151.918 62.1313 151.439 62.5492 150.808 62.8369C150.177 63.1191 149.405 63.2603 148.492 63.2603ZM164.064 61.5752V62.3389C164.064 63.2464 163.951 64.0599 163.724 64.7793C163.497 65.4987 163.171 66.1102 162.745 66.6138C162.319 67.1174 161.807 67.502 161.209 67.7676C160.617 68.0332 159.953 68.166 159.217 68.166C158.503 68.166 157.847 68.0332 157.25 67.7676C156.657 67.502 156.143 67.1174 155.706 66.6138C155.274 66.1102 154.939 65.4987 154.701 64.7793C154.463 64.0599 154.344 63.2464 154.344 62.3389V61.5752C154.344 60.6676 154.46 59.8569 154.693 59.1431C154.931 58.4237 155.266 57.8122 155.697 57.3086C156.129 56.7995 156.641 56.4121 157.233 56.1465C157.831 55.8809 158.486 55.748 159.2 55.748C159.936 55.748 160.6 55.8809 161.192 56.1465C161.79 56.4121 162.302 56.7995 162.728 57.3086C163.16 57.8122 163.489 58.4237 163.716 59.1431C163.948 59.8569 164.064 60.6676 164.064 61.5752ZM162.479 62.3389V61.5586C162.479 60.8392 162.404 60.2028 162.255 59.6494C162.111 59.096 161.898 58.6312 161.616 58.2549C161.333 57.8786 160.988 57.5936 160.578 57.3999C160.174 57.2062 159.715 57.1094 159.2 57.1094C158.702 57.1094 158.251 57.2062 157.847 57.3999C157.449 57.5936 157.106 57.8786 156.818 58.2549C156.536 58.6312 156.317 59.096 156.162 59.6494C156.007 60.2028 155.93 60.8392 155.93 61.5586V62.3389C155.93 63.0638 156.007 63.7057 156.162 64.2646C156.317 64.818 156.538 65.2856 156.826 65.6675C157.119 66.0438 157.465 66.3288 157.864 66.5225C158.268 66.7161 158.719 66.813 159.217 66.813C159.737 66.813 160.199 66.7161 160.603 66.5225C161.007 66.3288 161.347 66.0438 161.624 65.6675C161.906 65.2856 162.119 64.818 162.263 64.2646C162.407 63.7057 162.479 63.0638 162.479 62.3389ZM174.665 64.0488H171.718L171.701 62.8203H174.108C174.584 62.8203 174.98 62.7733 175.295 62.6792C175.616 62.5851 175.857 62.444 176.018 62.2559C176.178 62.0677 176.258 61.8353 176.258 61.5586C176.258 61.3428 176.211 61.1546 176.117 60.9941C176.029 60.8281 175.893 60.6925 175.71 60.5874C175.528 60.4767 175.301 60.3965 175.03 60.3467C174.764 60.2913 174.451 60.2637 174.092 60.2637H172.125V68H170.589V59.0186H174.092C174.662 59.0186 175.174 59.0684 175.627 59.168C176.087 59.2676 176.477 59.4198 176.798 59.6245C177.124 59.8237 177.373 60.0783 177.545 60.3882C177.716 60.6981 177.802 61.0633 177.802 61.4839C177.802 61.755 177.747 62.0124 177.636 62.2559C177.526 62.4993 177.362 62.7152 177.146 62.9033C176.931 63.0915 176.665 63.2464 176.35 63.3682C176.034 63.4844 175.672 63.5591 175.262 63.5923L174.665 64.0488ZM174.665 68H171.162L171.925 66.7549H174.665C175.091 66.7549 175.445 66.7023 175.727 66.5972C176.009 66.4865 176.22 66.3315 176.358 66.1323C176.502 65.9276 176.574 65.6841 176.574 65.4019C176.574 65.1196 176.502 64.8789 176.358 64.6797C176.22 64.4749 176.009 64.32 175.727 64.2148C175.445 64.1042 175.091 64.0488 174.665 64.0488H172.332L172.349 62.8203H175.262L175.818 63.2852C176.311 63.3239 176.729 63.4456 177.072 63.6504C177.415 63.8551 177.675 64.1152 177.852 64.4307C178.029 64.7406 178.118 65.0781 178.118 65.4434C178.118 65.8639 178.037 66.2347 177.877 66.5557C177.722 66.8766 177.495 67.145 177.196 67.3608C176.897 67.5711 176.535 67.7316 176.109 67.8423C175.683 67.9474 175.201 68 174.665 68ZM185.929 60.7451V71.4531H184.385V59.0186H185.796L185.929 60.7451ZM191.98 63.4346V63.6089C191.98 64.2619 191.903 64.8678 191.748 65.4268C191.593 65.9801 191.366 66.4616 191.067 66.8711C190.774 67.2806 190.411 67.5988 189.979 67.8257C189.548 68.0526 189.053 68.166 188.494 68.166C187.924 68.166 187.42 68.0719 186.983 67.8838C186.546 67.6956 186.175 67.4217 185.871 67.062C185.566 66.7023 185.323 66.2707 185.14 65.7671C184.963 65.2635 184.841 64.6963 184.775 64.0654V63.1357C184.841 62.4717 184.966 61.8768 185.148 61.3511C185.331 60.8254 185.572 60.3771 185.871 60.0063C186.175 59.63 186.543 59.3451 186.975 59.1514C187.406 58.9521 187.904 58.8525 188.469 58.8525C189.033 58.8525 189.534 58.9632 189.971 59.1846C190.408 59.4004 190.776 59.7103 191.075 60.1143C191.374 60.5182 191.598 61.0024 191.748 61.5669C191.903 62.1258 191.98 62.7484 191.98 63.4346ZM190.436 63.6089V63.4346C190.436 62.9863 190.389 62.5658 190.295 62.1729C190.201 61.7744 190.054 61.4258 189.855 61.127C189.661 60.8226 189.412 60.5846 189.108 60.4131C188.804 60.236 188.441 60.1475 188.021 60.1475C187.633 60.1475 187.296 60.2139 187.008 60.3467C186.726 60.4795 186.485 60.6593 186.286 60.8862C186.086 61.1076 185.923 61.3621 185.796 61.6499C185.674 61.9321 185.583 62.2254 185.522 62.5298V64.6797C185.633 65.0671 185.788 65.4323 185.987 65.7754C186.186 66.113 186.452 66.3869 186.784 66.5972C187.116 66.8019 187.534 66.9043 188.037 66.9043C188.452 66.9043 188.809 66.8185 189.108 66.647C189.412 66.4699 189.661 66.2292 189.855 65.9248C190.054 65.6204 190.201 65.2718 190.295 64.8789C190.389 64.4805 190.436 64.0571 190.436 63.6089ZM199.235 66.4644V61.8408C199.235 61.4867 199.163 61.1795 199.019 60.9194C198.881 60.6538 198.67 60.4491 198.388 60.3052C198.106 60.1613 197.757 60.0894 197.342 60.0894C196.955 60.0894 196.615 60.1558 196.321 60.2886C196.034 60.4214 195.807 60.5957 195.641 60.8115C195.48 61.0273 195.4 61.2598 195.4 61.5088H193.864C193.864 61.1878 193.947 60.8696 194.113 60.5542C194.279 60.2388 194.517 59.9538 194.827 59.6992C195.143 59.4391 195.519 59.2344 195.956 59.085C196.399 58.93 196.891 58.8525 197.434 58.8525C198.087 58.8525 198.662 58.9632 199.16 59.1846C199.664 59.4059 200.057 59.7407 200.339 60.189C200.627 60.6317 200.771 61.1878 200.771 61.8574V66.041C200.771 66.3398 200.795 66.658 200.845 66.9956C200.901 67.3332 200.981 67.6237 201.086 67.8672V68H199.484C199.406 67.8229 199.346 67.5877 199.301 67.2944C199.257 66.9956 199.235 66.7189 199.235 66.4644ZM199.5 62.5547L199.517 63.6338H197.965C197.528 63.6338 197.138 63.6698 196.794 63.7417C196.451 63.8081 196.164 63.9105 195.931 64.0488C195.699 64.1872 195.522 64.3615 195.4 64.5718C195.278 64.7765 195.217 65.0173 195.217 65.2939C195.217 65.5762 195.281 65.8335 195.408 66.0659C195.535 66.2983 195.726 66.4837 195.981 66.6221C196.241 66.7549 196.559 66.8213 196.936 66.8213C197.406 66.8213 197.821 66.7217 198.181 66.5225C198.54 66.3232 198.825 66.0798 199.036 65.792C199.251 65.5042 199.368 65.2248 199.384 64.9536L200.04 65.6924C200.001 65.9248 199.896 66.1821 199.725 66.4644C199.553 66.7466 199.323 67.0177 199.036 67.2778C198.753 67.5324 198.416 67.7454 198.023 67.917C197.636 68.083 197.198 68.166 196.711 68.166C196.103 68.166 195.569 68.047 195.109 67.8091C194.656 67.5711 194.301 67.2529 194.047 66.8545C193.798 66.4505 193.673 65.9995 193.673 65.5015C193.673 65.02 193.767 64.5967 193.956 64.2314C194.144 63.8607 194.415 63.5535 194.769 63.3101C195.123 63.061 195.549 62.8729 196.047 62.7456C196.545 62.6183 197.102 62.5547 197.716 62.5547H199.5ZM208.349 65.958L211.404 59.0186H212.881L208.88 68H207.818L203.833 59.0186H205.311L208.349 65.958ZM204.863 59.0186V68H203.327V59.0186H204.863ZM211.786 68V59.0186H213.33V68H211.786ZM217.472 59.0186V68H215.936V59.0186H217.472ZM223.365 59.0186L219.107 64.165H216.957L216.725 62.8203H218.484L221.498 59.0186H223.365ZM221.713 68L218.41 63.9326L219.397 62.8203L223.664 68H221.713ZM230.296 66.4644V61.8408C230.296 61.4867 230.224 61.1795 230.081 60.9194C229.942 60.6538 229.732 60.4491 229.45 60.3052C229.167 60.1613 228.819 60.0894 228.404 60.0894C228.016 60.0894 227.676 60.1558 227.383 60.2886C227.095 60.4214 226.868 60.5957 226.702 60.8115C226.542 61.0273 226.461 61.2598 226.461 61.5088H224.926C224.926 61.1878 225.009 60.8696 225.175 60.5542C225.341 60.2388 225.579 59.9538 225.889 59.6992C226.204 59.4391 226.58 59.2344 227.018 59.085C227.46 58.93 227.953 58.8525 228.495 58.8525C229.148 58.8525 229.724 58.9632 230.222 59.1846C230.725 59.4059 231.118 59.7407 231.4 60.189C231.688 60.6317 231.832 61.1878 231.832 61.8574V66.041C231.832 66.3398 231.857 66.658 231.907 66.9956C231.962 67.3332 232.042 67.6237 232.147 67.8672V68H230.545C230.468 67.8229 230.407 67.5877 230.363 67.2944C230.319 66.9956 230.296 66.7189 230.296 66.4644ZM230.562 62.5547L230.579 63.6338H229.026C228.589 63.6338 228.199 63.6698 227.856 63.7417C227.513 63.8081 227.225 63.9105 226.993 64.0488C226.76 64.1872 226.583 64.3615 226.461 64.5718C226.34 64.7765 226.279 65.0173 226.279 65.2939C226.279 65.5762 226.342 65.8335 226.47 66.0659C226.597 66.2983 226.788 66.4837 227.042 66.6221C227.303 66.7549 227.621 66.8213 227.997 66.8213C228.467 66.8213 228.882 66.7217 229.242 66.5225C229.602 66.3232 229.887 66.0798 230.097 65.792C230.313 65.5042 230.429 65.2248 230.446 64.9536L231.102 65.6924C231.063 65.9248 230.958 66.1821 230.786 66.4644C230.615 66.7466 230.385 67.0177 230.097 67.2778C229.815 67.5324 229.477 67.7454 229.084 67.917C228.697 68.083 228.26 68.166 227.773 68.166C227.164 68.166 226.63 68.047 226.171 67.8091C225.717 67.5711 225.363 67.2529 225.108 66.8545C224.859 66.4505 224.735 65.9995 224.735 65.5015C224.735 65.02 224.829 64.5967 225.017 64.2314C225.205 63.8607 225.476 63.5535 225.831 63.3101C226.185 63.061 226.611 62.8729 227.109 62.7456C227.607 62.6183 228.163 62.5547 228.777 62.5547H230.562ZM235.285 59.0186L237.252 62.2891L239.245 59.0186H241.046L238.107 63.4512L241.137 68H239.361L237.286 64.6299L235.21 68H233.426L236.447 63.4512L233.517 59.0186H235.285ZM252.061 65.958L255.116 59.0186H256.593L252.592 68H251.53L247.545 59.0186H249.023L252.061 65.958ZM248.575 59.0186V68H247.039V59.0186H248.575ZM255.498 68V59.0186H257.042V68H255.498ZM259.108 63.6089V63.418C259.108 62.7705 259.202 62.1701 259.391 61.6167C259.579 61.0578 259.85 60.5736 260.204 60.1641C260.558 59.749 260.987 59.4281 261.491 59.2012C261.994 58.9688 262.559 58.8525 263.184 58.8525C263.815 58.8525 264.382 58.9688 264.886 59.2012C265.395 59.4281 265.826 59.749 266.181 60.1641C266.54 60.5736 266.814 61.0578 267.002 61.6167C267.191 62.1701 267.285 62.7705 267.285 63.418V63.6089C267.285 64.2563 267.191 64.8568 267.002 65.4102C266.814 65.9635 266.54 66.4478 266.181 66.8628C265.826 67.2723 265.398 67.5933 264.894 67.8257C264.396 68.0526 263.832 68.166 263.201 68.166C262.57 68.166 262.003 68.0526 261.499 67.8257C260.995 67.5933 260.564 67.2723 260.204 66.8628C259.85 66.4478 259.579 65.9635 259.391 65.4102C259.202 64.8568 259.108 64.2563 259.108 63.6089ZM260.644 63.418V63.6089C260.644 64.0571 260.697 64.4805 260.802 64.8789C260.907 65.2718 261.065 65.6204 261.275 65.9248C261.491 66.2292 261.759 66.4699 262.08 66.647C262.401 66.8185 262.775 66.9043 263.201 66.9043C263.621 66.9043 263.989 66.8185 264.305 66.647C264.626 66.4699 264.891 66.2292 265.102 65.9248C265.312 65.6204 265.47 65.2718 265.575 64.8789C265.685 64.4805 265.741 64.0571 265.741 63.6089V63.418C265.741 62.9753 265.685 62.5575 265.575 62.1646C265.47 61.7661 265.309 61.4147 265.093 61.1104C264.883 60.8005 264.617 60.557 264.296 60.3799C263.981 60.2028 263.61 60.1143 263.184 60.1143C262.764 60.1143 262.393 60.2028 262.072 60.3799C261.756 60.557 261.491 60.8005 261.275 61.1104C261.065 61.4147 260.907 61.7661 260.802 62.1646C260.697 62.5575 260.644 62.9753 260.644 63.418ZM275.303 62.9116V64.1567H270.555V62.9116H275.303ZM270.879 59.0186V68H269.343V59.0186H270.879ZM276.548 59.0186V68H275.004V59.0186H276.548ZM278.615 63.6089V63.418C278.615 62.7705 278.709 62.1701 278.897 61.6167C279.086 61.0578 279.357 60.5736 279.711 60.1641C280.065 59.749 280.494 59.4281 280.998 59.2012C281.501 58.9688 282.066 58.8525 282.691 58.8525C283.322 58.8525 283.889 58.9688 284.393 59.2012C284.902 59.4281 285.333 59.749 285.688 60.1641C286.047 60.5736 286.321 61.0578 286.509 61.6167C286.697 62.1701 286.792 62.7705 286.792 63.418V63.6089C286.792 64.2563 286.697 64.8568 286.509 65.4102C286.321 65.9635 286.047 66.4478 285.688 66.8628C285.333 67.2723 284.904 67.5933 284.401 67.8257C283.903 68.0526 283.338 68.166 282.708 68.166C282.077 68.166 281.509 68.0526 281.006 67.8257C280.502 67.5933 280.071 67.2723 279.711 66.8628C279.357 66.4478 279.086 65.9635 278.897 65.4102C278.709 64.8568 278.615 64.2563 278.615 63.6089ZM280.151 63.418V63.6089C280.151 64.0571 280.203 64.4805 280.309 64.8789C280.414 65.2718 280.571 65.6204 280.782 65.9248C280.998 66.2292 281.266 66.4699 281.587 66.647C281.908 66.8185 282.281 66.9043 282.708 66.9043C283.128 66.9043 283.496 66.8185 283.812 66.647C284.132 66.4699 284.398 66.2292 284.608 65.9248C284.819 65.6204 284.976 65.2718 285.082 64.8789C285.192 64.4805 285.248 64.0571 285.248 63.6089V63.418C285.248 62.9753 285.192 62.5575 285.082 62.1646C284.976 61.7661 284.816 61.4147 284.6 61.1104C284.39 60.8005 284.124 60.557 283.803 60.3799C283.488 60.2028 283.117 60.1143 282.691 60.1143C282.27 60.1143 281.9 60.2028 281.579 60.3799C281.263 60.557 280.998 60.8005 280.782 61.1104C280.571 61.4147 280.414 61.7661 280.309 62.1646C280.203 62.5575 280.151 62.9753 280.151 63.418ZM294.478 55.1089H295.74C295.74 55.6512 295.657 56.0828 295.491 56.4038C295.325 56.7192 295.098 56.9627 294.81 57.1343C294.528 57.3058 294.207 57.4359 293.847 57.5244C293.493 57.613 293.125 57.6987 292.743 57.7817C292.267 57.8813 291.825 58.0391 291.415 58.2549C291.011 58.4652 290.662 58.764 290.369 59.1514C290.081 59.5387 289.868 60.0423 289.73 60.6621C289.597 61.2819 289.561 62.0483 289.622 62.9614V63.7251H288.36V62.9614C288.36 61.9377 288.457 61.0439 288.651 60.2803C288.85 59.5166 289.13 58.8719 289.489 58.3462C289.849 57.8205 290.275 57.4027 290.768 57.0928C291.266 56.7829 291.813 56.5698 292.411 56.4536C292.843 56.3706 293.214 56.2821 293.523 56.188C293.833 56.0884 294.069 55.9556 294.229 55.7896C294.395 55.6235 294.478 55.3966 294.478 55.1089ZM292.66 59.5332C293.247 59.5332 293.77 59.6356 294.229 59.8403C294.688 60.0451 295.078 60.3301 295.399 60.6953C295.72 61.0605 295.964 61.4922 296.13 61.9902C296.301 62.4827 296.387 63.0195 296.387 63.6006V63.7832C296.387 64.4085 296.296 64.9896 296.113 65.5264C295.936 66.0576 295.673 66.5225 295.325 66.9209C294.982 67.3138 294.561 67.6209 294.063 67.8423C293.57 68.0636 293.009 68.1743 292.378 68.1743C291.747 68.1743 291.183 68.0636 290.685 67.8423C290.192 67.6209 289.771 67.3138 289.423 66.9209C289.074 66.5225 288.809 66.0576 288.626 65.5264C288.449 64.9896 288.36 64.4085 288.36 63.7832V63.6006C288.36 63.4622 288.385 63.3267 288.435 63.1938C288.485 63.061 288.546 62.9255 288.618 62.7871C288.695 62.6488 288.764 62.5021 288.825 62.3472C289.03 61.8491 289.309 61.387 289.664 60.9609C290.023 60.5348 290.452 60.1917 290.95 59.9316C291.454 59.666 292.024 59.5332 292.66 59.5332ZM292.361 60.7866C291.797 60.7866 291.332 60.9167 290.967 61.1768C290.607 61.4368 290.339 61.7827 290.162 62.2144C289.985 62.6405 289.896 63.1025 289.896 63.6006V63.7832C289.896 64.2038 289.946 64.6022 290.045 64.9785C290.145 65.3548 290.294 65.6896 290.494 65.9829C290.698 66.2707 290.956 66.4976 291.266 66.6636C291.581 66.8296 291.952 66.9126 292.378 66.9126C292.804 66.9126 293.172 66.8296 293.482 66.6636C293.792 66.4976 294.046 66.2707 294.246 65.9829C294.445 65.6896 294.594 65.3548 294.694 64.9785C294.793 64.6022 294.843 64.2038 294.843 63.7832V63.6006C294.843 63.2243 294.793 62.8674 294.694 62.5298C294.594 62.1922 294.442 61.8934 294.237 61.6333C294.038 61.3732 293.781 61.1685 293.465 61.019C293.155 60.8641 292.787 60.7866 292.361 60.7866ZM299.517 60.7451V71.4531H297.973V59.0186H299.384L299.517 60.7451ZM305.568 63.4346V63.6089C305.568 64.2619 305.49 64.8678 305.335 65.4268C305.181 65.9801 304.954 66.4616 304.655 66.8711C304.361 67.2806 303.999 67.5988 303.567 67.8257C303.136 68.0526 302.64 68.166 302.082 68.166C301.512 68.166 301.008 68.0719 300.571 67.8838C300.134 67.6956 299.763 67.4217 299.458 67.062C299.154 66.7023 298.911 66.2707 298.728 65.7671C298.551 65.2635 298.429 64.6963 298.363 64.0654V63.1357C298.429 62.4717 298.554 61.8768 298.736 61.3511C298.919 60.8254 299.16 60.3771 299.458 60.0063C299.763 59.63 300.131 59.3451 300.562 59.1514C300.994 58.9521 301.492 58.8525 302.057 58.8525C302.621 58.8525 303.122 58.9632 303.559 59.1846C303.996 59.4004 304.364 59.7103 304.663 60.1143C304.962 60.5182 305.186 61.0024 305.335 61.5669C305.49 62.1258 305.568 62.7484 305.568 63.4346ZM304.024 63.6089V63.4346C304.024 62.9863 303.977 62.5658 303.883 62.1729C303.789 61.7744 303.642 61.4258 303.443 61.127C303.249 60.8226 303 60.5846 302.696 60.4131C302.391 60.236 302.029 60.1475 301.608 60.1475C301.221 60.1475 300.883 60.2139 300.596 60.3467C300.313 60.4795 300.073 60.6593 299.874 60.8862C299.674 61.1076 299.511 61.3621 299.384 61.6499C299.262 61.9321 299.171 62.2254 299.11 62.5298V64.6797C299.221 65.0671 299.375 65.4323 299.575 65.7754C299.774 66.113 300.04 66.3869 300.372 66.5972C300.704 66.8019 301.121 66.9043 301.625 66.9043C302.04 66.9043 302.397 66.8185 302.696 66.647C303 66.4699 303.249 66.2292 303.443 65.9248C303.642 65.6204 303.789 65.2718 303.883 64.8789C303.977 64.4805 304.024 64.0571 304.024 63.6089ZM311.254 68.166C310.629 68.166 310.061 68.0609 309.552 67.8506C309.049 67.6348 308.614 67.3332 308.249 66.9458C307.889 66.5584 307.613 66.0991 307.419 65.5679C307.225 65.0366 307.128 64.4556 307.128 63.8247V63.4761C307.128 62.7456 307.236 62.0954 307.452 61.5254C307.668 60.9499 307.961 60.4629 308.332 60.0645C308.703 59.666 309.123 59.3644 309.594 59.1597C310.064 58.9549 310.551 58.8525 311.055 58.8525C311.697 58.8525 312.25 58.9632 312.715 59.1846C313.185 59.4059 313.57 59.7158 313.869 60.1143C314.167 60.5072 314.389 60.972 314.533 61.5088C314.677 62.04 314.749 62.6211 314.749 63.252V63.9409H308.042V62.6875H313.213V62.5713C313.191 62.1729 313.108 61.7855 312.964 61.4092C312.826 61.0329 312.604 60.723 312.3 60.4795C311.995 60.236 311.58 60.1143 311.055 60.1143C310.706 60.1143 310.385 60.189 310.092 60.3384C309.799 60.4823 309.547 60.6981 309.336 60.9858C309.126 61.2736 308.963 61.625 308.847 62.04C308.73 62.4551 308.672 62.9338 308.672 63.4761V63.8247C308.672 64.2508 308.73 64.652 308.847 65.0283C308.968 65.3991 309.143 65.7256 309.37 66.0078C309.602 66.29 309.882 66.5114 310.208 66.6719C310.54 66.8324 310.916 66.9126 311.337 66.9126C311.879 66.9126 312.339 66.8019 312.715 66.5806C313.091 66.3592 313.42 66.0632 313.703 65.6924L314.632 66.4312C314.439 66.7244 314.192 67.0039 313.894 67.2695C313.595 67.5352 313.227 67.751 312.79 67.917C312.358 68.083 311.846 68.166 311.254 68.166ZM322.634 62.9116V64.1567H317.886V62.9116H322.634ZM318.21 59.0186V68H316.674V59.0186H318.21ZM323.879 59.0186V68H322.335V59.0186H323.879ZM327.972 59.0186H329.507L329.375 62.3804C329.341 63.2326 329.244 63.9686 329.084 64.5884C328.924 65.2082 328.719 65.7367 328.47 66.1738C328.221 66.6055 327.941 66.9679 327.631 67.2612C327.327 67.5545 327.012 67.8008 326.685 68H325.921L325.963 66.7466L326.278 66.7383C326.461 66.5225 326.638 66.3011 326.81 66.0742C326.981 65.8418 327.139 65.5679 327.283 65.2524C327.427 64.9315 327.546 64.5413 327.64 64.082C327.739 63.6172 327.803 63.05 327.831 62.3804L327.972 59.0186ZM328.354 59.0186H333.757V68H332.222V60.438H328.354V59.0186ZM325.573 66.7383H334.911V70.6479H333.375V68H327.108V70.6479H325.564L325.573 66.7383ZM341.909 66.4644V61.8408C341.909 61.4867 341.837 61.1795 341.693 60.9194C341.555 60.6538 341.344 60.4491 341.062 60.3052C340.78 60.1613 340.431 60.0894 340.016 60.0894C339.629 60.0894 339.288 60.1558 338.995 60.2886C338.707 60.4214 338.48 60.5957 338.314 60.8115C338.154 61.0273 338.074 61.2598 338.074 61.5088H336.538C336.538 61.1878 336.621 60.8696 336.787 60.5542C336.953 60.2388 337.191 59.9538 337.501 59.6992C337.816 59.4391 338.193 59.2344 338.63 59.085C339.073 58.93 339.565 58.8525 340.107 58.8525C340.76 58.8525 341.336 58.9632 341.834 59.1846C342.338 59.4059 342.73 59.7407 343.013 60.189C343.3 60.6317 343.444 61.1878 343.444 61.8574V66.041C343.444 66.3398 343.469 66.658 343.519 66.9956C343.574 67.3332 343.655 67.6237 343.76 67.8672V68H342.158C342.08 67.8229 342.019 67.5877 341.975 67.2944C341.931 66.9956 341.909 66.7189 341.909 66.4644ZM342.174 62.5547L342.191 63.6338H340.639C340.201 63.6338 339.811 63.6698 339.468 63.7417C339.125 63.8081 338.837 63.9105 338.605 64.0488C338.373 64.1872 338.195 64.3615 338.074 64.5718C337.952 64.7765 337.891 65.0173 337.891 65.2939C337.891 65.5762 337.955 65.8335 338.082 66.0659C338.209 66.2983 338.4 66.4837 338.655 66.6221C338.915 66.7549 339.233 66.8213 339.609 66.8213C340.08 66.8213 340.495 66.7217 340.854 66.5225C341.214 66.3232 341.499 66.0798 341.709 65.792C341.925 65.5042 342.042 65.2248 342.058 64.9536L342.714 65.6924C342.675 65.9248 342.57 66.1821 342.398 66.4644C342.227 66.7466 341.997 67.0177 341.709 67.2778C341.427 67.5324 341.09 67.7454 340.697 67.917C340.309 68.083 339.872 68.166 339.385 68.166C338.777 68.166 338.243 68.047 337.783 67.8091C337.329 67.5711 336.975 67.2529 336.721 66.8545C336.472 66.4505 336.347 65.9995 336.347 65.5015C336.347 65.02 336.441 64.5967 336.629 64.2314C336.818 63.8607 337.089 63.5535 337.443 63.3101C337.797 63.061 338.223 62.8729 338.721 62.7456C339.219 62.6183 339.775 62.5547 340.39 62.5547H342.174ZM354.443 55.9141V68H352.866V55.9141H354.443ZM358.328 55.9141V57.2256H348.989V55.9141H358.328ZM369.193 61.5752V62.3389C369.193 63.2464 369.08 64.0599 368.853 64.7793C368.626 65.4987 368.3 66.1102 367.874 66.6138C367.447 67.1174 366.936 67.502 366.338 67.7676C365.746 68.0332 365.082 68.166 364.346 68.166C363.632 68.166 362.976 68.0332 362.378 67.7676C361.786 67.502 361.272 67.1174 360.834 66.6138C360.403 66.1102 360.068 65.4987 359.83 64.7793C359.592 64.0599 359.473 63.2464 359.473 62.3389V61.5752C359.473 60.6676 359.589 59.8569 359.822 59.1431C360.06 58.4237 360.395 57.8122 360.826 57.3086C361.258 56.7995 361.77 56.4121 362.362 56.1465C362.959 55.8809 363.615 55.748 364.329 55.748C365.065 55.748 365.729 55.8809 366.321 56.1465C366.919 56.4121 367.431 56.7995 367.857 57.3086C368.289 57.8122 368.618 58.4237 368.845 59.1431C369.077 59.8569 369.193 60.6676 369.193 61.5752ZM367.608 62.3389V61.5586C367.608 60.8392 367.533 60.2028 367.384 59.6494C367.24 59.096 367.027 58.6312 366.745 58.2549C366.462 57.8786 366.117 57.5936 365.707 57.3999C365.303 57.2062 364.844 57.1094 364.329 57.1094C363.831 57.1094 363.38 57.2062 362.976 57.3999C362.578 57.5936 362.235 57.8786 361.947 58.2549C361.665 58.6312 361.446 59.096 361.291 59.6494C361.136 60.2028 361.059 60.8392 361.059 61.5586V62.3389C361.059 63.0638 361.136 63.7057 361.291 64.2646C361.446 64.818 361.667 65.2856 361.955 65.6675C362.248 66.0438 362.594 66.3288 362.993 66.5225C363.397 66.7161 363.848 66.813 364.346 66.813C364.866 66.813 365.328 66.7161 365.732 66.5225C366.136 66.3288 366.476 66.0438 366.753 65.6675C367.035 65.2856 367.248 64.818 367.392 64.2646C367.536 63.7057 367.608 63.0638 367.608 62.3389ZM380.524 61.9819V66.4062C380.375 66.6276 380.137 66.8766 379.81 67.1533C379.484 67.4245 379.033 67.6624 378.457 67.8672C377.887 68.0664 377.151 68.166 376.249 68.166C375.513 68.166 374.835 68.0387 374.215 67.7842C373.601 67.5241 373.067 67.1478 372.613 66.6553C372.165 66.1572 371.816 65.554 371.567 64.8457C371.324 64.1318 371.202 63.3239 371.202 62.4219V61.4839C371.202 60.5819 371.307 59.7767 371.518 59.0684C371.733 58.36 372.049 57.7596 372.464 57.2671C372.879 56.769 373.388 56.3927 373.991 56.1382C374.594 55.8781 375.286 55.748 376.066 55.748C376.991 55.748 377.763 55.9085 378.382 56.2295C379.008 56.5449 379.495 56.9821 379.843 57.541C380.197 58.0999 380.424 58.7363 380.524 59.4502H378.922C378.85 59.013 378.706 58.6146 378.49 58.2549C378.28 57.8952 377.978 57.6074 377.585 57.3916C377.193 57.1702 376.686 57.0596 376.066 57.0596C375.507 57.0596 375.023 57.1619 374.614 57.3667C374.204 57.5715 373.867 57.8647 373.601 58.2466C373.335 58.6284 373.136 59.0905 373.003 59.6328C372.876 60.1751 372.812 60.7866 372.812 61.4673V62.4219C372.812 63.1191 372.893 63.7417 373.053 64.2896C373.219 64.8374 373.454 65.305 373.759 65.6924C374.063 66.0742 374.426 66.3647 374.846 66.564C375.272 66.7632 375.743 66.8628 376.257 66.8628C376.827 66.8628 377.289 66.8158 377.644 66.7217C377.998 66.6221 378.274 66.5059 378.474 66.373C378.673 66.2347 378.825 66.1047 378.93 65.9829V63.2769H376.133V61.9819H380.524ZM392.485 61.5752V62.3389C392.485 63.2464 392.372 64.0599 392.145 64.7793C391.918 65.4987 391.592 66.1102 391.166 66.6138C390.739 67.1174 390.228 67.502 389.63 67.7676C389.038 68.0332 388.374 68.166 387.638 68.166C386.924 68.166 386.268 68.0332 385.67 67.7676C385.078 67.502 384.564 67.1174 384.126 66.6138C383.695 66.1102 383.36 65.4987 383.122 64.7793C382.884 64.0599 382.765 63.2464 382.765 62.3389V61.5752C382.765 60.6676 382.881 59.8569 383.114 59.1431C383.352 58.4237 383.687 57.8122 384.118 57.3086C384.55 56.7995 385.062 56.4121 385.654 56.1465C386.251 55.8809 386.907 55.748 387.621 55.748C388.357 55.748 389.021 55.8809 389.613 56.1465C390.211 56.4121 390.723 56.7995 391.149 57.3086C391.581 57.8122 391.91 58.4237 392.137 59.1431C392.369 59.8569 392.485 60.6676 392.485 61.5752ZM390.9 62.3389V61.5586C390.9 60.8392 390.825 60.2028 390.676 59.6494C390.532 59.096 390.319 58.6312 390.037 58.2549C389.754 57.8786 389.409 57.5936 388.999 57.3999C388.595 57.2062 388.136 57.1094 387.621 57.1094C387.123 57.1094 386.672 57.2062 386.268 57.3999C385.87 57.5936 385.527 57.8786 385.239 58.2549C384.957 58.6312 384.738 59.096 384.583 59.6494C384.428 60.2028 384.351 60.8392 384.351 61.5586V62.3389C384.351 63.0638 384.428 63.7057 384.583 64.2646C384.738 64.818 384.959 65.2856 385.247 65.6675C385.54 66.0438 385.886 66.3288 386.285 66.5225C386.689 66.7161 387.14 66.813 387.638 66.813C388.158 66.813 388.62 66.7161 389.024 66.5225C389.428 66.3288 389.768 66.0438 390.045 65.6675C390.327 65.2856 390.54 64.818 390.684 64.2646C390.828 63.7057 390.9 63.0638 390.9 62.3389Z" fill="black"/>
<defs>
<filter id="filter0_d_802_773" x="564.052" y="12.0859" width="106.191" height="106.163" filterUnits="userSpaceOnUse" color-interpolation-filters="sRGB">
<feFlood flood-opacity="0" result="BackgroundImageFix"/>
<feColorMatrix in="SourceAlpha" type="matrix" values="0 0 0 0 0 0 0 0 0 0 0 0 0 0 0 0 0 0 127 0" result="hardAlpha"/>
<feOffset/>
<feGaussianBlur stdDeviation="12"/>
<feComposite in2="hardAlpha" operator="out"/>
<feColorMatrix type="matrix" values="0 0 0 0 0.579167 0 0 0 0 0.579167 0 0 0 0 0.579167 0 0 0 0.3 0"/>
<feBlend mode="normal" in2="BackgroundImageFix" result="effect1_dropShadow_802_773"/>
<feBlend mode="normal" in="SourceGraphic" in2="effect1_dropShadow_802_773" result="shape"/>
</filter>
</defs>
</svg>
