<svg width="346" height="85" viewBox="0 0 346 85" fill="none" xmlns="http://www.w3.org/2000/svg">
<g filter="url(#filter0_d_315_334)">
<path d="M316.5 54.8472C323.404 47.9436 323.404 36.7507 316.5 29.8472C309.596 22.9436 298.404 22.9436 291.5 29.8472C284.596 36.7507 284.596 47.9436 291.5 54.8472C298.404 61.7507 309.596 61.7507 316.5 54.8472Z" fill="white"/>
</g>
<path d="M309.526 42.3453C309.529 43.3924 309.222 44.4171 308.643 45.29C308.065 46.1629 307.241 46.845 306.276 47.2502C305.31 47.6554 304.246 47.7657 303.218 47.567C302.19 47.3683 301.244 46.8696 300.499 46.1338C299.754 45.3979 299.243 44.458 299.032 43.4324C298.82 42.4068 298.917 41.3416 299.31 40.3711C299.703 39.4006 300.375 38.5682 301.241 37.979C302.106 37.3897 303.127 37.0701 304.174 37.0602C304.874 37.0515 305.568 37.1817 306.217 37.4434C306.866 37.705 307.456 38.0929 307.954 38.5846C308.452 39.0762 308.847 39.6618 309.117 40.3074C309.387 40.9529 309.526 41.6456 309.526 42.3453V42.3453Z" fill="#00A3FF"/>
<path d="M304.24 44.4161C305.384 44.4161 306.311 43.4889 306.311 42.3451C306.311 41.2014 305.384 40.2742 304.24 40.2742C303.096 40.2742 302.169 41.2014 302.169 42.3451C302.169 43.4889 303.096 44.4161 304.24 44.4161Z" fill="white"/>
<path d="M53.0456 60.0204C62.811 50.2596 62.811 34.4342 53.0455 24.6734C43.2801 14.9127 27.4473 14.9126 17.6819 24.6734C7.91646 34.4342 7.91643 50.2596 17.6819 60.0204C27.4473 69.7812 43.2802 69.7812 53.0456 60.0204Z" fill="#00A3FF"/>
<path d="M29.6265 34.1887H32.7515V51.6936H29.0039V38.9495H26.001V36.5691C26.5381 36.504 27.0304 36.3778 27.478 36.1907C27.9256 35.9954 28.2715 35.7878 28.5156 35.5681C28.7679 35.3484 28.9795 35.1368 29.1504 34.9333C29.3294 34.7218 29.4556 34.5427 29.5288 34.3962L29.6265 34.1887ZM39.6362 34.1887H42.7612V51.6936H39.0137V38.9495H36.0107V36.5691C36.5479 36.504 37.0402 36.3778 37.4878 36.1907C37.9354 35.9954 38.2812 35.7878 38.5254 35.5681C38.7777 35.3484 38.9893 35.1368 39.1602 34.9333C39.3392 34.7218 39.4653 34.5427 39.5386 34.3962L39.6362 34.1887Z" fill="white"/>
<path d="M118.757 12.3938V22.3469H117.444V13.4739H112.536V22.3469H111.217V12.3938H118.757ZM122.325 20.344L125.736 14.9504H127.008V22.3469H125.736V16.9534L122.325 22.3469H121.067V14.9504H122.325V20.344ZM132.053 14.9504V22.3469H130.781V14.9504H132.053ZM134.534 14.9504V15.9758H128.348V14.9504H134.534ZM141.356 14.9504V22.3469H140.092V14.9504H141.356ZM140.926 18.3479V19.387C140.671 19.4827 140.411 19.5693 140.146 19.6467C139.887 19.7196 139.611 19.7789 139.319 19.8245C139.032 19.8655 138.72 19.886 138.383 19.886C137.799 19.886 137.294 19.7857 136.865 19.5852C136.437 19.3801 136.106 19.0725 135.874 18.6624C135.642 18.2476 135.525 17.7258 135.525 17.0969V14.9368H136.79V17.0969C136.79 17.5071 136.852 17.8398 136.975 18.095C137.098 18.3502 137.278 18.5393 137.515 18.6624C137.752 18.7808 138.041 18.8401 138.383 18.8401C138.711 18.8401 139.019 18.8196 139.306 18.7786C139.597 18.733 139.875 18.6737 140.14 18.6008C140.409 18.5279 140.671 18.4436 140.926 18.3479ZM151.795 14.9504V15.9963H148.056V14.9504H151.795ZM148.24 14.9504V22.3469H146.976V14.9504H148.24ZM152.916 14.9504V22.3469H151.645V14.9504H152.916ZM156.211 16.3723V25.1907H154.939V14.9504H156.102L156.211 16.3723ZM161.194 18.5872V18.7307C161.194 19.2685 161.131 19.7675 161.003 20.2278C160.875 20.6835 160.688 21.08 160.442 21.4172C160.201 21.7545 159.902 22.0165 159.547 22.2034C159.191 22.3902 158.784 22.4836 158.323 22.4836C157.854 22.4836 157.439 22.4062 157.079 22.2512C156.719 22.0963 156.414 21.8707 156.163 21.5745C155.912 21.2782 155.712 20.9228 155.562 20.5081C155.416 20.0933 155.315 19.6262 155.261 19.1067V18.3411C155.315 17.7942 155.418 17.3043 155.568 16.8713C155.719 16.4384 155.917 16.0693 156.163 15.7639C156.414 15.454 156.717 15.2193 157.072 15.0598C157.428 14.8958 157.838 14.8137 158.303 14.8137C158.768 14.8137 159.18 14.9049 159.54 15.0872C159.9 15.2649 160.203 15.5201 160.449 15.8528C160.695 16.1855 160.88 16.5842 161.003 17.0491C161.131 17.5094 161.194 18.0221 161.194 18.5872ZM159.923 18.7307V18.5872C159.923 18.218 159.884 17.8717 159.807 17.5481C159.729 17.22 159.608 16.9329 159.444 16.6868C159.285 16.4361 159.08 16.2402 158.829 16.0989C158.578 15.953 158.28 15.8801 157.934 15.8801C157.615 15.8801 157.337 15.9348 157.1 16.0442C156.867 16.1536 156.669 16.3017 156.505 16.4885C156.341 16.6708 156.206 16.8805 156.102 17.1174C156.001 17.3499 155.926 17.5914 155.876 17.842V19.6125C155.967 19.9316 156.095 20.2323 156.259 20.5149C156.423 20.7929 156.642 21.0185 156.915 21.1917C157.188 21.3603 157.533 21.4446 157.947 21.4446C158.289 21.4446 158.583 21.3739 158.829 21.2327C159.08 21.0868 159.285 20.8886 159.444 20.6379C159.608 20.3873 159.729 20.1002 159.807 19.7766C159.884 19.4485 159.923 19.0999 159.923 18.7307ZM162.473 18.7307V18.5735C162.473 18.0403 162.55 17.5458 162.705 17.0901C162.86 16.6298 163.083 16.231 163.375 15.8938C163.667 15.552 164.02 15.2877 164.435 15.1008C164.849 14.9094 165.314 14.8137 165.829 14.8137C166.349 14.8137 166.816 14.9094 167.23 15.1008C167.65 15.2877 168.005 15.552 168.297 15.8938C168.593 16.231 168.819 16.6298 168.974 17.0901C169.129 17.5458 169.206 18.0403 169.206 18.5735V18.7307C169.206 19.2639 169.129 19.7584 168.974 20.2141C168.819 20.6698 168.593 21.0686 168.297 21.4104C168.005 21.7476 167.652 22.012 167.237 22.2034C166.827 22.3902 166.362 22.4836 165.843 22.4836C165.323 22.4836 164.856 22.3902 164.441 22.2034C164.027 22.012 163.671 21.7476 163.375 21.4104C163.083 21.0686 162.86 20.6698 162.705 20.2141C162.55 19.7584 162.473 19.2639 162.473 18.7307ZM163.737 18.5735V18.7307C163.737 19.0999 163.781 19.4485 163.867 19.7766C163.954 20.1002 164.084 20.3873 164.257 20.6379C164.435 20.8886 164.656 21.0868 164.92 21.2327C165.184 21.3739 165.492 21.4446 165.843 21.4446C166.189 21.4446 166.492 21.3739 166.752 21.2327C167.016 21.0868 167.235 20.8886 167.408 20.6379C167.581 20.3873 167.711 20.1002 167.798 19.7766C167.889 19.4485 167.935 19.0999 167.935 18.7307V18.5735C167.935 18.2089 167.889 17.8648 167.798 17.5413C167.711 17.2131 167.579 16.9237 167.401 16.6731C167.228 16.4179 167.009 16.2174 166.745 16.0715C166.485 15.9257 166.18 15.8528 165.829 15.8528C165.483 15.8528 165.177 15.9257 164.913 16.0715C164.653 16.2174 164.435 16.4179 164.257 16.6731C164.084 16.9237 163.954 17.2131 163.867 17.5413C163.781 17.8648 163.737 18.2089 163.737 18.5735ZM173.861 22.4836C173.346 22.4836 172.879 22.3971 172.46 22.2239C172.045 22.0461 171.688 21.7978 171.387 21.4788C171.09 21.1597 170.863 20.7815 170.703 20.344C170.544 19.9065 170.464 19.428 170.464 18.9084V18.6213C170.464 18.0198 170.553 17.4843 170.73 17.0149C170.908 16.5409 171.15 16.1399 171.455 15.8118C171.76 15.4836 172.107 15.2353 172.494 15.0667C172.882 14.898 173.283 14.8137 173.697 14.8137C174.226 14.8137 174.682 14.9049 175.064 15.0872C175.452 15.2694 175.769 15.5247 176.015 15.8528C176.261 16.1764 176.443 16.5592 176.562 17.0012C176.68 17.4387 176.739 17.9172 176.739 18.4368V19.0042H171.216V17.9719H175.475V17.8762C175.456 17.5481 175.388 17.2291 175.27 16.9192C175.156 16.6093 174.973 16.3541 174.723 16.1536C174.472 15.953 174.13 15.8528 173.697 15.8528C173.41 15.8528 173.146 15.9143 172.904 16.0374C172.663 16.1558 172.455 16.3336 172.282 16.5706C172.109 16.8075 171.975 17.0969 171.879 17.4387C171.783 17.7805 171.735 18.1747 171.735 18.6213V18.9084C171.735 19.2594 171.783 19.5898 171.879 19.8997C171.979 20.205 172.123 20.4739 172.31 20.7063C172.501 20.9387 172.731 21.121 173 21.2532C173.273 21.3853 173.583 21.4514 173.93 21.4514C174.376 21.4514 174.755 21.3603 175.064 21.178C175.374 20.9957 175.646 20.7519 175.878 20.4465L176.644 21.0549C176.484 21.2965 176.281 21.5266 176.035 21.7454C175.789 21.9641 175.486 22.1418 175.126 22.2786C174.771 22.4153 174.349 22.4836 173.861 22.4836ZM179.59 14.9504V22.3469H178.325V14.9504H179.59ZM184.443 14.9504L180.937 19.1887H179.166L178.975 18.0813H180.424L182.905 14.9504H184.443ZM183.083 22.3469L180.362 18.9973L181.176 18.0813L184.689 22.3469H183.083ZM188.805 14.9504V22.3469H187.533V14.9504H188.805ZM191.286 14.9504V15.9758H185.1V14.9504H191.286ZM196.782 21.0823V17.2747C196.782 16.983 196.723 16.7301 196.604 16.5159C196.491 16.2971 196.317 16.1285 196.085 16.01C195.853 15.8915 195.565 15.8323 195.224 15.8323C194.905 15.8323 194.624 15.887 194.383 15.9963C194.146 16.1057 193.959 16.2493 193.822 16.427C193.69 16.6047 193.624 16.7961 193.624 17.0012H192.359C192.359 16.7369 192.428 16.4749 192.564 16.2151C192.701 15.9553 192.897 15.7206 193.152 15.511C193.412 15.2968 193.722 15.1282 194.082 15.0051C194.447 14.8775 194.852 14.8137 195.299 14.8137C195.837 14.8137 196.311 14.9049 196.721 15.0872C197.135 15.2694 197.459 15.5452 197.691 15.9143C197.928 16.2789 198.047 16.7369 198.047 17.2883V20.7336C198.047 20.9797 198.067 21.2418 198.108 21.5198C198.154 21.7978 198.22 22.037 198.307 22.2375V22.3469H196.987C196.924 22.2011 196.873 22.0074 196.837 21.7659C196.8 21.5198 196.782 21.2919 196.782 21.0823ZM197.001 17.8625L197.015 18.7512H195.736C195.376 18.7512 195.055 18.7808 194.772 18.8401C194.49 18.8948 194.253 18.9791 194.062 19.093C193.87 19.2069 193.724 19.3505 193.624 19.5237C193.524 19.6923 193.474 19.8905 193.474 20.1184C193.474 20.3508 193.526 20.5627 193.631 20.7542C193.736 20.9456 193.893 21.0982 194.103 21.2122C194.317 21.3215 194.579 21.3762 194.889 21.3762C195.276 21.3762 195.618 21.2942 195.914 21.1301C196.21 20.9661 196.445 20.7655 196.618 20.5286C196.796 20.2916 196.892 20.0614 196.905 19.8381L197.445 20.4465C197.413 20.6379 197.327 20.8499 197.186 21.0823C197.044 21.3147 196.855 21.538 196.618 21.7522C196.386 21.9618 196.108 22.1373 195.784 22.2786C195.465 22.4153 195.105 22.4836 194.704 22.4836C194.203 22.4836 193.763 22.3857 193.385 22.1897C193.011 21.9937 192.719 21.7317 192.51 21.4036C192.305 21.0709 192.202 20.6995 192.202 20.2893C192.202 19.8928 192.28 19.5442 192.435 19.2434C192.59 18.9381 192.813 18.6851 193.104 18.4846C193.396 18.2795 193.747 18.1246 194.157 18.0198C194.567 17.915 195.025 17.8625 195.531 17.8625H197.001ZM112.331 40.344L115.742 34.9504H117.014V42.3469H115.742V36.9534L112.331 42.3469H111.073V34.9504H112.331V40.344ZM124.062 38.1565V39.1819H120.151V38.1565H124.062ZM120.418 34.9504V42.3469H119.153V34.9504H120.418ZM125.087 34.9504V42.3469H123.815V34.9504H125.087ZM130.597 39.093H128.17L128.156 38.0813H130.139C130.531 38.0813 130.856 38.0426 131.116 37.9651C131.381 37.8876 131.579 37.7714 131.711 37.6165C131.843 37.4615 131.909 37.2701 131.909 37.0422C131.909 36.8645 131.87 36.7096 131.793 36.5774C131.72 36.4407 131.608 36.329 131.458 36.2424C131.308 36.1513 131.121 36.0852 130.897 36.0442C130.679 35.9986 130.421 35.9758 130.125 35.9758H128.505V42.3469H127.24V34.9504H130.125C130.594 34.9504 131.016 34.9915 131.39 35.0735C131.768 35.1555 132.089 35.2808 132.354 35.4495C132.622 35.6135 132.827 35.8232 132.969 36.0784C133.11 36.3336 133.181 36.6344 133.181 36.9807C133.181 37.204 133.135 37.4159 133.044 37.6165C132.953 37.817 132.818 37.9947 132.641 38.1497C132.463 38.3046 132.244 38.4322 131.984 38.5325C131.725 38.6282 131.426 38.6897 131.089 38.717L130.597 39.093ZM130.597 42.3469H127.712L128.341 41.3215H130.597C130.948 41.3215 131.239 41.2782 131.472 41.1917C131.704 41.1005 131.877 40.9729 131.991 40.8088C132.11 40.6402 132.169 40.4397 132.169 40.2073C132.169 39.9749 132.11 39.7766 131.991 39.6125C131.877 39.4439 131.704 39.3163 131.472 39.2297C131.239 39.1386 130.948 39.093 130.597 39.093H128.676L128.689 38.0813H131.089L131.547 38.4641C131.952 38.496 132.297 38.5963 132.579 38.7649C132.862 38.9335 133.076 39.1477 133.222 39.4075C133.368 39.6627 133.44 39.9407 133.44 40.2415C133.44 40.5878 133.374 40.8931 133.242 41.1575C133.115 41.4218 132.928 41.6428 132.682 41.8206C132.436 41.9937 132.137 42.1259 131.786 42.217C131.435 42.3036 131.039 42.3469 130.597 42.3469ZM138.205 42.4836C137.69 42.4836 137.223 42.3971 136.804 42.2239C136.389 42.0461 136.031 41.7978 135.73 41.4788C135.434 41.1597 135.206 40.7815 135.047 40.344C134.887 39.9065 134.808 39.428 134.808 38.9084V38.6213C134.808 38.0198 134.896 37.4843 135.074 37.0149C135.252 36.5409 135.493 36.1399 135.799 35.8118C136.104 35.4836 136.451 35.2353 136.838 35.0667C137.225 34.898 137.626 34.8137 138.041 34.8137C138.57 34.8137 139.025 34.9049 139.408 35.0872C139.796 35.2694 140.112 35.5247 140.358 35.8528C140.604 36.1764 140.787 36.5592 140.905 37.0012C141.024 37.4387 141.083 37.9172 141.083 38.4368V39.0042H135.56V37.9719H139.818V37.8762C139.8 37.5481 139.732 37.2291 139.613 36.9192C139.499 36.6093 139.317 36.3541 139.066 36.1536C138.816 35.953 138.474 35.8528 138.041 35.8528C137.754 35.8528 137.49 35.9143 137.248 36.0374C137.007 36.1558 136.799 36.3336 136.626 36.5706C136.453 36.8075 136.318 37.0969 136.223 37.4387C136.127 37.7805 136.079 38.1747 136.079 38.6213V38.9084C136.079 39.2594 136.127 39.5898 136.223 39.8997C136.323 40.205 136.466 40.4739 136.653 40.7063C136.845 40.9387 137.075 41.121 137.344 41.2532C137.617 41.3853 137.927 41.4514 138.273 41.4514C138.72 41.4514 139.098 41.3603 139.408 41.178C139.718 40.9957 139.989 40.7519 140.222 40.4465L140.987 41.0549C140.828 41.2965 140.625 41.5266 140.379 41.7454C140.133 41.9641 139.83 42.1418 139.47 42.2786C139.114 42.4153 138.693 42.4836 138.205 42.4836ZM145.52 41.4446C145.82 41.4446 146.098 41.3831 146.354 41.26C146.609 41.137 146.818 40.9683 146.982 40.7542C147.146 40.5354 147.24 40.287 147.263 40.009H148.466C148.443 40.4465 148.295 40.8544 148.021 41.2327C147.753 41.6064 147.399 41.9094 146.962 42.1418C146.524 42.3697 146.044 42.4836 145.52 42.4836C144.964 42.4836 144.478 42.3857 144.063 42.1897C143.653 41.9937 143.312 41.7249 143.038 41.3831C142.769 41.0413 142.566 40.6493 142.43 40.2073C142.298 39.7607 142.231 39.289 142.231 38.7922V38.5051C142.231 38.0084 142.298 37.539 142.43 37.0969C142.566 36.6503 142.769 36.2561 143.038 35.9143C143.312 35.5725 143.653 35.3036 144.063 35.1077C144.478 34.9117 144.964 34.8137 145.52 34.8137C146.098 34.8137 146.604 34.9322 147.037 35.1692C147.47 35.4016 147.81 35.7206 148.056 36.1262C148.306 36.5273 148.443 36.983 148.466 37.4934H147.263C147.24 37.1881 147.153 36.9124 147.003 36.6663C146.857 36.4202 146.657 36.2242 146.401 36.0784C146.151 35.928 145.857 35.8528 145.52 35.8528C145.132 35.8528 144.806 35.9303 144.542 36.0852C144.282 36.2356 144.075 36.4407 143.92 36.7004C143.77 36.9556 143.66 37.2405 143.592 37.5549C143.528 37.8648 143.496 38.1816 143.496 38.5051V38.7922C143.496 39.1158 143.528 39.4348 143.592 39.7493C143.656 40.0637 143.763 40.3486 143.913 40.6038C144.068 40.859 144.275 41.064 144.535 41.219C144.799 41.3694 145.128 41.4446 145.52 41.4446ZM152.902 34.9504V42.3469H151.631V34.9504H152.902ZM155.384 34.9504V35.9758H149.197V34.9504H155.384ZM156.006 38.7307V38.5735C156.006 38.0403 156.083 37.5458 156.238 37.0901C156.393 36.6298 156.617 36.231 156.908 35.8938C157.2 35.552 157.553 35.2877 157.968 35.1008C158.382 34.9094 158.847 34.8137 159.362 34.8137C159.882 34.8137 160.349 34.9094 160.764 35.1008C161.183 35.2877 161.538 35.552 161.83 35.8938C162.126 36.231 162.352 36.6298 162.507 37.0901C162.662 37.5458 162.739 38.0403 162.739 38.5735V38.7307C162.739 39.2639 162.662 39.7584 162.507 40.2141C162.352 40.6698 162.126 41.0686 161.83 41.4104C161.538 41.7476 161.185 42.012 160.771 42.2034C160.36 42.3902 159.896 42.4836 159.376 42.4836C158.856 42.4836 158.389 42.3902 157.975 42.2034C157.56 42.012 157.204 41.7476 156.908 41.4104C156.617 41.0686 156.393 40.6698 156.238 40.2141C156.083 39.7584 156.006 39.2639 156.006 38.7307ZM157.271 38.5735V38.7307C157.271 39.0999 157.314 39.4485 157.4 39.7766C157.487 40.1002 157.617 40.3873 157.79 40.6379C157.968 40.8886 158.189 41.0868 158.453 41.2327C158.717 41.3739 159.025 41.4446 159.376 41.4446C159.722 41.4446 160.025 41.3739 160.285 41.2327C160.549 41.0868 160.768 40.8886 160.941 40.6379C161.115 40.3873 161.244 40.1002 161.331 39.7766C161.422 39.4485 161.468 39.0999 161.468 38.7307V38.5735C161.468 38.2089 161.422 37.8648 161.331 37.5413C161.244 37.2131 161.112 36.9237 160.935 36.6731C160.761 36.4179 160.543 36.2174 160.278 36.0715C160.019 35.9257 159.713 35.8528 159.362 35.8528C159.016 35.8528 158.711 35.9257 158.446 36.0715C158.187 36.2174 157.968 36.4179 157.79 36.6731C157.617 36.9237 157.487 37.2131 157.4 37.5413C157.314 37.8648 157.271 38.2089 157.271 38.5735ZM165.59 36.3723V45.1907H164.318V34.9504H165.48L165.59 36.3723ZM170.573 38.5872V38.7307C170.573 39.2685 170.509 39.7675 170.382 40.2278C170.254 40.6835 170.067 41.08 169.821 41.4172C169.58 41.7545 169.281 42.0165 168.926 42.2034C168.57 42.3902 168.162 42.4836 167.702 42.4836C167.233 42.4836 166.818 42.4062 166.458 42.2512C166.098 42.0963 165.793 41.8707 165.542 41.5745C165.291 41.2782 165.091 40.9228 164.94 40.5081C164.795 40.0933 164.694 39.6262 164.64 39.1067V38.3411C164.694 37.7942 164.797 37.3043 164.947 36.8713C165.098 36.4384 165.296 36.0693 165.542 35.7639C165.793 35.454 166.096 35.2193 166.451 35.0598C166.807 34.8958 167.217 34.8137 167.682 34.8137C168.146 34.8137 168.559 34.9049 168.919 35.0872C169.279 35.2649 169.582 35.5201 169.828 35.8528C170.074 36.1855 170.259 36.5842 170.382 37.0491C170.509 37.5094 170.573 38.0221 170.573 38.5872ZM169.302 38.7307V38.5872C169.302 38.218 169.263 37.8717 169.186 37.5481C169.108 37.22 168.987 36.9329 168.823 36.6868C168.664 36.4361 168.459 36.2402 168.208 36.0989C167.957 35.953 167.659 35.8801 167.312 35.8801C166.993 35.8801 166.715 35.9348 166.479 36.0442C166.246 36.1536 166.048 36.3017 165.884 36.4885C165.72 36.6708 165.585 36.8805 165.48 37.1174C165.38 37.3499 165.305 37.5914 165.255 37.842V39.6125C165.346 39.9316 165.474 40.2323 165.638 40.5149C165.802 40.7929 166.021 41.0185 166.294 41.1917C166.567 41.3603 166.911 41.4446 167.326 41.4446C167.668 41.4446 167.962 41.3739 168.208 41.2327C168.459 41.0868 168.664 40.8886 168.823 40.6379C168.987 40.3873 169.108 40.1002 169.186 39.7766C169.263 39.4485 169.302 39.0999 169.302 38.7307ZM176.548 41.0823V37.2747C176.548 36.983 176.489 36.7301 176.37 36.5159C176.256 36.2971 176.083 36.1285 175.851 36.01C175.618 35.8915 175.331 35.8323 174.989 35.8323C174.67 35.8323 174.39 35.887 174.148 35.9963C173.911 36.1057 173.725 36.2493 173.588 36.427C173.456 36.6047 173.39 36.7961 173.39 37.0012H172.125C172.125 36.7369 172.193 36.4749 172.33 36.2151C172.467 35.9553 172.663 35.7206 172.918 35.511C173.178 35.2968 173.488 35.1282 173.848 35.0051C174.212 34.8775 174.618 34.8137 175.064 34.8137C175.602 34.8137 176.076 34.9049 176.486 35.0872C176.901 35.2694 177.225 35.5452 177.457 35.9143C177.694 36.2789 177.812 36.7369 177.812 37.2883V40.7336C177.812 40.9797 177.833 41.2418 177.874 41.5198C177.92 41.7978 177.986 42.037 178.072 42.2375V42.3469H176.753C176.689 42.2011 176.639 42.0074 176.603 41.7659C176.566 41.5198 176.548 41.2919 176.548 41.0823ZM176.767 37.8625L176.78 38.7512H175.502C175.142 38.7512 174.821 38.7808 174.538 38.8401C174.256 38.8948 174.019 38.9791 173.827 39.093C173.636 39.2069 173.49 39.3505 173.39 39.5237C173.289 39.6923 173.239 39.8905 173.239 40.1184C173.239 40.3508 173.292 40.5627 173.396 40.7542C173.501 40.9456 173.659 41.0982 173.868 41.2122C174.082 41.3215 174.344 41.3762 174.654 41.3762C175.042 41.3762 175.383 41.2942 175.68 41.1301C175.976 40.9661 176.211 40.7655 176.384 40.5286C176.562 40.2916 176.657 40.0614 176.671 39.8381L177.211 40.4465C177.179 40.6379 177.092 40.8499 176.951 41.0823C176.81 41.3147 176.621 41.538 176.384 41.7522C176.151 41.9618 175.873 42.1373 175.55 42.2786C175.231 42.4153 174.871 42.4836 174.47 42.4836C173.968 42.4836 173.529 42.3857 173.15 42.1897C172.777 41.9937 172.485 41.7317 172.275 41.4036C172.07 41.0709 171.968 40.6995 171.968 40.2893C171.968 39.8928 172.045 39.5442 172.2 39.2434C172.355 38.9381 172.578 38.6851 172.87 38.4846C173.162 38.2795 173.513 38.1246 173.923 38.0198C174.333 37.915 174.791 37.8625 175.297 37.8625H176.767ZM184.054 40.6653L186.569 34.9504H187.786L184.491 42.3469H183.616L180.335 34.9504H181.552L184.054 40.6653ZM181.183 34.9504V42.3469H179.918V34.9504H181.183ZM186.884 42.3469V34.9504H188.155V42.3469H186.884ZM195.032 40.344L198.443 34.9504H199.715V42.3469H198.443V36.9534L195.032 42.3469H193.774V34.9504H195.032V40.344ZM210.146 34.9504V35.9963H206.407V34.9504H210.146ZM206.592 34.9504V42.3469H205.327V34.9504H206.592ZM211.268 34.9504V42.3469H209.996V34.9504H211.268ZM212.963 38.7307V38.5735C212.963 38.0403 213.04 37.5458 213.195 37.0901C213.35 36.6298 213.574 36.231 213.865 35.8938C214.157 35.552 214.51 35.2877 214.925 35.1008C215.34 34.9094 215.804 34.8137 216.319 34.8137C216.839 34.8137 217.306 34.9094 217.721 35.1008C218.14 35.2877 218.495 35.552 218.787 35.8938C219.083 36.231 219.309 36.6298 219.464 37.0901C219.619 37.5458 219.696 38.0403 219.696 38.5735V38.7307C219.696 39.2639 219.619 39.7584 219.464 40.2141C219.309 40.6698 219.083 41.0686 218.787 41.4104C218.495 41.7476 218.142 42.012 217.728 42.2034C217.317 42.3902 216.853 42.4836 216.333 42.4836C215.813 42.4836 215.346 42.3902 214.932 42.2034C214.517 42.012 214.161 41.7476 213.865 41.4104C213.574 41.0686 213.35 40.6698 213.195 40.2141C213.04 39.7584 212.963 39.2639 212.963 38.7307ZM214.228 38.5735V38.7307C214.228 39.0999 214.271 39.4485 214.357 39.7766C214.444 40.1002 214.574 40.3873 214.747 40.6379C214.925 40.8886 215.146 41.0868 215.41 41.2327C215.674 41.3739 215.982 41.4446 216.333 41.4446C216.679 41.4446 216.982 41.3739 217.242 41.2327C217.507 41.0868 217.725 40.8886 217.898 40.6379C218.072 40.3873 218.201 40.1002 218.288 39.7766C218.379 39.4485 218.425 39.0999 218.425 38.7307V38.5735C218.425 38.2089 218.379 37.8648 218.288 37.5413C218.201 37.2131 218.069 36.9237 217.892 36.6731C217.718 36.4179 217.5 36.2174 217.235 36.0715C216.976 35.9257 216.67 35.8528 216.319 35.8528C215.973 35.8528 215.668 35.9257 215.403 36.0715C215.144 36.2174 214.925 36.4179 214.747 36.6731C214.574 36.9237 214.444 37.2131 214.357 37.5413C214.271 37.8648 214.228 38.2089 214.228 38.5735ZM226.115 34.9504V35.9963H222.54V34.9504H226.115ZM227.229 34.9504V42.3469H225.965V34.9504H227.229ZM222.232 34.9504H223.504L223.312 38.5188C223.281 39.0702 223.228 39.5579 223.155 39.9817C223.087 40.401 222.991 40.761 222.868 41.0618C222.75 41.3625 222.599 41.6086 222.417 41.8C222.239 41.9869 222.025 42.1259 221.774 42.217C221.524 42.3036 221.234 42.3469 220.906 42.3469H220.51V41.2327L220.783 41.2122C220.979 41.1985 221.146 41.1529 221.282 41.0754C221.424 40.998 221.542 40.884 221.638 40.7336C221.733 40.5787 221.811 40.3805 221.87 40.1389C221.934 39.8974 221.982 39.6103 222.014 39.2776C222.05 38.9449 222.077 38.5575 222.096 38.1155L222.232 34.9504ZM231.345 41.5813L233.402 34.9504H234.756L231.789 43.4885C231.721 43.6708 231.63 43.8668 231.516 44.0764C231.406 44.2906 231.265 44.4934 231.092 44.6848C230.919 44.8762 230.709 45.0312 230.463 45.1497C230.221 45.2727 229.932 45.3342 229.595 45.3342C229.494 45.3342 229.367 45.3206 229.212 45.2932C229.057 45.2659 228.948 45.2431 228.884 45.2249L228.877 44.1995C228.913 44.204 228.97 44.2086 229.048 44.2131C229.13 44.2222 229.187 44.2268 229.219 44.2268C229.506 44.2268 229.75 44.1881 229.95 44.1106C230.151 44.0377 230.319 43.9124 230.456 43.7346C230.597 43.5614 230.718 43.3222 230.818 43.0168L231.345 41.5813ZM229.834 34.9504L231.755 40.6926L232.083 42.0256L231.174 42.4905L228.453 34.9504H229.834ZM241.476 34.9504V42.3469H240.211V34.9504H241.476ZM241.045 38.3479V39.387C240.79 39.4827 240.53 39.5693 240.266 39.6467C240.006 39.7196 239.73 39.7789 239.438 39.8245C239.151 39.8655 238.839 39.886 238.502 39.886C237.919 39.886 237.413 39.7857 236.984 39.5852C236.556 39.3801 236.226 39.0725 235.993 38.6624C235.761 38.2476 235.645 37.7258 235.645 37.0969V34.9368H236.909V37.0969C236.909 37.5071 236.971 37.8398 237.094 38.095C237.217 38.3502 237.397 38.5393 237.634 38.6624C237.871 38.7808 238.16 38.8401 238.502 38.8401C238.83 38.8401 239.138 38.8196 239.425 38.7786C239.716 38.733 239.994 38.6737 240.259 38.6008C240.528 38.5279 240.79 38.4436 241.045 38.3479ZM246.582 42.4836C246.067 42.4836 245.6 42.3971 245.181 42.2239C244.766 42.0461 244.408 41.7978 244.107 41.4788C243.811 41.1597 243.583 40.7815 243.424 40.344C243.264 39.9065 243.185 39.428 243.185 38.9084V38.6213C243.185 38.0198 243.273 37.4843 243.451 37.0149C243.629 36.5409 243.87 36.1399 244.176 35.8118C244.481 35.4836 244.827 35.2353 245.215 35.0667C245.602 34.898 246.003 34.8137 246.418 34.8137C246.947 34.8137 247.402 34.9049 247.785 35.0872C248.173 35.2694 248.489 35.5247 248.735 35.8528C248.981 36.1764 249.164 36.5592 249.282 37.0012C249.401 37.4387 249.46 37.9172 249.46 38.4368V39.0042H243.937V37.9719H248.195V37.8762C248.177 37.5481 248.109 37.2291 247.99 36.9192C247.876 36.6093 247.694 36.3541 247.443 36.1536C247.193 35.953 246.851 35.8528 246.418 35.8528C246.131 35.8528 245.867 35.9143 245.625 36.0374C245.383 36.1558 245.176 36.3336 245.003 36.5706C244.83 36.8075 244.695 37.0969 244.6 37.4387C244.504 37.7805 244.456 38.1747 244.456 38.6213V38.9084C244.456 39.2594 244.504 39.5898 244.6 39.8997C244.7 40.205 244.843 40.4739 245.03 40.7063C245.222 40.9387 245.452 41.121 245.721 41.2532C245.994 41.3853 246.304 41.4514 246.65 41.4514C247.097 41.4514 247.475 41.3603 247.785 41.178C248.095 40.9957 248.366 40.7519 248.599 40.4465L249.364 41.0549C249.205 41.2965 249.002 41.5266 248.756 41.7454C248.51 41.9641 248.207 42.1418 247.847 42.2786C247.491 42.4153 247.07 42.4836 246.582 42.4836ZM255.954 38.1565V39.1819H252.044V38.1565H255.954ZM252.311 34.9504V42.3469H251.046V34.9504H252.311ZM256.979 34.9504V42.3469H255.708V34.9504H256.979ZM260.384 40.344L263.795 34.9504H265.066V42.3469H263.795V36.9534L260.384 42.3469H259.126V34.9504H260.384V40.344ZM270.166 42.4836C269.651 42.4836 269.184 42.3971 268.765 42.2239C268.35 42.0461 267.992 41.7978 267.691 41.4788C267.395 41.1597 267.167 40.7815 267.008 40.344C266.848 39.9065 266.769 39.428 266.769 38.9084V38.6213C266.769 38.0198 266.857 37.4843 267.035 37.0149C267.213 36.5409 267.454 36.1399 267.76 35.8118C268.065 35.4836 268.411 35.2353 268.799 35.0667C269.186 34.898 269.587 34.8137 270.002 34.8137C270.531 34.8137 270.986 34.9049 271.369 35.0872C271.757 35.2694 272.073 35.5247 272.319 35.8528C272.565 36.1764 272.748 36.5592 272.866 37.0012C272.985 37.4387 273.044 37.9172 273.044 38.4368V39.0042H267.521V37.9719H271.779V37.8762C271.761 37.5481 271.693 37.2291 271.574 36.9192C271.46 36.6093 271.278 36.3541 271.027 36.1536C270.777 35.953 270.435 35.8528 270.002 35.8528C269.715 35.8528 269.451 35.9143 269.209 36.0374C268.967 36.1558 268.76 36.3336 268.587 36.5706C268.414 36.8075 268.279 37.0969 268.184 37.4387C268.088 37.7805 268.04 38.1747 268.04 38.6213V38.9084C268.04 39.2594 268.088 39.5898 268.184 39.8997C268.284 40.205 268.427 40.4739 268.614 40.7063C268.806 40.9387 269.036 41.121 269.305 41.2532C269.578 41.3853 269.888 41.4514 270.234 41.4514C270.681 41.4514 271.059 41.3603 271.369 41.178C271.679 40.9957 271.95 40.7519 272.183 40.4465L272.948 41.0549C272.789 41.2965 272.586 41.5266 272.34 41.7454C272.094 41.9641 271.791 42.1418 271.431 42.2786C271.075 42.4153 270.654 42.4836 270.166 42.4836ZM110.629 58.7307V58.5735C110.629 58.0403 110.706 57.5458 110.861 57.0901C111.016 56.6298 111.24 56.231 111.531 55.8938C111.823 55.552 112.176 55.2877 112.591 55.1008C113.006 54.9094 113.47 54.8137 113.985 54.8137C114.505 54.8137 114.972 54.9094 115.387 55.1008C115.806 55.2877 116.161 55.552 116.453 55.8938C116.749 56.231 116.975 56.6298 117.13 57.0901C117.285 57.5458 117.362 58.0403 117.362 58.5735V58.7307C117.362 59.2639 117.285 59.7584 117.13 60.2141C116.975 60.6698 116.749 61.0686 116.453 61.4104C116.161 61.7476 115.808 62.012 115.394 62.2034C114.983 62.3902 114.519 62.4836 113.999 62.4836C113.479 62.4836 113.012 62.3902 112.598 62.2034C112.183 62.012 111.827 61.7476 111.531 61.4104C111.24 61.0686 111.016 60.6698 110.861 60.2141C110.706 59.7584 110.629 59.2639 110.629 58.7307ZM111.894 58.5735V58.7307C111.894 59.0999 111.937 59.4485 112.023 59.7766C112.11 60.1002 112.24 60.3873 112.413 60.6379C112.591 60.8886 112.812 61.0868 113.076 61.2327C113.34 61.3739 113.648 61.4446 113.999 61.4446C114.345 61.4446 114.648 61.3739 114.908 61.2327C115.173 61.0868 115.391 60.8886 115.564 60.6379C115.738 60.3873 115.868 60.1002 115.954 59.7766C116.045 59.4485 116.091 59.0999 116.091 58.7307V58.5735C116.091 58.2089 116.045 57.8648 115.954 57.5413C115.868 57.2131 115.735 56.9237 115.558 56.6731C115.384 56.4179 115.166 56.2174 114.901 56.0715C114.642 55.9257 114.336 55.8528 113.985 55.8528C113.639 55.8528 113.334 55.9257 113.069 56.0715C112.81 56.2174 112.591 56.4179 112.413 56.6731C112.24 56.9237 112.11 57.2131 112.023 57.5413C111.937 57.8648 111.894 58.2089 111.894 58.5735ZM119.058 62.3469V54.9504H120.322V61.3079H123.727V54.9504H124.998V62.3469H119.058ZM125.873 61.3079L125.75 64.5413H124.622V62.3469H123.658V61.3079H125.873ZM130.316 62.4836C129.801 62.4836 129.334 62.3971 128.915 62.2239C128.5 62.0461 128.143 61.7978 127.842 61.4788C127.546 61.1597 127.318 60.7815 127.158 60.344C126.999 59.9065 126.919 59.428 126.919 58.9084V58.6213C126.919 58.0198 127.008 57.4843 127.186 57.0149C127.363 56.5409 127.605 56.1399 127.91 55.8118C128.215 55.4836 128.562 55.2353 128.949 55.0667C129.337 54.898 129.738 54.8137 130.152 54.8137C130.681 54.8137 131.137 54.9049 131.52 55.0872C131.907 55.2694 132.224 55.5247 132.47 55.8528C132.716 56.1764 132.898 56.5592 133.017 57.0012C133.135 57.4387 133.194 57.9172 133.194 58.4368V59.0042H127.671V57.9719H131.93V57.8762C131.911 57.5481 131.843 57.2291 131.725 56.9192C131.611 56.6093 131.428 56.3541 131.178 56.1536C130.927 55.953 130.585 55.8528 130.152 55.8528C129.865 55.8528 129.601 55.9143 129.359 56.0374C129.118 56.1558 128.91 56.3336 128.737 56.5706C128.564 56.8075 128.43 57.0969 128.334 57.4387C128.238 57.7805 128.19 58.1747 128.19 58.6213V58.9084C128.19 59.2594 128.238 59.5898 128.334 59.8997C128.434 60.205 128.578 60.4739 128.765 60.7063C128.956 60.9387 129.186 61.121 129.455 61.2532C129.729 61.3853 130.038 61.4514 130.385 61.4514C130.831 61.4514 131.21 61.3603 131.52 61.178C131.829 60.9957 132.101 60.7519 132.333 60.4465L133.099 61.0549C132.939 61.2965 132.736 61.5266 132.49 61.7454C132.244 61.9641 131.941 62.1418 131.581 62.2786C131.226 62.4153 130.804 62.4836 130.316 62.4836ZM139.688 58.1565V59.1819H135.778V58.1565H139.688ZM136.045 54.9504V62.3469H134.78V54.9504H136.045ZM140.714 54.9504V62.3469H139.442V54.9504H140.714ZM144.125 54.9504V62.3469H142.86V54.9504H144.125ZM148.979 54.9504L145.472 59.1887H143.701L143.51 58.0813H144.959L147.44 54.9504H148.979ZM147.618 62.3469L144.897 58.9973L145.711 58.0813L149.225 62.3469H147.618ZM151.692 60.344L155.104 54.9504H156.375V62.3469H155.104V56.9534L151.692 62.3469H150.435V54.9504H151.692V60.344ZM163.252 54.9504V62.3469H161.987V54.9504H163.252ZM168.105 54.9504L164.599 59.1887H162.828L162.637 58.0813H164.086L166.567 54.9504H168.105ZM166.745 62.3469L164.024 58.9973L164.838 58.0813L168.352 62.3469H166.745ZM168.967 58.7307V58.5735C168.967 58.0403 169.044 57.5458 169.199 57.0901C169.354 56.6298 169.577 56.231 169.869 55.8938C170.161 55.552 170.514 55.2877 170.929 55.1008C171.343 54.9094 171.808 54.8137 172.323 54.8137C172.843 54.8137 173.31 54.9094 173.725 55.1008C174.144 55.2877 174.499 55.552 174.791 55.8938C175.087 56.231 175.313 56.6298 175.468 57.0901C175.623 57.5458 175.7 58.0403 175.7 58.5735V58.7307C175.7 59.2639 175.623 59.7584 175.468 60.2141C175.313 60.6698 175.087 61.0686 174.791 61.4104C174.499 61.7476 174.146 62.012 173.731 62.2034C173.321 62.3902 172.856 62.4836 172.337 62.4836C171.817 62.4836 171.35 62.3902 170.936 62.2034C170.521 62.012 170.165 61.7476 169.869 61.4104C169.577 61.0686 169.354 60.6698 169.199 60.2141C169.044 59.7584 168.967 59.2639 168.967 58.7307ZM170.231 58.5735V58.7307C170.231 59.0999 170.275 59.4485 170.361 59.7766C170.448 60.1002 170.578 60.3873 170.751 60.6379C170.929 60.8886 171.15 61.0868 171.414 61.2327C171.678 61.3739 171.986 61.4446 172.337 61.4446C172.683 61.4446 172.986 61.3739 173.246 61.2327C173.51 61.0868 173.729 60.8886 173.902 60.6379C174.076 60.3873 174.205 60.1002 174.292 59.7766C174.383 59.4485 174.429 59.0999 174.429 58.7307V58.5735C174.429 58.2089 174.383 57.8648 174.292 57.5413C174.205 57.2131 174.073 56.9237 173.896 56.6731C173.722 56.4179 173.504 56.2174 173.239 56.0715C172.979 55.9257 172.674 55.8528 172.323 55.8528C171.977 55.8528 171.672 55.9257 171.407 56.0715C171.147 56.2174 170.929 56.4179 170.751 56.6731C170.578 56.9237 170.448 57.2131 170.361 57.5413C170.275 57.8648 170.231 58.2089 170.231 58.5735ZM181.538 60.6653L184.054 54.9504H185.271L181.976 62.3469H181.101L177.819 54.9504H179.036L181.538 60.6653ZM178.667 54.9504V62.3469H177.402V54.9504H178.667ZM184.368 62.3469V54.9504H185.64V62.3469H184.368ZM192.605 54.9504V55.9963H188.866V54.9504H192.605ZM189.051 54.9504V62.3469H187.786V54.9504H189.051ZM193.727 54.9504V62.3469H192.455V54.9504H193.727ZM200.118 61.0823V57.2747C200.118 56.983 200.059 56.7301 199.94 56.5159C199.826 56.2971 199.653 56.1285 199.421 56.01C199.188 55.8915 198.901 55.8323 198.56 55.8323C198.241 55.8323 197.96 55.887 197.719 55.9963C197.482 56.1057 197.295 56.2493 197.158 56.427C197.026 56.6047 196.96 56.7961 196.96 57.0012H195.695C195.695 56.7369 195.764 56.4749 195.9 56.2151C196.037 55.9553 196.233 55.7206 196.488 55.511C196.748 55.2968 197.058 55.1282 197.418 55.0051C197.783 54.8775 198.188 54.8137 198.635 54.8137C199.173 54.8137 199.646 54.9049 200.057 55.0872C200.471 55.2694 200.795 55.5452 201.027 55.9143C201.264 56.2789 201.383 56.7369 201.383 57.2883V60.7336C201.383 60.9797 201.403 61.2418 201.444 61.5198C201.49 61.7978 201.556 62.037 201.643 62.2375V62.3469H200.323C200.259 62.2011 200.209 62.0074 200.173 61.7659C200.136 61.5198 200.118 61.2919 200.118 61.0823ZM200.337 57.8625L200.351 58.7512H199.072C198.712 58.7512 198.391 58.7808 198.108 58.8401C197.826 58.8948 197.589 58.9791 197.397 59.093C197.206 59.2069 197.06 59.3505 196.96 59.5237C196.86 59.6923 196.81 59.8905 196.81 60.1184C196.81 60.3508 196.862 60.5627 196.967 60.7542C197.072 60.9456 197.229 61.0982 197.438 61.2122C197.653 61.3215 197.915 61.3762 198.225 61.3762C198.612 61.3762 198.954 61.2942 199.25 61.1301C199.546 60.9661 199.781 60.7655 199.954 60.5286C200.132 60.2916 200.228 60.0614 200.241 59.8381L200.781 60.4465C200.749 60.6379 200.663 60.8499 200.521 61.0823C200.38 61.3147 200.191 61.538 199.954 61.7522C199.722 61.9618 199.444 62.1373 199.12 62.2786C198.801 62.4153 198.441 62.4836 198.04 62.4836C197.539 62.4836 197.099 62.3857 196.721 62.1897C196.347 61.9937 196.055 61.7317 195.846 61.4036C195.641 61.0709 195.538 60.6995 195.538 60.2893C195.538 59.8928 195.616 59.5442 195.771 59.2434C195.925 58.9381 196.149 58.6851 196.44 58.4846C196.732 58.2795 197.083 58.1246 197.493 58.0198C197.903 57.915 198.361 57.8625 198.867 57.8625H200.337ZM208.39 58.1565V59.1819H204.479V58.1565H208.39ZM204.746 54.9504V62.3469H203.481V54.9504H204.746ZM209.415 54.9504V62.3469H208.144V54.9504H209.415ZM212.819 60.344L216.23 54.9504H217.502V62.3469H216.23V56.9534L212.819 62.3469H211.562V54.9504H212.819V60.344ZM220.899 60.344L224.311 54.9504H225.582V62.3469H224.311V56.9534L220.899 62.3469H219.642V54.9504H220.899V60.344Z" fill="black"/>
<path d="M85 42.3469L59 42.3469" stroke="#00A3FF" stroke-miterlimit="10" stroke-linecap="round"/>
<path d="M80 41.8235C79.9954 43.3078 80.4313 44.7602 81.2526 45.9966C82.0739 47.2331 83.2436 48.198 84.6136 48.7693C85.9837 49.3405 87.4924 49.4924 88.9488 49.2057C90.4052 48.9189 91.7437 48.2065 92.795 47.1585C93.8462 46.1106 94.5629 44.7742 94.8542 43.3187C95.1455 41.8632 94.9983 40.354 94.4313 38.9822C93.8644 37.6104 92.9031 36.4377 91.6692 35.6126C90.4354 34.7874 88.9844 34.3469 87.5 34.3469C85.515 34.3469 83.6108 35.1339 82.205 36.5353C80.7991 37.9368 80.0062 39.8384 80 41.8235V41.8235Z" fill="#00A3FF"/>
<path d="M87.4766 44.7532C85.8586 44.7532 84.5469 43.4415 84.5469 41.8235C84.5469 40.2055 85.8586 38.8938 87.4766 38.8938C89.0946 38.8938 90.4062 40.2055 90.4062 41.8235C90.4062 43.4415 89.0946 44.7532 87.4766 44.7532Z" fill="white"/>
<defs>
<filter id="filter0_d_315_334" x="262.322" y="0.669434" width="83.3555" height="83.3555" filterUnits="userSpaceOnUse" color-interpolation-filters="sRGB">
<feFlood flood-opacity="0" result="BackgroundImageFix"/>
<feColorMatrix in="SourceAlpha" type="matrix" values="0 0 0 0 0 0 0 0 0 0 0 0 0 0 0 0 0 0 127 0" result="hardAlpha"/>
<feOffset/>
<feGaussianBlur stdDeviation="12"/>
<feComposite in2="hardAlpha" operator="out"/>
<feColorMatrix type="matrix" values="0 0 0 0 0.579167 0 0 0 0 0.579167 0 0 0 0 0.579167 0 0 0 0.3 0"/>
<feBlend mode="normal" in2="BackgroundImageFix" result="effect1_dropShadow_315_334"/>
<feBlend mode="normal" in="SourceGraphic" in2="effect1_dropShadow_315_334" result="shape"/>
</filter>
</defs>
</svg>
